<?xml version="1.0" encoding="utf-8" ?><svg xmlns="http://www.w3.org/2000/svg" xmlns:xlink="http://www.w3.org/1999/xlink" width="2048" height="1024" viewBox="0 0 2048 1024"><path fill="#2C2325" d="M1383.35 257.436L1383.57 258.39C1387.81 277.472 1364.87 279.467 1352.15 275.617C1323.19 266.849 1324.1 239.117 1355.49 235.908C1376.22 233.79 1405.13 247.436 1407.93 270.018C1409.33 284.711 1395.4 295.515 1382.94 299.909C1355.32 309.651 1322.77 303.501 1300.74 284.006C1284.26 269.424 1276.62 242.94 1293.95 225.655C1323.53 198.335 1375.57 209.945 1407.8 225.437C1460.9 250.964 1505.41 291.447 1557.62 318.451C1571.79 325.377 1586.98 331.333 1602.52 334.17C1624.66 338.148 1646.54 342.492 1668.3 348.234C1682.52 351.989 1696.62 355.506 1710.7 359.868C1720.8 362.999 1731.12 367.411 1741.2 370.24C1732.16 360.669 1729.37 356.768 1718.86 349.151L1720.33 348.044L1722.18 348.686C1721.24 344.472 1718.13 337.5 1716.46 332.9C1709.78 314.467 1713.7 296.044 1723.78 279.548C1756.67 225.722 1866.94 225.418 1884.48 292.439C1892.51 323.145 1863.98 349.283 1835.6 353.499C1815.97 356.989 1795.67 355.77 1778.42 344.79C1767.26 337.713 1759.4 321.761 1767.89 309.816C1771.59 304.543 1777.27 300.989 1783.63 299.957C1788.96 299.077 1796.59 299.672 1800.75 303.445C1796.67 305.629 1781 299.221 1776.91 315.422C1773.35 331.117 1790.48 341.467 1802.95 345.051C1829.46 353.11 1871.63 341.077 1878.57 310.992C1886.33 277.38 1854.99 255.246 1826.12 248.155C1766.63 233.548 1689.88 282.454 1729.75 348.085C1747.93 377.993 1779.56 382.846 1808.36 398.508C1884.31 437.84 1946.95 484.437 1983.83 563.98C1956.9 530.307 1925.37 494.998 1889.06 471.059C1884.19 467.85 1848.58 462.633 1840.33 461.241C1782.77 451.115 1695.5 474.615 1687.07 542.498C1680.67 594.025 1747.87 633.65 1789.71 598.907C1812.27 580.171 1804.3 537.33 1778.84 536.142L1778.67 536.89C1781.42 540.264 1786.37 545.384 1785.54 549.972C1782.65 565.518 1765.09 569.084 1755.09 557.521C1749.35 550.891 1752.7 539.72 1759.52 535.684C1787.03 519.387 1811.35 550.294 1805.87 576.801C1803.4 588.775 1796.14 599.219 1785.79 605.71C1772.4 614.214 1752.98 616.795 1737.54 613.151C1719.05 608.703 1703.05 597.141 1693.04 580.975C1669.01 541.725 1692.19 498.33 1728.48 476.945C1760.01 458.374 1796.51 453.864 1832.43 458.247C1823.36 454.835 1803.6 448.649 1794.41 445.717C1784.23 442.471 1743.86 425.277 1736.99 425.106C1734.55 424.779 1734.36 424.514 1732.23 423.156L1731.37 423.064C1721.52 426.203 1704.84 427.538 1694.29 428.464C1653.9 431.925 1613.63 430.319 1573.18 433.546C1546.63 435.664 1524.57 439.46 1501.22 453.181C1480.02 465.636 1474.75 488.774 1499.4 501.04C1505.89 504.273 1513.41 504.795 1520.29 502.492C1536.68 496.89 1538.25 478.228 1518.92 480.363L1518.37 478.869C1516.19 480.682 1514.32 482.516 1512.48 484.665L1509.27 484.247C1505.04 472.158 1519.52 461.159 1529.61 458.253C1566.66 447.583 1604.47 483.278 1573.6 516.993C1553.24 538.722 1528.16 547.198 1499.33 550.144C1438.67 556.342 1384.54 490.868 1433.25 439.57C1471.94 398.814 1542.56 389.55 1596.9 386.891C1601.07 385.643 1604.06 386.954 1607.95 384.308C1576.91 378.075 1527.74 372.55 1496.95 379.254C1444.05 390.773 1394.62 430.346 1368.88 476.757L1367.7 474.679C1391.81 425.495 1431.39 401.413 1479.74 379.94C1459.39 383.654 1438.97 387.823 1419.36 394.529C1372.04 410.714 1327.63 442.766 1299.16 484.123C1276.97 516.349 1262.26 558.569 1269.59 597.886C1275.18 627.179 1292.16 653.059 1316.81 669.841C1334.31 681.736 1355.37 686.8 1376.29 682.784C1394.18 679.348 1411.35 669.57 1421.65 654.283C1428.94 643.646 1431.56 630.487 1428.89 617.869C1425.88 603.661 1417.31 591.245 1405.1 583.382C1393.09 575.737 1377.62 572.9 1363.73 576.178C1353.01 578.706 1342.99 584.975 1337.22 594.519C1332.96 601.44 1331.75 609.818 1333.89 617.66C1336.84 628.517 1344.35 635.403 1352.87 642.022C1342.87 637.235 1334.26 630.128 1330.56 619.296C1327.47 610.23 1328.92 600.39 1333.24 591.98C1339.02 580.716 1349.42 572.993 1361.36 569.242C1376.26 564.561 1393.19 566.33 1406.99 573.547C1422.28 581.66 1433.82 595.403 1439.15 611.868C1444.12 627.692 1441.21 643.665 1433.45 657.957C1424.54 674.349 1406.74 684.521 1389.32 689.56C1365.62 696.412 1340.72 693.095 1319.22 681.22C1291.71 665.962 1271.3 640.496 1262.4 610.32C1250.48 568.622 1260.53 526.172 1281.24 489.18C1290.94 471.837 1303.21 456.598 1316.79 442.183C1257.92 483.918 1206.19 529.586 1174.77 596.072C1166.28 614.039 1158.68 634.249 1155.27 653.883C1151.69 674.566 1153.7 697.839 1166.35 715.315C1173.77 725.575 1184.98 732.994 1197.56 735.007C1208.38 736.738 1220.41 734.208 1229.21 727.55C1236.17 722.284 1239.96 714.8 1241.15 706.227C1242.43 697.43 1240.04 688.491 1234.52 681.52C1228.33 673.626 1218.78 667.746 1208.71 666.751C1201.74 666.063 1193.36 667.725 1187.87 672.299C1184.72 674.927 1183.25 678.593 1183.01 682.626C1182.82 685.903 1183.61 688.972 1185.14 691.862L1183.84 693.162C1183.07 692.061 1182.45 690.915 1181.95 689.665C1180.29 685.464 1179.91 680.836 1181.77 676.624C1184.07 671.39 1189.13 667.901 1194.34 665.928C1202.97 662.654 1212.91 663.497 1221.25 667.234C1230.91 671.523 1238.42 679.563 1242.03 689.502C1245.39 698.968 1245.36 709.58 1240.9 718.682C1236.73 727.202 1228.99 733.23 1220.11 736.273C1208.17 740.367 1195.1 739.523 1183.79 733.929C1163.88 724.174 1156.7 706.701 1149.89 687.051C1150.05 708.585 1153.08 729.925 1153.21 751.408C1153.38 780.655 1146.51 812.489 1125.2 833.89C1112.47 846.673 1095.21 854.632 1077.01 854.477C1067.3 854.395 1055.58 851.629 1048.65 844.336C1045.36 840.868 1043.62 836.536 1043.81 831.753C1043.96 828.101 1044.88 823.646 1047.72 821.138C1051.88 817.476 1060.05 814.212 1065.62 814.775C1067.71 814.986 1068.34 815.204 1069.65 816.776L1069.26 817.936C1068.37 817.64 1067.48 817.361 1066.56 817.161C1061.99 816.162 1056.31 817.739 1052.49 820.286C1049.54 822.254 1047.24 825.13 1046.64 828.699C1045.92 832.946 1047.74 838.066 1050.21 841.483C1054.6 847.561 1061.93 849.889 1069.05 850.854C1085.97 853.047 1103.07 848.366 1116.51 837.859C1159.95 804.416 1149.13 746.295 1146.76 699.056C1146.01 684.089 1146.42 668.719 1148.42 653.858C1156.88 590.941 1200.43 527.476 1246.22 485.027C1263.93 468.609 1282.81 455.213 1301.95 440.697C1302.78 440.455 1303.7 440.195 1304.44 439.746C1307 438.204 1307.34 437.158 1308.2 434.474C1316.38 426.6 1356.18 406.161 1367.17 401.322L1370.35 398.71C1406.06 387.388 1421.25 380.394 1459.92 372.812C1618.99 341.62 1734.64 434.814 1881.6 465.212C1872.75 457.169 1848.84 443.286 1837.57 436.89C1637.33 323.184 1388.78 318.072 1173.94 392.143C1154.71 398.773 1129.88 406.568 1111.35 416.143C1029.69 477.599 952.816 573.858 953.165 680.696C953.345 736.104 994.563 794.022 1054.68 790.537C1075.34 789.372 1094.66 779.924 1108.26 764.331C1120.09 750.972 1128.12 734.688 1126.93 716.437C1125.97 701.711 1119.12 687.992 1107.93 678.375C1096.94 668.886 1082.57 664.267 1068.11 665.577C1046.41 667.547 1028.19 683.045 1030.97 706.108C1031.87 713.999 1035.97 721.172 1042.32 725.944C1051.05 732.452 1059.63 732.791 1069.67 729.84L1070.56 731.901C1055.31 737.443 1039.19 733.082 1029.41 720.737C1001.69 685.758 1037.59 649.457 1074.31 651.133C1091.99 651.993 1108.6 659.862 1120.46 672.999C1132.66 686.302 1138.95 703.982 1137.89 722.002C1136.8 742.834 1127.7 761.301 1112.19 775.225C1093.98 791.642 1069.99 800.159 1045.5 798.903C1018.72 797.24 993.676 785.092 975.793 765.091C951.794 738.258 940.058 694.261 943.275 659.079C952.181 561.66 1005.4 491.66 1074.6 430.017C985.077 471.244 908.303 511.702 822.027 558.468C843.524 560.595 855.635 562.749 875.677 572.222C889.81 578.903 915.836 598.528 920.877 613.514C920.054 617.267 919.231 616.932 915.279 619.766C919.41 627.733 945.501 659.684 934.872 669.014C930.321 669.84 925.532 668.705 920.928 667.942C927.157 683.507 927.713 694.699 925.891 710.961C922.456 710.407 918.546 709.446 915.286 710.383C915.987 713.999 916.617 717.628 917.177 721.268C919.55 738.723 915.046 756.417 904.617 770.613C900.287 767.33 894.249 763.808 889.543 760.879C891.105 792.716 881.004 815.523 861.739 840.065C857.838 832.955 854.977 829.577 849.696 823.706C845.938 853.139 832.61 865.922 813.918 886.668C809.472 877.994 804.723 871.741 798.358 864.496C786.195 891.496 778.484 899.33 755.198 916.66L750.996 903.859C733.968 933.42 714.849 940.09 685.329 954.99C686.33 934.539 685.363 929.678 679.895 909.176C662.437 929.63 650.24 938.08 624.725 947.371C627.649 939.484 628.733 935.365 630.543 927.12C614.622 939.097 598.766 945.527 579.423 950.276C575.813 951.162 570.248 952.957 566.716 952.472C565.497 949.698 565.319 948.603 564.738 945.734C559.647 947.33 544.409 954.98 538.726 957.661C524.581 964.434 510.119 970.523 495.389 975.909C502.768 957.177 505.77 947.638 498.86 927.966C479.13 944.866 461.212 945.249 436.041 950.4C438.861 943.593 440.687 938.292 442.929 931.262C417.63 937.749 396.54 939.544 370.771 938.856C376.64 932.52 379.228 928.16 383.853 920.884C368.778 922.444 353.661 921.177 338.485 921.789C326.593 922.27 316.015 924.554 304.409 926.858C306.077 921.533 307.786 912.842 309.065 907.17C293.983 910.186 270.809 913.509 255.317 912.308C254.482 910.42 257.135 905.723 258.172 902.573C257.04 900.677 253.767 900.988 251.527 901.284C188.691 909.587 121.699 899.171 64.5858 869.819C150.017 864.606 153.971 836.253 212.328 790.827C206.895 788.383 204.692 786.964 199.846 783.75C212.227 777.113 220.334 770.499 231.457 761.961C219.502 757.17 214.2 753.827 205.371 744.734C246.275 741.186 248.745 716.814 263.993 685.539C270.211 672.784 276.816 663.855 286.054 653.276C280.785 653.322 275.164 653.716 269.875 653.991C287.252 620.974 301.784 601.243 333.931 581.233L314.145 582.276C336.632 555.375 348.042 550.099 380.654 540.217C357.906 527.449 333.322 507.85 313.034 491.206C370.882 505.053 369.194 481.314 419.99 472.176C416.043 470.775 411.327 469.451 407.27 468.2C426.034 453.635 442.908 449.391 466.357 446.797C460.356 443.434 455.941 442.115 449.45 439.923C472.648 424.439 491.346 423.975 517.985 424.151C514.99 421.921 511.514 419.631 508.413 417.487C526.106 413.151 541.383 412.09 559.294 414.73C555.457 412.03 551.677 409.249 547.957 406.389C579.016 401.653 592.165 400.642 622.923 409.729C618.043 404.326 617.676 403.78 611.582 399.713C649.994 388.45 692.463 402.251 723.971 424.782C722.102 420.431 720.354 414.38 718.874 409.763C760.695 424.23 798.295 465.498 797.427 511.529C797.12 527.774 791.37 540.195 783.837 554.157C788.406 551.98 793.385 549.336 797.777 546.846C1006.41 428.554 1229.27 313.67 1476.05 321.762C1508.97 322.842 1540.01 326.489 1572.66 329.464C1514.86 305.069 1467.2 260.483 1411.34 232.088C1395.49 224.141 1379.4 218.506 1361.88 215.101C1339.48 209.205 1290.39 216.438 1288.24 245.215C1284.56 294.235 1361 316.639 1394.67 289.594C1407.1 279.61 1407.03 267.07 1397.88 256.362C1386.81 241.133 1353.35 231.883 1338.46 246.507C1317.61 266.982 1382.58 292.139 1381.97 260.191L1381.95 259.323L1383.35 257.436Z"/><path fill="white" d="M1512.48 484.665C1512.01 482.075 1512.19 479.411 1512.98 476.902C1518.46 459.763 1544.08 457.429 1557.52 462.834C1604.47 481.719 1572.65 522.54 1542.17 535.657C1519.61 545.663 1487.86 551.999 1464.18 541.623C1391.65 509.847 1413.35 439.218 1477.58 413.755C1532.9 391.821 1588.78 384.049 1646.88 393.564C1670.63 397.454 1706.11 412.737 1728.48 421.129C1729.58 421.722 1730.56 422.117 1731.37 423.064C1721.52 426.203 1704.84 427.538 1694.29 428.464C1653.9 431.925 1613.63 430.319 1573.18 433.546C1546.63 435.664 1524.57 439.46 1501.22 453.181C1480.02 465.636 1474.75 488.774 1499.4 501.04C1505.89 504.273 1513.41 504.795 1520.29 502.492C1536.68 496.89 1538.25 478.228 1518.92 480.363L1518.37 478.869C1516.19 480.682 1514.32 482.516 1512.48 484.665Z"/><path fill="#423B3C" d="M1728.48 421.129C1729.58 421.722 1730.56 422.117 1731.37 423.064C1721.52 426.203 1704.84 427.538 1694.29 428.464C1653.9 431.925 1613.63 430.319 1573.18 433.546C1546.63 435.664 1524.57 439.46 1501.22 453.181C1480.02 465.636 1474.75 488.774 1499.4 501.04C1505.89 504.273 1513.41 504.795 1520.29 502.492C1536.68 496.89 1538.25 478.228 1518.92 480.363L1518.37 478.869C1521.11 478.071 1527.16 477.753 1529.25 479.613C1553.84 501.531 1505.7 514.578 1489.56 498.763C1480.09 493.341 1475.28 473.155 1483.73 464.227C1522.92 422.84 1615.41 429.98 1667.62 427.679C1688.02 426.808 1708.35 424.62 1728.48 421.129Z"/><path fill="#2C2325" d="M1537.23 419.277L1538.49 419.354C1537.9 420.745 1495.26 442.155 1488.63 447.218L1487.7 447.531L1487.16 446.654C1487.48 445.855 1487.84 445.062 1488.3 444.337C1497.54 429.962 1521.33 422.414 1537.23 419.277Z"/><path fill="#F0EEED" d="M1607.95 384.308C1612.57 385.053 1615.95 385.671 1620.47 386.828C1612.17 387.231 1605.22 387.114 1596.9 386.891C1601.07 385.643 1604.06 386.954 1607.95 384.308Z"/><path fill="white" d="M609.272 907.17C621.722 881.747 629.138 850.966 629.042 822.61C629.011 813.746 626.16 804.465 628.379 795.724C631.963 781.602 636.552 767.671 640.321 753.581C646.705 729.713 663.072 653.563 679.491 637.602C690.382 627.016 723.592 612.103 738.49 603.252C731.071 683.941 731.994 765.338 692.891 838.942C665.377 890.731 631.648 924.385 575.126 941.598L574.841 929.745C552.908 937.388 531.857 949.923 510.439 959.187C513.736 942.302 511.147 931.082 503.802 915.786C515.045 896.498 520.632 879.206 517.46 856.781C516.588 874.636 512.613 892.376 503.048 907.69C490.609 927.606 473.143 932.391 451.825 937.326C452.204 934.816 452.498 932.295 452.707 929.765C453.043 925.472 453.507 921.916 450.591 918.505C431.663 926 409.909 927.217 389.785 929.195C393.602 922.172 395.055 914.706 396.539 906.947C371.828 916.402 344.007 910.7 318.043 914.04C320.068 906.093 321.859 898.298 322.964 890.168C305.792 900.364 287.195 901.438 267.708 902.432L271.549 892.85C330.673 875.629 355.646 832.881 389.592 785.752C416.182 773.753 442.512 761.186 468.564 748.061L468.959 747.474C469.138 747.448 469.318 747.427 469.496 747.397C469.793 747.348 470.088 747.285 470.385 747.237C473.232 746.774 474.659 745.787 476.9 744.1C507.702 727.975 539.538 712.907 569.785 695.852C547.492 726.597 535.056 760.809 519.248 794.955C502.665 831.137 479.317 863.813 450.46 891.224C441.606 899.564 429.849 911.199 417.952 914.833C417.021 915.118 416.101 915.431 415.166 915.706C445.322 910.215 480.504 865.984 497.656 841.207C502.971 833.463 507.967 825.504 512.629 817.35C507.215 847.69 495.744 879.87 478.962 905.678C472.809 915.14 465.605 922.627 457.841 930.715C457.162 931.422 454.973 933.172 455.378 933.907C465.7 925.571 475.161 916.871 483.024 906.117C494.379 890.586 515.31 842.604 517.58 823.462C518.261 817.721 517.488 811.078 519.148 805.559C524.768 786.872 562.62 704.622 576.545 693.122C586.39 684.993 600.146 679.195 611.444 673.159C631.845 662.26 652.368 651.418 672.377 639.814C655.976 673.212 647.769 710.252 638.126 746.016C628.763 780.743 617.692 814.99 601.2 847.063C587.945 872.841 570.902 897.369 552.155 919.445C546.218 926.436 535.829 934.643 531.216 941.566L532.018 941.863C574.671 908.725 602.022 859.013 623.054 810.42C625.106 843.369 619.492 875.767 607.524 906.479L609.272 907.17Z"/><path fill="#2C2325" d="M468.564 748.061L468.959 747.474C469.138 747.448 469.318 747.427 469.496 747.397C469.793 747.348 470.088 747.285 470.385 747.237C473.232 746.774 474.659 745.787 476.9 744.1C467.574 757.257 458.464 770.238 450.061 784.031C423.13 828.236 402.561 867.98 357.745 897.46C351.87 901.324 339.153 909.036 332.508 910.325C331.564 910.508 330.622 910.522 329.666 910.468C340.368 904.906 351.712 899.018 361.518 892.03C398.358 865.782 420.495 825.427 443.551 787.723C451.441 774.821 462.056 761.551 468.564 748.061Z"/><path fill="#696464" d="M600.56 920.525C603.137 916.019 605.251 911.15 607.524 906.479L609.272 907.17C606.978 911.887 604.716 916.565 602.006 921.063L600.56 920.525Z"/><path fill="#B9B4B3" d="M600.56 920.525L602.006 921.063C600.175 924.398 597.817 929.644 594.246 931.191C594.692 927.439 598.355 923.559 600.56 920.525Z"/><path fill="white" d="M352.7 509.267C371.828 512.648 391.786 512.618 411.133 514.378C433.645 516.425 456.141 520.625 478.2 525.468C565.537 544.642 645.212 588.425 737.255 580.975C695.998 603.354 655.408 627.116 614.348 649.894C579.403 650.563 543.597 640.877 509.847 632.906C499.935 630.566 488.164 628.876 478.925 624.574C472.224 621.454 466.259 615.833 459.713 612.167C432.048 596.675 392.105 574.943 361.1 569.846L360.977 571.141C356.238 571.059 349.881 570.053 345.849 572.954C345.226 573.232 345.199 573.273 344.421 573.452C342.055 573.997 338.589 574.36 336.492 573.058C354.281 554.574 376.735 550.982 401.07 548.305L401.628 546.572C397.39 535.524 363.249 517.957 352.7 509.267Z"/><path fill="#9B9494" d="M336.492 573.058C345.359 573.012 351.989 567.214 361.1 569.846L360.977 571.141C356.238 571.059 349.881 570.053 345.849 572.954C345.226 573.232 345.199 573.273 344.421 573.452C342.055 573.997 338.589 574.36 336.492 573.058Z"/><path fill="white" d="M742.393 601.041C757.453 593.872 772.115 585.588 786.825 577.717C789.492 600.447 794.423 622.993 797.419 645.72C801.065 673.369 804.24 701.585 803.936 729.515C803.317 786.286 787.244 846.277 758.445 895.25C755.428 890.354 751.725 885.934 748.15 881.44C747.485 885.074 746.515 888.645 745.252 892.117C736.715 915.986 716.436 929.243 694.508 939.586C693.216 921.462 689.479 905.26 681.592 888.86C669.451 907.174 658.949 918.387 639.924 929.433C640.042 923.574 639.729 918.316 638.631 912.553C679.575 879.416 702.734 836.869 719.273 787.842C726.205 829.237 720.764 872.072 706.367 911.401L708.008 913.007C720.723 881.15 729.747 846.412 727.497 811.845C726.7 799.599 722.916 786.564 723.669 774.383C724.247 765.034 727.065 755.411 728.881 746.197C731.133 734.589 732.866 722.886 734.076 711.124C737.925 674.632 737.416 637.295 742.393 601.041Z"/><path fill="#696464" d="M706.367 911.401L708.008 913.007C706.706 916.651 704.871 920.196 703.256 923.717L703.315 923.453L701.249 926.776C701.328 921.879 704.571 915.962 706.367 911.401Z"/><path fill="white" d="M440.175 461.336L441.739 460.448C451.328 461.929 461.648 459.686 471.449 459.989C473.834 460.577 476.339 461.051 478.648 461.883C543.522 464.552 607.39 478.845 667.213 504.082C688.985 513.247 709.86 524.24 731.325 534.058C748.189 541.772 765.641 548.088 782.455 555.945C769.664 563.426 754.868 571.287 740.3 574.277C680.264 586.598 595.313 554.983 538.396 537.823C516.871 531.145 495.038 525.505 472.971 520.922C452.109 516.62 430.991 513.663 409.749 512.068C388.057 510.55 365.259 510.521 343.927 506.305C351.121 504.498 358.519 504.771 365.64 502.206C382.386 496.175 396.522 485.761 414.43 482.661C418.684 481.924 425.322 482.118 429.014 479.893C431.355 478.483 431.587 477.532 432.04 475.066C430.915 471.432 427.717 468.89 425.054 466.324C430.056 464.194 434.927 462.691 440.175 461.336Z"/><path fill="#696464" d="M440.175 461.336L441.739 460.448C451.328 461.929 461.648 459.686 471.449 459.989C473.834 460.577 476.339 461.051 478.648 461.883C467.06 462.1 451.293 464.007 440.175 461.336Z"/><path fill="white" d="M336.342 616.483C404.558 603.929 497.071 637.418 565.506 650.268C578.444 652.697 591.441 653.907 604.535 655.104C585.272 665.955 552.523 686.943 533.078 693.849C524.499 696.895 515.308 698.059 506.307 699.159C466.279 704.048 430.191 694.987 391.092 688.981C358.926 684.04 325.418 680.039 292.948 684.114L291.918 686.442C286.418 687.337 280.54 687.898 275.242 689.634C275.167 688.504 275.373 687.281 275.466 686.149C280.331 675.667 287.719 665.662 296.531 658.165C301.611 653.844 315.216 648.034 317.794 642.825C310.129 639.654 294.815 643.403 286.415 644.135C289.64 638.335 292.336 634.588 298.01 630.969C310.537 623.565 322.086 619.356 336.342 616.483Z"/><path fill="#696464" d="M275.466 686.149C279.389 687.779 288.552 684.953 292.948 684.114L291.918 686.442C286.418 687.337 280.54 687.898 275.242 689.634C275.167 688.504 275.373 687.281 275.466 686.149Z"/><path fill="white" d="M895.006 666.568C883.971 657.662 871.944 650.408 858.367 646.053C848.652 642.937 838.258 641.536 829.695 635.637C818.972 628.248 810.979 615.506 804.594 604.413C800.16 596.71 793.408 586.25 791.541 577.636L792.121 575.392C797.381 573.602 803.692 577.542 808.444 579.879C841 595.89 872.451 612.555 898.166 638.818C902.075 642.812 907.769 647.803 909.611 653.189C909.79 653.711 909.946 654.241 910.092 654.774C907.614 654.714 905.038 652.433 903.141 653.6C904.304 657.875 907.547 661.536 909.927 665.22C915.287 673.517 916.027 684.062 916.33 693.735C916.428 696.876 917.578 699.495 918.749 702.374C910.22 698.515 901.302 693.762 892.26 691.286C903.593 706.363 910.592 719.296 907.821 738.806C906.88 745.436 904.9 751.553 902.52 757.788C897.226 754.667 886.248 747.286 879.921 748.767C879.234 748.928 878.606 749.191 877.97 749.484C875.808 753.664 880.284 766.054 880.189 771.908C879.917 788.708 873.699 806.272 864.613 820.285C863.91 815.407 863.036 810.651 861.991 805.836C858.104 772.939 839.315 732.668 823.212 703.498C817.943 693.953 809.802 684.519 806.168 674.294C802.794 664.804 803.126 652.104 801.7 641.966C799.244 625.388 796.365 608.876 793.066 592.446C808.294 624.084 826.479 637.988 849.399 662.667C869.892 684.73 886.27 709.886 896.831 738.089L898.248 737.995C889.643 703.749 866.679 671.296 841.769 646.934C860.263 652.067 877.207 656.788 892.935 668.112L895.006 666.568Z"/><path fill="#423B3C" d="M895.006 666.568C901.307 672.852 907.723 678.893 911.851 686.896C904.94 682.683 899.369 673.573 892.935 668.112L895.006 666.568Z"/><path fill="#B9B4B3" d="M898.248 737.995C899.761 740.572 901.013 744.189 900.478 747.159C898.187 745.205 897.596 740.952 896.831 738.089L898.248 737.995Z"/><path fill="white" d="M291.918 686.442C349.764 677.55 407.686 700.754 464.627 705.621C481.943 707.101 498.907 705.721 516.086 703.632C500.545 712.474 484.466 720.416 468.756 728.97C453.901 737.059 437.096 748.778 421.019 753.549C386.062 763.924 343.495 758.981 307.616 756.897C281.374 755.372 254.532 756.561 228.748 750.366C266.181 732.977 260.954 699.323 275.242 689.634C280.54 687.898 286.418 687.337 291.918 686.442Z"/><path fill="white" d="M628.195 405.517C673.591 422.169 701.06 468.97 730.653 504.522C742.191 518.382 754.884 530.563 767.486 543.401C737.523 532.513 709.241 517.807 680.25 504.624C658.182 495.108 635.243 487.54 612.402 480.125C610.964 477.589 609.488 475.075 607.974 472.584C590.542 444.076 565.772 430.747 534.241 423.167C545.813 422.417 565.447 427.77 572.378 425.723C572.986 425.066 574.046 424.29 574.105 423.392C574.419 418.577 570.798 415.402 567.805 412.117C583.335 411.706 599.987 412.89 614.821 417.821C621.356 419.993 628.208 424.16 635.063 424.791L635.951 423.657C635.79 417.665 631.09 410.734 628.195 405.517Z"/><path fill="white" d="M234.246 882.294C247.304 873.428 258.784 863.402 269.783 852.116C276.33 845.398 282.759 837.572 290.187 831.846C299.593 824.595 312.871 820.364 323.738 815.542L381.238 790.153C366.204 815.751 344.79 842.443 322.582 862.175C314.981 868.928 282.771 891.452 273.432 890.351C271.98 890.18 271.514 889 270.637 887.909C263.572 887.882 255.185 891.178 247.969 892.166C205.566 897.968 162.044 892.809 121.115 880.94C115.859 879.416 107.023 877.947 102.738 874.684L104.833 874.244C107.574 872.673 109.433 871.77 112.652 871.548C132.936 874.501 166.264 866.742 186.515 862.402L187.051 864.532C219.831 855.789 250.731 844.884 282.437 832.905C267.006 849.564 250.937 867.723 232.278 880.852L234.246 882.294Z"/><path fill="#696464" d="M186.515 862.402L187.051 864.532C159.812 870.149 132.69 873.85 104.833 874.244C107.574 872.673 109.433 871.77 112.652 871.548C132.936 874.501 166.264 866.742 186.515 862.402Z"/><path fill="#696464" d="M232.278 880.852L234.246 882.294C231.04 884.189 227.73 886.52 224.015 887.158C225.054 884.613 229.903 882.34 232.278 880.852Z"/><path fill="white" d="M374.527 784.032C440.321 750.041 505.72 715.293 570.712 679.793L779.765 563.106C1016.15 433.778 1221.67 314.563 1502.2 331.283C1499.08 333.726 1493.89 333.031 1489.47 333.222C1209.83 330.676 1017.46 443.357 779.225 572.684C684.388 625.337 589.024 677.033 493.146 727.766C453.711 748.195 416.121 766.011 376.328 785.268L374.527 784.032Z"/><path fill="white" d="M220.732 781.595C231.645 775.421 241.282 765.104 253.135 760.957C274.531 753.471 336.101 763.03 361.925 763.726C377.791 764.154 393.409 762.575 409.178 761.079C359.457 789.146 332.066 802.438 274.243 807.818C249.989 810.075 228.099 810.519 204.518 817.631C200.759 818.891 196.242 820.998 192.289 821.078C209.254 804.417 227.925 790.58 250.892 783.545C258.818 781.118 267.084 779.86 274.877 777.019L275.812 776.672C257.65 777.181 238.897 780.02 220.732 781.595Z"/><path fill="white" d="M806.605 685.508C829.41 722.085 848.535 764.32 860.32 805.816L861.991 805.836C863.036 810.651 863.91 815.407 864.613 820.285L861.997 823.337C856.682 818.375 851.697 812.799 844.352 811.149C843.948 811.241 841.56 811.634 841.403 811.818C840.77 812.562 838.758 827.452 838.235 829.811C835.616 841.606 829.475 855.91 821.583 865.082C819.464 867.544 817.571 868.877 814.217 869.107C810.969 864.754 815.146 851.65 815.58 846.041C816.717 831.364 815.893 816.597 812.392 802.268C809.986 792.418 806.43 782.186 805.936 772.017C805.45 762.009 808.215 751.5 808.576 741.403C809.241 722.811 807.764 704.051 806.605 685.508Z"/><path fill="#696464" d="M860.32 805.816L861.991 805.836C863.036 810.651 863.91 815.407 864.613 820.285L861.997 823.337C862.179 817.284 861.357 811.757 860.32 805.816Z"/><path fill="white" d="M635.942 405.921C643.074 405.844 650.2 406.358 657.246 407.458C690.815 412.388 719.243 428.231 739.548 455.5C738.69 445.798 736.106 436.329 733.46 426.992C755.615 452.321 763.78 480.407 768.351 513.029L772.227 539.766C742.276 512.957 719.321 480.142 692.546 450.395C683.027 439.82 673.257 428.628 661.808 420.116C653.757 414.13 645.063 410.016 635.942 405.921Z"/><path fill="white" d="M206.421 819.465C227.054 812.372 248.297 813.493 269.749 812.203C289.691 811.003 310.647 808.508 329.976 803.408C285.828 826.707 234.849 849.739 186.515 862.402C166.264 866.742 132.936 874.501 112.652 871.548C136.923 865.772 153.157 856.07 171.738 839.678C177.381 834.7 183.35 828.423 189.791 824.592C191.465 823.263 192.019 823.271 192.289 821.078C196.242 820.998 200.759 818.891 204.518 817.631L206.421 819.465Z"/><path fill="#696464" d="M192.289 821.078C196.242 820.998 200.759 818.891 204.518 817.631L206.421 819.465C200.878 821.168 195.313 822.821 189.791 824.592C191.465 823.263 192.019 823.271 192.289 821.078Z"/><path fill="white" d="M470.821 439.349C478.19 436.686 485.137 434.875 492.96 434.179C500.437 433.515 523.289 435.894 527.368 433.882C528.165 432.18 528.105 425.764 528.549 425.583C535.614 422.7 554.406 431.009 560.771 434.399C579.196 444.214 596.212 460.715 606.655 478.789C562.187 467.874 517.43 459.458 471.449 459.989C461.648 459.686 451.328 461.929 441.739 460.448C455.796 457.263 469.099 456.318 483.476 457.072C480.221 449.66 476.924 444.858 470.821 439.349Z"/><path fill="white" d="M360.977 571.141C386.601 576.211 446.376 607.612 469.171 623.214C425.534 614.361 378.828 605.472 334.539 614.382L336.342 616.483C322.086 619.356 310.537 623.565 298.01 630.969L296.252 629.305C305.788 613.517 324.862 596.231 341.604 588.336C348.58 585.046 356.94 582.956 363.231 578.542L363.143 576.876C358.761 573.36 351.283 573.309 345.849 572.954C349.881 570.053 356.238 571.059 360.977 571.141Z"/><path fill="#423B3C" d="M334.539 614.382L336.342 616.483C322.086 619.356 310.537 623.565 298.01 630.969L296.252 629.305C309.613 623.59 320.074 617.586 334.539 614.382Z"/><path fill="white" d="M804.878 566.765C849.429 570.512 878.24 575.905 908.799 611.019C900.452 608.736 892.157 606.73 883.661 605.09C897.274 619.177 911.551 628.04 921.559 645.635C923.867 650.462 925.416 655.792 927.187 660.842C924.342 660.116 920.443 659.336 918.061 657.622C912.164 653.378 906.694 643.724 902.002 637.951C898.17 633.235 893.899 628.926 889.481 624.761C872.255 608.523 850.622 595.67 829.561 585.156C824.07 582.415 805.083 574.855 801.613 571.69C801.033 571.162 801.279 570.302 801.266 569.551L804.878 566.765Z"/><path fill="white" d="M803.348 788.73C803.48 788.846 803.628 788.947 803.744 789.079C805.378 790.936 806.054 795.199 806.739 797.639C813.008 819.973 813.531 842.89 811.954 865.855C807.812 860.492 802.978 853.423 795.911 852.246C787.514 854.617 785.895 868.107 782.327 875.212C780.005 879.839 776.858 883.977 773.68 888.039C768.668 893.774 762.972 898.707 756.935 903.319C756.99 903.188 757.044 903.056 757.1 902.925C762.622 890.114 770.639 878.721 776.793 866.251C788.952 841.613 796.591 815.244 803.348 788.73Z"/><path fill="white" d="M742.241 432.73C758.391 440.366 776.245 467.578 782.493 483.801C789.25 501.041 788.904 520.255 781.531 537.241C780.532 539.672 780.123 541.66 778.039 543.333C774.042 537.597 774.355 514.784 772.92 506.573C771.089 496.098 768.957 485.472 765.709 475.339C760.557 459.265 752.487 446.046 742.241 432.73Z"/><path fill="#9B9494" d="M1502.2 331.283C1524.28 331.117 1611.58 343.419 1631.89 349.906L1631.47 349.801C1629.21 349.262 1615.96 347.616 1611.77 346.854C1586.02 342.172 1560.26 338.366 1534.23 335.798C1523.65 334.754 1497.03 334.831 1489.47 333.222C1493.89 333.031 1499.08 333.726 1502.2 331.283Z"/><path fill="#B9B4B3" d="M376.328 785.268C366.47 790.641 355.982 794.882 345.694 799.357C350.332 793.995 367.447 787.394 374.527 784.032L376.328 785.268Z"/><path fill="#2C2325" d="M1052.89 285.862C1018.71 259.207 990.34 226.256 984.68 181.568C980.893 150.735 989.569 119.667 1008.78 95.2578C1046.86 46.6322 1126.1 32.3968 1176.05 71.4449C1192.96 84.6707 1205.35 102.844 1207.56 124.434C1209.24 139.327 1205.55 157.468 1196.21 169.259C1187.13 180.621 1173.95 187.948 1159.5 189.651C1142.96 191.518 1120.3 185.038 1117.88 165.231C1115.41 144.999 1142.49 134.576 1155.98 146.952C1159.71 150.358 1161.9 155.137 1162.03 160.186C1162.27 172.736 1152.34 178.642 1141.86 182.09C1222.84 198.243 1230.21 73.5432 1130.26 56.7936C1098.35 51.5026 1065.64 59.1369 1039.37 78.0095C985.5 116.541 980.546 183.953 1019.03 236.3C1071.75 308.013 1168.83 317.628 1250.99 321.888C1267.06 322.722 1284.15 320.53 1300.16 320.987C1303.94 321.197 1304.37 320.978 1307.54 318.957C1326.16 319.723 1344.69 319.146 1362.63 319.884C1367.34 319.036 1381.49 318.947 1387.6 318.554L1392.8 319.414L1393.6 320.793L1380.76 321.708C1338.19 325.414 1295.95 329.029 1253.22 330.591C1228.03 331.512 1203.91 328.619 1180.44 329.065C1176.88 326.303 1174.62 326.776 1170.44 327.264C1142.3 323.586 1114.8 316.076 1088.7 304.943C1074.04 298.598 1067.84 292.658 1051.55 288.468C1052.89 287.798 1053.03 287.555 1054.16 286.61L1052.89 285.862Z"/><path fill="#423B3C" d="M1387.6 318.554L1392.8 319.414L1393.6 320.793L1380.76 321.708C1377.52 319.879 1367.29 320.229 1362.63 319.884C1367.34 319.036 1381.49 318.947 1387.6 318.554Z"/><path fill="#2C2325" d="M987.576 345.096C998.106 342.464 1006.85 339.781 1016.64 335.026C1033.5 326.835 1047.97 315.72 1067.19 313.782C1090.57 311.426 1105.42 318.951 1123.09 332.82L1124.08 335.719C1120.9 343.238 1111.7 350.884 1104.58 354.56C1068.44 373.205 1023.6 356.28 987.576 345.096Z"/><path fill="white" d="M999.892 345.798C1046.43 330.528 1068.84 299.082 1118.69 333.672C1088.38 327.014 1070.02 337.965 1039.07 341.286L1038.34 343.283C1071.05 341.105 1081.81 332.362 1117.15 334.201C1081.27 350.678 1052.07 347.157 1014.21 345.942C1036.29 352.417 1067.7 353.29 1090.24 348.204C1100.13 345.972 1110.78 340.981 1120.11 336.815C1089.72 368.27 1036.82 359.708 999.892 345.798Z"/><path fill="#9B9494" d="M1038.34 343.283C1035.53 344.278 1028.51 344.775 1025.48 343.647L1027.91 342.144L1025.58 343.329C1028.76 341.481 1035.14 341.538 1039.07 341.286L1038.34 343.283Z"/><path fill="white" d="M1062.26 573.842C1086.89 559.634 1093.43 534.598 1115.41 521C1130.48 511.681 1148.67 512.64 1165.26 516.669L1164.12 518.459L1164.77 519.395C1166.12 518.282 1167.07 518.135 1168.78 517.917C1169.06 520.527 1169.37 523.208 1169.3 525.833C1169.06 535.738 1163.55 545.183 1156.37 551.716C1132.21 573.707 1092.99 575.013 1062.26 573.842Z"/><path fill="#2C2325" d="M1062.26 573.842C1086.89 559.634 1093.43 534.598 1115.41 521C1130.48 511.681 1148.67 512.64 1165.26 516.669L1164.12 518.459L1159.38 519.926L1158.02 519.176C1151.14 515.732 1135.63 518.774 1128.48 521.179C1104.52 529.239 1093.32 554.724 1075.35 570.789C1101.8 568.817 1138.86 564.648 1157.63 543.293C1161.21 539.221 1165.14 531.502 1164.76 525.904C1164.7 525.071 1164.67 525.09 1164.44 524.421L1162.7 522.728L1164.77 519.395C1166.12 518.282 1167.07 518.135 1168.78 517.917C1169.06 520.527 1169.37 523.208 1169.3 525.833C1169.06 535.738 1163.55 545.183 1156.37 551.716C1132.21 573.707 1092.99 575.013 1062.26 573.842Z"/><path fill="#2C2325" d="M1164.44 524.421C1161.98 527.797 1159.1 531.147 1156.18 534.139C1143.92 546.739 1114.31 563.278 1096.65 563.512C1101.3 560.21 1108.84 558.572 1114.25 556.347C1133.8 548.313 1148.49 538.282 1162.7 522.728L1164.44 524.421Z"/><path fill="#423B3C" d="M1158.02 519.176L1159.38 519.926C1142.81 534.485 1118.34 552.64 1097.35 559.38C1097.62 559.035 1151.84 523.609 1158.02 519.176Z"/><path fill="#2C2325" d="M915.87 292.776C954.143 282.374 977.537 252.171 1017.89 281.302C1030.44 281.858 1040.56 283.761 1052.89 285.862L1054.16 286.61C1053.03 287.555 1052.89 287.798 1051.55 288.468C1042.15 285.672 1030.99 284.12 1021.22 282.784C1019.88 285.337 1018.24 287.594 1016.29 289.721C989.617 318.921 946.987 303.103 915.87 292.776Z"/><path fill="white" d="M978.362 273.216C992.491 272.139 1003.06 275.954 1015.59 281.968C991.836 281.878 969.185 287.791 945.864 291.48C966.461 292.869 991.786 283.287 1016.1 284.019C991.041 291.889 972.854 295.422 946.5 293.846C944.722 293.464 943.221 293.544 941.415 293.688C941.551 293.757 941.685 293.831 941.823 293.896C961.757 303.388 996.706 292.781 1016.48 286.095C1012.58 289.293 1008.76 292.33 1004.29 294.724C979.397 308.058 951.852 300.857 926.465 293.28C944.145 286.765 959.736 277.134 978.362 273.216Z"/><path fill="#423B3C" d="M1276.84 393.67C1299.49 388.398 1327.08 375.259 1340.47 402.014C1350.44 401.017 1360.4 399.916 1370.35 398.71L1367.17 401.322C1363.99 400.746 1345.72 403.825 1340.31 404.194C1315.4 426.785 1292.04 413.777 1267.32 399.394L1256.74 391.742C1262.92 392.686 1270.51 393.159 1276.84 393.67Z"/><path fill="white" d="M1256.74 391.742C1262.92 392.686 1270.51 393.159 1276.84 393.67L1273.62 394.3C1274.96 395.184 1281.96 394.529 1284.07 394.427L1283.32 395.549L1298.85 396.006L1299.93 396.945C1307.02 396.893 1328.64 396.67 1334.49 399.453L1335.62 401.052C1326.72 409.49 1286.82 399.972 1275.29 398.845C1298.3 407.569 1312.2 408.329 1336.51 404.602C1314.52 417.998 1299.89 412.824 1278.11 402.312C1275.59 401.097 1271.25 398.693 1268.71 397.843L1267.32 399.394L1256.74 391.742Z"/><path fill="#696464" d="M1256.74 391.742C1262.92 392.686 1270.51 393.159 1276.84 393.67L1273.62 394.3C1274.96 395.184 1281.96 394.529 1284.07 394.427L1283.32 395.549L1281.86 396.797C1278.48 396.4 1269.22 394.663 1266.94 395.976L1268.71 397.843L1267.32 399.394L1256.74 391.742Z"/><path fill="#B9B4B3" d="M1283.32 395.549L1298.85 396.006L1299.93 396.945C1296.21 399.724 1286.15 397.754 1281.86 396.797L1283.32 395.549Z"/><path fill="white" d="M1284.07 394.427C1297.25 392.763 1323.4 381.879 1333.53 395.829C1333.44 395.881 1304.82 395.312 1298.85 396.006L1283.32 395.549L1284.07 394.427Z"/><path fill="#423B3C" d="M1657.8 301.332C1649.36 290.649 1644.2 284.048 1638.94 271.449C1625.08 238.24 1650.42 205.737 1631.23 172.829C1619.67 152.991 1588.36 137.65 1566.44 149.565C1550.68 158.129 1561.78 179.423 1576.65 181.284C1583.4 182.128 1586.31 181.373 1591.89 177.418C1593.96 174.316 1594.23 169.794 1594.76 166.003L1595.58 165.571C1604.77 182.273 1580.44 189.057 1567.07 181.161C1561.75 178.002 1557.94 172.808 1556.54 166.78C1549.7 136.413 1597.34 137.95 1615.02 151.963C1634.6 167.485 1643.84 184.141 1641.51 209.998C1639.88 228.163 1634.36 242.511 1638.43 260.39C1643.04 285.389 1665.16 309.474 1685.59 323.21C1683.65 320.934 1681.74 318.636 1679.85 316.317C1647.01 275.829 1652.89 237.669 1692.41 205.595L1694.01 207.093C1655.41 239.094 1649.86 274.105 1681.22 315.075C1694.09 331.904 1706.58 335.668 1720.33 348.044L1718.86 349.151C1677.69 320.143 1632.05 293.12 1614.95 243.115L1616.43 241.467C1622.15 264.769 1639.78 286.203 1657.8 301.332Z"/><path fill="#2C2325" d="M1732.23 423.156C1734.36 424.514 1734.55 424.779 1736.99 425.106C1734.29 426.226 1730.41 427.436 1727.56 428.358C1659.18 450.493 1564.61 524.425 1606.34 605.74C1612.09 616.957 1621.69 630.229 1634.32 634.182C1644.1 637.242 1658.5 634.406 1661.48 623.014C1665.19 611.433 1653.71 590.393 1639.78 600.58C1637.61 602.168 1637.38 608.206 1634.44 610.221C1630.48 606.187 1631.22 600.187 1635.45 597.551C1651.66 587.438 1666.77 604.002 1664.61 619.867C1663.82 625.658 1660.72 630.883 1656.01 634.35C1638.69 647.082 1615.99 630.845 1605.77 616.2C1593.31 598.348 1588.84 575.118 1592.52 553.771C1601.91 499.829 1650.83 462.265 1696.26 437.855C1704.86 433.235 1726.24 427.85 1732.23 423.156Z"/><path fill="#423B3C" d="M1247.59 459.634C1232.77 461.888 1157.69 472.003 1149.37 467.387C1152.05 462.759 1169.58 463.876 1175.09 463.82C1224.67 463.316 1263.46 458.044 1308.2 434.474C1307.34 437.158 1307 438.204 1304.44 439.746C1303.7 440.195 1302.78 440.455 1301.95 440.697C1294.47 442.436 1287.16 446.428 1280 449.255C1270.78 452.896 1261.19 455.801 1252.12 459.805C1235.63 467.081 1216.91 478.285 1202.57 489.201C1195.4 494.659 1174.26 516.095 1168.78 517.917C1167.07 518.135 1166.12 518.282 1164.77 519.395L1164.12 518.459L1165.26 516.669C1170.61 515.853 1198.64 489.898 1206.07 484.169C1192.64 488.456 1128.31 507.574 1119.34 505.436L1118.59 504.198C1120.24 502.372 1122.28 501.78 1124.59 501.205C1132.75 499.169 1141.41 498.228 1149.69 496.693C1166.84 493.513 1183.7 489.727 1200.26 484.18C1217.1 478.534 1232.23 468.412 1247.59 459.634Z"/><path fill="#423B3C" d="M1300.16 320.987C1294.75 318.24 1263.65 313.895 1253.63 310.984C1190.65 292.69 1123.49 260.816 1082.68 207.857C1075.62 198.698 1062.73 179.082 1061.79 169.626C1065.95 181.719 1077.04 196.768 1084.42 207.346C1096.54 224.716 1113.87 238.439 1131.06 250.747C1184.74 289.189 1242.79 309.419 1307.54 318.957C1304.37 320.978 1303.94 321.197 1300.16 320.987Z"/><path fill="#2C2325" d="M1692.41 205.595C1703.34 197.814 1753.11 169.08 1764.03 183.238L1763.68 185.254C1761.02 186.681 1749.52 188.478 1745.58 189.122C1725.1 192.465 1711.28 195.832 1694.01 207.093L1692.41 205.595Z"/><path fill="#423B3C" d="M1614.95 243.115C1610.71 228.677 1607.63 214.111 1596.88 203.069C1594.98 201.114 1590.05 197.269 1590.55 195.644C1601.3 202.431 1637.87 235.148 1632.21 248.891C1630.17 248.03 1630.67 247.921 1629.32 245.365C1627.05 243.319 1623.05 236.926 1621.15 234.095C1618.41 231.59 1615.7 229.061 1613.01 226.509L1616.43 241.467L1614.95 243.115Z"/><path fill="#F0EEED" d="M1606.84 211.761C1615.12 219.855 1628.48 233.309 1629.32 245.365C1627.05 243.319 1623.05 236.926 1621.15 234.095C1620.09 230.15 1613.48 225.768 1611.06 221.406C1609.07 217.82 1608.25 215.591 1606.84 211.761Z"/><path fill="#2C2325" d="M1360.24 247.345C1360.94 248.363 1361.9 249.919 1363.02 250.402C1366.96 252.181 1367.39 252.692 1370.32 255.925C1371.1 259.19 1371.3 257.907 1369.64 260.728C1364.1 264.355 1353.52 264.743 1349.49 258.785C1347.69 251.015 1354.57 249.48 1360.24 247.345Z"/><path fill="#423B3C" d="M1185.14 691.862C1190.92 697.999 1196.6 702.51 1205.38 702.694C1210.88 702.808 1216.62 700.664 1220.48 696.701C1222.41 694.721 1223.89 692.148 1223.93 689.321C1223.97 686.377 1222.48 683.699 1220.36 681.747C1216.44 678.125 1210.99 676.948 1205.78 677.205C1201.12 677.435 1196.65 679.115 1192.27 680.621L1192.37 679.682C1197.82 675.411 1203.57 673.741 1210.52 674.517C1215.4 675.061 1220.62 676.929 1223.66 680.999C1226.03 684.173 1226.5 688.307 1225.9 692.136C1225.32 695.84 1223.46 698.954 1220.36 701.084C1214.9 704.833 1207.36 705.523 1201.01 704.187C1193.72 702.653 1188.49 698.839 1183.84 693.162L1185.14 691.862Z"/><path fill="#2C2325" d="M1125.18 796.954L1125.8 797.554L1125.68 799.201C1117.36 811 1103.6 817.089 1090.47 821.933L1089.52 821.199C1098.97 810.866 1112.93 803.431 1125.18 796.954Z"/><path fill="#423B3C" d="M1170.44 327.264C1174.62 326.776 1176.88 326.303 1180.44 329.065C1169.85 330.186 1131.66 332.633 1124.08 335.719L1123.09 332.82C1131.52 330.102 1160.16 330.656 1170.44 327.264Z"/><path fill="#2C2325" d="M1518.37 478.869L1518.92 480.363L1518.35 482.358C1521.09 484.126 1522.98 484.586 1523.95 487.77C1523.26 490.217 1522.9 491.881 1520.67 493.399C1517.87 493.787 1515.76 492.834 1513.55 491.176C1511.1 489.337 1510.26 487.009 1509.27 484.247L1512.48 484.665C1514.32 482.516 1516.19 480.682 1518.37 478.869Z"/><path fill="#696464" d="M1086.01 707.284L1085.5 703.487C1086.12 711.121 1085.51 717.87 1080.45 723.873C1077.79 727.03 1074.27 730.05 1070.56 731.901L1069.67 729.84C1079.08 723.39 1082.56 718.129 1086.01 707.284Z"/><path fill="#9B9494" d="M1360.24 247.345C1368.41 245.97 1380.24 248.789 1383.35 257.436L1381.95 259.323C1379.06 252.905 1367.46 243.504 1363.02 250.402C1361.9 249.919 1360.94 248.363 1360.24 247.345Z"/><path fill="#B9B4B3" d="M1387.6 318.554C1395.55 317.506 1407.17 317.952 1415.4 318.282C1410.61 318.971 1398.11 321.009 1393.6 320.793L1392.8 319.414L1387.6 318.554Z"/><path fill="#696464" d="M1368.88 476.757C1366.04 483.009 1363.31 489.327 1359.91 495.301C1359.56 489.452 1365.2 479.956 1367.7 474.679L1368.88 476.757Z"/><path fill="#F0EEED" d="M1354.18 642.99C1359.39 642.905 1365.44 644.465 1370.09 646.775C1364.37 647.556 1359.27 645.373 1354.18 642.99Z"/></svg>