<?xml version="1.0" encoding="utf-8" ?><svg xmlns="http://www.w3.org/2000/svg" xmlns:xlink="http://www.w3.org/1999/xlink" width="2048" height="1024" viewBox="0 0 2048 1024"><path fill="#070706" d="M817.771 41.474C933.555 35.4122 1206.14 108.473 1247.54 230.508C1318.6 185.688 1440.09 190.717 1519.77 205.439C1542.63 209.664 1566.69 216.414 1588.33 219.861C1605.51 201.952 1628.81 180.892 1641.32 217.713L1638.26 232.612C1700.41 250.473 1769.08 272.352 1820.45 312.381C1836.75 325.084 1849.12 337.532 1863.4 352.226L1970.44 380.742C1970.77 394.418 1970.82 408.1 1970.61 421.778C1945.79 445.808 1916.84 470.975 1891.14 494.531L1715.56 655.291C1641.46 724.084 1566.7 792.155 1491.28 859.496C1452.72 894.364 1412.58 931.983 1373.26 965.664C1365.33 964.177 1351.21 959.673 1342.8 957.46C1311.74 949.288 1280.62 940.889 1249.3 933.762C1245.71 932.946 1245.29 933.08 1242.91 934.68C1227.63 949.137 1209.96 958.894 1188.51 958.882C1184.63 964.818 1173.93 991.337 1164.69 978.176C1163.85 971.34 1171.28 961.231 1175.09 954.91C1169.11 937.683 1168.8 929.343 1168.85 910.931C1156.53 908.367 1141.39 903.647 1128.84 900.4L1054.63 881.462L762.012 803.503C737.472 820.694 702.858 819.034 676.463 806.579C660.251 798.929 650.651 786.249 645.034 769.453C634.754 765.289 607.102 758.752 594.851 755.517C559.684 746.497 524.593 737.185 489.58 727.582L78.6334 614.832L78.116 580.352C95.4087 564.657 116.229 548.427 134.361 533.248L276.923 415.547C413.278 303.061 549.002 189.813 684.089 75.808C697.027 79.2278 713.782 83.7016 726.098 88.0363C735.786 79.2381 748.048 70.274 757.343 61.5437C777.949 42.1903 791.123 43.0425 817.771 41.474Z"/><path fill="#FEFEFE" d="M822.914 53.4487C854.24 51.4279 903.318 58.7002 934.212 64.2511C1018.15 79.3331 1217.12 145.173 1236.93 238.461C1204.8 271.297 1170.02 303.999 1137.21 336.332C1069.06 403.931 1000.54 471.167 931.676 538.039C865.226 602.529 789.216 675.657 728.037 744.146C725.594 729.453 722.913 721.083 716.712 707.696C710.081 692.921 695.617 671.489 684.907 659.375C613.174 578.241 517.321 541.5 415.274 516.644C364.955 504.386 313.77 496.004 262.17 491.573C279.329 475.721 304.91 456.343 323.228 440.978C368.57 402.548 414.126 364.37 459.894 326.448C567.044 235.833 674.758 145.887 783.03 56.6155C796.866 54.6247 809.023 54.0799 822.914 53.4487Z"/><path fill="#070706" d="M878.868 141.993C883.993 194.037 893.324 226.715 856.57 271.082C872.851 257.364 889.764 244.415 907.255 232.277C922.226 194.288 950.159 164.645 990.181 154.407C1017.65 147.381 1039.71 149.242 1067.35 151.472C1061.98 155.595 1057.22 159.538 1052.16 164.049C1028.94 184.752 1015.82 215.367 985.456 227.375C961.575 236.821 935.564 242.328 910.156 245.215C898.733 256.738 886.029 267.16 873.592 277.563C893.979 266.614 916.48 255.848 939.896 254.298C984.215 251.363 1026 267.156 1060.18 294.426C1016.56 297.398 992.794 315.717 950.536 319.5C928.593 321.464 912.05 315.761 890.941 311.364C875.178 308.082 860.842 305.672 844.815 304.056C819.286 327.541 795.059 348.645 771.934 375.024C805.003 354.246 826.025 340.36 867.229 339.972C912.262 339.547 954.243 361.437 985.836 392.703C946.136 388.72 911.723 408.718 871.685 407.522C832.066 406.338 803.059 388.936 763.31 385.835C742.093 409.497 727.261 432.121 711.291 459.344C726.52 447.054 747.16 436.533 765.788 430.634C803.446 418.71 837.459 425.177 871.786 442.796C890.317 452.896 908.392 467.21 923.428 481.937C879.489 478.738 850.343 493.812 809.385 493.357C781.6 493.048 738.762 473.946 708.312 467.606C687.069 515.197 691.377 570.309 719.755 614.022C721.897 617.261 734.843 632.335 735.014 633.956C721.282 638.883 697.051 628.224 684.531 622.48C664.045 573.852 657.583 530.431 673.083 479.798C657.656 455.576 625.95 441.175 605.024 416.949C577.203 384.74 579.417 349.109 544.544 327.856L546.827 327.757C583.448 326.369 623.468 337.206 650.739 362.559C680.58 390.303 679.735 420.433 681.054 458.063C696.365 429.369 708.439 414.063 728.07 388.549C717.976 364.026 692.81 324.651 687.817 300.93C679.177 259.876 690.88 242.542 672.986 199.303C703.702 211.872 731.652 234.237 748.789 263.021C768.151 295.541 758.047 331.453 748.805 365.758C771.055 343.87 792.474 324.491 815.636 303.619C812.105 277.135 803.213 256.308 808.98 226.675C816.816 186.412 846.858 163.773 878.868 141.993Z"/><path fill="#FEFEFE" d="M776.208 379.417C818.138 353.048 847.774 339.506 899.001 350.291C923.422 355.433 948.543 369.72 967.739 385.766C949.071 386.638 928.726 392.451 910.797 396.995C875.455 405.952 846.542 401.111 812.884 389.104C805.265 386.386 794.249 383.871 787.126 381.01C821.41 374.011 844.874 363.839 883.202 366.404L885.146 365.561L884.323 364.208C842.609 362.175 815.9 368.303 776.208 379.417Z"/><path fill="#6A6969" d="M884.323 364.208C895.949 364.535 911.663 368.688 922.61 372.609L922.652 374.025L924.448 373.389L923.536 372.692C921.664 373.778 913.522 372.163 911.491 371.225C905.773 368.583 887.386 368.146 883.202 366.404L885.146 365.561L884.323 364.208Z"/><path fill="#FEFEFE" d="M721.493 459.768C784.956 418.201 847.718 422.221 904.049 474.365C882.072 474.663 858.449 480.806 836.64 485.068C794.892 493.227 763.825 474.701 724.379 464.018C747.471 456.648 767.826 451.966 792.264 450.755C795.753 448.133 802.308 451.577 806.856 448.239C772.589 445.691 753.629 450.276 721.493 459.768Z"/><path fill="#373636" d="M806.856 448.239C820.169 448.524 836.566 452.262 849.697 455.338L848.514 456.135C828.388 452.695 812.898 451.002 792.264 450.755C795.753 448.133 802.308 451.577 806.856 448.239Z"/><path fill="#CBCBCB" d="M849.697 455.338C853.174 455.718 856.296 455.755 859.271 457.564L858.525 458.401C854.317 458.414 852.507 457.553 848.514 456.135L849.697 455.338Z"/><path fill="#FEFEFE" d="M685.61 212.247C724.241 234.516 758.943 270.67 752.465 317.547C749.873 336.297 744.696 358.415 737.554 376.007C740.715 339.379 743.538 307.139 728.999 272.501L727.733 274.369C739.435 295.356 735.044 352.779 730.678 376.669C717.119 352.071 692.812 308.692 691.737 281.682C690.618 253.559 691.997 241.058 685.61 212.247Z"/><path fill="#6A6969" d="M727.733 274.369C724.415 267.629 720.505 261.113 717.052 254.138L717.133 254.805L719.101 254.389L719.334 254.729L717.523 255.834L719.762 255.392L717.782 256.499L717.913 256.825L720.351 256.349C723.506 261.802 726.475 266.707 728.999 272.501L727.733 274.369Z"/><path fill="#CBCBCB" d="M703.091 238.65C708.456 239.827 712.21 246.076 715.286 250.423L714.832 250.219C710.803 248.462 706.173 242.232 703.091 238.65Z"/><path fill="#FEFEFE" d="M858.297 296.411C897.285 269.538 927.643 253.755 976.423 262.697C999.84 267.053 1022.14 276.096 1041.97 289.282C1008.23 297.262 961.876 318.649 930.681 313.459C912.475 310.429 884.687 303.211 864.31 299.299C902.397 284.777 923.689 277.959 965.757 279.127L966.207 278.359L961.436 276.827C915.417 276.349 901.183 279.941 858.297 296.411Z"/><path fill="#A4A4A4" d="M961.436 276.827C971.581 276.801 1003.33 280.851 1011.45 285.514C1009.96 286.132 998.536 283.174 995.687 282.445C989.502 280.864 970.647 281.507 965.757 279.127L966.207 278.359L961.436 276.827Z"/><path fill="#FEFEFE" d="M564.616 334.476C595.382 338.225 622.787 346.353 646.494 367.677C673.181 391.68 674.255 428.263 675.345 462.142C666.846 430.361 658.491 410.35 637.588 384.966L635.9 387.109C655.205 412.958 661.775 434.266 670.461 464.727C650.404 444.315 621.758 429.42 605.638 407.58C588.011 383.7 584.129 359.249 564.616 334.476Z"/><path fill="#373636" d="M635.9 387.109C623.622 372.067 621.48 372.519 608.786 360.677C620.449 366.08 629.128 375.512 637.588 384.966L635.9 387.109Z"/><path fill="#FEFEFE" d="M821.07 293.028C803.955 221.851 816.416 198.063 872.24 153.898C883.308 225.375 877.316 242.006 826.271 293.587C835.4 268.276 841.172 251.457 847.082 225.117L845.78 220.401C842.173 234.975 827.979 279.677 821.07 293.028Z"/><path fill="#373636" d="M851.251 199.422L852.61 201.778C850.634 209.526 848.791 217.306 847.082 225.117L845.78 220.401C847.783 213.456 849.607 206.46 851.251 199.422Z"/><path fill="#CBCBCB" d="M851.251 199.422C851.808 196.534 852.335 191.77 854.114 189.735C854.923 193.441 853.491 197.969 852.61 201.778L851.251 199.422Z"/><path fill="#FEFEFE" d="M916.233 228.663C943.717 170.578 987.828 151.224 1050.65 156.812C1036.26 169.232 1026.33 182.743 1014.71 197.441C992.779 225.195 949.246 233.602 915.785 238.377C929.488 224.268 951.559 202.135 968.011 191.866L965.958 190.033C947.514 201.353 932.79 214.821 916.233 228.663Z"/><path fill="#A4A4A4" d="M980.654 181.233C985.42 178.006 1014.48 164.225 1018.22 165.292C1012.31 169.178 990.328 178.427 980.454 183.953L980.654 181.233Z"/><path fill="#373636" d="M980.654 181.233L980.454 183.953C975.955 186.622 972.309 188.807 968.011 191.866L965.958 190.033C969.109 187.687 976.906 183.407 980.654 181.233Z"/><path fill="#FEFEFE" d="M862.585 274.779L864.001 277.086C850.801 288.109 838.519 300.185 825.883 311.828C737.367 393.389 632.569 504.232 719.935 626.978C710.203 624.91 699.763 620.83 690.315 617.433C657.437 535.927 667.981 473.752 724.246 405.822C765.155 356.431 812.065 314.208 862.585 274.779Z"/><path fill="#CBCBCB" d="M862.585 274.779C870.706 268.084 883.429 257.818 892.41 252.286C883.21 260.857 873.736 269.127 864.001 277.086L862.585 274.779Z"/><path fill="#FEFEFE" d="M1376.5 207.408C1428.59 204.169 1480.56 209.704 1531.65 219.587C1547.53 222.657 1563.51 225.433 1578.89 230.469C1570.27 239.926 1559.4 254.413 1551.61 264.704C1550.88 264.891 1550.15 265.085 1549.42 265.284C1528.51 271.023 1540.4 280.819 1533.72 289.474C1506.34 324.906 1481.36 359.478 1459.21 398.49C1458.53 398.769 1457.86 399.066 1457.2 399.381C1446.63 404.443 1443.71 411.034 1440.14 421.288C1428.35 429.477 1425.18 436.932 1431.24 450.279C1389.28 516.761 1348.16 583.764 1307.88 651.274C1290 680.692 1272.64 710.529 1254.04 739.509C1243.19 732.967 1217.38 723.168 1205.16 718.703C1125.68 689.668 1048.43 672.514 963.75 671.617C887.598 670.27 814.808 697.331 750.437 736.104C780.423 703.022 817.113 667.164 848.945 635.486L1054.15 434.148L1187.23 303.809L1224.44 267.424C1232.97 259.105 1245.9 245.729 1255.72 239.777C1292.83 217.304 1334.35 210.69 1376.5 207.408Z"/><path fill="#070706" d="M1218.65 361.188C1231.42 339.255 1248 323.139 1273.52 316.899C1275.38 316.444 1275.1 316.731 1276.48 317.795L1277.27 324.518L1278.46 324.964C1284.59 319.295 1305.43 299.069 1313.67 300.056C1314.03 304.871 1313.64 304.998 1317.4 303.196C1325.13 299.512 1333.14 296.436 1341.34 293.998C1352.58 290.695 1447.57 268.388 1442 303.329C1439.68 317.882 1402.24 336.502 1387.38 344.482C1391.18 346.738 1394.49 348.358 1396.16 352.408C1396.24 364.691 1378.98 364.412 1374.98 371.13C1375.42 373.961 1376.23 375.585 1377.33 378.177C1377.21 394.416 1330.12 399.179 1325.38 405.392C1329.63 407.277 1330.69 407.746 1332.74 411.51C1334.06 432.899 1285.22 445.12 1281.05 450.856L1285.11 456.175C1288.84 473.079 1228 487.753 1215.87 491.171C1218.99 492.601 1220.03 492.932 1222.56 495.32C1222.8 496.148 1223.4 497.416 1223.16 498.233C1218.31 514.087 1139.57 538.485 1122.44 544.911C1106.68 550.824 1090.79 557.052 1075.51 564.113C1048.5 576.589 1023.44 591.705 997.387 605.953C1023.17 605.604 1031.81 607.317 1056.91 612.947L1056.3 614.926C1035.63 611.687 1010.16 609.148 989.664 612.227L993.4 615.204C1008.6 617.086 1023.5 620.906 1037.74 626.571C1016.2 623.198 979.346 617.18 958.06 622.645C941.134 626.99 923.958 633.249 906.175 637.426C930.063 623.688 953.22 609.15 977.837 595.085C1000.42 582.185 1030.25 566.696 1051.03 551.806C1054.61 549.24 1070 521.194 1074.06 514.351C1090.27 487.071 1140.74 399.837 1161.77 382.597L1163.34 383.057L1164.97 387.452C1169.39 382.742 1172.62 377.764 1177.6 372.623C1188.72 361.136 1202.9 350.54 1216.36 342.009C1217.38 341.358 1218.04 341.961 1218.93 342.454C1220.07 346.87 1219.01 356.163 1218.65 361.188Z"/><path fill="#CBCBCB" d="M993.4 615.204C989.895 615.247 986.827 615.623 983.754 613.989C985.174 612.206 986.737 612.616 989.664 612.227L993.4 615.204Z"/><path fill="#FEFEFE" d="M1269.06 326.296C1270.49 329.797 1272.41 334.428 1275.72 336.292C1284.56 335.746 1294.3 314.4 1301.99 314.481L1301.41 319.159C1303.37 320.771 1324.2 306.941 1329.17 305.069C1348.97 297.619 1418.73 280.954 1434.7 298.363C1439 313.886 1380.37 339.542 1368.8 345.805C1374.18 348.353 1384.11 351.271 1390.1 353.208C1374.67 365.522 1352.62 368.517 1333.93 374.184C1341.05 375.13 1364.66 373.235 1368.74 378.115L1368.03 380.067C1341.99 400.592 1286.74 396.284 1253.73 401.683C1262.86 395.275 1271.91 388.767 1280.89 382.159C1296.43 381.962 1318.93 378.705 1333.78 374.461C1318.58 375.11 1301.88 376.03 1286.88 378.085C1298.96 368.829 1314.63 359.381 1327.73 351.095C1337.37 351.093 1346.98 350.046 1356.39 347.971C1349.47 347.099 1341.78 346.959 1334.75 346.689C1353.06 335.163 1380.76 322.557 1396.44 311.011C1383.99 316.168 1373.89 320.752 1361.83 326.839C1356.58 329.49 1340.6 337.774 1335.72 338.896L1331.53 337.158C1327.49 348.976 1310.01 355.089 1298.53 362.109C1299.44 349.36 1300.86 339.078 1302.83 326.441C1296.65 340.729 1294.61 351.335 1292.45 366.847C1287.59 369.917 1270.13 381.414 1266.17 382.32C1265.5 381.409 1265.23 381.281 1264.93 380.272C1264.38 376.527 1263.91 372.771 1263.52 369.006L1262.23 368.403C1261.48 374.371 1261.44 380.532 1261.27 386.554C1253.6 392.517 1244.35 398.796 1236.3 404.43C1234.16 386.407 1235.37 375.887 1237.17 357.668C1230.09 373.929 1227.66 391.838 1230.16 409.398L1201.23 432.2C1196.12 410.509 1194.94 403.206 1198.99 381.459C1190.53 399.972 1192.55 416.765 1196.84 436.023C1190.13 441.509 1183.39 447.609 1176.85 453.346C1175.82 442.218 1177.03 430.347 1178.27 419.285C1172.88 434.66 1171.39 440.412 1172.26 456.544C1164.27 463.585 1156.59 470.153 1149.29 477.94C1149.6 459.363 1150.39 444.889 1152.29 426.414C1145.5 445.531 1143.42 463.656 1141.12 483.553C1134.5 490.242 1130.24 494.38 1122.92 500.207C1123.15 484.648 1125.23 468.27 1128.13 452.974C1120.84 469.029 1117.77 487.898 1116.55 505.372C1112.37 509.37 1104.87 514.809 1100.06 518.499C1102.83 506.629 1105.02 494.513 1107.86 482.426C1103.01 492.496 1093.91 514.151 1092.54 525.035C1083.66 531.512 1074.65 537.799 1065.51 543.892C1089.15 500.348 1128.47 437.529 1157 397.971C1156.58 407.108 1156.58 411.848 1157.37 420.935C1169.44 392.206 1185.18 371.174 1211.95 355.108C1211.37 365.957 1212.13 376.753 1212.97 387.558C1229.05 358.976 1237.12 337.633 1269.06 326.296Z"/><path fill="#070706" d="M1331.53 337.158C1335.91 326.383 1341.28 316.038 1347.57 306.256C1345.94 311.098 1336.06 336.56 1335.72 338.896L1331.53 337.158Z"/><path fill="#373636" d="M1262.85 360.009L1265.03 358.252C1265.04 364.666 1265.33 374.101 1264.93 380.272C1264.38 376.527 1263.91 372.771 1263.52 369.006L1262.23 368.403L1262.85 360.009Z"/><path fill="#6A6969" d="M1262.85 360.009C1263.43 354.507 1264.43 348.304 1266.48 343.182L1265.03 358.252L1262.85 360.009Z"/><path fill="#FEFEFE" d="M1172.53 489.331C1179.81 488.863 1190.92 487.737 1197.78 489.724L1198.3 490.938L1194.55 492.73L1194.82 493.563C1200.38 495.49 1209.86 496.77 1215.98 497.78C1183.41 518.357 1145.86 527.663 1110.34 541.111C1071.71 555.734 1037.06 574.97 1001.04 594.903C990.674 600.744 975.979 607.97 965.148 612.496C984.256 598.928 1011.93 584.825 1032.73 572.841C1075.59 548.15 1107.56 526.617 1144.05 493.674C1152.86 492.807 1163.33 490.595 1172.53 489.331Z"/><path fill="#FEFEFE" d="M1247.37 405.904C1258.93 404.525 1287.27 400.521 1297.2 401.488C1300.87 407.109 1317.94 409.227 1326.92 412.231C1308.97 436.686 1269.18 446.676 1240.52 451.201L1237.83 452.924C1222.79 453.341 1204.81 456.378 1189.78 458.673C1188.07 458.463 1187.34 457.326 1186.09 456.041C1215.29 420.961 1258.24 453.042 1298.56 425.175C1288.63 428.03 1273.79 432.287 1263.76 432.705C1241.17 433.646 1230.39 431.431 1207.92 437.484C1213.84 432.451 1219.77 427.928 1225.94 423.203C1247.66 419.881 1260.95 418.505 1282.8 419.133C1263.19 413.724 1248.99 415.284 1229.33 420.079C1234.98 416.322 1241.96 410.309 1247.37 405.904Z"/><path fill="#070706" d="M1186.09 456.041C1209.94 449.999 1215.54 450.796 1240.52 451.201L1237.83 452.924C1222.79 453.341 1204.81 456.378 1189.78 458.673C1188.07 458.463 1187.34 457.326 1186.09 456.041Z"/><path fill="#FEFEFE" d="M1237.83 452.924C1245.83 453.309 1271.41 453.953 1276.4 457.647C1273.49 468.244 1218.11 485.367 1207.64 484.873C1187.48 483.922 1173.05 482.881 1152.38 485.413L1160.89 477.495C1181.67 473.158 1201.76 469.942 1223.06 470.389C1226.04 470.452 1229.97 470.69 1232.84 470.395C1203.63 464.305 1194.12 466.866 1164.93 474.085C1169.87 469.623 1175.31 464.48 1180.35 460.241L1189.78 458.673C1204.81 456.378 1222.79 453.341 1237.83 452.924Z"/><path fill="#6A6969" d="M1056.91 612.947C1064.13 614.838 1068.13 616.262 1075.08 619.035C1070.91 618.172 1059.81 616.132 1056.3 614.926L1056.91 612.947Z"/><path fill="#FEFEFE" d="M687.376 89.1608C696.622 91.8524 705.883 94.4884 715.16 97.0685C639.582 161.581 563.443 225.435 486.752 288.622L132.804 584.486C162.391 590.194 190.207 593.643 219.581 598.737C361.87 623.417 509.3 656.006 641.998 714.025C669.017 725.839 708.037 742.806 725.085 766.484C733.392 759.188 742.613 755.575 753.02 752.244C783.18 742.33 814.798 737.583 846.54 738.203C940.517 740.066 1101.28 794.71 1186.42 838.425C1176.22 848.096 1173.92 854.919 1180.32 867.824C1179.24 870.342 1179.08 871.07 1176.95 872.726C1166.87 873.177 1050.09 839.484 1033.42 834.96L757.907 761.717C738.15 783.258 716.024 790.792 690.091 771.273C678.866 762.824 676.791 751.902 675.333 738.666C655.91 733.78 634.817 726.687 615.09 721.274C555.759 705.394 496.554 689.049 437.48 672.238L97.3637 579.436C103.862 572.567 115.153 563.848 122.661 557.702L165.061 522.933L311.046 402.647L495.087 249.691C558.117 196.567 623.228 140.856 687.376 89.1608Z"/><path fill="#FEFEFE" d="M1634.96 244.098C1683.56 255.3 1773.65 289.518 1811.21 319.807C1765.45 359.086 1717.22 404.962 1672.13 445.808L1463.38 634.282C1432.07 663.4 1400.83 691.112 1369.13 719.736C1411.09 638.932 1456.2 568.91 1506.91 493.54C1511.31 493.017 1518.43 491.819 1521.72 488.353C1525.14 484.624 1526.82 479.028 1529.76 475.023C1538 463.794 1545.69 459.649 1541.08 444.254C1563.24 400.733 1582.03 373.906 1601.01 325.873C1613.46 318.834 1617.23 313.684 1614.51 299.474C1622.27 280.253 1628.78 263.827 1634.96 244.098Z"/><path fill="#FEFEFE" d="M251.262 501.379C346.177 509.877 466.527 532.785 552.225 574.954C621.428 609.006 689.959 660.815 715.656 736.278C707.983 725.368 700.855 715.567 692.213 705.339C660.637 667.913 622.758 636.298 580.287 611.925C493.852 561.507 362.491 529.855 263.512 521.527L259.58 522.732L259.435 523.71C414.406 544.945 595.365 589.716 696.619 720.148C697.905 721.805 699.504 723.569 699.788 725.564C698.093 724.716 671.676 698.323 666.167 693.609C650.284 680.039 633.35 667.749 615.524 656.857C504.096 588.739 364.934 557.568 236.214 542.557L237.918 545.147C383.827 569.05 572.571 608.573 682.114 716.474C672.271 710.22 662.494 702.395 652.697 696.57C541.942 630.726 411.546 594.049 284.736 575.647C262.846 572.471 243.55 567.495 221.114 565.583L220.432 567.718C244.121 570.946 264.725 576.309 287.624 580.179C400.483 599.253 512.801 631.241 615.365 682.688C620.788 685.408 660.442 707.855 661.263 710.447C655.068 709.002 632.873 697.28 624.214 693.773C593.649 681.269 562.578 670.039 531.082 660.112C444.788 633.351 356.94 611.881 268.03 595.822C230.649 588.875 196.268 582.548 158.498 577.534C180.397 558.234 204.136 540.315 226.332 521.297C234.318 514.455 242.759 507.539 251.262 501.379Z"/><path fill="#373636" d="M237.918 545.147C230.142 544.087 221.658 543.151 214.171 541.012L214.326 541.169L215.533 539.889L215.59 541.625L216.391 539.955L216.876 540.007L216.857 542.036L217.325 542.177L218.425 540.199L236.214 542.557L237.918 545.147Z"/><path fill="#373636" d="M220.432 567.718C213.624 567.316 202.119 565.515 195.487 563.936C202.8 563.935 214.008 564.378 221.114 565.583L220.432 567.718Z"/><path fill="#373636" d="M241.69 521.339C249.529 521.041 255.72 520.662 263.512 521.527L259.58 522.732L259.435 523.71C254.707 523.423 246.63 522.05 241.69 521.339Z"/><path fill="#FEFEFE" d="M1452.09 441.254C1475.87 438.506 1500.62 450.706 1504.92 475.895C1479.8 512.819 1455.25 550.127 1431.28 587.804C1377.77 673.776 1330.52 763.485 1289.9 856.238L1283.99 848.497C1265.55 828.071 1248.04 821.258 1221.96 815.625C1243.52 778.573 1265.74 742.932 1287.88 706.386L1385.88 544.653L1428.01 476.372C1433.04 468.355 1446.05 446.955 1452.09 441.254Z"/><path fill="#070706" d="M1435.34 543.99C1429.6 559.976 1420.84 576.132 1413.15 591.328C1376.67 663.421 1334.04 732.594 1293.25 802.296L1291.39 800.93C1333.42 712.08 1381.51 626.23 1435.34 543.99Z"/><path fill="#373636" d="M1291.39 800.93L1293.25 802.296C1290.54 807.913 1286.05 815.394 1282.91 820.98C1284.83 814.756 1288.08 806.506 1291.39 800.93Z"/><path fill="#FEFEFE" d="M1876.2 368.568C1895.3 373.267 1934.69 382.699 1951.5 388.481C1930.57 405.875 1907.04 428.226 1886.44 446.826C1845.29 483.831 1804.38 521.111 1763.73 558.664L1485.41 813.132C1446.46 848.558 1404.24 889.244 1365.03 923.445C1354.52 920.061 1343.92 916.947 1333.25 914.106C1316.98 909.483 1300.67 904.955 1284.35 900.525L1291.66 885.603C1304.88 889.713 1318.48 895.11 1331.72 898.441C1335.51 899.395 1355.12 880.826 1358.75 877.737C1375.01 864.061 1391.15 850.237 1407.16 836.269C1573.26 691.767 1737.1 544.691 1898.62 395.093C1893.36 391.037 1881.77 375.094 1876.2 368.568Z"/><path fill="#FEFEFE" d="M90.3765 589.342C281.352 643.335 473.81 692.896 664.595 747.656C669.193 775.427 688.957 789.96 716.017 794.25C734.289 797.147 749.195 786.031 762.715 775.158C784 779.623 807.925 786.687 829.229 792.328L930.388 818.958L1172.13 883.745C1173.68 886.471 1172.75 887.077 1171.86 890.968C1171.39 893.741 1171.38 895.432 1169.7 897.67C1163.2 899.678 801.099 801.379 760.665 790.27C736.619 809.408 704.923 808.839 678.325 793.828C664.162 785.835 658.842 774.437 655.153 759.267L90.6644 605.904L90.3765 589.342Z"/><path fill="#FEFEFE" d="M1838.36 344.736C1843.35 348.534 1848.36 353.544 1851.8 358.792L1501.95 673.318C1446.34 723.021 1387.08 772.356 1333.3 823.636L1326.89 829.176C1325.57 823.533 1324.54 820.786 1322.47 815.502C1324 811.716 1326.68 804.757 1329.65 801.988C1371.5 762.936 1415.7 726.269 1458.21 687.969L1628.51 533.805C1679.58 488.835 1730.13 443.28 1780.15 397.149C1799.18 379.799 1820.02 362.34 1838.36 344.736Z"/><path fill="#FEFEFE" d="M1816.39 325.786C1820.28 326.487 1829.7 336.301 1832.8 339.33C1821.13 350.393 1807.16 362.065 1795.05 373.129C1745.08 419.014 1694.6 464.355 1643.64 509.143L1347.99 774.677L1337.06 784.385C1342.32 772.939 1353.02 747.547 1360.52 739.508C1376 722.911 1396.23 706.011 1413.32 690.773C1439.77 667.019 1466.06 643.089 1492.18 618.985L1663.25 465.008C1714.15 418.827 1764.93 371.102 1816.39 325.786Z"/><path fill="#FEFEFE" d="M1957.16 398.743L1958.29 399.338C1959.4 403.407 1959.03 411.217 1959 415.715C1898.46 474.033 1831.18 533.77 1768.88 590.681L1378.27 946.048C1376.34 943.798 1375.97 933.487 1375.68 930.037C1390.42 913.394 1425.91 882.489 1443.28 866.699L1566.67 754.589C1695.84 634.887 1826.01 516.268 1957.16 398.743Z"/><path fill="#FEFEFE" d="M1857.58 364.748C1861.47 367.948 1864.88 372.831 1867.99 376.889C1858.13 386.537 1846.18 396.559 1835.81 406.122L1728.08 504.004C1600.03 621.913 1469.67 737.292 1337.08 850.075C1335.38 851.56 1335.32 851.713 1333.17 852.16C1331.21 850.01 1330.13 841.636 1329.31 838.08C1333.07 834.404 1336.95 830.709 1340.8 827.134C1410.4 762.561 1483.54 701.564 1553.86 637.805L1732.58 476.972C1758.23 453.578 1784.06 430.382 1810.07 407.385C1825.05 393.872 1842.15 377.269 1857.58 364.748Z"/><path fill="#FEFEFE" d="M1872.64 383.647C1876.02 386.625 1879.53 391.898 1882.27 395.656C1759.78 508.119 1636.5 619.718 1512.44 730.445L1408.23 820.996C1386.26 839.778 1360.56 860.596 1339.78 880.132C1339.22 880.554 1337.82 881.224 1337.14 881.581C1334.65 878.581 1333.84 866.83 1333.34 862.426C1352.47 849.615 1393.43 812.693 1411.33 796.908L1503.81 716.472C1627.67 606.55 1750.62 495.604 1872.64 383.647Z"/><path fill="#FEFEFE" d="M865.474 713.512C962.52 708.832 1060.73 732.956 1151.63 765.013C1174.1 772.937 1200.56 782.464 1221.94 792.256L1211.51 810.065C1123.5 769.447 1028.27 733.152 932.006 718.613C912.646 715.689 851.708 714.831 834.359 720.144C863.828 720.034 891.603 720.434 920.824 723.703C955.986 727.303 996.155 737.793 1029.93 747.833C1091.31 765.658 1151.18 788.309 1208.99 815.571C1204.59 816.623 1200.22 817.739 1195.85 818.92L1188.88 827.074C1147.29 806.848 1104.46 789.248 1060.66 774.378C991.989 750.378 922.704 729.806 849.315 727.039C821.369 725.985 804.409 729.59 777.741 732.482C809.919 718.818 829.901 714.878 865.474 713.512Z"/><path fill="#FEFEFE" d="M1553.11 286C1574.74 285.543 1584.03 297.477 1594.31 313.937C1592.59 317.964 1591 322.589 1589.47 326.724C1575.63 364.081 1556.37 398.981 1535.85 433.074C1532.53 428.122 1529.53 424.674 1525.68 420.173L1524.93 419.41C1509.43 403.811 1493.2 397.88 1471.51 397.802C1492.28 362.566 1525.01 315.148 1553.11 286Z"/><path fill="#070706" d="M1582.59 309.73C1587.79 329.546 1550.89 398.187 1533.58 410.885C1531.78 404.475 1556.76 363.297 1561.22 354.102C1567.9 340.316 1575.16 322.794 1582.59 309.73Z"/><path fill="#FEFEFE" d="M959.562 683.442C1038.14 681.106 1132.86 703.089 1205.74 731.124C1217.29 735.568 1237.73 743.269 1247.96 749.651C1244.83 754.799 1242.11 759.868 1239.25 765.163C1215.75 754.818 1180.01 742.851 1155.37 734.453C1065.21 705.62 972.567 686.508 878.224 699.083C867.711 700.484 856.564 702.657 846.102 703.517C876.967 690.359 926.205 684.822 959.562 683.442Z"/><path fill="#FEFEFE" d="M1201.46 861.115C1231.15 857.22 1280.62 886.288 1249.27 918.647C1231.96 936.503 1217.08 950.273 1191.21 952.498C1195.02 945.561 1199.93 938.004 1204.15 931.209C1208.52 923.889 1222.55 906.174 1217.52 898.567L1215.23 898.13C1205.5 901.879 1187.17 936.226 1180.14 947.451C1171.62 924.56 1176.04 871.232 1201.46 861.115Z"/><path fill="#FEFEFE" d="M903.962 704.041C1011.4 696.787 1136.93 727.741 1235.29 769.979L1224.79 787.918C1128.08 748.062 1018.37 709.252 912.601 705.903C910.562 705.266 906.197 704.493 903.962 704.041Z"/><path fill="#FEFEFE" d="M1615.29 206.061C1618.36 205.889 1620.68 205.666 1623.63 206.642C1626.81 207.663 1629.41 209.991 1630.76 213.044C1636.75 226.847 1615.14 276.125 1609.41 290.417C1604.51 283.502 1600.51 279.894 1594.03 274.736C1582.19 267.03 1575.35 265.237 1561.48 263.763C1574.18 247.864 1598.92 215.09 1615.29 206.061Z"/><path fill="#070706" d="M1614.8 211.59C1616.88 212.274 1616.1 211.661 1617.29 213.399C1615.8 218.376 1592.07 253.828 1587.54 260.797L1581.76 249.285C1587.31 237.252 1602.72 217.536 1614.8 211.59Z"/><path fill="#FEFEFE" d="M1279.02 910.865C1282.86 911.433 1299.79 916.466 1304.26 917.706C1324.57 923.368 1344.84 929.184 1365.07 935.152C1364.74 942.302 1364.62 944.857 1365.75 951.953L1350.73 947.767C1340.14 944.853 1260.16 924.681 1257.53 922.42C1261.58 914.62 1269.68 917.58 1279.02 910.865Z"/><path fill="#FEFEFE" d="M1208.17 842.448C1241.27 841.414 1292.33 869.786 1268.85 907.291C1269.38 898.508 1269.82 893.449 1267.24 884.784C1256.23 862.397 1226.06 847.557 1201.45 850.588C1196.57 851.19 1192.06 854.382 1187.81 856.888L1187 855.955C1188.75 846.247 1199.64 843.735 1208.17 842.448Z"/><path fill="#FEFEFE" d="M1456.67 408.308C1491.33 406.066 1516.55 414.355 1532.62 448.958C1534.36 452.708 1532.79 456.726 1530.96 460.093L1529.6 460.266C1521.59 439.016 1497.7 418.061 1474.58 415.097C1468.31 414.293 1457.14 416.773 1452.44 414.103C1452.9 411.356 1454.56 410.287 1456.67 408.308Z"/><path fill="#FEFEFE" d="M1210.42 825.28C1238.63 824.619 1277.92 843.051 1284.62 873.98C1285.16 876.487 1285.28 877.886 1283.8 879.935C1282.36 878.802 1280.67 872.791 1279.96 870.652C1266.79 846.964 1240.36 833.935 1213.69 832.456C1210.47 832.278 1201.42 834.286 1197.65 834.751C1196.36 827.86 1205.36 826.584 1210.42 825.28Z"/><path fill="#FEFEFE" d="M1460 425.245L1461.5 425.164C1478.42 424.331 1490.91 429.668 1503.52 440.879C1509.39 446.103 1519.12 458.307 1519.27 466.27C1519.36 470.765 1519.93 478.564 1516.83 481.927C1512.84 479.87 1515.65 473.427 1514.49 468.986C1513.82 466.396 1513.19 464.08 1512.32 461.573C1501.73 441.688 1476.57 427.275 1454.41 430.513C1448.36 431.397 1439.82 437.659 1437.32 437.281C1437.82 428.575 1452.65 426.662 1460 425.245Z"/><path fill="#FEFEFE" d="M1303.19 854.701C1308.33 857.126 1315.77 859.72 1321.24 861.778C1321.99 866.514 1325.34 879.89 1322.1 882.981L1318.78 882.124C1310.74 879.838 1302 876.817 1293.99 874.224C1296.92 867.251 1299.77 861.462 1303.19 854.701Z"/><path fill="#FEFEFE" d="M1547.78 273.369C1550.37 273.188 1552.96 273.058 1555.55 272.979C1569.59 272.604 1583.21 277.832 1593.39 287.508C1598.76 292.68 1606.81 302.007 1606.94 309.641C1605.63 313.039 1606.49 311.913 1603.77 314.072C1596.5 293.63 1582.87 278.202 1559.51 277.01C1554.66 276.763 1550.22 278.212 1545.28 277.357L1545.17 275.75L1547.78 273.369Z"/><path fill="#FEFEFE" d="M1312.15 836.106C1319.93 838.949 1322.63 847.009 1320.46 854.603L1318.7 854.709C1314.18 852.821 1310.53 850.631 1306.31 848.21C1307.89 844.322 1310.24 839.913 1312.15 836.106Z"/><path fill="#A4A4A4" d="M912.601 705.903C906.852 706.075 899.459 706.516 894.051 704.946C895.603 703.551 901.349 704.039 903.962 704.041C906.197 704.493 910.562 705.266 912.601 705.903Z"/></svg>