<?xml version="1.0" encoding="utf-8" ?><svg xmlns="http://www.w3.org/2000/svg" xmlns:xlink="http://www.w3.org/1999/xlink" width="2048" height="1024" viewBox="0 0 2048 1024"><path d="M1588.96 357.935C1644.74 310.947 1702.29 270.207 1770.33 242.287C1810.89 225.641 1853.12 213.81 1894.88 200.554C1898.9 199.277 1902.2 198.316 1905.09 201.611C1905.55 206.23 1903.09 208.046 1898.76 209.387C1867.65 219.004 1836.37 226.999 1805.58 237.726C1774.55 248.806 1744.38 262.183 1715.33 277.747C1686.18 293.33 1654.9 314.397 1628.66 334.782C1484 447.171 1373.37 609.174 1332.14 788.489C1330.77 794.459 1329.4 816.551 1326.45 818.938C1313.27 815.502 1329.23 782.483 1325.46 774.479C1325.04 773.574 1324.64 772.665 1324.24 771.752C1321.48 765.559 1320.24 746.206 1319.53 738.357C1316.9 708.858 1298.3 669.843 1277.77 648.538L1276.84 648.67C1282.16 659.495 1289.64 670.966 1294.5 682.017C1302.13 699.336 1322.89 774.101 1311.16 788.302C1304.07 790.754 1299.37 773.266 1297.42 767.851C1289.85 747.375 1278.73 728.391 1264.58 711.769C1250.3 694.843 1229.47 679.747 1210.03 669.399C1216.47 675.706 1227.77 684.788 1233.1 690.632C1258 718.079 1279.19 748.696 1293.73 782.901C1297.42 791.59 1302.78 800.857 1303.68 810.354C1303.94 813.157 1300.65 815.31 1298.48 816.417C1291.83 814.96 1284.65 793.501 1279.83 787.541C1250.84 751.692 1208.01 729.599 1163.2 720.873C1159.98 720.247 1156.5 719.007 1153.45 719.788L1154.58 721.743C1179.88 727.74 1284.61 793.804 1286.21 818.14C1284.89 821.596 1285.81 820.377 1282.38 822.598C1277.92 822.239 1255.73 797.106 1250.57 791.845C1202.12 742.386 1139.56 729.241 1075.08 709.197C1139.21 708.674 1186.21 709.103 1242.85 743.771C1250.99 748.756 1273.71 767.943 1277.11 769.591L1277.52 768.678C1271.33 759.011 1267.02 749.614 1261.16 740.049C1244.1 711.907 1222.11 687.075 1196.23 666.751C1190.61 662.274 1175.39 650.378 1169.11 650.365C1154.09 650.333 1111.53 649.649 1099.83 652.646L1101 648.336C1124.4 645.778 1142.28 645.816 1165.79 645.845C1160.8 642.995 1146.24 634.49 1141.17 634.02C1102.29 630.424 1061.38 634.908 1022.95 641.311C1019.23 641.931 1015.46 643.191 1013.51 641.265C1016.27 638.124 1045.9 632.684 1051.47 631.997C1084.34 627.942 1119.98 624.236 1152.16 633.854C1161.89 636.762 1172.09 642.905 1182.28 644.56C1208.34 646.632 1234.46 644.539 1259.57 654.241C1235.6 653.678 1211.55 648.826 1184.85 648.705C1214.36 659.213 1262.71 693.64 1280.27 719.586C1286.92 729.406 1300.37 752.036 1305.2 758.087C1299.42 703.316 1281.22 660.018 1247.99 615.966C1269.85 630.639 1278.81 639.951 1294.71 660.877C1319.52 693.526 1323.45 721.46 1329.62 760.38C1333.15 757.132 1337.28 735.886 1338.83 729.95C1343.77 711.494 1350.07 693.43 1357.68 675.905C1360.77 668.876 1371.32 647.801 1372.56 642.35C1369.16 633.815 1248.75 602.567 1231.38 598.552C1187.5 588.407 1135.51 575.543 1090.87 570.271C963.645 555.246 833.385 579.117 711.34 614.164C693.032 619.441 674.758 627.618 656.553 633.438C672.047 664.549 696.559 715.519 702.523 749.389C706.953 718.368 711.59 687.297 728.895 660.301C731.341 656.486 733.404 654.214 732.516 649.588C726.474 644.536 709.343 653.527 701.837 648.953L702.167 647.436C712.001 642.451 731.181 645.846 738.71 641.522C745.513 637.616 764.2 613.572 773.97 613.532C775.074 619.518 762.141 638.22 758.482 644.056C770.16 643.898 799.58 644.827 810.006 648.047L810.691 649.441C804.792 652.512 767.297 648.319 756.022 648.626C743.008 674.633 735.08 708.599 736.263 738.413C736.284 738.937 736.998 739.047 737.482 739.257C741.783 733.686 744.475 728.198 748.297 722.424C776.614 679.645 823.735 651.322 871.809 635.811C880.867 632.888 910.83 622.271 918.503 624.449L918.1 625.545C913.64 627.155 910.221 627.281 905.865 628.518C857.577 642.229 821.391 675.398 794.637 716.75C790.5 723.144 773.559 745.167 775.433 751.723C778.89 749.434 781.589 746.602 784.895 744.329C788.545 741.818 794.4 740.086 797.793 737.506C831.124 712.165 877.866 705.675 918.784 707.867C922.967 708.091 934.785 706.001 940.004 705.404L940.367 706.057C938.161 707.545 935.267 708.124 932.714 708.935C896.908 720.308 853.542 740.674 823.631 763.958C812.573 772.469 802.909 782.652 794.988 794.14C790.343 800.734 778.788 823.439 769.561 814.178C768.646 809.085 772.657 802.971 775.668 798.787C797.843 767.977 830.263 746.292 862.735 727.576C869.345 723.767 875.266 721.972 881.594 718.699C875.995 709.961 807.276 736.385 799.255 743.822C789.104 753.235 774.142 761.293 764.337 771.526C760.843 774.265 758.068 788.246 750.646 787.68C746.63 781.233 753.242 778.512 755.16 772.47C765.088 741.205 785.39 712.808 806.503 688.069C811.468 682.217 834.57 660.652 836.464 657.527L835.217 656.929L836.323 656.877C829.775 658.286 825.302 664 819.676 667.067C783.978 686.525 755.124 716.993 739.415 754.685C736.499 761.681 739.191 778.671 733.266 783.585C730.504 783.19 731.568 783.606 729.194 781.498C727.824 773.217 730.449 767.864 729.969 760.88C727.969 731.772 729.198 701.822 738.891 674.083C740.795 668.633 749.829 652.145 747.193 647.821C734.759 649.508 715.14 709.029 713.094 722.503C711.07 735.829 709.625 752.588 708.108 766.33C707.114 775.33 720.759 795.973 713.176 802.323C703.565 799.39 695.066 754.526 691.582 743.597C680.686 709.453 667.459 676.097 651.995 643.764C598.127 530.259 520.126 429.884 423.442 349.65C406.228 335.392 383.326 317.057 364.492 305.075C307.085 268.555 245.171 240.905 179.916 221.711C168.716 218.416 145.279 213.309 138.542 204.402C138.08 201.578 137.84 202.637 139.183 200.368C144.945 198.601 184.997 212.1 192.735 214.411C289.347 243.267 367.591 290.784 444.185 356.064C472.661 328.463 515.967 340.2 537.717 370C541.948 375.797 542.941 386.136 546.832 391.464C550.52 390.559 552.773 389.641 556.34 390.881C562.021 394.851 560.826 404.707 563.966 409.228C565.106 410.868 569.454 411.087 573.365 417.049C602.44 397.631 628.054 400.345 648.574 429.726C651.932 434.533 654.748 443.783 658.227 447.305C682.361 452.31 671.604 470.425 679.143 478.275C698.667 460.486 698.364 474.149 709.739 470.967L710.335 470.806C717.751 468.731 723.689 463.48 730.805 460.756C749.709 453.521 776.898 457.847 794.236 467.481C822.298 483.073 826.701 513.387 830.129 515.955C836.662 520.85 866.093 500.068 890.595 544.811C901.391 545.392 904.37 547.393 913.693 552.329C915.142 555.366 916.528 559.1 919.097 561.071C926.831 561.443 937.311 558.948 946.105 558.355C968.386 556.969 990.702 556.203 1013.03 556.057C1031.17 556.029 1049.91 557.489 1068.04 558.405C1076.17 558.816 1089.58 561.199 1097.01 560.46C1107.01 541.666 1112.82 539.879 1134.22 538.916C1144.88 526.051 1152.21 509.201 1171.32 507.422C1182.65 506.367 1182.29 507.937 1189.12 514.589C1193.94 514.097 1196.39 510.769 1199.92 511.254C1203.3 511.717 1203.33 515.071 1207.62 513.517C1210.87 508.288 1212.57 502.787 1215.22 498.373C1222.36 486.485 1234.93 474.161 1248.89 471.223C1263.46 468.156 1268.52 470.088 1280.7 476.579C1289.36 481.193 1295.49 490.858 1299.54 492.657C1304.38 487.906 1299.57 479.639 1308.15 475.87C1311.74 476.299 1312.47 476.682 1315.75 478.081C1317.91 475.386 1318.45 471.837 1319.41 468.551C1329.36 434.405 1367.28 406.174 1400.71 430.027C1414.13 420.143 1424.76 412.854 1442.63 415.679C1450.63 416.969 1458.25 419.995 1464.95 424.546C1467.28 422.437 1470.38 419.444 1472.89 417.733C1477.23 398.721 1475.94 400.921 1491.86 393.233C1495.37 391.538 1498.22 381.165 1501.09 378.24C1523.26 353.055 1557.79 339.662 1588.96 357.935Z"/><path fill="#FEFEFE" d="M475.663 349.756C503.054 346.139 530.09 361.369 540.613 387.245C542.369 391.563 541.495 399.401 544.272 402.737C548.963 402.966 546.754 399.083 553.003 398.226C561.053 403.383 555.663 414.069 559.947 419.381C562.604 419.101 563.377 419.115 566.038 419.376C576.165 426.215 566.097 435.373 568.256 441.773C570.218 443.828 570.641 443.884 573.447 444.476L575.251 443.12C576.655 439.222 575.605 431.406 576.085 426.061C582.094 418.35 587.953 415.886 597.572 413.102C621.652 406.13 642.967 425.506 651.096 446.506C653.128 451.755 650.482 463.897 656.509 467.671C660.143 464.986 657.984 456.883 664.258 455.571C681.056 463.095 667.34 485.761 674.911 491.997C680.448 491.28 683.133 485.604 685.459 481.187C695.678 474.579 698.307 475.073 705.909 484.599C722.955 468.776 741.216 462.667 763.583 464.755C790.098 467.23 819.025 486.035 820.516 514.425C820.725 518.415 820.459 522.544 821.209 526.479C822.021 530.741 828.005 527.142 830.388 526.724C842.876 522.332 852.754 520.807 865.353 525.887C882.752 532.902 875.082 537.948 879.115 547.892C882.154 549.95 881.136 549.373 885.485 549.01C890.672 553.012 901.441 555.462 905.862 560.516L905.492 562.158C901.748 564.258 898.095 563.807 893.893 564.171C865.687 566.617 837.048 575.026 809.24 578.386C801.321 572.493 803.945 550.066 793.602 548.221C788.271 552.458 791.334 558.192 789.309 560.107C788.261 556.826 787.726 553.652 784.978 551.745C781.286 550.982 782.802 550.808 779.28 552.526C776.86 558.114 779.838 557.115 778.657 562.62C769.434 567.018 768.478 557.995 759.371 559.017C753.867 559.634 755.019 563.24 751.429 564.532C750.856 556.82 752.149 536.199 745.432 532.328C736 533.876 736.461 582.431 736.358 592.055C733.958 594.745 734.928 594.48 732.051 594.988C730.056 592.04 730.719 592.542 730.89 588.246C731.053 580.074 733.974 553.465 724.815 551.573C720.234 554.85 718.433 581.706 715.924 591.273C713.497 578.927 714.75 568.351 713.149 556.035C712.562 551.517 713.473 551.229 710.741 549.038L707.891 549.419C697.26 556.861 702.275 589.295 699.061 597.144L697.705 597.428C693.972 586.012 701.515 541.761 694.151 536.721L691.852 537.255C687.758 541.671 687.372 551.027 686.699 557.039L685.981 556.802C682.644 545.126 689.774 534.278 684.356 519.781C681.294 517.281 682.227 517.241 679 517.272C666.928 526.9 679.457 560.738 662.973 563.49C660.69 559.28 667.192 536.59 657.627 532.902C648.283 538.482 653.688 556.341 648.397 561.524C646.952 552.583 654.036 514.791 642.438 515.38C641.696 515.91 639.077 517.822 638.856 518.482C634.563 531.289 636.196 550.611 632.456 562.946C631.682 561.586 631.428 563.178 631.073 562.173C627.083 550.894 631.783 523.994 625.256 516.347C621.665 514.736 623.021 514.738 619.962 515.752C614.986 522.006 617.054 539.516 617.545 547.434L610.817 534.637C610.962 532.473 611.792 520.418 611.444 518.93C609.746 511.665 618.455 490.22 608.963 487.983C598.502 491.408 601.261 509.026 601.3 518.038L600.234 518.894C596.366 511.407 600.795 486.772 594.67 484.899C591.218 486.881 589.853 492.107 586.556 496.012C585.815 492.399 585.469 489.357 583.428 486.287C580.311 485.357 581.653 485.299 578.346 486.804C576.086 489.139 575.991 496.769 575.648 500.423C554.85 468.051 517.358 429.156 490.664 400.979C481.767 391.587 457.971 370.404 451.42 362.164L451.828 360.178C456.441 354.576 468.482 351.74 475.663 349.756Z"/><path fill="#FEFEFE" d="M1308.99 479.986C1312.4 482.771 1317.24 488.71 1321.53 488.265C1324.06 484.655 1322.55 478.502 1323.99 474.032C1331.1 451.931 1346.46 433.296 1369.65 427.429C1384.94 423.562 1390.79 432.369 1402.2 439.962C1417.68 419.492 1438.62 412.41 1461.36 429.973C1465.15 432.901 1465.13 436.753 1469.96 438.699C1473.31 436.025 1470.07 430.848 1473.66 426.551C1477.4 425.154 1477.23 425.899 1481.85 426.969L1483.52 425.745C1485.97 418.589 1478.13 411.993 1486.15 404.595C1489.4 404.842 1490.4 407.646 1494.17 410.432C1498.17 409.529 1498.56 407.064 1499.12 403.089C1503.6 370.839 1553.79 345.065 1581.33 363.199C1580.63 365.505 1546.68 397.083 1542.44 401.296C1503.98 439.499 1473 479.453 1440.84 522.783C1439.01 516.981 1435.32 506.394 1429.77 503.432C1426.28 503.557 1427.48 503.049 1425.08 505.1C1423.74 508.836 1424.98 514.568 1425.53 518.7C1422.26 519.312 1422.04 507.716 1415.97 504.334L1413.81 505.052C1405.83 515.583 1413.07 530.362 1410.22 544.658C1409.27 541.585 1408.36 539.462 1407.2 536.527C1403.95 528.306 1405.5 519.404 1399.38 512.235C1395.41 510.31 1396.97 510.718 1392.44 511.202C1391.96 511.681 1391.48 512.159 1391 512.638C1390.96 521.742 1394.35 532.528 1393.27 541.407C1386.91 535.487 1386.2 513.43 1376.23 511.956C1364.69 520.222 1392.64 559.665 1384.21 567.779L1382.28 567.311C1379.59 563.335 1378.63 558.879 1376.45 555.562C1371.91 548.671 1373.48 534.081 1363.37 534.995C1360.5 540.505 1364.89 551.074 1365.09 559.217L1364.16 559.438C1358.52 552.558 1355.66 533.989 1346.79 534.498L1344.54 537.031C1342.82 535.687 1342.75 535.6 1340.68 535.027L1338.82 536.862C1338.5 540.607 1339.06 542.745 1339.73 546.418L1339.04 546.492C1337.86 542.929 1337.08 540.026 1335.03 536.862L1333.08 536.769C1326.42 541.835 1331.32 546.019 1329.12 548.841C1324.25 555.102 1331.98 564.196 1330.31 568.642C1321.75 563.917 1325.86 558.99 1321.14 551.62C1317.72 546.27 1314.48 536.981 1308.6 535.156L1303.98 538.3C1299.78 536.134 1298.99 535.119 1295.42 538.405L1293.56 539.873C1290.24 539.533 1289.2 539.219 1286.22 540.942C1282.2 548.92 1290.51 563.499 1288.76 570.486C1283.74 567.074 1282 550.043 1271.81 549.272C1264.59 555.363 1279.81 573.151 1279.66 581.268L1278.39 582.367C1271.15 578.188 1267.37 557.078 1256.36 555.892L1255.47 556.75C1255.83 560.542 1259.39 569.228 1261.44 572.414L1259.62 573.925C1255.98 568.236 1249.2 556.214 1241.48 558.362C1239.66 560.934 1240.01 559.668 1240.5 563.302C1236.93 560.288 1230.85 555.276 1225.92 559.483C1219.92 564.605 1228.09 569.592 1227.44 574.681C1223.5 572.173 1222.13 570.297 1218.25 573.147C1215.44 580.343 1222.87 583.232 1228.39 586.905C1216.43 583.985 1109.35 562.961 1107.68 561.443C1110.73 556.395 1112.03 554.673 1115.95 550.256C1117.63 549.604 1137.53 545.096 1136.67 546.073C1148.52 532.528 1159.31 506.274 1182.34 513.932C1185.85 515.099 1188.22 523.515 1191.03 526.629C1196.71 524.845 1194.32 520.181 1200.4 517.346C1206.15 518.126 1208.11 522.268 1211.62 525.958C1214.7 523.991 1214.06 510.66 1216.24 506.955C1239.48 467.489 1275.93 463.102 1299.76 506.421C1300.77 508.262 1301.89 508.856 1303.88 509.04C1304.74 507.44 1307.64 485.353 1308.99 479.986Z"/><path fill="#FEFEFE" d="M1283.27 586.909L1285.74 587.204C1290.85 590.512 1297.32 601.155 1299.6 606.896C1287.54 600.629 1288.99 598.621 1283.27 586.909Z"/><path fill="#EBEBEB" d="M1261.44 572.414C1264.75 577.646 1270.35 585.197 1271.72 590.79L1271.16 591.499C1264.99 587.193 1262.56 580.589 1259.62 573.925L1261.44 572.414Z"/><path fill="#FEFEFE" d="M1303.28 577.31L1305.22 578.285C1307.19 582.32 1310.49 589.525 1309.01 593.869C1303.4 589.744 1300.33 583.759 1303.28 577.31Z"/><path fill="#FEFEFE" d="M662.944 575.237C667.13 576.31 667.208 576.055 669.699 578.929C669.561 582.976 669.738 581.653 667.526 585.308C665.377 586.23 665.123 586.516 662.962 586.027C661.382 582.481 662.45 579.534 662.944 575.237Z"/><path fill="#EBEBEB" d="M1295.42 538.405L1295.56 539.033C1297.44 547.527 1300.05 551.415 1300.38 560.777L1300.19 560.117C1297.99 552.947 1293.99 547.805 1293.56 539.873L1295.42 538.405Z"/><path fill="#FEFEFE" d="M1320.07 597.787C1323.99 600.057 1324.64 606.35 1324.46 610.43C1320.43 608.25 1318.74 602.02 1320.07 597.787Z"/><path d="M1878.96 311.368C1889.64 310.644 1895.18 310.701 1904.93 313.839C1939.67 325.019 1922.89 367.021 1925.15 371.672C1942.32 368.034 1949.74 365.651 1965.79 377.446C1983.01 390.108 1983.6 417.024 1971.51 433.226C1966.72 439.638 1952.47 445.659 1944.9 448.513C1944.11 448.81 1939.4 448.471 1937.72 448.612C1940.34 454.353 1944.86 463.742 1943.75 469.83C1940.75 486.209 1927.45 499.645 1914.79 509.166C1896.92 509.645 1889.19 505.198 1880.86 488.856C1868.27 533.292 1831.52 493.293 1831.04 545.783C1830.67 585.669 1849 618.572 1866.54 653.158C1873.31 599.616 1894.99 553.269 1944.93 525.682C1951.16 522.242 1983.5 513.305 1985.03 524.241C1981.83 531.201 1961.14 533.92 1953.69 541.504C1919.71 576.129 1911.91 616.428 1908.93 663.389C1917.25 644.287 1927.1 624.865 1942.11 610.17C1950.68 601.78 1990.92 579.365 2000.45 589.804L2000.29 591.961C1994.75 598.358 1978.83 598.171 1974.2 602.327C1946.81 629.562 1943.8 678.953 1946.78 715.17C1947.7 726.328 1963.99 750.828 1963.22 755.608C1957.78 759.156 1953.38 753.872 1950.71 749.204C1932.19 716.824 1935.75 675.064 1946.28 640.558C1949.25 630.833 1954.24 619.465 1956.35 610.083C1939.3 614.44 1921.97 650.937 1917.13 666.35C1914.31 675.345 1912.89 685.092 1909.38 694.173L1908.05 694.637C1906.53 693.106 1903.93 690.574 1903.76 688.404C1900.53 647.703 1905.56 603.665 1925.39 567.463C1932.81 553.922 1942.07 545.285 1949.51 533.386C1941.54 536.808 1934.08 541.318 1927.34 546.788C1900.81 568.058 1880.4 603.227 1875.7 636.883C1874.35 646.57 1876.15 653.093 1872.81 662.699C1871.78 665.659 1883.44 678.249 1877 683.304C1871.09 681.296 1871.55 678.024 1869.05 673.329C1850.46 638.365 1831.48 602.844 1825.58 563.146C1823.92 551.989 1824.59 543.414 1823.75 532.734L1823.26 532.826C1822.51 533.39 1821.6 534.104 1821.24 534.974C1804.98 573.785 1824.2 617.932 1844 651.649C1848.69 659.639 1865.3 681.987 1861.01 689.816L1859.47 689.908L1858.78 689.262C1833.16 665.105 1804.72 658.275 1770.43 659.365C1742.66 660.248 1712.59 671.421 1693.53 692.027C1678.8 707.949 1662.55 744.838 1663.48 765.996L1664.68 766.01C1666.02 759.664 1677.11 740.791 1681.25 734.079C1697.79 707.076 1720.47 688.971 1751.33 681.524C1830.17 662.498 1889.26 725.836 1933.2 781.869C1936.82 786.489 1952.63 802.036 1948.78 807.472C1945.07 807.79 1942.2 806.966 1939.77 803.826C1904.4 758.141 1868.03 708.819 1809.69 692.134C1784.14 687.758 1771.97 686.335 1747.31 693.463C1741.12 695.253 1722.11 699.607 1719.67 706.164C1727.51 710.951 1738.25 712.911 1745.09 716.692C1773.38 732.325 1802.92 749.065 1825.49 772.523C1830.81 778.049 1848.77 796.167 1848.75 802.541L1847.39 803.371C1843.31 802.884 1826.26 783.686 1822.5 779.73C1795.33 751.089 1764.31 732.94 1727.44 719.549C1720.87 717.164 1710.67 707.289 1704.23 716.56C1704.95 717.361 1745.43 736.972 1749.57 738.077C1766.73 742.659 1842.15 800.085 1836.97 815.654C1830.78 814.415 1816.62 795.52 1810.81 790.091C1779.09 760.424 1737.32 739.812 1695.73 726.246C1686.77 739.553 1679.12 753.441 1671.89 767.772C1667.84 775.789 1664.9 808.449 1657.81 810.589C1647.44 802.323 1657.12 752.877 1659.63 742.036C1661.04 735.937 1669.2 720.769 1668.4 715.979C1659.9 712.217 1613.56 706.523 1603.85 708.794C1603.05 711.341 1607.61 720.158 1607.36 726.119C1605.59 757.415 1584.12 776.187 1554.78 757.728C1549.41 754.352 1535.41 799.954 1496.84 763.144C1493.78 750.584 1493.5 749.614 1494.04 736.889C1491.52 736.509 1479.76 735.12 1478.19 734.171C1452.87 718.935 1462.3 684.749 1486.42 673.838C1483.75 666.527 1482.23 662.908 1483.16 654.856C1484.26 644.47 1489.59 634.996 1497.9 628.669C1507.62 621.254 1520.95 619.23 1531.53 625.803C1536.27 628.747 1536.68 630.799 1539.69 634.955C1541.61 634.191 1543.8 632.118 1545.14 630.392C1557.39 614.648 1587.95 603.897 1595.16 629.999C1597.66 639.028 1594.26 647.572 1593.47 657.109C1596.83 658.389 1604.42 654.665 1615.2 656.387C1622.48 661.579 1628.96 666.556 1627.84 676.775C1627.62 678.818 1626.84 681.752 1627.28 683.433C1634.33 685.68 1647.73 685.748 1655.83 686.909C1665.37 688.277 1670.91 690.417 1680.1 693.09C1685.35 691.304 1697.01 676.11 1702.32 672.43C1733.42 650.885 1776.44 642.467 1813.3 651.39C1821.38 653.346 1828.72 657.978 1836.23 658.889L1834.41 658.61L1836.01 656.061C1830.51 650.859 1825.4 643.697 1820.05 637.685C1796.93 611.677 1772.69 584.099 1740.31 569.597C1735.67 567.52 1728.8 564.08 1723.93 562.409C1723.19 562.491 1721.55 561.923 1721.5 563.219C1720.61 587.691 1707.32 613.919 1678.63 603.096C1675.72 601.996 1671.89 599.59 1668.54 599.296C1663.38 602.389 1659.8 612.186 1654.12 616.903C1644.09 625.239 1629.4 623.238 1621.31 613.345C1614.36 604.833 1614.52 596.498 1615.55 586.346C1612.27 580.081 1585.09 597.592 1576.04 568.38C1565.55 534.528 1598.76 535.422 1603.34 526.872C1599.72 522.652 1595.57 515.264 1594.24 509.876C1589.35 490.066 1614.25 474.686 1631.51 475.943C1635.36 476.224 1644.52 481.459 1648.19 483.41C1652.36 481.782 1654.01 476.412 1657.84 473.148C1666.46 465.8 1672.82 463.209 1683.35 459.666L1693.95 461.812C1699.82 467.061 1701.58 470.027 1705.18 476.692C1704.89 486.542 1700.06 500.742 1700.35 502.661C1708.01 505.704 1725.31 488.726 1737.03 516.749C1735.38 526.069 1733.87 530.427 1729.27 538.562C1728.29 540.306 1729.02 541.101 1729.88 542.616C1735.73 546.07 1742.77 546.856 1749.11 549.178C1752.95 550.603 1756.84 554.051 1760.47 555.581C1774.76 561.6 1788.49 570.293 1800.16 580.465C1802.53 582.527 1803.56 585.073 1806.52 585.809C1807.54 581.533 1805.87 572.915 1805.96 567.928C1806.26 549.79 1809.97 527.121 1818.58 511.115L1819.07 510.223C1800.09 492.712 1798.86 474.169 1804.42 453.898C1804.8 452.53 1790.54 448.449 1787.25 446.37C1777.96 440.489 1772.21 428.406 1769.11 418.072C1761.03 385.813 1774.25 386.479 1788.3 373.11C1812.84 349.755 1843.06 370.231 1846.09 369.403C1844.89 341.058 1849.73 321.924 1878.96 311.368Z"/><path fill="#FEFEFE" d="M1885.81 321.223C1890.48 320.022 1903.01 323.05 1907.36 325.455C1935.11 340.803 1903.71 387.364 1906.73 395.668C1912.6 398.124 1916.9 389.09 1918.82 385.014C1922.86 383.577 1926.91 382.184 1930.97 380.834C1939.52 378.025 1947.13 377.607 1955.43 381.932C1962.4 385.573 1967.58 391.91 1969.76 399.47C1975.28 418.47 1965.28 432.448 1946.98 436.673C1933.75 439.727 1925.69 436.772 1914.5 430.216L1912.87 430.793L1911.63 433.674C1912.05 443.48 1931.13 453.71 1934.59 462.792C1938.44 472.87 1924.62 487.214 1918.62 494.663C1917.88 495.577 1910.2 499.128 1908.77 499.795C1908.25 499.578 1907.72 499.358 1907.2 499.134C1880.63 487.726 1889.13 469.219 1876.67 463.931L1874.58 464.96C1872.28 468.111 1872.38 468.78 1872.44 472.695C1872.71 487.672 1872.66 496.649 1857.05 502.241C1838.04 509.048 1818.85 504.18 1812.07 483.625C1807.62 470.162 1810.83 462.473 1816.73 450.812C1821.97 449.098 1831.16 446.971 1834.09 442.617C1833.75 439.639 1833.03 439.777 1830.6 437.174C1824.29 433.956 1801.19 447.313 1790.41 437.4C1776.65 423.985 1765.55 403.707 1784.05 388.85C1808.38 369.31 1820.43 363.295 1847.59 385.01C1850.72 387.508 1853.78 389.738 1857.91 389.184C1860.57 385.254 1856.95 370.391 1856 364.936C1852.34 343.809 1862.76 323.602 1885.81 321.223Z"/><path d="M1865.84 402.115C1882.97 400.614 1900.66 409.276 1896.98 429.626C1895.07 440.218 1887.32 445.652 1878.76 451C1872.91 452.922 1865.54 453.105 1859.87 450.565L1859.28 450.296C1854.04 447.946 1851.02 444.278 1847.09 440.148C1841.25 419.219 1844.21 408.374 1865.84 402.115Z"/><path fill="#FEFEFE" d="M1865.58 411.359C1889.14 408.483 1896.26 428.223 1874.89 441.766C1864.25 443.776 1852.18 437.508 1854.54 425.294C1855.98 417.851 1859.88 415.548 1865.58 411.359Z"/><path fill="#FEFEFE" d="M1575.16 625.533C1576.77 625.49 1579.89 625.797 1581.26 626.74C1600.55 640.024 1569.1 669.527 1571.34 677.645C1581.22 680.529 1609.57 653.124 1617.68 672.298C1624.25 687.823 1600.06 703.032 1586.83 702.933C1585.33 702.922 1584.28 705.507 1583.81 706.706C1586.89 712.28 1604.76 714.73 1598 732.665C1595.83 738.811 1591.91 749.661 1585.48 752.454C1564.85 761.421 1560.99 746.055 1553.84 731.243C1553.03 729.56 1551.96 729.656 1550.47 729.463C1545.7 733.399 1547.08 746.307 1544.16 752.427C1542.14 756.648 1539.97 759.07 1537.08 762.665L1523.59 767.513C1488.31 758.941 1512.08 723.556 1507.39 715.276C1504.37 714.197 1503.21 714.55 1501.13 717.637C1492.66 730.248 1477.91 730.65 1474.42 713.781C1472.24 703.261 1476.09 697.225 1481.87 688.773C1496.11 682.449 1501.13 689.419 1508.67 685.381C1510.52 677.531 1484.4 663.539 1495.49 648.454C1514.46 622.65 1532.47 622.014 1533.82 656.867C1533.93 659.539 1536.22 661.586 1538.25 662.954C1545.88 660.591 1544.31 650.63 1546.13 646.504C1547.52 643.376 1553.2 634.795 1555.26 631.57C1562.52 628.943 1567.59 626.963 1575.16 625.533Z"/><path d="M1536.41 676.157C1548.55 675.379 1559.71 677.996 1563.91 691.172C1565.53 696.158 1565.05 701.586 1562.61 706.219C1558.85 713.492 1554.37 715.178 1547.22 717.504C1526.86 725.612 1511.18 691.601 1536.41 676.157Z"/><path fill="#FEFEFE" d="M1542.44 684.587C1544.63 684.55 1548.1 684.314 1550.12 684.984C1552.54 685.777 1554.53 687.528 1555.62 689.829C1559.1 697.222 1552.17 704.871 1545.66 707.671C1542.41 707.707 1538.98 707.788 1536.1 706.037C1533.73 704.582 1532.02 702.242 1531.37 699.532C1529.51 691.843 1535.39 686.191 1542.44 684.587Z"/><path fill="#FEFEFE" d="M1679.81 471.069C1702.11 469.352 1698.64 483.007 1691.46 498.3C1688.17 505.316 1679 515.455 1685.08 521.735C1696.63 525.361 1720.36 494.53 1726.94 518.112C1727.79 521.171 1725.51 524.96 1725.13 527.301C1722.91 541.289 1695.66 542.211 1691.74 547.193C1691.38 550.764 1691.04 549.38 1693.05 552.381C1698.88 556.167 1706.13 552.972 1710.08 558.856C1716.77 568.821 1709.98 586.248 1700.78 592.471C1693.05 597.701 1688.36 596.924 1680.1 595.435C1674.53 590.41 1668.29 580.668 1663.88 578.246C1659.65 581.341 1655.72 628.035 1628.88 608.537C1612.98 590.564 1634.83 580.01 1630.5 567.248L1628.25 566.269C1619.69 567.134 1600.97 581.379 1593.01 576.72C1577.53 565.761 1580.28 556.158 1592.42 544.815C1604.26 533.76 1618.6 544.017 1623.1 535.167C1622.4 525.571 1599.44 517.171 1601.43 504.788C1603.32 493.025 1621.97 483.949 1633.02 485.426C1648.08 487.441 1638.1 501.037 1645 508.863C1647.32 511.504 1646.25 511.515 1649.73 511.929C1653.78 501.535 1658.52 482.752 1669.74 477.302C1673.6 475.432 1676.31 473.465 1679.81 471.069Z"/><path d="M1652.02 520.227C1659.73 522.868 1661.02 520.597 1667.8 528.464C1678.66 541.077 1674.98 552.377 1663.54 562.53L1653.54 564.737C1641.5 565.386 1636.48 557.982 1630.66 548.934C1630.37 531.608 1634.35 523.549 1652.02 520.227Z"/><path fill="#FEFEFE" d="M1648.14 529.814C1666.48 529.97 1670.89 543.223 1655.99 554.185C1638.22 555.818 1634.41 541.044 1648.14 529.814Z"/><path fill="#FEFEFE" d="M1724.66 553.361C1757.35 561.489 1809.35 584.747 1817.32 621.156C1813.5 619.359 1795.49 599.065 1790.57 594.815C1782.17 587.369 1773.32 580.388 1763.94 574.199C1759.33 570.819 1753.68 568.048 1748.87 565.304C1744.14 562.608 1727.08 556.651 1724.66 553.361Z"/><path fill="#FEFEFE" d="M1620.29 693.085C1631.13 693.766 1670.38 694.459 1677.87 701.943L1675.67 704.631C1669.83 707.856 1641.76 699.377 1633.6 698.821C1629.23 698.524 1624.42 698.28 1620.09 697.62L1618.97 696.009L1620.29 693.085Z"/><path d="M159.422 319.279C190.434 318.833 209.877 342.19 206.716 372.261C206.504 374.283 206.635 377.518 207.699 379.231C210.108 378.165 220.475 373.396 222.176 373.251C258.192 370.175 302.015 408.944 276.507 446.14C264.509 463.635 256.824 462.017 239.009 465.715C243.926 488.147 241.197 510.75 221.755 525.761C228.902 552.976 234.517 570.598 230.79 600.865C236.306 596.745 240.907 592.105 247.162 587.665C269.241 571.995 287.528 564.826 312.953 557.568C302.533 547.788 287.494 529.644 305.757 517.286C314.661 511.261 325.006 514.227 334.733 516.627C326.849 497.928 324.056 488.038 339.797 473.192C373.47 467.652 373.794 491.705 385.316 494.683C396.553 484.358 405.322 485.438 418.458 489.675C442.55 497.446 442.169 519.012 434.721 538.809C436.725 540.085 438.729 541.361 440.733 542.637C451.47 547.471 453.466 554.942 458.588 565.21C458.628 578.472 455.015 591.759 440.59 595.579C432.582 597.7 426.61 595.626 418.718 594.658C418.309 604.866 422.249 611.735 415.308 621.185C399.036 643.338 374.736 623.077 364.797 607.095C351.836 616.82 341.044 621.291 325.618 609.541C314.953 601.417 314.488 590.089 313.4 577.613C291.038 579.165 242.525 625.597 227.809 643.672C226.829 644.876 197.528 680.82 198.248 678.479C200.226 679.101 224.002 668.061 229.42 666.689C264.437 657.825 303.89 662.862 334.689 682.086C341.084 686.078 347.64 694.372 352.476 699.65C358.508 702.143 396.433 690.092 410.159 689.836L410.68 689.83C407.823 669.975 413.975 658.058 436.477 660.599C439.654 660.957 440.91 663.286 444.314 662.5C445.301 656.311 431.602 626.358 447.251 618.804C471.433 607.13 485.376 629.703 496.193 646.906C498.444 636.984 499.575 634.676 504.327 626.058C513.86 622.524 519.457 621.823 528.825 627.82C538.398 633.946 549.601 649.479 549.35 661.545C549.31 663.461 546.872 673.101 546.212 675.626C563.744 691.667 576.899 700.271 566.623 726.877C563.933 733.842 550.682 736.967 542.909 738.264C540.072 743.29 539.88 750.941 538.322 756.677C528.653 792.278 494.959 781.036 480.68 755.722C452.594 785.143 417.88 751.763 431.076 719.945C431.939 717.866 434.327 715.449 435.516 712.912L433.777 711.551C430.111 711.211 406.524 712.307 404.08 713.728C393.716 719.755 370.893 717.12 366.342 728.086C367.094 729.673 367.97 731.735 368.833 733.249C373.775 741.917 390.315 819.216 374.332 817.4C369.699 812.324 365.731 774.119 359.135 763.72C355.52 756.458 347.824 739.249 340.465 736.184C337.198 734.824 328.349 739.257 324.188 740.811C294.036 752.069 266.563 769.825 242.219 790.718C236.909 795.275 219.766 813.475 214.233 811.471L213.484 809.564C228.003 787.047 274.429 753.097 299.079 741.185C308.203 736.775 324.852 730.802 330.637 726.691C330.169 723.747 330.761 724.697 328.655 723.026C316.42 721.047 257.149 757.65 244.344 767.052C234.25 774.463 198.899 814.338 192.876 815.505L191.948 814.406C191.464 806.627 230.184 769.93 237.389 764.141C258.39 747.266 291.725 725.306 317.526 717.034C288.934 698.494 257.347 695.375 225.334 706.316C220.237 707.505 209.514 713.447 205.066 715.925C163.639 739.014 130.212 777.319 103.988 816.237C102.157 818.954 95.9618 826.477 93.2889 827.466L91.0485 826.436C89.8072 821.633 95.097 814.406 97.9062 810.604C142.172 750.706 217.522 663.734 301.072 697.858C323.954 707.204 339.107 716.153 352.871 735.987C354.894 738.902 367.261 760.182 367.28 760.196L367.722 758.533C355.003 707.125 333.802 678.869 276.522 672.727C237.196 668.51 208.169 681.37 178.256 706.202L176.565 705.487C175.865 703.03 176.435 700.164 177.749 698.006C202.751 656.936 230.089 615.863 220.983 565.082C220.314 561.35 218.299 552.029 215.01 549.94C215.688 548.494 211.437 584.711 211.461 588.349C211.578 606.135 172.315 698.619 160.502 701.742L159.515 700.475C159.853 695.536 161.484 695.07 162.088 691.553C169.526 648.26 156.861 603.75 124.024 573.735C112.616 563.307 103.802 557.836 90.475 549.562C92.5957 555.02 105.116 567.661 108.937 573.766C130.886 608.64 138.652 652.711 135.443 693.461C134.997 699.124 136.569 715.684 129.218 715.18C123.459 710.563 125.896 705.451 124.57 698.696C118.246 666.46 109.731 647.242 83.9081 627.456C100.352 661.689 106.707 702.598 98.8341 739.947C97.3128 747.164 87.8088 779.852 77.5763 774.001C74.244 766.336 88.893 752.495 90.582 744.535C93.3472 731.503 95.9934 717.164 95.3717 703.555C94.0883 675.461 89.0279 636.536 64.991 618.238C60.7236 615.277 44.5922 613.411 39.8021 608.724C39.6433 607.755 39.054 602.863 41.1789 603.218C81.0081 609.875 111.562 631.588 124.085 670.911C125.162 674.294 126.355 677.78 128.021 680.942L128.702 679.997C129.72 635.068 118.241 584.999 82.1399 553.958C72.4656 545.64 60.5307 546.166 55.444 539.897L55.6134 538.321C64.892 530.782 91.1522 540.792 100.501 546.26C134.499 566.148 158.22 599.062 167.435 637.248C169.848 647.25 169.677 658.707 172.313 668.239C176.772 665.741 194.747 624.059 197.445 616.381C205.135 596.638 212.27 554.702 203.184 535.569C197.823 524.279 179.356 541.198 161.357 504.668C150.374 517.663 137.146 527.753 118.663 519.783C109.147 515.679 103.86 498.893 98.1251 491.233C94.7588 486.737 100.603 469.049 103.789 462.916C102.29 460.561 76.3087 455.805 68.6374 439.749C63.723 429.464 62.4962 424.811 65.4602 411.144C68.1571 398.708 73.9802 390.915 85.0607 384.054C93.686 378.713 104.957 378.23 114.692 380.736C116.508 381.203 119.819 383.428 123.948 384.583C128.733 376.561 107.041 326.112 159.422 319.279Z"/><path fill="#FEFEFE" d="M157.535 330.049C164.071 329.549 175.377 331.786 181.198 334.887C208.641 349.507 191.912 385.586 195.485 397.492C200.251 399.67 214.523 387.766 222.753 384.67C237.839 378.995 272.713 399.482 274.443 415.099C280.438 469.213 229.339 446.931 210.477 452.261C210.139 452.927 209.631 453.457 209.93 454.051C215.21 464.551 230.658 462.293 233.014 477.083C234.374 485.619 232.455 488.094 230.934 495.782C224.644 527.587 175.237 531.078 169.529 496.431C169.496 486.265 174.024 481.84 171.366 475.199L169.773 474.722C159.023 479.115 145.777 531.663 118.668 506.675C93.7625 483.717 111.081 468.518 128.983 450.751C130.618 449.128 130.314 447.387 129.919 445.395C122.822 442.137 114.679 451.044 109.48 450.932C81.1977 450.323 63.556 427.815 78.469 403.52C82.4479 396.893 88.9365 392.156 96.4605 390.384C114.218 386.214 123.089 396.019 135.951 403.899C139.122 403.508 137.898 404.012 140.597 401.245C141.117 396.116 133.954 380.805 132.896 373.861C129.587 352.15 133.173 334.506 157.535 330.049Z"/><path d="M169.718 410.458C201.318 404.347 212.576 459.488 177.115 465.549C169.985 465.323 165.891 464.52 159.828 460.378C152.485 455.317 147.501 447.501 146.009 438.708C143.035 421.135 153.8 412.772 169.718 410.458Z"/><path fill="#FEFEFE" d="M166.956 421.543C169.149 421.621 171.209 421.732 173.36 422.224C178.743 423.46 183.396 426.822 186.26 431.545C191.937 440.873 187.22 449.51 178.508 454.516C158.896 452.17 141.641 430.803 166.956 421.543Z"/><path fill="#FEFEFE" d="M454.885 625.617C480.915 621.783 486.115 654.508 497.811 659.789C505.179 655.873 502.868 630.389 513.195 630.072C527.161 629.643 540.506 646.147 541.312 659.726C542.168 674.159 524.438 673.392 525.155 685.124C538.234 686.888 557.082 688.647 561.277 704.554C562.798 710.372 561.873 716.558 558.716 721.677C556.134 725.779 552.19 728.61 547.376 729.679C538.544 731.641 538.233 724.475 531.027 719.598C530.095 720.075 528.881 720.534 529.276 721.947C532.243 732.572 534.764 761.858 521.468 766.937C500.197 779.696 486.741 756.047 484.216 738.437C484.105 737.663 481.618 737.711 480.905 737.645C475.199 742.132 467.175 772.407 445.768 755.202C437.72 748.734 435.094 740.247 434.452 730.209C439.641 717.776 445.507 715.962 448.248 708.48C444.259 699.061 420.748 709.639 416.031 677.929C432.145 654.504 449.913 682.695 461.746 679.635C465.077 669.079 435.814 645.893 454.885 625.617Z"/><path d="M485.746 678.105C504.149 677.098 508.363 683.077 513.89 699.625C510.984 707.806 506.895 718.222 497.573 720.407C476.26 722.533 469.577 711.168 471.1 691.688C474.852 684.907 478.44 680.554 485.746 678.105Z"/><path fill="#FEFEFE" d="M485.679 687.22C505.289 684.843 511.515 703.271 494.994 711.981C485.642 719.009 467.228 699.216 485.679 687.22Z"/><path fill="#FEFEFE" d="M349.442 481.171C350.827 481.472 352.2 481.822 353.56 482.22C368.665 486.719 377.568 503.657 384.5 516.253C385.609 516.306 392.971 503.009 396.567 500.338C409.307 490.877 420.968 498.106 429.777 509.161C442.372 524.967 412.24 538.729 411.522 546.419C416.588 553.043 444.898 547.829 448.694 562.004C452.49 576.178 449.736 581.505 438.077 587.007C421.359 594.896 409.899 570.179 402.63 572.747C402.028 575.08 400.766 579.287 401.92 581.221C408.587 592.408 413.204 603.069 409.341 616.728C395.539 631.963 372.859 612.157 371.056 596.675C370.634 593.058 372.294 592.739 369.847 589.186C364.737 588.25 359.473 602.562 348.225 607.684C328.181 604.574 310.997 590.659 324.831 570.262C329.758 567.932 339.978 564.391 340.815 558.555C335.524 551.733 303.797 551.636 306.915 532.717C310.554 510.636 340.062 536.835 349.071 529.149C350.021 524.599 347.974 521.744 345.535 518.002C340.57 510.386 338.233 504.504 335.704 495.862C338.899 486.961 339.301 482.718 349.442 481.171Z"/><path d="M374.052 531.912C391.022 531.831 405.095 538.761 399.625 559.866C397.665 567.428 391.692 570.871 384.873 573.893C364.815 581.159 346.06 548.057 374.052 531.912Z"/><path fill="#FEFEFE" d="M376.939 540.075C393.076 539.854 400.757 557.688 382.838 566.056C367.021 562.323 360.019 549.627 376.939 540.075Z"/><path fill="#FEFEFE" d="M302.127 568.976L303.19 570.53C301.652 572.968 283.662 581.252 279.167 584.576C259.448 599.154 244.056 614.042 226.949 631.419C226.364 631.188 226.474 630.94 226.04 630.055C226.344 628.746 231.141 615.124 231.659 614.335C244.575 594.646 283.634 576.606 302.127 568.976Z"/><path fill="#FEFEFE" d="M410.157 698.479C410.205 698.488 410.252 698.51 410.301 698.508C412.684 698.422 414.102 698.355 416.405 699.157L417.066 701.025L416.121 702.174C400.656 703.68 384.613 708.183 369.737 712.693C367.223 713.522 365.385 715.163 362.624 715.031C360.967 713.51 359.675 712.499 359.217 710.173C364.266 704.436 402.288 699.099 410.157 698.479Z"/><path d="M1968.21 230.29C1975.81 228.655 1984.17 237.181 1985.79 244.024C1985.12 247.42 1983.84 250.336 1979.99 250.926C1966.75 252.96 1952.98 254.45 1939.68 256.693C1914.92 260.882 1890.51 266.98 1866.68 274.931C1655.13 343.636 1484.84 509.756 1406.25 718.904C1403.91 725.147 1401.79 731.488 1399.47 737.752C1391.06 760.114 1384.23 783.038 1379.02 806.354C1378.05 810.8 1376.92 811.154 1376.65 815.99C1374.35 821.53 1370.05 825.708 1363.92 825.147C1357.28 820.057 1360.91 812.737 1361.82 805.638C1363.32 793.828 1366.21 782.922 1369.53 771.5C1394.24 686.097 1433.74 605.687 1486.22 533.92C1579.28 406.599 1730.78 292 1883.12 248.096C1911.33 239.964 1939.3 234.767 1968.21 230.29Z"/><path d="M86.7649 231.832C100.894 231.897 121.389 238.236 135.538 241.585C180.71 252.275 217.486 268.268 258.266 289.694C446.703 388.695 600.442 559.986 662.76 765.149C664.268 770.112 664.736 775.401 665.985 780.416C667.591 789.047 676.289 802.666 670.632 810.187C667.559 811.571 663.582 810.273 660.135 809.56C654.602 807.591 652.868 806.845 651.01 800.974C643.732 779.489 640.104 755.645 632.922 734.253C616.275 684.674 591.144 636.351 563.835 591.754C480.761 456.091 351.006 343.567 203.041 284.453C176.2 273.73 145.829 266.213 117.966 258.969C104.486 255.623 90.1907 253.559 76.9006 249.237C74.9624 247.231 75.5677 247.873 75.0126 244.606C76.675 237.836 81.1506 235.586 86.7649 231.832Z"/><path d="M878.922 678.404C903.049 677.443 983.065 679.287 1001.9 689.543L1001.56 690.114C983.947 689.185 965.829 685.495 946.755 684.782C919.898 682.125 886.111 682.933 859.268 686.417C846.682 688.05 834.258 692.497 821.207 693.329C839.214 683.359 858.674 680.502 878.922 678.404Z"/><path d="M927.759 767.575C942.069 770.059 965.49 766.225 978.178 773.85C971.882 775.586 961.431 773.686 954.73 773.425C939.338 772.824 883.262 770.432 870.772 775.961C861.449 777.405 825.704 784.961 819.416 781.631L820.087 780.024C830.563 774.53 878.044 768.787 891.086 768.133C903.301 767.521 915.551 768.353 927.759 767.575Z"/><path d="M875.733 600.393C896.561 598.187 976.29 601.317 990.759 614.21L990.16 614.999C984.068 614.542 974.522 611.627 968.306 609.939C947.35 609.798 921.513 604.099 899.165 604.868C891.182 605.142 847.54 606.16 844.834 605.324L844.402 603.829C849.567 601.435 868.317 601.246 875.733 600.393Z"/><path d="M982.769 745.404C1012.52 744.475 1038.96 746.833 1067.86 754.17C1072.64 755.384 1079.73 756.394 1083.72 759.297L1082.29 760.273C1077.34 760.827 1072.94 759.731 1068.15 758.667C1053.64 756.724 1039.4 752.323 1024.82 751.195C1002.79 749.492 979.183 752.023 957.577 747.869C965.858 746.206 974.36 746.006 982.769 745.404Z"/><path d="M796.055 616.622L796.935 616.675C813.637 617.702 831.58 619.373 848.186 621.585C851.211 621.988 855.108 623.641 858.221 624.36C863.811 625.651 870.025 624.192 874.025 628.714L873.547 629.815C870.611 628.375 864.651 628.614 861.104 628.513C844.809 624.939 824.265 625.853 807.467 623.082C801.787 622.145 783.995 625.862 781.963 620.16L782.897 618.348C787.021 616.381 791.471 616.693 796.055 616.622Z"/><path d="M1097.14 588.809C1108.1 586.924 1160.98 593.694 1169.59 597.588L1171.35 599.552C1167.86 602.503 1151.37 598.299 1145.74 597.604C1127.19 595.375 1108.6 593.512 1089.98 592.015C1092.91 591.39 1094.55 590.262 1097.14 588.809Z"/><path d="M1160.43 611.631C1172.49 609.659 1213.95 615.038 1225.28 620.667C1220.62 621.673 1169.9 614.385 1161.47 613.078L1160.43 611.631Z"/><path d="M927.587 748.422C931.658 748.175 939.483 746.641 942.556 749.209C939.085 752.161 910.565 754.769 904.125 755.707C900.419 756.643 895.31 757.063 891.572 756.026L892.095 754.299C895.873 751.676 921.027 749.511 927.587 748.422Z"/><path d="M873.168 661.035C873.63 661.007 874.092 660.986 874.554 660.972C881.026 660.832 906.845 660.941 910.779 664.642L910.765 667.231C897.637 665.765 884.546 666.296 871.295 664.819L870.759 664.139L873.168 661.035Z"/><path d="M1296.36 632.236C1302.38 632.126 1308.41 632.301 1314.43 632.76C1321.59 633.269 1343.07 634.354 1347.39 639.338C1343.33 640.113 1302.78 634.799 1296.36 632.236Z"/><path d="M719.257 629.469C720.411 629.317 719.833 629.257 720.948 629.962C721.263 629.789 721.579 629.615 721.894 629.442L722.265 630.802C719.749 632.687 701.963 637.065 697.24 638.487C695.855 638.769 695.994 638.514 694.428 637.833C694.292 630.386 713.667 630.01 719.257 629.469Z"/><path fill="#1E1E1E" d="M1089.98 592.015C1082.83 590.986 1074 591.376 1064.57 590.014L1063.88 589.076L1063.37 589.731C1063.53 589.476 1064.23 589.072 1064.54 588.87C1072.74 588.333 1089.56 587.01 1097.14 588.809C1094.55 590.262 1092.91 591.39 1089.98 592.015Z"/><path fill="#1E1E1E" d="M1099.83 652.646C1096.02 652.478 1092.61 653.613 1090.07 652.23C1092.94 649.955 1097.36 649.23 1101 648.336L1099.83 652.646Z"/><path fill="#EBEBEB" d="M499.493 809.16C500.269 809.017 501.009 809.262 501.778 809.406C500.373 811.335 498.017 811.951 495.869 812.813C494.72 812.653 494.056 812.322 493 811.854C494.29 810.097 497.394 809.778 499.493 809.16Z"/></svg>