<svg class="typst-doc" viewBox="0 0 440 200" width="440pt" height="200pt" xmlns="http://www.w3.org/2000/svg" xmlns:xlink="http://www.w3.org/1999/xlink" xmlns:h5="http://www.w3.org/1999/xhtml">
    <path class="typst-shape" fill="#fbf8f1" fill-rule="nonzero" d="M 0 0 L 0 200 L 440 200 L 440 0 Z "/>
    <g>
        <g transform="translate(0 0)">
            <g class="typst-group">
                <g>
                    <g transform="translate(0 0)">
                        <path class="typst-shape" fill="#fbf8f1" fill-rule="nonzero" d="M 0 0 L 0 200 L 440 200 L 440 0 L 0 0 Z "/>
                    </g>
                    <g transform="translate(96 104)">
                        <path class="typst-shape" fill="none" stroke="#2e9bd6" stroke-width="2" stroke-linecap="butt" stroke-linejoin="miter" stroke-miterlimit="4" d="M 0 36 L 104 0 "/>
                    </g>
                    <g transform="translate(168 68)">
                        <path class="typst-shape" fill="none" stroke="#2e9bd6" stroke-width="2" stroke-linecap="butt" stroke-linejoin="miter" stroke-miterlimit="4" d="M 0 0 L 32 36 "/>
                    </g>
                    <g transform="translate(200 104)">
                        <path class="typst-shape" fill="none" stroke="#2e9bd6" stroke-width="2" stroke-linecap="butt" stroke-linejoin="miter" stroke-miterlimit="4" d="M 32 48 L 0 0 "/>
                    </g>
                    <g transform="translate(200 80)">
                        <path class="typst-shape" fill="none" stroke="#2e9bd6" stroke-width="2" stroke-linecap="butt" stroke-linejoin="miter" stroke-miterlimit="4" d="M 96 0 L 0 24 "/>
                    </g>
                    <g transform="translate(296 80)">
                        <path class="typst-shape" fill="none" stroke="#2e9bd6" stroke-width="2" stroke-linecap="butt" stroke-linejoin="miter" stroke-miterlimit="4" d="M 60 54 L 0 0 "/>
                    </g>
                    <g transform="translate(232 134)">
                        <path class="typst-shape" fill="none" stroke="#2e9bd6" stroke-width="2" stroke-linecap="butt" stroke-linejoin="miter" stroke-miterlimit="4" d="M 0 18 L 124 0 "/>
                    </g>
                    <g transform="translate(96 68)">
                        <path class="typst-shape" fill="none" stroke="#2e9bd6" stroke-width="2" stroke-linecap="butt" stroke-linejoin="miter" stroke-miterlimit="4" d="M 0 72 L 72 0 "/>
                    </g>
                    <g transform="translate(87 131)">
                        <path class="typst-shape" fill="#22333c" fill-rule="nonzero" d="M 9 0 C 4.033944 0 0 4.033944 0 9 C 0 13.966056 4.033944 18 9 18 C 13.966056 18 18 13.966056 18 9 C 18 4.033944 13.966056 0 9 0 Z "/>
                    </g>
                    <g transform="translate(159 59)">
                        <path class="typst-shape" fill="#22333c" fill-rule="nonzero" d="M 9 0 C 4.033944 0 0 4.033944 0 9 C 0 13.966056 4.033944 18 9 18 C 13.966056 18 18 13.966056 18 9 C 18 4.033944 13.966056 0 9 0 Z "/>
                    </g>
                    <g transform="translate(223 143)">
                        <path class="typst-shape" fill="#22333c" fill-rule="nonzero" d="M 9 0 C 4.033944 0 0 4.033944 0 9 C 0 13.966056 4.033944 18 9 18 C 13.966056 18 18 13.966056 18 9 C 18 4.033944 13.966056 0 9 0 Z "/>
                    </g>
                    <g transform="translate(287 71)">
                        <path class="typst-shape" fill="#22333c" fill-rule="nonzero" d="M 9 0 C 4.033944 0 0 4.033944 0 9 C 0 13.966056 4.033944 18 9 18 C 13.966056 18 18 13.966056 18 9 C 18 4.033944 13.966056 0 9 0 Z "/>
                    </g>
                    <g transform="translate(347 125)">
                        <path class="typst-shape" fill="#22333c" fill-rule="nonzero" d="M 9 0 C 4.033944 0 0 4.033944 0 9 C 0 13.966056 4.033944 18 9 18 C 13.966056 18 18 13.966056 18 9 C 18 4.033944 13.966056 0 9 0 Z "/>
                    </g>
                    <g transform="translate(187 91)">
                        <path class="typst-shape" fill="#7a6fe0" fill-rule="nonzero" d="M 13 0 C 5.826808 0 0 5.826808 0 13 C 0 20.173191 5.826808 26 13 26 C 20.173191 26 26 20.173191 26 13 C 26 5.826808 20.173191 0 13 0 Z "/>
                    </g>
                </g>
            </g>
        </g>
    </g>
</svg>
