<?xml version="1.0" encoding="utf-8" ?><svg xmlns="http://www.w3.org/2000/svg" xmlns:xlink="http://www.w3.org/1999/xlink" width="2048" height="1024" viewBox="0 0 2048 1024"><path fill="#221F20" d="M1021.74 159.416C1039.98 156.455 1084.43 160.737 1102.55 163.865C1190.3 179.691 1268.21 229.631 1319.23 302.758C1371.63 377.83 1392.12 470.619 1376.2 560.774C1442.82 596.168 1659.56 715.674 1688.73 776.405C1691.33 781.813 1692.95 788.145 1690.72 793.972C1688.6 799.526 1683.57 803.444 1678.27 805.748C1602.9 838.48 1195.31 678.17 1100.76 640.37L1006.98 601.329C952.459 578.095 898.504 553.551 845.164 527.72C755.229 483.749 390.162 297.318 361.04 222.744C359.036 217.612 358.168 211.811 360.493 206.627C362.895 201.273 368.223 197.902 373.526 195.884C421.292 177.707 520.778 211.292 567.883 226.101C635.092 246.558 701.026 270.99 765.337 299.268C768.679 295.198 772.05 291.153 775.451 287.133C840.478 209.927 921.324 168.017 1021.74 159.416Z"/><path fill="white" d="M1027.08 173.413C1043.35 172.554 1054.89 173.19 1070.91 174.389C1095.1 203.903 1113.95 231.489 1150.6 247.671C1155.83 249.981 1178.15 261.232 1181.6 253.422C1178.77 250.26 1162.05 240.029 1157.77 236.613C1136.84 219.876 1121.69 201.415 1107.51 178.992C1119.19 182.158 1130.6 184.648 1142.25 188.342C1176.6 199.575 1208.95 216.174 1238.1 237.524C1248.97 245.579 1283.17 270.199 1265.92 284.548C1254.43 294.112 1217.29 274.799 1204.53 272.315L1204.04 272.224C1204.61 272.765 1205.19 273.297 1205.78 273.819C1221.84 288.051 1279.55 311.814 1275.28 271.017C1302.66 299.417 1327.99 337.169 1342.26 374.021C1308.89 382.666 1265.15 368.589 1234.03 355.875C1229.17 353.891 1212.49 344.276 1209.6 344.87C1208.82 352.611 1226.47 360.719 1232.55 364.115C1266.27 382.957 1312.06 404.143 1351.28 400.315C1355.61 413.002 1358.45 426.968 1361.13 440.115C1314.7 437.282 1278.66 425.222 1235.76 409.272C1203.77 396.589 1173.88 380.116 1142.71 365.788C1140.43 364.74 1139.61 365.206 1137.71 366.159C1138.14 371.855 1157.87 385.307 1163.45 388.972C1222.49 427.773 1295.34 461.438 1364.87 472.387C1367.78 495.652 1365.87 526.762 1361.86 549.611C1311.78 540.793 1250.05 520.769 1202.73 501.482C1088.43 454.892 913.017 344.052 863.23 227.239C919.134 194.137 961.291 178.221 1027.08 173.413Z"/><path fill="#221F20" d="M1154.26 210.161C1180.93 208.795 1218.05 233.101 1236.3 251.512C1241.15 256.408 1241.95 261.813 1236.13 266.223C1235.1 266.219 1234.07 266.199 1233.04 266.163C1209.67 265.311 1171.8 244.09 1155.33 226.992C1149.57 221.016 1147.57 216.112 1154.26 210.161Z"/><path fill="white" d="M1156.07 216.069C1173.85 214.538 1228.43 244.919 1233.72 259.897C1214.21 259.491 1164.45 234.665 1156.07 216.069Z"/><path fill="#221F20" d="M1279.33 339.209C1281.22 338.99 1283.12 338.894 1285.02 338.92C1297.59 339.102 1340.58 356.051 1320.52 372.016C1304.22 373.47 1284.11 364.971 1274.41 351.34C1270.59 345.974 1274.66 341.748 1279.33 339.209Z"/><path fill="white" d="M1280.68 345.923C1291.72 344.088 1318.16 353.158 1319.15 365.975C1307.48 366.669 1284.04 357.94 1280.68 345.923Z"/><path fill="white" d="M838.736 244.825C841.398 246.805 854.058 272.826 856.997 277.472C945.396 417.221 1096.18 512.524 1253.78 555.541C1285.94 564.319 1322.94 571.326 1356.78 573.158C1350.2 600.526 1345.23 613.752 1334.36 639.895C1293.73 641.461 1252.17 633.944 1213.94 621.259C1211.35 620.399 1210.26 620.957 1208.29 622.376C1208.9 626.406 1213.84 628.78 1217.36 630.451C1250.55 646.206 1285.25 659.737 1322.34 661.473C1318.61 668.345 1315.79 672.81 1311.38 679.29L1199.68 637.021C1105.56 600.758 1012.44 561.96 920.414 520.67C903.079 512.806 885.79 504.837 868.551 496.763C840.205 483.421 835.066 479.706 811.261 459.749C780.89 434.288 759.813 410.764 734.97 380.401C738.7 369.88 746.216 355.186 751.434 345.27C769.569 395.503 825.05 437.833 871.544 461.329C874.682 462.914 879.919 466.078 883.002 465.058L883.371 463.492C881.499 459.861 873.017 455.164 869.064 452.238C821.069 416.704 781.549 374.083 771.647 313.351C793.483 284.954 809.957 266.527 838.736 244.825Z"/><path fill="white" d="M1626.8 723.63C1642.94 734.904 1662.3 752.096 1674.95 766.69C1720.42 819.144 1619.04 802.146 1597.04 797.765C1522.55 782.932 1449.71 759.899 1377.85 735.813C1157.07 662.779 942.568 571.963 736.463 464.258C656.879 422.624 576.884 379.506 501.642 330.202C457.49 300.909 408.859 272.522 373.633 232.339C351.002 206.522 378.86 197.62 400.798 198.065C414.621 198.344 425.937 198.18 439.823 200.239C436.86 201.668 435.803 202.164 432.581 203.078C405.006 205.313 391.068 219.23 412.106 243.438C445.026 281.318 489.561 309.511 531.729 336.086C611.806 385.553 694.367 430.88 779.088 471.886C947.13 554.067 1119.45 627.203 1295.3 690.981C1349.38 711.216 1404.14 729.59 1459.48 746.072C1490.48 755.399 1620.97 794.577 1647.45 771.955C1650.21 769.63 1651.86 766.245 1651.99 762.637C1652.53 749.431 1635.52 732.845 1626.8 723.63Z"/><path fill="white" d="M534.08 269.277C592.482 263.989 693.903 300.525 747.306 323.007C733.425 346.082 722.177 370.642 713.774 396.226L708.187 416.426C673.128 398.744 638.856 379.541 605.47 358.874C592.556 350.876 477.354 278.66 534.08 269.277Z"/><path fill="white" d="M1370.04 589.232C1418.96 617.261 1474.05 648.655 1515.2 687.469C1520.17 692.161 1527.64 703.102 1526.81 710.093C1524.87 726.351 1498.17 723.625 1486.75 722.889C1445.31 719.386 1369.97 697.309 1329.32 684.039C1350.91 646.082 1356.6 630.532 1370.04 589.232Z"/><path fill="white" d="M856.112 231.747C858.935 233.001 865.649 249.213 867.878 252.985C902.205 311.102 953.196 357.349 1006.92 397.363C1091.03 460.005 1185.39 508.464 1286.07 538.183C1309.71 545.161 1335.89 552.353 1360.46 554.767C1360.22 558.432 1360.22 561.015 1359.03 564.511C1356.15 566.991 1356.87 566.228 1352.16 566.27C1305.65 564.483 1239.22 546.087 1195.22 530.102C1076.36 486.914 961.717 409.987 886.016 307.552C870.761 286.91 855.413 263.34 844.508 240.139L856.112 231.747Z"/><path fill="white" d="M1481.7 627.248C1492.63 633.579 1681.41 749.789 1640.67 768.817C1611.27 782.547 1508.12 753.522 1472.52 742.997C1333.67 701.947 1196.52 648.178 1062.18 592.695C943.522 544.357 827.18 490.506 713.54 431.317C644.638 395.515 575.469 357.879 510.435 314.617C479.888 294.296 432.316 262.436 411.353 231.228C409.541 228.063 408.085 222.567 409.659 219.172C415.337 206.92 441.135 208.861 452.157 209.354C499.892 211.489 544.595 225.143 589.747 239.549C623.162 250.206 656.299 261.719 689.123 274.075L685.424 275.272C643.214 258.638 496.884 211.121 456.56 228.476C451.996 230.44 447.828 233.52 446.089 238.348C443.975 244.222 445.684 251.043 448.365 256.439C463.345 286.587 520.731 316.782 549.886 334.784C684.929 418.166 829.114 487.489 974.346 551.158C1117.46 614.79 1263.72 671.093 1412.56 719.848C1448.71 731.542 1563.05 772.328 1595.74 755.894C1600.03 753.737 1603.46 750.261 1604.95 745.631C1606.85 739.729 1605.19 733.267 1602.39 727.943C1583.87 692.831 1515.62 650.724 1480.8 629.215L1481.7 627.248Z"/><path fill="white" d="M1507.5 740.488C1527.91 744.687 1591.25 750.407 1564.22 708.279C1557.03 697.075 1542.22 687.475 1532.18 678.963C1483.58 642.174 1430.45 611.63 1377.88 580.97C1375.06 579.328 1374.3 578.233 1373.28 575.399L1374.55 573.462C1377.59 573.921 1405.42 590.523 1409.9 593.234C1472.89 631.37 1543.56 667.064 1592.62 723.122C1596.32 727.343 1600.4 736.027 1599.27 741.914C1594.16 762.107 1547.1 750.888 1533.18 748.148C1525.04 746.499 1516.93 744.702 1508.85 742.759L1507.5 740.488Z"/><path fill="white" d="M468.606 231.178C495.98 229.962 547.257 239.394 573.916 246.613C595.095 252.348 749.387 297.966 757.522 310.855C749.689 310.666 682.776 285.204 670.189 280.884C621.258 265.457 560.504 244.654 509.111 241.858C502.798 241.602 489.704 244.001 485.711 249.323C470.14 270.078 509.897 299.991 521.538 311.145C505.881 301.643 413.224 243.728 468.606 231.178Z"/><path fill="white" d="M1186.6 395.852C1191.29 396.229 1223.65 411.526 1231.02 414.413C1273.3 430.983 1316.31 444.947 1362 446.643L1364.35 465.33C1308.89 459.129 1233.84 424.161 1186.6 395.852Z"/><path fill="white" d="M1516.05 679.364L1517.15 676.256C1529.77 685.121 1575.41 715.168 1562.22 730.02C1546.95 747.201 1461.87 729.746 1445.6 723.382C1466.38 726.58 1485.86 730.723 1507.46 729.368C1530.81 727.903 1540.24 709.77 1525.94 690.524C1523.12 686.743 1519.38 682.831 1516.05 679.364Z"/><path fill="white" d="M732.295 386.876C734.473 388.736 745.793 403.704 748.42 406.957C754.217 414.136 759.342 419.597 765.759 426.308C774.457 435.274 783.409 443.99 792.604 452.445C796.621 456.097 806.028 463.587 808.781 467.218C806.55 467.763 804.421 466.135 801.839 464.937L721.719 424.04C724.721 409.413 726.88 400.736 732.295 386.876Z"/><path fill="white" d="M527.534 308.989C501.867 287.206 453.888 239.516 528.066 251.131C545.286 253.827 562.921 257.99 579.777 262.478L575.736 264.483C560.965 262.675 516.105 255.842 511.908 277.945C510.225 286.803 521.764 301.023 528.374 306.76L527.534 308.989Z"/><path fill="white" d="M765.318 322.61C765.242 322.531 777.817 357.815 777.822 357.731C777.191 369.476 826.291 426.632 826.178 425.742L823.397 423.913C793.124 399.585 767.201 374.677 756.439 336.879L765.318 322.61Z"/><path fill="white" d="M1080.08 174.966C1086.97 175.885 1093.12 176.955 1099.96 178.243C1116.45 205.397 1126.81 219.488 1151.57 239.438C1130.18 235.828 1091.55 193.046 1080.08 174.966Z"/><path fill="white" d="M1286.75 379.413C1309.88 383.509 1321.4 386.1 1344.53 380.308L1349.85 394.902C1326.06 393.912 1306.54 390.281 1284.19 381.505L1286.75 379.413Z"/><path fill="white" d="M1253.45 639.125C1269.74 639.641 1290.61 646.694 1307.7 646.675C1314.49 646.668 1322.8 646.272 1329.27 646.897C1330.02 649.437 1328.87 650.74 1327.75 653.738C1318.51 660.412 1263.98 643.485 1253.45 639.125Z"/><path fill="#CECFCE" d="M1480.8 629.215C1474.5 626.01 1450.32 611.26 1443.54 606.983C1427.8 597.035 1395.74 581.105 1382.71 570.909C1393.96 575.448 1416.69 588.684 1427.92 595.221C1446.04 605.568 1463.97 616.246 1481.7 627.248L1480.8 629.215Z"/><path fill="#9B9A9A" d="M689.123 274.075C702.903 278.864 733.387 290.793 745.497 297.854C727.046 290.071 704.487 281.933 685.424 275.272L689.123 274.075Z"/><path fill="#CECFCE" d="M439.823 200.239C445.76 200.778 450.832 201.416 456.726 202.305L457.047 204.235C448.533 202.887 441.148 203.045 432.581 203.078C435.803 202.164 436.86 201.668 439.823 200.239Z"/><path fill="#CECFCE" d="M1516.05 679.364C1512.49 675.893 1502.93 668.209 1500.6 664.784C1506.86 668.761 1511.31 671.712 1517.15 676.256L1516.05 679.364Z"/><path fill="#CECFCE" d="M579.777 262.478C585.81 264.087 590.199 265.266 596.055 267.509C589.782 267.201 582.066 265.608 575.736 264.483L579.777 262.478Z"/><path fill="#7F7D7D" d="M1508.85 742.759C1505.21 742.5 1496.79 740.752 1493.76 738.645L1494.59 738.066L1494.42 739.322L1495.65 738.089C1497.87 738.26 1504.97 739.948 1507.5 740.488L1508.85 742.759Z"/><path fill="#CECFCE" d="M1284.19 381.505C1279.21 379.771 1276.3 378.276 1271.67 375.924C1276.9 376.959 1281.6 378.116 1286.75 379.413L1284.19 381.505Z"/><path fill="#9B9A9A" d="M528.374 306.76C532.227 310.673 536.105 314.519 539.721 318.654C534.573 315.194 531.826 313.556 527.534 308.989L528.374 306.76Z"/><path fill="#7F7D7D" d="M456.726 202.305C463.12 203.145 465.101 203.821 471.072 205.884C467.136 205.45 460.75 204.948 457.047 204.235L456.726 202.305Z"/><path fill="#221F20" d="M169.614 79.3952C296.82 73.1088 583.45 178.607 708.274 228.072C726.234 235.189 760.84 249.296 777.764 259.567C779.447 260.589 779.748 262.304 779.751 264.148C775.466 265.965 766.008 261.649 761.669 259.801C630.813 204.052 495.99 155.272 358.697 118.039C319.874 107.266 279.006 99.5682 239.807 92.6124C159.955 78.4432 76.2598 86.2249 165.935 177.275C224.928 237.172 295.94 283.581 367.155 327.655C457.508 383.448 550.403 435.016 645.541 482.191C932.887 630.855 1231.24 757.204 1537.96 860.12C1614.03 885.118 1693.78 909.195 1772.21 925.012C2088.84 988.874 1819.06 790.15 1724.29 726.456C1652.01 677.948 1577.73 632.508 1501.63 590.257C1485.79 581.179 1469.86 572.25 1453.84 563.473C1436.36 554.099 1413.14 543.2 1396.47 531.769C1394.46 530.386 1394.72 528.84 1394.77 526.945L1396.6 525.254C1401.65 524.544 1464.09 559.945 1474.28 565.546C1564.39 614.39 1652.09 667.552 1737.07 724.847C1767.75 745.859 2006.48 906.317 1903.77 941.946C1787.19 969.764 1377.99 815.797 1250.67 766.129C1193.42 810.468 1130.77 836.186 1058.1 840.561C966.745 846.204 876.858 815.561 807.975 755.294C735.497 691.026 698.959 612.579 693.158 516.702C673.137 505.437 653.824 496.303 633.482 485.831C607.658 500.823 576.508 522.537 551.58 539.479C487.133 583.036 425.155 630.138 365.931 680.568C320.415 719.047 275.84 759.426 235.537 803.379C214.969 825.809 192.737 849.964 179.814 877.775C176.332 885.268 172.463 895.383 175.615 903.544C177.492 908.403 181.579 911.663 186.258 913.684C258.091 944.7 587.426 805.365 666.546 772.149C693.931 760.652 720.866 747.568 748.505 736.754C752.815 735.067 758.11 732.692 762.525 734.635L762.589 737.147C760.665 740.368 745.273 745.738 740.929 747.65C722.067 756.024 703.151 764.274 684.181 772.398C588.605 813.574 284.198 941.748 193.668 923.176C185.091 921.416 175.652 917.881 170.745 910.159C166.662 903.734 166.837 895.98 168.497 888.801C174.913 861.066 201.252 831.347 219.897 810.04C256.413 768.311 297.564 730.264 339.35 693.905C429.204 616.027 525.038 545.331 625.968 482.467C600.641 467.263 566.076 451.815 539.377 437.094C431.237 377.468 322.321 315.293 224.178 239.88C187.736 208.313 130.361 167.101 119.764 117.841C113.73 89.7946 148.478 81.5493 169.614 79.3952Z"/><path fill="white" d="M708.721 525.17C725.682 532.024 748.162 544.701 765.017 553.189C791.878 566.489 818.916 579.429 846.123 592.006C945.794 638.858 1046.75 682.923 1148.88 724.151C1177.14 735.612 1206.71 748.566 1235.06 759.156C1226.43 766.122 1216.8 772.458 1207.46 778.431C1149.11 781.168 1070.95 749.415 1019.85 721.904C1015.58 719.353 1006.59 712.383 1002.6 715.847L1003.16 718.221C1006.86 722.854 1018.09 731.528 1023.12 735.348C1063 765.66 1112.19 792.943 1161.45 802.91C1086.62 834.094 1004 834.013 927.847 807.79C907.212 748.83 816.879 707.489 763.519 683.217C730.544 634.225 711.68 584.791 708.721 525.17Z"/><path fill="white" d="M772.395 695.573C780.4 697.876 799.702 707.737 807.401 711.766C855.254 736.804 890.953 757.738 920.096 804.57C912.233 803.458 896.813 796.134 889.77 792.606C843.73 769.679 803.572 736.481 772.395 695.573Z"/><path fill="white" d="M1047.57 744.768C1052.95 745.291 1072.74 754.786 1079.82 757.366C1121.68 772.635 1151.07 782.847 1196.02 785.094L1186.86 789.996L1172.6 798.022C1123.22 789.067 1088.9 772.087 1047.57 744.768Z"/><path fill="#221F20" d="M243.588 109.354C285.499 104.527 371.7 127.503 413.277 139.525C510.108 167.523 607.531 203.495 701.069 241.107C710.703 244.981 747.915 258.007 751.753 264.906L750.557 266.32C745.452 268.003 717.34 254.914 710.785 252.133C696.244 246.055 681.617 240.185 666.907 234.528C641.315 224.497 615.901 215.156 590.117 205.77C520.149 180.297 449.608 155.877 377.546 136.939C340.414 127.59 303.911 118.091 265.713 116.157C191.71 112.409 175.093 148.802 227.313 201.216C251.328 225.321 277.362 244.278 304.92 264.674C360.495 305.805 418.682 340.876 478.389 375.437C807.567 561.622 1153.95 715.596 1512.72 835.218C1589.19 860.069 1667.21 883.654 1746.95 896.051C1773.18 899.417 1824.47 911.625 1845.54 890.471C1869.93 865.99 1816.61 815.338 1800.44 800.741C1762.45 766.994 1724.48 741.075 1682.38 713.015C1624.27 674.015 1564.51 637.527 1503.27 603.65C1492 597.32 1415.19 557.065 1411.97 550.766L1412.61 549.148C1412.91 549.061 1413.22 548.974 1413.52 548.887C1425.65 550.58 1455.81 569.771 1465.67 575.207C1560.92 627.719 1655.11 683.235 1743.42 746.962C1780.03 773.382 1848.75 823.067 1857.42 869.561C1858.78 876.938 1857.14 886.29 1852.15 892.171C1831 917.089 1783.8 908.65 1756.47 904.558C1679.49 893.033 1603.9 871.518 1530.08 847.673C1244.96 753.428 967.404 637.681 699.802 501.429C626.979 465.407 555.298 427.12 484.865 386.625C405.623 341.345 327.36 293.443 256.388 235.383C230.769 214.424 171.323 166.763 198.402 127.604C207.124 114.992 229.026 111.038 243.588 109.354Z"/><path fill="#221F20" d="M279.523 130.386C353.289 122.959 566.498 199.944 641.6 228.74C661.53 236.382 686.757 245.257 706.834 253.519C709.521 254.625 713.44 256.741 714.483 259.703C711.377 261.402 704.611 259.23 701.28 257.974C681.964 250.691 662.865 243.109 643.458 236.043C558.007 205.18 474.238 173.288 385.49 152.227C352.636 144.431 272.795 123.654 244.107 149.828C225.783 166.545 258.656 201.992 272.363 214.385C344.795 279.87 430.234 330.841 514.577 379.565C739.898 507.43 974.332 618.523 1215.98 711.94C1302.68 745.828 1388.82 779.794 1478.32 808.209C1570.58 837.499 1672.17 874.178 1769.99 877.114C1784.01 877.535 1812 871.066 1809.14 852.647C1805.39 828.554 1775.75 800.69 1758.28 784.698C1744.54 771.757 1723.8 756.278 1708.61 745.09C1651.42 702.983 1589.91 666.588 1528.83 630.643C1505.36 616.827 1447.54 586.264 1429.23 569.625C1459.33 582.859 1487.97 599.767 1516.56 615.917C1574.19 648.474 1632.21 682.969 1686.37 721.048C1718.95 743.952 1808.29 807.758 1814.94 848.86C1816.09 855.981 1814.63 863.269 1810.23 869.059C1803.2 878.28 1790.97 881.812 1779.93 883.23C1714.46 891.643 1559.2 842.073 1492.06 819.918C1196.61 721.496 909.752 598.932 634.4 453.467C585.399 427.621 537.044 400.569 489.379 372.335C426.59 335.656 364.802 298.071 307.485 253.033C287.386 236.292 264.941 219.828 248.802 199.052C218.6 160.172 233.154 134.554 279.523 130.386Z"/><path fill="#221F20" d="M1622.19 118.67C1643.81 117.486 1664.4 128.008 1676.11 146.223C1687.82 164.439 1688.85 187.541 1678.79 206.721C1668.74 225.901 1649.16 238.203 1627.52 238.936C1594.53 240.053 1566.8 214.408 1565.34 181.44C1563.88 148.472 1589.24 120.474 1622.19 118.67Z"/><path fill="white" d="M1618.63 131.29C1642.37 128.059 1656.13 136.482 1669.38 155.15C1654.28 156.54 1645.31 157.515 1631.37 163.362C1640.08 163.094 1666.04 160.203 1672.59 163.103L1673.05 164.538C1670.87 166.429 1668.63 165.983 1665.62 166.25C1646.8 167.925 1630.94 172.205 1614.13 180.93C1637.63 176.781 1651.15 174.743 1675.27 172.844C1673.79 202.626 1659.05 195.868 1635.37 202.878C1652.12 204.971 1652.19 201.775 1667.21 201.273L1668.19 202.194L1666.82 204.775C1659.52 209.898 1641 207.854 1631.68 207.335L1631.51 207.896L1632.33 209.106C1640.6 212.47 1649.62 213.06 1658.44 213.797C1647.24 222.628 1637.14 228.125 1622.14 227.603C1609.19 227.174 1596.95 221.6 1588.12 212.115C1577.6 200.735 1574.56 187.447 1575.1 172.487C1600.73 159.323 1601.51 163.192 1625.42 158.723L1625.64 157.642C1613.07 150.743 1585.36 161.472 1580.49 158.619C1580.72 146.435 1619.7 142.644 1628.92 141.096C1614.29 137.846 1608.1 138.338 1593.71 141.336C1602.4 136.792 1609.34 134.253 1618.63 131.29Z"/><path fill="#221F20" d="M1776.53 113.417C1792.17 111.671 1815.86 111.649 1829.92 119.346C1834.83 122.035 1838.78 126.003 1840.31 131.505C1842.79 140.496 1838.6 150.334 1834.26 158.11C1789.69 237.854 1558.94 377.152 1474.68 426.834C1456.59 437.501 1413.94 465.1 1396.77 470.001L1395.18 468.471C1400.18 459.809 1439.73 438.971 1450.47 432.82C1484.82 413.302 1521.16 390.234 1555.13 369.215C1625.99 324.962 1694.55 280.578 1759.03 226.824C1773.85 214.114 1850.78 149.145 1830.24 129.086C1809.3 108.634 1720.83 128.079 1692.45 134.554C1690.48 135.003 1687.92 133.12 1686.94 131.995L1688.15 130.359C1704.53 121.795 1756.82 114.895 1776.53 113.417Z"/><path fill="#221F20" d="M1851.12 394.375C1853.11 395.334 1854.64 395.584 1855.21 397.832C1863.69 431.053 1849.37 488.946 1896.16 497.13C1900.69 497.923 1915.23 498.305 1917.27 501.801C1913.82 505.458 1892.2 506.706 1884.65 512.238C1859.65 530.56 1857.67 562.54 1856.95 590.906C1856.77 598.08 1857.79 611.288 1856.44 616.68C1854.02 619.741 1855.28 619.048 1851.81 619.544C1848.8 605.5 1851.08 583.864 1849.27 568.224C1846.57 544.777 1837.55 518.355 1811.65 511.642C1805.34 510.005 1789.16 511.037 1784.1 506.987C1787.83 501.316 1830.32 500.387 1841.52 484.428C1856.79 462.679 1842.81 410.335 1851.12 394.375Z"/><path fill="white" d="M1854.4 458.214C1862.97 481.676 1861.59 492.68 1889.92 502.174C1873.72 510.729 1864.83 520.604 1858.28 537.879C1856.49 542.588 1855.53 547.573 1853.65 552.15L1852.98 551.446C1846.67 528.279 1835.77 514.458 1813.04 505.883C1843.79 497.018 1851.11 490.317 1854.4 458.214Z"/><path fill="#221F20" d="M666.477 526.877C669.717 527.147 668.932 526.584 670.711 528.449C670.317 530.983 669.701 532.951 667.352 534.55C653.434 544.024 639.005 553.823 625.29 563.453C599.312 581.939 573.934 601.254 549.195 621.367C522.997 642.914 449.968 706.09 447.194 739.969C446.814 744.617 447.936 748.995 451 752.572C478.097 784.204 634.938 729.549 669.167 716.582C678.975 712.865 729.421 690.985 733.957 691.336C736.612 693.609 735.827 692.885 736.732 696.856C674.741 722.742 529.537 781.301 463.967 766.538C456.104 764.768 448.112 761.124 443.758 754.007C439.939 747.765 439.63 740.39 441.319 733.426C455.814 673.647 612.558 560.158 666.477 526.877Z"/><path fill="#221F20" d="M197.549 325.376C198.527 325.616 199.647 325.89 200.909 326.2C206.234 335.497 201.908 355.187 207.917 364.109C215.354 367.66 216.541 354.427 223.52 358.662C223.438 364.624 216.113 366.798 218.389 373.275C228.06 380.145 269.565 368.682 274.355 377.204C267.853 383.111 235.723 381.401 225.448 389.77C222.602 397.8 228.645 399.904 229.463 407.676L228.122 408.733C224.592 408.189 222.477 404.408 217.777 401.698C204.062 401.434 207.128 438.488 206.65 448.75C205.835 448.764 204.39 448.521 203.524 448.408C199.257 442.667 198.856 415.025 194.844 407.567C191.768 401.848 187.703 408.162 181.147 406.472C178.729 403.035 182.333 402.706 181.548 396.476C174.775 386.054 130.479 397.083 123.59 393.123L123.647 391.1C133.845 383.56 180.926 384.141 183.109 373.373C181.233 369.671 179.702 366.675 180.179 362.507C183.68 361.937 183.731 367.198 189.434 368.879C198.622 364.123 193.664 335.764 197.549 325.376Z"/><path fill="white" d="M200.196 361.038C203.391 369.188 202.079 369.352 210.701 370.694C213.068 374.431 212.51 372.882 212.472 377.403C214.859 380.295 214.753 379.55 218.941 380.882L219.624 383.391C215.872 387.609 219.91 390.02 218.122 395.142C206.065 398.263 205.527 401.845 202.44 412.935C201.306 408.185 200.113 402.143 196.287 398.909C194.083 398.869 193.157 398.97 190.972 399.29C183.198 392.463 196.74 390.333 171.613 386.658C173.244 386.207 184.073 384.053 184.48 383.335C188.271 376.639 190.855 374.392 197.015 370.928C197.463 370.676 199.736 362.668 200.196 361.038Z"/><path fill="#CECFCE" d="M218.941 380.882C221.996 380.619 223.408 380.344 226.448 381.152L226.765 382.229C223.574 383.371 222.906 383.334 219.624 383.391L218.941 380.882Z"/><path fill="#221F20" d="M1439.73 267.386C1450.64 265.774 1471.02 265.891 1480.91 271.202C1489.83 275.99 1491.64 279.602 1494.47 288.488C1487.97 326.689 1438.09 357.913 1409.24 381.264C1403.93 385.561 1391.73 394.682 1385.72 396.602C1382.98 396.138 1383.95 396.663 1382.06 394.64C1382.57 392.188 1383.41 390.701 1385.65 389.204C1408.28 374.082 1429.6 357.473 1450.21 339.776C1458.09 333.65 1477.6 312.578 1481.3 305.68C1515.31 242.336 1361.37 290.807 1341.13 297.558C1338.25 298.519 1333.72 298.039 1331.19 296.566L1331.44 295.139C1344.95 284.705 1420.16 269.565 1439.73 267.386Z"/><path fill="#221F20" d="M1544.55 163.137C1547.82 162.606 1548.64 162.952 1550.18 165.524L1549.35 167.621C1546.28 170.262 1495.03 183.102 1486.43 185.508C1425 202.49 1364.22 221.77 1304.23 243.307C1302.87 243.771 1301.67 243.605 1300.23 243.561L1298.81 241.971L1299.16 239.82C1308.19 227.437 1514.43 170.781 1544.55 163.137Z"/><path fill="#221F20" d="M880.727 904.406C888.196 910.481 881.997 919.452 902.044 933.801C896.966 935.93 891.912 938.115 886.882 940.356C880.732 949.499 879.939 958.607 876.3 969.496C874.839 964.806 873.705 958.116 872.716 953.167C869.299 936.723 849.855 937.973 846.711 924.581L847.829 923.569C852.471 923.817 854.636 927.838 858.542 928.486C872.762 930.846 878.598 914.937 880.727 904.406Z"/><path fill="white" d="M881.875 924.369C892.284 934.652 883.04 931.798 877.113 942.638L876.907 943.02C873.796 938.386 872.522 937.502 868.1 933.976C874.047 931.07 877.369 929.233 881.875 924.369Z"/><path fill="#221F20" d="M307.717 518.252C313.268 522.619 313.403 531.874 317.251 537.708C318.653 539.833 324.994 544.334 327.683 547.002C326.516 549.139 316.607 554.209 313.369 556.745C306.58 562.061 308.463 575.585 302.253 579.654C300.257 577.425 300.784 577.435 300.276 574.18C298.496 550.354 280.831 551.166 275.036 540.044C278.879 535.357 303.835 555.102 307.717 518.252Z"/><path fill="white" d="M308.352 538.723C309.878 539.497 311.622 541.21 312.982 542.392C314.958 548.182 308.127 550.475 303.662 559.586C301.741 554.952 299.88 553.887 297.857 549.091C299.227 545.781 304.254 543.084 308.352 538.723Z"/><path fill="#221F20" d="M1548.23 465.125C1553.96 467.238 1553.76 474.656 1558.41 482.554C1562.76 484.731 1566.4 485.863 1568.54 489.881C1565.4 494.176 1556.41 492.655 1550.99 500.989C1546.54 507.815 1548.47 517.778 1543.94 522.363L1542.18 521.825L1541.31 519.854C1539.92 491.518 1520.4 498.206 1516.76 485.683C1520.78 483.223 1533.57 485.592 1539.02 482.533C1545 479.179 1546.44 471.397 1548.23 465.125Z"/><path fill="white" d="M1548.88 480.761C1550.55 483.344 1552.28 485.886 1554.08 488.382C1550.25 491.746 1546.77 496.207 1543.47 500.153L1541.75 499.436C1539.31 494.634 1542.87 498.306 1539.43 490.435C1545.47 486.499 1547.01 491.871 1548.88 480.761Z"/><path fill="#221F20" d="M1383.25 61.2796C1388.3 62.9908 1388.56 76.3188 1392.05 80.0285C1394.99 83.1552 1400.23 84.942 1403.74 88.517C1401.67 90.7378 1391.96 95.6895 1388.05 98.3748C1383.96 106.559 1382.28 114.548 1380.21 123.384C1377.98 118.059 1377.14 113.808 1375.83 108.227C1374.94 105.093 1373.84 101.801 1372.85 98.6762C1367.89 95.0685 1352.96 87.5912 1351.13 81.9268L1352.63 81.003C1357.21 81.5526 1360.67 83.3852 1364.85 85.2624C1378.4 80.0836 1380.06 74.654 1383.25 61.2796Z"/><path fill="white" d="M1384.53 81.1256C1385.82 83.3689 1388.63 87.2046 1390.18 89.4834C1386.09 91.9647 1383.43 93.1756 1381.02 97.3751C1379.7 93.7272 1378.16 92.5424 1375.41 89.818L1376.13 89.8824L1378.13 87.9305L1376.38 89.0048C1380.64 86.0219 1381.43 85.2913 1384.53 81.1256Z"/><path fill="#221F20" d="M1702.41 553.503C1707.59 556.589 1707.43 566.782 1711.07 571.735C1713.16 574.589 1720.18 578.041 1721.48 581.262C1717.41 584.987 1712.23 582.351 1707.42 587.873C1703.26 592.645 1701 606.069 1696.86 608.188C1694.29 605.243 1694.99 605.084 1694.22 600.602C1692.07 586.765 1676.68 583.691 1666.04 572.046C1689.08 576.056 1696.32 581.15 1702.41 553.503Z"/><path fill="white" d="M1703.31 572.057C1705.61 572.682 1707.07 575.004 1707.52 577.257C1706.53 580.504 1700.21 587.083 1697.46 590.543C1695.92 587.622 1693.72 586.976 1693.28 583.905L1697.83 583.465C1697.77 581.839 1697.44 581.494 1696.66 580.1L1696.39 579.641C1699.34 577.023 1700.52 575.975 1702.81 572.756L1703.31 572.057Z"/><path fill="#221F20" d="M660.616 851.661C666.941 849.873 673.528 853.507 675.387 859.812C677.246 866.117 673.685 872.743 667.402 874.673C663.274 875.941 658.783 874.893 655.643 871.928C652.503 868.964 651.199 864.54 652.228 860.346C653.257 856.153 656.461 852.835 660.616 851.661Z"/><path fill="white" d="M660.908 859.439C662.315 858.359 664.199 858.133 665.822 858.85C667.445 859.566 668.547 861.111 668.697 862.879C668.847 864.646 668.021 866.355 666.542 867.334C664.362 868.779 661.43 868.236 659.912 866.108C658.393 863.979 658.833 861.03 660.908 859.439Z"/><path fill="#221F20" d="M190.134 629.588C196.528 628.218 202.836 632.24 204.293 638.615C205.749 644.99 201.813 651.352 195.458 652.894C191.271 653.911 186.86 652.595 183.914 649.45C180.967 646.304 179.942 641.817 181.23 637.704C182.518 633.592 185.92 630.491 190.134 629.588Z"/><path fill="white" d="M190.725 636.464C192.514 635.788 194.531 636.176 195.942 637.467C197.353 638.758 197.917 640.733 197.402 642.574C196.886 644.416 195.378 645.811 193.502 646.182C190.915 646.693 188.368 645.136 187.643 642.601C186.919 640.065 188.258 637.397 190.725 636.464Z"/><path fill="#221F20" d="M1578.7 925.595C1582.66 923.947 1587.2 924.567 1590.58 927.218C1593.95 929.868 1595.63 934.134 1594.97 938.374C1594.31 942.614 1591.41 946.166 1587.39 947.662C1581.33 949.916 1574.59 946.905 1572.22 940.892C1569.85 934.879 1572.73 928.077 1578.7 925.595Z"/><path fill="white" d="M1579.21 932.945C1581.32 930.941 1584.63 930.932 1586.75 932.923C1588.87 934.915 1589.07 938.215 1587.2 940.448C1585.9 942.011 1583.83 942.722 1581.84 942.295C1579.85 941.869 1578.26 940.374 1577.7 938.413C1577.15 936.453 1577.73 934.347 1579.21 932.945Z"/><path fill="#221F20" d="M821.147 112.305C825.153 111.035 829.533 112.042 832.584 114.932C835.635 117.823 836.876 122.142 835.825 126.211C834.774 130.28 831.596 133.458 827.527 134.509C821.465 136.074 815.259 132.528 813.531 126.512C811.802 120.495 815.179 114.195 821.147 112.305Z"/><path fill="white" d="M822.511 119.167C824.053 118.377 825.902 118.486 827.34 119.452C828.779 120.418 829.58 122.088 829.432 123.814C829.285 125.54 828.213 127.051 826.632 127.759C824.274 128.816 821.503 127.801 820.385 125.471C819.268 123.141 820.21 120.344 822.511 119.167Z"/></svg>