<?xml version="1.0" encoding="utf-8" ?><svg xmlns="http://www.w3.org/2000/svg" xmlns:xlink="http://www.w3.org/1999/xlink" width="2048" height="1024" viewBox="0 0 2048 1024"><path d="M72.8772 33.0768L1348.88 33.5583L1751.61 33.3449C1823.23 33.3718 1895.45 33.2143 1967.11 34.0212C1969.78 34.0512 1971.53 33.7803 1973.59 35.3935C1973.64 38.6007 1973.41 39.971 1975.3 42.6586C1978.19 45.088 1982.59 44.3338 1986.51 44.1753L1986.74 978.978C1983.26 978.618 1979.71 977.959 1976.37 978.844C1973.95 981.922 1974.59 982.808 1974.03 987.352C1957.73 989.358 1927.88 987.296 1910.05 987.11L1801.6 986.489L1504.5 985.779L434.844 986.232L189.058 987.015L116.578 987.674C108.484 987.779 77.5679 989.695 72.9721 985.921C72.262 982.951 72.1568 982.268 70.5116 979.588C67.7778 977.498 63.2298 978.369 59.6047 978.618C59.904 906.323 59.6862 834.027 58.9511 761.735L59.1067 338.007L59.4535 149.79C59.5148 116.163 58.3952 77.6272 59.9554 44.342C63.4454 44.4954 66.6952 44.8139 70.1204 44.1288C72.3442 41.2329 72.0762 37.4048 72.8772 33.0768Z"/><path fill="#FDFDFD" d="M76.3328 37.7511L1355.66 38.1733L1763.91 38.4602C1830.9 38.5181 1901.94 36.5922 1968.64 38.5471C1970.59 40.9303 1969.58 44.0647 1970.29 48.4016C1972.27 49.7155 1979.05 49.2941 1981.88 49.2935L1981.86 149.156C1973.59 147.929 1965.82 146.359 1957.64 144.711C1963.89 124.455 1975.81 76.8121 1977.56 56.1535C1973.36 56.1731 1968.26 56.7531 1964.91 54.492C1962.44 51.0075 1963.14 52.2005 1962.69 47.6651C1960.39 45.4349 1840.97 46.6063 1826.69 46.7552C1827.1 54.1526 1828.76 62.5385 1830.55 69.721C1848.3 141.104 1909.12 189.504 1981.56 196.552L1981.77 826.394C1899.68 834.882 1836.79 893.172 1823.4 974.69C1860.6 976.687 1899.81 973.168 1937.28 975.768C1943.58 976.204 1955.21 976.728 1961.2 975.406C1965.11 967.238 1970.24 967.488 1978.25 966.034C1976.16 944.544 1963.79 901.63 1957.71 878.889C1966.77 876.74 1972.28 875.677 1981.5 874.565L1981.95 973.381C1978.58 973.265 1974.3 972.772 1971.32 974.098C1969.25 976.567 1969.63 979.545 1969.5 982.965C1949.99 983.467 1927.07 982.56 1907.13 982.42L1786.41 981.67L1523.5 981.129L445.462 981.121C411.758 981.225 80.9306 983.915 77.6734 982.25C76.5817 978.568 76.4459 977.724 74.0416 974.654C71.2857 972.683 67.5098 973.33 63.9672 973.481C64.4882 940.543 64.1928 906.835 64.2544 873.856C71.899 875.033 79.3001 876.546 86.8829 878.065C83.5352 892.626 65.1069 955.045 68.9751 965.189C75.4872 966.632 77.1379 970.699 81.2954 976.285L220.649 973.971C214.835 931.573 192.992 892.808 160.064 866.226C128.361 840.632 103.088 831.673 63.7749 826.798L63.3424 422.63C63.3426 348.047 62.3681 270.875 63.9474 196.521C93.7538 194.691 125.059 182.352 149.027 164.763C187.61 136.702 213.233 94.2555 220.09 47.0427C202.857 46.9977 86.8805 44.6697 81.0228 46.6705C78.0266 53.8428 75.0337 54.0535 67.6699 58.1294C72.5306 88.6824 77.9046 115.04 86.9551 144.684C79.2034 146.775 71.9822 148.101 64.0897 149.594L63.8287 48.9151C67.152 49.0462 72.2099 49.6373 74.9597 48.163C77.0089 44.5355 76.3047 42.2876 76.3328 37.7511Z"/><path d="M1813.63 45.49C1817.41 46.1163 1817.56 46.4516 1818.48 50.5027C1821.12 62.003 1823.12 72.7283 1827 83.9298C1833.6 103.585 1843.56 121.945 1856.44 138.192C1884.39 173.011 1925.06 197.431 1969.75 202.394C1968.92 300.793 1968.88 399.197 1969.63 497.596L1969.91 819.497C1899.08 833.894 1842.73 878.419 1820.69 948.713C1817.99 957.316 1817.29 968.546 1813.78 976.499L1811.69 976.568L1809.14 973.558C1805.52 972.667 1783.42 973.141 1778.41 973.171L1722.09 973.217L1447.46 973.002L236.364 974.106C234.185 974.993 233.902 974.977 231.531 975.213C227.821 972.18 225.781 955.884 224.085 950.213C208.598 898.448 170.99 855.384 121.286 833.913C105.975 827.299 90.6296 823.356 74.2516 819.42L74.9204 203.325C152.823 190.426 210.346 130.87 228.2 55.1493C228.919 52.101 229.66 49.053 230.37 46.0011L1813.63 45.49Z"/><path fill="#FDFDFD" d="M1561.16 50.4981L1812.5 50.3346C1816.05 78.6603 1826.17 105.765 1842.05 129.488C1871.41 173.444 1911.7 198.339 1962.87 208.562L1963.41 643.68C1918.16 624.309 1823.68 609.228 1775.27 603.707C1627.98 586.91 1466.23 599.177 1321.64 632.685C1280.33 642.574 1239.16 653.084 1198.16 664.213C1174.84 670.296 1143.86 679.426 1120.63 682.556C1030.68 694.678 940.015 692.574 850.163 680.686C779.379 671.321 710.123 655.34 639.467 645.318C601.97 640.365 564.209 637.679 526.389 637.276C511.994 637.066 490.539 638.679 477.466 637.603C468.203 636.841 443.399 629.597 432.764 627.253C406.257 621.421 379.542 616.577 352.674 612.732C352.808 603.873 352.111 576.208 355.438 569.589C368.861 542.879 404.175 505.191 432.132 493.642C449.939 486.286 474.712 491.487 490.253 501.776C500.344 508.25 509.253 517.083 520.518 521.576C552.201 534.21 586.345 522.085 599.547 490.268C627.077 493.064 655.395 483.97 652.017 450.793C653.376 450.266 654.71 449.677 656.016 449.03C674.059 440.048 684.501 419.449 682.977 399.218C683.025 397.296 678.957 385.334 679.515 384.428C687.202 371.967 691.529 360.446 684.146 346.105C679.23 336.557 670.743 330.854 659.807 327.399C659.516 323.684 659.167 320.367 658.302 316.726C655.14 303.716 646.96 292.486 635.546 285.488C622.579 277.707 610.17 277.621 596.074 281.047C591.645 268.913 589.733 266.545 581.324 256.64C581.813 255.371 582.286 254.095 582.743 252.814C587.286 240.166 587.065 232.342 581.374 220.322C571.278 202.789 554.749 198.797 536.245 197.562C535.967 186.233 534.554 177.119 528.776 167.017C522.064 155.217 510.915 146.588 497.809 143.05C483.487 139.272 469.802 141.935 457.205 149.294L456.52 148.028C435.937 110.447 393.948 104.661 358.391 124.424C357.833 122.986 357.225 121.568 356.57 120.172C337.94 80.8285 278.723 83.6624 254.097 114.859C248.502 121.946 246.463 126.924 243.615 135.284C214.483 150.401 214.101 177.305 235.308 200.18C208.671 208.326 198.302 223.759 192.232 249.325C144.948 258.638 161.312 292.752 157.968 295.947C153.402 300.309 136.519 294.701 123.965 311.919C117.288 321.076 115.644 333.582 117.351 344.573C119.535 358.64 127.066 368.004 138.193 376.186C115.866 393.186 105.762 435.85 120.978 459.961C127.687 470.593 134.648 476.52 144.683 483.805L144.716 484.627C145.597 503.62 156.299 516.466 173.095 524.713C201.272 538.549 230.956 535.446 259.917 525.679C268.025 536.647 285.072 562.726 285.756 575.687C286.171 583.557 285.186 600.61 284.743 609.109C246.113 607.952 221.605 608.749 183.568 613.675C177.547 607.017 171.458 599.642 165.595 592.786L174.914 615.877C137.957 622.503 115.508 629.837 80.8369 642.245L81.0788 208.762C157.024 196.478 223.068 126.439 234.849 51.1018L1561.16 50.4981Z"/><path d="M1275.86 149.162C1402.61 142.165 1511.01 239.315 1517.89 366.078C1524.77 492.841 1427.51 601.147 1300.74 607.903C1174.14 614.649 1066.02 517.555 1059.15 390.963C1052.28 264.371 1149.27 156.15 1275.86 149.162Z"/><path fill="#FDFDFD" d="M1269.19 155.479C1392.7 144.736 1501.4 236.481 1511.55 360.044C1521.7 483.606 1429.44 591.864 1305.83 601.427C1183.05 610.925 1075.68 519.418 1065.6 396.687C1055.51 273.956 1146.51 166.149 1269.19 155.479Z"/><path d="M1276.12 167.633C1392.37 160.885 1492.16 249.483 1499.22 365.715C1506.28 481.947 1417.95 581.971 1301.73 589.342C1185.08 596.74 1084.59 508.001 1077.51 391.328C1070.42 274.656 1159.43 174.407 1276.12 167.633Z"/><path fill="#FDFDFD" d="M1280.66 175.428C1332.22 172.477 1387.6 192.485 1426.96 225.532C1468.24 259.78 1494.03 309.18 1498.53 362.629C1502.86 412.921 1485.42 467.721 1452.62 506.023C1410.56 555.128 1360.51 576.481 1297.41 581.785C1242.6 583.102 1190.84 567.19 1149.1 530.869C1107.49 495.294 1081.84 444.554 1077.86 389.955C1074.22 338.623 1091.32 287.975 1125.33 249.351C1166.4 202.579 1219.23 179.302 1280.66 175.428Z"/><path d="M1261.89 474.176C1271.02 473.301 1278.84 474.518 1286.89 479.247C1295.51 484.263 1301.73 492.565 1304.11 502.25C1307.22 514.794 1304 523.407 1297.74 533.722C1320.49 545.798 1336.34 547.016 1361.15 551.476C1350.18 555.116 1341.92 557.036 1330.41 558.328C1312.77 559.65 1291.25 558 1276.06 548.102C1266.17 549.594 1256.37 548.462 1247.61 543.416C1238.8 538.338 1232.44 529.896 1229.99 520.032C1227.59 510.447 1229.21 500.3 1234.45 491.93C1241.13 481.226 1250.24 476.928 1261.89 474.176Z"/><path fill="#FDFDFD" d="M1260.6 478.067C1272.58 475.726 1284.88 480.02 1292.8 489.303C1300.72 498.585 1303.02 511.415 1298.82 522.871C1294.63 534.327 1284.58 542.631 1272.54 544.598C1254.32 547.575 1237.08 535.381 1233.82 517.208C1230.56 499.036 1242.48 481.61 1260.6 478.067Z"/><path fill="#FDFDFD" d="M1294.88 536.927C1305.18 542.154 1315.35 546.519 1326.6 549.31C1329.7 550.081 1334.47 550.812 1337.06 552.486C1334.21 553.656 1328.33 553.893 1325.03 554.171C1306.35 554.569 1297.92 552.975 1280.44 546.968C1286.95 543.239 1289.17 541.769 1294.88 536.927Z"/><path d="M1202.65 320.064C1223.79 315.579 1244.59 328.986 1249.24 350.092C1253.89 371.199 1240.64 392.104 1219.57 396.916C1198.27 401.78 1177.08 388.357 1172.38 367.018C1167.68 345.679 1181.27 324.598 1202.65 320.064Z"/><path fill="#FDFDFD" d="M1202.8 324.073C1221.99 319.571 1241.18 331.558 1245.56 350.784C1249.94 370.009 1237.83 389.123 1218.57 393.376C1199.5 397.59 1180.6 385.613 1176.26 366.563C1171.92 347.513 1183.77 328.534 1202.8 324.073Z"/><path d="M1205.5 334.942C1214.14 333.075 1223.12 336.041 1228.94 342.689C1234.77 349.337 1236.53 358.621 1233.55 366.942C1230.57 375.263 1223.3 381.311 1214.58 382.742C1201.55 384.877 1189.2 376.237 1186.74 363.268C1184.27 350.298 1192.6 337.73 1205.5 334.942Z"/><path fill="#FDFDFD" d="M1205.29 339.081C1216.27 336.104 1227.56 342.652 1230.43 353.656C1233.3 364.659 1226.65 375.89 1215.62 378.653C1204.74 381.378 1193.69 374.831 1190.86 363.978C1188.03 353.125 1194.47 342.017 1205.29 339.081Z"/><path d="M1140.34 458.27C1152.21 456.278 1163.44 464.29 1165.42 476.16C1167.4 488.031 1159.38 499.259 1147.51 501.231C1135.65 503.201 1124.44 495.191 1122.46 483.335C1120.48 471.478 1128.48 460.26 1140.34 458.27Z"/><path fill="#FDFDFD" d="M1140.05 462.354C1146.35 460.876 1152.96 462.922 1157.32 467.701C1161.69 472.48 1163.12 479.246 1161.08 485.388C1159.04 491.529 1153.84 496.087 1147.48 497.301C1137.93 499.126 1128.67 492.978 1126.65 483.467C1124.63 473.956 1130.58 464.573 1140.05 462.354Z"/><path d="M1309.52 194.303C1324.78 192.284 1340.99 195.421 1355.71 199.226C1349.04 200.885 1342.45 202.817 1335.94 205.016C1299.44 217.214 1268.96 242.847 1250.68 276.707C1244.09 288.77 1239.39 301.482 1233.28 313.796C1241.25 267.054 1276.81 227.438 1318.71 207.29C1325.08 204.249 1331.28 201.869 1337.84 199.292C1332.7 198.523 1326.22 197.938 1321.06 197.925C1292.73 198.02 1265.57 209.21 1245.39 229.097C1219.44 255.047 1218.62 276.201 1218.63 309.781C1217.51 306.103 1216.65 302.354 1216.05 298.559C1207.78 243.151 1258.89 201.711 1309.52 194.303Z"/><path d="M1161.02 372.179C1161.9 372.821 1161.74 372.908 1162.34 373.983C1157.44 377.242 1103.81 392.135 1096.49 393.628L1095.86 393.583C1100.23 390.204 1153.06 374.458 1161.02 372.179Z"/><path d="M1170.12 388.937L1171.13 389.881C1169.42 393.939 1121.61 422.702 1115.02 426.804L1114.74 425.894C1130.62 413.014 1152.46 400.045 1170.12 388.937Z"/><path d="M1094.42 351.616C1100.65 351.035 1156.19 355.094 1160.36 356.759C1154.98 359.577 1099.04 355.059 1094.42 351.616Z"/><path d="M1192.34 236.845C1196.36 241.212 1201.3 296.739 1201.03 305.374C1197.73 302.199 1192.89 245.445 1192.34 236.845Z"/><path d="M1102.28 316.114C1108.33 316.541 1162.39 335.155 1165.28 338.943C1156.99 338.767 1110.95 320.882 1102.28 316.114Z"/><path d="M1257.01 381.146C1264.64 382.409 1310.82 400.675 1315.16 405.693C1307.63 403.664 1258.91 385.287 1257.01 381.146Z"/><path d="M1297.85 286.128L1298.53 286.981C1292.95 293.926 1258.51 317.488 1249.5 323.455L1248.61 322.397C1249.26 320.133 1292.02 290.191 1297.85 286.128Z"/><path d="M1262.03 361.446C1272.51 360.841 1310.85 362.639 1321.29 364.74C1313.61 365.85 1270.49 365.199 1262.74 363.372L1262.03 361.446Z"/><path d="M1154.06 254.94C1160.75 264.753 1183.33 303.273 1186.48 313.294C1181.65 310.49 1155.89 261.735 1154.06 254.94Z"/><path d="M1125.76 286.702C1132.92 288.577 1166.99 317.631 1173.47 324.205C1166.64 323.523 1132.48 293.013 1125.76 286.702Z"/><path d="M1313.39 323.126L1314.17 323.331L1313.81 324.363C1304.97 328.616 1270.94 339.585 1261.22 342.065L1259.62 341.465C1261.56 338.564 1306.86 325.04 1313.39 323.126Z"/><path d="M1242.47 396.623C1249.44 398.497 1275.4 430.752 1281.36 438.258C1275.67 436.204 1246.58 402.856 1242.47 396.623Z"/><path d="M1222.65 408.511C1228.07 410.904 1240.93 455.026 1243.27 463.331C1238.7 458.231 1224.97 417.007 1222.65 408.511Z"/><path d="M1202.94 462.584C1202.72 451.304 1202.16 420.017 1204.3 410.057C1207.18 413.135 1205.24 448.445 1205.05 454.942L1202.94 462.584Z"/><path d="M1188.46 402.743L1189.42 403.877C1188.78 408.526 1168.93 433.004 1164.96 437.756L1164.05 436.592C1171.69 424.956 1179.83 413.662 1188.46 402.743Z"/><path fill="#535353" d="M1205.05 454.942C1205.05 461.724 1205.34 466.584 1203.55 473.162C1202.62 471.948 1202.8 464.397 1202.94 462.584L1205.05 454.942Z"/><path d="M1780.88 184.358C1785.24 184.161 1789.19 183.502 1792.39 186.233C1787.64 195.801 1762.43 197.745 1768.24 226.786C1770.04 235.405 1775.24 242.935 1782.66 247.68C1795.75 255.999 1811.97 254.369 1821.34 242.3C1823.26 239.833 1822.91 239.636 1825.87 238.99L1827.33 240.773C1827.63 248.3 1820.1 259.249 1815.39 265.007C1784.91 290.33 1745.61 272.742 1740.54 235.681C1738.9 223.339 1742.23 210.848 1749.8 200.965C1758 190.425 1768.07 185.953 1780.88 184.358Z"/><path fill="#FDFDFD" d="M1781.4 188.412C1781.3 191.177 1750.43 211.153 1769.72 240.543C1774.94 248.371 1783.06 253.795 1792.3 255.619C1804.52 258.054 1812.83 254.353 1822.52 247.925C1816.45 258.501 1814.13 262.084 1804.22 268.607C1800.71 270.489 1795.84 272.143 1791.93 272.773C1781.42 274.558 1770.64 271.972 1762.08 265.615C1752.42 258.475 1746.05 247.741 1744.41 235.842C1740.92 210.948 1756.65 191.395 1781.4 188.412Z"/><path d="M1740.13 365.539C1751.4 376.31 1730.48 398.111 1773.89 406.395C1745.81 411.592 1744.83 419.111 1741.49 445.745C1735.45 443.618 1740.76 428.63 1734.02 419.955C1726.15 409.827 1719.07 409.323 1707.39 406.74C1713.59 405.045 1719.09 404.886 1724.92 401.623C1738.87 393.802 1738.1 379.678 1740.13 365.539Z"/><path fill="#FDFDFD" d="M1740.95 386.919C1741.38 387.466 1743.33 391.731 1743.92 392.738C1748.46 400.432 1751.06 401.984 1758.41 406.159C1746.94 412.032 1745.51 415.705 1740.86 427.385C1736.33 414.924 1734.61 412.178 1722.83 406.647C1732.47 401.022 1736.25 396.865 1740.95 386.919Z"/><path d="M905.666 175.325C915.716 184.838 896.985 206.257 938.355 214.45C911.925 221.956 909.844 228.42 906.625 255.287C896.95 245.375 915.615 224.685 874.748 215.169C901.986 208.723 902.887 202.962 905.666 175.325Z"/><path fill="#FDFDFD" d="M906.17 192.65C911.624 205.114 912.811 208.285 924.386 215.269C913.108 220.867 910.62 226.709 906.002 237.715C902.615 226.882 898.818 221.335 888.6 215.725L889.11 215.44C900.494 208.971 902.736 204.76 906.17 192.65Z"/><path d="M1602.93 116.566C1613.16 130.097 1590.53 148.803 1633.29 156.476C1628.14 157.429 1623.5 158.128 1618.59 160.079C1601.84 166.728 1605.65 184.671 1600.49 197.197C1597.47 191.148 1598.4 170.979 1594.53 165.143C1590.02 158.351 1575.74 157.258 1568.03 156.126C1574.24 154.954 1579.02 155.252 1585.29 153.029C1601.3 147.357 1597.62 128.405 1602.93 116.566Z"/><path fill="#FDFDFD" d="M1602.28 136.683C1605.84 148.013 1607.59 150.021 1616.96 156.614C1608.73 161.776 1605.79 165.579 1601.61 174.029C1596.96 158.217 1594.64 164.487 1590.04 156.837C1591.14 152.574 1596.48 149.05 1598.76 145.082C1600.2 142.585 1601.31 139.391 1602.28 136.683Z"/><path d="M772.406 414.444C781.994 422.328 764.81 432.388 795.058 438.61C777.112 443.368 776.391 444.098 774.293 462.604L773.202 462.602C766.294 457.551 779.312 445.763 753.013 438.65C770.477 433.933 769.708 432.149 772.406 414.444Z"/><path fill="#FDFDFD" d="M772.913 427.841C775.436 432.212 777.221 433.737 779.979 437.734C779.676 441.508 776.108 444.796 773.509 450.236C770.929 447.37 766.028 440.974 766.761 437.294C770.403 433.544 770.809 432.68 772.913 427.841Z"/><path d="M751.011 91.6174C753.251 93.9792 753.201 95.6489 753.854 99.1082C756.764 114.51 761.563 108.749 769.153 113.529C765.409 120.458 758.449 110.163 751.908 136.352C747.761 132.136 750.98 126.73 744.444 117.873C741.06 116.818 737.927 115.911 734.675 114.479C735.753 112.607 741.846 111.281 744.882 109.236C749.363 106.217 749.918 97.2698 751.011 91.6174Z"/><path fill="#FDFDFD" d="M751.462 102.791C753.556 107.351 755.236 109.532 758.193 113.493C758.064 117.116 754.361 120.933 751.88 125.426C749.517 121.594 747.934 119.054 745.139 115.547C745.085 112.062 748.851 109.311 751.462 102.791Z"/><path fill="#FDFDFD" d="M1768.32 794.718C1771.97 798.181 1773.6 810.736 1774.82 815.956C1779.75 811.729 1784.47 807.746 1790.94 806.233C1792.43 805.883 1792.89 805.564 1794.24 806.41C1792.36 809.649 1789.87 812.681 1788.17 815.976C1787.03 818.186 1786.79 819.674 1787.48 822.002C1789.13 822.851 1901.78 831.581 1913.58 832.406C1880.1 851.686 1859.22 867.319 1837.03 899.37C1816.24 893.965 1795.44 888.666 1774.29 884.895C1760.72 882.477 1746.96 881.317 1733.43 878.704C1738.59 874.778 1749.33 871.56 1752.69 867.683C1746.95 865.916 1741.48 869.086 1736.36 871.373C1738.89 865.846 1741.77 860.713 1744.92 855.521C1734.6 859.489 1728.31 861.795 1722.47 871.774C1719.09 857.905 1714.82 846.98 1705.76 835.808C1710.48 849.08 1713.16 859.896 1713.11 874.104C1702.16 860.954 1691.67 856.8 1675.12 854.692C1679.26 857.374 1683.98 859.22 1688.3 861.624C1698.11 867.085 1705.57 873.648 1713.27 881.742C1714.16 878.744 1714.84 875.657 1716.8 873.153C1719.4 874.378 1721.1 879.471 1722.44 882.143C1726.06 875.898 1729.83 870.182 1734.33 864.533L1727.13 882.465C1740.13 884.987 1753.57 885.891 1766.68 887.935C1789.48 891.52 1812.01 896.624 1834.13 903.212C1821.98 925.21 1814.08 944.635 1809.5 969.482C1723.07 935.92 1598.12 906.408 1506.07 899.69C1516.13 891.42 1527.95 887.931 1540.12 884.062L1540.02 882.607C1528.04 877.568 1511.18 882.557 1499.68 886.724C1507.43 878.58 1515.42 875.423 1524.43 869.389L1524.25 868.257C1523.69 868.167 1523.14 868.089 1522.58 868.026C1505.12 866.051 1490.63 875.854 1477.8 886.185C1487.3 855.672 1492.64 849.959 1514.56 827.948C1511.45 829.207 1508.47 830.728 1505.51 832.305C1481.82 844.933 1469.07 863.027 1461.38 888.373L1460.32 886.282C1449.81 865.765 1435.1 855.586 1413.38 848.576C1428.62 860.499 1441.17 869.339 1446.78 888.877C1445.86 887.98 1444.91 887.112 1443.94 886.274C1425.77 870.554 1404.22 867.864 1381.02 869.54C1400.46 876.922 1415.72 883.843 1429.76 899.677C1383.58 890.067 1296.46 885.943 1251.58 899.153C1270.32 899.621 1289.68 896.098 1308.59 895.635C1351.46 894.585 1394.24 898.883 1436.46 905.948C1436.41 905.794 1436.36 905.64 1436.31 905.486C1430.92 889.294 1419.88 882.897 1406.29 874.357C1425.98 878.977 1439.32 886.875 1453.82 900.866C1452.28 889.57 1449.72 880.783 1444.54 870.6C1453.37 881.479 1457.65 892.454 1462.79 905.303C1465.41 887.023 1471.7 867.406 1484.83 853.849C1481.03 861.414 1468.92 890.803 1470.85 898.54C1475.35 899.704 1489.16 883.545 1494.1 880.09C1497.77 877.517 1502.08 875.939 1506.25 874.343C1496.44 884.305 1488.55 893.031 1482.62 905.797C1493.49 894.947 1504.33 889.718 1518.84 885.383C1516.13 886.876 1513.41 888.402 1510.85 890.129C1506.66 892.955 1500.39 896.474 1499.35 901.668L1500.97 903.848C1505.37 906.285 1511.32 905.941 1516.25 906.217C1580.81 910.734 1659.73 928.371 1721.66 946.193C1744.76 952.838 1767.42 960.961 1790.46 967.798L1488.84 967.247L1037.12 967.502C869.827 967.198 702.416 965.905 535.135 967.764C537.675 962.651 540.477 957.634 543.158 952.592C644.359 929.23 746.193 908.701 848.541 891.027C1103.52 845.68 1361.94 814.426 1621.23 813.684C1641.39 813.627 1733.74 813.84 1748.49 819.013C1750.65 819.77 1752.65 822.009 1754.26 823.604C1756 822.265 1755.84 822.248 1756.13 820.206C1754.01 813.037 1748.94 808.046 1743.65 803.087C1751.39 806.188 1758.06 808.594 1763.66 815.111C1765.35 808.352 1766.78 801.515 1768.32 794.718Z"/><path d="M1678.48 865.142C1680.34 865.193 1682.06 865.384 1683.83 865.986C1691.98 868.753 1696.44 874.022 1700.18 881.566C1678.84 878.672 1657.29 877.665 1635.78 878.557C1631.39 878.791 1626.94 879.328 1622.7 877.938L1623.38 876.877C1643.72 870.654 1670.73 874.018 1691.84 875.66C1687.73 871.738 1682.83 868.776 1678.48 865.142Z"/><path fill="#FDFDFD" d="M1576.05 714.449C1699.82 710.092 1840.99 722.85 1963.67 742.798C1964.28 766.122 1963.78 791.801 1963.8 815.305C1952.12 817.475 1937.04 822.281 1926.34 827.362C1912.64 825.769 1896.36 825.228 1882.3 824.071L1792.92 816.448C1799.24 809.58 1800.5 808.795 1809.41 806.329C1796.82 800.932 1792.29 797.678 1779.91 804.687L1779.52 804.912C1777.56 803.42 1777.14 800.675 1776.48 798.305C1773.19 786.448 1765.7 778.831 1756.87 770.732C1764.72 785.586 1764.89 787.317 1763.17 803.976C1754.53 792.008 1749.25 789.413 1735.59 785.891C1744.09 792.946 1748.21 794.985 1756.02 803.373C1740.78 796.255 1736.45 795.318 1719.71 796.181C1726.25 798.636 1731.43 798.728 1736.54 804.321C1738.45 806.416 1743.32 809.525 1745.88 811.234C1662.83 806.827 1579.61 806.66 1496.55 810.734C1431.33 812.245 1359.08 817.688 1294.25 823.479C1275.17 825.153 1256.1 827.026 1237.05 829.097C1225.17 830.361 1208.63 832.625 1197.06 832.485C1185.13 832.339 1169.78 830.493 1157.77 829.434C1100.17 824.354 1044.23 812.507 988.514 797.34C1041 798.633 1093.5 795.19 1145.38 787.053C1224.57 774.546 1306.89 751.468 1386.19 736.161C1448.79 723.812 1512.28 716.551 1576.05 714.449Z"/><path fill="#FDFDFD" d="M1547.07 650.463C1689.47 645.203 1831.39 669.771 1963.73 722.59L1963.55 739.303C1921 729.173 1853.54 723.227 1809.38 718.855C1702.85 708.308 1592.79 704.573 1486.25 716.313C1411.04 724.6 1331.47 742.109 1257.79 759.995C1234.26 764.576 1210.55 770.464 1186.96 775.027C1130.29 785.989 1073.07 793.424 1015.25 793.068C1006.25 793.013 970.76 793.061 963.067 791.094C943.427 786.073 917.569 777.936 897.996 771.705C885.177 767.625 849.605 757.327 839.879 752.024C926.679 749.584 1013.12 739.861 1098.3 722.959C1169.51 709.527 1240.4 691.267 1311.75 677.403C1389.31 661.954 1468.02 652.944 1547.07 650.463Z"/><path fill="#FDFDFD" d="M299.782 97.3087C328.661 94.6193 344.228 106.113 355.876 131.857C393.663 109.213 433.987 114.634 454.046 157.198C494.92 131.021 538.114 159.465 528.598 207.682C527.735 212.058 525.584 217.322 524.055 221.591C553.375 227.922 568.693 246.826 554.489 277.315C551.554 283.615 546.407 288.619 540.834 292.715C532.553 319.955 517.93 328.568 494.267 342.088C503.859 325.263 519.29 299.926 523.716 281.58C517.15 286.944 509.848 295.48 504.705 302.238C502.163 292.297 500.111 286.058 495.809 276.817C494.871 289.238 498.586 308.354 494.267 318.864C490.246 328.646 478.391 345.951 470.337 353.401C469.017 354.622 462.473 357.47 460.458 358.336C461.025 344.279 461.92 331.016 465.63 317.42C466.719 313.431 468.866 308.147 468.843 304.132L467.339 303.32C459.747 309.574 447.111 353.938 444.297 365.334C420.389 379.087 395.597 387.757 369.609 403.812C376.809 381.59 391.948 356.341 401.884 334.778C406.411 324.952 421.11 294.146 428.467 288.954L429.117 288.501C435.233 284.178 444.543 280.323 451.632 277.081C473.257 267.192 488.582 255.092 502.454 235.798C473.183 252.917 466.157 257.623 433.421 270.602C440.174 246.362 453.061 221.966 459.602 199.2C454.193 203.785 444.129 218.481 439.517 224.901C438.966 219.698 438.033 203.433 435 200.546C430.25 207.321 431.563 240.278 427.264 251.278C414.738 283.332 393.561 314.892 374.968 343.647C359.819 323.519 360.017 305.813 358.307 281.496C366.238 279.915 389.361 274.389 390.715 265.656L391.141 265.638L391.423 267.05L391.992 265.977C387.768 264.465 373.786 272.545 368.655 273.874C364.765 274.882 362.174 275.37 358.164 275.991C357.144 263.378 355.851 250.789 354.286 238.231L353.122 235.951L351.432 236.194C348.385 242.122 347.492 268.406 347.012 276.188C329.957 274.168 322.295 271.2 307.947 262.012C317.332 241.578 327.613 224.626 343.101 208.29C345.929 205.308 352.009 199.552 352.436 195.616L351.276 194.206C344.792 194.222 331.697 207.496 327.215 212.184C329.5 203.48 337.543 180.629 337.504 173.625L336.467 173.502C326.205 186.9 316.733 214.764 310.089 230.705C306.692 238.855 303.052 245.985 299.09 253.865C296.299 246.59 288.554 217.284 284.706 215.139C282.922 225.904 291.379 249.837 296.478 259.445C293.039 268.393 289.879 277.444 287 286.588C284.233 280.332 278.489 262.162 275.076 258.008L273.709 259.09C273.272 261.745 279.03 297.357 279.712 303.8C281.686 322.454 279.388 333.475 278.129 352.088C277.114 352.72 276.091 353.338 275.061 353.943C271.282 356.178 267.473 358.964 262.919 357.714C239.499 351.283 249.4 266.294 238.82 262.323C235.271 265.704 235.266 297.11 235.027 304.223C231.846 298.458 226.062 282.126 221.579 279.519L220.241 280.503C218.174 290.626 231.842 338.37 236.115 349.795C220.943 352.125 205.211 349.049 194.798 336.918C189.295 330.518 186.601 322.171 187.324 313.762C188.338 302.436 194 295.688 202.16 288.774C209.945 295.295 213.186 296.569 222.383 299.874C208.415 286.601 195.424 280.906 196.601 257.364C198.092 227.553 217.918 203.219 249.507 204.224C250.78 185.336 256.64 164.013 279.353 161.355C289.329 160.188 296.987 164.703 304.438 170.739C309.655 160.454 313.784 153.121 324.769 147.528C351.933 133.696 385.847 148.952 397.419 176.201C398.913 179.72 397.948 182.923 399.979 186.823L400.977 186.36C402.265 182.912 402.962 179.407 401.762 175.84C392.799 149.207 361.132 132.239 333.995 139.502C318.141 143.746 310.457 151.215 302.628 164.316C277.809 147.589 251.973 161.507 247.139 190.18C246.544 193.707 246.296 197.478 245.966 201.051C233.844 196.081 226.881 186.298 225.14 175.155C222.052 155.388 231.736 145.385 248.314 138.581C248.727 138.411 253.829 124.926 256.295 121.581C267.703 106.101 281.458 100.153 299.782 97.3087Z"/><path fill="#FDFDFD" d="M1616.61 602.539C1707.41 598.685 1878.33 615.578 1963.63 649.746L1963.77 717.766C1950.51 712.867 1937.2 707.967 1923.95 703.155C1722.07 629.815 1501.4 633.517 1293.33 676.531C1240.24 687.505 1186.72 699.874 1133.5 711.536C1044.87 729.87 918.668 748.671 824.679 747.098C815.927 746.952 765.551 727.15 753.178 722.907C772.714 723.184 791.499 724.927 812.062 724.996C883.193 725.33 954.229 719.743 1024.43 708.294C1075.59 699.291 1126.4 688.403 1176.75 675.653C1222.13 664.107 1267.87 651.063 1313.47 640.526C1412.86 617.033 1514.49 604.297 1616.61 602.539Z"/><path fill="#FDFDFD" d="M352.522 619.755C408.332 625.515 471.956 642.27 526.383 657.147C743.588 716.519 943.701 815.193 1170.42 836.736C1150.56 839.06 1113.29 845.487 1095.34 845.868C1087.05 846.044 1041.7 838.118 1031.25 836.487C980.612 828.725 930.175 819.717 879.982 809.471C827.101 798.372 774.031 784.296 721.303 772.211C637.875 752.965 553.843 736.441 469.339 722.666C476.222 708.858 482.381 694.762 489.304 680.849C476.314 692.741 462.467 706.753 449.805 719.184C431.778 717.241 413.702 715.776 395.597 714.791C406.324 694.765 418.286 675.003 429.199 654.849C408.813 670.076 384.875 695.701 368.476 715.075L355.113 714.839C352.804 682.933 352.819 651.725 352.522 619.755Z"/><path fill="#FDFDFD" d="M466.716 727.936C493.887 729.135 534.186 738.243 562.083 743.496C642.714 758.68 722.239 777.014 802.055 795.833C894.127 817.542 985.883 834.473 1079.49 847.999C1057.4 852.86 1028.13 855.613 1005.11 859.266C985.693 862.347 961.077 866.996 942.012 867.617C936.774 867.787 914.692 863.893 908.507 862.97L852.162 854.902C798.255 847.455 744.145 841.56 689.899 837.225C693.476 834.169 703.331 828 704.403 825.427C695.097 820.57 678.6 828.327 669.914 832.626C679.347 818.659 681.75 823.295 689.799 815.077L688.731 814.041C672.871 812.412 662.3 816.81 652.135 829.151C651.12 826.945 650.037 824.772 648.888 822.634C643.375 812.622 636.145 810.044 626.054 807.165L626.526 807.559C633.195 813.155 637.083 815.779 637.845 824.599L636.987 825.462C631.857 822.64 621.565 816.609 615.73 819.36C616.663 821.722 626.795 829.631 629.731 832.257C595.16 831.253 560.644 826.366 524.413 825.958C540.886 809.438 553.251 798.09 571.068 782.924C528.579 793.935 507.149 803.615 469.491 826.041C454.525 825.99 439.558 826.184 424.598 826.624C438.127 793.512 452.168 760.612 466.716 727.936Z"/><path fill="#FDFDFD" d="M584.102 306.457C587.739 306.537 591.37 306.795 594.982 307.228C628.115 311.376 638.009 336.958 634.069 366.731C641.499 365.832 647.4 365.443 654.488 368.074C685.798 379.696 683.291 427.009 657.209 443.071C653.937 445.087 650.128 446.693 646.696 448.216C652.081 479.211 621.816 493.632 596.727 483.233C585.187 524.094 536.62 532.788 506.822 507.839C486.247 490.612 478.872 488.734 453.15 484.397C463.415 480.384 473.745 476.539 484.135 472.863C489.979 477.348 495.264 481.234 501.753 484.741C533.444 501.87 574.548 497.457 592.538 463.484C625.179 482.114 641.977 451.823 637.916 447.291C632.722 450.516 628.791 462.745 619.196 465.288C608.156 468.213 600.034 463.197 590.53 458.46C589.207 460.646 587.848 462.812 586.455 464.954C573.961 483.808 554.692 491.061 532.785 489.183C515.528 487.704 503.346 480.661 489.278 471.176C504.171 465.546 517.339 458.969 532.886 454.407C563.974 445.286 610.137 427.146 628.983 399.14C626.432 400.731 623.523 402.839 621.062 404.608C603.082 417.536 583.679 425.422 563.27 433.665C556.682 436.311 547.661 438.845 540.718 440.996C555.132 426.827 575.896 404.505 590.83 392.006C599.737 384.552 611.74 385.403 625.014 373.237C616.694 374.746 606.71 379.253 598.707 382.488C601.856 377.017 612.959 362.447 611.64 356.455C607.712 357.064 572.062 398.122 564.124 405.109C542.94 388.434 549.759 373.508 554.143 351.031C541.962 372.372 540.157 391.621 559.806 409.195C538.992 427.823 519.17 447.499 492.567 456.904C475.915 462.792 459.213 468.584 442.671 474.757C452.387 453.707 454.564 449.813 467.696 431.112C480.32 436.066 491.651 435.725 504.148 430.734C510.289 428.282 529.574 421.032 526.334 412.926C517.5 413.131 506.661 436.491 470.236 427.787C475.965 418.568 501.464 393.373 501.262 388.191C496.321 388.969 487.765 397.356 483.726 400.858C485.72 393.993 490.384 379.667 489.715 373.147L488.626 372.295C486.14 374.813 483.948 380.759 482.356 384.096C473.813 402.001 465.973 418.055 452.647 432.945C449.719 408.345 454.389 397.004 460.513 373.792C476.887 366.043 496.823 354.318 511.868 344.004C537.973 326.108 550.303 308.793 584.102 306.457Z"/><path fill="#FDFDFD" d="M674.024 817.995C675.141 820.003 674.217 819.985 672.827 821.673C668.064 827.457 667.031 832.415 665.585 839.585C674.139 834.693 681.761 831.425 691.411 829.317C688.39 833.476 685.743 837.372 683.626 842.092C698.935 841.484 715.205 843.915 730.491 845.258C770.241 848.715 809.886 853.281 849.382 858.951C875.622 862.527 902.977 864.632 928.79 870.457C913.202 874.937 895.708 876.568 879.671 879.317C852.483 884.102 825.322 889.038 798.189 894.125C714.312 909.483 630.73 926.411 547.487 944.9C561.151 923.782 575.161 905.925 594.558 889.714C557.059 903.952 522.059 926.37 495.688 956.818C499.653 949.705 504.68 943.139 509.413 936.519C534.562 903.498 559.32 878.118 595.331 856.864C557.645 866.803 518.923 885.38 487.031 907.678C498.487 889.534 511.635 872.509 522.295 853.826C496.855 874.618 465.8 905.531 446.167 931.678C436.24 944.9 428.469 959.833 418.229 972.679C423.403 957.77 429.535 942.697 437.342 928.962C452.211 902.804 496.353 846.687 521.08 830.096C560.52 833.736 600.173 832.225 639.412 838.903C636.207 833.617 632.813 829.218 628.655 824.657C633.953 828.003 638.702 831.374 643.328 835.613L640.633 816.774C645.728 824.525 648.549 831.881 651.119 840.727C656.068 828.512 662.201 823.137 674.024 817.995Z"/><path fill="#FDFDFD" d="M188.4 254.935L190.381 255.122C192.088 256.868 191.56 258.367 191.986 261.403C193.436 271.72 194.647 276.354 199.496 285.463C161.856 311.717 189.757 364.479 237.864 353.547C249.609 376.087 258.825 386.109 272.196 405.61C292.299 434.929 295.588 487.06 288.307 521.219C279.454 513.903 266.768 503.347 260.268 494.187C260.567 493.91 260.862 493.63 261.154 493.346C283.232 471.813 286.086 445.72 263.556 423.502C265.108 427.867 266.664 430.2 268.69 434.196C279.834 456.191 274.446 474.513 257.318 490.402C239.567 468.055 231.873 397.18 222.617 391.142L221.309 392.077C219.048 400.13 224.615 426.197 225.139 435.805C225.51 442.61 225.231 446.161 224.6 453.202C220.442 447.123 218.305 443.283 215.01 437.312C211.348 430.676 202.256 405.23 198.703 402.346L197.507 402.619C196.149 408.475 203.024 430.79 204.79 438.457C200.826 434.064 186.821 417.515 181.464 416.149L181.476 416.11L182.983 416.913L182.498 418.502C190.681 431.31 201.849 443.516 210.954 455.806C221.912 470.598 232.454 485.705 243.273 500.615C241.556 501.258 239.816 501.842 238.058 502.365C213.289 509.581 187.686 498.33 180.938 472.463C181.465 469.082 182.651 464.979 181.127 462.392C180.289 462.294 179.452 462.192 178.616 462.085C142.886 457.529 125.045 417.68 151.371 390.608C156.572 385.261 162.769 381.562 168.714 377.068L168.486 374.05C165.451 368.317 128.935 353.677 142.951 330.442C148.489 321.261 159.898 320.347 169.375 318.365L169.852 316.508L167.857 315.244C152.33 313.235 135.832 323.017 135.9 339.903C135.977 358.867 149.901 367.332 164.54 375.286C130.944 391.694 122.264 430.443 151.857 456.342C159.803 463.296 166.678 464.757 176.602 466.771C174.283 489.29 198.354 507.856 218.975 508.966C229.692 509.543 235.838 508.129 245.862 505.214L256.903 521.268C224.682 532.558 175.198 534.607 153.314 500.726C151.177 497.417 150.69 483.461 149.792 482.599C137.149 470.46 120.228 460.053 118.875 439.917C117.07 413.054 126.149 396.787 142.975 376.267C142.771 374.43 139.399 371.131 137.68 369.818C114.519 352.122 115.046 309.295 147.171 302.709C154.322 301.242 160.459 302.043 168.153 302.985C156.06 279.206 162.9 263.219 188.4 254.935Z"/><path fill="#FDFDFD" d="M499.39 643.512C554.546 642.328 609.699 646.052 664.195 654.639C723.61 663.821 782.858 677.458 842.802 685.726C889.316 691.97 936.146 695.589 983.068 696.565C1000.43 696.864 1017.66 695.713 1034.97 695.908C1038.46 695.261 1048.89 694.914 1052.95 694.692L1053.89 696.962L1048.76 697.656C1035.23 701.119 1011.12 704.204 996.543 706.296C920.897 717.281 844.369 720.961 768.018 717.284C755.603 716.614 736.295 715.646 724.323 713.292C717.699 711.99 701.32 705.991 694.076 703.567L636.375 684.35C591.051 669.628 545.376 656.012 499.39 643.512Z"/><path fill="#E6E6E6" d="M1034.97 695.908C1038.46 695.261 1048.89 694.914 1052.95 694.692L1053.89 696.962L1048.76 697.656C1046.4 696.162 1038.45 696.196 1034.97 695.908Z"/><path fill="#FDFDFD" d="M201.421 718.416C205.254 718.265 206.618 717.498 209.273 719.292C214.164 733.827 220.715 774.028 222.943 790.186C208.889 765.002 197.169 741.337 176.249 720.586C180.264 734.485 186.946 750.596 191.571 764.873C197.966 784.611 200.867 798.971 204.21 819.235C180.219 787.047 157.569 763.711 123.889 741.455C147.181 777.37 160.113 787.67 175.309 832.253C179.177 845.216 181.117 854.728 182.619 868.158C169.26 855.176 156.777 847.419 141.215 837.636C145.191 831.72 164.103 811.214 164.334 810.62L162.851 809.714C152.882 810.461 140.518 816.497 131.099 820.553L130.191 819.746C132.573 811.216 145.398 805.955 146.605 801.841C140.912 799.544 125.238 808.528 119.968 811.347C122.986 801.145 126.847 790.848 130.444 780.809C113.151 793.888 104.553 802.532 95.626 821.997C91.3508 809.782 88.9422 802.351 80.9614 792.154L80.8098 730.609C118.625 722.926 162.876 720.448 201.421 718.416Z"/><path fill="#FDFDFD" d="M173.219 622.277C174.43 621.854 175.434 622.195 176.725 622.427C185.744 632.285 203.997 697.82 207.935 713.974C174.72 715.597 145.587 717.676 112.5 721.846C101.072 723.169 92.0962 724.47 80.7904 726.598L80.8989 649.235C102.072 637.934 149.522 627.035 173.219 622.277Z"/><path fill="#FDFDFD" d="M327.627 421.845C328.919 423.816 330.237 435.193 330.961 438.415C336.08 461.214 339.315 479.818 339.84 503.392C341.331 528.865 335.19 554.708 335.101 579.843C334.779 670.592 332.158 761.799 333.931 852.504C334.701 891.862 334.324 931.001 345.822 968.633L326.75 968.778C325.197 968.767 324.186 968.583 322.662 968.38C321.514 966.2 319.941 924.432 319.281 918.734C311.802 854.157 311.708 790.833 313.188 725.859C314.475 685.321 316.387 644.805 318.923 604.326C322.414 549.771 331.573 485.678 314.614 433.673L327.627 421.845Z"/><path d="M320.884 640.619C322.398 641.203 324.102 642.076 324.574 643.634C328.395 656.247 328.359 707.359 324.65 717.73L321.666 716.615C320.389 715.091 320.063 713.756 320.145 711.771C321.151 687.643 322.065 664.806 320.884 640.619Z"/><path fill="#FDFDFD" d="M297.663 414.656C302.422 419.413 310.472 435.367 312.554 442.309C325.575 485.721 318.6 539.369 315.902 584.254L310.797 677.757C307.291 748.387 305.768 819.718 312.352 890.218C313.423 901.681 318.904 960.43 315.074 968.059L313.036 968.664L295.109 968.769C290.886 898.45 290.541 827.952 294.075 757.595C296.098 713.411 299.957 669.456 302.209 625.164C304.497 580.161 310.915 533.531 309.588 488.359C308.892 464.644 301.193 438.371 297.663 414.656Z"/><path fill="#FDFDFD" d="M306.251 265.817C320.426 277.025 329.397 278.582 346.836 281.298C345.129 303.866 343.982 339.366 354.54 359.285C346.91 378.464 340.854 395.581 328.858 412.565C323.959 419.16 318.587 423.752 312.449 429.123C295.291 400.402 293.207 394.861 292.813 360.48C292.381 322.838 293.086 302.265 306.251 265.817Z"/><path fill="#FDFDFD" d="M230.481 615.422C245.991 614.106 268.498 614.932 284.083 615.251C284.023 643.342 280.472 684.36 278.095 712.804L243.75 713.264L241.138 712.83C238.72 709.775 228.654 686.246 225.553 680.262C214.465 659.326 202.267 638.997 189.012 619.361C202.771 617.448 216.607 616.134 230.481 615.422Z"/><path fill="#FDFDFD" d="M535.321 202.943C569.62 201.88 588.288 225.669 576.466 258.441C586.294 266.559 590.314 273.682 591.67 285.98C606.164 282.516 619.768 281.52 631.779 288.008C649.547 297.607 652.448 312.577 654.816 328.799C663.186 336.274 677.255 337.794 680.643 350.351C682.286 356.44 683.646 374.547 676.188 376.801C670.162 375.046 664.439 367.002 658.421 364.022C653.905 361.786 642.607 362.874 639.513 360.683C644.702 313.149 601.58 292.692 561.397 306.08C546.07 311.186 536.071 319.334 523.669 329.497C533.118 318.239 539.703 310.847 543.443 296.448C573.785 271.227 571.81 231.176 530.158 218.912C532.498 213.354 533.704 208.719 535.321 202.943Z"/><path fill="#FDFDFD" d="M191.568 632.673C202.63 641.511 229.887 699.581 236.101 715.04C268.628 795.955 281.838 882.281 288.91 968.688L255.665 968.883C257.619 940.67 256.858 918.356 256.245 890.462C254.822 825.704 246.61 761.961 223.526 701.078C214.566 677.446 202.974 655.314 191.568 632.673Z"/><path fill="#FDFDFD" d="M293.718 281.291L295.423 283.608C284.553 322.065 286.365 387.792 295.337 427.308C310.227 492.89 303.802 540.106 298.666 606.563L290.021 729.655C288.326 756.41 287.263 783.201 286.834 810.006C286.518 832.14 286.85 857.241 285.777 879.138C275.219 839.526 281.149 775.122 283.7 733.096L290.02 628.179C290.692 617.12 294.466 575.867 290.704 567.433C273.992 529.963 245.276 495.356 221.837 461.71C216.314 453.781 214.192 448.765 210.441 439.942C214.838 446.288 219.374 453.079 223.899 459.286L227.016 458.117C230.475 464.385 236.602 470.483 241.805 475.378L241.284 475.671C243.536 478.538 249.442 487.797 251.846 491.284C267.78 514.026 282.276 537.743 295.247 562.296C295.176 549.538 293.843 540.292 291.279 527.839C301.931 508.353 297.799 466.925 293.383 445.886C281.099 387.363 279.028 339.406 293.718 281.291Z"/><path d="M223.899 459.286L227.016 458.117C230.475 464.385 236.602 470.483 241.805 475.378L241.284 475.671C236.19 474.655 227.469 463.419 223.899 459.286Z"/><path fill="#FDFDFD" d="M540.588 796.934L542.46 796.935C540.593 800.874 529.046 806.813 525.043 809.697C506.836 822.81 487.966 836.435 471.263 851.4C434.561 884.283 407.916 925.195 384.566 968.122L363.75 968.246C362.244 968.13 362.19 968.091 361.055 967.091C361.56 965.513 362.138 963.959 362.788 962.436C371.879 941.772 383.184 922.155 396.505 903.929C434.844 850.626 480.633 820.791 540.588 796.934Z"/><path fill="#FDFDFD" d="M368.612 511.156C377.195 507.37 383.275 504.395 391.492 499.88C373.923 517.549 362.906 535.547 352.977 558.324C345.848 574.676 347.136 584.189 346.933 601.473C346.701 617.15 346.576 632.828 346.556 648.507C346.754 717.961 358.548 787.004 355.842 856.392C355.587 862.918 346.177 885.95 344.018 894.943L340.854 894.262C334.512 799.042 342.653 700.371 338.979 604.865C336.981 552.947 349.138 553.789 368.612 511.156Z"/><path fill="#FDFDFD" d="M405.557 402.701C406.689 405.26 406.43 406.822 406.928 409.453C411.278 432.448 416.096 441.942 434.466 455.659C417.672 473.538 401.327 488.074 380.263 500.748C372.346 504.566 367.287 506.519 358.963 509.429C357.158 459.739 366.084 434.952 405.557 402.701Z"/><path fill="#FDFDFD" d="M392.904 718.86C410.807 720.108 428.695 721.555 446.566 723.199C421.773 749.515 407.037 770.254 387.101 800.459C383.288 806.185 375.599 821.253 371.456 825.007C367.853 825.068 367.095 825.168 363.636 823.952C362.888 813.325 359.546 783.161 363.299 775.033C371.666 756.913 383.109 736.328 392.904 718.86Z"/><path fill="#FDFDFD" d="M458.591 718.018C458.54 719.823 424.444 774.441 420.179 781.931C394.671 826.722 370.857 875.825 358.366 925.954C355.188 938.709 351.759 961.297 350.046 963.282L348.9 961.215C346.644 953.39 342.938 940.789 343.483 932.699C348.784 854.068 406.862 771.566 458.591 718.018Z"/><path fill="#FDFDFD" d="M155.849 775.154C195.041 821.879 244.817 897.724 243.094 962.06C243.018 964.889 242.414 967.927 240.323 969.989C237.325 970.176 238.199 970.099 235.233 967.874C232.318 960.582 231.706 952.84 229.108 945.139C219.421 916.424 207.802 897.386 188.288 874.728C184.986 838.271 175.663 807.921 154.661 777.446L155.849 775.154Z"/><path fill="#FDFDFD" d="M187.395 633.566C187.869 634.042 188.316 634.544 188.734 635.07C192.399 639.629 202.071 661.184 205.185 667.533C241.091 740.74 251.498 822.48 251.158 903.198C251.074 923.19 252.488 948.054 249.928 968.013L249.809 968.011C249.065 967.145 248.109 947.497 248.299 944.92C249.246 932.13 240.355 914.861 239.84 903.824C235.395 808.528 220.935 722.823 187.395 633.566Z"/><path fill="#FDFDFD" d="M463.269 718.404L465.128 720.018C445.898 758.645 429.999 801.261 413.033 841.003C403.389 862.338 396.155 890.37 384.107 910.386C371.878 930.705 362.587 953.25 350.978 973.22C358.165 949.088 362.167 923.994 370.48 899.467C391.775 836.644 427.085 773.881 463.269 718.404Z"/><path fill="#FDFDFD" d="M535.818 805.946L536.124 806.209C536.231 808.768 512.923 829.643 509.454 832.956C478.394 862.622 447.991 895.871 427.899 934.125C422.203 944.97 417.824 956.703 413.135 968.013L391.341 968.023L390.633 967.089C392.236 958.835 400.846 947.467 405.229 940.14C441.296 879.827 479.131 846.67 535.818 805.946Z"/><path fill="#FDFDFD" d="M352.232 256.467C353.201 261.186 353.972 269.274 352.89 273.981C354.999 301.708 356.76 333.322 370.173 358.62C365.071 369.686 348.505 404.666 347.995 413.943C346.479 441.552 351.923 483.125 354.002 510.861L344.061 514.692C344.208 496.467 343.923 484.441 340.843 465.983C338.316 450.848 333.061 431.308 332.622 416.474C343.077 400.399 353.873 376.17 360.143 357.61C351.247 340.304 351.222 322.45 351.143 303.19C349.902 290.696 351.35 269.25 352.232 256.467Z"/><path fill="#535353" d="M352.232 256.467C353.201 261.186 353.972 269.274 352.89 273.981C351.768 283.235 352.303 295.59 351.143 303.19C349.902 290.696 351.35 269.25 352.232 256.467Z"/><path fill="#FDFDFD" d="M243.368 717.474C254.618 716.82 266.626 716.965 277.945 716.9C276.583 749.441 274.191 779.229 273.731 812.042L273.488 813.379L272.602 812.844C267.709 793.07 262 773.508 255.491 754.206C252.977 746.809 244.535 723.816 243.368 717.474Z"/><path fill="#FDFDFD" d="M448.073 379.929L449.467 380.575C445.16 397.393 437.192 407.608 441.071 426.85C442.433 433.607 445.529 448.211 436.427 449.694C432.511 448.867 429.462 445.473 426.443 442.707C414.917 430.228 411.981 414.617 410.717 398.389C422.802 390.862 434.915 385.246 448.073 379.929Z"/><path fill="#FDFDFD" d="M560.201 873.939C556.36 876.71 551.939 879.574 547.982 882.26L549.175 884.565C548.207 886.424 546.307 888.477 544.093 888.539C537.109 891.633 525.904 899.68 519.098 904.175L517.487 902.301C490.739 919.821 472.69 940.819 456.74 968.073L438.255 968.104C467.483 921.51 509.796 893.908 560.201 873.939Z"/><path d="M517.487 902.301C526.64 895.848 538.413 887.697 547.982 882.26L549.175 884.565C548.207 886.424 546.307 888.477 544.093 888.539C537.109 891.633 525.904 899.68 519.098 904.175L517.487 902.301Z"/><path fill="#FDFDFD" d="M387.323 403.464C413.297 382.063 470.354 361.114 502.552 342.746L502.909 345.192C489.591 353.98 475.706 361.876 461.344 368.828C447.642 375.361 434.163 380.158 420.33 387.299C389.061 403.442 363.434 430.976 355.853 466.073C355.365 468.353 354.952 470.648 354.612 472.954C353.987 465.752 351.832 448.274 353.994 442.192C352.846 440.471 352.679 439.429 352.085 437.423L351.927 429.175L354.213 428.705C355.236 428.044 358.415 423.282 359.267 421.932C364.485 413.662 376.044 403.94 385.619 401.352L387.323 403.464Z"/><path d="M354.213 428.705C355.236 428.044 358.415 423.282 359.267 421.932C364.485 413.662 376.044 403.94 385.619 401.352L387.323 403.464C370.126 417.53 365.303 422.742 353.994 442.192C352.846 440.471 352.679 439.429 352.085 437.423L351.927 429.175L354.213 428.705Z"/><path fill="#E6E6E6" d="M354.213 428.705C355.236 428.044 358.415 423.282 359.267 421.932C364.485 413.662 376.044 403.94 385.619 401.352L385.05 401.928C369.158 417.854 365.941 415.81 352.085 437.423L351.927 429.175L354.213 428.705Z"/><path fill="#FDFDFD" d="M494.232 967.976C509 949.858 544.148 914.892 565.412 908.142L561.845 912.165L562.159 915.345L560.525 916.452C546.382 935.88 539.417 945.769 529.258 968.089L514.672 968.025L511.909 966.608C509.529 969.029 497.872 968.05 494.232 967.976Z"/><path fill="#FDFDFD" d="M514.672 968.025C522.743 952.609 545.85 925.223 560.525 916.452C546.382 935.88 539.417 945.769 529.258 968.089L514.672 968.025Z"/><path d="M511.909 966.608C517.883 950.993 547.917 921.637 561.845 912.165L562.159 915.345L560.525 916.452C545.85 925.223 522.743 952.609 514.672 968.025L511.909 966.608Z"/><path fill="#FDFDFD" d="M519.098 904.175C525.904 899.68 537.109 891.633 544.093 888.539C519.64 914.014 500.309 935.857 484.394 967.984L461.622 967.968C476.767 941.247 493.947 922.254 519.098 904.175Z"/><path fill="#FDFDFD" d="M428.608 262.643L430.442 264.267C428.986 268.892 426.916 273.942 427.319 278.673L429.078 282.153C427.031 283.311 420.941 286.624 419.993 288.43C397.436 331.453 373.175 374.523 356.667 420.317C355.583 423.324 354.531 425.532 354.213 428.705L351.927 429.175C346.598 394.517 392.772 327.592 409.937 298.102C416.706 286.473 423.912 275.562 428.608 262.643Z"/><path fill="#FDFDFD" d="M408.631 678.942C408.764 682.301 383.316 725.249 379.942 731.354C376.511 737.563 363.996 763.153 360.308 767.274C359.123 757.719 358.419 747.504 357.594 737.865C372.106 715.87 390.064 697.43 408.631 678.942Z"/><path fill="#FDFDFD" d="M425.502 831.495C437.764 830.969 450.088 830.915 462.362 830.637C447.067 842.13 432.661 853.488 419.131 867.09C412.713 873.683 406.801 880.876 400.74 887.801C408.107 870.836 412.771 852.255 420.903 835.692C422.241 832.967 422.597 832.476 425.502 831.495Z"/><path fill="#FDFDFD" d="M202.122 765.47C202.513 765.749 202.713 765.869 203.047 766.179C207.581 770.396 211.425 779.074 214.053 784.625C230.807 820.008 232.281 851.196 234.318 889.516C229.633 883.846 221.417 866.081 220.158 858.93C219.047 852.616 220.142 845.426 219.832 838.953C219.398 829.897 217.808 820.605 216.172 811.693C213.213 795.572 207.977 780.7 202.122 765.47Z"/><path fill="#FDFDFD" d="M284.329 414.35C276.973 399.969 261.642 382.946 252.76 368.828C241.795 351.4 234.528 333.298 230.349 313.179C229.603 309.585 227.766 304.433 228.469 301.069C231.795 306.147 235.837 318.805 237.809 325.057L242.365 326.137C242.39 326.498 242.42 326.859 242.454 327.22C244.404 347.532 260.51 379.141 276.006 391.964L280.902 379.166C282.404 388.971 283.341 404.057 284.329 414.35Z"/><path fill="#E6E6E6" d="M434.081 481.815C440.268 481.163 454.6 474.827 460.638 472.881C492.373 462.65 521.802 453.13 545.116 427.966C548.765 424.027 555.449 419.486 560.009 415.045L560.489 415.619C550.145 426.654 535.122 439.802 523.726 450.063C536.866 446.725 548.527 443.221 561.494 439.581C547.428 446.273 529.542 449.62 514.934 455.181C492.009 463.909 459.776 478.636 436.567 484.909L434.081 481.815Z"/><path fill="#E6E6E6" d="M424.578 472.079C423.64 479.812 372.348 535.267 363.339 545.989C365.132 530.104 411.028 484.608 424.578 472.079Z"/><path fill="#E6E6E6" d="M199.877 767.593C212.128 801.561 216.299 818.171 216.547 854.524C206.003 833.388 209.689 796.081 198.709 770.567L199.877 767.593Z"/><path fill="#FDFDFD" d="M361.738 513.024L362.527 513.595C362.716 515.839 344.45 548.562 342.225 552.707C341.053 550.888 343.243 523.679 343.524 518.939C349.32 517.703 356.073 515.045 361.738 513.024Z"/><path fill="#E6E6E6" d="M491.849 887.141L492.139 887.304C489.954 892.469 457.251 931.217 451.023 939.345C443.55 949.097 436.9 959.463 429.591 969.343C428.785 968.414 428.432 968.422 428.486 967.105C429.006 954.33 480.182 898.655 491.849 887.141Z"/><path fill="#FDFDFD" d="M416.091 490.796C426.578 477.312 436.621 463.487 446.203 449.346L448.13 451.029C444.943 457.234 434.92 475.886 434.081 481.815L436.567 484.909C428.98 487.673 425.295 489.766 418.279 493.869L416.091 490.796Z"/><path fill="#FDFDFD" d="M276.821 358.956L277.788 359.873C278.574 363.31 276.107 381.894 275.699 387.341C273.259 384.93 270.649 382.011 268.275 379.475C266.253 375.495 263.051 369.852 262.172 365.656C263.626 363.903 272.049 361.603 276.821 358.956Z"/><path fill="#FDFDFD" d="M228.615 425.109C231.836 435.58 239.918 464.558 241.805 475.378C236.602 470.483 230.475 464.385 227.016 458.117C230.878 447.528 229.376 436.287 228.615 425.109Z"/><path fill="#A7A7A7" d="M293.718 281.291C299.066 264.049 305.841 250.497 313.374 234.26C316.094 228.397 321.163 211.52 324.428 207.067C322.329 215.561 319.387 222.476 316.882 230.635C321.38 224.012 324.602 218.986 331.141 214.044C312.268 240.174 304.669 251.884 295.423 283.608L293.718 281.291Z"/><path fill="#FDFDFD" d="M147.311 818.921C148.288 819.045 148.108 819.112 148.676 819.829C145.799 824.214 141.957 831.099 137.533 833.843C136.022 834.78 134.838 834.081 133.175 833.714C131.057 832.695 129.591 832.283 128.194 830.292C130.962 824.215 141.313 821.453 147.311 818.921Z"/><path fill="#E6E6E6" d="M270.126 512.636C284.578 522.947 290.172 528.233 291.023 546.102C288.189 542.56 273.636 518.159 270.126 512.636Z"/><path fill="#FDFDFD" d="M118.435 797.768C119.432 800.035 118.18 803.743 117.469 806.045C115.256 813.209 110.403 818.508 103.883 822.026C103.585 821.19 103.315 820.319 103.284 819.424C103.04 812.431 113.574 802.41 118.435 797.768Z"/><path fill="#E6E6E6" d="M472.313 259.201C460.125 268.69 443.311 275.628 429.078 282.153L427.319 278.673C442.432 272.451 457.432 265.96 472.313 259.201Z"/><path fill="#E6E6E6" d="M510.575 301.939C510.891 303.589 508.459 308.373 507.492 309.679C501.641 317.578 490.377 345.223 482.821 348.514C482.784 344.566 506.685 307.162 510.575 301.939Z"/><path fill="#E6E6E6" d="M451.698 387.775C451.951 390.051 447.688 405.9 446.975 409.894C445.711 416.982 450.433 434.68 447.874 438.539C439.918 425.362 445.522 401.143 451.698 387.775Z"/><path fill="#E6E6E6" d="M174.946 792.6C175.603 792.901 176.206 793.253 176.795 793.673C184.227 798.974 204.317 824.718 205.71 833.33C200.83 830.602 180.247 799.614 174.946 792.6Z"/><path fill="#E6E6E6" d="M237.809 325.057C238.045 319.836 238.836 295.419 240.132 292.4C241.483 301.586 242.216 316.811 242.365 326.137L237.809 325.057Z"/><path fill="#E6E6E6" d="M428.608 262.643C431.165 255.638 434.396 237.503 435.528 235.548L436.219 240.881L438.49 242.134C435.754 249.065 432.295 257.175 430.442 264.267L428.608 262.643Z"/><path fill="#E6E6E6" d="M456.469 338.73C457.04 341.865 456.459 350.762 456.16 354.248C455.676 359.905 455.552 359.893 451.897 362.974C450.222 357.998 454.85 344.123 456.469 338.73Z"/><path fill="#E6E6E6" d="M446.203 449.346C449.429 444.581 461.828 426.257 465.989 424.417C460.45 433.439 453.677 441.981 448.13 451.029L446.203 449.346Z"/><path fill="#FDFDFD" d="M355.437 718.644C358.489 718.61 360.395 718.355 363.234 719.501C363.356 722.488 362.019 723.088 359.807 726.036C359.065 727.324 358.525 727.614 357.375 728.509C355.56 726.349 355.748 721.932 355.437 718.644Z"/><path fill="#FDFDFD" d="M81.1666 803.591C84.8378 806.511 86.9392 813.203 88.8512 817.43C86.3352 816.825 84.3991 816.255 82.2075 814.78C80.2713 811.989 81.0558 806.929 81.1666 803.591Z"/><path fill="#E6E6E6" d="M502.552 342.746C505.052 341.28 520.287 331.708 521.698 331.507C515.757 336.651 509.754 341.275 502.909 345.192L502.552 342.746Z"/><path fill="#878785" d="M436.219 240.881L436.724 240.127C440.852 233.906 441.819 229.452 446.584 223.357C444.74 227.928 440.793 238.379 438.49 242.134L436.219 240.881Z"/><path fill="#E6E6E6" d="M122.552 814.991L123.288 815.755C119.997 819.392 116.651 822.598 112.937 825.791C112.136 824.928 111.869 824.132 111.456 823.05C113.922 819.409 118.826 817.204 122.552 814.991Z"/><path fill="#E6E6E6" d="M362.819 829.354C364.571 829.542 366.268 829.909 367.99 830.272L368.495 831.724L365.853 836.521C365.325 837.411 364.655 838.077 363.955 838.831C362.464 836.682 362.928 832.065 362.819 829.354Z"/><path fill="#E6E6E6" d="M408.337 499.569C411.139 495.978 412.868 494.013 416.091 490.796L418.279 493.869C416.008 495.912 411.246 498.088 408.337 499.569Z"/><path fill="#E6E6E6" d="M463.269 718.404C464.951 715.744 467.43 711.104 469.927 709.692C469.573 713.101 466.925 716.946 465.128 720.018L463.269 718.404Z"/><path fill="#A7A7A7" d="M1052.95 694.692C1057.38 693.586 1063.94 693.977 1068.66 694.037L1053.89 696.962L1052.95 694.692Z"/><path fill="#878785" d="M195.881 757.494L199.877 767.593L198.709 770.567C197.457 766.642 196.12 762.953 194.703 759.084L195.881 757.494Z"/><path fill="#A7A7A7" d="M154.661 777.446C152.617 774.76 150.629 772.6 149.85 769.325C152.558 770.35 153.737 772.631 155.849 775.154L154.661 777.446Z"/><path fill="#E6E6E6" d="M340.854 894.262L344.018 894.943C343.445 898.14 343.323 898.723 341.978 901.726C340.585 899.536 340.991 897.221 340.854 894.262Z"/><path fill="#535353" d="M194.703 759.084C193.435 756.118 193.232 755.282 192.592 752.23L193.473 752.307L195.881 757.494L194.703 759.084Z"/><path fill="#FDFDFD" d="M1965.25 59.8379L1966.47 60.2818C1966.44 62.6183 1927.59 122.628 1923.01 129.117C1919.33 126.736 1915.31 123.795 1911.67 121.261C1907.69 118.149 1902.67 113.258 1898.85 109.75C1914.57 94.4388 1945.99 69.0213 1965.25 59.8379Z"/><path fill="#FDFDFD" d="M1922.51 894.042C1930.34 902.19 1938.47 918.907 1944.96 928.992C1953.02 941.495 1962.08 953.42 1969.72 966.167C1963.31 962.761 1957.41 959.005 1951.47 954.827C1933.31 941.405 1914.42 928.609 1897.16 914.036C1905.16 906.575 1913.35 900.033 1922.51 894.042Z"/><path fill="#FDFDFD" d="M77.2528 57.4738C87.199 57.8987 135.538 100.502 145.665 109.078L135.355 118.966C131.124 122.498 126.258 125.752 121.724 128.928C106.727 105.448 91.9947 81.1702 77.2528 57.4738Z"/><path fill="#FDFDFD" d="M72.2072 60.5045C76.3568 61.6422 88.5466 83.3151 91.4525 88.0196C100.284 102.455 109.317 116.767 118.548 130.951C116.304 132.363 113.201 134.001 110.83 135.346C104.088 138.531 97.7605 140.765 90.7617 143.317C84.0663 122.499 74.8072 82.1654 72.2072 60.5045Z"/><path fill="#FDFDFD" d="M122.778 894.324C131.857 898.246 139.915 906.498 146.939 913.204C128.694 928.286 110.391 942.582 91.0387 956.218C85.5426 960.079 79.9191 963.592 74.149 967.028C79.9084 956.607 88.3561 947.164 95.1662 937.348C104.861 923.375 113.703 908.709 122.778 894.324Z"/><path fill="#FDFDFD" d="M91.091 879.317C100.969 882.253 109.953 886.297 118.977 891.25C109.865 908.99 97.646 925.972 86.2043 942.279L72.3089 960.744C74.7768 933.541 84.0688 905.702 91.091 879.317Z"/><path fill="#FDFDFD" d="M119.868 134.935C122.546 136.083 138.061 161.681 140.665 165.882C131.381 171.649 121.685 176.724 111.656 181.067C108.455 182.414 107.693 182.75 104.197 183.343C100.751 178.836 93.9285 154.003 91.9416 147.242C101.658 144.137 111.019 140.011 119.868 134.935Z"/><path fill="#FDFDFD" d="M1901.87 859.783C1905.96 861.693 1917.75 885.11 1920.68 890.308C1911.57 896.189 1903.29 905.747 1893.91 910.549L1891.71 909.288L1868.9 888.918C1878.91 877.679 1889.7 868.56 1901.87 859.783Z"/><path fill="#FDFDFD" d="M148.886 111.815C157.452 119.32 166.95 126.316 175.827 134.08C166.527 144.972 158.541 151.893 147.734 160.956L145.076 162.351C140.543 159.947 127.245 137.7 123.789 132.274C133.689 125.793 140.474 120.039 148.886 111.815Z"/><path fill="#FDFDFD" d="M1924.19 134.467C1933.45 140.279 1942.62 143.644 1952.85 147.298C1949.51 158.597 1946.03 171.478 1941.87 182.376C1939.21 183.405 1939.01 182.675 1935.75 181.549C1924.42 177.055 1914.56 171.644 1903.98 165.776C1910.89 156.491 1918.3 144.378 1924.19 134.467Z"/><path fill="#FDFDFD" d="M1952.24 880.047C1957.26 884.577 1972.18 953.126 1973.35 963.681C1970.07 958.474 1966.5 953.458 1962.98 948.413C1950.34 929.567 1938.02 910.501 1926.04 891.223C1934.7 887.226 1943.3 883.374 1952.24 880.047Z"/><path fill="#FDFDFD" d="M102.684 839.35C115.894 844.164 127.724 850.155 139.561 857.708C134.77 866.464 129.826 874.982 124.463 883.406L122.229 886.321C116.855 887.748 98.0476 877.443 92.2609 875.195C95.4666 863.17 98.9418 851.219 102.684 839.35Z"/><path fill="#FDFDFD" d="M1971.85 61.9851C1974.25 67.1193 1956.46 134.284 1953.83 143.624C1947.19 141.244 1941.82 138.889 1935.38 136.001L1926.64 131.367C1940.31 109.973 1957.19 81.9866 1971.85 61.9851Z"/><path fill="#FDFDFD" d="M143.024 860.369C155.849 866.501 167.647 879.051 177.36 889.21L155.743 906.176L149.925 910.779C142.254 903.138 134.029 896.699 125.003 890.731C131.169 880.705 137.176 870.583 143.024 860.369Z"/><path fill="#FDFDFD" d="M1895.17 112.647C1896.81 113.302 1916.19 129.42 1920.34 132.319C1916.8 138.54 1905.68 159.177 1900.91 162.698L1899.21 162.133C1886.53 153.807 1879.99 147.004 1869.79 136.19C1878.17 128.26 1886.63 120.412 1895.17 112.647Z"/><path fill="#FDFDFD" d="M1941.54 840.067C1945.15 844.494 1950.86 868.851 1952.87 875.76C1944.46 878.066 1931.61 886.51 1924.05 886.612L1922.35 884.555C1916.75 875.435 1911.29 866.231 1905.98 856.947C1917.44 849.977 1929.09 844.934 1941.54 840.067Z"/><path fill="#FDFDFD" d="M1941.82 50.5469C1948.52 50.1314 1956.31 50.1635 1963.1 50.0319C1959.91 51.2655 1956.53 52.3679 1953.24 53.2773C1928.59 60.0795 1905.18 68.6377 1881.27 77.6215L1878.44 78.4565C1873.01 75.4573 1868.97 57.145 1867.34 50.911C1892.17 51.0424 1916.99 50.921 1941.82 50.5469Z"/><path fill="#FDFDFD" d="M83.6957 53.8804C101.566 56.7802 148.172 75.8279 165.644 82.9351L157.179 95.9249C154.767 99.2093 151.426 102.945 148.744 106.106C145.783 103.949 142.279 101.028 139.574 98.5719C121.926 82.5483 101.938 68.9234 83.6957 53.8804Z"/><path fill="#FDFDFD" d="M1874.16 84.9656C1875.73 85.5293 1889.63 105.371 1893.08 108.935C1887.45 114.323 1872.16 129.26 1866.47 132.395C1856.78 121.344 1850.95 109.992 1844.69 96.8989C1852.21 94.3886 1866.39 88.0912 1874.16 84.9656Z"/><path fill="#FDFDFD" d="M1894.24 917.615C1900.67 920.967 1907.37 927.363 1913.27 931.753C1929.32 943.681 1946.04 955.21 1961.45 967.914L1949.79 964.156C1925.77 956.922 1901.86 949.671 1878.36 940.855C1882.64 932.505 1888.41 924.924 1894.24 917.615Z"/><path fill="#FDFDFD" d="M1866.27 891.641C1874.84 896.228 1884.04 908.002 1890.91 915.166C1886.88 920.416 1878.75 935.344 1874.25 938.247C1873.02 939.038 1872.02 938.4 1870.67 938.071C1861.34 934.328 1852.2 930.104 1843.03 925.992C1849.57 913.482 1857.08 902.347 1866.27 891.641Z"/><path fill="#FDFDFD" d="M89.3816 50.4576C114.946 49.2417 152.13 50.622 178.39 50.7438C176.252 58.6654 175.171 62.941 171.737 70.3175C170.396 73.49 168.893 76.0373 167.202 79.0235C151.591 72.6292 136.489 66.5334 120.61 60.818C111.238 57.445 97.8864 54.1504 89.3816 50.4576Z"/><path fill="#FDFDFD" d="M182.248 50.9267L215.547 51.1371C211.628 68.0723 209.494 76.3185 202.487 92.5653C199.084 93.0684 176.518 82.6413 171.452 80.3873C176.83 69.2591 179.561 62.9311 182.248 50.9267Z"/><path fill="#FDFDFD" d="M179.982 892.907C189.362 900.008 196.63 916.872 202.187 927.312L173.222 937.22C172.351 937.615 171.113 937.591 170.155 937.697C164.454 932.881 158.061 920.371 152.93 913.983C161.774 906.681 170.713 899.664 179.982 892.907Z"/><path fill="#FDFDFD" d="M91.2041 969.282C114.508 963.479 144.822 952.12 167.826 943.856C171.486 952.673 175.041 960.993 177.974 970.106C157.526 970.369 136.367 971.274 116.072 971.131C110.449 972.078 91.1298 972.394 85.7542 971.124L86.1852 970.161L91.2041 969.282Z"/><path fill="#E6E6E6" d="M116.072 971.131C110.449 972.078 91.1298 972.394 85.7542 971.124L86.1852 970.161L91.2041 969.282L92.0272 970.664C99.0346 971.109 110.435 970.288 116.072 971.131Z"/><path fill="#FDFDFD" d="M1841.08 930.018L1872.29 943.008C1869.96 948.316 1865.05 968.762 1861.04 970.919L1828.2 970.999C1830.93 956.475 1835.64 943.672 1841.08 930.018Z"/><path fill="#FDFDFD" d="M1831.04 50.8643L1863.67 50.8212C1866.17 63.1604 1868.39 69.1026 1873.23 80.8126L1863.58 85.0021L1843.41 93.6006C1836.65 78.1931 1834.22 67.0094 1831.04 50.8643Z"/><path fill="#FDFDFD" d="M1977.72 831.373C1979.64 831.247 1979.73 831.015 1981.26 832.339C1983.82 843.708 1981.97 858.786 1981.79 870.598C1973.65 870.983 1965.62 873.153 1957.55 874.303L1956 872.772C1952.9 861.341 1949.07 850.09 1945.45 838.816C1955.94 835.275 1966.74 832.782 1977.72 831.373Z"/><path fill="#FDFDFD" d="M1956.7 148.483C1965.36 150.415 1973.05 152.134 1981.87 153.432C1981.93 161.374 1982.51 184.742 1981.04 190.971C1978.19 192.346 1975.18 191.567 1971.89 191.197C1962.53 189.37 1954.53 187.278 1945.36 184.837C1949.52 172.841 1953.3 160.717 1956.7 148.483Z"/><path fill="#FDFDFD" d="M169.698 84.3649C179.582 88.1042 190.461 92.8321 200.32 96.8745C193.937 109.411 188.478 117.353 180.28 128.527L178.899 129.63C174.664 129.346 156.449 112.851 151.944 108.94C158.815 100.17 163.839 93.9412 169.698 84.3649Z"/><path fill="#FDFDFD" d="M1956.56 57.0665L1958.65 57.4411C1957.53 59.7452 1954.02 61.285 1951.67 62.7663C1931.61 75.3926 1913.93 91.0197 1895.93 106.41L1890.84 100.305C1886.36 94.5211 1882.96 89.3516 1878.94 83.2184C1904.32 73.0935 1930.23 64.3632 1956.56 57.0665Z"/><path fill="#FDFDFD" d="M149.275 916.818C155.126 919.535 162.466 934.5 165.663 940.016C143.757 948.624 121.172 955.881 98.6156 962.579C92.4739 964.444 86.4088 966.685 80.3374 968.773C104.391 952.928 127.417 935.575 149.275 916.818Z"/><path fill="#FDFDFD" d="M85.2211 149.227C85.7113 149.117 87.2146 149.282 87.8115 149.325C89.8689 152.652 97.6675 179.413 99.5664 185.315C92.2549 187.621 86.4145 189.06 78.9261 190.766L64.0035 193.084L64.0147 153.306C71.0525 152.389 78.2528 150.713 85.2211 149.227Z"/><path fill="#FDFDFD" d="M200.785 932.075L203.317 931.947C209.835 938.711 213.758 960.081 216.077 969.7L186.75 969.973L184.52 969.938C179.193 966.639 174.301 948.307 171.772 942.127L200.785 932.075Z"/><path fill="#FDFDFD" d="M1876.4 944.319C1883.98 947.162 1955.99 971.143 1956.38 971.605L1952.25 971.845C1923.9 970.627 1895.58 970.842 1867.22 970.952C1869.85 961.866 1873 953.135 1876.4 944.319Z"/><path fill="#FDFDFD" d="M64.1129 831.707C75.5791 832.263 87.0759 835.398 98.1915 838.132L90.1013 867.303L88.4978 871.86C82.7246 875.235 70.9248 871.104 64.0379 870.323L64.1129 831.707Z"/></svg>