<?xml version="1.0" encoding="utf-8" ?><svg xmlns="http://www.w3.org/2000/svg" xmlns:xlink="http://www.w3.org/1999/xlink" width="2048" height="1024" viewBox="0 0 2048 1024"><path fill="#1A1817" d="M416.802 687.461C305.517 695.087 219.945 661.315 147.462 575.549C27.1683 433.21 67.3214 234.427 206.958 122.248C282.155 62.2683 377.833 34.089 473.536 43.7352C548.998 51.9663 619.152 83.2013 673.251 136.945C684.775 148.393 695.865 162.12 706.041 174.784C778.272 192.397 837.886 221.68 887.823 278.377C930.648 326.999 959.732 392.023 965.147 456.743C967.074 479.781 966.043 498.275 964.67 521.096C987.707 533.965 1006.96 546.108 1024.5 566.289C1055.59 602.042 1072.81 641.661 1078.08 688.52L1129.98 715.589C1143.42 605.314 1041.11 557.011 1057 454.643C1064.47 406.547 1114.9 371.485 1127.07 325.798C1133.65 301.078 1128.7 274.151 1115.89 252.229L1114.68 254.353C1129.77 293.995 1122.33 344.932 1088.39 372.665C1066.51 341.419 1082.27 313.75 1092.18 281.969C1101.68 251.532 1095.53 231.259 1080.55 204.474C1106.62 226.042 1123.62 240.588 1133.86 274.225C1160.32 361.16 1054.36 400.406 1062.62 484.603C1067.13 530.497 1089.93 559.767 1110.79 599.01C1122.77 622.381 1131.35 650.688 1136.57 676.577C1140.08 694.036 1136.44 708.19 1137.28 724.872C1162.41 649.026 1100.27 576.709 1100.27 501.371C1100.27 470.133 1104.59 442.635 1127.07 419.301C1163.22 381.794 1228.42 368.998 1268.88 406.543C1295.87 431.373 1292.03 477.07 1255.6 490.307C1246.99 493.439 1238.8 493.168 1229.88 493.077C1256.52 502.507 1288.76 496.463 1306.73 473.81C1331.16 443.827 1322.71 401.708 1293.02 378.509C1244.99 340.989 1172.57 350.259 1129.5 391.072C1122.66 397.557 1115.87 407.408 1109.84 414.934C1110.52 413.227 1111.23 411.535 1111.97 409.857C1147.21 330.458 1288.55 323.313 1324.29 406.518C1340.08 443.283 1320.6 487.597 1282.72 500.671C1252.24 511.192 1209.6 506.605 1197.07 471.686C1186.42 446.069 1217.7 413.287 1243.13 426.559C1259.23 434.962 1257.17 454.1 1239.35 458.611C1235.74 459.562 1231.89 459.008 1228.7 457.076C1225.45 455.081 1223.18 451.825 1222.43 448.089C1221.24 441.968 1224.99 437.546 1231.04 436.861C1237.9 436.086 1238.6 441.196 1242.73 444.531C1244.09 442.237 1243.82 441.471 1243.51 438.769C1240.02 431.909 1227.32 431.76 1221.57 434.626C1198.94 445.903 1208.09 477.209 1229.14 482.941C1265.61 492.872 1290.21 451.939 1270.87 421.679C1246.38 383.359 1188.29 385.987 1153.62 407.905C1059.92 466.977 1139.86 592.254 1148.1 674.286C1149.83 691.508 1147.51 706.876 1143.45 723.221C1154 728.801 1164.48 734.51 1174.89 740.346C1199.67 727.193 1223.67 712.594 1248.2 699.049C1321.1 658.79 1396.23 608.089 1483.27 612.679C1518.17 614.52 1554.88 624.881 1579.09 651.475C1601.7 675.482 1603.96 714.796 1578.05 737.632C1549.67 762.637 1500.14 764.43 1473.87 735.283C1460.65 720.608 1458.95 697.842 1475.02 684.667C1490.64 672.123 1515.11 669.627 1529.48 685.667C1537.08 694.149 1529.5 708.205 1518.11 707C1512.94 706.453 1511.33 701.875 1512.4 697.159C1516.71 693.109 1522.69 697.171 1525.82 692.107C1521.04 667.706 1474.21 678.014 1468.19 701.451C1459.71 734.518 1499.53 754.347 1527.05 752.022C1550.83 750.013 1578.42 735.86 1585.81 711.781C1589.04 701.055 1587.83 689.477 1582.43 679.66C1573.44 662.926 1551.76 649.961 1534.05 645.132C1415.65 612.854 1313.1 713 1220.42 762.883C1261.77 784.002 1316.59 806.164 1360.33 820.105C1503.78 867.308 1659.18 863.215 1799.94 808.526C1849.55 789.774 1935.87 753.947 1959.94 703.562C1986.93 647.054 1909.32 612.551 1864.54 632.293C1835.59 645.057 1818.27 675.909 1852.94 694.172C1871.15 703.768 1900.19 682.967 1877.49 671.396C1875.14 670.2 1868.51 671.567 1867.6 675.558C1869.16 678.292 1873.32 680.45 1876.16 682.244L1876.1 683.959L1876.83 683.393L1876.34 682.433L1875.25 684.18C1873.15 684.488 1870.09 684.683 1867.96 684.347C1865.72 683.98 1863.74 682.675 1862.52 680.759C1856.15 670.624 1875.69 665.755 1881.43 668.603C1912.49 684.003 1871.04 709.054 1849.77 696.751C1832.44 686.729 1822.57 670.881 1832.43 652.406C1851.76 616.193 1906.65 616.024 1938.77 632.892C1969.18 647.966 1984.33 680.127 1965.45 710.459C1923.71 777.544 1816.98 821.418 1746.1 843.969C1585.52 895.057 1417.71 877.031 1265.7 808.237C1244.18 798.648 1217.47 787.116 1196.79 775.954C1174.04 787.272 1151.02 798.035 1127.74 808.234C1126.19 821.414 1126.27 831.233 1129.96 844.06C1143.18 889.996 1181.49 937.641 1234.2 931.338C1251.59 929.258 1268.76 921.133 1279.61 907.096C1287.83 896.487 1291.42 883.008 1289.56 869.717C1287.54 855.945 1279.97 844.565 1268.73 836.523C1256.91 827.937 1242.13 824.467 1227.72 826.896C1198.21 832.146 1186.44 867.446 1209.77 882.308C1216.77 886.773 1225.29 888.203 1233.36 886.27C1259.51 879.79 1252.69 846.67 1228.65 852.509C1220.98 854.373 1219.73 860.702 1222.25 867.631C1226.84 868.207 1226.6 862.569 1233.98 861.402C1235.29 862.144 1236.17 862.571 1236.96 863.884C1238.02 865.537 1238.24 866.901 1237.45 868.776C1236.98 873.275 1225.81 875.396 1222.81 872.39C1199.96 849.529 1248.25 835.463 1254.23 863.884C1256.69 875.582 1244.22 889.351 1231.51 891.124C1221.34 892.543 1211.92 890.629 1203.36 884.584C1187.53 873.503 1186.44 852.622 1197.73 837.786C1205 828.227 1214.14 823.529 1225.96 821.739C1242.56 819.234 1259.48 823.371 1273.06 833.253C1327.25 873.441 1280.75 940.748 1222.43 940.129C1152.93 939.391 1101.74 888.506 1093.77 821.43C1075.67 827.923 1064.08 830.805 1045.54 835.094C1014.86 877.003 987.056 904.545 939.556 927.936C928.273 933.492 917.722 937.556 906.112 942.392C899.387 945.446 892.94 950.76 886.313 953.788C805.422 990.744 723.26 984.181 648.002 935.865C593.595 901.461 555.439 846.491 542.233 783.488C483.096 754.679 458.352 738.094 416.802 687.461Z"/><path fill="#A9A4A3" d="M1108.49 241.735C1112.12 245.889 1113.15 247.432 1115.89 252.229L1114.68 254.353L1108.49 241.735Z"/><path fill="#FEFEFE" d="M388.781 667.598C369.126 666.23 348.966 665.001 329.612 661.126C197.32 634.639 93.0528 506.506 100.124 370.663C104.17 292.928 146.424 207.808 204.167 155.135C271.15 93.3207 359.953 60.6578 451.026 64.3368C541.257 68.6954 612.385 104.085 672.66 170.515C623.915 163.595 579.862 173.044 534.346 189.285C531.699 176.683 528.615 159.181 533.492 146.843C536.527 139.162 540.436 137.679 547.415 134.648L545.972 133.247C516.971 127.417 519.245 163.731 513.627 179.929C506.206 201.328 474.651 213.778 463.315 234.182C458.505 242.841 457.085 246.487 453.985 256.078L448.187 251.082C450.134 184.921 394.444 174.829 389.049 140.449C387.587 131.135 389.934 127.951 395.132 120.955L393.509 120.215C365.965 124.608 384.491 161.591 383.017 177.923C379.493 216.985 356.397 237.098 377.202 276.292L375.903 277.89C369.973 272.562 370.019 278.924 364.915 269.732C358.66 258.466 349.177 246.695 338.262 239.588C327.172 232.336 315.08 226.747 302.37 223.001C285.346 217.885 264.462 215.749 249.746 205.496C243.153 200.902 242.956 192.231 241.995 184.643L240.974 184.636C236.959 187.447 234.244 192.636 235.257 197.553C239.124 216.316 259.105 223.775 268.595 240.268C281.79 263.198 280.793 291.966 299.982 311.735C302.761 314.605 314.033 321.953 318.316 325.189C313.725 327.526 315.144 326.112 312.883 330.997C309.142 330.715 301.697 321.932 296.844 319.468C284.021 312.96 275.048 311.272 261.238 310.018C230.23 307.204 203.914 323.576 174.227 323.262C164.64 323.161 160.338 319.151 154.715 312.508C153.453 312.991 153.071 314.025 152.342 315.232C152.192 317.85 153.224 319.417 154.842 321.44C168.024 337.915 189.634 336.077 204.732 346.35C222.755 358.612 234.338 379.956 255.333 389.709C268.629 395.885 279.83 393.916 293.907 395.423C295.716 397.207 295.851 397.27 296.76 399.59L295.718 401C290.707 402.328 286.698 400.333 281.806 400.309C258.745 400.196 235.639 411.697 219.684 427.919C202.77 445.116 188.777 469.472 162.371 472.32C158.344 472.755 154.763 472.318 151.647 469.584C150.897 468.925 150.159 468.252 149.435 467.565L149.125 467.263L148.446 468.762C156.297 493.021 189.318 473.954 207.057 475.193C239.059 477.426 271.095 491.687 301.397 473.684C307.127 470.279 314.015 458.645 320.496 459.898L321.645 461.625C318.34 463.015 318.634 462.312 316.922 464.901C317.549 466.251 318.141 467.618 318.698 468.998C316.499 470.35 314.033 472.033 311.844 473.244C285.826 487.648 270.836 514.354 268.171 543.57C266.808 556.351 266.568 569.028 264.464 581.754C262.751 592.118 257.58 611.254 243.29 607.671C241.999 607.347 242.356 607.514 241.14 607.96C242.365 612.189 251.6 614.765 255.548 614.177C271.838 611.749 274.971 591.441 283.324 580.429C289.309 572.758 301.654 568.341 310.574 564.954C341.474 553.221 370.712 535.753 366.899 497.862C377.707 504.447 382.837 507.474 394.865 511.182C391.888 512.678 388.664 514.087 385.618 515.475C383.011 510.513 382.508 507.596 376.801 506.678C370.715 508.548 367.624 512.879 367.441 519.158C368.832 522.557 367.888 521.469 370.929 523.328C376.125 523.265 374.257 523.63 379.013 520.819L380.076 521.361C355.454 562.097 362.878 592.582 385.407 630.367C392.379 642.061 393.145 654.596 388.781 667.598Z"/><path fill="#FEFEFE" d="M722.097 202.633C798.605 222.545 863.927 272.318 903.426 340.801C918.638 366.828 928.859 394.316 936.219 423.419C916.881 404.16 898.595 389.022 869.95 389.002C846.211 388.985 825.221 398.389 807.827 414.304C847.587 403.236 848.548 418.29 880.754 429.29C900.02 435.87 918.583 435.796 938.597 433.715C941.633 459.139 944.865 485.533 941.016 511.061C896.747 498.929 853.373 502.734 813.106 525.725C778.884 544.925 753.846 577.109 743.651 615.001C740.333 627.187 739.111 638.998 738.452 651.576C695.678 677.115 656.667 714.618 643.954 764.386C642.511 770.144 641.198 775.935 640.018 781.754C612.839 779.331 587.372 774.594 561.445 765.895C557.572 740.271 556.36 714 560.585 688.319C561.819 680.815 563.832 672.905 567.172 666.052C572.946 654.208 584.463 644.211 576.226 630.794C586.302 618.595 602.642 611.83 615.307 602.419C636.239 586.865 653.515 567.891 669.391 547.357C671.876 549.355 675.649 553.341 678.819 553.402C680.085 551.512 679.34 549.986 678.895 547.801C678.253 544.653 677.109 541.592 676.038 538.569C696.381 516.062 715.424 491.64 729.058 464.498C763.447 447.312 797.41 434.691 835.727 429.732L834.792 427.689C799.542 430.841 765.105 440.081 733.012 454.998C763.786 382.408 764.177 300.512 734.097 227.632C730.575 219.078 726.568 210.732 722.097 202.633Z"/><path fill="#656565" d="M834.792 427.689C844.088 425.543 855.152 426.369 864.686 426.58C859.345 429.252 842.406 429.2 835.727 429.732L834.792 427.689Z"/><path fill="#FEFEFE" d="M427.592 289.408C454.488 288.057 485.832 300.184 506.008 317.687C528.961 337.598 540.66 364.334 542.697 394.508C544.634 423.211 533.708 451.555 514.881 473.019C493.328 497.593 466.765 507.929 434.738 509.983C404.423 509.902 378.163 501.231 355.076 481.185C334.183 463.045 318.914 434.675 317.127 406.873C315.364 379.471 325.638 349.986 343.783 329.432C366.611 303.573 393.488 291.444 427.592 289.408Z"/><path fill="#131211" d="M427.888 302.396C481.426 301.053 525.899 343.398 527.182 396.938C528.464 450.477 486.069 494.903 432.528 496.125C379.073 497.345 334.733 455.033 333.452 401.578C332.172 348.124 374.435 303.737 427.888 302.396Z"/><path fill="#FEFEFE" d="M419.697 411.741C412.192 419.305 403.98 425.562 420.158 428.204C428.821 429.619 449.316 427.981 453.986 420.04C452.159 409.227 437.394 412.689 439.368 388.128C439.92 380.504 442.564 373.181 447.008 366.962C461.619 346.515 486.748 344.106 508.15 354.611C508.013 353.218 506.421 351.966 505.265 351.169C488.339 339.498 457.771 346.681 445.71 362.443C442.851 366.179 441.291 370.184 438.64 373.938C437.912 370.697 442.453 358.51 444.728 356.281C480.872 320.856 515.24 341.129 522.703 383.807C526.927 407.954 521.36 432.79 507.232 452.824C493.76 471.864 470.627 485.362 447.759 489.221C421.956 493.567 395.483 487.471 374.179 472.276C355.093 458.551 340.864 437.589 337.54 414.228C336.829 409.228 335.089 395.45 337.232 391.149C338.826 391.284 339.187 391.185 340.608 391.951C352.37 399.612 379.425 401.357 392.987 398.95C399.578 397.78 407.068 395.112 415.049 393.719C380.09 374.199 376.591 399.787 342.196 390.719C335.871 386.282 335.683 379.971 340.334 373.949C353.646 356.712 385.078 356.339 401.24 369.647C415.161 380.804 419.313 395.038 419.697 411.741Z"/><path fill="#131211" d="M441.49 438.301C450.38 436.421 454.677 443.934 460.945 443.746C464.211 443.648 467.317 441.207 470.785 441.911C472.249 442.207 472.376 442.911 473.173 444.091C470.783 446.834 465.548 446.322 462.342 448.964C457.171 453.227 454.804 460.515 449.317 464.586C443.86 468.635 438.891 468.572 432.393 467.728C424.221 464.147 419.38 459.754 413.388 453.388C410.602 453.681 407.77 454.028 404.97 454.097C401.781 454.175 400.455 452.62 398.383 450.6L398.427 448.945C401.427 447.954 404.717 450.002 407.754 449.533C412.098 448.861 418.591 442.415 423.227 440.707C428.919 438.609 434.882 441.195 440.704 438.659C440.968 438.544 441.228 438.421 441.49 438.301Z"/><path fill="#FEFEFE" d="M441.394 449.394C441.624 449.327 441.849 449.244 442.082 449.193C445.883 448.362 451.644 447.596 454.941 449.775C454.699 451.811 454.531 452.333 453.117 453.854C448.43 458.896 441.007 459.947 434.486 460.26C428.882 459.268 423.438 458.781 419.412 454.302L419.769 452.734C426.424 448.838 434.083 452.037 440.779 449.636C440.986 449.562 441.189 449.475 441.394 449.394Z"/><path fill="#FEFEFE" d="M441.781 441.212C446.66 439.4 454.941 443.876 459.59 445.695C449.539 445.656 437.516 449.015 427.992 446.54C422.556 448.391 417.02 449.983 411.528 451.661C415.836 447.924 420.011 444.859 424.967 442.029C430.995 442.442 435.933 443.264 441.781 441.212Z"/><path fill="#FEFEFE" d="M448.967 460.421C448.508 461.261 448.203 461.795 447.472 462.424C443.184 466.115 436.306 465.419 431.231 464.592L430.33 463.697C434.412 461.267 443.885 461.717 448.967 460.421Z"/><path fill="#131211" d="M467.175 379.28C477.381 377.125 490.728 378.508 498.726 375.767L499.46 375.521C507.017 372.951 511.745 368.697 518.376 365.342C508.928 375.768 493.391 388.924 479.073 391.287C467.446 392.992 454.788 390.058 440.941 392.098C450.492 384.775 455.897 382.087 467.175 379.28Z"/><path fill="#FEFEFE" d="M417.604 308.291C423.906 307.493 430.916 307.422 437.258 307.822C464.023 309.51 485.291 321.963 502.769 341.784C495.472 338.747 488.537 336.499 480.522 336.253C468.473 335.883 456.18 339.922 447.444 348.38C439.066 356.493 435.65 366.832 435.412 378.295C435.249 386.116 434.815 402.107 439.382 408.396C442.04 412.055 446.182 414.954 449.356 418.245L449.208 420.057C446.794 421.423 445.121 420.823 442.586 420.847C439.262 420.879 438.785 421.868 436.556 424.053C430.959 427.761 429.029 422.936 423.662 422.25C422.553 423.542 421.307 425.317 419.611 425.81C418.168 426.229 416.791 425.132 415.468 424.504C414.195 420.61 420.571 414.869 422.001 410.941C424.886 403.013 419.099 379.699 415.368 371.751C410.544 361.474 402.265 353.82 391.567 349.97C377.278 344.828 362.464 347.335 349.053 353.515C350.376 351.377 351.789 349.296 353.287 347.277C369.201 325.529 391.063 312.42 417.604 308.291Z"/><path fill="#FEFEFE" d="M370.588 350.336C379.072 349.875 387.86 351.082 395.458 355.074C406.034 360.631 410.966 369.079 414.499 379.996C408.646 372.571 403.196 366.884 395.167 361.781C390.245 359.75 385.279 358.22 379.989 357.554C364.966 355.662 352.772 360.17 341.085 369.202C343.074 364.715 345.164 360.273 347.354 355.88C355.029 352.98 362.436 351.206 370.588 350.336Z"/><path fill="#FEFEFE" d="M540.3 213.352C585.923 191.661 642.221 186.749 691.724 195.6C735.737 262.528 751.399 344.184 735.274 422.647C733.039 433.35 729.256 449.1 725.06 458.846C690.311 475.559 672.556 484.947 642.067 509.579C625.029 494.056 616.647 475.519 600.564 459.31C591.154 449.825 578.435 446.325 566.521 441.349C564.935 440.678 564.194 435.154 560.993 432.346L559.415 432.242C556.628 432.808 554.738 433.115 552.731 435.337C551.991 437.525 552.125 438.735 552.772 440.934L553.099 441.395L552.77 442.656C550.156 443.007 547.068 443.128 544.779 444.52C543.544 445.271 543.058 445.437 541.602 445.478C538.991 440.899 544.634 426.24 545.964 420.833C548.231 420.831 552.122 427.789 556.05 428.875L558.334 427.195C559.919 429.827 559.742 430.048 562.96 431.092C586.491 438.727 602.975 434.983 624.811 425.897L626.213 426.668C661.067 410.69 683.18 363.268 726.831 390.722C723.444 386.058 721.155 382.554 716.766 378.968C706.571 370.638 690.094 372.177 677.883 375.086C645.397 382.826 626.273 363.499 595.851 357.583C586.702 355.805 573.163 359.97 563.876 360.162C564.491 360.149 557.528 354.785 556.562 354.097L563.592 352.545C634.539 336.829 624.936 248.131 688.423 252.711C657.11 232.538 650.742 256.688 624.344 265.238C614.693 268.364 592.262 266.309 581.166 267.071C562.352 268.364 538.181 276.249 525.391 290.649L527.044 291.153C522.828 296.591 517.287 303.561 511.64 307.536C508.629 309.655 502.712 307.282 501.59 303.856C504.267 301.226 507.149 299.51 506.524 295.599C519.828 289.011 515.35 289.382 524.956 279.567L525.557 280.912C539.739 264.857 543.977 233.767 540.3 213.352Z"/><path fill="#131211" d="M552.772 440.934L553.099 441.395L552.77 442.656C550.156 443.007 547.068 443.128 544.779 444.52C543.544 445.271 543.058 445.437 541.602 445.478C538.991 440.899 544.634 426.24 545.964 420.833C548.231 420.831 552.122 427.789 556.05 428.875L558.334 427.195C559.919 429.827 559.742 430.048 562.96 431.092C586.491 438.727 602.975 434.983 624.811 425.897L626.213 426.668C611.083 436.579 589.962 439.237 572.436 435.628C568.541 434.826 564.758 433.613 560.993 432.346L559.415 432.242C556.628 432.808 554.738 433.115 552.731 435.337C551.991 437.525 552.125 438.735 552.772 440.934Z"/><path fill="#FEFEFE" d="M552.772 440.934L549.422 440.071C547.148 437.277 544.702 434.889 544.663 431.207L546.356 429.887C550.585 428.788 555.372 430.965 559.415 432.242C556.628 432.808 554.738 433.115 552.731 435.337C551.991 437.525 552.125 438.735 552.772 440.934Z"/><path fill="#131211" d="M525.391 290.649L527.044 291.153C522.828 296.591 517.287 303.561 511.64 307.536C508.629 309.655 502.712 307.282 501.59 303.856C504.267 301.226 507.149 299.51 506.524 295.599C519.828 289.011 515.35 289.382 524.956 279.567L525.557 280.912C520.385 290.905 512.862 288.832 516.449 300.658C518.762 297.805 522.602 292.624 525.391 290.649Z"/><path fill="#FEFEFE" d="M816.165 879.661L815.643 880.442C813.657 883.454 812.43 886.229 813.049 889.936C813.592 893.195 815.743 895.893 818.474 897.638C823.46 900.825 829.948 901.338 835.613 900.029C841.972 898.56 847.824 894.753 851.201 889.102C854.593 883.426 855.225 875.85 853.536 869.524C851.695 862.633 846.965 857.499 840.831 854.059C829.016 847.432 814.438 846.44 801.551 850.171C788.796 853.863 777.62 861.026 771.208 872.967C766.97 880.86 765.691 889.365 768.322 898.01C772.315 911.129 782.208 920.285 794.092 926.395C830.72 945.224 874.383 940.001 912.148 927.69C969.15 909.109 1017.63 862.14 1044.31 809.221C1054.74 788.221 1061.31 765.516 1063.7 742.191C1064.48 735.11 1062.79 711.845 1066.36 708.075C1068.58 708.423 1069.49 709.16 1071.03 710.766C1073.28 718.532 1072.36 726.796 1071.65 734.739C1068.71 766.331 1059.24 796.968 1043.83 824.705C1016.23 875.089 960.006 918.472 904.774 934.354C848.055 950.663 788.283 948.154 736.034 919.006C704.52 901.426 680.594 873.792 670.841 838.765C667.741 827.633 666.11 816.428 665.381 804.914C707.874 802.394 756.323 791.724 792.838 769.222C839.909 812.736 907.888 839.238 971.689 841.198C962.107 864.401 937.721 904.896 913.537 914.958C892.345 923.775 838.472 918.956 817.181 909.792C808.68 906.133 799.843 900.276 796.446 891.268C794.244 885.428 794.687 878.765 797.384 873.163C800.568 866.549 805.695 862.397 812.586 860.127C820.906 857.388 829.023 856.741 837.071 860.73C841.723 863.035 845.629 866.631 847.323 871.636C848.825 876.075 848.664 881.533 846.564 885.758C844.191 890.53 839.914 893.629 834.865 895.12C830.872 896.3 825.514 896.305 821.88 894.028C819.897 892.785 818.135 890.815 817.813 888.411C817.499 886.062 818.583 883.525 819.773 881.558L816.165 879.661Z"/><path fill="#131211" d="M816.165 879.661C819.923 876.573 823.065 874.621 828.103 875.122C831.227 875.433 834.412 877.204 836.264 879.762C837.633 881.652 838.789 884.295 838.341 886.687C837.891 889.084 836.533 890.826 834.449 892.053C832.335 893.298 829.695 893.228 827.436 892.464C825.349 891.759 823.487 890.518 822.568 888.468C822.216 887.684 822.628 886.216 822.732 885.345L824.393 883.397C828.16 883.431 829.794 885.778 833.272 886.811C832.732 883.705 831.929 882.452 829.812 880.238C827.435 879.127 825.441 879.191 822.995 880.036C821.874 880.423 820.811 880.991 819.773 881.558L816.165 879.661Z"/><path fill="#FEFEFE" d="M916.952 656.466C938.398 665.911 954.628 682.336 966.907 702.122C988.848 737.477 990.597 774.347 981.334 813.906C953.912 813.955 927.904 811.049 901.752 802.52C870.508 792.583 841.512 776.627 816.397 755.551C857.343 727.984 888.76 696.939 916.952 656.466Z"/><path fill="#FEFEFE" d="M877.849 521.404C898.316 519.266 920.09 523.45 939.194 530.67C934.564 564.731 924.664 596.513 907.146 626.202C876.888 618.417 848.247 616.968 817.381 621.871C799.038 625.804 781.131 630.892 763.835 638.211C767.391 610.652 776.829 586.85 794.475 565.158C815.734 539.025 844.515 524.849 877.849 521.404Z"/><path fill="#FEFEFE" d="M417.731 49.4315C435.213 48.4294 452.746 48.7698 470.175 50.4496C536.465 56.9593 602.978 83.7144 653.022 127.97C668.589 141.737 682.169 157.482 695.328 173.509L682.819 171.299C655.756 140.088 625.453 113.548 588.766 94.0495C511.698 53.0897 418.812 46.6783 335.736 72.0249C246.349 99.2968 174.33 157.757 130.39 240.341C94.5481 307.704 81.0356 385.48 103.701 459.378C127.999 538.597 180.155 602.565 253.333 641.436C289.599 660.259 326.107 669.255 366.556 672.739C374.787 673.447 383.284 674.716 391.546 674.485C426.684 673.502 464.287 664.973 497.428 653.574C504.585 651.113 511.74 648.458 518.61 645.274C525.772 641.955 542.248 631.079 548.368 630.152C550.097 629.89 550.58 630.824 551.735 631.881L551.778 633.945C525.081 658.766 450.383 677.605 413.639 680.393C327.987 686.89 253.934 663.732 188.459 607.425C129.037 556.324 89.3311 480.031 83.6 401.742C77.7807 322.249 111.308 235.042 163.218 175.21C228.895 99.5114 318.075 56.4476 417.731 49.4315Z"/><path fill="#FEFEFE" d="M817.824 954.16C802.859 954.528 788.049 954.167 773.476 950.472C732.402 940.056 689.11 914.737 666.994 877.518C647.998 845.551 641.275 804.018 650.651 767.888C662.614 721.789 696.867 683.22 737.418 659.541C784.664 631.951 844.548 617.614 898.335 631.815C933.482 640.784 963.463 663.673 981.377 695.213C1002.09 731.152 1005.87 780.811 995.103 820.465C986.418 852.46 959.036 898.51 929.555 915.464C937.613 905.433 946.654 896.267 954.488 886.043C974.876 859.435 988.987 825.404 993.063 792.133C997.735 753.998 988.3 715.807 964.35 685.47C942.113 657.303 911.533 641.409 876.011 637.321C824.695 631.415 758.69 648.63 718.069 680.946C685.907 706.531 663.484 741.333 658.925 782.698C654.829 819.859 664.373 859.341 688.039 888.688C719.318 927.475 769.482 945.791 817.64 951.026L822.126 952.524L817.824 954.16Z"/><path fill="#FEFEFE" d="M961.457 541.649C965.506 543.501 969.375 545.968 973.11 548.382C1005.37 569.227 1031.42 607.699 1044.26 643.401C1048.1 654.097 1050.41 665.109 1052.79 676.196L1031.61 667.078C998.77 652.404 965.683 641.48 930.487 634.032C945.856 604.466 954.675 574.156 961.457 541.649Z"/><path fill="#FEFEFE" d="M434.825 516.131C439.213 517.011 444.229 520.882 448.125 523.17C449.096 527.291 445.51 530.217 446.409 534.363C447.761 540.606 454.935 539.19 457.136 545.422C459.462 552.011 460.497 558.827 463.309 565.311C480.906 605.892 513.626 602.573 544.62 623.143C528.637 633.442 511.155 641.149 493.246 647.382C471.373 654.491 450.109 660.153 427.353 663.719C419.579 652.831 413.675 641.787 408.338 629.532C417.073 609.107 434.242 593.992 441.496 573.094C448.48 552.972 443.887 534.693 434.825 516.131Z"/><path fill="#FEFEFE" d="M843.524 644.404C859.911 642.278 878.8 644.478 894.758 648.538C870.31 681.613 843.312 707.554 810.488 732.295L799.709 740.703C779.145 715.286 768.103 696.306 763.764 663.268C787.879 652.757 817.357 646.666 843.524 644.404Z"/><path fill="#FEFEFE" d="M1461.51 620.414C1473.04 618.984 1486.62 620.384 1498.11 621.936C1527.05 625.847 1558.06 637.339 1576.31 661.261C1558.86 648.096 1541.55 638.789 1519.92 634.464C1433.73 617.234 1350.04 670.279 1281.54 715.911C1259.1 731.13 1235.25 746.248 1211.31 758.935C1201.88 754.1 1192.57 748.996 1183.21 744.024C1269.76 700.345 1362.35 627.743 1461.51 620.414Z"/><path fill="#FEFEFE" d="M568.578 792.031C591.217 798.738 615.903 803.114 639.471 804.638C640.202 823.278 642.564 840.207 649.207 857.762C669.238 910.702 708.109 932.01 756.801 953.848C729.678 951.337 701.945 940.527 678.255 927.468C624.763 897.98 585.647 850.794 568.578 792.031Z"/><path fill="#FEFEFE" d="M739.363 674.85C741.774 675.224 745.944 698.144 747.065 701.941C752.758 721.225 764.414 737.286 776.691 752.817C753.291 765.127 727.524 772.528 701.686 777.611C689.983 779.517 678.26 780.654 666.459 781.725C667.345 775.534 668.467 769.229 670.037 763.176C679.929 725.045 705.889 694.582 739.363 674.85Z"/><path fill="#FEFEFE" d="M971.616 668.775C994.689 673.783 1033.92 692.951 1056.82 703.086C1058.42 738.207 1054.04 768.068 1040.13 800.585C1039.53 801.924 1038.69 803.677 1037.68 804.748C1031.45 811.308 1012.78 812.486 1004.46 813.448C1005.67 804.658 1006.56 795.828 1007.14 786.974C1009.92 743.071 1001.13 702.285 971.616 668.775Z"/><path fill="#FEFEFE" d="M935.163 640.825C998.841 657.006 1059.72 685.983 1117.39 716.978C1154.54 736.94 1191.4 758.326 1229.67 776.042C1372.89 842.334 1509.08 878.393 1667.4 851.5C1696.8 846.506 1728.28 840.846 1756.3 830.575L1756.95 832.874C1743.16 837.623 1728.96 841.543 1714.85 845.211C1525.54 894.424 1366.44 852.318 1195.29 767.778C1160.93 750.808 1128.42 730.449 1094.18 713.253C1069.38 700.84 1044.17 689.275 1018.58 678.579C1001.18 671.407 982.86 665.856 965.793 657.989C955.247 653.128 945.181 646.714 935.163 640.825Z"/><path fill="#FEFEFE" d="M536.553 454.704C537.628 451.966 538.156 450.929 540.893 449.652C549.984 445.411 564.671 448.377 573.636 451.982C597.54 461.594 607.654 480.714 622.897 499.817C627.726 505.868 633.369 510.867 638.862 516.27L637.059 517.898L642.861 520.517C639.27 522.026 631.521 520.984 627.336 521.581C605.432 524.705 591.857 530.699 569.581 523.276C552.505 517.585 537.578 506.543 529.501 490.181C526.617 484.339 523.805 476.771 525.982 470.287C527.084 469.328 528.199 468.385 529.328 467.459C531.208 462.436 534.031 460.007 538.661 457.469L536.553 454.704Z"/><path fill="#FEFEFE" d="M525.982 470.287C535.118 490.43 546.125 503.5 567.225 511.35C595.36 521.818 615.993 511.746 637.059 517.898L642.861 520.517C639.27 522.026 631.521 520.984 627.336 521.581C605.432 524.705 591.857 530.699 569.581 523.276C552.505 517.585 537.578 506.543 529.501 490.181C526.617 484.339 523.805 476.771 525.982 470.287Z"/><path fill="#FEFEFE" d="M536.553 454.704C537.628 451.966 538.156 450.929 540.893 449.652C549.984 445.411 564.671 448.377 573.636 451.982C597.54 461.594 607.654 480.714 622.897 499.817C627.726 505.868 633.369 510.867 638.862 516.27C612.25 510.725 604.121 486.921 585.72 470.504C571.217 457.564 555.691 453.614 536.553 454.704Z"/><path fill="#131211" d="M536.553 454.704C555.691 453.614 571.217 457.564 585.72 470.504C604.121 486.921 612.25 510.725 638.862 516.27L637.059 517.898C615.993 511.746 595.36 521.818 567.225 511.35C546.125 503.5 535.118 490.43 525.982 470.287C527.084 469.328 528.199 468.385 529.328 467.459C532.638 477.619 536.994 486.379 544.775 493.966C566.645 515.288 595.789 514.454 624.125 513.922C607.461 501.69 597.585 483.994 581.975 470.981C569.105 460.25 555.39 455.948 538.661 457.469L536.553 454.704Z"/><path fill="#FEFEFE" d="M548.617 644.938C550.494 646.96 545.661 658.808 544.645 662.086C535.143 692.392 532.56 724.445 537.088 755.882C517.857 746.288 500.186 735.176 483.077 722.191C468.406 710.458 455.72 697.171 442.756 683.638C454.755 680.656 466.973 678.587 478.88 675.209C503.544 668.21 526.355 657.439 548.617 644.938Z"/><path fill="#FEFEFE" d="M619.064 176.384C619.418 176.343 619.772 176.307 620.128 176.285C701.25 171.113 791.033 199.773 852.205 253.616C914.612 308.544 953 384.135 958.23 467.292C958.791 476.219 960.938 510.708 956.266 516.007C952.978 516.629 951.542 515.426 948.537 514.072C952.597 485.94 949.805 457.072 944.935 429.242C936.97 371.212 894.006 302.196 850.661 263.36C785.143 204.659 692.117 174.862 604.785 186.925C591.447 188.82 578.264 191.683 565.342 195.491C556.864 198.007 547.206 203.803 538.489 204.266L537.225 201.491C537.464 200.498 537.549 199.325 538.207 198.536C547.735 187.102 603.531 178.035 619.064 176.384Z"/><path fill="#FEFEFE" d="M1161.04 757.891C1166.96 758.751 1183.24 768.61 1189.31 771.592C1166.45 781.409 1144.19 793.051 1121.45 803.256C1119.18 815.913 1118.4 827.857 1121.03 840.548C1129.17 879.79 1153.96 907.16 1186.35 928.569C1172.68 923.523 1161.04 916.582 1149.42 907.857C1145.91 905.047 1142.56 902.034 1139.41 898.833C1114.73 874.073 1101.62 845.772 1101.73 810.759C1085.31 817.707 1067.75 822.968 1050.34 826.78C1054.2 819.408 1057.81 812.059 1061.03 804.386C1090.86 795.871 1134.22 773.613 1161.04 757.891Z"/><path fill="#FEFEFE" d="M519.748 476.946C521.1 492.358 527.597 505.477 539.523 515.513C555.792 529.205 579.189 536.019 600.255 534.098C609.356 533.268 618.411 531.094 627.249 528.821C600.407 554.295 578.757 584.008 558.274 614.65C532.058 586.225 553.912 552.075 535.693 526.983L535.269 528.467C530.502 522.873 527.267 515.785 522.294 510.398C517.355 505.047 504.468 498.294 502.411 491.693C504.262 489.891 505.947 487.969 507.548 485.944L509.528 486.774L519.748 476.946Z"/><path fill="#131211" d="M535.693 526.983L535.269 528.467C530.502 522.873 527.267 515.785 522.294 510.398C517.355 505.047 504.468 498.294 502.411 491.693C504.262 489.891 505.947 487.969 507.548 485.944L509.528 486.774C512.651 487.883 516.748 489.031 518.297 492.271C519.231 494.222 518.941 496.326 518.149 498.304C517.696 499.434 517.121 500.529 516.563 501.609C522.273 509.873 533.255 516.925 535.693 526.983Z"/><path fill="#FEFEFE" d="M407.393 514.793C413.225 515.43 417.576 515.439 421.884 519.988C428.643 527.124 428.838 538.891 428.484 548.169C429.159 549.395 429.77 550.697 430.636 551.797C433.317 532.482 426.841 530.743 426.155 517.344C427.157 517.494 427.811 517.302 428.456 518.144C436.37 528.468 438.394 546.929 436.465 559.374C433.104 581.063 419.635 593.649 409.094 611.717C404.255 620.012 401.541 628.536 398.862 637.727L399.053 622.009L398.455 621.959L397.18 618.165L398.12 615.055C390.822 594.049 383.414 570.577 387.338 548.109C389.7 534.581 396.014 522.804 407.393 514.793Z"/><path fill="#FEFEFE" d="M430.636 551.797C433.317 532.482 426.841 530.743 426.155 517.344C427.157 517.494 427.811 517.302 428.456 518.144C436.37 528.468 438.394 546.929 436.465 559.374C433.104 581.063 419.635 593.649 409.094 611.717C404.255 620.012 401.541 628.536 398.862 637.727L399.053 622.009L398.455 621.959L397.18 618.165L398.12 615.055C408.735 592.446 424.485 573.519 428.484 548.169C429.159 549.395 429.77 550.697 430.636 551.797Z"/><path fill="#131211" d="M398.12 615.055C408.735 592.446 424.485 573.519 428.484 548.169C429.159 549.395 429.77 550.697 430.636 551.797C424.574 582.038 405.223 596.377 399.053 622.009L398.455 621.959L397.18 618.165L398.12 615.055Z"/><path fill="#FEFEFE" d="M519.582 184.77L519.564 189.048L517.736 194.166L519.314 194.097L519.745 194.685C519.568 225.335 518.755 258.917 495.965 282.256C490.371 287.984 479.959 295.311 472.811 288.139C468.383 283.697 467.58 275.156 466.913 269.228L463.57 270.156C463.589 275.783 466.658 285.414 465.543 288.195L462.782 288.328C459.185 280.956 458.935 271.89 459.779 263.812C463.785 225.443 502.809 215.737 519.582 184.77Z"/><path fill="#FEFEFE" d="M519.582 184.77L519.564 189.048L517.736 194.166L519.314 194.097L519.745 194.685C505.132 222.445 471.111 234.244 466.913 269.228L463.57 270.156C463.589 275.783 466.658 285.414 465.543 288.195L462.782 288.328C459.185 280.956 458.935 271.89 459.779 263.812C463.785 225.443 502.809 215.737 519.582 184.77Z"/><path fill="#131211" d="M517.736 194.166L519.314 194.097L519.745 194.685C505.132 222.445 471.111 234.244 466.913 269.228L463.57 270.156C465.769 233.133 508.737 216.684 517.736 194.166Z"/><path fill="#FEFEFE" d="M754.778 666.807C755.075 667.015 756.403 667.782 756.515 668.025C758.151 671.565 758.353 678.045 759.279 682.066C760.937 689.259 763.501 696.203 766.459 702.956C774.278 720.806 784.483 736.59 798.236 750.429C845.854 798.344 913.488 820.744 979.875 820.996L975.251 833.849C962.402 833.42 949.804 832.766 937.101 830.571C877.56 820.281 807.922 786.439 772.627 736.015C763.535 723.027 745.705 687.705 749.213 672.049C749.927 668.859 752.204 668.261 754.778 666.807Z"/><path fill="#FEFEFE" d="M549.394 786.121L559.258 789.665C572.698 829.359 589.753 863.187 620.092 892.842C676.102 947.592 744.288 969.685 821.6 960.859C832.786 959.582 843.768 957.256 854.727 954.726C860.908 953.299 867.661 950.555 873.978 950.48L871.775 951.919C861.819 955.683 851.805 959.283 841.525 962.075C779.477 978.929 716.818 967.791 661.568 935.898C604.757 903.104 566.167 848.938 549.394 786.121Z"/><path fill="#FEFEFE" d="M483.608 505.002C492.234 506.087 499.522 509.433 505.846 515.46C524.094 532.851 523.123 556.574 527.696 579.348C528.848 585.086 532.827 590.718 532.976 596.474L531.793 597.117L527.439 594.686C514.824 588.527 502.309 580.88 492.641 570.577C481.248 558.437 474.205 543.429 474.909 526.485C475.258 518.08 477.262 510.768 483.608 505.002Z"/><path fill="#FEFEFE" d="M278.901 419.332C283.136 418.906 287.155 418.922 291.386 419.256C297.895 419.771 306.555 420.601 310.925 426.171C312.84 428.61 313.694 431.422 313.374 434.494C312.62 441.72 306.908 448.015 301.411 452.261C287.037 463.365 268.465 465.057 251.043 463.017C238.034 461.23 225.251 459.737 212.098 459.866C234.813 442.88 249.055 423.894 278.901 419.332Z"/><path fill="#FEFEFE" d="M238.557 331.395C252.247 330.095 267.524 330.894 280.754 334.875C298.308 340.158 308.452 350.404 316.971 366.336C310.88 373.297 304.81 375.98 295.997 377.931C253.959 378.525 246.428 352.2 214.918 334.145C222.729 332.919 230.696 332.269 238.557 331.395Z"/><path fill="#FEFEFE" d="M619.604 278.272L620.437 278.709C602.513 296.228 589.699 318.461 567.041 330.874C555.181 337.372 543.393 338.782 530.454 334.998C529.037 333.159 527.633 331.335 526.929 329.091C525.287 323.854 526.846 318.792 529.426 314.153C546.893 282.747 589.826 286.931 619.604 278.272Z"/><path fill="#FEFEFE" d="M338.835 481.158C340.669 480.943 342.71 480.712 344.52 481.178C348.442 482.188 351.839 487.321 353.561 490.713C355.906 495.329 355.836 500.441 354.145 505.258C345.823 528.964 316.765 541.958 295.98 552.197C292.267 554.294 289.179 557.339 286.017 560.169C289.14 542.284 292.201 524.734 301.681 508.906C310.331 494.464 322.4 485.257 338.835 481.158Z"/><path fill="#FEFEFE" d="M578.591 376.321C602.06 374.449 624.916 386.388 648.303 388.163C636.766 394.888 625.809 402.517 614.106 408.986C606.891 411.866 599.671 414.38 591.971 415.599C576.521 418.045 562.003 415.853 549.179 406.48C548.813 400.733 548.56 394.98 548.419 389.223C556.854 380.633 567.03 377.754 578.591 376.321Z"/><path fill="#FEFEFE" d="M395.461 181.304C409.758 191.558 421.492 215.47 424.844 232.453C428.427 250.6 425.334 267.476 415.039 282.846C413.623 283.386 412.082 283.958 410.547 284.007C406.108 284.15 399.496 279.306 396.346 276.462C377.47 259.425 391.378 227.523 394.753 206.744C396.162 198.066 396.04 190.063 395.461 181.304Z"/><path fill="#FEFEFE" d="M282.634 235.189C289.318 237.408 296.093 240.319 302.555 243.132C323.476 252.24 342.85 266.531 351.349 288.482C354.574 296.81 355.125 305.275 351.44 313.485C350.857 313.943 350.35 314.314 349.694 314.657C346.059 316.56 339.68 315.464 335.921 314.311C305.71 305.051 295.396 259.616 282.634 235.189Z"/><path fill="#FEFEFE" d="M805.611 853.273C808.529 852.926 811.199 852.947 814.126 853.138C807.556 857.473 800.851 859.973 795.696 866.364C791.066 872.103 789.461 878.593 790.34 885.87C791.371 894.405 795.728 901.248 802.504 906.429C827.996 925.921 878.244 925.388 908.369 921.144C903.993 923.754 899.302 925.962 894.775 928.307L893.914 928.591C864.515 938.117 824.103 937.379 796.342 922.968C785.376 917.275 775.082 908.458 771.363 896.281C769.243 889.337 769.728 881.773 773.265 875.375C779.843 863.477 793.043 856.852 805.611 853.273Z"/><path fill="#FEFEFE" d="M1079.21 713.669C1091.44 719.328 1103.28 726.231 1115.14 732.627C1118.38 747.006 1117.49 761.24 1112.28 775.003C1105.43 778.547 1098.31 781.569 1091.26 784.683C1082.6 788.332 1073.97 791.93 1065.09 795.047C1075.19 768.389 1079.33 742.116 1079.21 713.669Z"/><path fill="#FEFEFE" d="M429.215 684.558C430.483 684.673 433.179 684.832 434.219 685.494C441.136 689.9 449.873 701.324 456.04 707.38C467.244 718.288 479.194 728.403 491.803 737.651C514.536 754.016 540.443 766.369 566.905 775.348C586.04 781.87 605.875 786.125 626.002 788.026C629.772 788.41 635.51 787.955 638.416 790.556C639.496 793.196 639.441 793.755 638.997 796.596L637.325 797.477C581.319 794.59 520.192 771.961 476.172 736.844C467.381 729.831 427.366 694.613 426.461 686.522L429.215 684.558Z"/><path fill="#FEFEFE" d="M1103.3 246.683C1109.79 252.816 1112.83 266.441 1114.19 274.98C1118.85 304.263 1112.03 333.338 1094.6 357.249L1091.34 360.597L1089.73 360.585C1076.18 334.277 1093.26 306.264 1099.79 280.78C1102.7 269.433 1103.5 258.362 1103.3 246.683Z"/><path fill="#FEFEFE" d="M886.37 511.053C932.043 508.985 972.825 528.097 1006.19 558.625C1042.94 592.254 1062.99 636.041 1069.72 684.925C1066.65 683.183 1063.56 681.247 1060.31 679.881C1053.4 629.209 1025.59 578.843 984.65 547.682C958.519 527.792 927.511 516.969 895.027 514.154C891.483 513.724 889.166 513.395 886.37 511.053Z"/><path fill="#FEFEFE" d="M522.217 176.85L523.407 175.444C530.623 207.312 540.858 243.921 521.405 273.446C514.586 283.796 498.361 299.952 484.967 297.195L483.87 295.52C507.661 279.718 521.062 256.285 521.123 227.164C520.759 220.04 521.801 191.94 519.564 189.048L519.582 184.77L522.217 176.85Z"/><path fill="#656565" d="M522.217 176.85C522.124 186.289 522.607 220.26 521.123 227.164C520.759 220.04 521.801 191.94 519.564 189.048L519.582 184.77L522.217 176.85Z"/><path fill="#FEFEFE" d="M639.828 531.543C648.745 531.544 656.174 535.154 662.902 540.756C647.382 556.047 630.518 569.911 612.512 582.178C606.835 585.52 601.474 589.372 596.061 593.119C604.723 573.633 625.142 547.578 639.828 531.543Z"/><path fill="#FEFEFE" d="M390.461 162.662C395.539 166.814 399.99 171.984 404.578 176.688C420.253 192.762 436.29 210.084 439.918 233.14C442.571 249.996 438.273 264.684 428.298 278.293C427.604 279.231 426.885 280.241 426.023 281.03C424.519 282.408 423.042 282.804 421.068 282.72C420.433 278.631 426.254 268.736 427.524 263.901C430.378 253.032 430.226 241.602 427.715 230.683C423.786 213.595 414.611 200.427 403.716 187.043C400.23 182.761 395.545 177.817 393.185 172.82C391.753 169.787 391.148 165.94 390.461 162.662Z"/><path fill="#FEFEFE" d="M668.096 385.412L668.626 386.29C645.018 401.777 628.555 422.585 599.355 428.492C582.492 431.904 567.672 428.935 553.343 419.459C551.575 417.752 550.564 416.379 549.617 414.107C550.94 412.539 554.214 414.108 556.041 414.763C569.016 419.419 581.236 421.307 594.891 418.404C621.162 412.821 632.577 396.727 653.852 388.347C658.207 386.631 663.479 386.143 668.096 385.412Z"/><path fill="#FEFEFE" d="M902.088 650.807C904.584 651.633 906.714 652.484 908.985 653.841C908.958 654.264 908.948 654.807 908.841 655.235C907.428 660.842 900.55 667.993 896.874 672.5C872.789 702.019 844.106 730.067 811.415 749.95C810.271 750.057 809.054 750.236 807.958 749.807C806.253 749.14 806.338 748.65 805.778 747.113C807.586 743.334 846.561 713.194 853.891 706.446C872.25 689.546 887.298 670.782 902.088 650.807Z"/><path fill="#FEFEFE" d="M473.496 509.684C473.847 510.158 474.423 510.529 474.55 511.105C474.759 512.055 472.477 517.916 472.168 519.347C471.115 524.218 471.355 529.985 471.857 534.929C474.134 557.317 488.82 576.138 507.912 587.175C517.811 592.898 528.885 597.47 537.761 604.784C541.077 607.517 546.622 612.173 547.061 616.508L545.469 615.248C525.897 601.138 503.619 600.645 483.794 581.5C471.773 569.893 464.232 553.703 464.134 536.87C464.078 527.21 466.523 516.698 473.496 509.684Z"/><path fill="#FEFEFE" d="M196.721 328.301C228.666 320.229 265.426 309.745 295.691 328.02C310.323 336.855 317.477 346.279 321.563 362.572L321.881 363.855C317.502 358.879 313.67 351.654 309.546 347.525C284.177 322.131 243.681 327.479 211.549 331.89L212.422 335.128C208.96 333.693 205.495 333.097 201.834 332.316L199.013 334.525L188.337 331.031L188.436 330.254C191.764 329.008 193.483 329.689 196.721 328.301Z"/><path fill="#131211" d="M188.337 331.031L188.436 330.254C191.764 329.008 193.483 329.689 196.721 328.301C201.182 330.343 206.662 331.026 211.549 331.89L212.422 335.128C208.96 333.693 205.495 333.097 201.834 332.316L199.013 334.525L188.337 331.031Z"/><path fill="#DEDCDA" d="M188.337 331.031C192.957 331.096 197.438 330.891 201.834 332.316L199.013 334.525L188.337 331.031Z"/><path fill="#FEFEFE" d="M331.047 474.122L331.674 474.063C334.549 473.821 337.668 473.53 339.984 475.499C337.026 479.218 327.349 481.164 322.631 483.853C316.726 487.243 311.453 491.632 307.046 496.822C285.445 522.067 291.821 546.17 278.419 571.391L273.475 580.782C274.167 555.204 274.857 528.16 288.548 505.674C298.508 489.316 312.409 478.677 331.047 474.122Z"/><path fill="#FEFEFE" d="M268.211 222.8C272.551 222.867 277.362 224.232 281.589 225.226C309.355 231.755 339.176 242.169 354.879 267.816C361.76 279.053 364.054 291 360.928 303.797L359.482 304.317C349.516 267.796 335.288 253.437 299.945 239.505C288.112 234.841 277.926 231.264 268.211 222.8Z"/><path fill="#FEFEFE" d="M632.518 271.816C632.914 272.177 633.107 272.888 633.323 273.378C618.362 296.029 607.79 320.522 584.226 335.951C569.18 345.803 553.818 348.041 536.355 344.416C535.581 343.712 534.968 342.671 534.344 341.823C536.364 340.146 545.663 341.163 548.966 340.707C558.634 339.373 567.54 335.043 575.485 329.525C598.274 313.695 610.472 288.424 632.518 271.816Z"/><path fill="#FEFEFE" d="M715.906 474.118L716.481 475.341C707.569 495.552 686.226 516.868 671.028 532.642C668.834 530.212 666.358 527.977 664.006 525.698C660.608 523.029 656.659 520.918 652.963 518.683L653.373 518.427C665.803 510.537 676.711 500.954 688.503 492.196C697.281 485.676 706.648 479.926 715.906 474.118Z"/><path fill="#FEFEFE" d="M397.904 638.84C387.314 606.382 369.318 593.225 374.406 555.036C376.866 536.565 385.524 523.492 400.166 512.361C396.636 517.804 393.054 523.256 390.271 529.13C376.423 558.346 387.079 589.587 397.18 618.165L398.455 621.959C397.712 627.477 397.906 633.273 397.904 638.84Z"/><path fill="#FEFEFE" d="M781.626 758.956C783.258 759.693 784.407 761.099 785.632 762.367L785.545 764.189C781.009 769.509 771.754 772.076 765.391 774.572C733.695 787.008 703.664 793.882 669.771 797.272L667.045 797.174C665.131 795.821 664.93 795.854 664.418 793.597C667.6 787.115 687.085 787.001 693.981 786.154C724.166 782.444 754.247 771.913 781.626 758.956Z"/><path fill="#FEFEFE" d="M561.344 637.693C561.674 638.083 561.776 638.168 562.037 638.69C566.691 647.964 559.68 663.313 556.998 672.844C550.729 695.123 550.522 718.51 551.444 741.475C551.681 747.372 554.29 756.405 552.908 761.687L550.665 761.641C548.381 760.777 545.84 759.944 544.788 757.568C541.572 750.311 541.994 740.718 541.981 732.943C541.923 698.455 549.186 669.699 561.344 637.693Z"/><path fill="#FEFEFE" d="M272.866 408.341C273.991 408.227 275.118 408.135 276.246 408.066C291.899 407.134 303.269 412.205 314.816 422.416C306.426 418.698 298.827 416.039 289.588 415.494C264.558 414.017 244.077 428.269 226.138 444.112C216.478 454.072 209.809 460.19 196.373 464.328C223.548 440.332 233.672 415.278 272.866 408.341Z"/><path fill="#FEFEFE" d="M317.532 438.643C317.829 439.279 318.01 439.88 318.072 440.584C318.501 445.482 314.892 450.888 311.904 454.442C280.475 491.81 234.777 465.687 194.841 468.958L193.394 468.765L193.867 467.839C223.969 454.567 252.812 471.95 284.059 463.944C299.04 460.106 309.678 451.852 317.532 438.643Z"/><path fill="#FEFEFE" d="M746.115 646.954C746.615 638.074 747.448 629.328 749.423 620.638C758.182 582.09 783.462 552.86 816.222 532.185L817.442 534.385C816.64 534.902 815.854 535.443 815.083 536.006C778.599 563.077 761.546 598.615 755.024 642.854L746.115 646.954Z"/><path fill="#FEFEFE" d="M201.834 332.316C205.495 333.097 208.96 333.693 212.422 335.128C245.401 355.365 266.455 397.247 313.529 376.113L314.052 376.946C311.768 380.835 305.192 384.177 301.025 385.454C249.899 401.125 234.432 351.148 199.013 334.525L201.834 332.316Z"/><path fill="#FEFEFE" d="M946.16 534.168C947.365 534.605 948.562 535.065 949.75 535.545C950.928 536.031 953.614 537.258 954.052 538.442C957.114 546.722 940.713 593.611 936.931 602.987C932.959 612.83 928.104 622.362 923.45 631.898L914.161 629.075C932.481 600.52 939.981 567.038 946.16 534.168Z"/><path fill="#FEFEFE" d="M747.224 341.865C744.415 301.507 734.057 259.524 715.89 223.113C713.614 218.551 704.517 202.724 703.788 198.81C714.209 196.993 719.583 212.598 722.883 220.048C737.396 252.813 748.58 290.423 749.124 326.47C749.017 330.48 749.511 339.083 747.224 341.865Z"/><path fill="#FEFEFE" d="M627.668 271.48L628.398 271.658C620.113 280.365 582.843 281.856 570.109 284.688C561.666 286.566 553.475 289.354 545.975 293.712C532.63 301.467 525.562 311.434 521.664 326.11C520.853 324.845 519.979 323.44 519.707 321.936C518.394 314.685 522.389 306.427 526.455 300.708C539.082 282.948 564.745 275.639 585.441 274.045C599.53 272.96 613.697 273.941 627.668 271.48Z"/><path fill="#FEFEFE" d="M263.295 222.671C285.391 226.765 295.144 281.002 309.794 298.598C316.272 306.378 325.244 312.991 334.497 317.107C337.615 318.494 340.735 319.105 343.505 321.196C343.663 321.314 343.814 321.441 343.968 321.563C341.552 321.942 338.943 322.13 336.502 322.061C328.84 321.845 320.928 318.301 314.788 313.905C291.818 297.459 290.315 272.637 280.095 248.701C275.809 238.661 270.753 230.628 263.295 222.671Z"/><path fill="#FEFEFE" d="M359.478 493.031C361.972 497.616 361.253 506.216 360.386 511.198C359.167 518.199 355.289 524.656 350.863 530.1C332.384 552.829 305.482 555.313 282.785 571.12L282.279 571.043C285.314 557.596 318.409 544.657 329.658 537.145C346.68 525.778 355.408 513.356 359.478 493.031Z"/><path fill="#FEFEFE" d="M576.314 365.252C607.186 362.477 631.295 380.574 661.072 384.251C648.386 386.217 637.752 385.462 625.318 382.387C603.37 374.813 583.822 369.626 561.131 377.391C555.54 379.304 550.512 382.333 544.941 384.266L544.11 384.55C552.716 371.397 561.467 368.557 576.314 365.252Z"/><path fill="#FEFEFE" d="M489.747 501.434C496.479 500.868 501.511 502.063 507.361 505.516C523.046 514.775 534.165 535.96 535.906 553.775C536.893 563.88 535.795 574.169 536.878 584.269C537.654 591.496 540.459 598.704 542.277 605.743C523.836 587.18 531.444 553.062 520.209 530.018C511.205 511.549 490.585 502.961 489.747 501.434Z"/><path fill="#FEFEFE" d="M389.355 167.799C389.479 167.937 389.619 168.062 389.727 168.213C390.974 169.96 391.429 173.404 391.98 175.493C397.749 197.324 387.938 217.874 384.5 239.16C382.16 253.647 382.067 266.001 392.396 277.571C394.921 280.399 398.163 282.485 400.397 285.56L398.184 286.918C395.422 285.914 393.018 284.046 390.815 282.139C357.96 253.695 391.925 203.492 389.355 167.799Z"/><path fill="#FEFEFE" d="M842.366 404.519C871.154 400.471 898.871 414.297 922.737 428.615C888.841 431.043 871.942 413.454 842.366 404.519Z"/><path fill="#FEFEFE" d="M1015.22 839.422L1016.41 839.406L1016.69 840.766C1006.46 858.058 983.436 877.835 967.545 890.65L966.952 890.766L966.153 890.082C978.133 874.609 987.011 858.289 996.118 841.05C1002.45 840.916 1008.9 840.017 1015.22 839.422Z"/><path fill="#FEFEFE" d="M655.686 556.124L655.595 557.149C638.533 580.836 612.212 597.321 588.144 613.059C588.247 609.814 590.326 606.083 591.586 603.072C614.51 589.669 635.991 573.936 655.686 556.124Z"/><path fill="#FEFEFE" d="M606.479 562.035L606.452 563.526C602.595 569.594 598.145 575.37 594.584 581.599C590.392 588.934 576.738 622.017 571.339 624.808C570.084 625.456 568.173 624.522 566.813 624.129C565.888 623.091 565.416 622.24 564.844 620.997C570.005 605.212 595.028 575.389 606.479 562.035Z"/><path fill="#FEFEFE" d="M1029.49 816.128L1030.4 815.959L1031.39 816.728C1030 821.583 1026.53 826.095 1023.84 830.34C1016.22 831.759 1008.76 832.819 1001.03 833.425C1000.51 833.454 999.826 833.164 999.315 833.019C998.953 829.359 1001.31 824.665 1002.53 821.195C1011.69 820.123 1020.59 818.582 1029.49 816.128Z"/><path fill="#FEFEFE" d="M859.308 396.577C877.542 394.46 894.656 398.412 909.5 409.288C912.383 411.4 920.464 416.699 920.966 419.915C915.187 417.548 909.575 413.945 904.125 410.905C889.009 402.474 876.149 398.546 858.84 397.662L859.308 396.577Z"/><path fill="#FEFEFE" d="M691.087 482.096L691.668 482.685C687.354 486.74 681.921 489.79 677.265 493.504C667.855 501.009 658.822 509.573 648.785 516.192C648.161 515.194 647.792 514.154 647.363 513.063C652.851 503.516 680.95 487.376 691.087 482.096Z"/><path fill="#DEDCDA" d="M816.222 532.185C833.934 520.06 864.936 510.87 886.37 511.053C889.166 513.395 891.483 513.724 895.027 514.154C866.182 514.108 842.5 519.672 817.442 534.385L816.222 532.185Z"/><path fill="#FEFEFE" d="M377.202 276.292C378.501 278.318 381.085 282.596 382.464 284.291C383.652 285.565 384.801 286.916 385.949 288.229L385.717 289.974C382.783 293.09 374.434 296.247 369.717 298.648C369.519 293.844 368.657 291.852 370.726 287.981C373.814 286.606 374.649 285.939 376.837 283.359C377.43 280.916 376.815 280.555 375.903 277.89L377.202 276.292Z"/><path fill="#DEDCDA" d="M377.202 276.292C378.501 278.318 381.085 282.596 382.464 284.291C381.17 287.227 380.676 287.568 378.033 288.363L376.74 287.038L376.837 283.359C377.43 280.916 376.815 280.555 375.903 277.89L377.202 276.292Z"/><path fill="#FEFEFE" d="M404.889 641.584C408.154 646.812 417.767 659.553 417.736 665.3C415.563 665.652 413.689 665.763 411.496 665.561C407.765 663.694 405.741 659.03 403.688 655.548C403.605 650.638 403.85 646.408 404.889 641.584Z"/><path fill="#FEFEFE" d="M1123.02 737.396L1134.19 743.143C1132.33 749.165 1129.58 754.878 1127.01 760.625L1125.38 763.587L1124.13 763.913C1122.33 755.83 1123.84 745.912 1123.02 737.396Z"/><path fill="#FEFEFE" d="M444.244 261.632C445.234 264.595 444.861 267.35 446.445 270.276C449.625 270.971 449.678 268.343 452.507 268.63C452.576 268.844 452.65 269.057 452.715 269.273C453.876 273.134 452.487 275.588 450.753 278.933L446.573 280.044C444.871 281.763 444.307 282.883 441.769 283.164C441.172 282.472 440.609 281.704 440.332 280.819C438.269 274.223 441.42 267.412 444.244 261.632Z"/><path fill="#FEFEFE" d="M1139.52 746.328L1153.12 753.681L1141.26 759.618L1132.12 763.932C1135.34 758.191 1137.8 752.687 1139.52 746.328Z"/><path fill="#A9A4A3" d="M1819.56 807.605L1820.05 809.011C1801.08 816.975 1776.74 828.306 1756.95 832.874L1756.3 830.575C1777.91 824.304 1798.72 816.027 1819.56 807.605Z"/><path fill="#FEFEFE" d="M310.839 391.405L311.791 392.995C311.68 398.033 312.404 406.019 310.612 410.564L304.495 406.222C303.189 405.25 302.978 405.213 302.513 403.677L305.203 400.097C305.001 396.793 303.716 396.196 301.498 393.832L302.878 392.373C305.705 392.83 307.368 392.603 310.031 391.689L310.839 391.405Z"/><path fill="#FEFEFE" d="M321.757 326.963L322.594 327.135C326.559 327.968 328.633 328.757 330.882 332.261C331.021 336.871 326.977 342.018 324.887 346.032L324.401 346.684C323.637 344.33 321.677 343.085 320.984 340.996C320.137 338.445 322.418 336.8 323.289 334.484C324.244 331.947 322.643 329.351 321.757 326.963Z"/><path fill="#DEDCDA" d="M749.124 326.47C750.859 336.988 750.058 375.954 747.25 385.827C747.143 375.246 746.584 351.891 747.224 341.865C749.511 339.083 749.017 330.48 749.124 326.47Z"/><path fill="#DEDCDA" d="M556.562 354.097L555.634 354.134C548.004 354.466 547.958 354.671 543.504 359.539L539.536 351.934L540.001 351.15C544.436 350.697 556.977 352.445 563.592 352.545L556.562 354.097Z"/><path fill="#DEDCDA" d="M466.681 511.321C466.454 512.866 465.408 514.736 464.814 516.212C461.347 519.063 449.035 517.5 443.321 518.403L441.858 516.886C448.548 513.66 459.128 513.383 466.681 511.321Z"/><path fill="#FEFEFE" d="M549.922 358.468C551.941 359.323 553.569 360.49 555.321 361.781L555.664 364.173C553.203 366.727 550.441 362.664 546.843 364.392L546.09 367.087L549.477 368.958L549.179 370.129L547.28 370.536C545.261 368.767 545.035 368.671 544.549 366.058C545.272 362.65 547.52 360.805 549.922 358.468Z"/><path fill="#DEDCDA" d="M374.979 511.522C377.485 511.946 377.945 511.981 379.793 513.681L379.122 515.897C377.931 517.133 377.129 517.687 375.509 518.268C374.629 519.34 373.608 520.295 372.628 521.274L371.404 520.578C371.784 516.757 372.808 514.667 374.979 511.522Z"/><path fill="#FEFEFE" d="M454.878 519.604C455.912 520.305 456.74 521.252 457.619 522.136C458.997 526.077 457.865 530.439 457.221 534.457C454.669 529.298 454.064 525.31 454.878 519.604Z"/><path fill="#A9A4A3" d="M817.64 951.026L839.171 951.131C832.221 952.87 825.003 954.065 817.824 954.16L822.126 952.524L817.64 951.026Z"/><path fill="#4D4747" d="M1819.56 807.605C1822.33 806.327 1825.65 804.223 1828.72 804.847C1826.74 807.198 1823.06 808.272 1820.05 809.011L1819.56 807.605Z"/><path fill="#1A1817" d="M1697.37 752.402C1718.93 750.183 1738.73 757.905 1758.01 766.409C1692.7 768.262 1691.44 804.793 1642.45 829.667C1627.65 835.88 1612.71 839.229 1597.11 842.707C1601.31 823.717 1608.91 806.293 1621.43 791.304C1641.21 767.622 1666.9 755.151 1697.37 752.402Z"/><path fill="#FEFEFE" d="M1709.49 766.183L1712.18 766.222L1712.1 766.826C1704.93 771.205 1697.09 775.43 1690.57 780.734C1683.94 786.136 1677.99 792.642 1671.93 798.667C1655.73 814.757 1639.77 824.09 1617.95 830.902C1616.96 831.047 1615.88 830.992 1614.87 831.017C1615.13 830.008 1615.49 829.037 1616.08 828.169C1620.17 822.138 1626.86 816.64 1632.14 811.59C1655.06 789.701 1677.87 772.58 1709.49 766.183Z"/><path fill="#FEFEFE" d="M1692.77 760.374L1700.15 759.728L1701.06 761.068L1701.8 759.767L1702.88 760.023C1697.94 763.967 1686.5 765.253 1680.28 767.968C1656.9 778.161 1636.47 796.39 1619.23 814.79C1616.19 818.304 1612.8 821.486 1609.47 824.721C1613.98 815.112 1619.53 806.028 1626.03 797.632C1642.81 776.386 1665.89 763.578 1692.77 760.374Z"/><path fill="#1A1817" d="M1297.87 727.307C1303.4 726.708 1309.19 726.594 1314.73 727.124C1334.17 728.853 1352.12 738.233 1364.63 753.199C1379.52 771.295 1381.41 792.303 1379.16 814.747L1373.31 808.432C1358.81 794.2 1342.32 783.42 1326.17 771.233C1310.07 759.3 1295.16 745.844 1281.64 731.051C1287.04 729.77 1292.45 728.522 1297.87 727.307Z"/><path fill="#FEFEFE" d="M1294.6 736.852C1299.15 737.463 1303.63 738.485 1307.99 739.907C1334.39 748.457 1356.69 769.751 1369.13 794.26C1361.55 790.303 1354.45 783.991 1347.59 778.883C1329.38 765.334 1311.55 751.978 1294.6 736.852Z"/><path fill="#FEFEFE" d="M1307.87 733.34C1321.76 732.67 1336.97 738.642 1348.1 746.682C1361.16 756.106 1369.59 769.352 1372.15 785.342C1367.6 780.487 1363.75 773.879 1359.54 768.602C1345.42 750.905 1329.09 740.727 1307.87 733.34Z"/><path fill="#131211" d="M1237.23 591.36C1248.65 590.013 1259.08 592.007 1270.08 594.898C1213.3 607.101 1221.91 640.802 1179.86 667.902C1172.6 671.98 1165.07 674.805 1157.12 677.201C1156.44 658.709 1158.23 643.525 1169.57 628.34C1185.18 607.44 1211.89 594.969 1237.23 591.36Z"/><path fill="#FEFEFE" d="M1227.25 605.891L1228.33 606.407C1223.15 612.244 1217.62 617.892 1212.81 624.039C1199.88 640.567 1190.95 654.754 1172.04 665.177C1171 665.026 1170.89 664.751 1170.11 664.09C1180.23 638.024 1202.73 618.127 1227.25 605.891Z"/><path fill="#FEFEFE" d="M1216.31 603.04L1218.07 602.913C1218.08 604.65 1209.08 609.431 1207.13 610.743C1188.72 623.174 1175.74 638.889 1165.97 658.741L1165.41 659.346L1164.55 658.79C1164.87 652.214 1167.51 645.487 1170.09 639.472C1177.99 621.05 1198.67 610.016 1216.31 603.04Z"/></svg>