<?xml version="1.0" encoding="utf-8" ?><svg xmlns="http://www.w3.org/2000/svg" xmlns:xlink="http://www.w3.org/1999/xlink" width="2048" height="1024" viewBox="0 0 2048 1024"><path fill="#2A2F41" d="M827.992 59.399C828.249 59.3634 828.506 59.325 828.763 59.2922C839.539 57.9194 855.241 58.8188 863.984 65.7154C866.679 67.8407 868.79 70.751 869.01 74.2845C870.692 101.243 781.563 145.555 759.387 159.41C743.589 169.28 726.932 179.807 714.648 193.976C709.916 199.434 704.07 207.071 704.755 214.676C705.067 218.147 706.799 221.044 709.517 223.188C721.018 232.258 741.082 229.823 754.491 226.823C785.716 219.838 816.263 203.716 846.162 192.215C917.379 164.819 1003.24 135.261 1078.79 125.953C1104.12 122.832 1152.86 117.435 1173.46 134.01C1177.77 137.473 1180.68 142.164 1181.25 147.715C1182.09 155.824 1177.71 163.058 1172.73 169.054C1148.37 198.368 1044.4 258.948 1005.2 273.739C991.228 279.143 976.537 282.472 961.597 283.621C971.048 280.153 980.526 277.055 990.018 273.468C1001.11 269.327 1011.94 264.512 1022.45 259.05C1050.87 244.352 1161.11 181.298 1172.56 154.755C1173.86 151.739 1174.2 148.653 1172.94 145.561C1171 140.814 1166.04 137.939 1161.53 136.079C1147.66 130.363 1130.92 130.286 1116.17 130.602C1081.82 131.338 1048.35 138.367 1015.1 146.461C939.753 164.801 868.606 191.775 796.753 220.499C786.199 224.718 774.944 228.002 764.584 232.412C788.317 237.316 799.354 247.906 779.082 266.855C777.333 276.969 777.998 292.62 778.065 303.353C801.497 297.356 923.568 260.215 934.376 262.002C941.691 263.211 949.239 271.856 953.849 277.364C971.799 298.811 986.364 324.291 1001.44 347.853L1073.82 461.394C1091.56 454.437 1113.07 443.581 1131.27 435.752C1177.66 415.488 1224.81 397.02 1272.61 380.389C1308.52 367.893 1350.31 354.447 1387.97 348.734C1373.38 354.972 1352.6 361.449 1337.41 366.465C1310.19 375.297 1283.08 384.478 1256.09 394.005C1195.75 415.712 1136.75 441.624 1077.79 466.821C1087.83 483.567 1098.47 499.842 1110.43 515.362C1114.35 520.452 1122.59 526.495 1126.87 532.243C1128.81 534.837 1130 537.918 1130.3 541.146C1132.02 560.259 1097.48 563.563 1084.26 564.961L1083.99 619.277C1104.83 607.862 1117.64 610.499 1129.79 631.068C1136.75 618.512 1144.76 606.452 1158.56 601.167C1201.63 584.668 1214.86 619.038 1201.7 653.808C1203.18 653.568 1204.68 653.39 1206.17 653.272C1209.68 653.025 1217.19 654.173 1219.77 656.799C1225.76 662.914 1217.77 670.833 1217.69 676.543C1221.87 677.08 1226.36 675.708 1230.25 677.47C1240.14 681.958 1233.51 694.897 1230.48 701.405C1243.9 689.826 1247.66 682.964 1261.45 697.364C1318.65 665.601 1382.93 639.403 1444.42 617.052C1556.23 576.355 1671.2 544.964 1788.18 523.198C1840.58 513.576 1893.3 505.803 1946.25 499.895C1955.64 498.822 1990.9 493.14 1997.09 497.435C1998.88 500.709 1998.65 499.315 1998.31 502.735C1993.6 509.262 1980.8 508.939 1973.25 509.643C1933.01 513.39 1892.43 518.353 1852.45 524.466C1692.4 549.292 1535.7 592.25 1385.36 652.51C1358.56 663.129 1332.22 674.855 1306.39 687.66C1297.44 692.038 1269.4 703.651 1267.16 712.467L1270.24 711.953C1296.26 707.741 1280.77 726.097 1280.99 729.928C1286.06 731.464 1311.81 734.139 1318.84 735.042C1343.15 738.177 1367.42 741.564 1391.66 745.204C1402.15 738.701 1414.05 729.77 1424.68 722.735C1447.25 707.77 1470.32 693.568 1493.84 680.151C1630.25 602.892 1789.97 550.881 1944.11 524.616C1952.85 523.127 1990.86 515.448 1995.92 519.036L1996.07 521.415C1991.88 526.35 1971.58 527.506 1963.78 528.749C1942.67 531.995 1921.62 535.711 1900.67 539.893C1856.7 548.785 1813.12 559.514 1770.04 572.052C1661.79 603.651 1558.09 649.176 1461.57 707.485C1443.72 718.449 1418.02 734.287 1402.21 747.677C1432.31 752.8 1459.14 756.875 1489.23 763.21C1525.27 748.016 1557.43 732.473 1594.88 717.956C1718.17 670.161 1846.43 636.322 1977.25 617.072C1982.51 616.29 1989.23 614.884 1993.43 617.991L1993.23 620.259C1989.76 623.615 1954.62 627.723 1948.1 628.746C1924.28 632.398 1900.56 636.707 1876.98 641.668C1775.2 663.15 1675.43 693.218 1578.73 731.549C1552.96 741.783 1526.73 754.908 1500.68 765.728C1571.33 779.434 1639.42 798.727 1708.62 817.864C1712.57 807.427 1717.2 797.413 1729.92 795.424C1733.25 794.905 1735.12 795.741 1737.47 794.158C1736.27 778.996 1734.29 738.023 1760.39 741.931C1771.11 743.536 1777.77 755.753 1783.32 764.439C1789.28 752.789 1796.02 749.031 1806.18 759.733C1806.1 742.129 1804.83 725.914 1826.03 722.327C1827.89 713.85 1830.88 704.862 1835.96 697.688C1842.78 688.068 1854.5 684.781 1864.12 692.81C1875.62 702.41 1877.28 717.548 1878.58 731.554C1900.18 732.694 1888.59 741.29 1900.6 754.193C1902.5 756.184 1907.87 755.391 1910.72 755.327C1922.43 755.067 1922.97 767.968 1922.97 777.193C1961.15 764.008 1951.07 806.334 1942.6 826.765C1950.52 831.859 1950.76 837.057 1952.2 845.67C1957.86 844.031 1962.37 843.354 1968.17 844.55C1988.41 848.724 1970.79 875.614 1969 884.763C1972.69 885.939 1975.31 885.588 1978.87 887.785C1991.75 895.727 1983.65 911.074 1978.13 920.441C2012.72 929.635 1952.06 961.263 1942.87 965.025C1935.78 967.923 1931.69 968.822 1924.26 970.215C1934.74 961.384 1947.39 955.707 1957.93 947.121C1947.1 950.035 1936.69 952.981 1926.09 956.705C1913.28 961.205 1900.73 967.47 1887.43 970.043C1896.79 961.846 1908.32 953.799 1918.14 945.758C1932.4 933.925 1945.54 920.787 1957.37 906.515C1942.38 914.345 1918.75 919.478 1904.84 929.791C1881.16 947.35 1880.64 964.078 1848.88 971.993C1852.08 967.887 1858.54 961.511 1862.47 958.073C1898.03 926.942 1908.34 897.933 1909.52 850.886C1894.97 875.312 1875.78 896.46 1861.6 920.85C1859.41 929.059 1857.78 936.894 1855.6 945.198C1853.8 952.07 1836.69 972.758 1830.61 970.097C1831.69 965.594 1842.78 953.871 1846.9 941.722C1856.5 913.394 1851.06 884.923 1838.94 858.556C1839.05 895.415 1828.64 936.882 1810.58 969.067C1812.59 925.256 1798.03 893.897 1760.11 870.733C1786.5 899.505 1798.62 934.053 1794.18 972.827C1789.62 961.898 1788.3 949.662 1784.91 938.373C1776.1 909.044 1764.95 879.501 1740.66 859.818C1782.43 865.156 1808.28 894.402 1817.18 934.47C1822.97 915.272 1827.81 894.798 1832.22 875.203C1833.92 867.626 1833.52 857.126 1835.5 850.683C1850.65 856.904 1857.8 892.806 1860.19 906.801C1876.14 886.747 1902.41 856.219 1912.93 834.13C1918.28 868.406 1916.05 888.844 1904.51 920.321C1917.27 912.486 1947.1 905.68 1964.6 898.574C1955.35 923.313 1949.37 930.507 1929.36 948.248C1940.88 945.369 1952.63 943.493 1964.47 942.641C1971.42 938.126 1975.7 934.04 1981.09 927.901C1973.77 927.791 1967.9 928.563 1960.64 929.394C1966.17 922.565 1975.9 909.063 1976.83 900.277C1973.41 889.994 1951.3 899.666 1943.17 902.134C1949.02 893.296 1961.96 879.568 1965.26 870.231C1978.51 832.689 1936.12 869.758 1928.17 874.562C1932.41 866.409 1945.66 844.467 1940.26 836.639C1935.06 835.251 1924.54 842.99 1918.5 846.133C1925.93 835.36 1932.65 826.034 1937.69 813.707C1940.05 807.944 1944.81 785.819 1936.53 783.807C1924.46 780.875 1910.06 802.307 1900.45 807.658L1899.06 807.238C1897.08 797.365 1918.77 778.43 1911.7 766.83C1903.04 761.775 1896.09 777.971 1891.99 784.57C1892.2 778.227 1894 762.919 1889.52 758.638L1886.85 758.882C1882.5 761.054 1879.29 765.874 1876.2 769.768C1876.73 762.126 1881.91 746.114 1879.92 741.453C1874.55 740.394 1874.89 743.936 1869.7 743.228C1865.61 735.584 1870.28 702.097 1854.25 697.319C1834.7 697.893 1836.65 730.171 1836.69 743.069C1835.82 741.777 1834.94 740.501 1834.03 739.239C1831.07 735.111 1829.18 733.607 1824.18 732.799C1810.69 736.366 1814.39 772.457 1816.46 783.155C1811.59 776.086 1807.2 768.271 1798.6 766.43C1787.16 769.317 1790.68 786.895 1791.4 796.123C1783.55 785.614 1767.99 753.974 1756.54 751.651C1739.04 757.54 1752.48 812.594 1755.13 825.147C1745.15 814.988 1727.98 784.476 1718.89 825.961C1717.43 832.647 1725.52 852.956 1722.41 861.002C1718.91 860.284 1708.55 841.936 1703.13 841.435C1679.52 839.252 1701.87 884.968 1693.93 889.379C1688.17 886.194 1685.61 872.784 1675.41 871.008C1664.46 874.789 1671.33 891.182 1666 896.81C1659.87 893.686 1649.83 850.04 1637.93 855.748C1613.72 867.359 1633.3 913.865 1636.25 932.05C1629.85 924.086 1618.7 909.633 1606.7 911.998C1598.62 913.593 1597.04 924.285 1593.09 930.611L1591.33 930.901C1584.8 925.344 1593.01 907.542 1586.08 897.372C1576.83 892.239 1567.38 903.829 1561.6 909.941C1562.31 901.358 1564.46 894.916 1559.9 887.681C1551.83 882.452 1543.94 890.251 1537.41 895.143C1541.38 884.446 1551.1 862.904 1543.93 852.002C1537.5 842.238 1519.4 861.071 1514.52 866.282C1521.26 831.052 1499.3 809.69 1486.68 850.458C1483.56 836.131 1486.46 794.452 1462.18 796.848C1445.88 798.457 1451.04 827.193 1452.67 838.698C1448.2 832.471 1424.39 796.738 1414.52 817.1C1408.95 828.587 1418.43 849.664 1423.32 861.442C1399.92 844.023 1397.82 857.669 1396.72 880.234C1392.15 872.197 1380.72 847.862 1369.6 850.339C1360.54 856.4 1369.06 883.855 1371.73 892.171C1366.95 887.824 1362.21 882.249 1355.86 881.933C1347.39 886.036 1357.75 902.862 1360.58 908.527C1352.81 904.018 1341.65 896.171 1332.63 898.316C1321.67 906.811 1342.57 932.611 1348.14 940.947C1338.48 936.397 1318.83 920.686 1309.31 926.924C1301.8 943.17 1339.36 963.423 1349.83 969.934C1338.86 968.122 1323.4 965.188 1315.5 959.321C1298.8 946.888 1285.9 914.04 1318.52 914.577C1322.23 914.638 1316.7 898.464 1322.11 893.189C1328.23 887.221 1329.75 888.97 1337.87 887.956C1341.45 887.508 1340.61 884.248 1341.54 881.653C1343.55 872.605 1344.23 873.215 1353.17 871.092C1359.36 864.061 1351.34 832.485 1381.33 841.513C1386.66 844.721 1388.48 847.019 1392.03 852.036C1396.58 846.341 1402.31 844.199 1404.18 841.945C1407.07 838.439 1398.61 818.053 1407.81 806.657C1410.81 802.941 1415.21 800.824 1419.93 800.41C1428.06 799.699 1434.31 803.349 1440.31 808.413C1446.32 790.083 1460.15 778.034 1479.61 791.302C1488.57 797.413 1491.31 810.666 1492.41 821.075C1513 813.333 1521.58 823.219 1525.7 843.042C1552.78 828.735 1559.66 850.306 1556.41 873.512C1566.35 875.258 1568.24 878.596 1573.37 886.479C1604.97 882.704 1586.02 902.118 1609.44 901.067C1612.33 900.937 1614.9 901.412 1617.78 901.851C1614.28 883.784 1611.99 848.85 1637.33 844.825C1651.32 842.603 1655.92 856.782 1664.08 863.918C1673 857.943 1669.43 860.102 1679.03 859.916C1681.91 859.86 1680.49 848.201 1683.45 842.636C1692.86 824.994 1704.33 832.81 1707.81 831.48L1707.34 830.192C1700.92 827.234 1685.07 823.353 1677.7 821.303L1630.7 807.956C1459.56 760.921 1275.56 737.089 1098.49 727.902C1098.25 735.582 1098.4 743.163 1098.5 750.841C1104.75 742.031 1105.9 740.11 1114.87 734.21C1112.82 742.386 1110.41 747.046 1106.16 754.033C1075.34 755.122 1045.9 753.24 1015.26 752.311C1009.82 752.146 994.923 754.564 988.491 755.26C974.943 756.622 961.37 757.715 947.779 758.538C992.971 770.481 1065.93 765.876 1108.38 794.06C1112.57 797.14 1116.97 803.151 1117.19 808.418C1117.96 826.407 1088.33 832.949 1074.83 835.902C1048.54 841.652 1020.76 844.166 993.909 847.023C951.989 851.136 910.103 855.59 868.255 860.385C790.474 869.714 689.589 887.317 636.898 951.439C658.672 939.643 670.539 927.462 696.983 915.282C688.986 931.746 668.861 955.508 655.837 969.435C654.274 971.106 652.509 970.754 650.669 970.514L649.832 968.747C651.085 963.34 675.542 936.507 681.009 930.161C664.97 939.842 643.067 956.344 628.72 968.231C626.351 970.193 624.336 970.087 621.467 969.685C620.904 967.389 647.008 917.952 649.761 910.101C632.027 931.69 610.472 954.759 590.908 974.911C591.458 967.456 596.739 956.525 597.966 947.945C600.13 932.813 600.83 917.935 602.557 902.704C596.08 914.962 590.475 927.043 584.922 939.699C582.207 945.886 575.732 964.871 572.673 969.276C569.466 970.103 568.884 970.314 565.544 969.577C564.861 967.957 567.121 959.635 567.544 957.311C576.988 905.337 557.923 872.024 525.049 833.461C543.434 871.254 553.796 909.977 544.998 952.099C543.893 957.389 543.108 966.552 539.016 969.724C535.607 970.375 536.893 970.597 534.077 969.136C531.583 964.466 536.597 947.668 537.614 940.017C520.831 948.346 508.876 955.85 495.213 968.582C494.029 969.684 491.23 970.204 489.603 970.271L488.113 968.9C487.612 953.986 530.453 935.414 539.287 926.295C539.098 922.952 539.207 922.019 537.189 919.195C534.711 917.371 532.29 916.606 529.49 917.075C499.558 922.096 472.876 942.534 457.761 968.513C456.78 970.198 455.087 970.23 453.288 970.284L451.939 968.492C450.275 950.681 494.703 922.691 491.108 908.956L488.667 907.782C478.813 907.575 469.207 912.507 461.195 917.747C465.393 910.317 479.97 894.097 472.474 886.833C463.933 884.645 449.322 891.565 441.267 894.902C444.434 889.838 450.698 880.626 452.561 875.204C463.36 843.783 422.589 866.874 413.208 872.512C416.414 861.77 428.325 839.294 425.104 830.649C417.84 824.697 405.496 837.283 400.062 842.317C403.183 830.899 420.675 796.511 409.328 787.418C407.319 786.725 405.344 786.739 403.445 787.641C380.697 798.439 383.047 832.523 372.474 856.216C372.22 847.039 373.668 831.032 364.859 826.251C354.597 826.359 347.099 851.463 343.948 859.938C342.826 852.401 342.042 837.235 334.994 833.796C328.308 835.243 323.622 851.113 317.782 856.986C312.699 862.098 311.555 862.585 305.362 866.117C308.443 858.832 320.988 833.476 311.578 829.068C303.041 829.968 293.894 841.755 288.488 848.02C291.005 838.143 302.707 815.771 298.885 808.85C289.744 804.229 277.199 819.436 271.585 825.315L271.679 824.884C274.696 811.533 292.019 776.251 286.728 765.537C278.106 761.607 266.606 784.813 263.454 791.171C262.858 782.83 263.878 772.795 255.878 767.811C245.989 765.438 239.953 779.681 236.48 786.657C236.118 773.264 236.952 744.519 224.706 736.836C212.331 735.002 205.746 758.357 202.962 767.471C201.897 761.712 200.764 748.64 193.883 747.685C186.618 753.1 187.843 769.809 187.887 778.256C185.771 770.98 173.98 719.93 158.385 747.099C150.204 761.349 163.153 794.946 168.352 811.232C163.092 804.709 154.903 792.913 146.411 791.495C134.99 794.816 147.49 828.458 149.928 836.833C144.854 830.381 140.022 822.452 131.735 821.339C122.222 825.019 127.93 839.872 129.907 847.353C124.501 839.614 110.626 815.774 100.036 819.476C88.2491 833.98 111.342 874.356 119.746 887.321C112.945 883.278 82.4192 859.353 75.7983 870.864C63.9116 891.529 88.1788 910.593 102.151 922.393C94.5809 920.537 68.6819 911.462 63.5415 916.462L64.1105 918.8C73.3114 930.085 96.0994 933.05 109.782 938.475C119.523 942.336 123.324 943.873 132.859 949.048C123.098 937.8 96.7209 900.395 91.4202 887.141C96.4671 892.202 105.431 901.116 111.518 904.862C134.306 918.889 146.551 922.68 164.207 943.932C155.403 910.761 155.512 878.581 147.709 843.969C160.922 862.903 170.113 875.544 179.653 896.936C182.347 873.251 190.703 845.18 201.925 824.062C202.31 827.63 202.545 831.621 202.768 835.218C204.786 867.782 215.957 898.948 218.655 931.362C227.222 891.814 240.938 877.495 270.867 851.164C259.129 879.462 254.387 899.013 247.923 928.725C261.028 911.409 269.013 905.157 288.701 896.434C284.728 906.734 277.87 919.363 273.284 930.123C267.568 943.531 262.251 959.539 255.422 971.933C257.231 945.835 267.128 928.508 279.371 906.215C263.991 916.886 250.677 931.486 245.54 949.876C244.273 954.413 242.395 964.361 239.522 967.528L238.42 966.382C233.768 946.373 249.751 890.158 257.594 870.442C240.621 890.974 227.76 910.446 223.195 937.318C221.953 944.63 223.088 963.638 219.469 968.455C214.445 960.136 215.116 937.582 212.74 926.575C207.093 900.412 200.425 873.465 198.5 846.726C187.357 878.754 183.081 901.503 190.268 935.606C192.693 947.111 196.569 961.412 196.906 972.931C184.22 951.582 183.334 932.846 176.543 909.432C172.827 896.617 165.932 883.108 159.41 871.503C163.249 895.579 167.034 919.713 171.268 943.729C172.458 950.476 178 963.04 176.674 968.411C173.099 969.09 169.193 962.947 166.768 959.77C149.699 937.413 135.427 925.509 111.223 911.613C116.915 918.611 153.614 959.523 148.88 967.797C142.017 967.444 128.702 951.786 120.942 947.92C115.443 945.179 113.498 944.722 107.597 943.062C120.629 952.381 124.058 956.013 134.186 968.735C109.28 957.799 109.213 944.325 82.972 938.557C84.7136 940.614 89.9469 944.468 92.2949 946.527C101.687 954.767 105.782 960.001 112.147 970.467C94.6185 960.17 90.2977 950.248 71.5904 945.489C76.7801 952.961 85.6528 960.067 92.3054 967.516C81.1888 963.403 63.3473 952.917 61.2826 940.46C62.1832 936.997 62.1248 937.885 65.3222 935.167C63.218 927.597 34.3821 909.143 70.9692 905.011C65.7093 893.738 61.3214 882.697 65.9649 870.375C71.4721 855.761 84.7499 857.683 96.3072 862.217C91.2315 849.416 82.526 826.519 92.15 814.755C101.06 803.864 111.345 811.87 118.696 818.179C123.706 816.376 120.012 810.87 130.759 810.397C138.955 810.035 122.771 785.243 147.927 778.906L144.53 763.708C132.346 765.707 120.229 768.091 108.196 770.857C91.0564 774.736 73.8738 779.483 56.6957 783.305C51.7168 784.412 49.2986 785.032 46.1699 780.853C46.0094 777.095 45.7345 778.612 47.5386 775.034C50.4644 772.739 62.6812 770.244 67.0485 769.178C54.6387 755.157 61.6395 750.332 76.5702 749.02C84.8179 742.403 77.1291 728.406 102.205 742.318C95.1708 730.607 85.5426 713.74 87.1756 699.807C91.5589 662.409 122.675 660.116 144.739 684.976C145.102 682.799 145.521 680.632 145.996 678.477C153.019 647.348 193.829 625.33 212.455 655.968C218.134 632.378 237.296 616.095 260.264 633.8C273.905 644.315 277.252 662.582 278.692 678.948C296.616 645.097 311.631 666.753 321.47 691.558C321.878 683.196 322.367 675.891 328.11 669.357C330.688 666.378 334.363 664.572 338.296 664.351C345.573 663.964 352.353 668.817 357.405 673.487C356.1 659.087 351.786 624.255 377.273 628.372C384.566 629.549 389.526 636.293 393.352 642.135C394.507 615.927 404.468 600.983 431.775 610.481C434.691 581.905 459.715 591.059 473.84 606.988C478.952 586.36 491.613 590.299 506.656 598.468L506.776 569.737C493.73 571.678 474.464 573.672 461.409 574.198C455.893 571.319 444.618 565.101 442.42 559.298C441.584 557.113 441.752 554.67 442.88 552.62C449.74 540.15 495.396 515.523 508.639 501.78C517.264 492.829 529.456 469.5 538.579 457.366C554.19 436.604 618.364 352.694 635.682 343.925C646.215 338.592 659.776 336.305 671.231 333.264L731.907 317.218C731.984 310.24 733.465 273.37 731.074 268.984C725.273 258.342 711.772 253.616 736.5 237.699C718.428 236.726 692.403 233.09 698.152 207.126C700.228 197.75 709.116 187.851 716.136 181.321C738.858 160.184 767.316 146.017 793.689 130.094C808.702 120.968 855.923 94.9044 860.377 77.605C859.813 69.1792 851.195 67.666 844.112 67.3248C811.444 65.7508 777.242 78.3338 747.13 90.0017C632.389 134.463 526.022 197.24 415.354 250.172C370.693 271.447 325.607 291.818 280.124 311.274C244.71 326.799 176.161 353.267 147.545 377.921C141.384 383.229 133.198 391.64 132.724 400.102C132.529 403.579 133.925 406.656 136.252 409.166C165.985 441.23 363.451 411.913 410.836 405.244L482.141 395.17C492.941 393.751 547.514 383.113 546.726 401.709C546.271 412.466 520.825 426.303 511.586 431.139C466.032 454.982 417.74 474.161 369.077 490.737C332.301 504.075 219.839 530.399 194.588 551.341C211.912 554.527 236.08 553.306 253.965 552.304C290.635 550.453 327.15 546.275 363.29 539.796C396.3 533.655 425.209 526.03 457.429 518.944C412.998 541.018 331.575 554.989 281.57 558.056C265.721 559.027 203.439 565.571 188.797 555.382C187.029 554.152 187.185 551.803 187.178 549.91C196.205 529.994 309.174 501.363 331.429 494.633C352.537 488.071 373.525 481.125 394.38 473.799C429.191 461.179 463.234 446.535 496.336 429.942C503.78 426.119 537.301 408.804 537.257 401.076C527.789 394.119 454.191 406.732 437.174 409.166C382.203 417.027 174.874 448.671 133.974 417.158C129.127 413.424 125.446 408.241 124.803 402.037C124.03 394.577 128.084 387.64 132.624 382.07C143.849 368.299 160.829 358.581 176.319 350.443C210.124 332.682 245.57 317.889 280.544 302.6C325.868 283.174 370.786 262.816 415.271 241.539C514.949 193.661 611.394 137.953 713.784 95.2021C748.233 80.8184 790.82 63.1357 827.992 59.399Z"/><path fill="white" d="M241.573 745.358C278.303 742.505 314.969 738.886 351.547 734.504C373.898 731.618 396.497 726.695 418.999 725.624C447.559 724.264 476.368 721.674 504.92 720.98C504.931 726.662 505.414 735.102 502.648 739.863C502.554 741.305 502.292 743.989 502.341 745.318C505.815 744.961 513.893 746.115 517.741 746.367C533.059 747.356 548.371 748.446 563.676 749.637C620.641 753.931 677.599 758.684 734.597 762.895C752.092 764.188 764.665 761.931 781.768 760.952C813.721 759.124 849.28 754.317 881.187 754.208C898.682 754.148 935.22 764.226 956.444 768.028C1001.22 776.05 1066.08 776.02 1104.9 800.523C1107.98 802.47 1109.69 806.113 1110.01 809.705C1104.78 832.126 1011.8 837.785 990.446 840.383C888.728 852.754 778.605 851.766 686.683 902.443C671.872 910.609 659.396 921.184 646.592 932.021C651.194 922.07 656.7 903.674 660.452 892.49C643.91 905.319 621.85 931.756 605.429 947.558C608.447 928.739 607.778 906.793 608.626 887.254C596.462 901.626 586.482 917.712 579.007 934.993C577.331 883.572 556.478 850.07 513.76 821.106C528.146 849.027 536.831 879.533 539.309 910.845C521.287 907.673 514.38 914.14 501.774 914.477L501.906 913.557C503.508 901.843 493.47 901.433 484.904 900.554C482.17 889.447 499.717 879.527 465.46 876.502C460.879 876.097 477.368 840.969 432.234 852.298C434.854 845.37 439.455 835.01 436.293 827.898C433.16 820.849 426.876 821.879 420.984 819.429C419.443 811.183 426.521 798.208 420.353 788.453C399.325 755.19 379.303 801.588 373.296 818.252C353.056 805.062 352.836 838.556 338.055 823.77C335.785 821.498 330.674 824.581 327.323 825.438C319.487 817.661 322.053 820.136 311.915 818.178C308.981 817.612 312.833 806.223 308.884 802.856C303.134 797.954 297.677 797.92 290.832 798.005C295.231 787.197 301.477 769.043 294.014 758.797C287.186 749.425 274.026 759.742 268.252 764.816C259.997 756.327 254.981 755.432 244.024 759.121C243.363 754.603 242.406 749.869 241.573 745.358Z"/><path fill="#21273B" d="M502.341 745.318L500.459 746.014L498.717 744.879C497.004 741.258 493.931 735.126 495.221 731.152L496.855 731.245C500.532 734.469 500.866 735.247 502.648 739.863C502.554 741.305 502.292 743.989 502.341 745.318Z"/><path fill="#21273B" d="M647.525 811.217C657.192 814.168 665.393 819.397 672.448 826.585C679.146 833.41 683.789 841.039 683.658 850.805L682.765 851.569C676.587 845.849 672.198 833.642 664.557 825.772C661.275 822.876 657.656 820.263 654.211 817.556C659.801 827.587 666.281 842.044 664.735 853.808L663.644 853.518C660.052 847.331 649.132 818.224 647.525 811.217Z"/><path fill="#21273B" d="M921.053 796.022C924.182 796.789 927.11 797.772 930.024 799.163C943.189 805.449 952.498 816.798 957.314 830.415C956.347 829.938 924.886 799.687 921.053 796.022Z"/><path fill="#21273B" d="M734.371 806.828C737.432 807.249 740.524 808.181 743.409 809.269C755.107 813.678 765.915 821.721 771.182 833.273C766.004 831.462 738.285 811.103 734.371 806.828Z"/><path fill="#21273B" d="M764.106 805.857C771.066 807.112 776.65 810.63 781.459 815.786C786.243 820.916 790.204 827.97 789.996 835.127C786.978 832.577 784.226 828.018 781.536 824.938C775.865 818.444 769.81 812.32 764.106 805.857Z"/><path fill="#21273B" d="M948.587 797.78C952.22 798.556 955.605 800.614 958.404 802.998C965.904 809.386 971.383 819.448 972.247 829.272C970.552 828.081 953.327 803.142 948.587 797.78Z"/><path fill="#21273B" d="M622.631 838.687C623.17 838.757 623.708 838.838 624.243 838.929C637.124 841.057 644.449 849.388 651.564 859.458C642.38 858.455 629.926 844.434 622.631 838.687Z"/><path fill="#21273B" d="M434.894 729.957C445.638 730.726 458.465 737.477 465.66 745.178C455.81 744.255 442.088 736.532 434.894 729.957Z"/><path fill="#21273B" d="M986.648 799.52C987.833 799.87 987.738 800.03 988.452 800.959C985.304 809.145 981.814 816.559 980.347 825.293L978.47 823.695C977.759 821.469 977.301 819.428 977.443 817.073C977.86 810.11 981.564 804.052 986.648 799.52Z"/><path fill="#21273B" d="M792.51 804.518C795.805 805.156 798.858 807.788 800.914 810.349C805.56 816.133 806.545 823.042 805.843 830.207C802.675 827.774 795.087 809.115 792.51 804.518Z"/><path fill="#21273B" d="M458.51 727.133C462.777 728.427 466.876 730.935 470.63 733.309C475.921 736.654 480.068 739.959 481.446 746.14C481.255 746.139 481.063 746.15 480.873 746.137C480.57 746.116 480.269 746.069 479.967 746.039C479.785 746.022 479.601 746.019 479.419 745.995C474.86 745.405 461.697 731.3 458.51 727.133Z"/><path fill="#21273B" d="M703.711 835.744L704.861 836.122L705.234 837.129C702.085 842.865 699.146 849.155 694.9 854.153L693.096 853.029C692.107 851.038 691.816 849.6 692.447 847.374C693.935 842.121 699.116 838.146 703.711 835.744Z"/><path fill="#21273B" d="M479.736 729.66C481.8 730.394 484.058 731.638 485.708 733.088C489.862 736.739 490.998 740.869 491.401 746.214C489.308 746.292 487.742 746.117 485.747 745.472C481.866 741.588 481.027 734.867 479.736 729.66Z"/><path fill="#21273B" d="M1006.57 801.81L1007.25 802.5C1007.5 806.908 998.663 818.823 996.205 823.619L995.423 823.061C994.821 821.383 994.745 819.991 995.099 818.259C996.517 811.336 1000.82 805.713 1006.57 801.81Z"/><path fill="#21273B" d="M735.264 826.211C736.286 826.343 737.304 826.481 738.316 826.677C742.007 827.391 745.528 829.818 747.581 832.995C748.945 835.104 749.662 837.167 749.154 839.692C744.078 836.662 738.816 832.093 734.622 827.931L735.264 826.211Z"/><path fill="#21273B" d="M813.468 814.625C815.126 815.49 816.874 816.614 818.117 818.036C821.571 821.987 821.193 826.626 820.874 831.546C816.268 828.719 814.866 819.75 813.468 814.625Z"/><path fill="#2A2F41" d="M924.26 817.08C925.028 817.215 925.78 817.369 926.537 817.56C932.165 818.982 935.62 822.227 938.51 827.104C932.596 825.21 928.206 821.782 924.26 817.08Z"/><path fill="#2A2F41" d="M433.012 739.873C438.499 740.566 443.464 742.312 447.822 745.772C441.126 746.175 438.075 743.718 433.012 739.873Z"/><path fill="#21273B" d="M839.491 824.766L840.34 825.666C840.476 828.723 838.092 831.833 836.578 834.435C835.489 833.458 835.422 832.881 834.972 831.515C835.508 828.581 837.522 826.862 839.491 824.766Z"/><path fill="white" d="M887.366 354.692C907.547 354.449 927.429 354.836 947.566 354.737C957.796 369.721 967.807 384.854 977.595 400.13C973.534 400.64 967.649 400.514 964.891 402.804L965.211 404.169C971.195 406.655 974.598 406.113 980.971 405.076L989.822 418.911L991.998 421.663L991.73 423.131C988.535 423.891 986.799 423.937 983.546 424.131C996.068 425.06 995.445 426.944 1001.52 437.382C984.547 437.095 966.851 436.4 950.035 438.598C966.136 443.154 988.809 443.672 1006.06 444.769L1016.97 461.352C999.196 460.933 975.144 459.805 958.162 462.102C980.329 467.198 998.903 467.582 1021.46 468.153C1032.19 483.035 1043.42 499.642 1054.8 513.746C1047.45 514.13 1039.04 514.469 1031.99 516.664C1041.5 518.774 1047.61 519.055 1057.21 519.625L1057.12 535.103C1051.79 535.251 1033.33 535.127 1030.25 538.417C1037.34 541.4 1049.52 541.255 1057.05 541.198L1057.04 554.129C1042.56 554.142 939.663 552.145 935.707 555.645C948.369 560.598 1039.84 560.83 1056.92 560.756L1055.99 672.207C1052.98 672.783 1048.34 673.349 1045.97 674.972L1045.65 676.158C1048.59 677.471 1052.09 677.317 1055.37 677.446C1056.45 680.56 1056.09 685.321 1056.04 688.752C1048.49 688.904 1032.69 688.81 1026.51 692.192C1031.59 696.381 1051.43 691.506 1056.03 697.188C1056.21 700.335 1056.13 700.69 1054.33 703.269C1047.67 708.248 1035.26 705.162 1024.94 706.916C1028.12 707.378 1035.46 707.705 1038.51 707.062C1036.09 707.066 1027.33 709.315 1026.52 709.176C1012.61 706.788 963.69 714.169 953.298 710.039C952.464 705.042 952.937 675.96 952.942 669.322L953 576.601C944.444 575.48 932.297 576.965 921.638 575.51C923.921 574.461 944.218 576.121 950.599 574.508C929.614 573.12 892.823 573.387 871.471 573.928C870.592 587.434 871.195 607.545 871.181 621.423L871.024 709.918C834.735 710.543 794.747 713.751 757.615 714.852L757.952 576.901C765.835 577.636 773.196 577.776 781.113 577.964C780.996 593.733 778.383 671.697 783.661 679.728C784.359 680.79 786.777 681.324 788.009 681.518C794.15 682.483 843.469 681.235 847.602 678.365C851.498 670.033 848.823 630.407 849.502 619.249C849.831 613.842 849.729 578.157 848.385 574.445C844.972 571.527 842.125 571.882 837.652 571.858C811.087 571.719 784.488 571.797 757.925 571.829L757.896 554.85C783.32 554.93 808.918 556.109 834.346 556.267C848.156 556.354 864.248 557.47 877.708 555.477C849.014 548.017 790.87 550.185 758.848 548.54C757.832 546.15 757.711 539.324 759.246 537.739C782.317 513.917 799.549 487.488 818.097 460.1C827.042 460.163 866.218 463.144 871.681 459.06L871.08 457.848C864.832 455.423 831.693 453.87 822.908 453.29L831.997 439.042C848.029 440.336 865.879 440.728 881.659 437.938C868.014 433.553 850.792 433.151 836.43 432.454L844.524 420.213C850.703 420.167 866.133 420.418 871.476 417.515C867.814 414.221 853.982 414.291 848.865 414.094L858.604 398.291C864.984 398.234 869.761 398.765 875.408 395.773L875.491 394.431C872.282 392.302 867.239 392.499 863.246 392.272C871.072 379.609 879.113 367.08 887.366 354.692Z"/><path fill="#21273B" d="M950.599 574.508C954.059 575.22 952.988 574.499 954.866 576.986L954.837 690.731C969.872 687.846 993.65 688.355 1008.71 691.625C995.109 694.684 968.659 695.736 954.896 693.934L954.794 709.346C974.018 708.656 1006.85 706.389 1024.94 706.916C1028.12 707.378 1035.46 707.705 1038.51 707.062C1036.09 707.066 1027.33 709.315 1026.52 709.176C1012.61 706.788 963.69 714.169 953.298 710.039C952.464 705.042 952.937 675.96 952.942 669.322L953 576.601C944.444 575.48 932.297 576.965 921.638 575.51C923.921 574.461 944.218 576.121 950.599 574.508Z"/><path fill="#21273B" d="M983.546 424.131C978.618 424.488 964.717 422.965 960.478 420.535C964.781 417.816 983.777 418.775 989.822 418.911L991.998 421.663L991.73 423.131C988.535 423.891 986.799 423.937 983.546 424.131Z"/><path fill="#21273B" d="M975.312 573.101C986.569 573.066 1031.1 570.379 1038.37 576.249C1040.96 583.284 1040.43 658.532 1038.99 669.715C1038.61 672.618 1038.04 673.121 1035.8 674.885C1024.68 675.287 981.572 679.259 973.87 675.055C973.277 673.578 972.868 672.095 972.656 670.516C970.569 654.974 972.161 637.592 972.244 621.888C972.319 607.835 971.115 592.169 972.938 578.267C973.207 576.221 974.067 574.719 975.312 573.101Z"/><path fill="white" d="M979.022 579.133C997.052 579.505 1015.09 579.739 1033.12 579.835C1033.1 609.294 1034.46 639.549 1032.63 668.93C1014.69 669.081 996.745 669.477 978.811 670.116L979.022 579.133Z"/><path fill="#21273B" d="M984.678 611.169L1027.72 610.791C1027.8 627.119 1029.75 649.818 1026.76 665.33C1012.66 666.687 998.094 666.149 983.921 666.253C983.982 653.644 981.761 622.054 984.678 611.169Z"/><path fill="white" d="M990.259 617.868L1020.86 617.61C1020.88 631.6 1021.17 645.668 1020.55 659.643C1010.48 660.166 1000.2 659.908 990.108 660.012L990.259 617.868Z"/><path fill="#21273B" d="M983.417 583.209C998.274 583.082 1013.13 583.297 1027.98 583.853L1027.92 607.824L983.329 608.061L983.417 583.209Z"/><path fill="white" d="M989.985 589.1L1021.53 589.331L1021.43 602.808L989.96 602.895L989.985 589.1Z"/><path fill="#21273B" d="M867.129 477.09C879.366 476.926 952.371 478.572 958.826 482.484C960.102 484.932 961.161 490.86 960.72 493.333C958.699 504.66 964.04 532.09 957.321 540.944C926.256 541.103 895.191 540.752 864.137 539.889C863.905 537.834 863.543 533.083 863.734 531.208C864.913 519.659 860.242 484.602 867.129 477.09Z"/><path fill="white" d="M869.812 483.879C897.905 484.575 925.994 485.416 954.077 486.403C954.082 501.19 954.636 520.589 953.759 535.011C947.554 534.828 940.898 534.391 934.784 535.222C932.746 525.263 935.909 495.156 933.725 488.967L932.092 488.239L930.25 489.155C928.101 491.758 928.666 494.748 928.778 498.213C928.837 503.715 928.021 530.424 927.505 534.63C909.041 534.193 888.808 533.297 870.475 533.43C870.55 523.995 870.451 513.949 870.843 504.568C879.517 521.283 873.178 520 876.957 530.026C880.171 530.952 878.913 530.999 881.869 530.173C887.591 520.855 872.254 494.09 869.812 483.879Z"/><path fill="#21273B" d="M924.98 504.844C911.577 509.242 924.067 526.007 915.602 531.91L912.695 531.266C911.646 528.026 912.17 518.942 912.172 514.971C912.175 508.677 909.823 495.51 915.436 491.726C917.646 493.003 918.006 497.751 920.182 501.787C925.1 500.155 920.147 493.871 923.525 488.751L927.615 488.032C927.172 491.94 927.331 503.035 925.879 504.758L924.98 504.844Z"/><path fill="#21273B" d="M939.564 532.135C939.278 526.824 937.679 514.317 943.134 510.942C950.767 511.736 948.91 527.046 948.739 532.397C946.735 531.923 941.833 532.113 939.564 532.135Z"/><path fill="#8C8D93" d="M927.615 488.032C928.39 492.137 928.592 494.036 928.778 498.213C928.837 503.715 928.021 530.424 927.505 534.63C926.335 526.885 929.574 509.253 924.98 504.844L925.879 504.758C927.331 503.035 927.172 491.94 927.615 488.032Z"/><path fill="#EBEAEA" d="M939.564 532.135C941.833 532.113 946.735 531.923 948.739 532.397C950.727 534.544 950.781 534.076 953.759 535.011C947.554 534.828 940.898 534.391 934.784 535.222C937.404 534.335 937.686 534.164 939.564 532.135Z"/><path fill="#21273B" d="M894.84 488.831C897.277 490.036 897.789 490.163 899.104 492.495C898.931 493.872 898.577 495.598 898.727 496.976C898.928 498.825 899.359 499.49 900.808 500.519C901.43 497.884 902.122 495.265 902.882 492.666L904.515 491.867L905.994 492.887C907.527 502.334 907.231 514.085 906.259 523.616C905.894 527.193 905.384 529.83 902.593 532.142L900.606 531.469C898.719 527.897 899.599 522.228 899.698 518.25C899.696 514.439 900.179 509.824 898.891 506.226L897.551 506.249C890.144 513.924 896.687 522.271 893.344 530.645C891.101 530.901 890.486 531.012 888.437 530.144C884.711 519.112 890.55 499.255 894.84 488.831Z"/><path fill="#21273B" d="M939.098 489.193C942.07 489.097 944.816 488.804 947.558 490.158C950.449 494.703 949.306 500.671 949.093 505.939C946.129 506.093 943.208 506.539 940.52 505.033C937.8 500.408 938.902 494.476 939.098 489.193Z"/><path fill="#21273B" d="M876.518 486.885L891.447 487.353L887.134 502.993L885.782 505.105L884.223 504.473C880.717 499.205 878.778 492.765 876.518 486.885Z"/><path fill="#21273B" d="M909.587 358.231C958.492 355.445 967.276 427.293 924.895 445.748C873.664 450.966 866.105 369.539 909.587 358.231Z"/><path fill="white" d="M908.207 366.137C940.376 364.421 949.091 393.527 941.137 420.61C938.643 429.101 931.286 435.051 923.268 438.408C883.186 443.085 872.404 379.091 908.207 366.137Z"/><path fill="#21273B" d="M891.413 397.918L918.039 399.928L917.934 433.364C898.339 429.63 891.962 416.412 891.413 397.918Z"/><path fill="white" d="M895.973 404.592L911.867 405.145L911.778 426.431C902.06 422.58 898.121 414.191 895.973 404.592Z"/><path fill="#21273B" d="M912.432 367.995C920.95 369.132 919.178 374.254 919.201 381.427C919.214 385.624 918.994 389.943 918.91 394.151C913.591 393.606 908.096 393.185 902.756 392.716C898.591 392.347 897.411 392.914 894.377 390.879C891.3 380.778 904.07 371.021 912.432 367.995Z"/><path fill="white" d="M909.691 374.601L910.794 375.011C912.669 378.195 911.719 383.675 909.381 386.359C908.213 387.701 904.998 387.467 903.109 387.632C901.861 386.77 902.243 386.953 901.393 385.503C902.219 380.793 906.202 377.575 909.691 374.601Z"/><path fill="#21273B" d="M922.224 400.01C928.781 400.084 933.026 400.497 939.536 401.273C940.079 410.631 937.944 418.686 932.979 426.592C930.112 429.394 928.096 431.856 923.931 431.5C920.294 427.35 922.119 407.254 922.224 400.01Z"/><path fill="white" d="M929.378 405.21C933.4 406.756 932.587 405.773 934.546 408.978C935.054 412.857 932.67 417.209 931.081 420.932L929.449 421.751L928.437 420.58C927.969 414.928 928.678 410.769 929.378 405.21Z"/><path fill="#21273B" d="M922.35 373.277C923.46 373.859 925.036 374.904 926.149 375.596C928.392 381.291 926.069 379.675 926.978 386.096C929.278 388.604 928.231 388.216 930.987 388.422C932.505 386.946 933.18 386.081 934.489 384.407C936.442 386.215 937.201 389.931 938.16 392.775L937.305 394.856C933.159 395.672 926.482 394.631 922.073 394.17C922.059 387.205 922.152 380.24 922.35 373.277Z"/><path fill="#21273B" d="M804.713 484.953C811.272 484.715 826.869 483.492 831.882 487.653C834.841 493.018 834.158 500.895 834.165 506.908C834.175 515.861 836.273 532.514 829.812 538.983C823.88 539.037 806.601 540.836 802.53 536.736C799.541 533.726 799.792 525.113 799.75 521.073C799.643 510.738 797.353 492.475 804.713 484.953Z"/><path fill="white" d="M807.728 490.147L827.634 491.048C827.751 495.317 828.594 501.563 827.481 505.594C826.898 507.709 825.606 508.198 823.883 509.259C819.846 508.044 820.192 499.654 817.901 496.217L815.734 497.175C814.74 498.541 814.02 499.903 813.58 501.532C812.227 506.54 810.707 523.154 813.459 527.425C814.355 528.816 817.888 529.255 819.541 529.713C820.627 525.475 818.591 518.543 821.159 515.106L824.57 514.921L826.099 516.326C827.886 521.668 826.988 528.362 826.854 533.951L807.751 533.418L807.728 490.147Z"/><path fill="#21273B" d="M995.947 483.206C1004.61 483.185 1013.3 483.802 1021.95 484.248C1022.12 491.893 1024.21 506.181 1019.66 512.23C1017.64 514.919 1026.19 529.829 1023.8 539.992C1013.69 540.606 1003.08 540.011 992.933 539.987C992.861 530.819 990.954 491.427 993.689 485.891C994.109 485.04 995.308 483.966 995.947 483.206Z"/><path fill="white" d="M999.216 488.264C1001.1 488.509 1002.34 488.795 1003.99 489.755C1005.99 492.847 1004.76 496.583 1005.13 500.043C1005.41 502.586 1006.91 503.551 1008.74 504.999C1011.67 502.205 1013.52 493.294 1014.93 489.116L1016.2 489.056L1015.75 488.326L1015.04 488.962L1016.37 489.904C1017.23 494.89 1017.12 500.007 1017.19 505.054L1011.49 510.918C1013.26 517.346 1019.9 528.509 1018.84 534.878L1015.93 536.008C1012.04 531.072 1012.21 521.332 1007.24 518.054C1002.35 521.727 1004.49 529.958 1003.37 535.391L1001.51 535.646C998.332 530.963 998.92 524.851 999.038 519.469L1007.01 511.132C999.997 502.566 998.584 499.258 999.216 488.264Z"/><path fill="#21273B" d="M837.203 692.554C843.387 692.238 855.621 690.456 861.027 693.534L861.138 695.116C853.168 701.811 806.784 699.912 794.682 700.159C788.478 700.28 778.424 701.423 772.741 699.325C771.288 698.788 771.387 698.682 770.773 697.282C775.675 693.686 827.36 692.931 837.203 692.554Z"/><path fill="white" d="M598.834 578.972C605.638 576.503 661.166 571.612 671.746 572.042C673.219 572.102 675.203 575.434 676.097 576.951L676.272 579.613C693.089 579.029 713.59 578.747 730.073 577.197L729.956 596.931C716.343 597.178 696.992 597.186 684.066 600.083C698.533 606.228 714.027 603.794 729.873 603.004L729.858 619.898C721.058 619.945 688.336 618.769 683.39 623.73C686.573 626.883 700.653 625.973 706.082 625.947L729.78 625.717L729.757 645.879C721.595 645.86 684.388 644.376 680.4 648.588C687.395 652.798 720.562 652.079 729.804 652.156L729.832 668.425C711.566 668.352 699.444 667.876 681.838 673.095C694.202 674.835 716.908 674.66 729.915 674.785L729.953 692.79C689.998 691.758 650.053 690.4 610.121 688.716C591.965 688.004 556.401 685.601 539.807 687.556C556.375 691.997 587.657 693.304 605.547 694.378C646.973 696.769 688.432 698.575 729.909 699.796L729.908 714.948C667.362 712.139 599.36 706.366 537.526 704.837C537.708 693.07 537.814 681.302 537.843 669.533C547.252 669.747 582.985 671.519 589.525 668.637L589.225 667.431C579.966 662.916 549.313 663.616 538.039 663.578L538.096 650.052C552.178 650.009 579.417 650.713 592.082 648.07L592.575 646.738C585.514 642.122 548.351 643.012 538.067 643.111L538.125 628.145C548.825 628.122 583.472 629.011 592.045 624.682L591.909 623.57C583.548 620.391 548.467 621.809 538.171 622.71L538.179 605.641C547.184 605.681 586.515 606.202 592.669 602.626L593.302 600.95C588.602 596.882 550.379 599.963 541.834 600.553C540.592 600.645 539.351 600.752 538.111 600.875L538.182 587.354C547.029 587.051 592.295 583.335 596.571 584.7C597.065 585.798 597.532 586.612 597.764 587.782C598.577 586.634 598.717 580.783 598.834 578.972Z"/><path fill="#21273B" d="M598.834 578.972C605.638 576.503 661.166 571.612 671.746 572.042C673.219 572.102 675.203 575.434 676.097 576.951L676.272 579.613L676.242 641.878C676.236 647.486 677.344 673.058 674.213 676.384C664.455 682.407 617.508 677.05 603.279 677.532C593.504 677.863 596.528 596.622 597.764 587.782C598.577 586.634 598.717 580.783 598.834 578.972Z"/><path fill="white" d="M663.093 579.429C664.955 579.125 666.345 579.235 668.187 579.619C670.996 586.01 669.021 659.163 668.996 672.239L609.75 671.729L606.001 671.565C602.75 667.863 604.349 594.468 604.44 583.622L663.093 579.429Z"/><path fill="#21273B" d="M635.229 614.428C644.57 613.457 654.394 613.749 663.804 613.455L663.878 666.169L639.5 666.028L609.133 665.882L609.037 616.262C617.647 614.991 626.539 614.884 635.229 614.428Z"/><path fill="white" d="M640.686 620.448L659.201 620.06L659.581 662.128L636.87 662.078L616.062 661.961L616.021 621.168L640.686 620.448Z"/><path fill="#21273B" d="M662.494 583.461C662.855 583.473 663.869 584.208 664.195 584.405C665.489 592.478 664.619 601.647 664.563 609.853C647.084 610.611 629.6 611.234 612.112 611.723L609.737 610.721C607.045 605.533 608.614 593.084 608.71 587.177C626.478 585.048 644.62 584.318 662.494 583.461Z"/><path fill="white" d="M649.113 590.576C651.992 590.21 655.216 589.361 657.794 591.037C659.988 594.097 658.962 600.256 658.829 603.942C647.817 604.169 636.76 604.909 625.754 605.412C622.819 605.729 619.367 606.568 616.722 604.958C614.405 601.942 615.453 596.064 615.591 592.396C626.772 591.924 637.947 591.317 649.113 590.576Z"/><path fill="white" d="M767.143 478.392L769.087 478.475C768.868 484.242 740.391 516.952 734.626 522.445C728.225 523.849 713.711 525.015 706.692 525.759L657.559 531.051C594.201 537.956 530.757 544.037 467.241 549.292C466.882 549.366 466.071 549.124 465.642 549.031C467.713 545.687 511.491 513.795 518.388 508.409C533.23 508.261 555.389 506.03 570.564 504.749C598.171 502.525 625.72 499.632 653.187 496.075C691.293 490.771 729.204 483.772 767.143 478.392Z"/><path fill="white" d="M837.157 372.17L838.452 371.91L839.334 372.879C835.509 381.249 816.677 408.269 810.507 417.235C788.918 423.158 757.897 428.621 735.785 432.854C675.688 444.74 615.113 454.067 554.224 460.809L551.903 460.515C552.142 456.112 573.559 431.16 577.709 426.243C662.045 419.033 755.204 393.689 837.157 372.17Z"/><path fill="white" d="M803.047 426.287C803.288 426.488 803.546 427.387 803.689 427.766C794.932 442.042 785.585 455.947 775.671 469.445C736.075 474.029 691.755 483.751 651.171 488.905C608.206 494.361 566.488 497.838 523.468 502.152L522.879 501.719C522.908 498.534 541.967 472.625 545.243 467.981C566.547 464.664 595.296 462.937 618.181 459.912C659.501 454.402 700.612 447.423 741.436 438.988C762.021 434.943 782.674 431.305 803.047 426.287Z"/><path fill="white" d="M871.614 323.145L872.929 323.196C873.358 326.568 851.334 356.117 847.629 361.326C839.024 363.023 824.508 367.67 815.482 370.182C795.659 375.684 775.777 380.97 755.838 386.038C694.411 401.509 648.624 410.243 586.221 419.767L584.068 419.629C584.338 415.586 605.484 392.086 609.604 387.277C622.228 384.714 635.048 382.635 647.723 380.133C723.304 365.217 796.999 341.557 871.614 323.145Z"/><path fill="white" d="M926.719 272.11C928.645 272.081 934.663 272.667 935.925 273.76C957.102 292.112 979.788 333.503 994.464 355.519C1025.72 402.409 1053.34 451.045 1084.67 496.864C1091.08 506.357 1097.97 515.508 1105.34 524.277C1109.22 528.824 1117.77 536.745 1120.1 540.976C1120.17 544.225 1120.56 542.953 1118.37 545.725C1118.14 545.708 1117.91 545.702 1117.68 545.675C1098.75 543.384 1000.66 381.549 984.573 356.618C969.903 333.885 955.179 311.35 939.079 289.59C938.632 288.981 938.171 288.383 937.695 287.797C935.46 285.053 933.553 282.882 929.972 282.532C918.959 285.377 866.536 370.481 855.843 386.295C834.303 418.152 812.76 452.839 790.508 484.408C777.814 502.634 763.82 519.919 748.635 536.129L743.26 527.826C752.613 516.683 765.989 500.705 774.189 489.709C797.285 458.741 905.199 282.671 926.719 272.11Z"/><path fill="white" d="M889.207 590.37C905.009 590.235 920.849 590.643 936.652 590.812C936.687 604.676 938.785 701.697 935.728 706.848C920.174 707.932 904.597 708.674 889.011 709.071L889.207 590.37Z"/><path fill="#21273B" d="M896.157 647.036C898.081 647.152 900.188 647.195 902.062 647.643C904.55 648.238 905.703 649.271 907.011 651.348C906.387 654.016 905.56 654.684 903.715 656.604C901.692 656.57 899.474 656.631 897.487 656.254C894.925 655.768 894.026 654.649 892.678 652.649C893.299 649.788 894.191 649.093 896.157 647.036Z"/><path fill="white" d="M787.011 577.98L843.173 578.418C843.179 610.25 844.139 642.389 842.867 674.179L787.758 675.66L787.011 577.98Z"/><path fill="#21273B" d="M791.771 612.601L839.358 612.705C838.4 631.936 838.75 651.294 838.703 670.547C823.228 671.579 807.436 671.093 791.917 671.196C792.159 651.73 792.609 632.047 791.771 612.601Z"/><path fill="white" d="M798.251 619.173C809.346 619.52 820.445 619.75 831.545 619.861L831.506 664.045C820.359 663.957 809.193 664.425 798.051 664.733L798.251 619.173Z"/><path fill="#21273B" d="M791.941 582.571C807.611 582.688 823.281 582.705 838.95 582.621L838.867 609.71C823.278 610.195 807.491 609.499 791.885 609.319L791.941 582.571Z"/><path fill="white" d="M798.014 589.107C809.358 589.025 820.733 589.528 832.073 589.831C832.112 594.411 831.959 598.998 831.867 603.576L797.956 603.067L798.014 589.107Z"/><path fill="white" d="M536.336 722.912C600.651 727.478 665.015 731.313 729.417 734.417L729.147 753.109C707.048 752.846 684.528 750.246 662.464 748.651L536.042 739.217L536.336 722.912Z"/><path fill="white" d="M785.794 312.417C824.466 299.21 869.961 290.058 909.934 276.628C898.228 288.58 890.522 300.705 880.249 313.229C843.554 322.724 805.007 333.527 768.221 343.56L767.255 340.643C773.131 335.375 781.439 319.979 785.794 312.417Z"/><path fill="white" d="M1159.23 634.141C1162.9 633.815 1166.83 633.546 1170.34 634.874C1174.03 636.269 1177.04 638.664 1178.59 642.364C1181.76 649.951 1178.6 659.885 1175.66 667.135C1170.98 678.649 1152.07 710.764 1140.69 715.036C1139.07 715.644 1137.65 714.436 1136.18 713.693C1132.56 709.663 1128.92 705.478 1125.8 701.048C1121.02 694.279 1117.06 684.802 1118.58 676.416C1119.21 672.985 1120.36 670.648 1123.29 668.577C1131.08 667.431 1130.34 672.763 1136.02 674.191C1139.21 668.683 1138.36 661.114 1140.26 654.985C1143.3 645.122 1150.36 638.801 1159.23 634.141Z"/><path fill="#21273B" d="M1161.13 637.989C1164.83 637.797 1168.28 637.866 1171.36 640.129C1173.72 641.864 1175.05 644.475 1175.44 647.341C1177.77 664.463 1158.67 688.886 1148.93 701.41L1142.51 708.968C1142.12 691.955 1138.29 675.5 1143.67 658.767C1146.74 649.219 1152.23 642.566 1161.13 637.989Z"/><path fill="#21273B" d="M1124.47 672.452C1127.49 673.178 1129.6 674.769 1131.42 677.232C1136.78 684.52 1139.63 701.27 1138.15 710.017C1133.43 704.066 1128.36 697.7 1125.32 690.691C1122.6 684.411 1122 678.879 1124.47 672.452Z"/><path fill="white" d="M614.951 380.456C626.466 367.435 634.459 353.506 651.897 348.926C678.63 341.905 705.353 335.062 732.147 328.275C731.585 337.733 727.609 341.409 734.602 348.55C736.173 349.006 739.404 349.835 740.739 350.474C699.187 361.988 657.23 371.988 614.951 380.456Z"/><path fill="white" d="M749.149 546.6L750.452 546.447C751.753 551.26 751.393 707.922 750.022 713.765C747.361 715.564 743.055 714.989 739.924 714.933L738.795 714.709C736.208 711.103 738.05 566.344 738.308 547.391L749.149 546.6Z"/><path fill="white" d="M859.353 729.555L873.096 729.042L873.028 745.947C838.995 748.04 804.996 751.211 770.975 753.136C766.997 753.529 762.975 753.708 758.986 753.984L759.267 734.069C792.342 731.225 826.161 730.571 859.353 729.555Z"/><path fill="white" d="M956.235 717.816C909.048 719.55 861.87 721.522 814.703 723.734C774.428 725.529 735.285 728.49 695.076 724.909C685.55 724.061 675.407 723.82 665.806 723.284C617.983 720.166 570.119 717.703 522.228 715.896C518.863 715.771 515.152 715.726 512.895 713.289L513.65 711.586C516.752 709.632 714.278 721.48 736.247 721.222C804.734 720.417 880.109 714.189 947.976 715.868C950.991 716.132 954.009 716.368 957.029 716.576L956.235 717.816Z"/><path fill="white" d="M1063.95 526.549C1067.96 529.29 1071.94 534.759 1075.28 538.411C1074.3 593.56 1075.15 648.92 1073.08 704.018C1069.67 704.335 1066.51 705.102 1063.41 703.571C1060.89 687.084 1062.95 664.709 1063.07 647.56L1063.95 526.549Z"/><path fill="white" d="M750.226 265.41C753.486 264.961 755.433 264.441 758.55 265.504C759.341 268.377 758.987 275.01 759.041 278.247C759.34 296.356 757.632 304.371 764.569 321.288C765.216 306.573 764.484 282.835 765.112 267.328C765.175 265.761 766.983 265.167 768.235 264.612L769.526 265.461C771.117 270.925 770.347 289.097 770.215 295.75L770.021 322.624L763.37 333.024C754.957 336.177 748.031 338.442 739.411 341.002L739.34 266.442L750.226 265.41Z"/><path fill="white" d="M726.921 532.595C729.548 532.267 732.414 531.765 735.06 531.828C737.962 531.898 739.27 533.823 741.049 535.737L740.846 537.276C728.157 540.908 688.861 542.789 673.489 544.363C606.512 551.614 539.423 557.784 472.247 562.87C468.53 563.16 464.703 563.661 461 563.066C458.896 561.752 457.209 560.873 456.033 558.587C464.946 557.133 474.371 556.926 483.387 556.156L544.002 550.973L726.921 532.595Z"/><path fill="white" d="M444.256 641.76C448.609 641.793 451.089 642.821 454.188 645.831C463.057 654.446 465.684 666.429 465.972 678.319C468.334 673.818 470.918 668.629 475.78 666.371C478.287 665.206 479.447 665.676 481.792 666.674C484.357 669.506 485.41 672.914 485.795 676.672C486.688 685.39 482.474 698.622 476.618 705.358C474.463 707.838 472.507 708.347 469.349 708.539L468.541 707.085C469.98 699.241 478.567 692.09 481.306 683.985C482.373 680.83 482.861 677.281 481.096 674.255C479.871 672.157 478.041 670.714 475.744 670.151C469.378 673.603 464.83 701.434 462.282 709.173C460.12 709.24 458.494 709.334 456.491 708.447L456.945 705.558C462.124 696.758 463.13 684.583 461.897 674.56C460.869 666.199 455.26 654.349 448.276 649.124C447.463 648.516 446.923 648.878 445.964 649.016C443.364 654.132 450.34 676.687 451.253 683.674C452.038 689.681 454.172 705.169 450.474 709.977L448.634 709.744C441.291 700.291 433.219 685.908 429.168 674.677C427.639 670.438 427.349 665.673 429.265 661.542C431.285 659.831 431.467 659.713 434.102 659.554C437.681 660.934 439.761 663.724 442.207 666.554L443.256 665.96C444.158 660.744 439.275 656.647 439.285 651.6C439.293 647.169 441.432 644.822 444.256 641.76Z"/><path fill="#21273B" d="M432.936 663.716C435.487 664.538 437.393 665.632 439.381 667.417C448.342 675.467 447.93 690.139 448.584 701.231C448.235 700.914 447.668 700.429 447.342 700.042C441.177 692.72 432.579 673.548 432.936 663.716Z"/><path fill="white" d="M527.528 578.84L530.004 579.173C530.351 579.705 530.481 579.825 530.647 580.532C531.876 585.744 530.854 701.098 530.075 702.906C529.813 703.513 529.218 703.913 528.79 704.416L524.017 704.734C521.79 704.476 519.956 704.515 518.309 702.817C517.84 686.479 518.651 670.032 518.795 653.683C519.002 630.146 518.774 606.595 519.419 583.064C521.124 580.563 524.773 579.832 527.528 578.84Z"/><path fill="white" d="M598.834 578.972C588.89 575.978 542.847 584.316 538.974 579.456C548.486 571.999 660.6 566.948 680.566 564.451C687.276 563.612 721.944 560.367 728.692 560.865C730.536 563.785 729.845 565.101 729.878 569.178C726.49 573.515 685.692 569.651 676.097 576.951C675.203 575.434 673.219 572.102 671.746 572.042C661.166 571.612 605.638 576.503 598.834 578.972Z"/><path fill="white" d="M1044.88 725.532L1065.73 724.99C1065.84 732.184 1065.58 739.391 1065.4 746.583L1006.22 744.838C1006.16 741.639 1006.33 737.222 1004.67 734.432C1001.33 728.86 988.01 731.314 981.775 729.635L982.143 728.73C998.593 724.205 1027.15 725.881 1044.88 725.532Z"/><path fill="white" d="M878.268 580.138L948.336 580.783L948.209 659.57C948.165 674.025 949.482 690.371 946.816 704.593L946.125 704.176C942.548 688.227 944.175 670.24 944.22 653.956L944.419 583.299C923.755 583.953 902.941 583.335 882.262 583.233L882.2 667.369C882.221 679.221 883.768 693.456 882.149 705.064C881.923 706.685 881.079 708.21 880.292 709.618L878.99 709.549C876.517 703.131 878.219 594.448 878.268 580.138Z"/><path fill="white" d="M988.144 738.5C990.643 738.169 993.09 738.153 995.603 738.149C998.076 739.477 998.553 739.825 1000.02 742.199C1000.09 743.32 999.932 743.816 999.418 744.81C993.776 749.651 944.83 750.917 934.094 751.559C930.793 751.941 927.349 752.256 924.422 750.691C924.052 747.726 924.391 745.844 925.244 743.038C931.065 739.843 977.382 739.318 988.144 738.5Z"/><path fill="white" d="M975.481 714.808L1043.31 712.182C1050.26 711.913 1076.32 710.561 1081.36 711.73L1083 713.456C1078.87 717.011 1068.49 718.442 1063.42 717.892C1048.87 716.317 984.153 722.349 975.363 718.099L975.481 714.808Z"/><path fill="white" d="M170.102 692.59C172.631 692.56 175.229 692.814 177.391 694.225C187.739 700.98 189.991 718.52 192.231 729.606C187.05 720.902 182.856 705.607 174.262 699.992C173.358 699.955 171.983 699.624 171.29 700.213C167.154 703.724 167.703 711.044 167.401 716.069C170.308 720.203 176.968 726.275 177.126 731.259L174.271 730.27C167.17 725.538 160.531 714.379 151.681 714.635L150.705 716.185C151.62 721.167 155.883 725.644 158.298 730.122C156.881 731.584 156.704 731.533 154.797 731.847C152.306 729.735 150.004 727.608 148.154 724.892C146.154 721.958 145.303 718.622 146.04 715.106C146.604 712.415 147.595 710.32 149.91 708.727C155.879 706.819 158.026 710.77 162.947 712.517C164.583 709.054 163.788 705.88 163.943 702.23C164.124 697.968 167.157 695.293 170.102 692.59Z"/><path fill="white" d="M381.956 680.692C383.82 680.678 385.706 680.995 387.555 681.216C390.467 682.965 391.973 684.974 392.991 688.19C395.158 695.041 394.116 704.433 390.661 710.718C389.476 712.875 388.588 713.834 386.266 714.527C385.367 709.919 389.171 703.279 389.569 698.344C389.902 694.223 388.687 688.345 386.058 685.127C375.509 684.44 376.868 715.3 370.687 719.917C367.135 713.576 365.872 706.45 364.028 699.471C362.677 697.096 361.647 694.54 359.058 693.36L357.7 694.447C356.475 704.931 364.21 715.766 365.559 726.16L365.613 726.602C359.535 719.078 353.364 708.817 353.338 698.84C353.329 695.503 353.965 692.907 356.386 690.494C358.445 690.001 358.966 689.703 360.941 690.722C367.493 694.106 369.467 705.808 371.159 712.203C372.806 700.773 373.389 689.298 381.956 680.692Z"/><path fill="white" d="M902.057 332.368C913.487 335.601 924.517 336.133 936.268 336.908C938.394 339.858 941.642 343.827 941.643 347.091C939.053 348.845 935.351 348.168 931.986 347.996L891.55 348.015C894.449 343.18 898.799 337.146 902.057 332.368Z"/><path fill="white" d="M211.941 680.93C213.624 681.173 215.873 681.59 217.403 682.375C220.302 683.863 222.205 687.372 223.112 690.396C225.871 699.591 224.036 716.303 219.031 724.567C217.653 726.844 216.67 727.736 214.147 728.412C212.544 721.663 223.858 706.598 217.934 688.962C216.486 688.142 215.13 687.78 213.52 687.389C199.083 693.004 210.891 719.156 203.828 727.61L202.657 726.263C200.397 716.388 198.513 706.3 201.013 696.246C202.776 689.158 205.741 684.703 211.941 680.93Z"/><path fill="white" d="M961.525 725.433C963.67 725.246 965.863 725 968.015 725C970.574 725.001 971.719 725.198 973.546 726.959L973.499 730.526C969.24 734.344 932.041 734.033 923.468 734.789C919.384 735.074 911.954 736.446 908.717 733.966C908.451 731.39 908.496 731.44 910.11 729.404C919.786 724.394 949.146 725.918 961.525 725.433Z"/><path fill="white" d="M1072.4 725.061C1078.74 724.988 1085 725.276 1091.32 725.651L1091.21 750.393C1088.85 746.295 1086.37 742.419 1083.63 738.566C1082.32 737.569 1081.07 737.275 1079.51 736.873C1078.57 738.837 1082.37 742.304 1081.67 745.583C1078.9 747.502 1075.8 746.659 1072.5 746.508L1072.4 725.061Z"/><path fill="white" d="M893.613 728.45C895.687 728.244 897.114 727.932 898.926 729.093C900.236 734.88 900.251 739.552 898.292 745.201C895.476 746.596 891.647 745.772 888.566 745.5C885.872 745.395 883.406 745.498 880.993 744.145C878.311 740.398 879.558 733.556 879.684 728.982L893.613 728.45Z"/><path fill="#21273B" d="M736.923 735.307L754.915 734.278C754.868 737.111 754.575 742.767 755.191 745.249L754.181 750.077L753.659 752.846C750.17 754.558 741.209 754.636 737.885 753.054C736.743 749.797 736.966 739.404 736.923 735.307Z"/><path fill="white" d="M736.923 735.307L754.915 734.278C754.868 737.111 754.575 742.767 755.191 745.249C752.024 744.98 748.164 745.443 744.411 745.238C741.778 742.954 743.343 741.986 739.839 738.879C738 737.99 737.896 737.255 736.923 735.307Z"/><path fill="white" d="M754.181 750.077L753.659 752.846C750.17 754.558 741.209 754.636 737.885 753.054L739.052 750.672C745.368 750.968 748.01 750.742 754.181 750.077Z"/><path fill="#A9AAB0" d="M736.923 735.307C737.896 737.255 738 737.99 739.839 738.879C738.643 743.068 738.944 746.363 739.052 750.672L737.885 753.054C736.743 749.797 736.966 739.404 736.923 735.307Z"/><path fill="white" d="M918.261 308.749C923.53 315.536 927.849 323.263 932.031 330.737C928.397 330.357 924.43 330.137 920.759 329.858C915.546 329.081 909.742 329.083 904.433 328.936C909.007 321.574 913.135 315.761 918.261 308.749Z"/><path fill="white" d="M239.305 695.489L243.484 696.158C244.735 697.099 245.779 698.03 246.296 699.559C249.472 708.947 240.303 728.411 236.429 737.17C236.876 725.971 239.421 715.15 241.794 704.233L241.465 702.526C236.909 703.835 227.699 724.53 224.326 729.515C226.604 717.794 231.266 704.489 239.305 695.489Z"/><path fill="white" d="M750.476 250.175C759.116 249.645 773.296 249.961 781.11 253.832L780.765 254.988C774.384 256.868 767.394 256.105 760.574 255.982C748.379 256.673 737.722 258.636 725.824 260.881C734.359 253.814 739.904 252.328 750.476 250.175Z"/><path fill="white" d="M750.005 239.152C759.799 238.48 771.333 238.838 779.561 244.568L779.588 245.86C776.121 246.818 762.21 245.743 757.384 245.629C743.746 246.126 740.85 247.089 728.575 252.895C736.488 244.296 738.857 242.018 750.005 239.152Z"/><path fill="white" d="M513.374 721.179L529.457 722.37C529.459 725.809 529.904 729.827 529.311 733.178C528.782 736.164 527.444 737.704 525.122 739.442L523.069 738.623C521.352 735.765 521.911 734.923 522.501 731.772C522.06 728.813 522.257 727.917 519.923 725.865L517.992 726.073C515.759 728.843 515.228 733.402 514.421 736.857C513.115 731.692 513.34 726.463 513.374 721.179Z"/><path fill="white" d="M405.389 686.824C408.357 686.61 410.474 687.375 412.897 688.996C419.391 693.344 425.017 700.411 426.63 708.14C425.602 707.635 424.608 707.083 423.665 706.432C418.483 702.854 406.53 692.729 405.389 686.824Z"/><path fill="#EBEAEA" d="M767.255 340.643L768.221 343.56C760.746 345.487 747.926 349.228 740.739 350.474C739.404 349.835 736.173 349.006 734.602 348.55C745.953 347.774 756.324 343.911 767.255 340.643Z"/><path fill="white" d="M904.484 743.124C908.186 742.87 912.373 742.195 915.95 743.321C918.16 745.984 917.705 747.38 917.822 750.772C914.977 750.379 911.262 750.189 908.636 749.086C905.783 747.888 905.495 745.736 904.484 743.124Z"/><path fill="#EBEAEA" d="M947.976 715.868C953.778 714.967 968.973 714.971 975.481 714.808L975.363 718.099C971.566 717.098 960.735 717.698 956.235 717.816L957.029 716.576C954.009 716.368 950.991 716.132 947.976 715.868Z"/><path fill="#2A2F41" d="M1797.56 88.4249C1813.14 88.1884 1826.99 89.464 1842.08 93.7138C1878.93 103.858 1910.21 128.279 1929 161.565C1946.82 193.977 1951.07 232.129 1940.83 267.672C1930.17 303.915 1905.48 334.405 1872.25 352.38C1835.89 372.163 1796.49 376.462 1756.89 364.765C1713.66 352.299 1680.22 318.122 1663.58 277.044C1656.39 279.131 1651.82 281.471 1645.12 278.074C1644.48 272.917 1652.69 271.353 1656.68 270.181L1653.14 260.608C1648.56 262.948 1645.19 265.6 1640.84 264.336C1638.57 261.284 1639.14 262.723 1638.77 258.829C1642.11 254.464 1644.25 256.452 1649.71 252.603C1649.97 249.655 1648.5 247.444 1647.14 244.818L1645.67 244.415C1643.55 246.468 1642.68 247.791 1639.81 248.104C1637.16 246.44 1636.58 243.38 1635.43 240.227L1656.35 226.57C1663.48 147.956 1718.78 93.5572 1797.56 88.4249Z"/><path fill="white" d="M1791.32 96.3843C1850.1 90.011 1908.75 126.263 1930.04 181.324C1942.85 214.083 1941.99 250.608 1927.67 282.733C1912.7 315.531 1885.39 341.098 1851.68 353.88C1815.51 367.541 1779.02 367.771 1743.7 351.771C1710.13 336.669 1683.96 308.827 1670.95 274.392L1689.45 268.848C1697.85 287.391 1704.88 298.152 1719.97 312.359C1730.44 322.21 1753.39 335.268 1767.71 334.523L1768.65 333.48L1767.78 331.983C1732.24 322.494 1708.35 300.645 1694.25 267.008C1707.67 263.108 1721.03 259.021 1734.34 254.748C1745.56 282.966 1765.97 301.097 1798.1 298.887C1801.59 298.646 1803.71 298.599 1806 295.991C1802.07 291.312 1759.46 305.986 1738.99 252.798C1750.55 247.085 1765.2 241.42 1777.48 235.698C1771.32 219.593 1753.94 182.601 1745.78 167.089C1718.45 184.784 1691.33 202.801 1664.42 221.135C1665.61 214.405 1666.75 207.622 1668.42 200.991C1683.21 142.133 1731.36 102.23 1791.32 96.3843Z"/><path fill="#2A2F41" d="M1894.59 182.434L1896.86 183.611C1901.62 189.592 1904.37 200.967 1905.86 208.452C1916.43 261.691 1878.23 323.319 1824.25 333.875C1822.42 334.073 1822.42 333.952 1820.79 333.255C1822.34 331.279 1837.25 326.073 1841.58 323.897C1849.54 319.898 1856.97 314.917 1863.69 309.073C1890.67 285.709 1907.57 248.155 1901.67 212.265C1900.46 204.868 1893.86 187.673 1894.59 182.434Z"/><path fill="#21273B" d="M1784.68 115.306C1786.66 115.127 1785.96 115.112 1787.98 116.289L1788.09 117.836C1785.41 120.174 1764.47 124.652 1759.18 126.986C1731.17 139.341 1712.81 157.71 1700.4 184.652C1698 185.393 1699.04 185.565 1697.13 184.562C1696.49 179.007 1703.83 166.787 1707.16 162.186C1726.18 135.932 1753.21 120.705 1784.68 115.306Z"/><path fill="#2A2F41" d="M1852.59 189.782C1854.77 190.825 1857.17 193.516 1858.5 195.505C1876.94 223.189 1866.7 265.428 1839.65 283.699L1838.1 283.402C1837.49 281.052 1840.79 278.591 1842.56 276.837C1863.28 256.31 1869.51 223.162 1854.83 197.417C1853.44 194.972 1852.27 192.675 1852.59 189.782Z"/><path fill="#2A2F41" d="M1801.08 186.16C1803.38 186.202 1805.61 186.342 1807.91 186.501C1818.8 187.255 1840.27 202.301 1838.56 214.309L1836.79 215.551C1830.4 205.587 1823.68 195.15 1811.45 191.932C1806.79 190.703 1803.48 191.03 1798.49 189.303L1798.29 187.809L1801.08 186.16Z"/><path fill="#21273B" d="M1786.49 150.209C1786.98 150.199 1789.37 150.662 1790.01 150.775L1790.79 152.069C1788.56 154.476 1777.05 156.358 1773.01 158.006C1765.31 161.152 1759.14 166.072 1752.69 171.089L1751.7 171.491L1749.82 170.125C1749.16 160.638 1778.31 151.769 1786.49 150.209Z"/><path fill="#2A2F41" d="M1839.76 120.249C1848.15 121.232 1868.01 131.331 1869.14 140.328C1869.99 140.521 1839.62 122.906 1839.51 122.814L1839.76 120.249Z"/><path fill="#2A2F41" d="M1882.13 162.507C1887.92 163.393 1888.98 167.811 1889.14 172.786C1884.31 170.725 1882.49 167.518 1882.13 162.507Z"/><path fill="white" d="M1741.63 178.786C1744.75 180.921 1751.54 197.932 1753.56 202.583C1748.25 205.74 1741.5 209.108 1735.96 212.048C1734.12 210.301 1726.51 193.554 1724.89 190.121C1729.41 186.617 1736.7 182.062 1741.63 178.786Z"/><path fill="white" d="M1756.04 209.102C1758.8 210.937 1765.65 227.556 1767.48 231.706C1761.5 234.411 1754.96 237.033 1748.87 239.598C1746.44 238.589 1739.32 221.552 1737.69 217.98C1744.33 215.07 1749.61 212.477 1756.04 209.102Z"/><path fill="white" d="M1730.44 221.871C1733.23 223.242 1739.53 237.348 1742.42 242.241C1736.43 244.837 1729.43 247.27 1723.24 249.56C1721.37 250.2 1721.05 250.457 1719.13 249.871C1716.36 245.988 1713.38 237.158 1711.28 232.104C1716.67 228.826 1724.7 224.896 1730.44 221.871Z"/><path fill="white" d="M1718.94 193.813C1721.15 194.695 1728.11 211.56 1729.7 215.061C1723.34 218.194 1717 221.361 1710.68 224.563C1707.95 222.831 1702.5 210.26 1700.57 206.355C1705.56 202.468 1713.51 197.459 1718.94 193.813Z"/><path fill="white" d="M1704.54 234.982C1707 236.45 1711.89 248.844 1713.64 252.581C1706.68 255.178 1698.52 257.449 1691.33 259.617L1688.75 259.459C1686.27 256.443 1684.4 249.453 1683.1 245.475L1704.54 234.982Z"/><path fill="white" d="M1694.87 209.794C1697.37 211.843 1701.75 224.106 1703.28 227.948C1696.33 231.497 1689.57 234.506 1682.45 237.685C1680.11 237.759 1676.04 226.336 1674.84 223.673C1681.21 219.016 1688.33 214.302 1694.87 209.794Z"/><path fill="white" d="M1669.74 226.959C1670.81 228.171 1674.6 238.601 1675.47 240.841L1656.85 249.724C1655.05 247.985 1652.97 241.645 1651.93 238.966C1656.63 235.31 1664.58 230.375 1669.74 226.959Z"/><path fill="white" d="M1677.67 247.937C1678.69 249.639 1682.2 259.704 1683.1 262.17C1676.84 264.207 1670.08 266.025 1663.72 267.836L1662.89 267.757C1660.54 265.841 1659.59 260.508 1658.7 257.269C1665.13 254.414 1671.39 251.134 1677.67 247.937Z"/><path fill="#21273B" d="M340.556 65.194C364.374 63.1912 384.786 69.3559 398.911 89.9963C406.243 100.711 413.273 111.026 428 108.788C449.432 105.532 469.111 94.5186 490.452 90.2385C501.369 87.9795 532.774 81.0005 537.03 97.1127C538.31 101.957 534.046 106.934 531.176 110.686C543.799 108.867 584.361 99.5939 591.3 112.169C591.367 114.683 591.523 115.797 590.056 117.977C574.265 141.441 410.497 178.671 375.289 186.282C301.553 199.948 224.399 213.235 149.19 207.716C122.182 205.734 121.25 187.856 148.045 182.06C158.499 179.798 173.153 175.466 182.262 169.932C181.444 167.577 179.478 162.256 179.216 160.038C175.669 129.926 215.575 115.149 239.947 120.666C250.468 123.047 260.606 131.586 271.504 129.059C290.448 124.666 291.137 102.004 301.055 88.757C312.395 73.2537 323.08 68.654 340.556 65.194Z"/><path fill="white" d="M341.457 72.209C342.974 72.0866 344.494 71.9972 346.016 71.9407C399.643 70.0592 385.181 112.54 424.409 116.419C442.129 118.172 511.331 82.8829 527 96.9514C529.947 105.993 513.023 121.087 547.005 116.135C560.153 114.219 571.911 112.816 585.107 114.29C543.46 139.985 423.393 168.469 374.834 178.701C323.728 188.797 180.831 213.086 134.649 195.661C150.502 187.558 178.963 187.232 188.358 172.092C191.036 167.778 187.876 161.187 186.065 156.626C189.67 132.824 216.642 124.515 237.56 128.426C249.315 130.624 262.096 138.603 274.609 135.786C295.293 131.129 296.854 107.842 307.347 93.1427C317.213 79.2253 325.742 75.2533 341.457 72.209Z"/><path fill="#21273B" d="M1568.34 194.971C1572.33 194.752 1572.81 194.883 1576.46 196.514C1581.14 202.603 1576.07 207.692 1572.44 213.167C1573.31 215.565 1574.23 217.945 1575.21 220.305C1582.12 236.764 1586.02 221.989 1591.76 238.829C1598.31 236.65 1617.1 228.198 1622.44 229.665C1623.55 231.079 1624.54 232.582 1625.4 234.158C1629.61 241.925 1649.92 290.5 1647.86 297.103C1641.65 302.98 1617.83 310.728 1608.44 314.198C1610.76 320.392 1612.97 326.908 1615.19 333.165C1640.94 337.45 1641.49 366.612 1622.25 371.708C1617.02 373.102 1611.45 372.289 1606.84 369.46C1593.87 361.525 1597.28 347.957 1604.11 337.23C1602.24 330.898 1599.66 324.432 1597.33 318.23C1588.56 321.275 1580.81 324.531 1572.27 328.117C1564.1 324.633 1564.98 321.695 1559.82 319.003C1550.65 322.186 1525.28 335.84 1515.45 340.846C1494.4 351.368 1469.07 365.309 1447.95 374.364C1439.98 354.531 1431.94 329.259 1423.92 308.239C1436.16 304.262 1534.43 278.514 1539.9 280.378C1543.04 289.797 1547.1 301.363 1550.94 310.438C1553.26 312.005 1552.31 311.575 1555.6 311.414L1556.94 309.746C1557.85 304.122 1544.38 268.639 1541.53 260.391C1549.17 255.484 1564.43 253.647 1565.87 245.217C1566.59 240.978 1569.18 240.399 1572.59 238.275C1570.7 233.306 1565.75 218.645 1562.07 215.499C1554.42 217.13 1547.98 216.281 1548.55 206.585C1552.14 199.686 1561.15 197.55 1568.34 194.971Z"/><path fill="white" d="M1615.86 239.01C1617.78 238.638 1616.78 238.621 1618.89 239.58C1623.34 247.488 1636.43 283.4 1639.97 292.988C1626.83 299.59 1588.69 312.958 1574.14 317.927L1571.62 318.58C1568.11 315.744 1554.02 270.749 1551.34 263.173C1569.23 255.486 1596.48 246.424 1615.86 239.01Z"/><path fill="#21273B" d="M1613.25 247.038C1616.03 248.433 1629.25 284.967 1631.46 290.71C1617.66 296.792 1591.65 305.498 1577.29 310.513L1575.61 310.637C1571.69 308.143 1562.13 273.701 1560.22 267.004C1573.45 260.693 1598.72 252.328 1613.25 247.038Z"/><path fill="white" d="M1609.79 252.977L1611.82 253.284C1613.47 255.865 1623.33 282.274 1625.53 287.534C1612.75 292.986 1593.71 299.289 1580.22 304.245L1578.12 304.701C1574.75 301.937 1566.91 274.922 1565.08 269.231C1578.72 264.955 1596.84 258.605 1609.79 252.977Z"/><path fill="white" d="M1605.15 357.524C1602.12 324.348 1644.81 347.722 1621.79 364.671C1618.82 365.987 1616.53 367.614 1614.36 364.501L1615.2 360.478L1611.32 361.822C1607.49 361.171 1608.39 361.012 1605.15 357.524Z"/><path fill="#575A66" d="M1615.29 346.885L1615.4 349.179L1616.86 349.734L1615.45 350.12L1616.53 352.982C1617.85 349.308 1617.47 348.484 1620.05 346.357C1622.07 347.253 1621.38 346.706 1622.52 349.044C1621.59 351.897 1621.05 352.576 1619.4 355.005C1622.7 355.72 1622.96 353.356 1626.11 355.128L1625.67 357.41C1623.7 358.344 1622.18 357.657 1619.95 357.134C1619.57 359.516 1620.92 362.263 1621.79 364.671C1618.82 365.987 1616.53 367.614 1614.36 364.501L1615.2 360.478C1615.14 359.153 1614.64 356.501 1614.42 355.076L1615.29 346.885Z"/><path fill="#EBEAEA" d="M1613.53 354.199L1614.42 355.076C1614.64 356.501 1615.14 359.153 1615.2 360.478L1611.32 361.822C1607.49 361.171 1608.39 361.012 1605.15 357.524C1607.06 353.971 1610.02 354.52 1613.53 354.199Z"/><path fill="#21273B" d="M1613.53 354.199C1612.57 351.768 1612.08 349.877 1611.42 347.384L1612.4 346.081L1615.29 346.885L1614.42 355.076L1613.53 354.199Z"/><path fill="white" d="M1462.06 335.127C1464.1 337.176 1468.6 350.475 1469.91 354.075C1464.38 356.926 1458.42 359.709 1452.8 362.443L1451.96 362.092C1450.02 358.903 1445.84 345.726 1444.4 341.48L1462.06 335.127Z"/><path fill="white" d="M1451.82 308.415C1454.34 310.071 1458.51 322.867 1459.84 326.461C1453.78 328.663 1446.12 330.587 1441.38 334.562C1438.31 328.237 1435.02 319.694 1432.26 313.062C1438.65 311.732 1445.43 309.967 1451.82 308.415Z"/><path fill="white" d="M1489.68 325.189C1491.45 330.417 1492.8 336.617 1494.12 342.036C1487.97 345.364 1481.35 348.6 1475.09 351.787L1468.08 333.02L1489.68 325.189Z"/><path fill="white" d="M1476.93 302.246L1478.59 302.496C1480.88 305.615 1483.05 313.27 1484.37 317.25C1477.98 319.674 1471.61 322.168 1465.28 324.733C1463.9 323.473 1458.78 309.546 1457.69 306.755L1476.93 302.246Z"/><path fill="white" d="M1505.11 295.18L1507.31 295.14C1509.37 297.582 1510.96 304.815 1511.91 308.24L1491.21 315.14L1490.36 315.045C1487.68 313.113 1485.37 304.4 1484.09 300.58L1505.11 295.18Z"/><path fill="white" d="M1511.53 318.032L1513.9 318.264C1515.82 320.83 1517.11 326.652 1518.05 329.985L1502.49 338.034C1502.04 338.261 1500.15 338.72 1499.55 338.881C1496.75 336.229 1496.08 326.957 1495.5 322.73C1500.44 321.483 1506.55 319.499 1511.53 318.032Z"/><path fill="white" d="M1530.83 288.202C1531.47 288.099 1533.17 288.212 1533.91 288.237C1536.68 290.825 1537.97 295.758 1539.28 299.464L1521.21 305.177C1519.44 305.854 1520.39 305.662 1518.19 305.264C1515.98 302.036 1514.98 296.601 1514 292.663C1519.32 291.06 1525.39 289.612 1530.83 288.202Z"/><path fill="white" d="M1540.11 306.971L1541.46 307.075C1543.95 309.026 1544.85 312.567 1546.04 315.692L1525.44 326.149C1525.04 326.366 1523.62 326.639 1523.08 326.76C1521.15 324.209 1520.18 318.19 1519.4 314.79C1527.15 312.376 1532.6 310.15 1540.11 306.971Z"/><path fill="white" d="M1566.32 203.087C1567.93 202.95 1568.68 203.092 1570.24 203.281C1568.99 205.282 1562.85 207.111 1560.23 208.097C1559.27 208.596 1558.15 208.741 1557.06 208.983L1556.58 207.801C1559.74 204.453 1561.78 204.266 1566.32 203.087Z"/><path fill="#21273B" d="M1006.03 868.202L1006.52 869.19C990.934 885.853 975.213 901.698 964.629 922.252C994.625 935.499 1002.31 945.881 1025.93 966.003C1026.96 946.133 1022.97 931.501 1011.28 915.415C1027.59 925.175 1039.57 933.799 1050.39 949.579C1054.91 930.42 1058.83 918.612 1050.73 899.361C1064.48 917.112 1073.04 937.834 1080.59 958.796C1082.56 956.18 1085.66 951.66 1089.02 951.123C1089.07 951.549 1089.17 952.227 1089.14 952.688C1088.89 956.354 1085.1 966.007 1082.25 968.087C1081.02 968.979 1080.36 968.551 1078.95 968.303C1071.83 962.266 1065.24 935.464 1060.76 925.323C1058.79 939.784 1059.05 954.193 1057.24 968.554L1055.49 969.635C1054.78 969.499 1053.15 969.411 1052.58 969.081C1048.6 966.783 1041.39 947.269 1037.58 941.946C1033.49 936.239 1028.49 931.939 1023.17 927.445C1027.88 936.781 1033.13 947.71 1032.91 958.409C1032.84 961.902 1031.75 965.792 1029.08 968.201C1025.99 970.984 1020.73 970.062 1016.84 969.903C1005.19 956.585 992.672 944.805 978.127 934.698C983.994 942.568 996.428 959.215 997.018 968.984L995.199 969.919C994.154 969.818 990.782 969.871 990.041 969.424C987.638 967.977 984.672 959.788 983.245 956.874C977.375 944.89 970.923 934.766 962.254 924.598C957.767 931.65 941.342 968.63 938.934 970.425C936.811 970.118 935.372 970.365 933.979 968.601L934.628 965.756C943.774 934.764 960.8 909.22 981.739 885.149C959.998 898.338 940.914 915.465 927.263 937.034C923.891 942.362 912.66 968.668 910.534 969.978C908.792 969.593 907.981 969.687 907.017 968.02C900.646 957.006 907.808 930.135 911.518 918.982C897.277 936.266 895.196 949.438 888.164 969.76C886.184 970.286 885.706 970.667 883.759 969.876C883.01 965.755 885.26 960.317 886.349 956.305C884.518 958.897 882.664 961.5 880.597 963.91C877.419 967.616 872.973 972.126 867.711 972.345C865.169 972.451 864.732 972.024 862.979 970.411C860.324 962.99 866.354 948.5 867.677 940.453C861.356 952.033 855.341 960.701 845.04 969.147C850.744 953.569 862.338 939.964 872.703 927.233C871.609 934.29 865.688 963.032 868.241 967.559C881.288 964.53 896.177 929.726 904.395 919.134C911.911 909.446 920.688 901.775 930.651 894.705C917.634 914.831 910.17 931.623 910.134 955.847C924.844 923.908 943.316 897.861 975.359 881.559C985.261 876.521 995.895 872.771 1006.03 868.202Z"/><path fill="#2A2F41" d="M881.229 50.4794C892.446 50.0542 904.958 49.5827 907.796 66.9917C915.064 111.567 752.901 177.227 754.724 196.16C761.444 200.183 784.155 192.487 791.679 189.585C893.71 150.238 996.611 104.071 1107.03 95.7099C1119.72 94.749 1144.67 93.6664 1156.84 95.9119L1156.85 96.6233L1151.76 97.1321C1125.05 100.506 1098.44 102.241 1071.83 106.826C1000.39 119.134 930.857 142.708 863.719 169.624C843.452 177.749 774.64 209.394 753.924 204.75C751.09 204.115 748.12 202.445 746.656 199.855C742.502 192.501 753.114 182.913 758.191 178.763C789.301 153.333 890.087 109.226 901.674 71.8715C902.773 68.3293 902.767 64.6546 900.968 61.3195C897.138 54.2183 888.303 52.7346 881.229 50.4794Z"/><path fill="#21273B" d="M817.719 876.822C818.054 877.372 818.5 877.869 818.726 878.472C819.668 880.988 817.304 895.518 817.057 899.663C816.505 909.863 816.405 920.082 816.757 930.29C817.3 942.562 819.071 954.451 823.07 966.089C826.135 940.436 839.672 919.822 856.054 900.49C852.144 910.925 848.043 921.286 845.678 932.204C843.237 943.47 845.693 959.91 840.014 969.681L838.561 969.885C838.477 969.746 838.387 969.611 838.309 969.469C832.977 959.766 840.257 934.794 843.056 924.356C840.763 928.688 838.528 932.918 836.858 937.536C834.505 944.044 830.362 966.105 826.649 969.827C825.044 969.991 823.349 970.192 821.741 970.001C819.402 969.724 817.693 968.579 816.31 966.702C806.689 953.647 809.811 908.242 812.427 892.318C804.622 907.032 798.582 922.09 796.014 938.643C794.961 945.437 797.147 966.518 793.057 970.566C790.989 970.62 790.448 970.549 788.867 969.149C779.359 960.73 771.888 927.461 770.941 915.017C770.559 911.033 770.002 907.052 769.524 903.078C763.088 923.51 760.481 942.425 764.454 963.567C764.89 965.884 765.471 968.116 764.091 970.059C762.687 970.24 761.263 970.364 759.884 969.96C749.068 966.79 733.025 932.263 727.655 922.167C728.085 933.632 729.304 943.826 733.397 954.648C734.717 958.141 739.406 967.094 738.747 970.234C736.516 970.44 734.844 970.987 732.985 969.409C730.647 967.424 729.143 963.4 727.878 960.656C718.702 940.758 724.32 928.806 724.063 908.674C734.449 924.104 745.011 939.004 754.831 954.854C754.513 930.321 758.417 907.32 775.011 888.164C774.209 909.516 777.33 931.723 786.834 951.111C790.513 921.394 799.227 900.42 817.719 876.822Z"/><path fill="#2A2F41" d="M983.602 318.286C1026.49 303.231 1068.36 280.671 1104.67 253.381C1187.24 191.329 1251.46 163.083 1354.61 155.511C1356.13 156.048 1358.61 156.821 1359.9 157.634C1293.83 168.508 1259.61 172.997 1197.42 203.657C1132.34 235.744 1055.6 313.34 983.602 318.286Z"/><path fill="#21273B" d="M311.355 880.613C315.812 889.766 320.88 936.21 321.375 948.455C331.165 936.523 342.783 928.167 355.525 919.695C348.905 932.927 342.12 946.147 336.44 959.815C350.861 951.51 362.855 944.988 379.143 941.297C373.108 947 367.3 952.724 361.84 958.985C376.648 952.358 390.789 945.223 404.91 937.265L390.53 958.077C395.281 956.382 400.369 955.334 404.974 953.264C418.103 947.364 430.164 939.28 443.541 933.503C436.147 946.437 424.729 959.332 414.477 969.994C417.747 961.345 421.761 954.715 427.657 947.591C417.359 952.941 409.44 959.769 400.818 967.402C401.288 964.835 403.814 961.629 403.136 959.232C394.59 960.047 384.397 966.723 376.776 970.711C380.907 963.499 385.62 957.106 391.034 950.816C377.39 955.68 364.529 963.127 351.739 969.851C355.8 961.658 361.13 955.083 367.001 948.143C353.69 954.491 341.641 962.814 328.704 969.813C331.734 956.23 339.066 943.475 345.179 931.068C330.616 942.654 324.127 952.472 317.492 969.973C315.235 947.253 313.04 924.642 310.156 901.988C307.873 914.43 305.539 927.016 304.213 939.595C303.061 950.527 302.88 961.409 301.293 972.322C291.258 941.817 302.047 909.782 311.355 880.613Z"/><path fill="#21273B" d="M348.181 334.22C418.687 317.748 488.245 297.45 556.544 273.415C577.694 265.871 598.71 257.958 619.584 249.68C630.658 245.395 649.33 237.834 660.438 235.31C582.296 277.398 504.028 301.185 417.904 322.045C395.944 327.363 367.57 331.424 347.938 336.549L348.181 334.22Z"/><path fill="#21273B" d="M1462.59 266.609L1463.04 266.542C1462.4 268.017 1409.64 281.609 1403.34 283.322C1333.2 302.835 1264.1 325.888 1196.29 352.391C1166.51 364.101 1138.05 376.806 1108.58 388.974L1108.07 388.84L1108.22 388C1131.68 373.732 1168.22 358.593 1193.6 347.871C1264.89 317.763 1338.36 293.758 1413.8 276.528C1428.41 273.192 1447.98 268.437 1462.59 266.609Z"/><path fill="#21273B" d="M1513.53 890.695C1515.2 895.841 1513.52 903.654 1514.39 909.261C1516.69 924.063 1521.69 938.407 1526.43 952.566C1526.71 949.909 1526.98 947.213 1527.47 944.584C1529.89 931.507 1536.7 921.201 1547.61 913.737C1540.04 925.374 1533.44 939.888 1532.19 953.86C1531.76 958.526 1532.49 963.235 1531.84 967.88C1531.56 969.838 1531.28 969.842 1529.74 971.008L1527.24 970.594C1518.28 963.527 1514.6 946.54 1511.43 935.961L1510.85 937.751C1510.98 947.339 1512.93 962.662 1506.14 970.107C1504.35 970.721 1503.48 971.347 1501.64 970.553C1496.64 968.394 1492.94 960.388 1490.86 955.572C1485.03 942.118 1483.12 927.658 1488.59 913.83C1488.86 933.504 1493.82 949.944 1505.34 965.933C1506.25 943.063 1498.37 909.919 1513.53 890.695Z"/><path fill="#21273B" d="M1726.98 901.122L1727.24 901.373C1727.6 904.466 1720.58 913.798 1718.68 917.29C1715.31 923.487 1711.62 929.717 1709.58 936.496C1707.03 945.015 1706.63 962.099 1702.19 968.682L1700.47 968.474C1699.01 966.7 1698.67 964.811 1698.41 962.604C1695.74 940.572 1707.04 923.573 1720.02 907.183C1706.81 916.945 1695.14 928.68 1688.36 943.874C1685.29 950.74 1684.4 964.718 1678.99 969.462L1676.67 968.789C1673.75 955.152 1672.69 941.044 1672.29 927.125C1667.99 939.96 1668.69 951.851 1666.46 964.841C1666.02 967.379 1665.45 968.529 1663.41 970.013C1660.46 967.335 1660.09 962.879 1659.58 959.058C1657.5 943.262 1666.67 930.664 1675.75 918.794C1676.26 928.417 1677.35 937.946 1678.46 947.513C1679.36 945.506 1680.3 943.52 1681.29 941.556C1690.68 922.697 1706.89 907.885 1726.98 901.122Z"/><path fill="#21273B" d="M1424.97 396.09C1400.59 404.723 1372.52 412.58 1347.53 420.569C1300.84 435.171 1254.67 451.402 1209.11 469.232C1196.23 474.309 1174.29 482.522 1162.21 488.296L1160.52 486.803C1227.52 454.102 1297.51 427.954 1369.53 408.723C1385.55 404.468 1408.92 398.005 1424.97 396.09Z"/><path fill="#21273B" d="M1464.19 876.895C1467.62 876.734 1470.44 876.855 1473.37 878.911C1480.45 883.887 1481.39 892.836 1482.68 900.728L1480.96 902.539L1482.41 903.734L1482.77 902.343L1481.4 903.165C1476.02 896.633 1476.01 888.51 1467.84 883.771C1465.26 883.489 1464.05 883.201 1461.93 885.066C1455.74 890.486 1455.07 903.924 1454.12 911.677C1451.26 904.567 1447.48 895.601 1441.99 890.133C1439.83 887.991 1438.24 887.443 1435.26 887.429C1433.49 888.45 1432.44 889.55 1431.57 891.393C1425.41 904.49 1431.38 923.408 1436.04 936.071C1425.91 929.834 1416.83 920.031 1404.94 917.213C1399.18 915.846 1395.05 916.777 1390.06 919.772C1389.16 922.598 1388.44 925.358 1389.01 928.321C1391.22 939.78 1403.22 946.804 1412 952.984C1406.53 951.595 1401.15 950.028 1396.31 947.048C1390.11 943.221 1384.66 937.261 1383.13 929.949C1382.26 925.816 1382.8 921.221 1385.17 917.658C1387.68 913.873 1391.6 911.656 1396.02 910.896C1407.21 908.976 1417.28 915.736 1426.02 921.739C1424.38 914.259 1423.09 907.097 1423.7 899.383C1424.17 893.331 1425.83 884.9 1430.97 880.937C1432.66 879.636 1434.71 879.068 1436.82 879.418C1443.46 880.52 1447.49 887.517 1451.01 892.571C1454.63 885.534 1457.18 881.105 1464.19 876.895Z"/><path fill="#21273B" d="M1145.69 905.041C1145.13 908.51 1143.59 911.668 1143.01 915.135C1141.18 925.998 1144.88 936.57 1147.04 947.097C1149.34 935.074 1153.81 928.445 1161.68 919.396C1155.41 936.386 1152.83 953.067 1149.46 970.746C1144.96 961.846 1142.67 952.362 1140.17 942.773C1137.54 950.779 1136.66 962.735 1132.43 969.694C1130.35 968.571 1130.39 967.031 1129.74 964.874C1129.63 952.801 1132.59 944.523 1137.71 933.824C1137.15 928.997 1137.08 924.07 1136.85 919.217C1131.04 929.925 1125.9 940.98 1121.44 952.32C1119.69 956.88 1119.03 962.19 1116.94 966.521C1116 968.468 1115.58 968.677 1113.79 969.744L1112.62 968.48C1111.78 964.074 1112.14 958.942 1113.05 954.541C1117.17 934.644 1128.51 915.934 1145.69 905.041Z"/><path fill="#2A2F41" d="M1743.36 894.59C1745.46 896.534 1748.45 912.061 1750.64 916.272C1756.07 926.716 1764.74 934.664 1771.85 943.889C1775.8 948.999 1782.5 959.096 1781.63 965.86L1780.38 966.098C1769.8 960.35 1761.67 945.62 1755.16 935.75L1747.36 923.974C1751.21 941.193 1757.21 956.938 1764.05 973.174C1759.66 969.465 1755.69 965.593 1752.47 960.8C1739.57 941.596 1739.13 916.54 1743.36 894.59Z"/><path fill="#21273B" d="M1120.06 293.604C1121.04 295.5 1122.48 299.843 1123.17 302.07C1128 317.812 1138.61 318.679 1152.76 322.133C1128.74 326.908 1127.54 327.959 1120.58 351.901C1112.06 327.47 1114.19 325.826 1086.56 322.318C1111.27 316.971 1111.82 317.333 1120.06 293.604Z"/><path fill="white" d="M1119.97 306.782C1120.5 307.244 1120.83 307.552 1121.09 308.233C1123.59 314.829 1127.76 317.53 1132.48 322.853C1125.66 327.161 1124.47 328.783 1120.88 336.036C1121.2 336.311 1109.24 322.599 1109.49 323.009C1110.03 318.514 1115.64 316.418 1119.97 306.782Z"/><path fill="#21273B" d="M110.767 485.603C114.246 487.883 117.291 500.176 119.09 504.579L137.849 512.007C131.432 514.469 125.17 517.055 118.965 520.014C116.202 525.892 114.118 532.242 111.827 538.328C107.744 535.289 105.675 525.109 104.066 520.324C97.8968 516.695 90.9562 514.372 84.2855 511.819C90.9023 509.598 97.3097 506.822 103.75 504.142C106.598 498.285 108.562 491.742 110.767 485.603Z"/><path fill="white" d="M111.107 495.659C111.997 497.078 112.673 498.835 113.373 500.372C115.636 505.34 120.449 509.053 124.36 512.768C123.333 512.869 122.411 513.062 121.473 513.52C116.134 516.127 113.036 524.236 111.17 529.493C110.112 525.458 108.377 521.598 106.807 517.739C103.184 515.453 99.1193 513.71 95.2698 511.827C96.7015 511.225 98.1214 510.596 99.5287 509.939C106.632 506.598 108.537 502.746 111.107 495.659Z"/><path fill="#21273B" d="M555.82 202.54C557.648 205.974 558.542 215.895 561.283 221.202C565.338 229.055 573.068 230.186 581.437 232.896C558.926 237.312 560.251 239.564 556.667 261.039L555.588 261.307C552.575 238.875 547.951 237.203 527 231.941C536.642 230.352 540.399 229.07 548.657 224.672C553.415 216.725 554.027 211.518 555.82 202.54Z"/><path fill="white" d="M555.564 219.692C560.14 224.17 558.57 226.539 566.937 232.555C560.326 236.477 559.045 238.737 555.662 245.679C551.703 237.968 550.853 236.262 543.122 232.378C549.858 228.325 552.104 226.708 555.564 219.692Z"/><path fill="#21273B" d="M1251.42 913.803C1256.67 914.181 1262.48 916.692 1267.16 919.081C1282.58 926.946 1290 941.273 1299.81 954.61C1302.49 958.25 1307.22 962.386 1308.61 966.619C1307.16 967.126 1305.88 967.361 1304.35 967.03C1297.06 965.465 1291.76 956.421 1287.81 950.72C1282.85 943.136 1277.86 935.874 1272.01 928.923C1273.79 933.678 1275.81 938.543 1277 943.481C1278.5 949.714 1278.42 958.696 1274.96 964.277C1273.15 963.536 1273.04 955.734 1272.87 953.907C1271.33 937.136 1263.43 924.98 1251.42 913.803Z"/><path fill="#21273B" d="M1219.55 913.111C1214.78 930.747 1216.74 956.046 1230.69 969.111C1212.32 970.736 1210.81 939.53 1210.73 926.969C1205.88 933.313 1201.76 938.859 1199.42 946.752C1197.9 951.895 1198.81 961.403 1196.45 965.494C1192.39 961.989 1192.5 958.705 1191.94 953.243C1195.63 936.448 1207.37 924.325 1219.55 913.111Z"/><path fill="#21273B" d="M393.341 865.968C395.741 865.974 397.983 866.043 400.257 866.894C418.625 873.771 401.38 891.518 405.427 900.198C410.078 899.007 414.646 898.127 419.264 899.86C421.206 901.78 422.179 902.658 422.34 905.554C422.709 912.218 417.975 916.916 413.95 921.559C415.485 917.392 418.506 911.277 417.214 906.854C416.563 904.628 415.782 904.452 413.895 903.315C410.055 902.695 406.329 904.284 402.728 905.465C400.173 906.618 397.561 907.628 394.954 908.656L394.441 907.967C397.608 902.184 400.456 896.364 401.965 889.904C403.232 884.476 403.944 878.47 400.876 873.55C399.597 872.84 398.807 872.167 397.302 872.218C388.744 872.506 378.444 884.819 372.519 890.632C372.967 889.477 373.431 888.327 373.911 887.185C378.204 877.016 382.897 870.244 393.341 865.968Z"/><path fill="#2A2F41" d="M1815.83 816.053C1819.33 815.914 1823.01 816.305 1826.16 817.942C1830.97 820.446 1834.22 825.029 1835.67 830.193C1836.71 833.934 1837.29 838.691 1835.37 842.222C1832.34 841.5 1830.5 827.621 1819.61 822.011C1818.5 822.463 1817.51 823.002 1816.62 823.812C1810.3 829.529 1812.96 846.446 1812.74 854.51C1808.12 846.302 1804.09 836.866 1806.72 827.273C1808.23 821.755 1810.92 818.801 1815.83 816.053Z"/><path fill="#21273B" d="M682.68 938.883C691.743 941.078 702.101 948.055 709.78 953.188C714.982 956.665 726.952 964.038 728.224 970.44C727.285 970.765 726.66 970.843 725.649 970.82C719.413 970.673 715.869 965.493 711.937 961.305C707.103 956.857 701.776 952.921 696.606 948.874C699.327 953.835 702.686 959.348 703.489 965.007C703.794 967.163 704.316 969.18 703 970.977C697.863 968.957 692.745 954.134 689.879 949.126C687.836 945.555 685.134 942.188 682.68 938.883Z"/><path fill="#21273B" d="M1847.18 781.142C1850.72 780.705 1855.19 779.982 1858.32 782.06C1861.19 783.971 1862.77 787.19 1863.49 790.484C1864.93 797.072 1863.44 805.681 1859.8 811.34C1855.47 807.889 1859.77 794.234 1855.73 788.147C1852.9 786.455 1852.26 786.575 1849.12 786.843C1839.66 795.596 1839.64 809.583 1837.84 821.562C1836.13 813.775 1834.48 805.236 1836 797.289C1837.42 789.891 1841.02 785.243 1847.18 781.142Z"/><path fill="#21273B" d="M210.002 791.684C211.426 791.76 213.114 791.782 214.48 792.211C217.312 793.102 219.772 795.87 221.194 798.41C227.206 809.147 223.741 825.816 220.584 837.016C218.958 826.718 218.114 816.244 216.624 805.909C216.038 803.685 215.107 801.86 214.049 799.839C212.712 799.164 212.215 798.566 210.716 799.071C204.08 801.31 198.418 816.757 195.434 823.04C195.973 819.145 196.462 815.18 197.327 811.343C199.211 802.984 202.645 796.342 210.002 791.684Z"/><path fill="#21273B" d="M1169.47 847.917C1170.61 848.002 1171.71 848.328 1172.82 848.594C1171.51 851.105 1124.88 876.791 1119.44 880.109L1116.86 880.882L1116.4 879.801C1125.52 865.711 1153.96 853.188 1169.47 847.917Z"/><path fill="#21273B" d="M1136.9 847.092C1139.05 846.938 1140.9 846.622 1142.89 847.621C1136.48 853.942 1104.23 869.661 1094.36 874.847C1092.74 875.491 1092.51 875.53 1090.79 875.224L1091.35 873.479C1102.97 861.046 1121.07 852.605 1136.9 847.092Z"/><path fill="#21273B" d="M1478.41 913.716C1479.99 920.488 1478.32 929.016 1479.13 936.09C1480.05 944.163 1486.63 961.389 1484.71 968.402L1482.75 968.465C1479.27 963.476 1476.89 957.384 1475.32 951.514C1472.12 939.499 1472.09 924.654 1478.41 913.716Z"/><path fill="#21273B" d="M249.42 842.024C249.734 837.692 251.774 825.973 249.923 823.181C242.378 823.673 232.572 842.975 228.826 844.342C223.759 836.672 242.585 813.363 254.097 820.885C255.976 824.179 255.815 825.075 255.821 828.828L257.341 830.03C254.678 835.228 252.895 837.489 249.42 842.024Z"/><path fill="#21273B" d="M1554.05 930.62L1555.15 931.172C1555.76 935.524 1543.87 964.021 1541.33 969.559L1539.4 967.988C1539.01 966.145 1538.63 964.246 1538.68 962.352C1538.97 950.989 1545.85 938.162 1554.05 930.62Z"/><path fill="#21273B" d="M1193.05 852.097C1195.49 851.894 1197.95 852.008 1200.4 852.055L1200.59 852.944C1187.21 859.166 1174.52 866.092 1161.35 872.717C1160.16 873.497 1158.85 873.787 1157.5 874.163L1157.35 872.643C1165.07 862.586 1181.08 855.366 1193.05 852.097Z"/><path fill="#21273B" d="M1227.72 941.679C1227.87 941.704 1228.01 941.723 1228.16 941.753C1236.2 943.408 1242.03 951.203 1246.32 957.624C1247.97 954.499 1249.37 951.554 1252.06 949.186C1253.11 951.473 1251.91 954.114 1251.37 956.548C1249.48 961.58 1246.57 966.354 1244.03 971.089C1240.45 959.412 1235.85 950.838 1227.72 941.679Z"/><path fill="#21273B" d="M1177.51 929.51C1182.67 936.702 1192.95 957.931 1185.73 965.5C1181.12 963.962 1180.06 950.701 1179.82 946.077L1177.74 943.277C1179.19 940.157 1177.91 933.274 1177.51 929.51Z"/><path fill="#21273B" d="M1255.5 760.818C1256.6 760.94 1256.83 761.096 1257.73 761.684C1249.64 770.958 1243.25 782.01 1238.64 793.389L1238.12 793.49L1237.03 792.591C1236.97 788.367 1237.35 784.431 1238.63 780.379C1241.43 771.508 1247.42 765.124 1255.5 760.818Z"/><path fill="#21273B" d="M1251.02 939.538C1256.03 942.104 1260.6 946.172 1263.04 951.334C1265.83 957.245 1265.61 961.817 1263.45 967.84C1261.73 968.768 1261.6 968.957 1259.58 968.67C1258.76 958.399 1254.8 949.001 1251.02 939.538Z"/><path fill="#21273B" d="M1204.18 755.59C1204.37 755.62 1204.56 755.639 1204.75 755.68C1210.09 756.844 1214.87 761.124 1217.79 765.59C1222.81 773.245 1223.66 781.796 1221.93 790.572L1220.97 790.709C1218.09 787.559 1217.62 777.672 1215.66 773.034C1212.85 766.368 1208.89 761.011 1204.18 755.59Z"/><path fill="#21273B" d="M1107.48 925.74C1108.87 927.387 1108.61 927.1 1107.8 929.018C1102.09 942.615 1095.88 954.238 1095.72 969.306C1093.59 966.678 1093.7 963.93 1093.68 960.556C1093.6 948.47 1099.1 934.374 1107.48 925.74Z"/><path fill="#21273B" d="M1177.74 943.277L1179.82 946.077C1174.02 952.961 1169.25 966.446 1166.25 967.71C1162.55 964.949 1159.97 953.863 1158.58 949.13C1162.95 954.432 1163.96 955.804 1167 962.035C1170.01 952.354 1170.77 950.556 1177.74 943.277Z"/><path fill="#21273B" d="M1230.69 969.111C1228.79 962.815 1225.8 953.969 1225.15 947.695L1225.86 946.558L1226.93 947.559C1229.73 952.532 1235.99 962.558 1233.39 968.008L1230.69 969.111Z"/><path fill="#21273B" d="M1123.32 745.622C1125.45 745.826 1126.63 746.24 1128.37 747.476L1128.47 749.098C1126.32 752.076 1123.18 753.355 1119.98 754.953C1117.99 755.064 1117.18 754.913 1115.5 753.833L1115.61 751.828C1117.83 748.944 1120.2 747.424 1123.32 745.622Z"/><path fill="#21273B" d="M1185.62 775.223C1187.95 775.869 1190.51 776.651 1192.59 777.88C1196.9 780.416 1198.54 783.675 1199.66 788.392C1198.72 788.273 1197.79 788.1 1196.9 787.743C1192.32 785.903 1187.54 779.635 1185.62 775.223Z"/><path fill="#21273B" d="M1275.23 780.133L1276.04 780.36L1275.92 781.444C1270.77 785.1 1265.06 787.859 1259.47 790.767C1259.08 790.764 1258.48 790.301 1258.13 790.102C1258.34 789.565 1258.41 789.278 1258.71 788.813C1261.86 783.833 1269.83 781.236 1275.23 780.133Z"/><path fill="#21273B" d="M1212.37 861.624L1214.71 862.733L1214.63 864.523C1211.39 867.38 1206.6 868.61 1202.59 870.076L1200.86 869.405L1200.77 867.925C1203.8 864.963 1208.54 863.369 1212.37 861.624Z"/><path fill="#2A2F41" d="M255.821 828.828C259.874 827.915 258.966 827.542 262.578 828.646C264.679 831.993 264.737 834.31 262.917 837.973C260.216 833.459 263.035 833.22 257.341 830.03L255.821 828.828Z"/><path fill="#575A66" d="M1162.21 488.296C1158.31 490.033 1151.16 493.251 1147.11 494.018C1149.3 493.343 1148.52 493.828 1149.99 491.742L1149.46 491.983L1160.52 486.803L1162.21 488.296Z"/><path fill="#575A66" d="M1354.61 155.511C1357.18 155.115 1363.01 155.012 1365.84 154.878L1374.03 155.7L1359.9 157.634C1358.61 156.821 1356.13 156.048 1354.61 155.511Z"/><path fill="#A9AAB0" d="M1365.84 154.878C1372.74 153.62 1379.55 153.851 1386.57 153.823C1383.42 154.506 1376.81 156.336 1374.03 155.7L1365.84 154.878Z"/><path fill="#8C8D93" d="M347.938 336.549C343.966 337.206 341.966 337.477 337.959 337.554C339.91 335.764 345.299 334.895 348.181 334.22L347.938 336.549Z"/></svg>