<?xml version="1.0" encoding="UTF-8" standalone="no"?>
<svg
   width="2048"
   height="1024"
   viewBox="0 0 2048 1024"
   version="1.1"
   id="svg156"
   sodipodi:docname="ultra-refined-elegant-line-illustration-of---clock.svg"
   inkscape:version="1.4.4 (dcaf3e7, 2026-05-05)"
   xmlns:inkscape="http://www.inkscape.org/namespaces/inkscape"
   xmlns:sodipodi="http://sodipodi.sourceforge.net/DTD/sodipodi-0.dtd"
   xmlns="http://www.w3.org/2000/svg"
   xmlns:svg="http://www.w3.org/2000/svg">
  <defs
     id="defs156" />
  <sodipodi:namedview
     id="namedview156"
     pagecolor="#ffffff"
     bordercolor="#000000"
     borderopacity="0.25"
     inkscape:showpageshadow="2"
     inkscape:pageopacity="0.0"
     inkscape:pagecheckerboard="0"
     inkscape:deskcolor="#d1d1d1"
     inkscape:zoom="0.33871244"
     inkscape:cx="1002.3252"
     inkscape:cy="698.2324"
     inkscape:window-width="1440"
     inkscape:window-height="842"
     inkscape:window-x="0"
     inkscape:window-y="30"
     inkscape:window-maximized="0"
     inkscape:current-layer="svg156" />
  <path
     fill="#2F2E3C"
     d="M1401.25 80.3999C1423.61 85.694 1439.01 92.0531 1451.83 112.701C1461.23 127.607 1464.26 145.659 1460.26 162.819C1458.22 171.295 1456.32 174.794 1451.81 181.979C1459.57 212.913 1461.22 227.408 1474.46 257.501C1474.76 245.058 1474.73 233.753 1477.18 221.461C1454.06 197.945 1459.73 160.962 1481.92 138.691C1492.87 127.706 1505.3 123.243 1520.43 121.065C1531.29 134.833 1533.98 150.154 1531.97 167.34C1530.08 184.093 1521.64 199.418 1508.48 209.959C1499.56 216.982 1492.7 219.469 1481.96 222.129C1480.55 236.326 1480.78 250.447 1481.24 264.632C1481.65 277.34 1488.79 287.843 1496.79 297.24C1531.24 337.74 1582.18 364.01 1626.24 392.517C1607.82 359.473 1598.3 317.737 1600.96 279.859C1601.34 274.4 1605.14 252.482 1604.2 249.853C1602.98 249.571 1602.69 249.234 1602.1 249.721C1596.81 254.093 1585.81 251.627 1578.85 249.619C1563.25 245.174 1550.07 234.676 1542.24 220.461C1536.52 209.989 1534.03 197.969 1532.92 186.229C1529.68 151.662 1564.47 163.944 1582.87 172.692C1570.61 150.374 1569.2 135.563 1574.97 110.952C1615.04 110.53 1646.13 132.319 1649.96 173.751C1654.33 166.672 1657.36 158.902 1667.11 161.192C1676.48 169.562 1652.04 185.305 1647.07 192.376C1629.55 217.303 1619.19 248.2 1614.98 278.137C1619.83 269.938 1623.8 263.715 1629.26 255.921C1628.83 236.812 1637.47 216.53 1650.59 202.718C1668.17 184.208 1688.6 182.182 1712.66 183.011C1713.37 188.953 1714.11 194.61 1713.92 200.602C1712.56 243.438 1678.6 279.682 1633.61 264.521C1618.38 287.57 1611.41 299.072 1617.73 327.295C1622.53 348.739 1626.65 359.874 1635.93 379.881C1638.25 372.105 1640.12 365.892 1643.13 358.385C1633.22 308.078 1682.4 268.932 1729.79 281.773C1730.29 289.352 1731.11 297.051 1729.69 304.515C1721.44 347.936 1689.21 370.121 1646.99 362.481C1644.19 375.658 1643.14 380.916 1643.61 394.19C1671.8 438.035 1686.44 443.096 1701.34 499.866C1712.52 468.527 1723.09 450.533 1743.9 424.95C1744.22 403.449 1754.68 383.907 1765.43 365.792C1753.72 354.327 1746.85 342.557 1746.57 325.557C1746.38 308.118 1753.14 291.322 1765.37 278.883C1776.24 267.938 1786.48 264.584 1800.94 260.81C1805.34 267.245 1808.03 271.61 1810.92 278.922C1821.41 305.456 1813.8 342.534 1789.98 359.515C1784.71 363.269 1776.62 366.195 1770.42 368.237C1765.78 380.643 1757.11 400.973 1753.69 412.587C1764.72 400.351 1775.29 388.243 1787.23 376.933C1810.17 355.206 1857.13 315.596 1871.59 288.046C1867.41 279.114 1864.09 272.002 1863.33 261.98C1860.31 222.163 1890.88 193.678 1928.85 190.64C1948.35 237.464 1930.76 284.401 1877.24 291.94C1868.97 306.175 1865.6 311.967 1854.49 324.388C1858.5 323.6 1864.42 322.24 1868.32 321.787C1880.96 306.398 1892.69 296.902 1913.53 294.839C1932.3 293.112 1951.01 298.791 1965.66 310.664C1971.92 315.818 1975.89 320.687 1980.59 327.212C1954.75 369.292 1890.61 376.021 1869.58 327.784C1841.51 340.541 1819.92 360.741 1799.4 383.579L1809.7 388.372C1848.2 359.55 1899.88 377.692 1915.19 422.514C1900.44 436.181 1884.3 443.939 1863.73 443.219C1848.3 442.811 1833.69 436.165 1823.24 424.8C1814.43 415.275 1810.29 404.338 1808.2 391.784L1796.23 387.002C1765.76 414.386 1726.53 466.38 1715.19 504.66C1708.84 526.112 1704.42 549.611 1698.04 571.833C1722.81 556.691 1746.42 546.262 1773.75 537.054C1769.56 501.369 1796.74 474.521 1830.82 470.721C1842.51 469.418 1851.97 471.468 1863.13 474.739C1863.27 496.733 1859.59 513.474 1843.5 529.887C1831.42 542.261 1814.93 549.343 1797.64 549.583C1790.91 549.615 1785.56 548.562 1779.12 546.527L1764.56 552.505C1767.62 553.769 1777.25 557.862 1780.09 557.966C1834.31 559.949 1858.31 601.545 1844.64 649.911C1794.09 650.583 1756.6 612.733 1777.29 562.128C1771.55 559.856 1765.12 557.472 1759.51 555.034C1731.38 568.074 1715.97 575.767 1690.15 594.07C1657.13 677.859 1595.85 740.674 1502.77 749.809C1566.97 763.65 1633.27 772.79 1699.01 761.911C1718.27 758.724 1738.99 755.992 1748.42 736.684C1705.76 701.774 1721.8 642.999 1769.01 622.106C1775.92 630.385 1782.87 638.605 1786.68 647.17C1801.84 681.214 1789.25 722.697 1753.66 737.476C1752.47 737.968 1750.31 743.947 1749.7 745.636C1791.34 725.04 1843.08 689.765 1876.51 657.511C1880.78 636.086 1887.51 620.303 1906.55 607.704C1921.96 597.526 1940.79 593.921 1958.87 597.689C1966.57 599.285 1970.78 601.18 1977.82 604.587C1973.3 643.243 1946.5 674.516 1904.27 670.729C1895.64 669.955 1885.19 667.4 1880.75 659.422C1878.56 659.851 1879.49 659.352 1877.92 661.059L1880.84 662.519C1880.76 667.528 1861.35 683.849 1856.24 691.655C1862.58 689.092 1870.24 685.24 1876.6 683.391C1911.28 673.319 1943.52 693.855 1956.24 725.678C1958.48 731.423 1960.14 737.376 1961.2 743.448C1943.3 753.167 1923.27 757.297 1903.36 751.426C1887.6 746.805 1874.37 736.059 1866.61 721.596C1861.84 712.644 1861.6 703.259 1858.06 694.093C1856.88 693.599 1855.83 693.16 1854.91 692.777C1855.74 692.594 1799.27 734.269 1794.6 738.031C1841.15 724.84 1875.34 756.87 1875.95 803.45C1872.19 799.406 1867.36 793.32 1866.23 787.951C1860.12 759.076 1820.76 730.254 1791.84 746.518L1790.65 748.022C1789.62 747.425 1788.84 747.199 1787.73 746.785C1787.35 747.829 1787.05 748.594 1787.25 749.736C1791.25 771.985 1806.11 790.219 1827.63 797.631C1841.25 802.323 1852.74 802.076 1866.8 800.707L1876.78 805.687C1863.89 809.644 1851.25 811.697 1837.82 809.727C1805.64 805.008 1778.7 781.838 1784.15 746.864C1687.17 812.468 1549.12 774.207 1443.78 753.538L1273.9 719.041C1150.24 693.341 1029.72 669.314 902.326 671.306C822.055 672.677 737.268 681.972 661.287 709.327C632.936 719.534 610.6 735.555 578.526 744.336C524.668 759.079 473.829 763.577 418.477 752.779C394.642 748.13 372.522 737.037 348.923 738.862C343.917 739.251 333.715 737.614 328.439 736.872C293.005 731.885 261.647 715.491 231.343 697.395C229.334 696.203 226.771 695.226 224.392 695.982C218.371 702.313 223.776 711.059 218.558 725.728C212.786 741.786 200.858 754.885 185.409 762.132C166.254 771.176 146.729 769.636 127.33 762.652C130.076 723.066 156.799 690.15 198.293 690.294C205.758 690.32 213.808 695.592 220.239 692.187C220.19 689.921 216.847 687.787 214.986 686.498C198.539 675.104 185.276 660.293 172.054 645.356C165.706 655.512 160.683 663.902 151.693 672.067C122.494 698.585 83.2491 690.724 58.2758 662.563C68.8466 644.003 82.1985 629.737 103.464 623.725C120.311 618.935 138.415 621.852 152.905 631.691C160.141 636.59 165.301 641.518 173.246 645.943C164.919 635.082 157.792 626.544 151.888 614.084C146.138 614.346 140.462 614.361 134.796 613.269C117.294 609.825 101.886 599.55 91.9801 584.716C79.4378 566.101 76.9382 548.161 81.095 526.668C91.5848 525.239 99.9646 524.803 110.422 527.077C127.923 530.712 143.246 541.19 152.982 556.18C164.561 574.238 163.201 590.335 158.842 609.958L159.189 611.804C160.769 612.779 181.926 638.184 185.271 641.96C194.82 619.381 198.188 596.91 188.324 573.737C145.444 473.01 170.638 361.102 243.539 282.298C300.986 220.816 380.344 184.442 464.42 181.057C635.893 174.51 791.685 289.31 798.337 469.075L815.405 469.091C819.568 462.122 821.195 460.165 828.224 456.167C827.683 440.785 826.221 425.449 823.846 410.242C811.186 328.659 771.634 262.837 704.925 214.088C689.304 220.718 678.902 215.655 672.493 200.274C662.155 194.682 638.506 185.32 631.147 179.132C629.812 176.043 629.861 177.318 630.777 174.326L633.071 173.224C641.092 172.912 664.462 186.046 673.117 190.374C675.941 185.053 678.433 180.77 683.966 178.011C689.135 175.381 695.161 175.004 700.618 176.968C705.647 178.777 709.738 182.532 711.972 187.387C715.339 194.586 714.31 200.122 711.746 207.184C722.847 215.336 733.449 224.147 743.494 233.569C804.033 290.768 834.716 372.009 836.968 454.334C843.575 457.173 848.681 459.387 852.088 466.152C854.306 470.494 854.593 475.569 852.878 480.133C850.988 485.15 847.17 489.202 842.274 491.385C829.045 497.404 820.491 488.601 815.693 477.245L798.077 477.051C797.503 483.808 796.877 490.56 796.2 497.308C788.598 571.455 749.14 638.87 691.719 685.645C715.673 679.206 739.918 673.902 764.373 669.753C768.564 652.165 789.921 638.833 804.222 628.093C809.402 587.516 825.631 568.87 845.317 534.854C873.476 486.681 887.838 427.058 860.547 375.13C845.82 347.11 818.1 310.923 837.017 278.309C840.317 272.618 853.83 261.596 860.25 259.946L861.537 261.543C860.506 268.391 848.581 270.684 844.672 277.894C826.324 311.737 858.757 346.04 872.661 374.373C880.56 390.468 883.859 400.842 886.763 416.781C896.279 401.573 901.829 393.993 915.28 382.338C914.732 374.434 915.553 366.494 917.709 358.869C921.784 344.241 931.089 329.9 945.003 322.142C960.245 313.97 980.234 309.769 997.323 312.745C1004.89 314.68 1004.81 322.85 1004.38 329.02C1001.88 365.228 973.049 398.129 934.515 392.807C929.769 392.151 924.703 389.874 920.197 388.042C909.846 396.609 895.468 417.794 889.927 430.205C886.583 437.698 887.517 453.323 886.227 462.35C884.224 475.14 881.902 489.829 877.096 501.9C860.706 543.062 837.221 576.643 820.856 618.281C838.202 607.682 856.104 598.735 875.476 591.56C899.122 582.802 926.903 580.876 949.902 571.129C951.563 570.425 954.834 566.735 956.12 565.249C951.307 555.623 948.093 546.7 946.911 535.908C944.885 518.544 950.017 501.104 961.125 487.605C974.401 471.144 990.61 464.513 1011.09 462.283C1032.19 504.172 1017.89 540.352 977.542 561.74L979.468 563.468C994.439 557.018 1014.56 548.096 1028.6 539.666C1029.95 531.114 1031.01 524.5 1035.01 516.679C1052.9 481.681 1095.38 470.009 1129.32 487.711C1126.61 509.832 1118.2 530.085 1100.19 544.127C1087.98 553.672 1072.52 558.056 1057.11 556.34C1046.63 555.086 1040.18 551.773 1030.77 547.409C1014.29 561.052 1001.84 571.005 980.907 577.841C995.143 578.608 1007.75 579.507 1021.9 582.193C1027.16 578.936 1032.44 575.444 1038.09 572.957C1076.27 556.166 1112.23 575.438 1130.25 609.932C1108.42 633.265 1074.97 643.13 1045.78 626.301C1030.28 617.358 1024.66 604.989 1019.29 588.856C1002.57 588.363 982.402 591.614 965.423 592.928C951.735 593.987 932.897 593.143 920.093 595.327C873.795 603.223 820.071 631.992 787.86 666.009C951.618 641.979 1125.91 672.349 1286.43 706.967L1389.79 728.385C1404.91 731.539 1426.73 736.704 1441.7 738.293C1447.28 738.885 1469.49 734.188 1476.13 733.213C1517.59 727.116 1554.63 709.916 1580.24 675.421C1600.68 647.899 1611.54 613.316 1606.29 578.542C1605.79 575.127 1605.19 571.727 1604.49 568.346C1586.37 551.51 1571.89 544.513 1547.79 538.253C1538.34 544.909 1529.63 551.099 1520.5 558.216C1533.04 608.71 1474.88 637.253 1434.2 619.714C1432.5 618.984 1429.22 615.689 1429.31 613.902C1430.79 583.464 1456.97 554.149 1487.48 550.341C1498.04 549.024 1507.11 551.017 1516.7 553.117C1524.28 547.369 1532.42 540.942 1540.28 535.697C1514.16 530.691 1507.19 534.561 1482.69 535.801C1448.47 537.531 1422.79 510.52 1418 476.951C1428.41 469.954 1435.84 467.272 1448.28 465.362C1481.35 460.284 1522.19 486.705 1514.98 523.769C1544.6 524.098 1570.47 527.172 1595.62 544.105C1570.08 476.211 1483.59 412.86 1419.31 383.006C1392.62 385.725 1354.41 389.745 1330.91 404.011C1328.76 405.318 1323.66 411.548 1321.75 413.862C1348.06 441.033 1346.86 482.367 1319.69 508.45C1312.12 515.753 1302.89 521.111 1292.79 524.065C1287.72 518.394 1283.58 514.018 1280.15 507.132C1261.51 469.726 1278.45 428.218 1316.59 413.356L1320.25 405.538C1286.26 416.118 1270.32 446.239 1226.04 425.155C1213.52 419.194 1200.28 404.961 1192.68 393.376C1205.55 381.35 1220.88 372.62 1238.48 369.855C1263.73 365.886 1292.17 375.199 1302.82 400.232C1327.56 390.714 1366.04 375.607 1392.19 371.316C1350.86 356.549 1305.77 334.93 1262.92 325.345C1241.48 320.547 1194.62 324.355 1173.59 329.603C1169.2 335.317 1164.76 340.999 1160.29 346.648C1192.71 381.125 1164.29 441.629 1120.24 447.974C1118.32 448.251 1113.02 446.539 1112.07 444.957C1088.14 405.106 1108.76 354.967 1153.76 344.141C1157.67 338.662 1159.87 335.614 1164.51 330.721C1146.66 336.011 1128.73 341.885 1113.58 353.092C1106.27 358.503 1099.63 365.002 1092.63 370.811C1089.63 373.294 1086.34 373.541 1083.4 370.717C1081.27 355.499 1120.31 334.058 1131.06 326.372C1128.94 324.833 1128.43 324.958 1125.72 324.634C1103.31 332.846 1088.75 338.924 1064.94 327.817C1048.99 320.368 1036.66 306.859 1030.71 290.288C1028.57 284.352 1027.47 278.32 1026.33 272.132C1066.56 251.701 1128.49 265.578 1127.15 319.334C1131.98 320.654 1137.66 322.669 1142.48 321.927L1143.23 321.814C1152.5 320.375 1162.93 316.21 1172.33 314.217C1191.05 310.242 1209.19 308.97 1228.22 308.633C1190.89 286.56 1151.91 265.33 1115.67 241.587C1082.2 219.666 1052.55 212.877 1012.33 210.659C1012.3 217.523 1012.42 222.669 1009.95 229.236C996.467 265.083 948.049 280.963 915.335 262.39C918.222 215.963 964.341 182.185 1007.99 204.381C1027.79 202.408 1038.36 202.817 1058.05 206.434C1046.28 200.295 1033.25 194.117 1021.81 187.909C971.626 194.556 941.237 146.959 952.741 101.23C998.672 96.4479 1047.85 136.949 1028.13 184.553C1044.81 190.711 1061.48 195.479 1077.64 202.868C1099.06 212.664 1118.78 225.376 1139.23 236.917C1132.61 217.098 1128.9 212.189 1116.33 195.442C1097.01 192.816 1082.46 185.427 1070.48 169.657C1058.8 154.166 1053.76 134.66 1056.49 115.45C1057.25 110.204 1059.08 104.246 1061.04 99.3374C1111.17 99.6185 1148.83 147.273 1123.06 193.272C1139.22 213.011 1143.27 220.902 1151.59 245.104C1185.52 266.074 1220.2 289.463 1256.72 305.416C1264.57 308.841 1280.74 312.801 1289.63 315.524C1306.03 320.65 1322.29 326.181 1338.42 332.114C1369.97 343.598 1400.87 355.018 1431.28 369.434C1545.1 423.397 1687 546.932 1601.75 683.846C1600.01 686.619 1598.24 689.366 1596.42 692.086C1637.41 656.821 1659.87 622.587 1677.75 571.446C1681.34 561.185 1687.14 541.345 1687.64 531.125C1689.12 500.904 1672.51 457.951 1652.25 435.869C1617.89 398.435 1568.23 374.317 1527.36 343.746C1477.74 345.247 1440.65 325.333 1405.38 291.595C1402.8 289.121 1395.5 289.366 1392.94 293.069C1380.83 310.537 1366.12 320.326 1344.33 321.161C1325.23 321.904 1306.61 315.02 1292.59 302.027C1288.83 298.525 1285.48 294.609 1282.59 290.354C1300.31 264.541 1314.05 256.774 1345.11 253.559L1317.57 242.089C1307.14 253.366 1292.58 259.938 1277.22 260.308C1260.11 260.797 1241.72 253.772 1229.36 241.893C1219.79 232.707 1216.24 224.023 1211.08 212.052C1244.46 179.443 1305.8 191.676 1321.08 236.572C1341.06 243.763 1365.44 252.033 1381.1 266.766C1386.69 272.021 1392.7 281.48 1398.02 285.355C1397.43 282.074 1379.73 256.806 1376.3 250.754C1356.88 249.28 1341.01 240.773 1328.3 225.98C1316 211.669 1309.9 193.055 1311.35 174.242C1311.99 166.159 1313.7 160.502 1316.94 153.16C1367.61 151.845 1402.73 201.143 1382.19 247.301C1406.3 283.751 1457.26 321.141 1500.84 330.064C1504.58 330.817 1508.34 331.519 1512.11 332.17C1471.13 296.987 1451.36 254.931 1447.2 200.873C1446.79 195.309 1446.46 189.738 1446.21 184.164C1407.82 174.434 1381.89 140.296 1392.14 100.472C1394.03 93.319 1397.11 86.5337 1401.25 80.3999Z"
     id="path2" />
  <path
     fill="#FEFEFE"
     d="M85.1942 531.9L87.5574 531.609C94.0095 538.258 155.532 603.959 154.611 603.699L155.615 598.258C158.72 603.847 152.196 606.091 158.842 609.958L159.189 611.804L155.259 610.413C141.593 609.565 128.449 604.849 117.361 596.816C94.9675 580.603 89.3526 557.486 85.1942 531.9Z"
     id="path3" />
  <path
     fill="#2F2E3C"
     d="M85.1942 531.9L87.5574 531.609C94.0095 538.258 155.532 603.959 154.611 603.699L155.615 598.258C158.72 603.847 152.196 606.091 158.842 609.958L159.189 611.804L155.259 610.413C133.437 584.328 105.945 557.512 85.1942 531.9Z"
     id="path4" />
  <path
     fill="#FEFEFE"
     d="M87.5574 531.609C129.556 537.763 149.869 556.159 155.615 598.258L154.611 603.699C155.532 603.959 94.0095 538.258 87.5574 531.609Z"
     id="path5" />
  <path
     fill="#F4F3F6"
     d="M979.468 563.468C973.053 565.864 968.367 567.695 961.674 569.234L960.521 568.25L960.698 569.427L959.609 568.633L958.41 569.755L958.234 569.054C965.83 564.688 969.469 564.535 977.542 561.74L979.468 563.468Z"
     id="path6" />
  <path
     fill="#FEFEFE"
     d="M461.651 194.423C541.092 190.339 621.206 214.059 683.46 264.332C737.47 307.946 776.156 372.367 783.208 442.077C790.001 511.269 768.932 580.314 724.665 633.924C669.658 701.05 591.196 736.288 506.096 744.71C488.041 745.754 471.395 745.954 453.547 744.426C316.639 732.708 192.108 631.636 181.374 489.038C173.979 390.798 224.907 301.358 305.043 246.75C352.792 214.212 404.793 198.385 461.651 194.423Z"
     id="path7" />
  <path
     fill="#2F2E3C"
     d="M467.276 232.419C467.744 232.372 468.214 232.333 468.683 232.301C537.964 228.07 606.152 251.097 658.684 296.463C830.563 447.38 716.232 695.151 499.249 707.993C428.111 712.589 357.981 689.285 303.741 643.026C256.775 602.559 228.269 548.07 223.855 486.115C219.871 425.914 240.122 366.619 280.1 321.433C328.922 265.177 393.982 237.556 467.276 232.419Z"
     id="path8" />
  <path
     fill="#FEFEFE"
     d="M466.536 245.417C473.585 244.764 481.778 244.85 488.978 244.963C674.316 247.881 804.635 450.493 678.518 605.592C633.39 661.09 572.282 687.608 501.448 694.857C459.46 696.584 422.878 692.186 383.413 676.209C304.225 644.149 243.305 574.585 237.449 486.816C233.183 428.851 252.73 371.65 291.58 328.42C336.369 277.584 399.41 249.588 466.536 245.417Z"
     id="path9" />
  <path
     fill="#2f2e3c"
     d="m 471.51242,304.03351 c 4.12566,3.00698 24.8838,29.46757 29.4955,35.41713 -7.71286,0.52327 -15.43055,0.96558 -23.15286,1.32893 l 15.8403,94.0187 c 22.51028,6.53165 36.20571,27.5071 20.84869,48.27121 -5.94924,7.97864 -14.8776,13.20508 -24.74777,14.48656 -23.7093,3.06478 -37.10848,-11.76643 -39.62618,-34.06186 -33.73146,-21.86782 -67.55129,-41.30761 -101.45996,-63.87531 -18.63241,-12.61769 -39.33063,-28.89836 -54.65178,-45.13178 53.99264,17.79522 123.93629,54.27891 172.14489,85.51422 2.471,-1.60538 5.31605,-2.6793 8.04231,-3.84584 -2.0585,-29.03741 -4.65202,-66.16162 -5.12925,-94.79568 -6.80337,0.54243 -13.62002,0.8992 -20.44288,1.07055 3.88582,-7.90672 18.14545,-31.27992 22.83899,-38.39683 z"
     id="path10" />
  <path
     fill="#FEFEFE"
     d="M484.19 444.343C495.893 445.356 507.156 450.801 510.606 462.921C512.167 468.39 511.438 474.258 508.586 479.179C503.53 487.755 496.964 490.071 488.019 492.232C474.717 492.194 461.465 486.42 458.978 472.016C457.983 466.188 459.406 460.207 462.917 455.451C468.362 448.061 475.589 445.724 484.19 444.343Z"
     id="path11" />
  <path
     fill="#2F2E3C"
     d="M479.018 449.088C505.428 445.125 521.168 475.109 490.981 487.854C463.333 491.077 450.192 462.262 479.018 449.088Z"
     id="path12" />
  <path
     fill="#2F2E3C"
     d="M476.128 638.845C478.361 638.753 481.031 638.491 483.207 639.03C486.87 639.937 489.851 642.304 491.738 645.539C496.455 653.626 495.807 666.595 493.499 675.464C491.974 681.327 489.194 683.824 484.106 686.844C481.883 686.918 479.454 687.068 477.274 686.578C473.387 685.706 470.456 683.179 468.47 679.795C463.694 671.657 464.216 658.981 466.637 650.039C468.177 644.355 471.186 641.749 476.128 638.845Z"
     id="path13" />
  <path
     fill="#2F2E3C"
     d="M680.896 457.117C688.062 456.947 703.855 455.854 709.605 458.352C723.633 464.447 720.922 478.665 708.208 484.652C695.444 485.009 664.409 489.426 670.546 466.448C671.86 461.525 676.643 459.16 680.896 457.117Z"
     id="path14" />
  <path
     fill="#2F2E3C"
     d="M261.766 456.069C274.949 455.693 305.533 450.898 299.175 475.691C298.144 479.711 293.994 482.128 290.459 483.852C277.43 484.161 248.119 488.728 252.412 466.096C253.388 460.95 257.372 458.296 261.766 456.069Z"
     id="path15" />
  <path
     fill="#2F2E3C"
     d="M488.272 247.922C508.186 251.562 510.399 285.404 490.969 296.984C467.476 294.147 468.184 255.203 488.272 247.922Z"
     id="path16" />
  <path
     fill="#2F2E3C"
     d="M311.862 562.88C322.351 562.481 325.028 571.193 317.09 576.757C309.737 581.911 300.495 585.864 292.345 589.81C287.04 590.474 282.389 587.432 282.689 581.735C286.4 574.344 303.684 566.993 311.862 562.88Z"
     id="path17" />
  <path
     fill="#2F2E3C"
     d="M644.951 563.585C652.142 563.851 677.535 576.367 678.708 585.39C678.137 589.035 676.746 589.902 674.006 592.41C666.908 591.209 641.482 579.354 640.31 570.618C640.93 566.983 642.252 566.124 644.951 563.585Z"
     id="path18" />
  <path
     fill="#2F2E3C"
     d="M363.927 279.566C373.832 281.091 385.052 301.313 386.641 310.983C387.059 313.53 384.244 316.013 382.506 317.586C371.903 315.906 361.537 297.147 359.442 287.027C358.896 284.388 362.174 281.298 363.927 279.566Z"
     id="path19" />
  <path
     fill="#2F2E3C"
     d="M287.796 354.732C295.359 355.786 317.873 365.774 318.693 374.904C317.936 378.66 316.943 379.275 314.186 381.921C306.617 380.933 284.452 371.024 283.263 362.072C283.745 358.283 285.047 357.414 287.796 354.732Z"
     id="path20" />
  <path
     fill="#2F2E3C"
     d="M675.998 356.855C678.868 357.104 681.863 358.849 683.815 360.962C686.055 370.684 663.017 379.435 655.431 383.158C652.417 383.196 649.581 381.818 647.289 379.95C644.738 370.501 668.54 360.766 675.998 356.855Z"
     id="path21" />
  <path
     fill="#2F2E3C"
     d="M384.816 628.644C386.956 628.633 389.943 628.55 391.796 629.737C393.37 630.744 394.453 632.161 394.731 634C395.93 641.947 382.057 656.618 377.139 662.719C375.133 662.428 372.629 661.941 370.925 660.805C369.077 659.572 368.03 657.784 367.907 655.571C367.475 647.784 379.935 634.481 384.816 628.644Z"
     id="path22" />
  <path
     fill="#2F2E3C"
     d="M563.843 633.691C566.125 633.703 568.713 633.566 570.625 634.992C576.331 639.248 586.165 654.23 586.583 661.504C586.758 664.541 584.518 666.083 582.649 668.108C580.769 668.056 578.211 668.13 576.598 667.06C571.154 663.448 560.969 647.451 560.509 640.468C560.307 637.392 562.092 635.946 563.843 633.691Z"
     id="path23" />
  <path
     fill="#2F2E3C"
     d="M599.224 283.701C605.106 283.565 607.329 283.947 609.135 289.557C608.121 298.307 597.863 310.92 592.092 317.802C588.449 317.956 587.919 317.999 584.581 316.302C578.722 307.942 593.776 291.235 599.224 283.701Z"
     id="path24" />
  <path
     fill="#FEFEFE"
     d="M1765.33 631.097L1767.57 628C1791.06 663.531 1789.63 704.874 1753.44 731.474L1752.29 730.8L1750.58 730.219C1749.71 730.384 1749.35 730.095 1748.34 729.79C1740.04 718.513 1733.72 699.986 1734.24 685.848C1735.13 661.264 1748.99 646.895 1765.33 631.097Z"
     id="path25" />
  <path
     fill="#FEFEFE"
     d="M1765.33 631.097C1758.96 664.286 1754.79 696.759 1750.58 730.219C1749.71 730.384 1749.35 730.095 1748.34 729.79C1740.04 718.513 1733.72 699.986 1734.24 685.848C1735.13 661.264 1748.99 646.895 1765.33 631.097Z"
     id="path26" />
  <path
     fill="#2F2E3C"
     d="M1765.33 631.097L1767.57 628C1763.98 658.879 1758.05 700.459 1752.29 730.8L1750.58 730.219C1754.79 696.759 1758.96 664.286 1765.33 631.097Z"
     id="path27" />
  <path
     fill="#FEFEFE"
     d="M1035.44 540.657C1049.12 495.436 1078.02 485.736 1122.1 488.758C1107.94 528.62 1084.84 561.364 1036.17 543.609C1035.79 543.47 1035.41 543.328 1035.03 543.185L1035.44 540.657Z"
     id="path28" />
  <path
     fill="#2F2E3C"
     d="M1035.44 540.657C1052.04 531.228 1068.42 521.422 1084.58 511.249C1094.3 505.148 1112.48 493.102 1122.32 488.761C1110.39 500.139 1050.37 538.586 1035.03 543.185L1035.44 540.657Z"
     id="path29" />
  <path
     fill="#FEFEFE"
     d="M1922.63 198.101L1923.28 197.459L1924.66 197.684C1937.35 245.189 1917.73 267.748 1877.94 288.886L1877.18 289.274L1875.82 288.715C1864.9 236.683 1876.61 219.827 1922.63 198.101Z"
     id="path30" />
  <path
     fill="#2F2E3C"
     d="M1921.84 199.828C1922.57 202.728 1883.65 279.527 1879.74 286.063C1879.16 287.018 1878.57 287.959 1877.94 288.886C1877.74 288.114 1877.48 287.151 1877.17 285.998C1887.54 261.618 1900.42 236.786 1913.25 213.628C1916.21 208.285 1919.05 203.765 1921.84 199.828Z"
     id="path31" />
  <path
     fill="#FEFEFE"
     d="M1648.52 355.247C1648.34 319.354 1672.43 295.406 1706.46 287.895C1712.56 286.549 1718.83 285.833 1725 284.596C1718.2 311.481 1715.42 331.969 1689.05 348.472C1677.29 355.839 1663.86 357.566 1650.2 358.339L1649.79 358.39C1648.69 357.267 1648.95 357.032 1648.52 355.247Z"
     id="path32" />
  <path
     fill="#2F2E3C"
     d="M1648.52 355.247C1655.23 349.921 1661.78 342.096 1667.93 336.002C1683.42 320.644 1706.88 295.997 1725.25 285.366C1722.13 288.961 1718.92 292.143 1715.39 295.318C1692.8 315.586 1671.49 336.726 1650.2 358.339L1649.79 358.39C1648.69 357.267 1648.95 357.032 1648.52 355.247Z"
     id="path33" />
  <path
     fill="#FEFEFE"
     d="M959.122 559.362C956.765 543.897 954.012 528.919 958.485 513.491C965.54 489.16 985.228 475.953 1008.01 468.039C1017.33 516.948 1004.97 537.229 962.207 560.393C960.69 560.518 960.716 560.192 959.122 559.362Z"
     id="path34" />
  <path
     fill="#2F2E3C"
     d="M959.122 559.362L985.461 508.741C991.513 496.826 1000.23 477.749 1007.98 467.399C999.904 489.157 986.926 512.514 976.369 533.338C973.528 538.942 964.022 555.441 962.207 560.393C960.69 560.518 960.716 560.192 959.122 559.362Z"
     id="path35" />
  <path
     fill="#FEFEFE"
     d="M214.32 698.983L216.753 698.334L218.383 699.28L218.2 699.997C205.998 746.264 186.96 760.788 138.865 759.853C136.73 759.567 137.23 759.424 135.307 757.473C145.265 716.737 171.721 693.881 214.32 698.983Z"
     id="path36" />
  <path
     fill="#FEFEFE"
     d="M135.307 757.473C145.265 716.737 171.721 693.881 214.32 698.983C209.932 704.144 139.688 755.438 135.307 757.473Z"
     id="path37" />
  <path
     fill="#2F2E3C"
     d="M214.32 698.983L216.753 698.334L218.383 699.28L218.2 699.997C192.058 720.228 165.368 739.74 138.159 758.512L138.865 759.853C136.73 759.567 137.23 759.424 135.307 757.473C139.688 755.438 209.932 704.144 214.32 698.983Z"
     id="path38" />
  <path
     fill="#FEFEFE"
     d="M1866.05 693.907C1868.18 692.922 1870.34 692.011 1872.53 691.174C1908.06 677.965 1941.41 707.657 1952.97 739.489L1950.46 739.114L1949.13 740.695C1944.64 744.062 1933.03 744.07 1927.52 744.347C1907.79 745.337 1888.12 737.222 1876.55 720.783C1870.12 711.651 1868.47 704.442 1866.05 693.907Z"
     id="path39" />
  <path
     fill="#2F2E3C"
     d="M1949.13 740.695C1944.9 737.523 1936.23 733.433 1931.41 730.498C1912.76 719.134 1888.31 708.888 1870.35 697.252L1870.47 696.478C1882.36 699.155 1941.49 731.29 1950.46 739.114L1949.13 740.695Z"
     id="path40" />
  <path
     fill="#FEFEFE"
     d="M1117.81 444.949C1112.46 423.71 1108.02 405.911 1117.45 384.64C1123.43 371.161 1140.83 355.435 1154.25 350.52L1156.01 351.392L1156.96 351.843C1162.48 361.927 1166.02 382.907 1163.25 394.457C1157.11 420.013 1137.89 431.683 1117.81 444.949Z"
     id="path41" />
  <path
     fill="#2F2E3C"
     d="M1156.01 351.392L1156.96 351.843C1152.81 365.662 1144.94 383.441 1139.36 396.992C1133.37 411.551 1126.08 430.72 1118.22 444.003C1121.83 430.826 1148.99 361.359 1156.01 351.392Z"
     id="path42" />
  <path
     fill="#FEFEFE"
     d="M1033.68 274.731C1056.97 270.795 1081.5 270.113 1101.75 284.36C1112.47 291.753 1119.73 303.169 1121.89 316.006C1122.09 317.253 1122.03 318.47 1121.86 319.714L1119.58 320.144C1077.94 331.069 1047.53 317.05 1032.5 276.317L1033.68 274.731Z"
     id="path43" />
  <path
     fill="#FEFEFE"
     d="M1032.5 276.317C1058.16 289.236 1095.48 306.589 1119.58 320.144C1077.94 331.069 1047.53 317.05 1032.5 276.317Z"
     id="path44" />
  <path
     fill="#2F2E3C"
     d="M1032.5 276.317L1033.68 274.731C1045.46 280.005 1113.51 312.107 1121.86 319.714L1119.58 320.144C1095.48 306.589 1058.16 289.236 1032.5 276.317Z"
     id="path45" />
  <path
     fill="#FEFEFE"
     d="M956.695 105.658C993.793 115.432 1031.34 133.876 1024.48 180.181L1023.99 181.404C1005.25 187.032 975.36 168.533 967.414 151.337C959.77 134.795 958.577 123.376 956.695 105.658Z"
     id="path46" />
  <path
     fill="#2F2E3C"
     d="M956.178 105.322C963.713 111.629 977.956 127.477 984.965 135.124C997.29 148.573 1014.18 165.507 1024.48 180.181L1023.99 181.404C1006.89 164.517 967.799 123.792 956.178 105.322Z"
     id="path47" />
  <path
     fill="#FEFEFE"
     d="M1638.04 259.098L1636.39 259.152C1634.22 250.18 1641.98 227.613 1647.32 218.923C1663.97 191.846 1686.23 196.116 1707.84 186.605C1703.4 210.645 1700.28 235.136 1678.72 250.442C1671.23 255.762 1648.26 263.743 1639.56 260.687L1638.04 259.098Z"
     id="path48" />
  <path
     fill="#2F2E3C"
     d="M1638.04 259.098C1657.16 233.443 1676.92 211.356 1702.35 191.752C1701.07 197.137 1656.22 237.54 1651.22 247.067C1650.27 248.867 1641.57 257.818 1639.56 260.687L1638.04 259.098Z"
     id="path49" />
  <path
     fill="#FEFEFE"
     d="M1407.64 87.6625C1428.02 99.338 1445.69 112.763 1452.2 136.399C1455.34 147.788 1454.7 168.962 1448.38 178.988L1445.71 178.306C1405.31 158.729 1397.87 136.09 1401.58 92.5071L1404.16 91.7836L1404.36 89.1125L1406.2 89.2428L1407.64 87.6625Z"
     id="path50" />
  <path
     fill="#FEFEFE"
     d="M1404.16 91.7836C1412.34 104.374 1444.48 166.874 1445.71 178.306C1405.31 158.729 1397.87 136.09 1401.58 92.5071L1404.16 91.7836Z"
     id="path51" />
  <path
     fill="#2F2E3C"
     d="M1404.16 91.7836L1404.36 89.1125L1406.2 89.2428C1420.98 114.716 1440.37 150.421 1448.38 178.988L1445.71 178.306C1444.48 166.874 1412.34 104.374 1404.16 91.7836Z"
     id="path52" />
  <path
     fill="#FEFEFE"
     d="M1422.38 477.742C1443.78 475.417 1463.41 470.669 1483.55 481.835C1499.88 490.892 1506.7 504.602 1511.61 521.587L1510.88 524.408C1499.47 528.398 1480.92 529.242 1469.01 525.746C1444.65 518.598 1433.96 498.418 1422.38 477.742Z"
     id="path53" />
  <path
     fill="#2F2E3C"
     d="M1422.68 477.242C1441.3 482.628 1465.79 497.325 1482.81 506.658C1487.92 509.458 1506.66 520.752 1511.61 521.587L1510.88 524.408C1499.08 519.95 1475.64 506.369 1463.76 500.161C1452.91 494.485 1431.8 483.737 1422.68 477.242Z"
     id="path54" />
  <path
     fill="#FEFEFE"
     d="M1318.87 160.609L1318.66 157.387C1365.24 176.213 1382.8 186.146 1377.9 241.075L1377.03 242.568L1375.91 242.758C1331.07 232.141 1320.84 202.069 1318.87 160.609Z"
     id="path55" />
  <path
     fill="#FEFEFE"
     d="M1318.87 160.609C1325.6 168.125 1335.58 183.408 1341.55 192.152L1375.91 242.758C1331.07 232.141 1320.84 202.069 1318.87 160.609Z"
     id="path56" />
  <path
     fill="#2F2E3C"
     d="M1318.87 160.609L1318.66 157.387C1337.46 177.998 1361.65 216.47 1377.9 241.075L1377.03 242.568L1375.91 242.758L1341.55 192.152C1335.58 183.408 1325.6 168.125 1318.87 160.609Z"
     id="path57" />
  <path
     fill="#FEFEFE"
     d="M1478.69 216.863C1460.66 181.621 1476.14 147.234 1510.6 131.453C1514.24 129.786 1515.94 128.443 1518.85 125.718L1520.87 125.985C1529.85 170.406 1519.72 194.952 1481.29 217.622L1480.53 217.868L1478.69 216.863Z"
     id="path58" />
  <path
     fill="#2F2E3C"
     d="M1478.69 216.863C1485.09 190.274 1500.23 153.224 1517.52 131.459L1518.25 131.65C1517.49 135.661 1510.94 146.57 1508.1 151.088C1501.23 162.019 1481.55 207.691 1481.29 217.622L1480.53 217.868L1478.69 216.863Z"
     id="path59" />
  <path
     fill="#FEFEFE"
     d="M1434.84 615.288C1444.4 597.243 1448.86 579.158 1467.89 566.437C1483.2 556.194 1498.86 555.818 1516.18 559.024C1516.22 560.581 1516.27 561.894 1516.42 563.445C1509.49 610.26 1475.47 618.59 1434.84 615.288Z"
     id="path60" />
  <path
     fill="#2F2E3C"
     d="M1516.18 559.024C1516.22 560.581 1516.27 561.894 1516.42 563.445C1514.95 563.613 1448.09 609.603 1436.54 615.583C1445.17 606.844 1460.68 596.867 1471.22 589.67L1516.18 559.024Z"
     id="path61" />
  <path
     fill="#FEFEFE"
     d="M71.6791 658.637C89.238 637.418 110.865 625.068 139.585 634.042C148.093 636.7 155.115 640.834 163.131 644.58L163.808 647.513C161.944 651.248 159.046 654.027 156.407 657.136C139.642 676.895 113.178 683.898 89.0803 673.809C83.6318 671.528 76.3864 667.61 72.0532 663.507L73.311 662.282L72.0293 660.519L71.6791 658.637Z"
     id="path62" />
  <path
     fill="#FEFEFE"
     d="M163.808 647.513C161.944 651.248 159.046 654.027 156.407 657.136C139.642 676.895 113.178 683.898 89.0803 673.809C83.6318 671.528 76.3864 667.61 72.0532 663.507L73.311 662.282C102.727 658.343 135.038 650.56 163.808 647.513Z"
     id="path63" />
  <path
     fill="#2F2E3C"
     d="M163.131 644.58L163.808 647.513C135.038 650.56 102.727 658.343 73.311 662.282L72.0293 660.519C94.8085 654.473 138.529 648.937 163.131 644.58Z"
     id="path64" />
  <path
     fill="#FEFEFE"
     d="M1780.17 565.308C1784.66 565.001 1787.74 566.175 1791.92 567.238C1824.27 575.462 1838.08 597.478 1839.85 628.856C1840.07 633.124 1840.25 637.395 1840.37 641.667L1841.2 643.586L1837.95 643.679C1793.97 630.158 1777.56 616.501 1779.88 567.483L1780.17 565.308Z"
     id="path65" />
  <path
     fill="#FEFEFE"
     d="M1779.88 567.483C1795.81 590.179 1813.41 611.604 1830.32 633.562C1832.79 636.775 1835.9 640.272 1837.95 643.679C1793.97 630.158 1777.56 616.501 1779.88 567.483Z"
     id="path66" />
  <path
     fill="#2F2E3C"
     d="M1780.17 565.308C1794.22 577.552 1832.12 636.668 1840.37 641.667L1841.2 643.586L1837.95 643.679C1835.9 640.272 1832.79 636.775 1830.32 633.562C1813.41 611.604 1795.81 590.179 1779.88 567.483L1780.17 565.308Z"
     id="path67" />
  <path
     fill="#FEFEFE"
     d="M921.323 259.618C936.167 219.644 960.467 197.955 1005.09 209.515L1007.41 209.8L1007.5 210.881C997.568 253.165 960.673 265.994 921.323 259.618Z"
     id="path68" />
  <path
     fill="#2F2E3C"
     d="M1005.09 209.515L1007.41 209.8L1007.5 210.881C1005.98 211.049 935.384 254.311 922.009 259.912C931.524 251.335 950.826 241.394 962.07 234.78C976.345 226.383 990.789 217.893 1005.09 209.515Z"
     id="path69" />
  <path
     fill="#FEFEFE"
     d="M202.018 602.73C231.278 647.794 261.26 682.608 307.727 710.73C309.865 712.024 312.459 713.552 314.084 715.389L309.452 714.724C265.339 702.292 223.895 682.885 192.305 648.661C199.244 630.627 200.378 621.531 202.018 602.73Z"
     id="path70" />
  <path
     fill="#FEFEFE"
     d="M1063.7 104.506C1084.67 111.829 1102.78 118.733 1114.96 139.097C1122.7 152.017 1124.08 171.852 1120.32 186.28L1120.05 187.05L1118.34 188.843C1108.48 188.172 1091.42 177.817 1084.31 170.586C1065.37 151.328 1063.88 129.641 1063.7 104.506Z"
     id="path71" />
  <path
     fill="#2F2E3C"
     d="M1120.05 187.05C1111.7 179.41 1072.99 121.545 1067.41 110.048L1067.72 109.408C1076.63 119.656 1085.74 133.882 1093.49 145.294C1102.46 158.51 1112.3 172.543 1120.32 186.28L1120.05 187.05Z"
     id="path72" />
  <path
     fill="#FEFEFE"
     d="M1603.76 244.785L1603.35 245.321C1592.7 243.904 1582.87 243.071 1573.46 237.715C1542.63 220.164 1546.23 195.065 1538.57 169.135C1586.64 179.06 1601.77 193.375 1605.23 242.583L1603.76 244.785Z"
     id="path73" />
  <path
     fill="#2F2E3C"
     d="M1603.76 244.785C1593.6 232.069 1582.02 219.381 1571.48 206.923C1564.49 198.667 1547.43 183.127 1543 174.148C1553.84 178.049 1595.03 231.684 1605.23 242.583L1603.76 244.785Z"
     id="path74" />
  <path
     fill="#FEFEFE"
     d="M1767.43 362.236C1749.26 335.683 1753.25 299.218 1779.48 279.426C1786.41 274.199 1793.54 271.08 1799.98 264.822L1800.32 264.486C1802.35 283.055 1808.61 298.335 1804.58 317.877C1800.05 339.792 1790.15 350.109 1772.52 362.254L1771.4 361.723C1777.11 332.388 1792.84 294.507 1800.05 264.633C1788.05 283.529 1775.78 338.606 1767.43 362.236Z"
     id="path75" />
  <path
     fill="#FEFEFE"
     d="M1913.17 304.213C1929.47 302.47 1945.17 307.071 1958.37 316.46C1960.51 317.987 1976.64 328.111 1976.46 327.81C1956.22 337.695 1945.43 354.129 1917.5 351.712C1899.8 350.18 1887.01 340.908 1875.81 327.836L1875.92 326.582L1879.75 326.931C1893.49 327.679 1961.64 330.619 1971.01 327.39C1962.74 324.285 1888.35 324.012 1874.23 323.787C1886.75 313.265 1897.43 307.821 1913.17 304.213Z"
     id="path76" />
  <path
     fill="#FEFEFE"
     d="M985.577 320.392C988.28 320.031 995.414 320.022 998.46 319.931C992.437 358.968 972.608 387.215 929.451 385.165C926.178 385.01 923.753 385.036 921.517 382.613C924.051 381.18 924.619 382.162 927.247 380.439C947.758 366.987 966.398 349.871 984.672 333.68C989.602 328.949 992.659 325.369 997.055 320.126C988.699 325.469 971.494 340.969 963.074 348.139C949.373 359.728 935.404 370.997 921.178 381.937C927.881 341.054 945.047 324.839 985.577 320.392Z"
     id="path77" />
  <path
     fill="#FEFEFE"
     d="M1578.38 114.448C1600.95 122.181 1624.06 130.893 1635.38 153.827C1642.35 167.961 1639.59 174.561 1642.15 188.405L1640.26 189.779L1639.37 190.255C1633.51 191.529 1623.59 190.087 1617.93 188.322C1597.17 181.839 1585.65 161.061 1581.76 140.94C1580.01 131.902 1579.79 123.198 1578.38 114.448Z"
     id="path78" />
  <path
     fill="#2F2E3C"
     d="M1639.37 190.255C1628.29 177.991 1586.81 131.771 1581.37 120.552L1581.92 119.66C1587.49 123.462 1639.42 185.507 1640.26 189.779L1639.37 190.255Z"
     id="path79" />
  <path
     fill="#FEFEFE"
     d="M1318.9 419.579C1326.45 426.922 1331.5 450.847 1331 461.596C1329.77 488.015 1311.16 504.032 1293.16 520.467C1290.35 507.362 1282.91 495.203 1282.4 480.497C1281.69 460.514 1288.2 447.659 1301.01 433.285C1306.87 427.448 1310.38 424.31 1316.9 419.224C1312.28 442.415 1303.71 468.123 1299.07 491.647C1297.15 501.338 1294.29 510.252 1293.3 520.297C1302.15 498.582 1315.32 443.307 1318.9 419.579Z"
     id="path80" />
  <path
     fill="#FEFEFE"
     d="M1252.68 203.348C1260.19 202.76 1267.75 203.475 1275.02 205.46C1294.84 210.927 1303.85 221.19 1313.54 238.245C1282.03 230.885 1251.76 218.542 1218.16 211.926C1225.65 216.55 1246.79 222.089 1256.01 224.762C1274.83 230.786 1295.54 235.875 1314.71 240.586C1272.89 263.433 1241.7 248.474 1216.2 212.046C1229.48 209.589 1236.72 205.027 1252.68 203.348Z"
     id="path81" />
  <path
     fill="#FEFEFE"
     d="M1940.61 606.333C1951 605.349 1962.45 606.202 1972.51 608.991C1967.43 613.25 1966.36 621.013 1963.08 626.428C1944.15 657.7 1919.81 668.951 1884.5 659.393C1897.92 653.057 1930.97 632.32 1945.25 623.932C1954.71 618.27 1964.13 614.038 1973.78 607.759C1952 613.755 1903.7 644.613 1882.37 657.655C1893.87 628.397 1908.13 611.083 1940.61 606.333Z"
     id="path82" />
  <path
     fill="#FEFEFE"
     d="M1842.53 384.348C1864.68 381.811 1883.36 389.379 1896.2 407.723C1898.4 410.873 1909.87 422.905 1910.24 423.835L1908.67 425.123C1901.25 423.908 1893.98 428.278 1885.92 430.17C1869.87 433.938 1855.17 434.924 1840.23 426.315C1832.08 421.623 1819.13 406.178 1816.99 397.385L1817.8 396.236L1821.27 397.391C1838.52 403.776 1886.76 420.024 1902.82 421.099C1901.61 419.782 1825 396.036 1812.84 390.937C1823.25 387.823 1831.76 385.653 1842.53 384.348Z"
     id="path83" />
  <path
     fill="#FEFEFE"
     d="M1247.14 378.388C1249.25 378.383 1251.36 378.433 1253.47 378.537C1273.92 379.629 1286.77 391.507 1299.57 405.649C1283.12 402.424 1262.02 400.717 1245.11 398.033C1238.62 397.002 1212.83 393.233 1207.58 393.279C1215.23 398.272 1245.74 401.379 1255.83 402.733C1268.41 404.731 1285.76 406.431 1298.45 407.329C1256.92 436.346 1233.71 421.627 1200.08 393.116C1217.62 384.167 1227.65 379.908 1247.14 378.388Z"
     id="path84" />
  <path
     fill="#FEFEFE"
     d="M1858.79 477.669L1859.36 478.525L1856.95 481.087L1854.97 480.258C1847.89 483.065 1790.35 530.423 1779.54 538.831C1778.98 539.194 1779.15 539.014 1778.18 538.905C1777.62 534.137 1780.8 526.706 1782.32 522.137C1795.25 483.259 1823.59 480.273 1858.79 477.669Z"
     id="path85" />
  <path
     fill="#FEFEFE"
     d="M1289.85 288.95C1292.13 288.746 1294.39 288.799 1296.68 288.854C1328.36 289.619 1360.09 289.164 1391.77 288.905C1386.84 291.968 1383.49 294.567 1378.94 298.103C1346.57 323.339 1318.58 308.949 1289.85 288.95Z"
     id="path86" />
  <path
     fill="#FEFEFE"
     d="M1025.69 589.641C1053.67 599.271 1091.89 607.311 1121.2 610.326L1112.56 615.029C1110.47 615.94 1108.38 616.827 1106.28 617.69C1074.18 630.817 1039.88 624.539 1025.69 589.641Z"
     id="path87" />
  <path
     fill="#FEFEFE"
     d="M1336.25 264.183L1336.66 264.14C1361.7 261.799 1373.47 271.435 1391.21 286.011L1349.75 285.982L1294.74 286.514C1309.59 274.073 1317.05 268.146 1336.25 264.183Z"
     id="path88" />
  <path
     fill="#FEFEFE"
     d="M1063.83 576.371C1091.29 577.304 1104.41 589.541 1122.02 608.864C1112.8 606.498 1101.7 604.722 1092.23 602.976C1066.57 598.087 1052.05 594.031 1027.28 586.542C1041.21 580.558 1048.83 577.622 1063.83 576.371Z"
     id="path89" />
  <path
     fill="#FEFEFE"
     d="M1854.35 482.761C1857.43 490.714 1844.51 514.23 1838.96 520.245C1822.46 538.158 1803.8 541.423 1780.6 542.939L1780.47 541.881C1805.65 522.88 1830.29 503.166 1854.35 482.761Z"
     id="path90" />
  <path
     fill="#FEFEFE"
     d="M1601.42 191.589C1614.56 196.954 1619.45 198.182 1633.48 196.945C1627.36 208.778 1621.06 220.643 1615.5 232.741C1613.56 237.254 1611.92 241.705 1608.89 245.578L1607.89 245.42C1608.47 243.169 1609.72 241.805 1610.33 239.435C1614.92 221.602 1610.11 207.007 1601.42 191.589Z"
     id="path91" />
  <path
     fill="#FEFEFE"
     d="M690.344 184.573C696.65 182.895 703.153 186.506 705.063 192.746C706.972 198.986 703.602 205.618 697.437 207.756C693.242 209.21 688.587 208.256 685.302 205.269C682.018 202.282 680.627 197.738 681.678 193.424C682.729 189.11 686.053 185.715 690.344 184.573Z"
     id="path92" />
  <path
     fill="#FEFEFE"
     d="M830.658 463.594C834.397 462.013 838.701 462.604 841.876 465.134C845.05 467.665 846.586 471.729 845.879 475.726C845.172 479.724 842.334 483.014 838.484 484.301C832.841 486.188 826.715 483.279 824.611 477.712C822.507 472.146 825.177 465.912 830.658 463.594Z"
     id="path93" />
  <path
     fill="#A3A2A9"
     d="M71.6791 658.637L72.0293 660.519L73.311 662.282L72.0532 663.507C69.1828 662.959 66.2691 663.024 62.5291 662.245C65.9729 661.054 68.3603 660.134 71.6791 658.637Z"
     id="path94" />
  <path
     fill="#F4F3F6"
     d="M1401.58 92.5071C1401.79 90.0419 1402.04 88.4634 1402.51 86.0332L1403.95 85.4788L1407.64 87.6625L1406.2 89.2428L1404.36 89.1125L1404.16 91.7836L1401.58 92.5071Z"
     id="path95" />
  <path
     fill="#2F2E3C"
     d="M903.789 911.5L1520.02 911.475L1802.44 911.619C1843.41 911.663 1884.63 910.663 1925.57 911.46C1928.22 911.512 1930.47 911.51 1932.74 913.032C1933.46 915.125 1933.24 915.15 1932.42 917.085C1929.96 919.137 1926.15 918.908 1923.05 918.998C1897.1 919.753 1870.88 918.87 1844.9 918.891L1667.06 918.839L1151.5 918.829L356.696 918.801L204.154 918.834C188.184 918.847 129.936 921.147 118.84 917.319C117.026 916.693 116.706 916.565 115.816 914.772C116.04 914.525 116.255 914.269 116.49 914.032C118.309 912.196 120.638 911.713 123.114 911.608C149.942 910.474 177.326 911.685 204.22 911.705L370.369 911.788L903.789 911.5Z"
     id="path96" />
  <path
     fill="#2F2E3C"
     d="M259.965 932.223L1469.46 932.502L1705.25 932.424C1717.66 932.399 1781.04 930.527 1788.1 932.84C1789.97 935.216 1789.83 936.137 1789.99 939.053C1775.57 940.217 1760.47 939.415 1745.99 939.401L1663.44 939.3L1411.36 939.503L563.675 939.729L361.85 939.663C330.316 939.665 297.96 941.566 266.551 939.888C263.304 939.714 261.257 939.641 258.615 937.679C258.37 935.245 258.952 934.38 259.965 932.223Z"
     id="path97" />
  <path
     fill="#2F2E3C"
     d="M675.664 112.258C697.187 117.813 711.989 131.074 717.064 153.17C717.682 152.915 718.304 152.669 718.929 152.433C737.211 145.536 754.277 148.023 771.692 155.866C760.081 159.564 752.976 164.485 743.639 171.977C730.814 183.017 718.934 185.335 705.272 173.518C691.867 172.292 684.739 170.245 671.858 166.098C679.275 156.794 682.897 155.143 693.89 152.456C683.613 144.748 677.199 124.798 675.664 112.258Z"
     id="path98" />
  <path
     fill="#2F2E3C"
     d="M1790.65 748.022L1791.84 746.518C1804.45 757 1822.28 766.183 1835.8 775.977C1847.75 784.635 1861.88 790.869 1872.23 801.694C1861.63 797.267 1796.23 755.31 1790.65 748.022Z"
     id="path126" />
</svg>
