<?xml version="1.0" encoding="utf-8" ?><svg xmlns="http://www.w3.org/2000/svg" xmlns:xlink="http://www.w3.org/1999/xlink" width="2048" height="1024" viewBox="0 0 2048 1024"><path d="M1017.63 60.9178C1023.87 61.3288 1026.99 61.5509 1031.55 66.044C1063.04 97.0824 1068.52 130.774 1071.39 171.286C1082.67 162.263 1094.52 140.532 1109.54 137.823C1170.42 126.85 1112.36 205.005 1115 217.526L1115.8 218.07C1117.79 219.42 1120.93 216.691 1122.54 215.227C1151.33 189.041 1194.61 191.607 1223.02 216.566C1225.11 218.404 1225.24 221.172 1225.03 223.831C1220.65 231.821 1209.85 232.805 1203.02 236.712C1183.75 247.728 1167.79 271.536 1160.63 291.494C1162.62 293.128 1166.16 290.398 1169.35 288.778C1187.5 279.566 1199.92 274.935 1220.35 274.456C1248.35 273.67 1275.51 284.043 1295.86 303.29C1323.14 329.562 1337.83 389.144 1308.84 418.547C1300.73 426.699 1289.66 431.23 1278.16 431.114C1265.9 431.044 1252.22 426.228 1243.66 417.199C1236.17 409.197 1232.19 398.529 1232.61 387.572C1232.95 375.598 1237.3 370.562 1245.15 363.005C1242.01 361.605 1234.29 364.43 1230.91 365.759C1217.57 371.013 1203.65 381.342 1192.79 390.548C1177.69 403.336 1111.93 471.534 1105.61 486.791C1104.69 489.013 1103.98 490.768 1104.86 493.042C1108.42 494.465 1120.49 493.021 1125.12 492.856C1202.77 490.1 1267.11 441.205 1342.85 431.946C1393.07 425.806 1448.81 449.591 1474.14 494.686C1475.56 497.22 1479.68 501.508 1479.57 504.417C1479.21 514.165 1470.6 523.469 1464.98 530.949C1420.17 583.153 1365.93 592.536 1301.63 572.714C1278.38 565.548 1256.39 554.946 1233.11 547.97C1202.91 538.922 1172.4 533.429 1141.11 530.165C1132.73 529.291 1109.46 525.17 1102.79 525.755L1102.32 526.725C1114.34 539.142 1124.09 552.597 1134.71 566.623C1159.72 599.622 1188.67 631.382 1227.22 648.546C1231.29 650.36 1241.5 653.865 1245.39 652.681L1244.82 651.404C1232.41 646.587 1231.78 619.092 1237.11 608.074C1241.88 598.404 1250.27 590.999 1260.46 587.458C1272.75 583.325 1286.19 584.261 1297.79 590.058C1306.64 594.462 1317.12 605.966 1320 615.462C1335.4 666.188 1307.19 719.088 1257.34 735.357C1231.03 744.068 1202.42 742.776 1177 731.729C1170.81 729.027 1167.3 726.219 1161.44 723.259L1159.77 723.925L1159.1 726.025C1160.94 739.662 1190.36 771.567 1203.06 778.685C1210.79 783.017 1219.58 787.668 1226.74 793.18C1227.06 805.81 1196 815.759 1185.47 817.567C1153.49 823.052 1138.52 811.095 1114 793.646L1112.36 794.113C1112.1 794.693 1111.83 795.273 1111.56 795.853C1122.84 816.878 1142.21 844.968 1135.96 869.985C1132.01 885.817 1105.46 877.426 1095.93 870.099C1092.19 867.222 1071.41 846.385 1071.41 846.384L1070.71 847.599C1071.08 849.446 1071.61 852.665 1071.56 854.623C1071.09 890.328 1056.15 921.511 1032.55 947.879C1022.5 959.113 1014.32 953.037 1006.13 944.629C1002.28 938.588 995.089 931.214 991.719 925.435C979.151 903.882 969.453 871.961 972.237 847.237L970.798 846.637C959.442 852.19 945.612 880.678 924.578 879.074C888.391 876.314 915.223 828.789 923.169 811.678C925.778 806.058 934.624 797.428 929.956 792.814C926.772 793.295 920.371 799.782 916.825 802.545C902.024 814.215 883.774 821.261 864.438 818.796C854.157 817.485 813.801 808.839 815.889 792.503C817.599 787.94 832.781 780.082 837.533 778.265C848.091 774.228 887.843 731.881 882.818 723.601C881.394 723.469 864.902 732.825 861.533 734.312C847.616 740.421 832.458 743.177 817.281 742.359C773.623 740.021 733.515 711.291 720.624 669.282C713.155 644.941 714.92 611.772 735.649 594.228C744.94 586.454 756.987 582.781 769.035 584.05C796.717 586.837 818.344 611.833 805.734 640.166C802.728 646.92 798.747 648.629 793.057 652.999L793.521 653.979C800.052 654.645 808.44 650.134 814.458 647.352C855.343 628.453 885.909 593.323 912.352 557.868C920.336 547.162 928.811 539.511 938.357 530.345L938.116 528.704C934.319 526.661 917.143 529.126 911.664 529.487C876.903 531.777 841.829 539.149 808.511 549.25C753.842 565.823 705.808 595.424 646.539 578.25C606.181 566.556 580.885 542.74 560.701 506.914C574.561 478.906 594.68 458.5 623.196 444.802C693.722 410.924 762.881 450.033 828.881 473.239C851.287 481.291 874.427 487.13 897.971 490.674C904.57 491.673 934.228 496.085 937.424 492.128C936.303 487.376 934.027 477.606 930.605 474.367C889.192 435.17 853.149 371.906 793.418 361.993C820.09 386.108 810.163 419.665 777.993 430.052C767.329 433.422 755.759 432.378 745.871 427.152C734.013 420.939 724.335 408.07 720.825 395.16C719.164 386.526 717.369 364.782 720.19 356.487C722.006 351.147 726.309 332.44 728.219 328.677C756.238 273.488 825.612 259.987 876.859 290.782C878.932 292.029 880.246 292.541 882.453 291.771C884.612 284.721 876.498 276.708 872.484 271.025C860.884 254.6 846.397 238.759 827.089 231.663C823.641 230.396 818.562 225.71 817.484 222.03C816.882 220.022 817.11 217.857 818.117 216.019C819.643 213.249 846.599 199.717 851.979 198.507C871.543 194.108 894.364 198.827 911.751 208.701C918.338 212.442 923.382 217.419 930.659 221.444L931.813 221.06C932.865 210.053 886.521 160.439 914.405 136.353C937.437 136.466 945.74 141.739 961.193 159.142C964.58 162.957 967.496 168.264 971.451 171.441L972.798 171.02C974.174 167.013 972.759 156.302 973.049 151.032C974.672 121.509 991.794 77.378 1017.63 60.9178Z"/><path fill="#F7F7F7" d="M1018.19 317.813C1027.99 321.509 1048.18 344.108 1055.61 353.161C1074.82 377.278 1093.75 413.711 1096.28 444.886C1099.82 488.493 1072.98 535.994 1026.25 539.223C1009.64 539.536 989.116 536.48 976.465 524.798C921.257 473.816 949.803 397.308 990.493 347.511C999.3 336.733 1009.56 328.104 1018.19 317.813Z"/><path d="M1019.73 331.483C1021.54 331.964 1022.83 332.506 1024.23 333.837C1054.08 362.863 1081.31 400.22 1085.81 442.53C1090.35 485.114 1067.3 525.14 1021.54 528.432C1017.59 528.335 1013.03 527.619 1009.14 526.684C989.52 521.974 976.151 510.487 965.789 493.576C953.598 474.122 954.001 450.268 959.571 428.689C968.19 395.296 987.098 365.208 1010.34 340.022C1013.43 336.673 1015.72 333.845 1019.73 331.483Z"/><path fill="#F7F7F7" d="M1021.12 341.728C1048.4 367.405 1075.87 412.389 1079.21 450.218C1082.03 482.177 1056.82 517.576 1023.25 519.045C1020.49 519.057 1017.73 518.941 1014.98 518.698C979.328 515.448 959.483 478.073 963.548 445.765C967.796 411.996 995.017 363.439 1021.12 341.728Z"/><path d="M1060.25 443.734L1062.03 444.965C1064.42 449.318 1064.13 472.746 1062.43 478.395C1050.91 516.56 1000.33 519.882 981.808 485.511C979.1 480.483 974.065 462.212 975.804 456.837C978.467 451.731 975.641 450.477 979.318 445.549C983.943 448.218 981.714 472.74 985.31 479.112C994.263 494.975 1012.8 506.346 1031.45 500.962C1038.25 499.014 1044.29 495.05 1048.77 489.595C1064.5 470.779 1053.84 453.715 1060.25 443.734Z"/><path d="M1020.05 360.763C1031.39 361.659 1058.62 405.715 1058.31 417.978L1055.81 419.809C1051.94 418.962 1049.64 409.207 1047.36 405.264C1040.81 393.961 1033.53 381.911 1024.18 372.707L1021.01 371.229C1011.59 374.387 991.512 413.353 986.327 416.716L984.72 415.705C981.759 405.664 1012.09 367.91 1020.05 360.763Z"/><path fill="#F7F7F7" d="M679.634 461.503C680.657 461.228 681.526 461.055 682.594 461.061C727.672 461.311 780.106 487.862 824.705 495.734C831.312 496.901 865.084 499.928 867.696 502.538C863.793 504.818 768.028 506.861 758.394 506.92C745.361 506.999 717.866 504.432 706.483 508.582L707.388 510.019C712.334 511.567 717.462 512.457 722.64 512.668C762.817 514.519 803.357 511.553 843.497 510.205C862.607 509.564 886.53 510.968 904.822 507.319C913.999 510.209 937.047 502.838 945.278 508.617C946.558 509.515 946.355 510.213 946.567 511.667L945.38 512.551C927.248 515.278 907.75 512.839 889.361 513.532C861.294 514.589 832.944 518.632 805.216 522.912C785.2 526.002 765.109 530.859 745.681 536.56C729.415 541.333 712.897 547.877 695.985 549.629C680.194 551.265 663.451 550.355 648.2 545.771C628.061 539.717 604.361 525.032 594.223 506.042C595.612 503.652 597.176 501.369 598.903 499.211C618.372 475.192 649.865 464.355 679.634 461.503Z"/><path d="M679.958 483.186C696.444 482.932 714.342 486.749 730.815 488.496C744.217 489.917 757.663 491.575 771.061 492.857C782.171 493.92 794.78 494.161 805.508 497.136L806.062 498.447L803.641 499.054C802.245 499.258 800.828 499.409 799.44 499.65C791.808 500.975 688.556 491.272 680.958 487.996C679.641 485.833 679.634 485.7 679.958 483.186Z"/><path d="M765.249 516.498C769.265 516.583 776.286 515.042 779.592 516.811L778.972 518.726C771.241 522.517 730.307 527.14 719.226 528.406C716.957 528.86 714.664 529.341 712.365 529.612C709.768 529.918 708.225 529.132 706.199 527.574L705.982 525.761C710.301 522.651 755.504 517.956 765.249 516.498Z"/><path fill="#F7F7F7" d="M1352.62 461.503C1361.97 460.717 1371.17 461.415 1380.36 463.308C1401.04 467.572 1427.16 477.403 1439.21 496.129C1441.65 499.926 1442.71 503.974 1441.7 508.437C1439.31 518.994 1428.52 527.166 1419.83 532.718C1402.28 544.034 1381.74 549.855 1360.85 549.435C1338.64 549.137 1318.9 541.576 1297.91 535.488C1284.26 531.388 1270.33 528.275 1256.23 526.175C1219.85 520.792 1183.29 516.687 1146.62 513.868C1132.74 512.73 1114.81 514.196 1101.6 511.23C1100.11 510.895 1099.76 510.966 1098.92 509.63L1099.69 507.626C1112.9 506.732 1125.23 508.652 1138.32 509.037C1180.95 510.293 1224.18 511.81 1266.49 517.505C1281.86 519.574 1297.11 522.187 1312.49 524.169C1317.49 524.813 1322.32 526.853 1327.41 527.079C1330.18 527.202 1331.3 526.669 1333.29 524.861L1333.37 522.603C1329.5 519.669 1322.54 519.356 1317.83 518.322C1308.88 518.969 1284.09 512.69 1273.29 511.24C1260.25 509.489 1246.72 509.252 1233.57 508.646L1232.96 507.38L1232.56 508.457L1231.87 508.105C1247.96 502.559 1292.66 507.24 1311.61 508.75C1318.83 509.325 1326.92 510.775 1334.1 510.033L1334.92 508.518C1327.98 505.878 1317.55 506.131 1310.1 505.507C1291.73 503.972 1273.28 502.642 1254.83 503.138C1224.95 503.942 1193.01 508.535 1163.45 502.805C1176.77 502.082 1190.3 501.679 1203.54 500.001C1209.53 499.241 1215.37 496.804 1221.35 496.422C1233.94 495.621 1246.88 496.675 1259.54 496.332C1278.25 495.826 1296.73 493.981 1315.37 492.648C1323.76 492.049 1335.35 492.586 1343.04 489.387L1343.56 486.989C1343.27 486.657 1342.39 485.412 1342.06 485.277C1333.71 481.85 1256.91 493.109 1240.11 491.546L1240.31 490.515C1247.66 486.825 1255.74 484.999 1263.48 482.305C1293.52 471.845 1320.77 464.783 1352.62 461.503Z"/><path fill="#F7F7F7" d="M991.034 549.191C994.009 550.412 996.65 550.814 999.395 552.699C995.955 558.544 991.815 564.616 989.136 570.84C981.152 589.387 978.913 613.423 979.745 633.418C980.389 648.871 985.002 661.694 991.959 675.329C993.521 678.391 995.345 682.909 998.099 685.06C999.884 686.454 1000.74 686.224 1002.76 685.815C1003.65 684.015 1003.79 683.737 1003.26 681.676C1002.27 677.758 998.866 673.1 997.044 669.343C993.773 662.633 991.041 655.674 988.875 648.531C987.005 642.342 985.212 635.384 985.039 628.894C984.516 609.32 992.24 578.909 1001.72 561.688C1003.74 558.024 1005.81 554.621 1010.05 553.431C1011.64 554.232 1012.2 554.269 1013 555.89C1013.22 556.321 1013.61 556.703 1013.65 557.182C1013.91 560.365 1008.86 570.022 1007.67 573.393C1005.35 579.988 1003.69 586.879 1002.46 593.757C999.829 608.466 999.138 639.1 1004.53 652.84C1006.54 654.199 1006.54 654.171 1008.94 653.79C1010.85 651.613 1010.92 651.432 1011.1 648.535C1010.99 648.334 1010.88 648.135 1010.77 647.932C1000.94 629.374 1010.06 588.375 1015.88 569.556C1016.93 566.172 1018.06 561.628 1021.42 559.857L1023.07 560.39C1035.49 584.674 1039.68 607.766 1036.54 635.048C1035.95 640.245 1032.88 648.465 1034.51 653.224L1035.92 653.706L1038.13 652.614C1047.05 641.932 1044.64 598.368 1041.3 584.887C1039.47 577.506 1029.25 560.264 1030.5 554.65C1032.34 554.181 1034 553.786 1035.9 553.743C1040.54 557.552 1043.94 565.308 1046.73 570.626C1048.5 574.943 1050 579.366 1051.22 583.868C1058.39 609.466 1058.86 639.811 1047.79 664.413C1045.79 668.862 1042.52 672.63 1040.24 676.928C1038.9 679.45 1038.3 681.73 1039.1 684.555L1040.97 685.519C1043.57 684.997 1045.17 683.703 1046.86 681.757C1051 677.005 1052.6 670.502 1054.72 664.695C1057.51 657.078 1060.6 649.087 1062.04 641.08C1065.74 620.488 1063.13 593.802 1055.81 574.185C1053.84 568.9 1043.87 553.477 1043.68 551.215C1045.87 549.715 1047.43 550.049 1050.01 549.969C1051.25 550.52 1052.11 551.078 1053.02 552.09C1068.15 568.988 1076.08 606.529 1074.83 628.654C1072.89 662.859 1060.24 686.528 1041.53 714.38C1035.24 723.734 1029.21 733.425 1020.73 740.99C992.57 709.113 968.023 672.834 966.351 629.031C965.415 604.508 973.92 567.596 991.034 549.191Z"/><path d="M1020.27 705.195C1025.63 700.149 1030.33 694.457 1035.62 689.314L1036.15 689.982L1034.06 694.504C1031.12 700.231 1027.12 709.813 1021.27 712.803C1019.47 713.724 1018.81 713.194 1017.05 712.556C1011.04 706.369 1007.17 695.698 1003.82 687.789C1009.59 691.981 1015.05 699.936 1020.27 705.195Z"/><path fill="#F7F7F7" d="M673.658 440.391C684.158 439.09 694.543 440.919 704.89 442.343C772.36 451.627 825.688 490.763 894.603 496.251C879.232 498.17 875.638 496.495 860.322 494.719C840.06 492.362 820.021 488.377 800.399 482.802C752.76 469.135 698.809 444.254 649.023 459.644C626.906 466.481 599.85 480.261 587.734 501.468C586.652 503.195 585.766 506.085 586.93 508.016C615.69 555.725 678.716 566.875 728.33 548.806C781.385 532.375 851.822 517.854 907.784 519.641C914.915 519.869 916.721 517.872 923.71 520.417C919.673 522.572 862.44 526.403 847.769 530.496C829.052 535.717 807.358 539.82 786.794 547.008C750.007 559.867 711.212 578.35 671.735 574.3C640.186 571.064 611.155 556.287 589.163 533.339C582.777 526.675 575.985 516.221 569.699 508.47C593.109 464.757 625.948 447.632 673.658 440.391Z"/><path fill="#F7F7F7" d="M1342.25 440.519C1344.9 441.303 1360.29 439.059 1364.44 439.476C1383.4 441.687 1396.89 444.222 1415.14 452.319C1435.9 461.528 1456.64 482.14 1469.23 501.145C1470.85 503.585 1468.42 510.38 1466.81 512.804C1437.58 556.618 1390.22 582.041 1337.19 571.861C1288.75 563.17 1248.54 539.422 1199.15 531.435C1190.98 530.115 1117.69 519.452 1116.67 518.879L1117.42 518.301C1121.92 518.069 1130.34 519.182 1135.68 519.536C1182.54 522.637 1247.33 527.711 1291.77 540.938C1294.71 541.47 1302.87 544.219 1305.7 545.291C1346.05 560.598 1392.44 561.334 1428.36 534.664C1434.23 530.791 1452.37 513.885 1452.02 506.976C1451.04 487.462 1417.76 468.369 1404.58 463.227C1355.95 444.251 1311.77 459.748 1264.92 474.455C1256.9 476.972 1250.63 481.17 1242.72 483.601C1220.06 489.994 1198.85 495.154 1175.3 497.28C1171.68 497.606 1168.6 496.899 1165.86 497.15C1160.77 497.615 1157.38 499.309 1151.94 499.02C1153.96 497.328 1187.39 491.035 1193.47 489.114C1243.12 473.426 1290.06 447.329 1342.25 440.519Z"/><path fill="#F7F7F7" d="M964.5 531.712L967.977 534.238C968.057 534.863 968.32 535.492 968.217 536.114C967.827 538.46 962.654 544.923 961.266 547.361C956.214 556.055 952.089 565.256 948.959 574.812C942.408 594.91 939.8 616.083 941.276 637.17C943.929 679.094 971.374 716.939 995.851 749.412C1001.86 757.39 1008.29 767.861 1015.94 774.309C1018.16 776.181 1019.05 776.538 1021.9 776.288C1032.56 770.453 1059.67 731.986 1067.64 719.652C1097.92 672.789 1110.57 620.382 1089.12 567.038C1086.43 560.327 1083.27 553.679 1079.33 547.598C1077.24 544.368 1072.12 539.879 1071.43 536.649C1073.66 534.996 1074.1 534.778 1076.85 534.534C1083.67 537.055 1088.1 546.533 1091.88 552.435C1103.01 568.906 1108.59 599.794 1109.12 619.37C1109.53 634.868 1108.72 650.363 1104.78 665.406C1092.81 711.126 1053.48 764.84 1021.21 798.816C1013.73 791.508 1007.04 782.527 1000.43 774.415C968.933 735.791 935.527 687.356 931.836 636.372C929.313 601.531 941.534 558.417 964.5 531.712Z"/><path fill="#F7F7F7" d="M1118.48 609.779C1126.41 617.048 1133.56 625.193 1141.36 632.627C1163.31 653.569 1186.61 667.124 1215.1 676.934C1219.9 678.585 1224.88 680.363 1229.9 681.182C1235.82 682.148 1243.34 681.579 1248.78 684.159L1248.38 685.483C1245.12 687.264 1240.89 687.004 1237.27 686.879C1198.1 685.529 1160.02 667.104 1132.2 639.952C1130.28 638.079 1129.22 637.588 1126.59 637.531C1124.66 638.859 1124 640.746 1123.45 642.923C1121.88 649.152 1121.85 656.032 1120.78 662.4C1118.78 674.183 1113.8 686.206 1108.94 697.054C1089.51 740.393 1052.19 789.025 1020.76 824.328C989.058 786.227 956.078 745.389 934.414 700.555C929.061 689.259 924.803 677.477 921.697 665.369C920.289 660.052 918.206 639.427 915.731 636.522C912.585 636.3 911.435 637.842 908.905 639.626C898.109 652.559 884.568 661.492 869.602 668.923C854.252 676.546 834.748 684.59 817.508 685.964C812.844 686.335 807.841 685.619 803.16 685.393C799.512 685.216 796.746 686.18 793.145 684.966C795.024 683.002 825.672 678.644 832.468 675.405C840.872 671.399 850.049 668.064 858.167 663.597C882.361 650.285 902.553 630.717 920.803 610.328C921.406 624.467 921.845 637.926 924.572 651.889C927.365 666.188 931.255 679.746 937.288 693.034C949.328 719.554 999.115 797.258 1021.53 812.395C1030.56 804.076 1038.47 794.292 1046.24 784.814C1076.18 748.314 1108.67 699.828 1117.32 653.064C1119.85 639.394 1119.84 623.544 1118.48 609.779Z"/><path fill="#F7F7F7" d="M975.211 540.881C978.125 541.645 979.828 542.892 982.142 544.732C983.151 548.189 972.286 564.613 970.313 569.145C963.819 584.067 959.247 601.378 958.564 617.681C956.247 673.017 986.528 715.3 1022.32 754.214C1034.08 736.644 1047.97 720.987 1059.05 702.724C1083.38 662.591 1090.11 617.643 1073.1 573.113C1069.83 564.576 1059.34 550.168 1058.1 545.099L1059.29 543.597C1060.64 543.463 1062.01 543.377 1063.35 543.671C1069.13 544.942 1071.52 549.161 1074.58 553.778C1084.23 572.724 1090.66 592.625 1091.88 613.957C1095.35 674.891 1059.18 722.891 1020.8 766.099C1013.97 759.812 1008.33 751.893 1002.63 744.585C979.692 715.128 954.315 679.335 949.377 641.567C945.082 608.719 954.832 567.246 975.211 540.881Z"/><path fill="#F7F7F7" d="M1019.79 219.668C1023.93 222.65 1031.53 232.585 1035.09 237.094C1056.52 264.245 1076.7 290.146 1092.86 321.137C1103.75 342.012 1115.47 375.341 1110.43 400.148C1109.97 402.422 1109 402.891 1107.38 403.629C1107.03 403.279 1106.56 403.022 1106.34 402.581C1105.5 400.854 1106.01 395.382 1105.66 393.194C1104.29 384.499 1102.31 375.574 1100.11 367.054C1098.3 360.049 1095.3 353.447 1092.51 346.791C1087.56 334.986 1082.04 322.584 1075.53 311.579C1069.34 301.108 1027.53 243.15 1019.17 239.993C1018.98 239.922 1018.79 239.867 1018.6 239.804C1017.06 241.603 1014.97 244.843 1013.4 246.911C985.484 283.639 954.812 320.327 942.152 365.657C938.376 379.175 937.007 395.237 935.55 409.022L934.04 409.708C931.329 407.373 930.48 404.306 930.182 400.675C924.813 335.222 983.011 266.846 1019.79 219.668Z"/><path fill="#F7F7F7" d="M1089.56 528.456C1093.12 527.724 1099.26 536.004 1101.62 538.709C1113.09 551.824 1122.04 565.866 1132.53 579.637C1157.06 611.843 1190.41 645.217 1229.18 658.984C1247.1 665.344 1269.14 667.202 1286.74 659.306C1289.03 658.277 1292.24 657.637 1294.62 658.585L1294.49 660.581C1292.44 662.833 1290.28 664.839 1287.99 666.849C1287.94 666.912 1287.9 666.989 1287.83 667.037C1273.76 677.165 1246.85 675.903 1230.85 672.205C1188.58 662.437 1144.91 632.176 1121.51 595.422C1114.74 584.77 1113.46 570.317 1107.98 558.702C1103.4 549.003 1092.97 536.865 1089.56 528.456Z"/><path fill="#F7F7F7" d="M793.5 340.251C848.514 347.688 878.373 369.803 913.773 412.051C935.431 437.9 930.699 421.247 930.281 457.734C921.869 450.328 911.293 437.88 903.286 429.157C870.943 390.292 821.839 342.856 766.682 353.344C760.221 354.573 752.427 357.899 745.653 359.668C746 358.258 749.811 355.529 751.277 353.874C760.173 343.828 781.681 341.533 793.5 340.251Z"/><path fill="#F7F7F7" d="M943.633 536.569L944.948 538.089C942.681 546.527 936.355 554.568 932.799 562.627C929.489 570.132 927.877 578.212 924.245 585.68C908.376 618.302 861.205 654.952 827.112 666.636C810.616 672.29 788.684 677.414 771.331 672.885C765.43 671.344 759.527 667.911 754.055 665.233C752.096 663.65 750.682 662.503 749.672 660.1L751.284 659.573C760.746 662.769 773.186 664.247 783.19 664.094C827.901 663.409 869.737 624.888 897.074 592.925C905.203 583.42 912.061 573.035 919.786 563.222C927.154 553.862 935.407 545.172 943.633 536.569Z"/><path fill="#F7F7F7" d="M1251.13 340.588C1260.74 341.1 1292.18 345.937 1293.73 357.562C1290.8 358.158 1282.07 354.179 1278.56 353.386C1221.82 340.591 1171.62 392.006 1138.5 430.616C1130.65 440.165 1118.76 451.621 1109.99 461.655C1110.06 458.808 1109.45 439.819 1110 438.908C1138.77 390.792 1196.31 342.511 1251.13 340.588Z"/><path fill="#F7F7F7" d="M1018.24 192.459C1045.84 216.26 1079.68 274.26 1101.67 304.2C1110.81 316.649 1133.06 369.408 1120.74 383.386L1119.79 381.92C1119.86 381.496 1119.92 381.071 1119.96 380.645C1120.26 377.944 1118.68 368.588 1118.19 365.513C1109.14 308.031 1059.14 252.498 1023.91 208.596C1017.73 206.704 1014.15 212.327 1010.49 216.811C977.109 257.633 942.889 301.027 926.628 351.963C923.882 360.565 922.503 371.336 920.633 380.381L919.734 380.646C912.973 370.238 919.49 349.261 924.146 338.761C926.204 334.656 926.89 328.733 928.976 324.765C950.264 284.276 977.477 248.239 1004.81 211.747C1009.07 206.065 1014.35 199.48 1017.75 193.357L1018.24 192.459Z"/><path fill="#F7F7F7" d="M1018.78 253.486C1024.58 256.244 1032.96 268.025 1037.15 273.386C1059.84 302.402 1082.44 332.054 1091.59 368.466C1092.39 371.659 1093.02 374.487 1091.22 377.467C1088.63 375.941 1088.89 373.483 1087.23 371.407C1079.5 362.544 1078.8 351.163 1074.26 341.256C1062.13 314.83 1041.22 286.408 1020.94 265.85C1001.66 285.927 979.394 315.577 967.202 340.73C964.863 345.556 964.26 350.539 962.431 355.432C959.253 363.937 955.373 372.276 951.39 380.432L950.499 379.58C949.999 372.019 952.994 364.147 954.833 356.924C965.537 314.897 995.835 287.654 1018.78 253.486Z"/><path fill="#F7F7F7" d="M1019.62 278.926C1028.7 279.324 1059.27 328.777 1064.18 338.303C1047.32 323.185 1040.24 312.75 1020.23 299.948C1009.44 305.573 986.952 329.531 977.069 338.935C987.007 316.826 1004.04 297.387 1019.62 278.926Z"/><path fill="#F7F7F7" d="M1219.46 331.438C1226.82 330.523 1233.03 330.395 1240.16 332.386L1239.13 333.409C1205.46 332.892 1171.22 358.946 1146.97 379.639C1142.77 383.112 1137.55 388.817 1133.62 392.878L1134.72 378.721C1154.29 351.799 1186.11 333.589 1219.46 331.438Z"/><path fill="#F7F7F7" d="M811.659 329.552C832.946 324.722 894.76 353.029 906.989 374.637C906.032 372.946 911.291 391.122 911.222 390.856L910.406 391.376L908.284 389.376C897.06 373.736 850.982 343.86 831.145 337.637C824.522 335.559 811.259 333.996 803.496 331.038C805.147 329.552 808.952 329.77 811.659 329.552Z"/><path d="M1567.62 279.342C1578.36 280.966 1581.22 298.849 1584.68 307.578C1608.19 366.89 1615.53 431.217 1619.33 494.411C1619.49 496.958 1650.05 505.007 1619.98 518.891C1620.67 589.018 1605.33 653.281 1582.3 718.58C1580.23 724.439 1580.68 727.989 1574.85 731.053C1570.8 730.88 1572.32 731.37 1568.97 729.337C1566.93 725.524 1566.97 722.839 1568.74 718.802C1595.91 656.775 1609.52 590.609 1609.1 522.093C1588.09 532.062 1575.85 553.011 1556.06 565.179C1543.28 573.038 1534.73 574.668 1520.07 576.595C1526.53 584.166 1538.45 590.821 1540.52 596.427C1539.03 608.718 1507.67 618.446 1496.61 620.022C1492.09 620.665 1481.06 617.495 1477.41 620.562C1478.2 630.994 1497.34 632.808 1493.82 643.993C1489.99 648.273 1477.86 652.665 1471.98 654.344C1453.1 659.741 1432.47 657.484 1414.49 649.928C1412.73 649.189 1406.21 644.787 1403.44 643.238L1401.9 643.846C1400.77 652.003 1410.9 663.183 1404.77 671.154C1401.47 672.714 1398.43 671.826 1394.93 671.319C1370.28 667.745 1348.62 648.505 1336.75 626.972C1333.62 619.235 1326.24 604.692 1332.12 597.027C1338.32 592.987 1362.06 596.286 1372.78 594.681C1436.32 585.176 1462.51 553.64 1498.75 507.041C1472.05 460.162 1416.93 418.373 1361.21 417.026C1353.2 416.832 1344.69 418.813 1336.65 419.204C1333.61 419.352 1333.06 418.236 1331.18 416.286C1329.01 410.388 1333.19 391.58 1336.07 385.926C1344.79 368.749 1363.11 351.32 1381.75 345.555C1387.61 343.742 1395.96 340.329 1401.67 343.003C1405.9 348.223 1400.8 361.493 1402.75 367.223C1408.6 366.665 1413.41 363.206 1419.06 361.457C1437.46 355.763 1459.02 355.025 1477.38 361.256C1481.72 362.73 1487.77 364.842 1491.09 367.583C1495.66 378.444 1476.65 382.255 1475.66 392.397C1479.53 396.926 1489.48 392.431 1494.98 393.18C1505.59 394.623 1538.24 402.74 1542.49 413.827C1541.81 418.395 1533.15 423.304 1529.1 426.926C1524.02 431.481 1521.53 434.443 1517.32 439.919C1523.99 440.607 1539.98 442.141 1545.85 444.689C1565.97 453.436 1581.63 475.054 1599.18 488.075C1601.69 489.934 1605.16 492.323 1608.25 491.832C1609.59 489.295 1608.12 477.883 1607.89 473.776C1605.22 425.363 1598.01 375.5 1582.58 329.368C1578.78 317.986 1567.8 296.16 1566.01 283.461C1566.66 281.804 1567.19 280.431 1567.62 279.342Z"/><path d="M468.924 276.482C471.382 277.871 476.801 280.738 475.458 284.464C465.503 312.095 454.175 339.018 447.952 367.84C445.745 378.065 441.399 388.464 439.795 398.919C434.857 429.681 433.67 461.262 432.327 492.371C461.102 479.631 477.555 446.041 509.375 438.89C513.077 438.058 517.947 439.21 520.791 437.564C525.941 427.789 504.084 424.841 501.386 413.471C501.898 411.449 501.904 410.134 503.598 408.705C514.493 399.511 530.803 394.161 544.95 393.819C551.54 393.659 557.473 394.806 563.651 394.699L564.978 392.406C565.189 384.18 549.996 376.689 550.578 368.857C552.493 365.756 559.572 363.824 563.01 362.348C582.848 353.858 603.881 354.5 624.19 360.962C629.526 362.66 635.354 369.483 640.052 366.443C641.346 360.93 635.847 352.671 636.229 347.446C636.782 339.899 649.222 341.554 653.521 342.472C673.265 346.686 688.276 357.87 698.757 375.041C704.805 384.949 713.269 400.751 711.657 412.715C711.45 414.333 708.641 418.446 707.216 418.694C697.724 420.094 687.789 419.092 678.144 419.411C651.884 420.28 628.847 428.166 606.401 441.773C585.525 454.427 567.786 472.064 553.574 491.898C550.705 495.902 543.721 501.56 542.568 506.252C546.095 513.19 573.189 544.529 579.977 551.048C604.867 574.951 637.176 592.432 671.941 595.433C683.028 596.391 696.2 595.638 707.543 595.277C717.775 602.868 709.262 621.873 704.363 630.652C704.337 630.943 704.327 631.442 704.119 631.8C694.291 648.707 675.854 663.936 657.22 669.939C652.688 671.399 644.429 672.784 640.703 670.229C630.965 663.553 643.752 648.459 642.039 641.737C639.504 641.85 635.497 645.435 631.771 646.957C607.566 656.843 573.513 662.271 551.689 644.576C542.799 637.368 563.27 628.139 564.346 620.374C561.392 617.407 541.066 619.482 533.394 617.205C472.493 599.131 519.248 587.309 521.59 577.826C519.72 573.757 503.938 573.081 497.952 570.764C476.556 562.482 463.546 540.059 445.629 526.541C442.375 524.086 437.968 520.235 433.755 520.729C431.778 524.017 433.696 540.57 434.057 545.466C437.531 592.452 444.335 635.253 458.36 680.41C462.634 694.172 473.072 714.031 475.491 727.931C475.753 729.436 473.635 730.535 472.378 731.428C465.201 731.343 461.077 714.266 458.752 708.142C440.248 659.405 430.551 607.687 426.023 555.877C424.931 543.39 422.767 529.728 423.062 517.264C405.316 507.255 408.375 502.969 420.049 495.577C424.394 492.827 422.843 465.898 423.405 457.767C427.008 405.586 438.632 354.553 455.889 305.198C458.402 297.982 463.745 281.282 468.924 276.482Z"/><path d="M1628.79 171.973C1641.1 176.423 1675.96 257.402 1681.44 271.418C1708.7 341.025 1721.68 414.427 1721.39 488.999C1721.13 555.126 1717.06 620.694 1700.44 685.184C1692.59 715.621 1680.42 747.955 1669.78 777.567C1667.52 782.203 1665.32 795.029 1662.67 798.866C1654.44 810.778 1649.85 844.603 1634.72 844.73C1634.3 844.793 1633.61 844.938 1633.27 844.755C1618.83 836.708 1640.06 815.387 1643.85 806.127C1650 791.122 1656.45 776.635 1663.12 761.907C1666.63 754.148 1668.06 743.237 1671.24 735.16C1698.07 667.195 1708.64 594.113 1712.12 521.48C1712.74 508.588 1710.36 494.958 1710.29 482.013C1710.2 467.61 1710.89 453.246 1710.02 438.862C1705.8 379.981 1686.79 301.815 1660.8 249.068C1653.12 233.391 1645.07 217.892 1636.68 202.582C1633.7 197.214 1623.04 182.856 1623.8 176.358C1624.07 173.98 1626.71 172.996 1628.79 171.973Z"/><path d="M407.395 161.504C411.361 162.743 413.3 163.6 415.254 167.206C415.503 168.85 415.953 171.683 415.148 173.178C406.147 189.898 397.412 206.654 389.763 224.063C360.235 291.053 341.355 362.244 333.805 435.062C332.484 447.229 330.004 463.908 330.088 475.937C330.631 553.395 335.742 640.014 361.409 713.127C370.487 739.258 381.513 764.671 394.395 789.152L411.5 820.771C414.1 825.505 417.443 830.043 419.266 834.851L419.57 835.67C418.905 837.16 417.884 838.536 416.967 839.912C413.758 841.477 415.19 841.27 411.543 840.565C407.34 837.51 406.117 834.567 403.657 830.349C307.123 664.857 297.98 454.782 356.933 275.016C362.196 258.97 395.764 167.539 407.395 161.504Z"/><path d="M1800.34 267.455C1802.2 267.654 1804.11 268.147 1805.94 268.567C1815.93 275.65 1821.07 315.896 1823.9 329.226C1829.78 356.912 1835.37 385.218 1838.85 413.311C1849.01 497.018 1846.06 581.797 1830.1 664.595C1826.19 684.907 1820.06 715.311 1813.22 734.668C1812.47 737.446 1811.62 737.918 1809.43 739.742C1804.23 741.464 1800.35 738.899 1798.46 733.976C1798.01 730.518 1799.61 729.706 1800.98 726.81C1811.22 705.21 1817.46 675.524 1822.21 652.229C1830.14 613.302 1835.04 572.021 1835.28 532.387C1835.78 512.131 1833.08 491.283 1832.65 471.199C1831.22 405.091 1819.84 337.422 1798.17 274.915C1797.24 272.237 1799 269.666 1800.34 267.455Z"/><path d="M232.459 269.382C235.641 269.708 236.49 269.674 239.316 271.43C242.978 278.28 231.428 306.153 228.953 315.491C198.169 431.629 204.119 556.502 225.05 673.842C228.927 695.577 238.193 717.046 243.089 738.492C243.846 741.805 241.809 743.447 240.019 745.583C237.296 745.028 233.445 743.768 232.572 740.73C193.461 604.646 184.769 448.438 219.845 310.444C223.548 295.876 224.977 281.24 232.459 269.382Z"/><path d="M1545.9 621.265C1547.89 621.484 1549.87 621.949 1551.42 623.32C1552.84 624.583 1553.53 626.43 1553.61 628.294C1554.1 639.187 1549.39 653.799 1546.9 664.381C1543.94 676.888 1541.13 689.53 1537.3 701.805C1520.5 755.665 1483.41 843.331 1444.29 884.491C1442.71 884.376 1440.92 884.296 1439.44 883.69C1437.26 882.792 1435.91 881.477 1434.96 879.324C1434.8 877.001 1435.1 875.26 1436.33 873.263C1439.57 868.019 1444.43 863.27 1448.12 858.242C1456.71 846.521 1464.82 834.086 1471.83 821.356C1493.46 782.314 1511.64 741.455 1526.16 699.245C1532.01 682.397 1536.6 663.03 1540.12 645.496C1541.43 639 1541.71 631.967 1543.36 625.607C1543.79 623.976 1544.83 622.543 1545.9 621.265Z"/><path d="M600.618 124.6C605.591 125.532 606.675 125.471 609.676 129.17C611.721 137.524 599.414 148.588 594.227 155.004C588.062 162.683 582.375 170.733 577.199 179.11C549.889 223.008 528.603 270.377 513.912 319.945C509.22 335.454 505.028 350.289 501.796 366.163C500.487 372.591 498.239 385.156 495.186 390.432C491.49 390.825 486.088 388.476 486.798 384.727C500.805 310.828 526.759 237.77 565.342 172.994C575.996 155.109 589.274 141.117 600.618 124.6Z"/><path d="M1354.97 699.271C1357.98 700.477 1360.04 701.547 1362.4 703.799C1362.89 704.978 1363.02 706.011 1362.83 707.285C1362.08 712.515 1358.04 717.83 1356.03 722.72C1332.77 779.094 1299.88 830.993 1258.83 876.093C1252.21 883.375 1245.36 892.598 1237.25 898.096C1235.55 897.718 1233.39 897.035 1232.01 895.963C1229.95 894.36 1229.8 892.764 1229.38 890.386C1231.53 881.382 1255.55 859.666 1262.75 851.292C1288.65 821.148 1309.33 788.136 1327.7 752.957C1332.94 742.91 1337.59 732.715 1342.01 722.278C1344.56 716.24 1346.79 708.873 1350.28 703.352C1351.39 701.591 1353.26 700.391 1354.97 699.271Z"/><path d="M1436.04 130.313C1442.26 131.434 1447.07 137.856 1450.54 142.86C1499.59 213.484 1536.26 292.573 1554.06 376.919C1555.3 382.783 1557.08 388.771 1553.64 393.952C1549.63 393.134 1547.31 392.025 1546.11 387.817C1543.45 378.523 1542.41 369.047 1540.1 359.515C1535.41 339.454 1529.35 319.739 1521.95 300.508C1503.98 252.728 1478.53 203.635 1449.38 161.305C1443.55 152.845 1436.48 146.983 1432 137.093C1432.7 133.14 1433.03 133.814 1436.04 130.313Z"/><path d="M284.502 364.533C287.552 364.499 288.106 364.416 290.788 365.803C296.974 373.489 286.772 399.105 285.525 408.904C278.188 466.571 274.336 524.859 283.334 582.801C285.404 595.463 287.797 608.069 290.511 620.609C292.185 628.434 295.566 641.333 295.581 648.909C292.751 650.979 286.278 652.307 285.306 648.069C266.773 567.254 261.398 484.973 277.157 403.157C279.513 390.923 278.969 376.074 284.502 364.533Z"/><path d="M489.603 619.357C491.134 619.706 493.086 620.197 494.387 621.094C495.558 621.902 496.706 623.428 497.171 624.772C499.113 630.373 499.162 637.865 500.51 643.817C503.903 658.796 508.163 673.62 512.516 688.344C523.963 727.06 541.011 765.59 561.356 800.446C569.877 815.044 578.628 829.636 588.094 843.639C595.321 854.332 603.363 864.645 610.143 875.613C611.254 877.409 611.979 878.845 612.224 880.971C611.087 883.48 610.046 884.053 607.872 885.629C604.628 885.118 602.472 884.662 600.221 882.074C594.173 875.123 590.401 866.88 585.388 859.211C558.586 818.21 534.208 776.124 516.849 730.105C507.807 706.136 501.418 682.252 494.78 657.61C492.081 647.588 488.119 637.407 487.779 626.947C487.688 624.128 488.454 621.894 489.603 619.357Z"/><path d="M1749.83 361.291C1758.39 364.321 1761.65 382.867 1762.67 390.635C1766.19 417.402 1773.8 458.537 1774.03 484.39C1774.27 510.799 1768.6 628.089 1757.22 644.292C1753.55 646.31 1754.86 645.786 1750.36 645.551C1746.5 637.687 1752.25 619.47 1754.06 610.858C1756.62 598.824 1758.45 586.648 1759.54 574.395C1766.06 499.688 1765.61 438.893 1745.8 367.045C1745.41 365.636 1748.73 362.389 1749.83 361.291Z"/><path d="M806.833 114.114C811.233 114.346 813.782 114.379 816.697 118.081C816.965 119.709 817.407 122.412 816.037 123.674C757.401 177.696 725.455 236.723 690.744 308.87C687.262 309.329 684.216 309.481 681.594 306.863C679.652 301.532 690.497 280.576 693.359 274.938C721.309 219.869 759.97 154.863 806.833 114.114Z"/><path d="M1231.55 117.403C1232.56 117.554 1236.22 118.119 1236.87 118.773C1246.67 128.543 1254.62 138.643 1263.81 149.171C1305 196.357 1338.37 250.238 1361.27 308.55C1362.34 311.277 1360.08 313.713 1358.63 315.816C1357.61 315.668 1353.72 315.077 1353.22 314.474C1346.13 305.383 1343.75 292.161 1338.44 282.02C1324.21 254.83 1309.68 224.543 1290.9 200.221C1275.36 180.433 1258.92 161.369 1241.63 143.09C1232.94 134.002 1222.94 129.087 1231.55 117.403Z"/><path d="M1631.27 372.299C1639.09 374.427 1640.72 397.977 1641.85 405.499C1651.89 469.61 1652.7 534.828 1644.26 599.17C1642.93 610.179 1641.87 623.414 1638.77 633.956C1637.8 637.24 1635.26 638.317 1632.31 639.707C1628.2 635.455 1628.5 630.739 1629.57 625.15C1641.87 561.021 1644.11 495.493 1635.95 430.69C1633.66 412.467 1629.74 394.342 1628.63 376.054C1628.63 376.054 1631.08 372.574 1631.27 372.299Z"/><path d="M405.766 372.348C408.949 372.718 409.433 372.921 412.362 374.247C412.783 374.953 413.98 376.599 413.861 377.282C410.331 397.563 407.294 417.774 404.653 438.19C398.152 488.435 402.082 536.513 407.987 586.495C409.492 599.236 414.781 626.337 414.338 637.487C410.698 638.941 410.397 638.836 407.263 637.985C404.178 635.07 401.23 606.774 400.358 600.128C391.843 535.215 387.333 470.272 399.591 405.473C401.517 395.287 400.67 381.679 405.766 372.348Z"/><path d="M682.159 697.562C684.088 697.798 687.394 697.953 688.824 699.377C694.012 704.544 700.026 722.705 703.793 730.383C723.832 771.229 746.096 809.493 775.07 844.749C787.552 859.937 801.854 873.632 814.028 889.014C814.526 891.894 814.399 892.341 813.263 895.049C811.799 895.298 808.195 896.357 806.976 895.894C800.363 893.378 793.347 882.164 788.541 876.675C747.33 829.618 716.987 783.956 690.225 727.372C686.479 719.451 679.064 706.219 682.159 697.562Z"/><path d="M1874.97 399.656C1877.3 399.585 1882.29 399.792 1883.42 402.206C1887.63 411.267 1887.4 424.19 1888.13 434.111C1891.16 475.393 1891.5 516.537 1887.8 557.773C1886.22 575.776 1886.12 589.474 1882.19 607.789C1878.06 609.192 1876.92 609.032 1874.13 606.056C1873.85 605.193 1879.34 538.696 1879.89 536.635C1884.94 517.458 1872.7 404.723 1874.97 399.656Z"/><path d="M160.513 397.607C173.253 401.137 165.905 413.703 165.046 421.549C163.587 434.879 162.616 448.786 161.935 462.179C160.091 494.617 160.477 527.142 163.089 559.527C164.357 575.046 165.617 590.083 167.966 605.516C168.253 607.403 167.067 610.278 166.218 612.004C163.236 611.823 162.841 611.786 160.218 610.38C149.45 596.334 149.072 410.538 160.513 397.607Z"/><path d="M1796.09 416.436C1799.21 416.773 1799.93 417.333 1802.55 418.837C1812.09 430.898 1811.19 576.599 1799.93 591.229C1795.87 590.054 1795.2 589.614 1792.99 586.612C1792.19 582.33 1793.58 575.665 1794.25 571.235C1801.29 524.965 1801.73 478.505 1794.69 432.203C1793.7 425.67 1793.17 422.391 1796.09 416.436Z"/><path d="M243.546 416.524C244.134 416.71 244.708 416.906 245.271 417.16C247.932 418.356 249.297 420.044 250.283 422.71C251.112 424.952 251.237 426.766 250.176 428.94C241.915 445.869 243.004 527.37 244.395 548.635C245.014 558.102 246.785 567.568 248.096 576.962C249.063 583.893 250.799 588.229 246.297 594.193C244.18 593.917 243.676 593.643 241.67 592.846C236.496 586.493 234.491 536.57 234.08 526.568C233.322 508.088 232.996 427.987 243.546 416.524Z"/><path d="M363.327 418.405C366.498 418.722 367.496 418.682 370.352 420.336C372.509 424.278 369.046 444.468 368.461 451.208C365.68 480.716 365.113 510.391 366.762 539.984C367.296 551.564 371.907 573.87 370.241 584.046C368.738 586.616 367.05 586.985 364.332 588.094C353.534 579.012 354.146 432.181 363.327 418.405Z"/><path d="M1676.81 426.305L1680.3 427.513C1690.45 439.672 1685.62 562.083 1681.96 583.99C1681.63 586.013 1679.36 587.718 1677.87 589.145C1673.79 587.13 1673.23 587.413 1671.18 584.049C1671.18 568.173 1676.33 544.641 1676.39 527.58C1676.45 510.171 1677.71 493.482 1677.05 475.384C1676.61 463.245 1673.36 444.341 1673.3 431.679C1674.68 429.561 1675.85 427.77 1676.81 426.305Z"/><path d="M1426.91 691.964C1429.48 692.733 1431.05 693.181 1432.69 695.485C1432.85 696.862 1432.82 698.179 1432.51 699.533C1428.65 716.844 1403.05 765.303 1392.22 780.547C1391.06 782.174 1388.92 783.352 1387.25 784.392C1385.54 783.406 1383.55 782.006 1382.49 780.316C1380.98 777.919 1381.28 775.664 1381.97 773.086C1383.8 766.181 1391 760.981 1394.59 754.906C1401.2 743.727 1407.91 731.347 1413.17 719.479C1416.45 712.09 1418.82 704.017 1422.56 696.88C1423.7 694.706 1424.73 693.21 1426.91 691.964Z"/><path d="M652.094 227.688C654.956 227.714 655.666 227.709 658.421 228.438C660.965 231.551 660.338 232.552 661.028 237.189C646.822 251.233 627.382 296.973 621.279 316.9C618.009 317.823 617.458 318.034 614.164 316.828C613.489 316.029 612.575 315.267 612.359 314.234C609.907 302.501 643.787 240.84 652.094 227.688Z"/><path d="M1382.92 231.806C1384.37 231.823 1388.89 231.739 1389.71 232.903C1406.81 257.218 1419.91 284.266 1431.35 311.628C1433.74 317.353 1433.42 317.538 1431.2 322.596C1421.02 321.384 1421.38 314.053 1417.69 305.102C1412.04 291.399 1404.57 279.183 1398.37 265.934C1393.35 255.207 1387.1 248.879 1381.44 238.787C1380.2 236.52 1381.94 233.984 1382.92 231.806Z"/><path d="M611.084 691.618C613.274 691.668 615.234 691.862 617.37 692.358C621.074 695.882 627.561 715.419 630.535 721.658C639.596 740.664 652.897 756.842 662.485 775.459C662.751 778.12 661.541 779.646 660.157 781.756C659.333 781.633 658.518 781.504 657.708 781.303C651.648 779.801 644.563 766.86 641.379 761.744C632.58 747.609 607.655 706.465 611.084 691.618Z"/><path d="M1925.25 452.381C1927.63 452.676 1931.3 453.422 1931.72 455.994C1934.57 473.375 1936.37 534.851 1930.87 549.87C1927.57 551.542 1926.24 551.47 1923.18 549.892C1918.4 542.089 1927.52 497.305 1924.2 484.064C1922.7 478.027 1921.48 457.431 1925.25 452.381Z"/><path d="M114.617 455.494C115.194 455.522 115.754 455.543 116.32 455.673C118.935 456.275 119.337 456.487 120.762 458.633C122.55 478.037 116.88 498.622 117.627 518.175C117.977 527.317 123.934 544.552 119.178 552.624C116.356 554.084 115.181 553.938 112.097 553.811C108.041 542.246 109.254 525.524 108.734 513.279C108.262 502.181 108.629 469.833 111.606 459.995C112.143 458.217 113.384 456.836 114.617 455.494Z"/><path d="M1586.02 574.237L1588.67 575.127C1592.59 580.143 1590.66 589.233 1589.94 595.258C1588.26 609.375 1575.41 683.453 1566.54 690.426C1563.95 688.666 1562.74 687.428 1561.82 684.441C1563.84 673.071 1568.3 661.931 1571.35 650.778C1575.31 636.317 1578.17 620.924 1580.67 606.124C1582.25 596.82 1581.06 582.134 1586.02 574.237Z"/><path d="M476.249 319.35C480.21 320.611 479.93 320.668 481.552 323.576C482.533 332.681 472.008 351.513 469.816 361.313C464.971 382.962 462.4 404.299 460.684 426.367C460.684 426.367 458.11 429.685 457.861 430.006C455.788 428.906 451.69 426.68 451.847 424.152C453.17 402.862 465.366 334.511 476.249 319.35Z"/><path d="M1561.54 327.467L1566 328.064C1575.05 336.189 1587.46 417.762 1589.24 434.427C1589.24 434.427 1587.6 437.328 1587.43 437.637C1583.62 436.883 1582.9 436.75 1580.64 434.227C1578.66 418.997 1577.26 403.653 1574.75 388.361C1572.64 375.482 1558.67 336.571 1561.54 327.467Z"/><path d="M454.93 574.328C456.418 574.586 458.249 575.3 459.486 576.167C463.433 578.935 463.829 600.149 464.495 605.793C466.352 621.546 470.758 637.781 474.945 653.064C476.954 660.393 479.591 667.868 480.736 675.383C481.28 678.959 480.216 679.998 478.193 682.679C477.03 682.148 475.115 681.098 474.476 679.988C467.382 667.678 451.085 588.64 454.93 574.328Z"/><path d="M73.5238 475.649C76.2962 475.788 78.5013 475.73 80.7901 477.492C82.0697 478.477 82.6087 480.538 82.7605 482.087C83.2014 486.585 82.0812 528.488 81.5677 531.322C81.093 533.943 79.7944 535.106 78.1661 537.096L74.3423 535.577C73.3718 534.461 72.6045 533.354 72.1339 531.935C69.3801 523.631 69.3459 483.167 73.5238 475.649Z"/><path d="M1963.91 472.388C1965.96 472.714 1967.51 473.451 1969.36 474.371C1970.6 475.76 1970.89 477.021 1971.04 478.823C1971.59 485.109 1972.86 525.35 1970.86 528.973C1970.27 530.04 1968.82 531.358 1968 532.316C1965.97 532.083 1964.65 531.644 1962.89 530.598C1961.13 527.895 1960.45 525.7 1960.23 522.489C1959.59 513.217 1959.06 484.839 1960.94 476.993C1961.35 475.259 1962.76 473.704 1963.91 472.388Z"/><path d="M31.5399 495.936C32.6971 495.831 33.8607 495.743 35.0238 495.782C38.3926 495.895 41.8841 497.23 44.0183 499.937C45.5996 501.943 46.1291 504.472 45.8751 506.979C45.3636 512.029 42.5903 514.603 38.8345 517.684C35.9371 517.377 32.7154 516.993 30.2379 515.346C28.1763 513.975 26.6392 511.922 26.226 509.45C25.2963 503.889 28.3985 500.116 31.5399 495.936Z"/><path d="M2003.08 492.531C2008.63 491.016 2014.35 494.309 2015.83 499.866C2017.3 505.424 2013.97 511.12 2008.4 512.556C2002.89 513.977 1997.26 510.684 1995.8 505.182C1994.34 499.68 1997.59 494.031 2003.08 492.531Z"/></svg>