<?xml version="1.0" encoding="utf-8" ?><svg xmlns="http://www.w3.org/2000/svg" xmlns:xlink="http://www.w3.org/1999/xlink" width="2048" height="1024" viewBox="0 0 2048 1024"><path fill="#060606" d="M1065.01 469.64C1068.89 452.563 1079.03 421.247 1074.82 404.174C1072.71 395.666 1065.14 385.368 1062.76 375.393L1062.6 374.732C1056.53 349.085 1098.95 250.814 1110.78 226.144C1121.88 202.676 1134.27 179.838 1147.89 157.734C1170.49 121.818 1178.13 119.717 1218.12 104.319C1231.36 99.221 1242.84 95.0845 1256.76 91.1179C1286.2 83.2775 1324.45 107.387 1349.05 122.259C1362.11 130.155 1398.12 153.699 1405.79 165.245C1425.35 194.649 1441.85 237.045 1455.79 270.005C1462.15 285.057 1466.15 300.39 1472.45 315.415C1485.7 342.963 1495.18 349.424 1502.41 381.274C1504.41 390.265 1506.09 399.322 1507.47 408.429C1548.5 404.774 1589.68 402.888 1630.87 402.773C1646.68 402.774 1671.02 402.993 1686.61 405.411C1644.66 408.816 1600.46 408.729 1558.28 411.254C1542.26 412.212 1524.61 412.149 1508.8 413.852C1520.37 471.288 1517.01 510.894 1515.93 569.339C1515.35 600.575 1516.04 633.209 1512.84 664.189C1534.36 643.474 1570.76 619.653 1597.91 607.778C1573.41 630.242 1558.35 645.588 1539.02 673.079C1533.46 680.998 1518.58 703.145 1513.44 709.071C1522.31 686.106 1528.82 673.503 1544.24 654.074C1514.08 678.088 1513.21 698.503 1493.09 721.318C1497.5 704.06 1501.63 686.825 1501.74 668.941C1494.51 684.242 1470.68 722.202 1460.53 736.068C1460.8 704.493 1467.22 705.236 1480.96 678.766C1487.51 666.16 1498.89 636.5 1502.29 622.13C1502.98 619.237 1503.1 607.405 1503.14 603.708C1494.17 626.803 1483.71 650.017 1476.55 673.648C1467.68 702.921 1445.86 728.137 1420.22 744.697C1427.65 734.4 1435.69 723.083 1442.65 712.46C1433.28 719.72 1427.6 725.683 1419.94 734.792C1424.29 716.138 1427.85 701.998 1435.56 684.26L1433.79 682.917C1427.59 697.902 1419.77 710.13 1411.72 724.082C1407.77 730.924 1404.69 738.034 1400.56 744.946L1398.84 744.171C1391.56 733.993 1417.59 689.759 1424.16 679.242L1423.04 677.972C1415.06 689.954 1407.15 701.636 1399.63 714.005C1394.1 723.091 1386.17 740.941 1379.63 748.358C1367.89 761.664 1337.64 768.273 1320.82 775.014C1311.03 778.939 1302.11 782.325 1292.29 786.549C1307.34 788.347 1373.6 793.696 1386.4 790.197C1453.64 771.802 1516.99 739.312 1583.65 718.14C1588.55 704.084 1595.24 696.848 1605.39 686.019C1577.22 698.632 1562.41 705.985 1537.94 724.7C1545.95 701.244 1552.43 689.875 1568.2 670.749C1544.91 687.171 1535.14 699.351 1517.99 721.543C1518.78 719.387 1519.64 717.256 1520.56 715.151C1537.9 676.007 1580.22 650.845 1618.41 635.925C1587.63 657.951 1566.35 676.859 1547.86 710.649C1582.37 687.15 1609.4 674.181 1648.71 660.593C1630.76 674.459 1602.47 698.387 1588.81 716.225C1616.1 709.046 1618.81 708.498 1641.07 690.276C1625.28 696.029 1612.27 704.573 1598.06 709.636C1614.28 692.456 1639.22 686.49 1661.28 679.478C1650.83 689.189 1640.14 697.809 1627.59 704.647C1680.58 690.998 1718.07 691.058 1750.09 639.493C1791.37 573.014 1759.1 530.928 1684.2 548.668C1668.32 552.428 1648.2 560.808 1639.15 575.477C1628.79 592.267 1643.63 609.431 1658.46 616.805C1677.6 626.582 1696.27 628.739 1717.44 623.326C1741.34 617.322 1762.11 584.824 1733.01 569.853C1721.62 563.996 1688.19 571.176 1690.42 589.228C1691.44 597.481 1696.51 595.567 1698.6 600.88C1697.03 603.107 1697.63 602.391 1694.96 603.703C1689.53 603.115 1683.6 593.643 1683.54 589.045C1683.1 551.549 1754.29 550.192 1755.26 587.722C1756.02 617.036 1729.58 630.837 1704.39 633.982C1667.3 638.613 1603.47 607.971 1637.24 564.742C1651.49 547.12 1684.24 538.29 1707.47 537.013C1739.68 535.242 1775.9 545.765 1776.42 585.554C1776.64 621.823 1756.29 650.518 1732.52 675.587C1763.74 664.569 1793.24 654.715 1821.29 636.615C1879.92 598.78 1924.7 532.397 1881.97 465.422C1848.07 489.1 1816.23 481.044 1779.91 469.384C1816.94 449.21 1841.56 444.31 1880.9 461.177C1869.56 446.559 1836 413.992 1814.93 411.076C1804.87 411.599 1792.49 425.311 1784.99 431.053C1761.51 449.035 1740.11 442.541 1712.93 441.909C1730.05 419.309 1752.21 402.876 1782.26 405.376C1799.45 406.806 1796.94 410.811 1815.24 407.413C1782.75 387.502 1742.79 371.876 1705.13 365.624C1706.71 364.476 1708.91 364.009 1710.82 363.445C1735.53 367.519 1768.89 376.878 1791.61 388.299C1791.86 386.931 1795.99 371.701 1796.37 372.978C1794.2 365.755 1797.65 353.666 1805.04 349.919C1830.73 336.902 1840.16 390.001 1799.91 376.468L1795.14 389.761C1820.64 404.471 1843.12 417.281 1865.89 436.099C1864.89 418.09 1857.52 408.125 1853.37 390.918C1847.6 366.952 1852.24 342.91 1853.65 318.513C1881.22 351.785 1901.19 385.242 1869.87 424.385C1870.02 429.243 1870.06 434.981 1870.36 439.764C1888.6 460.009 1898.59 475.033 1903.99 502.758C1914.14 465.652 1924.52 447.87 1959.77 431.278C1953.98 451.806 1954.25 476.123 1939.71 493.321C1932 502.449 1920.14 511.554 1909.71 517.425C1909.12 517.759 1908.52 518.088 1907.92 518.41C1908.4 581.26 1856.89 630.628 1804.31 657.049C1852.28 644.587 1930.31 642.426 1977.77 657.624C1951.89 656.595 1923.73 654.934 1898 655.48C1867.5 656.128 1836.24 661.653 1806.37 667.411C1845.64 668.877 1882.63 675.66 1909.04 705.877C1977.99 784.749 1888.03 864.939 1804.59 857.569C1740 851.863 1680.04 825.557 1622.01 802.69C1627.98 807.384 1634.04 812.267 1639.98 816.954C1672.62 842.724 1704.57 858.336 1703.06 905.668C1664.72 889.695 1647.04 870.61 1646.06 827.604C1636.59 818.635 1612.12 800.087 1600.62 795.567C1547.42 806.866 1501.99 808.843 1447.65 805.384C1437.07 804.71 1391.06 799.8 1384.74 801.037C1371.57 803.613 1334.38 817.194 1319.35 821.99C1333.33 834.234 1335.19 833.444 1353.21 838.919C1381.39 847.482 1395.36 865.434 1410.27 889.495C1388.18 887.232 1357.25 884.194 1342.05 865.979C1334.42 856.847 1332.14 846.881 1329.27 835.758C1324.82 832.219 1319.02 827.33 1314.49 824.135C1298.67 830.825 1276.47 837.157 1262.81 844.194C1279.28 865.172 1292.91 880.647 1289.55 909.007C1288.38 918.184 1286.07 927.181 1282.68 935.791C1250.67 907.687 1242.94 883.488 1261.9 843.658C1179.48 874.202 1092.56 909.964 1010.17 937.673C1064.86 950.854 1125.07 948.421 1174.08 918.528C1177.77 916.244 1181.42 913.902 1185.03 911.502C1144.15 957.895 1053.15 958.653 998.701 941.388C900.881 966.219 842.381 971.246 751.383 916.994C745.623 913.577 740.003 909.928 734.537 906.058C699.133 907.173 675.631 906.64 640.124 904.877C560.522 900.924 443.116 873.712 381.995 937.253C378.583 940.8 374.401 946.641 370.88 950.639C404.966 862.16 571.853 893.92 644.632 898.545C617.794 869.131 614.152 883.015 583.129 867.406C575.689 863.663 560.046 847.303 553.102 840.415C566.536 838.673 577.911 837.845 590.995 842.447C606.727 847.981 622.603 859.947 627.149 876.685C637.856 884.31 642.232 887.343 649.006 898.912C675.931 901.482 699.116 901.721 725.948 901.089C702.107 883.346 676.972 867.235 654.96 847.106C602.385 799.026 552.087 741.055 479.314 724.819C430.065 715.275 365.676 722.285 333.295 765.227C322.248 779.858 316.928 799.266 319.768 817.453C330.604 886.781 423.381 864.464 452.419 822.551C457.924 814.605 461.485 805.123 459.718 795.716C454.906 770.106 421.656 774.004 407.913 789.738C403.306 795.012 400.483 799.817 401.948 807.014C403.245 812.865 409.396 816.525 413.45 820.603C406.583 818.127 398.378 815.165 396.1 808.155C387.661 781.56 429.068 761.545 450.662 771.039C468.857 779.039 473.562 801.988 465.416 819.144C441.924 868.618 338.63 899.065 314.823 834.122C307.51 814.563 308.415 792.879 317.331 773.997C342.396 720.333 408.035 711.414 460.37 713.26C550.754 716.448 630.714 743.309 711.361 782.825C725.175 789.593 741.576 797.071 755.068 805.132C755.419 763.51 745.272 761.703 779.66 727.856L786.105 721.568C787.793 737.628 792.321 767.58 781.638 779.885C773.48 789.282 764.612 795.417 757.269 806.207C782.98 820.633 808.198 835.921 832.881 852.043C847.309 861.328 866.768 875.133 881.214 882.874C907.834 874.458 925.629 869.123 950.99 853.361C974.785 840.179 1005.69 805.952 969.817 785.998C945.357 772.391 909.829 786.891 898.302 811.416C888.227 832.854 907.651 847.957 927.491 840.346C935.241 837.374 944.584 828.917 941.224 819.75C938.867 816.889 937.184 816.499 933.41 816.117C932.9 816.067 932.389 816.027 931.877 815.996L931.729 814.618C934.129 811.894 932.845 812.609 936.626 812.057C940.196 813.133 946.184 816.605 947.31 820.156C957.111 851.065 901.944 861.515 890.491 835.512C879.748 809.236 902.633 788.631 923.07 778.005C953.929 761.959 1008.22 784.811 991.856 822.805C976.663 858.089 921.765 878.09 888.602 886.91L899.33 892.991C993.371 881.921 1071.54 854.459 1159.86 823.471C1185.69 814.408 1229.61 797.954 1255.22 791.633C1174.85 780.6 1095.12 765.28 1016.38 745.737C933.951 725.865 852.241 702.053 769.87 683.08C644.508 654.205 515.381 640.053 387.082 654.171C352.637 657.962 318.728 664.144 285.708 674.92C226.326 693.739 161.525 729.505 152.198 797.503C145.518 846.205 191.068 866.09 226.238 835.986C239.839 824.345 250.745 808.7 252.917 790.556C255.547 764.906 233.947 758.432 214.52 770.115C205.196 775.722 193.163 789.448 193.471 800.584C194.077 822.445 216.784 811.158 225.952 804.846C201.129 840.856 168.597 811.112 193.447 777.296C211.487 752.747 255.296 744.448 261.993 782.264C264.774 817.43 229.028 856.698 195 859.432C182.023 860.536 169.149 856.359 159.292 847.846C123.933 816.729 150.003 754.519 176.816 727.013C241.164 661.002 356 643.444 443.708 639.572L445.15 639.511C419.545 630.686 396.626 620.601 369.321 610.938C331.406 597.521 302.129 588.567 260.724 578.489C214.9 567.335 114.774 553.859 87.7866 607.583C74.2572 634.516 127.456 671.469 152.8 654.497C168.014 646.613 169.229 626.979 151.939 620.864C145.85 618.711 137.155 623.509 134.56 622.089C139.735 612.889 151.899 612.677 160.205 617.836C165.644 621.213 169.455 626.678 170.746 632.948C174.185 649.591 160.901 660.561 145.784 663.264C129.801 666.214 113.303 662.599 100.018 653.235C80.7595 639.569 72.3374 613.472 87.6309 593.785C102.926 574.096 132.501 565.436 156.266 561.864C237.89 552.758 326.164 586.258 401.945 613.322C423.407 620.988 443.879 630.157 465.475 636.977C468.194 637.836 473.357 638.852 475.585 636.882C473.009 620.268 445.772 564.693 437.64 548.737C402.989 564.757 394.823 562.977 357.218 551.712C383.853 531.323 403.339 526.642 434.648 542.508C410.325 512.735 372.538 476.986 338.368 458.731L332.46 468.171C332.506 477.091 334.942 482.912 338.204 491.116C345.905 510.479 332.889 525.102 325.996 542.207C307.128 515.828 304.649 494.573 326.359 468.154C328.86 465.11 333.795 461.986 335.157 458.408C327.745 455.173 304.5 462.4 293.01 458.927C276.745 454.01 266.412 444.079 251.268 436.636C289.445 430.182 300.997 430.171 332.297 452.685C343.853 460.997 364.108 467.479 375.832 478.428C396.868 493.738 418.291 512.872 434.196 533.535C442.136 500.132 454.774 484.685 488.702 474.79C479.841 510.751 476.874 526.053 437.453 536.575C451.576 563.243 465.452 587.354 476.687 615.773C482.801 578.662 488.339 562.71 527.197 549.196C523.121 569.232 520.076 591.514 501.81 602.67C495.99 606.224 482.058 614.282 477.749 618.28C480.488 625.203 483.423 632.047 486.551 638.803C573.75 638.841 660.681 648.442 745.786 667.435C790.305 677.007 832.859 688.776 876.757 699.575C889.598 695.354 898.56 694.835 912.178 695.427C896.491 684.954 887.752 681.034 869.695 675.037C902.297 674.298 923.862 680.604 952.599 694.68C937.677 673.602 923.59 661.87 903.137 646.373C945.692 660.873 966.603 674.848 1001.82 701.299C976.455 665.359 960.541 641.508 921.529 619.487C974.836 634.508 1002.11 660.017 1033.4 705.026C1020.44 664.473 1002.95 619.124 974.814 586.844C967.17 578.074 958.223 570.55 949.419 562.96C999.54 586.112 1023.13 619.243 1045.12 667.482C1039.65 590.418 1047.4 550.406 1063.14 476.166C1006.64 488.306 942.524 503.578 887.12 519.334C812.568 541.336 738.638 565.392 665.414 591.475L664.747 589.667C758.39 551.777 854.334 519.842 952.004 494.053C981.775 486.239 1035.47 473.107 1065.01 469.64Z"/><path fill="#060606" d="M1455.93 630.931L1456.77 636.813C1451.37 649.627 1442.12 672.377 1435.56 684.26L1433.79 682.917C1427.59 697.902 1419.77 710.13 1411.72 724.082C1407.77 730.924 1404.69 738.034 1400.56 744.946L1398.84 744.171C1391.56 733.993 1417.59 689.759 1424.16 679.242L1423.04 677.972C1433.57 661.056 1444 646.922 1455.93 630.931Z"/><path fill="#B9B9B8" d="M1455.93 630.931L1456.77 636.813C1451.37 649.627 1442.12 672.377 1435.56 684.26L1433.79 682.917C1440.84 665.192 1449.89 652.275 1456.13 632.79C1446.01 646.325 1434.36 664.867 1424.16 679.242L1423.04 677.972C1433.57 661.056 1444 646.922 1455.93 630.931Z"/><path fill="#FAFAFA" d="M1503.57 539.12L1504.42 550.399C1488.76 575.269 1468.51 609.839 1456.77 636.813L1455.93 630.931C1465.48 612.48 1468.39 603.757 1473.65 584.076C1476.74 572.489 1495.2 548.166 1503.57 539.12Z"/><path fill="#FAFAFA" d="M1332.38 188.619C1345.56 201.703 1355.07 222.628 1364.19 238.771L1397.97 298.834C1387.6 324.84 1369.48 347.507 1356.57 372.335C1342.61 399.182 1332.81 430.128 1316.76 455.489C1309.49 466.983 1294.19 472.147 1288.45 484.461C1284.9 492.087 1285.22 502.095 1283.97 510.393C1283.04 516.576 1281.46 522.572 1279.62 528.536C1264.36 531.171 1258.23 538.625 1249.44 550.523C1236.31 555.585 1221.66 557.539 1209.04 563.802C1187.96 574.27 1175.99 595.76 1157.17 608.786C1143.32 618.38 1128.61 621.783 1112.89 633.68C1103.59 641.518 1095.95 650.416 1088.92 660.309C1085.21 643.789 1079.4 627.303 1074.3 611.139C1080.92 585.209 1096.27 554.537 1106.37 529.213C1113.54 511.419 1120.5 493.539 1127.24 475.577C1131.57 463.819 1135.36 451.602 1140.2 440.057C1144.63 429.508 1153.39 420.487 1156.62 409.525C1160.4 396.727 1154.6 383.14 1155.58 370.044C1156.98 351.226 1164.22 333.183 1166.44 314.217C1173.73 310.63 1180.34 305.982 1186.86 301.18C1194.43 302.754 1201.02 304.522 1208.72 302.676C1222.69 299.332 1236.51 284.366 1248 275.648C1257.45 268.482 1269.46 266.31 1279.26 259.753C1301.36 244.972 1318.25 211.16 1332.38 188.619Z"/><path fill="#060606" d="M1316.97 340.753C1318.63 340.687 1320.37 340.596 1322.02 340.806C1324.7 341.146 1327.55 342.816 1329.16 344.985C1331.31 347.865 1331.74 351.459 1331.32 354.935C1330.39 362.587 1326.58 368.362 1320.66 373.09C1319.15 373.213 1317.49 373.413 1315.97 373.269C1313.6 373.043 1311.43 371.469 1310.01 369.596C1307.5 366.278 1306.96 362.08 1307.4 358.037C1308.24 350.219 1310.87 345.562 1316.97 340.753Z"/><path fill="#FAFAFA" d="M1316.95 344.57C1318.85 344.778 1321.35 345.153 1322.97 346.227C1324.78 347.425 1325.9 349.292 1326.3 351.402C1327.33 356.85 1324.08 361.92 1321 366.052C1319.24 366.201 1317.55 365.983 1316.02 364.993C1314.22 363.822 1313.19 361.584 1312.87 359.528C1311.98 353.949 1313.84 349.068 1316.95 344.57Z"/><path fill="#FAFAFA" d="M1485.81 766.319C1545.53 740.714 1607.34 721.361 1669.8 703.691C1700.78 694.928 1732.73 685.161 1764.73 681.25C1796.69 677.345 1832.22 676.674 1862.53 688.813C1885.84 698.145 1906.21 715.779 1916.08 739.151C1922.74 754.902 1924.17 771.954 1917.63 788.022C1908.12 811.358 1884.54 829.385 1861.84 838.78C1815.68 857.884 1758.04 846.884 1712.72 828.982C1751.1 827.649 1807.89 820.691 1835.66 791.018C1842.65 783.552 1847.08 774.067 1846.69 763.696C1846.35 754.593 1841.86 747.167 1835.23 741.164C1828.03 734.651 1817.67 732.508 1808.17 733.069C1798.72 733.626 1787.63 737.711 1781.33 745.068C1779.04 747.746 1777.69 750.989 1777.99 754.56C1778.32 758.666 1780.51 762.928 1783.73 765.508C1786.9 768.043 1791.44 769.96 1795.57 769.389C1797.6 769.108 1799.77 768.333 1801.05 766.645C1802.21 765.123 1802.81 764.174 1802.57 762.248C1797.06 761.195 1789.24 763.321 1785.15 758.822C1784.32 755.428 1785.02 753.056 1786.84 750.086C1790.08 744.808 1795.26 741.582 1801.23 740.178C1810.36 738.027 1820.74 739.94 1828.64 744.939C1834.96 748.931 1839.08 754.793 1840.62 762.125C1842.11 769.255 1840.26 775.993 1836.16 781.908C1820.73 804.188 1783.98 814.613 1758.83 818.838C1729.54 823.759 1703.78 822.996 1675.07 815.027C1681.17 805.232 1687.38 799.682 1696.81 793.224C1722.17 775.861 1726.08 762.513 1728.86 733.047C1710.32 745.688 1691.9 756.61 1685.15 779.45C1681.57 791.561 1678.37 802.547 1672.76 813.97C1652.9 806.52 1632.87 797.755 1612.38 792.273C1634.86 783.724 1657.43 774.845 1679.01 764.157L1677.35 761.979C1652.83 771.965 1626.05 783.789 1599.75 787.79C1564.34 771.47 1524.46 765.62 1485.81 766.319Z"/><path fill="#323031" d="M1677.35 761.979C1682.38 759.84 1687.38 757.58 1692.59 755.93C1688.16 758.738 1683.73 761.862 1679.01 764.157L1677.35 761.979Z"/><path fill="#FAFAFA" d="M1363.49 367.589C1371.3 373.711 1378.33 388.992 1384.22 392.217C1391.45 396.173 1401.61 392.045 1408.84 390.062C1406.58 414.671 1407.46 439.868 1406.62 464.584C1405.32 495.416 1403.32 526.215 1400.6 556.955C1398.37 583.966 1396.39 610.655 1391.61 637.357C1389.27 638.627 1386.96 639.967 1384.69 641.374C1352.29 661.63 1334.11 701.728 1325.79 737.48C1320.03 700.753 1296.5 661.334 1273.62 632.379C1275.85 623.623 1278.05 615.017 1278.31 605.948C1276.29 611.08 1272.64 625.805 1268.55 628.263C1270.49 636.306 1257.9 672.502 1256.16 684.036C1242.69 670.779 1227.96 658.7 1213.64 646.375C1222.98 636.138 1234.02 627.805 1244.56 618.882C1260.89 605.057 1277.34 590.937 1292.69 576.023C1291.01 595.382 1287.26 614.78 1286.57 634.155C1294.39 616.742 1300.51 553.609 1298.35 534.438C1297.02 522.681 1288.42 498.996 1290.84 488.884C1293.83 476.39 1312.18 469.344 1319.22 458.412C1327.96 444.822 1334.05 429.548 1340.66 414.841C1347.85 398.832 1355.28 383.107 1363.49 367.589Z"/><path fill="#060606" d="M1335.4 513.691C1336.58 513.615 1337.77 513.546 1338.95 513.649C1341.16 513.842 1343.11 515.437 1344.49 517.084C1348.54 521.907 1348.74 529.179 1348.26 535.13C1347.5 544.616 1344.87 552.718 1337.55 558.961C1335.09 558.86 1332.81 558.018 1331 556.346C1327.11 552.769 1325.71 547.403 1325.55 542.286C1325.22 531.884 1328.27 521.357 1335.4 513.691Z"/><path fill="#FAFAFA" d="M1337.15 517.444C1337.35 517.568 1337.54 517.689 1337.74 517.817C1341.65 520.42 1343.87 524.137 1344.71 528.751C1346.21 537.021 1342.76 544.63 1338.14 551.228L1335.32 550.599C1333.14 548.24 1332.23 546.21 1331.73 543.04C1330.38 534.5 1332.08 524.47 1337.15 517.444Z"/><path fill="#FAFAFA" d="M1041.55 722.734C1037.81 696.53 1032.84 671.109 1021.9 646.814C1019.37 641.203 1004.37 616.799 1004.38 614.333C1008.99 617.882 1012.68 624.633 1015.91 629.563C1023.57 641.391 1030.32 653.79 1036.08 666.651C1046.95 691.385 1053.32 715.166 1076.4 731.635C1073.28 725.841 1070.06 720.458 1066.13 715.175C1078.64 723.492 1091.06 729.657 1105.06 735.072C1097.93 728.26 1089.96 721.963 1081.98 716.159C1097.89 722.834 1111.77 731.558 1126.97 739.354C1126.73 738.067 1127.07 736.978 1127.37 735.736C1129.61 733.868 1130.61 733.722 1133.39 733.21C1139.55 738.714 1145.85 742.945 1152.81 747.329C1141.43 729.071 1124.26 713.931 1108.98 699.038C1104.53 694.699 1093.63 684.65 1090.69 679.724C1106.32 690.333 1121.41 706.774 1135.77 719.288C1146.63 728.762 1156.37 735.685 1168.63 743.266C1162.68 728.833 1155.08 713.015 1148.75 698.357L1149.98 696.076C1162.77 718.455 1169.6 731.018 1189.84 747.164L1169.6 718.923C1183.85 729.651 1208.01 743.447 1225.03 749.375C1218.19 731.717 1211.34 720.61 1199.82 705.809C1211.22 714.515 1222.02 724.052 1232.3 734.069C1236.88 738.529 1236.31 743.449 1240.09 745.994L1240.95 745.531L1240.28 740.076L1241.34 739.61C1248.92 744.542 1257.35 749.887 1264.76 755.034C1259.92 747.243 1256.63 740.301 1252.67 732.093C1261.49 741.524 1269.68 750.695 1279.67 758.927C1272.87 726.898 1264.94 713.034 1248.2 685.956C1261.29 698.446 1274.1 717.188 1284.52 732.185C1293.05 744.459 1297.6 753.415 1308.77 763.95C1309.9 742.299 1312.62 722.914 1305.52 702.017L1307.35 700.778C1316.37 724.312 1320.56 739.888 1324.4 765.412C1337.43 719.08 1352.02 671.344 1391.22 639.777C1387.1 658.22 1383.93 677.621 1377.43 695.383C1372.86 707.875 1363.51 718.64 1361.1 731.916C1359.76 739.271 1361.21 744.94 1364.71 751.402C1357.93 754.362 1351.13 757.272 1344.31 760.131C1354.22 717.521 1361.44 695.226 1381.15 656.378C1356.48 681.081 1339.99 719.938 1340.05 755.043C1340.06 757.187 1340.1 759.331 1340.17 761.474C1330.3 764.62 1320.5 767.968 1310.77 771.514C1299.62 775.658 1285.35 783.417 1273.69 784.458C1256.9 785.959 1223.51 778.352 1205.8 775.375C1135.06 763.514 1064.82 748.849 995.244 731.415C957.286 721.906 919.684 710.007 881.602 701.205C902.676 700.68 921.732 703.204 942.292 707.268C928.908 698.39 915.806 689.635 901.261 682.724C925.125 688.671 946.425 698 967.829 709.902C958.96 692.753 947.391 678.675 933.335 665.474C961.494 677.42 988.368 697.815 1012.97 715.809C998.202 683.497 986.039 665.661 960.35 640.747C993.256 659.747 1016.77 694.645 1041.55 722.734Z"/><path fill="#FAFAFA" d="M498.358 721.989C523.046 721.454 581.511 738.158 606.145 746.201C690.161 773.631 769.916 817.605 843.105 866.677C847.521 869.638 866.221 880.529 868.101 884.226L867.218 885.666L862.469 886.707C851.122 889.717 838.713 894.085 826.978 894.698C759.225 898.237 682.3 850.732 630.939 810.411C581.997 771.99 559.29 744.468 498.358 721.989Z"/><path fill="#FAFAFA" d="M1263.97 102.266C1268.77 103.803 1292.83 134.378 1297.15 140.018C1286.36 164.112 1281.05 186.857 1275.93 212.618C1258.67 226.158 1247.81 243.238 1231.64 256.442C1218.65 267.045 1201.83 272.349 1187.91 281.834C1194.69 279.901 1201.32 277.353 1207.95 274.976C1199.44 284.378 1190.39 292.827 1180.52 300.78C1170.31 308.617 1159.56 313.311 1147.54 317.664C1149.64 294.363 1154.95 287.452 1161.98 266.849C1169.48 244.895 1167.77 223.042 1165.26 200.444C1169.83 189.797 1176.73 179.953 1182.16 169.698C1189.77 155.311 1194.58 140.425 1198.93 124.829C1219.8 116.16 1241.99 107.588 1263.97 102.266Z"/><path fill="#FAFAFA" d="M1269.5 795.034C1280.18 793.648 1293.09 796.418 1303.88 797.208C1321.84 798.388 1339.81 799.381 1357.8 800.185C1236.52 839.359 1120.4 893.791 999.217 933.054C998.951 933.17 998.692 933.303 998.419 933.402C989.319 936.703 923.236 904.929 911.818 899.048C950.6 893.154 989.043 885.209 1026.98 875.246C1068.48 864.006 1109.28 849.372 1149.9 835.338C1189.69 821.696 1229.56 808.261 1269.5 795.034Z"/><path fill="#FAFAFA" d="M1289.08 504.618C1295.22 536.408 1295.6 536.496 1293.47 568.566C1280.39 588.21 1242.62 612.927 1225.03 631.003C1221.24 634.904 1216.94 638.583 1213.32 642.719C1213.58 642.42 1208.73 644.191 1208.32 644.358C1208.46 645.613 1208.66 648.171 1207.94 649.173C1200.32 659.895 1189.4 671.858 1182.88 683.163L1183.67 683.827L1182.12 686.84L1178.81 687.635L1179.13 689.197C1176.49 693.582 1169.11 700.617 1165.21 704.58L1164.09 703.414C1147.2 679.623 1134.75 654.787 1119.28 629.953C1127.22 657.372 1144.24 701.442 1155.51 727.264C1131.8 709.194 1110.1 687.189 1086.54 671.895C1097.7 653.758 1112.19 635.48 1131.59 625.575C1151.97 615.171 1156.63 616.765 1173.05 599.025C1190.13 594.256 1211.64 599.922 1225.23 594.861C1243.73 587.97 1248.39 545.94 1268.22 536.1C1270.92 534.759 1273.67 533.528 1276.38 534.352C1276.54 537.613 1272.75 551.173 1272.15 558.591C1279.93 542.581 1285.72 522.001 1289.08 504.618Z"/><path fill="#141414" d="M1182.88 683.163L1183.67 683.827L1182.12 686.84L1178.81 687.635L1179.13 689.197C1176.49 693.582 1169.11 700.617 1165.21 704.58L1164.09 703.414C1167.85 697.895 1172.91 693.697 1176.78 688.326C1176.16 686.687 1175.66 685.912 1174.53 684.569C1176.39 684.559 1178.17 684.971 1180 685.31L1182.88 683.163Z"/><path fill="#FAFAFA" d="M1192.39 126.965C1193.23 127.053 1193.33 127.362 1193.93 127.923C1190.47 141.766 1185.62 155.592 1178.77 168.137C1173.12 178.493 1166.42 188.32 1161.68 199.146C1164.12 221.429 1165.7 243.532 1158.69 265.223C1155.38 275.453 1149.94 284.915 1146.96 295.27C1144.77 302.849 1144.41 311.215 1143.69 319.058C1139.39 321.332 1135.9 323.511 1132.84 327.353C1124.55 337.748 1119.41 351.622 1113.8 363.6C1107.11 378.068 1100.23 392.448 1093.17 406.736L1090.26 397.758C1086.07 385.782 1080.52 374.068 1075.5 362.409C1078.04 345.545 1082.45 328.471 1087.99 312.334C1104.91 261.996 1127.12 213.591 1154.23 167.927C1160.88 156.797 1167.66 144.384 1177.04 135.316C1180.78 131.696 1187.69 129.266 1192.39 126.965Z"/><path fill="#FAFAFA" d="M790.527 900.409C798.854 898.864 823.445 903.451 833.835 903.823C855.906 904.615 878.118 903.21 900.053 900.827C927.083 914.153 953.527 926.498 981.764 937.099C967.944 940.396 954.222 943.558 940.237 946.094C864.231 959.235 814.305 943.702 749.909 905.076C763.471 904.031 777.018 902.012 790.527 900.409Z"/><path fill="#FAFAFA" d="M1160.3 317.14L1162.13 317.485C1161.53 334.438 1153.63 350.1 1151.9 366.863C1150.76 377.808 1153.92 388.085 1154.44 398.901C1154.65 403.273 1153.99 407.575 1152.34 411.634C1148.77 420.385 1142.01 427.654 1138.07 436.335C1132.7 448.163 1121.33 487.542 1115.04 494.581L1113.63 494.399C1111.71 491.164 1111.91 486.985 1111.73 483.314C1112.13 449.983 1104.39 445.701 1092.73 417.019C1104.46 391.683 1115.79 365.864 1128.55 341.041C1136.51 325.564 1144.3 322.257 1160.3 317.14Z"/><path fill="#FAFAFA" d="M1090.25 422.684C1093.36 425.32 1095.65 433.456 1097.38 437.315C1100.9 445.149 1106.23 453.625 1107.45 462.144C1109.21 474.402 1099.96 487.966 1098.62 500.464C1097.52 510.696 1099.94 520.785 1101.83 530.783C1092.72 552.144 1084.09 573.705 1075.94 595.449L1071.9 606.888C1068.95 589.27 1067.05 571.134 1060.61 554.384C1067.88 509.503 1077.84 466.402 1090.25 422.684Z"/><path fill="#FAFAFA" d="M1318.26 168.556C1323.08 173.476 1326.94 179.582 1330.93 185.195C1313.77 208.005 1302.37 238.379 1278.79 255.467C1269.06 262.514 1256.55 264.713 1246.9 271.874C1233.61 281.728 1220.47 295.379 1204.5 300.412C1199.73 300.009 1195.8 298.852 1191.34 297.261C1198.58 290.022 1207.35 282.506 1211.68 273.118C1238.75 258.894 1242.68 248.262 1263.1 228.414C1286.22 205.935 1299.85 197.591 1318.26 168.556Z"/><path fill="#FAFAFA" d="M1471.04 772.257C1518.6 770.538 1542.98 774.079 1587.97 790.52C1568.83 795.357 1547.89 796.578 1528.25 797.888C1488.37 799.909 1449.4 798.962 1409.76 794.17C1429.45 785.793 1450.83 779.531 1471.04 772.257Z"/><path fill="#FAFAFA" d="M1059.28 564.681C1064.32 569.773 1064.6 588.271 1066.06 595.767C1070.1 616.514 1083.55 644.312 1085.14 663.253C1085.35 665.667 1085.04 667.6 1083.46 669.533C1083.45 669.532 1083.45 669.532 1083.45 669.531C1074.74 665.903 1066.45 659.159 1058.33 654.178C1070.66 666.924 1082.35 682.321 1091.56 697.431C1096.09 705.226 1101.22 712.753 1106.08 720.351C1098.1 715.641 1073.04 700.808 1064.96 701.098C1063.53 701.149 1062.49 700.794 1061.23 700.129C1053.24 689.417 1057.55 583.713 1059.28 564.681Z"/><path fill="#FAFAFA" d="M1211.04 649.194C1227.85 665.5 1257.95 714.408 1266.18 736.153C1257.83 726.951 1248.54 720.123 1239.21 711.967C1233.07 706.598 1227.36 700.815 1221.37 695.262C1230.39 709.28 1241.9 724.555 1250.11 737.983C1228.61 720.004 1207.16 699.203 1182.12 686.84L1183.67 683.827C1192.68 674.005 1202.1 659.792 1211.04 649.194Z"/><path fill="#FAFAFA" d="M1400.25 304.641C1400.39 304.779 1400.54 304.902 1400.66 305.053C1402.09 306.853 1402.92 310.387 1403.66 312.593C1411.48 335.935 1410.03 361.542 1408.68 385.745C1401.9 387.582 1395.09 389.288 1388.24 390.862C1386.39 389.163 1384.71 387.234 1382.99 385.401C1377.78 377.573 1372.57 370.385 1365.6 364.021C1376.29 343.722 1389.92 325.217 1400.25 304.641Z"/><path fill="#FAFAFA" d="M1503.45 514.709C1504.81 519.176 1504.12 524.38 1503.94 529.005C1495.76 538.976 1486.92 548.06 1479.81 558.932C1468.37 576.413 1460.17 595.727 1449.11 613.386C1438.83 629.781 1426.34 644.413 1414.94 659.986C1406.04 672.155 1398.33 685.268 1388.79 696.951C1388.36 695.901 1388.15 694.907 1388.07 693.768C1387.62 686.615 1390.91 672.149 1394.45 665.659C1403.03 649.931 1425.07 628.949 1437.03 612.289C1451.91 591.579 1463.37 568.951 1477.41 547.793C1485.2 536.053 1494.34 525.421 1503.45 514.709Z"/><path fill="#FAFAFA" d="M1271.52 638.526C1271.85 638.755 1272.34 639.072 1272.64 639.371C1282.42 649.16 1301.77 704.587 1304.04 719.219C1305.3 727.287 1304.51 736.239 1304.33 744.406C1302.44 741.651 1300.69 738.773 1298.88 735.959C1288.76 718.164 1272.89 700.514 1258.46 685.985C1262.6 670.106 1266.95 654.285 1271.52 638.526Z"/><path fill="#FAFAFA" d="M1492.27 387.63C1495.43 391.571 1496.44 402.665 1497.48 407.866C1489.11 420.997 1479.02 433.238 1469.51 445.554C1450.48 470.181 1431.15 494.381 1414.16 520.496C1413.6 521.324 1413.42 521.161 1412.49 521.391C1408.98 496.352 1449.16 452.949 1463.65 432.654C1474.05 418.086 1483.69 403.352 1492.27 387.63Z"/><path fill="#FAFAFA" d="M1497.61 413.808C1498.56 415.04 1498.96 417.308 1499.26 418.849C1499.5 420.122 1499.67 422.316 1499.38 423.556C1498.23 428.551 1476.71 456.437 1472.72 462.102C1450.87 493.157 1431.78 525.92 1410.88 557.581L1409.74 557.788L1409.13 556.535C1409.51 549.069 1409.25 540.76 1411.96 533.73C1420.11 512.575 1455.39 470.264 1470.44 450.753C1479.69 438.581 1488.75 426.265 1497.61 413.808Z"/><path fill="#FAFAFA" d="M1502.74 491.767C1504.26 493.471 1504.44 495.98 1504.48 498.242C1504.73 511.3 1485.77 526.97 1478.73 537.325C1468.88 551.83 1460.65 567.609 1451.39 582.516C1435.89 607.819 1417.67 631.349 1397.06 652.686L1396.45 652.08C1396.4 647.305 1398.26 640.309 1400.76 636.196C1404.59 629.883 1410.33 623.905 1414.95 618.094C1420.77 610.754 1426.11 603.114 1431.42 595.396C1455.11 560.975 1477.1 524.749 1502.74 491.767Z"/><path fill="#FAFAFA" d="M1651.19 835.157L1651.44 832.902C1662.04 835.595 1683.42 858.001 1689.43 868.091C1695.25 877.867 1697.66 887.925 1699.31 899.068C1678.89 889.484 1663.4 878.746 1655.42 856.736C1653.33 850.974 1651.68 844.706 1650.97 838.613L1651.19 835.157Z"/><path fill="#141414" d="M1651.19 835.157C1659.19 845.742 1665.18 858.011 1672.97 868.877C1678.54 876.653 1689.12 886.222 1693.18 894.256C1678.55 883.117 1668.43 869.629 1659.52 853.716C1656.86 848.961 1654.56 842.662 1650.97 838.613L1651.19 835.157Z"/><path fill="#FAFAFA" d="M1499.37 434.645C1501.7 436.869 1501.4 441.461 1501.59 444.528C1487.76 460.968 1469.49 489.276 1458.41 508.078C1443.45 533.457 1430.11 564.323 1407.65 583.848L1406.3 583.437C1408.26 567.402 1485.18 455.057 1499.37 434.645Z"/><path fill="#FAFAFA" d="M1857.08 328.639C1877.74 358.572 1889.49 382.917 1870.72 417.619C1871.1 405.422 1872.09 386.007 1870 374.434C1868.72 378.071 1868.42 383.491 1867.4 384.728C1867.22 395.023 1866.87 405.314 1866.33 415.597C1852.77 383.318 1854.55 362.504 1857.08 328.639Z"/><path fill="#141414" d="M1867.4 384.728C1867.28 375.419 1867.25 366.109 1867.31 356.8C1868.41 362.588 1869.75 368.568 1870 374.434C1868.72 378.071 1868.42 383.491 1867.4 384.728Z"/><path fill="#FAFAFA" d="M1245.24 556.133L1246.02 556.334C1246.34 560.598 1236.27 579.826 1233.27 583.746C1221.93 598.603 1197.65 591.765 1181.23 593.81L1179.89 593.595C1180.01 592.91 1180.08 592.333 1180.5 591.752C1182.99 588.335 1187.06 585.055 1190.19 582.178C1207.03 566.66 1223.67 562.331 1245.24 556.133Z"/><path fill="#FAFAFA" d="M1502.37 576.638C1503.45 579.2 1503.34 583.314 1503.22 586.08C1502.73 597.302 1471.68 672.274 1464.68 683.206C1459.06 691.977 1450.27 699.082 1442.67 706.109C1442.03 701.866 1453.9 682.285 1456.54 677.217C1473.64 644.427 1483.09 608.428 1502.37 576.638Z"/><path fill="#FAFAFA" d="M1265.66 854.607C1269.16 857.232 1272.35 862.867 1274.76 866.58C1288.15 887.236 1285.89 905.758 1281.03 928.611C1266.32 914.929 1256.86 900.21 1256.12 879.592C1256.95 870.578 1258.51 862.696 1261.45 854.119C1265.26 875.045 1268.72 896.902 1276.53 916.763C1275.1 895.938 1268.07 875.383 1265.66 854.607Z"/><path fill="#FAFAFA" d="M1477.38 351.595C1479.46 353.225 1481 356.355 1482.45 358.577C1467.78 411.139 1445.39 426.713 1417.23 468.546C1416.89 469.125 1416.27 469.402 1415.72 469.77C1414.48 464.585 1415.68 460.94 1418.04 456.326C1424.7 443.304 1435.39 431.862 1443.09 419.289C1456.35 397.65 1466.69 374.56 1477.38 351.595Z"/><path fill="#FAFAFA" d="M1338.52 838.748C1368.66 845.855 1384.63 860.896 1403.01 884.587C1380 880.881 1356.77 878.407 1342.02 858.222C1338.44 852.536 1336.79 846.284 1335.02 839.88C1351.77 855.051 1367.27 868.825 1388.35 877.722C1383.66 873.252 1377.15 869.525 1371.87 865.616C1360.35 857.093 1349.13 848.381 1338.52 838.748Z"/><path fill="#FAFAFA" d="M1503.33 471.719C1503.56 472.768 1503.77 473.818 1503.89 474.886C1504.16 477.173 1504.29 480.175 1503.2 482.255C1497.07 493.881 1487.53 505.298 1480.18 516.301C1455.5 553.216 1430.49 590.716 1402.54 625.231C1402.43 624.81 1402.38 624.676 1402.31 624.202C1401.88 621.214 1403.44 617.179 1404.92 614.615C1413.93 598.931 1428.09 582.638 1438.45 567.264C1460.06 535.179 1479.32 502.197 1503.33 471.719Z"/><path fill="#FAFAFA" d="M1721.29 438.377C1740.71 419.305 1753.08 410.627 1780.87 410.157C1781.53 412.305 1782 412.592 1781.58 414.454C1766.59 418.016 1753.6 422.831 1740.41 430.829C1760.77 424.045 1777.81 419.046 1798.46 413.316C1797.63 414.116 1796.8 414.909 1795.96 415.696C1769.79 440.307 1755.09 439.374 1721.29 438.377Z"/><path fill="#FAFAFA" d="M1462.66 600.73C1463.8 604.374 1462.26 608.449 1460.82 611.784C1454.91 625.521 1444.4 638.309 1435.45 650.238C1419.86 671.008 1402.74 691.798 1389.69 714.25C1385.42 721.592 1379.09 740.779 1371.54 743.73C1370.39 743.317 1369.85 743.398 1369.19 742.298C1367.17 738.942 1368.57 733.496 1369.39 729.992C1373.72 719.274 1379.26 708.762 1384.2 698.292C1383.96 705.883 1383.92 713.266 1385.1 720.785C1385.65 716.987 1385.94 712.354 1387.56 708.876C1391.92 699.494 1399.77 690.426 1405.73 681.954C1424.87 654.766 1445.55 629.32 1462.66 600.73Z"/><path fill="#FAFAFA" d="M1361.67 146.49C1367.68 150.147 1373.46 154.188 1379.28 158.144C1374.77 177.64 1373.06 198.78 1370.43 218.636L1369.66 221.379L1368.3 221.296C1363.97 217.462 1361.16 211.581 1358.21 206.66C1357.78 186.51 1359.88 166.53 1361.67 146.49Z"/><path fill="#FAFAFA" d="M1501.54 452.799C1502.51 454.023 1502.74 454.929 1502.95 456.458C1503.43 459.842 1503.33 462.095 1501.72 465.152C1495.23 477.492 1484.24 487.832 1476.45 499.461C1465.13 516.375 1455.42 534.422 1444.22 551.437C1432.34 569.483 1418.82 586.702 1406 604.11C1405.83 603.953 1405.62 603.826 1405.48 603.638C1403.87 601.51 1404.7 595.149 1404.77 592.406C1431.1 574.774 1450.42 528.649 1467.39 501.679C1477.98 484.847 1489.83 468.859 1501.54 452.799Z"/><path fill="#FAFAFA" d="M1950.76 439.775L1952.47 440.304C1952.54 441.093 1952.59 441.745 1952.49 442.536C1951.73 448.651 1949.69 455.372 1948.1 461.359C1941.58 485.876 1932.09 494.769 1912.77 509.897C1920.31 493.78 1929.75 478.601 1937.1 462.368L1936.58 461.551C1931.41 463.252 1910.97 502.873 1907.46 509.452C1914.35 480.698 1925.53 456.536 1950.76 439.775Z"/><path fill="#FAFAFA" d="M1484.7 364.166C1487.91 367.33 1489.52 375.215 1490.93 379.502C1490.89 379.623 1490.84 379.744 1490.8 379.864C1480.32 407.717 1456.43 433.619 1438.42 456.959C1430.54 467.168 1423.29 477.781 1416.06 488.452L1414.75 490.098L1414.01 489.701C1414.01 470.991 1454.36 429.236 1465.25 410.497C1473.79 395.812 1479.42 380.213 1484.7 364.166Z"/><path fill="#FAFAFA" d="M1790.07 468.547C1820.02 458.263 1833.17 450.682 1865.61 460.471C1855.37 461.135 1846.28 461.482 1836.15 463.309C1839.09 465.267 1843.82 464.985 1847.5 465.115C1856.74 465.124 1865.92 464.531 1875.14 464.021C1843.51 480.156 1824.31 477.693 1790.07 468.547Z"/><path fill="#141414" d="M1821.22 465.417C1826.15 464.473 1831.16 463.925 1836.15 463.309C1839.09 465.267 1843.82 464.985 1847.5 465.115C1839.65 466.618 1829.17 466.075 1821.22 465.417Z"/><path fill="#FAFAFA" d="M1299.53 144.476C1305.08 147.448 1312.08 159.659 1316.02 164.973C1309.47 177.22 1299.9 188.407 1290.5 198.534L1280.43 208.495C1284.96 185.906 1289.99 165.593 1299.53 144.476Z"/><path fill="#FAFAFA" d="M441.189 529.291L440.237 529.044C442.42 503.826 462.599 491.115 482.746 480.682C475.352 506.261 472.742 519.124 445.279 529.584C443.924 529.846 442.625 529.495 441.189 529.291Z"/><path fill="#141414" d="M441.189 529.291C450.266 514.573 460.446 501.633 473.689 490.417C467.221 500.834 448.279 521.849 445.279 529.584C443.924 529.846 442.625 529.495 441.189 529.291Z"/><path fill="#FAFAFA" d="M671.287 848.427C708.38 871.495 738.456 884.699 780.088 897.7C768.226 898.972 756.09 899.381 744.303 901.055C719.166 887.045 694.896 869.313 671.935 852.004L671.287 848.427Z"/><path fill="#FAFAFA" d="M1502.49 561.759C1503.5 563.336 1503.64 563.571 1503.37 565.433C1502.26 572.949 1486.93 597.153 1482.62 605.925C1475.32 620.78 1469.99 636.657 1463.5 651.886C1457.98 664.856 1451.26 677.289 1445.43 690.122C1442.46 696.656 1440.38 705.079 1436.87 711.125C1436.01 712.606 1434.22 713.81 1432.85 714.794C1432.06 714.242 1432.21 714.558 1432.01 713.645C1431.2 710.023 1468.2 623.021 1472.83 613.761C1481.55 596.289 1491.34 577.746 1502.49 561.759Z"/><path fill="#FAFAFA" d="M782.145 729.754L783.492 731.051C783.848 733.396 784.037 735.763 784.058 738.135C784.19 749.189 783.701 769.726 776.655 778.795C772.482 784.166 766.027 788.761 761.189 793.71C764.606 779.931 769.744 766.626 774.515 753.274C775.037 752.087 775.209 751.456 775.094 750.16C768.463 755.892 762.427 777.576 759.425 786.734C759.21 784.688 759.029 782.639 758.881 780.587C757.089 757.495 768.185 746.065 782.145 729.754Z"/><path fill="#FAFAFA" d="M1469.22 336.346C1471.39 337.761 1473.14 340.126 1473.53 342.754C1475.25 354.438 1445.48 406.354 1437.7 418.77C1431.73 428.31 1425.13 437.402 1418.5 446.491L1417.32 447.879L1416.24 447.517C1415.93 445.06 1415.72 442.759 1416.58 440.371C1419.41 432.444 1425.59 425.042 1430.16 417.952C1436.61 407.945 1443.07 397.631 1448.49 387.028C1456.85 370.643 1463.25 353.716 1469.22 336.346Z"/><path fill="#FAFAFA" d="M1179.13 689.197C1191.38 704.353 1202.5 720.391 1212.4 737.182C1191.23 727.18 1181.57 721.995 1165.21 704.58C1169.11 700.617 1176.49 693.582 1179.13 689.197Z"/><path fill="#FAFAFA" d="M1428.68 243.631C1433.09 247.118 1436.5 258.72 1438.79 264.155C1432.1 278.892 1425.64 293.735 1419.42 308.677L1417.96 311.144C1415.7 310.03 1414.09 303.527 1413.11 300.974C1416.03 281.724 1422.37 262.024 1428.68 243.631Z"/><path fill="#FAFAFA" d="M1406.46 193.756C1410.14 197.633 1412.39 204.842 1414.57 209.721C1408.6 230.822 1405.94 253.92 1401.8 275.562L1401.14 275.689C1398.3 274.128 1396.25 269.346 1394.51 266.504C1396.4 242.353 1402.23 217.623 1406.46 193.756Z"/><path fill="#FAFAFA" d="M1447.36 287.697C1449.53 289.705 1450.65 293.882 1451.75 296.631C1442.08 321.789 1432.16 346.296 1420.67 370.697L1419.32 371.187C1419.38 364.648 1419.24 357.791 1420.47 351.35C1424.27 331.36 1438.41 306.51 1447.36 287.697Z"/><path fill="#FAFAFA" d="M518.948 556.921L519.74 557.54C520.534 559.82 519.648 562.167 519.079 564.433C513.549 586.432 504.772 596.645 485.334 608.284C492.12 595.956 500.083 584.283 508.083 572.724L508.593 570.732C501.166 573.342 487.234 598.287 482.868 605.319C484.113 599.718 485.507 593.94 487.527 588.567C493.574 572.482 503.633 563.905 518.948 556.921Z"/><path fill="#FAFAFA" d="M1416.19 214.649C1420.26 217.452 1424.53 230.747 1426.66 235.707C1420.91 253.25 1415.64 270.943 1410.83 288.767C1410.56 289.768 1409.98 290.729 1409.52 291.659C1407.36 290.666 1405.84 286.723 1404.63 284.578C1407.89 261.237 1412.19 237.886 1416.19 214.649Z"/><path fill="#FAFAFA" d="M1394.15 175.828C1398.43 178.851 1401.34 184.388 1404.18 188.71L1391.33 255.755L1390.66 257.349C1388.39 256.641 1385.97 251.477 1384.6 249.307C1385.5 237.91 1387.93 226.439 1389.58 215.114C1391.48 202.082 1392.74 188.921 1394.15 175.828Z"/><path fill="#FAFAFA" d="M1722.74 742.096L1723.44 743.461C1722.23 749.195 1721.05 755.031 1719.17 760.59C1713.34 777.838 1697.15 790.522 1681.31 798.364C1690.73 787.592 1700.08 776.945 1708.67 765.482C1711.05 762.337 1712.89 758.744 1714.84 755.323C1704.63 766.389 1695.46 778.391 1686.53 790.501C1693.18 763.833 1701.76 757.378 1722.74 742.096Z"/><path fill="#FAFAFA" d="M1381.5 160.467C1385.3 163.461 1388.53 167.742 1391.77 171.351C1387.56 193.702 1384.67 216.321 1380.98 238.769L1380.28 240.811C1377.73 239.481 1375.75 234.759 1374.3 232.227C1376.51 208.288 1379.48 184.425 1381.5 160.467Z"/><path fill="#FAFAFA" d="M563.033 843.768C574.634 843.757 585.28 844.925 595.835 850.064C603.555 853.822 616.535 863.098 619.405 871.45L617.925 871.549C616.556 871.922 615.14 872.494 613.718 872.383C592.081 869.771 578.482 857.765 563.033 843.768Z"/><path fill="#141414" d="M613.718 872.383C604.386 863.95 591.925 858.062 581.663 850.646C594.095 856.71 607.38 862.442 617.925 871.549C616.556 871.922 615.14 872.494 613.718 872.383Z"/><path fill="#FAFAFA" d="M327.228 473.731C328.101 474.496 328.469 475.285 328.882 476.367C338.605 501.862 335.407 510.993 324.737 534.663C319.358 523.922 315.383 514.291 315.257 502.073C316.165 494.361 319.564 487.027 322.561 479.948C320.772 496.161 318.743 509.127 325.242 524.687C322.982 508.166 322.606 489.913 327.228 473.731Z"/><path fill="#FAFAFA" d="M394.963 538.184C407.096 537.506 416.949 540.212 428.305 544.093C413.532 542.669 400.55 542.467 386.042 545.842C398.44 545.911 410.799 545.678 423.14 547.063L425.456 547.497C425.196 548.392 425.324 548.618 424.515 549.161C406.889 560.98 384.675 553.837 365.708 549.995C374.994 544.323 384.274 540.243 394.963 538.184Z"/><path fill="#FAFAFA" d="M1461.58 345.787C1463.24 358.809 1427.11 415.686 1417.74 428.385C1417.69 428.158 1417.62 427.934 1417.57 427.704C1416.73 423.527 1417.37 418.307 1418.82 414.335C1425.9 394.87 1449.75 364.998 1461.58 345.787Z"/><path fill="#FAFAFA" d="M1454.09 302.587C1455.67 305.255 1456.74 308.518 1457.92 311.395C1451.42 338.533 1435.18 365.078 1419.96 388.283L1418.59 388.592C1418.39 380.149 1431.15 360.81 1434.89 352.064C1441.83 335.792 1446.95 318.814 1454.09 302.587Z"/><path fill="#FAFAFA" d="M268.261 438.431C290.085 437.123 303.758 439.391 322.329 451.198C313.493 448.88 302.9 444.723 293.834 444.512L293.546 445.327L297.936 447.46C305.507 450.208 313.377 452.205 321.132 454.376C318.059 454.836 314.971 455.183 311.873 455.416C296.25 456.445 278.265 450.112 266.398 439.659L268.261 438.431Z"/><path fill="#FAFAFA" d="M1347.89 137.316C1351.55 139.23 1355.06 141.64 1358.58 143.803C1355.93 159.52 1353.41 175.235 1351.95 191.114C1351.91 192.921 1352.04 193.375 1350.97 194.894C1350.74 194.681 1350.51 194.479 1350.29 194.255C1344.5 188.295 1347.67 146.724 1347.89 137.316Z"/><path fill="#FAFAFA" d="M1336.7 129.918L1344.09 134.971C1344.06 150.351 1343.18 166.023 1342.25 181.377L1334.25 171.076C1333.53 157.682 1333.23 142.96 1336.7 129.918Z"/><path fill="#FAFAFA" d="M1322.93 121.487L1332.94 127.154C1331.15 139.152 1330.01 151.235 1329.51 163.354C1326.51 162.893 1323.14 156.703 1321.22 154.12C1320.85 143.181 1321.94 132.364 1322.93 121.487Z"/><path fill="#FAFAFA" d="M1812.23 352.722C1813.62 352.808 1815.16 352.9 1816.46 353.453C1819.04 354.549 1821.25 356.728 1822.11 359.423C1823.04 362.338 1822.16 365.75 1820.62 368.315C1818.22 372.328 1814.85 373.053 1810.63 374.173C1808.17 373.555 1805.3 372.671 1803.48 370.786C1801.77 369.014 1801.28 366.925 1801.58 364.538C1802.25 359.273 1808.24 355.306 1812.23 352.722Z"/><path fill="#FAFAFA" d="M1460.89 317.275C1462.67 320.382 1464.6 323.543 1465.93 326.851C1455.85 350.449 1443.99 359.159 1434.47 376.344L1432.65 375.981C1445.7 353.413 1452.02 342.299 1460.89 317.275Z"/><path fill="#FAFAFA" d="M1441.68 273.608C1443 274.602 1444.28 276.719 1444.66 278.311C1446.39 285.544 1426.25 318.356 1422 326.539L1421.23 327.155L1420.3 326.169C1421.95 310.264 1434.76 287.983 1441.68 273.608Z"/><path fill="#FAFAFA" d="M1310.32 114.316L1320.18 119.515C1318.83 129.096 1318.3 138.814 1317.56 148.459L1316.74 148.647C1313.93 147.795 1311.99 145.273 1309.98 143.225C1309.52 133.59 1309.63 123.937 1310.32 114.316Z"/><path fill="#FAFAFA" d="M1107.39 481.67C1109.81 489.09 1108.38 494.18 1113.14 501.223L1105.31 521.659L1104.59 522.696L1103.48 521.855C1099.79 507.582 1102.5 495.229 1107.39 481.67Z"/><path fill="#FAFAFA" d="M1501.98 637.605C1504.83 644.607 1502.08 658.149 1501.37 665.837C1496.78 668.901 1492.44 672.585 1488.07 675.973C1486.9 671.517 1499.69 643.371 1501.98 637.605Z"/><path fill="#FAFAFA" d="M1126.97 739.354C1119.15 724.64 1107.41 712.335 1098.72 698.139C1110.17 709.936 1121.72 721.627 1133.39 733.21C1130.61 733.722 1129.61 733.868 1127.37 735.736C1127.07 736.978 1126.73 738.067 1126.97 739.354Z"/><path fill="#FAFAFA" d="M874.901 889.318C875.052 889.275 875.198 889.215 875.353 889.19C879.12 888.586 884.472 892.879 887.586 894.788C878.204 895.905 868.681 896.22 859.25 896.773C853.405 896.893 847.555 896.692 841.711 896.559C852.747 893.943 863.752 891.417 874.901 889.318Z"/><path fill="#FAFAFA" d="M1300.6 109.612L1304.7 111.466C1308.5 115.427 1305.53 130.445 1305.5 136.4C1303.25 135.364 1301.27 132.101 1299.72 130.165C1299.76 123.285 1300.12 116.475 1300.6 109.612Z"/><path fill="#FAFAFA" d="M1292.16 106.165C1293.85 106.753 1294.71 107.388 1295.97 108.632C1297.19 114.366 1296.05 120.757 1295.8 126.625C1294.18 125.083 1292.12 123.333 1291.06 121.347C1288.68 116.875 1291.01 110.771 1292.16 106.165Z"/><path fill="#FAFAFA" d="M1282.89 103.148C1284.67 103.575 1285.87 104.111 1287.41 105.093C1288.48 108.866 1287.23 111.631 1286.28 115.345C1284.93 114.322 1283.74 112.882 1282.55 111.67C1281.22 108.639 1282.1 106.202 1282.89 103.148Z"/><path fill="#767676" d="M1434.47 376.344C1430.98 381.756 1427.15 388.204 1422.88 392.911C1424.2 388.62 1429.66 379.296 1432.65 375.981L1434.47 376.344Z"/><path fill="#FAFAFA" d="M1780.87 410.157C1784 410.494 1789.09 410.64 1791.42 412.316C1788.79 413.807 1784.7 414.058 1781.58 414.454C1782 412.592 1781.53 412.305 1780.87 410.157Z"/><path fill="#B9B9B8" d="M661.61 841.517C664.708 843.672 668.612 845.813 671.287 848.427L671.935 852.004L660.825 843.239L661.61 841.517Z"/><path fill="#767676" d="M660.825 843.239C657.323 840.571 653.256 837.98 650.815 834.261C654.705 834.944 658.592 839.057 661.61 841.517L660.825 843.239Z"/><path fill="#9C9C9C" d="M1305.52 702.017C1304.21 698.667 1303.46 697.213 1303.39 693.595C1305.25 694.63 1306.31 698.375 1307.35 700.778L1305.52 702.017Z"/><path fill="#9C9C9C" d="M1148.75 698.357C1146.42 693.173 1145.38 690.008 1143.73 684.673C1146.13 688.649 1147.89 691.926 1149.98 696.076L1148.75 698.357Z"/><path fill="#060606" d="M308.742 277.319C321.946 260.191 335.956 251.292 357.564 248.329C398.936 242.655 449.54 268.382 433.355 317.738C448.997 315.651 456.566 316.15 471.263 323.098C490.29 287.961 552.529 282.949 564.978 326.329C565.095 326.744 565.207 327.161 565.312 327.579C586.862 323.643 605.809 324.401 612.165 349.075C632.573 348.996 641.11 351.934 657.998 363.466C635.737 355.426 630.487 353.606 606.551 353.687C602.896 327.617 576.571 330.313 557.46 337.431C557.346 313.156 543.324 304.349 519.766 303.21C508.045 302.643 470.548 314.6 476.927 330.485L476.123 331.562C468.646 331.541 465.604 329.975 458.808 327.044C444.565 320.9 430.924 325.134 417.414 330.911C424.406 319.837 431.964 305.217 427.787 292.125C412.737 244.955 335.149 243.116 311.536 283.2C310.839 284.386 310.192 285.6 309.594 286.84C293.402 271.751 277.051 259.043 258.3 279.648C255.521 282.715 252.854 285.882 250.306 289.144C243.403 284.976 234.697 279.711 226.183 281.504C219.296 282.953 218.176 288.958 212.004 290.371C188.171 273.074 178.861 265.05 147.746 262.82L148.061 261.91C150.273 259.926 154.136 260.685 157.789 260.679C178.571 261.962 196.686 268.122 211.774 283.085C223.406 271.692 235.769 272.965 249.422 280.326C267.807 254.44 287.126 255.096 308.742 277.319Z"/><path fill="#060606" d="M671.737 171.281C676.038 170.771 680.92 170.794 685.233 171.162C703.632 172.756 720.633 181.625 732.467 195.803C744.451 210.172 750.738 228.494 748.917 247.206C746.886 266.744 737.279 284.708 722.158 297.246C708.453 308.428 692.732 311.92 675.338 310.176C690.9 307.389 704.685 303.781 717.055 293.414C730.96 281.761 740.633 264.773 742.131 246.574C743.687 227.655 736.791 212.772 724.932 198.66C722.602 196.194 720.115 194.049 717.387 192.036C703.118 181.506 685.566 177.438 668.057 180.111C652.052 182.554 636.826 191.243 627.287 204.435C618.353 216.888 614.786 232.403 617.383 247.507C620.778 267.429 632.368 279.553 648.237 290.786C642.571 288.41 637.091 285.83 632.099 282.204C620.074 273.47 612.093 261.443 609.845 246.62C607.288 229.894 611.533 212.841 621.634 199.266C633.968 182.717 651.672 174.185 671.737 171.281Z"/><path fill="#060606" d="M1582.99 830.859C1592.45 843.489 1604.92 851.4 1611.47 866.474C1619.7 885.405 1617.79 903.783 1610.39 922.523L1607.65 922.518C1589.59 910.569 1577.8 881.712 1579.52 860.22C1580.37 849.594 1586.77 841.586 1582.99 830.859Z"/><path fill="#FAFAFA" d="M1587.52 844.788C1589.18 847.216 1596.97 894.716 1603.34 908.29C1599.3 887.37 1596.25 866.023 1590.92 845.4C1595.05 849.475 1598.55 853.621 1601.98 858.298C1602.29 858.834 1602.6 859.373 1602.91 859.914C1613.76 879.035 1613.76 896.848 1608.03 917.6C1602.68 912.235 1597.73 906.414 1593.83 899.896C1583.32 882.308 1582.55 864.254 1587.52 844.788Z"/><path fill="#060606" d="M1492.09 818.49C1495.19 820.288 1496.32 823.257 1497.84 826.346C1511.34 832.49 1523.78 842.176 1531.26 855.187C1539.97 870.323 1539.23 886.462 1534.87 902.684C1534.48 902.723 1533.85 902.819 1533.42 902.76C1525.67 901.696 1512.7 888.998 1507.98 882.942C1495.04 866.355 1493.33 847.617 1495.81 827.429C1494.44 824.531 1493.31 821.459 1492.09 818.49Z"/><path fill="#FAFAFA" d="M1502.39 832.754L1513.03 841.305C1516.53 844.396 1520.18 847.787 1523.06 851.488C1534.05 865.621 1534.18 880.684 1532.03 897.501C1525.5 892.967 1519.19 888.408 1513.92 882.412C1502.25 869.156 1497.97 852.179 1499.02 834.777C1502.85 839.943 1505.11 848.139 1507.61 854.12C1511.86 864.262 1516.2 873.81 1522.08 883.139L1523.81 883.501L1522.72 884.102L1524.1 885.717C1523.92 879.441 1506.08 841.412 1502.39 832.754Z"/><path fill="#060606" d="M326.842 367.886C338.874 378.991 349.474 393.477 353.727 409.477C357.646 424.221 356.069 438.218 348.395 451.448L346.823 451.414C339.503 443.728 331.429 436.302 326.438 426.803C317.1 409.029 321.214 386.217 326.842 367.886Z"/><path fill="#FAFAFA" d="M328.478 375.591C333.084 379.665 337.125 385.35 340.363 390.568C351.506 408.524 352.647 425.626 347.924 445.888C344.479 429.615 343.877 413.229 338.917 397.182L337.509 394.945C335.944 399.314 342.739 434.557 344.208 442.283C340.429 438.138 336.736 433.929 333.597 429.268C322.524 412.826 324.814 393.944 328.478 375.591Z"/><path fill="#060606" d="M1648.04 487.055C1648.12 495.088 1626.33 517.847 1620.75 523.719C1643.06 513.674 1665.19 503.06 1687.54 493.177C1680.44 501.906 1672.2 509.789 1663.85 517.306C1684.2 511.651 1704.54 508.012 1725.71 507.847C1716.52 511.842 1678.25 526.911 1670.23 526.744C1676.74 521.352 1690.7 517.238 1698.75 513.768C1679.49 516.645 1660.71 521.507 1642.1 527.131C1647.19 524.287 1651.9 521.347 1656.55 517.828C1660.41 514.677 1664.13 511.343 1667.9 508.085C1643.72 518.425 1619.37 529.233 1594.96 538.933C1607.44 529.962 1618.5 520.318 1628.69 508.798C1599.04 528.564 1568.51 542.473 1534.23 551.836C1549.23 544.626 1564.92 538.835 1579.9 531.466C1604.66 519.294 1626.23 503.798 1648.04 487.055Z"/><path fill="#060606" d="M625.824 692.306C640.38 691.474 657.562 696.167 669.173 705.113C672.884 707.954 676.107 711.381 678.715 715.258C681.074 718.737 693.317 743.657 693.75 746.972C690.847 743.684 687.764 739.424 684.286 736.795C681.677 734.823 677.595 733.734 674.555 732.559C661.499 727.51 649.902 723.672 640.265 712.808C637.344 709.516 625.61 696.08 625.824 692.306Z"/><path fill="#FAFAFA" d="M634.355 696.923C638.738 697.588 642.954 698.447 647.181 699.803C662.953 704.863 673.714 713.579 681.353 728.379C674.19 721.709 667.095 716.155 658.447 711.514L657.068 711.371C658.01 714.108 673.623 725.444 677.186 728.637C657.597 721.739 646.468 714.093 634.355 696.923Z"/><path fill="#060606" d="M1059.72 772.35C1063.19 771.931 1067.21 772.326 1070.62 773.013C1087.27 776.361 1097.45 793.613 1106.1 806.709C1101.48 803.064 1097.05 799.792 1091.84 797.009C1084.44 794.886 1076.58 797.369 1069.09 795.236C1057.69 791.988 1047.6 781.884 1036.4 777.012C1044.14 775.125 1051.78 773.225 1059.72 772.35Z"/><path fill="#FAFAFA" d="M1048.21 778.881C1058.83 779.072 1077.38 784.202 1085.64 791.277C1066.6 792.928 1063.48 787.471 1048.21 778.881Z"/><path fill="#FAFAFA" d="M1056.19 776.496C1060.42 776.077 1064.56 775.906 1068.78 776.448C1078.02 777.633 1084.07 782.902 1089.55 790.051C1083.49 786.759 1057.63 778.104 1056.19 776.496Z"/><path fill="#060606" d="M929.807 544.003L930.367 545.557C926.671 554.509 921.808 562.934 915.904 570.612C921.878 569.925 927.866 569.383 933.866 568.985C925.389 571.105 916.901 573.178 908.402 575.204L916.835 563.792C897.606 573.564 878.09 581.12 856.784 584.789C861.908 578.995 866.919 573.162 871.738 567.109C850.782 580.785 827.618 586.568 803.241 590.792C800.001 591.326 796.934 591.904 793.64 591.583L794.099 591.133C794.834 591.143 795.483 591.114 796.178 590.841C803.487 587.968 811.129 586.939 818.677 584.906C843.58 578.201 866.252 568.63 885.743 551.384C879.943 561.723 873.262 571.154 865.843 580.391C883.014 576.03 907.867 567.146 921.169 555.173C924.699 551.996 927.246 547.961 929.807 544.003Z"/><path fill="#141414" d="M680.614 205.267C683.527 205 686.579 204.754 689.508 204.856C702.427 205.306 713.655 211.452 722.392 220.657C721.763 221.102 710.096 213.614 708.401 212.665C699.324 207.583 689.491 206.231 679.275 208.295C668.37 210.398 658.771 216.805 652.647 226.07C648.069 233.121 646.321 241.424 648.262 249.658C650.084 257.386 654.773 264.364 661.564 268.554C670.677 274.175 681.215 274.129 691.308 271.741C694.543 270.329 697.728 268.671 700.467 266.419C707.939 260.277 709.704 251.063 710.396 241.973L711.141 241.762C711.332 242.199 711.367 242.255 711.534 242.765C713.206 247.844 711.643 255.966 709.297 260.706C705.64 268.092 698.387 272.859 690.712 275.3C681.266 278.378 670.975 277.481 662.204 272.815C654.174 268.532 647.647 261.019 645.031 252.245C642.491 243.726 643.582 234.831 647.885 227.074C654.983 214.277 667.285 209.058 680.614 205.267Z"/><path fill="#060606" d="M726.047 236.691C729.461 243.402 730.563 251.052 729.18 258.453C726.562 273.152 716.105 282.724 704.542 290.93L703.327 290.862C704.238 287.444 712.89 281.155 715.635 277.745C725.748 265.184 727.662 252.212 726.047 236.691Z"/><path fill="#060606" d="M788.938 258.17C789.111 258.154 789.283 258.136 789.455 258.122C794.842 257.697 804.086 257.616 808.297 261.333C808.974 261.93 808.747 263.511 808.786 264.415L807.894 264.56C803.214 265.293 794.784 266.105 790.859 262.904C789.042 261.422 789.239 260.375 788.938 258.17Z"/><path fill="#141414" d="M779.712 153.766L781.427 155.652C780.094 161.03 770.765 166.239 766.411 169.335C765.3 168.548 764.821 167.618 764.169 166.465C764.22 165.878 764.298 165.323 764.496 164.762C766.239 159.828 775.233 155.738 779.712 153.766Z"/><path fill="#060606" d="M795.675 204.165C797.273 204.038 798.957 203.844 800.558 203.934C802.952 204.069 803.882 204.479 805.402 206.174C803.805 208.69 802.023 209.087 799.37 210.361C798.402 210.635 797.429 210.895 796.453 211.139C793.112 211.964 791.359 211.86 788.421 210.098L788.349 208.156C790.061 205.629 792.922 205.046 795.675 204.165Z"/><path fill="#060606" d="M769.292 304.817C773.218 304.718 776.903 307.071 779.75 309.616C782.638 312.197 783.82 314.529 784.092 318.321C780.957 317.784 777.236 316.53 774.664 314.616C771.206 312.043 769.961 308.948 769.292 304.817Z"/><path fill="#060606" d="M543.521 190.089L544.399 189.953C548.896 189.298 554.883 190.066 558.551 193.01C560.979 194.959 561.367 196.062 561.774 199.075C557.715 198.958 553.059 197.359 549.369 195.746C546.204 194.364 544.813 193.251 543.521 190.089Z"/><path fill="#323031" d="M1666.17 358.962C1681.07 360.244 1695.96 361.739 1710.82 363.445C1708.91 364.009 1706.71 364.476 1705.13 365.624C1693.95 365.006 1678.3 360.685 1666.98 361.08L1666.17 358.962Z"/><path fill="#060606" d="M729.349 337.494C732.148 337.835 734.014 338.765 735.922 340.856C739.293 344.549 740.365 348.945 740.107 353.825C738.082 353.116 736.099 352.113 734.55 350.602C730.832 346.973 729.475 342.568 729.349 337.494Z"/><path fill="#060606" d="M579.037 143.631C580.522 143.813 581.975 144.194 583.359 144.761C589.144 147.128 592.624 153.017 594.894 158.509C594.754 158.499 594.613 158.495 594.473 158.479C594.241 158.454 594.012 158.409 593.78 158.386C592.37 158.245 591.294 158.062 590.064 157.328C585.013 154.314 580.394 149.449 579.037 143.631Z"/><path fill="#060606" d="M735.877 121.733C737.439 122.986 737.398 122.948 737.727 124.926C735.955 130.014 732.167 134.257 728.931 138.496C726.73 137.671 726.741 137.675 725.702 135.565C726.203 130.11 732.139 125.347 735.877 121.733Z"/><path fill="#060606" d="M682.17 104.823C683.287 105.569 684.074 106.32 684.531 107.623C686.226 112.457 684.884 121.736 682.569 126.243C681.7 125.458 680.773 124.429 680.249 123.372C677.776 118.388 680.278 109.688 682.17 104.823Z"/><path fill="#060606" d="M629.954 114.27C631.642 114.473 632.63 115.07 634.053 115.969C637.298 121.085 638.122 126.366 637.877 132.348C636.897 131.959 636.045 131.511 635.249 130.802C631.334 127.312 630.355 119.137 629.954 114.27Z"/><path fill="#4F4E4F" d="M147.746 262.82C143.332 263.294 122.572 263.81 118.1 263.755L118.512 263.273L119.315 263.824L117.875 263.515C125.355 261.307 150.586 258.4 157.789 260.679C154.136 260.685 150.273 259.926 148.061 261.91L147.746 262.82Z"/><path fill="#060606" d="M533.184 241.411C536.13 240.971 539.572 240.88 542.532 241.203C545.127 241.486 546.308 241.984 547.9 243.989L546.76 246.387C543.684 246.743 539.777 246.893 536.749 246.309C534.37 245.85 533.719 245.384 532.349 243.477L533.184 241.411Z"/><path fill="#9C9C9C" d="M1666.98 361.08C1658.63 360.093 1650.83 360.136 1641.98 358.983C1644.76 357.082 1662.15 358.555 1666.17 358.962L1666.98 361.08Z"/><path fill="#4F4E4F" d="M665.414 591.475C660.4 594.092 651.916 596.678 646.475 598.405C652.316 594.555 658.297 592.346 664.747 589.667L665.414 591.475Z"/></svg>