<?xml version="1.0" encoding="utf-8" ?><svg xmlns="http://www.w3.org/2000/svg" xmlns:xlink="http://www.w3.org/1999/xlink" width="2048" height="1024" viewBox="0 0 2048 1024"><path fill="#252120" d="M1443.86 154.319C1463.35 117.117 1473.81 102.138 1516.12 89.1239C1535.18 83.2627 1556.01 67.1383 1538.24 45.2221C1536.62 43.2134 1533.86 43.1998 1531.49 43.4003C1528.86 45.2808 1526.58 46.8351 1527.53 50.3506C1529.84 52.4285 1532.4 52.5498 1535.55 53.1726L1535.61 54.0984L1533.58 56.1512C1526.47 57.7317 1522.34 51.7754 1523.86 45.1961C1527.18 39.7367 1534.04 39.5181 1539.3 42.022C1559.33 51.5565 1551.39 83.5385 1543.77 98.9388C1532.32 122.09 1511.78 141.54 1486.4 148.016C1475.93 150.781 1464.46 152.345 1454.37 155.825C1472.48 159.948 1482.12 162.859 1501.16 164.017C1533.14 165.961 1559.14 159.267 1590.21 154.835C1611.46 151.745 1632.95 150.61 1654.41 151.446C1684.52 152.845 1717.96 161.455 1747.94 167.043C1773.07 171.727 1792.66 173.669 1817.86 175.8C1781.92 185.492 1755.29 202.761 1720.55 210.175C1674.84 219.929 1633.07 205.764 1592.85 185.213C1582.57 181.278 1562.86 169.465 1552.39 168.522C1534.26 166.888 1513.67 169.304 1494.77 168.001C1508.15 172.184 1518.3 175.686 1531.26 180.993C1589.82 204.985 1633.84 245.443 1676.23 291.256C1693.91 310.366 1712.92 330.308 1734.35 346.219C1757.87 363.527 1795.43 368.093 1808.97 396.269C1816.42 411.774 1798.77 424.927 1790.71 408.906C1788.73 404.972 1792.39 398.501 1797.1 397.344C1796.01 402.623 1794.8 405.68 1798.21 410.068L1800.68 410.152C1813.74 401.235 1796.01 385.613 1788.42 380.305C1777.17 396.053 1752.06 384.105 1758.84 372.473C1764.96 373.642 1770.29 388.393 1778.85 384.614C1780.86 382.03 1780.94 381.578 1781.6 378.355C1778.38 372.765 1737.18 357.134 1729 351.146C1690.52 322.946 1657.48 289.186 1619.83 259.694C1631.37 281.372 1661.12 332.289 1645.4 355.405C1649.46 364.388 1655.22 374.18 1652.33 384.392C1650.84 390.707 1644.38 398.093 1637.25 394.457C1631.69 391.623 1627.53 387.253 1630.71 380.783C1633.86 378.188 1632.38 378.808 1636.26 378.254C1639.8 379.811 1638.87 378.898 1640.88 381.58C1638.6 382.464 1637.03 382.808 1634.69 383.377L1634.04 385.017C1635.71 388.778 1640.44 393.479 1644.9 391.709C1650.64 382.799 1645.55 367.701 1641.77 358.934C1629.69 359.476 1609.76 351.75 1618.96 337.062C1627.67 331.852 1637.07 343.66 1642.71 349.63L1644.62 348.986C1648.23 344.978 1646.39 339.046 1645.49 334.264C1640.31 306.83 1626.09 282.377 1611.61 258.914C1602.25 243.742 1586.71 234.086 1571.87 224.926C1534.42 201.376 1493 184.815 1449.63 176.047C1489.81 235.676 1495.22 287.221 1433.51 334.021C1459.39 287.143 1420.88 272.96 1419.72 229.075C1419.23 210.622 1433.97 196.129 1437.69 173.17C1425.25 170.017 1408.52 167.921 1395.8 166.223C1324.84 156.748 1257.15 162.074 1187.02 174.67C1146.24 181.997 1111.48 188.707 1071.72 201.611C1078.18 201.896 1084.01 202.206 1090.37 200.705C1135.2 190.128 1182.74 181.165 1228.13 193.826C1276.04 207.191 1308.15 244.31 1341.73 278.213C1327.9 274.708 1312.57 270.975 1298.5 269.419C1271.86 266.473 1247.59 266.069 1221.19 259.741C1200.42 255.287 1180 246.805 1160.77 238.361C1130.34 225.118 1100.75 205.66 1066.07 209.721C1058.08 210.657 1050.65 210.041 1042.61 212.595C1026.81 217.615 1011.44 223.844 995.98 229.787C885.433 272.278 791.266 347.977 716.975 439.238C742.423 419.418 768.547 405.025 794.867 383.874C896.329 302.337 1004.68 276.91 1132.47 301.797C1076.36 308.067 1052.54 329.23 1004.62 354.571C979.999 367.54 954.4 378.551 928.056 387.503C891.114 399.712 860.588 402.135 822.418 403.975C811.801 405.86 785.045 404.177 776.153 408.201C752.988 418.683 722.074 441.187 702.79 457.611C695.868 463.507 681.917 483.708 676.728 490.698C638.374 542.363 605.223 597.268 564.056 646.861C558.03 654.134 548.165 665.754 543.701 673.778C551.064 669.01 558.168 663.884 565.156 658.587C698.585 557.448 834.964 469.393 1008.04 459.67C1027.53 438.431 1035.69 417.849 1053.1 397.577C1082.29 363.562 1125.72 349.17 1168.61 342.801C1178.27 341.552 1188.92 337.602 1198.54 336.856C1206.63 336.227 1225.89 339.5 1225.77 350.396C1225.77 352.296 1224.98 354.111 1223.59 355.408C1219.64 359.122 1214.82 358.344 1211.32 354.632C1210.71 351.507 1210.7 351.114 1211.4 348.011L1213.06 348.176L1217.05 353.317L1218.48 353.314C1221.62 328.924 1173.48 344.919 1166.22 356.032C1162.55 361.667 1157.28 368.113 1153.99 374.127C1125.93 425.452 1085.41 443.179 1031.24 456.524C1036.88 459.444 1049.14 455.74 1053.74 458.674C1092.48 460.033 1151.19 466.898 1186.89 482.435C1197.46 472.438 1203.19 470.277 1217.68 468.577C1225.03 458.662 1230.89 451.179 1240.55 443.722C1265.88 424.187 1299.3 410.77 1308.77 377.007C1313.75 359.214 1313.33 346.967 1297.51 335.581C1296.93 335.163 1296.34 334.747 1295.76 334.336C1339.37 338.426 1396.22 366.452 1364.06 418.55C1395.23 413.76 1426.83 411.765 1457.4 403.661C1464.29 401.834 1471.17 399.952 1478.04 398.028C1469.6 430.76 1455.48 448.894 1431.06 471.052C1471.9 491.539 1501.67 514.23 1526.28 553.301C1469.11 550.441 1447.52 559.596 1393.61 573.841C1430.89 602.373 1449.45 619.478 1449.65 668.12C1443.29 664.565 1431.25 655.788 1425.86 653.394C1397.18 640.668 1361.78 633.109 1331.18 625.375C1346.91 683.086 1289.77 702.143 1244.67 704.782C1260.39 690.811 1274.26 675.6 1275.6 653.015C1278.05 611.787 1229.03 584.563 1211.26 550.897C1205.49 539.963 1204.05 533.467 1201.59 521.563C1189.76 514.472 1186.52 510.458 1181.58 497.279C1168.87 491.411 1146.89 486.189 1132.59 483.315C1035.63 463.825 934.145 479.858 841.978 512.801C789.077 531.709 752.189 554.078 704.998 581.598C763.64 568.519 817.769 561.381 877.946 571.881C890.528 574.076 907.922 579.442 919.34 580.769C947.48 584.039 962.827 585.778 989.372 597.806C1017.63 590.1 1036.45 595.139 1061.91 609.126C1107.42 634.134 1114.17 671.869 1138.19 709.01C1132.11 708.273 1124.54 707.536 1118.65 706.406C1106.28 714.654 1088.71 712.738 1074.75 709.755C1033.87 701.019 989.301 675.26 971.956 635.678C960.827 630.574 954.063 626.765 944.525 619.07C940.292 615.655 926.744 601.69 923.221 600.334C854.446 573.873 774.978 578.747 704.862 597.549C689.44 601.685 673.073 604.036 659.464 612.349C639.669 625.412 621.205 640.465 601.032 653.06C622.769 648.051 648.093 643.973 669.688 639.512C711.591 630.857 759.66 643.34 795.067 665.938C828.922 686.717 846.945 710.242 888.004 715.351C872.941 718.169 853.641 722.954 838.9 724.008C786.665 727.743 735.505 707.034 691.37 680.733C678.268 672.778 657.785 657.451 643.35 653.472C633.669 650.804 594.838 658.428 586.892 663.816C564.467 679.021 538.32 701.332 517.277 718.314C483.711 745.4 448.838 770.714 415.415 797.625C508.568 756.698 593.811 715.374 698.931 754.097C740.823 769.528 773.585 800.528 816.389 814.193L817.271 817.073C773.334 816.361 727.803 822.08 684.093 823.89C618.822 826.592 559.849 810.217 498.57 789.967C490.776 787.392 466.775 783.02 458.779 785.854C437.762 793.304 415.282 802.925 395.508 813.406C389.213 817.019 368.413 834.306 361.345 839.701C339.979 856.068 318.239 871.941 296.142 887.307C266.27 908.181 240.519 923.492 208.98 941.227C218.546 940.064 228.368 939.445 237.978 938.524C352.165 927.588 464.652 902.871 578.731 890.579C644.482 883.266 710.689 880.883 776.797 883.45C867.45 886.744 947.568 896.81 1037.03 910.131C1165.53 928.722 1297.59 959.1 1427.68 937.469C1470.59 930.333 1566.23 907.149 1556.14 847.436C1548.23 806.946 1498.56 781.817 1459.98 787.737C1450.21 789.236 1432.77 797.766 1434.74 810.997C1435.34 815.03 1438.99 821.541 1442.84 823.728C1447.91 822.838 1444.37 819.065 1450.01 815.452C1454.17 812.779 1459.24 811.921 1464.04 813.076C1470.26 814.626 1475.56 821.94 1473.29 827.574C1467.98 840.763 1443.45 840.547 1432.98 837.111C1417.05 833.378 1405.81 815.225 1412.85 799.393C1428.71 763.743 1489.05 763.491 1519.83 774.767C1546.22 783.888 1569.86 801.879 1582.32 827.561C1610.43 885.525 1546.81 921.187 1504.23 941.613C1520.1 940.434 1536.59 935.472 1551.98 931.561C1646.78 907.463 1731.45 852.573 1830.82 845.99C1873.96 843.132 1924.59 850.478 1958.17 880.134C1970.26 890.806 1980.32 905.308 1981.19 921.864C1981.58 929.072 1980.26 936.084 1975.2 941.514C1955.78 962.342 1867.43 973.007 1838.29 974.999C1812.61 976.755 1786.74 976.565 1761 976.666L1657.71 976.836L1355.02 976.808L541.035 976.429L289.016 976.321L212.319 976.484C194.483 976.43 176.702 976.347 158.856 976.527C140.395 976.887 126.66 984.604 107.717 985.239C83.0056 986.067 67.1929 978.91 67.0286 951.197C66.6823 892.774 66.8006 834.271 66.7682 775.81L66.851 423.252L66.9768 224.038L66.8487 168.651C66.7237 142.283 63.6984 119.004 84.0722 98.6226C119.376 63.3051 178.408 46.555 226.929 44.174C262.07 42.4495 302.399 53.5069 328.195 77.6582C352.461 99.845 361.815 139.408 336.537 164.981C326.782 174.755 313.494 180.177 299.686 180.019C287.973 179.904 274.199 176.375 265.64 167.655C250.624 153.975 264.138 136.399 281.516 139.201C304.544 142.913 292.884 153.553 291.042 162.727C293.551 164.378 297.511 164.903 300.469 164.916C317.107 164.99 325.803 148.722 325.51 133.884C324.824 99.1265 295.338 78.0524 264.845 69.3136C252.989 65.8009 242.46 68.8539 231.391 72.6276C148.464 100.9 103.499 180.168 95.647 263.975C94.2803 278.563 94.8359 294.464 95.0873 309.34C100.561 296.663 104.968 286.296 113.426 275.202C146.283 232.103 213.525 221.476 256.713 255.205C269.358 265.081 278.27 278.626 280.143 294.983C281.806 308.629 277.827 322.362 269.126 333.005C257.748 346.977 233.04 352.313 219.178 340.572C217.82 337.378 217.87 338.793 219.201 335.253C222.92 332.854 236.523 339.853 243.684 333.998C250.283 328.602 255.754 320.17 256.591 311.759C260.367 273.841 213.547 251.694 181.253 257.102C144.158 262.986 125.965 298.308 119.819 331.942C96.7902 477.2 188.992 607.234 216.162 745.062C231.721 823.991 213.522 895.781 148.372 946.758C172.603 936.46 199.043 924.945 221.647 911.453C310.019 858.706 393.641 793.254 468.494 723.099C469.973 714.808 483.059 691.965 487.324 683.187C495.483 666.394 503.558 650.79 510.081 633.083C488.453 570.433 478.826 530.1 504.284 465.758C511.137 447.027 519.527 429.834 522.695 409.941C525.329 393.394 523.184 381.342 516.516 366.139C516.516 366.139 517.395 363.709 517.484 363.463C529.103 359.998 550.678 415.779 553.554 424.493C575.8 491.905 553.98 560.859 521.144 620.546C514.934 631.834 509.787 649.209 503.744 661.712C496.232 677.253 488.851 692.658 480.918 708.14C488.829 701.17 499.214 689.559 506.446 681.665C537.982 647.238 566.554 609.081 593.513 570.996C598.843 563.466 617.941 537.804 621.419 530.158C628.38 514.853 636.222 487.85 641.836 470.96C619.065 408.158 609.55 360.069 635.423 295.839C643.294 274.266 653.612 253.383 659.142 231.038C660.963 223.679 661.259 217.358 660.208 209.85C659.382 203.956 652.251 189.377 653.576 185.219C660.359 181.2 669.775 202.316 672.464 207.115C710.342 274.705 700.06 352.695 671.101 421.305C665.068 435.597 658.184 449.73 651.689 463.851C645.263 478.789 638.797 497.999 633.691 513.692C663.839 469.749 693.674 427.147 730.005 387.914C740.218 376.836 750.807 366.111 761.752 355.757C788.274 330.806 796.942 327.583 807.34 291.536C806.092 287.833 805.112 284.045 804.41 280.201C796.949 239.84 797.486 208.06 827.032 176.325C842.702 159.494 859.587 145.367 861.781 120.978C862.129 117.104 860.456 112.334 859.66 108.386C860.708 105.328 859.907 106.228 862.528 104.871C878.09 110.369 878.959 167.209 877.04 181.738C871.832 221.165 842.555 269.869 811.641 293.671C808.697 302.97 806.536 309.672 802.591 318.69C942.733 196.229 1148.36 145.685 1331.15 143.278C1368.39 142.787 1407.1 148.951 1443.86 154.319Z"/><path fill="#DFDBD9" d="M1020.07 458.716L1031.24 456.524C1036.88 459.444 1049.14 455.74 1053.74 458.674C1043.34 459.129 1030.41 458.948 1020.07 458.716Z"/><path fill="#FFFFFE" d="M464.006 744.127C486.634 727.633 504.605 711.6 526.332 694.86C656.042 594.918 782.03 499.007 948.161 472.666C1007.14 463.314 1056.27 460.322 1116.05 469.918C1128.43 471.905 1175.1 480.877 1182.83 488.401L1182.96 490.265C1179.39 491.702 1161.53 484.724 1156.62 483.36C1126.48 475.118 1095.49 470.409 1064.27 469.327C984.538 465.874 898.139 482.647 824.398 512.323C739.694 546.413 664.762 597.929 592.089 652.214C545.424 687.151 499.253 722.744 453.589 758.98C365.89 828.43 278.084 898.245 178.053 949.945C227.28 950.164 293.795 939.69 343.12 932.291C471.238 913.071 593.533 889.392 723.996 890.541C804.408 892.042 884.644 898.652 964.219 910.33C1095.84 929.587 1230.68 957.487 1364.28 951.524C1422.62 948.92 1506.74 934.569 1551.32 893.718C1579.54 867.862 1571.6 833.374 1546.17 809.053C1520.94 784.933 1482.14 772.851 1448.3 784.91C1432.32 790.632 1415.59 808.863 1432 823.808C1436.59 828.061 1442.7 830.286 1448.96 829.98C1450.55 829.896 1452.03 829.525 1453.54 829.015C1455.76 825.488 1452.56 819.685 1457.61 818.461C1459.06 818.11 1460.65 818.498 1462.09 818.757C1464.2 820.326 1464.36 820.533 1465.16 823.041C1464.83 825.77 1464.15 828.026 1461.95 829.832C1457.41 833.553 1449.14 834.732 1443.5 834.003C1436.35 833.017 1429.89 829.212 1425.56 823.436C1421.51 818.067 1419.52 811.408 1420.49 804.707C1421.65 796.67 1426.83 789.805 1433.28 785.14C1449.73 773.261 1474.2 772.767 1493.43 776.121C1522.19 781.139 1546.23 796.282 1562.92 820.308C1572.28 833.772 1578.42 850.164 1575.21 866.739C1571.14 887.735 1552.73 904.794 1535.67 916.099C1479.6 953.252 1391.02 962.831 1325.14 962.213C1286.22 961.847 1247.27 957.53 1208.64 953.015C1121.25 942.802 1035.01 926.801 948.005 914.127C883.872 904.909 819.264 899.374 754.498 897.549C674.692 895.226 592.138 901.238 513.276 913.156C444.958 923.481 377.159 938.077 308.718 947.221C273.261 951.936 237.766 956.364 202.237 960.505C188.943 961.974 161.554 962.94 150.538 966.279C156.366 968.835 429.644 967.054 464.553 967.03L1142.77 967.091L1566.22 968.13C1616.5 968.156 1666.77 967.898 1717.03 967.356C1740.13 967.109 1763.28 967.367 1786.36 966.49C1831.63 964.77 1902.67 959.701 1945.03 943.361C1951.65 940.807 1958.1 937.295 1961.15 930.549C1963.85 924.578 1962.89 917.667 1960.54 911.747C1953.07 892.893 1929.62 879.451 1911.8 872.012C1809.8 829.429 1690.93 905.839 1594.25 935.675C1535.85 953.695 1485.79 961.532 1424.81 958.672C1446.2 953.646 1468.24 953.866 1489.97 951.267C1518.98 947.797 1548.54 941.061 1576.72 933.499C1673.74 907.473 1761.69 846.824 1865.99 856.615C1889.87 858.857 1913.74 864.728 1934.3 877.458C1949.19 886.672 1963.65 901.51 1967.63 919.075C1968.9 924.676 1968.6 930.589 1965.36 935.484C1956.02 949.599 1909.84 958.587 1893.12 961.697C1816.01 976.037 1736.37 972.043 1658.32 972.131L1351.55 972.299L145.597 971.235C140.976 966.677 136.421 963.543 130.486 960.95C153.694 950.589 177.551 940.771 200.183 929.229C250.233 903.705 297.72 871.749 342.613 838.087C379.554 810.389 414.161 779.48 451.984 753.082L450.595 751.314L462.449 742.424L464.006 744.127Z"/><path fill="#2B2625" d="M462.449 742.424L464.006 744.127L451.984 753.082L450.595 751.314L462.449 742.424Z"/><path fill="#FFFFFE" d="M189.124 244.413C192.175 244.136 195.441 244.186 198.504 244.282C219.627 244.948 242.47 254.107 256.923 269.771C266.351 279.988 272.271 293.373 271.496 307.433C270.926 317.77 266.472 327.233 258.626 334.027C256.189 336.138 252.573 338.861 249.244 338.59C251.998 334.372 255.486 330.798 258.503 326.783C265.025 318.103 266.03 307.642 264.383 297.137C262.291 283.795 254.687 272.401 243.884 264.469C226.911 252.006 204.458 247.57 183.835 250.751C159.079 254.571 139.57 267.064 124.939 287.272C110.141 307.71 105.287 333.986 103.532 358.669C96.7515 454.048 135.312 546.031 167.983 633.602C182.673 672.977 197.435 713.525 204.168 755.153C213.118 810.477 206.775 862.736 173.145 909.037C160.257 926.782 144.513 939.802 125.321 950.266C120.695 952.788 115.765 955.842 110.471 956.6C107.21 957.066 103.93 956.676 101.266 954.575C97.6083 951.69 97.0404 948.129 96.5911 943.754C94.0932 887.393 97.3283 845.851 124.31 794.683C134.331 806.955 142.607 818.684 146.89 834.146C155.865 866.55 144.323 900.793 120.736 924.032C115.348 929.34 105.517 934.446 101.972 940.682C101.662 943.498 101.771 943.845 103.091 946.361C105.459 948.07 107.297 948.751 110.223 948.461C127.707 946.726 152.258 921.191 162.949 908.383C244.934 810.151 173.938 672.652 136.546 570.778C117.989 520.223 100.373 466.901 95.6628 413.021C91.7694 368.487 92.5675 312.008 122.766 276.242C139.663 256.23 163.45 246.602 189.124 244.413Z"/><path fill="#FFFFFE" d="M1872.21 882.34C1872.9 882.243 1873.6 882.163 1874.29 882.098C1895.63 880.038 1914.88 883.183 1931.64 897.24C1938.12 902.678 1947.15 910.809 1947.73 919.739C1947.98 923.588 1946.55 926.944 1943.97 929.747C1936.74 937.589 1922.17 939.842 1912.17 942.295C1870.94 952.402 1830.58 956.613 1788.23 958.636C1761.04 959.242 1735.39 957.237 1708.47 953.305C1728.02 944.708 1748.26 938.418 1767.64 929.107C1803.21 912.026 1831.64 888.077 1872.21 882.34Z"/><path fill="#FFFFFE" d="M1213.09 503.405L1213.51 500.015C1215.31 499.435 1216.51 499.291 1218.35 500.162C1259.58 519.676 1304.18 531.516 1344.74 552.697C1379.77 570.986 1423.37 594.908 1437.28 634.402C1438.5 638.038 1439.92 644.574 1440.77 648.358C1426.36 622.236 1420.89 615.97 1394.87 600.08L1393 601.905C1414.72 616.225 1424.3 624.297 1435.06 647.977C1381.49 594.453 1269.13 605.142 1221.73 535.881C1214.74 525.662 1210.33 519.749 1212.8 507.57L1214.22 506.383L1213.09 503.405Z"/><path fill="#FFFFFE" d="M1213.09 503.405L1213.51 500.015C1215.31 499.435 1216.51 499.291 1218.35 500.162C1259.58 519.676 1304.18 531.516 1344.74 552.697C1379.77 570.986 1423.37 594.908 1437.28 634.402C1438.5 638.038 1439.92 644.574 1440.77 648.358C1426.36 622.236 1420.89 615.97 1394.87 600.08L1393 601.905C1359.45 579.767 1321.86 565.824 1285.4 549.494C1258.17 537.293 1236.81 525.276 1212.8 507.57L1214.22 506.383L1213.09 503.405Z"/><path fill="#2B2625" d="M1213.09 503.405C1266.59 548.473 1340.85 563.387 1394.87 600.08L1393 601.905C1359.45 579.767 1321.86 565.824 1285.4 549.494C1258.17 537.293 1236.81 525.276 1212.8 507.57L1214.22 506.383L1213.09 503.405Z"/><path fill="#FFFFFE" d="M213.705 54.413C237.76 51.1013 266.905 55.2866 289.156 64.9387C309.927 73.9491 328.118 88.7851 336.517 110.328C341.424 122.915 342.476 137.225 336.855 149.778C332.417 159.715 324.081 167.385 313.81 170.982C303.763 174.588 292.71 174.581 283.032 169.793C277.238 166.927 272.069 162.248 270.119 155.921C269.198 152.933 268.976 149.251 270.674 146.497C271.892 144.522 273.745 143.571 275.945 143.05C277.82 142.606 281.141 142.769 282.702 143.871C285.741 146.018 287.115 149.269 287.791 152.805C288.031 154.062 287.713 154.038 287.036 155.046C284.416 154.289 281.869 153.668 279.177 153.216C276.92 154.567 276.902 154.872 275.921 157.349C276.31 159.094 276.351 160.068 277.551 161.441C281.891 166.406 291.662 168.693 297.972 168.911C307.098 169.228 317.73 164.965 324.323 158.731C332.122 151.357 335.734 140.833 335.857 130.247C336.05 113.698 327.115 98.675 315.792 87.2354C293.595 64.8103 260.967 57.2503 230.314 57.1611C186.857 57.0346 134.268 70.6413 102.774 102.219C95.4001 109.612 88.2694 118.825 86.6237 129.35C83.6395 148.435 85.6453 169.39 85.6875 188.71C85.5578 226.302 85.6197 263.894 85.8731 301.486L85.9165 679.75L86.0583 860.822C86.1065 891.556 85.0824 922.66 86.3152 953.352C86.458 956.906 86.2615 961.721 88.2095 964.787C90.7701 968.818 95.6917 970.096 100.067 970.982C110.19 973.032 121.536 966.682 130.718 969.586C132.263 970.075 132.198 970.466 132.92 971.891C130.786 974.061 126.418 974.519 123.51 974.935C112.384 976.526 93.9663 979.179 84.5066 971.849C79.4708 967.947 77.6038 961.566 76.9858 955.476C75.6576 942.385 76.859 928.222 76.8828 915.029L76.9443 829.92L76.8295 555.807L76.8261 270.428L76.7241 187.253C76.6303 169.676 75.6474 151.452 77.1518 133.946C78.0403 123.607 83.4333 114.192 89.9608 106.332C118.863 71.5277 170.621 58.2541 213.705 54.413Z"/><path fill="#FFFFFE" d="M1425.95 476.021C1455.86 489.69 1481.27 506.944 1502.63 532.259C1505.46 535.616 1512.31 542.194 1512.83 546.242C1511.25 545.941 1510.68 545.921 1509.24 545.114L1508.19 545.619C1505.6 547.581 1481.47 546.826 1475.96 547.793C1446 553.048 1416.91 562.9 1387.23 569.478C1373.83 562.943 1359.38 552.756 1344.92 545.434C1325.75 535.73 1303.43 529.379 1285.27 520.672L1287.85 519.554C1292.71 517.804 1298.83 519.53 1304 520.381C1308.63 517.101 1312.08 514.937 1317.7 517.633L1326.25 518.053L1326.47 516.672C1328.94 517.46 1329.27 517.386 1331.8 516.768C1348.04 514.524 1361.81 517.627 1375.42 515.837L1375.03 513.17C1376.33 506.401 1378.22 505.313 1384.16 502.933L1384.64 500.427C1400.12 492.855 1412.14 486.432 1425.95 476.021Z"/><path fill="#FFFFFE" d="M1425.95 476.021C1455.86 489.69 1481.27 506.944 1502.63 532.259C1505.46 535.616 1512.31 542.194 1512.83 546.242C1511.25 545.941 1510.68 545.921 1509.24 545.114L1508.19 545.619C1505.9 544.221 1503.58 542.876 1501.23 541.587C1479.77 529.786 1414.02 500.855 1392.61 507.096C1392.69 505.63 1391.74 504.45 1390.96 503.113L1384.16 502.933L1384.64 500.427C1400.12 492.855 1412.14 486.432 1425.95 476.021Z"/><path fill="#2B2625" d="M1390.96 503.113C1403.3 503.882 1414.17 505.547 1426.17 508.155C1444.55 512.149 1495.37 532.803 1509.24 545.114L1508.19 545.619C1505.9 544.221 1503.58 542.876 1501.23 541.587C1479.77 529.786 1414.02 500.855 1392.61 507.096C1392.69 505.63 1391.74 504.45 1390.96 503.113Z"/><path fill="#2B2625" d="M1384.16 502.933L1390.96 503.113C1391.74 504.45 1392.69 505.63 1392.61 507.096C1394.04 510.375 1394.92 511.605 1394.1 515.073C1392.07 518.64 1389.35 520.043 1385.69 521.927C1393.43 523.475 1419.88 526.352 1423.42 531.953C1430.47 543.148 1409.82 556.558 1403.18 541.462C1402.8 540.62 1402.47 539.757 1402.19 538.878C1393.25 535.164 1326.24 518.042 1326.25 518.053L1326.47 516.672C1328.94 517.46 1329.27 517.386 1331.8 516.768C1348.04 514.524 1361.81 517.627 1375.42 515.837L1375.03 513.17C1376.33 506.401 1378.22 505.313 1384.16 502.933Z"/><path fill="#FFFFFE" d="M1331.8 516.768C1348.04 514.524 1361.81 517.627 1375.42 515.837C1376.9 517.268 1379.29 519.073 1379.8 520.755C1375.3 521.373 1339.22 517.448 1331.8 516.768Z"/><path fill="#FFFFFE" d="M1409.88 532.555C1412.62 531.268 1415.89 532.427 1417.21 535.156C1418.53 537.884 1417.42 541.167 1414.71 542.523C1412.92 543.415 1410.79 543.279 1409.14 542.165C1407.48 541.052 1406.55 539.134 1406.71 537.144C1406.86 535.155 1408.07 533.401 1409.88 532.555Z"/><path fill="#FFFFFE" d="M1387.09 527.448C1393.71 528.766 1398.15 529.339 1404.14 532.509C1403.58 533.132 1403.02 533.755 1402.46 534.379C1398.24 534.416 1390.87 530.139 1385.86 529.619L1387.09 527.448Z"/><path fill="#FFFFFE" d="M1381.54 508.463C1382.84 507.654 1384.49 507.686 1385.76 508.545C1387.02 509.403 1387.67 510.928 1387.4 512.435C1387.13 513.942 1386 515.149 1384.51 515.515C1382.66 515.971 1380.75 515.014 1380.01 513.259C1379.27 511.503 1379.92 509.47 1381.54 508.463Z"/><path fill="#A9A5A3" d="M1385.86 529.619C1382.2 528.716 1378.23 527.531 1374.56 526.519L1376.19 525.64L1372.89 525.616L1375.37 526.661L1374.47 525.301C1377.24 525.413 1384.08 526.883 1387.09 527.448L1385.86 529.619Z"/><path fill="#2B2625" d="M1287.85 519.554C1292.71 517.804 1298.83 519.53 1304 520.381C1308.63 517.101 1312.08 514.937 1317.7 517.633L1316.81 518.888C1320.78 521.002 1337.53 524.07 1343.35 526.228C1353 529.514 1361.77 534.327 1370.52 539.419C1374.89 541.961 1380.34 540.426 1382.01 547.162C1384.34 556.595 1376.25 562.397 1368.18 556.723C1358.97 540.796 1305.85 521.277 1287.85 519.554Z"/><path fill="#FFFFFE" d="M1315.13 522.859C1328.92 524.308 1345.12 531.261 1357.41 537.416C1361.24 539.339 1367.16 541.694 1368.59 545.994C1362.06 545.162 1324.81 526.611 1315.13 522.859Z"/><path fill="#FFFFFE" d="M1371.85 546.508C1373.11 545.971 1374.56 546.163 1375.64 547.009C1376.72 547.855 1377.25 549.221 1377.03 550.574C1376.81 551.928 1375.88 553.055 1374.58 553.516C1372.67 554.2 1370.55 553.236 1369.81 551.341C1369.07 549.445 1369.97 547.304 1371.85 546.508Z"/><path fill="#FFFFFE" d="M1451.83 410.679L1453.63 410.847L1454.81 412.839L1458.11 412.274L1458.45 413.513C1398.84 485.76 1306.28 499.855 1218.94 485.341L1223.57 475.465L1222.86 474.751C1224.11 471.568 1225.88 470.154 1228.3 467.751C1231.08 463.939 1234.45 460.217 1237.56 456.636C1310.03 429.909 1377.94 425.921 1451.83 410.679Z"/><path fill="#FFFFFE" d="M1237.56 456.636C1310.03 429.909 1377.94 425.921 1451.83 410.679C1446.77 413.205 1440.89 414.995 1435.51 416.765C1413.39 424.037 1391.84 432.875 1369.65 439.933C1334.98 450.958 1299.82 458.603 1263.79 463.446C1255.7 464.537 1235.47 468.112 1228.3 467.751C1231.08 463.939 1234.45 460.217 1237.56 456.636Z"/><path fill="#2B2625" d="M1451.83 410.679L1453.63 410.847L1454.81 412.839C1427.71 423.099 1397.48 432.833 1369.88 442.17C1327.04 456.664 1279.58 463.077 1235.05 470.152C1229.39 470.969 1227.12 470.66 1223.57 475.465L1222.86 474.751C1224.11 471.568 1225.88 470.154 1228.3 467.751C1235.47 468.112 1255.7 464.537 1263.79 463.446C1299.82 458.603 1334.98 450.958 1369.65 439.933C1391.84 432.875 1413.39 424.037 1435.51 416.765C1440.89 414.995 1446.77 413.205 1451.83 410.679Z"/><path fill="#FFFFFE" d="M550.377 761.401C603.597 755.331 663.908 773.671 713.593 791.348C735.585 799.172 757.088 808.082 779.851 813.504C754.212 815.402 728.424 816.848 702.753 818.304C648.151 823.158 593.518 813.072 541.484 797.168C518.801 790.235 496.525 780.681 472.6 779.412C497.208 768.591 523.706 763.517 550.377 761.401Z"/><path fill="#FFFFFE" d="M1075.57 302.781L1096.02 303.158C1095.05 304.125 1074.66 311.116 1070.76 313.039C1024.03 336.047 982.865 362.919 933.459 380.9C883.27 399.166 837.726 397.874 786.591 402.218C889.048 354.175 959.412 307.606 1075.57 302.781Z"/><path fill="#FFFFFE" d="M848.467 962.742C866.316 958.777 889.639 954.274 901.485 938.952C907.526 931.139 903.83 927.38 902.885 919.158C913.431 917.444 929.206 921.588 939.872 923.043C979.16 928.4 1018.21 934.714 1057.36 940.987C1103.27 948.346 1149.45 955.565 1195.6 961.286L1195.01 962.561L1187.55 963.231C1100.21 961.772 1012.77 963.925 925.418 963.406C899.799 963.253 874.065 963.752 848.467 962.742Z"/><path fill="#FFFFFE" d="M1569.53 166.084L1564.93 164.581C1567.36 162.171 1601.1 158.665 1607.53 157.953C1670.03 151.033 1728.19 172.333 1789.73 178.85C1784.2 180.048 1778.65 181.182 1773.08 182.253L1777.03 184.168L1776.31 185.218C1724.44 212.597 1675.52 218.502 1621.48 193.878C1603.97 185.903 1586.73 177.334 1568.76 170.481C1566.77 170.559 1566.85 170.48 1565.23 169.48C1566.2 167.494 1567.33 167.356 1569.53 166.084Z"/><path fill="#FFFFFE" d="M1569.53 166.084C1585.87 168.372 1606.56 175.69 1623.25 179.347C1674 190.467 1721.95 190.695 1773.08 182.253L1777.03 184.168L1776.31 185.218C1724.44 212.597 1675.52 218.502 1621.48 193.878C1603.97 185.903 1586.73 177.334 1568.76 170.481C1566.77 170.559 1566.85 170.48 1565.23 169.48C1566.2 167.494 1567.33 167.356 1569.53 166.084Z"/><path fill="#2B2625" d="M1569.53 166.084C1585.87 168.372 1606.56 175.69 1623.25 179.347C1674 190.467 1721.95 190.695 1773.08 182.253L1777.03 184.168L1776.31 185.218C1772.06 184.795 1742.64 188.889 1736.24 189.307C1715.66 190.65 1697.34 191.368 1676.58 189.834C1659.63 188.516 1642.76 186.221 1626.07 182.96C1614.21 180.536 1577.27 169.749 1568.76 170.481C1566.77 170.559 1566.85 170.48 1565.23 169.48C1566.2 167.494 1567.33 167.356 1569.53 166.084Z"/><path fill="#FFFFFE" d="M450.595 751.314C448.091 753.205 447.465 753.482 444.622 754.75C451.6 745.653 470.67 729.036 479.578 720.379C533.864 667.618 578.034 607.971 620.567 545.592C641.983 514.184 663.125 482.228 686.443 451.816C781.921 327.292 892.943 245.455 1042.14 196.448C1101.32 177.019 1162.27 163.456 1224.11 155.954C1347.27 140.447 1479.09 146.643 1584.55 218.37C1599.53 228.562 1613.03 239.57 1627.29 250.632L1624.77 251.323C1613.65 241.259 1599.53 232.2 1587.17 223.69C1505.37 167.335 1390.13 148.402 1292.19 152.856C1152.32 159.218 993.022 202.981 874.741 280.613C824.616 313.95 778.937 353.53 738.807 398.401C708.469 432.24 680.307 467.969 654.49 505.373C598.424 585.174 539.46 681.753 462.449 742.424L450.595 751.314Z"/><path fill="#FFFFFE" d="M1831.77 870.433C1845.94 869.115 1862.5 871.151 1876.33 873.933C1824.25 879.81 1788.57 913.086 1741.73 932.356C1730.19 937.1 1705.67 948.214 1693.94 948.36C1691.94 948.384 1689.45 947.198 1687.62 946.432C1672.16 939.729 1656.31 934.077 1640.95 927.076C1702.76 902.171 1764.25 873.837 1831.77 870.433Z"/><path fill="#FFFFFE" d="M666.388 224.695C672.18 231.292 675.866 284.073 675.987 294.824C676.532 342.915 663.995 389.257 649.673 434.746C648.246 439.278 646.039 451.672 643.082 454.691L641.919 451.758C624.055 394.81 620.66 350.039 642.642 293.579C651.459 270.935 661.12 248.501 666.388 224.695Z"/><path fill="#FFFFFE" d="M994.485 607.845C1001 607.631 1010.29 606.786 1016.48 607.604C1038.22 610.479 1059.83 624.212 1075.43 638.828C1083.76 646.558 1091.25 655.137 1097.78 664.425C1100.38 666.412 1100.97 666.143 1101.66 668.83C1100.75 670.618 1100.21 671.365 1099.96 673.326C1106.32 680.702 1114.82 692.55 1120.98 700.619C1100.03 698.093 1079.53 692.728 1060.03 684.673C1029.15 671.937 995.779 653.211 982.439 621.072L982.518 620.02L985.535 618.842L983.48 615.339C984.703 612.548 983.816 611.766 985.995 608.277C988.596 606.943 991.425 607.587 994.485 607.845Z"/><path fill="#FFFFFE" d="M994.485 607.845C1001 607.631 1010.29 606.786 1016.48 607.604C1038.22 610.479 1059.83 624.212 1075.43 638.828C1083.76 646.558 1091.25 655.137 1097.78 664.425C1092.22 660.524 1085.15 653.505 1079.82 648.986C1060.36 632.451 1038.44 620.525 1013.34 615.214C1006.55 613.778 994.154 613.401 988.45 610.913L989.004 609.635L994.485 607.845Z"/><path fill="#2B2625" d="M983.48 615.339C984.703 612.548 983.816 611.766 985.995 608.277C988.596 606.943 991.425 607.587 994.485 607.845L989.004 609.635L988.45 610.913C994.154 613.401 1006.55 613.778 1013.34 615.214C1038.44 620.525 1060.36 632.451 1079.82 648.986C1085.15 653.505 1092.22 660.524 1097.78 664.425C1100.38 666.412 1100.97 666.143 1101.66 668.83C1100.75 670.618 1100.21 671.365 1099.96 673.326C1069.61 643.114 1038.31 619.827 994.329 615.393C990.29 614.986 987.583 614.605 983.48 615.339Z"/><path fill="#2B2625" d="M985.535 618.842C990.301 621.862 1022.82 643.784 1025.17 646.612C1018.58 645.741 987.362 621.534 982.439 621.072L982.518 620.02L985.535 618.842Z"/><path fill="#FFFFFE" d="M530.147 400.651C530.609 401.651 531.031 402.666 531.336 403.726C551.124 472.525 540.545 524.734 520.448 590.973C518.153 598.539 515.909 615.409 512.674 621.448L511.679 620.659C493.776 564.33 489.354 523.526 509.832 466.916C517.833 444.797 526.119 423.981 530.147 400.651Z"/><path fill="#FFFFFE" d="M524.369 920.369C529.542 920.406 543.562 932.02 549.862 935.021C607.572 962.504 679.879 967.109 739.887 945.779C756.177 952.745 773.534 956.814 790.078 963.037L729.38 963.019L600.86 962.97C570.809 963.041 523.654 966.361 496.169 959.016C477.996 954.161 463.799 943.86 449.197 932.502C473.888 927.052 499.348 923.955 524.369 920.369Z"/><path fill="#FFFFFE" d="M152.903 730.723C174.12 754.354 187.956 787.679 188.365 819.637C188.86 858.337 166.286 893.557 140.295 920.321L139.61 920.547C138.976 919.113 143.602 912.939 144.712 911.052C153.854 895.505 159.711 878.993 159.961 860.825C160.377 830.621 147.229 809.995 126.881 789.19C136.085 769.898 145.299 750.723 152.903 730.723Z"/><path fill="#FFFFFE" d="M821.585 912.324C831.502 911.08 886.022 914.822 893.082 919.684C895.507 921.354 897.143 923.716 897.563 926.676C898.074 930.277 896.839 933.8 894.651 936.643C882.833 951.992 847.409 957.335 829.146 959.797C802.659 961.739 772.644 951.535 748.547 941.112C772.596 927.361 793.738 916.107 821.585 912.324Z"/><path fill="#FFFFFE" d="M606.605 911.416C630.039 908.113 703.53 933.616 729.363 942.416C706.545 951.139 685.316 954.214 660.981 954.873C618.437 952.922 572.937 946.051 538.168 919.476C560.778 915.472 583.751 913.429 606.605 911.416Z"/><path fill="#FFFFFE" d="M95.2172 471.843C104.527 502.583 113.525 533.226 124.436 563.462C143.842 617.239 190.446 727.286 191.655 780.116L190.797 780.193C183.394 758.018 171.67 738.552 154.874 722.327C164.354 688.262 152.018 654.905 132.047 627.248C119.846 610.351 105.945 594.702 99.5565 574.469C91.1004 547.685 94.009 500.953 95.2172 471.843Z"/><path fill="#FFFFFE" d="M1126.79 203.446C1183.2 203.533 1236.62 225.552 1286.16 250.579C1297.06 256.082 1308.83 261.22 1319.14 267.728C1311.19 266.404 1303.22 265.197 1295.24 264.109C1243.97 260.412 1209.18 255.172 1161.99 233.756C1140.16 223.848 1119.39 212.587 1096.36 205.536C1106.41 204.129 1116.66 203.933 1126.79 203.446Z"/><path fill="#FFFFFE" d="M214.6 63.3993C220.742 62.8202 227.059 62.8707 233.232 62.6749C224.586 66.2958 215.779 69.6547 207.254 73.5502C165.442 92.655 132.952 126.326 113.17 167.567C107.972 178.405 104.045 189.984 99.8549 201.243L94.3055 219.375C94.6907 194.623 90.7942 149.481 96.0785 127.572C97.7001 120.646 100.862 114.174 105.329 108.637C127.486 80.9585 181.023 66.9951 214.6 63.3993Z"/><path fill="#FFFFFE" d="M1468.66 406.967C1468.43 409.942 1467 412.558 1465.74 415.214C1446.85 455.164 1414.74 482.516 1373.38 497.253C1327.3 513.672 1270.25 521.561 1224.6 499.825C1222.7 499.059 1220.66 498.283 1218.93 497.197C1216.96 495.964 1215.46 494.013 1215.07 491.713C1214.92 490.878 1215.59 490.368 1216.05 489.7C1222.97 486.996 1241.06 492.375 1248.95 493.187C1267.03 494.961 1285.23 495.138 1303.35 493.714C1375.66 487.687 1422.52 461.635 1468.66 406.967Z"/><path fill="#FFFFFE" d="M604.326 744.449C648.338 742.747 689.615 752.793 727.958 774.336C751.326 787.465 773.304 801.895 797.695 813.26C771.597 809.127 747.436 799.915 722.758 790.937C649.63 763.188 590.954 749.253 512.243 762.736C542.208 751.591 572.435 745.812 604.326 744.449Z"/><path fill="#FFFFFE" d="M651.615 651.031C660.532 650.236 670.344 651.417 679.191 652.602C716.165 657.553 749.987 674.697 783.033 690.998C803.737 701.21 825.974 712.119 848.751 716.466L849.228 717.897C834.18 721.5 816.565 720.28 801.401 717.924C768.813 712.861 736.221 700.11 707.767 683.417C689.072 672.45 671.206 660.426 651.615 651.031Z"/><path fill="#FFFFFE" d="M94.4346 585.76C94.9028 586.161 119.794 619.973 121.481 622.297C141.519 649.891 151.394 680.276 145.97 714.272C145.914 714.28 145.859 714.301 145.803 714.297C141.57 713.974 118.815 693.492 114.815 689.519C94.9067 669.748 93.5542 650.2 94.0745 623.489C94.4059 610.915 94.5259 598.337 94.4346 585.76Z"/><path fill="#FFFFFE" d="M863.791 137.81L864.808 139.127C869.518 181.538 836.658 246.825 812.699 282.297L811.219 282.445C801.909 245.55 804.368 210.445 830.189 181.243C842.894 166.874 855.014 155.17 863.791 137.81Z"/><path fill="#FFFFFE" d="M788.342 395.577C857.374 337.497 945.582 296.717 1036.49 296.119C1055.08 295.997 1070.07 297.786 1088.27 299.308L1093.02 299.812C1092.83 300.952 1092.44 301.407 1091.87 302.448L1091.9 300.382L1090.79 301.977C1092.18 302.373 1094.88 302.731 1096.02 303.158L1075.57 302.781L1075.29 301.708C1071.06 301.086 1066.94 301.021 1062.68 300.871C1047.29 300.596 1017.05 305.5 1002.37 308.787C962.746 317.978 924.171 331.221 887.255 348.306C854.016 363.731 822.1 381.339 788.342 395.577Z"/><path fill="#4B4746" d="M1088.27 299.308L1093.02 299.812C1092.83 300.952 1092.44 301.407 1091.87 302.448L1091.9 300.382L1090.79 301.977C1092.18 302.373 1094.88 302.731 1096.02 303.158L1075.57 302.781L1075.29 301.708C1071.06 301.086 1066.94 301.021 1062.68 300.871C1067.53 300.053 1082.55 299.646 1088.27 299.308Z"/><path fill="#FFFFFE" d="M280.993 960.446C333.015 947.801 387.096 944.372 439.575 933.667C454.179 947.03 468.623 955.69 487.053 962.875C428.548 963.177 369.623 964.262 311.147 962.87C298.058 963.438 284.765 962.997 271.653 963.023C274.704 961.89 277.83 961.187 280.993 960.446Z"/><path fill="#DFDBD9" d="M271.653 963.023C274.704 961.89 277.83 961.187 280.993 960.446C285.699 964.294 304.16 961.84 311.147 962.87C298.058 963.438 284.765 962.997 271.653 963.023Z"/><path fill="#FFFFFE" d="M94.2301 675.761C109.115 693.636 126.635 707.608 143.991 723.03C139.921 737.201 134.579 750.241 128.161 763.471C124.839 769.35 121.879 775.003 119.597 781.371C86.6156 749.18 94.9389 717.533 94.2301 675.761Z"/><path fill="#FFFFFE" d="M1165.84 348.075L1166.39 348.894C1154.32 361.935 1146.74 376.301 1136.65 390.64C1111.02 427.033 1072.06 442.544 1030.4 453.02L1029.91 452.721L1030.08 451.663C1059.93 431.026 1080.93 407.316 1108.21 384.804C1126.11 370.034 1145.22 358.505 1165.84 348.075Z"/><path fill="#FFFFFE" d="M1214.81 533.809C1262.68 602.088 1341.17 594.842 1406.66 631.544C1416.45 637.035 1425.04 643.816 1433.59 651.051C1422.36 647.553 1411.85 641.754 1400.41 638.405C1349.37 623.46 1295.84 614.738 1251.91 582.291C1236.09 570.607 1217.88 554.31 1214.81 533.809Z"/><path fill="#FFFFFE" d="M662.379 645.381C720.261 636.82 754.599 644.806 803.305 678.82C821.907 691.811 838.08 704.079 858.511 713.934C789.172 701.803 735.097 648.189 664.45 647.982C662.89 646.963 663.353 647.232 662.379 645.381Z"/><path fill="#FFFFFE" d="M1172.76 192.44C1173.77 192.405 1174.78 192.38 1175.79 192.364C1240.73 191.362 1273.06 219.984 1317.14 262.508C1304.45 256.512 1292.27 249.296 1279.58 243.178C1226.9 217.693 1174.5 197.777 1115.07 199.297C1133.29 194.242 1153.92 193.164 1172.76 192.44Z"/><path fill="#FFFFFE" d="M678.787 907.567C720.518 905.304 762.545 907.527 804.231 909.502C786.515 913.617 770.167 921.614 754.519 930.7L741.014 938.786C706.732 929.41 672.649 919.059 638.406 909.483C651.82 908.519 665.348 908.195 678.787 907.567Z"/><path fill="#FFFFFE" d="M1535.79 85.3104L1536.74 84.1796L1538.5 86.8512L1541.75 84.2812C1542.51 88.8644 1532.23 106.374 1528.94 110.874C1513.38 132.158 1495.99 142.325 1470.38 147.354C1469.39 147.951 1468.26 148.4 1467.2 148.878L1464.72 147.285C1462.9 147.46 1453.87 151.294 1451.59 152.208C1475.85 101.342 1491.46 107.19 1535.79 85.3104Z"/><path fill="#FFFFFE" d="M1538.5 86.8512L1541.75 84.2812C1542.51 88.8644 1532.23 106.374 1528.94 110.874C1513.38 132.158 1495.99 142.325 1470.38 147.354C1473.53 145.297 1477.59 143.352 1480.97 141.48C1501.65 130.004 1528.68 109.225 1538.5 86.8512Z"/><path fill="#2B2625" d="M1535.79 85.3104L1536.74 84.1796L1538.5 86.8512C1528.68 109.225 1501.65 130.004 1480.97 141.48C1477.59 143.352 1473.53 145.297 1470.38 147.354C1469.39 147.951 1468.26 148.4 1467.2 148.878L1464.72 147.285C1491.77 133.616 1521.74 113.199 1535.79 85.3104Z"/><path fill="#FFFFFE" d="M1442.05 182.535C1442.7 183.595 1443.17 184.488 1443.54 185.688C1455.48 224.464 1471.01 264.13 1450.16 303.2L1449.68 302.48C1445.72 273.459 1420.54 247.881 1427.85 217.478C1430.81 205.144 1438.28 194.608 1442.05 182.535Z"/><path fill="#FFFFFE" d="M1628.02 931.028C1636.8 931.878 1670.22 947.557 1680.04 951.623C1656.13 956.827 1632.17 959.134 1607.79 960.833C1589.14 961.109 1571.89 958.197 1553.91 953.474C1579 946.722 1603.53 939.765 1628.02 931.028Z"/><path fill="#FFFFFE" d="M1150.93 350.199C1152.51 349.919 1153.17 349.834 1154.72 350.449C1138.02 359.71 1121.94 369.493 1106.97 381.417C1080.52 402.48 1058.58 425.494 1030.52 445.798L1028.56 446.653C1028.85 445.448 1029.21 444.335 1029.86 443.273C1063.49 388.186 1087.04 366.223 1150.93 350.199Z"/><path fill="#FFFFFE" d="M672.789 227.684C676.318 231.667 678.516 237.559 680.244 242.554C703.966 311.146 681.528 388.411 650.912 451.169C649.601 453.939 647.768 456.496 646.112 459.071C666.316 401.742 681.471 343.8 678.536 282.516C677.668 264.378 674.002 246.68 672.849 228.697L672.789 227.684Z"/><path fill="#FFFFFE" d="M1332.68 349.162C1338.99 351.584 1344.99 355.404 1350.18 359.718C1358.88 366.945 1365.62 376.858 1366.6 388.36C1367.65 400.833 1362.21 410.544 1354.57 419.814C1350.45 420.752 1346.24 421.438 1342.09 422.24C1334.83 423.476 1327.6 425.093 1320.37 426.555C1329.45 416.497 1337.18 405.851 1340.4 392.457C1344.16 376.771 1340.96 362.653 1332.68 349.162Z"/><path fill="#FFFFFE" d="M1296.72 612.637C1304.96 615.2 1312.98 618.592 1321.02 621.74C1321.72 623.331 1322.35 624.949 1322.92 626.591C1327.12 638.323 1327.09 649.846 1321.61 661.232C1313.82 677.433 1299.39 687.249 1282.94 693.17C1276.31 695.26 1269.38 696.669 1262.63 698.295C1264.78 696.986 1266.93 695.661 1269.06 694.319C1285.52 683.95 1299.39 669.576 1303.64 650.012C1306.53 636.722 1303.91 624.019 1296.72 612.637Z"/><path fill="#FFFFFE" d="M535.235 401.748C540.234 404.973 543.499 417.45 545.414 423.064C566.207 484.049 551.527 547.088 523.929 603.307C523.219 604.822 522.548 605.903 521.42 607.144C521.993 595.765 530.934 572.704 534.121 560.355C549.966 498.968 548.978 463.794 535.235 401.748Z"/><path fill="#FFFFFE" d="M1316.89 343.538C1320.48 344.664 1324.14 347.04 1326.96 349.496C1334.36 355.926 1337.6 364.283 1338.24 373.922C1339.63 394.947 1330.45 411.879 1317.07 427.337C1309.62 429.053 1302.18 430.822 1294.75 432.644L1284.17 435.438C1302.91 422.289 1320.95 406.587 1325.68 383.076C1328.77 367.727 1325.35 356.2 1316.89 343.538Z"/><path fill="#FFFFFE" d="M924.554 586.885C944.742 587.06 965.465 593.826 983.831 601.726C981.106 608.36 978.062 614.873 975.108 621.409L971.83 629.594C952.644 618.464 938.766 603.586 924.554 586.885Z"/><path fill="#FFFFFE" d="M1267.55 598.742C1275.8 601.46 1283.81 606.269 1291.57 610.195C1296.73 619.285 1300.58 628.88 1300.62 639.484C1300.71 657.354 1291.14 670.874 1279.25 683.058L1268.84 691.837C1279.49 675.126 1284.83 658.431 1285.77 638.505C1286.56 621.707 1278.25 610.515 1267.55 598.742Z"/><path fill="#FFFFFE" d="M795.502 573.412C822.234 571.147 851.68 573.38 878.117 577.766C890.279 579.784 912.678 581.912 920.31 592.584C883.575 577.873 840.088 576.609 800.99 577.296C753.788 579.633 724.457 587.804 679.177 598.316C704.525 580.955 764.306 575.316 795.502 573.412Z"/><path fill="#FFFFFE" d="M1317.55 352.421C1319.05 354.415 1320.16 356.271 1320.93 358.675C1324.94 371.287 1322.65 386.03 1316.67 397.674C1304.75 420.882 1278.27 436.82 1254.27 444.517C1253.48 444.785 1252.39 444.763 1251.55 444.85C1252.42 441.063 1280.35 422.506 1285.35 418.363C1290.69 414.003 1295.65 409.205 1300.19 404.019C1313.08 389.062 1319.03 372.124 1317.55 352.421Z"/><path fill="#FFFFFE" d="M979.199 632.617C984.413 635.845 993.224 650.669 1000.17 656.5C1033.04 684.073 1066.13 694.316 1106.27 705.794C1091.92 708.873 1073.62 704.451 1060.06 699.642C1027.95 688.257 994.159 664.008 979.199 632.617Z"/><path fill="#FFFFFE" d="M95.1292 762.661C96.6339 763.667 111.14 782.766 116.336 787.564C110.439 799.013 105.467 810.894 100.464 822.75L94.322 838.299C95.035 813.11 94.9128 787.86 95.1292 762.661Z"/><path fill="#FFFFFE" d="M1445.63 181.71C1455.46 189.246 1467.51 222.887 1470.17 235.425C1475.61 261.104 1470.96 281.945 1456.82 303.759C1456.15 304.783 1455.29 305.686 1454.5 306.615C1453.89 303.204 1461.23 285.664 1462.43 280.207C1470.04 245.476 1456.7 213.956 1445.63 181.71Z"/><path fill="#FFFFFE" d="M867.287 157.878L868.913 157.166L869.972 157.791C871.101 209.033 854.206 234.426 824.232 275.251L822.338 274.384C842.959 238.392 863.621 199.994 867.287 157.878Z"/><path fill="#FFFFFE" d="M1211.28 473.939L1213.36 474.553C1212.94 479.781 1208.22 484.558 1206.44 489.434C1203.75 496.782 1202.38 505.237 1201.57 513.014L1200.6 513.653L1197.94 512.134C1194.98 508.818 1192.08 505.514 1190.83 501.155C1189.44 496.348 1190.02 490.877 1192.47 486.515C1196.61 479.141 1203.51 476.149 1211.28 473.939Z"/><path fill="#FFFFFE" d="M986.926 605.672C1033.04 587.249 1078.3 621.016 1102.55 658.472L1100.81 659.234C1069.32 619.208 1038.96 596.838 986.926 605.672Z"/><path fill="#FFFFFE" d="M1541.37 955.579C1550.53 959.4 1560.53 961.622 1570.1 964.246C1553.04 963.277 1535.96 962.872 1518.89 963.032L1517.01 960.384C1525.14 958.866 1533.31 957.441 1541.37 955.579Z"/><path fill="#FFFFFE" d="M1693.79 956.274C1698.5 957.77 1703.23 959.231 1707.96 960.657L1705.41 963.064C1696.42 962.783 1687.36 963.027 1678.37 963.016L1660.48 962.677C1664.64 961.332 1669.04 960.902 1673.35 960.304C1680.29 959.32 1686.98 957.984 1693.79 956.274Z"/><path fill="#DFDBD9" d="M1660.48 962.677C1664.64 961.332 1669.04 960.902 1673.35 960.304L1673.98 961.738L1678.37 963.016L1660.48 962.677Z"/><path fill="#FFFFFE" d="M1346.04 512.914C1360.18 509.237 1371.14 505.475 1384.64 500.427L1384.16 502.933C1378.22 505.313 1376.33 506.401 1375.03 513.17C1365.53 513.513 1355.57 513.128 1346.04 512.914Z"/><path fill="#FFFFFE" d="M1621.7 339.636C1627.03 340.183 1631.99 341.83 1635.58 346.041C1637.55 348.354 1639.09 350.656 1638.9 353.793C1634.44 354.307 1630.51 353.987 1626.98 350.937C1623.53 347.948 1622.22 344.041 1621.7 339.636Z"/><path fill="#DFDBD9" d="M1252.95 589.554C1253.75 589.738 1253.6 589.682 1254.28 589.907C1254.49 589.976 1254.7 590.053 1254.91 590.123C1255.84 590.429 1256.81 590.753 1257.6 591.344C1269.59 600.3 1281.05 621.377 1282.9 636.194C1275.76 617.53 1265.63 604.743 1252.95 589.554Z"/><path fill="#76706F" d="M1627.29 250.632C1632.4 254.712 1657.8 276.486 1659.24 280.838C1659.57 281.795 1627.67 253.791 1624.77 251.323L1627.29 250.632Z"/><path fill="#A9A5A3" d="M1195.6 961.286C1201.14 961.898 1206.59 962.528 1212.05 963.685C1203.86 963.96 1195.71 964.122 1187.55 963.231L1195.01 962.561L1195.6 961.286Z"/><path fill="#FFFFFE" d="M1518.89 963.032C1515.02 963.092 1511.17 963.353 1507.45 962.101C1509.5 960.447 1514.37 960.612 1517.01 960.384L1518.89 963.032Z"/><path fill="#DFDBD9" d="M650.066 647.54C653.936 646.552 658.392 645.988 662.379 645.381C663.353 647.232 662.89 646.963 664.45 647.982C660.212 648.122 654.419 647.715 650.066 647.54Z"/><path fill="#A9A5A3" d="M1102.55 658.472C1104.37 660.974 1106.72 663.501 1107 666.403C1104.27 664.808 1102.64 661.884 1100.81 659.234L1102.55 658.472Z"/><path fill="#DFDBD9" d="M867.287 157.878L868.767 142.715C869.216 147.093 870.078 153.556 869.972 157.791L868.913 157.166L867.287 157.878Z"/><path fill="#DFDBD9" d="M815.673 285.714C817.883 281.389 819.335 278.279 822.338 274.384L824.232 275.251C822.743 277.724 817.762 283.265 815.673 285.714Z"/><path fill="#FFFFFE" d="M1707.96 960.657L1712.67 961.551L1713.07 962.47C1710.4 963.012 1708.11 963.141 1705.41 963.064L1707.96 960.657Z"/><path fill="#2B2625" d="M816.389 814.193C818.94 814.714 821.505 814.688 823.334 816.589C821.199 817.469 819.495 817.273 817.271 817.073L816.389 814.193Z"/></svg>