<svg xmlns="http://www.w3.org/2000/svg" viewBox="0 0 200 24" fill="none" stroke="#1A1A18" stroke-width="1.3" stroke-linecap="round" stroke-linejoin="round">
  <line x1="12" y1="12" x2="78" y2="12"/>
  <line x1="122" y1="12" x2="188" y2="12"/>
  <g transform="translate(88 2) scale(0.83)" stroke-width="1.7">
    <path d="M10 10v.2A3 3 0 0 1 8.9 16H5a3 3 0 0 1-1-5.8V10a3 3 0 0 1 6 0Z"/>
    <path d="M7 16v6"/>
    <path d="M13 19v3"/>
    <path d="M12 19h8.3a1 1 0 0 0 .7-1.7L18 14h.3a1 1 0 0 0 .7-1.7L16 9h.2a1 1 0 0 0 .8-1.7L13 3l-1.4 1.5"/>
  </g>
</svg>
