<svg viewBox="0 0 180.490582677 137.101255906" width="180.490582677pt" height="137.101255906pt" xmlns="http://www.w3.org/2000/svg" xmlns:xlink="http://www.w3.org/1999/xlink" xmlns:h5="http://www.w3.org/1999/xhtml"><path fill="#ffffff" fill-rule="nonzero" d="M 0 0v 137.101255906h 180.490582677v -137.101255906Z "/><g transform="translate(8 8)"><path fill="none" stroke="#1a1a18" stroke-width="0.6" stroke-linecap="butt" stroke-linejoin="miter" stroke-miterlimit="4" transform="translate(2.125984252 108.239389764)" d="M 0 0h 155.051111436"/><path fill="#1a1a18" fill-rule="nonzero" stroke="#1a1a18" stroke-width="0.6" stroke-linecap="butt" stroke-linejoin="miter" stroke-miterlimit="4" transform="translate(157.177095591 106.113405512)" d="M 0 0m 5.669291339 2.125984252l -5.669291339 2.125984252v -4.251968504l 5.669291339 2.125984252Z "/><path fill="none" stroke="#1a1a18" stroke-width="0.6" stroke-linecap="butt" stroke-linejoin="miter" stroke-miterlimit="4" transform="translate(2.125984252 9.881191713)" d="M 0 0m 0 98.358198051v -98.358198051"/><path fill="#1a1a18" fill-rule="nonzero" stroke="#1a1a18" stroke-width="0.6" stroke-linecap="butt" stroke-linejoin="miter" stroke-miterlimit="4" transform="translate(0 4.211900472)" d="M 0 0m 2.125984252 0l 2.125984252 5.669291339h -4.251968504l 2.125984252 -5.669291339Z "/><path fill="none" transform="translate(116.806287402 113.519255906)" d="M 0 0h 46.8945v 7.582h -46.8945v -7.582Z "/><g transform="translate(116.80628726 113.51925578)"><g transform="matrix(1 0 0 -1 0 5.593)"><use xlink:href="#g3EDD64AE7B5A40E8FE9DD75D51E8EE8A" x="0" y="0" fill="#7c7f6a" fill-rule="nonzero"/><use xlink:href="#g5D2E58E4CDB4D7E6C81847885E22D756" x="3.7825" y="0" fill="#7c7f6a" fill-rule="nonzero"/><use xlink:href="#gDEA2A0379B7527B5C1F8D88530B6617D" x="7.582" y="0" fill="#7c7f6a" fill-rule="nonzero"/><use xlink:href="#gBEE50160BCD570B38DEF46393A725EED" x="13.362" y="0" fill="#7c7f6a" fill-rule="nonzero"/><use xlink:href="#g5D2E58E4CDB4D7E6C81847885E22D756" x="18.343" y="0" fill="#7c7f6a" fill-rule="nonzero"/><use xlink:href="#g430571653545A60A3EF6386D136EADA3" x="22.1425" y="0" fill="#7c7f6a" fill-rule="nonzero"/><use xlink:href="#gF931FC691828778A920607CF18B9C32A" x="26.554" y="0" fill="#7c7f6a" fill-rule="nonzero"/><use xlink:href="#g3EDD64AE7B5A40E8FE9DD75D51E8EE8A" x="30.4385" y="0" fill="#7c7f6a" fill-rule="nonzero"/><use xlink:href="#g2884EEE83F88BF741DF31D9C41AEE180" x="34.221" y="0" fill="#7c7f6a" fill-rule="nonzero"/><use xlink:href="#g430571653545A60A3EF6386D136EADA3" x="38.5985" y="0" fill="#7c7f6a" fill-rule="nonzero"/><use xlink:href="#gF931FC691828778A920607CF18B9C32A" x="43.01" y="0" fill="#7c7f6a" fill-rule="nonzero"/></g></g><path fill="none" transform="translate(6.377952756)" d="M 0 0h 34.5695v 6.715h -34.5695v -6.715Z "/><g transform="translate(6.37795274 -3.1e-8)"><g transform="matrix(1 0 0 -1 0 5.593)"><use xlink:href="#gBAF1B227155053221F22F6E06EEFED60" x="0" y="0" fill="#7c7f6a" fill-rule="nonzero"/><use xlink:href="#gF931FC691828778A920607CF18B9C32A" x="4.573" y="0" fill="#7c7f6a" fill-rule="nonzero"/><use xlink:href="#g3D9A67B9902CBFFCF1182D85B33DBA41" x="8.4575" y="0" fill="#7c7f6a" fill-rule="nonzero"/><use xlink:href="#gB3F6F741CFF64E2F87AE274E4C795DAE" x="12.529" y="0" fill="#7c7f6a" fill-rule="nonzero"/><use xlink:href="#g5D2E58E4CDB4D7E6C81847885E22D756" x="17.0085" y="0" fill="#7c7f6a" fill-rule="nonzero"/><use xlink:href="#gC8932C6BA7F518DC74E87E2F4A0224EB" x="20.808" y="0" fill="#7c7f6a" fill-rule="nonzero"/><use xlink:href="#gE7AE90A8EDDEF3DDB67EE78D36D80337" x="25.789" y="0" fill="#7c7f6a" fill-rule="nonzero"/><use xlink:href="#g5D2E58E4CDB4D7E6C81847885E22D756" x="30.77" y="0" fill="#7c7f6a" fill-rule="nonzero"/></g></g><path fill="none" stroke="#1a1a18" stroke-width="1.2" stroke-linecap="butt" stroke-linejoin="miter" stroke-miterlimit="4" transform="translate(13.464566929 31.703956693)" d="M 0 0m 0 59.527559055l 141.732283465 -59.527559055"/><path fill="none" transform="translate(92.570311024 20.82634252)" d="M 0 0h 45.883v 7.582h -45.883v -7.582Z "/><g transform="translate(92.570310992 20.826342394)"><g transform="matrix(1 0 0 -1 0 5.593)"><use xlink:href="#gC8D6D5492F0FFEF84F8079BC5341E7A6" x="0" y="0" fill="#1a1a18" fill-rule="nonzero"/><use xlink:href="#g430571653545A60A3EF6386D136EADA3" x="3.536" y="0" fill="#1a1a18" fill-rule="nonzero"/><use xlink:href="#gF931FC691828778A920607CF18B9C32A" x="7.9475" y="0" fill="#1a1a18" fill-rule="nonzero"/><use xlink:href="#gC8932C6BA7F518DC74E87E2F4A0224EB" x="11.832" y="0" fill="#1a1a18" fill-rule="nonzero"/><use xlink:href="#gE7AE90A8EDDEF3DDB67EE78D36D80337" x="16.813" y="0" fill="#1a1a18" fill-rule="nonzero"/><use xlink:href="#g307C193B65AEABDBB47E80D2901699BD" x="21.794" y="0" fill="#1a1a18" fill-rule="nonzero"/><use xlink:href="#gF931FC691828778A920607CF18B9C32A" x="26.6985" y="0" fill="#1a1a18" fill-rule="nonzero"/><use xlink:href="#g8C1172E200F7C8B0584A0B9E041FADA3" x="32.708" y="0" fill="#1a1a18" fill-rule="nonzero"/><use xlink:href="#gF931FC691828778A920607CF18B9C32A" x="38.2925" y="0" fill="#1a1a18" fill-rule="nonzero"/><use xlink:href="#g11CAB86DAD56BCA12FE1B0081452B59D" x="42.177" y="0" fill="#1a1a18" fill-rule="nonzero"/></g></g><path fill="none" transform="translate(26.191377953 34.023248031)" d="M 0 0h 25.57v 6.7h -25.57v -6.7Z "/><g transform="translate(26.191377921 34.023247906)"><g transform="matrix(1 0 0 -1 0 6.58)"><use xlink:href="#g7D7A5D08C55ACC07707850317A5B7900" x="0" y="0" fill="#1a1a18" fill-rule="nonzero"/><use xlink:href="#g58FE41588FF370B2D963AE7490CB53AD" x="4.57" y="0" fill="#1a1a18" fill-rule="nonzero"/><use xlink:href="#g4C5600170187B2FBAE4AB64C2B9CBFAF" x="9.84" y="0" fill="#1a1a18" fill-rule="nonzero"/><use xlink:href="#g7D7A5D08C55ACC07707850317A5B7900" x="16.64" y="0" fill="#1a1a18" fill-rule="nonzero"/><use xlink:href="#gE2723647FFCFE887839C6909BF8FF8CF" x="21.21" y="0" fill="#1a1a18" fill-rule="nonzero"/></g></g><path fill="none" transform="translate(7.611377953 46.206830709)" d="M 0 0h 62.73v 5.01h -62.73v -5.01Z "/><g transform="translate(7.611377953 46.206830661)"><g transform="matrix(1 0 0 -1 0 4.935)"><use xlink:href="#g16EB0E76256A1564D6F72B0EC768AD0D" x="0" y="0" fill="#7c7f6a" fill-rule="nonzero"/><use xlink:href="#gE9DD31ED97DC901ABB725871441019F4" x="3.5925" y="0" fill="#7c7f6a" fill-rule="nonzero"/><use xlink:href="#g24A3F0AF4AD0375F71DE4AF9BEABB01F" x="9.0225" y="0" fill="#7c7f6a" fill-rule="nonzero"/><use xlink:href="#g9DFB8CAEC5B458B41F3893F12F8EC954" x="12.2325" y="0" fill="#7c7f6a" fill-rule="nonzero"/><use xlink:href="#g7B6E1CB6926B0D89434DDB00C857E76D" x="16.0125" y="0" fill="#7c7f6a" fill-rule="nonzero"/><use xlink:href="#g9DFB8CAEC5B458B41F3893F12F8EC954" x="19.7775" y="0" fill="#7c7f6a" fill-rule="nonzero"/><use xlink:href="#g3036A15D0A2AECE5F3220ADA73EBBEB6" x="23.5575" y="0" fill="#7c7f6a" fill-rule="nonzero"/></g><g transform="matrix(1 0 0 -1 28.785 4.935)"><use xlink:href="#gAD6BD2BC94FCEA40EE76264C1A085F25" x="0" y="0" fill="#7c7f6a" fill-rule="nonzero"/><use xlink:href="#g75DCDF0F5DB8078EA817E8A061367275" x="5.9325" y="0" fill="#7c7f6a" fill-rule="nonzero"/></g><g transform="matrix(1 0 0 -1 38.4675 4.935)"><use xlink:href="#g9FFCC18D170BB6C28C600E5B5ACB7B09" x="0" y="0" fill="#7c7f6a" fill-rule="nonzero"/><use xlink:href="#gFF794F08E96A5B8C53E798F025ED07F6" x="5.1" y="0" fill="#7c7f6a" fill-rule="nonzero"/><use xlink:href="#g9BD8815497ACE2CCB2ADDC08AAA56E57" x="8.5275" y="0" fill="#7c7f6a" fill-rule="nonzero"/><use xlink:href="#gEEA2F4BC857577D5A54B2015EAE5E394" x="12.9225" y="0" fill="#7c7f6a" fill-rule="nonzero"/><use xlink:href="#gD7561D22518914316F6BE22AAAA2B6AA" x="16.26" y="0" fill="#7c7f6a" fill-rule="nonzero"/><use xlink:href="#g86819BE7115F3729C1E76AE930029E69" x="20.655" y="0" fill="#7c7f6a" fill-rule="nonzero"/></g></g><path fill="none" transform="translate(105.781102362 83.936870079)" d="M 0 0h 30.8v 8.92h -30.8v -8.92Z "/><g transform="translate(105.781102299 83.936870047)"><g transform="matrix(1 0 0 -1 0 6.58)"><use xlink:href="#gA00006717397A74F11CDD511C8F2ED3A" x="0" y="0" fill="#1a1a18" fill-rule="nonzero"/><use xlink:href="#g8F03A4AE8D3B195D4882A1755C55580A" x="4.16" y="0" fill="#1a1a18" fill-rule="nonzero"/><use xlink:href="#g7D7A5D08C55ACC07707850317A5B7900" x="9.35" y="0" fill="#1a1a18" fill-rule="nonzero"/><use xlink:href="#gC52ECD348AA02A3C1CBBB12CA03F571C" x="13.92" y="0" fill="#1a1a18" fill-rule="nonzero"/><use xlink:href="#g3730A52707D5D005176FA819A7950DF6" x="20.49" y="0" fill="#1a1a18" fill-rule="nonzero"/><use xlink:href="#gF7E2F11D9500E34CEB199CAED225F368" x="26.35" y="0" fill="#1a1a18" fill-rule="nonzero"/></g></g><path fill="none" transform="translate(83.474852362 94.973129921)" d="M 0 0h 75.4125v 6.69h -75.4125v -6.69Z "/><g transform="translate(83.474852315 94.973129827)"><g transform="matrix(1 0 0 -1 0 4.935)"><use xlink:href="#g9BD8815497ACE2CCB2ADDC08AAA56E57" x="0" y="0" fill="#7c7f6a" fill-rule="nonzero"/><use xlink:href="#gD7561D22518914316F6BE22AAAA2B6AA" x="4.395" y="0" fill="#7c7f6a" fill-rule="nonzero"/><use xlink:href="#gAF7C32556ABD44CA15134A307C93399E" x="8.79" y="0" fill="#7c7f6a" fill-rule="nonzero"/><use xlink:href="#g7B6E1CB6926B0D89434DDB00C857E76D" x="12.06" y="0" fill="#7c7f6a" fill-rule="nonzero"/><use xlink:href="#g9DFB8CAEC5B458B41F3893F12F8EC954" x="15.825" y="0" fill="#7c7f6a" fill-rule="nonzero"/><use xlink:href="#g3036A15D0A2AECE5F3220ADA73EBBEB6" x="19.605" y="0" fill="#7c7f6a" fill-rule="nonzero"/></g><g transform="matrix(1 0 0 -1 24.8325 4.935)"><use xlink:href="#gAD6BD2BC94FCEA40EE76264C1A085F25" x="0" y="0" fill="#7c7f6a" fill-rule="nonzero"/><use xlink:href="#g75DCDF0F5DB8078EA817E8A061367275" x="5.9325" y="0" fill="#7c7f6a" fill-rule="nonzero"/></g><g transform="matrix(1 0 0 -1 34.515 4.935)"><use xlink:href="#gA99EA8F125D1936AE1DC52AE71D1D73D" x="0" y="0" fill="#7c7f6a" fill-rule="nonzero"/><use xlink:href="#g9DFB8CAEC5B458B41F3893F12F8EC954" x="4.395" y="0" fill="#7c7f6a" fill-rule="nonzero"/><use xlink:href="#g16EB0E76256A1564D6F72B0EC768AD0D" x="8.175" y="0" fill="#7c7f6a" fill-rule="nonzero"/><use xlink:href="#g3036A15D0A2AECE5F3220ADA73EBBEB6" x="11.7675" y="0" fill="#7c7f6a" fill-rule="nonzero"/><use xlink:href="#gC597D586C3D65B86B3D3351D5EC36C5C" x="15.12" y="0" fill="#7c7f6a" fill-rule="nonzero"/><use xlink:href="#gD04A6D2F90D202121232DADAE82F175A" x="19.0125" y="0" fill="#7c7f6a" fill-rule="nonzero"/><use xlink:href="#g9BD8815497ACE2CCB2ADDC08AAA56E57" x="22.6875" y="0" fill="#7c7f6a" fill-rule="nonzero"/><use xlink:href="#g9DFB8CAEC5B458B41F3893F12F8EC954" x="27.0825" y="0" fill="#7c7f6a" fill-rule="nonzero"/><use xlink:href="#g24A3F0AF4AD0375F71DE4AF9BEABB01F" x="30.8625" y="0" fill="#7c7f6a" fill-rule="nonzero"/><use xlink:href="#gEEA2F4BC857577D5A54B2015EAE5E394" x="34.0725" y="0" fill="#7c7f6a" fill-rule="nonzero"/><use xlink:href="#g401226A6362CD80CF6074807A052A046" x="37.41" y="0" fill="#7c7f6a" fill-rule="nonzero"/></g></g><path fill="#7c7f6a" fill-rule="nonzero" stroke="#1a1a18" stroke-width="0.5" stroke-linecap="butt" stroke-linejoin="miter" stroke-miterlimit="4" transform="translate(47.763779528 24.900807087)" d="M 0 0m 2.551181102 0c -1.407700913 0 -2.551181102 1.143480189 -2.551181102 2.551181102c 0 1.407700913 1.143480189 2.551181102 2.551181102 2.551181102c 1.407700913 0 2.551181102 -1.143480189 2.551181102 -2.551181102c 0 -1.407700913 -1.143480189 -2.551181102 -2.551181102 -2.551181102Z "/><path fill="none" transform="translate(54.566929134 19.27394685)" d="M 0 0h 27.2025v 5.0175h -27.2025v -5.0175Z "/><g transform="translate(54.566929134 19.27394685)"><g transform="matrix(1 0 0 -1 0 4.935)"><use xlink:href="#gA28A4DDDA94ED62E1BA5E3AFFF87B71D" x="0" y="0" fill="#1a1a18" fill-rule="nonzero"/><use xlink:href="#gF6226AF1AB229DF68D0EA20ED7A15A8F" x="6" y="0" fill="#1a1a18" fill-rule="nonzero"/><use xlink:href="#g8866A39DF7EFF8CC51FD052ABAB26C99" x="9.4875" y="0" fill="#1a1a18" fill-rule="nonzero"/><use xlink:href="#g755DF9CE1CDD846D73FA5B6599213F56" x="12.975" y="0" fill="#1a1a18" fill-rule="nonzero"/><use xlink:href="#g7B6E1CB6926B0D89434DDB00C857E76D" x="18.3375" y="0" fill="#1a1a18" fill-rule="nonzero"/><use xlink:href="#g9FFCC18D170BB6C28C600E5B5ACB7B09" x="22.1025" y="0" fill="#1a1a18" fill-rule="nonzero"/></g></g><path fill="none" stroke="#7c7f6a" stroke-width="1" stroke-linecap="butt" stroke-linejoin="miter" stroke-miterlimit="4" stroke-dashoffset="0" stroke-dasharray="3 3" transform="translate(53.149606299 31.703956693)" d="M 0 0l 41.119559017 55.254407429"/><path fill="#7c7f6a" fill-rule="nonzero" stroke="#7c7f6a" stroke-width="1" stroke-linecap="butt" stroke-linejoin="miter" stroke-miterlimit="4" stroke-dashoffset="0" stroke-dasharray="3 3" transform="translate(92.563630143 85.689128612)" d="M 0 0m 5.09016318 5.817329341l -5.09016318 -3.27885835l 3.411070384 -2.538470991l 1.679092795 5.817329341Z "/><path fill="none" transform="translate(101.338582677 48.853059055)" d="M 0 0h 63.152v 28.064h -63.152v -28.064Z "/><g transform="translate(101.338582567 48.853058992)"><g transform="matrix(1 0 0 -1 0 5.264)"><use xlink:href="#gDFD38EC9906BA626C5B7E69A103C103" x="0" y="0" fill="#7c7f6a" fill-rule="nonzero"/><use xlink:href="#gADB3B27726748394AAF96F33FED6E9BE" x="3.912" y="0" fill="#7c7f6a" fill-rule="nonzero"/><use xlink:href="#g9F99202881449AD6C0CCCD21824C9AF1" x="9.704" y="0" fill="#7c7f6a" fill-rule="nonzero"/><use xlink:href="#gE09E60C0AC8E2E10ADA02C2F49261352" x="13.128" y="0" fill="#7c7f6a" fill-rule="nonzero"/><use xlink:href="#g46DFAA35BC521B4F2378CE697B4B163E" x="16.688" y="0" fill="#7c7f6a" fill-rule="nonzero"/><use xlink:href="#gADB3B27726748394AAF96F33FED6E9BE" x="20.84" y="0" fill="#7c7f6a" fill-rule="nonzero"/><use xlink:href="#g9E0D72929382BA054F8819A862FD1C38" x="26.632" y="0" fill="#7c7f6a" fill-rule="nonzero"/><use xlink:href="#gF859B786D36C3A3EB6E93A57BC4F802" x="33.32" y="0" fill="#7c7f6a" fill-rule="nonzero"/><use xlink:href="#g5D01DA3AB390CB78D7E54204B7DC3F87" x="38.008" y="0" fill="#7c7f6a" fill-rule="nonzero"/><use xlink:href="#gAC00C34078948F83CC62D60B02C8E81A" x="42.04" y="0" fill="#7c7f6a" fill-rule="nonzero"/><use xlink:href="#gA95788BCA9E2715FE5A0F4C934F34499" x="46.344" y="0" fill="#7c7f6a" fill-rule="nonzero"/><use xlink:href="#g5B86C949DFB7906AEEFB9D7AF40C1424" x="50.864" y="0" fill="#7c7f6a" fill-rule="nonzero"/><use xlink:href="#gE4F86D8BE8C69EC1EB36B973594724AB" x="54.44" y="0" fill="#7c7f6a" fill-rule="nonzero"/></g><g transform="matrix(1 0 0 -1 0 15.728)"><use xlink:href="#gF79D9CC171E1ACC5162F855F1894F43E" x="0" y="0" fill="#7c7f6a" fill-rule="nonzero"/><use xlink:href="#gFF63DA2595F1651AF0C535BF803D9AEC" x="3.656" y="0" fill="#7c7f6a" fill-rule="nonzero"/><use xlink:href="#gE4F86D8BE8C69EC1EB36B973594724AB" x="7.872" y="0" fill="#7c7f6a" fill-rule="nonzero"/><use xlink:href="#gF79D9CC171E1ACC5162F855F1894F43E" x="13.312" y="0" fill="#7c7f6a" fill-rule="nonzero"/><use xlink:href="#gF09D88C2290872E835CD22D560D52A5C" x="16.968" y="0" fill="#7c7f6a" fill-rule="nonzero"/><use xlink:href="#g937124D7F3D66536776BB8DA5DFD7893" x="22.456" y="0" fill="#7c7f6a" fill-rule="nonzero"/><use xlink:href="#g465CA45D0696F5BBCE5E7A11B5E63D98" x="27.144" y="0" fill="#7c7f6a" fill-rule="nonzero"/><use xlink:href="#g89E7AED93332C4356E163D20D023452" x="32.72" y="0" fill="#7c7f6a" fill-rule="nonzero"/><use xlink:href="#g9F99202881449AD6C0CCCD21824C9AF1" x="36.84" y="0" fill="#7c7f6a" fill-rule="nonzero"/><use xlink:href="#gF859B786D36C3A3EB6E93A57BC4F802" x="40.264" y="0" fill="#7c7f6a" fill-rule="nonzero"/><use xlink:href="#g465CA45D0696F5BBCE5E7A11B5E63D98" x="44.952" y="0" fill="#7c7f6a" fill-rule="nonzero"/><use xlink:href="#gE9BB349F7E32C39203BC6B218DF12838" x="48.528" y="0" fill="#7c7f6a" fill-rule="nonzero"/><use xlink:href="#gF79D9CC171E1ACC5162F855F1894F43E" x="52.36" y="0" fill="#7c7f6a" fill-rule="nonzero"/><use xlink:href="#g465CA45D0696F5BBCE5E7A11B5E63D98" x="56.016" y="0" fill="#7c7f6a" fill-rule="nonzero"/><use xlink:href="#gE09E60C0AC8E2E10ADA02C2F49261352" x="59.592" y="0" fill="#7c7f6a" fill-rule="nonzero"/></g><g transform="matrix(1 0 0 -1 0 26.192)"><use xlink:href="#g9F99202881449AD6C0CCCD21824C9AF1" x="0" y="0" fill="#7c7f6a" fill-rule="nonzero"/><use xlink:href="#gE09E60C0AC8E2E10ADA02C2F49261352" x="3.424" y="0" fill="#7c7f6a" fill-rule="nonzero"/><use xlink:href="#gF79D9CC171E1ACC5162F855F1894F43E" x="6.984" y="0" fill="#7c7f6a" fill-rule="nonzero"/><use xlink:href="#gE09E60C0AC8E2E10ADA02C2F49261352" x="10.64" y="0" fill="#7c7f6a" fill-rule="nonzero"/><use xlink:href="#gC175399424EF2D6961EAC52DB2845054" x="14.2" y="0" fill="#7c7f6a" fill-rule="nonzero"/><use xlink:href="#g3478CFDC408E67C5C7551BD6A62D2425" x="19.92" y="0" fill="#7c7f6a" fill-rule="nonzero"/><use xlink:href="#g46DFAA35BC521B4F2378CE697B4B163E" x="23.248" y="0" fill="#7c7f6a" fill-rule="nonzero"/><use xlink:href="#gF79D9CC171E1ACC5162F855F1894F43E" x="27.4" y="0" fill="#7c7f6a" fill-rule="nonzero"/><use xlink:href="#g63A822DE08B9C7E24E7A5DAFD6086CFF" x="31.056" y="0" fill="#7c7f6a" fill-rule="nonzero"/><use xlink:href="#gDF0740817C60D01D4C0A2F901DD857A7" x="36.312" y="0" fill="#7c7f6a" fill-rule="nonzero"/><use xlink:href="#gE09E60C0AC8E2E10ADA02C2F49261352" x="41" y="0" fill="#7c7f6a" fill-rule="nonzero"/><use xlink:href="#g5D01DA3AB390CB78D7E54204B7DC3F87" x="44.56" y="0" fill="#7c7f6a" fill-rule="nonzero"/><use xlink:href="#gE4F86D8BE8C69EC1EB36B973594724AB" x="48.592" y="0" fill="#7c7f6a" fill-rule="nonzero"/></g></g></g><defs><symbol id="g3EDD64AE7B5A40E8FE9DD75D51E8EE8A" overflow="visible"><path d="M 0 0m 1.547 1.037c 0 -0.7055 -0.0935 -0.748 -0.612 -0.7735c -0.051 -0.051 -0.051 -0.2295 0 -0.2805c 0.3315 0.0085 0.6715 0.017 0.952 0.017c 0.289 0 0.6205 -0.0085 0.9435 -0.017c 0.051 0.051 0.051 0.2295 0 0.2805c -0.5185 0.0255 -0.612 0.068 -0.612 0.7735v 2.295h 0.1445c 0.6885 0 0.8245 -0.238 0.969 -0.9265c 0.1105 0 0.221 0.034 0.221 0.034c -0.051 0.391 -0.085 0.765 -0.0935 1.258c -0.1955 -0.017 -0.833 -0.051 -1.258 -0.051h -0.6375c -0.425 0 -0.901 0.0255 -1.241 0.051c -0.0085 -0.493 -0.0425 -0.867 -0.102 -1.258c 0 0 0.119 -0.034 0.2295 -0.034c 0.1445 0.6885 0.272 0.9265 0.969 0.9265h 0.1275Z "/></symbol><symbol id="g5D2E58E4CDB4D7E6C81847885E22D756" overflow="visible"><path d="M 0 0m 3.281 0.7905c -0.3145 -0.323 -0.561 -0.459 -1.054 -0.459c -0.306 0 -0.663 0.1785 -0.9265 0.612c -0.17 0.2805 -0.272 0.6715 -0.272 1.1645l 2.261 -0.017c 0.102 0 0.1615 0.051 0.1615 0.1445c 0 0.714 -0.255 1.479 -1.4365 1.479c -0.7395 0 -1.7 -0.7055 -1.7 -1.9975c 0 -0.476 0.119 -0.935 0.3995 -1.258c 0.289 -0.34 0.6885 -0.544 1.3005 -0.544c 0.646 0 1.105 0.2975 1.445 0.7395c -0.0255 0.085 -0.0765 0.1275 -0.1785 0.136Z m -2.227 1.6065c 0.1615 0.9605 0.7565 1.037 0.9605 1.037c 0.323 0 0.7055 -0.1785 0.7055 -0.8925c 0 -0.0765 -0.034 -0.119 -0.1275 -0.119Z "/></symbol><symbol id="gDEA2A0379B7527B5C1F8D88530B6617D" overflow="visible"><path d="M 0 0m 0.9945 2.601l -0.051 -1.581c -0.0255 -0.714 -0.153 -0.731 -0.646 -0.7565c -0.051 -0.051 -0.051 -0.2295 0 -0.2805c 0.17 0.0085 0.595 0.017 0.731 0.017c 0.17 0 0.5695 -0.0085 0.7395 -0.017c 0.051 0.051 0.051 0.2295 0 0.2805c -0.4845 0.034 -0.5185 0.119 -0.5015 0.7565l 0.0595 2.0825c 0 0.0765 0.034 0.0765 0.068 0l 1.2325 -3.009c 0.034 -0.0255 0.068 -0.0255 0.0935 0l 1.394 3.0005c 0.0425 0.0935 0.085 0.102 0.085 0l -0.0085 -2.057c 0 -0.7055 -0.0595 -0.731 -0.578 -0.7735c -0.051 -0.051 -0.051 -0.2295 0 -0.2805c 0.306 0.0085 0.6205 0.017 0.918 0.017c 0.255 0 0.6205 -0.0085 0.952 -0.017c 0.051 0.051 0.051 0.2295 0 0.2805c -0.5185 0.034 -0.612 0.068 -0.612 0.7735l -0.017 1.5725c -0.0085 0.7055 0.0935 0.731 0.612 0.7735c 0.051 0.051 0.051 0.2295 0 0.2805c -0.2975 -0.017 -1.122 -0.017 -1.4025 -0.017l -1.1305 -2.431l -0.0425 -0.085l -0.034 0.085l -0.9945 2.431c -0.2805 0 -1.1815 0 -1.479 0.017c -0.051 -0.051 -0.051 -0.2295 0 -0.2805c 0.5185 -0.0425 0.6375 -0.0765 0.612 -0.782Z "/></symbol><symbol id="gBEE50160BCD570B38DEF46393A725EED" overflow="visible"><path d="M 0 0m 3.7145 3.6465h -2.414c -0.34 0 -0.663 0.0085 -0.918 0.017c -0.051 -0.051 -0.051 -0.2295 0 -0.2805c 0.4675 -0.034 0.578 -0.0765 0.578 -0.7735v -1.5725c 0 -0.697 -0.1105 -0.7395 -0.663 -0.7735c -0.051 -0.051 -0.051 -0.2295 0 -0.2805c 0.255 0.0085 0.663 0.017 1.003 0.017c 0.34 0 0.595 -0.0085 0.85 -0.017c 0.051 0.051 0.051 0.2295 0 0.2805c -0.4335 0.0425 -0.5185 0.0765 -0.5185 0.7735v 1.8445c 0 0.2635 0.0255 0.4335 0.357 0.4335h 1.0285c 0.3145 0 0.3655 -0.0935 0.3655 -0.4335v -1.8445c 0 -0.697 -0.085 -0.7395 -0.527 -0.7735c -0.0425 -0.051 -0.0425 -0.2295 0 -0.2805c 0.2125 0.0085 0.527 0.017 0.867 0.017c 0.34 0 0.7225 -0.0085 0.9605 -0.017c 0.0425 0.051 0.0425 0.2295 0 0.2805c -0.5525 0.034 -0.629 0.0765 -0.629 0.7735v 1.5725c 0 0.697 0.1105 0.7395 0.578 0.7735c 0.051 0.051 0.051 0.2295 0 0.2805c -0.255 -0.0085 -0.578 -0.017 -0.918 -0.017Z "/></symbol><symbol id="g430571653545A60A3EF6386D136EADA3" overflow="visible"><path d="M 0 0m 1.326 3.128c -0.0085 0.255 -0.0255 0.476 -0.068 0.561c -0.017 0.0425 -0.034 0.068 -0.102 0.068c -0.238 -0.0935 -0.459 -0.17 -1.0455 -0.2465c -0.017 -0.051 0 -0.187 0.017 -0.238c 0.459 -0.0425 0.5525 -0.085 0.5525 -0.578v -3.6295c 0 -0.7055 -0.0935 -0.748 -0.612 -0.7735c -0.051 -0.051 -0.051 -0.2295 0 -0.2805c 0.2975 0.0085 0.612 0.017 0.952 0.017c 0.34 0 0.748 -0.0085 1.0285 -0.017c 0.051 0.051 0.051 0.2295 0 0.2805c -0.6035 0.034 -0.697 0.068 -0.697 0.7735v 0.918c 0 0.1105 0.034 0.102 0.119 0.068c 0.2125 -0.085 0.4675 -0.136 0.7395 -0.136c 0.476 0 0.901 0.1445 1.2495 0.476c 0.3995 0.391 0.629 0.918 0.629 1.6065c 0 0.901 -0.6375 1.734 -1.5045 1.734c -0.391 0 -0.8245 -0.255 -1.1645 -0.6375c -0.051 -0.051 -0.085 -0.051 -0.0935 0.034Z m 0.1615 -0.3145c 0.221 0.272 0.612 0.527 0.8585 0.527c 0.544 0 1.0115 -0.612 1.0115 -1.5725c 0 -0.697 -0.2465 -1.564 -1.1985 -1.564c -0.153 0 -0.4505 0.0425 -0.6035 0.1785c -0.17 0.153 -0.204 0.204 -0.204 0.51v 1.547c 0 0.1785 0.034 0.255 0.136 0.374Z "/></symbol><symbol id="gF931FC691828778A920607CF18B9C32A" overflow="visible"><path d="M 0 0m 2.4905 0.408c 0.051 -0.2635 0.1445 -0.493 0.5695 -0.493c 0.323 0 0.629 0.1445 0.8075 0.3145c -0.017 0.102 -0.051 0.1785 -0.1445 0.2295c -0.0595 -0.051 -0.204 -0.136 -0.3145 -0.136c -0.2465 0 -0.255 0.3315 -0.255 0.7225v 1.2495c 0 1.207 -0.663 1.4365 -1.2835 1.4365c -0.697 0 -1.4025 -0.459 -1.4025 -0.9435c 0 -0.204 0.102 -0.306 0.2975 -0.306c 0.2465 0 0.3995 0.1785 0.3995 0.289c 0 0.0595 -0.0085 0.119 -0.0255 0.153c -0.0085 0.0255 -0.017 0.0765 -0.017 0.17c 0 0.2635 0.357 0.357 0.68 0.357c 0.289 0 0.6885 -0.1445 0.6885 -1.105c 0 -0.0595 -0.0255 -0.0935 -0.051 -0.102l -0.731 -0.1785c -0.816 -0.204 -1.4025 -0.6545 -1.4025 -1.2325c 0 -0.697 0.476 -0.918 1.071 -0.918c 0.2975 0 0.5525 0.068 0.9265 0.357l 0.17 0.136Z m 0 1.5725v -1.122c 0 -0.1105 -0.051 -0.17 -0.119 -0.221c -0.221 -0.1785 -0.51 -0.374 -0.748 -0.374c -0.425 0 -0.612 0.34 -0.612 0.6035c 0 0.3825 0.1785 0.7735 0.8075 0.935Z "/></symbol><symbol id="g2884EEE83F88BF741DF31D9C41AEE180" overflow="visible"><path d="M 0 0m 1.734 -1.36c 0.136 0.238 0.2465 0.476 0.3485 0.731c 0.68 1.6405 1.0625 2.516 1.5045 3.468c 0.17 0.357 0.289 0.493 0.6885 0.544c 0.051 0.051 0.051 0.2295 0 0.2805c -0.17 -0.0085 -0.3655 -0.017 -0.6035 -0.017c -0.255 0 -0.5185 0.0085 -0.7735 0.017c -0.051 -0.051 -0.051 -0.2295 0 -0.2805c 0.272 -0.0255 0.544 -0.0765 0.408 -0.3825l -0.8415 -1.9465c -0.0595 -0.136 -0.136 -0.1615 -0.204 0.0085l -0.7565 1.768c -0.153 0.357 -0.1955 0.5185 0.2805 0.5525c 0.051 0.051 0.051 0.2295 0 0.2805c -0.3145 -0.0085 -0.6545 -0.017 -0.9605 -0.017c -0.289 0 -0.5185 0.0085 -0.6885 0.017c -0.051 -0.051 -0.051 -0.2295 0 -0.2805c 0.34 -0.0425 0.4505 -0.119 0.6715 -0.6375l 0.9605 -2.2355c 0.0765 -0.17 0.204 -0.561 0.119 -0.799c -0.102 -0.2805 -0.204 -0.5185 -0.3315 -0.782c -0.0935 -0.17 -0.2125 -0.2465 -0.425 -0.2465c -0.119 0 -0.153 0.0255 -0.2465 0.0255c -0.2465 0 -0.374 -0.255 -0.374 -0.3655c 0 -0.1785 0.17 -0.3145 0.3995 -0.3145c 0.1785 0 0.5185 0.068 0.8245 0.612Z "/></symbol><symbol id="gBAF1B227155053221F22F6E06EEFED60" overflow="visible"><path d="M 0 0m 1.6065 3.6465c -0.2805 0 -0.612 0.0085 -0.867 0.017c -0.051 -0.051 -0.051 -0.2295 0 -0.2805c 0.5185 -0.0425 0.6715 -0.0765 0.6375 -0.782c -0.034 -0.782 -0.17 -1.411 -0.3145 -2.006c -0.051 -0.2295 -0.2975 -0.306 -0.5355 -0.3315c -0.1275 -0.017 -0.2465 -0.068 -0.255 -0.221l -0.051 -1.1305c 0.0595 -0.0255 0.1275 -0.034 0.2295 -0.0085c 0.0765 0.3145 0.306 1.0965 1.071 1.0965h 1.4705c 0.7565 0 1.003 -0.765 1.0795 -1.105c 0.0765 -0.017 0.153 -0.017 0.238 0.017l -0.051 1.139c 0 0.119 -0.068 0.187 -0.2295 0.2125c -0.153 0.0255 -0.3655 0.085 -0.3655 0.3995v 1.9465c 0 0.697 0.1105 0.7395 0.578 0.7735c 0.051 0.051 0.051 0.2295 0 0.2805c -0.255 -0.0085 -0.578 -0.017 -0.918 -0.017Z m -0.238 -3.213c 0 0.1445 0.2295 0.7055 0.357 2.652c 0.0085 0.1275 0.068 0.238 0.2975 0.238h 0.5865c 0.34 0 0.3825 -0.238 0.3825 -0.527v -2.0485c 0 -0.2805 -0.017 -0.4165 -0.357 -0.4165h -1.0965c -0.0935 0 -0.17 0.0085 -0.17 0.102Z "/></symbol><symbol id="g3D9A67B9902CBFFCF1182D85B33DBA41" overflow="visible"><path d="M 0 0m 1.241 3.6465c -0.3655 0 -0.663 0.0085 -0.9435 0.017c -0.051 -0.051 -0.051 -0.2295 0 -0.2805c 0.5185 -0.034 0.612 -0.068 0.612 -0.7735v -1.5725c 0 -0.7055 -0.0935 -0.731 -0.612 -0.7735c -0.051 -0.051 -0.051 -0.2295 0 -0.2805c 0.2805 0.0085 0.578 0.017 0.952 0.017c 0.3145 0 0.595 -0.017 1.1645 -0.017c 0.731 0 1.2835 0.204 1.2835 1.0455c 0 0.476 -0.2975 0.8075 -0.816 0.901v 0.0255c 0.391 0.0765 0.6885 0.3485 0.6885 0.8585c 0 0.595 -0.3655 0.85 -1.394 0.85c -0.3485 0 -0.5695 -0.017 -0.935 -0.017Z m 0.34 -1.802h 0.646c 0.5185 0 0.7395 -0.34 0.7395 -0.85c 0 -0.5695 -0.323 -0.731 -0.782 -0.731c -0.442 0 -0.6035 0.0765 -0.6035 0.4675Z m 0 0.2465v 0.986c 0 0.255 0.1955 0.306 0.6035 0.306c 0.442 0 0.7055 -0.119 0.7055 -0.629c 0 -0.34 -0.221 -0.663 -0.748 -0.663Z "/></symbol><symbol id="gB3F6F741CFF64E2F87AE274E4C795DAE" overflow="visible"><path d="M 0 0m 3.553 1.037v 1.5725c 0 0.697 0.1105 0.7395 0.578 0.7735c 0.051 0.051 0.051 0.2295 0 0.2805c -0.255 -0.0085 -0.578 -0.017 -0.918 -0.017h -1.6065c -0.2805 0 -0.612 0.0085 -0.867 0.017c -0.051 -0.051 -0.051 -0.2295 0 -0.2805c 0.6035 -0.0425 0.6885 -0.0935 0.6885 -1.0115c 0 -0.8925 -0.068 -1.36 -0.187 -1.7085c -0.1105 -0.306 -0.255 -0.4165 -0.3995 -0.4165c -0.1105 0 -0.1445 0.068 -0.1615 0.1785c -0.0255 0.1615 -0.0765 0.323 -0.3145 0.323c -0.2125 0 -0.3315 -0.17 -0.3315 -0.357c 0 -0.2635 0.238 -0.493 0.629 -0.493c 0.4335 0 0.6715 0.221 0.867 0.68c 0.17 0.408 0.221 1.275 0.221 1.853c 0 0.663 0.0255 0.884 0.3655 0.884h 0.3825c 0.323 0 0.3825 -0.204 0.3825 -0.493v -1.785c 0 -0.697 -0.085 -0.7395 -0.527 -0.7735c -0.0425 -0.051 -0.0425 -0.2295 0 -0.2805c 0.2125 0.0085 0.527 0.017 0.867 0.017c 0.34 0 0.7225 -0.0085 0.9605 -0.017c 0.0425 0.051 0.0425 0.2295 0 0.2805c -0.5525 0.034 -0.629 0.0765 -0.629 0.7735Z "/></symbol><symbol id="gC8932C6BA7F518DC74E87E2F4A0224EB" overflow="visible"><path d="M 0 0m 4.0715 2.6095c 0 0.7055 0.0935 0.731 0.612 0.7735c 0.051 0.051 0.051 0.2295 0 0.2805c -0.2975 -0.017 -0.6715 -0.017 -0.952 -0.017c -0.238 0 -0.578 0.0085 -0.9095 0.017c -0.051 -0.051 -0.051 -0.2295 0 -0.2805c 0.5185 -0.034 0.578 -0.068 0.578 -0.7735v -0.5525h -1.819v 0.5525c 0 0.7055 0.0595 0.731 0.578 0.7735c 0.051 0.051 0.051 0.2295 0 0.2805c -0.323 -0.0085 -0.646 -0.017 -0.918 -0.017c -0.255 0 -0.6035 0.0085 -0.9435 0.017c -0.051 -0.051 -0.051 -0.2295 0 -0.2805c 0.5185 -0.034 0.612 -0.068 0.612 -0.7735v -1.5725c 0 -0.7055 -0.0935 -0.731 -0.612 -0.7735c -0.051 -0.051 -0.051 -0.2295 0 -0.2805c 0.34 0.0085 0.68 0.017 0.952 0.017c 0.272 0 0.6035 -0.0085 0.9095 -0.017c 0.051 0.051 0.051 0.2295 0 0.2805c -0.5185 0.034 -0.578 0.068 -0.578 0.7735v 0.7395h 1.819v -0.7395c 0 -0.7055 -0.0595 -0.731 -0.578 -0.7735c -0.051 -0.051 -0.051 -0.2295 0 -0.2805c 0.306 0.0085 0.6205 0.017 0.918 0.017c 0.255 0 0.612 -0.0085 0.9435 -0.017c 0.051 0.051 0.051 0.2295 0 0.2805c -0.5185 0.034 -0.612 0.068 -0.612 0.7735Z "/></symbol><symbol id="gE7AE90A8EDDEF3DDB67EE78D36D80337" overflow="visible"><path d="M 0 0m 1.683 0.5355c -0.0255 0 -0.0595 0.017 -0.0595 0.102v 1.938c 0 0.7055 0.1785 0.782 0.612 0.8075c 0.051 0.051 0.051 0.2295 0 0.2805c -0.1955 -0.0085 -0.68 -0.017 -0.9945 -0.017c -0.2805 0 -0.6205 0.0085 -0.9435 0.017c -0.051 -0.051 -0.051 -0.2295 0 -0.2805c 0.5185 -0.0255 0.6545 -0.102 0.6545 -0.8075v -1.5045c 0 -0.7055 -0.136 -0.782 -0.6545 -0.8075c -0.051 -0.051 -0.051 -0.2295 0 -0.2805c 0.3315 0.0085 0.6715 0.017 0.9435 0.017c 0.1955 0 0.425 -0.0085 0.5185 -0.017c 0.0425 0.119 0.119 0.289 0.2125 0.459l 1.326 2.6605c 0.0255 0 0.0595 -0.017 0.0595 -0.102v -1.9295c 0 -0.7055 -0.1785 -0.782 -0.612 -0.8075c -0.051 -0.051 -0.051 -0.2295 0 -0.2805c 0.1955 0.0085 0.6545 0.017 0.9945 0.017c 0.2635 0 0.612 -0.0085 0.9435 -0.017c 0.051 0.051 0.051 0.2295 0 0.2805c -0.5185 0.0255 -0.6545 0.102 -0.6545 0.8075v 1.5045c 0 0.7055 0.136 0.782 0.6545 0.8075c 0.051 0.051 0.051 0.2295 0 0.2805c -0.34 -0.0085 -0.68 -0.017 -0.9435 -0.017c -0.187 0 -0.425 0.0085 -0.51 0.017c -0.068 -0.153 -0.1445 -0.3315 -0.221 -0.476Z "/></symbol><symbol id="gC8D6D5492F0FFEF84F8079BC5341E7A6" overflow="visible"><path d="M 0 0m 1.581 2.6095c 0 0.4845 0.0595 0.7055 0.357 0.7055h 0.187c 0.697 0 0.901 -0.4845 1.02 -0.9775c 0.0935 -0.0085 0.1785 0 0.2465 0.034c -0.034 0.4505 -0.0595 0.8245 -0.1105 1.275l -0.017 0.017c 0 0 -0.68 -0.017 -0.952 -0.017h -1.071c -0.3655 0 -0.663 0.0085 -0.9435 0.017c -0.051 -0.051 -0.051 -0.2295 0 -0.2805c 0.5185 -0.034 0.612 -0.068 0.612 -0.7735v -1.5725c 0 -0.7055 -0.0935 -0.731 -0.612 -0.7735c -0.051 -0.051 -0.051 -0.2295 0 -0.2805c 0.2805 0.0085 0.578 0.017 0.952 0.017c 0.3655 0 0.6715 -0.0085 0.9435 -0.017c 0.051 0.051 0.051 0.2295 0 0.2805c -0.5185 0.034 -0.612 0.068 -0.612 0.7735Z "/></symbol><symbol id="g307C193B65AEABDBB47E80D2901699BD" overflow="visible"><path d="M 0 0m 1.9125 0.3315c -0.3145 0 -0.3655 0.0935 -0.3655 0.4335v 1.8445c 0 0.697 0.085 0.7395 0.527 0.7735c 0.0425 0.051 0.0425 0.2295 0 0.2805c -0.2125 -0.0085 -0.527 -0.017 -0.867 -0.017c -0.34 0 -0.6375 0.0085 -0.8755 0.017c -0.0425 -0.051 -0.0425 -0.2295 0 -0.2805c 0.4675 -0.034 0.544 -0.0765 0.544 -0.7735v -1.5725c 0 -0.697 -0.1105 -0.7395 -0.578 -0.7735c -0.051 -0.051 -0.051 -0.2295 0 -0.2805c 0.255 0.0085 0.578 0.017 0.918 0.017h 2.142c 0.714 0 0.9605 -0.68 1.071 -1.0965c 0.0765 -0.017 0.153 -0.017 0.221 0.0085l -0.051 1.1305c -0.0085 0.153 -0.136 0.1955 -0.255 0.221c -0.1955 0.0425 -0.3315 0.0935 -0.3315 0.7735v 1.5725c 0 0.697 0.1105 0.7395 0.578 0.7735c 0.051 0.051 0.051 0.2295 0 0.2805c -0.255 -0.0085 -0.578 -0.017 -0.918 -0.017c -0.34 0 -0.595 0.0085 -0.85 0.017c -0.051 -0.051 -0.051 -0.2295 0 -0.2805c 0.4335 -0.0425 0.5185 -0.0765 0.5185 -0.7735v -1.8445c 0 -0.2635 -0.0255 -0.4335 -0.357 -0.4335Z "/></symbol><symbol id="g8C1172E200F7C8B0584A0B9E041FADA3" overflow="visible"><path d="M 0 0m 3.128 4.9555c 0 0.5525 0.034 0.8925 0.034 0.8925c 0 0.0595 -0.034 0.085 -0.1105 0.085c -0.2125 -0.085 -0.85 -0.204 -1.19 -0.2295c -0.017 -0.068 0 -0.204 0.051 -0.255c 0.493 -0.034 0.544 -0.0595 0.544 -0.697v -1.309c -0.1615 0.1785 -0.3655 0.289 -0.629 0.289c -0.7735 0 -1.496 -0.731 -1.496 -2.091c 0 -0.918 0.459 -1.7255 1.309 -1.7255c 0.34 0 0.595 0.102 0.816 0.34v -1.19c 0 -0.7055 -0.0935 -0.748 -0.612 -0.7735c -0.051 -0.051 -0.051 -0.2295 0 -0.2805c 0.2975 0.0085 0.612 0.017 0.952 0.017c 0.34 0 0.663 -0.0085 0.9435 -0.017c 0.051 0.051 0.051 0.2295 0 0.2805c -0.5185 0.0255 -0.612 0.068 -0.612 0.7735v 1.0965c 0.187 -0.187 0.374 -0.2465 0.6375 -0.2465c 0.884 0 1.4875 0.9265 1.4875 2.074c 0 0.9435 -0.4505 1.7425 -1.3005 1.7425c -0.3995 0 -0.6375 -0.153 -0.8245 -0.3825Z m 0.5865 -1.564c 0.7055 0 0.8415 -0.9095 0.8415 -1.6235c 0 -0.7395 -0.136 -1.513 -0.8755 -1.513c -0.1785 0 -0.3655 0.051 -0.5525 0.323v 2.4565c 0.187 0.272 0.3995 0.357 0.5865 0.357Z m -1.836 -3.1365c -0.697 0 -0.85 0.918 -0.85 1.632c 0 0.7395 0.153 1.5045 0.8925 1.5045c 0.187 0 0.3485 -0.085 0.5355 -0.3145v -2.448c -0.1615 -0.255 -0.3485 -0.374 -0.578 -0.374Z "/></symbol><symbol id="g11CAB86DAD56BCA12FE1B0081452B59D" overflow="visible"><path d="M 0 0m 0.3655 0.7055c 0 -0.187 0.1105 -0.323 0.289 -0.459c 0.2125 -0.153 0.493 -0.3315 1.1645 -0.3315c 0.85 0 1.513 0.255 1.513 1.0965c 0 0.51 -0.255 0.85 -0.8585 0.952v 0.0255c 0.5185 0.1955 0.6545 0.4335 0.6545 0.8755c 0 0.493 -0.34 0.867 -1.1985 0.867c -0.4505 0 -0.85 -0.1615 -1.309 -0.238l -0.1105 -1.0115c 0.068 -0.034 0.153 -0.0425 0.2295 -0.034c 0.1615 0.493 0.374 0.986 1.088 0.986c 0.4675 0 0.6205 -0.2805 0.6205 -0.6205c 0 -0.3485 -0.0595 -0.7565 -0.6035 -0.7565c -0.1615 0 -0.306 0.051 -0.4675 0.051c -0.0765 0 -0.1615 -0.051 -0.1615 -0.187c 0 -0.136 0.0935 -0.1785 0.17 -0.1785c 0.1615 0 0.255 0.051 0.4675 0.051c 0.629 0 0.748 -0.4335 0.748 -0.8075c 0 -0.5015 -0.187 -0.7735 -0.7905 -0.7735c -0.4845 0 -0.5695 0.1785 -0.714 0.4845c -0.068 0.153 -0.1615 0.272 -0.3825 0.272c -0.153 0 -0.3485 -0.1275 -0.3485 -0.2635Z "/></symbol><symbol id="g7D7A5D08C55ACC07707850317A5B7900" overflow="visible"><path d="M 0 0m 2.93 0.48c 0.06 -0.31 0.17 -0.58 0.67 -0.58c 0.38 0 0.74 0.17 0.95 0.37c -0.02 0.12 -0.06 0.21 -0.17 0.27c -0.07 -0.06 -0.24 -0.16 -0.37 -0.16c -0.29 0 -0.3 0.39 -0.3 0.85v 1.47c 0 1.42 -0.78 1.69 -1.51 1.69c -0.82 0 -1.65 -0.54 -1.65 -1.11c 0 -0.24 0.12 -0.36 0.35 -0.36c 0.29 0 0.47 0.21 0.47 0.34c 0 0.07 -0.01 0.14 -0.03 0.18c -0.01 0.03 -0.02 0.09 -0.02 0.2c 0 0.31 0.42 0.42 0.8 0.42c 0.34 0 0.81 -0.17 0.81 -1.3c 0 -0.07 -0.03 -0.11 -0.06 -0.12l -0.86 -0.21c -0.96 -0.24 -1.65 -0.77 -1.65 -1.45c 0 -0.82 0.56 -1.08 1.26 -1.08c 0.35 0 0.65 0.08 1.09 0.42l 0.2 0.16Z m 0 1.85v -1.32c 0 -0.13 -0.06 -0.2 -0.14 -0.26c -0.26 -0.21 -0.6 -0.44 -0.88 -0.44c -0.5 0 -0.72 0.4 -0.72 0.71c 0 0.45 0.21 0.91 0.95 1.1Z "/></symbol><symbol id="g58FE41588FF370B2D963AE7490CB53AD" overflow="visible"><path d="M 0 0m 4.18 1.22v 1.85c 0 0.82 0.13 0.87 0.68 0.91c 0.06 0.06 0.06 0.27 0 0.33c -0.3 -0.01 -0.68 -0.02 -1.08 -0.02h -1.89c -0.33 0 -0.72 0.01 -1.02 0.02c -0.06 -0.06 -0.06 -0.27 0 -0.33c 0.71 -0.05 0.81 -0.11 0.81 -1.19c 0 -1.05 -0.08 -1.6 -0.22 -2.01c -0.13 -0.36 -0.3 -0.49 -0.47 -0.49c -0.13 0 -0.17 0.08 -0.19 0.21c -0.03 0.19 -0.09 0.38 -0.37 0.38c -0.25 0 -0.39 -0.2 -0.39 -0.42c 0 -0.31 0.28 -0.58 0.74 -0.58c 0.51 0 0.79 0.26 1.02 0.8c 0.2 0.48 0.26 1.5 0.26 2.18c 0 0.78 0.03 1.04 0.43 1.04h 0.45c 0.38 0 0.45 -0.24 0.45 -0.58v -2.1c 0 -0.82 -0.1 -0.87 -0.62 -0.91c -0.05 -0.06 -0.05 -0.27 0 -0.33c 0.25 0.01 0.62 0.02 1.02 0.02c 0.4 0 0.85 -0.01 1.13 -0.02c 0.05 0.06 0.05 0.27 0 0.33c -0.65 0.04 -0.74 0.09 -0.74 0.91Z "/></symbol><symbol id="g4C5600170187B2FBAE4AB64C2B9CBFAF" overflow="visible"><path d="M 0 0m 1.17 3.06l -0.06 -1.86c -0.03 -0.84 -0.18 -0.86 -0.76 -0.89c -0.06 -0.06 -0.06 -0.27 0 -0.33c 0.2 0.01 0.7 0.02 0.86 0.02c 0.2 0 0.67 -0.01 0.87 -0.02c 0.06 0.06 0.06 0.27 0 0.33c -0.57 0.04 -0.61 0.14 -0.59 0.89l 0.07 2.45c 0 0.09 0.04 0.09 0.08 0l 1.45 -3.54c 0.04 -0.03 0.08 -0.03 0.11 0l 1.64 3.53c 0.05 0.11 0.1 0.12 0.1 0l -0.01 -2.42c 0 -0.83 -0.07 -0.86 -0.68 -0.91c -0.06 -0.06 -0.06 -0.27 0 -0.33c 0.36 0.01 0.73 0.02 1.08 0.02c 0.3 0 0.73 -0.01 1.12 -0.02c 0.06 0.06 0.06 0.27 0 0.33c -0.61 0.04 -0.72 0.08 -0.72 0.91l -0.02 1.85c -0.01 0.83 0.11 0.86 0.72 0.91c 0.06 0.06 0.06 0.27 0 0.33c -0.35 -0.02 -1.32 -0.02 -1.65 -0.02l -1.33 -2.86l -0.05 -0.1l -0.04 0.1l -1.17 2.86c -0.33 0 -1.39 0 -1.74 0.02c -0.06 -0.06 -0.06 -0.27 0 -0.33c 0.61 -0.05 0.75 -0.09 0.72 -0.92Z "/></symbol><symbol id="gE2723647FFCFE887839C6909BF8FF8CF" overflow="visible"><path d="M 0 0m 0.43 0.83c 0 -0.22 0.13 -0.38 0.34 -0.54c 0.25 -0.18 0.58 -0.39 1.37 -0.39c 1 0 1.78 0.3 1.78 1.29c 0 0.6 -0.3 1 -1.01 1.12v 0.03c 0.61 0.23 0.77 0.51 0.77 1.03c 0 0.58 -0.4 1.02 -1.41 1.02c -0.53 0 -1 -0.19 -1.54 -0.28l -0.13 -1.19c 0.08 -0.04 0.18 -0.05 0.27 -0.04c 0.19 0.58 0.44 1.16 1.28 1.16c 0.55 0 0.73 -0.33 0.73 -0.73c 0 -0.41 -0.07 -0.89 -0.71 -0.89c -0.19 0 -0.36 0.06 -0.55 0.06c -0.09 0 -0.19 -0.06 -0.19 -0.22c 0 -0.16 0.11 -0.21 0.2 -0.21c 0.19 0 0.3 0.06 0.55 0.06c 0.74 0 0.88 -0.51 0.88 -0.95c 0 -0.59 -0.22 -0.91 -0.93 -0.91c -0.57 0 -0.67 0.21 -0.84 0.57c -0.08 0.18 -0.19 0.32 -0.45 0.32c -0.18 0 -0.41 -0.15 -0.41 -0.31Z "/></symbol><symbol id="g16EB0E76256A1564D6F72B0EC768AD0D" overflow="visible"><path d="M 0 0m 1.095 3.2175c -0.3225 0 -0.585 0.0075 -0.8325 0.015c -0.045 -0.045 -0.045 -0.2025 0 -0.2475c 0.4575 -0.03 0.54 -0.06 0.54 -0.6825v -1.3875c 0 -0.6225 -0.0825 -0.645 -0.54 -0.6825c -0.045 -0.045 -0.045 -0.2025 0 -0.2475c 0.2475 0.0075 0.51 0.015 0.84 0.015c 0.2775 0 0.525 -0.015 1.0275 -0.015c 0.645 0 1.1325 0.18 1.1325 0.9225c 0 0.42 -0.2625 0.7125 -0.72 0.795v 0.0225c 0.345 0.0675 0.6075 0.3075 0.6075 0.7575c 0 0.525 -0.3225 0.75 -1.23 0.75c -0.3075 0 -0.5025 -0.015 -0.825 -0.015Z m 0.3 -1.59h 0.57c 0.4575 0 0.6525 -0.3 0.6525 -0.75c 0 -0.5025 -0.285 -0.645 -0.69 -0.645c -0.39 0 -0.5325 0.0675 -0.5325 0.4125Z m 0 0.2175v 0.87c 0 0.225 0.1725 0.27 0.5325 0.27c 0.39 0 0.6225 -0.105 0.6225 -0.555c 0 -0.3 -0.195 -0.585 -0.66 -0.585Z "/></symbol><symbol id="gE9DD31ED97DC901ABB725871441019F4" overflow="visible"><path d="M 0 0m 1.395 2.295c 0 0.63 0.0825 0.6525 0.54 0.69c 0.045 0.045 0.045 0.2025 0 0.2475c -0.255 -0.0075 -0.51 -0.015 -0.84 -0.015c -0.3225 0 -0.585 0.0075 -0.8325 0.015c -0.045 -0.045 -0.045 -0.2025 0 -0.2475c 0.4575 -0.03 0.54 -0.06 0.54 -0.6825v -1.3875c 0 -0.6225 -0.0825 -0.645 -0.54 -0.6825c -0.045 -0.045 -0.045 -0.2025 0 -0.2475c 0.2475 0.0075 0.51 0.015 0.84 0.015c 0.3075 0 0.4725 -0.015 0.78 -0.015c 0.9225 0 1.425 0.2325 1.425 1.035c 0 0.705 -0.615 0.9075 -1.3725 0.9075h -0.54Z m 3.2325 0.0075c 0 0.6225 0.0825 0.645 0.54 0.6825c 0.045 0.045 0.045 0.2025 0 0.2475c -0.255 -0.0075 -0.51 -0.015 -0.84 -0.015c -0.3225 0 -0.585 0.0075 -0.8325 0.015c -0.045 -0.045 -0.045 -0.2025 0 -0.2475c 0.4575 -0.03 0.54 -0.06 0.54 -0.6825v -1.3875c 0 -0.6225 -0.0825 -0.645 -0.54 -0.6825c -0.045 -0.045 -0.045 -0.2025 0 -0.2475c 0.2475 0.0075 0.51 0.015 0.84 0.015c 0.3225 0 0.5925 -0.0075 0.8325 -0.015c 0.045 0.045 0.045 0.2025 0 0.2475c -0.4575 0.03 -0.54 0.06 -0.54 0.6825Z m -1.965 -1.3575c 0 -0.615 -0.375 -0.7125 -0.7725 -0.7125c -0.3675 0 -0.495 0.075 -0.495 0.3375v 1.11h 0.5325c 0.5625 0 0.735 -0.3375 0.735 -0.735Z "/></symbol><symbol id="g24A3F0AF4AD0375F71DE4AF9BEABB01F" overflow="visible"><path d="M 0 0m 2.985 0.6825c -0.03 0.0675 -0.09 0.0975 -0.1575 0.105c -0.255 -0.33 -0.5775 -0.495 -0.9 -0.495c -0.5475 0 -1.005 0.555 -1.005 1.4325c 0 0.825 0.36 1.32 0.855 1.32c 0.4425 0 0.5025 -0.2625 0.5325 -0.525c 0.0225 -0.2025 0.1275 -0.27 0.285 -0.27c 0.1575 0 0.3675 0.0975 0.3675 0.33c 0 0.4125 -0.4275 0.7125 -1.1475 0.7125c -0.7425 0 -1.5375 -0.6675 -1.5375 -1.7325c 0 -0.9675 0.54 -1.635 1.485 -1.635c 0.45 0 0.8475 0.1425 1.2225 0.7575Z "/></symbol><symbol id="g9DFB8CAEC5B458B41F3893F12F8EC954" overflow="visible"><path d="M 0 0m 0.3075 1.5375c 0 -0.765 0.51 -1.6125 1.575 -1.6125c 0.48 0 0.8475 0.1725 1.1025 0.42c 0.3375 0.33 0.4875 0.8025 0.4875 1.26c 0 0.78 -0.4275 1.6875 -1.575 1.6875c -0.495 0 -0.9 -0.2025 -1.1775 -0.525c -0.27 -0.3225 -0.4125 -0.7575 -0.4125 -1.23Z m 1.4775 1.4925c 0.645 0 1.0425 -0.585 1.0425 -1.665c 0 -0.945 -0.4875 -1.1775 -0.84 -1.1775c -0.78 0 -1.035 0.945 -1.035 1.5225c 0 0.6525 0.1575 1.32 0.8325 1.32Z "/></symbol><symbol id="g7B6E1CB6926B0D89434DDB00C857E76D" overflow="visible"><path d="M 0 0m 2.895 0c 0 0 0.585 -0.0075 0.735 -0.015c 0.045 0.045 0.045 0.2025 0 0.2475c -0.2925 0.015 -0.3525 0.075 -0.48 0.315l -0.3375 0.6375c -0.1875 0.3525 -0.45 0.5325 -0.8775 0.5325v 0.0225c 0.2925 0.0825 0.42 0.345 0.5325 0.645c 0.09 0.2325 0.18 0.375 0.3375 0.375c 0.0675 0 0.1275 -0.0225 0.1725 -0.0525c 0.045 -0.03 0.1275 -0.0525 0.225 -0.0525c 0.165 0 0.3 0.1425 0.3 0.2925c 0 0.165 -0.18 0.3375 -0.4275 0.3375c -0.435 0 -0.6375 -0.405 -0.78 -0.7575c -0.165 -0.4125 -0.3675 -0.6975 -0.9 -0.6975v 0.4725c 0 0.6225 0.0825 0.645 0.465 0.6825c 0.045 0.045 0.045 0.2025 0 0.2475c -0.18 -0.0075 -0.465 -0.015 -0.765 -0.015c -0.3225 0 -0.585 0.0075 -0.8325 0.015c -0.045 -0.045 -0.045 -0.2025 0 -0.2475c 0.4575 -0.03 0.54 -0.06 0.54 -0.6825v -1.3875c 0 -0.6225 -0.0825 -0.645 -0.54 -0.6825c -0.045 -0.045 -0.045 -0.2025 0 -0.2475c 0.2475 0.0075 0.51 0.015 0.84 0.015c 0.2925 0 0.5925 -0.0075 0.7575 -0.015c 0.045 0.045 0.045 0.2025 0 0.2475c -0.3825 0.03 -0.465 0.06 -0.465 0.6825v 0.6525c 0.51 -0.03 0.645 -0.2325 0.78 -0.51l 0.3225 -0.675c 0.0975 -0.2025 0.2475 -0.375 0.3975 -0.3825Z "/></symbol><symbol id="g3036A15D0A2AECE5F3220ADA73EBBEB6" overflow="visible"><path d="M 0 0m 2.895 0.6975c -0.2775 -0.285 -0.495 -0.405 -0.93 -0.405c -0.27 0 -0.585 0.1575 -0.8175 0.54c -0.15 0.2475 -0.24 0.5925 -0.24 1.0275l 1.995 -0.015c 0.09 0 0.1425 0.045 0.1425 0.1275c 0 0.63 -0.225 1.305 -1.2675 1.305c -0.6525 0 -1.5 -0.6225 -1.5 -1.7625c 0 -0.42 0.105 -0.825 0.3525 -1.11c 0.255 -0.3 0.6075 -0.48 1.1475 -0.48c 0.57 0 0.975 0.2625 1.275 0.6525c -0.0225 0.075 -0.0675 0.1125 -0.1575 0.12Z m -1.965 1.4175c 0.1425 0.8475 0.6675 0.915 0.8475 0.915c 0.285 0 0.6225 -0.1575 0.6225 -0.7875c 0 -0.0675 -0.03 -0.105 -0.1125 -0.105Z "/></symbol><symbol id="gAD6BD2BC94FCEA40EE76264C1A085F25" overflow="visible"><path d="M 0 0m 0.78 3.9225v -3.0075c 0 -0.6225 -0.1275 -0.66 -0.6525 -0.6825c -0.045 -0.045 -0.045 -0.2025 0 -0.2475c 0.3375 0.0075 0.705 0.015 0.975 0.015c 0.2625 0 0.705 -0.0075 1.08 -0.015c 0.045 0.045 0.045 0.2025 0 0.2475c -0.585 0.03 -0.765 0.06 -0.765 0.6825v 1.275c 0.165 -0.0525 0.345 -0.075 0.6075 -0.075c 1.365 0 1.7775 0.8925 1.7775 1.53c 0 0.4425 -0.2925 1.245 -1.68 1.245c -0.285 0 -0.7275 -0.0525 -1.0275 -0.0525c -0.2775 0 -0.6675 0.0075 -0.9675 0.015c -0.045 -0.045 -0.045 -0.2025 0 -0.2475c 0.525 -0.0225 0.6525 -0.06 0.6525 -0.6825Z m 0.6375 0.2325c 0 0.2175 0.1125 0.48 0.6525 0.48c 0.5175 0 1.035 -0.1725 1.035 -1.125c 0 -0.81 -0.39 -1.14 -1.1175 -1.14c -0.1875 0 -0.4875 0.015 -0.57 0.0375Z "/></symbol><symbol id="g75DCDF0F5DB8078EA817E8A061367275" overflow="visible"><path d="M 0 0m 0.9375 1.4925c 0.21 0 0.405 0.195 0.405 0.405c 0 0.21 -0.195 0.405 -0.405 0.405c -0.21 0 -0.405 -0.195 -0.405 -0.405c 0 -0.21 0.195 -0.405 0.405 -0.405Z "/></symbol><symbol id="g9FFCC18D170BB6C28C600E5B5ACB7B09" overflow="visible"><path d="M 0 0m 0.8775 2.295l -0.045 -1.395c -0.0225 -0.63 -0.135 -0.645 -0.57 -0.6675c -0.045 -0.045 -0.045 -0.2025 0 -0.2475c 0.15 0.0075 0.525 0.015 0.645 0.015c 0.15 0 0.5025 -0.0075 0.6525 -0.015c 0.045 0.045 0.045 0.2025 0 0.2475c -0.4275 0.03 -0.4575 0.105 -0.4425 0.6675l 0.0525 1.8375c 0 0.0675 0.03 0.0675 0.06 0l 1.0875 -2.655c 0.03 -0.0225 0.06 -0.0225 0.0825 0l 1.23 2.6475c 0.0375 0.0825 0.075 0.09 0.075 0l -0.0075 -1.815c 0 -0.6225 -0.0525 -0.645 -0.51 -0.6825c -0.045 -0.045 -0.045 -0.2025 0 -0.2475c 0.27 0.0075 0.5475 0.015 0.81 0.015c 0.225 0 0.5475 -0.0075 0.84 -0.015c 0.045 0.045 0.045 0.2025 0 0.2475c -0.4575 0.03 -0.54 0.06 -0.54 0.6825l -0.015 1.3875c -0.0075 0.6225 0.0825 0.645 0.54 0.6825c 0.045 0.045 0.045 0.2025 0 0.2475c -0.2625 -0.015 -0.99 -0.015 -1.2375 -0.015l -0.9975 -2.145l -0.0375 -0.075l -0.03 0.075l -0.8775 2.145c -0.2475 0 -1.0425 0 -1.305 0.015c -0.045 -0.045 -0.045 -0.2025 0 -0.2475c 0.4575 -0.0375 0.5625 -0.0675 0.54 -0.69Z "/></symbol><symbol id="gFF794F08E96A5B8C53E798F025ED07F6" overflow="visible"><path d="M 0 0m 2.1975 0.36c 0.045 -0.2325 0.1275 -0.435 0.5025 -0.435c 0.285 0 0.555 0.1275 0.7125 0.2775c -0.015 0.09 -0.045 0.1575 -0.1275 0.2025c -0.0525 -0.045 -0.18 -0.12 -0.2775 -0.12c -0.2175 0 -0.225 0.2925 -0.225 0.6375v 1.1025c 0 1.065 -0.585 1.2675 -1.1325 1.2675c -0.615 0 -1.2375 -0.405 -1.2375 -0.8325c 0 -0.18 0.09 -0.27 0.2625 -0.27c 0.2175 0 0.3525 0.1575 0.3525 0.255c 0 0.0525 -0.0075 0.105 -0.0225 0.135c -0.0075 0.0225 -0.015 0.0675 -0.015 0.15c 0 0.2325 0.315 0.315 0.6 0.315c 0.255 0 0.6075 -0.1275 0.6075 -0.975c 0 -0.0525 -0.0225 -0.0825 -0.045 -0.09l -0.645 -0.1575c -0.72 -0.18 -1.2375 -0.5775 -1.2375 -1.0875c 0 -0.615 0.42 -0.81 0.945 -0.81c 0.2625 0 0.4875 0.06 0.8175 0.315l 0.15 0.12Z m 0 1.3875v -0.99c 0 -0.0975 -0.045 -0.15 -0.105 -0.195c -0.195 -0.1575 -0.45 -0.33 -0.66 -0.33c -0.375 0 -0.54 0.3 -0.54 0.5325c 0 0.3375 0.1575 0.6825 0.7125 0.825Z "/></symbol><symbol id="g9BD8815497ACE2CCB2ADDC08AAA56E57" overflow="visible"><path d="M 0 0m 3.5925 2.3025c 0 0.6225 0.0825 0.645 0.54 0.6825c 0.045 0.045 0.045 0.2025 0 0.2475c -0.2625 -0.015 -0.5925 -0.015 -0.84 -0.015c -0.21 0 -0.51 0.0075 -0.8025 0.015c -0.045 -0.045 -0.045 -0.2025 0 -0.2475c 0.4575 -0.03 0.51 -0.06 0.51 -0.6825v -0.4875h -1.605v 0.4875c 0 0.6225 0.0525 0.645 0.51 0.6825c 0.045 0.045 0.045 0.2025 0 0.2475c -0.285 -0.0075 -0.57 -0.015 -0.81 -0.015c -0.225 0 -0.5325 0.0075 -0.8325 0.015c -0.045 -0.045 -0.045 -0.2025 0 -0.2475c 0.4575 -0.03 0.54 -0.06 0.54 -0.6825v -1.3875c 0 -0.6225 -0.0825 -0.645 -0.54 -0.6825c -0.045 -0.045 -0.045 -0.2025 0 -0.2475c 0.3 0.0075 0.6 0.015 0.84 0.015c 0.24 0 0.5325 -0.0075 0.8025 -0.015c 0.045 0.045 0.045 0.2025 0 0.2475c -0.4575 0.03 -0.51 0.06 -0.51 0.6825v 0.6525h 1.605v -0.6525c 0 -0.6225 -0.0525 -0.645 -0.51 -0.6825c -0.045 -0.045 -0.045 -0.2025 0 -0.2475c 0.27 0.0075 0.5475 0.015 0.81 0.015c 0.225 0 0.54 -0.0075 0.8325 -0.015c 0.045 0.045 0.045 0.2025 0 0.2475c -0.4575 0.03 -0.54 0.06 -0.54 0.6825Z "/></symbol><symbol id="gEEA2F4BC857577D5A54B2015EAE5E394" overflow="visible"><path d="M 0 0m 1.365 0.915c 0 -0.6225 -0.0825 -0.66 -0.54 -0.6825c -0.045 -0.045 -0.045 -0.2025 0 -0.2475c 0.2925 0.0075 0.5925 0.015 0.84 0.015c 0.255 0 0.5475 -0.0075 0.8325 -0.015c 0.045 0.045 0.045 0.2025 0 0.2475c -0.4575 0.0225 -0.54 0.06 -0.54 0.6825v 2.025h 0.1275c 0.6075 0 0.7275 -0.21 0.855 -0.8175c 0.0975 0 0.195 0.03 0.195 0.03c -0.045 0.345 -0.075 0.675 -0.0825 1.11c -0.1725 -0.015 -0.735 -0.045 -1.11 -0.045h -0.5625c -0.375 0 -0.795 0.0225 -1.095 0.045c -0.0075 -0.435 -0.0375 -0.765 -0.09 -1.11c 0 0 0.105 -0.03 0.2025 -0.03c 0.1275 0.6075 0.24 0.8175 0.855 0.8175h 0.1125Z "/></symbol><symbol id="gD7561D22518914316F6BE22AAAA2B6AA" overflow="visible"><path d="M 0 0m 1.485 0.4725c -0.0225 0 -0.0525 0.015 -0.0525 0.09v 1.71c 0 0.6225 0.1575 0.69 0.54 0.7125c 0.045 0.045 0.045 0.2025 0 0.2475c -0.1725 -0.0075 -0.6 -0.015 -0.8775 -0.015c -0.2475 0 -0.5475 0.0075 -0.8325 0.015c -0.045 -0.045 -0.045 -0.2025 0 -0.2475c 0.4575 -0.0225 0.5775 -0.09 0.5775 -0.7125v -1.3275c 0 -0.6225 -0.12 -0.69 -0.5775 -0.7125c -0.045 -0.045 -0.045 -0.2025 0 -0.2475c 0.2925 0.0075 0.5925 0.015 0.8325 0.015c 0.1725 0 0.375 -0.0075 0.4575 -0.015c 0.0375 0.105 0.105 0.255 0.1875 0.405l 1.17 2.3475c 0.0225 0 0.0525 -0.015 0.0525 -0.09v -1.7025c 0 -0.6225 -0.1575 -0.69 -0.54 -0.7125c -0.045 -0.045 -0.045 -0.2025 0 -0.2475c 0.1725 0.0075 0.5775 0.015 0.8775 0.015c 0.2325 0 0.54 -0.0075 0.8325 -0.015c 0.045 0.045 0.045 0.2025 0 0.2475c -0.4575 0.0225 -0.5775 0.09 -0.5775 0.7125v 1.3275c 0 0.6225 0.12 0.69 0.5775 0.7125c 0.045 0.045 0.045 0.2025 0 0.2475c -0.3 -0.0075 -0.6 -0.015 -0.8325 -0.015c -0.165 0 -0.375 0.0075 -0.45 0.015c -0.06 -0.135 -0.1275 -0.2925 -0.195 -0.42Z "/></symbol><symbol id="g86819BE7115F3729C1E76AE930029E69" overflow="visible"><path d="M 0 0m 0.855 0c 0.21 0.0075 0.285 0.2025 0.375 0.4725c 0.195 0.5925 0.4125 0.96 0.7875 0.96h 0.195v -0.5175c 0 -0.6225 -0.0825 -0.645 -0.54 -0.6825c -0.045 -0.045 -0.045 -0.2025 0 -0.2475c 0.2475 0.0075 0.51 0.015 0.84 0.015c 0.3225 0 0.5925 -0.0075 0.8325 -0.015c 0.045 0.045 0.045 0.2025 0 0.2475c -0.4575 0.03 -0.54 0.06 -0.54 0.6825v 1.3875c 0 0.6225 0.0825 0.645 0.54 0.6825c 0.045 0.045 0.045 0.2025 0 0.2475c -0.255 -0.0075 -0.51 -0.015 -0.84 -0.015c -0.255 0 -0.4725 0.015 -0.66 0.015c -1.3125 0 -1.425 -0.54 -1.425 -0.945c 0 -0.4875 0.375 -0.735 0.93 -0.7575c 0.0225 0 0.0225 -0.0225 0.015 -0.03c -0.285 -0.0825 -0.4125 -0.24 -0.54 -0.5175c -0.0825 -0.1725 -0.15 -0.3375 -0.1875 -0.435c -0.0975 -0.255 -0.225 -0.3 -0.5175 -0.315c -0.045 -0.045 -0.045 -0.2025 0 -0.2475c 0.15 0.0075 0.735 0.015 0.735 0.015Z m 0.21 2.4075c 0 0.3525 0.1125 0.5775 0.72 0.5775c 0.3075 0 0.4275 -0.135 0.4275 -0.42v -0.8775h -0.525c -0.45 0 -0.6225 0.345 -0.6225 0.72Z "/></symbol><symbol id="gA00006717397A74F11CDD511C8F2ED3A" overflow="visible"><path d="M 0 0m 1.86 3.07c 0 0.57 0.07 0.83 0.42 0.83h 0.22c 0.82 0 1.06 -0.57 1.2 -1.15c 0.11 -0.01 0.21 0 0.29 0.04c -0.04 0.53 -0.07 0.97 -0.13 1.5l -0.02 0.02c 0 0 -0.8 -0.02 -1.12 -0.02h -1.26c -0.43 0 -0.78 0.01 -1.11 0.02c -0.06 -0.06 -0.06 -0.27 0 -0.33c 0.61 -0.04 0.72 -0.08 0.72 -0.91v -1.85c 0 -0.83 -0.11 -0.86 -0.72 -0.91c -0.06 -0.06 -0.06 -0.27 0 -0.33c 0.33 0.01 0.68 0.02 1.12 0.02c 0.43 0 0.79 -0.01 1.11 -0.02c 0.06 0.06 0.06 0.27 0 0.33c -0.61 0.04 -0.72 0.08 -0.72 0.91Z "/></symbol><symbol id="g8F03A4AE8D3B195D4882A1755C55580A" overflow="visible"><path d="M 0 0m 1.56 3.68c -0.01 0.3 -0.03 0.56 -0.08 0.66c -0.02 0.05 -0.04 0.08 -0.12 0.08c -0.28 -0.11 -0.54 -0.2 -1.23 -0.29c -0.02 -0.06 0 -0.22 0.02 -0.28c 0.54 -0.05 0.65 -0.1 0.65 -0.68v -4.27c 0 -0.83 -0.11 -0.88 -0.72 -0.91c -0.06 -0.06 -0.06 -0.27 0 -0.33c 0.35 0.01 0.72 0.02 1.12 0.02c 0.4 0 0.88 -0.01 1.21 -0.02c 0.06 0.06 0.06 0.27 0 0.33c -0.71 0.04 -0.82 0.08 -0.82 0.91v 1.08c 0 0.13 0.04 0.12 0.14 0.08c 0.25 -0.1 0.55 -0.16 0.87 -0.16c 0.56 0 1.06 0.17 1.47 0.56c 0.47 0.46 0.74 1.08 0.74 1.89c 0 1.06 -0.75 2.04 -1.77 2.04c -0.46 0 -0.97 -0.3 -1.37 -0.75c -0.06 -0.06 -0.1 -0.06 -0.11 0.04Z m 0.19 -0.37c 0.26 0.32 0.72 0.62 1.01 0.62c 0.64 0 1.19 -0.72 1.19 -1.85c 0 -0.82 -0.29 -1.84 -1.41 -1.84c -0.18 0 -0.53 0.05 -0.71 0.21c -0.2 0.18 -0.24 0.24 -0.24 0.6v 1.82c 0 0.21 0.04 0.3 0.16 0.44Z "/></symbol><symbol id="gC52ECD348AA02A3C1CBBB12CA03F571C" overflow="visible"><path d="M 0 0m 3.68 5.83c 0 0.65 0.04 1.05 0.04 1.05c 0 0.07 -0.04 0.1 -0.13 0.1c -0.25 -0.1 -1 -0.24 -1.4 -0.27c -0.02 -0.08 0 -0.24 0.06 -0.3c 0.58 -0.04 0.64 -0.07 0.64 -0.82v -1.54c -0.19 0.21 -0.43 0.34 -0.74 0.34c -0.91 0 -1.76 -0.86 -1.76 -2.46c 0 -1.08 0.54 -2.03 1.54 -2.03c 0.4 0 0.7 0.12 0.96 0.4v -1.4c 0 -0.83 -0.11 -0.88 -0.72 -0.91c -0.06 -0.06 -0.06 -0.27 0 -0.33c 0.35 0.01 0.72 0.02 1.12 0.02c 0.4 0 0.78 -0.01 1.11 -0.02c 0.06 0.06 0.06 0.27 0 0.33c -0.61 0.03 -0.72 0.08 -0.72 0.91v 1.29c 0.22 -0.22 0.44 -0.29 0.75 -0.29c 1.04 0 1.75 1.09 1.75 2.44c 0 1.11 -0.53 2.05 -1.53 2.05c -0.47 0 -0.75 -0.18 -0.97 -0.45Z m 0.69 -1.84c 0.83 0 0.99 -1.07 0.99 -1.91c 0 -0.87 -0.16 -1.78 -1.03 -1.78c -0.21 0 -0.43 0.06 -0.65 0.38v 2.89c 0.22 0.32 0.47 0.42 0.69 0.42Z m -2.16 -3.69c -0.82 0 -1 1.08 -1 1.92c 0 0.87 0.18 1.77 1.05 1.77c 0.22 0 0.41 -0.1 0.63 -0.37v -2.88c -0.19 -0.3 -0.41 -0.44 -0.68 -0.44Z "/></symbol><symbol id="g3730A52707D5D005176FA819A7950DF6" overflow="visible"><path d="M 0 0m 1.98 0.63c -0.03 0 -0.07 0.02 -0.07 0.12v 2.28c 0 0.83 0.21 0.92 0.72 0.95c 0.06 0.06 0.06 0.27 0 0.33c -0.23 -0.01 -0.8 -0.02 -1.17 -0.02c -0.33 0 -0.73 0.01 -1.11 0.02c -0.06 -0.06 -0.06 -0.27 0 -0.33c 0.61 -0.03 0.77 -0.12 0.77 -0.95v -1.77c 0 -0.83 -0.16 -0.92 -0.77 -0.95c -0.06 -0.06 -0.06 -0.27 0 -0.33c 0.39 0.01 0.79 0.02 1.11 0.02c 0.23 0 0.5 -0.01 0.61 -0.02c 0.05 0.14 0.14 0.34 0.25 0.54l 1.56 3.13c 0.03 0 0.07 -0.02 0.07 -0.12v -2.27c 0 -0.83 -0.21 -0.92 -0.72 -0.95c -0.06 -0.06 -0.06 -0.27 0 -0.33c 0.23 0.01 0.77 0.02 1.17 0.02c 0.31 0 0.72 -0.01 1.11 -0.02c 0.06 0.06 0.06 0.27 0 0.33c -0.61 0.03 -0.77 0.12 -0.77 0.95v 1.77c 0 0.83 0.16 0.92 0.77 0.95c 0.06 0.06 0.06 0.27 0 0.33c -0.4 -0.01 -0.8 -0.02 -1.11 -0.02c -0.22 0 -0.5 0.01 -0.6 0.02c -0.08 -0.18 -0.17 -0.39 -0.26 -0.56Z "/></symbol><symbol id="gF7E2F11D9500E34CEB199CAED225F368" overflow="visible"><path d="M 0 0m 1.82 1.22c 0 -0.83 -0.11 -0.88 -0.72 -0.91c -0.06 -0.06 -0.06 -0.27 0 -0.33c 0.39 0.01 0.79 0.02 1.12 0.02c 0.34 0 0.73 -0.01 1.11 -0.02c 0.06 0.06 0.06 0.27 0 0.33c -0.61 0.03 -0.72 0.08 -0.72 0.91v 2.7h 0.17c 0.81 0 0.97 -0.28 1.14 -1.09c 0.13 0 0.26 0.04 0.26 0.04c -0.06 0.46 -0.1 0.9 -0.11 1.48c -0.23 -0.02 -0.98 -0.06 -1.48 -0.06h -0.75c -0.5 0 -1.06 0.03 -1.46 0.06c -0.01 -0.58 -0.05 -1.02 -0.12 -1.48c 0 0 0.14 -0.04 0.27 -0.04c 0.17 0.81 0.32 1.09 1.14 1.09h 0.15Z "/></symbol><symbol id="gAF7C32556ABD44CA15134A307C93399E" overflow="visible"><path d="M 0 0m 0.3225 0.6225c 0 -0.165 0.0975 -0.285 0.255 -0.405c 0.1875 -0.135 0.435 -0.2925 1.0275 -0.2925c 0.75 0 1.335 0.225 1.335 0.9675c 0 0.45 -0.225 0.75 -0.7575 0.84v 0.0225c 0.4575 0.1725 0.5775 0.3825 0.5775 0.7725c 0 0.435 -0.3 0.765 -1.0575 0.765c -0.3975 0 -0.75 -0.1425 -1.155 -0.21l -0.0975 -0.8925c 0.06 -0.03 0.135 -0.0375 0.2025 -0.03c 0.1425 0.435 0.33 0.87 0.96 0.87c 0.4125 0 0.5475 -0.2475 0.5475 -0.5475c 0 -0.3075 -0.0525 -0.6675 -0.5325 -0.6675c -0.1425 0 -0.27 0.045 -0.4125 0.045c -0.0675 0 -0.1425 -0.045 -0.1425 -0.165c 0 -0.12 0.0825 -0.1575 0.15 -0.1575c 0.1425 0 0.225 0.045 0.4125 0.045c 0.555 0 0.66 -0.3825 0.66 -0.7125c 0 -0.4425 -0.165 -0.6825 -0.6975 -0.6825c -0.4275 0 -0.5025 0.1575 -0.63 0.4275c -0.06 0.135 -0.1425 0.24 -0.3375 0.24c -0.135 0 -0.3075 -0.1125 -0.3075 -0.2325Z "/></symbol><symbol id="gA99EA8F125D1936AE1DC52AE71D1D73D" overflow="visible"><path d="M 0 0m 3.2775 3.2175h -2.13c -0.3 0 -0.585 0.0075 -0.81 0.015c -0.045 -0.045 -0.045 -0.2025 0 -0.2475c 0.4125 -0.03 0.51 -0.0675 0.51 -0.6825v -1.3875c 0 -0.615 -0.0975 -0.6525 -0.585 -0.6825c -0.045 -0.045 -0.045 -0.2025 0 -0.2475c 0.225 0.0075 0.585 0.015 0.885 0.015c 0.3 0 0.525 -0.0075 0.75 -0.015c 0.045 0.045 0.045 0.2025 0 0.2475c -0.3825 0.0375 -0.4575 0.0675 -0.4575 0.6825v 1.6275c 0 0.2325 0.0225 0.3825 0.315 0.3825h 0.9075c 0.2775 0 0.3225 -0.0825 0.3225 -0.3825v -1.6275c 0 -0.615 -0.075 -0.6525 -0.465 -0.6825c -0.0375 -0.045 -0.0375 -0.2025 0 -0.2475c 0.1875 0.0075 0.465 0.015 0.765 0.015c 0.3 0 0.6375 -0.0075 0.8475 -0.015c 0.0375 0.045 0.0375 0.2025 0 0.2475c -0.4875 0.03 -0.555 0.0675 -0.555 0.6825v 1.3875c 0 0.615 0.0975 0.6525 0.51 0.6825c 0.045 0.045 0.045 0.2025 0 0.2475c -0.225 -0.0075 -0.51 -0.015 -0.81 -0.015Z "/></symbol><symbol id="gC597D586C3D65B86B3D3351D5EC36C5C" overflow="visible"><path d="M 0 0m 1.17 2.76c -0.0075 0.225 -0.0225 0.42 -0.06 0.495c -0.015 0.0375 -0.03 0.06 -0.09 0.06c -0.21 -0.0825 -0.405 -0.15 -0.9225 -0.2175c -0.015 -0.045 0 -0.165 0.015 -0.21c 0.405 -0.0375 0.4875 -0.075 0.4875 -0.51v -3.2025c 0 -0.6225 -0.0825 -0.66 -0.54 -0.6825c -0.045 -0.045 -0.045 -0.2025 0 -0.2475c 0.2625 0.0075 0.54 0.015 0.84 0.015c 0.3 0 0.66 -0.0075 0.9075 -0.015c 0.045 0.045 0.045 0.2025 0 0.2475c -0.5325 0.03 -0.615 0.06 -0.615 0.6825v 0.81c 0 0.0975 0.03 0.09 0.105 0.06c 0.1875 -0.075 0.4125 -0.12 0.6525 -0.12c 0.42 0 0.795 0.1275 1.1025 0.42c 0.3525 0.345 0.555 0.81 0.555 1.4175c 0 0.795 -0.5625 1.53 -1.3275 1.53c -0.345 0 -0.7275 -0.225 -1.0275 -0.5625c -0.045 -0.045 -0.075 -0.045 -0.0825 0.03Z m 0.1425 -0.2775c 0.195 0.24 0.54 0.465 0.7575 0.465c 0.48 0 0.8925 -0.54 0.8925 -1.3875c 0 -0.615 -0.2175 -1.38 -1.0575 -1.38c -0.135 0 -0.3975 0.0375 -0.5325 0.1575c -0.15 0.135 -0.18 0.18 -0.18 0.45v 1.365c 0 0.1575 0.03 0.225 0.12 0.33Z "/></symbol><symbol id="gD04A6D2F90D202121232DADAE82F175A" overflow="visible"><path d="M 0 0m 1.365 2.685c -0.1725 0.255 -0.12 0.2625 0.2175 0.3c 0.045 0.045 0.045 0.2025 0 0.2475c -0.2025 -0.0075 -0.5325 -0.015 -0.7575 -0.015c -0.225 0 -0.45 0.0075 -0.645 0.015c -0.045 -0.045 -0.045 -0.2025 0 -0.2475c 0.255 -0.0225 0.465 -0.15 0.675 -0.4575l 0.6525 -0.9525c 0.0375 -0.0525 0.0375 -0.075 0.0075 -0.1125l -0.63 -0.81c -0.3 -0.3825 -0.465 -0.405 -0.7275 -0.42c -0.045 -0.045 -0.045 -0.2025 0 -0.2475c 0.15 0.0075 0.315 0.015 0.54 0.015c 0.225 0 0.435 -0.0075 0.63 -0.015c 0.045 0.045 0.045 0.2025 0 0.2475c -0.27 0.03 -0.33 0.06 -0.165 0.3l 0.4725 0.6825c 0.06 0.09 0.09 0.0825 0.135 0.015l 0.435 -0.6c 0.2625 -0.36 0.1425 -0.375 -0.0975 -0.3975c -0.045 -0.045 -0.045 -0.2025 0 -0.2475c 0.225 0.0075 0.4725 0.015 0.7425 0.015c 0.285 0 0.4875 -0.0075 0.6675 -0.015c 0.045 0.045 0.045 0.2025 0 0.2475c -0.3375 0.0225 -0.45 0.045 -0.75 0.4725l -0.675 0.9525c -0.03 0.045 -0.0375 0.0675 0 0.1125l 0.63 0.8025c 0.2775 0.3525 0.4575 0.39 0.7275 0.4125c 0.045 0.045 0.045 0.2025 0 0.2475c -0.15 -0.0075 -0.3225 -0.015 -0.5475 -0.015c -0.225 0 -0.435 0.0075 -0.63 0.015c -0.045 -0.045 -0.045 -0.2025 0 -0.2475c 0.2775 -0.03 0.36 -0.0525 0.18 -0.3075l -0.4875 -0.6825c -0.0525 -0.075 -0.0825 -0.0675 -0.1425 0.015Z "/></symbol><symbol id="g401226A6362CD80CF6074807A052A046" overflow="visible"><path d="M 0 0m 1.395 2.295c 0 0.63 0.0825 0.6525 0.54 0.69c 0.045 0.045 0.045 0.2025 0 0.2475c -0.255 -0.0075 -0.51 -0.015 -0.84 -0.015c -0.3225 0 -0.585 0.0075 -0.8325 0.015c -0.045 -0.045 -0.045 -0.2025 0 -0.2475c 0.4575 -0.03 0.54 -0.06 0.54 -0.6825v -1.3875c 0 -0.6225 -0.0825 -0.645 -0.54 -0.6825c -0.045 -0.045 -0.045 -0.2025 0 -0.2475c 0.2475 0.0075 0.51 0.015 0.84 0.015c 0.3075 0 0.4725 -0.015 0.78 -0.015c 0.9225 0 1.425 0.2325 1.425 1.035c 0 0.705 -0.615 0.9075 -1.3725 0.9075h -0.54Z m 1.2675 -1.35c 0 -0.615 -0.375 -0.7125 -0.7725 -0.7125c -0.3675 0 -0.495 0.075 -0.495 0.3375v 1.11h 0.5325c 0.5625 0 0.735 -0.3375 0.735 -0.735Z "/></symbol><symbol id="gA28A4DDDA94ED62E1BA5E3AFFF87B71D" overflow="visible"><path d="M 0 0m 3.09 1.77l -2.3775 -0.8625c -0.0975 -0.105 -0.105 -0.33 0 -0.375l 2.925 1.0575c 0.0675 0.1275 0.0675 0.2475 0 0.36l -2.925 1.065c -0.105 -0.045 -0.0975 -0.27 0 -0.375Z "/></symbol><symbol id="gF6226AF1AB229DF68D0EA20ED7A15A8F" overflow="visible"><path d="M 0 0m 2.16 0.915v 2.6025c 0 0.45 0.0075 0.9075 0.0225 1.005c 0 0.0375 -0.015 0.0375 -0.045 0.0375c -0.4125 -0.255 -0.81 -0.4425 -1.47 -0.75c 0.015 -0.0825 0.045 -0.1575 0.1125 -0.2025c 0.345 0.1425 0.51 0.1875 0.6525 0.1875c 0.1275 0 0.15 -0.18 0.15 -0.435v -2.445c 0 -0.6225 -0.2025 -0.66 -0.7275 -0.6825c -0.045 -0.045 -0.045 -0.2025 0 -0.2475c 0.3675 0.0075 0.6375 0.015 1.0425 0.015c 0.36 0 0.54 -0.0075 0.915 -0.015c 0.045 0.045 0.045 0.2025 0 0.2475c -0.525 0.0225 -0.6525 0.06 -0.6525 0.6825Z "/></symbol><symbol id="g8866A39DF7EFF8CC51FD052ABAB26C99" overflow="visible"><path d="M 0 0m 2.3925 1.4175c 0 -0.7125 -0.375 -1.2375 -0.825 -1.2375c -0.285 0 -0.3825 0.1875 -0.495 0.3375c -0.0975 0.1275 -0.225 0.24 -0.3825 0.24c -0.1425 0 -0.285 -0.1275 -0.285 -0.2775c 0 -0.3075 0.6375 -0.5625 1.065 -0.5625c 0.93 0 1.59 0.69 1.59 1.635c 0 0.7275 -0.5025 1.38 -1.3425 1.38c -0.3225 0 -0.6 -0.0675 -0.735 -0.12l 0.15 1.2525c 0.2775 -0.03 0.5175 -0.0675 0.8775 -0.0675c 0.225 0 0.48 0.015 0.7875 0.045l 0.12 0.51l -0.0525 0.03c -0.4275 -0.045 -0.8325 -0.0825 -1.23 -0.0825c -0.2775 0 -0.5475 0.015 -0.81 0.0375l -0.255 -2.16c 0.3975 0.15 0.6825 0.18 0.9525 0.18c 0.4875 0 0.87 -0.3225 0.87 -1.14Z "/></symbol><symbol id="g755DF9CE1CDD846D73FA5B6599213F56" overflow="visible"><path d="M 0 0m 1.71 -0.075c 0.5775 0 1.455 0.585 1.455 2.3475c 0 0.7425 -0.18 1.38 -0.51 1.815c -0.195 0.2625 -0.51 0.4875 -0.915 0.4875c -0.7425 0 -1.4475 -0.885 -1.4475 -2.37c 0 -0.8025 0.2475 -1.5525 0.66 -1.965c 0.21 -0.21 0.465 -0.315 0.7575 -0.315Z m 0.03 4.3875c 0.1275 0 0.2475 -0.045 0.3375 -0.1275c 0.2325 -0.195 0.435 -0.765 0.435 -1.77c 0 -0.69 -0.0225 -1.1625 -0.1275 -1.545c -0.165 -0.615 -0.5325 -0.6825 -0.6675 -0.6825c -0.6975 0 -0.7725 1.2825 -0.7725 1.935c 0 1.845 0.4575 2.19 0.795 2.19Z "/></symbol><symbol id="gDFD38EC9906BA626C5B7E69A103C103" overflow="visible"><path d="M 0 0m 0.272 2.056c 0 -1.512 0.872 -2.136 1.648 -2.136c 1.096 0 1.728 0.816 1.728 1.824c 0 0.864 -0.48 1.768 -1.608 1.768c -0.76 0 -1.224 -0.448 -1.4 -0.832l -0.016 0.016c 0.032 0.416 0.16 0.928 0.28 1.136c 0.256 0.44 0.56 0.464 1.296 0.544c 0.72 0.08 1.232 0.312 1.304 1.208c -0.056 0.024 -0.112 0.032 -0.176 0c -0.064 -0.384 -0.488 -0.488 -1.16 -0.592c -0.648 -0.104 -1.192 -0.328 -1.528 -0.96c -0.288 -0.544 -0.368 -1.216 -0.368 -1.976Z m 0.688 -0.208c 0 0.448 0.16 1.384 0.992 1.384c 0.624 0 1.008 -0.72 1.008 -1.68c 0 -1.008 -0.464 -1.352 -0.896 -1.352c -0.584 0 -1.104 0.76 -1.104 1.648Z "/></symbol><symbol id="gADB3B27726748394AAF96F33FED6E9BE" overflow="visible"><path d="M 0 0m 1.488 2.448c 0 0.672 0.088 0.696 0.576 0.736c 0.048 0.048 0.048 0.216 0 0.264c -0.272 -0.008 -0.544 -0.016 -0.896 -0.016c -0.344 0 -0.624 0.008 -0.888 0.016c -0.048 -0.048 -0.048 -0.216 0 -0.264c 0.488 -0.032 0.576 -0.064 0.576 -0.728v -1.48c 0 -0.664 -0.088 -0.688 -0.576 -0.728c -0.048 -0.048 -0.048 -0.216 0 -0.264c 0.264 0.008 0.544 0.016 0.896 0.016c 0.328 0 0.504 -0.016 0.832 -0.016c 0.984 0 1.52 0.248 1.52 1.104c 0 0.752 -0.656 0.968 -1.464 0.968h -0.576Z m 3.448 0.008c 0 0.664 0.088 0.688 0.576 0.728c 0.048 0.048 0.048 0.216 0 0.264c -0.272 -0.008 -0.544 -0.016 -0.896 -0.016c -0.344 0 -0.624 0.008 -0.888 0.016c -0.048 -0.048 -0.048 -0.216 0 -0.264c 0.488 -0.032 0.576 -0.064 0.576 -0.728v -1.48c 0 -0.664 -0.088 -0.688 -0.576 -0.728c -0.048 -0.048 -0.048 -0.216 0 -0.264c 0.264 0.008 0.544 0.016 0.896 0.016c 0.344 0 0.632 -0.008 0.888 -0.016c 0.048 0.048 0.048 0.216 0 0.264c -0.488 0.032 -0.576 0.064 -0.576 0.728Z m -2.096 -1.448c 0 -0.656 -0.4 -0.76 -0.824 -0.76c -0.392 0 -0.528 0.08 -0.528 0.36v 1.184h 0.568c 0.6 0 0.784 -0.36 0.784 -0.784Z "/></symbol><symbol id="g9F99202881449AD6C0CCCD21824C9AF1" overflow="visible"><path d="M 0 0m 3.184 0.728c -0.032 0.072 -0.096 0.104 -0.168 0.112c -0.272 -0.352 -0.616 -0.528 -0.96 -0.528c -0.584 0 -1.072 0.592 -1.072 1.528c 0 0.88 0.384 1.408 0.912 1.408c 0.472 0 0.536 -0.28 0.568 -0.56c 0.024 -0.216 0.136 -0.288 0.304 -0.288c 0.168 0 0.392 0.104 0.392 0.352c 0 0.44 -0.456 0.76 -1.224 0.76c -0.792 0 -1.64 -0.712 -1.64 -1.848c 0 -1.032 0.576 -1.744 1.584 -1.744c 0.48 0 0.904 0.152 1.304 0.808Z "/></symbol><symbol id="gE09E60C0AC8E2E10ADA02C2F49261352" overflow="visible"><path d="M 0 0m 1.456 0.976c 0 -0.664 -0.088 -0.704 -0.576 -0.728c -0.048 -0.048 -0.048 -0.216 0 -0.264c 0.312 0.008 0.632 0.016 0.896 0.016c 0.272 0 0.584 -0.008 0.888 -0.016c 0.048 0.048 0.048 0.216 0 0.264c -0.488 0.024 -0.576 0.064 -0.576 0.728v 2.16h 0.136c 0.648 0 0.776 -0.224 0.912 -0.872c 0.104 0 0.208 0.032 0.208 0.032c -0.048 0.368 -0.08 0.72 -0.088 1.184c -0.184 -0.016 -0.784 -0.048 -1.184 -0.048h -0.6c -0.4 0 -0.848 0.024 -1.168 0.048c -0.008 -0.464 -0.04 -0.816 -0.096 -1.184c 0 0 0.112 -0.032 0.216 -0.032c 0.136 0.648 0.256 0.872 0.912 0.872h 0.12Z "/></symbol><symbol id="g46DFAA35BC521B4F2378CE697B4B163E" overflow="visible"><path d="M 0 0m 1.248 2.944c -0.008 0.24 -0.024 0.448 -0.064 0.528c -0.016 0.04 -0.032 0.064 -0.096 0.064c -0.224 -0.088 -0.432 -0.16 -0.984 -0.232c -0.016 -0.048 0 -0.176 0.016 -0.224c 0.432 -0.04 0.52 -0.08 0.52 -0.544v -3.416c 0 -0.664 -0.088 -0.704 -0.576 -0.728c -0.048 -0.048 -0.048 -0.216 0 -0.264c 0.28 0.008 0.576 0.016 0.896 0.016c 0.32 0 0.704 -0.008 0.968 -0.016c 0.048 0.048 0.048 0.216 0 0.264c -0.568 0.032 -0.656 0.064 -0.656 0.728v 0.864c 0 0.104 0.032 0.096 0.112 0.064c 0.2 -0.08 0.44 -0.128 0.696 -0.128c 0.448 0 0.848 0.136 1.176 0.448c 0.376 0.368 0.592 0.864 0.592 1.512c 0 0.848 -0.6 1.632 -1.416 1.632c -0.368 0 -0.776 -0.24 -1.096 -0.6c -0.048 -0.048 -0.08 -0.048 -0.088 0.032Z m 0.152 -0.296c 0.208 0.256 0.576 0.496 0.808 0.496c 0.512 0 0.952 -0.576 0.952 -1.48c 0 -0.656 -0.232 -1.472 -1.128 -1.472c -0.144 0 -0.424 0.04 -0.568 0.168c -0.16 0.144 -0.192 0.192 -0.192 0.48v 1.456c 0 0.168 0.032 0.24 0.128 0.352Z "/></symbol><symbol id="g9E0D72929382BA054F8819A862FD1C38" overflow="visible"><path d="M 0 0m 1.584 0.504c -0.024 0 -0.056 0.016 -0.056 0.096v 1.824c 0 0.664 0.168 0.736 0.576 0.76c 0.048 0.048 0.048 0.216 0 0.264c -0.184 -0.008 -0.64 -0.016 -0.936 -0.016c -0.264 0 -0.584 0.008 -0.888 0.016c -0.048 -0.048 -0.048 -0.216 0 -0.264c 0.488 -0.024 0.616 -0.096 0.616 -0.76v -1.416c 0 -0.664 -0.128 -0.736 -0.616 -0.76c -0.048 -0.048 -0.048 -0.216 0 -0.264c 0.312 0.008 0.632 0.016 0.888 0.016c 0.184 0 0.4 -0.008 0.488 -0.016c 0.04 0.112 0.112 0.272 0.2 0.432l 1.248 2.504c 0.024 0 0.056 -0.016 0.056 -0.096v -1.816c 0 -0.664 -0.168 -0.736 -0.576 -0.76c -0.048 -0.048 -0.048 -0.216 0 -0.264c 0.184 0.008 0.616 0.016 0.936 0.016c 0.248 0 0.576 -0.008 0.888 -0.016c 0.048 0.048 0.048 0.216 0 0.264c -0.488 0.024 -0.616 0.096 -0.616 0.76v 1.416c 0 0.664 0.128 0.736 0.616 0.76c 0.048 0.048 0.048 0.216 0 0.264c -0.32 -0.008 -0.64 -0.016 -0.888 -0.016c -0.176 0 -0.4 0.008 -0.48 0.016c -0.064 -0.144 -0.136 -0.312 -0.208 -0.448Z m 1.72 4.216c 0 0.152 -0.112 0.264 -0.304 0.264c -0.144 0 -0.28 -0.112 -0.28 -0.248c 0 -0.024 0 -0.04 0.008 -0.056c 0.008 -0.024 0.008 -0.048 0.008 -0.072c 0 -0.176 -0.168 -0.336 -0.4 -0.336c -0.24 0 -0.4 0.168 -0.4 0.344c 0 0.016 0 0.04 0.008 0.064c 0.008 0.024 0.008 0.04 0.008 0.064c 0 0.128 -0.096 0.24 -0.272 0.24c -0.184 0 -0.312 -0.12 -0.312 -0.264c 0 -0.432 0.44 -0.696 0.96 -0.696c 0.512 0 0.976 0.256 0.976 0.696Z "/></symbol><symbol id="gF859B786D36C3A3EB6E93A57BC4F802" overflow="visible"><path d="M 0 0m 3.496 3.432h -2.272c -0.32 0 -0.624 0.008 -0.864 0.016c -0.048 -0.048 -0.048 -0.216 0 -0.264c 0.44 -0.032 0.544 -0.072 0.544 -0.728v -1.48c 0 -0.656 -0.104 -0.696 -0.624 -0.728c -0.048 -0.048 -0.048 -0.216 0 -0.264c 0.24 0.008 0.624 0.016 0.944 0.016c 0.32 0 0.56 -0.008 0.8 -0.016c 0.048 0.048 0.048 0.216 0 0.264c -0.408 0.04 -0.488 0.072 -0.488 0.728v 1.736c 0 0.248 0.024 0.408 0.336 0.408h 0.968c 0.296 0 0.344 -0.088 0.344 -0.408v -1.736c 0 -0.656 -0.08 -0.696 -0.496 -0.728c -0.04 -0.048 -0.04 -0.216 0 -0.264c 0.2 0.008 0.496 0.016 0.816 0.016c 0.32 0 0.68 -0.008 0.904 -0.016c 0.04 0.048 0.04 0.216 0 0.264c -0.52 0.032 -0.592 0.072 -0.592 0.728v 1.48c 0 0.656 0.104 0.696 0.544 0.728c 0.048 0.048 0.048 0.216 0 0.264c -0.24 -0.008 -0.544 -0.016 -0.864 -0.016Z "/></symbol><symbol id="g5D01DA3AB390CB78D7E54204B7DC3F87" overflow="visible"><path d="M 0 0m 0.328 1.64c 0 -0.816 0.544 -1.72 1.68 -1.72c 0.512 0 0.904 0.184 1.176 0.448c 0.36 0.352 0.52 0.856 0.52 1.344c 0 0.832 -0.456 1.8 -1.68 1.8c -0.528 0 -0.96 -0.216 -1.256 -0.56c -0.288 -0.344 -0.44 -0.808 -0.44 -1.312Z m 1.576 1.592c 0.688 0 1.112 -0.624 1.112 -1.776c 0 -1.008 -0.52 -1.256 -0.896 -1.256c -0.832 0 -1.104 1.008 -1.104 1.624c 0 0.696 0.168 1.408 0.888 1.408Z "/></symbol><symbol id="gAC00C34078948F83CC62D60B02C8E81A" overflow="visible"><path d="M 0 0m 1.512 3.432c -0.264 0 -0.576 0.008 -0.816 0.016c -0.048 -0.048 -0.048 -0.216 0 -0.264c 0.488 -0.04 0.632 -0.072 0.6 -0.736c -0.032 -0.736 -0.16 -1.328 -0.296 -1.888c -0.048 -0.216 -0.28 -0.288 -0.504 -0.312c -0.12 -0.016 -0.232 -0.064 -0.24 -0.208l -0.048 -1.064c 0.056 -0.024 0.12 -0.032 0.216 -0.008c 0.072 0.296 0.288 1.032 1.008 1.032h 1.384c 0.712 0 0.944 -0.72 1.016 -1.04c 0.072 -0.016 0.144 -0.016 0.224 0.016l -0.048 1.072c 0 0.112 -0.064 0.176 -0.216 0.2c -0.144 0.024 -0.344 0.08 -0.344 0.376v 1.832c 0 0.656 0.104 0.696 0.544 0.728c 0.048 0.048 0.048 0.216 0 0.264c -0.24 -0.008 -0.544 -0.016 -0.864 -0.016Z m -0.224 -3.024c 0 0.136 0.216 0.664 0.336 2.496c 0.008 0.12 0.064 0.224 0.28 0.224h 0.552c 0.32 0 0.36 -0.224 0.36 -0.496v -1.928c 0 -0.264 -0.016 -0.392 -0.336 -0.392h -1.032c -0.088 0 -0.16 0.008 -0.16 0.096Z "/></symbol><symbol id="gA95788BCA9E2715FE5A0F4C934F34499" overflow="visible"><path d="M 0 0m 1.656 2.456v -1.48c 0 -0.664 -0.088 -0.688 -0.576 -0.728c -0.048 -0.048 -0.048 -0.216 0 -0.264c 0.264 0.008 0.544 0.016 0.896 0.016c 0.328 0 0.504 -0.016 0.832 -0.016c 0.984 0 1.52 0.248 1.52 1.104c 0 0.752 -0.656 0.968 -1.464 0.968h -0.576v 0.392c 0 0.672 0.088 0.696 0.576 0.736c 0.048 0.048 0.048 0.216 0 0.264c -0.272 -0.008 -0.544 -0.016 -0.896 -0.016c -0.64 0 -1.648 0.016 -1.648 0.016c -0.008 -0.464 -0.048 -0.84 -0.104 -1.208c 0.064 -0.024 0.144 -0.048 0.232 -0.04c 0.144 0.656 0.256 0.936 0.872 0.936c 0.184 0 0.336 -0.096 0.336 -0.68Z m 1.984 -1.448c 0 -0.656 -0.4 -0.76 -0.824 -0.76c -0.392 0 -0.528 0.08 -0.528 0.36v 1.184h 0.568c 0.6 0 0.784 -0.36 0.784 -0.784Z "/></symbol><symbol id="g5B86C949DFB7906AEEFB9D7AF40C1424" overflow="visible"><path d="M 0 0m 3.088 0.744c -0.296 -0.304 -0.528 -0.432 -0.992 -0.432c -0.288 0 -0.624 0.168 -0.872 0.576c -0.16 0.264 -0.256 0.632 -0.256 1.096l 2.128 -0.016c 0.096 0 0.152 0.048 0.152 0.136c 0 0.672 -0.24 1.392 -1.352 1.392c -0.696 0 -1.6 -0.664 -1.6 -1.88c 0 -0.448 0.112 -0.88 0.376 -1.184c 0.272 -0.32 0.648 -0.512 1.224 -0.512c 0.608 0 1.04 0.28 1.36 0.696c -0.024 0.08 -0.072 0.12 -0.168 0.128Z m -2.096 1.512c 0.152 0.904 0.712 0.976 0.904 0.976c 0.304 0 0.664 -0.168 0.664 -0.84c 0 -0.072 -0.032 -0.112 -0.12 -0.112Z m -0.2 2.344c 0 -0.208 0.168 -0.376 0.376 -0.376c 0.208 0 0.376 0.168 0.376 0.376c 0 0.208 -0.168 0.384 -0.376 0.384c -0.208 0 -0.376 -0.176 -0.376 -0.384Z m 1.352 0c 0 -0.208 0.168 -0.376 0.376 -0.376c 0.208 0 0.376 0.168 0.376 0.376c 0 0.208 -0.168 0.384 -0.376 0.384c -0.208 0 -0.376 -0.176 -0.376 -0.384Z "/></symbol><symbol id="gE4F86D8BE8C69EC1EB36B973594724AB" overflow="visible"><path d="M 0 0m 0.936 2.448l -0.048 -1.488c -0.024 -0.672 -0.144 -0.688 -0.608 -0.712c -0.048 -0.048 -0.048 -0.216 0 -0.264c 0.16 0.008 0.56 0.016 0.688 0.016c 0.16 0 0.536 -0.008 0.696 -0.016c 0.048 0.048 0.048 0.216 0 0.264c -0.456 0.032 -0.488 0.112 -0.472 0.712l 0.056 1.96c 0 0.072 0.032 0.072 0.064 0l 1.16 -2.832c 0.032 -0.024 0.064 -0.024 0.088 0l 1.312 2.824c 0.04 0.088 0.08 0.096 0.08 0l -0.008 -1.936c 0 -0.664 -0.056 -0.688 -0.544 -0.728c -0.048 -0.048 -0.048 -0.216 0 -0.264c 0.288 0.008 0.584 0.016 0.864 0.016c 0.24 0 0.584 -0.008 0.896 -0.016c 0.048 0.048 0.048 0.216 0 0.264c -0.488 0.032 -0.576 0.064 -0.576 0.728l -0.016 1.48c -0.008 0.664 0.088 0.688 0.576 0.728c 0.048 0.048 0.048 0.216 0 0.264c -0.28 -0.016 -1.056 -0.016 -1.32 -0.016l -1.064 -2.288l -0.04 -0.08l -0.032 0.08l -0.936 2.288c -0.264 0 -1.112 0 -1.392 0.016c -0.048 -0.048 -0.048 -0.216 0 -0.264c 0.488 -0.04 0.6 -0.072 0.576 -0.736Z "/></symbol><symbol id="gF79D9CC171E1ACC5162F855F1894F43E" overflow="visible"><path d="M 0 0m 2.344 0.384c 0.048 -0.248 0.136 -0.464 0.536 -0.464c 0.304 0 0.592 0.136 0.76 0.296c -0.016 0.096 -0.048 0.168 -0.136 0.216c -0.056 -0.048 -0.192 -0.128 -0.296 -0.128c -0.232 0 -0.24 0.312 -0.24 0.68v 1.176c 0 1.136 -0.624 1.352 -1.208 1.352c -0.656 0 -1.32 -0.432 -1.32 -0.888c 0 -0.192 0.096 -0.288 0.28 -0.288c 0.232 0 0.376 0.168 0.376 0.272c 0 0.056 -0.008 0.112 -0.024 0.144c -0.008 0.024 -0.016 0.072 -0.016 0.16c 0 0.248 0.336 0.336 0.64 0.336c 0.272 0 0.648 -0.136 0.648 -1.04c 0 -0.056 -0.024 -0.088 -0.048 -0.096l -0.688 -0.168c -0.768 -0.192 -1.32 -0.616 -1.32 -1.16c 0 -0.656 0.448 -0.864 1.008 -0.864c 0.28 0 0.52 0.064 0.872 0.336l 0.16 0.128Z m 0 1.48v -1.056c 0 -0.104 -0.048 -0.16 -0.112 -0.208c -0.208 -0.168 -0.48 -0.352 -0.704 -0.352c -0.4 0 -0.576 0.32 -0.576 0.568c 0 0.36 0.168 0.728 0.76 0.88Z "/></symbol><symbol id="gFF63DA2595F1651AF0C535BF803D9AEC" overflow="visible"><path d="M 0 0m 3.344 0.976v 1.48c 0 0.656 0.104 0.696 0.544 0.728c 0.048 0.048 0.048 0.216 0 0.264c -0.24 -0.008 -0.544 -0.016 -0.864 -0.016h -1.512c -0.264 0 -0.576 0.008 -0.816 0.016c -0.048 -0.048 -0.048 -0.216 0 -0.264c 0.568 -0.04 0.648 -0.088 0.648 -0.952c 0 -0.84 -0.064 -1.28 -0.176 -1.608c -0.104 -0.288 -0.24 -0.392 -0.376 -0.392c -0.104 0 -0.136 0.064 -0.152 0.168c -0.024 0.152 -0.072 0.304 -0.296 0.304c -0.2 0 -0.312 -0.16 -0.312 -0.336c 0 -0.248 0.224 -0.464 0.592 -0.464c 0.408 0 0.632 0.208 0.816 0.64c 0.16 0.384 0.208 1.2 0.208 1.744c 0 0.624 0.024 0.832 0.344 0.832h 0.36c 0.304 0 0.36 -0.192 0.36 -0.464v -1.68c 0 -0.656 -0.08 -0.696 -0.496 -0.728c -0.04 -0.048 -0.04 -0.216 0 -0.264c 0.2 0.008 0.496 0.016 0.816 0.016c 0.32 0 0.68 -0.008 0.904 -0.016c 0.04 0.048 0.04 0.216 0 0.264c -0.52 0.032 -0.592 0.072 -0.592 0.728Z "/></symbol><symbol id="gF09D88C2290872E835CD22D560D52A5C" overflow="visible"><path d="M 0 0m 0.344 0.664c 0 -0.176 0.104 -0.304 0.272 -0.432c 0.2 -0.144 0.464 -0.312 1.096 -0.312c 0.8 0 1.424 0.24 1.424 1.032c 0 0.48 -0.24 0.8 -0.808 0.896v 0.024c 0.488 0.184 0.616 0.408 0.616 0.824c 0 0.464 -0.32 0.816 -1.128 0.816c -0.424 0 -0.8 -0.152 -1.232 -0.224l -0.104 -0.952c 0.064 -0.032 0.144 -0.04 0.216 -0.032c 0.152 0.464 0.352 0.928 1.024 0.928c 0.44 0 0.584 -0.264 0.584 -0.584c 0 -0.328 -0.056 -0.712 -0.568 -0.712c -0.152 0 -0.288 0.048 -0.44 0.048c -0.072 0 -0.152 -0.048 -0.152 -0.176c 0 -0.128 0.088 -0.168 0.16 -0.168c 0.152 0 0.24 0.048 0.44 0.048c 0.592 0 0.704 -0.408 0.704 -0.76c 0 -0.472 -0.176 -0.728 -0.744 -0.728c -0.456 0 -0.536 0.168 -0.672 0.456c -0.064 0.144 -0.152 0.256 -0.36 0.256c -0.144 0 -0.328 -0.12 -0.328 -0.248Z "/></symbol><symbol id="g937124D7F3D66536776BB8DA5DFD7893" overflow="visible"><path d="M 0 0m 3.832 2.456c 0 0.664 0.088 0.688 0.576 0.728c 0.048 0.048 0.048 0.216 0 0.264c -0.28 -0.016 -0.632 -0.016 -0.896 -0.016c -0.224 0 -0.544 0.008 -0.856 0.016c -0.048 -0.048 -0.048 -0.216 0 -0.264c 0.488 -0.032 0.544 -0.064 0.544 -0.728v -0.52h -1.712v 0.52c 0 0.664 0.056 0.688 0.544 0.728c 0.048 0.048 0.048 0.216 0 0.264c -0.304 -0.008 -0.608 -0.016 -0.864 -0.016c -0.24 0 -0.568 0.008 -0.888 0.016c -0.048 -0.048 -0.048 -0.216 0 -0.264c 0.488 -0.032 0.576 -0.064 0.576 -0.728v -1.48c 0 -0.664 -0.088 -0.688 -0.576 -0.728c -0.048 -0.048 -0.048 -0.216 0 -0.264c 0.32 0.008 0.64 0.016 0.896 0.016c 0.256 0 0.568 -0.008 0.856 -0.016c 0.048 0.048 0.048 0.216 0 0.264c -0.488 0.032 -0.544 0.064 -0.544 0.728v 0.696h 1.712v -0.696c 0 -0.664 -0.056 -0.688 -0.544 -0.728c -0.048 -0.048 -0.048 -0.216 0 -0.264c 0.288 0.008 0.584 0.016 0.864 0.016c 0.24 0 0.576 -0.008 0.888 -0.016c 0.048 0.048 0.048 0.216 0 0.264c -0.488 0.032 -0.576 0.064 -0.576 0.728Z "/></symbol><symbol id="g465CA45D0696F5BBCE5E7A11B5E63D98" overflow="visible"><path d="M 0 0m 3.088 0.744c -0.296 -0.304 -0.528 -0.432 -0.992 -0.432c -0.288 0 -0.624 0.168 -0.872 0.576c -0.16 0.264 -0.256 0.632 -0.256 1.096l 2.128 -0.016c 0.096 0 0.152 0.048 0.152 0.136c 0 0.672 -0.24 1.392 -1.352 1.392c -0.696 0 -1.6 -0.664 -1.6 -1.88c 0 -0.448 0.112 -0.88 0.376 -1.184c 0.272 -0.32 0.648 -0.512 1.224 -0.512c 0.608 0 1.04 0.28 1.36 0.696c -0.024 0.08 -0.072 0.12 -0.168 0.128Z m -2.096 1.512c 0.152 0.904 0.712 0.976 0.904 0.976c 0.304 0 0.664 -0.168 0.664 -0.84c 0 -0.072 -0.032 -0.112 -0.12 -0.112Z "/></symbol><symbol id="g89E7AED93332C4356E163D20D023452" overflow="visible"><path d="M 0 0m 1.632 -1.28c 0.128 0.224 0.232 0.448 0.328 0.688c 0.64 1.544 1 2.368 1.416 3.264c 0.16 0.336 0.272 0.464 0.648 0.512c 0.048 0.048 0.048 0.216 0 0.264c -0.16 -0.008 -0.344 -0.016 -0.568 -0.016c -0.24 0 -0.488 0.008 -0.728 0.016c -0.048 -0.048 -0.048 -0.216 0 -0.264c 0.256 -0.024 0.512 -0.072 0.384 -0.36l -0.792 -1.832c -0.056 -0.128 -0.128 -0.152 -0.192 0.008l -0.712 1.664c -0.144 0.336 -0.184 0.488 0.264 0.52c 0.048 0.048 0.048 0.216 0 0.264c -0.296 -0.008 -0.616 -0.016 -0.904 -0.016c -0.272 0 -0.488 0.008 -0.648 0.016c -0.048 -0.048 -0.048 -0.216 0 -0.264c 0.32 -0.04 0.424 -0.112 0.632 -0.6l 0.904 -2.104c 0.072 -0.16 0.192 -0.528 0.112 -0.752c -0.096 -0.264 -0.192 -0.488 -0.312 -0.736c -0.088 -0.16 -0.2 -0.232 -0.4 -0.232c -0.112 0 -0.144 0.024 -0.232 0.024c -0.232 0 -0.352 -0.24 -0.352 -0.344c 0 -0.168 0.16 -0.296 0.376 -0.296c 0.168 0 0.488 0.064 0.776 0.576Z "/></symbol><symbol id="gE9BB349F7E32C39203BC6B218DF12838" overflow="visible"><path d="M 0 0m 1.168 3.432c -0.344 0 -0.624 0.008 -0.888 0.016c -0.048 -0.048 -0.048 -0.216 0 -0.264c 0.488 -0.032 0.576 -0.064 0.576 -0.728v -1.48c 0 -0.664 -0.088 -0.688 -0.576 -0.728c -0.048 -0.048 -0.048 -0.216 0 -0.264c 0.264 0.008 0.544 0.016 0.896 0.016c 0.296 0 0.56 -0.016 1.096 -0.016c 0.688 0 1.208 0.192 1.208 0.984c 0 0.448 -0.28 0.76 -0.768 0.848v 0.024c 0.368 0.072 0.648 0.328 0.648 0.808c 0 0.56 -0.344 0.8 -1.312 0.8c -0.328 0 -0.536 -0.016 -0.88 -0.016Z m 0.32 -1.696h 0.608c 0.488 0 0.696 -0.32 0.696 -0.8c 0 -0.536 -0.304 -0.688 -0.736 -0.688c -0.416 0 -0.568 0.072 -0.568 0.44Z m 0 0.232v 0.928c 0 0.24 0.184 0.288 0.568 0.288c 0.416 0 0.664 -0.112 0.664 -0.592c 0 -0.32 -0.208 -0.624 -0.704 -0.624Z "/></symbol><symbol id="gC175399424EF2D6961EAC52DB2845054" overflow="visible"><path d="M 0 0m 1.488 2.448c 0 0.672 0.088 0.696 0.576 0.736c 0.048 0.048 0.048 0.216 0 0.264c -0.272 -0.008 -0.544 -0.016 -0.896 -0.016c -0.344 0 -0.624 0.008 -0.888 0.016c -0.048 -0.048 -0.048 -0.216 0 -0.264c 0.488 -0.032 0.576 -0.064 0.576 -0.728v -1.48c 0 -0.664 -0.088 -0.688 -0.576 -0.728c -0.048 -0.048 -0.048 -0.216 0 -0.264c 0.264 0.008 0.544 0.016 0.896 0.016c 0.328 0 0.504 -0.016 0.832 -0.016c 0.984 0 1.52 0.248 1.52 1.104c 0 0.752 -0.656 0.968 -1.464 0.968h -0.576Z m 1.352 -1.44c 0 -0.656 -0.4 -0.76 -0.824 -0.76c -0.392 0 -0.528 0.08 -0.528 0.36v 1.184h 0.568c 0.6 0 0.784 -0.36 0.784 -0.784Z "/></symbol><symbol id="g3478CFDC408E67C5C7551BD6A62D2425" overflow="visible"><path d="M 0 0m 1.488 2.456c 0 0.456 0.056 0.664 0.336 0.664h 0.176c 0.656 0 0.848 -0.456 0.96 -0.92c 0.088 -0.008 0.168 0 0.232 0.032c -0.032 0.424 -0.056 0.776 -0.104 1.2l -0.016 0.016c 0 0 -0.64 -0.016 -0.896 -0.016h -1.008c -0.344 0 -0.624 0.008 -0.888 0.016c -0.048 -0.048 -0.048 -0.216 0 -0.264c 0.488 -0.032 0.576 -0.064 0.576 -0.728v -1.48c 0 -0.664 -0.088 -0.688 -0.576 -0.728c -0.048 -0.048 -0.048 -0.216 0 -0.264c 0.264 0.008 0.544 0.016 0.896 0.016c 0.344 0 0.632 -0.008 0.888 -0.016c 0.048 0.048 0.048 0.216 0 0.264c -0.488 0.032 -0.576 0.064 -0.576 0.728Z "/></symbol><symbol id="g63A822DE08B9C7E24E7A5DAFD6086CFF" overflow="visible"><path d="M 0 0m 2.944 4.664c 0 0.52 0.032 0.84 0.032 0.84c 0 0.056 -0.032 0.08 -0.104 0.08c -0.2 -0.08 -0.8 -0.192 -1.12 -0.216c -0.016 -0.064 0 -0.192 0.048 -0.24c 0.464 -0.032 0.512 -0.056 0.512 -0.656v -1.232c -0.152 0.168 -0.344 0.272 -0.592 0.272c -0.728 0 -1.408 -0.688 -1.408 -1.968c 0 -0.864 0.432 -1.624 1.232 -1.624c 0.32 0 0.56 0.096 0.768 0.32v -1.12c 0 -0.664 -0.088 -0.704 -0.576 -0.728c -0.048 -0.048 -0.048 -0.216 0 -0.264c 0.28 0.008 0.576 0.016 0.896 0.016c 0.32 0 0.624 -0.008 0.888 -0.016c 0.048 0.048 0.048 0.216 0 0.264c -0.488 0.024 -0.576 0.064 -0.576 0.728v 1.032c 0.176 -0.176 0.352 -0.232 0.6 -0.232c 0.832 0 1.4 0.872 1.4 1.952c 0 0.888 -0.424 1.64 -1.224 1.64c -0.376 0 -0.6 -0.144 -0.776 -0.36Z m 0.552 -1.472c 0.664 0 0.792 -0.856 0.792 -1.528c 0 -0.696 -0.128 -1.424 -0.824 -1.424c -0.168 0 -0.344 0.048 -0.52 0.304v 2.312c 0.176 0.256 0.376 0.336 0.552 0.336Z m -1.728 -2.952c -0.656 0 -0.8 0.864 -0.8 1.536c 0 0.696 0.144 1.416 0.84 1.416c 0.176 0 0.328 -0.08 0.504 -0.296v -2.304c -0.152 -0.24 -0.328 -0.352 -0.544 -0.352Z "/></symbol><symbol id="gDF0740817C60D01D4C0A2F901DD857A7" overflow="visible"><path d="M 0 0m 1.584 0.504c -0.024 0 -0.056 0.016 -0.056 0.096v 1.824c 0 0.664 0.168 0.736 0.576 0.76c 0.048 0.048 0.048 0.216 0 0.264c -0.184 -0.008 -0.64 -0.016 -0.936 -0.016c -0.264 0 -0.584 0.008 -0.888 0.016c -0.048 -0.048 -0.048 -0.216 0 -0.264c 0.488 -0.024 0.616 -0.096 0.616 -0.76v -1.416c 0 -0.664 -0.128 -0.736 -0.616 -0.76c -0.048 -0.048 -0.048 -0.216 0 -0.264c 0.312 0.008 0.632 0.016 0.888 0.016c 0.184 0 0.4 -0.008 0.488 -0.016c 0.04 0.112 0.112 0.272 0.2 0.432l 1.248 2.504c 0.024 0 0.056 -0.016 0.056 -0.096v -1.816c 0 -0.664 -0.168 -0.736 -0.576 -0.76c -0.048 -0.048 -0.048 -0.216 0 -0.264c 0.184 0.008 0.616 0.016 0.936 0.016c 0.248 0 0.576 -0.008 0.888 -0.016c 0.048 0.048 0.048 0.216 0 0.264c -0.488 0.024 -0.616 0.096 -0.616 0.76v 1.416c 0 0.664 0.128 0.736 0.616 0.76c 0.048 0.048 0.048 0.216 0 0.264c -0.32 -0.008 -0.64 -0.016 -0.888 -0.016c -0.176 0 -0.4 0.008 -0.48 0.016c -0.064 -0.144 -0.136 -0.312 -0.208 -0.448Z "/></symbol></defs></svg>