<svg viewBox="0 0 196.708661417 129.243318898" width="196.708661417pt" height="129.243318898pt" xmlns="http://www.w3.org/2000/svg" xmlns:xlink="http://www.w3.org/1999/xlink" xmlns:h5="http://www.w3.org/1999/xhtml"><path fill="#ffffff" fill-rule="nonzero" d="M 0 0v 129.243318898h 196.708661417v -129.243318898Z "/><g transform="translate(8 8)"><path fill="none" stroke="#1a1a18" stroke-width="0.6" stroke-linecap="butt" stroke-linejoin="miter" stroke-miterlimit="4" transform="translate(2.125984252 100.275202756)" d="M 0 0h 172.058985452"/><path fill="#1a1a18" fill-rule="nonzero" stroke="#1a1a18" stroke-width="0.6" stroke-linecap="butt" stroke-linejoin="miter" stroke-miterlimit="4" transform="translate(174.184969606 98.149218504)" d="M 0 0m 5.669291339 2.125984252l -5.669291339 2.125984252v -4.251968504l 5.669291339 2.125984252Z "/><path fill="none" stroke="#1a1a18" stroke-width="0.6" stroke-linecap="butt" stroke-linejoin="miter" stroke-miterlimit="4" transform="translate(2.125984252 10.420941713)" d="M 0 0m 0 89.854261043v -89.854261043"/><path fill="#1a1a18" fill-rule="nonzero" stroke="#1a1a18" stroke-width="0.6" stroke-linecap="butt" stroke-linejoin="miter" stroke-miterlimit="4" transform="translate(0 4.751650472)" d="M 0 0m 2.125984252 0l 2.125984252 5.669291339h -4.251968504l 2.125984252 -5.669291339Z "/><path fill="none" transform="translate(153.364161417 105.448818898)" d="M 0 0h 27.3445v 7.7945h -27.3445v -7.7945Z "/><g transform="translate(153.364161339 105.448818882)"><g transform="matrix(1 0 0 -1 0 5.8055)"><use xlink:href="#g3D9A67B9902CBFFCF1182D85B33DBA41" x="0" y="0" fill="#7c7f6a" fill-rule="nonzero"/><use xlink:href="#g430571653545A60A3EF6386D136EADA3" x="4.0715" y="0" fill="#7c7f6a" fill-rule="nonzero"/><use xlink:href="#g5D2E58E4CDB4D7E6C81847885E22D756" x="8.483" y="0" fill="#7c7f6a" fill-rule="nonzero"/><use xlink:href="#gDEA2A0379B7527B5C1F8D88530B6617D" x="12.2825" y="0" fill="#7c7f6a" fill-rule="nonzero"/><use xlink:href="#gEF5DE670D307ABF3FAA7AE7F58FA196F" x="18.0625" y="0" fill="#7c7f6a" fill-rule="nonzero"/></g><g transform="matrix(1 0 0 -1 24.276 5.8055)"><use xlink:href="#gD70D576278B08C85CC0ADDD25DB2A5AC" x="0" y="0" fill="#7c7f6a" fill-rule="nonzero"/></g></g><path fill="none" transform="translate(6.377952756)" d="M 0 0h 35.5895v 7.7945h -35.5895v -7.7945Z "/><g transform="translate(6.377952646 -1.6e-8)"><g transform="matrix(1 0 0 -1 0 5.8055)"><use xlink:href="#g430571653545A60A3EF6386D136EADA3" x="0" y="0" fill="#7c7f6a" fill-rule="nonzero"/><use xlink:href="#gF931FC691828778A920607CF18B9C32A" x="4.4115" y="0" fill="#7c7f6a" fill-rule="nonzero"/><use xlink:href="#g11CAB86DAD56BCA12FE1B0081452B59D" x="8.296" y="0" fill="#7c7f6a" fill-rule="nonzero"/><use xlink:href="#gDEA2A0379B7527B5C1F8D88530B6617D" x="12.002" y="0" fill="#7c7f6a" fill-rule="nonzero"/><use xlink:href="#g5D2E58E4CDB4D7E6C81847885E22D756" x="17.782" y="0" fill="#7c7f6a" fill-rule="nonzero"/><use xlink:href="#g430571653545A60A3EF6386D136EADA3" x="21.5815" y="0" fill="#7c7f6a" fill-rule="nonzero"/></g><g transform="matrix(1 0 0 -1 28.118 5.8055)"><use xlink:href="#g4D9C4A68C09B2F48A108D47E778DB2F5" x="0" y="0" fill="#7c7f6a" fill-rule="nonzero"/></g></g><path fill="none" stroke="#7c7f6a" stroke-width="0.7" stroke-linecap="butt" stroke-linejoin="miter" stroke-miterlimit="4" stroke-dashoffset="0" stroke-dasharray="3 3" transform="translate(2.125984252 15.235832677)" d="M 0 0h 170.078740157"/><path fill="none" transform="translate(139.40757874 8.358332677)" d="M 0 0h 29.9625v 6.8775h -29.9625v -6.8775Z "/><g transform="translate(139.407578693 8.35833263)"><g transform="matrix(1 0 0 -1 0 5.1225)"><use xlink:href="#gA99EA8F125D1936AE1DC52AE71D1D73D" x="0" y="0" fill="#7c7f6a" fill-rule="nonzero"/><use xlink:href="#gC597D586C3D65B86B3D3351D5EC36C5C" x="4.395" y="0" fill="#7c7f6a" fill-rule="nonzero"/><use xlink:href="#g3036A15D0A2AECE5F3220ADA73EBBEB6" x="8.2875" y="0" fill="#7c7f6a" fill-rule="nonzero"/><use xlink:href="#g44F03F202C08F14EDCBE40C48B1B4799" x="11.64" y="0" fill="#7c7f6a" fill-rule="nonzero"/><use xlink:href="#g3036A15D0A2AECE5F3220ADA73EBBEB6" x="15.675" y="0" fill="#7c7f6a" fill-rule="nonzero"/><use xlink:href="#gEA97EC147860E78008C33EAABF207A32" x="19.0275" y="0" fill="#7c7f6a" fill-rule="nonzero"/></g><g transform="matrix(1 0 0 -1 24.855 5.1225)"><use xlink:href="#g6681DF55163BBCE8F9C8CE7A6913666B" x="0" y="0" fill="#7c7f6a" fill-rule="nonzero"/></g></g><path fill="none" stroke="#1a1a18" stroke-width="1.5" stroke-linecap="butt" stroke-linejoin="miter" stroke-miterlimit="4" transform="translate(2.125984252 15.446102993)" d="M 0 0m 0 84.618829447l 3.543307087 -0.059532635l 3.543307087 -0.076318997l 3.543307087 -0.097794253l 3.543307087 -0.125239626l 3.543307087 -0.16026813l 3.543307087 -0.204898724l 3.543307087 -0.261639304l 3.543307087 -0.333573981l 3.543307087 -0.424445098l 3.543307087 -0.538712575l 3.543307087 -0.681561348l 3.543307087 -0.858811394l 3.543307087 -1.0766645l 3.543307087 -1.341200963l 3.543307087 -1.657526588l 3.543307087 -2.028482968l 3.543307087 -2.452899062l 3.543307087 -2.923511168l 3.543307087 -3.424927891l 3.543307087 -3.932329539l 3.543307087 -4.411832269l 3.543307087 -4.823379324l 3.543307087 -5.126413917l 3.543307087 -5.287450469l 3.543307087 -5.287450469l 3.543307087 -5.126413917l 3.543307087 -4.823379324l 3.543307087 -4.411832269l 3.543307087 -3.932329539l 3.543307087 -3.424927891l 3.543307087 -2.923511168l 3.543307087 -2.452899062l 3.543307087 -2.028482968l 3.543307087 -1.657526588l 3.543307087 -1.341200963l 3.543307087 -1.0766645l 3.543307087 -0.858811394l 3.543307087 -0.681561348l 3.543307087 -0.538712575l 3.543307087 -0.424445098l 3.543307087 -0.333573981l 3.543307087 -0.261639304l 3.543307087 -0.204898724l 3.543307087 -0.16026813l 3.543307087 -0.125239626l 3.543307087 -0.097794253l 3.543307087 -0.076318997l 3.543307087 -0.059532635"/><path fill="none" transform="translate(24.469732283 82.533974409)" d="M 0 0h 23.344v 7.136h -23.344v -7.136Z "/><g transform="translate(24.469732205 82.533974299)"><g transform="matrix(1 0 0 -1 0 5.264)"><use xlink:href="#g46DFAA35BC521B4F2378CE697B4B163E" x="0" y="0" fill="#1a1a18" fill-rule="nonzero"/><use xlink:href="#gF79D9CC171E1ACC5162F855F1894F43E" x="4.152" y="0" fill="#1a1a18" fill-rule="nonzero"/><use xlink:href="#gF09D88C2290872E835CD22D560D52A5C" x="7.808" y="0" fill="#1a1a18" fill-rule="nonzero"/><use xlink:href="#g3478CFDC408E67C5C7551BD6A62D2425" x="11.296" y="0" fill="#1a1a18" fill-rule="nonzero"/><use xlink:href="#g5D01DA3AB390CB78D7E54204B7DC3F87" x="14.624" y="0" fill="#1a1a18" fill-rule="nonzero"/><use xlink:href="#g937124D7F3D66536776BB8DA5DFD7893" x="18.656" y="0" fill="#1a1a18" fill-rule="nonzero"/></g></g><path fill="none" transform="translate(73.205354331 48.518226378)" d="M 0 0h 27.92v 7.136h -27.92v -7.136Z "/><g transform="translate(73.205354268 48.518226268)"><g transform="matrix(1 0 0 -1 0 5.264)"><use xlink:href="#gF859B786D36C3A3EB6E93A57BC4F802" x="0" y="0" fill="#7c7f6a" fill-rule="nonzero"/><use xlink:href="#g465CA45D0696F5BBCE5E7A11B5E63D98" x="4.688" y="0" fill="#7c7f6a" fill-rule="nonzero"/><use xlink:href="#g46DFAA35BC521B4F2378CE697B4B163E" x="8.264" y="0" fill="#7c7f6a" fill-rule="nonzero"/><use xlink:href="#g465CA45D0696F5BBCE5E7A11B5E63D98" x="12.416" y="0" fill="#7c7f6a" fill-rule="nonzero"/><use xlink:href="#g3478CFDC408E67C5C7551BD6A62D2425" x="15.992" y="0" fill="#7c7f6a" fill-rule="nonzero"/><use xlink:href="#gDF0740817C60D01D4C0A2F901DD857A7" x="19.32" y="0" fill="#7c7f6a" fill-rule="nonzero"/><use xlink:href="#gDFD38EC9906BA626C5B7E69A103C103" x="24.008" y="0" fill="#7c7f6a" fill-rule="nonzero"/></g></g><path fill="none" transform="translate(130.947622047 22.47709252)" d="M 0 0h 20.152v 5.36h -20.152v -5.36Z "/><g transform="translate(130.947622016 22.477092504)"><g transform="matrix(1 0 0 -1 0 5.264)"><use xlink:href="#gF859B786D36C3A3EB6E93A57BC4F802" x="0" y="0" fill="#1a1a18" fill-rule="nonzero"/><use xlink:href="#gFF63DA2595F1651AF0C535BF803D9AEC" x="4.688" y="0" fill="#1a1a18" fill-rule="nonzero"/><use xlink:href="#gF79D9CC171E1ACC5162F855F1894F43E" x="8.904" y="0" fill="#1a1a18" fill-rule="nonzero"/><use xlink:href="#gE09E60C0AC8E2E10ADA02C2F49261352" x="12.56" y="0" fill="#1a1a18" fill-rule="nonzero"/><use xlink:href="#g5D01DA3AB390CB78D7E54204B7DC3F87" x="16.12" y="0" fill="#1a1a18" fill-rule="nonzero"/></g></g></g><defs><symbol id="g3D9A67B9902CBFFCF1182D85B33DBA41" overflow="visible"><path d="M 0 0m 1.241 3.6465c -0.3655 0 -0.663 0.0085 -0.9435 0.017c -0.051 -0.051 -0.051 -0.2295 0 -0.2805c 0.5185 -0.034 0.612 -0.068 0.612 -0.7735v -1.5725c 0 -0.7055 -0.0935 -0.731 -0.612 -0.7735c -0.051 -0.051 -0.051 -0.2295 0 -0.2805c 0.2805 0.0085 0.578 0.017 0.952 0.017c 0.3145 0 0.595 -0.017 1.1645 -0.017c 0.731 0 1.2835 0.204 1.2835 1.0455c 0 0.476 -0.2975 0.8075 -0.816 0.901v 0.0255c 0.391 0.0765 0.6885 0.3485 0.6885 0.8585c 0 0.595 -0.3655 0.85 -1.394 0.85c -0.3485 0 -0.5695 -0.017 -0.935 -0.017Z m 0.34 -1.802h 0.646c 0.5185 0 0.7395 -0.34 0.7395 -0.85c 0 -0.5695 -0.323 -0.731 -0.782 -0.731c -0.442 0 -0.6035 0.0765 -0.6035 0.4675Z m 0 0.2465v 0.986c 0 0.255 0.1955 0.306 0.6035 0.306c 0.442 0 0.7055 -0.119 0.7055 -0.629c 0 -0.34 -0.221 -0.663 -0.748 -0.663Z "/></symbol><symbol id="g430571653545A60A3EF6386D136EADA3" overflow="visible"><path d="M 0 0m 1.326 3.128c -0.0085 0.255 -0.0255 0.476 -0.068 0.561c -0.017 0.0425 -0.034 0.068 -0.102 0.068c -0.238 -0.0935 -0.459 -0.17 -1.0455 -0.2465c -0.017 -0.051 0 -0.187 0.017 -0.238c 0.459 -0.0425 0.5525 -0.085 0.5525 -0.578v -3.6295c 0 -0.7055 -0.0935 -0.748 -0.612 -0.7735c -0.051 -0.051 -0.051 -0.2295 0 -0.2805c 0.2975 0.0085 0.612 0.017 0.952 0.017c 0.34 0 0.748 -0.0085 1.0285 -0.017c 0.051 0.051 0.051 0.2295 0 0.2805c -0.6035 0.034 -0.697 0.068 -0.697 0.7735v 0.918c 0 0.1105 0.034 0.102 0.119 0.068c 0.2125 -0.085 0.4675 -0.136 0.7395 -0.136c 0.476 0 0.901 0.1445 1.2495 0.476c 0.3995 0.391 0.629 0.918 0.629 1.6065c 0 0.901 -0.6375 1.734 -1.5045 1.734c -0.391 0 -0.8245 -0.255 -1.1645 -0.6375c -0.051 -0.051 -0.085 -0.051 -0.0935 0.034Z m 0.1615 -0.3145c 0.221 0.272 0.612 0.527 0.8585 0.527c 0.544 0 1.0115 -0.612 1.0115 -1.5725c 0 -0.697 -0.2465 -1.564 -1.1985 -1.564c -0.153 0 -0.4505 0.0425 -0.6035 0.1785c -0.17 0.153 -0.204 0.204 -0.204 0.51v 1.547c 0 0.1785 0.034 0.255 0.136 0.374Z "/></symbol><symbol id="g5D2E58E4CDB4D7E6C81847885E22D756" overflow="visible"><path d="M 0 0m 3.281 0.7905c -0.3145 -0.323 -0.561 -0.459 -1.054 -0.459c -0.306 0 -0.663 0.1785 -0.9265 0.612c -0.17 0.2805 -0.272 0.6715 -0.272 1.1645l 2.261 -0.017c 0.102 0 0.1615 0.051 0.1615 0.1445c 0 0.714 -0.255 1.479 -1.4365 1.479c -0.7395 0 -1.7 -0.7055 -1.7 -1.9975c 0 -0.476 0.119 -0.935 0.3995 -1.258c 0.289 -0.34 0.6885 -0.544 1.3005 -0.544c 0.646 0 1.105 0.2975 1.445 0.7395c -0.0255 0.085 -0.0765 0.1275 -0.1785 0.136Z m -2.227 1.6065c 0.1615 0.9605 0.7565 1.037 0.9605 1.037c 0.323 0 0.7055 -0.1785 0.7055 -0.8925c 0 -0.0765 -0.034 -0.119 -0.1275 -0.119Z "/></symbol><symbol id="gDEA2A0379B7527B5C1F8D88530B6617D" overflow="visible"><path d="M 0 0m 0.9945 2.601l -0.051 -1.581c -0.0255 -0.714 -0.153 -0.731 -0.646 -0.7565c -0.051 -0.051 -0.051 -0.2295 0 -0.2805c 0.17 0.0085 0.595 0.017 0.731 0.017c 0.17 0 0.5695 -0.0085 0.7395 -0.017c 0.051 0.051 0.051 0.2295 0 0.2805c -0.4845 0.034 -0.5185 0.119 -0.5015 0.7565l 0.0595 2.0825c 0 0.0765 0.034 0.0765 0.068 0l 1.2325 -3.009c 0.034 -0.0255 0.068 -0.0255 0.0935 0l 1.394 3.0005c 0.0425 0.0935 0.085 0.102 0.085 0l -0.0085 -2.057c 0 -0.7055 -0.0595 -0.731 -0.578 -0.7735c -0.051 -0.051 -0.051 -0.2295 0 -0.2805c 0.306 0.0085 0.6205 0.017 0.918 0.017c 0.255 0 0.6205 -0.0085 0.952 -0.017c 0.051 0.051 0.051 0.2295 0 0.2805c -0.5185 0.034 -0.612 0.068 -0.612 0.7735l -0.017 1.5725c -0.0085 0.7055 0.0935 0.731 0.612 0.7735c 0.051 0.051 0.051 0.2295 0 0.2805c -0.2975 -0.017 -1.122 -0.017 -1.4025 -0.017l -1.1305 -2.431l -0.0425 -0.085l -0.034 0.085l -0.9945 2.431c -0.2805 0 -1.1815 0 -1.479 0.017c -0.051 -0.051 -0.051 -0.2295 0 -0.2805c 0.5185 -0.0425 0.6375 -0.0765 0.612 -0.782Z "/></symbol><symbol id="gEF5DE670D307ABF3FAA7AE7F58FA196F" overflow="visible"><path d="M 0 0m 0.969 0c 0.238 0.0085 0.323 0.2295 0.425 0.5355c 0.221 0.6715 0.4675 1.088 0.8925 1.088h 0.221v -0.5865c 0 -0.7055 -0.0935 -0.731 -0.612 -0.7735c -0.051 -0.051 -0.051 -0.2295 0 -0.2805c 0.2805 0.0085 0.578 0.017 0.952 0.017c 0.3655 0 0.6715 -0.0085 0.9435 -0.017c 0.051 0.051 0.051 0.2295 0 0.2805c -0.5185 0.034 -0.612 0.068 -0.612 0.7735v 1.5725c 0 0.7055 0.0935 0.731 0.612 0.7735c 0.051 0.051 0.051 0.2295 0 0.2805c -0.289 -0.0085 -0.578 -0.017 -0.952 -0.017c -0.289 0 -0.5355 0.017 -0.748 0.017c -1.4875 0 -1.615 -0.612 -1.615 -1.071c 0 -0.5525 0.425 -0.833 1.054 -0.8585c 0.0255 0 0.0255 -0.0255 0.017 -0.034c -0.323 -0.0935 -0.4675 -0.272 -0.612 -0.5865c -0.0935 -0.1955 -0.17 -0.3825 -0.2125 -0.493c -0.1105 -0.289 -0.255 -0.34 -0.5865 -0.357c -0.051 -0.051 -0.051 -0.2295 0 -0.2805c 0.17 0.0085 0.833 0.017 0.833 0.017Z m 0.238 2.7285c 0 0.3995 0.1275 0.6545 0.816 0.6545c 0.3485 0 0.4845 -0.153 0.4845 -0.476v -0.9945h -0.595c -0.51 0 -0.7055 0.391 -0.7055 0.816Z "/></symbol><symbol id="gD70D576278B08C85CC0ADDD25DB2A5AC" overflow="visible"><path d="M 0 0m 2.805 3.5615c 0 0.0765 -0.085 0.119 -0.2635 0.119h -0.6885c 0.221 0.884 0.3315 1.343 0.3315 1.377c 0 0.1785 -0.0935 0.2635 -0.272 0.2635c -0.1955 0 -0.3145 -0.1105 -0.3655 -0.3315l -0.3145 -1.309h -0.7565c -0.187 0 -0.2805 -0.0085 -0.2805 -0.187c 0 -0.0935 0.085 -0.136 0.2635 -0.136h 0.6885c -0.4165 -1.6575 -0.6205 -2.533 -0.6205 -2.6435c 0 -0.476 0.323 -0.8075 0.799 -0.8075c 0.323 0 0.6035 0.1445 0.85 0.442c 0.204 0.2465 0.3485 0.4845 0.442 0.714c 0.034 0.0935 0.051 0.1445 0.051 0.17c 0 0.0765 -0.0425 0.119 -0.1275 0.119c -0.068 0 -0.119 -0.0425 -0.153 -0.136c -0.289 -0.7055 -0.6375 -1.054 -1.054 -1.054c -0.1445 0 -0.221 0.119 -0.221 0.3485c 0 0.1275 0.017 0.2635 0.051 0.3995l 0.6035 2.448h 0.7565c 0.221 0 0.2805 0.017 0.2805 0.204Z "/></symbol><symbol id="gF931FC691828778A920607CF18B9C32A" overflow="visible"><path d="M 0 0m 2.4905 0.408c 0.051 -0.2635 0.1445 -0.493 0.5695 -0.493c 0.323 0 0.629 0.1445 0.8075 0.3145c -0.017 0.102 -0.051 0.1785 -0.1445 0.2295c -0.0595 -0.051 -0.204 -0.136 -0.3145 -0.136c -0.2465 0 -0.255 0.3315 -0.255 0.7225v 1.2495c 0 1.207 -0.663 1.4365 -1.2835 1.4365c -0.697 0 -1.4025 -0.459 -1.4025 -0.9435c 0 -0.204 0.102 -0.306 0.2975 -0.306c 0.2465 0 0.3995 0.1785 0.3995 0.289c 0 0.0595 -0.0085 0.119 -0.0255 0.153c -0.0085 0.0255 -0.017 0.0765 -0.017 0.17c 0 0.2635 0.357 0.357 0.68 0.357c 0.289 0 0.6885 -0.1445 0.6885 -1.105c 0 -0.0595 -0.0255 -0.0935 -0.051 -0.102l -0.731 -0.1785c -0.816 -0.204 -1.4025 -0.6545 -1.4025 -1.2325c 0 -0.697 0.476 -0.918 1.071 -0.918c 0.2975 0 0.5525 0.068 0.9265 0.357l 0.17 0.136Z m 0 1.5725v -1.122c 0 -0.1105 -0.051 -0.17 -0.119 -0.221c -0.221 -0.1785 -0.51 -0.374 -0.748 -0.374c -0.425 0 -0.612 0.34 -0.612 0.6035c 0 0.3825 0.1785 0.7735 0.8075 0.935Z "/></symbol><symbol id="g11CAB86DAD56BCA12FE1B0081452B59D" overflow="visible"><path d="M 0 0m 0.3655 0.7055c 0 -0.187 0.1105 -0.323 0.289 -0.459c 0.2125 -0.153 0.493 -0.3315 1.1645 -0.3315c 0.85 0 1.513 0.255 1.513 1.0965c 0 0.51 -0.255 0.85 -0.8585 0.952v 0.0255c 0.5185 0.1955 0.6545 0.4335 0.6545 0.8755c 0 0.493 -0.34 0.867 -1.1985 0.867c -0.4505 0 -0.85 -0.1615 -1.309 -0.238l -0.1105 -1.0115c 0.068 -0.034 0.153 -0.0425 0.2295 -0.034c 0.1615 0.493 0.374 0.986 1.088 0.986c 0.4675 0 0.6205 -0.2805 0.6205 -0.6205c 0 -0.3485 -0.0595 -0.7565 -0.6035 -0.7565c -0.1615 0 -0.306 0.051 -0.4675 0.051c -0.0765 0 -0.1615 -0.051 -0.1615 -0.187c 0 -0.136 0.0935 -0.1785 0.17 -0.1785c 0.1615 0 0.255 0.051 0.4675 0.051c 0.629 0 0.748 -0.4335 0.748 -0.8075c 0 -0.5015 -0.187 -0.7735 -0.7905 -0.7735c -0.4845 0 -0.5695 0.1785 -0.714 0.4845c -0.068 0.153 -0.1615 0.272 -0.3825 0.272c -0.153 0 -0.3485 -0.1275 -0.3485 -0.2635Z "/></symbol><symbol id="g4D9C4A68C09B2F48A108D47E778DB2F5" overflow="visible"><path d="M 0 0m 7.089 5.8055c -0.1445 0 -0.646 -0.0255 -0.7905 -0.0255c -0.17 0 -0.765 0.0255 -0.935 0.0255c -0.1275 0 -0.1955 -0.068 -0.1955 -0.204c 0 -0.0765 0.0425 -0.119 0.136 -0.1275c 0.204 -0.0255 0.306 -0.0935 0.306 -0.221c 0 -0.0765 -0.051 -0.17 -0.153 -0.2805l -1.326 -1.428c -0.2465 0.578 -0.4845 1.1475 -0.731 1.7255c 0.0085 0.017 0.017 0.034 0.0425 0.051c 0.0765 0.085 0.221 0.136 0.425 0.153c 0.136 0.017 0.204 0.085 0.204 0.1955c 0 0.0935 -0.051 0.136 -0.1615 0.136c -0.204 0 -0.8585 -0.0255 -1.0625 -0.0255c -0.1785 0 -0.765 0.0255 -0.9435 0.0255c -0.1275 0 -0.187 -0.068 -0.187 -0.204c 0 -0.085 0.0765 -0.1275 0.2295 -0.1275c 0.3825 0 0.5015 0 0.6035 -0.2465l 0.986 -2.3205l -1.768 -1.8955c -0.0255 -0.0255 -0.0595 -0.0595 -0.102 -0.085c -0.3485 -0.3655 -0.748 -0.5695 -1.2155 -0.595c -0.1445 -0.0085 -0.221 -0.085 -0.221 -0.2125c 0.0255 -0.0765 0.034 -0.119 0.1445 -0.119c 0.1445 0 0.646 0.0255 0.7905 0.0255c 0.1785 0 0.765 -0.0255 0.9435 -0.0255c 0.1275 0 0.187 0.068 0.187 0.204c 0 0.0765 -0.0425 0.119 -0.136 0.1275c -0.204 0.017 -0.306 0.0935 -0.306 0.221c 0 0.085 0.0765 0.204 0.221 0.357c 0.527 0.561 1.0625 1.122 1.581 1.6915c 0.289 -0.6885 0.5865 -1.3685 0.867 -2.0655c -0.0085 -0.017 -0.017 -0.034 -0.0425 -0.0595c -0.0765 -0.0765 -0.2125 -0.119 -0.4165 -0.1445c -0.1275 -0.017 -0.1955 -0.085 -0.1955 -0.1955c 0 -0.0935 0.051 -0.136 0.1615 -0.136l 1.0625 0.0255c 0.1785 0 0.7735 -0.0255 0.9265 -0.0255c 0.1275 0 0.1955 0.068 0.1955 0.1955c 0 0.085 -0.0595 0.1275 -0.187 0.136c -0.2635 0 -0.4335 0.0085 -0.493 0.0425c -0.0595 0.034 -0.1275 0.136 -0.1955 0.306l -1.0795 2.5755c 0.578 0.612 1.0115 1.071 1.292 1.3855c 0.204 0.2125 0.34 0.357 0.4165 0.4165c 0.3145 0.2635 0.663 0.3995 1.0455 0.4165c 0.1785 0.0085 0.221 0.051 0.221 0.2125c -0.0255 0.0765 -0.034 0.119 -0.1445 0.119Z "/></symbol><symbol id="gA99EA8F125D1936AE1DC52AE71D1D73D" overflow="visible"><path d="M 0 0m 3.2775 3.2175h -2.13c -0.3 0 -0.585 0.0075 -0.81 0.015c -0.045 -0.045 -0.045 -0.2025 0 -0.2475c 0.4125 -0.03 0.51 -0.0675 0.51 -0.6825v -1.3875c 0 -0.615 -0.0975 -0.6525 -0.585 -0.6825c -0.045 -0.045 -0.045 -0.2025 0 -0.2475c 0.225 0.0075 0.585 0.015 0.885 0.015c 0.3 0 0.525 -0.0075 0.75 -0.015c 0.045 0.045 0.045 0.2025 0 0.2475c -0.3825 0.0375 -0.4575 0.0675 -0.4575 0.6825v 1.6275c 0 0.2325 0.0225 0.3825 0.315 0.3825h 0.9075c 0.2775 0 0.3225 -0.0825 0.3225 -0.3825v -1.6275c 0 -0.615 -0.075 -0.6525 -0.465 -0.6825c -0.0375 -0.045 -0.0375 -0.2025 0 -0.2475c 0.1875 0.0075 0.465 0.015 0.765 0.015c 0.3 0 0.6375 -0.0075 0.8475 -0.015c 0.0375 0.045 0.0375 0.2025 0 0.2475c -0.4875 0.03 -0.555 0.0675 -0.555 0.6825v 1.3875c 0 0.615 0.0975 0.6525 0.51 0.6825c 0.045 0.045 0.045 0.2025 0 0.2475c -0.225 -0.0075 -0.51 -0.015 -0.81 -0.015Z "/></symbol><symbol id="gC597D586C3D65B86B3D3351D5EC36C5C" overflow="visible"><path d="M 0 0m 1.17 2.76c -0.0075 0.225 -0.0225 0.42 -0.06 0.495c -0.015 0.0375 -0.03 0.06 -0.09 0.06c -0.21 -0.0825 -0.405 -0.15 -0.9225 -0.2175c -0.015 -0.045 0 -0.165 0.015 -0.21c 0.405 -0.0375 0.4875 -0.075 0.4875 -0.51v -3.2025c 0 -0.6225 -0.0825 -0.66 -0.54 -0.6825c -0.045 -0.045 -0.045 -0.2025 0 -0.2475c 0.2625 0.0075 0.54 0.015 0.84 0.015c 0.3 0 0.66 -0.0075 0.9075 -0.015c 0.045 0.045 0.045 0.2025 0 0.2475c -0.5325 0.03 -0.615 0.06 -0.615 0.6825v 0.81c 0 0.0975 0.03 0.09 0.105 0.06c 0.1875 -0.075 0.4125 -0.12 0.6525 -0.12c 0.42 0 0.795 0.1275 1.1025 0.42c 0.3525 0.345 0.555 0.81 0.555 1.4175c 0 0.795 -0.5625 1.53 -1.3275 1.53c -0.345 0 -0.7275 -0.225 -1.0275 -0.5625c -0.045 -0.045 -0.075 -0.045 -0.0825 0.03Z m 0.1425 -0.2775c 0.195 0.24 0.54 0.465 0.7575 0.465c 0.48 0 0.8925 -0.54 0.8925 -1.3875c 0 -0.615 -0.2175 -1.38 -1.0575 -1.38c -0.135 0 -0.3975 0.0375 -0.5325 0.1575c -0.15 0.135 -0.18 0.18 -0.18 0.45v 1.365c 0 0.1575 0.03 0.225 0.12 0.33Z "/></symbol><symbol id="g3036A15D0A2AECE5F3220ADA73EBBEB6" overflow="visible"><path d="M 0 0m 2.895 0.6975c -0.2775 -0.285 -0.495 -0.405 -0.93 -0.405c -0.27 0 -0.585 0.1575 -0.8175 0.54c -0.15 0.2475 -0.24 0.5925 -0.24 1.0275l 1.995 -0.015c 0.09 0 0.1425 0.045 0.1425 0.1275c 0 0.63 -0.225 1.305 -1.2675 1.305c -0.6525 0 -1.5 -0.6225 -1.5 -1.7625c 0 -0.42 0.105 -0.825 0.3525 -1.11c 0.255 -0.3 0.6075 -0.48 1.1475 -0.48c 0.57 0 0.975 0.2625 1.275 0.6525c -0.0225 0.075 -0.0675 0.1125 -0.1575 0.12Z m -1.965 1.4175c 0.1425 0.8475 0.6675 0.915 0.8475 0.915c 0.285 0 0.6225 -0.1575 0.6225 -0.7875c 0 -0.0675 -0.03 -0.105 -0.1125 -0.105Z "/></symbol><symbol id="g44F03F202C08F14EDCBE40C48B1B4799" overflow="visible"><path d="M 0 0m 1.4175 3.2175c -0.2475 0 -0.54 0.0075 -0.765 0.015c -0.045 -0.045 -0.045 -0.2025 0 -0.2475c 0.4575 -0.0375 0.5925 -0.0675 0.5625 -0.69c -0.03 -0.69 -0.15 -1.245 -0.2775 -1.77c -0.045 -0.2025 -0.2625 -0.27 -0.4725 -0.2925c -0.1125 -0.015 -0.2175 -0.06 -0.225 -0.195l -0.045 -0.9975c 0.0525 -0.0225 0.1125 -0.03 0.2025 -0.0075c 0.0675 0.2775 0.27 0.9675 0.945 0.9675h 1.2975c 0.6675 0 0.885 -0.675 0.9525 -0.975c 0.0675 -0.015 0.135 -0.015 0.21 0.015l -0.045 1.005c 0 0.105 -0.06 0.165 -0.2025 0.1875c -0.135 0.0225 -0.3225 0.075 -0.3225 0.3525v 1.7175c 0 0.615 0.0975 0.6525 0.51 0.6825c 0.045 0.045 0.045 0.2025 0 0.2475c -0.225 -0.0075 -0.51 -0.015 -0.81 -0.015Z m -0.21 -2.835c 0 0.1275 0.2025 0.6225 0.315 2.34c 0.0075 0.1125 0.06 0.21 0.2625 0.21h 0.5175c 0.3 0 0.3375 -0.21 0.3375 -0.465v -1.8075c 0 -0.2475 -0.015 -0.3675 -0.315 -0.3675h -0.9675c -0.0825 0 -0.15 0.0075 -0.15 0.09Z "/></symbol><symbol id="gEA97EC147860E78008C33EAABF207A32" overflow="visible"><path d="M 0 0m 3.135 0.915v 1.3875c 0 0.615 0.0975 0.6525 0.51 0.6825c 0.045 0.045 0.045 0.2025 0 0.2475c -0.225 -0.0075 -0.51 -0.015 -0.81 -0.015h -1.4175c -0.2475 0 -0.54 0.0075 -0.765 0.015c -0.045 -0.045 -0.045 -0.2025 0 -0.2475c 0.5325 -0.0375 0.6075 -0.0825 0.6075 -0.8925c 0 -0.7875 -0.06 -1.2 -0.165 -1.5075c -0.0975 -0.27 -0.225 -0.3675 -0.3525 -0.3675c -0.0975 0 -0.1275 0.06 -0.1425 0.1575c -0.0225 0.1425 -0.0675 0.285 -0.2775 0.285c -0.1875 0 -0.2925 -0.15 -0.2925 -0.315c 0 -0.2325 0.21 -0.435 0.555 -0.435c 0.3825 0 0.5925 0.195 0.765 0.6c 0.15 0.36 0.195 1.125 0.195 1.635c 0 0.585 0.0225 0.78 0.3225 0.78h 0.3375c 0.285 0 0.3375 -0.18 0.3375 -0.435v -1.575c 0 -0.615 -0.075 -0.6525 -0.465 -0.6825c -0.0375 -0.045 -0.0375 -0.2025 0 -0.2475c 0.1875 0.0075 0.465 0.015 0.765 0.015c 0.3 0 0.6375 -0.0075 0.8475 -0.015c 0.0375 0.045 0.0375 0.2025 0 0.2475c -0.4875 0.03 -0.555 0.0675 -0.555 0.6825Z "/></symbol><symbol id="g6681DF55163BBCE8F9C8CE7A6913666B" overflow="visible"><path d="M 0 0m 3.9 5.0025c 0 0.0825 -0.0525 0.12 -0.15 0.12l -1.095 -0.0225l -0.9825 0.0225c -0.1125 0.0075 -0.1725 -0.0525 -0.1725 -0.18c 0 -0.0525 0.0225 -0.09 0.0675 -0.0975c 0.0675 -0.0075 0.1275 -0.015 0.165 -0.015c 0.2325 -0.0075 0.36 -0.0225 0.3975 -0.03c 0.0375 -0.0075 0.06 -0.03 0.06 -0.0675c 0 -0.015 -0.0075 -0.06 -0.03 -0.135l -0.99 -3.9825c -0.045 -0.165 -0.12 -0.2625 -0.2325 -0.3c -0.045 -0.015 -0.18 -0.0225 -0.4125 -0.0225c -0.1575 0 -0.2325 -0.06 -0.2325 -0.18c 0 -0.075 0.075 -0.1125 0.2325 -0.1125h 3.4275c 0.1875 0 0.2025 0 0.255 0.1425l 0.585 1.605c 0.0225 0.0525 0.03 0.09 0.03 0.1125c 0 0.075 -0.0375 0.1125 -0.12 0.1125c -0.075 0 -0.1125 -0.0675 -0.15 -0.1725c -0.1425 -0.3675 -0.2775 -0.645 -0.39 -0.8175c -0.2775 -0.42 -0.75 -0.69 -1.44 -0.69h -0.6975c -0.0825 0 -0.135 0 -0.1575 0.0075c -0.0525 0 -0.075 0.015 -0.075 0.0375c 0 0.015 0.015 0.0675 0.0375 0.165l 0.9975 4.005c 0.045 0.1725 0.1425 0.27 0.285 0.3075c 0.045 0.0075 0.2025 0.015 0.4725 0.015c 0.21 0 0.315 0 0.315 0.1725Z "/></symbol><symbol id="g46DFAA35BC521B4F2378CE697B4B163E" overflow="visible"><path d="M 0 0m 1.248 2.944c -0.008 0.24 -0.024 0.448 -0.064 0.528c -0.016 0.04 -0.032 0.064 -0.096 0.064c -0.224 -0.088 -0.432 -0.16 -0.984 -0.232c -0.016 -0.048 0 -0.176 0.016 -0.224c 0.432 -0.04 0.52 -0.08 0.52 -0.544v -3.416c 0 -0.664 -0.088 -0.704 -0.576 -0.728c -0.048 -0.048 -0.048 -0.216 0 -0.264c 0.28 0.008 0.576 0.016 0.896 0.016c 0.32 0 0.704 -0.008 0.968 -0.016c 0.048 0.048 0.048 0.216 0 0.264c -0.568 0.032 -0.656 0.064 -0.656 0.728v 0.864c 0 0.104 0.032 0.096 0.112 0.064c 0.2 -0.08 0.44 -0.128 0.696 -0.128c 0.448 0 0.848 0.136 1.176 0.448c 0.376 0.368 0.592 0.864 0.592 1.512c 0 0.848 -0.6 1.632 -1.416 1.632c -0.368 0 -0.776 -0.24 -1.096 -0.6c -0.048 -0.048 -0.08 -0.048 -0.088 0.032Z m 0.152 -0.296c 0.208 0.256 0.576 0.496 0.808 0.496c 0.512 0 0.952 -0.576 0.952 -1.48c 0 -0.656 -0.232 -1.472 -1.128 -1.472c -0.144 0 -0.424 0.04 -0.568 0.168c -0.16 0.144 -0.192 0.192 -0.192 0.48v 1.456c 0 0.168 0.032 0.24 0.128 0.352Z "/></symbol><symbol id="gF79D9CC171E1ACC5162F855F1894F43E" overflow="visible"><path d="M 0 0m 2.344 0.384c 0.048 -0.248 0.136 -0.464 0.536 -0.464c 0.304 0 0.592 0.136 0.76 0.296c -0.016 0.096 -0.048 0.168 -0.136 0.216c -0.056 -0.048 -0.192 -0.128 -0.296 -0.128c -0.232 0 -0.24 0.312 -0.24 0.68v 1.176c 0 1.136 -0.624 1.352 -1.208 1.352c -0.656 0 -1.32 -0.432 -1.32 -0.888c 0 -0.192 0.096 -0.288 0.28 -0.288c 0.232 0 0.376 0.168 0.376 0.272c 0 0.056 -0.008 0.112 -0.024 0.144c -0.008 0.024 -0.016 0.072 -0.016 0.16c 0 0.248 0.336 0.336 0.64 0.336c 0.272 0 0.648 -0.136 0.648 -1.04c 0 -0.056 -0.024 -0.088 -0.048 -0.096l -0.688 -0.168c -0.768 -0.192 -1.32 -0.616 -1.32 -1.16c 0 -0.656 0.448 -0.864 1.008 -0.864c 0.28 0 0.52 0.064 0.872 0.336l 0.16 0.128Z m 0 1.48v -1.056c 0 -0.104 -0.048 -0.16 -0.112 -0.208c -0.208 -0.168 -0.48 -0.352 -0.704 -0.352c -0.4 0 -0.576 0.32 -0.576 0.568c 0 0.36 0.168 0.728 0.76 0.88Z "/></symbol><symbol id="gF09D88C2290872E835CD22D560D52A5C" overflow="visible"><path d="M 0 0m 0.344 0.664c 0 -0.176 0.104 -0.304 0.272 -0.432c 0.2 -0.144 0.464 -0.312 1.096 -0.312c 0.8 0 1.424 0.24 1.424 1.032c 0 0.48 -0.24 0.8 -0.808 0.896v 0.024c 0.488 0.184 0.616 0.408 0.616 0.824c 0 0.464 -0.32 0.816 -1.128 0.816c -0.424 0 -0.8 -0.152 -1.232 -0.224l -0.104 -0.952c 0.064 -0.032 0.144 -0.04 0.216 -0.032c 0.152 0.464 0.352 0.928 1.024 0.928c 0.44 0 0.584 -0.264 0.584 -0.584c 0 -0.328 -0.056 -0.712 -0.568 -0.712c -0.152 0 -0.288 0.048 -0.44 0.048c -0.072 0 -0.152 -0.048 -0.152 -0.176c 0 -0.128 0.088 -0.168 0.16 -0.168c 0.152 0 0.24 0.048 0.44 0.048c 0.592 0 0.704 -0.408 0.704 -0.76c 0 -0.472 -0.176 -0.728 -0.744 -0.728c -0.456 0 -0.536 0.168 -0.672 0.456c -0.064 0.144 -0.152 0.256 -0.36 0.256c -0.144 0 -0.328 -0.12 -0.328 -0.248Z "/></symbol><symbol id="g3478CFDC408E67C5C7551BD6A62D2425" overflow="visible"><path d="M 0 0m 1.488 2.456c 0 0.456 0.056 0.664 0.336 0.664h 0.176c 0.656 0 0.848 -0.456 0.96 -0.92c 0.088 -0.008 0.168 0 0.232 0.032c -0.032 0.424 -0.056 0.776 -0.104 1.2l -0.016 0.016c 0 0 -0.64 -0.016 -0.896 -0.016h -1.008c -0.344 0 -0.624 0.008 -0.888 0.016c -0.048 -0.048 -0.048 -0.216 0 -0.264c 0.488 -0.032 0.576 -0.064 0.576 -0.728v -1.48c 0 -0.664 -0.088 -0.688 -0.576 -0.728c -0.048 -0.048 -0.048 -0.216 0 -0.264c 0.264 0.008 0.544 0.016 0.896 0.016c 0.344 0 0.632 -0.008 0.888 -0.016c 0.048 0.048 0.048 0.216 0 0.264c -0.488 0.032 -0.576 0.064 -0.576 0.728Z "/></symbol><symbol id="g5D01DA3AB390CB78D7E54204B7DC3F87" overflow="visible"><path d="M 0 0m 0.328 1.64c 0 -0.816 0.544 -1.72 1.68 -1.72c 0.512 0 0.904 0.184 1.176 0.448c 0.36 0.352 0.52 0.856 0.52 1.344c 0 0.832 -0.456 1.8 -1.68 1.8c -0.528 0 -0.96 -0.216 -1.256 -0.56c -0.288 -0.344 -0.44 -0.808 -0.44 -1.312Z m 1.576 1.592c 0.688 0 1.112 -0.624 1.112 -1.776c 0 -1.008 -0.52 -1.256 -0.896 -1.256c -0.832 0 -1.104 1.008 -1.104 1.624c 0 0.696 0.168 1.408 0.888 1.408Z "/></symbol><symbol id="g937124D7F3D66536776BB8DA5DFD7893" overflow="visible"><path d="M 0 0m 3.832 2.456c 0 0.664 0.088 0.688 0.576 0.728c 0.048 0.048 0.048 0.216 0 0.264c -0.28 -0.016 -0.632 -0.016 -0.896 -0.016c -0.224 0 -0.544 0.008 -0.856 0.016c -0.048 -0.048 -0.048 -0.216 0 -0.264c 0.488 -0.032 0.544 -0.064 0.544 -0.728v -0.52h -1.712v 0.52c 0 0.664 0.056 0.688 0.544 0.728c 0.048 0.048 0.048 0.216 0 0.264c -0.304 -0.008 -0.608 -0.016 -0.864 -0.016c -0.24 0 -0.568 0.008 -0.888 0.016c -0.048 -0.048 -0.048 -0.216 0 -0.264c 0.488 -0.032 0.576 -0.064 0.576 -0.728v -1.48c 0 -0.664 -0.088 -0.688 -0.576 -0.728c -0.048 -0.048 -0.048 -0.216 0 -0.264c 0.32 0.008 0.64 0.016 0.896 0.016c 0.256 0 0.568 -0.008 0.856 -0.016c 0.048 0.048 0.048 0.216 0 0.264c -0.488 0.032 -0.544 0.064 -0.544 0.728v 0.696h 1.712v -0.696c 0 -0.664 -0.056 -0.688 -0.544 -0.728c -0.048 -0.048 -0.048 -0.216 0 -0.264c 0.288 0.008 0.584 0.016 0.864 0.016c 0.24 0 0.576 -0.008 0.888 -0.016c 0.048 0.048 0.048 0.216 0 0.264c -0.488 0.032 -0.576 0.064 -0.576 0.728Z "/></symbol><symbol id="gF859B786D36C3A3EB6E93A57BC4F802" overflow="visible"><path d="M 0 0m 3.496 3.432h -2.272c -0.32 0 -0.624 0.008 -0.864 0.016c -0.048 -0.048 -0.048 -0.216 0 -0.264c 0.44 -0.032 0.544 -0.072 0.544 -0.728v -1.48c 0 -0.656 -0.104 -0.696 -0.624 -0.728c -0.048 -0.048 -0.048 -0.216 0 -0.264c 0.24 0.008 0.624 0.016 0.944 0.016c 0.32 0 0.56 -0.008 0.8 -0.016c 0.048 0.048 0.048 0.216 0 0.264c -0.408 0.04 -0.488 0.072 -0.488 0.728v 1.736c 0 0.248 0.024 0.408 0.336 0.408h 0.968c 0.296 0 0.344 -0.088 0.344 -0.408v -1.736c 0 -0.656 -0.08 -0.696 -0.496 -0.728c -0.04 -0.048 -0.04 -0.216 0 -0.264c 0.2 0.008 0.496 0.016 0.816 0.016c 0.32 0 0.68 -0.008 0.904 -0.016c 0.04 0.048 0.04 0.216 0 0.264c -0.52 0.032 -0.592 0.072 -0.592 0.728v 1.48c 0 0.656 0.104 0.696 0.544 0.728c 0.048 0.048 0.048 0.216 0 0.264c -0.24 -0.008 -0.544 -0.016 -0.864 -0.016Z "/></symbol><symbol id="g465CA45D0696F5BBCE5E7A11B5E63D98" overflow="visible"><path d="M 0 0m 3.088 0.744c -0.296 -0.304 -0.528 -0.432 -0.992 -0.432c -0.288 0 -0.624 0.168 -0.872 0.576c -0.16 0.264 -0.256 0.632 -0.256 1.096l 2.128 -0.016c 0.096 0 0.152 0.048 0.152 0.136c 0 0.672 -0.24 1.392 -1.352 1.392c -0.696 0 -1.6 -0.664 -1.6 -1.88c 0 -0.448 0.112 -0.88 0.376 -1.184c 0.272 -0.32 0.648 -0.512 1.224 -0.512c 0.608 0 1.04 0.28 1.36 0.696c -0.024 0.08 -0.072 0.12 -0.168 0.128Z m -2.096 1.512c 0.152 0.904 0.712 0.976 0.904 0.976c 0.304 0 0.664 -0.168 0.664 -0.84c 0 -0.072 -0.032 -0.112 -0.12 -0.112Z "/></symbol><symbol id="gDF0740817C60D01D4C0A2F901DD857A7" overflow="visible"><path d="M 0 0m 1.584 0.504c -0.024 0 -0.056 0.016 -0.056 0.096v 1.824c 0 0.664 0.168 0.736 0.576 0.76c 0.048 0.048 0.048 0.216 0 0.264c -0.184 -0.008 -0.64 -0.016 -0.936 -0.016c -0.264 0 -0.584 0.008 -0.888 0.016c -0.048 -0.048 -0.048 -0.216 0 -0.264c 0.488 -0.024 0.616 -0.096 0.616 -0.76v -1.416c 0 -0.664 -0.128 -0.736 -0.616 -0.76c -0.048 -0.048 -0.048 -0.216 0 -0.264c 0.312 0.008 0.632 0.016 0.888 0.016c 0.184 0 0.4 -0.008 0.488 -0.016c 0.04 0.112 0.112 0.272 0.2 0.432l 1.248 2.504c 0.024 0 0.056 -0.016 0.056 -0.096v -1.816c 0 -0.664 -0.168 -0.736 -0.576 -0.76c -0.048 -0.048 -0.048 -0.216 0 -0.264c 0.184 0.008 0.616 0.016 0.936 0.016c 0.248 0 0.576 -0.008 0.888 -0.016c 0.048 0.048 0.048 0.216 0 0.264c -0.488 0.024 -0.616 0.096 -0.616 0.76v 1.416c 0 0.664 0.128 0.736 0.616 0.76c 0.048 0.048 0.048 0.216 0 0.264c -0.32 -0.008 -0.64 -0.016 -0.888 -0.016c -0.176 0 -0.4 0.008 -0.48 0.016c -0.064 -0.144 -0.136 -0.312 -0.208 -0.448Z "/></symbol><symbol id="gDFD38EC9906BA626C5B7E69A103C103" overflow="visible"><path d="M 0 0m 0.272 2.056c 0 -1.512 0.872 -2.136 1.648 -2.136c 1.096 0 1.728 0.816 1.728 1.824c 0 0.864 -0.48 1.768 -1.608 1.768c -0.76 0 -1.224 -0.448 -1.4 -0.832l -0.016 0.016c 0.032 0.416 0.16 0.928 0.28 1.136c 0.256 0.44 0.56 0.464 1.296 0.544c 0.72 0.08 1.232 0.312 1.304 1.208c -0.056 0.024 -0.112 0.032 -0.176 0c -0.064 -0.384 -0.488 -0.488 -1.16 -0.592c -0.648 -0.104 -1.192 -0.328 -1.528 -0.96c -0.288 -0.544 -0.368 -1.216 -0.368 -1.976Z m 0.688 -0.208c 0 0.448 0.16 1.384 0.992 1.384c 0.624 0 1.008 -0.72 1.008 -1.68c 0 -1.008 -0.464 -1.352 -0.896 -1.352c -0.584 0 -1.104 0.76 -1.104 1.648Z "/></symbol><symbol id="gFF63DA2595F1651AF0C535BF803D9AEC" overflow="visible"><path d="M 0 0m 3.344 0.976v 1.48c 0 0.656 0.104 0.696 0.544 0.728c 0.048 0.048 0.048 0.216 0 0.264c -0.24 -0.008 -0.544 -0.016 -0.864 -0.016h -1.512c -0.264 0 -0.576 0.008 -0.816 0.016c -0.048 -0.048 -0.048 -0.216 0 -0.264c 0.568 -0.04 0.648 -0.088 0.648 -0.952c 0 -0.84 -0.064 -1.28 -0.176 -1.608c -0.104 -0.288 -0.24 -0.392 -0.376 -0.392c -0.104 0 -0.136 0.064 -0.152 0.168c -0.024 0.152 -0.072 0.304 -0.296 0.304c -0.2 0 -0.312 -0.16 -0.312 -0.336c 0 -0.248 0.224 -0.464 0.592 -0.464c 0.408 0 0.632 0.208 0.816 0.64c 0.16 0.384 0.208 1.2 0.208 1.744c 0 0.624 0.024 0.832 0.344 0.832h 0.36c 0.304 0 0.36 -0.192 0.36 -0.464v -1.68c 0 -0.656 -0.08 -0.696 -0.496 -0.728c -0.04 -0.048 -0.04 -0.216 0 -0.264c 0.2 0.008 0.496 0.016 0.816 0.016c 0.32 0 0.68 -0.008 0.904 -0.016c 0.04 0.048 0.04 0.216 0 0.264c -0.52 0.032 -0.592 0.072 -0.592 0.728Z "/></symbol><symbol id="gE09E60C0AC8E2E10ADA02C2F49261352" overflow="visible"><path d="M 0 0m 1.456 0.976c 0 -0.664 -0.088 -0.704 -0.576 -0.728c -0.048 -0.048 -0.048 -0.216 0 -0.264c 0.312 0.008 0.632 0.016 0.896 0.016c 0.272 0 0.584 -0.008 0.888 -0.016c 0.048 0.048 0.048 0.216 0 0.264c -0.488 0.024 -0.576 0.064 -0.576 0.728v 2.16h 0.136c 0.648 0 0.776 -0.224 0.912 -0.872c 0.104 0 0.208 0.032 0.208 0.032c -0.048 0.368 -0.08 0.72 -0.088 1.184c -0.184 -0.016 -0.784 -0.048 -1.184 -0.048h -0.6c -0.4 0 -0.848 0.024 -1.168 0.048c -0.008 -0.464 -0.04 -0.816 -0.096 -1.184c 0 0 0.112 -0.032 0.216 -0.032c 0.136 0.648 0.256 0.872 0.912 0.872h 0.12Z "/></symbol></defs></svg>