<svg viewBox="0 0 242.771653543 131.536503937" width="242.771653543pt" height="131.536503937pt" xmlns="http://www.w3.org/2000/svg" xmlns:xlink="http://www.w3.org/1999/xlink" xmlns:h5="http://www.w3.org/1999/xhtml"><path fill="#ffffff" fill-rule="nonzero" d="M 0 0v 131.536503937h 242.771653543v -131.536503937Z "/><g transform="translate(8 8)"><path fill="#beb9af" fill-rule="nonzero" stroke="#1a1a18" stroke-width="0.6" stroke-linecap="butt" stroke-linejoin="miter" stroke-miterlimit="4" transform="translate(0 25.511811024)" d="M 0 0h 45.354330709l 28.346456693 59.527559055l 39.68503937 8.503937008l 39.68503937 -8.503937008l 28.346456693 -59.527559055h 45.354330709v 73.700787402h -226.771653543v -73.700787402Z "/><path fill="none" transform="translate(17.385165354 62.431850394)" d="M 0 0h 10.584v 5.53h -10.584v -5.53Z "/><g transform="translate(17.385165213 62.431850268)"><g transform="matrix(1 0 0 -1 0 4.606)"><use xlink:href="#g9101E419D17DDAF231BCFFDA4211E57E" x="0" y="0" fill="#7c7f6a" fill-rule="nonzero"/><use xlink:href="#gD34A3E049BF2FF9B7AD4C5D02F5C0463" x="3.689" y="0" fill="#7c7f6a" fill-rule="nonzero"/><use xlink:href="#g6B8BE86D37739F78FECBED7D701020C1" x="6.818" y="0" fill="#7c7f6a" fill-rule="nonzero"/></g></g><path fill="none" transform="translate(198.802488189 62.431850394)" d="M 0 0h 10.584v 5.53h -10.584v -5.53Z "/><g transform="translate(198.802488047 62.431850268)"><g transform="matrix(1 0 0 -1 0 4.606)"><use xlink:href="#g9101E419D17DDAF231BCFFDA4211E57E" x="0" y="0" fill="#7c7f6a" fill-rule="nonzero"/><use xlink:href="#gD34A3E049BF2FF9B7AD4C5D02F5C0463" x="3.689" y="0" fill="#7c7f6a" fill-rule="nonzero"/><use xlink:href="#g6B8BE86D37739F78FECBED7D701020C1" x="6.818" y="0" fill="#7c7f6a" fill-rule="nonzero"/></g></g><path fill="none" transform="translate(28.723748031 79.439724409)" d="M 0 0h 10.584v 5.53h -10.584v -5.53Z "/><g transform="translate(28.72374789 79.439724283)"><g transform="matrix(1 0 0 -1 0 4.606)"><use xlink:href="#g9101E419D17DDAF231BCFFDA4211E57E" x="0" y="0" fill="#7c7f6a" fill-rule="nonzero"/><use xlink:href="#gD34A3E049BF2FF9B7AD4C5D02F5C0463" x="3.689" y="0" fill="#7c7f6a" fill-rule="nonzero"/><use xlink:href="#g6B8BE86D37739F78FECBED7D701020C1" x="6.818" y="0" fill="#7c7f6a" fill-rule="nonzero"/></g></g><path fill="none" transform="translate(187.463905512 79.439724409)" d="M 0 0h 10.584v 5.53h -10.584v -5.53Z "/><g transform="translate(187.46390537 79.439724283)"><g transform="matrix(1 0 0 -1 0 4.606)"><use xlink:href="#g9101E419D17DDAF231BCFFDA4211E57E" x="0" y="0" fill="#7c7f6a" fill-rule="nonzero"/><use xlink:href="#gD34A3E049BF2FF9B7AD4C5D02F5C0463" x="3.689" y="0" fill="#7c7f6a" fill-rule="nonzero"/><use xlink:href="#g6B8BE86D37739F78FECBED7D701020C1" x="6.818" y="0" fill="#7c7f6a" fill-rule="nonzero"/></g></g><path fill="none" transform="translate(100.329826772 50.067267717)" d="M 0 0h 26.112v 7.582h -26.112v -7.582Z "/><g transform="translate(100.329826677 50.067267591)"><g transform="matrix(1 0 0 -1 0 5.593)"><use xlink:href="#gBEE50160BCD570B38DEF46393A725EED" x="0" y="0" fill="#1a1a18" fill-rule="nonzero"/><use xlink:href="#g430571653545A60A3EF6386D136EADA3" x="4.981" y="0" fill="#1a1a18" fill-rule="nonzero"/><use xlink:href="#gE34E15A46C94CBC2E6ABE8844A1DDB21" x="9.3925" y="0" fill="#1a1a18" fill-rule="nonzero"/><use xlink:href="#g3D9A67B9902CBFFCF1182D85B33DBA41" x="13.6765" y="0" fill="#1a1a18" fill-rule="nonzero"/><use xlink:href="#gF931FC691828778A920607CF18B9C32A" x="17.748" y="0" fill="#1a1a18" fill-rule="nonzero"/><use xlink:href="#gB3F6F741CFF64E2F87AE274E4C795DAE" x="21.6325" y="0" fill="#1a1a18" fill-rule="nonzero"/></g></g><path fill="#c9a24b" fill-rule="nonzero" transform="translate(107.716535433)" d="M 0 0m 5.669291339 0c -3.128224252 0 -5.669291339 2.541067087 -5.669291339 5.669291339c 0 3.128224252 2.541067087 5.669291339 5.669291339 5.669291339c 3.128224252 0 5.669291339 -2.541067087 5.669291339 -5.669291339c 0 -3.128224252 -2.541067087 -5.669291339 -5.669291339 -5.669291339Z "/><path fill="none" stroke="#c9a24b" stroke-width="0.8" stroke-linecap="butt" stroke-linejoin="miter" stroke-miterlimit="4" transform="translate(86.690671902 14.173228346)" d="M 0 0m 12.521926523 0l -12.521926523 50.087706092"/><path fill="#c9a24b" fill-rule="nonzero" stroke="#c9a24b" stroke-width="0.8" stroke-linecap="butt" stroke-linejoin="miter" stroke-miterlimit="4" transform="translate(84.628164146 63.745307369)" d="M 0 0m 0.687502531 6.015647402l -0.687502531 -6.015647402l 4.125015354 1.03125386l -3.437512824 4.984393543Z "/><path fill="none" stroke="#c9a24b" stroke-width="0.8" stroke-linecap="butt" stroke-linejoin="miter" stroke-miterlimit="4" transform="translate(127.559055118 14.173228346)" d="M 0 0l 12.521926523 50.087706092"/><path fill="#c9a24b" fill-rule="nonzero" stroke="#c9a24b" stroke-width="0.8" stroke-linecap="butt" stroke-linejoin="miter" stroke-miterlimit="4" transform="translate(138.018474043 63.745307369)" d="M 0 0m 3.437512824 6.015647402l -3.437512824 -4.984393543l 4.125015354 -1.03125386l -0.687502531 6.015647402Z "/><path fill="none" transform="translate(9.345826772 108.400503937)" d="M 0 0h 208.08v 7.136h -208.08v -7.136Z "/><g transform="translate(9.34582663 108.400503827)"><g transform="matrix(1 0 0 -1 0 5.264)"><use xlink:href="#gDFD38EC9906BA626C5B7E69A103C103" x="0" y="0" fill="#7c7f6a" fill-rule="nonzero"/><use xlink:href="#g5D01DA3AB390CB78D7E54204B7DC3F87" x="3.912" y="0" fill="#7c7f6a" fill-rule="nonzero"/><use xlink:href="#gFF63DA2595F1651AF0C535BF803D9AEC" x="7.944" y="0" fill="#7c7f6a" fill-rule="nonzero"/><use xlink:href="#gC175399424EF2D6961EAC52DB2845054" x="12.16" y="0" fill="#7c7f6a" fill-rule="nonzero"/><use xlink:href="#g7FEC4917393F0C2A72D87F7F150D50F" x="15.88" y="0" fill="#7c7f6a" fill-rule="nonzero"/><use xlink:href="#g465CA45D0696F5BBCE5E7A11B5E63D98" x="22.672" y="0" fill="#7c7f6a" fill-rule="nonzero"/><use xlink:href="#g5D01DA3AB390CB78D7E54204B7DC3F87" x="28.248" y="0" fill="#7c7f6a" fill-rule="nonzero"/><use xlink:href="#gE09E60C0AC8E2E10ADA02C2F49261352" x="32.28" y="0" fill="#7c7f6a" fill-rule="nonzero"/><use xlink:href="#gE09E60C0AC8E2E10ADA02C2F49261352" x="35.84" y="0" fill="#7c7f6a" fill-rule="nonzero"/><use xlink:href="#gF79D9CC171E1ACC5162F855F1894F43E" x="39.4" y="0" fill="#7c7f6a" fill-rule="nonzero"/><use xlink:href="#g3582D8D1264CABFCC073F09D45268688" x="43.056" y="0" fill="#7c7f6a" fill-rule="nonzero"/><use xlink:href="#gFF63DA2595F1651AF0C535BF803D9AEC" x="46.904" y="0" fill="#7c7f6a" fill-rule="nonzero"/><use xlink:href="#g5D01DA3AB390CB78D7E54204B7DC3F87" x="51.12" y="0" fill="#7c7f6a" fill-rule="nonzero"/><use xlink:href="#g1A5B9B9C6A1E104984939B3BB3886026" x="57.152" y="0" fill="#7c7f6a" fill-rule="nonzero"/><use xlink:href="#gDFD38EC9906BA626C5B7E69A103C103" x="68.192" y="0" fill="#7c7f6a" fill-rule="nonzero"/><use xlink:href="#g5D01DA3AB390CB78D7E54204B7DC3F87" x="72.104" y="0" fill="#7c7f6a" fill-rule="nonzero"/><use xlink:href="#gFF63DA2595F1651AF0C535BF803D9AEC" x="76.136" y="0" fill="#7c7f6a" fill-rule="nonzero"/><use xlink:href="#gC175399424EF2D6961EAC52DB2845054" x="80.352" y="0" fill="#7c7f6a" fill-rule="nonzero"/><use xlink:href="#g7FEC4917393F0C2A72D87F7F150D50F" x="84.072" y="0" fill="#7c7f6a" fill-rule="nonzero"/><use xlink:href="#g465CA45D0696F5BBCE5E7A11B5E63D98" x="90.864" y="0" fill="#7c7f6a" fill-rule="nonzero"/><use xlink:href="#gF859B786D36C3A3EB6E93A57BC4F802" x="96.44" y="0" fill="#7c7f6a" fill-rule="nonzero"/><use xlink:href="#g5D01DA3AB390CB78D7E54204B7DC3F87" x="101.128" y="0" fill="#7c7f6a" fill-rule="nonzero"/><use xlink:href="#gE9BB349F7E32C39203BC6B218DF12838" x="105.16" y="0" fill="#7c7f6a" fill-rule="nonzero"/><use xlink:href="#g465CA45D0696F5BBCE5E7A11B5E63D98" x="108.992" y="0" fill="#7c7f6a" fill-rule="nonzero"/><use xlink:href="#g46DFAA35BC521B4F2378CE697B4B163E" x="112.568" y="0" fill="#7c7f6a" fill-rule="nonzero"/><use xlink:href="#gEF1CB7DB7883465AAAE49B6975EF9AB9" x="116.72" y="0" fill="#7c7f6a" fill-rule="nonzero"/><use xlink:href="#g937124D7F3D66536776BB8DA5DFD7893" x="120.64" y="0" fill="#7c7f6a" fill-rule="nonzero"/><use xlink:href="#g5D01DA3AB390CB78D7E54204B7DC3F87" x="125.328" y="0" fill="#7c7f6a" fill-rule="nonzero"/><use xlink:href="#g9F99202881449AD6C0CCCD21824C9AF1" x="129.36" y="0" fill="#7c7f6a" fill-rule="nonzero"/><use xlink:href="#gE09E60C0AC8E2E10ADA02C2F49261352" x="132.784" y="0" fill="#7c7f6a" fill-rule="nonzero"/><use xlink:href="#gDF0740817C60D01D4C0A2F901DD857A7" x="136.344" y="0" fill="#7c7f6a" fill-rule="nonzero"/><use xlink:href="#g1A5B9B9C6A1E104984939B3BB3886026" x="143.032" y="0" fill="#7c7f6a" fill-rule="nonzero"/><use xlink:href="#gDFD38EC9906BA626C5B7E69A103C103" x="154.072" y="0" fill="#7c7f6a" fill-rule="nonzero"/><use xlink:href="#gADB3B27726748394AAF96F33FED6E9BE" x="157.984" y="0" fill="#7c7f6a" fill-rule="nonzero"/><use xlink:href="#g9F99202881449AD6C0CCCD21824C9AF1" x="163.776" y="0" fill="#7c7f6a" fill-rule="nonzero"/><use xlink:href="#gE09E60C0AC8E2E10ADA02C2F49261352" x="167.2" y="0" fill="#7c7f6a" fill-rule="nonzero"/><use xlink:href="#g46DFAA35BC521B4F2378CE697B4B163E" x="170.76" y="0" fill="#7c7f6a" fill-rule="nonzero"/><use xlink:href="#g465CA45D0696F5BBCE5E7A11B5E63D98" x="174.912" y="0" fill="#7c7f6a" fill-rule="nonzero"/><use xlink:href="#g465CA45D0696F5BBCE5E7A11B5E63D98" x="178.488" y="0" fill="#7c7f6a" fill-rule="nonzero"/><use xlink:href="#gE09E60C0AC8E2E10ADA02C2F49261352" x="184.064" y="0" fill="#7c7f6a" fill-rule="nonzero"/><use xlink:href="#gF79D9CC171E1ACC5162F855F1894F43E" x="187.624" y="0" fill="#7c7f6a" fill-rule="nonzero"/><use xlink:href="#g3582D8D1264CABFCC073F09D45268688" x="191.28" y="0" fill="#7c7f6a" fill-rule="nonzero"/><use xlink:href="#g937124D7F3D66536776BB8DA5DFD7893" x="195.128" y="0" fill="#7c7f6a" fill-rule="nonzero"/><use xlink:href="#gDF0740817C60D01D4C0A2F901DD857A7" x="199.816" y="0" fill="#7c7f6a" fill-rule="nonzero"/><use xlink:href="#g465CA45D0696F5BBCE5E7A11B5E63D98" x="204.504" y="0" fill="#7c7f6a" fill-rule="nonzero"/></g></g></g><defs><symbol id="g9101E419D17DDAF231BCFFDA4211E57E" overflow="visible"><path d="M 0 0m 2.926 0.854v 1.295c 0 0.574 0.091 0.609 0.476 0.637c 0.042 0.042 0.042 0.189 0 0.231c -0.21 -0.007 -0.476 -0.014 -0.756 -0.014h -1.323c -0.231 0 -0.504 0.007 -0.714 0.014c -0.042 -0.042 -0.042 -0.189 0 -0.231c 0.497 -0.035 0.567 -0.077 0.567 -0.833c 0 -0.735 -0.056 -1.12 -0.154 -1.407c -0.091 -0.252 -0.21 -0.343 -0.329 -0.343c -0.091 0 -0.119 0.056 -0.133 0.147c -0.021 0.133 -0.063 0.266 -0.259 0.266c -0.175 0 -0.273 -0.14 -0.273 -0.294c 0 -0.217 0.196 -0.406 0.518 -0.406c 0.357 0 0.553 0.182 0.714 0.56c 0.14 0.336 0.182 1.05 0.182 1.526c 0 0.546 0.021 0.728 0.301 0.728h 0.315c 0.266 0 0.315 -0.168 0.315 -0.406v -1.47c 0 -0.574 -0.07 -0.609 -0.434 -0.637c -0.035 -0.042 -0.035 -0.189 0 -0.231c 0.175 0.007 0.434 0.014 0.714 0.014c 0.28 0 0.595 -0.007 0.791 -0.014c 0.035 0.042 0.035 0.189 0 0.231c -0.455 0.028 -0.518 0.063 -0.518 0.637Z "/></symbol><symbol id="gD34A3E049BF2FF9B7AD4C5D02F5C0463" overflow="visible"><path d="M 0 0m 2.702 0.651c -0.259 -0.266 -0.462 -0.378 -0.868 -0.378c -0.252 0 -0.546 0.147 -0.763 0.504c -0.14 0.231 -0.224 0.553 -0.224 0.959l 1.862 -0.014c 0.084 0 0.133 0.042 0.133 0.119c 0 0.588 -0.21 1.218 -1.183 1.218c -0.609 0 -1.4 -0.581 -1.4 -1.645c 0 -0.392 0.098 -0.77 0.329 -1.036c 0.238 -0.28 0.567 -0.448 1.071 -0.448c 0.532 0 0.91 0.245 1.19 0.609c -0.021 0.07 -0.063 0.105 -0.147 0.112Z m -1.834 1.323c 0.133 0.791 0.623 0.854 0.791 0.854c 0.266 0 0.581 -0.147 0.581 -0.735c 0 -0.063 -0.028 -0.098 -0.105 -0.098Z m -0.175 2.051c 0 -0.182 0.147 -0.329 0.329 -0.329c 0.182 0 0.329 0.147 0.329 0.329c 0 0.182 -0.147 0.336 -0.329 0.336c -0.182 0 -0.329 -0.154 -0.329 -0.336Z m 1.183 0c 0 -0.182 0.147 -0.329 0.329 -0.329c 0.182 0 0.329 0.147 0.329 0.329c 0 0.182 -0.147 0.336 -0.329 0.336c -0.182 0 -0.329 -0.154 -0.329 -0.336Z "/></symbol><symbol id="g6B8BE86D37739F78FECBED7D701020C1" overflow="visible"><path d="M 0 0m 1.323 3.003c -0.231 0 -0.504 0.007 -0.714 0.014c -0.042 -0.042 -0.042 -0.189 0 -0.231c 0.427 -0.035 0.553 -0.063 0.525 -0.644c -0.028 -0.644 -0.14 -1.162 -0.259 -1.652c -0.042 -0.189 -0.245 -0.252 -0.441 -0.273c -0.105 -0.014 -0.203 -0.056 -0.21 -0.182l -0.042 -0.931c 0.049 -0.021 0.105 -0.028 0.189 -0.007c 0.063 0.259 0.252 0.903 0.882 0.903h 1.211c 0.623 0 0.826 -0.63 0.889 -0.91c 0.063 -0.014 0.126 -0.014 0.196 0.014l -0.042 0.938c 0 0.098 -0.056 0.154 -0.189 0.175c -0.126 0.021 -0.301 0.07 -0.301 0.329v 1.603c 0 0.574 0.091 0.609 0.476 0.637c 0.042 0.042 0.042 0.189 0 0.231c -0.21 -0.007 -0.476 -0.014 -0.756 -0.014Z m -0.196 -2.646c 0 0.119 0.189 0.581 0.294 2.184c 0.007 0.105 0.056 0.196 0.245 0.196h 0.483c 0.28 0 0.315 -0.196 0.315 -0.434v -1.687c 0 -0.231 -0.014 -0.343 -0.294 -0.343h -0.903c -0.077 0 -0.14 0.007 -0.14 0.084Z "/></symbol><symbol id="gBEE50160BCD570B38DEF46393A725EED" overflow="visible"><path d="M 0 0m 3.7145 3.6465h -2.414c -0.34 0 -0.663 0.0085 -0.918 0.017c -0.051 -0.051 -0.051 -0.2295 0 -0.2805c 0.4675 -0.034 0.578 -0.0765 0.578 -0.7735v -1.5725c 0 -0.697 -0.1105 -0.7395 -0.663 -0.7735c -0.051 -0.051 -0.051 -0.2295 0 -0.2805c 0.255 0.0085 0.663 0.017 1.003 0.017c 0.34 0 0.595 -0.0085 0.85 -0.017c 0.051 0.051 0.051 0.2295 0 0.2805c -0.4335 0.0425 -0.5185 0.0765 -0.5185 0.7735v 1.8445c 0 0.2635 0.0255 0.4335 0.357 0.4335h 1.0285c 0.3145 0 0.3655 -0.0935 0.3655 -0.4335v -1.8445c 0 -0.697 -0.085 -0.7395 -0.527 -0.7735c -0.0425 -0.051 -0.0425 -0.2295 0 -0.2805c 0.2125 0.0085 0.527 0.017 0.867 0.017c 0.34 0 0.7225 -0.0085 0.9605 -0.017c 0.0425 0.051 0.0425 0.2295 0 0.2805c -0.5525 0.034 -0.629 0.0765 -0.629 0.7735v 1.5725c 0 0.697 0.1105 0.7395 0.578 0.7735c 0.051 0.051 0.051 0.2295 0 0.2805c -0.255 -0.0085 -0.578 -0.017 -0.918 -0.017Z "/></symbol><symbol id="g430571653545A60A3EF6386D136EADA3" overflow="visible"><path d="M 0 0m 1.326 3.128c -0.0085 0.255 -0.0255 0.476 -0.068 0.561c -0.017 0.0425 -0.034 0.068 -0.102 0.068c -0.238 -0.0935 -0.459 -0.17 -1.0455 -0.2465c -0.017 -0.051 0 -0.187 0.017 -0.238c 0.459 -0.0425 0.5525 -0.085 0.5525 -0.578v -3.6295c 0 -0.7055 -0.0935 -0.748 -0.612 -0.7735c -0.051 -0.051 -0.051 -0.2295 0 -0.2805c 0.2975 0.0085 0.612 0.017 0.952 0.017c 0.34 0 0.748 -0.0085 1.0285 -0.017c 0.051 0.051 0.051 0.2295 0 0.2805c -0.6035 0.034 -0.697 0.068 -0.697 0.7735v 0.918c 0 0.1105 0.034 0.102 0.119 0.068c 0.2125 -0.085 0.4675 -0.136 0.7395 -0.136c 0.476 0 0.901 0.1445 1.2495 0.476c 0.3995 0.391 0.629 0.918 0.629 1.6065c 0 0.901 -0.6375 1.734 -1.5045 1.734c -0.391 0 -0.8245 -0.255 -1.1645 -0.6375c -0.051 -0.051 -0.085 -0.051 -0.0935 0.034Z m 0.1615 -0.3145c 0.221 0.272 0.612 0.527 0.8585 0.527c 0.544 0 1.0115 -0.612 1.0115 -1.5725c 0 -0.697 -0.2465 -1.564 -1.1985 -1.564c -0.153 0 -0.4505 0.0425 -0.6035 0.1785c -0.17 0.153 -0.204 0.204 -0.204 0.51v 1.547c 0 0.1785 0.034 0.255 0.136 0.374Z "/></symbol><symbol id="gE34E15A46C94CBC2E6ABE8844A1DDB21" overflow="visible"><path d="M 0 0m 0.3485 1.7425c 0 -0.867 0.578 -1.8275 1.785 -1.8275c 0.544 0 0.9605 0.1955 1.2495 0.476c 0.3825 0.374 0.5525 0.9095 0.5525 1.428c 0 0.884 -0.4845 1.9125 -1.785 1.9125c -0.561 0 -1.02 -0.2295 -1.3345 -0.595c -0.306 -0.3655 -0.4675 -0.8585 -0.4675 -1.394Z m 1.6745 1.6915c 0.731 0 1.1815 -0.663 1.1815 -1.887c 0 -1.071 -0.5525 -1.3345 -0.952 -1.3345c -0.884 0 -1.173 1.071 -1.173 1.7255c 0 0.7395 0.1785 1.496 0.9435 1.496Z "/></symbol><symbol id="g3D9A67B9902CBFFCF1182D85B33DBA41" overflow="visible"><path d="M 0 0m 1.241 3.6465c -0.3655 0 -0.663 0.0085 -0.9435 0.017c -0.051 -0.051 -0.051 -0.2295 0 -0.2805c 0.5185 -0.034 0.612 -0.068 0.612 -0.7735v -1.5725c 0 -0.7055 -0.0935 -0.731 -0.612 -0.7735c -0.051 -0.051 -0.051 -0.2295 0 -0.2805c 0.2805 0.0085 0.578 0.017 0.952 0.017c 0.3145 0 0.595 -0.017 1.1645 -0.017c 0.731 0 1.2835 0.204 1.2835 1.0455c 0 0.476 -0.2975 0.8075 -0.816 0.901v 0.0255c 0.391 0.0765 0.6885 0.3485 0.6885 0.8585c 0 0.595 -0.3655 0.85 -1.394 0.85c -0.3485 0 -0.5695 -0.017 -0.935 -0.017Z m 0.34 -1.802h 0.646c 0.5185 0 0.7395 -0.34 0.7395 -0.85c 0 -0.5695 -0.323 -0.731 -0.782 -0.731c -0.442 0 -0.6035 0.0765 -0.6035 0.4675Z m 0 0.2465v 0.986c 0 0.255 0.1955 0.306 0.6035 0.306c 0.442 0 0.7055 -0.119 0.7055 -0.629c 0 -0.34 -0.221 -0.663 -0.748 -0.663Z "/></symbol><symbol id="gF931FC691828778A920607CF18B9C32A" overflow="visible"><path d="M 0 0m 2.4905 0.408c 0.051 -0.2635 0.1445 -0.493 0.5695 -0.493c 0.323 0 0.629 0.1445 0.8075 0.3145c -0.017 0.102 -0.051 0.1785 -0.1445 0.2295c -0.0595 -0.051 -0.204 -0.136 -0.3145 -0.136c -0.2465 0 -0.255 0.3315 -0.255 0.7225v 1.2495c 0 1.207 -0.663 1.4365 -1.2835 1.4365c -0.697 0 -1.4025 -0.459 -1.4025 -0.9435c 0 -0.204 0.102 -0.306 0.2975 -0.306c 0.2465 0 0.3995 0.1785 0.3995 0.289c 0 0.0595 -0.0085 0.119 -0.0255 0.153c -0.0085 0.0255 -0.017 0.0765 -0.017 0.17c 0 0.2635 0.357 0.357 0.68 0.357c 0.289 0 0.6885 -0.1445 0.6885 -1.105c 0 -0.0595 -0.0255 -0.0935 -0.051 -0.102l -0.731 -0.1785c -0.816 -0.204 -1.4025 -0.6545 -1.4025 -1.2325c 0 -0.697 0.476 -0.918 1.071 -0.918c 0.2975 0 0.5525 0.068 0.9265 0.357l 0.17 0.136Z m 0 1.5725v -1.122c 0 -0.1105 -0.051 -0.17 -0.119 -0.221c -0.221 -0.1785 -0.51 -0.374 -0.748 -0.374c -0.425 0 -0.612 0.34 -0.612 0.6035c 0 0.3825 0.1785 0.7735 0.8075 0.935Z "/></symbol><symbol id="gB3F6F741CFF64E2F87AE274E4C795DAE" overflow="visible"><path d="M 0 0m 3.553 1.037v 1.5725c 0 0.697 0.1105 0.7395 0.578 0.7735c 0.051 0.051 0.051 0.2295 0 0.2805c -0.255 -0.0085 -0.578 -0.017 -0.918 -0.017h -1.6065c -0.2805 0 -0.612 0.0085 -0.867 0.017c -0.051 -0.051 -0.051 -0.2295 0 -0.2805c 0.6035 -0.0425 0.6885 -0.0935 0.6885 -1.0115c 0 -0.8925 -0.068 -1.36 -0.187 -1.7085c -0.1105 -0.306 -0.255 -0.4165 -0.3995 -0.4165c -0.1105 0 -0.1445 0.068 -0.1615 0.1785c -0.0255 0.1615 -0.0765 0.323 -0.3145 0.323c -0.2125 0 -0.3315 -0.17 -0.3315 -0.357c 0 -0.2635 0.238 -0.493 0.629 -0.493c 0.4335 0 0.6715 0.221 0.867 0.68c 0.17 0.408 0.221 1.275 0.221 1.853c 0 0.663 0.0255 0.884 0.3655 0.884h 0.3825c 0.323 0 0.3825 -0.204 0.3825 -0.493v -1.785c 0 -0.697 -0.085 -0.7395 -0.527 -0.7735c -0.0425 -0.051 -0.0425 -0.2295 0 -0.2805c 0.2125 0.0085 0.527 0.017 0.867 0.017c 0.34 0 0.7225 -0.0085 0.9605 -0.017c 0.0425 0.051 0.0425 0.2295 0 0.2805c -0.5525 0.034 -0.629 0.0765 -0.629 0.7735Z "/></symbol><symbol id="gDFD38EC9906BA626C5B7E69A103C103" overflow="visible"><path d="M 0 0m 0.272 2.056c 0 -1.512 0.872 -2.136 1.648 -2.136c 1.096 0 1.728 0.816 1.728 1.824c 0 0.864 -0.48 1.768 -1.608 1.768c -0.76 0 -1.224 -0.448 -1.4 -0.832l -0.016 0.016c 0.032 0.416 0.16 0.928 0.28 1.136c 0.256 0.44 0.56 0.464 1.296 0.544c 0.72 0.08 1.232 0.312 1.304 1.208c -0.056 0.024 -0.112 0.032 -0.176 0c -0.064 -0.384 -0.488 -0.488 -1.16 -0.592c -0.648 -0.104 -1.192 -0.328 -1.528 -0.96c -0.288 -0.544 -0.368 -1.216 -0.368 -1.976Z m 0.688 -0.208c 0 0.448 0.16 1.384 0.992 1.384c 0.624 0 1.008 -0.72 1.008 -1.68c 0 -1.008 -0.464 -1.352 -0.896 -1.352c -0.584 0 -1.104 0.76 -1.104 1.648Z "/></symbol><symbol id="g5D01DA3AB390CB78D7E54204B7DC3F87" overflow="visible"><path d="M 0 0m 0.328 1.64c 0 -0.816 0.544 -1.72 1.68 -1.72c 0.512 0 0.904 0.184 1.176 0.448c 0.36 0.352 0.52 0.856 0.52 1.344c 0 0.832 -0.456 1.8 -1.68 1.8c -0.528 0 -0.96 -0.216 -1.256 -0.56c -0.288 -0.344 -0.44 -0.808 -0.44 -1.312Z m 1.576 1.592c 0.688 0 1.112 -0.624 1.112 -1.776c 0 -1.008 -0.52 -1.256 -0.896 -1.256c -0.832 0 -1.104 1.008 -1.104 1.624c 0 0.696 0.168 1.408 0.888 1.408Z "/></symbol><symbol id="gFF63DA2595F1651AF0C535BF803D9AEC" overflow="visible"><path d="M 0 0m 3.344 0.976v 1.48c 0 0.656 0.104 0.696 0.544 0.728c 0.048 0.048 0.048 0.216 0 0.264c -0.24 -0.008 -0.544 -0.016 -0.864 -0.016h -1.512c -0.264 0 -0.576 0.008 -0.816 0.016c -0.048 -0.048 -0.048 -0.216 0 -0.264c 0.568 -0.04 0.648 -0.088 0.648 -0.952c 0 -0.84 -0.064 -1.28 -0.176 -1.608c -0.104 -0.288 -0.24 -0.392 -0.376 -0.392c -0.104 0 -0.136 0.064 -0.152 0.168c -0.024 0.152 -0.072 0.304 -0.296 0.304c -0.2 0 -0.312 -0.16 -0.312 -0.336c 0 -0.248 0.224 -0.464 0.592 -0.464c 0.408 0 0.632 0.208 0.816 0.64c 0.16 0.384 0.208 1.2 0.208 1.744c 0 0.624 0.024 0.832 0.344 0.832h 0.36c 0.304 0 0.36 -0.192 0.36 -0.464v -1.68c 0 -0.656 -0.08 -0.696 -0.496 -0.728c -0.04 -0.048 -0.04 -0.216 0 -0.264c 0.2 0.008 0.496 0.016 0.816 0.016c 0.32 0 0.68 -0.008 0.904 -0.016c 0.04 0.048 0.04 0.216 0 0.264c -0.52 0.032 -0.592 0.072 -0.592 0.728Z "/></symbol><symbol id="gC175399424EF2D6961EAC52DB2845054" overflow="visible"><path d="M 0 0m 1.488 2.448c 0 0.672 0.088 0.696 0.576 0.736c 0.048 0.048 0.048 0.216 0 0.264c -0.272 -0.008 -0.544 -0.016 -0.896 -0.016c -0.344 0 -0.624 0.008 -0.888 0.016c -0.048 -0.048 -0.048 -0.216 0 -0.264c 0.488 -0.032 0.576 -0.064 0.576 -0.728v -1.48c 0 -0.664 -0.088 -0.688 -0.576 -0.728c -0.048 -0.048 -0.048 -0.216 0 -0.264c 0.264 0.008 0.544 0.016 0.896 0.016c 0.328 0 0.504 -0.016 0.832 -0.016c 0.984 0 1.52 0.248 1.52 1.104c 0 0.752 -0.656 0.968 -1.464 0.968h -0.576Z m 1.352 -1.44c 0 -0.656 -0.4 -0.76 -0.824 -0.76c -0.392 0 -0.528 0.08 -0.528 0.36v 1.184h 0.568c 0.6 0 0.784 -0.36 0.784 -0.784Z "/></symbol><symbol id="g7FEC4917393F0C2A72D87F7F150D50F" overflow="visible"><path d="M 0 0m 5.968 0.976v 1.48c 0 0.656 0.104 0.696 0.544 0.728c 0.048 0.048 0.048 0.216 0 0.264c -0.24 -0.008 -0.544 -0.016 -0.864 -0.016c -0.32 0 -0.56 0.008 -0.8 0.016c -0.048 -0.048 -0.048 -0.216 0 -0.264c 0.408 -0.04 0.488 -0.072 0.488 -0.728v -1.736c 0 -0.248 -0.024 -0.408 -0.336 -0.408h -0.944c -0.24 0 -0.344 0.072 -0.344 0.408v 1.736c 0.008 0.656 0.064 0.696 0.496 0.728c 0.04 0.048 0.04 0.216 0 0.264c -0.2 -0.008 -0.496 -0.016 -0.816 -0.016c -0.32 0 -0.584 0.008 -0.784 0.016c -0.04 -0.048 -0.04 -0.216 0 -0.264c 0.4 -0.032 0.48 -0.072 0.472 -0.728v -1.744c 0 -0.296 -0.04 -0.4 -0.336 -0.4h -0.912c -0.296 0 -0.344 0.088 -0.344 0.408v 1.736c 0 0.656 0.08 0.696 0.496 0.728c 0.04 0.048 0.04 0.216 0 0.264c -0.2 -0.008 -0.496 -0.016 -0.816 -0.016c -0.32 0 -0.6 0.008 -0.824 0.016c -0.04 -0.048 -0.04 -0.216 0 -0.264c 0.44 -0.032 0.512 -0.072 0.512 -0.728v -1.48c 0 -0.656 -0.104 -0.696 -0.544 -0.728c -0.048 -0.048 -0.048 -0.216 0 -0.264c 0.24 0.008 0.544 0.016 0.864 0.016h 4.472c 0.32 0 0.624 -0.008 0.864 -0.016c 0.048 0.048 0.048 0.216 0 0.264c -0.44 0.032 -0.544 0.072 -0.544 0.728Z "/></symbol><symbol id="g465CA45D0696F5BBCE5E7A11B5E63D98" overflow="visible"><path d="M 0 0m 3.088 0.744c -0.296 -0.304 -0.528 -0.432 -0.992 -0.432c -0.288 0 -0.624 0.168 -0.872 0.576c -0.16 0.264 -0.256 0.632 -0.256 1.096l 2.128 -0.016c 0.096 0 0.152 0.048 0.152 0.136c 0 0.672 -0.24 1.392 -1.352 1.392c -0.696 0 -1.6 -0.664 -1.6 -1.88c 0 -0.448 0.112 -0.88 0.376 -1.184c 0.272 -0.32 0.648 -0.512 1.224 -0.512c 0.608 0 1.04 0.28 1.36 0.696c -0.024 0.08 -0.072 0.12 -0.168 0.128Z m -2.096 1.512c 0.152 0.904 0.712 0.976 0.904 0.976c 0.304 0 0.664 -0.168 0.664 -0.84c 0 -0.072 -0.032 -0.112 -0.12 -0.112Z "/></symbol><symbol id="gE09E60C0AC8E2E10ADA02C2F49261352" overflow="visible"><path d="M 0 0m 1.456 0.976c 0 -0.664 -0.088 -0.704 -0.576 -0.728c -0.048 -0.048 -0.048 -0.216 0 -0.264c 0.312 0.008 0.632 0.016 0.896 0.016c 0.272 0 0.584 -0.008 0.888 -0.016c 0.048 0.048 0.048 0.216 0 0.264c -0.488 0.024 -0.576 0.064 -0.576 0.728v 2.16h 0.136c 0.648 0 0.776 -0.224 0.912 -0.872c 0.104 0 0.208 0.032 0.208 0.032c -0.048 0.368 -0.08 0.72 -0.088 1.184c -0.184 -0.016 -0.784 -0.048 -1.184 -0.048h -0.6c -0.4 0 -0.848 0.024 -1.168 0.048c -0.008 -0.464 -0.04 -0.816 -0.096 -1.184c 0 0 0.112 -0.032 0.216 -0.032c 0.136 0.648 0.256 0.872 0.912 0.872h 0.12Z "/></symbol><symbol id="gF79D9CC171E1ACC5162F855F1894F43E" overflow="visible"><path d="M 0 0m 2.344 0.384c 0.048 -0.248 0.136 -0.464 0.536 -0.464c 0.304 0 0.592 0.136 0.76 0.296c -0.016 0.096 -0.048 0.168 -0.136 0.216c -0.056 -0.048 -0.192 -0.128 -0.296 -0.128c -0.232 0 -0.24 0.312 -0.24 0.68v 1.176c 0 1.136 -0.624 1.352 -1.208 1.352c -0.656 0 -1.32 -0.432 -1.32 -0.888c 0 -0.192 0.096 -0.288 0.28 -0.288c 0.232 0 0.376 0.168 0.376 0.272c 0 0.056 -0.008 0.112 -0.024 0.144c -0.008 0.024 -0.016 0.072 -0.016 0.16c 0 0.248 0.336 0.336 0.64 0.336c 0.272 0 0.648 -0.136 0.648 -1.04c 0 -0.056 -0.024 -0.088 -0.048 -0.096l -0.688 -0.168c -0.768 -0.192 -1.32 -0.616 -1.32 -1.16c 0 -0.656 0.448 -0.864 1.008 -0.864c 0.28 0 0.52 0.064 0.872 0.336l 0.16 0.128Z m 0 1.48v -1.056c 0 -0.104 -0.048 -0.16 -0.112 -0.208c -0.208 -0.168 -0.48 -0.352 -0.704 -0.352c -0.4 0 -0.576 0.32 -0.576 0.568c 0 0.36 0.168 0.728 0.76 0.88Z "/></symbol><symbol id="g3582D8D1264CABFCC073F09D45268688" overflow="visible"><path d="M 0 0m 0.912 0c 0.224 0.008 0.304 0.216 0.4 0.504c 0.208 0.632 0.44 1.024 0.84 1.024h 0.208v -0.552c 0 -0.664 -0.088 -0.688 -0.576 -0.728c -0.048 -0.048 -0.048 -0.216 0 -0.264c 0.264 0.008 0.544 0.016 0.896 0.016c 0.344 0 0.632 -0.008 0.888 -0.016c 0.048 0.048 0.048 0.216 0 0.264c -0.488 0.032 -0.576 0.064 -0.576 0.728v 1.48c 0 0.664 0.088 0.688 0.576 0.728c 0.048 0.048 0.048 0.216 0 0.264c -0.272 -0.008 -0.544 -0.016 -0.896 -0.016c -0.272 0 -0.504 0.016 -0.704 0.016c -1.4 0 -1.52 -0.576 -1.52 -1.008c 0 -0.52 0.4 -0.784 0.992 -0.808c 0.024 0 0.024 -0.024 0.016 -0.032c -0.304 -0.088 -0.44 -0.256 -0.576 -0.552c -0.088 -0.184 -0.16 -0.36 -0.2 -0.464c -0.104 -0.272 -0.24 -0.32 -0.552 -0.336c -0.048 -0.048 -0.048 -0.216 0 -0.264c 0.16 0.008 0.784 0.016 0.784 0.016Z m 0.224 2.568c 0 0.376 0.12 0.616 0.768 0.616c 0.328 0 0.456 -0.144 0.456 -0.448v -0.936h -0.56c -0.48 0 -0.664 0.368 -0.664 0.768Z "/></symbol><symbol id="g1A5B9B9C6A1E104984939B3BB3886026" overflow="visible"><path d="M 0 0m 6.848 0.656c 0.688 0.776 1.336 1.224 1.728 1.36v 0.184c -0.864 0.352 -1.728 1.376 -1.728 1.384h -0.32c 0.312 -0.672 0.64 -1.04 0.904 -1.256h -6.96v -0.416h 6.96c -0.256 -0.248 -0.648 -0.68 -0.888 -1.256Z "/></symbol><symbol id="gF859B786D36C3A3EB6E93A57BC4F802" overflow="visible"><path d="M 0 0m 3.496 3.432h -2.272c -0.32 0 -0.624 0.008 -0.864 0.016c -0.048 -0.048 -0.048 -0.216 0 -0.264c 0.44 -0.032 0.544 -0.072 0.544 -0.728v -1.48c 0 -0.656 -0.104 -0.696 -0.624 -0.728c -0.048 -0.048 -0.048 -0.216 0 -0.264c 0.24 0.008 0.624 0.016 0.944 0.016c 0.32 0 0.56 -0.008 0.8 -0.016c 0.048 0.048 0.048 0.216 0 0.264c -0.408 0.04 -0.488 0.072 -0.488 0.728v 1.736c 0 0.248 0.024 0.408 0.336 0.408h 0.968c 0.296 0 0.344 -0.088 0.344 -0.408v -1.736c 0 -0.656 -0.08 -0.696 -0.496 -0.728c -0.04 -0.048 -0.04 -0.216 0 -0.264c 0.2 0.008 0.496 0.016 0.816 0.016c 0.32 0 0.68 -0.008 0.904 -0.016c 0.04 0.048 0.04 0.216 0 0.264c -0.52 0.032 -0.592 0.072 -0.592 0.728v 1.48c 0 0.656 0.104 0.696 0.544 0.728c 0.048 0.048 0.048 0.216 0 0.264c -0.24 -0.008 -0.544 -0.016 -0.864 -0.016Z "/></symbol><symbol id="gE9BB349F7E32C39203BC6B218DF12838" overflow="visible"><path d="M 0 0m 1.168 3.432c -0.344 0 -0.624 0.008 -0.888 0.016c -0.048 -0.048 -0.048 -0.216 0 -0.264c 0.488 -0.032 0.576 -0.064 0.576 -0.728v -1.48c 0 -0.664 -0.088 -0.688 -0.576 -0.728c -0.048 -0.048 -0.048 -0.216 0 -0.264c 0.264 0.008 0.544 0.016 0.896 0.016c 0.296 0 0.56 -0.016 1.096 -0.016c 0.688 0 1.208 0.192 1.208 0.984c 0 0.448 -0.28 0.76 -0.768 0.848v 0.024c 0.368 0.072 0.648 0.328 0.648 0.808c 0 0.56 -0.344 0.8 -1.312 0.8c -0.328 0 -0.536 -0.016 -0.88 -0.016Z m 0.32 -1.696h 0.608c 0.488 0 0.696 -0.32 0.696 -0.8c 0 -0.536 -0.304 -0.688 -0.736 -0.688c -0.416 0 -0.568 0.072 -0.568 0.44Z m 0 0.232v 0.928c 0 0.24 0.184 0.288 0.568 0.288c 0.416 0 0.664 -0.112 0.664 -0.592c 0 -0.32 -0.208 -0.624 -0.704 -0.624Z "/></symbol><symbol id="g46DFAA35BC521B4F2378CE697B4B163E" overflow="visible"><path d="M 0 0m 1.248 2.944c -0.008 0.24 -0.024 0.448 -0.064 0.528c -0.016 0.04 -0.032 0.064 -0.096 0.064c -0.224 -0.088 -0.432 -0.16 -0.984 -0.232c -0.016 -0.048 0 -0.176 0.016 -0.224c 0.432 -0.04 0.52 -0.08 0.52 -0.544v -3.416c 0 -0.664 -0.088 -0.704 -0.576 -0.728c -0.048 -0.048 -0.048 -0.216 0 -0.264c 0.28 0.008 0.576 0.016 0.896 0.016c 0.32 0 0.704 -0.008 0.968 -0.016c 0.048 0.048 0.048 0.216 0 0.264c -0.568 0.032 -0.656 0.064 -0.656 0.728v 0.864c 0 0.104 0.032 0.096 0.112 0.064c 0.2 -0.08 0.44 -0.128 0.696 -0.128c 0.448 0 0.848 0.136 1.176 0.448c 0.376 0.368 0.592 0.864 0.592 1.512c 0 0.848 -0.6 1.632 -1.416 1.632c -0.368 0 -0.776 -0.24 -1.096 -0.6c -0.048 -0.048 -0.08 -0.048 -0.088 0.032Z m 0.152 -0.296c 0.208 0.256 0.576 0.496 0.808 0.496c 0.512 0 0.952 -0.576 0.952 -1.48c 0 -0.656 -0.232 -1.472 -1.128 -1.472c -0.144 0 -0.424 0.04 -0.568 0.168c -0.16 0.144 -0.192 0.192 -0.192 0.48v 1.456c 0 0.168 0.032 0.24 0.128 0.352Z "/></symbol><symbol id="gEF1CB7DB7883465AAAE49B6975EF9AB9" overflow="visible"><path d="M 0 0m 1.456 2.864c -0.184 0.272 -0.128 0.28 0.232 0.32c 0.048 0.048 0.048 0.216 0 0.264c -0.216 -0.008 -0.568 -0.016 -0.808 -0.016c -0.24 0 -0.48 0.008 -0.688 0.016c -0.048 -0.048 -0.048 -0.216 0 -0.264c 0.272 -0.024 0.496 -0.16 0.72 -0.488l 0.696 -1.016c 0.04 -0.056 0.04 -0.08 0.008 -0.12l -0.672 -0.864c -0.32 -0.408 -0.496 -0.432 -0.776 -0.448c -0.048 -0.048 -0.048 -0.216 0 -0.264c 0.16 0.008 0.336 0.016 0.576 0.016c 0.24 0 0.464 -0.008 0.672 -0.016c 0.048 0.048 0.048 0.216 0 0.264c -0.288 0.032 -0.352 0.064 -0.176 0.32l 0.504 0.728c 0.064 0.096 0.096 0.088 0.144 0.016l 0.464 -0.64c 0.28 -0.384 0.152 -0.4 -0.104 -0.424c -0.048 -0.048 -0.048 -0.216 0 -0.264c 0.24 0.008 0.504 0.016 0.792 0.016c 0.304 0 0.52 -0.008 0.712 -0.016c 0.048 0.048 0.048 0.216 0 0.264c -0.36 0.024 -0.48 0.048 -0.8 0.504l -0.72 1.016c -0.032 0.048 -0.04 0.072 0 0.12l 0.672 0.856c 0.296 0.376 0.488 0.416 0.776 0.44c 0.048 0.048 0.048 0.216 0 0.264c -0.16 -0.008 -0.344 -0.016 -0.584 -0.016c -0.24 0 -0.464 0.008 -0.672 0.016c -0.048 -0.048 -0.048 -0.216 0 -0.264c 0.296 -0.032 0.384 -0.056 0.192 -0.328l -0.52 -0.728c -0.056 -0.08 -0.088 -0.072 -0.152 0.016Z "/></symbol><symbol id="g937124D7F3D66536776BB8DA5DFD7893" overflow="visible"><path d="M 0 0m 3.832 2.456c 0 0.664 0.088 0.688 0.576 0.728c 0.048 0.048 0.048 0.216 0 0.264c -0.28 -0.016 -0.632 -0.016 -0.896 -0.016c -0.224 0 -0.544 0.008 -0.856 0.016c -0.048 -0.048 -0.048 -0.216 0 -0.264c 0.488 -0.032 0.544 -0.064 0.544 -0.728v -0.52h -1.712v 0.52c 0 0.664 0.056 0.688 0.544 0.728c 0.048 0.048 0.048 0.216 0 0.264c -0.304 -0.008 -0.608 -0.016 -0.864 -0.016c -0.24 0 -0.568 0.008 -0.888 0.016c -0.048 -0.048 -0.048 -0.216 0 -0.264c 0.488 -0.032 0.576 -0.064 0.576 -0.728v -1.48c 0 -0.664 -0.088 -0.688 -0.576 -0.728c -0.048 -0.048 -0.048 -0.216 0 -0.264c 0.32 0.008 0.64 0.016 0.896 0.016c 0.256 0 0.568 -0.008 0.856 -0.016c 0.048 0.048 0.048 0.216 0 0.264c -0.488 0.032 -0.544 0.064 -0.544 0.728v 0.696h 1.712v -0.696c 0 -0.664 -0.056 -0.688 -0.544 -0.728c -0.048 -0.048 -0.048 -0.216 0 -0.264c 0.288 0.008 0.584 0.016 0.864 0.016c 0.24 0 0.576 -0.008 0.888 -0.016c 0.048 0.048 0.048 0.216 0 0.264c -0.488 0.032 -0.576 0.064 -0.576 0.728Z "/></symbol><symbol id="g9F99202881449AD6C0CCCD21824C9AF1" overflow="visible"><path d="M 0 0m 3.184 0.728c -0.032 0.072 -0.096 0.104 -0.168 0.112c -0.272 -0.352 -0.616 -0.528 -0.96 -0.528c -0.584 0 -1.072 0.592 -1.072 1.528c 0 0.88 0.384 1.408 0.912 1.408c 0.472 0 0.536 -0.28 0.568 -0.56c 0.024 -0.216 0.136 -0.288 0.304 -0.288c 0.168 0 0.392 0.104 0.392 0.352c 0 0.44 -0.456 0.76 -1.224 0.76c -0.792 0 -1.64 -0.712 -1.64 -1.848c 0 -1.032 0.576 -1.744 1.584 -1.744c 0.48 0 0.904 0.152 1.304 0.808Z "/></symbol><symbol id="gDF0740817C60D01D4C0A2F901DD857A7" overflow="visible"><path d="M 0 0m 1.584 0.504c -0.024 0 -0.056 0.016 -0.056 0.096v 1.824c 0 0.664 0.168 0.736 0.576 0.76c 0.048 0.048 0.048 0.216 0 0.264c -0.184 -0.008 -0.64 -0.016 -0.936 -0.016c -0.264 0 -0.584 0.008 -0.888 0.016c -0.048 -0.048 -0.048 -0.216 0 -0.264c 0.488 -0.024 0.616 -0.096 0.616 -0.76v -1.416c 0 -0.664 -0.128 -0.736 -0.616 -0.76c -0.048 -0.048 -0.048 -0.216 0 -0.264c 0.312 0.008 0.632 0.016 0.888 0.016c 0.184 0 0.4 -0.008 0.488 -0.016c 0.04 0.112 0.112 0.272 0.2 0.432l 1.248 2.504c 0.024 0 0.056 -0.016 0.056 -0.096v -1.816c 0 -0.664 -0.168 -0.736 -0.576 -0.76c -0.048 -0.048 -0.048 -0.216 0 -0.264c 0.184 0.008 0.616 0.016 0.936 0.016c 0.248 0 0.576 -0.008 0.888 -0.016c 0.048 0.048 0.048 0.216 0 0.264c -0.488 0.024 -0.616 0.096 -0.616 0.76v 1.416c 0 0.664 0.128 0.736 0.616 0.76c 0.048 0.048 0.048 0.216 0 0.264c -0.32 -0.008 -0.64 -0.016 -0.888 -0.016c -0.176 0 -0.4 0.008 -0.48 0.016c -0.064 -0.144 -0.136 -0.312 -0.208 -0.448Z "/></symbol><symbol id="gADB3B27726748394AAF96F33FED6E9BE" overflow="visible"><path d="M 0 0m 1.488 2.448c 0 0.672 0.088 0.696 0.576 0.736c 0.048 0.048 0.048 0.216 0 0.264c -0.272 -0.008 -0.544 -0.016 -0.896 -0.016c -0.344 0 -0.624 0.008 -0.888 0.016c -0.048 -0.048 -0.048 -0.216 0 -0.264c 0.488 -0.032 0.576 -0.064 0.576 -0.728v -1.48c 0 -0.664 -0.088 -0.688 -0.576 -0.728c -0.048 -0.048 -0.048 -0.216 0 -0.264c 0.264 0.008 0.544 0.016 0.896 0.016c 0.328 0 0.504 -0.016 0.832 -0.016c 0.984 0 1.52 0.248 1.52 1.104c 0 0.752 -0.656 0.968 -1.464 0.968h -0.576Z m 3.448 0.008c 0 0.664 0.088 0.688 0.576 0.728c 0.048 0.048 0.048 0.216 0 0.264c -0.272 -0.008 -0.544 -0.016 -0.896 -0.016c -0.344 0 -0.624 0.008 -0.888 0.016c -0.048 -0.048 -0.048 -0.216 0 -0.264c 0.488 -0.032 0.576 -0.064 0.576 -0.728v -1.48c 0 -0.664 -0.088 -0.688 -0.576 -0.728c -0.048 -0.048 -0.048 -0.216 0 -0.264c 0.264 0.008 0.544 0.016 0.896 0.016c 0.344 0 0.632 -0.008 0.888 -0.016c 0.048 0.048 0.048 0.216 0 0.264c -0.488 0.032 -0.576 0.064 -0.576 0.728Z m -2.096 -1.448c 0 -0.656 -0.4 -0.76 -0.824 -0.76c -0.392 0 -0.528 0.08 -0.528 0.36v 1.184h 0.568c 0.6 0 0.784 -0.36 0.784 -0.784Z "/></symbol></defs></svg>