<svg viewBox="0 0 317.822795276 164.018070866" width="317.822795276pt" height="164.018070866pt" xmlns="http://www.w3.org/2000/svg" xmlns:xlink="http://www.w3.org/1999/xlink" xmlns:h5="http://www.w3.org/1999/xhtml"><path fill="#ffffff" fill-rule="nonzero" d="M 0 0v 164.018070866h 317.822795276v -164.018070866Z "/><g transform="translate(8 8)"><path fill="url(#rD526A334B8C1D3BE4500A2D4C409E940)" fill-rule="nonzero" stroke="#1a1a18" stroke-width="0.6" stroke-linecap="butt" stroke-linejoin="miter" stroke-miterlimit="4" transform="translate(2.0925 98.078740157)" d="M 0 0v 15.590551181h 297.637795276v -15.590551181h -297.637795276Z "/><path fill="none" stroke="#1a1a18" stroke-width="0.6" stroke-linecap="butt" stroke-linejoin="miter" stroke-miterlimit="4" transform="translate(2.0925 113.669291339)" d="M 0 0v 5.102362205"/><path fill="none" transform="translate(0 123.702661417)" d="M 0 0h 4.185v 6.012h -4.185v -6.012Z "/><g transform="translate(0 123.702661417)"><g transform="matrix(1 0 0 -1 0 5.922)"><use xlink:href="#g2672FDBBE364B15F69A47DA3D826EE6F" x="0" y="0" fill="#1a1a18" fill-rule="nonzero"/></g></g><path fill="none" stroke="#1a1a18" stroke-width="0.6" stroke-linecap="butt" stroke-linejoin="miter" stroke-miterlimit="4" transform="translate(150.911397638 113.669291339)" d="M 0 0v 5.102362205"/><path fill="none" transform="translate(145.736397638 123.149161417)" d="M 0 0h 10.35v 7.119h -10.35v -7.119Z "/><g transform="translate(145.736397638 123.149161417)"><g transform="matrix(1 0 0 -1 0 5.922)"><use xlink:href="#g2672FDBBE364B15F69A47DA3D826EE6F" x="0" y="0" fill="#1a1a18" fill-rule="nonzero"/><use xlink:href="#gCCF28E29FF8CFE46410F5A526209CFA4" x="4.185" y="0" fill="#1a1a18" fill-rule="nonzero"/><use xlink:href="#g96351278D88006CC7926B74AF66DE974" x="6.165" y="0" fill="#1a1a18" fill-rule="nonzero"/></g></g><path fill="none" stroke="#1a1a18" stroke-width="0.6" stroke-linecap="butt" stroke-linejoin="miter" stroke-miterlimit="4" transform="translate(299.730295276 113.669291339)" d="M 0 0v 5.102362205"/><path fill="none" transform="translate(297.637795276 123.738661417)" d="M 0 0h 4.185v 5.94h -4.185v -5.94Z "/><g transform="translate(297.637795276 123.738661417)"><g transform="matrix(1 0 0 -1 0 5.922)"><use xlink:href="#g1C0AA09C88C242CF299E410BACB4170A" x="0" y="0" fill="#1a1a18" fill-rule="nonzero"/></g></g><path fill="none" transform="translate(70.716397638 138.848070866)" d="M 0 0h 160.39v 9.17h -160.39v -9.17Z "/><g transform="translate(70.716397606 138.848070756)"><g transform="matrix(1 0 0 -1 0 6.83)"><use xlink:href="#g7D7A5D08C55ACC07707850317A5B7900" x="0" y="0" fill="#1a1a18" fill-rule="nonzero"/><use xlink:href="#g58FE41588FF370B2D963AE7490CB53AD" x="4.57" y="0" fill="#1a1a18" fill-rule="nonzero"/><use xlink:href="#g7A87A3C544B096F08C4452AB1CFF4728" x="9.84" y="0" fill="#1a1a18" fill-rule="nonzero"/><use xlink:href="#gEE6BFED97EAD66B608F348D718695C96" x="14.49" y="0" fill="#1a1a18" fill-rule="nonzero"/><use xlink:href="#g8C4BCE4FF39E54C5E232A1A0A3B7612A" x="19.38" y="0" fill="#1a1a18" fill-rule="nonzero"/><use xlink:href="#g829D75AC8F1C9E46EE8828572BC54649" x="23.85" y="0" fill="#1a1a18" fill-rule="nonzero"/><use xlink:href="#gF91E605A926A6829D0875F26DD95556B" x="29.23" y="0" fill="#1a1a18" fill-rule="nonzero"/></g><g transform="matrix(1 0 0 -1 36.77 6.83)"><use xlink:href="#g8985C5D3AEEB8F7A791CD6E57BA6EB93" x="0" y="0" fill="#1a1a18" fill-rule="nonzero"/></g><g transform="matrix(1 0 0 -1 43.17 6.83)"><use xlink:href="#gA8A9DDAB53341C8E5F3D2FE21FD6753" x="2.5" y="0" fill="#1a1a18" fill-rule="nonzero"/><use xlink:href="#g829D75AC8F1C9E46EE8828572BC54649" x="12.42" y="0" fill="#1a1a18" fill-rule="nonzero"/><use xlink:href="#gF91E605A926A6829D0875F26DD95556B" x="17.8" y="0" fill="#1a1a18" fill-rule="nonzero"/><use xlink:href="#g58FE41588FF370B2D963AE7490CB53AD" x="22.84" y="0" fill="#1a1a18" fill-rule="nonzero"/><use xlink:href="#g973DF8CE92806CB27780D5D49D7C2E68" x="28.11" y="0" fill="#1a1a18" fill-rule="nonzero"/><use xlink:href="#gF91E605A926A6829D0875F26DD95556B" x="35.42" y="0" fill="#1a1a18" fill-rule="nonzero"/><use xlink:href="#gF7E2F11D9500E34CEB199CAED225F368" x="40.46" y="0" fill="#1a1a18" fill-rule="nonzero"/><use xlink:href="#g8F03A4AE8D3B195D4882A1755C55580A" x="44.91" y="0" fill="#1a1a18" fill-rule="nonzero"/><use xlink:href="#g7D7A5D08C55ACC07707850317A5B7900" x="50.1" y="0" fill="#1a1a18" fill-rule="nonzero"/><use xlink:href="#g729161D2B0E3A3BFDA42C859CCA10BD0" x="54.67" y="0" fill="#1a1a18" fill-rule="nonzero"/><use xlink:href="#g9E0EED1382D7915B68E40A5B177AB6F0" x="61.73" y="0" fill="#1a1a18" fill-rule="nonzero"/><use xlink:href="#gD51468542432F864548926048E523B26" x="66.2" y="0" fill="#1a1a18" fill-rule="nonzero"/><use xlink:href="#gD51468542432F864548926048E523B26" x="72.06" y="0" fill="#1a1a18" fill-rule="nonzero"/><use xlink:href="#gF91E605A926A6829D0875F26DD95556B" x="77.92" y="0" fill="#1a1a18" fill-rule="nonzero"/><use xlink:href="#gA00006717397A74F11CDD511C8F2ED3A" x="82.96" y="0" fill="#1a1a18" fill-rule="nonzero"/><use xlink:href="#gF91E605A926A6829D0875F26DD95556B" x="87.12" y="0" fill="#1a1a18" fill-rule="nonzero"/><use xlink:href="#g3034C02F099195832EC02A04CF67550" x="94.66" y="0" fill="#1a1a18" fill-rule="nonzero"/><use xlink:href="#g43B4DCD2F8848462ADFC1E372BCC35" x="98.94" y="0" fill="#1a1a18" fill-rule="nonzero"/><use xlink:href="#g8C4BCE4FF39E54C5E232A1A0A3B7612A" x="103.73" y="0" fill="#1a1a18" fill-rule="nonzero"/><use xlink:href="#gF7E2F11D9500E34CEB199CAED225F368" x="108.2" y="0" fill="#1a1a18" fill-rule="nonzero"/><use xlink:href="#g7D7A5D08C55ACC07707850317A5B7900" x="112.65" y="0" fill="#1a1a18" fill-rule="nonzero"/></g></g><path fill="none" stroke="#1a1a18" stroke-width="0.6" stroke-linecap="butt" stroke-linejoin="miter" stroke-miterlimit="4" transform="translate(31.856279528 49.88976378)" d="M 0 0m 0 48.188976378v -48.188976378"/><path fill="none" transform="translate(18.720473972 39.051685039)" d="M 0 0h 26.271611111v 6.936h -26.271611111v -6.936Z "/><g transform="translate(18.720473953 39.051684992)"><g transform="matrix(1 0 0 -1 0 5.8055)"><use xlink:href="#g35772E9130BA4CC49E7D933ED5757F00" x="0" y="0" fill="#7c7f6a" fill-rule="nonzero"/></g><g transform="matrix(1 0 0 -1 7.801111111 5.8055)"><use xlink:href="#g335AFCA5AA6823E8B0DC711541CCA113" x="0" y="0" fill="#7c7f6a" fill-rule="nonzero"/></g><g transform="matrix(1 0 0 -1 14.371611111 5.8055)"><use xlink:href="#gE3FE2528F38598467A4D88E2DBCB8679" x="2.125" y="0" fill="#7c7f6a" fill-rule="nonzero"/><use xlink:href="#gDF3935FCC17A128C279585C276902B1A" x="6.0775" y="0" fill="#7c7f6a" fill-rule="nonzero"/><use xlink:href="#gD223D6497379E9976FC7F5DC3352CD9F" x="7.9475" y="0" fill="#7c7f6a" fill-rule="nonzero"/></g></g><path fill="none" transform="translate(5.503279528 18.463385827)" d="M 0 0h 52.706v 20.9h -52.706v -20.9Z "/><g transform="translate(5.503279465 18.463385764)"><g transform="matrix(1 0 0 -1 0.836000063 6.251)"><use xlink:href="#gF1C320A4506B818F6BCB8CDA11A2DE6" x="0" y="0" fill="#1a1a18" fill-rule="nonzero"/><use xlink:href="#gDB3041A08DFB71461CA9A9E16087AB39" x="4.2275" y="0" fill="#1a1a18" fill-rule="nonzero"/><use xlink:href="#gC2CBF98E7E07B945C6FA500EA68B32AD" x="8.474" y="0" fill="#1a1a18" fill-rule="nonzero"/><use xlink:href="#g111F480562FE960BC5F50C637F145B12" x="14.934" y="0" fill="#1a1a18" fill-rule="nonzero"/><use xlink:href="#g30F02AEBABA7D40FC17FCA43D8EB3DAA" x="20.501" y="0" fill="#1a1a18" fill-rule="nonzero"/><use xlink:href="#g5AAEF493CBDA45024F82AC9E8378049F" x="24.8425" y="0" fill="#1a1a18" fill-rule="nonzero"/><use xlink:href="#gDBB5E8F5FC9EB2F5349B9D49D6966C24" x="31.787" y="0" fill="#1a1a18" fill-rule="nonzero"/><use xlink:href="#gC110FFC20529D78AB6B9724BF2D3193A" x="36.556" y="0" fill="#1a1a18" fill-rule="nonzero"/><use xlink:href="#g5B0FB9F727640150CA57389F67238C5A" x="41.344" y="0" fill="#1a1a18" fill-rule="nonzero"/><use xlink:href="#g30F02AEBABA7D40FC17FCA43D8EB3DAA" x="46.2745" y="0" fill="#1a1a18" fill-rule="nonzero"/><use xlink:href="#g73DD1743F8FC5FD38E4C0A4119BED0F9" x="50.616" y="0" fill="#1a1a18" fill-rule="nonzero"/></g><g transform="matrix(1 0 0 -1 10.032000063 18.677)"><use xlink:href="#g30F02AEBABA7D40FC17FCA43D8EB3DAA" x="0" y="0" fill="#1a1a18" fill-rule="nonzero"/><use xlink:href="#g966D14D99AB05D933C4957B2E7FE95D9" x="4.3415" y="0" fill="#1a1a18" fill-rule="nonzero"/><use xlink:href="#g9AB4D653434A916376878838EF2269DC" x="8.4075" y="0" fill="#1a1a18" fill-rule="nonzero"/><use xlink:href="#g30F02AEBABA7D40FC17FCA43D8EB3DAA" x="14.649" y="0" fill="#1a1a18" fill-rule="nonzero"/><use xlink:href="#gC86282117E7C9F65658F6DDAC49FC51A" x="18.9905" y="0" fill="#1a1a18" fill-rule="nonzero"/><use xlink:href="#g4F6C4B764A667C0D20F43C1E2952DF77" x="23.997" y="0" fill="#1a1a18" fill-rule="nonzero"/><use xlink:href="#gF1C320A4506B818F6BCB8CDA11A2DE6" x="28.4145" y="0" fill="#1a1a18" fill-rule="nonzero"/></g></g><path fill="#1a1a18" fill-rule="nonzero" stroke="#1a1a18" stroke-width="0.6" stroke-linecap="butt" stroke-linejoin="miter" stroke-miterlimit="4" transform="translate(24.486200787)" d="M 0 0v 13.039370079h 14.74015748v -13.039370079h -14.74015748Z "/><path fill="none" stroke="#1a1a18" stroke-width="0.6" stroke-linecap="butt" stroke-linejoin="miter" stroke-miterlimit="4" transform="translate(150.911397638 49.88976378)" d="M 0 0m 0 48.188976378v -48.188976378"/><path fill="none" transform="translate(137.775592082 37.917826772)" d="M 0 0h 26.271611111v 6.936h -26.271611111v -6.936Z "/><g transform="translate(137.775592063 37.917826724)"><g transform="matrix(1 0 0 -1 0 5.8055)"><use xlink:href="#g35772E9130BA4CC49E7D933ED5757F00" x="0" y="0" fill="#7c7f6a" fill-rule="nonzero"/></g><g transform="matrix(1 0 0 -1 7.801111111 5.8055)"><use xlink:href="#g335AFCA5AA6823E8B0DC711541CCA113" x="0" y="0" fill="#7c7f6a" fill-rule="nonzero"/></g><g transform="matrix(1 0 0 -1 14.371611111 5.8055)"><use xlink:href="#gE3FE2528F38598467A4D88E2DBCB8679" x="2.125" y="0" fill="#7c7f6a" fill-rule="nonzero"/><use xlink:href="#gDF3935FCC17A128C279585C276902B1A" x="6.0775" y="0" fill="#7c7f6a" fill-rule="nonzero"/><use xlink:href="#g6B6515263C8491F6898E68FFAE1136A4" x="7.9475" y="0" fill="#7c7f6a" fill-rule="nonzero"/></g></g><path fill="none" transform="translate(137.635147638 28.07796063)" d="M 0 0h 26.5525v 8.474h -26.5525v -8.474Z "/><g transform="translate(137.635147559 28.077960614)"><g transform="matrix(1 0 0 -1 0 6.251)"><use xlink:href="#gA087682AD38D2D620C1058FCC30E85F0" x="0" y="0" fill="#1a1a18" fill-rule="nonzero"/><use xlink:href="#gA3A5C9019285A4C81365474C03E3CF4E" x="4.6455" y="0" fill="#1a1a18" fill-rule="nonzero"/><use xlink:href="#g5B0FB9F727640150CA57389F67238C5A" x="8.892" y="0" fill="#1a1a18" fill-rule="nonzero"/><use xlink:href="#gDB3041A08DFB71461CA9A9E16087AB39" x="13.8225" y="0" fill="#1a1a18" fill-rule="nonzero"/><use xlink:href="#g96E574CFF76A0BA1099A3734F20CCD95" x="18.069" y="0" fill="#1a1a18" fill-rule="nonzero"/><use xlink:href="#g30F02AEBABA7D40FC17FCA43D8EB3DAA" x="22.211" y="0" fill="#1a1a18" fill-rule="nonzero"/></g></g><path fill="#8e8e8b" fill-rule="nonzero" stroke="#1a1a18" stroke-width="0.6" stroke-linecap="butt" stroke-linejoin="miter" stroke-miterlimit="4" transform="translate(143.541318898)" d="M 0 0v 13.039370079h 14.74015748v -13.039370079h -14.74015748Z "/><path fill="none" stroke="#1a1a18" stroke-width="1.4" stroke-linecap="butt" stroke-linejoin="miter" stroke-miterlimit="4" transform="translate(146.0925 9.637795276)" d="M 0 0h 4.251968504"/><path fill="none" stroke="#1a1a18" stroke-width="1.4" stroke-linecap="butt" stroke-linejoin="miter" stroke-miterlimit="4" transform="translate(152.045255906 6.236220472)" d="M 0 0h 3.968503937"/><path fill="none" stroke="#1a1a18" stroke-width="1.4" stroke-linecap="butt" stroke-linejoin="miter" stroke-miterlimit="4" transform="translate(146.942893701 3.118110236)" d="M 0 0h 4.251968504"/><path fill="none" stroke="#1a1a18" stroke-width="0.6" stroke-linecap="butt" stroke-linejoin="miter" stroke-miterlimit="4" transform="translate(269.966515748 49.88976378)" d="M 0 0m 0 48.188976378v -48.188976378"/><path fill="none" transform="translate(256.830710192 37.917826772)" d="M 0 0h 26.271611111v 6.936h -26.271611111v -6.936Z "/><g transform="translate(256.830710173 37.917826724)"><g transform="matrix(1 0 0 -1 0 5.8055)"><use xlink:href="#g35772E9130BA4CC49E7D933ED5757F00" x="0" y="0" fill="#7c7f6a" fill-rule="nonzero"/></g><g transform="matrix(1 0 0 -1 7.801111111 5.8055)"><use xlink:href="#g335AFCA5AA6823E8B0DC711541CCA113" x="0" y="0" fill="#7c7f6a" fill-rule="nonzero"/></g><g transform="matrix(1 0 0 -1 14.371611111 5.8055)"><use xlink:href="#gE3FE2528F38598467A4D88E2DBCB8679" x="2.125" y="0" fill="#7c7f6a" fill-rule="nonzero"/><use xlink:href="#gDF3935FCC17A128C279585C276902B1A" x="6.0775" y="0" fill="#7c7f6a" fill-rule="nonzero"/><use xlink:href="#g2A9125C850EDBFED6BF10AF5B3F60660" x="7.9475" y="0" fill="#7c7f6a" fill-rule="nonzero"/></g></g><path fill="none" transform="translate(261.050765748 29.14196063)" d="M 0 0h 17.8315v 6.346h -17.8315v -6.346Z "/><g transform="translate(261.050765669 29.141960598)"><g transform="matrix(1 0 0 -1 0 6.251)"><use xlink:href="#g966D14D99AB05D933C4957B2E7FE95D9" x="0" y="0" fill="#1a1a18" fill-rule="nonzero"/><use xlink:href="#g111F480562FE960BC5F50C637F145B12" x="4.066" y="0" fill="#1a1a18" fill-rule="nonzero"/><use xlink:href="#gA3A5C9019285A4C81365474C03E3CF4E" x="9.633" y="0" fill="#1a1a18" fill-rule="nonzero"/><use xlink:href="#gF797BEB250DC793C654741DDFB7687AB" x="13.8795" y="0" fill="#1a1a18" fill-rule="nonzero"/></g></g><path fill="#ededea" fill-rule="nonzero" stroke="#1a1a18" stroke-width="0.6" stroke-linecap="butt" stroke-linejoin="miter" stroke-miterlimit="4" transform="translate(262.596437008)" d="M 0 0v 13.039370079h 14.74015748v -13.039370079h -14.74015748Z "/></g><defs><symbol id="g2672FDBBE364B15F69A47DA3D826EE6F" overflow="visible"><path d="M 0 0m 2.052 -0.09c 0.693 0 1.746 0.702 1.746 2.817c 0 0.891 -0.216 1.656 -0.612 2.178c -0.234 0.315 -0.612 0.585 -1.098 0.585c -0.891 0 -1.737 -1.062 -1.737 -2.844c 0 -0.963 0.297 -1.863 0.792 -2.358c 0.252 -0.252 0.558 -0.378 0.909 -0.378Z m 0.036 5.265c 0.153 0 0.297 -0.054 0.405 -0.153c 0.279 -0.234 0.522 -0.918 0.522 -2.124c 0 -0.828 -0.027 -1.395 -0.153 -1.854c -0.198 -0.738 -0.639 -0.819 -0.801 -0.819c -0.837 0 -0.927 1.539 -0.927 2.322c 0 2.214 0.549 2.628 0.954 2.628Z "/></symbol><symbol id="gCCF28E29FF8CFE46410F5A526209CFA4" overflow="visible"><path d="M 0 0m 0.936 0.855c -0.279 0 -0.477 -0.189 -0.477 -0.441c 0 -0.279 0.234 -0.369 0.396 -0.396c 0.171 -0.018 0.324 -0.072 0.324 -0.279c 0 -0.189 -0.324 -0.603 -0.792 -0.72c 0 -0.09 0.018 -0.153 0.081 -0.216c 0.54 0.099 1.062 0.531 1.062 1.161c 0 0.54 -0.234 0.891 -0.594 0.891Z "/></symbol><symbol id="g96351278D88006CC7926B74AF66DE974" overflow="visible"><path d="M 0 0m 2.871 1.701c 0 -0.855 -0.45 -1.485 -0.99 -1.485c -0.342 0 -0.459 0.225 -0.594 0.405c -0.117 0.153 -0.27 0.288 -0.459 0.288c -0.171 0 -0.342 -0.153 -0.342 -0.333c 0 -0.369 0.765 -0.675 1.278 -0.675c 1.116 0 1.908 0.828 1.908 1.962c 0 0.873 -0.603 1.656 -1.611 1.656c -0.387 0 -0.72 -0.081 -0.882 -0.144l 0.18 1.503c 0.333 -0.036 0.621 -0.081 1.053 -0.081c 0.27 0 0.576 0.018 0.945 0.054l 0.144 0.612l -0.063 0.036c -0.513 -0.054 -0.999 -0.099 -1.476 -0.099c -0.333 0 -0.657 0.018 -0.972 0.045l -0.306 -2.592c 0.477 0.18 0.819 0.216 1.143 0.216c 0.585 0 1.044 -0.387 1.044 -1.368Z "/></symbol><symbol id="g1C0AA09C88C242CF299E410BACB4170A" overflow="visible"><path d="M 0 0m 2.592 1.098v 3.123c 0 0.54 0.009 1.089 0.027 1.206c 0 0.045 -0.018 0.045 -0.054 0.045c -0.495 -0.306 -0.972 -0.531 -1.764 -0.9c 0.018 -0.099 0.054 -0.189 0.135 -0.243c 0.414 0.171 0.612 0.225 0.783 0.225c 0.153 0 0.18 -0.216 0.18 -0.522v -2.934c 0 -0.747 -0.243 -0.792 -0.873 -0.819c -0.054 -0.054 -0.054 -0.243 0 -0.297c 0.441 0.009 0.765 0.018 1.251 0.018c 0.432 0 0.648 -0.009 1.098 -0.018c 0.054 0.054 0.054 0.243 0 0.297c -0.63 0.027 -0.783 0.072 -0.783 0.819Z "/></symbol><symbol id="g7D7A5D08C55ACC07707850317A5B7900" overflow="visible"><path d="M 0 0m 2.93 0.48c 0.06 -0.31 0.17 -0.58 0.67 -0.58c 0.38 0 0.74 0.17 0.95 0.37c -0.02 0.12 -0.06 0.21 -0.17 0.27c -0.07 -0.06 -0.24 -0.16 -0.37 -0.16c -0.29 0 -0.3 0.39 -0.3 0.85v 1.47c 0 1.42 -0.78 1.69 -1.51 1.69c -0.82 0 -1.65 -0.54 -1.65 -1.11c 0 -0.24 0.12 -0.36 0.35 -0.36c 0.29 0 0.47 0.21 0.47 0.34c 0 0.07 -0.01 0.14 -0.03 0.18c -0.01 0.03 -0.02 0.09 -0.02 0.2c 0 0.31 0.42 0.42 0.8 0.42c 0.34 0 0.81 -0.17 0.81 -1.3c 0 -0.07 -0.03 -0.11 -0.06 -0.12l -0.86 -0.21c -0.96 -0.24 -1.65 -0.77 -1.65 -1.45c 0 -0.82 0.56 -1.08 1.26 -1.08c 0.35 0 0.65 0.08 1.09 0.42l 0.2 0.16Z m 0 1.85v -1.32c 0 -0.13 -0.06 -0.2 -0.14 -0.26c -0.26 -0.21 -0.6 -0.44 -0.88 -0.44c -0.5 0 -0.72 0.4 -0.72 0.71c 0 0.45 0.21 0.91 0.95 1.1Z "/></symbol><symbol id="g58FE41588FF370B2D963AE7490CB53AD" overflow="visible"><path d="M 0 0m 4.18 1.22v 1.85c 0 0.82 0.13 0.87 0.68 0.91c 0.06 0.06 0.06 0.27 0 0.33c -0.3 -0.01 -0.68 -0.02 -1.08 -0.02h -1.89c -0.33 0 -0.72 0.01 -1.02 0.02c -0.06 -0.06 -0.06 -0.27 0 -0.33c 0.71 -0.05 0.81 -0.11 0.81 -1.19c 0 -1.05 -0.08 -1.6 -0.22 -2.01c -0.13 -0.36 -0.3 -0.49 -0.47 -0.49c -0.13 0 -0.17 0.08 -0.19 0.21c -0.03 0.19 -0.09 0.38 -0.37 0.38c -0.25 0 -0.39 -0.2 -0.39 -0.42c 0 -0.31 0.28 -0.58 0.74 -0.58c 0.51 0 0.79 0.26 1.02 0.8c 0.2 0.48 0.26 1.5 0.26 2.18c 0 0.78 0.03 1.04 0.43 1.04h 0.45c 0.38 0 0.45 -0.24 0.45 -0.58v -2.1c 0 -0.82 -0.1 -0.87 -0.62 -0.91c -0.05 -0.06 -0.05 -0.27 0 -0.33c 0.25 0.01 0.62 0.02 1.02 0.02c 0.4 0 0.85 -0.01 1.13 -0.02c 0.05 0.06 0.05 0.27 0 0.33c -0.65 0.04 -0.74 0.09 -0.74 0.91Z "/></symbol><symbol id="g7A87A3C544B096F08C4452AB1CFF4728" overflow="visible"><path d="M 0 0m 1.86 3.06c 0 0.84 0.11 0.87 0.72 0.92c 0.06 0.06 0.06 0.27 0 0.33c -0.34 -0.01 -0.68 -0.02 -1.12 -0.02c -0.43 0 -0.78 0.01 -1.11 0.02c -0.06 -0.06 -0.06 -0.27 0 -0.33c 0.61 -0.04 0.72 -0.08 0.72 -0.91v -1.85c 0 -0.83 -0.11 -0.86 -0.72 -0.91c -0.06 -0.06 -0.06 -0.27 0 -0.33c 0.33 0.01 0.68 0.02 1.12 0.02c 0.41 0 0.63 -0.02 1.04 -0.02c 1.23 0 1.9 0.31 1.9 1.38c 0 0.94 -0.82 1.21 -1.83 1.21h -0.72Z m 1.69 -1.8c 0 -0.82 -0.5 -0.95 -1.03 -0.95c -0.49 0 -0.66 0.1 -0.66 0.45v 1.48h 0.71c 0.75 0 0.98 -0.45 0.98 -0.98Z "/></symbol><symbol id="gEE6BFED97EAD66B608F348D718695C96" overflow="visible"><path d="M 0 0m 0.34 2.57c 0 -1.89 1.09 -2.67 2.06 -2.67c 1.37 0 2.16 1.02 2.16 2.28c 0 1.08 -0.6 2.21 -2.01 2.21c -0.95 0 -1.53 -0.56 -1.75 -1.04l -0.02 0.02c 0.04 0.52 0.2 1.16 0.35 1.42c 0.32 0.55 0.7 0.58 1.62 0.68c 0.9 0.1 1.54 0.39 1.63 1.51c -0.07 0.03 -0.14 0.04 -0.22 0c -0.08 -0.48 -0.61 -0.61 -1.45 -0.74c -0.81 -0.13 -1.49 -0.41 -1.91 -1.2c -0.36 -0.68 -0.46 -1.52 -0.46 -2.47Z m 0.86 -0.26c 0 0.56 0.2 1.73 1.24 1.73c 0.78 0 1.26 -0.9 1.26 -2.1c 0 -1.26 -0.58 -1.69 -1.12 -1.69c -0.73 0 -1.38 0.95 -1.38 2.06Z "/></symbol><symbol id="g8C4BCE4FF39E54C5E232A1A0A3B7612A" overflow="visible"><path d="M 0 0m 3.86 0.93c -0.37 -0.38 -0.66 -0.54 -1.24 -0.54c -0.36 0 -0.78 0.21 -1.09 0.72c -0.2 0.33 -0.32 0.79 -0.32 1.37l 2.66 -0.02c 0.12 0 0.19 0.06 0.19 0.17c 0 0.84 -0.3 1.74 -1.69 1.74c -0.87 0 -2 -0.83 -2 -2.35c 0 -0.56 0.14 -1.1 0.47 -1.48c 0.34 -0.4 0.81 -0.64 1.53 -0.64c 0.76 0 1.3 0.35 1.7 0.87c -0.03 0.1 -0.09 0.15 -0.21 0.16Z m -2.62 1.89c 0.19 1.13 0.89 1.22 1.13 1.22c 0.38 0 0.83 -0.21 0.83 -1.05c 0 -0.09 -0.04 -0.14 -0.15 -0.14Z "/></symbol><symbol id="g829D75AC8F1C9E46EE8828572BC54649" overflow="visible"><path d="M 0 0m 1.89 4.29c -0.33 0 -0.72 0.01 -1.02 0.02c -0.06 -0.06 -0.06 -0.27 0 -0.33c 0.61 -0.05 0.79 -0.09 0.75 -0.92c -0.04 -0.92 -0.2 -1.66 -0.37 -2.36c -0.06 -0.27 -0.35 -0.36 -0.63 -0.39c -0.15 -0.02 -0.29 -0.08 -0.3 -0.26l -0.06 -1.33c 0.07 -0.03 0.15 -0.04 0.27 -0.01c 0.09 0.37 0.36 1.29 1.26 1.29h 1.73c 0.89 0 1.18 -0.9 1.27 -1.3c 0.09 -0.02 0.18 -0.02 0.28 0.02l -0.06 1.34c 0 0.14 -0.08 0.22 -0.27 0.25c -0.18 0.03 -0.43 0.1 -0.43 0.47v 2.29c 0 0.82 0.13 0.87 0.68 0.91c 0.06 0.06 0.06 0.27 0 0.33c -0.3 -0.01 -0.68 -0.02 -1.08 -0.02Z m -0.28 -3.78c 0 0.17 0.27 0.83 0.42 3.12c 0.01 0.15 0.08 0.28 0.35 0.28h 0.69c 0.4 0 0.45 -0.28 0.45 -0.62v -2.41c 0 -0.33 -0.02 -0.49 -0.42 -0.49h -1.29c -0.11 0 -0.2 0.01 -0.2 0.12Z "/></symbol><symbol id="gF91E605A926A6829D0875F26DD95556B" overflow="visible"><path d="M 0 0m 0.41 2.05c 0 -1.02 0.68 -2.15 2.1 -2.15c 0.64 0 1.13 0.23 1.47 0.56c 0.45 0.44 0.65 1.07 0.65 1.68c 0 1.04 -0.57 2.25 -2.1 2.25c -0.66 0 -1.2 -0.27 -1.57 -0.7c -0.36 -0.43 -0.55 -1.01 -0.55 -1.64Z m 1.97 1.99c 0.86 0 1.39 -0.78 1.39 -2.22c 0 -1.26 -0.65 -1.57 -1.12 -1.57c -1.04 0 -1.38 1.26 -1.38 2.03c 0 0.87 0.21 1.76 1.11 1.76Z "/></symbol><symbol id="g8985C5D3AEEB8F7A791CD6E57BA6EB93" overflow="visible"><path d="M 0 0m 3.1 4.42c -0.69 0 -1.31 -0.3 -1.86 -0.89c -0.55 -0.59 -0.83 -1.24 -0.83 -1.94c 0 -0.98 0.66 -1.7 1.64 -1.7c 0.69 0 1.37 0.27 2.05 0.8c 0.15 -0.53 0.46 -0.8 0.92 -0.8c 0.36 0 0.87 0.38 0.87 0.74c 0 0.09 -0.05 0.13 -0.16 0.13c -0.07 0 -0.13 -0.04 -0.16 -0.12c -0.08 -0.21 -0.29 -0.46 -0.52 -0.46c -0.17 0 -0.26 0.32 -0.26 0.97c 0 0.14 0.03 0.25 0.09 0.32c 0.27 0.33 0.51 0.71 0.7 1.13c 0.25 0.54 0.4 0.94 0.44 1.2v 0.04c -0.03 0.07 -0.09 0.1 -0.16 0.1c -0.05 -0.01 -0.11 -0.09 -0.18 -0.23c -0.21 -0.72 -0.5 -1.34 -0.89 -1.85v 0.5c 0 1.16 -0.58 2.06 -1.69 2.06Z m 0.93 -2.31c 0 -0.59 0.01 -0.95 0.02 -1.08c -0.65 -0.57 -1.31 -0.85 -1.98 -0.85c -0.57 0 -0.85 0.35 -0.85 1.04c 0 0.58 0.33 1.66 0.56 2.02c 0.38 0.59 0.82 0.89 1.31 0.89c 0.31 0 0.52 -0.12 0.65 -0.36c 0.07 -0.12 0.12 -0.24 0.17 -0.35c 0.08 -0.23 0.12 -0.84 0.12 -1.31Z "/></symbol><symbol id="gA8A9DDAB53341C8E5F3D2FE21FD6753" overflow="visible"><path d="M 0 0m 0.49 2.38h 6.24c 0.13 0 0.26 0.2 0.26 0.32c 0 0.09 -0.03 0.17 -0.14 0.17h -6.24c -0.12 0 -0.26 -0.2 -0.26 -0.32c 0 -0.08 0.03 -0.17 0.14 -0.17Z "/></symbol><symbol id="g973DF8CE92806CB27780D5D49D7C2E68" overflow="visible"><path d="M 0 0m 1.14 0c 0.28 0.01 0.38 0.27 0.5 0.63c 0.26 0.79 0.55 1.28 1.05 1.28h 0.26v -0.69c 0 -0.83 -0.11 -0.86 -0.72 -0.91c -0.06 -0.06 -0.06 -0.27 0 -0.33c 0.33 0.01 0.68 0.02 1.12 0.02c 0.43 0 0.79 -0.01 1.11 -0.02c 0.06 0.06 0.06 0.27 0 0.33c -0.61 0.04 -0.72 0.08 -0.72 0.91v 1.85c 0 0.83 0.11 0.86 0.72 0.91c 0.06 0.06 0.06 0.27 0 0.33c -0.34 -0.01 -0.68 -0.02 -1.12 -0.02c -0.34 0 -0.63 0.02 -0.88 0.02c -1.75 0 -1.9 -0.72 -1.9 -1.26c 0 -0.65 0.5 -0.98 1.24 -1.01c 0.03 0 0.03 -0.03 0.02 -0.04c -0.38 -0.11 -0.55 -0.32 -0.72 -0.69c -0.11 -0.23 -0.2 -0.45 -0.25 -0.58c -0.13 -0.34 -0.3 -0.4 -0.69 -0.42c -0.06 -0.06 -0.06 -0.27 0 -0.33c 0.2 0.01 0.98 0.02 0.98 0.02Z m 0.28 3.21c 0 0.47 0.15 0.77 0.96 0.77c 0.41 0 0.57 -0.18 0.57 -0.56v -1.17h -0.7c -0.6 0 -0.83 0.46 -0.83 0.96Z "/></symbol><symbol id="gF7E2F11D9500E34CEB199CAED225F368" overflow="visible"><path d="M 0 0m 1.82 1.22c 0 -0.83 -0.11 -0.88 -0.72 -0.91c -0.06 -0.06 -0.06 -0.27 0 -0.33c 0.39 0.01 0.79 0.02 1.12 0.02c 0.34 0 0.73 -0.01 1.11 -0.02c 0.06 0.06 0.06 0.27 0 0.33c -0.61 0.03 -0.72 0.08 -0.72 0.91v 2.7h 0.17c 0.81 0 0.97 -0.28 1.14 -1.09c 0.13 0 0.26 0.04 0.26 0.04c -0.06 0.46 -0.1 0.9 -0.11 1.48c -0.23 -0.02 -0.98 -0.06 -1.48 -0.06h -0.75c -0.5 0 -1.06 0.03 -1.46 0.06c -0.01 -0.58 -0.05 -1.02 -0.12 -1.48c 0 0 0.14 -0.04 0.27 -0.04c 0.17 0.81 0.32 1.09 1.14 1.09h 0.15Z "/></symbol><symbol id="g8F03A4AE8D3B195D4882A1755C55580A" overflow="visible"><path d="M 0 0m 1.56 3.68c -0.01 0.3 -0.03 0.56 -0.08 0.66c -0.02 0.05 -0.04 0.08 -0.12 0.08c -0.28 -0.11 -0.54 -0.2 -1.23 -0.29c -0.02 -0.06 0 -0.22 0.02 -0.28c 0.54 -0.05 0.65 -0.1 0.65 -0.68v -4.27c 0 -0.83 -0.11 -0.88 -0.72 -0.91c -0.06 -0.06 -0.06 -0.27 0 -0.33c 0.35 0.01 0.72 0.02 1.12 0.02c 0.4 0 0.88 -0.01 1.21 -0.02c 0.06 0.06 0.06 0.27 0 0.33c -0.71 0.04 -0.82 0.08 -0.82 0.91v 1.08c 0 0.13 0.04 0.12 0.14 0.08c 0.25 -0.1 0.55 -0.16 0.87 -0.16c 0.56 0 1.06 0.17 1.47 0.56c 0.47 0.46 0.74 1.08 0.74 1.89c 0 1.06 -0.75 2.04 -1.77 2.04c -0.46 0 -0.97 -0.3 -1.37 -0.75c -0.06 -0.06 -0.1 -0.06 -0.11 0.04Z m 0.19 -0.37c 0.26 0.32 0.72 0.62 1.01 0.62c 0.64 0 1.19 -0.72 1.19 -1.85c 0 -0.82 -0.29 -1.84 -1.41 -1.84c -0.18 0 -0.53 0.05 -0.71 0.21c -0.2 0.18 -0.24 0.24 -0.24 0.6v 1.82c 0 0.21 0.04 0.3 0.16 0.44Z "/></symbol><symbol id="g729161D2B0E3A3BFDA42C859CCA10BD0" overflow="visible"><path d="M 0 0m 1.09 0c 0.2 0.01 0.37 0.24 0.5 0.51l 0.43 0.9c 0.18 0.37 0.46 0.64 1.14 0.68v -0.87c 0 -0.83 -0.12 -0.86 -0.63 -0.91c -0.06 -0.06 -0.06 -0.27 0 -0.33c 0.23 0.01 0.6 0.02 1 0.02c 0.39 0 0.77 -0.01 0.99 -0.02c 0.06 0.06 0.06 0.27 0 0.33c -0.51 0.04 -0.63 0.08 -0.63 0.91v 0.87c 0.68 -0.04 0.96 -0.31 1.14 -0.68l 0.43 -0.9c 0.13 -0.27 0.3 -0.5 0.5 -0.51c 0 0 0.74 -0.01 0.94 -0.02c 0.06 0.06 0.06 0.27 0 0.33c -0.39 0.02 -0.49 0.1 -0.66 0.42l -0.45 0.85c -0.25 0.47 -0.58 0.71 -1.15 0.71v 0.03c 0.39 0.11 0.56 0.46 0.71 0.86c 0.12 0.31 0.24 0.5 0.45 0.5c 0.09 0 0.17 -0.03 0.23 -0.07c 0.06 -0.04 0.17 -0.07 0.3 -0.07c 0.22 0 0.4 0.19 0.4 0.39c 0 0.22 -0.24 0.45 -0.57 0.45c -0.58 0 -0.85 -0.54 -1.04 -1.01c -0.22 -0.55 -0.52 -0.93 -1.23 -0.93v 0.63c 0 0.83 0.12 0.86 0.63 0.91c 0.06 0.06 0.06 0.27 0 0.33c -0.24 -0.01 -0.6 -0.02 -1 -0.02c -0.39 0 -0.76 0.01 -0.99 0.02c -0.06 -0.06 -0.06 -0.27 0 -0.33c 0.51 -0.04 0.63 -0.08 0.63 -0.91v -0.63c -0.71 0 -1.01 0.38 -1.23 0.93c -0.19 0.47 -0.46 1.01 -1.04 1.01c -0.33 0 -0.57 -0.23 -0.57 -0.45c 0 -0.2 0.18 -0.39 0.4 -0.39c 0.13 0 0.24 0.03 0.3 0.07c 0.06 0.04 0.14 0.07 0.23 0.07c 0.21 0 0.33 -0.19 0.45 -0.5c 0.15 -0.4 0.32 -0.75 0.71 -0.86v -0.03c -0.57 0 -0.9 -0.24 -1.15 -0.71l -0.45 -0.85c -0.17 -0.32 -0.27 -0.4 -0.66 -0.42c -0.06 -0.06 -0.06 -0.27 0 -0.33c 0.2 0.01 0.94 0.02 0.94 0.02Z "/></symbol><symbol id="g9E0EED1382D7915B68E40A5B177AB6F0" overflow="visible"><path d="M 0 0m 3.86 0.93c -0.37 -0.38 -0.66 -0.54 -1.24 -0.54c -0.36 0 -0.78 0.21 -1.09 0.72c -0.2 0.33 -0.32 0.79 -0.32 1.37l 2.66 -0.02c 0.12 0 0.19 0.06 0.19 0.17c 0 0.84 -0.3 1.74 -1.69 1.74c -0.87 0 -2 -0.83 -2 -2.35c 0 -0.56 0.14 -1.1 0.47 -1.48c 0.34 -0.4 0.81 -0.64 1.53 -0.64c 0.76 0 1.3 0.35 1.7 0.87c -0.03 0.1 -0.09 0.15 -0.21 0.16Z m -2.62 1.89c 0.19 1.13 0.89 1.22 1.13 1.22c 0.38 0 0.83 -0.21 0.83 -1.05c 0 -0.09 -0.04 -0.14 -0.15 -0.14Z m -0.25 2.93c 0 -0.26 0.21 -0.47 0.47 -0.47c 0.26 0 0.47 0.21 0.47 0.47c 0 0.26 -0.21 0.48 -0.47 0.48c -0.26 0 -0.47 -0.22 -0.47 -0.48Z m 1.69 0c 0 -0.26 0.21 -0.47 0.47 -0.47c 0.26 0 0.47 0.21 0.47 0.47c 0 0.26 -0.21 0.48 -0.47 0.48c -0.26 0 -0.47 -0.22 -0.47 -0.48Z "/></symbol><symbol id="gD51468542432F864548926048E523B26" overflow="visible"><path d="M 0 0m 4.79 3.07c 0 0.83 0.11 0.86 0.72 0.91c 0.06 0.06 0.06 0.27 0 0.33c -0.35 -0.02 -0.79 -0.02 -1.12 -0.02c -0.28 0 -0.68 0.01 -1.07 0.02c -0.06 -0.06 -0.06 -0.27 0 -0.33c 0.61 -0.04 0.68 -0.08 0.68 -0.91v -0.65h -2.14v 0.65c 0 0.83 0.07 0.86 0.68 0.91c 0.06 0.06 0.06 0.27 0 0.33c -0.38 -0.01 -0.76 -0.02 -1.08 -0.02c -0.3 0 -0.71 0.01 -1.11 0.02c -0.06 -0.06 -0.06 -0.27 0 -0.33c 0.61 -0.04 0.72 -0.08 0.72 -0.91v -1.85c 0 -0.83 -0.11 -0.86 -0.72 -0.91c -0.06 -0.06 -0.06 -0.27 0 -0.33c 0.4 0.01 0.8 0.02 1.12 0.02c 0.32 0 0.71 -0.01 1.07 -0.02c 0.06 0.06 0.06 0.27 0 0.33c -0.61 0.04 -0.68 0.08 -0.68 0.91v 0.87h 2.14v -0.87c 0 -0.83 -0.07 -0.86 -0.68 -0.91c -0.06 -0.06 -0.06 -0.27 0 -0.33c 0.36 0.01 0.73 0.02 1.08 0.02c 0.3 0 0.72 -0.01 1.11 -0.02c 0.06 0.06 0.06 0.27 0 0.33c -0.61 0.04 -0.72 0.08 -0.72 0.91Z "/></symbol><symbol id="gA00006717397A74F11CDD511C8F2ED3A" overflow="visible"><path d="M 0 0m 1.86 3.07c 0 0.57 0.07 0.83 0.42 0.83h 0.22c 0.82 0 1.06 -0.57 1.2 -1.15c 0.11 -0.01 0.21 0 0.29 0.04c -0.04 0.53 -0.07 0.97 -0.13 1.5l -0.02 0.02c 0 0 -0.8 -0.02 -1.12 -0.02h -1.26c -0.43 0 -0.78 0.01 -1.11 0.02c -0.06 -0.06 -0.06 -0.27 0 -0.33c 0.61 -0.04 0.72 -0.08 0.72 -0.91v -1.85c 0 -0.83 -0.11 -0.86 -0.72 -0.91c -0.06 -0.06 -0.06 -0.27 0 -0.33c 0.33 0.01 0.68 0.02 1.12 0.02c 0.43 0 0.79 -0.01 1.11 -0.02c 0.06 0.06 0.06 0.27 0 0.33c -0.61 0.04 -0.72 0.08 -0.72 0.91Z "/></symbol><symbol id="g3034C02F099195832EC02A04CF67550" overflow="visible"><path d="M 0 0m 3.98 0.91c -0.04 0.09 -0.12 0.13 -0.21 0.14c -0.34 -0.44 -0.77 -0.66 -1.2 -0.66c -0.73 0 -1.34 0.74 -1.34 1.91c 0 1.1 0.48 1.76 1.14 1.76c 0.59 0 0.67 -0.35 0.71 -0.7c 0.03 -0.27 0.17 -0.36 0.38 -0.36c 0.21 0 0.49 0.13 0.49 0.44c 0 0.55 -0.57 0.95 -1.53 0.95c -0.99 0 -2.05 -0.89 -2.05 -2.31c 0 -1.29 0.72 -2.18 1.98 -2.18c 0.6 0 1.13 0.19 1.63 1.01Z "/></symbol><symbol id="g43B4DCD2F8848462ADFC1E372BCC35" overflow="visible"><path d="M 0 0m 1.46 4.29c -0.43 0 -0.78 0.01 -1.11 0.02c -0.06 -0.06 -0.06 -0.27 0 -0.33c 0.61 -0.04 0.72 -0.08 0.72 -0.91v -1.85c 0 -0.83 -0.11 -0.86 -0.72 -0.91c -0.06 -0.06 -0.06 -0.27 0 -0.33c 0.33 0.01 0.68 0.02 1.12 0.02c 0.37 0 0.7 -0.02 1.37 -0.02c 0.86 0 1.51 0.24 1.51 1.23c 0 0.56 -0.35 0.95 -0.96 1.06v 0.03c 0.46 0.09 0.81 0.41 0.81 1.01c 0 0.7 -0.43 1 -1.64 1c -0.41 0 -0.67 -0.02 -1.1 -0.02Z m 0.4 -2.12h 0.76c 0.61 0 0.87 -0.4 0.87 -1c 0 -0.67 -0.38 -0.86 -0.92 -0.86c -0.52 0 -0.71 0.09 -0.71 0.55Z m 0 0.29v 1.16c 0 0.3 0.23 0.36 0.71 0.36c 0.52 0 0.83 -0.14 0.83 -0.74c 0 -0.4 -0.26 -0.78 -0.88 -0.78Z "/></symbol><symbol id="g35772E9130BA4CC49E7D933ED5757F00" overflow="visible"><path d="M 0 0m 2.635 3.757c -0.5865 0 -1.1135 -0.255 -1.581 -0.7565c -0.4675 -0.5015 -0.7055 -1.054 -0.7055 -1.649c 0 -0.833 0.561 -1.445 1.394 -1.445c 0.5865 0 1.1645 0.2295 1.7425 0.68c 0.1275 -0.4505 0.391 -0.68 0.782 -0.68c 0.306 0 0.7395 0.323 0.7395 0.629c 0 0.0765 -0.0425 0.1105 -0.136 0.1105c -0.0595 0 -0.1105 -0.034 -0.136 -0.102c -0.068 -0.1785 -0.2465 -0.391 -0.442 -0.391c -0.1445 0 -0.221 0.272 -0.221 0.8245c 0 0.119 0.0255 0.2125 0.0765 0.272c 0.2295 0.2805 0.4335 0.6035 0.595 0.9605c 0.2125 0.459 0.34 0.799 0.374 1.02v 0.034c -0.0255 0.0595 -0.0765 0.085 -0.136 0.085c -0.0425 -0.0085 -0.0935 -0.0765 -0.153 -0.1955c -0.1785 -0.612 -0.425 -1.139 -0.7565 -1.5725v 0.425c 0 0.986 -0.493 1.751 -1.4365 1.751Z m 0.7905 -1.9635c 0 -0.5015 0.0085 -0.8075 0.017 -0.918c -0.5525 -0.4845 -1.1135 -0.7225 -1.683 -0.7225c -0.4845 0 -0.7225 0.2975 -0.7225 0.884c 0 0.493 0.2805 1.411 0.476 1.717c 0.323 0.5015 0.697 0.7565 1.1135 0.7565c 0.2635 0 0.442 -0.102 0.5525 -0.306c 0.0595 -0.102 0.102 -0.204 0.1445 -0.2975c 0.068 -0.1955 0.102 -0.714 0.102 -1.1135Z "/></symbol><symbol id="g335AFCA5AA6823E8B0DC711541CCA113" overflow="visible"><path d="M 0 0m 6.0945 3.672v 0.017c 0 0.0935 -0.0425 0.136 -0.136 0.136c -0.0595 0 -0.102 -0.034 -0.1275 -0.0935c -0.0595 -0.2975 -0.1785 -0.527 -0.3485 -0.6715c -0.2805 -0.2465 -0.578 -0.3655 -0.901 -0.3655c -0.2465 0 -0.5015 0.0935 -0.765 0.272c -0.4845 0.3485 -0.7735 0.544 -0.867 0.6035c -0.3655 0.2125 -0.6885 0.3145 -0.9775 0.3145c -0.9095 0 -1.3175 -0.6375 -1.496 -1.4705v -0.0255c 0 -0.085 0.0425 -0.1275 0.136 -0.1275c 0.0765 0 0.119 0.034 0.136 0.102c 0.0595 0.2975 0.17 0.5185 0.34 0.663c 0.2805 0.2465 0.578 0.3655 0.9095 0.3655c 0.2465 0 0.493 -0.0935 0.7565 -0.2805c 0.4845 -0.34 0.7735 -0.5355 0.867 -0.595c 0.3655 -0.2125 0.6885 -0.3145 0.9775 -0.3145c 0.9095 0 1.3175 0.6375 1.496 1.4705Z m 0 -1.836v 0.0255c 0 0.085 -0.0425 0.1275 -0.136 0.1275c -0.0595 0 -0.102 -0.034 -0.1275 -0.0935c -0.0595 -0.2975 -0.1785 -0.5185 -0.3485 -0.6715c -0.2805 -0.2465 -0.578 -0.3655 -0.901 -0.3655c -0.2465 0 -0.5015 0.0935 -0.765 0.2805c -0.4845 0.34 -0.7735 0.5355 -0.867 0.595c -0.3655 0.2125 -0.6885 0.3145 -0.9775 0.3145c -0.9095 0 -1.3175 -0.6375 -1.496 -1.4705v -0.017c 0 -0.0935 0.0425 -0.136 0.136 -0.136c 0.0765 0 0.119 0.034 0.136 0.102c 0.0595 0.2975 0.17 0.5185 0.34 0.663c 0.2805 0.2465 0.578 0.3655 0.9095 0.3655c 0.2465 0 0.493 -0.0935 0.7565 -0.272c 0.4845 -0.3485 0.7735 -0.544 0.867 -0.6035c 0.3655 -0.2125 0.6885 -0.3145 0.9775 -0.3145c 0.9095 0 1.3175 0.6375 1.496 1.4705Z "/></symbol><symbol id="gE3FE2528F38598467A4D88E2DBCB8679" overflow="visible"><path d="M 0 0m 1.938 -0.085c 0.6545 0 1.649 0.663 1.649 2.6605c 0 0.8415 -0.204 1.564 -0.578 2.057c -0.221 0.2975 -0.578 0.5525 -1.037 0.5525c -0.8415 0 -1.6405 -1.003 -1.6405 -2.686c 0 -0.9095 0.2805 -1.7595 0.748 -2.227c 0.238 -0.238 0.527 -0.357 0.8585 -0.357Z m 0.034 4.9725c 0.1445 0 0.2805 -0.051 0.3825 -0.1445c 0.2635 -0.221 0.493 -0.867 0.493 -2.006c 0 -0.782 -0.0255 -1.3175 -0.1445 -1.751c -0.187 -0.697 -0.6035 -0.7735 -0.7565 -0.7735c -0.7905 0 -0.8755 1.4535 -0.8755 2.193c 0 2.091 0.5185 2.482 0.901 2.482Z "/></symbol><symbol id="gDF3935FCC17A128C279585C276902B1A" overflow="visible"><path d="M 0 0m 0.884 0.8075c -0.2635 0 -0.4505 -0.1785 -0.4505 -0.4165c 0 -0.2635 0.221 -0.3485 0.374 -0.374c 0.1615 -0.017 0.306 -0.068 0.306 -0.2635c 0 -0.1785 -0.306 -0.5695 -0.748 -0.68c 0 -0.085 0.017 -0.1445 0.0765 -0.204c 0.51 0.0935 1.003 0.5015 1.003 1.0965c 0 0.51 -0.221 0.8415 -0.561 0.8415Z "/></symbol><symbol id="gD223D6497379E9976FC7F5DC3352CD9F" overflow="visible"><path d="M 0 0m 2.448 1.037v 2.9495c 0 0.51 0.0085 1.0285 0.0255 1.139c 0 0.0425 -0.017 0.0425 -0.051 0.0425c -0.4675 -0.289 -0.918 -0.5015 -1.666 -0.85c 0.017 -0.0935 0.051 -0.1785 0.1275 -0.2295c 0.391 0.1615 0.578 0.2125 0.7395 0.2125c 0.1445 0 0.17 -0.204 0.17 -0.493v -2.771c 0 -0.7055 -0.2295 -0.748 -0.8245 -0.7735c -0.051 -0.051 -0.051 -0.2295 0 -0.2805c 0.4165 0.0085 0.7225 0.017 1.1815 0.017c 0.408 0 0.612 -0.0085 1.037 -0.017c 0.051 0.051 0.051 0.2295 0 0.2805c -0.595 0.0255 -0.7395 0.068 -0.7395 0.7735Z "/></symbol><symbol id="gF1C320A4506B818F6BCB8CDA11A2DE6" overflow="visible"><path d="M 0 0m 1.729 1.159c 0 -0.7885 -0.1045 -0.836 -0.684 -0.8645c -0.057 -0.057 -0.057 -0.2565 0 -0.3135c 0.3705 0.0095 0.7505 0.019 1.064 0.019c 0.323 0 0.6935 -0.0095 1.0545 -0.019c 0.057 0.057 0.057 0.2565 0 0.3135c -0.5795 0.0285 -0.684 0.076 -0.684 0.8645v 2.565h 0.1615c 0.7695 0 0.9215 -0.266 1.083 -1.0355c 0.1235 0 0.247 0.038 0.247 0.038c -0.057 0.437 -0.095 0.855 -0.1045 1.406c -0.2185 -0.019 -0.931 -0.057 -1.406 -0.057h -0.7125c -0.475 0 -1.007 0.0285 -1.387 0.057c -0.0095 -0.551 -0.0475 -0.969 -0.114 -1.406c 0 0 0.133 -0.038 0.2565 -0.038c 0.1615 0.7695 0.304 1.0355 1.083 1.0355h 0.1425Z "/></symbol><symbol id="gDB3041A08DFB71461CA9A9E16087AB39" overflow="visible"><path d="M 0 0m 3.667 0.8835c -0.3515 -0.361 -0.627 -0.513 -1.178 -0.513c -0.342 0 -0.741 0.1995 -1.0355 0.684c -0.19 0.3135 -0.304 0.7505 -0.304 1.3015l 2.527 -0.019c 0.114 0 0.1805 0.057 0.1805 0.1615c 0 0.798 -0.285 1.653 -1.6055 1.653c -0.8265 0 -1.9 -0.7885 -1.9 -2.2325c 0 -0.532 0.133 -1.045 0.4465 -1.406c 0.323 -0.38 0.7695 -0.608 1.4535 -0.608c 0.722 0 1.235 0.3325 1.615 0.8265c -0.0285 0.095 -0.0855 0.1425 -0.1995 0.152Z m -2.489 1.7955c 0.1805 1.0735 0.8455 1.159 1.0735 1.159c 0.361 0 0.7885 -0.1995 0.7885 -0.9975c 0 -0.0855 -0.038 -0.133 -0.1425 -0.133Z m -0.2375 2.7835c 0 -0.247 0.1995 -0.4465 0.4465 -0.4465c 0.247 0 0.4465 0.1995 0.4465 0.4465c 0 0.247 -0.1995 0.456 -0.4465 0.456c -0.247 0 -0.4465 -0.209 -0.4465 -0.456Z m 1.6055 0c 0 -0.247 0.1995 -0.4465 0.4465 -0.4465c 0.247 0 0.4465 0.1995 0.4465 0.4465c 0 0.247 -0.1995 0.456 -0.4465 0.456c -0.247 0 -0.4465 -0.209 -0.4465 -0.456Z "/></symbol><symbol id="gC2CBF98E7E07B945C6FA500EA68B32AD" overflow="visible"><path d="M 0 0m 1.1115 2.907l -0.057 -1.767c -0.0285 -0.798 -0.171 -0.817 -0.722 -0.8455c -0.057 -0.057 -0.057 -0.2565 0 -0.3135c 0.19 0.0095 0.665 0.019 0.817 0.019c 0.19 0 0.6365 -0.0095 0.8265 -0.019c 0.057 0.057 0.057 0.2565 0 0.3135c -0.5415 0.038 -0.5795 0.133 -0.5605 0.8455l 0.0665 2.3275c 0 0.0855 0.038 0.0855 0.076 0l 1.3775 -3.363c 0.038 -0.0285 0.076 -0.0285 0.1045 0l 1.558 3.3535c 0.0475 0.1045 0.095 0.114 0.095 0l -0.0095 -2.299c 0 -0.7885 -0.0665 -0.817 -0.646 -0.8645c -0.057 -0.057 -0.057 -0.2565 0 -0.3135c 0.342 0.0095 0.6935 0.019 1.026 0.019c 0.285 0 0.6935 -0.0095 1.064 -0.019c 0.057 0.057 0.057 0.2565 0 0.3135c -0.5795 0.038 -0.684 0.076 -0.684 0.8645l -0.019 1.7575c -0.0095 0.7885 0.1045 0.817 0.684 0.8645c 0.057 0.057 0.057 0.2565 0 0.3135c -0.3325 -0.019 -1.254 -0.019 -1.5675 -0.019l -1.2635 -2.717l -0.0475 -0.095l -0.038 0.095l -1.1115 2.717c -0.3135 0 -1.3205 0 -1.653 0.019c -0.057 -0.057 -0.057 -0.2565 0 -0.3135c 0.5795 -0.0475 0.7125 -0.0855 0.684 -0.874Z "/></symbol><symbol id="g111F480562FE960BC5F50C637F145B12" overflow="visible"><path d="M 0 0m 4.5505 2.9165c 0 0.7885 0.1045 0.817 0.684 0.8645c 0.057 0.057 0.057 0.2565 0 0.3135c -0.3325 -0.019 -0.7505 -0.019 -1.064 -0.019c -0.266 0 -0.646 0.0095 -1.0165 0.019c -0.057 -0.057 -0.057 -0.2565 0 -0.3135c 0.5795 -0.038 0.646 -0.076 0.646 -0.8645v -0.6175h -2.033v 0.6175c 0 0.7885 0.0665 0.817 0.646 0.8645c 0.057 0.057 0.057 0.2565 0 0.3135c -0.361 -0.0095 -0.722 -0.019 -1.026 -0.019c -0.285 0 -0.6745 0.0095 -1.0545 0.019c -0.057 -0.057 -0.057 -0.2565 0 -0.3135c 0.5795 -0.038 0.684 -0.076 0.684 -0.8645v -1.7575c 0 -0.7885 -0.1045 -0.817 -0.684 -0.8645c -0.057 -0.057 -0.057 -0.2565 0 -0.3135c 0.38 0.0095 0.76 0.019 1.064 0.019c 0.304 0 0.6745 -0.0095 1.0165 -0.019c 0.057 0.057 0.057 0.2565 0 0.3135c -0.5795 0.038 -0.646 0.076 -0.646 0.8645v 0.8265h 2.033v -0.8265c 0 -0.7885 -0.0665 -0.817 -0.646 -0.8645c -0.057 -0.057 -0.057 -0.2565 0 -0.3135c 0.342 0.0095 0.6935 0.019 1.026 0.019c 0.285 0 0.684 -0.0095 1.0545 -0.019c 0.057 0.057 0.057 0.2565 0 0.3135c -0.5795 0.038 -0.684 0.076 -0.684 0.8645Z "/></symbol><symbol id="g30F02AEBABA7D40FC17FCA43D8EB3DAA" overflow="visible"><path d="M 0 0m 2.7835 0.456c 0.057 -0.2945 0.1615 -0.551 0.6365 -0.551c 0.361 0 0.703 0.1615 0.9025 0.3515c -0.019 0.114 -0.057 0.1995 -0.1615 0.2565c -0.0665 -0.057 -0.228 -0.152 -0.3515 -0.152c -0.2755 0 -0.285 0.3705 -0.285 0.8075v 1.3965c 0 1.349 -0.741 1.6055 -1.4345 1.6055c -0.779 0 -1.5675 -0.513 -1.5675 -1.0545c 0 -0.228 0.114 -0.342 0.3325 -0.342c 0.2755 0 0.4465 0.1995 0.4465 0.323c 0 0.0665 -0.0095 0.133 -0.0285 0.171c -0.0095 0.0285 -0.019 0.0855 -0.019 0.19c 0 0.2945 0.399 0.399 0.76 0.399c 0.323 0 0.7695 -0.1615 0.7695 -1.235c 0 -0.0665 -0.0285 -0.1045 -0.057 -0.114l -0.817 -0.1995c -0.912 -0.228 -1.5675 -0.7315 -1.5675 -1.3775c 0 -0.779 0.532 -1.026 1.197 -1.026c 0.3325 0 0.6175 0.076 1.0355 0.399l 0.19 0.152Z m 0 1.7575v -1.254c 0 -0.1235 -0.057 -0.19 -0.133 -0.247c -0.247 -0.1995 -0.57 -0.418 -0.836 -0.418c -0.475 0 -0.684 0.38 -0.684 0.6745c 0 0.4275 0.1995 0.8645 0.9025 1.045Z "/></symbol><symbol id="g5AAEF493CBDA45024F82AC9E8378049F" overflow="visible"><path d="M 0 0m 1.083 0c 0.266 0.0095 0.361 0.2565 0.475 0.5985c 0.247 0.7505 0.5225 1.216 0.9975 1.216h 0.247v -0.6555c 0 -0.7885 -0.1045 -0.817 -0.684 -0.8645c -0.057 -0.057 -0.057 -0.2565 0 -0.3135c 0.3135 0.0095 0.646 0.019 1.064 0.019c 0.4085 0 0.7505 -0.0095 1.0545 -0.019c 0.057 0.057 0.057 0.2565 0 0.3135c -0.5795 0.038 -0.684 0.076 -0.684 0.8645v 1.7575c 0 0.7885 0.1045 0.817 0.684 0.8645c 0.057 0.057 0.057 0.2565 0 0.3135c -0.323 -0.0095 -0.646 -0.019 -1.064 -0.019c -0.323 0 -0.5985 0.019 -0.836 0.019c -1.6625 0 -1.805 -0.684 -1.805 -1.197c 0 -0.6175 0.475 -0.931 1.178 -0.9595c 0.0285 0 0.0285 -0.0285 0.019 -0.038c -0.361 -0.1045 -0.5225 -0.304 -0.684 -0.6555c -0.1045 -0.2185 -0.19 -0.4275 -0.2375 -0.551c -0.1235 -0.323 -0.285 -0.38 -0.6555 -0.399c -0.057 -0.057 -0.057 -0.2565 0 -0.3135c 0.19 0.0095 0.931 0.019 0.931 0.019Z m 0.266 3.0495c 0 0.4465 0.1425 0.7315 0.912 0.7315c 0.3895 0 0.5415 -0.171 0.5415 -0.532v -1.1115h -0.665c -0.57 0 -0.7885 0.437 -0.7885 0.912Z "/></symbol><symbol id="gDBB5E8F5FC9EB2F5349B9D49D6966C24" overflow="visible"><path d="M 0 0m 3.667 0c 0 0 0.741 -0.0095 0.931 -0.019c 0.057 0.057 0.057 0.2565 0 0.3135c -0.3705 0.019 -0.4465 0.095 -0.608 0.399l -0.4275 0.8075c -0.2375 0.4465 -0.57 0.6745 -1.1115 0.6745v 0.0285c 0.3705 0.1045 0.532 0.437 0.6745 0.817c 0.114 0.2945 0.228 0.475 0.4275 0.475c 0.0855 0 0.1615 -0.0285 0.2185 -0.0665c 0.057 -0.038 0.1615 -0.0665 0.285 -0.0665c 0.209 0 0.38 0.1805 0.38 0.3705c 0 0.209 -0.228 0.4275 -0.5415 0.4275c -0.551 0 -0.8075 -0.513 -0.988 -0.9595c -0.209 -0.5225 -0.4655 -0.8835 -1.14 -0.8835v 0.5985c 0 0.7885 0.1045 0.817 0.589 0.8645c 0.057 0.057 0.057 0.2565 0 0.3135c -0.228 -0.0095 -0.589 -0.019 -0.969 -0.019c -0.4085 0 -0.741 0.0095 -1.0545 0.019c -0.057 -0.057 -0.057 -0.2565 0 -0.3135c 0.5795 -0.038 0.684 -0.076 0.684 -0.8645v -1.7575c 0 -0.7885 -0.1045 -0.817 -0.684 -0.8645c -0.057 -0.057 -0.057 -0.2565 0 -0.3135c 0.3135 0.0095 0.646 0.019 1.064 0.019c 0.3705 0 0.7505 -0.0095 0.9595 -0.019c 0.057 0.057 0.057 0.2565 0 0.3135c -0.4845 0.038 -0.589 0.076 -0.589 0.8645v 0.8265c 0.646 -0.038 0.817 -0.2945 0.988 -0.646l 0.4085 -0.855c 0.1235 -0.2565 0.3135 -0.475 0.5035 -0.4845Z "/></symbol><symbol id="gC110FFC20529D78AB6B9724BF2D3193A" overflow="visible"><path d="M 0 0m 0.3895 1.9475c 0 -0.969 0.646 -2.0425 1.995 -2.0425c 0.608 0 1.0735 0.2185 1.3965 0.532c 0.4275 0.418 0.6175 1.0165 0.6175 1.596c 0 0.988 -0.5415 2.1375 -1.995 2.1375c -0.627 0 -1.14 -0.2565 -1.4915 -0.665c -0.342 -0.4085 -0.5225 -0.9595 -0.5225 -1.558Z m 1.8715 1.8905c 0.817 0 1.3205 -0.741 1.3205 -2.109c 0 -1.197 -0.6175 -1.4915 -1.064 -1.4915c -0.988 0 -1.311 1.197 -1.311 1.9285c 0 0.8265 0.1995 1.672 1.0545 1.672Z "/></symbol><symbol id="g5B0FB9F727640150CA57389F67238C5A" overflow="visible"><path d="M 0 0m 1.482 3.496c -0.0095 0.285 -0.0285 0.532 -0.076 0.627c -0.019 0.0475 -0.038 0.076 -0.114 0.076c -0.266 -0.1045 -0.513 -0.19 -1.1685 -0.2755c -0.019 -0.057 0 -0.209 0.019 -0.266c 0.513 -0.0475 0.6175 -0.095 0.6175 -0.646v -4.0565c 0 -0.7885 -0.1045 -0.836 -0.684 -0.8645c -0.057 -0.057 -0.057 -0.2565 0 -0.3135c 0.3325 0.0095 0.684 0.019 1.064 0.019c 0.38 0 0.836 -0.0095 1.1495 -0.019c 0.057 0.057 0.057 0.2565 0 0.3135c -0.6745 0.038 -0.779 0.076 -0.779 0.8645v 1.026c 0 0.1235 0.038 0.114 0.133 0.076c 0.2375 -0.095 0.5225 -0.152 0.8265 -0.152c 0.532 0 1.007 0.1615 1.3965 0.532c 0.4465 0.437 0.703 1.026 0.703 1.7955c 0 1.007 -0.7125 1.938 -1.6815 1.938c -0.437 0 -0.9215 -0.285 -1.3015 -0.7125c -0.057 -0.057 -0.095 -0.057 -0.1045 0.038Z m 0.1805 -0.3515c 0.247 0.304 0.684 0.589 0.9595 0.589c 0.608 0 1.1305 -0.684 1.1305 -1.7575c 0 -0.779 -0.2755 -1.748 -1.3395 -1.748c -0.171 0 -0.5035 0.0475 -0.6745 0.1995c -0.19 0.171 -0.228 0.228 -0.228 0.57v 1.729c 0 0.1995 0.038 0.285 0.152 0.418Z "/></symbol><symbol id="g73DD1743F8FC5FD38E4C0A4119BED0F9" overflow="visible"><path d="M 0 0m 0.988 0.9025c -0.2945 0 -0.5035 -0.1995 -0.5035 -0.4655c 0 -0.2945 0.247 -0.3895 0.418 -0.418c 0.1805 -0.019 0.342 -0.076 0.342 -0.2945c 0 -0.1995 -0.342 -0.6365 -0.836 -0.76c 0 -0.095 0.019 -0.1615 0.0855 -0.228c 0.57 0.1045 1.121 0.5605 1.121 1.2255c 0 0.57 -0.247 0.9405 -0.627 0.9405Z "/></symbol><symbol id="g966D14D99AB05D933C4957B2E7FE95D9" overflow="visible"><path d="M 0 0m 3.781 0.8645c -0.038 0.0855 -0.114 0.1235 -0.1995 0.133c -0.323 -0.418 -0.7315 -0.627 -1.14 -0.627c -0.6935 0 -1.273 0.703 -1.273 1.8145c 0 1.045 0.456 1.672 1.083 1.672c 0.5605 0 0.6365 -0.3325 0.6745 -0.665c 0.0285 -0.2565 0.1615 -0.342 0.361 -0.342c 0.1995 0 0.4655 0.1235 0.4655 0.418c 0 0.5225 -0.5415 0.9025 -1.4535 0.9025c -0.9405 0 -1.9475 -0.8455 -1.9475 -2.1945c 0 -1.2255 0.684 -2.071 1.881 -2.071c 0.57 0 1.0735 0.1805 1.5485 0.9595Z "/></symbol><symbol id="g9AB4D653434A916376878838EF2269DC" overflow="visible"><path d="M 0 0m 3.496 5.5385c 0 0.6175 0.038 0.9975 0.038 0.9975c 0 0.0665 -0.038 0.095 -0.1235 0.095c -0.2375 -0.095 -0.95 -0.228 -1.33 -0.2565c -0.019 -0.076 0 -0.228 0.057 -0.285c 0.551 -0.038 0.608 -0.0665 0.608 -0.779v -1.463c -0.1805 0.1995 -0.4085 0.323 -0.703 0.323c -0.8645 0 -1.672 -0.817 -1.672 -2.337c 0 -1.026 0.513 -1.9285 1.463 -1.9285c 0.38 0 0.665 0.114 0.912 0.38v -1.33c 0 -0.7885 -0.1045 -0.836 -0.684 -0.8645c -0.057 -0.057 -0.057 -0.2565 0 -0.3135c 0.3325 0.0095 0.684 0.019 1.064 0.019c 0.38 0 0.741 -0.0095 1.0545 -0.019c 0.057 0.057 0.057 0.2565 0 0.3135c -0.5795 0.0285 -0.684 0.076 -0.684 0.8645v 1.2255c 0.209 -0.209 0.418 -0.2755 0.7125 -0.2755c 0.988 0 1.6625 1.0355 1.6625 2.318c 0 1.0545 -0.5035 1.9475 -1.4535 1.9475c -0.4465 0 -0.7125 -0.171 -0.9215 -0.4275Z m 0.6555 -1.748c 0.7885 0 0.9405 -1.0165 0.9405 -1.8145c 0 -0.8265 -0.152 -1.691 -0.9785 -1.691c -0.1995 0 -0.4085 0.057 -0.6175 0.361v 2.7455c 0.209 0.304 0.4465 0.399 0.6555 0.399Z m -2.052 -3.5055c -0.779 0 -0.95 1.026 -0.95 1.824c 0 0.8265 0.171 1.6815 0.9975 1.6815c 0.209 0 0.3895 -0.095 0.5985 -0.3515v -2.736c -0.1805 -0.285 -0.3895 -0.418 -0.646 -0.418Z "/></symbol><symbol id="gC86282117E7C9F65658F6DDAC49FC51A" overflow="visible"><path d="M 0 0m 3.971 1.159v 1.7575c 0 0.779 0.1235 0.8265 0.646 0.8645c 0.057 0.057 0.057 0.2565 0 0.3135c -0.285 -0.0095 -0.646 -0.019 -1.026 -0.019h -1.7955c -0.3135 0 -0.684 0.0095 -0.969 0.019c -0.057 -0.057 -0.057 -0.2565 0 -0.3135c 0.6745 -0.0475 0.7695 -0.1045 0.7695 -1.1305c 0 -0.9975 -0.076 -1.52 -0.209 -1.9095c -0.1235 -0.342 -0.285 -0.4655 -0.4465 -0.4655c -0.1235 0 -0.1615 0.076 -0.1805 0.1995c -0.0285 0.1805 -0.0855 0.361 -0.3515 0.361c -0.2375 0 -0.3705 -0.19 -0.3705 -0.399c 0 -0.2945 0.266 -0.551 0.703 -0.551c 0.4845 0 0.7505 0.247 0.969 0.76c 0.19 0.456 0.247 1.425 0.247 2.071c 0 0.741 0.0285 0.988 0.4085 0.988h 0.4275c 0.361 0 0.4275 -0.228 0.4275 -0.551v -1.995c 0 -0.779 -0.095 -0.8265 -0.589 -0.8645c -0.0475 -0.057 -0.0475 -0.2565 0 -0.3135c 0.2375 0.0095 0.589 0.019 0.969 0.019c 0.38 0 0.8075 -0.0095 1.0735 -0.019c 0.0475 0.057 0.0475 0.2565 0 0.3135c -0.6175 0.038 -0.703 0.0855 -0.703 0.8645Z "/></symbol><symbol id="g4F6C4B764A667C0D20F43C1E2952DF77" overflow="visible"><path d="M 0 0m 1.767 2.907c 0 0.798 0.1045 0.8265 0.684 0.874c 0.057 0.057 0.057 0.2565 0 0.3135c -0.323 -0.0095 -0.646 -0.019 -1.064 -0.019c -0.4085 0 -0.741 0.0095 -1.0545 0.019c -0.057 -0.057 -0.057 -0.2565 0 -0.3135c 0.5795 -0.038 0.684 -0.076 0.684 -0.8645v -1.7575c 0 -0.7885 -0.1045 -0.817 -0.684 -0.8645c -0.057 -0.057 -0.057 -0.2565 0 -0.3135c 0.3135 0.0095 0.646 0.019 1.064 0.019c 0.3895 0 0.5985 -0.019 0.988 -0.019c 1.1685 0 1.805 0.2945 1.805 1.311c 0 0.893 -0.779 1.1495 -1.7385 1.1495h -0.684Z m 1.6055 -1.71c 0 -0.779 -0.475 -0.9025 -0.9785 -0.9025c -0.4655 0 -0.627 0.095 -0.627 0.4275v 1.406h 0.6745c 0.7125 0 0.931 -0.4275 0.931 -0.931Z "/></symbol><symbol id="g6B6515263C8491F6898E68FFAE1136A4" overflow="visible"><path d="M 0 0m 2.7115 1.6065c 0 -0.8075 -0.425 -1.4025 -0.935 -1.4025c -0.323 0 -0.4335 0.2125 -0.561 0.3825c -0.1105 0.1445 -0.255 0.272 -0.4335 0.272c -0.1615 0 -0.323 -0.1445 -0.323 -0.3145c 0 -0.3485 0.7225 -0.6375 1.207 -0.6375c 1.054 0 1.802 0.782 1.802 1.853c 0 0.8245 -0.5695 1.564 -1.5215 1.564c -0.3655 0 -0.68 -0.0765 -0.833 -0.136l 0.17 1.4195c 0.3145 -0.034 0.5865 -0.0765 0.9945 -0.0765c 0.255 0 0.544 0.017 0.8925 0.051l 0.136 0.578l -0.0595 0.034c -0.4845 -0.051 -0.9435 -0.0935 -1.394 -0.0935c -0.3145 0 -0.6205 0.017 -0.918 0.0425l -0.289 -2.448c 0.4505 0.17 0.7735 0.204 1.0795 0.204c 0.5525 0 0.986 -0.3655 0.986 -1.292Z "/></symbol><symbol id="gA087682AD38D2D620C1058FCC30E85F0" overflow="visible"><path d="M 0 0m 0.323 2.4415c 0 -1.7955 1.0355 -2.5365 1.957 -2.5365c 1.3015 0 2.052 0.969 2.052 2.166c 0 1.026 -0.57 2.0995 -1.9095 2.0995c -0.9025 0 -1.4535 -0.532 -1.6625 -0.988l -0.019 0.019c 0.038 0.494 0.19 1.102 0.3325 1.349c 0.304 0.5225 0.665 0.551 1.539 0.646c 0.855 0.095 1.463 0.3705 1.5485 1.4345c -0.0665 0.0285 -0.133 0.038 -0.209 0c -0.076 -0.456 -0.5795 -0.5795 -1.3775 -0.703c -0.7695 -0.1235 -1.4155 -0.3895 -1.8145 -1.14c -0.342 -0.646 -0.437 -1.444 -0.437 -2.3465Z m 0.817 -0.247c 0 0.532 0.19 1.6435 1.178 1.6435c 0.741 0 1.197 -0.855 1.197 -1.995c 0 -1.197 -0.551 -1.6055 -1.064 -1.6055c -0.6935 0 -1.311 0.9025 -1.311 1.957Z "/></symbol><symbol id="gA3A5C9019285A4C81365474C03E3CF4E" overflow="visible"><path d="M 0 0m 3.667 0.8835c -0.3515 -0.361 -0.627 -0.513 -1.178 -0.513c -0.342 0 -0.741 0.1995 -1.0355 0.684c -0.19 0.3135 -0.304 0.7505 -0.304 1.3015l 2.527 -0.019c 0.114 0 0.1805 0.057 0.1805 0.1615c 0 0.798 -0.285 1.653 -1.6055 1.653c -0.8265 0 -1.9 -0.7885 -1.9 -2.2325c 0 -0.532 0.133 -1.045 0.4465 -1.406c 0.323 -0.38 0.7695 -0.608 1.4535 -0.608c 0.722 0 1.235 0.3325 1.615 0.8265c -0.0285 0.095 -0.0855 0.1425 -0.1995 0.152Z m -2.489 1.7955c 0.1805 1.0735 0.8455 1.159 1.0735 1.159c 0.361 0 0.7885 -0.1995 0.7885 -0.9975c 0 -0.0855 -0.038 -0.133 -0.1425 -0.133Z "/></symbol><symbol id="g96E574CFF76A0BA1099A3734F20CCD95" overflow="visible"><path d="M 0 0m 0.4085 0.7885c 0 -0.209 0.1235 -0.361 0.323 -0.513c 0.2375 -0.171 0.551 -0.3705 1.3015 -0.3705c 0.95 0 1.691 0.285 1.691 1.2255c 0 0.57 -0.285 0.95 -0.9595 1.064v 0.0285c 0.5795 0.2185 0.7315 0.4845 0.7315 0.9785c 0 0.551 -0.38 0.969 -1.3395 0.969c -0.5035 0 -0.95 -0.1805 -1.463 -0.266l -0.1235 -1.1305c 0.076 -0.038 0.171 -0.0475 0.2565 -0.038c 0.1805 0.551 0.418 1.102 1.216 1.102c 0.5225 0 0.6935 -0.3135 0.6935 -0.6935c 0 -0.3895 -0.0665 -0.8455 -0.6745 -0.8455c -0.1805 0 -0.342 0.057 -0.5225 0.057c -0.0855 0 -0.1805 -0.057 -0.1805 -0.209c 0 -0.152 0.1045 -0.1995 0.19 -0.1995c 0.1805 0 0.285 0.057 0.5225 0.057c 0.703 0 0.836 -0.4845 0.836 -0.9025c 0 -0.5605 -0.209 -0.8645 -0.8835 -0.8645c -0.5415 0 -0.6365 0.1995 -0.798 0.5415c -0.076 0.171 -0.1805 0.304 -0.4275 0.304c -0.171 0 -0.3895 -0.1425 -0.3895 -0.2945Z "/></symbol><symbol id="g2A9125C850EDBFED6BF10AF5B3F60660" overflow="visible"><path d="M 0 0m 2.7795 2.176c -0.2295 -0.7735 -0.7735 -1.632 -1.904 -2.057c 0 -0.102 0.034 -0.1785 0.102 -0.221c 0.8585 0.255 1.3855 0.612 1.8615 1.1645c 0.527 0.612 0.7905 1.3855 0.7905 2.057c 0 1.7255 -0.9775 2.0655 -1.632 2.0655c -1.1135 0 -1.5725 -1.0795 -1.5725 -1.8105c 0 -0.731 0.391 -1.3855 1.547 -1.3855c 0.221 0 0.5525 0.068 0.8075 0.187Z m 0.0765 0.306c -0.2805 -0.187 -0.561 -0.1955 -0.7055 -0.1955c -0.833 0 -1.02 0.816 -1.02 1.241c 0 0.935 0.357 1.36 0.7735 1.36c 0.5355 0 1.02 -0.289 1.02 -1.7425c 0 -0.187 -0.017 -0.4165 -0.068 -0.663Z "/></symbol><symbol id="gF797BEB250DC793C654741DDFB7687AB" overflow="visible"><path d="M 0 0m 1.767 2.9165c 0 0.5415 0.0665 0.7885 0.399 0.7885h 0.209c 0.779 0 1.007 -0.5415 1.14 -1.0925c 0.1045 -0.0095 0.1995 0 0.2755 0.038c -0.038 0.5035 -0.0665 0.9215 -0.1235 1.425l -0.019 0.019c 0 0 -0.76 -0.019 -1.064 -0.019h -1.197c -0.4085 0 -0.741 0.0095 -1.0545 0.019c -0.057 -0.057 -0.057 -0.2565 0 -0.3135c 0.5795 -0.038 0.684 -0.076 0.684 -0.8645v -1.7575c 0 -0.7885 -0.1045 -0.817 -0.684 -0.8645c -0.057 -0.057 -0.057 -0.2565 0 -0.3135c 0.3135 0.0095 0.646 0.019 1.064 0.019c 0.4085 0 0.7505 -0.0095 1.0545 -0.019c 0.057 0.057 0.057 0.2565 0 0.3135c -0.5795 0.038 -0.684 0.076 -0.684 0.8645Z "/></symbol></defs><defs><linearGradient id="fBE5B9B290425108907966995A56EB262" spreadMethod="pad" gradientUnits="userSpaceOnUse" x1="0" y1="0" x2="1" y2="0"><stop offset="0%" stop-color="#1a1a18"/><stop offset="6.25%" stop-color="#262624"/><stop offset="12.5%" stop-color="#323230"/><stop offset="18.75%" stop-color="#3e3e3c"/><stop offset="25%" stop-color="#4b4b49"/><stop offset="31.25%" stop-color="#595957"/><stop offset="37.5%" stop-color="#666665"/><stop offset="43.75%" stop-color="#747473"/><stop offset="50%" stop-color="#838381"/><stop offset="62.5%" stop-color="#a0a09f"/><stop offset="75%" stop-color="#bfbfbe"/><stop offset="87.5%" stop-color="#dfdfde"/><stop offset="100%" stop-color="#ffffff"/></linearGradient></defs><defs><linearGradient gradientTransform="scale(297.637795276 15.590551181)" id="rD526A334B8C1D3BE4500A2D4C409E940" href="#fBE5B9B290425108907966995A56EB262" xlink:href="#fBE5B9B290425108907966995A56EB262"/></defs></svg>