<svg viewBox="0 0 259.779527559 151.602023622" width="259.779527559pt" height="151.602023622pt" xmlns="http://www.w3.org/2000/svg" xmlns:xlink="http://www.w3.org/1999/xlink" xmlns:h5="http://www.w3.org/1999/xhtml"><path fill="#ffffff" fill-rule="nonzero" d="M 0 0v 151.602023622h 259.779527559v -151.602023622Z "/><g transform="translate(8 8)"><path fill="#ccc8c0" fill-rule="nonzero" stroke="#1a1a18" stroke-width="0.6" stroke-linecap="butt" stroke-linejoin="miter" stroke-miterlimit="4" transform="translate(73.700787402)" d="M 0 0m 3.401574803 0c -1.876934551 0 -3.401574803 1.524640252 -3.401574803 3.401574803v 13.039370079c 0 1.876934551 1.524640252 3.401574803 3.401574803 3.401574803h 89.57480315c 1.876934551 0 3.401574803 -1.524640252 3.401574803 -3.401574803v -13.039370079c 0 -1.876934551 -1.524640252 -3.401574803 -3.401574803 -3.401574803h -89.57480315Z "/><path fill="none" transform="translate(77.60976378 5.907259843)" d="M 0 0h 88.56v 8.028h -88.56v -8.028Z "/><g transform="translate(77.60976378 5.907259843)"><g transform="matrix(1 0 0 -1 0 5.922)"><use xlink:href="#g7253BD4F4A12C91ABC7B03558525FA66" x="0" y="0" fill="#1a1a18" fill-rule="nonzero"/><use xlink:href="#g611C332DF318E3AAFADBD04F1094DD79" x="4.536" y="0" fill="#1a1a18" fill-rule="nonzero"/><use xlink:href="#g9C9C9262F30302871979B086E3504457" x="8.541" y="0" fill="#1a1a18" fill-rule="nonzero"/><use xlink:href="#g7253BD4F4A12C91ABC7B03558525FA66" x="12.942" y="0" fill="#1a1a18" fill-rule="nonzero"/><use xlink:href="#g4AD90A9068D018AD3CEC8FD5EA9519DC" x="17.478" y="0" fill="#1a1a18" fill-rule="nonzero"/><use xlink:href="#gA5834380700F55B3689219A2CC4667E3" x="24.399" y="0" fill="#1a1a18" fill-rule="nonzero"/><use xlink:href="#g7253BD4F4A12C91ABC7B03558525FA66" x="29.673" y="0" fill="#1a1a18" fill-rule="nonzero"/><use xlink:href="#gBA3E9C2E61A84E296B252679103E17C4" x="36.459" y="0" fill="#1a1a18" fill-rule="nonzero"/><use xlink:href="#g4AD90A9068D018AD3CEC8FD5EA9519DC" x="41.301" y="0" fill="#1a1a18" fill-rule="nonzero"/><use xlink:href="#gFFF6E9B9A983FEBF7FB8DCFB305974E9" x="45.972" y="0" fill="#1a1a18" fill-rule="nonzero"/><use xlink:href="#gF4C3A83C3E99EE3A06E5D4EEABB5C2D5" x="50.607" y="0" fill="#1a1a18" fill-rule="nonzero"/><use xlink:href="#gD351E21AD091924D522A6D2D6355C932" x="56.961" y="0" fill="#1a1a18" fill-rule="nonzero"/><use xlink:href="#gB118266EF18AECCCCEF724ECE6F3D1D3" x="60.984" y="0" fill="#1a1a18" fill-rule="nonzero"/><use xlink:href="#gE910E7524AAA5201D690B7EBF26D2697" x="65.727" y="0" fill="#1a1a18" fill-rule="nonzero"/><use xlink:href="#g9C9C9262F30302871979B086E3504457" x="72.306" y="0" fill="#1a1a18" fill-rule="nonzero"/><use xlink:href="#g6EA5A1981697E2B5E95285C58F7F7AD0" x="76.707" y="0" fill="#1a1a18" fill-rule="nonzero"/><use xlink:href="#gE910E7524AAA5201D690B7EBF26D2697" x="81.981" y="0" fill="#1a1a18" fill-rule="nonzero"/></g></g><path fill="#a3a597" fill-rule="nonzero" stroke="#1a1a18" stroke-width="0.6" stroke-linecap="butt" stroke-linejoin="miter" stroke-miterlimit="4" transform="translate(73.700787402 42.519685039)" d="M 0 0m 3.401574803 0c -1.876934551 0 -3.401574803 1.524640252 -3.401574803 3.401574803v 13.039370079c 0 1.876934551 1.524640252 3.401574803 3.401574803 3.401574803h 89.57480315c 1.876934551 0 3.401574803 -1.524640252 3.401574803 -3.401574803v -13.039370079c 0 -1.876934551 -1.524640252 -3.401574803 -3.401574803 -3.401574803h -89.57480315Z "/><path fill="none" transform="translate(85.67826378 48.426944882)" d="M 0 0h 72.423v 8.028h -72.423v -8.028Z "/><g transform="translate(85.67826378 48.426944882)"><g transform="matrix(1 0 0 -1 0 5.922)"><use xlink:href="#g4AE5337A4A3FF09E9A9AF89B4B83FC9D" x="0" y="0" fill="#1a1a18" fill-rule="nonzero"/><use xlink:href="#g7253BD4F4A12C91ABC7B03558525FA66" x="3.744" y="0" fill="#1a1a18" fill-rule="nonzero"/><use xlink:href="#g4AD90A9068D018AD3CEC8FD5EA9519DC" x="8.28" y="0" fill="#1a1a18" fill-rule="nonzero"/><use xlink:href="#g82C799C01D06EF19E125C6F4348D75CA" x="12.951" y="0" fill="#1a1a18" fill-rule="nonzero"/><use xlink:href="#g7253BD4F4A12C91ABC7B03558525FA66" x="19.071" y="0" fill="#1a1a18" fill-rule="nonzero"/><use xlink:href="#g5F2B105DCE44482CD07DFE0B4651B637" x="23.607" y="0" fill="#1a1a18" fill-rule="nonzero"/><use xlink:href="#g5CCD3C35BE7C263075DDDC3F0C06DEE6" x="28.881" y="0" fill="#1a1a18" fill-rule="nonzero"/><use xlink:href="#g7815E2C79248546AAEE49EC7F57ADD4E" x="37.647" y="0" fill="#1a1a18" fill-rule="nonzero"/><use xlink:href="#g611C332DF318E3AAFADBD04F1094DD79" x="41.499" y="0" fill="#1a1a18" fill-rule="nonzero"/><use xlink:href="#g4AD90A9068D018AD3CEC8FD5EA9519DC" x="45.504" y="0" fill="#1a1a18" fill-rule="nonzero"/><use xlink:href="#gD351E21AD091924D522A6D2D6355C932" x="50.175" y="0" fill="#1a1a18" fill-rule="nonzero"/><use xlink:href="#g7815E2C79248546AAEE49EC7F57ADD4E" x="54.198" y="0" fill="#1a1a18" fill-rule="nonzero"/><use xlink:href="#g7815E2C79248546AAEE49EC7F57ADD4E" x="58.05" y="0" fill="#1a1a18" fill-rule="nonzero"/><use xlink:href="#gF7AD5B3248F8366898BA115B8D318C4E" x="61.902" y="0" fill="#1a1a18" fill-rule="nonzero"/><use xlink:href="#g7B39ADD258F5FAFD9040ED7495777E94" x="68.265" y="0" fill="#1a1a18" fill-rule="nonzero"/></g></g><path fill="none" stroke="#1a1a18" stroke-width="0.6" stroke-linecap="butt" stroke-linejoin="miter" stroke-miterlimit="4" transform="translate(121.88976378 19.842519685)" d="M 0 0v 16.153473641"/><path fill="#1a1a18" fill-rule="nonzero" stroke="#1a1a18" stroke-width="0.6" stroke-linecap="butt" stroke-linejoin="miter" stroke-miterlimit="4" transform="translate(119.763779528 35.995993228)" d="M 0 0m 2.125984252 5.669291339l -2.125984252 -5.669291339h 4.251968504l -2.125984252 5.669291339Z "/><path fill="none" stroke="#1a1a18" stroke-width="0.7" stroke-linecap="butt" stroke-linejoin="miter" stroke-miterlimit="4" transform="translate(34.670466624 62.362204724)" d="M 0 0m 87.219297156 0l -87.219297156 29.073099052"/><path fill="#1a1a18" fill-rule="nonzero" stroke="#1a1a18" stroke-width="0.7" stroke-linecap="butt" stroke-linejoin="miter" stroke-miterlimit="4" transform="translate(29.292104693 89.418417973)" d="M 0 0m 0 3.809673113l 4.706066757 -3.809673113l 1.344590518 4.033771512l -6.050657275 -0.224098398Z "/><path fill="#d5d2cb" fill-rule="nonzero" stroke="#1a1a18" stroke-width="0.6" stroke-linecap="butt" stroke-linejoin="miter" stroke-miterlimit="4" transform="translate(0 93.543307087)" d="M 0 0m 2.834645669 0c -1.564112126 0 -2.834645669 1.270533543 -2.834645669 2.834645669v 14.173228346c 0 1.564112126 1.270533543 2.834645669 2.834645669 2.834645669h 51.023622047c 1.564112126 0 2.834645669 -1.270533543 2.834645669 -2.834645669v -14.173228346c 0 -1.564112126 -1.270533543 -2.834645669 -2.834645669 -2.834645669h -51.023622047Z "/><path fill="none" transform="translate(5.362456693 99.904566929)" d="M 0 0h 45.968v 7.12h -45.968v -7.12Z "/><g transform="translate(5.362456677 99.904566898)"><g transform="matrix(1 0 0 -1 0 5.264)"><use xlink:href="#gE9BB349F7E32C39203BC6B218DF12838" x="0" y="0" fill="#1a1a18" fill-rule="nonzero"/><use xlink:href="#gDF0740817C60D01D4C0A2F901DD857A7" x="3.832" y="0" fill="#1a1a18" fill-rule="nonzero"/><use xlink:href="#g9F99202881449AD6C0CCCD21824C9AF1" x="8.52" y="0" fill="#1a1a18" fill-rule="nonzero"/><use xlink:href="#g3582D8D1264CABFCC073F09D45268688" x="11.944" y="0" fill="#1a1a18" fill-rule="nonzero"/><use xlink:href="#g1A9694FA4202677694E328AC46097BF3" x="15.792" y="0" fill="#1a1a18" fill-rule="nonzero"/><use xlink:href="#gDF0740817C60D01D4C0A2F901DD857A7" x="20.104" y="0" fill="#1a1a18" fill-rule="nonzero"/><use xlink:href="#g465CA45D0696F5BBCE5E7A11B5E63D98" x="24.792" y="0" fill="#1a1a18" fill-rule="nonzero"/><use xlink:href="#g89E7AED93332C4356E163D20D023452" x="30.368" y="0" fill="#1a1a18" fill-rule="nonzero"/><use xlink:href="#g7FEC4917393F0C2A72D87F7F150D50F" x="34.488" y="0" fill="#1a1a18" fill-rule="nonzero"/><use xlink:href="#gDF0740817C60D01D4C0A2F901DD857A7" x="41.28" y="0" fill="#1a1a18" fill-rule="nonzero"/></g></g><path fill="none" stroke="#1a1a18" stroke-width="0.7" stroke-linecap="butt" stroke-linejoin="miter" stroke-miterlimit="4" transform="translate(95.422300116 62.362204724)" d="M 0 0m 26.467463664 0l -26.467463664 26.467463664"/><path fill="#1a1a18" fill-rule="nonzero" stroke="#1a1a18" stroke-width="0.7" stroke-linecap="butt" stroke-linejoin="miter" stroke-miterlimit="4" transform="translate(91.413505701 87.326370581)" d="M 0 0m 0 5.512092222l 2.505496465 -5.512092222l 3.006595757 3.006595757l -5.512092222 2.505496465Z "/><path fill="#d5d2cb" fill-rule="nonzero" stroke="#1a1a18" stroke-width="0.6" stroke-linecap="butt" stroke-linejoin="miter" stroke-miterlimit="4" transform="translate(62.362204724 93.543307087)" d="M 0 0m 2.834645669 0c -1.564112126 0 -2.834645669 1.270533543 -2.834645669 2.834645669v 14.173228346c 0 1.564112126 1.270533543 2.834645669 2.834645669 2.834645669h 51.023622047c 1.564112126 0 2.834645669 -1.270533543 2.834645669 -2.834645669v -14.173228346c 0 -1.564112126 -1.270533543 -2.834645669 -2.834645669 -2.834645669h -51.023622047Z "/><path fill="none" transform="translate(68.952661417 100.784566929)" d="M 0 0h 43.512v 5.36h -43.512v -5.36Z "/><g transform="translate(68.95266137 100.784566913)"><g transform="matrix(1 0 0 -1 0 5.264)"><use xlink:href="#gDFD38EC9906BA626C5B7E69A103C103" x="0" y="0" fill="#1a1a18" fill-rule="nonzero"/><use xlink:href="#g465CA45D0696F5BBCE5E7A11B5E63D98" x="3.912" y="0" fill="#1a1a18" fill-rule="nonzero"/><use xlink:href="#gFF63DA2595F1651AF0C535BF803D9AEC" x="7.488" y="0" fill="#1a1a18" fill-rule="nonzero"/><use xlink:href="#gADB3B27726748394AAF96F33FED6E9BE" x="11.704" y="0" fill="#1a1a18" fill-rule="nonzero"/><use xlink:href="#g465CA45D0696F5BBCE5E7A11B5E63D98" x="17.496" y="0" fill="#1a1a18" fill-rule="nonzero"/><use xlink:href="#gF859B786D36C3A3EB6E93A57BC4F802" x="23.072" y="0" fill="#1a1a18" fill-rule="nonzero"/><use xlink:href="#g3582D8D1264CABFCC073F09D45268688" x="27.76" y="0" fill="#1a1a18" fill-rule="nonzero"/><use xlink:href="#gE09E60C0AC8E2E10ADA02C2F49261352" x="31.608" y="0" fill="#1a1a18" fill-rule="nonzero"/><use xlink:href="#g937124D7F3D66536776BB8DA5DFD7893" x="35.168" y="0" fill="#1a1a18" fill-rule="nonzero"/><use xlink:href="#gF79D9CC171E1ACC5162F855F1894F43E" x="39.856" y="0" fill="#1a1a18" fill-rule="nonzero"/></g></g><path fill="none" stroke="#1a1a18" stroke-width="0.7" stroke-linecap="butt" stroke-linejoin="miter" stroke-miterlimit="4" transform="translate(121.88976378 62.362204724)" d="M 0 0l 26.467463664 26.467463664"/><path fill="#1a1a18" fill-rule="nonzero" stroke="#1a1a18" stroke-width="0.7" stroke-linecap="butt" stroke-linejoin="miter" stroke-miterlimit="4" transform="translate(146.853929636 87.326370581)" d="M 0 0m 5.512092222 5.512092222l -5.512092222 -2.505496465l 3.006595757 -3.006595757l 2.505496465 5.512092222Z "/><path fill="#d5d2cb" fill-rule="nonzero" stroke="#1a1a18" stroke-width="0.6" stroke-linecap="butt" stroke-linejoin="miter" stroke-miterlimit="4" transform="translate(124.724409449 93.543307087)" d="M 0 0m 2.834645669 0c -1.564112126 0 -2.834645669 1.270533543 -2.834645669 2.834645669v 14.173228346c 0 1.564112126 1.270533543 2.834645669 2.834645669 2.834645669h 51.023622047c 1.564112126 0 2.834645669 -1.270533543 2.834645669 -2.834645669v -14.173228346c 0 -1.564112126 -1.270533543 -2.834645669 -2.834645669 -2.834645669h -51.023622047Z "/><path fill="none" transform="translate(125.866866142 100.784566929)" d="M 0 0h 54.408v 5.36h -54.408v -5.36Z "/><g transform="translate(125.866866047 100.784566913)"><g transform="matrix(1 0 0 -1 0 5.264)"><use xlink:href="#gEF1CB7DB7883465AAAE49B6975EF9AB9" x="0" y="0" fill="#1a1a18" fill-rule="nonzero"/><use xlink:href="#gE9BB349F7E32C39203BC6B218DF12838" x="3.92" y="0" fill="#1a1a18" fill-rule="nonzero"/><use xlink:href="#g5D01DA3AB390CB78D7E54204B7DC3F87" x="7.752" y="0" fill="#1a1a18" fill-rule="nonzero"/><use xlink:href="#g9F99202881449AD6C0CCCD21824C9AF1" x="11.784" y="0" fill="#1a1a18" fill-rule="nonzero"/><use xlink:href="#gE09E60C0AC8E2E10ADA02C2F49261352" x="15.208" y="0" fill="#1a1a18" fill-rule="nonzero"/><use xlink:href="#g362A412C7577377BE4D103B9E5EDCC22" x="20.768" y="0" fill="#1a1a18" fill-rule="nonzero"/><use xlink:href="#g5D01DA3AB390CB78D7E54204B7DC3F87" x="24.784" y="0" fill="#1a1a18" fill-rule="nonzero"/><use xlink:href="#gFF63DA2595F1651AF0C535BF803D9AEC" x="28.816" y="0" fill="#1a1a18" fill-rule="nonzero"/><use xlink:href="#g465CA45D0696F5BBCE5E7A11B5E63D98" x="33.032" y="0" fill="#1a1a18" fill-rule="nonzero"/><use xlink:href="#g1A9694FA4202677694E328AC46097BF3" x="36.608" y="0" fill="#1a1a18" fill-rule="nonzero"/><use xlink:href="#g362A412C7577377BE4D103B9E5EDCC22" x="40.92" y="0" fill="#1a1a18" fill-rule="nonzero"/><use xlink:href="#g5D01DA3AB390CB78D7E54204B7DC3F87" x="44.936" y="0" fill="#1a1a18" fill-rule="nonzero"/><use xlink:href="#gE4F86D8BE8C69EC1EB36B973594724AB" x="48.968" y="0" fill="#1a1a18" fill-rule="nonzero"/></g></g><path fill="none" stroke="#1a1a18" stroke-width="0.7" stroke-linecap="butt" stroke-linejoin="miter" stroke-miterlimit="4" transform="translate(121.88976378 62.362204724)" d="M 0 0l 87.219297156 29.073099052"/><path fill="#1a1a18" fill-rule="nonzero" stroke="#1a1a18" stroke-width="0.7" stroke-linecap="butt" stroke-linejoin="miter" stroke-miterlimit="4" transform="translate(208.436765591 89.418417973)" d="M 0 0m 6.050657275 3.809673113l -6.050657275 0.224098398l 1.344590518 -4.033771512l 4.706066757 3.809673113Z "/><path fill="#d5d2cb" fill-rule="nonzero" stroke="#1a1a18" stroke-width="0.6" stroke-linecap="butt" stroke-linejoin="miter" stroke-miterlimit="4" transform="translate(187.086614173 93.543307087)" d="M 0 0m 2.834645669 0c -1.564112126 0 -2.834645669 1.270533543 -2.834645669 2.834645669v 14.173228346c 0 1.564112126 1.270533543 2.834645669 2.834645669 2.834645669h 51.023622047c 1.564112126 0 2.834645669 -1.270533543 2.834645669 -2.834645669v -14.173228346c 0 -1.564112126 -1.270533543 -2.834645669 -2.834645669 -2.834645669h -51.023622047Z "/><path fill="none" transform="translate(187.985070866 99.896566929)" d="M 0 0h 54.896v 7.136h -54.896v -7.136Z "/><g transform="translate(187.98507085 99.896566819)"><g transform="matrix(1 0 0 -1 0 5.264)"><use xlink:href="#g362A412C7577377BE4D103B9E5EDCC22" x="0" y="0" fill="#1a1a18" fill-rule="nonzero"/><use xlink:href="#g5D01DA3AB390CB78D7E54204B7DC3F87" x="4.016" y="0" fill="#1a1a18" fill-rule="nonzero"/><use xlink:href="#g46DFAA35BC521B4F2378CE697B4B163E" x="8.048" y="0" fill="#1a1a18" fill-rule="nonzero"/><use xlink:href="#g5D01DA3AB390CB78D7E54204B7DC3F87" x="12.2" y="0" fill="#1a1a18" fill-rule="nonzero"/><use xlink:href="#gE09E60C0AC8E2E10ADA02C2F49261352" x="16.232" y="0" fill="#1a1a18" fill-rule="nonzero"/><use xlink:href="#g362A412C7577377BE4D103B9E5EDCC22" x="19.792" y="0" fill="#1a1a18" fill-rule="nonzero"/><use xlink:href="#gF79D9CC171E1ACC5162F855F1894F43E" x="23.808" y="0" fill="#1a1a18" fill-rule="nonzero"/><use xlink:href="#g3582D8D1264CABFCC073F09D45268688" x="27.464" y="0" fill="#1a1a18" fill-rule="nonzero"/><use xlink:href="#gE4F86D8BE8C69EC1EB36B973594724AB" x="33.312" y="0" fill="#1a1a18" fill-rule="nonzero"/><use xlink:href="#g5D01DA3AB390CB78D7E54204B7DC3F87" x="38.752" y="0" fill="#1a1a18" fill-rule="nonzero"/><use xlink:href="#g46DFAA35BC521B4F2378CE697B4B163E" x="42.784" y="0" fill="#1a1a18" fill-rule="nonzero"/><use xlink:href="#gAC00C34078948F83CC62D60B02C8E81A" x="46.936" y="0" fill="#1a1a18" fill-rule="nonzero"/><use xlink:href="#gF79D9CC171E1ACC5162F855F1894F43E" x="51.24" y="0" fill="#1a1a18" fill-rule="nonzero"/></g></g><path fill="none" transform="translate(56.55876378 128.020023622)" d="M 0 0h 130.662v 7.582h -130.662v -7.582Z "/><g transform="translate(56.55876378 128.020023496)"><g transform="matrix(1 0 0 -1 0 5.593)"><use xlink:href="#gE34E15A46C94CBC2E6ABE8844A1DDB21" x="0" y="0" fill="#7c7f6a" fill-rule="nonzero"/><use xlink:href="#gBAF1B227155053221F22F6E06EEFED60" x="4.284" y="0" fill="#7c7f6a" fill-rule="nonzero"/><use xlink:href="#gC8932C6BA7F518DC74E87E2F4A0224EB" x="8.857" y="0" fill="#7c7f6a" fill-rule="nonzero"/><use xlink:href="#gF931FC691828778A920607CF18B9C32A" x="13.838" y="0" fill="#7c7f6a" fill-rule="nonzero"/><use xlink:href="#gC26D3F211D19004242B24511D3AD00C1" x="19.8475" y="0" fill="#7c7f6a" fill-rule="nonzero"/><use xlink:href="#g430571653545A60A3EF6386D136EADA3" x="24.463" y="0" fill="#7c7f6a" fill-rule="nonzero"/><use xlink:href="#g2884EEE83F88BF741DF31D9C41AEE180" x="28.8745" y="0" fill="#7c7f6a" fill-rule="nonzero"/><use xlink:href="#gE827826F9D19F2B711A1B9BF40B9D8A0" x="33.252" y="0" fill="#7c7f6a" fill-rule="nonzero"/><use xlink:href="#gA501B866130BB2CA150759E9628F05FB" x="37.8335" y="0" fill="#7c7f6a" fill-rule="nonzero"/><use xlink:href="#gF931FC691828778A920607CF18B9C32A" x="42.1005" y="0" fill="#7c7f6a" fill-rule="nonzero"/><use xlink:href="#gEA9FE9240F1CF3627BE895C6AB7A7367" x="45.985" y="0" fill="#7c7f6a" fill-rule="nonzero"/><use xlink:href="#gCEE0DCDCB551765DCAE8D9A7DBD02279" x="52.7255" y="0" fill="#7c7f6a" fill-rule="nonzero"/><use xlink:href="#gA501B866130BB2CA150759E9628F05FB" x="64.4555" y="0" fill="#7c7f6a" fill-rule="nonzero"/><use xlink:href="#gF931FC691828778A920607CF18B9C32A" x="68.7225" y="0" fill="#7c7f6a" fill-rule="nonzero"/><use xlink:href="#g1EEFC323E4FEBE7654D5CC1583F61AF4" x="72.607" y="0" fill="#7c7f6a" fill-rule="nonzero"/><use xlink:href="#gA501B866130BB2CA150759E9628F05FB" x="76.245" y="0" fill="#7c7f6a" fill-rule="nonzero"/><use xlink:href="#gF931FC691828778A920607CF18B9C32A" x="80.512" y="0" fill="#7c7f6a" fill-rule="nonzero"/><use xlink:href="#gBAF1B227155053221F22F6E06EEFED60" x="84.3965" y="0" fill="#7c7f6a" fill-rule="nonzero"/><use xlink:href="#gBEE50160BCD570B38DEF46393A725EED" x="91.0945" y="0" fill="#7c7f6a" fill-rule="nonzero"/><use xlink:href="#g430571653545A60A3EF6386D136EADA3" x="96.0755" y="0" fill="#7c7f6a" fill-rule="nonzero"/><use xlink:href="#gE7AE90A8EDDEF3DDB67EE78D36D80337" x="100.487" y="0" fill="#7c7f6a" fill-rule="nonzero"/><use xlink:href="#g11CAB86DAD56BCA12FE1B0081452B59D" x="105.468" y="0" fill="#7c7f6a" fill-rule="nonzero"/><use xlink:href="#gC8932C6BA7F518DC74E87E2F4A0224EB" x="109.174" y="0" fill="#7c7f6a" fill-rule="nonzero"/><use xlink:href="#gF931FC691828778A920607CF18B9C32A" x="114.155" y="0" fill="#7c7f6a" fill-rule="nonzero"/><use xlink:href="#gA501B866130BB2CA150759E9628F05FB" x="118.0395" y="0" fill="#7c7f6a" fill-rule="nonzero"/><use xlink:href="#gE34E15A46C94CBC2E6ABE8844A1DDB21" x="122.3065" y="0" fill="#7c7f6a" fill-rule="nonzero"/><use xlink:href="#g3D9A67B9902CBFFCF1182D85B33DBA41" x="126.5905" y="0" fill="#7c7f6a" fill-rule="nonzero"/></g></g></g><defs><symbol id="g7253BD4F4A12C91ABC7B03558525FA66" overflow="visible"><path d="M 0 0m 0.369 1.845c 0 -0.918 0.612 -1.935 1.89 -1.935c 0.576 0 1.017 0.207 1.323 0.504c 0.405 0.396 0.585 0.963 0.585 1.512c 0 0.936 -0.513 2.025 -1.89 2.025c -0.594 0 -1.08 -0.243 -1.413 -0.63c -0.324 -0.387 -0.495 -0.909 -0.495 -1.476Z m 1.773 1.791c 0.774 0 1.251 -0.702 1.251 -1.998c 0 -1.134 -0.585 -1.413 -1.008 -1.413c -0.936 0 -1.242 1.134 -1.242 1.827c 0 0.783 0.189 1.584 0.999 1.584Z "/></symbol><symbol id="g611C332DF318E3AAFADBD04F1094DD79" overflow="visible"><path d="M 0 0m 1.638 1.098c 0 -0.747 -0.099 -0.792 -0.648 -0.819c -0.054 -0.054 -0.054 -0.243 0 -0.297c 0.351 0.009 0.711 0.018 1.008 0.018c 0.306 0 0.657 -0.009 0.999 -0.018c 0.054 0.054 0.054 0.243 0 0.297c -0.549 0.027 -0.648 0.072 -0.648 0.819v 2.43h 0.153c 0.729 0 0.873 -0.252 1.026 -0.981c 0.117 0 0.234 0.036 0.234 0.036c -0.054 0.414 -0.09 0.81 -0.099 1.332c -0.207 -0.018 -0.882 -0.054 -1.332 -0.054h -0.675c -0.45 0 -0.954 0.027 -1.314 0.054c -0.009 -0.522 -0.045 -0.918 -0.108 -1.332c 0 0 0.126 -0.036 0.243 -0.036c 0.153 0.729 0.288 0.981 1.026 0.981h 0.135Z "/></symbol><symbol id="g9C9C9262F30302871979B086E3504457" overflow="visible"><path d="M 0 0m 0.306 2.313c 0 -1.701 0.981 -2.403 1.854 -2.403c 1.233 0 1.944 0.918 1.944 2.052c 0 0.972 -0.54 1.989 -1.809 1.989c -0.855 0 -1.377 -0.504 -1.575 -0.936l -0.018 0.018c 0.036 0.468 0.18 1.044 0.315 1.278c 0.288 0.495 0.63 0.522 1.458 0.612c 0.81 0.09 1.386 0.351 1.467 1.359c -0.063 0.027 -0.126 0.036 -0.198 0c -0.072 -0.432 -0.549 -0.549 -1.305 -0.666c -0.729 -0.117 -1.341 -0.369 -1.719 -1.08c -0.324 -0.612 -0.414 -1.368 -0.414 -2.223Z m 0.774 -0.234c 0 0.504 0.18 1.557 1.116 1.557c 0.702 0 1.134 -0.81 1.134 -1.89c 0 -1.134 -0.522 -1.521 -1.008 -1.521c -0.657 0 -1.242 0.855 -1.242 1.854Z "/></symbol><symbol id="g4AD90A9068D018AD3CEC8FD5EA9519DC" overflow="visible"><path d="M 0 0m 1.404 3.312c -0.009 0.27 -0.027 0.504 -0.072 0.594c -0.018 0.045 -0.036 0.072 -0.108 0.072c -0.252 -0.099 -0.486 -0.18 -1.107 -0.261c -0.018 -0.054 0 -0.198 0.018 -0.252c 0.486 -0.045 0.585 -0.09 0.585 -0.612v -3.843c 0 -0.747 -0.099 -0.792 -0.648 -0.819c -0.054 -0.054 -0.054 -0.243 0 -0.297c 0.315 0.009 0.648 0.018 1.008 0.018c 0.36 0 0.792 -0.009 1.089 -0.018c 0.054 0.054 0.054 0.243 0 0.297c -0.639 0.036 -0.738 0.072 -0.738 0.819v 0.972c 0 0.117 0.036 0.108 0.126 0.072c 0.225 -0.09 0.495 -0.144 0.783 -0.144c 0.504 0 0.954 0.153 1.323 0.504c 0.423 0.414 0.666 0.972 0.666 1.701c 0 0.954 -0.675 1.836 -1.593 1.836c -0.414 0 -0.873 -0.27 -1.233 -0.675c -0.054 -0.054 -0.09 -0.054 -0.099 0.036Z m 0.171 -0.333c 0.234 0.288 0.648 0.558 0.909 0.558c 0.576 0 1.071 -0.648 1.071 -1.665c 0 -0.738 -0.261 -1.656 -1.269 -1.656c -0.162 0 -0.477 0.045 -0.639 0.189c -0.18 0.162 -0.216 0.216 -0.216 0.54v 1.638c 0 0.189 0.036 0.27 0.144 0.396Z "/></symbol><symbol id="gA5834380700F55B3689219A2CC4667E3" overflow="visible"><path d="M 0 0m 3.933 3.861h -2.556c -0.36 0 -0.702 0.009 -0.972 0.018c -0.054 -0.054 -0.054 -0.243 0 -0.297c 0.495 -0.036 0.612 -0.081 0.612 -0.819v -1.665c 0 -0.738 -0.117 -0.783 -0.702 -0.819c -0.054 -0.054 -0.054 -0.243 0 -0.297c 0.27 0.009 0.702 0.018 1.062 0.018c 0.36 0 0.63 -0.009 0.9 -0.018c 0.054 0.054 0.054 0.243 0 0.297c -0.459 0.045 -0.549 0.081 -0.549 0.819v 1.953c 0 0.279 0.027 0.459 0.378 0.459h 1.089c 0.333 0 0.387 -0.099 0.387 -0.459v -1.953c 0 -0.738 -0.09 -0.783 -0.558 -0.819c -0.045 -0.054 -0.045 -0.243 0 -0.297c 0.225 0.009 0.558 0.018 0.918 0.018c 0.36 0 0.765 -0.009 1.017 -0.018c 0.045 0.054 0.045 0.243 0 0.297c -0.585 0.036 -0.666 0.081 -0.666 0.819v 1.665c 0 0.738 0.117 0.783 0.612 0.819c 0.054 0.054 0.054 0.243 0 0.297c -0.27 -0.009 -0.612 -0.018 -0.972 -0.018Z "/></symbol><symbol id="gBA3E9C2E61A84E296B252679103E17C4" overflow="visible"><path d="M 0 0m 1.701 3.861c -0.297 0 -0.648 0.009 -0.918 0.018c -0.054 -0.054 -0.054 -0.243 0 -0.297c 0.549 -0.045 0.711 -0.081 0.675 -0.828c -0.036 -0.828 -0.18 -1.494 -0.333 -2.124c -0.054 -0.243 -0.315 -0.324 -0.567 -0.351c -0.135 -0.018 -0.261 -0.072 -0.27 -0.234l -0.054 -1.197c 0.063 -0.027 0.135 -0.036 0.243 -0.009c 0.081 0.333 0.324 1.161 1.134 1.161h 1.557c 0.801 0 1.062 -0.81 1.143 -1.17c 0.081 -0.018 0.162 -0.018 0.252 0.018l -0.054 1.206c 0 0.126 -0.072 0.198 -0.243 0.225c -0.162 0.027 -0.387 0.09 -0.387 0.423v 2.061c 0 0.738 0.117 0.783 0.612 0.819c 0.054 0.054 0.054 0.243 0 0.297c -0.27 -0.009 -0.612 -0.018 -0.972 -0.018Z m -0.252 -3.402c 0 0.153 0.243 0.747 0.378 2.808c 0.009 0.135 0.072 0.252 0.315 0.252h 0.621c 0.36 0 0.405 -0.252 0.405 -0.558v -2.169c 0 -0.297 -0.018 -0.441 -0.378 -0.441h -1.161c -0.099 0 -0.18 0.009 -0.18 0.108Z "/></symbol><symbol id="gFFF6E9B9A983FEBF7FB8DCFB305974E9" overflow="visible"><path d="M 0 0m 1.836 -1.44c 0.144 0.252 0.261 0.504 0.369 0.774c 0.72 1.737 1.125 2.664 1.593 3.672c 0.18 0.378 0.306 0.522 0.729 0.576c 0.054 0.054 0.054 0.243 0 0.297c -0.18 -0.009 -0.387 -0.018 -0.639 -0.018c -0.27 0 -0.549 0.009 -0.819 0.018c -0.054 -0.054 -0.054 -0.243 0 -0.297c 0.288 -0.027 0.576 -0.081 0.432 -0.405l -0.891 -2.061c -0.063 -0.144 -0.144 -0.171 -0.216 0.009l -0.801 1.872c -0.162 0.378 -0.207 0.549 0.297 0.585c 0.054 0.054 0.054 0.243 0 0.297c -0.333 -0.009 -0.693 -0.018 -1.017 -0.018c -0.306 0 -0.549 0.009 -0.729 0.018c -0.054 -0.054 -0.054 -0.243 0 -0.297c 0.36 -0.045 0.477 -0.126 0.711 -0.675l 1.017 -2.367c 0.081 -0.18 0.216 -0.594 0.126 -0.846c -0.108 -0.297 -0.216 -0.549 -0.351 -0.828c -0.099 -0.18 -0.225 -0.261 -0.45 -0.261c -0.126 0 -0.162 0.027 -0.261 0.027c -0.261 0 -0.396 -0.27 -0.396 -0.387c 0 -0.189 0.18 -0.333 0.423 -0.333c 0.189 0 0.549 0.072 0.873 0.648Z "/></symbol><symbol id="gF4C3A83C3E99EE3A06E5D4EEABB5C2D5" overflow="visible"><path d="M 0 0m 0.981 0c 0.18 0.009 0.333 0.216 0.45 0.459l 0.387 0.81c 0.162 0.333 0.414 0.576 1.026 0.612v -0.783c 0 -0.747 -0.108 -0.774 -0.567 -0.819c -0.054 -0.054 -0.054 -0.243 0 -0.297c 0.207 0.009 0.54 0.018 0.9 0.018c 0.351 0 0.693 -0.009 0.891 -0.018c 0.054 0.054 0.054 0.243 0 0.297c -0.459 0.036 -0.567 0.072 -0.567 0.819v 0.783c 0.612 -0.036 0.864 -0.279 1.026 -0.612l 0.387 -0.81c 0.117 -0.243 0.27 -0.45 0.45 -0.459c 0 0 0.666 -0.009 0.846 -0.018c 0.054 0.054 0.054 0.243 0 0.297c -0.351 0.018 -0.441 0.09 -0.594 0.378l -0.405 0.765c -0.225 0.423 -0.522 0.639 -1.035 0.639v 0.027c 0.351 0.099 0.504 0.414 0.639 0.774c 0.108 0.279 0.216 0.45 0.405 0.45c 0.081 0 0.153 -0.027 0.207 -0.063c 0.054 -0.036 0.153 -0.063 0.27 -0.063c 0.198 0 0.36 0.171 0.36 0.351c 0 0.198 -0.216 0.405 -0.513 0.405c -0.522 0 -0.765 -0.486 -0.936 -0.909c -0.198 -0.495 -0.468 -0.837 -1.107 -0.837v 0.567c 0 0.747 0.108 0.774 0.567 0.819c 0.054 0.054 0.054 0.243 0 0.297c -0.216 -0.009 -0.54 -0.018 -0.9 -0.018c -0.351 0 -0.684 0.009 -0.891 0.018c -0.054 -0.054 -0.054 -0.243 0 -0.297c 0.459 -0.036 0.567 -0.072 0.567 -0.819v -0.567c -0.639 0 -0.909 0.342 -1.107 0.837c -0.171 0.423 -0.414 0.909 -0.936 0.909c -0.297 0 -0.513 -0.207 -0.513 -0.405c 0 -0.18 0.162 -0.351 0.36 -0.351c 0.117 0 0.216 0.027 0.27 0.063c 0.054 0.036 0.126 0.063 0.207 0.063c 0.189 0 0.297 -0.171 0.405 -0.45c 0.135 -0.36 0.288 -0.675 0.639 -0.774v -0.027c -0.513 0 -0.81 -0.216 -1.035 -0.639l -0.405 -0.765c -0.153 -0.288 -0.243 -0.36 -0.594 -0.378c -0.054 -0.054 -0.054 -0.243 0 -0.297c 0.18 0.009 0.846 0.018 0.846 0.018Z "/></symbol><symbol id="gD351E21AD091924D522A6D2D6355C932" overflow="visible"><path d="M 0 0m 3.474 0.837c -0.333 -0.342 -0.594 -0.486 -1.116 -0.486c -0.324 0 -0.702 0.189 -0.981 0.648c -0.18 0.297 -0.288 0.711 -0.288 1.233l 2.394 -0.018c 0.108 0 0.171 0.054 0.171 0.153c 0 0.756 -0.27 1.566 -1.521 1.566c -0.783 0 -1.8 -0.747 -1.8 -2.115c 0 -0.504 0.126 -0.99 0.423 -1.332c 0.306 -0.36 0.729 -0.576 1.377 -0.576c 0.684 0 1.17 0.315 1.53 0.783c -0.027 0.09 -0.081 0.135 -0.189 0.144Z m -2.358 1.701c 0.171 1.017 0.801 1.098 1.017 1.098c 0.342 0 0.747 -0.189 0.747 -0.945c 0 -0.081 -0.036 -0.126 -0.135 -0.126Z "/></symbol><symbol id="gB118266EF18AECCCCEF724ECE6F3D1D3" overflow="visible"><path d="M 0 0m 3.762 1.098v 1.665c 0 0.738 0.117 0.783 0.612 0.819c 0.054 0.054 0.054 0.243 0 0.297c -0.27 -0.009 -0.612 -0.018 -0.972 -0.018h -1.701c -0.297 0 -0.648 0.009 -0.918 0.018c -0.054 -0.054 -0.054 -0.243 0 -0.297c 0.639 -0.045 0.729 -0.099 0.729 -1.071c 0 -0.945 -0.072 -1.44 -0.198 -1.809c -0.117 -0.324 -0.27 -0.441 -0.423 -0.441c -0.117 0 -0.153 0.072 -0.171 0.189c -0.027 0.171 -0.081 0.342 -0.333 0.342c -0.225 0 -0.351 -0.18 -0.351 -0.378c 0 -0.279 0.252 -0.522 0.666 -0.522c 0.459 0 0.711 0.234 0.918 0.72c 0.18 0.432 0.234 1.35 0.234 1.962c 0 0.702 0.027 0.936 0.387 0.936h 0.405c 0.342 0 0.405 -0.216 0.405 -0.522v -1.89c 0 -0.738 -0.09 -0.783 -0.558 -0.819c -0.045 -0.054 -0.045 -0.243 0 -0.297c 0.225 0.009 0.558 0.018 0.918 0.018c 0.36 0 0.765 -0.009 1.017 -0.018c 0.045 0.054 0.045 0.243 0 0.297c -0.585 0.036 -0.666 0.081 -0.666 0.819Z "/></symbol><symbol id="gE910E7524AAA5201D690B7EBF26D2697" overflow="visible"><path d="M 0 0m 1.674 2.133v 0.63c 0 0.747 0.099 0.774 0.648 0.819c 0.054 0.054 0.054 0.243 0 0.297c -0.306 -0.009 -0.612 -0.018 -1.008 -0.018c -0.387 0 -0.702 0.009 -0.999 0.018c -0.054 -0.054 -0.054 -0.243 0 -0.297c 0.549 -0.036 0.648 -0.072 0.648 -0.819v -1.665c 0 -0.747 -0.099 -0.774 -0.648 -0.819c -0.054 -0.054 -0.054 -0.243 0 -0.297c 0.297 0.009 0.612 0.018 1.008 0.018c 0.387 0 0.711 -0.009 0.999 -0.018c 0.054 0.054 0.054 0.243 0 0.297c -0.549 0.036 -0.648 0.072 -0.648 0.819v 0.684h 0.927c 0.018 -0.909 0.585 -1.872 1.8 -1.872c 1.323 0 1.818 1.143 1.818 2.043c 0 0.936 -0.441 1.998 -1.809 1.998c -1.089 0 -1.701 -0.747 -1.8 -1.818Z m 2.646 1.503c 0.738 0 1.125 -0.657 1.125 -1.971c 0 -1.188 -0.495 -1.44 -0.882 -1.44c -0.891 0 -1.188 1.116 -1.188 1.809c 0 0.783 0.243 1.602 0.945 1.602Z "/></symbol><symbol id="g6EA5A1981697E2B5E95285C58F7F7AD0" overflow="visible"><path d="M 0 0m 1.782 0.567c -0.027 0 -0.063 0.018 -0.063 0.108v 2.052c 0 0.747 0.189 0.828 0.648 0.855c 0.054 0.054 0.054 0.243 0 0.297c -0.207 -0.009 -0.72 -0.018 -1.053 -0.018c -0.297 0 -0.657 0.009 -0.999 0.018c -0.054 -0.054 -0.054 -0.243 0 -0.297c 0.549 -0.027 0.693 -0.108 0.693 -0.855v -1.593c 0 -0.747 -0.144 -0.828 -0.693 -0.855c -0.054 -0.054 -0.054 -0.243 0 -0.297c 0.351 0.009 0.711 0.018 0.999 0.018c 0.207 0 0.45 -0.009 0.549 -0.018c 0.045 0.126 0.126 0.306 0.225 0.486l 1.404 2.817c 0.027 0 0.063 -0.018 0.063 -0.108v -2.043c 0 -0.747 -0.189 -0.828 -0.648 -0.855c -0.054 -0.054 -0.054 -0.243 0 -0.297c 0.207 0.009 0.693 0.018 1.053 0.018c 0.279 0 0.648 -0.009 0.999 -0.018c 0.054 0.054 0.054 0.243 0 0.297c -0.549 0.027 -0.693 0.108 -0.693 0.855v 1.593c 0 0.747 0.144 0.828 0.693 0.855c 0.054 0.054 0.054 0.243 0 0.297c -0.36 -0.009 -0.72 -0.018 -0.999 -0.018c -0.198 0 -0.45 0.009 -0.54 0.018c -0.072 -0.162 -0.153 -0.351 -0.234 -0.504Z "/></symbol><symbol id="g4AE5337A4A3FF09E9A9AF89B4B83FC9D" overflow="visible"><path d="M 0 0m 1.674 2.763c 0 0.513 0.063 0.747 0.378 0.747h 0.198c 0.738 0 0.954 -0.513 1.08 -1.035c 0.099 -0.009 0.189 0 0.261 0.036c -0.036 0.477 -0.063 0.873 -0.117 1.35l -0.018 0.018c 0 0 -0.72 -0.018 -1.008 -0.018h -1.134c -0.387 0 -0.702 0.009 -0.999 0.018c -0.054 -0.054 -0.054 -0.243 0 -0.297c 0.549 -0.036 0.648 -0.072 0.648 -0.819v -1.665c 0 -0.747 -0.099 -0.774 -0.648 -0.819c -0.054 -0.054 -0.054 -0.243 0 -0.297c 0.297 0.009 0.612 0.018 1.008 0.018c 0.387 0 0.711 -0.009 0.999 -0.018c 0.054 0.054 0.054 0.243 0 0.297c -0.549 0.036 -0.648 0.072 -0.648 0.819Z "/></symbol><symbol id="g82C799C01D06EF19E125C6F4348D75CA" overflow="visible"><path d="M 0 0m 1.053 2.754l -0.054 -1.674c -0.027 -0.756 -0.162 -0.774 -0.684 -0.801c -0.054 -0.054 -0.054 -0.243 0 -0.297c 0.18 0.009 0.63 0.018 0.774 0.018c 0.18 0 0.603 -0.009 0.783 -0.018c 0.054 0.054 0.054 0.243 0 0.297c -0.513 0.036 -0.549 0.126 -0.531 0.801l 0.063 2.205c 0 0.081 0.036 0.081 0.072 0l 1.305 -3.186c 0.036 -0.027 0.072 -0.027 0.099 0l 1.476 3.177c 0.045 0.099 0.09 0.108 0.09 0l -0.009 -2.178c 0 -0.747 -0.063 -0.774 -0.612 -0.819c -0.054 -0.054 -0.054 -0.243 0 -0.297c 0.324 0.009 0.657 0.018 0.972 0.018c 0.27 0 0.657 -0.009 1.008 -0.018c 0.054 0.054 0.054 0.243 0 0.297c -0.549 0.036 -0.648 0.072 -0.648 0.819l -0.018 1.665c -0.009 0.747 0.099 0.774 0.648 0.819c 0.054 0.054 0.054 0.243 0 0.297c -0.315 -0.018 -1.188 -0.018 -1.485 -0.018l -1.197 -2.574l -0.045 -0.09l -0.036 0.09l -1.053 2.574c -0.297 0 -1.251 0 -1.566 0.018c -0.054 -0.054 -0.054 -0.243 0 -0.297c 0.549 -0.045 0.675 -0.081 0.648 -0.828Z "/></symbol><symbol id="g5F2B105DCE44482CD07DFE0B4651B637" overflow="visible"><path d="M 0 0m 4.311 2.763c 0 0.747 0.099 0.774 0.648 0.819c 0.054 0.054 0.054 0.243 0 0.297c -0.315 -0.018 -0.711 -0.018 -1.008 -0.018c -0.252 0 -0.612 0.009 -0.963 0.018c -0.054 -0.054 -0.054 -0.243 0 -0.297c 0.549 -0.036 0.612 -0.072 0.612 -0.819v -0.585h -1.926v 0.585c 0 0.747 0.063 0.774 0.612 0.819c 0.054 0.054 0.054 0.243 0 0.297c -0.342 -0.009 -0.684 -0.018 -0.972 -0.018c -0.27 0 -0.639 0.009 -0.999 0.018c -0.054 -0.054 -0.054 -0.243 0 -0.297c 0.549 -0.036 0.648 -0.072 0.648 -0.819v -1.665c 0 -0.747 -0.099 -0.774 -0.648 -0.819c -0.054 -0.054 -0.054 -0.243 0 -0.297c 0.36 0.009 0.72 0.018 1.008 0.018c 0.288 0 0.639 -0.009 0.963 -0.018c 0.054 0.054 0.054 0.243 0 0.297c -0.549 0.036 -0.612 0.072 -0.612 0.819v 0.783h 1.926v -0.783c 0 -0.747 -0.063 -0.774 -0.612 -0.819c -0.054 -0.054 -0.054 -0.243 0 -0.297c 0.324 0.009 0.657 0.018 0.972 0.018c 0.27 0 0.648 -0.009 0.999 -0.018c 0.054 0.054 0.054 0.243 0 0.297c -0.549 0.036 -0.648 0.072 -0.648 0.819Z "/></symbol><symbol id="g5CCD3C35BE7C263075DDDC3F0C06DEE6" overflow="visible"><path d="M 0 0m 1.674 2.754c 0 0.756 0.099 0.783 0.648 0.828c 0.054 0.054 0.054 0.243 0 0.297c -0.306 -0.009 -0.612 -0.018 -1.008 -0.018c -0.387 0 -0.702 0.009 -0.999 0.018c -0.054 -0.054 -0.054 -0.243 0 -0.297c 0.549 -0.036 0.648 -0.072 0.648 -0.819v -1.665c 0 -0.747 -0.099 -0.774 -0.648 -0.819c -0.054 -0.054 -0.054 -0.243 0 -0.297c 0.297 0.009 0.612 0.018 1.008 0.018c 0.369 0 0.567 -0.018 0.936 -0.018c 1.107 0 1.71 0.279 1.71 1.242c 0 0.846 -0.738 1.089 -1.647 1.089h -0.648Z m 3.879 0.009c 0 0.747 0.099 0.774 0.648 0.819c 0.054 0.054 0.054 0.243 0 0.297c -0.306 -0.009 -0.612 -0.018 -1.008 -0.018c -0.387 0 -0.702 0.009 -0.999 0.018c -0.054 -0.054 -0.054 -0.243 0 -0.297c 0.549 -0.036 0.648 -0.072 0.648 -0.819v -1.665c 0 -0.747 -0.099 -0.774 -0.648 -0.819c -0.054 -0.054 -0.054 -0.243 0 -0.297c 0.297 0.009 0.612 0.018 1.008 0.018c 0.387 0 0.711 -0.009 0.999 -0.018c 0.054 0.054 0.054 0.243 0 0.297c -0.549 0.036 -0.648 0.072 -0.648 0.819Z m -2.358 -1.629c 0 -0.738 -0.45 -0.855 -0.927 -0.855c -0.441 0 -0.594 0.09 -0.594 0.405v 1.332h 0.639c 0.675 0 0.882 -0.405 0.882 -0.882Z "/></symbol><symbol id="g7815E2C79248546AAEE49EC7F57ADD4E" overflow="visible"><path d="M 0 0m 3.582 0.819c -0.036 0.081 -0.108 0.117 -0.189 0.126c -0.306 -0.396 -0.693 -0.594 -1.08 -0.594c -0.657 0 -1.206 0.666 -1.206 1.719c 0 0.99 0.432 1.584 1.026 1.584c 0.531 0 0.603 -0.315 0.639 -0.63c 0.027 -0.243 0.153 -0.324 0.342 -0.324c 0.189 0 0.441 0.117 0.441 0.396c 0 0.495 -0.513 0.855 -1.377 0.855c -0.891 0 -1.845 -0.801 -1.845 -2.079c 0 -1.161 0.648 -1.962 1.782 -1.962c 0.54 0 1.017 0.171 1.467 0.909Z "/></symbol><symbol id="gF7AD5B3248F8366898BA115B8D318C4E" overflow="visible"><path d="M 0 0m 2.637 0.432c 0.054 -0.279 0.153 -0.522 0.603 -0.522c 0.342 0 0.666 0.153 0.855 0.333c -0.018 0.108 -0.054 0.189 -0.153 0.243c -0.063 -0.054 -0.216 -0.144 -0.333 -0.144c -0.261 0 -0.27 0.351 -0.27 0.765v 1.323c 0 1.278 -0.702 1.521 -1.359 1.521c -0.738 0 -1.485 -0.486 -1.485 -0.999c 0 -0.216 0.108 -0.324 0.315 -0.324c 0.261 0 0.423 0.189 0.423 0.306c 0 0.063 -0.009 0.126 -0.027 0.162c -0.009 0.027 -0.018 0.081 -0.018 0.18c 0 0.279 0.378 0.378 0.72 0.378c 0.306 0 0.729 -0.153 0.729 -1.17c 0 -0.063 -0.027 -0.099 -0.054 -0.108l -0.774 -0.189c -0.864 -0.216 -1.485 -0.693 -1.485 -1.305c 0 -0.738 0.504 -0.972 1.134 -0.972c 0.315 0 0.585 0.072 0.981 0.378l 0.18 0.144Z m 0 1.665v -1.188c 0 -0.117 -0.054 -0.18 -0.126 -0.234c -0.234 -0.189 -0.54 -0.396 -0.792 -0.396c -0.45 0 -0.648 0.36 -0.648 0.639c 0 0.405 0.189 0.819 0.855 0.99Z "/></symbol><symbol id="g7B39ADD258F5FAFD9040ED7495777E94" overflow="visible"><path d="M 0 0m 0.441 -0.117c 0.873 -0.774 1.377 -1.503 1.53 -1.944h 0.207c 0.396 0.972 1.548 1.944 1.557 1.944v 0.36c -0.756 -0.351 -1.17 -0.72 -1.413 -1.017v 7.83h -0.468v -7.83c -0.279 0.288 -0.765 0.729 -1.413 0.999Z "/></symbol><symbol id="gE9BB349F7E32C39203BC6B218DF12838" overflow="visible"><path d="M 0 0m 1.168 3.432c -0.344 0 -0.624 0.008 -0.888 0.016c -0.048 -0.048 -0.048 -0.216 0 -0.264c 0.488 -0.032 0.576 -0.064 0.576 -0.728v -1.48c 0 -0.664 -0.088 -0.688 -0.576 -0.728c -0.048 -0.048 -0.048 -0.216 0 -0.264c 0.264 0.008 0.544 0.016 0.896 0.016c 0.296 0 0.56 -0.016 1.096 -0.016c 0.688 0 1.208 0.192 1.208 0.984c 0 0.448 -0.28 0.76 -0.768 0.848v 0.024c 0.368 0.072 0.648 0.328 0.648 0.808c 0 0.56 -0.344 0.8 -1.312 0.8c -0.328 0 -0.536 -0.016 -0.88 -0.016Z m 0.32 -1.696h 0.608c 0.488 0 0.696 -0.32 0.696 -0.8c 0 -0.536 -0.304 -0.688 -0.736 -0.688c -0.416 0 -0.568 0.072 -0.568 0.44Z m 0 0.232v 0.928c 0 0.24 0.184 0.288 0.568 0.288c 0.416 0 0.664 -0.112 0.664 -0.592c 0 -0.32 -0.208 -0.624 -0.704 -0.624Z "/></symbol><symbol id="gDF0740817C60D01D4C0A2F901DD857A7" overflow="visible"><path d="M 0 0m 1.584 0.504c -0.024 0 -0.056 0.016 -0.056 0.096v 1.824c 0 0.664 0.168 0.736 0.576 0.76c 0.048 0.048 0.048 0.216 0 0.264c -0.184 -0.008 -0.64 -0.016 -0.936 -0.016c -0.264 0 -0.584 0.008 -0.888 0.016c -0.048 -0.048 -0.048 -0.216 0 -0.264c 0.488 -0.024 0.616 -0.096 0.616 -0.76v -1.416c 0 -0.664 -0.128 -0.736 -0.616 -0.76c -0.048 -0.048 -0.048 -0.216 0 -0.264c 0.312 0.008 0.632 0.016 0.888 0.016c 0.184 0 0.4 -0.008 0.488 -0.016c 0.04 0.112 0.112 0.272 0.2 0.432l 1.248 2.504c 0.024 0 0.056 -0.016 0.056 -0.096v -1.816c 0 -0.664 -0.168 -0.736 -0.576 -0.76c -0.048 -0.048 -0.048 -0.216 0 -0.264c 0.184 0.008 0.616 0.016 0.936 0.016c 0.248 0 0.576 -0.008 0.888 -0.016c 0.048 0.048 0.048 0.216 0 0.264c -0.488 0.024 -0.616 0.096 -0.616 0.76v 1.416c 0 0.664 0.128 0.736 0.616 0.76c 0.048 0.048 0.048 0.216 0 0.264c -0.32 -0.008 -0.64 -0.016 -0.888 -0.016c -0.176 0 -0.4 0.008 -0.48 0.016c -0.064 -0.144 -0.136 -0.312 -0.208 -0.448Z "/></symbol><symbol id="g9F99202881449AD6C0CCCD21824C9AF1" overflow="visible"><path d="M 0 0m 3.184 0.728c -0.032 0.072 -0.096 0.104 -0.168 0.112c -0.272 -0.352 -0.616 -0.528 -0.96 -0.528c -0.584 0 -1.072 0.592 -1.072 1.528c 0 0.88 0.384 1.408 0.912 1.408c 0.472 0 0.536 -0.28 0.568 -0.56c 0.024 -0.216 0.136 -0.288 0.304 -0.288c 0.168 0 0.392 0.104 0.392 0.352c 0 0.44 -0.456 0.76 -1.224 0.76c -0.792 0 -1.64 -0.712 -1.64 -1.848c 0 -1.032 0.576 -1.744 1.584 -1.744c 0.48 0 0.904 0.152 1.304 0.808Z "/></symbol><symbol id="g3582D8D1264CABFCC073F09D45268688" overflow="visible"><path d="M 0 0m 0.912 0c 0.224 0.008 0.304 0.216 0.4 0.504c 0.208 0.632 0.44 1.024 0.84 1.024h 0.208v -0.552c 0 -0.664 -0.088 -0.688 -0.576 -0.728c -0.048 -0.048 -0.048 -0.216 0 -0.264c 0.264 0.008 0.544 0.016 0.896 0.016c 0.344 0 0.632 -0.008 0.888 -0.016c 0.048 0.048 0.048 0.216 0 0.264c -0.488 0.032 -0.576 0.064 -0.576 0.728v 1.48c 0 0.664 0.088 0.688 0.576 0.728c 0.048 0.048 0.048 0.216 0 0.264c -0.272 -0.008 -0.544 -0.016 -0.896 -0.016c -0.272 0 -0.504 0.016 -0.704 0.016c -1.4 0 -1.52 -0.576 -1.52 -1.008c 0 -0.52 0.4 -0.784 0.992 -0.808c 0.024 0 0.024 -0.024 0.016 -0.032c -0.304 -0.088 -0.44 -0.256 -0.576 -0.552c -0.088 -0.184 -0.16 -0.36 -0.2 -0.464c -0.104 -0.272 -0.24 -0.32 -0.552 -0.336c -0.048 -0.048 -0.048 -0.216 0 -0.264c 0.16 0.008 0.784 0.016 0.784 0.016Z m 0.224 2.568c 0 0.376 0.12 0.616 0.768 0.616c 0.328 0 0.456 -0.144 0.456 -0.448v -0.936h -0.56c -0.48 0 -0.664 0.368 -0.664 0.768Z "/></symbol><symbol id="g1A9694FA4202677694E328AC46097BF3" overflow="visible"><path d="M 0 0m 1.296 2.456c 0 0.664 0.088 0.688 0.496 0.728c 0.048 0.048 0.048 0.216 0 0.264c -0.192 -0.008 -0.496 -0.016 -0.816 -0.016c -0.344 0 -0.616 0.008 -0.88 0.016c -0.048 -0.048 -0.048 -0.216 0 -0.264c 0.488 -0.032 0.576 -0.064 0.576 -0.728v -0.344c 0 -0.752 0.168 -1.048 0.912 -1.048c 0.504 0 0.904 0.288 1.232 0.528v -0.616c 0 -0.664 -0.088 -0.688 -0.576 -0.728c -0.048 -0.048 -0.048 -0.216 0 -0.264c 0.264 0.008 0.544 0.016 0.896 0.016c 0.344 0 0.64 -0.008 0.896 -0.016c 0.048 0.048 0.048 0.216 0 0.264c -0.488 0.032 -0.576 0.064 -0.576 0.728v 1.48c 0 0.664 0.088 0.688 0.576 0.728c 0.048 0.048 0.048 0.216 0 0.264c -0.272 -0.008 -0.544 -0.016 -0.896 -0.016c -0.312 0 -0.632 0.008 -0.816 0.016c -0.048 -0.048 -0.048 -0.216 0 -0.264c 0.408 -0.032 0.496 -0.064 0.496 -0.728v -0.576c -0.272 -0.24 -0.56 -0.456 -0.976 -0.456c -0.52 0 -0.544 0.272 -0.544 0.896Z "/></symbol><symbol id="g465CA45D0696F5BBCE5E7A11B5E63D98" overflow="visible"><path d="M 0 0m 3.088 0.744c -0.296 -0.304 -0.528 -0.432 -0.992 -0.432c -0.288 0 -0.624 0.168 -0.872 0.576c -0.16 0.264 -0.256 0.632 -0.256 1.096l 2.128 -0.016c 0.096 0 0.152 0.048 0.152 0.136c 0 0.672 -0.24 1.392 -1.352 1.392c -0.696 0 -1.6 -0.664 -1.6 -1.88c 0 -0.448 0.112 -0.88 0.376 -1.184c 0.272 -0.32 0.648 -0.512 1.224 -0.512c 0.608 0 1.04 0.28 1.36 0.696c -0.024 0.08 -0.072 0.12 -0.168 0.128Z m -2.096 1.512c 0.152 0.904 0.712 0.976 0.904 0.976c 0.304 0 0.664 -0.168 0.664 -0.84c 0 -0.072 -0.032 -0.112 -0.12 -0.112Z "/></symbol><symbol id="g89E7AED93332C4356E163D20D023452" overflow="visible"><path d="M 0 0m 1.632 -1.28c 0.128 0.224 0.232 0.448 0.328 0.688c 0.64 1.544 1 2.368 1.416 3.264c 0.16 0.336 0.272 0.464 0.648 0.512c 0.048 0.048 0.048 0.216 0 0.264c -0.16 -0.008 -0.344 -0.016 -0.568 -0.016c -0.24 0 -0.488 0.008 -0.728 0.016c -0.048 -0.048 -0.048 -0.216 0 -0.264c 0.256 -0.024 0.512 -0.072 0.384 -0.36l -0.792 -1.832c -0.056 -0.128 -0.128 -0.152 -0.192 0.008l -0.712 1.664c -0.144 0.336 -0.184 0.488 0.264 0.52c 0.048 0.048 0.048 0.216 0 0.264c -0.296 -0.008 -0.616 -0.016 -0.904 -0.016c -0.272 0 -0.488 0.008 -0.648 0.016c -0.048 -0.048 -0.048 -0.216 0 -0.264c 0.32 -0.04 0.424 -0.112 0.632 -0.6l 0.904 -2.104c 0.072 -0.16 0.192 -0.528 0.112 -0.752c -0.096 -0.264 -0.192 -0.488 -0.312 -0.736c -0.088 -0.16 -0.2 -0.232 -0.4 -0.232c -0.112 0 -0.144 0.024 -0.232 0.024c -0.232 0 -0.352 -0.24 -0.352 -0.344c 0 -0.168 0.16 -0.296 0.376 -0.296c 0.168 0 0.488 0.064 0.776 0.576Z "/></symbol><symbol id="g7FEC4917393F0C2A72D87F7F150D50F" overflow="visible"><path d="M 0 0m 5.968 0.976v 1.48c 0 0.656 0.104 0.696 0.544 0.728c 0.048 0.048 0.048 0.216 0 0.264c -0.24 -0.008 -0.544 -0.016 -0.864 -0.016c -0.32 0 -0.56 0.008 -0.8 0.016c -0.048 -0.048 -0.048 -0.216 0 -0.264c 0.408 -0.04 0.488 -0.072 0.488 -0.728v -1.736c 0 -0.248 -0.024 -0.408 -0.336 -0.408h -0.944c -0.24 0 -0.344 0.072 -0.344 0.408v 1.736c 0.008 0.656 0.064 0.696 0.496 0.728c 0.04 0.048 0.04 0.216 0 0.264c -0.2 -0.008 -0.496 -0.016 -0.816 -0.016c -0.32 0 -0.584 0.008 -0.784 0.016c -0.04 -0.048 -0.04 -0.216 0 -0.264c 0.4 -0.032 0.48 -0.072 0.472 -0.728v -1.744c 0 -0.296 -0.04 -0.4 -0.336 -0.4h -0.912c -0.296 0 -0.344 0.088 -0.344 0.408v 1.736c 0 0.656 0.08 0.696 0.496 0.728c 0.04 0.048 0.04 0.216 0 0.264c -0.2 -0.008 -0.496 -0.016 -0.816 -0.016c -0.32 0 -0.6 0.008 -0.824 0.016c -0.04 -0.048 -0.04 -0.216 0 -0.264c 0.44 -0.032 0.512 -0.072 0.512 -0.728v -1.48c 0 -0.656 -0.104 -0.696 -0.544 -0.728c -0.048 -0.048 -0.048 -0.216 0 -0.264c 0.24 0.008 0.544 0.016 0.864 0.016h 4.472c 0.32 0 0.624 -0.008 0.864 -0.016c 0.048 0.048 0.048 0.216 0 0.264c -0.44 0.032 -0.544 0.072 -0.544 0.728Z "/></symbol><symbol id="gDFD38EC9906BA626C5B7E69A103C103" overflow="visible"><path d="M 0 0m 0.272 2.056c 0 -1.512 0.872 -2.136 1.648 -2.136c 1.096 0 1.728 0.816 1.728 1.824c 0 0.864 -0.48 1.768 -1.608 1.768c -0.76 0 -1.224 -0.448 -1.4 -0.832l -0.016 0.016c 0.032 0.416 0.16 0.928 0.28 1.136c 0.256 0.44 0.56 0.464 1.296 0.544c 0.72 0.08 1.232 0.312 1.304 1.208c -0.056 0.024 -0.112 0.032 -0.176 0c -0.064 -0.384 -0.488 -0.488 -1.16 -0.592c -0.648 -0.104 -1.192 -0.328 -1.528 -0.96c -0.288 -0.544 -0.368 -1.216 -0.368 -1.976Z m 0.688 -0.208c 0 0.448 0.16 1.384 0.992 1.384c 0.624 0 1.008 -0.72 1.008 -1.68c 0 -1.008 -0.464 -1.352 -0.896 -1.352c -0.584 0 -1.104 0.76 -1.104 1.648Z "/></symbol><symbol id="gFF63DA2595F1651AF0C535BF803D9AEC" overflow="visible"><path d="M 0 0m 3.344 0.976v 1.48c 0 0.656 0.104 0.696 0.544 0.728c 0.048 0.048 0.048 0.216 0 0.264c -0.24 -0.008 -0.544 -0.016 -0.864 -0.016h -1.512c -0.264 0 -0.576 0.008 -0.816 0.016c -0.048 -0.048 -0.048 -0.216 0 -0.264c 0.568 -0.04 0.648 -0.088 0.648 -0.952c 0 -0.84 -0.064 -1.28 -0.176 -1.608c -0.104 -0.288 -0.24 -0.392 -0.376 -0.392c -0.104 0 -0.136 0.064 -0.152 0.168c -0.024 0.152 -0.072 0.304 -0.296 0.304c -0.2 0 -0.312 -0.16 -0.312 -0.336c 0 -0.248 0.224 -0.464 0.592 -0.464c 0.408 0 0.632 0.208 0.816 0.64c 0.16 0.384 0.208 1.2 0.208 1.744c 0 0.624 0.024 0.832 0.344 0.832h 0.36c 0.304 0 0.36 -0.192 0.36 -0.464v -1.68c 0 -0.656 -0.08 -0.696 -0.496 -0.728c -0.04 -0.048 -0.04 -0.216 0 -0.264c 0.2 0.008 0.496 0.016 0.816 0.016c 0.32 0 0.68 -0.008 0.904 -0.016c 0.04 0.048 0.04 0.216 0 0.264c -0.52 0.032 -0.592 0.072 -0.592 0.728Z "/></symbol><symbol id="gADB3B27726748394AAF96F33FED6E9BE" overflow="visible"><path d="M 0 0m 1.488 2.448c 0 0.672 0.088 0.696 0.576 0.736c 0.048 0.048 0.048 0.216 0 0.264c -0.272 -0.008 -0.544 -0.016 -0.896 -0.016c -0.344 0 -0.624 0.008 -0.888 0.016c -0.048 -0.048 -0.048 -0.216 0 -0.264c 0.488 -0.032 0.576 -0.064 0.576 -0.728v -1.48c 0 -0.664 -0.088 -0.688 -0.576 -0.728c -0.048 -0.048 -0.048 -0.216 0 -0.264c 0.264 0.008 0.544 0.016 0.896 0.016c 0.328 0 0.504 -0.016 0.832 -0.016c 0.984 0 1.52 0.248 1.52 1.104c 0 0.752 -0.656 0.968 -1.464 0.968h -0.576Z m 3.448 0.008c 0 0.664 0.088 0.688 0.576 0.728c 0.048 0.048 0.048 0.216 0 0.264c -0.272 -0.008 -0.544 -0.016 -0.896 -0.016c -0.344 0 -0.624 0.008 -0.888 0.016c -0.048 -0.048 -0.048 -0.216 0 -0.264c 0.488 -0.032 0.576 -0.064 0.576 -0.728v -1.48c 0 -0.664 -0.088 -0.688 -0.576 -0.728c -0.048 -0.048 -0.048 -0.216 0 -0.264c 0.264 0.008 0.544 0.016 0.896 0.016c 0.344 0 0.632 -0.008 0.888 -0.016c 0.048 0.048 0.048 0.216 0 0.264c -0.488 0.032 -0.576 0.064 -0.576 0.728Z m -2.096 -1.448c 0 -0.656 -0.4 -0.76 -0.824 -0.76c -0.392 0 -0.528 0.08 -0.528 0.36v 1.184h 0.568c 0.6 0 0.784 -0.36 0.784 -0.784Z "/></symbol><symbol id="gF859B786D36C3A3EB6E93A57BC4F802" overflow="visible"><path d="M 0 0m 3.496 3.432h -2.272c -0.32 0 -0.624 0.008 -0.864 0.016c -0.048 -0.048 -0.048 -0.216 0 -0.264c 0.44 -0.032 0.544 -0.072 0.544 -0.728v -1.48c 0 -0.656 -0.104 -0.696 -0.624 -0.728c -0.048 -0.048 -0.048 -0.216 0 -0.264c 0.24 0.008 0.624 0.016 0.944 0.016c 0.32 0 0.56 -0.008 0.8 -0.016c 0.048 0.048 0.048 0.216 0 0.264c -0.408 0.04 -0.488 0.072 -0.488 0.728v 1.736c 0 0.248 0.024 0.408 0.336 0.408h 0.968c 0.296 0 0.344 -0.088 0.344 -0.408v -1.736c 0 -0.656 -0.08 -0.696 -0.496 -0.728c -0.04 -0.048 -0.04 -0.216 0 -0.264c 0.2 0.008 0.496 0.016 0.816 0.016c 0.32 0 0.68 -0.008 0.904 -0.016c 0.04 0.048 0.04 0.216 0 0.264c -0.52 0.032 -0.592 0.072 -0.592 0.728v 1.48c 0 0.656 0.104 0.696 0.544 0.728c 0.048 0.048 0.048 0.216 0 0.264c -0.24 -0.008 -0.544 -0.016 -0.864 -0.016Z "/></symbol><symbol id="gE09E60C0AC8E2E10ADA02C2F49261352" overflow="visible"><path d="M 0 0m 1.456 0.976c 0 -0.664 -0.088 -0.704 -0.576 -0.728c -0.048 -0.048 -0.048 -0.216 0 -0.264c 0.312 0.008 0.632 0.016 0.896 0.016c 0.272 0 0.584 -0.008 0.888 -0.016c 0.048 0.048 0.048 0.216 0 0.264c -0.488 0.024 -0.576 0.064 -0.576 0.728v 2.16h 0.136c 0.648 0 0.776 -0.224 0.912 -0.872c 0.104 0 0.208 0.032 0.208 0.032c -0.048 0.368 -0.08 0.72 -0.088 1.184c -0.184 -0.016 -0.784 -0.048 -1.184 -0.048h -0.6c -0.4 0 -0.848 0.024 -1.168 0.048c -0.008 -0.464 -0.04 -0.816 -0.096 -1.184c 0 0 0.112 -0.032 0.216 -0.032c 0.136 0.648 0.256 0.872 0.912 0.872h 0.12Z "/></symbol><symbol id="g937124D7F3D66536776BB8DA5DFD7893" overflow="visible"><path d="M 0 0m 3.832 2.456c 0 0.664 0.088 0.688 0.576 0.728c 0.048 0.048 0.048 0.216 0 0.264c -0.28 -0.016 -0.632 -0.016 -0.896 -0.016c -0.224 0 -0.544 0.008 -0.856 0.016c -0.048 -0.048 -0.048 -0.216 0 -0.264c 0.488 -0.032 0.544 -0.064 0.544 -0.728v -0.52h -1.712v 0.52c 0 0.664 0.056 0.688 0.544 0.728c 0.048 0.048 0.048 0.216 0 0.264c -0.304 -0.008 -0.608 -0.016 -0.864 -0.016c -0.24 0 -0.568 0.008 -0.888 0.016c -0.048 -0.048 -0.048 -0.216 0 -0.264c 0.488 -0.032 0.576 -0.064 0.576 -0.728v -1.48c 0 -0.664 -0.088 -0.688 -0.576 -0.728c -0.048 -0.048 -0.048 -0.216 0 -0.264c 0.32 0.008 0.64 0.016 0.896 0.016c 0.256 0 0.568 -0.008 0.856 -0.016c 0.048 0.048 0.048 0.216 0 0.264c -0.488 0.032 -0.544 0.064 -0.544 0.728v 0.696h 1.712v -0.696c 0 -0.664 -0.056 -0.688 -0.544 -0.728c -0.048 -0.048 -0.048 -0.216 0 -0.264c 0.288 0.008 0.584 0.016 0.864 0.016c 0.24 0 0.576 -0.008 0.888 -0.016c 0.048 0.048 0.048 0.216 0 0.264c -0.488 0.032 -0.576 0.064 -0.576 0.728Z "/></symbol><symbol id="gF79D9CC171E1ACC5162F855F1894F43E" overflow="visible"><path d="M 0 0m 2.344 0.384c 0.048 -0.248 0.136 -0.464 0.536 -0.464c 0.304 0 0.592 0.136 0.76 0.296c -0.016 0.096 -0.048 0.168 -0.136 0.216c -0.056 -0.048 -0.192 -0.128 -0.296 -0.128c -0.232 0 -0.24 0.312 -0.24 0.68v 1.176c 0 1.136 -0.624 1.352 -1.208 1.352c -0.656 0 -1.32 -0.432 -1.32 -0.888c 0 -0.192 0.096 -0.288 0.28 -0.288c 0.232 0 0.376 0.168 0.376 0.272c 0 0.056 -0.008 0.112 -0.024 0.144c -0.008 0.024 -0.016 0.072 -0.016 0.16c 0 0.248 0.336 0.336 0.64 0.336c 0.272 0 0.648 -0.136 0.648 -1.04c 0 -0.056 -0.024 -0.088 -0.048 -0.096l -0.688 -0.168c -0.768 -0.192 -1.32 -0.616 -1.32 -1.16c 0 -0.656 0.448 -0.864 1.008 -0.864c 0.28 0 0.52 0.064 0.872 0.336l 0.16 0.128Z m 0 1.48v -1.056c 0 -0.104 -0.048 -0.16 -0.112 -0.208c -0.208 -0.168 -0.48 -0.352 -0.704 -0.352c -0.4 0 -0.576 0.32 -0.576 0.568c 0 0.36 0.168 0.728 0.76 0.88Z "/></symbol><symbol id="gEF1CB7DB7883465AAAE49B6975EF9AB9" overflow="visible"><path d="M 0 0m 1.456 2.864c -0.184 0.272 -0.128 0.28 0.232 0.32c 0.048 0.048 0.048 0.216 0 0.264c -0.216 -0.008 -0.568 -0.016 -0.808 -0.016c -0.24 0 -0.48 0.008 -0.688 0.016c -0.048 -0.048 -0.048 -0.216 0 -0.264c 0.272 -0.024 0.496 -0.16 0.72 -0.488l 0.696 -1.016c 0.04 -0.056 0.04 -0.08 0.008 -0.12l -0.672 -0.864c -0.32 -0.408 -0.496 -0.432 -0.776 -0.448c -0.048 -0.048 -0.048 -0.216 0 -0.264c 0.16 0.008 0.336 0.016 0.576 0.016c 0.24 0 0.464 -0.008 0.672 -0.016c 0.048 0.048 0.048 0.216 0 0.264c -0.288 0.032 -0.352 0.064 -0.176 0.32l 0.504 0.728c 0.064 0.096 0.096 0.088 0.144 0.016l 0.464 -0.64c 0.28 -0.384 0.152 -0.4 -0.104 -0.424c -0.048 -0.048 -0.048 -0.216 0 -0.264c 0.24 0.008 0.504 0.016 0.792 0.016c 0.304 0 0.52 -0.008 0.712 -0.016c 0.048 0.048 0.048 0.216 0 0.264c -0.36 0.024 -0.48 0.048 -0.8 0.504l -0.72 1.016c -0.032 0.048 -0.04 0.072 0 0.12l 0.672 0.856c 0.296 0.376 0.488 0.416 0.776 0.44c 0.048 0.048 0.048 0.216 0 0.264c -0.16 -0.008 -0.344 -0.016 -0.584 -0.016c -0.24 0 -0.464 0.008 -0.672 0.016c -0.048 -0.048 -0.048 -0.216 0 -0.264c 0.296 -0.032 0.384 -0.056 0.192 -0.328l -0.52 -0.728c -0.056 -0.08 -0.088 -0.072 -0.152 0.016Z "/></symbol><symbol id="g5D01DA3AB390CB78D7E54204B7DC3F87" overflow="visible"><path d="M 0 0m 0.328 1.64c 0 -0.816 0.544 -1.72 1.68 -1.72c 0.512 0 0.904 0.184 1.176 0.448c 0.36 0.352 0.52 0.856 0.52 1.344c 0 0.832 -0.456 1.8 -1.68 1.8c -0.528 0 -0.96 -0.216 -1.256 -0.56c -0.288 -0.344 -0.44 -0.808 -0.44 -1.312Z m 1.576 1.592c 0.688 0 1.112 -0.624 1.112 -1.776c 0 -1.008 -0.52 -1.256 -0.896 -1.256c -0.832 0 -1.104 1.008 -1.104 1.624c 0 0.696 0.168 1.408 0.888 1.408Z "/></symbol><symbol id="g362A412C7577377BE4D103B9E5EDCC22" overflow="visible"><path d="M 0 0m 3.088 0c 0 0 0.624 -0.008 0.784 -0.016c 0.048 0.048 0.048 0.216 0 0.264c -0.312 0.016 -0.376 0.08 -0.512 0.336l -0.36 0.68c -0.2 0.376 -0.48 0.568 -0.936 0.568v 0.024c 0.312 0.088 0.448 0.368 0.568 0.688c 0.096 0.248 0.192 0.4 0.36 0.4c 0.072 0 0.136 -0.024 0.184 -0.056c 0.048 -0.032 0.136 -0.056 0.24 -0.056c 0.176 0 0.32 0.152 0.32 0.312c 0 0.176 -0.192 0.36 -0.456 0.36c -0.464 0 -0.68 -0.432 -0.832 -0.808c -0.176 -0.44 -0.392 -0.744 -0.96 -0.744v 0.504c 0 0.664 0.088 0.688 0.496 0.728c 0.048 0.048 0.048 0.216 0 0.264c -0.192 -0.008 -0.496 -0.016 -0.816 -0.016c -0.344 0 -0.624 0.008 -0.888 0.016c -0.048 -0.048 -0.048 -0.216 0 -0.264c 0.488 -0.032 0.576 -0.064 0.576 -0.728v -1.48c 0 -0.664 -0.088 -0.688 -0.576 -0.728c -0.048 -0.048 -0.048 -0.216 0 -0.264c 0.264 0.008 0.544 0.016 0.896 0.016c 0.312 0 0.632 -0.008 0.808 -0.016c 0.048 0.048 0.048 0.216 0 0.264c -0.408 0.032 -0.496 0.064 -0.496 0.728v 0.696c 0.544 -0.032 0.688 -0.248 0.832 -0.544l 0.344 -0.72c 0.104 -0.216 0.264 -0.4 0.424 -0.408Z "/></symbol><symbol id="gE4F86D8BE8C69EC1EB36B973594724AB" overflow="visible"><path d="M 0 0m 0.936 2.448l -0.048 -1.488c -0.024 -0.672 -0.144 -0.688 -0.608 -0.712c -0.048 -0.048 -0.048 -0.216 0 -0.264c 0.16 0.008 0.56 0.016 0.688 0.016c 0.16 0 0.536 -0.008 0.696 -0.016c 0.048 0.048 0.048 0.216 0 0.264c -0.456 0.032 -0.488 0.112 -0.472 0.712l 0.056 1.96c 0 0.072 0.032 0.072 0.064 0l 1.16 -2.832c 0.032 -0.024 0.064 -0.024 0.088 0l 1.312 2.824c 0.04 0.088 0.08 0.096 0.08 0l -0.008 -1.936c 0 -0.664 -0.056 -0.688 -0.544 -0.728c -0.048 -0.048 -0.048 -0.216 0 -0.264c 0.288 0.008 0.584 0.016 0.864 0.016c 0.24 0 0.584 -0.008 0.896 -0.016c 0.048 0.048 0.048 0.216 0 0.264c -0.488 0.032 -0.576 0.064 -0.576 0.728l -0.016 1.48c -0.008 0.664 0.088 0.688 0.576 0.728c 0.048 0.048 0.048 0.216 0 0.264c -0.28 -0.016 -1.056 -0.016 -1.32 -0.016l -1.064 -2.288l -0.04 -0.08l -0.032 0.08l -0.936 2.288c -0.264 0 -1.112 0 -1.392 0.016c -0.048 -0.048 -0.048 -0.216 0 -0.264c 0.488 -0.04 0.6 -0.072 0.576 -0.736Z "/></symbol><symbol id="g46DFAA35BC521B4F2378CE697B4B163E" overflow="visible"><path d="M 0 0m 1.248 2.944c -0.008 0.24 -0.024 0.448 -0.064 0.528c -0.016 0.04 -0.032 0.064 -0.096 0.064c -0.224 -0.088 -0.432 -0.16 -0.984 -0.232c -0.016 -0.048 0 -0.176 0.016 -0.224c 0.432 -0.04 0.52 -0.08 0.52 -0.544v -3.416c 0 -0.664 -0.088 -0.704 -0.576 -0.728c -0.048 -0.048 -0.048 -0.216 0 -0.264c 0.28 0.008 0.576 0.016 0.896 0.016c 0.32 0 0.704 -0.008 0.968 -0.016c 0.048 0.048 0.048 0.216 0 0.264c -0.568 0.032 -0.656 0.064 -0.656 0.728v 0.864c 0 0.104 0.032 0.096 0.112 0.064c 0.2 -0.08 0.44 -0.128 0.696 -0.128c 0.448 0 0.848 0.136 1.176 0.448c 0.376 0.368 0.592 0.864 0.592 1.512c 0 0.848 -0.6 1.632 -1.416 1.632c -0.368 0 -0.776 -0.24 -1.096 -0.6c -0.048 -0.048 -0.08 -0.048 -0.088 0.032Z m 0.152 -0.296c 0.208 0.256 0.576 0.496 0.808 0.496c 0.512 0 0.952 -0.576 0.952 -1.48c 0 -0.656 -0.232 -1.472 -1.128 -1.472c -0.144 0 -0.424 0.04 -0.568 0.168c -0.16 0.144 -0.192 0.192 -0.192 0.48v 1.456c 0 0.168 0.032 0.24 0.128 0.352Z "/></symbol><symbol id="gAC00C34078948F83CC62D60B02C8E81A" overflow="visible"><path d="M 0 0m 1.512 3.432c -0.264 0 -0.576 0.008 -0.816 0.016c -0.048 -0.048 -0.048 -0.216 0 -0.264c 0.488 -0.04 0.632 -0.072 0.6 -0.736c -0.032 -0.736 -0.16 -1.328 -0.296 -1.888c -0.048 -0.216 -0.28 -0.288 -0.504 -0.312c -0.12 -0.016 -0.232 -0.064 -0.24 -0.208l -0.048 -1.064c 0.056 -0.024 0.12 -0.032 0.216 -0.008c 0.072 0.296 0.288 1.032 1.008 1.032h 1.384c 0.712 0 0.944 -0.72 1.016 -1.04c 0.072 -0.016 0.144 -0.016 0.224 0.016l -0.048 1.072c 0 0.112 -0.064 0.176 -0.216 0.2c -0.144 0.024 -0.344 0.08 -0.344 0.376v 1.832c 0 0.656 0.104 0.696 0.544 0.728c 0.048 0.048 0.048 0.216 0 0.264c -0.24 -0.008 -0.544 -0.016 -0.864 -0.016Z m -0.224 -3.024c 0 0.136 0.216 0.664 0.336 2.496c 0.008 0.12 0.064 0.224 0.28 0.224h 0.552c 0.32 0 0.36 -0.224 0.36 -0.496v -1.928c 0 -0.264 -0.016 -0.392 -0.336 -0.392h -1.032c -0.088 0 -0.16 0.008 -0.16 0.096Z "/></symbol><symbol id="gE34E15A46C94CBC2E6ABE8844A1DDB21" overflow="visible"><path d="M 0 0m 0.3485 1.7425c 0 -0.867 0.578 -1.8275 1.785 -1.8275c 0.544 0 0.9605 0.1955 1.2495 0.476c 0.3825 0.374 0.5525 0.9095 0.5525 1.428c 0 0.884 -0.4845 1.9125 -1.785 1.9125c -0.561 0 -1.02 -0.2295 -1.3345 -0.595c -0.306 -0.3655 -0.4675 -0.8585 -0.4675 -1.394Z m 1.6745 1.6915c 0.731 0 1.1815 -0.663 1.1815 -1.887c 0 -1.071 -0.5525 -1.3345 -0.952 -1.3345c -0.884 0 -1.173 1.071 -1.173 1.7255c 0 0.7395 0.1785 1.496 0.9435 1.496Z "/></symbol><symbol id="gBAF1B227155053221F22F6E06EEFED60" overflow="visible"><path d="M 0 0m 1.6065 3.6465c -0.2805 0 -0.612 0.0085 -0.867 0.017c -0.051 -0.051 -0.051 -0.2295 0 -0.2805c 0.5185 -0.0425 0.6715 -0.0765 0.6375 -0.782c -0.034 -0.782 -0.17 -1.411 -0.3145 -2.006c -0.051 -0.2295 -0.2975 -0.306 -0.5355 -0.3315c -0.1275 -0.017 -0.2465 -0.068 -0.255 -0.221l -0.051 -1.1305c 0.0595 -0.0255 0.1275 -0.034 0.2295 -0.0085c 0.0765 0.3145 0.306 1.0965 1.071 1.0965h 1.4705c 0.7565 0 1.003 -0.765 1.0795 -1.105c 0.0765 -0.017 0.153 -0.017 0.238 0.017l -0.051 1.139c 0 0.119 -0.068 0.187 -0.2295 0.2125c -0.153 0.0255 -0.3655 0.085 -0.3655 0.3995v 1.9465c 0 0.697 0.1105 0.7395 0.578 0.7735c 0.051 0.051 0.051 0.2295 0 0.2805c -0.255 -0.0085 -0.578 -0.017 -0.918 -0.017Z m -0.238 -3.213c 0 0.1445 0.2295 0.7055 0.357 2.652c 0.0085 0.1275 0.068 0.238 0.2975 0.238h 0.5865c 0.34 0 0.3825 -0.238 0.3825 -0.527v -2.0485c 0 -0.2805 -0.017 -0.4165 -0.357 -0.4165h -1.0965c -0.0935 0 -0.17 0.0085 -0.17 0.102Z "/></symbol><symbol id="gC8932C6BA7F518DC74E87E2F4A0224EB" overflow="visible"><path d="M 0 0m 4.0715 2.6095c 0 0.7055 0.0935 0.731 0.612 0.7735c 0.051 0.051 0.051 0.2295 0 0.2805c -0.2975 -0.017 -0.6715 -0.017 -0.952 -0.017c -0.238 0 -0.578 0.0085 -0.9095 0.017c -0.051 -0.051 -0.051 -0.2295 0 -0.2805c 0.5185 -0.034 0.578 -0.068 0.578 -0.7735v -0.5525h -1.819v 0.5525c 0 0.7055 0.0595 0.731 0.578 0.7735c 0.051 0.051 0.051 0.2295 0 0.2805c -0.323 -0.0085 -0.646 -0.017 -0.918 -0.017c -0.255 0 -0.6035 0.0085 -0.9435 0.017c -0.051 -0.051 -0.051 -0.2295 0 -0.2805c 0.5185 -0.034 0.612 -0.068 0.612 -0.7735v -1.5725c 0 -0.7055 -0.0935 -0.731 -0.612 -0.7735c -0.051 -0.051 -0.051 -0.2295 0 -0.2805c 0.34 0.0085 0.68 0.017 0.952 0.017c 0.272 0 0.6035 -0.0085 0.9095 -0.017c 0.051 0.051 0.051 0.2295 0 0.2805c -0.5185 0.034 -0.578 0.068 -0.578 0.7735v 0.7395h 1.819v -0.7395c 0 -0.7055 -0.0595 -0.731 -0.578 -0.7735c -0.051 -0.051 -0.051 -0.2295 0 -0.2805c 0.306 0.0085 0.6205 0.017 0.918 0.017c 0.255 0 0.612 -0.0085 0.9435 -0.017c 0.051 0.051 0.051 0.2295 0 0.2805c -0.5185 0.034 -0.612 0.068 -0.612 0.7735Z "/></symbol><symbol id="gF931FC691828778A920607CF18B9C32A" overflow="visible"><path d="M 0 0m 2.4905 0.408c 0.051 -0.2635 0.1445 -0.493 0.5695 -0.493c 0.323 0 0.629 0.1445 0.8075 0.3145c -0.017 0.102 -0.051 0.1785 -0.1445 0.2295c -0.0595 -0.051 -0.204 -0.136 -0.3145 -0.136c -0.2465 0 -0.255 0.3315 -0.255 0.7225v 1.2495c 0 1.207 -0.663 1.4365 -1.2835 1.4365c -0.697 0 -1.4025 -0.459 -1.4025 -0.9435c 0 -0.204 0.102 -0.306 0.2975 -0.306c 0.2465 0 0.3995 0.1785 0.3995 0.289c 0 0.0595 -0.0085 0.119 -0.0255 0.153c -0.0085 0.0255 -0.017 0.0765 -0.017 0.17c 0 0.2635 0.357 0.357 0.68 0.357c 0.289 0 0.6885 -0.1445 0.6885 -1.105c 0 -0.0595 -0.0255 -0.0935 -0.051 -0.102l -0.731 -0.1785c -0.816 -0.204 -1.4025 -0.6545 -1.4025 -1.2325c 0 -0.697 0.476 -0.918 1.071 -0.918c 0.2975 0 0.5525 0.068 0.9265 0.357l 0.17 0.136Z m 0 1.5725v -1.122c 0 -0.1105 -0.051 -0.17 -0.119 -0.221c -0.221 -0.1785 -0.51 -0.374 -0.748 -0.374c -0.425 0 -0.612 0.34 -0.612 0.6035c 0 0.3825 0.1785 0.7735 0.8075 0.935Z "/></symbol><symbol id="gC26D3F211D19004242B24511D3AD00C1" overflow="visible"><path d="M 0 0m 1.326 1.8275c 0.323 0.3655 0.6375 0.7735 1.0795 1.445c -0.017 0.085 -0.1105 0.153 -0.204 0.1615c -0.6715 -0.7225 -1.0965 -1.139 -1.5725 -1.5555v -0.102c 0.476 -0.4165 0.901 -0.8245 1.5725 -1.5555c 0.0935 0.0085 0.187 0.0765 0.204 0.1615c -0.442 0.6715 -0.7565 1.088 -1.0795 1.445Z m 1.53 0c 0.323 0.3655 0.6375 0.7735 1.0795 1.445c -0.017 0.085 -0.1105 0.153 -0.204 0.1615c -0.6715 -0.7225 -1.0965 -1.139 -1.5725 -1.5555v -0.102c 0.476 -0.4165 0.901 -0.8245 1.5725 -1.5555c 0.0935 0.0085 0.187 0.0765 0.204 0.1615c -0.442 0.6715 -0.7565 1.088 -1.0795 1.445Z "/></symbol><symbol id="g430571653545A60A3EF6386D136EADA3" overflow="visible"><path d="M 0 0m 1.326 3.128c -0.0085 0.255 -0.0255 0.476 -0.068 0.561c -0.017 0.0425 -0.034 0.068 -0.102 0.068c -0.238 -0.0935 -0.459 -0.17 -1.0455 -0.2465c -0.017 -0.051 0 -0.187 0.017 -0.238c 0.459 -0.0425 0.5525 -0.085 0.5525 -0.578v -3.6295c 0 -0.7055 -0.0935 -0.748 -0.612 -0.7735c -0.051 -0.051 -0.051 -0.2295 0 -0.2805c 0.2975 0.0085 0.612 0.017 0.952 0.017c 0.34 0 0.748 -0.0085 1.0285 -0.017c 0.051 0.051 0.051 0.2295 0 0.2805c -0.6035 0.034 -0.697 0.068 -0.697 0.7735v 0.918c 0 0.1105 0.034 0.102 0.119 0.068c 0.2125 -0.085 0.4675 -0.136 0.7395 -0.136c 0.476 0 0.901 0.1445 1.2495 0.476c 0.3995 0.391 0.629 0.918 0.629 1.6065c 0 0.901 -0.6375 1.734 -1.5045 1.734c -0.391 0 -0.8245 -0.255 -1.1645 -0.6375c -0.051 -0.051 -0.085 -0.051 -0.0935 0.034Z m 0.1615 -0.3145c 0.221 0.272 0.612 0.527 0.8585 0.527c 0.544 0 1.0115 -0.612 1.0115 -1.5725c 0 -0.697 -0.2465 -1.564 -1.1985 -1.564c -0.153 0 -0.4505 0.0425 -0.6035 0.1785c -0.17 0.153 -0.204 0.204 -0.204 0.51v 1.547c 0 0.1785 0.034 0.255 0.136 0.374Z "/></symbol><symbol id="g2884EEE83F88BF741DF31D9C41AEE180" overflow="visible"><path d="M 0 0m 1.734 -1.36c 0.136 0.238 0.2465 0.476 0.3485 0.731c 0.68 1.6405 1.0625 2.516 1.5045 3.468c 0.17 0.357 0.289 0.493 0.6885 0.544c 0.051 0.051 0.051 0.2295 0 0.2805c -0.17 -0.0085 -0.3655 -0.017 -0.6035 -0.017c -0.255 0 -0.5185 0.0085 -0.7735 0.017c -0.051 -0.051 -0.051 -0.2295 0 -0.2805c 0.272 -0.0255 0.544 -0.0765 0.408 -0.3825l -0.8415 -1.9465c -0.0595 -0.136 -0.136 -0.1615 -0.204 0.0085l -0.7565 1.768c -0.153 0.357 -0.1955 0.5185 0.2805 0.5525c 0.051 0.051 0.051 0.2295 0 0.2805c -0.3145 -0.0085 -0.6545 -0.017 -0.9605 -0.017c -0.289 0 -0.5185 0.0085 -0.6885 0.017c -0.051 -0.051 -0.051 -0.2295 0 -0.2805c 0.34 -0.0425 0.4505 -0.119 0.6715 -0.6375l 0.9605 -2.2355c 0.0765 -0.17 0.204 -0.561 0.119 -0.799c -0.102 -0.2805 -0.204 -0.5185 -0.3315 -0.782c -0.0935 -0.17 -0.2125 -0.2465 -0.425 -0.2465c -0.119 0 -0.153 0.0255 -0.2465 0.0255c -0.2465 0 -0.374 -0.255 -0.374 -0.3655c 0 -0.1785 0.17 -0.3145 0.3995 -0.3145c 0.1785 0 0.5185 0.068 0.8245 0.612Z "/></symbol><symbol id="gE827826F9D19F2B711A1B9BF40B9D8A0" overflow="visible"><path d="M 0 0m 1.377 2.6095c 0 0.7055 0.0935 0.731 0.527 0.7735c 0.051 0.051 0.051 0.2295 0 0.2805c -0.204 -0.0085 -0.527 -0.017 -0.867 -0.017c -0.3655 0 -0.6545 0.0085 -0.935 0.017c -0.051 -0.051 -0.051 -0.2295 0 -0.2805c 0.5185 -0.034 0.612 -0.068 0.612 -0.7735v -0.3655c 0 -0.799 0.1785 -1.1135 0.969 -1.1135c 0.5355 0 0.9605 0.306 1.309 0.561v -0.6545c 0 -0.7055 -0.0935 -0.731 -0.612 -0.7735c -0.051 -0.051 -0.051 -0.2295 0 -0.2805c 0.2805 0.0085 0.578 0.017 0.952 0.017c 0.3655 0 0.68 -0.0085 0.952 -0.017c 0.051 0.051 0.051 0.2295 0 0.2805c -0.5185 0.034 -0.612 0.068 -0.612 0.7735v 1.5725c 0 0.7055 0.0935 0.731 0.612 0.7735c 0.051 0.051 0.051 0.2295 0 0.2805c -0.289 -0.0085 -0.578 -0.017 -0.952 -0.017c -0.3315 0 -0.6715 0.0085 -0.867 0.017c -0.051 -0.051 -0.051 -0.2295 0 -0.2805c 0.4335 -0.034 0.527 -0.068 0.527 -0.7735v -0.612c -0.289 -0.255 -0.595 -0.4845 -1.037 -0.4845c -0.5525 0 -0.578 0.289 -0.578 0.952Z "/></symbol><symbol id="gA501B866130BB2CA150759E9628F05FB" overflow="visible"><path d="M 0 0m 3.281 0c 0 0 0.663 -0.0085 0.833 -0.017c 0.051 0.051 0.051 0.2295 0 0.2805c -0.3315 0.017 -0.3995 0.085 -0.544 0.357l -0.3825 0.7225c -0.2125 0.3995 -0.51 0.6035 -0.9945 0.6035v 0.0255c 0.3315 0.0935 0.476 0.391 0.6035 0.731c 0.102 0.2635 0.204 0.425 0.3825 0.425c 0.0765 0 0.1445 -0.0255 0.1955 -0.0595c 0.051 -0.034 0.1445 -0.0595 0.255 -0.0595c 0.187 0 0.34 0.1615 0.34 0.3315c 0 0.187 -0.204 0.3825 -0.4845 0.3825c -0.493 0 -0.7225 -0.459 -0.884 -0.8585c -0.187 -0.4675 -0.4165 -0.7905 -1.02 -0.7905v 0.5355c 0 0.7055 0.0935 0.731 0.527 0.7735c 0.051 0.051 0.051 0.2295 0 0.2805c -0.204 -0.0085 -0.527 -0.017 -0.867 -0.017c -0.3655 0 -0.663 0.0085 -0.9435 0.017c -0.051 -0.051 -0.051 -0.2295 0 -0.2805c 0.5185 -0.034 0.612 -0.068 0.612 -0.7735v -1.5725c 0 -0.7055 -0.0935 -0.731 -0.612 -0.7735c -0.051 -0.051 -0.051 -0.2295 0 -0.2805c 0.2805 0.0085 0.578 0.017 0.952 0.017c 0.3315 0 0.6715 -0.0085 0.8585 -0.017c 0.051 0.051 0.051 0.2295 0 0.2805c -0.4335 0.034 -0.527 0.068 -0.527 0.7735v 0.7395c 0.578 -0.034 0.731 -0.2635 0.884 -0.578l 0.3655 -0.765c 0.1105 -0.2295 0.2805 -0.425 0.4505 -0.4335Z "/></symbol><symbol id="gEA9FE9240F1CF3627BE895C6AB7A7367" overflow="visible"><path d="M 0 0m 1.7595 1.8275c -0.3145 -0.357 -0.6375 -0.7735 -1.0795 -1.445c 0.0255 -0.085 0.119 -0.153 0.204 -0.1615c 0.68 0.731 1.105 1.139 1.5725 1.5555v 0.102c -0.4675 0.4165 -0.8925 0.833 -1.5725 1.5555c -0.085 -0.0085 -0.1785 -0.0765 -0.204 -0.1615c 0.442 -0.6715 0.765 -1.0795 1.0795 -1.445Z m 1.53 0c -0.3145 -0.357 -0.6375 -0.7735 -1.0795 -1.445c 0.0255 -0.085 0.119 -0.153 0.204 -0.1615c 0.68 0.731 1.105 1.139 1.5725 1.5555v 0.102c -0.4675 0.4165 -0.8925 0.833 -1.5725 1.5555c -0.085 -0.0085 -0.1785 -0.0765 -0.204 -0.1615c 0.442 -0.6715 0.765 -1.0795 1.0795 -1.445Z "/></symbol><symbol id="gCEE0DCDCB551765DCAE8D9A7DBD02279" overflow="visible"><path d="M 0 0m 7.276 0.697c 0.731 0.8245 1.4195 1.3005 1.836 1.445v 0.1955c -0.918 0.374 -1.836 1.462 -1.836 1.4705h -0.34c 0.3315 -0.714 0.68 -1.105 0.9605 -1.3345h -7.395v -0.442h 7.395c -0.272 -0.2635 -0.6885 -0.7225 -0.9435 -1.3345Z "/></symbol><symbol id="g1EEFC323E4FEBE7654D5CC1583F61AF4" overflow="visible"><path d="M 0 0m 3.383 0.7735c -0.034 0.0765 -0.102 0.1105 -0.1785 0.119c -0.289 -0.374 -0.6545 -0.561 -1.02 -0.561c -0.6205 0 -1.139 0.629 -1.139 1.6235c 0 0.935 0.408 1.496 0.969 1.496c 0.5015 0 0.5695 -0.2975 0.6035 -0.595c 0.0255 -0.2295 0.1445 -0.306 0.323 -0.306c 0.1785 0 0.4165 0.1105 0.4165 0.374c 0 0.4675 -0.4845 0.8075 -1.3005 0.8075c -0.8415 0 -1.7425 -0.7565 -1.7425 -1.9635c 0 -1.0965 0.612 -1.853 1.683 -1.853c 0.51 0 0.9605 0.1615 1.3855 0.8585Z "/></symbol><symbol id="gBEE50160BCD570B38DEF46393A725EED" overflow="visible"><path d="M 0 0m 3.7145 3.6465h -2.414c -0.34 0 -0.663 0.0085 -0.918 0.017c -0.051 -0.051 -0.051 -0.2295 0 -0.2805c 0.4675 -0.034 0.578 -0.0765 0.578 -0.7735v -1.5725c 0 -0.697 -0.1105 -0.7395 -0.663 -0.7735c -0.051 -0.051 -0.051 -0.2295 0 -0.2805c 0.255 0.0085 0.663 0.017 1.003 0.017c 0.34 0 0.595 -0.0085 0.85 -0.017c 0.051 0.051 0.051 0.2295 0 0.2805c -0.4335 0.0425 -0.5185 0.0765 -0.5185 0.7735v 1.8445c 0 0.2635 0.0255 0.4335 0.357 0.4335h 1.0285c 0.3145 0 0.3655 -0.0935 0.3655 -0.4335v -1.8445c 0 -0.697 -0.085 -0.7395 -0.527 -0.7735c -0.0425 -0.051 -0.0425 -0.2295 0 -0.2805c 0.2125 0.0085 0.527 0.017 0.867 0.017c 0.34 0 0.7225 -0.0085 0.9605 -0.017c 0.0425 0.051 0.0425 0.2295 0 0.2805c -0.5525 0.034 -0.629 0.0765 -0.629 0.7735v 1.5725c 0 0.697 0.1105 0.7395 0.578 0.7735c 0.051 0.051 0.051 0.2295 0 0.2805c -0.255 -0.0085 -0.578 -0.017 -0.918 -0.017Z "/></symbol><symbol id="gE7AE90A8EDDEF3DDB67EE78D36D80337" overflow="visible"><path d="M 0 0m 1.683 0.5355c -0.0255 0 -0.0595 0.017 -0.0595 0.102v 1.938c 0 0.7055 0.1785 0.782 0.612 0.8075c 0.051 0.051 0.051 0.2295 0 0.2805c -0.1955 -0.0085 -0.68 -0.017 -0.9945 -0.017c -0.2805 0 -0.6205 0.0085 -0.9435 0.017c -0.051 -0.051 -0.051 -0.2295 0 -0.2805c 0.5185 -0.0255 0.6545 -0.102 0.6545 -0.8075v -1.5045c 0 -0.7055 -0.136 -0.782 -0.6545 -0.8075c -0.051 -0.051 -0.051 -0.2295 0 -0.2805c 0.3315 0.0085 0.6715 0.017 0.9435 0.017c 0.1955 0 0.425 -0.0085 0.5185 -0.017c 0.0425 0.119 0.119 0.289 0.2125 0.459l 1.326 2.6605c 0.0255 0 0.0595 -0.017 0.0595 -0.102v -1.9295c 0 -0.7055 -0.1785 -0.782 -0.612 -0.8075c -0.051 -0.051 -0.051 -0.2295 0 -0.2805c 0.1955 0.0085 0.6545 0.017 0.9945 0.017c 0.2635 0 0.612 -0.0085 0.9435 -0.017c 0.051 0.051 0.051 0.2295 0 0.2805c -0.5185 0.0255 -0.6545 0.102 -0.6545 0.8075v 1.5045c 0 0.7055 0.136 0.782 0.6545 0.8075c 0.051 0.051 0.051 0.2295 0 0.2805c -0.34 -0.0085 -0.68 -0.017 -0.9435 -0.017c -0.187 0 -0.425 0.0085 -0.51 0.017c -0.068 -0.153 -0.1445 -0.3315 -0.221 -0.476Z "/></symbol><symbol id="g11CAB86DAD56BCA12FE1B0081452B59D" overflow="visible"><path d="M 0 0m 0.3655 0.7055c 0 -0.187 0.1105 -0.323 0.289 -0.459c 0.2125 -0.153 0.493 -0.3315 1.1645 -0.3315c 0.85 0 1.513 0.255 1.513 1.0965c 0 0.51 -0.255 0.85 -0.8585 0.952v 0.0255c 0.5185 0.1955 0.6545 0.4335 0.6545 0.8755c 0 0.493 -0.34 0.867 -1.1985 0.867c -0.4505 0 -0.85 -0.1615 -1.309 -0.238l -0.1105 -1.0115c 0.068 -0.034 0.153 -0.0425 0.2295 -0.034c 0.1615 0.493 0.374 0.986 1.088 0.986c 0.4675 0 0.6205 -0.2805 0.6205 -0.6205c 0 -0.3485 -0.0595 -0.7565 -0.6035 -0.7565c -0.1615 0 -0.306 0.051 -0.4675 0.051c -0.0765 0 -0.1615 -0.051 -0.1615 -0.187c 0 -0.136 0.0935 -0.1785 0.17 -0.1785c 0.1615 0 0.255 0.051 0.4675 0.051c 0.629 0 0.748 -0.4335 0.748 -0.8075c 0 -0.5015 -0.187 -0.7735 -0.7905 -0.7735c -0.4845 0 -0.5695 0.1785 -0.714 0.4845c -0.068 0.153 -0.1615 0.272 -0.3825 0.272c -0.153 0 -0.3485 -0.1275 -0.3485 -0.2635Z "/></symbol><symbol id="g3D9A67B9902CBFFCF1182D85B33DBA41" overflow="visible"><path d="M 0 0m 1.241 3.6465c -0.3655 0 -0.663 0.0085 -0.9435 0.017c -0.051 -0.051 -0.051 -0.2295 0 -0.2805c 0.5185 -0.034 0.612 -0.068 0.612 -0.7735v -1.5725c 0 -0.7055 -0.0935 -0.731 -0.612 -0.7735c -0.051 -0.051 -0.051 -0.2295 0 -0.2805c 0.2805 0.0085 0.578 0.017 0.952 0.017c 0.3145 0 0.595 -0.017 1.1645 -0.017c 0.731 0 1.2835 0.204 1.2835 1.0455c 0 0.476 -0.2975 0.8075 -0.816 0.901v 0.0255c 0.391 0.0765 0.6885 0.3485 0.6885 0.8585c 0 0.595 -0.3655 0.85 -1.394 0.85c -0.3485 0 -0.5695 -0.017 -0.935 -0.017Z m 0.34 -1.802h 0.646c 0.5185 0 0.7395 -0.34 0.7395 -0.85c 0 -0.5695 -0.323 -0.731 -0.782 -0.731c -0.442 0 -0.6035 0.0765 -0.6035 0.4675Z m 0 0.2465v 0.986c 0 0.255 0.1955 0.306 0.6035 0.306c 0.442 0 0.7055 -0.119 0.7055 -0.629c 0 -0.34 -0.221 -0.663 -0.748 -0.663Z "/></symbol></defs></svg>