<svg viewBox="0 0 250.250704724 158.581419291" width="250.250704724pt" height="158.581419291pt" xmlns="http://www.w3.org/2000/svg" xmlns:xlink="http://www.w3.org/1999/xlink" xmlns:h5="http://www.w3.org/1999/xhtml"><path fill="#ffffff" fill-rule="nonzero" d="M 0 0v 158.581419291h 250.250704724v -158.581419291Z "/><g transform="translate(8 8)"><path fill="none" stroke="#aaac9e" stroke-width="0.7" stroke-linecap="butt" stroke-linejoin="miter" stroke-miterlimit="4" stroke-dashoffset="0" stroke-dasharray="3 3" transform="translate(57.428475503 10.590614173)" d="M 0 0m 56.692913386 0c -31.28224252 0 -56.692913386 25.410670866 -56.692913386 56.692913386c 0 31.28224252 25.410670866 56.692913386 56.692913386 56.692913386c 31.28224252 0 56.692913386 -25.410670866 56.692913386 -56.692913386c 0 -31.28224252 -25.410670866 -56.692913386 -56.692913386 -56.692913386Z "/><path fill="#ccc8c0" fill-rule="nonzero" stroke="#1a1a18" stroke-width="0.6" stroke-linecap="butt" stroke-linejoin="miter" stroke-miterlimit="4" transform="translate(57.428475503 20.795338583)" d="M 0 0m 56.692913386 0c -31.28224252 0 -56.692913386 20.83675011 -56.692913386 46.488188976c 0 25.651438866 25.410670866 46.488188976 56.692913386 46.488188976c 31.28224252 0 56.692913386 -20.83675011 56.692913386 -46.488188976c 0 -25.651438866 -25.410670866 -46.488188976 -56.692913386 -46.488188976Z "/><path fill="#1a1a18" fill-rule="nonzero" transform="translate(112.420601487 65.582740157)" d="M 0 0m 1.700787402 0c -0.938467276 0 -1.700787402 0.762320126 -1.700787402 1.700787402c 0 0.938467276 0.762320126 1.700787402 1.700787402 1.700787402c 0.938467276 0 1.700787402 -0.762320126 1.700787402 -1.700787402c 0 -0.938467276 -0.762320126 -1.700787402 -1.700787402 -1.700787402Z "/><path fill="none" stroke="#1a1a18" stroke-width="0.9" stroke-linecap="butt" stroke-linejoin="miter" stroke-miterlimit="4" transform="translate(114.121388889 67.283527559)" d="M 0 0h 49.742021485"/><path fill="#1a1a18" fill-rule="nonzero" stroke="#1a1a18" stroke-width="0.9" stroke-linecap="butt" stroke-linejoin="miter" stroke-miterlimit="4" transform="translate(163.863410369 65.157543307)" d="M 0 0m 5.669291339 2.125984252l -5.669291339 2.125984252v -4.251968504l 5.669291339 2.125984252Z "/><path fill="none" transform="translate(140.219595582 58.097807087)" d="M 0 0h 4.4965v 5.899h -4.4965v -5.899Z "/><g transform="translate(140.21959555 58.097806961)"><g transform="matrix(1 0 0 -1 0 5.8055)"><use xlink:href="#g39F48E50A5ADFC96318792B1DA5AC0B1" x="0" y="0" fill="#1a1a18" fill-rule="nonzero"/></g></g><path fill="none" stroke="#1a1a18" stroke-width="0.9" stroke-linecap="butt" stroke-linejoin="miter" stroke-miterlimit="4" transform="translate(114.121388889 27.746230483)" d="M 0 0m 0 39.537297076v -39.537297076"/><path fill="#1a1a18" fill-rule="nonzero" stroke="#1a1a18" stroke-width="0.9" stroke-linecap="butt" stroke-linejoin="miter" stroke-miterlimit="4" transform="translate(111.995404637 22.07693915)" d="M 0 0m 2.125984252 0l 2.125984252 5.669291339h -4.251968504l 2.125984252 -5.669291339Z "/><path fill="none" transform="translate(119.790680227 38.822216535)" d="M 0 0h 3.7655v 5.899h -3.7655v -5.899Z "/><g transform="translate(119.790680117 38.822216409)"><g transform="matrix(1 0 0 -1 0 5.8055)"><use xlink:href="#gD2A21C58A633BAB88EB52A9BA34C146F" x="0" y="0" fill="#1a1a18" fill-rule="nonzero"/></g></g><path fill="none" transform="translate(176.483593613 63.779527559)" d="M 0 0h 57.767111111v 7.008h -57.767111111v -7.008Z "/><g transform="translate(176.483593594 63.779527512)"><g transform="matrix(1 0 0 -1 0 5.464)"><use xlink:href="#gFDDD05521DE78EFF838EA56F62FE8A54" x="0" y="0" fill="#1a1a18" fill-rule="nonzero"/></g><g transform="matrix(1 0 0 -1 6.454222222 5.464)"><use xlink:href="#gA2B251B0E90D9A38F792EC9591589B7E" x="0" y="0" fill="#1a1a18" fill-rule="nonzero"/></g><g transform="matrix(1 0 0 -1 14.900444444 5.464)"><use xlink:href="#gC23134D0728D8439C9AF35D009E0F6AC" x="0" y="0" fill="#1a1a18" fill-rule="nonzero"/></g><g transform="matrix(1 0 0 -1 18.900444444 5.464)"><use xlink:href="#gB3EE0C1E16FACFE2BD9A098368C8D596" x="0" y="0" fill="#1a1a18" fill-rule="nonzero"/></g><g transform="matrix(1 0 0 -1 22.457777778 5.464)"><use xlink:href="#gF02158A8260C8CEFFF501CD9BC6703CD" x="0" y="0" fill="#1a1a18" fill-rule="nonzero"/></g><g transform="matrix(1 0 0 -1 26.457777778 5.464)"><use xlink:href="#g28E810B7BAD5B8D1325272E8868425C1" x="0" y="0" fill="#1a1a18" fill-rule="nonzero"/></g><g transform="matrix(1 0 0 -1 30.561777778 5.464)"><use xlink:href="#g28E810B7BAD5B8D1325272E8868425C1" x="0" y="0" fill="#1a1a18" fill-rule="nonzero"/></g><g transform="matrix(1 0 0 -1 34.665777778 5.464)"><use xlink:href="#gB3EE0C1E16FACFE2BD9A098368C8D596" x="0" y="0" fill="#1a1a18" fill-rule="nonzero"/></g><g transform="matrix(1 0 0 -1 38.223111111 5.464)"><use xlink:href="#gF02158A8260C8CEFFF501CD9BC6703CD" x="0" y="0" fill="#1a1a18" fill-rule="nonzero"/></g><g transform="matrix(1 0 0 -1 42.223111111 5.464)"><use xlink:href="#g65E8D346788AB534C3E73FF551B57CDB" x="0" y="0" fill="#1a1a18" fill-rule="nonzero"/></g><g transform="matrix(1 0 0 -1 46.223111111 5.464)"><use xlink:href="#g28E810B7BAD5B8D1325272E8868425C1" x="0" y="0" fill="#1a1a18" fill-rule="nonzero"/></g><g transform="matrix(1 0 0 -1 50.327111111 5.464)"><use xlink:href="#gE4F86D8BE8C69EC1EB36B973594724AB" x="2" y="0" fill="#1a1a18" fill-rule="nonzero"/></g></g><path fill="none" transform="translate(85.685833333)" d="M 0 0h 56.871111111v 7.008h -56.871111111v -7.008Z "/><g transform="translate(85.68583333 -4.7e-8)"><g transform="matrix(1 0 0 -1 0 5.464)"><use xlink:href="#gDF298D23A0F44589708525F4D0B3BD46" x="0" y="0" fill="#1a1a18" fill-rule="nonzero"/></g><g transform="matrix(1 0 0 -1 5.766222222 5.464)"><use xlink:href="#gA2B251B0E90D9A38F792EC9591589B7E" x="0" y="0" fill="#1a1a18" fill-rule="nonzero"/></g><g transform="matrix(1 0 0 -1 14.212444444 5.464)"><use xlink:href="#gC23134D0728D8439C9AF35D009E0F6AC" x="0" y="0" fill="#1a1a18" fill-rule="nonzero"/></g><g transform="matrix(1 0 0 -1 18.212444444 5.464)"><use xlink:href="#gB3EE0C1E16FACFE2BD9A098368C8D596" x="0" y="0" fill="#1a1a18" fill-rule="nonzero"/></g><g transform="matrix(1 0 0 -1 21.769777778 5.464)"><use xlink:href="#gF02158A8260C8CEFFF501CD9BC6703CD" x="0" y="0" fill="#1a1a18" fill-rule="nonzero"/></g><g transform="matrix(1 0 0 -1 25.769777778 5.464)"><use xlink:href="#gEC9EC0B91B9AA5142E699EBECE1315F2" x="0" y="0" fill="#1a1a18" fill-rule="nonzero"/></g><g transform="matrix(1 0 0 -1 29.769777778 5.464)"><use xlink:href="#gC23134D0728D8439C9AF35D009E0F6AC" x="0" y="0" fill="#1a1a18" fill-rule="nonzero"/></g><g transform="matrix(1 0 0 -1 33.769777778 5.464)"><use xlink:href="#gB3EE0C1E16FACFE2BD9A098368C8D596" x="0" y="0" fill="#1a1a18" fill-rule="nonzero"/></g><g transform="matrix(1 0 0 -1 37.327111111 5.464)"><use xlink:href="#g9133B69CFC884A26ED567EA7E95BBE58" x="0" y="0" fill="#1a1a18" fill-rule="nonzero"/></g><g transform="matrix(1 0 0 -1 41.327111111 5.464)"><use xlink:href="#g28E810B7BAD5B8D1325272E8868425C1" x="0" y="0" fill="#1a1a18" fill-rule="nonzero"/></g><g transform="matrix(1 0 0 -1 45.431111111 5.464)"><use xlink:href="#g65E8D346788AB534C3E73FF551B57CDB" x="0" y="0" fill="#1a1a18" fill-rule="nonzero"/></g><g transform="matrix(1 0 0 -1 49.431111111 5.464)"><use xlink:href="#gE4F86D8BE8C69EC1EB36B973594724AB" x="2" y="0" fill="#1a1a18" fill-rule="nonzero"/></g></g><path fill="none" transform="translate(0 133.717919291)" d="M 0 0h 228.242777778v 8.8635h -228.242777778v -8.8635Z "/><g transform="translate(-8.7e-8 133.717919197)"><g transform="matrix(1 0 0 -1 0 6.4885)"><use xlink:href="#g966D14D99AB05D933C4957B2E7FE95D9" x="0" y="0" fill="#1a1a18" fill-rule="nonzero"/><use xlink:href="#gF44FAB8653C15561E4D64E784B7F129A" x="4.066" y="0" fill="#1a1a18" fill-rule="nonzero"/><use xlink:href="#g30F02AEBABA7D40FC17FCA43D8EB3DAA" x="10.773" y="0" fill="#1a1a18" fill-rule="nonzero"/><use xlink:href="#gF1C320A4506B818F6BCB8CDA11A2DE6" x="15.1145" y="0" fill="#1a1a18" fill-rule="nonzero"/><use xlink:href="#g30870B079B88F136C2A9AD2E2890E4EB" x="19.342" y="0" fill="#1a1a18" fill-rule="nonzero"/><use xlink:href="#gA3A5C9019285A4C81365474C03E3CF4E" x="24.909" y="0" fill="#1a1a18" fill-rule="nonzero"/></g><g transform="matrix(1 0 0 -1 31.5305 6.4885)"><use xlink:href="#g60DB583B79EC9A2CF9FD677179E6DD65" x="0" y="0" fill="#1a1a18" fill-rule="nonzero"/></g><g transform="matrix(1 0 0 -1 39.679388889 6.4885)"><use xlink:href="#g527CAB0659B70EE9D8AC978D0844E68E" x="0" y="0" fill="#1a1a18" fill-rule="nonzero"/></g><g transform="matrix(1 0 0 -1 49.709277778 6.4885)"><use xlink:href="#g1EBFCB518258C4B1CE79CF5CD6F2CDA9" x="0" y="0" fill="#1a1a18" fill-rule="nonzero"/></g><g transform="matrix(1 0 0 -1 53.404777778 6.4885)"><use xlink:href="#g85C319C96905820022A4352F1EE9DDD6" x="0" y="0" fill="#1a1a18" fill-rule="nonzero"/></g><g transform="matrix(1 0 0 -1 60.541388889 6.4885)"><use xlink:href="#g9C061443BEA5D01EB6474501E282B2C6" x="0" y="0" fill="#1a1a18" fill-rule="nonzero"/></g><g transform="matrix(1 0 0 -1 70.0435 6.4885)"><use xlink:href="#g4372C2E7F463097DF4722CDC5D770C43" x="0" y="0" fill="#1a1a18" fill-rule="nonzero"/></g><g transform="matrix(1 0 0 -1 74.252 6.4885)"><use xlink:href="#g87ED897F4D302B2F2794ED12E3B4F790" x="0" y="0" fill="#1a1a18" fill-rule="nonzero"/></g><g transform="matrix(1 0 0 -1 77.9475 6.4885)"><use xlink:href="#gB72B4F83B5B617FC110DC392B5C9A1AE" x="0" y="0" fill="#1a1a18" fill-rule="nonzero"/></g><g transform="matrix(1 0 0 -1 82.6975 6.4885)"><use xlink:href="#g85C319C96905820022A4352F1EE9DDD6" x="0" y="0" fill="#1a1a18" fill-rule="nonzero"/></g><g transform="matrix(1 0 0 -1 90.361888889 6.4885)"><use xlink:href="#gEA658C0C75E30D4C9AABBC395E47D36C" x="0" y="0" fill="#1a1a18" fill-rule="nonzero"/></g><g transform="matrix(1 0 0 -1 100.344277778 6.4885)"><use xlink:href="#gE857CA6BF0DEB6F693A763FA4844BD28" x="0" y="0" fill="#1a1a18" fill-rule="nonzero"/></g><g transform="matrix(1 0 0 -1 105.094277778 6.4885)"><use xlink:href="#gB72B4F83B5B617FC110DC392B5C9A1AE" x="0" y="0" fill="#1a1a18" fill-rule="nonzero"/></g><g transform="matrix(1 0 0 -1 109.844277778 6.4885)"><use xlink:href="#g7B9CB793ADEA3E3D4A6889197B9DC4D9" x="0" y="0" fill="#1a1a18" fill-rule="nonzero"/></g><g transform="matrix(1 0 0 -1 114.594277778 6.4885)"><use xlink:href="#g977A1DC76CD080F9E7ADF10F56B856F2" x="0" y="0" fill="#1a1a18" fill-rule="nonzero"/></g><g transform="matrix(1 0 0 -1 119.344277778 6.4885)"><use xlink:href="#g977A1DC76CD080F9E7ADF10F56B856F2" x="0" y="0" fill="#1a1a18" fill-rule="nonzero"/></g><g transform="matrix(1 0 0 -1 124.094277778 6.4885)"><use xlink:href="#g998E9B7715464C640FC742F396E623D4" x="2.375" y="0" fill="#1a1a18" fill-rule="nonzero"/><use xlink:href="#g75E31E9387E94E3A457DA9304838F591" x="7.125" y="0" fill="#1a1a18" fill-rule="nonzero"/><use xlink:href="#gC110FFC20529D78AB6B9724BF2D3193A" x="12.692" y="0" fill="#1a1a18" fill-rule="nonzero"/><use xlink:href="#gC86282117E7C9F65658F6DDAC49FC51A" x="17.48" y="0" fill="#1a1a18" fill-rule="nonzero"/><use xlink:href="#g2F5F2E7C1D4D8DD5F9EF9384E7A4591" x="22.4865" y="0" fill="#1a1a18" fill-rule="nonzero"/><use xlink:href="#g966D14D99AB05D933C4957B2E7FE95D9" x="29.431" y="0" fill="#1a1a18" fill-rule="nonzero"/><use xlink:href="#gA087682AD38D2D620C1058FCC30E85F0" x="35.872" y="0" fill="#1a1a18" fill-rule="nonzero"/><use xlink:href="#gC86282117E7C9F65658F6DDAC49FC51A" x="40.5175" y="0" fill="#1a1a18" fill-rule="nonzero"/><use xlink:href="#g30870B079B88F136C2A9AD2E2890E4EB" x="45.524" y="0" fill="#1a1a18" fill-rule="nonzero"/><use xlink:href="#gF44FAB8653C15561E4D64E784B7F129A" x="51.091" y="0" fill="#1a1a18" fill-rule="nonzero"/><use xlink:href="#gA3A5C9019285A4C81365474C03E3CF4E" x="57.798" y="0" fill="#1a1a18" fill-rule="nonzero"/><use xlink:href="#g111F480562FE960BC5F50C637F145B12" x="64.4195" y="0" fill="#1a1a18" fill-rule="nonzero"/><use xlink:href="#g30F02AEBABA7D40FC17FCA43D8EB3DAA" x="69.9865" y="0" fill="#1a1a18" fill-rule="nonzero"/><use xlink:href="#g95773940B26E4395CA4B330A1FEA452D" x="76.703" y="0" fill="#1a1a18" fill-rule="nonzero"/><use xlink:href="#gA3220E2F1FB7118912BDD8E821739037" x="81.7095" y="0" fill="#1a1a18" fill-rule="nonzero"/><use xlink:href="#g9306FB0C3B17E70E1C2D3ADEB0A2AE83" x="86.127" y="0" fill="#1a1a18" fill-rule="nonzero"/><use xlink:href="#gDBB5E8F5FC9EB2F5349B9D49D6966C24" x="92.9195" y="0" fill="#1a1a18" fill-rule="nonzero"/><use xlink:href="#gC2CBF98E7E07B945C6FA500EA68B32AD" x="97.6885" y="0" fill="#1a1a18" fill-rule="nonzero"/></g></g></g><defs><symbol id="g39F48E50A5ADFC96318792B1DA5AC0B1" overflow="visible"><path d="M 0 0m 4.233 1.224c 0 0.0765 -0.0425 0.119 -0.136 0.119c -0.068 0 -0.119 -0.0595 -0.1445 -0.1785c -0.17 -0.6715 -0.374 -1.0115 -0.6035 -1.0115c -0.1445 0 -0.221 0.119 -0.221 0.357c 0 0.1105 0.034 0.3145 0.1105 0.612l 0.4845 1.9125c 0.0425 0.1615 0.0595 0.255 0.0595 0.2975c 0 0.17 -0.0935 0.255 -0.2805 0.255c -0.1785 0 -0.2975 -0.102 -0.357 -0.2975c -0.1785 0.3145 -0.4335 0.4675 -0.7565 0.4675c -0.5525 0 -1.037 -0.2805 -1.462 -0.8415c -0.391 -0.527 -0.5865 -1.071 -0.5865 -1.6405c 0 -0.7395 0.4335 -1.3685 1.1475 -1.3685c 0.3655 0 0.7225 0.1955 1.0625 0.5865c 0.0935 -0.323 0.3825 -0.5865 0.782 -0.5865c 0.5865 0 0.765 0.6885 0.901 1.3175Z m -1.3345 1.955c 0.0765 -0.1785 0.119 -0.2975 0.119 -0.374c 0 -0.034 -0.0085 -0.0765 -0.017 -0.136l -0.4165 -1.632c -0.0255 -0.0935 -0.085 -0.1955 -0.1615 -0.2975c -0.3145 -0.391 -0.6205 -0.5865 -0.918 -0.5865c -0.3315 0 -0.5015 0.255 -0.5015 0.7565c 0 0.204 0.051 0.51 0.153 0.918c 0.1785 0.7225 0.4335 1.207 0.748 1.4705c 0.17 0.1445 0.3315 0.2125 0.493 0.2125c 0.2295 0 0.3995 -0.1105 0.5015 -0.3315Z "/></symbol><symbol id="gD2A21C58A633BAB88EB52A9BA34C146F" overflow="visible"><path d="M 0 0m 2.3885 3.7825c -0.306 0 -0.612 -0.1445 -0.9095 -0.4335l 0.5865 2.4225c -0.017 0.0765 -0.0425 0.1275 -0.1445 0.1275c -0.2805 0 -0.901 -0.0765 -1.0115 -0.085c -0.1275 -0.017 -0.1955 -0.0765 -0.1955 -0.204c 0 -0.085 0.0765 -0.1275 0.238 -0.1275c 0.1615 0 0.3825 0.0085 0.3825 -0.1105c 0 -0.034 -0.0425 -0.204 -0.119 -0.5185l -0.68 -2.737c -0.0935 -0.357 -0.136 -0.646 -0.136 -0.8585c 0 -0.731 0.391 -1.3515 1.088 -1.3515c 0.5525 0 1.037 0.2805 1.462 0.85c 0.3825 0.527 0.578 1.0795 0.578 1.649c 0 0.7395 -0.4335 1.377 -1.139 1.377Z m -0.017 -0.255c 0.3315 0 0.493 -0.255 0.493 -0.7565c 0 -0.2295 -0.051 -0.5355 -0.153 -0.918c -0.187 -0.7225 -0.4335 -1.2155 -0.731 -1.479c -0.17 -0.1445 -0.3315 -0.2125 -0.493 -0.2125c -0.3485 0 -0.5185 0.272 -0.5185 0.816c 0 0.187 0.0425 0.4675 0.1275 0.8415l 0.187 0.765c 0.0255 0.1275 0.068 0.221 0.119 0.289c 0.3315 0.4335 0.6545 0.6545 0.969 0.6545Z "/></symbol><symbol id="gFDDD05521DE78EFF838EA56F62FE8A54" overflow="visible"><path d="M 0 0m 3.984 1.152c 0 0.072 -0.04 0.112 -0.128 0.112c -0.064 0 -0.112 -0.056 -0.136 -0.168c -0.16 -0.632 -0.352 -0.952 -0.568 -0.952c -0.136 0 -0.208 0.112 -0.208 0.336c 0 0.104 0.032 0.296 0.104 0.576l 0.456 1.8c 0.04 0.152 0.056 0.24 0.056 0.28c 0 0.16 -0.088 0.24 -0.264 0.24c -0.168 0 -0.28 -0.096 -0.336 -0.28c -0.168 0.296 -0.408 0.44 -0.712 0.44c -0.52 0 -0.976 -0.264 -1.376 -0.792c -0.368 -0.496 -0.552 -1.008 -0.552 -1.544c 0 -0.696 0.408 -1.288 1.08 -1.288c 0.344 0 0.68 0.184 1 0.552c 0.088 -0.304 0.36 -0.552 0.736 -0.552c 0.552 0 0.72 0.648 0.848 1.24Z m -1.256 1.84c 0.072 -0.168 0.112 -0.28 0.112 -0.352c 0 -0.032 -0.008 -0.072 -0.016 -0.128l -0.392 -1.536c -0.024 -0.088 -0.08 -0.184 -0.152 -0.28c -0.296 -0.368 -0.584 -0.552 -0.864 -0.552c -0.312 0 -0.472 0.24 -0.472 0.712c 0 0.192 0.048 0.48 0.144 0.864c 0.168 0.68 0.408 1.136 0.704 1.384c 0.16 0.136 0.312 0.2 0.464 0.2c 0.216 0 0.376 -0.104 0.472 -0.312Z "/></symbol><symbol id="gA2B251B0E90D9A38F792EC9591589B7E" overflow="visible"><path d="M 0 0m 5.584 2.936h -4.944c -0.128 0 -0.192 -0.064 -0.192 -0.184c 0 -0.12 0.064 -0.184 0.192 -0.184h 4.944c 0.128 0 0.192 0.064 0.192 0.184c 0 0.096 -0.088 0.184 -0.192 0.184Z m 0 -1.504h -4.944c -0.128 0 -0.192 -0.064 -0.192 -0.184c 0 -0.12 0.064 -0.184 0.192 -0.184h 4.944c 0.128 0 0.192 0.064 0.192 0.184c 0 0.104 -0.088 0.184 -0.192 0.184Z "/></symbol><symbol id="gC23134D0728D8439C9AF35D009E0F6AC" overflow="visible"><path d="M 0 0m 3.064 4.032c 0.264 0 0.392 0.136 0.392 0.408c 0 0.576 -0.432 0.888 -1.024 0.888c -0.664 0 -1.192 -0.312 -1.584 -0.944c -0.344 -0.544 -0.512 -1.16 -0.512 -1.856c 0 -1.016 0.184 -1.728 0.56 -2.152c 0.32 -0.368 0.688 -0.552 1.112 -0.552c 0.488 0 0.888 0.184 1.2 0.552c 0.296 0.352 0.448 0.776 0.448 1.264c 0 0.488 -0.144 0.904 -0.432 1.248c -0.304 0.368 -0.696 0.56 -1.168 0.56c -0.416 0 -0.736 -0.232 -0.952 -0.68v 0.048c 0 0.904 0.224 1.672 0.704 2.024c 0.208 0.152 0.424 0.224 0.64 0.224c 0.288 0 0.496 -0.08 0.632 -0.248c -0.272 0 -0.408 -0.152 -0.408 -0.392c 0 -0.224 0.168 -0.392 0.392 -0.392Z m -0.312 -1.312c 0.088 -0.184 0.136 -0.544 0.136 -1.072c 0 -0.52 -0.04 -0.864 -0.128 -1.04c -0.16 -0.328 -0.408 -0.496 -0.752 -0.496c -0.232 0 -0.408 0.08 -0.536 0.24c -0.104 0.128 -0.176 0.24 -0.208 0.328c -0.096 0.248 -0.144 0.624 -0.144 1.136c 0 0.224 0.032 0.44 0.088 0.648c 0.104 0.376 0.4 0.728 0.84 0.728c 0.312 0 0.552 -0.16 0.704 -0.472Z "/></symbol><symbol id="gB3EE0C1E16FACFE2BD9A098368C8D596" overflow="visible"><path d="M 0 0m 1.112 0.848c -0.256 0 -0.424 -0.192 -0.424 -0.448c 0 -0.24 0.184 -0.44 0.424 -0.44c 0.112 0 0.208 0.032 0.28 0.104l 0.008 -0.064c 0 -0.504 -0.168 -0.936 -0.504 -1.28c -0.056 -0.064 -0.088 -0.112 -0.088 -0.144c 0 -0.08 0.032 -0.12 0.104 -0.12c 0.072 0 0.168 0.096 0.304 0.28c 0.272 0.384 0.408 0.808 0.408 1.264c 0 0.424 -0.144 0.848 -0.512 0.848Z "/></symbol><symbol id="gF02158A8260C8CEFFF501CD9BC6703CD" overflow="visible"><path d="M 0 0m 2.424 2.824c 0.528 0.2 1.024 0.704 1.024 1.384c 0 0.344 -0.168 0.624 -0.496 0.84c -0.288 0.184 -0.616 0.28 -0.984 0.28c -0.36 0 -0.672 -0.096 -0.952 -0.28c -0.312 -0.208 -0.472 -0.48 -0.472 -0.824c 0 -0.264 0.176 -0.448 0.432 -0.448c 0.256 0 0.432 0.184 0.432 0.44c 0 0.264 -0.152 0.408 -0.456 0.424c 0.208 0.28 0.536 0.424 0.984 0.424c 0.48 0 0.72 -0.28 0.72 -0.848c 0 -0.336 -0.064 -0.616 -0.184 -0.848c -0.216 -0.384 -0.512 -0.456 -1.008 -0.456c -0.096 -0.016 -0.144 -0.056 -0.144 -0.128c 0 -0.12 0.056 -0.12 0.216 -0.12h 0.344c 0.6 0 0.904 -0.424 0.904 -1.28c 0 -0.68 -0.248 -1.272 -0.856 -1.272c -0.52 0 -0.904 0.176 -1.136 0.528c 0.28 -0.008 0.488 0.2 0.488 0.472c 0 0.272 -0.2 0.472 -0.472 0.472c -0.312 0 -0.472 -0.16 -0.472 -0.488c 0 -0.392 0.176 -0.704 0.528 -0.952c 0.312 -0.216 0.68 -0.32 1.088 -0.32c 0.456 0 0.848 0.152 1.192 0.448c 0.344 0.296 0.512 0.664 0.512 1.112c 0 0.752 -0.592 1.272 -1.232 1.44Z "/></symbol><symbol id="g28E810B7BAD5B8D1325272E8868425C1" overflow="visible"><path d="M 0 0m 3.8 4.832c 0.056 0.072 0.08 0.176 0.08 0.32h -1.936c -0.552 0 -0.864 0.032 -0.92 0.104c -0.024 0.024 -0.048 0.08 -0.064 0.152h -0.248l -0.272 -1.696h 0.264c 0.08 0.448 0.144 0.688 0.192 0.728c 0.024 0.024 0.272 0.04 0.744 0.04h 1.568l -0.848 -1.2c -0.648 -0.92 -0.968 -1.912 -0.968 -2.992c 0 -0.312 0.128 -0.464 0.392 -0.464c 0.264 0 0.392 0.152 0.392 0.464v 0.408c 0 1.216 0.192 2.096 0.568 2.632Z "/></symbol><symbol id="g65E8D346788AB534C3E73FF551B57CDB" overflow="visible"><path d="M 0 0m 0.928 1.12c -0.264 0 -0.392 -0.136 -0.392 -0.408c 0 -0.6 0.488 -0.888 1.12 -0.888c 0.64 0 1.152 0.32 1.528 0.968c 0.312 0.536 0.472 1.152 0.472 1.84c 0 1.016 -0.184 1.736 -0.552 2.16c -0.312 0.36 -0.672 0.536 -1.08 0.536c -0.472 0 -0.864 -0.168 -1.176 -0.512c -0.344 -0.36 -0.512 -0.792 -0.512 -1.296c 0 -0.488 0.144 -0.904 0.432 -1.248c 0.304 -0.368 0.696 -0.552 1.168 -0.552c 0.416 0 0.736 0.224 0.952 0.672v -0.104c 0 -0.872 -0.152 -1.464 -0.464 -1.784c -0.248 -0.264 -0.512 -0.392 -0.776 -0.392c -0.32 0 -0.552 0.072 -0.704 0.224c 0.248 0 0.376 0.144 0.376 0.392c 0 0.224 -0.168 0.392 -0.392 0.392Z m 1.016 0.848c -0.312 0 -0.544 0.16 -0.704 0.48c -0.088 0.184 -0.136 0.544 -0.136 1.064c 0 0.52 0.056 0.872 0.16 1.072c 0.176 0.32 0.432 0.48 0.76 0.48c 0.328 0 0.568 -0.2 0.72 -0.6c 0.088 -0.216 0.144 -0.584 0.144 -1.104c 0 -0.696 -0.312 -1.392 -0.944 -1.392Z "/></symbol><symbol id="gE4F86D8BE8C69EC1EB36B973594724AB" overflow="visible"><path d="M 0 0m 0.936 2.448l -0.048 -1.488c -0.024 -0.672 -0.144 -0.688 -0.608 -0.712c -0.048 -0.048 -0.048 -0.216 0 -0.264c 0.16 0.008 0.56 0.016 0.688 0.016c 0.16 0 0.536 -0.008 0.696 -0.016c 0.048 0.048 0.048 0.216 0 0.264c -0.456 0.032 -0.488 0.112 -0.472 0.712l 0.056 1.96c 0 0.072 0.032 0.072 0.064 0l 1.16 -2.832c 0.032 -0.024 0.064 -0.024 0.088 0l 1.312 2.824c 0.04 0.088 0.08 0.096 0.08 0l -0.008 -1.936c 0 -0.664 -0.056 -0.688 -0.544 -0.728c -0.048 -0.048 -0.048 -0.216 0 -0.264c 0.288 0.008 0.584 0.016 0.864 0.016c 0.24 0 0.584 -0.008 0.896 -0.016c 0.048 0.048 0.048 0.216 0 0.264c -0.488 0.032 -0.576 0.064 -0.576 0.728l -0.016 1.48c -0.008 0.664 0.088 0.688 0.576 0.728c 0.048 0.048 0.048 0.216 0 0.264c -0.28 -0.016 -1.056 -0.016 -1.32 -0.016l -1.064 -2.288l -0.04 -0.08l -0.032 0.08l -0.936 2.288c -0.264 0 -1.112 0 -1.392 0.016c -0.048 -0.048 -0.048 -0.216 0 -0.264c 0.488 -0.04 0.6 -0.072 0.576 -0.736Z "/></symbol><symbol id="gDF298D23A0F44589708525F4D0B3BD46" overflow="visible"><path d="M 0 0m 2.248 3.56c -0.288 0 -0.576 -0.136 -0.856 -0.408l 0.552 2.28c -0.016 0.072 -0.04 0.12 -0.136 0.12c -0.264 0 -0.848 -0.072 -0.952 -0.08c -0.12 -0.016 -0.184 -0.072 -0.184 -0.192c 0 -0.08 0.072 -0.12 0.224 -0.12c 0.152 0 0.36 0.008 0.36 -0.104c 0 -0.032 -0.04 -0.192 -0.112 -0.488l -0.64 -2.576c -0.088 -0.336 -0.128 -0.608 -0.128 -0.808c 0 -0.688 0.368 -1.272 1.024 -1.272c 0.52 0 0.976 0.264 1.376 0.8c 0.36 0.496 0.544 1.016 0.544 1.552c 0 0.696 -0.408 1.296 -1.072 1.296Z m -0.016 -0.24c 0.312 0 0.464 -0.24 0.464 -0.712c 0 -0.216 -0.048 -0.504 -0.144 -0.864c -0.176 -0.68 -0.408 -1.144 -0.688 -1.392c -0.16 -0.136 -0.312 -0.2 -0.464 -0.2c -0.328 0 -0.488 0.256 -0.488 0.768c 0 0.176 0.04 0.44 0.12 0.792l 0.176 0.72c 0.024 0.12 0.064 0.208 0.112 0.272c 0.312 0.408 0.616 0.616 0.912 0.616Z "/></symbol><symbol id="gEC9EC0B91B9AA5142E699EBECE1315F2" overflow="visible"><path d="M 0 0m 0.944 2.52c 0.04 0 0.088 0.032 0.128 0.088c 0.24 0.36 0.568 0.536 0.984 0.536c 0.28 0 0.496 -0.16 0.64 -0.488c 0.088 -0.216 0.136 -0.544 0.136 -0.984c 0 -0.504 -0.064 -0.856 -0.184 -1.064c -0.2 -0.328 -0.472 -0.496 -0.816 -0.496c -0.536 0 -0.96 0.384 -1.104 0.8c 0.024 -0.008 0.04 0 0.072 0c 0.24 0 0.44 0.184 0.44 0.424c 0 0.248 -0.2 0.416 -0.44 0.416c -0.28 0 -0.4 -0.152 -0.4 -0.448c 0 -0.8 0.648 -1.48 1.448 -1.48c 0.488 0 0.904 0.176 1.24 0.528c 0.336 0.352 0.504 0.776 0.504 1.264c 0 0.464 -0.136 0.864 -0.408 1.208c -0.296 0.376 -0.664 0.56 -1.112 0.56c -0.376 0 -0.704 -0.12 -0.968 -0.36v 1.424c 0.216 -0.064 0.424 -0.096 0.64 -0.096c 0.368 0 0.688 0.088 0.96 0.272c 0.248 0.152 0.416 0.304 0.512 0.448c 0.048 0.064 0.072 0.112 0.072 0.136c 0 0.08 -0.04 0.12 -0.12 0.12c -0.44 -0.168 -0.816 -0.256 -1.12 -0.256c -0.36 0 -0.704 0.072 -1.032 0.224c -0.04 0.016 -0.072 0.024 -0.104 0.024c -0.072 0 -0.112 -0.072 -0.112 -0.224v -2.336c 0 -0.168 0 -0.24 0.144 -0.24Z "/></symbol><symbol id="g9133B69CFC884A26ED567EA7E95BBE58" overflow="visible"><path d="M 0 0m 1.992 -0.176c 1.128 0 1.688 0.912 1.688 2.736c 0 1.224 -0.256 2.04 -0.76 2.44c -0.28 0.216 -0.592 0.328 -0.92 0.328c -1.128 0 -1.688 -0.92 -1.688 -2.768c 0 -1.472 0.392 -2.736 1.68 -2.736Z m 0.896 4.368c 0.056 -0.28 0.08 -0.792 0.08 -1.536c 0 -0.736 -0.032 -1.28 -0.088 -1.632c -0.104 -0.64 -0.4 -0.96 -0.888 -0.96c -0.184 0 -0.368 0.072 -0.536 0.208c -0.216 0.184 -0.344 0.56 -0.4 1.136c -0.024 0.2 -0.032 0.616 -0.032 1.248c 0 0.696 0.024 1.184 0.064 1.448c 0.072 0.44 0.216 0.72 0.44 0.84c 0.176 0.096 0.328 0.144 0.464 0.144c 0.52 0 0.808 -0.424 0.896 -0.896Z "/></symbol><symbol id="g966D14D99AB05D933C4957B2E7FE95D9" overflow="visible"><path d="M 0 0m 3.781 0.8645c -0.038 0.0855 -0.114 0.1235 -0.1995 0.133c -0.323 -0.418 -0.7315 -0.627 -1.14 -0.627c -0.6935 0 -1.273 0.703 -1.273 1.8145c 0 1.045 0.456 1.672 1.083 1.672c 0.5605 0 0.6365 -0.3325 0.6745 -0.665c 0.0285 -0.2565 0.1615 -0.342 0.361 -0.342c 0.1995 0 0.4655 0.1235 0.4655 0.418c 0 0.5225 -0.5415 0.9025 -1.4535 0.9025c -0.9405 0 -1.9475 -0.8455 -1.9475 -2.1945c 0 -1.2255 0.684 -2.071 1.881 -2.071c 0.57 0 1.0735 0.1805 1.5485 0.9595Z "/></symbol><symbol id="gF44FAB8653C15561E4D64E784B7F129A" overflow="visible"><path d="M 0 0m 1.0355 0c 0.19 0.0095 0.3515 0.228 0.475 0.4845l 0.4085 0.855c 0.171 0.3515 0.437 0.608 1.083 0.646v -0.8265c 0 -0.7885 -0.114 -0.817 -0.5985 -0.8645c -0.057 -0.057 -0.057 -0.2565 0 -0.3135c 0.2185 0.0095 0.57 0.019 0.95 0.019c 0.3705 0 0.7315 -0.0095 0.9405 -0.019c 0.057 0.057 0.057 0.2565 0 0.3135c -0.4845 0.038 -0.5985 0.076 -0.5985 0.8645v 0.8265c 0.646 -0.038 0.912 -0.2945 1.083 -0.646l 0.4085 -0.855c 0.1235 -0.2565 0.285 -0.475 0.475 -0.4845c 0 0 0.703 -0.0095 0.893 -0.019c 0.057 0.057 0.057 0.2565 0 0.3135c -0.3705 0.019 -0.4655 0.095 -0.627 0.399l -0.4275 0.8075c -0.2375 0.4465 -0.551 0.6745 -1.0925 0.6745v 0.0285c 0.3705 0.1045 0.532 0.437 0.6745 0.817c 0.114 0.2945 0.228 0.475 0.4275 0.475c 0.0855 0 0.1615 -0.0285 0.2185 -0.0665c 0.057 -0.038 0.1615 -0.0665 0.285 -0.0665c 0.209 0 0.38 0.1805 0.38 0.3705c 0 0.209 -0.228 0.4275 -0.5415 0.4275c -0.551 0 -0.8075 -0.513 -0.988 -0.9595c -0.209 -0.5225 -0.494 -0.8835 -1.1685 -0.8835v 0.5985c 0 0.7885 0.114 0.817 0.5985 0.8645c 0.057 0.057 0.057 0.2565 0 0.3135c -0.228 -0.0095 -0.57 -0.019 -0.95 -0.019c -0.3705 0 -0.722 0.0095 -0.9405 0.019c -0.057 -0.057 -0.057 -0.2565 0 -0.3135c 0.4845 -0.038 0.5985 -0.076 0.5985 -0.8645v -0.5985c -0.6745 0 -0.9595 0.361 -1.1685 0.8835c -0.1805 0.4465 -0.437 0.9595 -0.988 0.9595c -0.3135 0 -0.5415 -0.2185 -0.5415 -0.4275c 0 -0.19 0.171 -0.3705 0.38 -0.3705c 0.1235 0 0.228 0.0285 0.285 0.0665c 0.057 0.038 0.133 0.0665 0.2185 0.0665c 0.1995 0 0.3135 -0.1805 0.4275 -0.475c 0.1425 -0.38 0.304 -0.7125 0.6745 -0.817v -0.0285c -0.5415 0 -0.855 -0.228 -1.0925 -0.6745l -0.4275 -0.8075c -0.1615 -0.304 -0.2565 -0.38 -0.627 -0.399c -0.057 -0.057 -0.057 -0.2565 0 -0.3135c 0.19 0.0095 0.893 0.019 0.893 0.019Z "/></symbol><symbol id="g30F02AEBABA7D40FC17FCA43D8EB3DAA" overflow="visible"><path d="M 0 0m 2.7835 0.456c 0.057 -0.2945 0.1615 -0.551 0.6365 -0.551c 0.361 0 0.703 0.1615 0.9025 0.3515c -0.019 0.114 -0.057 0.1995 -0.1615 0.2565c -0.0665 -0.057 -0.228 -0.152 -0.3515 -0.152c -0.2755 0 -0.285 0.3705 -0.285 0.8075v 1.3965c 0 1.349 -0.741 1.6055 -1.4345 1.6055c -0.779 0 -1.5675 -0.513 -1.5675 -1.0545c 0 -0.228 0.114 -0.342 0.3325 -0.342c 0.2755 0 0.4465 0.1995 0.4465 0.323c 0 0.0665 -0.0095 0.133 -0.0285 0.171c -0.0095 0.0285 -0.019 0.0855 -0.019 0.19c 0 0.2945 0.399 0.399 0.76 0.399c 0.323 0 0.7695 -0.1615 0.7695 -1.235c 0 -0.0665 -0.0285 -0.1045 -0.057 -0.114l -0.817 -0.1995c -0.912 -0.228 -1.5675 -0.7315 -1.5675 -1.3775c 0 -0.779 0.532 -1.026 1.197 -1.026c 0.3325 0 0.6175 0.076 1.0355 0.399l 0.19 0.152Z m 0 1.7575v -1.254c 0 -0.1235 -0.057 -0.19 -0.133 -0.247c -0.247 -0.1995 -0.57 -0.418 -0.836 -0.418c -0.475 0 -0.684 0.38 -0.684 0.6745c 0 0.4275 0.1995 0.8645 0.9025 1.045Z "/></symbol><symbol id="gF1C320A4506B818F6BCB8CDA11A2DE6" overflow="visible"><path d="M 0 0m 1.729 1.159c 0 -0.7885 -0.1045 -0.836 -0.684 -0.8645c -0.057 -0.057 -0.057 -0.2565 0 -0.3135c 0.3705 0.0095 0.7505 0.019 1.064 0.019c 0.323 0 0.6935 -0.0095 1.0545 -0.019c 0.057 0.057 0.057 0.2565 0 0.3135c -0.5795 0.0285 -0.684 0.076 -0.684 0.8645v 2.565h 0.1615c 0.7695 0 0.9215 -0.266 1.083 -1.0355c 0.1235 0 0.247 0.038 0.247 0.038c -0.057 0.437 -0.095 0.855 -0.1045 1.406c -0.2185 -0.019 -0.931 -0.057 -1.406 -0.057h -0.7125c -0.475 0 -1.007 0.0285 -1.387 0.057c -0.0095 -0.551 -0.0475 -0.969 -0.114 -1.406c 0 0 0.133 -0.038 0.2565 -0.038c 0.1615 0.7695 0.304 1.0355 1.083 1.0355h 0.1425Z "/></symbol><symbol id="g30870B079B88F136C2A9AD2E2890E4EB" overflow="visible"><path d="M 0 0m 1.881 0.5985c -0.0285 0 -0.0665 0.019 -0.0665 0.114v 2.166c 0 0.7885 0.1995 0.874 0.684 0.9025c 0.057 0.057 0.057 0.2565 0 0.3135c -0.2185 -0.0095 -0.76 -0.019 -1.1115 -0.019c -0.3135 0 -0.6935 0.0095 -1.0545 0.019c -0.057 -0.057 -0.057 -0.2565 0 -0.3135c 0.5795 -0.0285 0.7315 -0.114 0.7315 -0.9025v -1.6815c 0 -0.7885 -0.152 -0.874 -0.7315 -0.9025c -0.057 -0.057 -0.057 -0.2565 0 -0.3135c 0.3705 0.0095 0.7505 0.019 1.0545 0.019c 0.2185 0 0.475 -0.0095 0.5795 -0.019c 0.0475 0.133 0.133 0.323 0.2375 0.513l 1.482 2.9735c 0.0285 0 0.0665 -0.019 0.0665 -0.114v -2.1565c 0 -0.7885 -0.1995 -0.874 -0.684 -0.9025c -0.057 -0.057 -0.057 -0.2565 0 -0.3135c 0.2185 0.0095 0.7315 0.019 1.1115 0.019c 0.2945 0 0.684 -0.0095 1.0545 -0.019c 0.057 0.057 0.057 0.2565 0 0.3135c -0.5795 0.0285 -0.7315 0.114 -0.7315 0.9025v 1.6815c 0 0.7885 0.152 0.874 0.7315 0.9025c 0.057 0.057 0.057 0.2565 0 0.3135c -0.38 -0.0095 -0.76 -0.019 -1.0545 -0.019c -0.209 0 -0.475 0.0095 -0.57 0.019c -0.076 -0.171 -0.1615 -0.3705 -0.247 -0.532Z "/></symbol><symbol id="gA3A5C9019285A4C81365474C03E3CF4E" overflow="visible"><path d="M 0 0m 3.667 0.8835c -0.3515 -0.361 -0.627 -0.513 -1.178 -0.513c -0.342 0 -0.741 0.1995 -1.0355 0.684c -0.19 0.3135 -0.304 0.7505 -0.304 1.3015l 2.527 -0.019c 0.114 0 0.1805 0.057 0.1805 0.1615c 0 0.798 -0.285 1.653 -1.6055 1.653c -0.8265 0 -1.9 -0.7885 -1.9 -2.2325c 0 -0.532 0.133 -1.045 0.4465 -1.406c 0.323 -0.38 0.7695 -0.608 1.4535 -0.608c 0.722 0 1.235 0.3325 1.615 0.8265c -0.0285 0.095 -0.0855 0.1425 -0.1995 0.152Z m -2.489 1.7955c 0.1805 1.0735 0.8455 1.159 1.0735 1.159c 0.361 0 0.7885 -0.1995 0.7885 -0.9975c 0 -0.0855 -0.038 -0.133 -0.1425 -0.133Z "/></symbol><symbol id="g60DB583B79EC9A2CF9FD677179E6DD65" overflow="visible"><path d="M 0 0m 5.244 6.0135c 0 0.418 -0.4085 0.684 -0.855 0.684c -0.589 0 -0.9975 -0.38 -1.216 -1.1305c -0.0475 -0.171 -0.152 -0.6555 -0.304 -1.4535h -0.6175c -0.209 0 -0.3135 -0.0095 -0.3135 -0.209c 0 -0.1045 0.095 -0.152 0.2945 -0.152h 0.57l -0.6935 -3.6765c -0.1045 -0.5415 -0.1995 -0.9405 -0.285 -1.2065c -0.114 -0.3515 -0.2755 -0.532 -0.4845 -0.532c -0.1425 0 -0.2565 0.038 -0.361 0.1045c 0.304 0.0475 0.456 0.228 0.456 0.532c 0 0.247 -0.1235 0.3705 -0.38 0.3705c -0.323 0 -0.551 -0.285 -0.551 -0.608c 0 -0.418 0.3895 -0.684 0.836 -0.684c 0.2375 0 0.456 0.095 0.6365 0.2945c 0.304 0.3135 0.5415 0.76 0.7125 1.3585c 0.1045 0.3705 0.1995 0.7315 0.266 1.0925l 0.551 2.9545h 0.779c 0.2185 0 0.3135 0.0095 0.3135 0.228c 0 0.0855 -0.095 0.133 -0.285 0.133h -0.7315c 0.057 0.3895 0.323 1.824 0.4085 2.0045c 0.095 0.1995 0.228 0.2945 0.399 0.2945c 0.1425 0 0.266 -0.038 0.3705 -0.1045c -0.2945 -0.0665 -0.4465 -0.2375 -0.4465 -0.532c 0 -0.247 0.1235 -0.3705 0.38 -0.3705c 0.323 0 0.551 0.285 0.551 0.608Z "/></symbol><symbol id="g527CAB0659B70EE9D8AC978D0844E68E" overflow="visible"><path d="M 0 0m 6.631 3.4865h -5.871c -0.152 0 -0.228 -0.076 -0.228 -0.2185c 0 -0.1425 0.076 -0.2185 0.228 -0.2185h 5.871c 0.152 0 0.228 0.076 0.228 0.2185c 0 0.114 -0.1045 0.2185 -0.228 0.2185Z m 0 -1.786h -5.871c -0.152 0 -0.228 -0.076 -0.228 -0.2185c 0 -0.1425 0.076 -0.2185 0.228 -0.2185h 5.871c 0.152 0 0.228 0.076 0.228 0.2185c 0 0.1235 -0.1045 0.2185 -0.228 0.2185Z "/></symbol><symbol id="g1EBFCB518258C4B1CE79CF5CD6F2CDA9" overflow="visible"><path d="M 0 0m 3.021 -2.356c 0.0855 0 0.133 0.0475 0.133 0.133c 0 0.0285 -0.019 0.0665 -0.0475 0.1045c -0.494 0.38 -0.893 1.007 -1.1875 1.8715c -0.2565 0.7505 -0.3895 1.4915 -0.3895 2.223v 0.798c 0 0.7315 0.133 1.4725 0.3895 2.223c 0.2945 0.8645 0.6935 1.4915 1.1875 1.8715c 0.0285 0.0285 0.0475 0.0665 0.0475 0.1045c 0 0.0855 -0.0475 0.133 -0.133 0.133c -0.0095 0 -0.038 -0.0095 -0.0665 -0.0285c -0.57 -0.437 -1.045 -1.083 -1.4345 -1.9475c -0.3705 -0.8265 -0.5605 -1.6055 -0.5605 -2.356v -0.798c 0 -0.7505 0.19 -1.5295 0.5605 -2.356c 0.3895 -0.8645 0.8645 -1.5105 1.4345 -1.9475c 0.0285 -0.019 0.057 -0.0285 0.0665 -0.0285Z "/></symbol><symbol id="g85C319C96905820022A4352F1EE9DDD6" overflow="visible"><path d="M 0 0m 4.731 1.368c 0 0.0855 -0.0475 0.133 -0.152 0.133c -0.076 0 -0.133 -0.0665 -0.1615 -0.1995c -0.19 -0.7505 -0.418 -1.1305 -0.6745 -1.1305c -0.1615 0 -0.247 0.133 -0.247 0.399c 0 0.1235 0.038 0.3515 0.1235 0.684l 0.5415 2.1375c 0.0475 0.1805 0.0665 0.285 0.0665 0.3325c 0 0.19 -0.1045 0.285 -0.3135 0.285c -0.1995 0 -0.3325 -0.114 -0.399 -0.3325c -0.1995 0.3515 -0.4845 0.5225 -0.8455 0.5225c -0.6175 0 -1.159 -0.3135 -1.634 -0.9405c -0.437 -0.589 -0.6555 -1.197 -0.6555 -1.8335c 0 -0.8265 0.4845 -1.5295 1.2825 -1.5295c 0.4085 0 0.8075 0.2185 1.1875 0.6555c 0.1045 -0.361 0.4275 -0.6555 0.874 -0.6555c 0.6555 0 0.855 0.7695 1.007 1.4725Z m -1.4915 2.185c 0.0855 -0.1995 0.133 -0.3325 0.133 -0.418c 0 -0.038 -0.0095 -0.0855 -0.019 -0.152l -0.4655 -1.824c -0.0285 -0.1045 -0.095 -0.2185 -0.1805 -0.3325c -0.3515 -0.437 -0.6935 -0.6555 -1.026 -0.6555c -0.3705 0 -0.5605 0.285 -0.5605 0.8455c 0 0.228 0.057 0.57 0.171 1.026c 0.1995 0.8075 0.4845 1.349 0.836 1.6435c 0.19 0.1615 0.3705 0.2375 0.551 0.2375c 0.2565 0 0.4465 -0.1235 0.5605 -0.3705Z "/></symbol><symbol id="g9C061443BEA5D01EB6474501E282B2C6" overflow="visible"><path d="M 0 0m 6.631 2.565h -5.871c -0.152 0 -0.228 -0.0665 -0.228 -0.19c 0 -0.1235 0.076 -0.19 0.228 -0.19h 5.871c 0.152 0 0.228 0.0665 0.228 0.19c 0 0.114 -0.114 0.19 -0.228 0.19Z "/></symbol><symbol id="g4372C2E7F463097DF4722CDC5D770C43" overflow="visible"><path d="M 0 0m 2.6695 4.2275c -0.342 0 -0.684 -0.1615 -1.0165 -0.4845l 0.6555 2.7075c -0.019 0.0855 -0.0475 0.1425 -0.1615 0.1425c -0.3135 0 -1.007 -0.0855 -1.1305 -0.095c -0.1425 -0.019 -0.2185 -0.0855 -0.2185 -0.228c 0 -0.095 0.0855 -0.1425 0.266 -0.1425c 0.1805 0 0.4275 0.0095 0.4275 -0.1235c 0 -0.038 -0.0475 -0.228 -0.133 -0.5795l -0.76 -3.059c -0.1045 -0.399 -0.152 -0.722 -0.152 -0.9595c 0 -0.817 0.437 -1.5105 1.216 -1.5105c 0.6175 0 1.159 0.3135 1.634 0.95c 0.4275 0.589 0.646 1.2065 0.646 1.843c 0 0.8265 -0.4845 1.539 -1.273 1.539Z m -0.019 -0.285c 0.3705 0 0.551 -0.285 0.551 -0.8455c 0 -0.2565 -0.057 -0.5985 -0.171 -1.026c -0.209 -0.8075 -0.4845 -1.3585 -0.817 -1.653c -0.19 -0.1615 -0.3705 -0.2375 -0.551 -0.2375c -0.3895 0 -0.5795 0.304 -0.5795 0.912c 0 0.209 0.0475 0.5225 0.1425 0.9405l 0.209 0.855c 0.0285 0.1425 0.076 0.247 0.133 0.323c 0.3705 0.4845 0.7315 0.7315 1.083 0.7315Z "/></symbol><symbol id="g87ED897F4D302B2F2794ED12E3B4F790" overflow="visible"><path d="M 0 0m 0.741 -2.3275c 0.57 0.437 1.045 1.083 1.4345 1.9475c 0.3705 0.8265 0.5605 1.6055 0.5605 2.356v 0.798c 0 0.7505 -0.19 1.5295 -0.5605 2.356c -0.3895 0.8645 -0.8645 1.5105 -1.4345 1.9475c -0.0285 0.019 -0.057 0.0285 -0.0665 0.0285c -0.0855 0 -0.133 -0.0475 -0.133 -0.133c 0 -0.038 0.019 -0.076 0.0475 -0.1045c 0.494 -0.38 0.893 -1.007 1.1875 -1.8715c 0.2565 -0.7505 0.3895 -1.4915 0.3895 -2.223v -0.798c 0 -0.7315 -0.133 -1.4725 -0.3895 -2.223c -0.2945 -0.8645 -0.6935 -1.4915 -1.1875 -1.8715c -0.0285 -0.038 -0.0475 -0.076 -0.0475 -0.1045c 0 -0.0855 0.0475 -0.133 0.133 -0.133c 0.0095 0 0.038 0.0095 0.0665 0.0285Z "/></symbol><symbol id="gB72B4F83B5B617FC110DC392B5C9A1AE" overflow="visible"><path d="M 0 0m 4.218 6.821c 0.0095 0.019 0.0095 0.0475 0.0095 0.076c 0 0.152 -0.076 0.228 -0.228 0.228c -0.1045 0 -0.171 -0.0475 -0.209 -0.152l -3.249 -9.044c -0.0095 -0.019 -0.0095 -0.0475 -0.0095 -0.076c 0 -0.152 0.076 -0.228 0.228 -0.228c 0.1045 0 0.171 0.0475 0.209 0.152Z "/></symbol><symbol id="gEA658C0C75E30D4C9AABBC395E47D36C" overflow="visible"><path d="M 0 0m 6.8115 4.104v 0.019c 0 0.1045 -0.0475 0.152 -0.152 0.152c -0.0665 0 -0.114 -0.038 -0.1425 -0.1045c -0.0665 -0.3325 -0.1995 -0.589 -0.3895 -0.7505c -0.3135 -0.2755 -0.646 -0.4085 -1.007 -0.4085c -0.2755 0 -0.5605 0.1045 -0.855 0.304c -0.5415 0.3895 -0.8645 0.608 -0.969 0.6745c -0.4085 0.2375 -0.7695 0.3515 -1.0925 0.3515c -1.0165 0 -1.4725 -0.7125 -1.672 -1.6435v -0.0285c 0 -0.095 0.0475 -0.1425 0.152 -0.1425c 0.0855 0 0.133 0.038 0.152 0.114c 0.0665 0.3325 0.19 0.5795 0.38 0.741c 0.3135 0.2755 0.646 0.4085 1.0165 0.4085c 0.2755 0 0.551 -0.1045 0.8455 -0.3135c 0.5415 -0.38 0.8645 -0.5985 0.969 -0.665c 0.4085 -0.2375 0.7695 -0.3515 1.0925 -0.3515c 1.0165 0 1.4725 0.7125 1.672 1.6435Z m 0 -2.052v 0.0285c 0 0.095 -0.0475 0.1425 -0.152 0.1425c -0.0665 0 -0.114 -0.038 -0.1425 -0.1045c -0.0665 -0.3325 -0.1995 -0.5795 -0.3895 -0.7505c -0.3135 -0.2755 -0.646 -0.4085 -1.007 -0.4085c -0.2755 0 -0.5605 0.1045 -0.855 0.3135c -0.5415 0.38 -0.8645 0.5985 -0.969 0.665c -0.4085 0.2375 -0.7695 0.3515 -1.0925 0.3515c -1.0165 0 -1.4725 -0.7125 -1.672 -1.6435v -0.019c 0 -0.1045 0.0475 -0.152 0.152 -0.152c 0.0855 0 0.133 0.038 0.152 0.114c 0.0665 0.3325 0.19 0.5795 0.38 0.741c 0.3135 0.2755 0.646 0.4085 1.0165 0.4085c 0.2755 0 0.551 -0.1045 0.8455 -0.304c 0.5415 -0.3895 0.8645 -0.608 0.969 -0.6745c 0.4085 -0.2375 0.7695 -0.3515 1.0925 -0.3515c 1.0165 0 1.4725 0.7125 1.672 1.6435Z "/></symbol><symbol id="gE857CA6BF0DEB6F693A763FA4844BD28" overflow="visible"><path d="M 0 0m 2.5555 6.327c -0.3895 -0.399 -0.9595 -0.5985 -1.71 -0.5985v -0.3705c 0.494 0 0.9025 0.076 1.216 0.228v -4.807c 0 -0.171 -0.038 -0.285 -0.1235 -0.3325c -0.0855 -0.0475 -0.323 -0.076 -0.703 -0.076h -0.3325v -0.3705c 0.2375 0.019 0.7505 0.0285 1.539 0.0285c 0.7885 0 1.3015 -0.0095 1.539 -0.0285v 0.3705h -0.3325c -0.3895 0 -0.627 0.0285 -0.703 0.076c -0.076 0.0475 -0.1235 0.1615 -0.1235 0.3325v 5.263c 0 0.228 -0.019 0.285 -0.266 0.285Z "/></symbol><symbol id="g7B9CB793ADEA3E3D4A6889197B9DC4D9" overflow="visible"><path d="M 0 0m 2.2515 6.327c -0.4845 0 -0.893 -0.171 -1.2445 -0.513c -0.3515 -0.342 -0.532 -0.741 -0.532 -1.2255c 0 -0.323 0.2375 -0.5605 0.532 -0.5605c 0.285 0 0.5225 0.247 0.5225 0.532c 0 0.3135 -0.228 0.532 -0.532 0.532c -0.0285 0 -0.0475 0 -0.0665 -0.0095c 0.1805 0.4655 0.5985 0.874 1.197 0.874c 0.779 0 1.216 -0.6745 1.216 -1.4915c 0 -0.6365 -0.323 -1.3205 -0.969 -2.0425l -1.786 -2.014c -0.1235 -0.1425 -0.114 -0.133 -0.114 -0.4085h 3.5245l 0.2755 1.71h -0.3135c -0.076 -0.4845 -0.1425 -0.76 -0.1995 -0.8455c -0.0475 -0.0475 -0.3325 -0.0665 -0.855 -0.0665h -1.5865l 0.9215 0.9025c 0.646 0.608 1.463 1.2635 1.7385 1.767c 0.19 0.3325 0.285 0.665 0.285 0.9975c 0 1.121 -0.874 1.862 -2.014 1.862Z "/></symbol><symbol id="g977A1DC76CD080F9E7ADF10F56B856F2" overflow="visible"><path d="M 0 0m 1.102 1.33c -0.3135 0 -0.4655 -0.1615 -0.4655 -0.4845c 0 -0.7125 0.5795 -1.0545 1.33 -1.0545c 0.76 0 1.368 0.38 1.8145 1.1495c 0.3705 0.6365 0.5605 1.368 0.5605 2.185c 0 1.2065 -0.2185 2.0615 -0.6555 2.565c -0.3705 0.4275 -0.798 0.6365 -1.2825 0.6365c -0.5605 0 -1.026 -0.1995 -1.3965 -0.608c -0.4085 -0.4275 -0.608 -0.9405 -0.608 -1.539c 0 -0.5795 0.171 -1.0735 0.513 -1.482c 0.361 -0.437 0.8265 -0.6555 1.387 -0.6555c 0.494 0 0.874 0.266 1.1305 0.798v -0.1235c 0 -1.0355 -0.1805 -1.7385 -0.551 -2.1185c -0.2945 -0.3135 -0.608 -0.4655 -0.9215 -0.4655c -0.38 0 -0.6555 0.0855 -0.836 0.266c 0.2945 0 0.4465 0.171 0.4465 0.4655c 0 0.266 -0.1995 0.4655 -0.4655 0.4655Z m 1.2065 1.007c -0.3705 0 -0.646 0.19 -0.836 0.57c -0.1045 0.2185 -0.1615 0.646 -0.1615 1.2635c 0 0.6175 0.0665 1.0355 0.19 1.273c 0.209 0.38 0.513 0.57 0.9025 0.57c 0.3895 0 0.6745 -0.2375 0.855 -0.7125c 0.1045 -0.2565 0.171 -0.6935 0.171 -1.311c 0 -0.8265 -0.3705 -1.653 -1.121 -1.653Z "/></symbol><symbol id="g998E9B7715464C640FC742F396E623D4" overflow="visible"><path d="M 0 0m 1.1875 1.8905c 0.266 0 0.513 0.247 0.513 0.513c 0 0.266 -0.247 0.513 -0.513 0.513c -0.266 0 -0.513 -0.247 -0.513 -0.513c 0 -0.266 0.247 -0.513 0.513 -0.513Z "/></symbol><symbol id="g75E31E9387E94E3A457DA9304838F591" overflow="visible"><path d="M 0 0m 4.1515 4.0755h -2.698c -0.38 0 -0.741 0.0095 -1.026 0.019c -0.057 -0.057 -0.057 -0.2565 0 -0.3135c 0.5225 -0.038 0.646 -0.0855 0.646 -0.8645v -1.7575c 0 -0.779 -0.1235 -0.8265 -0.741 -0.8645c -0.057 -0.057 -0.057 -0.2565 0 -0.3135c 0.285 0.0095 0.741 0.019 1.121 0.019c 0.38 0 0.665 -0.0095 0.95 -0.019c 0.057 0.057 0.057 0.2565 0 0.3135c -0.4845 0.0475 -0.5795 0.0855 -0.5795 0.8645v 2.0615c 0 0.2945 0.0285 0.4845 0.399 0.4845h 1.1495c 0.3515 0 0.4085 -0.1045 0.4085 -0.4845v -2.0615c 0 -0.779 -0.095 -0.8265 -0.589 -0.8645c -0.0475 -0.057 -0.0475 -0.2565 0 -0.3135c 0.2375 0.0095 0.589 0.019 0.969 0.019c 0.38 0 0.8075 -0.0095 1.0735 -0.019c 0.0475 0.057 0.0475 0.2565 0 0.3135c -0.6175 0.038 -0.703 0.0855 -0.703 0.8645v 1.7575c 0 0.779 0.1235 0.8265 0.646 0.8645c 0.057 0.057 0.057 0.2565 0 0.3135c -0.285 -0.0095 -0.646 -0.019 -1.026 -0.019Z "/></symbol><symbol id="gC110FFC20529D78AB6B9724BF2D3193A" overflow="visible"><path d="M 0 0m 0.3895 1.9475c 0 -0.969 0.646 -2.0425 1.995 -2.0425c 0.608 0 1.0735 0.2185 1.3965 0.532c 0.4275 0.418 0.6175 1.0165 0.6175 1.596c 0 0.988 -0.5415 2.1375 -1.995 2.1375c -0.627 0 -1.14 -0.2565 -1.4915 -0.665c -0.342 -0.4085 -0.5225 -0.9595 -0.5225 -1.558Z m 1.8715 1.8905c 0.817 0 1.3205 -0.741 1.3205 -2.109c 0 -1.197 -0.6175 -1.4915 -1.064 -1.4915c -0.988 0 -1.311 1.197 -1.311 1.9285c 0 0.8265 0.1995 1.672 1.0545 1.672Z "/></symbol><symbol id="gC86282117E7C9F65658F6DDAC49FC51A" overflow="visible"><path d="M 0 0m 3.971 1.159v 1.7575c 0 0.779 0.1235 0.8265 0.646 0.8645c 0.057 0.057 0.057 0.2565 0 0.3135c -0.285 -0.0095 -0.646 -0.019 -1.026 -0.019h -1.7955c -0.3135 0 -0.684 0.0095 -0.969 0.019c -0.057 -0.057 -0.057 -0.2565 0 -0.3135c 0.6745 -0.0475 0.7695 -0.1045 0.7695 -1.1305c 0 -0.9975 -0.076 -1.52 -0.209 -1.9095c -0.1235 -0.342 -0.285 -0.4655 -0.4465 -0.4655c -0.1235 0 -0.1615 0.076 -0.1805 0.1995c -0.0285 0.1805 -0.0855 0.361 -0.3515 0.361c -0.2375 0 -0.3705 -0.19 -0.3705 -0.399c 0 -0.2945 0.266 -0.551 0.703 -0.551c 0.4845 0 0.7505 0.247 0.969 0.76c 0.19 0.456 0.247 1.425 0.247 2.071c 0 0.741 0.0285 0.988 0.4085 0.988h 0.4275c 0.361 0 0.4275 -0.228 0.4275 -0.551v -1.995c 0 -0.779 -0.095 -0.8265 -0.589 -0.8645c -0.0475 -0.057 -0.0475 -0.2565 0 -0.3135c 0.2375 0.0095 0.589 0.019 0.969 0.019c 0.38 0 0.8075 -0.0095 1.0735 -0.019c 0.0475 0.057 0.0475 0.2565 0 0.3135c -0.6175 0.038 -0.703 0.0855 -0.703 0.8645Z "/></symbol><symbol id="g2F5F2E7C1D4D8DD5F9EF9384E7A4591" overflow="visible"><path d="M 0 0m 1.767 2.2515v 0.665c 0 0.7885 0.1045 0.817 0.684 0.8645c 0.057 0.057 0.057 0.2565 0 0.3135c -0.323 -0.0095 -0.646 -0.019 -1.064 -0.019c -0.4085 0 -0.741 0.0095 -1.0545 0.019c -0.057 -0.057 -0.057 -0.2565 0 -0.3135c 0.5795 -0.038 0.684 -0.076 0.684 -0.8645v -1.7575c 0 -0.7885 -0.1045 -0.817 -0.684 -0.8645c -0.057 -0.057 -0.057 -0.2565 0 -0.3135c 0.3135 0.0095 0.646 0.019 1.064 0.019c 0.4085 0 0.7505 -0.0095 1.0545 -0.019c 0.057 0.057 0.057 0.2565 0 0.3135c -0.5795 0.038 -0.684 0.076 -0.684 0.8645v 0.722h 0.9785c 0.019 -0.9595 0.6175 -1.976 1.9 -1.976c 1.3965 0 1.919 1.2065 1.919 2.1565c 0 0.988 -0.4655 2.109 -1.9095 2.109c -1.1495 0 -1.7955 -0.7885 -1.9 -1.919Z m 2.793 1.5865c 0.779 0 1.1875 -0.6935 1.1875 -2.0805c 0 -1.254 -0.5225 -1.52 -0.931 -1.52c -0.9405 0 -1.254 1.178 -1.254 1.9095c 0 0.8265 0.2565 1.691 0.9975 1.691Z "/></symbol><symbol id="gA087682AD38D2D620C1058FCC30E85F0" overflow="visible"><path d="M 0 0m 0.323 2.4415c 0 -1.7955 1.0355 -2.5365 1.957 -2.5365c 1.3015 0 2.052 0.969 2.052 2.166c 0 1.026 -0.57 2.0995 -1.9095 2.0995c -0.9025 0 -1.4535 -0.532 -1.6625 -0.988l -0.019 0.019c 0.038 0.494 0.19 1.102 0.3325 1.349c 0.304 0.5225 0.665 0.551 1.539 0.646c 0.855 0.095 1.463 0.3705 1.5485 1.4345c -0.0665 0.0285 -0.133 0.038 -0.209 0c -0.076 -0.456 -0.5795 -0.5795 -1.3775 -0.703c -0.7695 -0.1235 -1.4155 -0.3895 -1.8145 -1.14c -0.342 -0.646 -0.437 -1.444 -0.437 -2.3465Z m 0.817 -0.247c 0 0.532 0.19 1.6435 1.178 1.6435c 0.741 0 1.197 -0.855 1.197 -1.995c 0 -1.197 -0.551 -1.6055 -1.064 -1.6055c -0.6935 0 -1.311 0.9025 -1.311 1.957Z "/></symbol><symbol id="g111F480562FE960BC5F50C637F145B12" overflow="visible"><path d="M 0 0m 4.5505 2.9165c 0 0.7885 0.1045 0.817 0.684 0.8645c 0.057 0.057 0.057 0.2565 0 0.3135c -0.3325 -0.019 -0.7505 -0.019 -1.064 -0.019c -0.266 0 -0.646 0.0095 -1.0165 0.019c -0.057 -0.057 -0.057 -0.2565 0 -0.3135c 0.5795 -0.038 0.646 -0.076 0.646 -0.8645v -0.6175h -2.033v 0.6175c 0 0.7885 0.0665 0.817 0.646 0.8645c 0.057 0.057 0.057 0.2565 0 0.3135c -0.361 -0.0095 -0.722 -0.019 -1.026 -0.019c -0.285 0 -0.6745 0.0095 -1.0545 0.019c -0.057 -0.057 -0.057 -0.2565 0 -0.3135c 0.5795 -0.038 0.684 -0.076 0.684 -0.8645v -1.7575c 0 -0.7885 -0.1045 -0.817 -0.684 -0.8645c -0.057 -0.057 -0.057 -0.2565 0 -0.3135c 0.38 0.0095 0.76 0.019 1.064 0.019c 0.304 0 0.6745 -0.0095 1.0165 -0.019c 0.057 0.057 0.057 0.2565 0 0.3135c -0.5795 0.038 -0.646 0.076 -0.646 0.8645v 0.8265h 2.033v -0.8265c 0 -0.7885 -0.0665 -0.817 -0.646 -0.8645c -0.057 -0.057 -0.057 -0.2565 0 -0.3135c 0.342 0.0095 0.6935 0.019 1.026 0.019c 0.285 0 0.684 -0.0095 1.0545 -0.019c 0.057 0.057 0.057 0.2565 0 0.3135c -0.5795 0.038 -0.684 0.076 -0.684 0.8645Z "/></symbol><symbol id="g95773940B26E4395CA4B330A1FEA452D" overflow="visible"><path d="M 0 0m 0.551 2.1755c 0.057 -0.0285 0.1045 -0.038 0.1615 -0.038c 0.2185 0.418 0.665 0.6935 0.9975 0.6935c 0.2375 0 0.4655 -0.133 0.6935 -0.304c 0.228 -0.171 0.5035 -0.3135 0.722 -0.3135c 0.228 0 0.8455 0.1235 1.14 1.14c -0.0285 0.038 -0.0855 0.057 -0.1615 0.057c -0.209 -0.475 -0.6745 -0.6365 -0.9405 -0.6365c -0.209 0 -0.4275 0.1235 -0.684 0.3135c -0.228 0.171 -0.494 0.304 -0.7125 0.304c -0.5795 0 -1.0925 -0.5985 -1.216 -1.216Z m -0.038 -1.387c 0.057 -0.0285 0.1045 -0.038 0.1615 -0.038c 0.2185 0.418 0.665 0.6935 0.9975 0.6935c 0.2375 0 0.4655 -0.133 0.6935 -0.304c 0.228 -0.171 0.5035 -0.3135 0.722 -0.3135c 0.228 0 0.8455 0.1235 1.14 1.14c -0.0285 0.038 -0.0855 0.057 -0.1615 0.057c -0.209 -0.475 -0.6745 -0.6365 -0.9405 -0.6365c -0.209 0 -0.4275 0.1235 -0.684 0.3135c -0.228 0.171 -0.494 0.304 -0.7125 0.304c -0.5795 0 -1.0925 -0.5985 -1.216 -1.216Z "/></symbol><symbol id="gA3220E2F1FB7118912BDD8E821739037" overflow="visible"><path d="M 0 0m 0.5795 4.446c 0 -0.1995 0.1805 -0.3705 0.38 -0.3705c 0.1615 0 0.4465 0.171 0.4465 0.38c 0 0.076 -0.019 0.133 -0.038 0.1995c -0.019 0.0665 -0.076 0.152 -0.076 0.228c 0 0.2375 0.247 0.5795 0.9405 0.5795c 0.342 0 0.8265 -0.2375 0.8265 -1.1495c 0 -0.608 -0.2185 -1.102 -0.779 -1.672l -0.703 -0.6935c -0.931 -0.95 -1.083 -1.406 -1.083 -1.9665c 0 0 0.4845 0.019 0.7885 0.019h 1.6625c 0.304 0 0.741 -0.019 0.741 -0.019c 0.1235 0.5035 0.2185 1.216 0.228 1.501c -0.057 0.0475 -0.1805 0.0665 -0.2755 0.0475c -0.1615 -0.6745 -0.323 -0.912 -0.665 -0.912h -1.691c 0 0.456 0.6555 1.102 0.703 1.1495l 0.9595 0.9215c 0.5415 0.5225 0.95 0.9405 0.95 1.6625c 0 1.026 -0.836 1.444 -1.6055 1.444c -1.0545 0 -1.71 -0.779 -1.71 -1.349Z "/></symbol><symbol id="g9306FB0C3B17E70E1C2D3ADEB0A2AE83" overflow="visible"><path d="M 0 0m 2.736 1.159v 3.2965c 0 0.57 0.0095 1.1495 0.0285 1.273c 0 0.0475 -0.019 0.0475 -0.057 0.0475c -0.5225 -0.323 -1.026 -0.5605 -1.862 -0.95c 0.019 -0.1045 0.057 -0.1995 0.1425 -0.2565c 0.437 0.1805 0.646 0.2375 0.8265 0.2375c 0.1615 0 0.19 -0.228 0.19 -0.551v -3.097c 0 -0.7885 -0.2565 -0.836 -0.9215 -0.8645c -0.057 -0.057 -0.057 -0.2565 0 -0.3135c 0.4655 0.0095 0.8075 0.019 1.3205 0.019c 0.456 0 0.684 -0.0095 1.159 -0.019c 0.057 0.057 0.057 0.2565 0 0.3135c -0.665 0.0285 -0.8265 0.076 -0.8265 0.8645Z "/></symbol><symbol id="gDBB5E8F5FC9EB2F5349B9D49D6966C24" overflow="visible"><path d="M 0 0m 3.667 0c 0 0 0.741 -0.0095 0.931 -0.019c 0.057 0.057 0.057 0.2565 0 0.3135c -0.3705 0.019 -0.4465 0.095 -0.608 0.399l -0.4275 0.8075c -0.2375 0.4465 -0.57 0.6745 -1.1115 0.6745v 0.0285c 0.3705 0.1045 0.532 0.437 0.6745 0.817c 0.114 0.2945 0.228 0.475 0.4275 0.475c 0.0855 0 0.1615 -0.0285 0.2185 -0.0665c 0.057 -0.038 0.1615 -0.0665 0.285 -0.0665c 0.209 0 0.38 0.1805 0.38 0.3705c 0 0.209 -0.228 0.4275 -0.5415 0.4275c -0.551 0 -0.8075 -0.513 -0.988 -0.9595c -0.209 -0.5225 -0.4655 -0.8835 -1.14 -0.8835v 0.5985c 0 0.7885 0.1045 0.817 0.589 0.8645c 0.057 0.057 0.057 0.2565 0 0.3135c -0.228 -0.0095 -0.589 -0.019 -0.969 -0.019c -0.4085 0 -0.741 0.0095 -1.0545 0.019c -0.057 -0.057 -0.057 -0.2565 0 -0.3135c 0.5795 -0.038 0.684 -0.076 0.684 -0.8645v -1.7575c 0 -0.7885 -0.1045 -0.817 -0.684 -0.8645c -0.057 -0.057 -0.057 -0.2565 0 -0.3135c 0.3135 0.0095 0.646 0.019 1.064 0.019c 0.3705 0 0.7505 -0.0095 0.9595 -0.019c 0.057 0.057 0.057 0.2565 0 0.3135c -0.4845 0.038 -0.589 0.076 -0.589 0.8645v 0.8265c 0.646 -0.038 0.817 -0.2945 0.988 -0.646l 0.4085 -0.855c 0.1235 -0.2565 0.3135 -0.475 0.5035 -0.4845Z "/></symbol><symbol id="gC2CBF98E7E07B945C6FA500EA68B32AD" overflow="visible"><path d="M 0 0m 1.1115 2.907l -0.057 -1.767c -0.0285 -0.798 -0.171 -0.817 -0.722 -0.8455c -0.057 -0.057 -0.057 -0.2565 0 -0.3135c 0.19 0.0095 0.665 0.019 0.817 0.019c 0.19 0 0.6365 -0.0095 0.8265 -0.019c 0.057 0.057 0.057 0.2565 0 0.3135c -0.5415 0.038 -0.5795 0.133 -0.5605 0.8455l 0.0665 2.3275c 0 0.0855 0.038 0.0855 0.076 0l 1.3775 -3.363c 0.038 -0.0285 0.076 -0.0285 0.1045 0l 1.558 3.3535c 0.0475 0.1045 0.095 0.114 0.095 0l -0.0095 -2.299c 0 -0.7885 -0.0665 -0.817 -0.646 -0.8645c -0.057 -0.057 -0.057 -0.2565 0 -0.3135c 0.342 0.0095 0.6935 0.019 1.026 0.019c 0.285 0 0.6935 -0.0095 1.064 -0.019c 0.057 0.057 0.057 0.2565 0 0.3135c -0.5795 0.038 -0.684 0.076 -0.684 0.8645l -0.019 1.7575c -0.0095 0.7885 0.1045 0.817 0.684 0.8645c 0.057 0.057 0.057 0.2565 0 0.3135c -0.3325 -0.019 -1.254 -0.019 -1.5675 -0.019l -1.2635 -2.717l -0.0475 -0.095l -0.038 0.095l -1.1115 2.717c -0.3135 0 -1.3205 0 -1.653 0.019c -0.057 -0.057 -0.057 -0.2565 0 -0.3135c 0.5795 -0.0475 0.7125 -0.0855 0.684 -0.874Z "/></symbol></defs></svg>