<svg viewBox="0 0 133.572295622 143.608440945" width="133.572295622pt" height="143.608440945pt" xmlns="http://www.w3.org/2000/svg" xmlns:xlink="http://www.w3.org/1999/xlink" xmlns:h5="http://www.w3.org/1999/xhtml"><path fill="#ffffff" fill-rule="nonzero" d="M 0 0v 143.608440945h 133.572295622v -143.608440945Z "/><g transform="translate(8 8)"><path fill="#898c79" fill-rule="nonzero" transform="translate(55.553712945 33.331779528)" d="M 0 0v 14.173228346h 4.535433071v -14.173228346h -4.535433071Z "/><path fill="#898c79" fill-rule="nonzero" transform="translate(61.789933417 24.82784252)" d="M 0 0v 22.677165354h 4.535433071v -22.677165354h -4.535433071Z "/><path fill="#898c79" fill-rule="nonzero" transform="translate(68.02615389 39.001070866)" d="M 0 0v 8.503937008h 4.535433071v -8.503937008h -4.535433071Z "/><path fill="#898c79" fill-rule="nonzero" transform="translate(74.262374362 27.662488189)" d="M 0 0v 19.842519685h 4.535433071v -19.842519685h -4.535433071Z "/><path fill="#898c79" fill-rule="nonzero" transform="translate(80.498594835 21.99319685)" d="M 0 0v 25.511811024h 4.535433071v -25.511811024h -4.535433071Z "/><path fill="#898c79" fill-rule="nonzero" transform="translate(86.734815307 37.583748031)" d="M 0 0v 9.921259843h 4.535433071v -9.921259843h -4.535433071Z "/><path fill="#898c79" fill-rule="nonzero" transform="translate(92.97103578 30.497133858)" d="M 0 0v 17.007874016h 4.535433071v -17.007874016h -4.535433071Z "/><path fill="#898c79" fill-rule="nonzero" transform="translate(99.207256252 23.410519685)" d="M 0 0v 24.094488189h 4.535433071v -24.094488189h -4.535433071Z "/><path fill="none" transform="translate(55.553712945 12.532905512)" d="M 0 0h 50.201v 7.582h -50.201v -7.582Z "/><g transform="translate(55.553712835 12.532905386)"><g transform="matrix(1 0 0 -1 0 5.593)"><use xlink:href="#gEF81C0034748F108B423DC4F87ECC2EA" x="0" y="0" fill="#1a1a18" fill-rule="nonzero"/><use xlink:href="#gE7AE90A8EDDEF3DDB67EE78D36D80337" x="6.001" y="0" fill="#1a1a18" fill-rule="nonzero"/><use xlink:href="#g3D9A67B9902CBFFCF1182D85B33DBA41" x="10.982" y="0" fill="#1a1a18" fill-rule="nonzero"/><use xlink:href="#gE34E15A46C94CBC2E6ABE8844A1DDB21" x="15.0535" y="0" fill="#1a1a18" fill-rule="nonzero"/><use xlink:href="#g5D2E58E4CDB4D7E6C81847885E22D756" x="19.3375" y="0" fill="#1a1a18" fill-rule="nonzero"/><use xlink:href="#gBAF1B227155053221F22F6E06EEFED60" x="25.262" y="0" fill="#1a1a18" fill-rule="nonzero"/><use xlink:href="#g5D2E58E4CDB4D7E6C81847885E22D756" x="29.835" y="0" fill="#1a1a18" fill-rule="nonzero"/><use xlink:href="#g430571653545A60A3EF6386D136EADA3" x="33.6345" y="0" fill="#1a1a18" fill-rule="nonzero"/><use xlink:href="#g5D2E58E4CDB4D7E6C81847885E22D756" x="38.046" y="0" fill="#1a1a18" fill-rule="nonzero"/><use xlink:href="#g3D9A67B9902CBFFCF1182D85B33DBA41" x="41.8455" y="0" fill="#1a1a18" fill-rule="nonzero"/><use xlink:href="#gE34E15A46C94CBC2E6ABE8844A1DDB21" x="45.917" y="0" fill="#1a1a18" fill-rule="nonzero"/></g></g><path fill="#958f81" fill-rule="nonzero" transform="translate(5.663949165 61.67823622)" d="M 0 0v 25.511811024h 4.535433071v -25.511811024h -4.535433071Z "/><path fill="#958f81" fill-rule="nonzero" transform="translate(11.900169638 77.268787402)" d="M 0 0v 9.921259843h 4.535433071v -9.921259843h -4.535433071Z "/><path fill="#958f81" fill-rule="nonzero" transform="translate(18.13639011 70.182173228)" d="M 0 0v 17.007874016h 4.535433071v -17.007874016h -4.535433071Z "/><path fill="#958f81" fill-rule="nonzero" transform="translate(24.372610583 63.095559055)" d="M 0 0v 24.094488189h 4.535433071v -24.094488189h -4.535433071Z "/><path fill="#958f81" fill-rule="nonzero" transform="translate(30.608831055 75.851464567)" d="M 0 0v 11.338582677h 4.535433071v -11.338582677h -4.535433071Z "/><path fill="#958f81" fill-rule="nonzero" transform="translate(36.845051528 65.930204724)" d="M 0 0v 21.25984252h 4.535433071v -21.25984252h -4.535433071Z "/><path fill="#958f81" fill-rule="nonzero" transform="translate(43.081272 71.599496063)" d="M 0 0v 15.590551181h 4.535433071v -15.590551181h -4.535433071Z "/><path fill="#958f81" fill-rule="nonzero" transform="translate(49.317492472 61.67823622)" d="M 0 0v 25.511811024h 4.535433071v -25.511811024h -4.535433071Z "/><path fill="none" transform="translate(5.663949165 96.154952756)" d="M 0 0h 51.629v 7.582h -51.629v -7.582Z "/><g transform="translate(5.66394915 96.15495263)"><g transform="matrix(1 0 0 -1 0 5.593)"><use xlink:href="#g1EEFC323E4FEBE7654D5CC1583F61AF4" x="0" y="0" fill="#1a1a18" fill-rule="nonzero"/><use xlink:href="#g3EDD64AE7B5A40E8FE9DD75D51E8EE8A" x="3.638" y="0" fill="#1a1a18" fill-rule="nonzero"/><use xlink:href="#gF931FC691828778A920607CF18B9C32A" x="7.4205" y="0" fill="#1a1a18" fill-rule="nonzero"/><use xlink:href="#g430571653545A60A3EF6386D136EADA3" x="11.305" y="0" fill="#1a1a18" fill-rule="nonzero"/><use xlink:href="#gE34E15A46C94CBC2E6ABE8844A1DDB21" x="15.7165" y="0" fill="#1a1a18" fill-rule="nonzero"/><use xlink:href="#g5D2E58E4CDB4D7E6C81847885E22D756" x="20.0005" y="0" fill="#1a1a18" fill-rule="nonzero"/><use xlink:href="#g76961810B6DEE2CEF630C1F5B8F93C8E" x="25.925" y="0" fill="#1a1a18" fill-rule="nonzero"/><use xlink:href="#g430571653545A60A3EF6386D136EADA3" x="30.0815" y="0" fill="#1a1a18" fill-rule="nonzero"/><use xlink:href="#g5D2E58E4CDB4D7E6C81847885E22D756" x="34.493" y="0" fill="#1a1a18" fill-rule="nonzero"/><use xlink:href="#g3D9A67B9902CBFFCF1182D85B33DBA41" x="38.2925" y="0" fill="#1a1a18" fill-rule="nonzero"/><use xlink:href="#gC8932C6BA7F518DC74E87E2F4A0224EB" x="42.364" y="0" fill="#1a1a18" fill-rule="nonzero"/><use xlink:href="#gE34E15A46C94CBC2E6ABE8844A1DDB21" x="47.345" y="0" fill="#1a1a18" fill-rule="nonzero"/></g></g><path fill="none" stroke="#7c7f6a" stroke-width="1" stroke-linecap="butt" stroke-linejoin="miter" stroke-miterlimit="4" stroke-dashoffset="0" stroke-dasharray="3 3" transform="translate(55.553712945 20.575874016)" d="M 0 0v 82.204724409h 23.244094488v -82.204724409h -23.244094488Z "/><path fill="none" transform="translate(16.212295622)" d="M 0 0h 101.36v 7.136h -101.36v -7.136Z "/><g transform="translate(16.212295559 -1.1e-7)"><g transform="matrix(1 0 0 -1 0 5.264)"><use xlink:href="#g9F99202881449AD6C0CCCD21824C9AF1" x="0" y="0" fill="#7c7f6a" fill-rule="nonzero"/><use xlink:href="#g5D01DA3AB390CB78D7E54204B7DC3F87" x="3.424" y="0" fill="#7c7f6a" fill-rule="nonzero"/><use xlink:href="#gE9BB349F7E32C39203BC6B218DF12838" x="7.456" y="0" fill="#7c7f6a" fill-rule="nonzero"/><use xlink:href="#gF859B786D36C3A3EB6E93A57BC4F802" x="11.288" y="0" fill="#7c7f6a" fill-rule="nonzero"/><use xlink:href="#gF79D9CC171E1ACC5162F855F1894F43E" x="15.976" y="0" fill="#7c7f6a" fill-rule="nonzero"/><use xlink:href="#gAC00C34078948F83CC62D60B02C8E81A" x="19.632" y="0" fill="#7c7f6a" fill-rule="nonzero"/><use xlink:href="#g465CA45D0696F5BBCE5E7A11B5E63D98" x="23.936" y="0" fill="#7c7f6a" fill-rule="nonzero"/><use xlink:href="#g937124D7F3D66536776BB8DA5DFD7893" x="27.512" y="0" fill="#7c7f6a" fill-rule="nonzero"/><use xlink:href="#gDF0740817C60D01D4C0A2F901DD857A7" x="32.2" y="0" fill="#7c7f6a" fill-rule="nonzero"/><use xlink:href="#g465CA45D0696F5BBCE5E7A11B5E63D98" x="36.888" y="0" fill="#7c7f6a" fill-rule="nonzero"/><use xlink:href="#g89E7AED93332C4356E163D20D023452" x="42.464" y="0" fill="#7c7f6a" fill-rule="nonzero"/><use xlink:href="#gF09D88C2290872E835CD22D560D52A5C" x="46.584" y="0" fill="#7c7f6a" fill-rule="nonzero"/><use xlink:href="#g5D01DA3AB390CB78D7E54204B7DC3F87" x="50.072" y="0" fill="#7c7f6a" fill-rule="nonzero"/><use xlink:href="#g46DFAA35BC521B4F2378CE697B4B163E" x="54.104" y="0" fill="#7c7f6a" fill-rule="nonzero"/><use xlink:href="#gF79D9CC171E1ACC5162F855F1894F43E" x="58.256" y="0" fill="#7c7f6a" fill-rule="nonzero"/><use xlink:href="#g1A5B9B9C6A1E104984939B3BB3886026" x="63.912" y="0" fill="#7c7f6a" fill-rule="nonzero"/><use xlink:href="#g9F99202881449AD6C0CCCD21824C9AF1" x="74.952" y="0" fill="#7c7f6a" fill-rule="nonzero"/><use xlink:href="#g7FEC4917393F0C2A72D87F7F150D50F" x="78.376" y="0" fill="#7c7f6a" fill-rule="nonzero"/><use xlink:href="#gDF0740817C60D01D4C0A2F901DD857A7" x="85.168" y="0" fill="#7c7f6a" fill-rule="nonzero"/><use xlink:href="#gE9BB349F7E32C39203BC6B218DF12838" x="89.856" y="0" fill="#7c7f6a" fill-rule="nonzero"/><use xlink:href="#g362A412C7577377BE4D103B9E5EDCC22" x="93.688" y="0" fill="#7c7f6a" fill-rule="nonzero"/><use xlink:href="#gF79D9CC171E1ACC5162F855F1894F43E" x="97.704" y="0" fill="#7c7f6a" fill-rule="nonzero"/></g></g><path fill="none" stroke="#1a1a18" stroke-width="0.8" stroke-linecap="butt" stroke-linejoin="miter" stroke-miterlimit="4" transform="translate(5.669291397 115.536503937)" d="M 0 0m 66.892295564 0h -66.892295564"/><path fill="#1a1a18" fill-rule="nonzero" stroke="#1a1a18" stroke-width="0.8" stroke-linecap="butt" stroke-linejoin="miter" stroke-miterlimit="4" transform="translate(0 113.410519685)" d="M 0 0m 0 2.125984252l 5.669291339 -2.125984252v 4.251968504l -5.669291339 -2.125984252Z "/><path fill="none" transform="translate(8.17119326 120.472440945)" d="M 0 0h 55.08v 7.136h -55.08v -7.136Z "/><g transform="translate(8.171193118 120.472440835)"><g transform="matrix(1 0 0 -1 0 5.264)"><use xlink:href="#gE9BB349F7E32C39203BC6B218DF12838" x="0" y="0" fill="#1a1a18" fill-rule="nonzero"/><use xlink:href="#g3478CFDC408E67C5C7551BD6A62D2425" x="3.832" y="0" fill="#1a1a18" fill-rule="nonzero"/><use xlink:href="#gFF63DA2595F1651AF0C535BF803D9AEC" x="7.16" y="0" fill="#1a1a18" fill-rule="nonzero"/><use xlink:href="#g89E7AED93332C4356E163D20D023452" x="11.376" y="0" fill="#1a1a18" fill-rule="nonzero"/><use xlink:href="#gDFD38EC9906BA626C5B7E69A103C103" x="15.496" y="0" fill="#1a1a18" fill-rule="nonzero"/><use xlink:href="#gC175399424EF2D6961EAC52DB2845054" x="19.408" y="0" fill="#1a1a18" fill-rule="nonzero"/><use xlink:href="#gE9BB349F7E32C39203BC6B218DF12838" x="25.128" y="0" fill="#1a1a18" fill-rule="nonzero"/><use xlink:href="#g46DFAA35BC521B4F2378CE697B4B163E" x="28.96" y="0" fill="#1a1a18" fill-rule="nonzero"/><use xlink:href="#g465CA45D0696F5BBCE5E7A11B5E63D98" x="33.112" y="0" fill="#1a1a18" fill-rule="nonzero"/><use xlink:href="#gE4F86D8BE8C69EC1EB36B973594724AB" x="36.688" y="0" fill="#1a1a18" fill-rule="nonzero"/><use xlink:href="#g465CA45D0696F5BBCE5E7A11B5E63D98" x="42.128" y="0" fill="#1a1a18" fill-rule="nonzero"/><use xlink:href="#g937124D7F3D66536776BB8DA5DFD7893" x="45.704" y="0" fill="#1a1a18" fill-rule="nonzero"/><use xlink:href="#gDF0740817C60D01D4C0A2F901DD857A7" x="50.392" y="0" fill="#1a1a18" fill-rule="nonzero"/></g></g></g><defs><symbol id="gEF81C0034748F108B423DC4F87ECC2EA" overflow="visible"><path d="M 0 0m 0.9265 0c 0.17 0.0085 0.3145 0.204 0.425 0.4335l 0.3655 0.765c 0.153 0.3145 0.391 0.544 0.969 0.578v -0.7395c 0 -0.7055 -0.102 -0.731 -0.5355 -0.7735c -0.051 -0.051 -0.051 -0.2295 0 -0.2805c 0.1955 0.0085 0.51 0.017 0.85 0.017c 0.3315 0 0.6545 -0.0085 0.8415 -0.017c 0.051 0.051 0.051 0.2295 0 0.2805c -0.4335 0.034 -0.5355 0.068 -0.5355 0.7735v 0.7395c 0.578 -0.034 0.816 -0.2635 0.969 -0.578l 0.3655 -0.765c 0.1105 -0.2295 0.255 -0.425 0.425 -0.4335c 0 0 0.629 -0.0085 0.799 -0.017c 0.051 0.051 0.051 0.2295 0 0.2805c -0.3315 0.017 -0.4165 0.085 -0.561 0.357l -0.3825 0.7225c -0.2125 0.3995 -0.493 0.6035 -0.9775 0.6035v 0.0255c 0.3315 0.0935 0.476 0.391 0.6035 0.731c 0.102 0.2635 0.204 0.425 0.3825 0.425c 0.0765 0 0.1445 -0.0255 0.1955 -0.0595c 0.051 -0.034 0.1445 -0.0595 0.255 -0.0595c 0.187 0 0.34 0.1615 0.34 0.3315c 0 0.187 -0.204 0.3825 -0.4845 0.3825c -0.493 0 -0.7225 -0.459 -0.884 -0.8585c -0.187 -0.4675 -0.442 -0.7905 -1.0455 -0.7905v 0.5355c 0 0.7055 0.102 0.731 0.5355 0.7735c 0.051 0.051 0.051 0.2295 0 0.2805c -0.204 -0.0085 -0.51 -0.017 -0.85 -0.017c -0.3315 0 -0.646 0.0085 -0.8415 0.017c -0.051 -0.051 -0.051 -0.2295 0 -0.2805c 0.4335 -0.034 0.5355 -0.068 0.5355 -0.7735v -0.5355c -0.6035 0 -0.8585 0.323 -1.0455 0.7905c -0.1615 0.3995 -0.391 0.8585 -0.884 0.8585c -0.2805 0 -0.4845 -0.1955 -0.4845 -0.3825c 0 -0.17 0.153 -0.3315 0.34 -0.3315c 0.1105 0 0.204 0.0255 0.255 0.0595c 0.051 0.034 0.119 0.0595 0.1955 0.0595c 0.1785 0 0.2805 -0.1615 0.3825 -0.425c 0.1275 -0.34 0.272 -0.6375 0.6035 -0.731v -0.0255c -0.4845 0 -0.765 -0.204 -0.9775 -0.6035l -0.3825 -0.7225c -0.1445 -0.272 -0.2295 -0.34 -0.561 -0.357c -0.051 -0.051 -0.051 -0.2295 0 -0.2805c 0.17 0.0085 0.799 0.017 0.799 0.017Z "/></symbol><symbol id="gE7AE90A8EDDEF3DDB67EE78D36D80337" overflow="visible"><path d="M 0 0m 1.683 0.5355c -0.0255 0 -0.0595 0.017 -0.0595 0.102v 1.938c 0 0.7055 0.1785 0.782 0.612 0.8075c 0.051 0.051 0.051 0.2295 0 0.2805c -0.1955 -0.0085 -0.68 -0.017 -0.9945 -0.017c -0.2805 0 -0.6205 0.0085 -0.9435 0.017c -0.051 -0.051 -0.051 -0.2295 0 -0.2805c 0.5185 -0.0255 0.6545 -0.102 0.6545 -0.8075v -1.5045c 0 -0.7055 -0.136 -0.782 -0.6545 -0.8075c -0.051 -0.051 -0.051 -0.2295 0 -0.2805c 0.3315 0.0085 0.6715 0.017 0.9435 0.017c 0.1955 0 0.425 -0.0085 0.5185 -0.017c 0.0425 0.119 0.119 0.289 0.2125 0.459l 1.326 2.6605c 0.0255 0 0.0595 -0.017 0.0595 -0.102v -1.9295c 0 -0.7055 -0.1785 -0.782 -0.612 -0.8075c -0.051 -0.051 -0.051 -0.2295 0 -0.2805c 0.1955 0.0085 0.6545 0.017 0.9945 0.017c 0.2635 0 0.612 -0.0085 0.9435 -0.017c 0.051 0.051 0.051 0.2295 0 0.2805c -0.5185 0.0255 -0.6545 0.102 -0.6545 0.8075v 1.5045c 0 0.7055 0.136 0.782 0.6545 0.8075c 0.051 0.051 0.051 0.2295 0 0.2805c -0.34 -0.0085 -0.68 -0.017 -0.9435 -0.017c -0.187 0 -0.425 0.0085 -0.51 0.017c -0.068 -0.153 -0.1445 -0.3315 -0.221 -0.476Z "/></symbol><symbol id="g3D9A67B9902CBFFCF1182D85B33DBA41" overflow="visible"><path d="M 0 0m 1.241 3.6465c -0.3655 0 -0.663 0.0085 -0.9435 0.017c -0.051 -0.051 -0.051 -0.2295 0 -0.2805c 0.5185 -0.034 0.612 -0.068 0.612 -0.7735v -1.5725c 0 -0.7055 -0.0935 -0.731 -0.612 -0.7735c -0.051 -0.051 -0.051 -0.2295 0 -0.2805c 0.2805 0.0085 0.578 0.017 0.952 0.017c 0.3145 0 0.595 -0.017 1.1645 -0.017c 0.731 0 1.2835 0.204 1.2835 1.0455c 0 0.476 -0.2975 0.8075 -0.816 0.901v 0.0255c 0.391 0.0765 0.6885 0.3485 0.6885 0.8585c 0 0.595 -0.3655 0.85 -1.394 0.85c -0.3485 0 -0.5695 -0.017 -0.935 -0.017Z m 0.34 -1.802h 0.646c 0.5185 0 0.7395 -0.34 0.7395 -0.85c 0 -0.5695 -0.323 -0.731 -0.782 -0.731c -0.442 0 -0.6035 0.0765 -0.6035 0.4675Z m 0 0.2465v 0.986c 0 0.255 0.1955 0.306 0.6035 0.306c 0.442 0 0.7055 -0.119 0.7055 -0.629c 0 -0.34 -0.221 -0.663 -0.748 -0.663Z "/></symbol><symbol id="gE34E15A46C94CBC2E6ABE8844A1DDB21" overflow="visible"><path d="M 0 0m 0.3485 1.7425c 0 -0.867 0.578 -1.8275 1.785 -1.8275c 0.544 0 0.9605 0.1955 1.2495 0.476c 0.3825 0.374 0.5525 0.9095 0.5525 1.428c 0 0.884 -0.4845 1.9125 -1.785 1.9125c -0.561 0 -1.02 -0.2295 -1.3345 -0.595c -0.306 -0.3655 -0.4675 -0.8585 -0.4675 -1.394Z m 1.6745 1.6915c 0.731 0 1.1815 -0.663 1.1815 -1.887c 0 -1.071 -0.5525 -1.3345 -0.952 -1.3345c -0.884 0 -1.173 1.071 -1.173 1.7255c 0 0.7395 0.1785 1.496 0.9435 1.496Z "/></symbol><symbol id="g5D2E58E4CDB4D7E6C81847885E22D756" overflow="visible"><path d="M 0 0m 3.281 0.7905c -0.3145 -0.323 -0.561 -0.459 -1.054 -0.459c -0.306 0 -0.663 0.1785 -0.9265 0.612c -0.17 0.2805 -0.272 0.6715 -0.272 1.1645l 2.261 -0.017c 0.102 0 0.1615 0.051 0.1615 0.1445c 0 0.714 -0.255 1.479 -1.4365 1.479c -0.7395 0 -1.7 -0.7055 -1.7 -1.9975c 0 -0.476 0.119 -0.935 0.3995 -1.258c 0.289 -0.34 0.6885 -0.544 1.3005 -0.544c 0.646 0 1.105 0.2975 1.445 0.7395c -0.0255 0.085 -0.0765 0.1275 -0.1785 0.136Z m -2.227 1.6065c 0.1615 0.9605 0.7565 1.037 0.9605 1.037c 0.323 0 0.7055 -0.1785 0.7055 -0.8925c 0 -0.0765 -0.034 -0.119 -0.1275 -0.119Z "/></symbol><symbol id="gBAF1B227155053221F22F6E06EEFED60" overflow="visible"><path d="M 0 0m 1.6065 3.6465c -0.2805 0 -0.612 0.0085 -0.867 0.017c -0.051 -0.051 -0.051 -0.2295 0 -0.2805c 0.5185 -0.0425 0.6715 -0.0765 0.6375 -0.782c -0.034 -0.782 -0.17 -1.411 -0.3145 -2.006c -0.051 -0.2295 -0.2975 -0.306 -0.5355 -0.3315c -0.1275 -0.017 -0.2465 -0.068 -0.255 -0.221l -0.051 -1.1305c 0.0595 -0.0255 0.1275 -0.034 0.2295 -0.0085c 0.0765 0.3145 0.306 1.0965 1.071 1.0965h 1.4705c 0.7565 0 1.003 -0.765 1.0795 -1.105c 0.0765 -0.017 0.153 -0.017 0.238 0.017l -0.051 1.139c 0 0.119 -0.068 0.187 -0.2295 0.2125c -0.153 0.0255 -0.3655 0.085 -0.3655 0.3995v 1.9465c 0 0.697 0.1105 0.7395 0.578 0.7735c 0.051 0.051 0.051 0.2295 0 0.2805c -0.255 -0.0085 -0.578 -0.017 -0.918 -0.017Z m -0.238 -3.213c 0 0.1445 0.2295 0.7055 0.357 2.652c 0.0085 0.1275 0.068 0.238 0.2975 0.238h 0.5865c 0.34 0 0.3825 -0.238 0.3825 -0.527v -2.0485c 0 -0.2805 -0.017 -0.4165 -0.357 -0.4165h -1.0965c -0.0935 0 -0.17 0.0085 -0.17 0.102Z "/></symbol><symbol id="g430571653545A60A3EF6386D136EADA3" overflow="visible"><path d="M 0 0m 1.326 3.128c -0.0085 0.255 -0.0255 0.476 -0.068 0.561c -0.017 0.0425 -0.034 0.068 -0.102 0.068c -0.238 -0.0935 -0.459 -0.17 -1.0455 -0.2465c -0.017 -0.051 0 -0.187 0.017 -0.238c 0.459 -0.0425 0.5525 -0.085 0.5525 -0.578v -3.6295c 0 -0.7055 -0.0935 -0.748 -0.612 -0.7735c -0.051 -0.051 -0.051 -0.2295 0 -0.2805c 0.2975 0.0085 0.612 0.017 0.952 0.017c 0.34 0 0.748 -0.0085 1.0285 -0.017c 0.051 0.051 0.051 0.2295 0 0.2805c -0.6035 0.034 -0.697 0.068 -0.697 0.7735v 0.918c 0 0.1105 0.034 0.102 0.119 0.068c 0.2125 -0.085 0.4675 -0.136 0.7395 -0.136c 0.476 0 0.901 0.1445 1.2495 0.476c 0.3995 0.391 0.629 0.918 0.629 1.6065c 0 0.901 -0.6375 1.734 -1.5045 1.734c -0.391 0 -0.8245 -0.255 -1.1645 -0.6375c -0.051 -0.051 -0.085 -0.051 -0.0935 0.034Z m 0.1615 -0.3145c 0.221 0.272 0.612 0.527 0.8585 0.527c 0.544 0 1.0115 -0.612 1.0115 -1.5725c 0 -0.697 -0.2465 -1.564 -1.1985 -1.564c -0.153 0 -0.4505 0.0425 -0.6035 0.1785c -0.17 0.153 -0.204 0.204 -0.204 0.51v 1.547c 0 0.1785 0.034 0.255 0.136 0.374Z "/></symbol><symbol id="g1EEFC323E4FEBE7654D5CC1583F61AF4" overflow="visible"><path d="M 0 0m 3.383 0.7735c -0.034 0.0765 -0.102 0.1105 -0.1785 0.119c -0.289 -0.374 -0.6545 -0.561 -1.02 -0.561c -0.6205 0 -1.139 0.629 -1.139 1.6235c 0 0.935 0.408 1.496 0.969 1.496c 0.5015 0 0.5695 -0.2975 0.6035 -0.595c 0.0255 -0.2295 0.1445 -0.306 0.323 -0.306c 0.1785 0 0.4165 0.1105 0.4165 0.374c 0 0.4675 -0.4845 0.8075 -1.3005 0.8075c -0.8415 0 -1.7425 -0.7565 -1.7425 -1.9635c 0 -1.0965 0.612 -1.853 1.683 -1.853c 0.51 0 0.9605 0.1615 1.3855 0.8585Z "/></symbol><symbol id="g3EDD64AE7B5A40E8FE9DD75D51E8EE8A" overflow="visible"><path d="M 0 0m 1.547 1.037c 0 -0.7055 -0.0935 -0.748 -0.612 -0.7735c -0.051 -0.051 -0.051 -0.2295 0 -0.2805c 0.3315 0.0085 0.6715 0.017 0.952 0.017c 0.289 0 0.6205 -0.0085 0.9435 -0.017c 0.051 0.051 0.051 0.2295 0 0.2805c -0.5185 0.0255 -0.612 0.068 -0.612 0.7735v 2.295h 0.1445c 0.6885 0 0.8245 -0.238 0.969 -0.9265c 0.1105 0 0.221 0.034 0.221 0.034c -0.051 0.391 -0.085 0.765 -0.0935 1.258c -0.1955 -0.017 -0.833 -0.051 -1.258 -0.051h -0.6375c -0.425 0 -0.901 0.0255 -1.241 0.051c -0.0085 -0.493 -0.0425 -0.867 -0.102 -1.258c 0 0 0.119 -0.034 0.2295 -0.034c 0.1445 0.6885 0.272 0.9265 0.969 0.9265h 0.1275Z "/></symbol><symbol id="gF931FC691828778A920607CF18B9C32A" overflow="visible"><path d="M 0 0m 2.4905 0.408c 0.051 -0.2635 0.1445 -0.493 0.5695 -0.493c 0.323 0 0.629 0.1445 0.8075 0.3145c -0.017 0.102 -0.051 0.1785 -0.1445 0.2295c -0.0595 -0.051 -0.204 -0.136 -0.3145 -0.136c -0.2465 0 -0.255 0.3315 -0.255 0.7225v 1.2495c 0 1.207 -0.663 1.4365 -1.2835 1.4365c -0.697 0 -1.4025 -0.459 -1.4025 -0.9435c 0 -0.204 0.102 -0.306 0.2975 -0.306c 0.2465 0 0.3995 0.1785 0.3995 0.289c 0 0.0595 -0.0085 0.119 -0.0255 0.153c -0.0085 0.0255 -0.017 0.0765 -0.017 0.17c 0 0.2635 0.357 0.357 0.68 0.357c 0.289 0 0.6885 -0.1445 0.6885 -1.105c 0 -0.0595 -0.0255 -0.0935 -0.051 -0.102l -0.731 -0.1785c -0.816 -0.204 -1.4025 -0.6545 -1.4025 -1.2325c 0 -0.697 0.476 -0.918 1.071 -0.918c 0.2975 0 0.5525 0.068 0.9265 0.357l 0.17 0.136Z m 0 1.5725v -1.122c 0 -0.1105 -0.051 -0.17 -0.119 -0.221c -0.221 -0.1785 -0.51 -0.374 -0.748 -0.374c -0.425 0 -0.612 0.34 -0.612 0.6035c 0 0.3825 0.1785 0.7735 0.8075 0.935Z "/></symbol><symbol id="g76961810B6DEE2CEF630C1F5B8F93C8E" overflow="visible"><path d="M 0 0m 0.289 2.1845c 0 -1.6065 0.9265 -2.2695 1.751 -2.2695c 1.1645 0 1.836 0.867 1.836 1.938c 0 0.918 -0.51 1.8785 -1.7085 1.8785c -0.8075 0 -1.3005 -0.476 -1.4875 -0.884l -0.017 0.017c 0.034 0.442 0.17 0.986 0.2975 1.207c 0.272 0.4675 0.595 0.493 1.377 0.578c 0.765 0.085 1.309 0.3315 1.3855 1.2835c -0.0595 0.0255 -0.119 0.034 -0.187 0c -0.068 -0.408 -0.5185 -0.5185 -1.2325 -0.629c -0.6885 -0.1105 -1.2665 -0.3485 -1.6235 -1.02c -0.306 -0.578 -0.391 -1.292 -0.391 -2.0995Z m 0.731 -0.221c 0 0.476 0.17 1.4705 1.054 1.4705c 0.663 0 1.071 -0.765 1.071 -1.785c 0 -1.071 -0.493 -1.4365 -0.952 -1.4365c -0.6205 0 -1.173 0.8075 -1.173 1.751Z "/></symbol><symbol id="gC8932C6BA7F518DC74E87E2F4A0224EB" overflow="visible"><path d="M 0 0m 4.0715 2.6095c 0 0.7055 0.0935 0.731 0.612 0.7735c 0.051 0.051 0.051 0.2295 0 0.2805c -0.2975 -0.017 -0.6715 -0.017 -0.952 -0.017c -0.238 0 -0.578 0.0085 -0.9095 0.017c -0.051 -0.051 -0.051 -0.2295 0 -0.2805c 0.5185 -0.034 0.578 -0.068 0.578 -0.7735v -0.5525h -1.819v 0.5525c 0 0.7055 0.0595 0.731 0.578 0.7735c 0.051 0.051 0.051 0.2295 0 0.2805c -0.323 -0.0085 -0.646 -0.017 -0.918 -0.017c -0.255 0 -0.6035 0.0085 -0.9435 0.017c -0.051 -0.051 -0.051 -0.2295 0 -0.2805c 0.5185 -0.034 0.612 -0.068 0.612 -0.7735v -1.5725c 0 -0.7055 -0.0935 -0.731 -0.612 -0.7735c -0.051 -0.051 -0.051 -0.2295 0 -0.2805c 0.34 0.0085 0.68 0.017 0.952 0.017c 0.272 0 0.6035 -0.0085 0.9095 -0.017c 0.051 0.051 0.051 0.2295 0 0.2805c -0.5185 0.034 -0.578 0.068 -0.578 0.7735v 0.7395h 1.819v -0.7395c 0 -0.7055 -0.0595 -0.731 -0.578 -0.7735c -0.051 -0.051 -0.051 -0.2295 0 -0.2805c 0.306 0.0085 0.6205 0.017 0.918 0.017c 0.255 0 0.612 -0.0085 0.9435 -0.017c 0.051 0.051 0.051 0.2295 0 0.2805c -0.5185 0.034 -0.612 0.068 -0.612 0.7735Z "/></symbol><symbol id="g9F99202881449AD6C0CCCD21824C9AF1" overflow="visible"><path d="M 0 0m 3.184 0.728c -0.032 0.072 -0.096 0.104 -0.168 0.112c -0.272 -0.352 -0.616 -0.528 -0.96 -0.528c -0.584 0 -1.072 0.592 -1.072 1.528c 0 0.88 0.384 1.408 0.912 1.408c 0.472 0 0.536 -0.28 0.568 -0.56c 0.024 -0.216 0.136 -0.288 0.304 -0.288c 0.168 0 0.392 0.104 0.392 0.352c 0 0.44 -0.456 0.76 -1.224 0.76c -0.792 0 -1.64 -0.712 -1.64 -1.848c 0 -1.032 0.576 -1.744 1.584 -1.744c 0.48 0 0.904 0.152 1.304 0.808Z "/></symbol><symbol id="g5D01DA3AB390CB78D7E54204B7DC3F87" overflow="visible"><path d="M 0 0m 0.328 1.64c 0 -0.816 0.544 -1.72 1.68 -1.72c 0.512 0 0.904 0.184 1.176 0.448c 0.36 0.352 0.52 0.856 0.52 1.344c 0 0.832 -0.456 1.8 -1.68 1.8c -0.528 0 -0.96 -0.216 -1.256 -0.56c -0.288 -0.344 -0.44 -0.808 -0.44 -1.312Z m 1.576 1.592c 0.688 0 1.112 -0.624 1.112 -1.776c 0 -1.008 -0.52 -1.256 -0.896 -1.256c -0.832 0 -1.104 1.008 -1.104 1.624c 0 0.696 0.168 1.408 0.888 1.408Z "/></symbol><symbol id="gE9BB349F7E32C39203BC6B218DF12838" overflow="visible"><path d="M 0 0m 1.168 3.432c -0.344 0 -0.624 0.008 -0.888 0.016c -0.048 -0.048 -0.048 -0.216 0 -0.264c 0.488 -0.032 0.576 -0.064 0.576 -0.728v -1.48c 0 -0.664 -0.088 -0.688 -0.576 -0.728c -0.048 -0.048 -0.048 -0.216 0 -0.264c 0.264 0.008 0.544 0.016 0.896 0.016c 0.296 0 0.56 -0.016 1.096 -0.016c 0.688 0 1.208 0.192 1.208 0.984c 0 0.448 -0.28 0.76 -0.768 0.848v 0.024c 0.368 0.072 0.648 0.328 0.648 0.808c 0 0.56 -0.344 0.8 -1.312 0.8c -0.328 0 -0.536 -0.016 -0.88 -0.016Z m 0.32 -1.696h 0.608c 0.488 0 0.696 -0.32 0.696 -0.8c 0 -0.536 -0.304 -0.688 -0.736 -0.688c -0.416 0 -0.568 0.072 -0.568 0.44Z m 0 0.232v 0.928c 0 0.24 0.184 0.288 0.568 0.288c 0.416 0 0.664 -0.112 0.664 -0.592c 0 -0.32 -0.208 -0.624 -0.704 -0.624Z "/></symbol><symbol id="gF859B786D36C3A3EB6E93A57BC4F802" overflow="visible"><path d="M 0 0m 3.496 3.432h -2.272c -0.32 0 -0.624 0.008 -0.864 0.016c -0.048 -0.048 -0.048 -0.216 0 -0.264c 0.44 -0.032 0.544 -0.072 0.544 -0.728v -1.48c 0 -0.656 -0.104 -0.696 -0.624 -0.728c -0.048 -0.048 -0.048 -0.216 0 -0.264c 0.24 0.008 0.624 0.016 0.944 0.016c 0.32 0 0.56 -0.008 0.8 -0.016c 0.048 0.048 0.048 0.216 0 0.264c -0.408 0.04 -0.488 0.072 -0.488 0.728v 1.736c 0 0.248 0.024 0.408 0.336 0.408h 0.968c 0.296 0 0.344 -0.088 0.344 -0.408v -1.736c 0 -0.656 -0.08 -0.696 -0.496 -0.728c -0.04 -0.048 -0.04 -0.216 0 -0.264c 0.2 0.008 0.496 0.016 0.816 0.016c 0.32 0 0.68 -0.008 0.904 -0.016c 0.04 0.048 0.04 0.216 0 0.264c -0.52 0.032 -0.592 0.072 -0.592 0.728v 1.48c 0 0.656 0.104 0.696 0.544 0.728c 0.048 0.048 0.048 0.216 0 0.264c -0.24 -0.008 -0.544 -0.016 -0.864 -0.016Z "/></symbol><symbol id="gF79D9CC171E1ACC5162F855F1894F43E" overflow="visible"><path d="M 0 0m 2.344 0.384c 0.048 -0.248 0.136 -0.464 0.536 -0.464c 0.304 0 0.592 0.136 0.76 0.296c -0.016 0.096 -0.048 0.168 -0.136 0.216c -0.056 -0.048 -0.192 -0.128 -0.296 -0.128c -0.232 0 -0.24 0.312 -0.24 0.68v 1.176c 0 1.136 -0.624 1.352 -1.208 1.352c -0.656 0 -1.32 -0.432 -1.32 -0.888c 0 -0.192 0.096 -0.288 0.28 -0.288c 0.232 0 0.376 0.168 0.376 0.272c 0 0.056 -0.008 0.112 -0.024 0.144c -0.008 0.024 -0.016 0.072 -0.016 0.16c 0 0.248 0.336 0.336 0.64 0.336c 0.272 0 0.648 -0.136 0.648 -1.04c 0 -0.056 -0.024 -0.088 -0.048 -0.096l -0.688 -0.168c -0.768 -0.192 -1.32 -0.616 -1.32 -1.16c 0 -0.656 0.448 -0.864 1.008 -0.864c 0.28 0 0.52 0.064 0.872 0.336l 0.16 0.128Z m 0 1.48v -1.056c 0 -0.104 -0.048 -0.16 -0.112 -0.208c -0.208 -0.168 -0.48 -0.352 -0.704 -0.352c -0.4 0 -0.576 0.32 -0.576 0.568c 0 0.36 0.168 0.728 0.76 0.88Z "/></symbol><symbol id="gAC00C34078948F83CC62D60B02C8E81A" overflow="visible"><path d="M 0 0m 1.512 3.432c -0.264 0 -0.576 0.008 -0.816 0.016c -0.048 -0.048 -0.048 -0.216 0 -0.264c 0.488 -0.04 0.632 -0.072 0.6 -0.736c -0.032 -0.736 -0.16 -1.328 -0.296 -1.888c -0.048 -0.216 -0.28 -0.288 -0.504 -0.312c -0.12 -0.016 -0.232 -0.064 -0.24 -0.208l -0.048 -1.064c 0.056 -0.024 0.12 -0.032 0.216 -0.008c 0.072 0.296 0.288 1.032 1.008 1.032h 1.384c 0.712 0 0.944 -0.72 1.016 -1.04c 0.072 -0.016 0.144 -0.016 0.224 0.016l -0.048 1.072c 0 0.112 -0.064 0.176 -0.216 0.2c -0.144 0.024 -0.344 0.08 -0.344 0.376v 1.832c 0 0.656 0.104 0.696 0.544 0.728c 0.048 0.048 0.048 0.216 0 0.264c -0.24 -0.008 -0.544 -0.016 -0.864 -0.016Z m -0.224 -3.024c 0 0.136 0.216 0.664 0.336 2.496c 0.008 0.12 0.064 0.224 0.28 0.224h 0.552c 0.32 0 0.36 -0.224 0.36 -0.496v -1.928c 0 -0.264 -0.016 -0.392 -0.336 -0.392h -1.032c -0.088 0 -0.16 0.008 -0.16 0.096Z "/></symbol><symbol id="g465CA45D0696F5BBCE5E7A11B5E63D98" overflow="visible"><path d="M 0 0m 3.088 0.744c -0.296 -0.304 -0.528 -0.432 -0.992 -0.432c -0.288 0 -0.624 0.168 -0.872 0.576c -0.16 0.264 -0.256 0.632 -0.256 1.096l 2.128 -0.016c 0.096 0 0.152 0.048 0.152 0.136c 0 0.672 -0.24 1.392 -1.352 1.392c -0.696 0 -1.6 -0.664 -1.6 -1.88c 0 -0.448 0.112 -0.88 0.376 -1.184c 0.272 -0.32 0.648 -0.512 1.224 -0.512c 0.608 0 1.04 0.28 1.36 0.696c -0.024 0.08 -0.072 0.12 -0.168 0.128Z m -2.096 1.512c 0.152 0.904 0.712 0.976 0.904 0.976c 0.304 0 0.664 -0.168 0.664 -0.84c 0 -0.072 -0.032 -0.112 -0.12 -0.112Z "/></symbol><symbol id="g937124D7F3D66536776BB8DA5DFD7893" overflow="visible"><path d="M 0 0m 3.832 2.456c 0 0.664 0.088 0.688 0.576 0.728c 0.048 0.048 0.048 0.216 0 0.264c -0.28 -0.016 -0.632 -0.016 -0.896 -0.016c -0.224 0 -0.544 0.008 -0.856 0.016c -0.048 -0.048 -0.048 -0.216 0 -0.264c 0.488 -0.032 0.544 -0.064 0.544 -0.728v -0.52h -1.712v 0.52c 0 0.664 0.056 0.688 0.544 0.728c 0.048 0.048 0.048 0.216 0 0.264c -0.304 -0.008 -0.608 -0.016 -0.864 -0.016c -0.24 0 -0.568 0.008 -0.888 0.016c -0.048 -0.048 -0.048 -0.216 0 -0.264c 0.488 -0.032 0.576 -0.064 0.576 -0.728v -1.48c 0 -0.664 -0.088 -0.688 -0.576 -0.728c -0.048 -0.048 -0.048 -0.216 0 -0.264c 0.32 0.008 0.64 0.016 0.896 0.016c 0.256 0 0.568 -0.008 0.856 -0.016c 0.048 0.048 0.048 0.216 0 0.264c -0.488 0.032 -0.544 0.064 -0.544 0.728v 0.696h 1.712v -0.696c 0 -0.664 -0.056 -0.688 -0.544 -0.728c -0.048 -0.048 -0.048 -0.216 0 -0.264c 0.288 0.008 0.584 0.016 0.864 0.016c 0.24 0 0.576 -0.008 0.888 -0.016c 0.048 0.048 0.048 0.216 0 0.264c -0.488 0.032 -0.576 0.064 -0.576 0.728Z "/></symbol><symbol id="gDF0740817C60D01D4C0A2F901DD857A7" overflow="visible"><path d="M 0 0m 1.584 0.504c -0.024 0 -0.056 0.016 -0.056 0.096v 1.824c 0 0.664 0.168 0.736 0.576 0.76c 0.048 0.048 0.048 0.216 0 0.264c -0.184 -0.008 -0.64 -0.016 -0.936 -0.016c -0.264 0 -0.584 0.008 -0.888 0.016c -0.048 -0.048 -0.048 -0.216 0 -0.264c 0.488 -0.024 0.616 -0.096 0.616 -0.76v -1.416c 0 -0.664 -0.128 -0.736 -0.616 -0.76c -0.048 -0.048 -0.048 -0.216 0 -0.264c 0.312 0.008 0.632 0.016 0.888 0.016c 0.184 0 0.4 -0.008 0.488 -0.016c 0.04 0.112 0.112 0.272 0.2 0.432l 1.248 2.504c 0.024 0 0.056 -0.016 0.056 -0.096v -1.816c 0 -0.664 -0.168 -0.736 -0.576 -0.76c -0.048 -0.048 -0.048 -0.216 0 -0.264c 0.184 0.008 0.616 0.016 0.936 0.016c 0.248 0 0.576 -0.008 0.888 -0.016c 0.048 0.048 0.048 0.216 0 0.264c -0.488 0.024 -0.616 0.096 -0.616 0.76v 1.416c 0 0.664 0.128 0.736 0.616 0.76c 0.048 0.048 0.048 0.216 0 0.264c -0.32 -0.008 -0.64 -0.016 -0.888 -0.016c -0.176 0 -0.4 0.008 -0.48 0.016c -0.064 -0.144 -0.136 -0.312 -0.208 -0.448Z "/></symbol><symbol id="g89E7AED93332C4356E163D20D023452" overflow="visible"><path d="M 0 0m 1.632 -1.28c 0.128 0.224 0.232 0.448 0.328 0.688c 0.64 1.544 1 2.368 1.416 3.264c 0.16 0.336 0.272 0.464 0.648 0.512c 0.048 0.048 0.048 0.216 0 0.264c -0.16 -0.008 -0.344 -0.016 -0.568 -0.016c -0.24 0 -0.488 0.008 -0.728 0.016c -0.048 -0.048 -0.048 -0.216 0 -0.264c 0.256 -0.024 0.512 -0.072 0.384 -0.36l -0.792 -1.832c -0.056 -0.128 -0.128 -0.152 -0.192 0.008l -0.712 1.664c -0.144 0.336 -0.184 0.488 0.264 0.52c 0.048 0.048 0.048 0.216 0 0.264c -0.296 -0.008 -0.616 -0.016 -0.904 -0.016c -0.272 0 -0.488 0.008 -0.648 0.016c -0.048 -0.048 -0.048 -0.216 0 -0.264c 0.32 -0.04 0.424 -0.112 0.632 -0.6l 0.904 -2.104c 0.072 -0.16 0.192 -0.528 0.112 -0.752c -0.096 -0.264 -0.192 -0.488 -0.312 -0.736c -0.088 -0.16 -0.2 -0.232 -0.4 -0.232c -0.112 0 -0.144 0.024 -0.232 0.024c -0.232 0 -0.352 -0.24 -0.352 -0.344c 0 -0.168 0.16 -0.296 0.376 -0.296c 0.168 0 0.488 0.064 0.776 0.576Z "/></symbol><symbol id="gF09D88C2290872E835CD22D560D52A5C" overflow="visible"><path d="M 0 0m 0.344 0.664c 0 -0.176 0.104 -0.304 0.272 -0.432c 0.2 -0.144 0.464 -0.312 1.096 -0.312c 0.8 0 1.424 0.24 1.424 1.032c 0 0.48 -0.24 0.8 -0.808 0.896v 0.024c 0.488 0.184 0.616 0.408 0.616 0.824c 0 0.464 -0.32 0.816 -1.128 0.816c -0.424 0 -0.8 -0.152 -1.232 -0.224l -0.104 -0.952c 0.064 -0.032 0.144 -0.04 0.216 -0.032c 0.152 0.464 0.352 0.928 1.024 0.928c 0.44 0 0.584 -0.264 0.584 -0.584c 0 -0.328 -0.056 -0.712 -0.568 -0.712c -0.152 0 -0.288 0.048 -0.44 0.048c -0.072 0 -0.152 -0.048 -0.152 -0.176c 0 -0.128 0.088 -0.168 0.16 -0.168c 0.152 0 0.24 0.048 0.44 0.048c 0.592 0 0.704 -0.408 0.704 -0.76c 0 -0.472 -0.176 -0.728 -0.744 -0.728c -0.456 0 -0.536 0.168 -0.672 0.456c -0.064 0.144 -0.152 0.256 -0.36 0.256c -0.144 0 -0.328 -0.12 -0.328 -0.248Z "/></symbol><symbol id="g46DFAA35BC521B4F2378CE697B4B163E" overflow="visible"><path d="M 0 0m 1.248 2.944c -0.008 0.24 -0.024 0.448 -0.064 0.528c -0.016 0.04 -0.032 0.064 -0.096 0.064c -0.224 -0.088 -0.432 -0.16 -0.984 -0.232c -0.016 -0.048 0 -0.176 0.016 -0.224c 0.432 -0.04 0.52 -0.08 0.52 -0.544v -3.416c 0 -0.664 -0.088 -0.704 -0.576 -0.728c -0.048 -0.048 -0.048 -0.216 0 -0.264c 0.28 0.008 0.576 0.016 0.896 0.016c 0.32 0 0.704 -0.008 0.968 -0.016c 0.048 0.048 0.048 0.216 0 0.264c -0.568 0.032 -0.656 0.064 -0.656 0.728v 0.864c 0 0.104 0.032 0.096 0.112 0.064c 0.2 -0.08 0.44 -0.128 0.696 -0.128c 0.448 0 0.848 0.136 1.176 0.448c 0.376 0.368 0.592 0.864 0.592 1.512c 0 0.848 -0.6 1.632 -1.416 1.632c -0.368 0 -0.776 -0.24 -1.096 -0.6c -0.048 -0.048 -0.08 -0.048 -0.088 0.032Z m 0.152 -0.296c 0.208 0.256 0.576 0.496 0.808 0.496c 0.512 0 0.952 -0.576 0.952 -1.48c 0 -0.656 -0.232 -1.472 -1.128 -1.472c -0.144 0 -0.424 0.04 -0.568 0.168c -0.16 0.144 -0.192 0.192 -0.192 0.48v 1.456c 0 0.168 0.032 0.24 0.128 0.352Z "/></symbol><symbol id="g1A5B9B9C6A1E104984939B3BB3886026" overflow="visible"><path d="M 0 0m 6.848 0.656c 0.688 0.776 1.336 1.224 1.728 1.36v 0.184c -0.864 0.352 -1.728 1.376 -1.728 1.384h -0.32c 0.312 -0.672 0.64 -1.04 0.904 -1.256h -6.96v -0.416h 6.96c -0.256 -0.248 -0.648 -0.68 -0.888 -1.256Z "/></symbol><symbol id="g7FEC4917393F0C2A72D87F7F150D50F" overflow="visible"><path d="M 0 0m 5.968 0.976v 1.48c 0 0.656 0.104 0.696 0.544 0.728c 0.048 0.048 0.048 0.216 0 0.264c -0.24 -0.008 -0.544 -0.016 -0.864 -0.016c -0.32 0 -0.56 0.008 -0.8 0.016c -0.048 -0.048 -0.048 -0.216 0 -0.264c 0.408 -0.04 0.488 -0.072 0.488 -0.728v -1.736c 0 -0.248 -0.024 -0.408 -0.336 -0.408h -0.944c -0.24 0 -0.344 0.072 -0.344 0.408v 1.736c 0.008 0.656 0.064 0.696 0.496 0.728c 0.04 0.048 0.04 0.216 0 0.264c -0.2 -0.008 -0.496 -0.016 -0.816 -0.016c -0.32 0 -0.584 0.008 -0.784 0.016c -0.04 -0.048 -0.04 -0.216 0 -0.264c 0.4 -0.032 0.48 -0.072 0.472 -0.728v -1.744c 0 -0.296 -0.04 -0.4 -0.336 -0.4h -0.912c -0.296 0 -0.344 0.088 -0.344 0.408v 1.736c 0 0.656 0.08 0.696 0.496 0.728c 0.04 0.048 0.04 0.216 0 0.264c -0.2 -0.008 -0.496 -0.016 -0.816 -0.016c -0.32 0 -0.6 0.008 -0.824 0.016c -0.04 -0.048 -0.04 -0.216 0 -0.264c 0.44 -0.032 0.512 -0.072 0.512 -0.728v -1.48c 0 -0.656 -0.104 -0.696 -0.544 -0.728c -0.048 -0.048 -0.048 -0.216 0 -0.264c 0.24 0.008 0.544 0.016 0.864 0.016h 4.472c 0.32 0 0.624 -0.008 0.864 -0.016c 0.048 0.048 0.048 0.216 0 0.264c -0.44 0.032 -0.544 0.072 -0.544 0.728Z "/></symbol><symbol id="g362A412C7577377BE4D103B9E5EDCC22" overflow="visible"><path d="M 0 0m 3.088 0c 0 0 0.624 -0.008 0.784 -0.016c 0.048 0.048 0.048 0.216 0 0.264c -0.312 0.016 -0.376 0.08 -0.512 0.336l -0.36 0.68c -0.2 0.376 -0.48 0.568 -0.936 0.568v 0.024c 0.312 0.088 0.448 0.368 0.568 0.688c 0.096 0.248 0.192 0.4 0.36 0.4c 0.072 0 0.136 -0.024 0.184 -0.056c 0.048 -0.032 0.136 -0.056 0.24 -0.056c 0.176 0 0.32 0.152 0.32 0.312c 0 0.176 -0.192 0.36 -0.456 0.36c -0.464 0 -0.68 -0.432 -0.832 -0.808c -0.176 -0.44 -0.392 -0.744 -0.96 -0.744v 0.504c 0 0.664 0.088 0.688 0.496 0.728c 0.048 0.048 0.048 0.216 0 0.264c -0.192 -0.008 -0.496 -0.016 -0.816 -0.016c -0.344 0 -0.624 0.008 -0.888 0.016c -0.048 -0.048 -0.048 -0.216 0 -0.264c 0.488 -0.032 0.576 -0.064 0.576 -0.728v -1.48c 0 -0.664 -0.088 -0.688 -0.576 -0.728c -0.048 -0.048 -0.048 -0.216 0 -0.264c 0.264 0.008 0.544 0.016 0.896 0.016c 0.312 0 0.632 -0.008 0.808 -0.016c 0.048 0.048 0.048 0.216 0 0.264c -0.408 0.032 -0.496 0.064 -0.496 0.728v 0.696c 0.544 -0.032 0.688 -0.248 0.832 -0.544l 0.344 -0.72c 0.104 -0.216 0.264 -0.4 0.424 -0.408Z "/></symbol><symbol id="g3478CFDC408E67C5C7551BD6A62D2425" overflow="visible"><path d="M 0 0m 1.488 2.456c 0 0.456 0.056 0.664 0.336 0.664h 0.176c 0.656 0 0.848 -0.456 0.96 -0.92c 0.088 -0.008 0.168 0 0.232 0.032c -0.032 0.424 -0.056 0.776 -0.104 1.2l -0.016 0.016c 0 0 -0.64 -0.016 -0.896 -0.016h -1.008c -0.344 0 -0.624 0.008 -0.888 0.016c -0.048 -0.048 -0.048 -0.216 0 -0.264c 0.488 -0.032 0.576 -0.064 0.576 -0.728v -1.48c 0 -0.664 -0.088 -0.688 -0.576 -0.728c -0.048 -0.048 -0.048 -0.216 0 -0.264c 0.264 0.008 0.544 0.016 0.896 0.016c 0.344 0 0.632 -0.008 0.888 -0.016c 0.048 0.048 0.048 0.216 0 0.264c -0.488 0.032 -0.576 0.064 -0.576 0.728Z "/></symbol><symbol id="gFF63DA2595F1651AF0C535BF803D9AEC" overflow="visible"><path d="M 0 0m 3.344 0.976v 1.48c 0 0.656 0.104 0.696 0.544 0.728c 0.048 0.048 0.048 0.216 0 0.264c -0.24 -0.008 -0.544 -0.016 -0.864 -0.016h -1.512c -0.264 0 -0.576 0.008 -0.816 0.016c -0.048 -0.048 -0.048 -0.216 0 -0.264c 0.568 -0.04 0.648 -0.088 0.648 -0.952c 0 -0.84 -0.064 -1.28 -0.176 -1.608c -0.104 -0.288 -0.24 -0.392 -0.376 -0.392c -0.104 0 -0.136 0.064 -0.152 0.168c -0.024 0.152 -0.072 0.304 -0.296 0.304c -0.2 0 -0.312 -0.16 -0.312 -0.336c 0 -0.248 0.224 -0.464 0.592 -0.464c 0.408 0 0.632 0.208 0.816 0.64c 0.16 0.384 0.208 1.2 0.208 1.744c 0 0.624 0.024 0.832 0.344 0.832h 0.36c 0.304 0 0.36 -0.192 0.36 -0.464v -1.68c 0 -0.656 -0.08 -0.696 -0.496 -0.728c -0.04 -0.048 -0.04 -0.216 0 -0.264c 0.2 0.008 0.496 0.016 0.816 0.016c 0.32 0 0.68 -0.008 0.904 -0.016c 0.04 0.048 0.04 0.216 0 0.264c -0.52 0.032 -0.592 0.072 -0.592 0.728Z "/></symbol><symbol id="gDFD38EC9906BA626C5B7E69A103C103" overflow="visible"><path d="M 0 0m 0.272 2.056c 0 -1.512 0.872 -2.136 1.648 -2.136c 1.096 0 1.728 0.816 1.728 1.824c 0 0.864 -0.48 1.768 -1.608 1.768c -0.76 0 -1.224 -0.448 -1.4 -0.832l -0.016 0.016c 0.032 0.416 0.16 0.928 0.28 1.136c 0.256 0.44 0.56 0.464 1.296 0.544c 0.72 0.08 1.232 0.312 1.304 1.208c -0.056 0.024 -0.112 0.032 -0.176 0c -0.064 -0.384 -0.488 -0.488 -1.16 -0.592c -0.648 -0.104 -1.192 -0.328 -1.528 -0.96c -0.288 -0.544 -0.368 -1.216 -0.368 -1.976Z m 0.688 -0.208c 0 0.448 0.16 1.384 0.992 1.384c 0.624 0 1.008 -0.72 1.008 -1.68c 0 -1.008 -0.464 -1.352 -0.896 -1.352c -0.584 0 -1.104 0.76 -1.104 1.648Z "/></symbol><symbol id="gC175399424EF2D6961EAC52DB2845054" overflow="visible"><path d="M 0 0m 1.488 2.448c 0 0.672 0.088 0.696 0.576 0.736c 0.048 0.048 0.048 0.216 0 0.264c -0.272 -0.008 -0.544 -0.016 -0.896 -0.016c -0.344 0 -0.624 0.008 -0.888 0.016c -0.048 -0.048 -0.048 -0.216 0 -0.264c 0.488 -0.032 0.576 -0.064 0.576 -0.728v -1.48c 0 -0.664 -0.088 -0.688 -0.576 -0.728c -0.048 -0.048 -0.048 -0.216 0 -0.264c 0.264 0.008 0.544 0.016 0.896 0.016c 0.328 0 0.504 -0.016 0.832 -0.016c 0.984 0 1.52 0.248 1.52 1.104c 0 0.752 -0.656 0.968 -1.464 0.968h -0.576Z m 1.352 -1.44c 0 -0.656 -0.4 -0.76 -0.824 -0.76c -0.392 0 -0.528 0.08 -0.528 0.36v 1.184h 0.568c 0.6 0 0.784 -0.36 0.784 -0.784Z "/></symbol><symbol id="gE4F86D8BE8C69EC1EB36B973594724AB" overflow="visible"><path d="M 0 0m 0.936 2.448l -0.048 -1.488c -0.024 -0.672 -0.144 -0.688 -0.608 -0.712c -0.048 -0.048 -0.048 -0.216 0 -0.264c 0.16 0.008 0.56 0.016 0.688 0.016c 0.16 0 0.536 -0.008 0.696 -0.016c 0.048 0.048 0.048 0.216 0 0.264c -0.456 0.032 -0.488 0.112 -0.472 0.712l 0.056 1.96c 0 0.072 0.032 0.072 0.064 0l 1.16 -2.832c 0.032 -0.024 0.064 -0.024 0.088 0l 1.312 2.824c 0.04 0.088 0.08 0.096 0.08 0l -0.008 -1.936c 0 -0.664 -0.056 -0.688 -0.544 -0.728c -0.048 -0.048 -0.048 -0.216 0 -0.264c 0.288 0.008 0.584 0.016 0.864 0.016c 0.24 0 0.584 -0.008 0.896 -0.016c 0.048 0.048 0.048 0.216 0 0.264c -0.488 0.032 -0.576 0.064 -0.576 0.728l -0.016 1.48c -0.008 0.664 0.088 0.688 0.576 0.728c 0.048 0.048 0.048 0.216 0 0.264c -0.28 -0.016 -1.056 -0.016 -1.32 -0.016l -1.064 -2.288l -0.04 -0.08l -0.032 0.08l -0.936 2.288c -0.264 0 -1.112 0 -1.392 0.016c -0.048 -0.048 -0.048 -0.216 0 -0.264c 0.488 -0.04 0.6 -0.072 0.576 -0.736Z "/></symbol></defs></svg>