<svg class="typst-doc" viewBox="0 0 185.21379527559057 139.5919724409449" width="185.21379527559057pt" height="139.5919724409449pt" xmlns="http://www.w3.org/2000/svg" xmlns:xlink="http://www.w3.org/1999/xlink" xmlns:h5="http://www.w3.org/1999/xhtml">
    <path class="typst-shape" fill="#ffffff" fill-rule="nonzero" d="M 0 0 L 0 139.59198 L 185.21379 139.59198 L 185.21379 0 Z "/>
    <g>
        <g transform="translate(8 8)">
            <g class="typst-group">
                <g>
                    <g transform="translate(0 11.100614173228353)">
                        <path class="typst-shape" fill="none" stroke="#1a1a18" stroke-width="0.6" stroke-linecap="butt" stroke-linejoin="miter" stroke-miterlimit="4" d="M 0 0 L 64.34245 0 "/>
                    </g>
                    <g transform="translate(64.34244992125986 8.974629921259842)">
                        <path class="typst-shape" fill="#1a1a18" fill-rule="nonzero" stroke="#1a1a18" stroke-width="0.6" stroke-linecap="butt" stroke-linejoin="miter" stroke-miterlimit="4" d="M 5.6692915 2.1259842 L 0 4.2519684 L 0 0 L 5.6692915 2.1259842 Z "/>
                    </g>
                    <g transform="translate(23.49924803149606 0)">
                        <path class="typst-shape" fill="none" d="M 0 0 L 21.033 0 L 21.033 8.028 L 0 8.028 L 0 0 Z "/>
                    </g>
                    <g transform="translate(23.49924788976378 0.0000000000000053710317033834344)">
                        <g class="typst-group">
                            <g>
                                <g transform="translate(0 0)">
                                    <g class="typst-group">
                                        <g>
                                            <g transform="translate(0 5.922000000000001)">
                                                <g class="typst-text" transform="scale(1, -1)">
                                                    <use xlink:href="#g2DE200BEC81CA8326BA49B358FB666D8" x="0" fill="#7c7f6a" fill-rule="nonzero"/>
                                                    <use xlink:href="#g498D63BE9E74D36B5EA8ECFB42ED3CD9" x="4.311" fill="#7c7f6a" fill-rule="nonzero"/>
                                                    <use xlink:href="#gE5FBEC3A915E2D9534A37A1813D7F710" x="8.334" fill="#7c7f6a" fill-rule="nonzero"/>
                                                    <use xlink:href="#g498D63BE9E74D36B5EA8ECFB42ED3CD9" x="12.338999999999999" fill="#7c7f6a" fill-rule="nonzero"/>
                                                    <use xlink:href="#gE0CE25E2EA5F586FD4885AC3CABC8923" x="16.362" fill="#7c7f6a" fill-rule="nonzero"/>
                                                </g>
                                            </g>
                                        </g>
                                    </g>
                                </g>
                            </g>
                        </g>
                    </g>
                    <g transform="translate(2.8346456692913393 30.943133858267725)">
                        <path class="typst-shape" fill="#beb9af" fill-rule="nonzero" stroke="#1a1a18" stroke-width="0.6" stroke-linecap="butt" stroke-linejoin="miter" stroke-miterlimit="4" d="M 0 56.692913 L 102.04724 0 L 121.88976 56.692913 "/>
                    </g>
                    <g transform="translate(63.212598425196866 43.132110236220484)">
                        <path class="typst-shape" fill="#c9a24b" fill-rule="nonzero" d="M 1.984252 0 C 0.8893735 0 0 0.8893735 0 1.984252 C 0 3.0791304 0.8893735 3.968504 1.984252 3.968504 C 3.0791304 3.968504 3.968504 3.0791304 3.968504 1.984252 C 3.968504 0.8893735 3.0791304 0 1.984252 0 Z "/>
                    </g>
                    <g transform="translate(80.2204724409449 30.376204724409458)">
                        <path class="typst-shape" fill="#c9a24b" fill-rule="nonzero" d="M 1.984252 0 C 0.8893735 0 0 0.8893735 0 1.984252 C 0 3.0791304 0.8893735 3.968504 1.984252 3.968504 C 3.0791304 3.968504 3.968504 3.0791304 3.968504 1.984252 C 3.968504 0.8893735 3.0791304 0 1.984252 0 Z "/>
                    </g>
                    <g transform="translate(94.39370078740158 21.87226771653545)">
                        <path class="typst-shape" fill="#c9a24b" fill-rule="nonzero" d="M 1.984252 0 C 0.8893735 0 0 0.8893735 0 1.984252 C 0 3.0791304 0.8893735 3.968504 1.984252 3.968504 C 3.0791304 3.968504 3.968504 3.0791304 3.968504 1.984252 C 3.968504 0.8893735 3.0791304 0 1.984252 0 Z "/>
                    </g>
                    <g transform="translate(107.14960629921259 37.4628188976378)">
                        <path class="typst-shape" fill="#c9a24b" fill-rule="nonzero" d="M 1.984252 0 C 0.8893735 0 0 0.8893735 0 1.984252 C 0 3.0791304 0.8893735 3.968504 1.984252 3.968504 C 3.0791304 3.968504 3.968504 3.0791304 3.968504 1.984252 C 3.968504 0.8893735 3.0791304 0 1.984252 0 Z "/>
                    </g>
                    <g transform="translate(23.92178937007874 69.19799606299213)">
                        <path class="typst-shape" fill="none" d="M 0 0 L 31.5265 0 L 31.5265 5.695 L 0 5.695 L 0 0 Z "/>
                    </g>
                    <g transform="translate(23.921789244094487 69.19799598425199)">
                        <g class="typst-group">
                            <g>
                                <g transform="translate(0 0)">
                                    <g class="typst-group">
                                        <g>
                                            <g transform="translate(0 5.593)">
                                                <g class="typst-text" transform="scale(1, -1)">
                                                    <use xlink:href="#gCC44E3018C12824B77604A74EA2543EF" x="0" fill="#1a1a18" fill-rule="nonzero"/>
                                                    <use xlink:href="#g7B65F5ADA22BABA3490471E647BCA46D" x="4.981" fill="#1a1a18" fill-rule="nonzero"/>
                                                    <use xlink:href="#g178BFCCBA40A1D1ECF064B49E891B73E" x="9.265" fill="#1a1a18" fill-rule="nonzero"/>
                                                    <use xlink:href="#g7B65F5ADA22BABA3490471E647BCA46D" x="13.744500000000002" fill="#1a1a18" fill-rule="nonzero"/>
                                                    <use xlink:href="#g874341D91B61E3A5F3DDD51C8B27D638" x="18.0285" fill="#1a1a18" fill-rule="nonzero"/>
                                                    <use xlink:href="#g2B3CB50F3608D55CE6E2F9D5E890FC9" x="21.564500000000002" fill="#1a1a18" fill-rule="nonzero"/>
                                                    <use xlink:href="#gBE39596899519F76C95A6EBFE5B226E9" x="26.545500000000004" fill="#1a1a18" fill-rule="nonzero"/>
                                                </g>
                                            </g>
                                        </g>
                                    </g>
                                </g>
                            </g>
                        </g>
                    </g>
                    <g transform="translate(114.80314960629921 55.49859055118111)">
                        <path class="typst-shape" fill="none" d="M 0 0 L 26.1035 0 L 26.1035 7.582 L 0 7.582 L 0 0 Z "/>
                    </g>
                    <g transform="translate(114.80314949606299 55.49859042519686)">
                        <g class="typst-group">
                            <g>
                                <g transform="translate(0 0)">
                                    <g class="typst-group">
                                        <g>
                                            <g transform="translate(0 5.593)">
                                                <g class="typst-text" transform="scale(1, -1)">
                                                    <use xlink:href="#g8DEB4C82434AA99D93E3D9A148F90BA2" x="0" fill="#1a1a18" fill-rule="nonzero"/>
                                                    <use xlink:href="#g7838C22865692FD652C179671D7E75AB" x="4.267" fill="#1a1a18" fill-rule="nonzero"/>
                                                    <use xlink:href="#g362654FC7035CD84AB425C9F0CB42F3A" x="8.6785" fill="#1a1a18" fill-rule="nonzero"/>
                                                    <use xlink:href="#g390697BCD366D8FDF721159B1F9B0D38" x="13.056000000000001" fill="#1a1a18" fill-rule="nonzero"/>
                                                    <use xlink:href="#g7B65F5ADA22BABA3490471E647BCA46D" x="16.8385" fill="#1a1a18" fill-rule="nonzero"/>
                                                    <use xlink:href="#gBE39596899519F76C95A6EBFE5B226E9" x="21.1225" fill="#1a1a18" fill-rule="nonzero"/>
                                                </g>
                                            </g>
                                        </g>
                                    </g>
                                </g>
                            </g>
                        </g>
                    </g>
                    <g transform="translate(16.237039370078744 93.98930708661419)">
                        <path class="typst-shape" fill="none" d="M 0 0 L 46.896 0 L 46.896 7.136 L 0 7.136 L 0 0 Z "/>
                    </g>
                    <g transform="translate(16.237039322834647 93.98930697637797)">
                        <g class="typst-group">
                            <g>
                                <g transform="translate(0 0)">
                                    <g class="typst-group">
                                        <g>
                                            <g transform="translate(0 5.264)">
                                                <g class="typst-text" transform="scale(1, -1)">
                                                    <use xlink:href="#g47F8A8501E2A2CC7C13E46B65837D3DE" x="0" fill="#7c7f6a" fill-rule="nonzero"/>
                                                    <use xlink:href="#g472EE45C71CBD8604D6782570CA62DC2" x="4.688" fill="#7c7f6a" fill-rule="nonzero"/>
                                                    <use xlink:href="#g53709EE1E30F1D60B5B9598D0792A0F3" x="8.344" fill="#7c7f6a" fill-rule="nonzero"/>
                                                    <use xlink:href="#gB0BEE5DF3CE1D392DA80AA08C490E4E5" x="12.175999999999998" fill="#7c7f6a" fill-rule="nonzero"/>
                                                    <use xlink:href="#g194F33E9E8E32DA60F5731356CEE9B01" x="15.751999999999999" fill="#7c7f6a" fill-rule="nonzero"/>
                                                    <use xlink:href="#gD700849F026C9C7CFC274A634114D6A6" x="19.311999999999998" fill="#7c7f6a" fill-rule="nonzero"/>
                                                    <use xlink:href="#gB0BEE5DF3CE1D392DA80AA08C490E4E5" x="23.464" fill="#7c7f6a" fill-rule="nonzero"/>
                                                    <use xlink:href="#g47F8A8501E2A2CC7C13E46B65837D3DE" x="27.04" fill="#7c7f6a" fill-rule="nonzero"/>
                                                    <use xlink:href="#g47F8A8501E2A2CC7C13E46B65837D3DE" x="31.727999999999998" fill="#7c7f6a" fill-rule="nonzero"/>
                                                    <use xlink:href="#g769158AC9C3817CB326A7B286F20D958" x="36.416" fill="#7c7f6a" fill-rule="nonzero"/>
                                                    <use xlink:href="#gFF2613C5A506B406841109ED496E694E" x="42.208" fill="#7c7f6a" fill-rule="nonzero"/>
                                                </g>
                                            </g>
                                        </g>
                                    </g>
                                </g>
                            </g>
                        </g>
                    </g>
                    <g transform="translate(117.63779527559056 93.98930708661419)">
                        <path class="typst-shape" fill="none" d="M 0 0 L 51.576 0 L 51.576 7.136 L 0 7.136 L 0 0 Z "/>
                    </g>
                    <g transform="translate(117.6377952283465 93.98930697637797)">
                        <g class="typst-group">
                            <g>
                                <g transform="translate(0 0)">
                                    <g class="typst-group">
                                        <g>
                                            <g transform="translate(0 5.264)">
                                                <g class="typst-text" transform="scale(1, -1)">
                                                    <use xlink:href="#gE83CFA625FCC63C7BEF2A5CECBDD424B" x="0" fill="#7c7f6a" fill-rule="nonzero"/>
                                                    <use xlink:href="#g9245BC7E946A3100AB773736DD34119" x="4.688" fill="#7c7f6a" fill-rule="nonzero"/>
                                                    <use xlink:href="#g798F91F6371A97DF6CF163FA511661B1" x="8.719999999999999" fill="#7c7f6a" fill-rule="nonzero"/>
                                                    <use xlink:href="#g53709EE1E30F1D60B5B9598D0792A0F3" x="13.024" fill="#7c7f6a" fill-rule="nonzero"/>
                                                    <use xlink:href="#gB0BEE5DF3CE1D392DA80AA08C490E4E5" x="16.855999999999998" fill="#7c7f6a" fill-rule="nonzero"/>
                                                    <use xlink:href="#g194F33E9E8E32DA60F5731356CEE9B01" x="20.432" fill="#7c7f6a" fill-rule="nonzero"/>
                                                    <use xlink:href="#gD700849F026C9C7CFC274A634114D6A6" x="23.991999999999997" fill="#7c7f6a" fill-rule="nonzero"/>
                                                    <use xlink:href="#gB0BEE5DF3CE1D392DA80AA08C490E4E5" x="28.144" fill="#7c7f6a" fill-rule="nonzero"/>
                                                    <use xlink:href="#g47F8A8501E2A2CC7C13E46B65837D3DE" x="31.72" fill="#7c7f6a" fill-rule="nonzero"/>
                                                    <use xlink:href="#g47F8A8501E2A2CC7C13E46B65837D3DE" x="36.408" fill="#7c7f6a" fill-rule="nonzero"/>
                                                    <use xlink:href="#g769158AC9C3817CB326A7B286F20D958" x="41.096000000000004" fill="#7c7f6a" fill-rule="nonzero"/>
                                                    <use xlink:href="#gFF2613C5A506B406841109ED496E694E" x="46.888000000000005" fill="#7c7f6a" fill-rule="nonzero"/>
                                                </g>
                                            </g>
                                        </g>
                                    </g>
                                </g>
                            </g>
                        </g>
                    </g>
                    <g transform="translate(48.188976377952756 113.14785826771654)">
                        <path class="typst-shape" fill="none" stroke="#7c7f6a" stroke-width="0.6" stroke-linecap="butt" stroke-linejoin="miter" stroke-miterlimit="4" d="M 0 0 L 27.492056 0 "/>
                    </g>
                    <g transform="translate(75.6810325984252 111.02187401574805)">
                        <path class="typst-shape" fill="#7c7f6a" fill-rule="nonzero" stroke="#7c7f6a" stroke-width="0.6" stroke-linecap="butt" stroke-linejoin="miter" stroke-miterlimit="4" d="M 5.6692915 2.1259842 L 0 4.2519684 L 0 0 L 5.6692915 2.1259842 Z "/>
                    </g>
                    <g transform="translate(34.579850393700795 116.8769724409449)">
                        <path class="typst-shape" fill="none" d="M 0 0 L 61.234 0 L 61.234 6.715 L 0 6.715 L 0 0 Z "/>
                    </g>
                    <g transform="translate(34.579850314960645 116.87697240944883)">
                        <g class="typst-group">
                            <g>
                                <g transform="translate(0 0)">
                                    <g class="typst-group">
                                        <g>
                                            <g transform="translate(0 5.593)">
                                                <g class="typst-text" transform="scale(1, -1)">
                                                    <use xlink:href="#g82274318E6240C5E0BF2A21EFBC2EB2E" x="0" fill="#7c7f6a" fill-rule="nonzero"/>
                                                    <use xlink:href="#g24DF3F2EE2E624CD3C3E0D8734401C2F" x="4.573" fill="#7c7f6a" fill-rule="nonzero"/>
                                                    <use xlink:href="#g2B3CB50F3608D55CE6E2F9D5E890FC9" x="8.6445" fill="#7c7f6a" fill-rule="nonzero"/>
                                                    <use xlink:href="#gED49DE467B8011425DEC608765606522" x="13.6255" fill="#7c7f6a" fill-rule="nonzero"/>
                                                    <use xlink:href="#g912E70B32C675C293CF499EA32633B2E" x="19.6265" fill="#7c7f6a" fill-rule="nonzero"/>
                                                    <use xlink:href="#gA360C9C06E028763E23EC1E819BFE075" x="23.426000000000002" fill="#7c7f6a" fill-rule="nonzero"/>
                                                    <use xlink:href="#g2B3CB50F3608D55CE6E2F9D5E890FC9" x="28.407000000000004" fill="#7c7f6a" fill-rule="nonzero"/>
                                                    <use xlink:href="#g912E70B32C675C293CF499EA32633B2E" x="33.388000000000005" fill="#7c7f6a" fill-rule="nonzero"/>
                                                    <use xlink:href="#g82274318E6240C5E0BF2A21EFBC2EB2E" x="39.31250000000001" fill="#7c7f6a" fill-rule="nonzero"/>
                                                    <use xlink:href="#g97A0D2D9ACADBAB613312D6368770C27" x="43.88550000000001" fill="#7c7f6a" fill-rule="nonzero"/>
                                                    <use xlink:href="#gA360C9C06E028763E23EC1E819BFE075" x="50.099000000000004" fill="#7c7f6a" fill-rule="nonzero"/>
                                                    <use xlink:href="#g90A2FE29280D8ECE103B197C9BF91526" x="55.080000000000005" fill="#7c7f6a" fill-rule="nonzero"/>
                                                </g>
                                            </g>
                                        </g>
                                    </g>
                                </g>
                            </g>
                        </g>
                    </g>
                </g>
            </g>
        </g>
    </g>
    <defs id="glyph">
        <symbol id="g2DE200BEC81CA8326BA49B358FB666D8" overflow="visible">
            <path d="M 1.3139999 3.8609998 C 0.927 3.8609998 0.612 3.87 0.315 3.879 C 0.26099998 3.8249998 0.26099998 3.636 0.315 3.5819998 C 0.86399996 3.5459998 0.96299994 3.5099998 0.96299994 2.7629998 L 0.96299994 1.0979999 C 0.96299994 0.35099998 0.86399996 0.324 0.315 0.27899998 C 0.26099998 0.225 0.26099998 0.036 0.315 -0.018 C 0.612 -0.009 0.927 0 1.323 0 C 1.6559999 0 1.953 -0.018 2.556 -0.018 C 3.33 -0.018 3.9149997 0.19799998 3.9149997 1.089 C 3.9149997 1.5929999 3.6 1.9439999 3.0509999 2.043 L 3.0509999 2.07 C 3.465 2.151 3.7799997 2.439 3.7799997 2.9789999 C 3.7799997 3.6089997 3.393 3.879 2.304 3.879 C 1.935 3.879 1.701 3.8609998 1.3139999 3.8609998 Z M 1.6739999 1.953 L 2.3579998 1.953 C 2.9069998 1.953 3.1409998 1.5929999 3.1409998 1.053 C 3.1409998 0.45 2.7989998 0.27899998 2.313 0.27899998 C 1.8449999 0.27899998 1.6739999 0.35999998 1.6739999 0.774 Z M 1.6739999 2.214 L 1.6739999 3.258 C 1.6739999 3.5279999 1.8809999 3.5819998 2.313 3.5819998 C 2.781 3.5819998 3.06 3.4559999 3.06 2.916 C 3.06 2.556 2.826 2.214 2.268 2.214 Z "/>
        </symbol>
        <symbol id="g498D63BE9E74D36B5EA8ECFB42ED3CD9" overflow="visible">
            <path d="M 3.4739997 0.83699995 C 3.1409998 0.49499997 2.8799999 0.35099998 2.3579998 0.35099998 C 2.034 0.35099998 1.6559999 0.53999996 1.377 0.99899995 C 1.1969999 1.296 1.089 1.7099999 1.089 2.2319999 L 3.4829998 2.214 C 3.5909998 2.214 3.6539998 2.268 3.6539998 2.3669999 C 3.6539998 3.123 3.3839998 3.9329998 2.133 3.9329998 C 1.3499999 3.9329998 0.33299997 3.1859999 0.33299997 1.818 C 0.33299997 1.3139999 0.459 0.82799995 0.756 0.48599997 C 1.0619999 0.12599999 1.4849999 -0.089999996 2.133 -0.089999996 C 2.817 -0.089999996 3.303 0.225 3.6629999 0.69299996 C 3.636 0.783 3.5819998 0.82799995 3.4739997 0.83699995 Z M 1.1159999 2.5379999 C 1.287 3.5549998 1.9169999 3.636 2.133 3.636 C 2.475 3.636 2.8799999 3.4469998 2.8799999 2.691 C 2.8799999 2.61 2.8439999 2.5649998 2.745 2.5649998 Z "/>
        </symbol>
        <symbol id="gE5FBEC3A915E2D9534A37A1813D7F710" overflow="visible">
            <path d="M 1.6379999 1.0979999 C 1.6379999 0.35099998 1.5389999 0.306 0.98999995 0.27899998 C 0.936 0.225 0.936 0.036 0.98999995 -0.018 C 1.341 -0.009 1.701 0 1.9979999 0 C 2.304 0 2.655 -0.009 2.997 -0.018 C 3.0509999 0.036 3.0509999 0.225 2.997 0.27899998 C 2.448 0.306 2.349 0.35099998 2.349 1.0979999 L 2.349 3.5279999 L 2.5019999 3.5279999 C 3.231 3.5279999 3.3749998 3.2759998 3.5279999 2.547 C 3.6449997 2.547 3.7619998 2.583 3.7619998 2.583 C 3.708 2.997 3.672 3.393 3.6629999 3.9149997 C 3.4559999 3.8969998 2.781 3.8609998 2.3309999 3.8609998 L 1.6559999 3.8609998 C 1.206 3.8609998 0.70199996 3.8879998 0.34199998 3.9149997 C 0.33299997 3.393 0.297 2.997 0.234 2.583 C 0.234 2.583 0.35999998 2.547 0.47699997 2.547 C 0.63 3.2759998 0.765 3.5279999 1.5029999 3.5279999 L 1.6379999 3.5279999 Z "/>
        </symbol>
        <symbol id="gE0CE25E2EA5F586FD4885AC3CABC8923" overflow="visible">
            <path d="M 1.4039999 3.3119998 C 1.395 3.5819998 1.377 3.8159997 1.3319999 3.906 C 1.3139999 3.9509997 1.296 3.978 1.224 3.978 C 0.97199994 3.879 0.738 3.7979999 0.117 3.7169998 C 0.09899999 3.6629999 0.117 3.5189998 0.13499999 3.465 C 0.621 3.4199998 0.71999997 3.3749998 0.71999997 2.853 L 0.71999997 -0.98999995 C 0.71999997 -1.7369999 0.621 -1.782 0.072 -1.8089999 C 0.018 -1.8629999 0.018 -2.0519998 0.072 -2.106 C 0.387 -2.097 0.71999997 -2.0879998 1.0799999 -2.0879998 C 1.4399999 -2.0879998 1.872 -2.097 2.169 -2.106 C 2.2229998 -2.0519998 2.2229998 -1.8629999 2.169 -1.8089999 C 1.53 -1.7729999 1.431 -1.7369999 1.431 -0.98999995 L 1.431 -0.018 C 1.431 0.09899999 1.4669999 0.089999996 1.5569999 0.053999998 C 1.782 -0.036 2.0519998 -0.089999996 2.34 -0.089999996 C 2.8439999 -0.089999996 3.294 0.06299999 3.6629999 0.41399997 C 4.086 0.82799995 4.329 1.3859999 4.329 2.115 C 4.329 3.0689998 3.6539998 3.9509997 2.7359998 3.9509997 C 2.3219998 3.9509997 1.8629999 3.6809998 1.5029999 3.2759998 C 1.4489999 3.222 1.413 3.222 1.4039999 3.3119998 Z M 1.5749999 2.9789999 C 1.8089999 3.267 2.2229998 3.537 2.484 3.537 C 3.06 3.537 3.5549998 2.889 3.5549998 1.872 C 3.5549998 1.134 3.294 0.21599999 2.286 0.21599999 C 2.1239998 0.21599999 1.8089999 0.26099998 1.647 0.40499997 C 1.4669999 0.567 1.431 0.621 1.431 0.94499993 L 1.431 2.583 C 1.431 2.7719998 1.4669999 2.853 1.5749999 2.9789999 Z "/>
        </symbol>
        <symbol id="gCC44E3018C12824B77604A74EA2543EF" overflow="visible">
            <path d="M 3.7145002 3.6465 L 1.3005 3.6465 C 0.96050006 3.6465 0.63750005 3.6550002 0.38250002 3.6635003 C 0.33150002 3.6125002 0.33150002 3.4340003 0.38250002 3.3830001 C 0.85 3.3490002 0.96050006 3.3065002 0.96050006 2.6095002 L 0.96050006 1.0370001 C 0.96050006 0.34000003 0.85 0.2975 0.2975 0.2635 C 0.24650002 0.2125 0.24650002 0.034 0.2975 -0.017 C 0.5525 -0.0085 0.96050006 0 1.3005 0 C 1.6405001 0 1.8955001 -0.0085 2.1505 -0.017 C 2.2015002 0.034 2.2015002 0.2125 2.1505 0.2635 C 1.7170001 0.30600002 1.6320001 0.34000003 1.6320001 1.0370001 L 1.6320001 2.8815002 C 1.6320001 3.1450002 1.6575001 3.3150003 1.9890001 3.3150003 L 3.0175002 3.3150003 C 3.3320003 3.3150003 3.3830001 3.2215002 3.3830001 2.8815002 L 3.3830001 1.0370001 C 3.3830001 0.34000003 3.298 0.2975 2.8560002 0.2635 C 2.8135002 0.2125 2.8135002 0.034 2.8560002 -0.017 C 3.0685003 -0.0085 3.3830001 0 3.7230003 0 C 4.063 0 4.4455004 -0.0085 4.6835003 -0.017 C 4.7260003 0.034 4.7260003 0.2125 4.6835003 0.2635 C 4.131 0.2975 4.0545 0.34000003 4.0545 1.0370001 L 4.0545 2.6095002 C 4.0545 3.3065002 4.1650004 3.3490002 4.6325 3.3830001 C 4.6835003 3.4340003 4.6835003 3.6125002 4.6325 3.6635003 C 4.3775 3.6550002 4.0545 3.6465 3.7145002 3.6465 Z "/>
        </symbol>
        <symbol id="g7B65F5ADA22BABA3490471E647BCA46D" overflow="visible">
            <path d="M 0.3485 1.7425001 C 0.3485 0.8755 0.9265 -0.08500001 2.1335 -0.08500001 C 2.6775002 -0.08500001 3.094 0.11050001 3.3830001 0.39100003 C 3.7655003 0.76500005 3.9355001 1.3005 3.9355001 1.8190001 C 3.9355001 2.703 3.4510002 3.7315001 2.1505 3.7315001 C 1.5895001 3.7315001 1.1305001 3.502 0.81600004 3.1365001 C 0.51000005 2.7710001 0.3485 2.278 0.3485 1.7425001 Z M 2.023 3.4340003 C 2.7540002 3.4340003 3.2045002 2.7710001 3.2045002 1.547 C 3.2045002 0.476 2.6520002 0.2125 2.2525 0.2125 C 1.3685001 0.2125 1.0795001 1.2835001 1.0795001 1.9380001 C 1.0795001 2.6775002 1.258 3.4340003 2.023 3.4340003 Z "/>
        </symbol>
        <symbol id="g178BFCCBA40A1D1ECF064B49E891B73E" overflow="visible">
            <path d="M 3.5530002 1.0370001 L 3.5530002 2.6095002 C 3.5530002 3.3065002 3.6635003 3.3490002 4.131 3.3830001 C 4.182 3.4340003 4.182 3.6125002 4.131 3.6635003 C 3.8760002 3.6550002 3.5530002 3.6465 3.213 3.6465 L 1.6065 3.6465 C 1.3260001 3.6465 0.99450004 3.6550002 0.73950005 3.6635003 C 0.68850005 3.6125002 0.68850005 3.4340003 0.73950005 3.3830001 C 1.343 3.3405 1.4280001 3.2895002 1.4280001 2.3715 C 1.4280001 1.4790001 1.3600001 1.0115 1.241 0.66300005 C 1.1305001 0.35700002 0.98600006 0.24650002 0.84150004 0.24650002 C 0.73100007 0.24650002 0.697 0.3145 0.68000007 0.425 C 0.6545 0.58650005 0.6035 0.748 0.36550003 0.748 C 0.15300001 0.748 0.034 0.578 0.034 0.39100003 C 0.034 0.12750001 0.272 -0.102000006 0.66300005 -0.102000006 C 1.0965 -0.102000006 1.3345001 0.119 1.5300001 0.578 C 1.7 0.98600006 1.751 1.853 1.751 2.4310002 C 1.751 3.094 1.7765001 3.3150003 2.1165001 3.3150003 L 2.499 3.3150003 C 2.8220003 3.3150003 2.8815002 3.111 2.8815002 2.8220003 L 2.8815002 1.0370001 C 2.8815002 0.34000003 2.7965002 0.2975 2.3545 0.2635 C 2.312 0.2125 2.312 0.034 2.3545 -0.017 C 2.5670002 -0.0085 2.8815002 0 3.2215002 0 C 3.5615003 0 3.9440002 -0.0085 4.182 -0.017 C 4.2245 0.034 4.2245 0.2125 4.182 0.2635 C 3.6295002 0.2975 3.5530002 0.34000003 3.5530002 1.0370001 Z "/>
        </symbol>
        <symbol id="g874341D91B61E3A5F3DDD51C8B27D638" overflow="visible">
            <path d="M 1.5810001 2.6095002 C 1.5810001 3.094 1.6405001 3.3150003 1.9380001 3.3150003 L 2.125 3.3150003 C 2.8220003 3.3150003 3.0260003 2.8305001 3.1450002 2.3375 C 3.2385 2.3290002 3.3235002 2.3375 3.3915002 2.3715 C 3.3575 2.8220003 3.3320003 3.196 3.2810001 3.6465 L 3.2640002 3.6635003 C 3.2640002 3.6635003 2.584 3.6465 2.312 3.6465 L 1.241 3.6465 C 0.8755 3.6465 0.578 3.6550002 0.2975 3.6635003 C 0.24650002 3.6125002 0.24650002 3.4340003 0.2975 3.3830001 C 0.81600004 3.3490002 0.90950006 3.3150003 0.90950006 2.6095002 L 0.90950006 1.0370001 C 0.90950006 0.33150002 0.81600004 0.30600002 0.2975 0.2635 C 0.24650002 0.2125 0.24650002 0.034 0.2975 -0.017 C 0.578 -0.0085 0.8755 0 1.2495 0 C 1.6150001 0 1.9210001 -0.0085 2.193 -0.017 C 2.2440002 0.034 2.2440002 0.2125 2.193 0.2635 C 1.6745001 0.2975 1.5810001 0.33150002 1.5810001 1.0370001 Z "/>
        </symbol>
        <symbol id="g2B3CB50F3608D55CE6E2F9D5E890FC9" overflow="visible">
            <path d="M 1.6830001 0.53550005 C 1.6575001 0.53550005 1.6235001 0.5525 1.6235001 0.63750005 L 1.6235001 2.5755002 C 1.6235001 3.2810001 1.802 3.3575 2.2355 3.3830001 C 2.2865002 3.4340003 2.2865002 3.6125002 2.2355 3.6635003 C 2.0400002 3.6550002 1.5555 3.6465 1.241 3.6465 C 0.96050006 3.6465 0.6205 3.6550002 0.2975 3.6635003 C 0.24650002 3.6125002 0.24650002 3.4340003 0.2975 3.3830001 C 0.81600004 3.3575 0.952 3.2810001 0.952 2.5755002 L 0.952 1.0710001 C 0.952 0.36550003 0.81600004 0.289 0.2975 0.2635 C 0.24650002 0.2125 0.24650002 0.034 0.2975 -0.017 C 0.629 -0.0085 0.96900004 0 1.241 0 C 1.4365001 0 1.6660001 -0.0085 1.7595001 -0.017 C 1.802 0.102000006 1.8785001 0.272 1.9720001 0.44200003 L 3.298 3.1025002 C 3.3235002 3.1025002 3.3575 3.0855002 3.3575 3.0005002 L 3.3575 1.0710001 C 3.3575 0.36550003 3.1790001 0.289 2.7455 0.2635 C 2.6945002 0.2125 2.6945002 0.034 2.7455 -0.017 C 2.9410002 -0.0085 3.4 0 3.7400002 0 C 4.0035 0 4.352 -0.0085 4.6835003 -0.017 C 4.7345004 0.034 4.7345004 0.2125 4.6835003 0.2635 C 4.1650004 0.289 4.0290003 0.36550003 4.0290003 1.0710001 L 4.0290003 2.5755002 C 4.0290003 3.2810001 4.1650004 3.3575 4.6835003 3.3830001 C 4.7345004 3.4340003 4.7345004 3.6125002 4.6835003 3.6635003 C 4.3435 3.6550002 4.0035 3.6465 3.7400002 3.6465 C 3.5530002 3.6465 3.3150003 3.6550002 3.2300003 3.6635003 C 3.1620002 3.5105002 3.0855002 3.3320003 3.009 3.1875002 Z "/>
        </symbol>
        <symbol id="gBE39596899519F76C95A6EBFE5B226E9" overflow="visible">
            <path d="M 1.6830001 0.53550005 C 1.6575001 0.53550005 1.6235001 0.5525 1.6235001 0.63750005 L 1.6235001 2.5755002 C 1.6235001 3.2810001 1.802 3.3575 2.2355 3.3830001 C 2.2865002 3.4340003 2.2865002 3.6125002 2.2355 3.6635003 C 2.0400002 3.6550002 1.5555 3.6465 1.241 3.6465 C 0.96050006 3.6465 0.6205 3.6550002 0.2975 3.6635003 C 0.24650002 3.6125002 0.24650002 3.4340003 0.2975 3.3830001 C 0.81600004 3.3575 0.952 3.2810001 0.952 2.5755002 L 0.952 1.0710001 C 0.952 0.36550003 0.81600004 0.289 0.2975 0.2635 C 0.24650002 0.2125 0.24650002 0.034 0.2975 -0.017 C 0.629 -0.0085 0.96900004 0 1.241 0 C 1.4365001 0 1.6660001 -0.0085 1.7595001 -0.017 C 1.802 0.102000006 1.8785001 0.272 1.9720001 0.44200003 L 3.298 3.1025002 C 3.3235002 3.1025002 3.3575 3.0855002 3.3575 3.0005002 L 3.3575 1.0710001 C 3.3575 0.36550003 3.1790001 0.289 2.7455 0.2635 C 2.6945002 0.2125 2.6945002 0.034 2.7455 -0.017 C 2.9410002 -0.0085 3.4 0 3.7400002 0 C 4.0035 0 4.352 -0.0085 4.6835003 -0.017 C 4.7345004 0.034 4.7345004 0.2125 4.6835003 0.2635 C 4.1650004 0.289 4.0290003 0.36550003 4.0290003 1.0710001 L 4.0290003 2.5755002 C 4.0290003 3.2810001 4.1650004 3.3575 4.6835003 3.3830001 C 4.7345004 3.4340003 4.7345004 3.6125002 4.6835003 3.6635003 C 4.3435 3.6550002 4.0035 3.6465 3.7400002 3.6465 C 3.5530002 3.6465 3.3150003 3.6550002 3.2300003 3.6635003 C 3.1620002 3.5105002 3.0855002 3.3320003 3.009 3.1875002 Z M 3.5105002 5.0150003 C 3.5105002 5.1765003 3.3915002 5.2955003 3.1875002 5.2955003 C 3.0345001 5.2955003 2.89 5.1765003 2.89 5.032 C 2.89 5.0065002 2.89 4.9895 2.8985002 4.9725003 C 2.907 4.9470005 2.907 4.9215 2.907 4.8960004 C 2.907 4.709 2.7285001 4.539 2.482 4.539 C 2.2270002 4.539 2.0570002 4.7175 2.0570002 4.9045005 C 2.0570002 4.9215 2.0570002 4.9470005 2.0655 4.9725003 C 2.0740001 4.998 2.0740001 5.0150003 2.0740001 5.0405 C 2.0740001 5.1765003 1.9720001 5.2955003 1.7850001 5.2955003 C 1.5895001 5.2955003 1.4535 5.168 1.4535 5.0150003 C 1.4535 4.556 1.9210001 4.2755003 2.4735003 4.2755003 C 3.0175002 4.2755003 3.5105002 4.5475 3.5105002 5.0150003 Z "/>
        </symbol>
        <symbol id="g8DEB4C82434AA99D93E3D9A148F90BA2" overflow="visible">
            <path d="M 3.2810001 0 C 3.2810001 0 3.9440002 -0.0085 4.1140003 -0.017 C 4.1650004 0.034 4.1650004 0.2125 4.1140003 0.2635 C 3.7825003 0.28050002 3.7145002 0.3485 3.5700002 0.6205 L 3.1875002 1.343 C 2.9750001 1.7425001 2.6775002 1.9465001 2.193 1.9465001 L 2.193 1.9720001 C 2.5245001 2.0655 2.6690001 2.3630002 2.7965002 2.703 C 2.8985002 2.9665 3.0005002 3.1280003 3.1790001 3.1280003 C 3.2555 3.1280003 3.3235002 3.1025002 3.3745003 3.0685003 C 3.4255002 3.0345001 3.5190003 3.009 3.6295002 3.009 C 3.8165002 3.009 3.9695003 3.1705003 3.9695003 3.3405 C 3.9695003 3.5275002 3.7655003 3.7230003 3.4850001 3.7230003 C 2.992 3.7230003 2.7625 3.2640002 2.601 2.8645 C 2.414 2.397 2.1845002 2.0740001 1.5810001 2.0740001 L 1.5810001 2.6095002 C 1.5810001 3.3150003 1.6745001 3.3405 2.108 3.3830001 C 2.1590002 3.4340003 2.1590002 3.6125002 2.108 3.6635003 C 1.904 3.6550002 1.5810001 3.6465 1.241 3.6465 C 0.8755 3.6465 0.578 3.6550002 0.2975 3.6635003 C 0.24650002 3.6125002 0.24650002 3.4340003 0.2975 3.3830001 C 0.81600004 3.3490002 0.90950006 3.3150003 0.90950006 2.6095002 L 0.90950006 1.0370001 C 0.90950006 0.33150002 0.81600004 0.30600002 0.2975 0.2635 C 0.24650002 0.2125 0.24650002 0.034 0.2975 -0.017 C 0.578 -0.0085 0.8755 0 1.2495 0 C 1.5810001 0 1.9210001 -0.0085 2.108 -0.017 C 2.1590002 0.034 2.1590002 0.2125 2.108 0.2635 C 1.6745001 0.2975 1.5810001 0.33150002 1.5810001 1.0370001 L 1.5810001 1.7765001 C 2.1590002 1.7425001 2.312 1.5130001 2.4650002 1.1985 L 2.8305001 0.43350002 C 2.9410002 0.20400001 3.111 0.0085 3.2810001 0 Z "/>
        </symbol>
        <symbol id="g7838C22865692FD652C179671D7E75AB" overflow="visible">
            <path d="M 1.3260001 3.1280003 C 1.3175001 3.3830001 1.3005 3.604 1.258 3.6890001 C 1.241 3.7315001 1.2240001 3.7570002 1.156 3.7570002 C 0.91800004 3.6635003 0.697 3.5870001 0.11050001 3.5105002 C 0.0935 3.4595 0.11050001 3.3235002 0.12750001 3.2725003 C 0.58650005 3.2300003 0.68000007 3.1875002 0.68000007 2.6945002 L 0.68000007 -0.93500006 C 0.68000007 -1.6405001 0.58650005 -1.6830001 0.068 -1.7085001 C 0.017 -1.7595001 0.017 -1.9380001 0.068 -1.9890001 C 0.36550003 -1.9805001 0.68000007 -1.9720001 1.0200001 -1.9720001 C 1.3600001 -1.9720001 1.7680001 -1.9805001 2.0485 -1.9890001 C 2.0995002 -1.9380001 2.0995002 -1.7595001 2.0485 -1.7085001 C 1.445 -1.6745001 1.3515 -1.6405001 1.3515 -0.93500006 L 1.3515 -0.017 C 1.3515 0.0935 1.3855001 0.08500001 1.4705001 0.051000003 C 1.6830001 -0.034 1.9380001 -0.08500001 2.21 -0.08500001 C 2.686 -0.08500001 3.111 0.0595 3.4595 0.39100003 C 3.8590002 0.78200006 4.0885 1.309 4.0885 1.9975001 C 4.0885 2.8985002 3.4510002 3.7315001 2.584 3.7315001 C 2.193 3.7315001 1.7595001 3.4765003 1.4195001 3.094 C 1.3685001 3.0430002 1.3345001 3.0430002 1.3260001 3.1280003 Z M 1.4875001 2.8135002 C 1.7085001 3.0855002 2.0995002 3.3405 2.3460002 3.3405 C 2.89 3.3405 3.3575 2.7285001 3.3575 1.7680001 C 3.3575 1.0710001 3.111 0.20400001 2.1590002 0.20400001 C 2.006 0.20400001 1.7085001 0.24650002 1.5555 0.38250002 C 1.3855001 0.53550005 1.3515 0.58650005 1.3515 0.89250004 L 1.3515 2.4395 C 1.3515 2.618 1.3855001 2.6945002 1.4875001 2.8135002 Z "/>
        </symbol>
        <symbol id="g362654FC7035CD84AB425C9F0CB42F3A" overflow="visible">
            <path d="M 1.7340001 -1.3600001 C 1.8700001 -1.1220001 1.9805001 -0.88400006 2.0825002 -0.629 C 2.7625 1.0115 3.1450002 1.8870001 3.5870001 2.8390002 C 3.7570002 3.196 3.8760002 3.3320003 4.2755003 3.3830001 C 4.3265004 3.4340003 4.3265004 3.6125002 4.2755003 3.6635003 C 4.1055 3.6550002 3.9100003 3.6465 3.6720002 3.6465 C 3.4170003 3.6465 3.1535 3.6550002 2.8985002 3.6635003 C 2.8475 3.6125002 2.8475 3.4340003 2.8985002 3.3830001 C 3.1705003 3.3575 3.4425 3.3065002 3.3065002 3.0005002 L 2.4650002 1.054 C 2.4055002 0.91800004 2.3290002 0.89250004 2.2610002 1.0625 L 1.5045 2.8305001 C 1.3515 3.1875002 1.309 3.3490002 1.7850001 3.3830001 C 1.8360001 3.4340003 1.8360001 3.6125002 1.7850001 3.6635003 C 1.4705001 3.6550002 1.1305001 3.6465 0.8245 3.6465 C 0.53550005 3.6465 0.30600002 3.6550002 0.136 3.6635003 C 0.08500001 3.6125002 0.08500001 3.4340003 0.136 3.3830001 C 0.476 3.3405 0.58650005 3.2640002 0.80750006 2.7455 L 1.7680001 0.51000005 C 1.8445001 0.34000003 1.9720001 -0.051000003 1.8870001 -0.289 C 1.7850001 -0.5695 1.6830001 -0.80750006 1.5555 -1.0710001 C 1.4620001 -1.241 1.343 -1.3175001 1.1305001 -1.3175001 C 1.0115 -1.3175001 0.9775001 -1.292 0.88400006 -1.292 C 0.63750005 -1.292 0.51000005 -1.547 0.51000005 -1.6575001 C 0.51000005 -1.8360001 0.68000007 -1.9720001 0.90950006 -1.9720001 C 1.088 -1.9720001 1.4280001 -1.904 1.7340001 -1.3600001 Z "/>
        </symbol>
        <symbol id="g390697BCD366D8FDF721159B1F9B0D38" overflow="visible">
            <path d="M 1.547 1.0370001 C 1.547 0.33150002 1.4535 0.289 0.93500006 0.2635 C 0.88400006 0.2125 0.88400006 0.034 0.93500006 -0.017 C 1.2665001 -0.0085 1.6065 0 1.8870001 0 C 2.176 0 2.5075002 -0.0085 2.8305001 -0.017 C 2.8815002 0.034 2.8815002 0.2125 2.8305001 0.2635 C 2.312 0.289 2.2185001 0.33150002 2.2185001 1.0370001 L 2.2185001 3.3320003 L 2.3630002 3.3320003 C 3.0515 3.3320003 3.1875002 3.094 3.3320003 2.4055002 C 3.4425 2.4055002 3.5530002 2.4395 3.5530002 2.4395 C 3.502 2.8305001 3.4680002 3.2045002 3.4595 3.6975002 C 3.2640002 3.6805003 2.6265001 3.6465 2.2015002 3.6465 L 1.5640001 3.6465 C 1.139 3.6465 0.66300005 3.6720002 0.323 3.6975002 C 0.3145 3.2045002 0.28050002 2.8305001 0.22100002 2.4395 C 0.22100002 2.4395 0.34000003 2.4055002 0.4505 2.4055002 C 0.595 3.094 0.7225 3.3320003 1.4195001 3.3320003 L 1.547 3.3320003 Z "/>
        </symbol>
        <symbol id="g47F8A8501E2A2CC7C13E46B65837D3DE" overflow="visible">
            <path d="M 3.8320003 2.456 C 3.8320003 3.1200001 3.92 3.144 4.408 3.1840003 C 4.4560003 3.232 4.4560003 3.4 4.408 3.4480002 C 4.1280003 3.4320002 3.7760003 3.4320002 3.512 3.4320002 C 3.288 3.4320002 2.9680002 3.44 2.6560001 3.4480002 C 2.608 3.4 2.608 3.232 2.6560001 3.1840003 C 3.144 3.1520002 3.2 3.1200001 3.2 2.456 L 3.2 1.9360001 L 1.488 1.9360001 L 1.488 2.456 C 1.488 3.1200001 1.544 3.144 2.032 3.1840003 C 2.0800002 3.232 2.0800002 3.4 2.032 3.4480002 C 1.728 3.44 1.424 3.4320002 1.1680001 3.4320002 C 0.92800003 3.4320002 0.6 3.44 0.28 3.4480002 C 0.23200001 3.4 0.23200001 3.232 0.28 3.1840003 C 0.768 3.1520002 0.85600007 3.1200001 0.85600007 2.456 L 0.85600007 0.9760001 C 0.85600007 0.312 0.768 0.28800002 0.28 0.24800001 C 0.23200001 0.2 0.23200001 0.032 0.28 -0.016 C 0.6 -0.008 0.92 0 1.176 0 C 1.432 0 1.7440001 -0.008 2.032 -0.016 C 2.0800002 0.032 2.0800002 0.2 2.032 0.24800001 C 1.544 0.28 1.488 0.312 1.488 0.9760001 L 1.488 1.672 L 3.2 1.672 L 3.2 0.9760001 C 3.2 0.312 3.144 0.28800002 2.6560001 0.24800001 C 2.608 0.2 2.608 0.032 2.6560001 -0.016 C 2.9440002 -0.008 3.2400002 0 3.5200002 0 C 3.7600002 0 4.096 -0.008 4.408 -0.016 C 4.4560003 0.032 4.4560003 0.2 4.408 0.24800001 C 3.92 0.28 3.8320003 0.312 3.8320003 0.9760001 Z "/>
        </symbol>
        <symbol id="g472EE45C71CBD8604D6782570CA62DC2" overflow="visible">
            <path d="M 2.344 0.384 C 2.3920002 0.136 2.48 -0.080000006 2.88 -0.080000006 C 3.1840003 -0.080000006 3.4720001 0.056 3.64 0.216 C 3.624 0.312 3.5920002 0.384 3.5040002 0.432 C 3.4480002 0.384 3.3120003 0.30400002 3.2080002 0.30400002 C 2.976 0.30400002 2.9680002 0.61600006 2.9680002 0.984 L 2.9680002 2.16 C 2.9680002 3.2960002 2.344 3.512 1.7600001 3.512 C 1.1040001 3.512 0.44000003 3.0800002 0.44000003 2.624 C 0.44000003 2.4320002 0.536 2.3360002 0.72 2.3360002 C 0.952 2.3360002 1.0960001 2.5040002 1.0960001 2.608 C 1.0960001 2.664 1.088 2.72 1.072 2.752 C 1.064 2.776 1.056 2.8240001 1.056 2.9120002 C 1.056 3.16 1.3920001 3.2480001 1.6960001 3.2480001 C 1.968 3.2480001 2.344 3.1120002 2.344 2.2080002 C 2.344 2.1520002 2.3200002 2.1200001 2.296 2.112 L 1.608 1.9440001 C 0.84000003 1.7520001 0.28800002 1.3280001 0.28800002 0.78400004 C 0.28800002 0.128 0.73600006 -0.080000006 1.296 -0.080000006 C 1.5760001 -0.080000006 1.8160001 -0.016 2.1680002 0.256 L 2.328 0.384 Z M 2.344 1.8640001 L 2.344 0.808 C 2.344 0.70400006 2.296 0.648 2.232 0.6 C 2.0240002 0.432 1.7520001 0.24800001 1.5280001 0.24800001 C 1.128 0.24800001 0.952 0.568 0.952 0.81600004 C 0.952 1.176 1.12 1.544 1.7120001 1.6960001 Z "/>
        </symbol>
        <symbol id="g53709EE1E30F1D60B5B9598D0792A0F3" overflow="visible">
            <path d="M 1.1680001 3.4320002 C 0.82400006 3.4320002 0.544 3.44 0.28 3.4480002 C 0.23200001 3.4 0.23200001 3.232 0.28 3.1840003 C 0.768 3.1520002 0.85600007 3.1200001 0.85600007 2.456 L 0.85600007 0.9760001 C 0.85600007 0.312 0.768 0.28800002 0.28 0.24800001 C 0.23200001 0.2 0.23200001 0.032 0.28 -0.016 C 0.544 -0.008 0.82400006 0 1.176 0 C 1.4720001 0 1.7360001 -0.016 2.272 -0.016 C 2.96 -0.016 3.4800003 0.17600001 3.4800003 0.96800005 C 3.4800003 1.416 3.2 1.728 2.7120001 1.8160001 L 2.7120001 1.84 C 3.0800002 1.9120001 3.3600001 2.1680002 3.3600001 2.6480002 C 3.3600001 3.2080002 3.016 3.4480002 2.048 3.4480002 C 1.72 3.4480002 1.5120001 3.4320002 1.1680001 3.4320002 Z M 1.488 1.7360001 L 2.0960002 1.7360001 C 2.584 1.7360001 2.792 1.416 2.792 0.93600005 C 2.792 0.4 2.4880002 0.24800001 2.056 0.24800001 C 1.6400001 0.24800001 1.488 0.32000002 1.488 0.688 Z M 1.488 1.968 L 1.488 2.8960001 C 1.488 3.1360002 1.672 3.1840003 2.056 3.1840003 C 2.4720001 3.1840003 2.72 3.072 2.72 2.592 C 2.72 2.272 2.512 1.968 2.016 1.968 Z "/>
        </symbol>
        <symbol id="gB0BEE5DF3CE1D392DA80AA08C490E4E5" overflow="visible">
            <path d="M 3.088 0.744 C 2.792 0.44000003 2.5600002 0.312 2.0960002 0.312 C 1.8080001 0.312 1.4720001 0.48000002 1.2240001 0.8880001 C 1.064 1.1520001 0.96800005 1.5200001 0.96800005 1.9840001 L 3.0960002 1.968 C 3.1920002 1.968 3.2480001 2.016 3.2480001 2.104 C 3.2480001 2.776 3.0080001 3.496 1.8960001 3.496 C 1.2 3.496 0.296 2.832 0.296 1.616 C 0.296 1.1680001 0.40800002 0.73600006 0.67200005 0.432 C 0.94400007 0.112 1.32 -0.080000006 1.8960001 -0.080000006 C 2.5040002 -0.080000006 2.936 0.2 3.256 0.61600006 C 3.232 0.69600004 3.1840003 0.73600006 3.088 0.744 Z M 0.99200004 2.256 C 1.144 3.16 1.7040001 3.232 1.8960001 3.232 C 2.2 3.232 2.5600002 3.0640001 2.5600002 2.3920002 C 2.5600002 2.3200002 2.528 2.2800002 2.44 2.2800002 Z "/>
        </symbol>
        <symbol id="g194F33E9E8E32DA60F5731356CEE9B01" overflow="visible">
            <path d="M 1.4560001 0.9760001 C 1.4560001 0.312 1.368 0.272 0.88000005 0.24800001 C 0.832 0.2 0.832 0.032 0.88000005 -0.016 C 1.192 -0.008 1.5120001 0 1.7760001 0 C 2.048 0 2.3600001 -0.008 2.664 -0.016 C 2.7120001 0.032 2.7120001 0.2 2.664 0.24800001 C 2.176 0.272 2.088 0.312 2.088 0.9760001 L 2.088 3.1360002 L 2.2240002 3.1360002 C 2.8720002 3.1360002 3.0000002 2.9120002 3.1360002 2.2640002 C 3.2400002 2.2640002 3.344 2.296 3.344 2.296 C 3.2960002 2.664 3.2640002 3.016 3.256 3.4800003 C 3.072 3.4640002 2.4720001 3.4320002 2.072 3.4320002 L 1.4720001 3.4320002 C 1.072 3.4320002 0.624 3.456 0.30400002 3.4800003 C 0.296 3.016 0.264 2.664 0.208 2.296 C 0.208 2.296 0.32000002 2.2640002 0.42400002 2.2640002 C 0.56 2.9120002 0.68 3.1360002 1.3360001 3.1360002 L 1.4560001 3.1360002 Z "/>
        </symbol>
        <symbol id="gD700849F026C9C7CFC274A634114D6A6" overflow="visible">
            <path d="M 1.248 2.9440002 C 1.24 3.1840003 1.2240001 3.3920002 1.184 3.4720001 C 1.1680001 3.512 1.1520001 3.5360003 1.088 3.5360003 C 0.864 3.4480002 0.656 3.3760002 0.104 3.3040001 C 0.08800001 3.256 0.104 3.1280003 0.120000005 3.0800002 C 0.55200005 3.0400002 0.64000005 3.0000002 0.64000005 2.536 L 0.64000005 -0.88000005 C 0.64000005 -1.544 0.55200005 -1.5840001 0.064 -1.608 C 0.016 -1.6560001 0.016 -1.8240001 0.064 -1.8720001 C 0.344 -1.8640001 0.64000005 -1.8560001 0.96000004 -1.8560001 C 1.2800001 -1.8560001 1.664 -1.8640001 1.9280001 -1.8720001 C 1.9760001 -1.8240001 1.9760001 -1.6560001 1.9280001 -1.608 C 1.36 -1.5760001 1.2720001 -1.544 1.2720001 -0.88000005 L 1.2720001 -0.016 C 1.2720001 0.08800001 1.304 0.080000006 1.3840001 0.048 C 1.5840001 -0.032 1.8240001 -0.080000006 2.0800002 -0.080000006 C 2.528 -0.080000006 2.9280002 0.056 3.256 0.36800003 C 3.6320002 0.73600006 3.8480003 1.2320001 3.8480003 1.8800001 C 3.8480003 2.7280002 3.2480001 3.512 2.4320002 3.512 C 2.0640001 3.512 1.6560001 3.272 1.3360001 2.9120002 C 1.2880001 2.864 1.256 2.864 1.248 2.9440002 Z M 1.4000001 2.6480002 C 1.608 2.904 1.9760001 3.144 2.2080002 3.144 C 2.72 3.144 3.16 2.568 3.16 1.664 C 3.16 1.008 2.9280002 0.192 2.032 0.192 C 1.8880001 0.192 1.608 0.23200001 1.4640001 0.36 C 1.304 0.504 1.2720001 0.55200005 1.2720001 0.84000003 L 1.2720001 2.296 C 1.2720001 2.4640002 1.304 2.536 1.4000001 2.6480002 Z "/>
        </symbol>
        <symbol id="g769158AC9C3817CB326A7B286F20D958" overflow="visible">
            <path d="M 1.488 2.4480002 C 1.488 3.1200001 1.5760001 3.144 2.0640001 3.1840003 C 2.112 3.232 2.112 3.4 2.0640001 3.4480002 C 1.792 3.44 1.5200001 3.4320002 1.1680001 3.4320002 C 0.82400006 3.4320002 0.544 3.44 0.28 3.4480002 C 0.23200001 3.4 0.23200001 3.232 0.28 3.1840003 C 0.768 3.1520002 0.85600007 3.1200001 0.85600007 2.456 L 0.85600007 0.9760001 C 0.85600007 0.312 0.768 0.28800002 0.28 0.24800001 C 0.23200001 0.2 0.23200001 0.032 0.28 -0.016 C 0.544 -0.008 0.82400006 0 1.176 0 C 1.5040001 0 1.6800001 -0.016 2.0080001 -0.016 C 2.992 -0.016 3.528 0.23200001 3.528 1.088 C 3.528 1.84 2.8720002 2.056 2.0640001 2.056 L 1.488 2.056 Z M 4.9360003 2.456 C 4.9360003 3.1200001 5.024 3.144 5.512 3.1840003 C 5.5600004 3.232 5.5600004 3.4 5.512 3.4480002 C 5.2400002 3.44 4.9680004 3.4320002 4.616 3.4320002 C 4.2720003 3.4320002 3.992 3.44 3.7280002 3.4480002 C 3.68 3.4 3.68 3.232 3.7280002 3.1840003 C 4.216 3.1520002 4.3040004 3.1200001 4.3040004 2.456 L 4.3040004 0.9760001 C 4.3040004 0.312 4.216 0.28800002 3.7280002 0.24800001 C 3.68 0.2 3.68 0.032 3.7280002 -0.016 C 3.992 -0.008 4.2720003 0 4.624 0 C 4.9680004 0 5.256 -0.008 5.512 -0.016 C 5.5600004 0.032 5.5600004 0.2 5.512 0.24800001 C 5.024 0.28 4.9360003 0.312 4.9360003 0.9760001 Z M 2.8400002 1.008 C 2.8400002 0.35200003 2.44 0.24800001 2.016 0.24800001 C 1.6240001 0.24800001 1.488 0.328 1.488 0.60800004 L 1.488 1.792 L 2.056 1.792 C 2.6560001 1.792 2.8400002 1.432 2.8400002 1.008 Z "/>
        </symbol>
        <symbol id="gFF2613C5A506B406841109ED496E694E" overflow="visible">
            <path d="M 1.5840001 0.504 C 1.5600001 0.504 1.5280001 0.52000004 1.5280001 0.6 L 1.5280001 2.424 C 1.5280001 3.088 1.6960001 3.16 2.104 3.1840003 C 2.1520002 3.232 2.1520002 3.4 2.104 3.4480002 C 1.9200001 3.44 1.4640001 3.4320002 1.1680001 3.4320002 C 0.90400004 3.4320002 0.58400005 3.44 0.28 3.4480002 C 0.23200001 3.4 0.23200001 3.232 0.28 3.1840003 C 0.768 3.16 0.896 3.088 0.896 2.424 L 0.896 1.008 C 0.896 0.344 0.768 0.272 0.28 0.24800001 C 0.23200001 0.2 0.23200001 0.032 0.28 -0.016 C 0.592 -0.008 0.91200006 0 1.1680001 0 C 1.3520001 0 1.5680001 -0.008 1.6560001 -0.016 C 1.6960001 0.096 1.7680001 0.256 1.8560001 0.416 L 3.104 2.92 C 3.1280003 2.92 3.16 2.904 3.16 2.8240001 L 3.16 1.008 C 3.16 0.344 2.992 0.272 2.584 0.24800001 C 2.536 0.2 2.536 0.032 2.584 -0.016 C 2.7680001 -0.008 3.2 0 3.5200002 0 C 3.7680001 0 4.096 -0.008 4.408 -0.016 C 4.4560003 0.032 4.4560003 0.2 4.408 0.24800001 C 3.92 0.272 3.7920003 0.344 3.7920003 1.008 L 3.7920003 2.424 C 3.7920003 3.088 3.92 3.16 4.408 3.1840003 C 4.4560003 3.232 4.4560003 3.4 4.408 3.4480002 C 4.0880003 3.44 3.7680001 3.4320002 3.5200002 3.4320002 C 3.344 3.4320002 3.1200001 3.44 3.0400002 3.4480002 C 2.976 3.3040001 2.904 3.1360002 2.832 3.0000002 Z M 3.3040001 4.7200003 C 3.3040001 4.872 3.1920002 4.984 3.0000002 4.984 C 2.8560002 4.984 2.72 4.872 2.72 4.736 C 2.72 4.7120004 2.72 4.696 2.7280002 4.6800003 C 2.736 4.656 2.736 4.6320004 2.736 4.6080003 C 2.736 4.432 2.568 4.2720003 2.3360002 4.2720003 C 2.0960002 4.2720003 1.9360001 4.44 1.9360001 4.616 C 1.9360001 4.6320004 1.9360001 4.656 1.9440001 4.6800003 C 1.9520001 4.704 1.9520001 4.7200003 1.9520001 4.7440004 C 1.9520001 4.872 1.8560001 4.984 1.6800001 4.984 C 1.496 4.984 1.368 4.8640003 1.368 4.7200003 C 1.368 4.288 1.8080001 4.024 2.328 4.024 C 2.8400002 4.024 3.3040001 4.28 3.3040001 4.7200003 Z "/>
        </symbol>
        <symbol id="gE83CFA625FCC63C7BEF2A5CECBDD424B" overflow="visible">
            <path d="M 3.496 3.4320002 L 1.2240001 3.4320002 C 0.90400004 3.4320002 0.6 3.44 0.36 3.4480002 C 0.312 3.4 0.312 3.232 0.36 3.1840003 C 0.8 3.1520002 0.90400004 3.1120002 0.90400004 2.456 L 0.90400004 0.9760001 C 0.90400004 0.32000002 0.8 0.28 0.28 0.24800001 C 0.23200001 0.2 0.23200001 0.032 0.28 -0.016 C 0.52000004 -0.008 0.90400004 0 1.2240001 0 C 1.544 0 1.784 -0.008 2.0240002 -0.016 C 2.072 0.032 2.072 0.2 2.0240002 0.24800001 C 1.616 0.28800002 1.536 0.32000002 1.536 0.9760001 L 1.536 2.7120001 C 1.536 2.96 1.5600001 3.1200001 1.8720001 3.1200001 L 2.8400002 3.1200001 C 3.1360002 3.1200001 3.1840003 3.032 3.1840003 2.7120001 L 3.1840003 0.9760001 C 3.1840003 0.32000002 3.104 0.28 2.6880002 0.24800001 C 2.6480002 0.2 2.6480002 0.032 2.6880002 -0.016 C 2.8880002 -0.008 3.1840003 0 3.5040002 0 C 3.8240001 0 4.184 -0.008 4.408 -0.016 C 4.4480004 0.032 4.4480004 0.2 4.408 0.24800001 C 3.8880002 0.28 3.8160002 0.32000002 3.8160002 0.9760001 L 3.8160002 2.456 C 3.8160002 3.1120002 3.92 3.1520002 4.36 3.1840003 C 4.408 3.232 4.408 3.4 4.36 3.4480002 C 4.1200004 3.44 3.8160002 3.4320002 3.496 3.4320002 Z "/>
        </symbol>
        <symbol id="g9245BC7E946A3100AB773736DD34119" overflow="visible">
            <path d="M 0.328 1.6400001 C 0.328 0.82400006 0.87200004 -0.080000006 2.0080001 -0.080000006 C 2.5200002 -0.080000006 2.9120002 0.104 3.1840003 0.36800003 C 3.5440001 0.72 3.7040002 1.2240001 3.7040002 1.7120001 C 3.7040002 2.5440001 3.2480001 3.512 2.0240002 3.512 C 1.496 3.512 1.064 3.2960002 0.768 2.9520001 C 0.48000002 2.608 0.328 2.144 0.328 1.6400001 Z M 1.904 3.232 C 2.592 3.232 3.016 2.608 3.016 1.4560001 C 3.016 0.448 2.496 0.2 2.1200001 0.2 C 1.2880001 0.2 1.016 1.2080001 1.016 1.8240001 C 1.016 2.5200002 1.184 3.232 1.904 3.232 Z "/>
        </symbol>
        <symbol id="g798F91F6371A97DF6CF163FA511661B1" overflow="visible">
            <path d="M 1.5120001 3.4320002 C 1.248 3.4320002 0.93600005 3.44 0.69600004 3.4480002 C 0.648 3.4 0.648 3.232 0.69600004 3.1840003 C 1.184 3.144 1.3280001 3.1120002 1.296 2.4480002 C 1.264 1.7120001 1.136 1.12 1 0.56 C 0.952 0.344 0.72 0.272 0.49600002 0.24800001 C 0.37600002 0.23200001 0.264 0.18400002 0.256 0.040000003 L 0.208 -1.024 C 0.264 -1.0480001 0.328 -1.056 0.42400002 -1.0320001 C 0.49600002 -0.73600006 0.712 0 1.432 0 L 2.8160002 0 C 3.528 0 3.7600002 -0.72 3.8320003 -1.0400001 C 3.9040003 -1.056 3.976 -1.056 4.056 -1.024 L 4.0080004 0.048 C 4.0080004 0.16000001 3.9440002 0.224 3.7920003 0.24800001 C 3.6480002 0.272 3.4480002 0.328 3.4480002 0.624 L 3.4480002 2.456 C 3.4480002 3.1120002 3.5520003 3.1520002 3.992 3.1840003 C 4.04 3.232 4.04 3.4 3.992 3.4480002 C 3.752 3.44 3.4480002 3.4320002 3.1280003 3.4320002 Z M 1.2880001 0.40800002 C 1.2880001 0.544 1.5040001 1.072 1.6240001 2.904 C 1.6320001 3.0240002 1.6880001 3.1280003 1.904 3.1280003 L 2.456 3.1280003 C 2.776 3.1280003 2.8160002 2.904 2.8160002 2.6320002 L 2.8160002 0.70400006 C 2.8160002 0.44000003 2.8000002 0.312 2.48 0.312 L 1.4480001 0.312 C 1.36 0.312 1.2880001 0.32000002 1.2880001 0.40800002 Z "/>
        </symbol>
        <symbol id="g82274318E6240C5E0BF2A21EFBC2EB2E" overflow="visible">
            <path d="M 1.6065 3.6465 C 1.3260001 3.6465 0.99450004 3.6550002 0.73950005 3.6635003 C 0.68850005 3.6125002 0.68850005 3.4340003 0.73950005 3.3830001 C 1.258 3.3405 1.4110001 3.3065002 1.3770001 2.601 C 1.343 1.8190001 1.207 1.19 1.0625 0.595 C 1.0115 0.36550003 0.76500005 0.289 0.527 0.2635 C 0.3995 0.24650002 0.28050002 0.19550002 0.272 0.042500004 L 0.22100002 -1.088 C 0.28050002 -1.1135001 0.3485 -1.1220001 0.4505 -1.0965 C 0.527 -0.78200006 0.75650007 0 1.5215001 0 L 2.992 0 C 3.7485 0 3.9950001 -0.76500005 4.0715003 -1.105 C 4.1480002 -1.1220001 4.2245 -1.1220001 4.3095 -1.088 L 4.2585 0.051000003 C 4.2585 0.17000002 4.1905003 0.238 4.0290003 0.2635 C 3.8760002 0.289 3.6635003 0.3485 3.6635003 0.66300005 L 3.6635003 2.6095002 C 3.6635003 3.3065002 3.7740002 3.3490002 4.2415004 3.3830001 C 4.2925 3.4340003 4.2925 3.6125002 4.2415004 3.6635003 C 3.9865003 3.6550002 3.6635003 3.6465 3.3235002 3.6465 Z M 1.3685001 0.43350002 C 1.3685001 0.578 1.598 1.139 1.7255001 3.0855002 C 1.7340001 3.213 1.7935001 3.3235002 2.023 3.3235002 L 2.6095002 3.3235002 C 2.9495 3.3235002 2.992 3.0855002 2.992 2.7965002 L 2.992 0.748 C 2.992 0.46750003 2.9750001 0.33150002 2.6350002 0.33150002 L 1.5385001 0.33150002 C 1.445 0.33150002 1.3685001 0.34000003 1.3685001 0.43350002 Z "/>
        </symbol>
        <symbol id="g24DF3F2EE2E624CD3C3E0D8734401C2F" overflow="visible">
            <path d="M 1.241 3.6465 C 0.8755 3.6465 0.578 3.6550002 0.2975 3.6635003 C 0.24650002 3.6125002 0.24650002 3.4340003 0.2975 3.3830001 C 0.81600004 3.3490002 0.90950006 3.3150003 0.90950006 2.6095002 L 0.90950006 1.0370001 C 0.90950006 0.33150002 0.81600004 0.30600002 0.2975 0.2635 C 0.24650002 0.2125 0.24650002 0.034 0.2975 -0.017 C 0.578 -0.0085 0.8755 0 1.2495 0 C 1.5640001 0 1.8445001 -0.017 2.414 -0.017 C 3.1450002 -0.017 3.6975002 0.187 3.6975002 1.0285001 C 3.6975002 1.5045 3.4 1.8360001 2.8815002 1.9295001 L 2.8815002 1.9550002 C 3.2725003 2.0315 3.5700002 2.3035002 3.5700002 2.8135002 C 3.5700002 3.4085002 3.2045002 3.6635003 2.176 3.6635003 C 1.8275001 3.6635003 1.6065 3.6465 1.241 3.6465 Z M 1.5810001 1.8445001 L 2.2270002 1.8445001 C 2.7455 1.8445001 2.9665 1.5045 2.9665 0.99450004 C 2.9665 0.425 2.6435 0.2635 2.1845002 0.2635 C 1.7425001 0.2635 1.5810001 0.34000003 1.5810001 0.73100007 Z M 1.5810001 2.091 L 1.5810001 3.0770001 C 1.5810001 3.3320003 1.7765001 3.3830001 2.1845002 3.3830001 C 2.6265001 3.3830001 2.89 3.2640002 2.89 2.7540002 C 2.89 2.414 2.6690001 2.091 2.1420002 2.091 Z "/>
        </symbol>
        <symbol id="gED49DE467B8011425DEC608765606522" overflow="visible">
            <path d="M 0.9265 0 C 1.0965 0.0085 1.241 0.20400001 1.3515 0.43350002 L 1.7170001 1.1985 C 1.8700001 1.5130001 2.108 1.7425001 2.686 1.7765001 L 2.686 1.0370001 C 2.686 0.33150002 2.584 0.30600002 2.1505 0.2635 C 2.0995002 0.2125 2.0995002 0.034 2.1505 -0.017 C 2.3460002 -0.0085 2.6605 0 3.0005002 0 C 3.3320003 0 3.6550002 -0.0085 3.8420002 -0.017 C 3.8930001 0.034 3.8930001 0.2125 3.8420002 0.2635 C 3.4085002 0.2975 3.3065002 0.33150002 3.3065002 1.0370001 L 3.3065002 1.7765001 C 3.8845003 1.7425001 4.1225004 1.5130001 4.2755003 1.1985 L 4.6410003 0.43350002 C 4.7515 0.20400001 4.8960004 0.0085 5.0660005 0 C 5.0660005 0 5.695 -0.0085 5.8650002 -0.017 C 5.9160004 0.034 5.9160004 0.2125 5.8650002 0.2635 C 5.5335 0.28050002 5.4485 0.3485 5.3040004 0.6205 L 4.9215 1.343 C 4.709 1.7425001 4.4285 1.9465001 3.9440002 1.9465001 L 3.9440002 1.9720001 C 4.2755003 2.0655 4.42 2.3630002 4.5475 2.703 C 4.6495004 2.9665 4.7515 3.1280003 4.9300003 3.1280003 C 5.0065002 3.1280003 5.0745 3.1025002 5.1255 3.0685003 C 5.1765003 3.0345001 5.2700005 3.009 5.3805003 3.009 C 5.5675 3.009 5.7205005 3.1705003 5.7205005 3.3405 C 5.7205005 3.5275002 5.5165005 3.7230003 5.236 3.7230003 C 4.743 3.7230003 4.5135 3.2640002 4.352 2.8645 C 4.1650004 2.397 3.9100003 2.0740001 3.3065002 2.0740001 L 3.3065002 2.6095002 C 3.3065002 3.3150003 3.4085002 3.3405 3.8420002 3.3830001 C 3.8930001 3.4340003 3.8930001 3.6125002 3.8420002 3.6635003 C 3.6380002 3.6550002 3.3320003 3.6465 2.992 3.6465 C 2.6605 3.6465 2.3460002 3.6550002 2.1505 3.6635003 C 2.0995002 3.6125002 2.0995002 3.4340003 2.1505 3.3830001 C 2.584 3.3490002 2.686 3.3150003 2.686 2.6095002 L 2.686 2.0740001 C 2.0825002 2.0740001 1.8275001 2.397 1.6405001 2.8645 C 1.4790001 3.2640002 1.2495 3.7230003 0.75650007 3.7230003 C 0.476 3.7230003 0.272 3.5275002 0.272 3.3405 C 0.272 3.1705003 0.425 3.009 0.61200005 3.009 C 0.7225 3.009 0.81600004 3.0345001 0.86700004 3.0685003 C 0.91800004 3.1025002 0.98600006 3.1280003 1.0625 3.1280003 C 1.241 3.1280003 1.343 2.9665 1.445 2.703 C 1.5725001 2.3630002 1.7170001 2.0655 2.0485 1.9720001 L 2.0485 1.9465001 C 1.5640001 1.9465001 1.2835001 1.7425001 1.0710001 1.343 L 0.68850005 0.6205 C 0.544 0.3485 0.45900002 0.28050002 0.12750001 0.2635 C 0.076500006 0.2125 0.076500006 0.034 0.12750001 -0.017 C 0.2975 -0.0085 0.9265 0 0.9265 0 Z "/>
        </symbol>
        <symbol id="g912E70B32C675C293CF499EA32633B2E" overflow="visible">
            <path d="M 3.2810001 0.79050004 C 2.9665 0.46750003 2.7200003 0.33150002 2.2270002 0.33150002 C 1.9210001 0.33150002 1.5640001 0.51000005 1.3005 0.94350004 C 1.1305001 1.2240001 1.0285001 1.6150001 1.0285001 2.108 L 3.2895002 2.091 C 3.3915002 2.091 3.4510002 2.1420002 3.4510002 2.2355 C 3.4510002 2.9495 3.196 3.7145002 2.0145001 3.7145002 C 1.2750001 3.7145002 0.3145 3.009 0.3145 1.7170001 C 0.3145 1.241 0.43350002 0.78200006 0.71400005 0.45900002 C 1.003 0.119 1.4025 -0.08500001 2.0145001 -0.08500001 C 2.6605 -0.08500001 3.1195002 0.2125 3.4595 0.6545 C 3.4340003 0.73950005 3.3830001 0.78200006 3.2810001 0.79050004 Z M 1.054 2.397 C 1.2155001 3.3575 1.8105001 3.4340003 2.0145001 3.4340003 C 2.3375 3.4340003 2.7200003 3.2555 2.7200003 2.5415 C 2.7200003 2.4650002 2.686 2.4225001 2.5925002 2.4225001 Z "/>
        </symbol>
        <symbol id="gA360C9C06E028763E23EC1E819BFE075" overflow="visible">
            <path d="M 4.0715003 2.6095002 C 4.0715003 3.3150003 4.1650004 3.3405 4.6835003 3.3830001 C 4.7345004 3.4340003 4.7345004 3.6125002 4.6835003 3.6635003 C 4.386 3.6465 4.012 3.6465 3.7315001 3.6465 C 3.4935002 3.6465 3.1535 3.6550002 2.8220003 3.6635003 C 2.7710001 3.6125002 2.7710001 3.4340003 2.8220003 3.3830001 C 3.3405 3.3490002 3.4 3.3150003 3.4 2.6095002 L 3.4 2.0570002 L 1.5810001 2.0570002 L 1.5810001 2.6095002 C 1.5810001 3.3150003 1.6405001 3.3405 2.1590002 3.3830001 C 2.21 3.4340003 2.21 3.6125002 2.1590002 3.6635003 C 1.8360001 3.6550002 1.5130001 3.6465 1.241 3.6465 C 0.98600006 3.6465 0.63750005 3.6550002 0.2975 3.6635003 C 0.24650002 3.6125002 0.24650002 3.4340003 0.2975 3.3830001 C 0.81600004 3.3490002 0.90950006 3.3150003 0.90950006 2.6095002 L 0.90950006 1.0370001 C 0.90950006 0.33150002 0.81600004 0.30600002 0.2975 0.2635 C 0.24650002 0.2125 0.24650002 0.034 0.2975 -0.017 C 0.63750005 -0.0085 0.9775001 0 1.2495 0 C 1.5215001 0 1.853 -0.0085 2.1590002 -0.017 C 2.21 0.034 2.21 0.2125 2.1590002 0.2635 C 1.6405001 0.2975 1.5810001 0.33150002 1.5810001 1.0370001 L 1.5810001 1.7765001 L 3.4 1.7765001 L 3.4 1.0370001 C 3.4 0.33150002 3.3405 0.30600002 2.8220003 0.2635 C 2.7710001 0.2125 2.7710001 0.034 2.8220003 -0.017 C 3.1280003 -0.0085 3.4425 0 3.7400002 0 C 3.9950001 0 4.352 -0.0085 4.6835003 -0.017 C 4.7345004 0.034 4.7345004 0.2125 4.6835003 0.2635 C 4.1650004 0.2975 4.0715003 0.33150002 4.0715003 1.0370001 Z "/>
        </symbol>
        <symbol id="g97A0D2D9ACADBAB613312D6368770C27" overflow="visible">
            <path d="M 1.5810001 2.0145001 L 1.5810001 2.6095002 C 1.5810001 3.3150003 1.6745001 3.3405 2.193 3.3830001 C 2.2440002 3.4340003 2.2440002 3.6125002 2.193 3.6635003 C 1.904 3.6550002 1.6150001 3.6465 1.241 3.6465 C 0.8755 3.6465 0.578 3.6550002 0.2975 3.6635003 C 0.24650002 3.6125002 0.24650002 3.4340003 0.2975 3.3830001 C 0.81600004 3.3490002 0.90950006 3.3150003 0.90950006 2.6095002 L 0.90950006 1.0370001 C 0.90950006 0.33150002 0.81600004 0.30600002 0.2975 0.2635 C 0.24650002 0.2125 0.24650002 0.034 0.2975 -0.017 C 0.578 -0.0085 0.8755 0 1.2495 0 C 1.6150001 0 1.9210001 -0.0085 2.193 -0.017 C 2.2440002 0.034 2.2440002 0.2125 2.193 0.2635 C 1.6745001 0.2975 1.5810001 0.33150002 1.5810001 1.0370001 L 1.5810001 1.6830001 L 2.4565 1.6830001 C 2.4735003 0.8245 3.009 -0.08500001 4.1565003 -0.08500001 C 5.406 -0.08500001 5.8735003 0.99450004 5.8735003 1.8445001 C 5.8735003 2.7285001 5.4570003 3.7315001 4.1650004 3.7315001 C 3.1365001 3.7315001 2.5585 3.0260003 2.4650002 2.0145001 Z M 4.0800004 3.4340003 C 4.7770004 3.4340003 5.1425004 2.8135002 5.1425004 1.5725001 C 5.1425004 0.4505 4.675 0.2125 4.3095 0.2125 C 3.4680002 0.2125 3.1875002 1.2665001 3.1875002 1.9210001 C 3.1875002 2.6605 3.4170003 3.4340003 4.0800004 3.4340003 Z "/>
        </symbol>
        <symbol id="g90A2FE29280D8ECE103B197C9BF91526" overflow="visible">
            <path d="M 1.5810001 2.601 C 1.5810001 3.3150003 1.6745001 3.3405 2.193 3.3830001 C 2.2440002 3.4340003 2.2440002 3.6125002 2.193 3.6635003 C 1.904 3.6550002 1.6150001 3.6465 1.241 3.6465 C 0.8755 3.6465 0.578 3.6550002 0.2975 3.6635003 C 0.24650002 3.6125002 0.24650002 3.4340003 0.2975 3.3830001 C 0.81600004 3.3490002 0.90950006 3.3150003 0.90950006 2.6095002 L 0.90950006 1.0370001 C 0.90950006 0.33150002 0.81600004 0.30600002 0.2975 0.2635 C 0.24650002 0.2125 0.24650002 0.034 0.2975 -0.017 C 0.578 -0.0085 0.8755 0 1.2495 0 C 1.598 0 1.7850001 -0.017 2.1335 -0.017 C 3.1790001 -0.017 3.7485 0.24650002 3.7485 1.156 C 3.7485 1.9550002 3.0515 2.1845002 2.193 2.1845002 L 1.5810001 2.1845002 Z M 5.2445 2.6095002 C 5.2445 3.3150003 5.3380003 3.3405 5.8565 3.3830001 C 5.9075003 3.4340003 5.9075003 3.6125002 5.8565 3.6635003 C 5.5675 3.6550002 5.2785 3.6465 4.9045005 3.6465 C 4.539 3.6465 4.2415004 3.6550002 3.9610002 3.6635003 C 3.9100003 3.6125002 3.9100003 3.4340003 3.9610002 3.3830001 C 4.4795003 3.3490002 4.5730004 3.3150003 4.5730004 2.6095002 L 4.5730004 1.0370001 C 4.5730004 0.33150002 4.4795003 0.30600002 3.9610002 0.2635 C 3.9100003 0.2125 3.9100003 0.034 3.9610002 -0.017 C 4.2415004 -0.0085 4.539 0 4.913 0 C 5.2785 0 5.5845003 -0.0085 5.8565 -0.017 C 5.9075003 0.034 5.9075003 0.2125 5.8565 0.2635 C 5.3380003 0.2975 5.2445 0.33150002 5.2445 1.0370001 Z M 3.0175002 1.0710001 C 3.0175002 0.374 2.5925002 0.2635 2.1420002 0.2635 C 1.7255001 0.2635 1.5810001 0.3485 1.5810001 0.646 L 1.5810001 1.904 L 2.1845002 1.904 C 2.8220003 1.904 3.0175002 1.5215001 3.0175002 1.0710001 Z "/>
        </symbol>
    </defs>
</svg>
