<svg viewBox="0 0 282.456692913 315.180037402" width="282.456692913pt" height="315.180037402pt" xmlns="http://www.w3.org/2000/svg" xmlns:xlink="http://www.w3.org/1999/xlink" xmlns:h5="http://www.w3.org/1999/xhtml"><path fill="#ffffff" fill-rule="nonzero" d="M 0 0v 315.180037402h 282.456692913v -315.180037402Z "/><g transform="translate(8 8)"><path fill="#ccc8c0" fill-rule="nonzero" transform="translate(56.692913386 103.877598425)" d="M 0 0v 28.346456693h 28.346456693v -28.346456693h -28.346456693Z "/><path fill="#ccc8c0" fill-rule="nonzero" transform="translate(56.692913386 75.531141732)" d="M 0 0v 28.346456693h 28.346456693v -28.346456693h -28.346456693Z "/><path fill="#ccc8c0" fill-rule="nonzero" transform="translate(28.346456693 75.531141732)" d="M 0 0v 28.346456693h 28.346456693v -28.346456693h -28.346456693Z "/><path fill="#ccc8c0" fill-rule="nonzero" transform="translate(28.346456693 47.184685039)" d="M 0 0v 28.346456693h 28.346456693v -28.346456693h -28.346456693Z "/><path fill="#ccc8c0" fill-rule="nonzero" transform="translate(56.692913386 47.184685039)" d="M 0 0v 28.346456693h 28.346456693v -28.346456693h -28.346456693Z "/><path fill="#ccc8c0" fill-rule="nonzero" transform="translate(0 47.184685039)" d="M 0 0v 28.346456693h 28.346456693v -28.346456693h -28.346456693Z "/><path fill="#ccc8c0" fill-rule="nonzero" transform="translate(0 18.838228346)" d="M 0 0v 28.346456693h 28.346456693v -28.346456693h -28.346456693Z "/><path fill="#ccc8c0" fill-rule="nonzero" transform="translate(28.346456693 18.838228346)" d="M 0 0v 28.346456693h 28.346456693v -28.346456693h -28.346456693Z "/><path fill="#ccc8c0" fill-rule="nonzero" transform="translate(56.692913386 18.838228346)" d="M 0 0v 28.346456693h 28.346456693v -28.346456693h -28.346456693Z "/><path fill="#ccc8c0" fill-rule="nonzero" transform="translate(85.039370079 47.184685039)" d="M 0 0v 28.346456693h 28.346456693v -28.346456693h -28.346456693Z "/><path fill="#ccc8c0" fill-rule="nonzero" transform="translate(85.039370079 18.838228346)" d="M 0 0v 28.346456693h 28.346456693v -28.346456693h -28.346456693Z "/><path fill="none" stroke="#a29b8c" stroke-width="0.4" stroke-linecap="butt" stroke-linejoin="miter" stroke-miterlimit="4" transform="translate(0 18.838228346)" d="M 0 0m 0 113.385826772v -113.385826772"/><path fill="none" stroke="#a29b8c" stroke-width="0.4" stroke-linecap="butt" stroke-linejoin="miter" stroke-miterlimit="4" transform="translate(0 132.224055118)" d="M 0 0h 113.385826772"/><path fill="none" stroke="#a29b8c" stroke-width="0.4" stroke-linecap="butt" stroke-linejoin="miter" stroke-miterlimit="4" transform="translate(28.346456693 18.838228346)" d="M 0 0m 0 113.385826772v -113.385826772"/><path fill="none" stroke="#a29b8c" stroke-width="0.4" stroke-linecap="butt" stroke-linejoin="miter" stroke-miterlimit="4" transform="translate(0 103.877598425)" d="M 0 0h 113.385826772"/><path fill="none" stroke="#a29b8c" stroke-width="0.4" stroke-linecap="butt" stroke-linejoin="miter" stroke-miterlimit="4" transform="translate(56.692913386 18.838228346)" d="M 0 0m 0 113.385826772v -113.385826772"/><path fill="none" stroke="#a29b8c" stroke-width="0.4" stroke-linecap="butt" stroke-linejoin="miter" stroke-miterlimit="4" transform="translate(0 75.531141732)" d="M 0 0h 113.385826772"/><path fill="none" stroke="#a29b8c" stroke-width="0.4" stroke-linecap="butt" stroke-linejoin="miter" stroke-miterlimit="4" transform="translate(85.039370079 18.838228346)" d="M 0 0m 0 113.385826772v -113.385826772"/><path fill="none" stroke="#a29b8c" stroke-width="0.4" stroke-linecap="butt" stroke-linejoin="miter" stroke-miterlimit="4" transform="translate(0 47.184685039)" d="M 0 0h 113.385826772"/><path fill="none" stroke="#a29b8c" stroke-width="0.4" stroke-linecap="butt" stroke-linejoin="miter" stroke-miterlimit="4" transform="translate(113.385826772 18.838228346)" d="M 0 0m 0 113.385826772v -113.385826772"/><path fill="none" stroke="#a29b8c" stroke-width="0.4" stroke-linecap="butt" stroke-linejoin="miter" stroke-miterlimit="4" transform="translate(0 18.838228346)" d="M 0 0h 113.385826772"/><path fill="none" stroke="#1a1a18" stroke-width="0.8" stroke-linecap="butt" stroke-linejoin="miter" stroke-miterlimit="4" transform="translate(0 18.838228346)" d="M 0 0v 113.385826772h 113.385826772v -113.385826772h -113.385826772Z "/><path fill="none" stroke="#1a1a18" stroke-width="1.5" stroke-linecap="butt" stroke-linejoin="miter" stroke-miterlimit="4" transform="translate(56.692913386 95.373661417)" d="M 0 0m 0 32.598425197v -32.598425197"/><path fill="none" stroke="#1a1a18" stroke-width="1.5" stroke-linecap="butt" stroke-linejoin="miter" stroke-miterlimit="4" transform="translate(29.763779528 65.60988189)" d="M 0 0m 26.929133858 29.763779528l -26.929133858 -29.763779528"/><path fill="none" stroke="#1a1a18" stroke-width="1.5" stroke-linecap="butt" stroke-linejoin="miter" stroke-miterlimit="4" transform="translate(56.692913386 67.027204724)" d="M 0 0m 0 28.346456693l 26.929133858 -28.346456693"/><path fill="none" stroke="#1a1a18" stroke-width="1.5" stroke-linecap="butt" stroke-linejoin="miter" stroke-miterlimit="4" transform="translate(14.173228346 37.263425197)" d="M 0 0m 15.590551181 28.346456693l -15.590551181 -28.346456693"/><path fill="none" stroke="#1a1a18" stroke-width="1.5" stroke-linecap="butt" stroke-linejoin="miter" stroke-miterlimit="4" transform="translate(29.763779528 45.767362205)" d="M 0 0m 0 19.842519685l 14.173228346 -19.842519685"/><path fill="none" stroke="#1a1a18" stroke-width="1.5" stroke-linecap="butt" stroke-linejoin="miter" stroke-miterlimit="4" transform="translate(72.283464567 35.846102362)" d="M 0 0m 11.338582677 31.181102362l -11.338582677 -31.181102362"/><path fill="none" stroke="#1a1a18" stroke-width="1.5" stroke-linecap="butt" stroke-linejoin="miter" stroke-miterlimit="4" transform="translate(83.622047244 48.602007874)" d="M 0 0m 0 18.42519685l 17.007874016 -18.42519685"/><path fill="none" stroke="#1a1a18" stroke-width="1.5" stroke-linecap="butt" stroke-linejoin="miter" stroke-miterlimit="4" transform="translate(7.086614173 25.92484252)" d="M 0 0m 7.086614173 11.338582677l -7.086614173 -11.338582677"/><path fill="none" stroke="#1a1a18" stroke-width="1.5" stroke-linecap="butt" stroke-linejoin="miter" stroke-miterlimit="4" transform="translate(14.173228346 27.342165354)" d="M 0 0m 0 9.921259843l 8.503937008 -9.921259843"/><path fill="none" stroke="#1a1a18" stroke-width="1.5" stroke-linecap="butt" stroke-linejoin="miter" stroke-miterlimit="4" transform="translate(38.267716535 25.92484252)" d="M 0 0m 5.669291339 19.842519685l -5.669291339 -19.842519685"/><path fill="none" stroke="#1a1a18" stroke-width="1.5" stroke-linecap="butt" stroke-linejoin="miter" stroke-miterlimit="4" transform="translate(43.937007874 33.011456693)" d="M 0 0m 0 12.755905512l 9.921259843 -12.755905512"/><path fill="none" stroke="#1a1a18" stroke-width="1.5" stroke-linecap="butt" stroke-linejoin="miter" stroke-miterlimit="4" transform="translate(66.614173228 24.507519685)" d="M 0 0m 5.669291339 11.338582677l -5.669291339 -11.338582677"/><path fill="none" stroke="#1a1a18" stroke-width="1.5" stroke-linecap="butt" stroke-linejoin="miter" stroke-miterlimit="4" transform="translate(72.283464567 25.92484252)" d="M 0 0m 0 9.921259843l 8.503937008 -9.921259843"/><path fill="none" stroke="#1a1a18" stroke-width="1.5" stroke-linecap="butt" stroke-linejoin="miter" stroke-miterlimit="4" transform="translate(94.960629921 48.602007874)" d="M 0 0m 5.669291339 0l -5.669291339 9.921259843"/><path fill="none" stroke="#1a1a18" stroke-width="1.5" stroke-linecap="butt" stroke-linejoin="miter" stroke-miterlimit="4" transform="translate(100.62992126 40.098070866)" d="M 0 0m 0 8.503937008l 8.503937008 -8.503937008"/><path fill="none" stroke="#1a1a18" stroke-width="1.5" stroke-linecap="butt" stroke-linejoin="miter" stroke-miterlimit="4" transform="translate(8.503937008 37.263425197)" d="M 0 0m 5.669291339 0l -5.669291339 8.503937008"/><path fill="none" stroke="#1a1a18" stroke-width="1.5" stroke-linecap="butt" stroke-linejoin="miter" stroke-miterlimit="4" transform="translate(100.62992126 48.602007874)" d="M 0 0l 7.086614173 7.086614173"/><path fill="none" transform="translate(44.502913386 1.14)" d="M 0 0h 24.38v 7.05h -24.38v -7.05Z "/><g transform="translate(44.502913276 1.139999906)"><g transform="matrix(1 0 0 -1 0 6.83)"><use xlink:href="#g785F289CF1CE7085E52160CA6C8F5FB0" x="0" y="0" fill="#1a1a18" fill-rule="nonzero"/><use xlink:href="#g7D7A5D08C55ACC07707850317A5B7900" x="8.49" y="0" fill="#1a1a18" fill-rule="nonzero"/><use xlink:href="#gA00006717397A74F11CDD511C8F2ED3A" x="13.06" y="0" fill="#1a1a18" fill-rule="nonzero"/></g><g transform="matrix(1 0 0 -1 19.72 6.83)"><use xlink:href="#g74C244D3972776F667DC7646152E81BE" x="0" y="0" fill="#1a1a18" fill-rule="nonzero"/></g></g><path fill="none" transform="translate(21.371671719 142.932106299)" d="M 0 0h 70.642483333v 9.765h -70.642483333v -9.765Z "/><g transform="translate(21.371671701 142.932106157)"><g transform="matrix(1 0 0 -1 0 7.1715)"><use xlink:href="#g6EB644745B351DDCD9F99CE9A6791CDE" x="0" y="0" fill="#7c7f6a" fill-rule="nonzero"/></g><g transform="matrix(1 0 0 -1 8.0115 9.765)"><use xlink:href="#g2B03AB0F5AB407A22EF3D63210D28B37" x="0" y="0" fill="#7c7f6a" fill-rule="nonzero"/></g><g transform="matrix(1 0 0 -1 15.698316667 7.1715)"><use xlink:href="#g697EDEA13A57B66236BD86B36C96CC91" x="0" y="0" fill="#7c7f6a" fill-rule="nonzero"/></g><g transform="matrix(1 0 0 -1 26.783983333 7.1715)"><use xlink:href="#gCDBA4476372C9644C80346CE58BB3A49" x="0" y="0" fill="#7c7f6a" fill-rule="nonzero"/></g><g transform="matrix(1 0 0 -1 32.033983333 7.1715)"><use xlink:href="#gCDBA4476372C9644C80346CE58BB3A49" x="0" y="0" fill="#7c7f6a" fill-rule="nonzero"/></g><g transform="matrix(1 0 0 -1 37.283983333 7.1715)"><use xlink:href="#g78600E8C98627C719956C28D931C0FCD" x="2.625" y="0" fill="#7c7f6a" fill-rule="nonzero"/><use xlink:href="#gC1379707D8F32FABA5511CD9F7E78B4B" x="7.896" y="0" fill="#7c7f6a" fill-rule="nonzero"/><use xlink:href="#g6BE6E829C497D42358C95A1CE01E9C8D" x="13.4295" y="0" fill="#7c7f6a" fill-rule="nonzero"/><use xlink:href="#gEFE4B6AA52BBE68EAC50879BB9FC5B99" x="18.123" y="0" fill="#7c7f6a" fill-rule="nonzero"/><use xlink:href="#g2CCA8BF5638277170DC3145805989D03" x="22.7955" y="0" fill="#7c7f6a" fill-rule="nonzero"/><use xlink:href="#g78600E8C98627C719956C28D931C0FCD" x="28.0875" y="0" fill="#7c7f6a" fill-rule="nonzero"/></g></g><path fill="#ccc8c0" fill-rule="nonzero" transform="translate(209.763779528 118.050826772)" d="M 0 0v 14.173228346h 14.173228346v -14.173228346h -14.173228346Z "/><path fill="#ccc8c0" fill-rule="nonzero" transform="translate(209.763779528 103.877598425)" d="M 0 0v 14.173228346h 14.173228346v -14.173228346h -14.173228346Z "/><path fill="#ccc8c0" fill-rule="nonzero" transform="translate(209.763779528 89.704370079)" d="M 0 0v 14.173228346h 14.173228346v -14.173228346h -14.173228346Z "/><path fill="#ccc8c0" fill-rule="nonzero" transform="translate(195.590551181 89.704370079)" d="M 0 0v 14.173228346h 14.173228346v -14.173228346h -14.173228346Z "/><path fill="#ccc8c0" fill-rule="nonzero" transform="translate(195.590551181 75.531141732)" d="M 0 0v 14.173228346h 14.173228346v -14.173228346h -14.173228346Z "/><path fill="#ccc8c0" fill-rule="nonzero" transform="translate(181.417322835 75.531141732)" d="M 0 0v 14.173228346h 14.173228346v -14.173228346h -14.173228346Z "/><path fill="#ccc8c0" fill-rule="nonzero" transform="translate(181.417322835 61.357913386)" d="M 0 0v 14.173228346h 14.173228346v -14.173228346h -14.173228346Z "/><path fill="#ccc8c0" fill-rule="nonzero" transform="translate(209.763779528 75.531141732)" d="M 0 0v 14.173228346h 14.173228346v -14.173228346h -14.173228346Z "/><path fill="#ccc8c0" fill-rule="nonzero" transform="translate(223.937007874 75.531141732)" d="M 0 0v 14.173228346h 14.173228346v -14.173228346h -14.173228346Z "/><path fill="#ccc8c0" fill-rule="nonzero" transform="translate(223.937007874 61.357913386)" d="M 0 0v 14.173228346h 14.173228346v -14.173228346h -14.173228346Z "/><path fill="#ccc8c0" fill-rule="nonzero" transform="translate(167.244094488 61.357913386)" d="M 0 0v 14.173228346h 14.173228346v -14.173228346h -14.173228346Z "/><path fill="#ccc8c0" fill-rule="nonzero" transform="translate(167.244094488 47.184685039)" d="M 0 0v 14.173228346h 14.173228346v -14.173228346h -14.173228346Z "/><path fill="#ccc8c0" fill-rule="nonzero" transform="translate(167.244094488 33.011456693)" d="M 0 0v 14.173228346h 14.173228346v -14.173228346h -14.173228346Z "/><path fill="#ccc8c0" fill-rule="nonzero" transform="translate(181.417322835 47.184685039)" d="M 0 0v 14.173228346h 14.173228346v -14.173228346h -14.173228346Z "/><path fill="#ccc8c0" fill-rule="nonzero" transform="translate(195.590551181 47.184685039)" d="M 0 0v 14.173228346h 14.173228346v -14.173228346h -14.173228346Z "/><path fill="#ccc8c0" fill-rule="nonzero" transform="translate(195.590551181 33.011456693)" d="M 0 0v 14.173228346h 14.173228346v -14.173228346h -14.173228346Z "/><path fill="#ccc8c0" fill-rule="nonzero" transform="translate(223.937007874 47.184685039)" d="M 0 0v 14.173228346h 14.173228346v -14.173228346h -14.173228346Z "/><path fill="#ccc8c0" fill-rule="nonzero" transform="translate(223.937007874 33.011456693)" d="M 0 0v 14.173228346h 14.173228346v -14.173228346h -14.173228346Z "/><path fill="#ccc8c0" fill-rule="nonzero" transform="translate(238.11023622 61.357913386)" d="M 0 0v 14.173228346h 14.173228346v -14.173228346h -14.173228346Z "/><path fill="#ccc8c0" fill-rule="nonzero" transform="translate(238.11023622 47.184685039)" d="M 0 0v 14.173228346h 14.173228346v -14.173228346h -14.173228346Z "/><path fill="#ccc8c0" fill-rule="nonzero" transform="translate(252.283464567 47.184685039)" d="M 0 0v 14.173228346h 14.173228346v -14.173228346h -14.173228346Z "/><path fill="#ccc8c0" fill-rule="nonzero" transform="translate(153.070866142 33.011456693)" d="M 0 0v 14.173228346h 14.173228346v -14.173228346h -14.173228346Z "/><path fill="#ccc8c0" fill-rule="nonzero" transform="translate(153.070866142 18.838228346)" d="M 0 0v 14.173228346h 14.173228346v -14.173228346h -14.173228346Z "/><path fill="#ccc8c0" fill-rule="nonzero" transform="translate(167.244094488 18.838228346)" d="M 0 0v 14.173228346h 14.173228346v -14.173228346h -14.173228346Z "/><path fill="#ccc8c0" fill-rule="nonzero" transform="translate(181.417322835 33.011456693)" d="M 0 0v 14.173228346h 14.173228346v -14.173228346h -14.173228346Z "/><path fill="#ccc8c0" fill-rule="nonzero" transform="translate(181.417322835 18.838228346)" d="M 0 0v 14.173228346h 14.173228346v -14.173228346h -14.173228346Z "/><path fill="#ccc8c0" fill-rule="nonzero" transform="translate(195.590551181 18.838228346)" d="M 0 0v 14.173228346h 14.173228346v -14.173228346h -14.173228346Z "/><path fill="#ccc8c0" fill-rule="nonzero" transform="translate(209.763779528 18.838228346)" d="M 0 0v 14.173228346h 14.173228346v -14.173228346h -14.173228346Z "/><path fill="#ccc8c0" fill-rule="nonzero" transform="translate(223.937007874 18.838228346)" d="M 0 0v 14.173228346h 14.173228346v -14.173228346h -14.173228346Z "/><path fill="#ccc8c0" fill-rule="nonzero" transform="translate(252.283464567 33.011456693)" d="M 0 0v 14.173228346h 14.173228346v -14.173228346h -14.173228346Z "/><path fill="none" stroke="#a29b8c" stroke-width="0.4" stroke-linecap="butt" stroke-linejoin="miter" stroke-miterlimit="4" transform="translate(153.070866142 18.838228346)" d="M 0 0m 0 113.385826772v -113.385826772"/><path fill="none" stroke="#a29b8c" stroke-width="0.4" stroke-linecap="butt" stroke-linejoin="miter" stroke-miterlimit="4" transform="translate(153.070866142 132.224055118)" d="M 0 0h 113.385826772"/><path fill="none" stroke="#a29b8c" stroke-width="0.4" stroke-linecap="butt" stroke-linejoin="miter" stroke-miterlimit="4" transform="translate(167.244094488 18.838228346)" d="M 0 0m 0 113.385826772v -113.385826772"/><path fill="none" stroke="#a29b8c" stroke-width="0.4" stroke-linecap="butt" stroke-linejoin="miter" stroke-miterlimit="4" transform="translate(153.070866142 118.050826772)" d="M 0 0h 113.385826772"/><path fill="none" stroke="#a29b8c" stroke-width="0.4" stroke-linecap="butt" stroke-linejoin="miter" stroke-miterlimit="4" transform="translate(181.417322835 18.838228346)" d="M 0 0m 0 113.385826772v -113.385826772"/><path fill="none" stroke="#a29b8c" stroke-width="0.4" stroke-linecap="butt" stroke-linejoin="miter" stroke-miterlimit="4" transform="translate(153.070866142 103.877598425)" d="M 0 0h 113.385826772"/><path fill="none" stroke="#a29b8c" stroke-width="0.4" stroke-linecap="butt" stroke-linejoin="miter" stroke-miterlimit="4" transform="translate(195.590551181 18.838228346)" d="M 0 0m 0 113.385826772v -113.385826772"/><path fill="none" stroke="#a29b8c" stroke-width="0.4" stroke-linecap="butt" stroke-linejoin="miter" stroke-miterlimit="4" transform="translate(153.070866142 89.704370079)" d="M 0 0h 113.385826772"/><path fill="none" stroke="#a29b8c" stroke-width="0.4" stroke-linecap="butt" stroke-linejoin="miter" stroke-miterlimit="4" transform="translate(209.763779528 18.838228346)" d="M 0 0m 0 113.385826772v -113.385826772"/><path fill="none" stroke="#a29b8c" stroke-width="0.4" stroke-linecap="butt" stroke-linejoin="miter" stroke-miterlimit="4" transform="translate(153.070866142 75.531141732)" d="M 0 0h 113.385826772"/><path fill="none" stroke="#a29b8c" stroke-width="0.4" stroke-linecap="butt" stroke-linejoin="miter" stroke-miterlimit="4" transform="translate(223.937007874 18.838228346)" d="M 0 0m 0 113.385826772v -113.385826772"/><path fill="none" stroke="#a29b8c" stroke-width="0.4" stroke-linecap="butt" stroke-linejoin="miter" stroke-miterlimit="4" transform="translate(153.070866142 61.357913386)" d="M 0 0h 113.385826772"/><path fill="none" stroke="#a29b8c" stroke-width="0.4" stroke-linecap="butt" stroke-linejoin="miter" stroke-miterlimit="4" transform="translate(238.11023622 18.838228346)" d="M 0 0m 0 113.385826772v -113.385826772"/><path fill="none" stroke="#a29b8c" stroke-width="0.4" stroke-linecap="butt" stroke-linejoin="miter" stroke-miterlimit="4" transform="translate(153.070866142 47.184685039)" d="M 0 0h 113.385826772"/><path fill="none" stroke="#a29b8c" stroke-width="0.4" stroke-linecap="butt" stroke-linejoin="miter" stroke-miterlimit="4" transform="translate(252.283464567 18.838228346)" d="M 0 0m 0 113.385826772v -113.385826772"/><path fill="none" stroke="#a29b8c" stroke-width="0.4" stroke-linecap="butt" stroke-linejoin="miter" stroke-miterlimit="4" transform="translate(153.070866142 33.011456693)" d="M 0 0h 113.385826772"/><path fill="none" stroke="#a29b8c" stroke-width="0.4" stroke-linecap="butt" stroke-linejoin="miter" stroke-miterlimit="4" transform="translate(266.456692913 18.838228346)" d="M 0 0m 0 113.385826772v -113.385826772"/><path fill="none" stroke="#a29b8c" stroke-width="0.4" stroke-linecap="butt" stroke-linejoin="miter" stroke-miterlimit="4" transform="translate(153.070866142 18.838228346)" d="M 0 0h 113.385826772"/><path fill="none" stroke="#1a1a18" stroke-width="0.8" stroke-linecap="butt" stroke-linejoin="miter" stroke-miterlimit="4" transform="translate(153.070866142 18.838228346)" d="M 0 0v 113.385826772h 113.385826772v -113.385826772h -113.385826772Z "/><path fill="none" stroke="#1a1a18" stroke-width="1.5" stroke-linecap="butt" stroke-linejoin="miter" stroke-miterlimit="4" transform="translate(209.763779528 95.373661417)" d="M 0 0m 0 32.598425197v -32.598425197"/><path fill="none" stroke="#1a1a18" stroke-width="1.5" stroke-linecap="butt" stroke-linejoin="miter" stroke-miterlimit="4" transform="translate(182.834645669 65.60988189)" d="M 0 0m 26.929133858 29.763779528l -26.929133858 -29.763779528"/><path fill="none" stroke="#1a1a18" stroke-width="1.5" stroke-linecap="butt" stroke-linejoin="miter" stroke-miterlimit="4" transform="translate(209.763779528 67.027204724)" d="M 0 0m 0 28.346456693l 26.929133858 -28.346456693"/><path fill="none" stroke="#1a1a18" stroke-width="1.5" stroke-linecap="butt" stroke-linejoin="miter" stroke-miterlimit="4" transform="translate(167.244094488 37.263425197)" d="M 0 0m 15.590551181 28.346456693l -15.590551181 -28.346456693"/><path fill="none" stroke="#1a1a18" stroke-width="1.5" stroke-linecap="butt" stroke-linejoin="miter" stroke-miterlimit="4" transform="translate(182.834645669 45.767362205)" d="M 0 0m 0 19.842519685l 14.173228346 -19.842519685"/><path fill="none" stroke="#1a1a18" stroke-width="1.5" stroke-linecap="butt" stroke-linejoin="miter" stroke-miterlimit="4" transform="translate(225.354330709 35.846102362)" d="M 0 0m 11.338582677 31.181102362l -11.338582677 -31.181102362"/><path fill="none" stroke="#1a1a18" stroke-width="1.5" stroke-linecap="butt" stroke-linejoin="miter" stroke-miterlimit="4" transform="translate(236.692913386 48.602007874)" d="M 0 0m 0 18.42519685l 17.007874016 -18.42519685"/><path fill="none" stroke="#1a1a18" stroke-width="1.5" stroke-linecap="butt" stroke-linejoin="miter" stroke-miterlimit="4" transform="translate(160.157480315 25.92484252)" d="M 0 0m 7.086614173 11.338582677l -7.086614173 -11.338582677"/><path fill="none" stroke="#1a1a18" stroke-width="1.5" stroke-linecap="butt" stroke-linejoin="miter" stroke-miterlimit="4" transform="translate(167.244094488 27.342165354)" d="M 0 0m 0 9.921259843l 8.503937008 -9.921259843"/><path fill="none" stroke="#1a1a18" stroke-width="1.5" stroke-linecap="butt" stroke-linejoin="miter" stroke-miterlimit="4" transform="translate(191.338582677 25.92484252)" d="M 0 0m 5.669291339 19.842519685l -5.669291339 -19.842519685"/><path fill="none" stroke="#1a1a18" stroke-width="1.5" stroke-linecap="butt" stroke-linejoin="miter" stroke-miterlimit="4" transform="translate(197.007874016 33.011456693)" d="M 0 0m 0 12.755905512l 9.921259843 -12.755905512"/><path fill="none" stroke="#1a1a18" stroke-width="1.5" stroke-linecap="butt" stroke-linejoin="miter" stroke-miterlimit="4" transform="translate(219.68503937 24.507519685)" d="M 0 0m 5.669291339 11.338582677l -5.669291339 -11.338582677"/><path fill="none" stroke="#1a1a18" stroke-width="1.5" stroke-linecap="butt" stroke-linejoin="miter" stroke-miterlimit="4" transform="translate(225.354330709 25.92484252)" d="M 0 0m 0 9.921259843l 8.503937008 -9.921259843"/><path fill="none" stroke="#1a1a18" stroke-width="1.5" stroke-linecap="butt" stroke-linejoin="miter" stroke-miterlimit="4" transform="translate(248.031496063 48.602007874)" d="M 0 0m 5.669291339 0l -5.669291339 9.921259843"/><path fill="none" stroke="#1a1a18" stroke-width="1.5" stroke-linecap="butt" stroke-linejoin="miter" stroke-miterlimit="4" transform="translate(253.700787402 40.098070866)" d="M 0 0m 0 8.503937008l 8.503937008 -8.503937008"/><path fill="none" stroke="#1a1a18" stroke-width="1.5" stroke-linecap="butt" stroke-linejoin="miter" stroke-miterlimit="4" transform="translate(161.57480315 37.263425197)" d="M 0 0m 5.669291339 0l -5.669291339 8.503937008"/><path fill="none" stroke="#1a1a18" stroke-width="1.5" stroke-linecap="butt" stroke-linejoin="miter" stroke-miterlimit="4" transform="translate(253.700787402 48.602007874)" d="M 0 0l 7.086614173 7.086614173"/><path fill="none" transform="translate(192.573779528)" d="M 0 0h 34.38v 9.33h -34.38v -9.33Z "/><g transform="translate(192.573779528 -4.7e-8)"><g transform="matrix(1 0 0 -1 0 6.83)"><use xlink:href="#g785F289CF1CE7085E52160CA6C8F5FB0" x="0" y="0" fill="#1a1a18" fill-rule="nonzero"/><use xlink:href="#g7D7A5D08C55ACC07707850317A5B7900" x="8.49" y="0" fill="#1a1a18" fill-rule="nonzero"/><use xlink:href="#gA00006717397A74F11CDD511C8F2ED3A" x="13.06" y="0" fill="#1a1a18" fill-rule="nonzero"/></g><g transform="matrix(1 0 0 -1 19.72 6.83)"><use xlink:href="#g74C244D3972776F667DC7646152E81BE" x="0" y="0" fill="#1a1a18" fill-rule="nonzero"/></g><g transform="matrix(1 0 0 -1 24.38 6.83)"><use xlink:href="#gFE9C95FEAF1BF90E9FD23335C9A50CC7" x="0" y="0" fill="#1a1a18" fill-rule="nonzero"/></g><g transform="matrix(1 0 0 -1 29.38 6.83)"><use xlink:href="#g187F960CD8D343F130EAFAB63E4BE0DE" x="0" y="0" fill="#1a1a18" fill-rule="nonzero"/></g></g><path fill="none" transform="translate(174.442537861 142.932106299)" d="M 0 0h 70.642483333v 9.765h -70.642483333v -9.765Z "/><g transform="translate(174.442537843 142.932106157)"><g transform="matrix(1 0 0 -1 0 7.1715)"><use xlink:href="#g6EB644745B351DDCD9F99CE9A6791CDE" x="0" y="0" fill="#7c7f6a" fill-rule="nonzero"/></g><g transform="matrix(1 0 0 -1 8.0115 9.765)"><use xlink:href="#gE1191644B8AD687076B3ABC30E3AED9E" x="0" y="0" fill="#7c7f6a" fill-rule="nonzero"/></g><g transform="matrix(1 0 0 -1 15.698316667 7.1715)"><use xlink:href="#g697EDEA13A57B66236BD86B36C96CC91" x="0" y="0" fill="#7c7f6a" fill-rule="nonzero"/></g><g transform="matrix(1 0 0 -1 26.783983333 7.1715)"><use xlink:href="#gFFB5DED1C275FF530D7E6A46D8012BE7" x="0" y="0" fill="#7c7f6a" fill-rule="nonzero"/></g><g transform="matrix(1 0 0 -1 32.033983333 7.1715)"><use xlink:href="#gA3FB4D4BFC37230C0E353DE2FFA1E14" x="0" y="0" fill="#7c7f6a" fill-rule="nonzero"/></g><g transform="matrix(1 0 0 -1 37.283983333 7.1715)"><use xlink:href="#g78600E8C98627C719956C28D931C0FCD" x="2.625" y="0" fill="#7c7f6a" fill-rule="nonzero"/><use xlink:href="#gC1379707D8F32FABA5511CD9F7E78B4B" x="7.896" y="0" fill="#7c7f6a" fill-rule="nonzero"/><use xlink:href="#g6BE6E829C497D42358C95A1CE01E9C8D" x="13.4295" y="0" fill="#7c7f6a" fill-rule="nonzero"/><use xlink:href="#gEFE4B6AA52BBE68EAC50879BB9FC5B99" x="18.123" y="0" fill="#7c7f6a" fill-rule="nonzero"/><use xlink:href="#g2CCA8BF5638277170DC3145805989D03" x="22.7955" y="0" fill="#7c7f6a" fill-rule="nonzero"/><use xlink:href="#g78600E8C98627C719956C28D931C0FCD" x="28.0875" y="0" fill="#7c7f6a" fill-rule="nonzero"/></g></g><path fill="none" stroke="#7c7f6a" stroke-width="0.7" stroke-linecap="butt" stroke-linejoin="miter" stroke-miterlimit="4" transform="translate(120.472440945 75.531141732)" d="M 0 0h 18.845719248"/><path fill="#7c7f6a" fill-rule="nonzero" stroke="#7c7f6a" stroke-width="0.7" stroke-linecap="butt" stroke-linejoin="miter" stroke-miterlimit="4" transform="translate(139.318160315 73.40515748)" d="M 0 0m 5.669291339 2.125984252l -5.669291339 2.125984252v -4.251968504l 5.669291339 2.125984252Z "/><path fill="none" transform="translate(109.283846457 63.612775591)" d="M 0 0h 47.889v 5.695h -47.889v -5.695Z "/><g transform="translate(109.283846457 63.612775512)"><g transform="matrix(1 0 0 -1 0 5.593)"><use xlink:href="#gDEA2A0379B7527B5C1F8D88530B6617D" x="0" y="0" fill="#7c7f6a" fill-rule="nonzero"/><use xlink:href="#g5D2E58E4CDB4D7E6C81847885E22D756" x="5.78" y="0" fill="#7c7f6a" fill-rule="nonzero"/><use xlink:href="#gB3F6F741CFF64E2F87AE274E4C795DAE" x="9.5795" y="0" fill="#7c7f6a" fill-rule="nonzero"/><use xlink:href="#gCEFD2E51F012095E752F656A8500C1AE" x="14.059" y="0" fill="#7c7f6a" fill-rule="nonzero"/><use xlink:href="#gE827826F9D19F2B711A1B9BF40B9D8A0" x="18.0115" y="0" fill="#7c7f6a" fill-rule="nonzero"/><use xlink:href="#g5D2E58E4CDB4D7E6C81847885E22D756" x="22.593" y="0" fill="#7c7f6a" fill-rule="nonzero"/><use xlink:href="#g1EEFC323E4FEBE7654D5CC1583F61AF4" x="28.5175" y="0" fill="#7c7f6a" fill-rule="nonzero"/><use xlink:href="#g5D2E58E4CDB4D7E6C81847885E22D756" x="32.1555" y="0" fill="#7c7f6a" fill-rule="nonzero"/><use xlink:href="#g3EDD64AE7B5A40E8FE9DD75D51E8EE8A" x="35.955" y="0" fill="#7c7f6a" fill-rule="nonzero"/><use xlink:href="#gA501B866130BB2CA150759E9628F05FB" x="39.7375" y="0" fill="#7c7f6a" fill-rule="nonzero"/><use xlink:href="#gF931FC691828778A920607CF18B9C32A" x="44.0045" y="0" fill="#7c7f6a" fill-rule="nonzero"/></g></g><path fill="none" stroke="#1a1a18" stroke-width="0.6" stroke-linecap="butt" stroke-linejoin="miter" stroke-miterlimit="4" transform="translate(76.535433071 276.790984252)" d="M 0 0h 95.523552381"/><path fill="#1a1a18" fill-rule="nonzero" stroke="#1a1a18" stroke-width="0.6" stroke-linecap="butt" stroke-linejoin="miter" stroke-miterlimit="4" transform="translate(172.058985354 274.665)" d="M 0 0m 5.669291339 2.125984252l -5.669291339 2.125984252v -4.251968504l 5.669291339 2.125984252Z "/><path fill="none" stroke="#1a1a18" stroke-width="0.6" stroke-linecap="butt" stroke-linejoin="miter" stroke-miterlimit="4" transform="translate(76.535433071 206.779242894)" d="M 0 0m 0 70.011741358v -70.011741358"/><path fill="#1a1a18" fill-rule="nonzero" stroke="#1a1a18" stroke-width="0.6" stroke-linecap="butt" stroke-linejoin="miter" stroke-miterlimit="4" transform="translate(74.409448819 201.109951654)" d="M 0 0m 2.125984252 0l 2.125984252 5.669291339h -4.251968504l 2.125984252 -5.669291339Z "/><path fill="none" transform="translate(181.984251969 272.359234252)" d="M 0 0h 29.241v 8.8635h -29.241v -8.8635Z "/><g transform="translate(181.984251827 272.359234157)"><g transform="matrix(1 0 0 -1 0 6.4885)"><use xlink:href="#g914956D68D3156A3A1E09D87B27DCE8" x="0" y="0" fill="#1a1a18" fill-rule="nonzero"/><use xlink:href="#g22F6F1E7BD78974BD412E2736D59A338" x="2.641" y="0" fill="#1a1a18" fill-rule="nonzero"/></g><g transform="matrix(1 0 0 -1 7.923 6.4885)"><use xlink:href="#g1EBFCB518258C4B1CE79CF5CD6F2CDA9" x="0" y="0" fill="#1a1a18" fill-rule="nonzero"/></g><g transform="matrix(1 0 0 -1 11.6185 6.4885)"><use xlink:href="#gE857CA6BF0DEB6F693A763FA4844BD28" x="0" y="0" fill="#1a1a18" fill-rule="nonzero"/></g><g transform="matrix(1 0 0 -1 16.3685 6.4885)"><use xlink:href="#gB72B4F83B5B617FC110DC392B5C9A1AE" x="0" y="0" fill="#1a1a18" fill-rule="nonzero"/></g><g transform="matrix(1 0 0 -1 21.1185 6.4885)"><use xlink:href="#g9F67C973F850ED3CE86776B53F5E0CE6" x="0" y="0" fill="#1a1a18" fill-rule="nonzero"/></g><g transform="matrix(1 0 0 -1 25.5455 6.4885)"><use xlink:href="#g87ED897F4D302B2F2794ED12E3B4F790" x="0" y="0" fill="#1a1a18" fill-rule="nonzero"/></g></g><path fill="none" transform="translate(67.464516404 185.830043307)" d="M 0 0h 18.141833333v 6.4885h -18.141833333v -6.4885Z "/><g transform="translate(67.464516331 185.830043181)"><g transform="matrix(1 0 0 -1 0 6.4885)"><use xlink:href="#g914956D68D3156A3A1E09D87B27DCE8" x="0" y="0" fill="#1a1a18" fill-rule="nonzero"/><use xlink:href="#g22F6F1E7BD78974BD412E2736D59A338" x="2.641" y="0" fill="#1a1a18" fill-rule="nonzero"/></g><g transform="matrix(1 0 0 -1 9.506333333 6.4885)"><use xlink:href="#g7CE7952E1DB27C3B67FBBB132F3F5D69" x="0" y="0" fill="#1a1a18" fill-rule="nonzero"/></g></g><path fill="none" stroke="#7c7f6a" stroke-width="1.3" stroke-linecap="butt" stroke-linejoin="miter" stroke-miterlimit="4" transform="translate(93.543307087 212.896097417)" d="M 0 0m 0 69.751566449l 48.188976378 -69.751566449"/><path fill="#1a1a18" fill-rule="nonzero" transform="translate(101.196850394 266.019330709)" d="M 0 0m 2.267716535 0c -1.251289701 0 -2.267716535 1.016426835 -2.267716535 2.267716535c 0 1.251289701 1.016426835 2.267716535 2.267716535 2.267716535c 1.251289701 0 2.267716535 -1.016426835 2.267716535 -2.267716535c 0 -1.251289701 -1.016426835 -2.267716535 -2.267716535 -2.267716535Z "/><path fill="#1a1a18" fill-rule="nonzero" transform="translate(129.543307087 224.988997503)" d="M 0 0m 2.267716535 0c -1.251289701 0 -2.267716535 1.016426835 -2.267716535 2.267716535c 0 1.251289701 1.016426835 2.267716535 2.267716535 2.267716535c 1.251289701 0 2.267716535 -1.016426835 2.267716535 -2.267716535c 0 -1.251289701 -1.016426835 -2.267716535 -2.267716535 -2.267716535Z "/><path fill="none" stroke="#a29b8c" stroke-width="0.4" stroke-linecap="butt" stroke-linejoin="miter" stroke-miterlimit="4" stroke-dashoffset="0" stroke-dasharray="0.4 2" transform="translate(103.464566929 268.287047244)" d="M 0 0m 0 8.503937008v -8.503937008"/><path fill="none" stroke="#a29b8c" stroke-width="0.4" stroke-linecap="butt" stroke-linejoin="miter" stroke-miterlimit="4" stroke-dashoffset="0" stroke-dasharray="0.4 2" transform="translate(76.535433071 268.287047244)" d="M 0 0h 26.929133858"/><path fill="none" transform="translate(53.689337533 264.567047244)" d="M 0 0h 17.743733333v 7.44h -17.743733333v -7.44Z "/><g transform="translate(53.689337412 264.567047197)"><g transform="matrix(1 0 0 -1 0 5.464)"><use xlink:href="#gBC4B8303896725A26375DB9E4231E234" x="0" y="0" fill="#7c7f6a" fill-rule="nonzero"/><use xlink:href="#g44552E6889D3E74D674B3599B3F63EAD" x="2.224" y="0" fill="#7c7f6a" fill-rule="nonzero"/></g><g transform="matrix(1 0 0 -1 8.005333333 5.464)"><use xlink:href="#g629B7864608344627E69514CDD20525D" x="0" y="0" fill="#7c7f6a" fill-rule="nonzero"/></g><g transform="matrix(1 0 0 -1 14.109333333 7.44)"><use xlink:href="#g261E37EE47BA4E21BD784007FD9478E8" x="0" y="0" fill="#7c7f6a" fill-rule="nonzero"/></g></g><path fill="none" stroke="#a29b8c" stroke-width="0.4" stroke-linecap="butt" stroke-linejoin="miter" stroke-miterlimit="4" stroke-dashoffset="0" stroke-dasharray="0.4 2" transform="translate(131.811023622 227.256714039)" d="M 0 0m 0 49.534270213v -49.534270213"/><path fill="none" stroke="#a29b8c" stroke-width="0.4" stroke-linecap="butt" stroke-linejoin="miter" stroke-miterlimit="4" stroke-dashoffset="0" stroke-dasharray="0.4 2" transform="translate(76.535433071 227.256714039)" d="M 0 0h 55.275590551"/><path fill="none" transform="translate(53.689337533 223.536714039)" d="M 0 0h 17.743733333v 7.44h -17.743733333v -7.44Z "/><g transform="translate(53.689337412 223.536713991)"><g transform="matrix(1 0 0 -1 0 5.464)"><use xlink:href="#gBC4B8303896725A26375DB9E4231E234" x="0" y="0" fill="#7c7f6a" fill-rule="nonzero"/><use xlink:href="#g44552E6889D3E74D674B3599B3F63EAD" x="2.224" y="0" fill="#7c7f6a" fill-rule="nonzero"/></g><g transform="matrix(1 0 0 -1 8.005333333 5.464)"><use xlink:href="#g629B7864608344627E69514CDD20525D" x="0" y="0" fill="#7c7f6a" fill-rule="nonzero"/></g><g transform="matrix(1 0 0 -1 14.109333333 7.44)"><use xlink:href="#g22F47D78C3C958CAF0739D54D7624B2D" x="0" y="0" fill="#7c7f6a" fill-rule="nonzero"/></g></g><path fill="none" transform="translate(144.566929134 235.86097585)" d="M 0 0h 50.347888889v 6.6025h -50.347888889v -6.6025Z "/><g transform="translate(144.566929074 235.860975818)"><g transform="matrix(1 0 0 -1 0 6.4885)"><use xlink:href="#g111F480562FE960BC5F50C637F145B12" x="0" y="0" fill="#7c7f6a" fill-rule="nonzero"/><use xlink:href="#g30F02AEBABA7D40FC17FCA43D8EB3DAA" x="5.567" y="0" fill="#7c7f6a" fill-rule="nonzero"/><use xlink:href="#gDBB5E8F5FC9EB2F5349B9D49D6966C24" x="9.9085" y="0" fill="#7c7f6a" fill-rule="nonzero"/><use xlink:href="#gC86282117E7C9F65658F6DDAC49FC51A" x="14.6775" y="0" fill="#7c7f6a" fill-rule="nonzero"/><use xlink:href="#gC110FFC20529D78AB6B9724BF2D3193A" x="19.684" y="0" fill="#7c7f6a" fill-rule="nonzero"/><use xlink:href="#g111F480562FE960BC5F50C637F145B12" x="24.472" y="0" fill="#7c7f6a" fill-rule="nonzero"/></g><g transform="matrix(1 0 0 -1 32.414 6.4885)"><use xlink:href="#g527CAB0659B70EE9D8AC978D0844E68E" x="0" y="0" fill="#7c7f6a" fill-rule="nonzero"/></g><g transform="matrix(1 0 0 -1 42.443888889 6.4885)"><use xlink:href="#g2BBA577A8DD9EA3002D8B107D55FED08" x="0" y="0" fill="#7c7f6a" fill-rule="nonzero"/></g></g><path fill="none" transform="translate(56.504846457 289.551537402)" d="M 0 0h 153.447v 9.6285h -153.447v -9.6285Z "/><g transform="translate(56.504846409 289.551537307)"><g transform="matrix(1 0 0 -1 0 7.1715)"><use xlink:href="#g71D81E84C847076CE887D3A5D7C0718B" x="0" y="0" fill="#1a1a18" fill-rule="nonzero"/><use xlink:href="#gB9CB8C21641BB9D6945EBC7ED76275C1" x="6.153" y="0" fill="#1a1a18" fill-rule="nonzero"/><use xlink:href="#g78600E8C98627C719956C28D931C0FCD" x="10.9515" y="0" fill="#1a1a18" fill-rule="nonzero"/><use xlink:href="#gC1379707D8F32FABA5511CD9F7E78B4B" x="16.2225" y="0" fill="#1a1a18" fill-rule="nonzero"/><use xlink:href="#g2CCA8BF5638277170DC3145805989D03" x="21.756" y="0" fill="#1a1a18" fill-rule="nonzero"/><use xlink:href="#g71D81E84C847076CE887D3A5D7C0718B" x="27.048" y="0" fill="#1a1a18" fill-rule="nonzero"/><use xlink:href="#g3CD763AC845B0CB818F9BD746791AD3E" x="35.826" y="0" fill="#1a1a18" fill-rule="nonzero"/><use xlink:href="#g66D110B88773733650ADD996D43A4D85" x="41.979" y="0" fill="#1a1a18" fill-rule="nonzero"/><use xlink:href="#g804279143320936389B29079930EB467" x="47.4285" y="0" fill="#1a1a18" fill-rule="nonzero"/><use xlink:href="#g7DB29D3496F71FB271523E017004D04" x="52.479" y="0" fill="#1a1a18" fill-rule="nonzero"/><use xlink:href="#g2CCA8BF5638277170DC3145805989D03" x="59.619" y="0" fill="#1a1a18" fill-rule="nonzero"/><use xlink:href="#gEEDDC0AE78A11326E4C21591EDD4EF63" x="64.911" y="0" fill="#1a1a18" fill-rule="nonzero"/></g><g transform="matrix(1 0 0 -1 73.689 7.1715)"><use xlink:href="#g697EDEA13A57B66236BD86B36C96CC91" x="0" y="0" fill="#1a1a18" fill-rule="nonzero"/></g><g transform="matrix(1 0 0 -1 81.858 7.1715)"><use xlink:href="#g66D110B88773733650ADD996D43A4D85" x="2.625" y="0" fill="#1a1a18" fill-rule="nonzero"/><use xlink:href="#gB9CB8C21641BB9D6945EBC7ED76275C1" x="8.0745" y="0" fill="#1a1a18" fill-rule="nonzero"/><use xlink:href="#g6120A1A2271A87AD1F9AE7AA95366B96" x="12.873" y="0" fill="#1a1a18" fill-rule="nonzero"/><use xlink:href="#g7DB29D3496F71FB271523E017004D04" x="17.451" y="0" fill="#1a1a18" fill-rule="nonzero"/><use xlink:href="#g6BE6E829C497D42358C95A1CE01E9C8D" x="24.591" y="0" fill="#1a1a18" fill-rule="nonzero"/><use xlink:href="#g66D110B88773733650ADD996D43A4D85" x="29.2845" y="0" fill="#1a1a18" fill-rule="nonzero"/><use xlink:href="#g71D81E84C847076CE887D3A5D7C0718B" x="34.734" y="0" fill="#1a1a18" fill-rule="nonzero"/><use xlink:href="#g2CCA8BF5638277170DC3145805989D03" x="40.887" y="0" fill="#1a1a18" fill-rule="nonzero"/><use xlink:href="#g42E7AC9271EF550B3DC462A8D9074BEB" x="46.179" y="0" fill="#1a1a18" fill-rule="nonzero"/><use xlink:href="#gEFE4B6AA52BBE68EAC50879BB9FC5B99" x="50.673" y="0" fill="#1a1a18" fill-rule="nonzero"/><use xlink:href="#g27DEC58C12F66BC18579BCAFE69C73E3" x="55.3455" y="0" fill="#1a1a18" fill-rule="nonzero"/></g><g transform="matrix(1 0 0 -1 144.711 7.1715)"><use xlink:href="#g9F773BD62A12471F4F4746B9CFEC117B" x="0" y="0" fill="#1a1a18" fill-rule="nonzero"/></g></g></g><defs><symbol id="g785F289CF1CE7085E52160CA6C8F5FB0" overflow="visible"><path d="M 0 0m 7.46 1.22v 1.85c 0 0.82 0.13 0.87 0.68 0.91c 0.06 0.06 0.06 0.27 0 0.33c -0.3 -0.01 -0.68 -0.02 -1.08 -0.02c -0.4 0 -0.7 0.01 -1 0.02c -0.06 -0.06 -0.06 -0.27 0 -0.33c 0.51 -0.05 0.61 -0.09 0.61 -0.91v -2.17c 0 -0.31 -0.03 -0.51 -0.42 -0.51h -1.18c -0.3 0 -0.43 0.09 -0.43 0.51v 2.17c 0.01 0.82 0.08 0.87 0.62 0.91c 0.05 0.06 0.05 0.27 0 0.33c -0.25 -0.01 -0.62 -0.02 -1.02 -0.02c -0.4 0 -0.73 0.01 -0.98 0.02c -0.05 -0.06 -0.05 -0.27 0 -0.33c 0.5 -0.04 0.6 -0.09 0.59 -0.91v -2.18c 0 -0.37 -0.05 -0.5 -0.42 -0.5h -1.14c -0.37 0 -0.43 0.11 -0.43 0.51v 2.17c 0 0.82 0.1 0.87 0.62 0.91c 0.05 0.06 0.05 0.27 0 0.33c -0.25 -0.01 -0.62 -0.02 -1.02 -0.02c -0.4 0 -0.75 0.01 -1.03 0.02c -0.05 -0.06 -0.05 -0.27 0 -0.33c 0.55 -0.04 0.64 -0.09 0.64 -0.91v -1.85c 0 -0.82 -0.13 -0.87 -0.68 -0.91c -0.06 -0.06 -0.06 -0.27 0 -0.33c 0.3 0.01 0.68 0.02 1.08 0.02h 5.59c 0.4 0 0.78 -0.01 1.08 -0.02c 0.06 0.06 0.06 0.27 0 0.33c -0.55 0.04 -0.68 0.09 -0.68 0.91Z "/></symbol><symbol id="g7D7A5D08C55ACC07707850317A5B7900" overflow="visible"><path d="M 0 0m 2.93 0.48c 0.06 -0.31 0.17 -0.58 0.67 -0.58c 0.38 0 0.74 0.17 0.95 0.37c -0.02 0.12 -0.06 0.21 -0.17 0.27c -0.07 -0.06 -0.24 -0.16 -0.37 -0.16c -0.29 0 -0.3 0.39 -0.3 0.85v 1.47c 0 1.42 -0.78 1.69 -1.51 1.69c -0.82 0 -1.65 -0.54 -1.65 -1.11c 0 -0.24 0.12 -0.36 0.35 -0.36c 0.29 0 0.47 0.21 0.47 0.34c 0 0.07 -0.01 0.14 -0.03 0.18c -0.01 0.03 -0.02 0.09 -0.02 0.2c 0 0.31 0.42 0.42 0.8 0.42c 0.34 0 0.81 -0.17 0.81 -1.3c 0 -0.07 -0.03 -0.11 -0.06 -0.12l -0.86 -0.21c -0.96 -0.24 -1.65 -0.77 -1.65 -1.45c 0 -0.82 0.56 -1.08 1.26 -1.08c 0.35 0 0.65 0.08 1.09 0.42l 0.2 0.16Z m 0 1.85v -1.32c 0 -0.13 -0.06 -0.2 -0.14 -0.26c -0.26 -0.21 -0.6 -0.44 -0.88 -0.44c -0.5 0 -0.72 0.4 -0.72 0.71c 0 0.45 0.21 0.91 0.95 1.1Z "/></symbol><symbol id="gA00006717397A74F11CDD511C8F2ED3A" overflow="visible"><path d="M 0 0m 1.86 3.07c 0 0.57 0.07 0.83 0.42 0.83h 0.22c 0.82 0 1.06 -0.57 1.2 -1.15c 0.11 -0.01 0.21 0 0.29 0.04c -0.04 0.53 -0.07 0.97 -0.13 1.5l -0.02 0.02c 0 0 -0.8 -0.02 -1.12 -0.02h -1.26c -0.43 0 -0.78 0.01 -1.11 0.02c -0.06 -0.06 -0.06 -0.27 0 -0.33c 0.61 -0.04 0.72 -0.08 0.72 -0.91v -1.85c 0 -0.83 -0.11 -0.86 -0.72 -0.91c -0.06 -0.06 -0.06 -0.27 0 -0.33c 0.33 0.01 0.68 0.02 1.12 0.02c 0.43 0 0.79 -0.01 1.11 -0.02c 0.06 0.06 0.06 0.27 0 0.33c -0.61 0.04 -0.72 0.08 -0.72 0.91Z "/></symbol><symbol id="g74C244D3972776F667DC7646152E81BE" overflow="visible"><path d="M 0 0m 4.29 3.93c 0 0.12 -0.13 0.25 -0.41 0.39c -0.28 0.14 -0.58 0.21 -0.89 0.21c -0.49 0 -0.97 -0.12 -1.42 -0.35c -0.54 -0.28 -0.81 -0.65 -0.81 -1.1c 0 -0.26 0.12 -0.49 0.36 -0.69c -0.41 -0.25 -0.86 -0.74 -0.86 -1.33c 0 -0.82 0.78 -1.28 1.64 -1.28c 0.49 0 0.9 0.11 1.23 0.32c 0.43 0.27 0.65 0.52 0.65 0.73c 0 0.09 -0.05 0.14 -0.15 0.14c -0.05 0 -0.09 -0.03 -0.13 -0.09c -0.25 -0.44 -0.64 -0.57 -1.51 -0.57c -0.23 0 -0.45 0.02 -0.65 0.06c -0.37 0.07 -0.75 0.34 -0.75 0.75c 0 0.49 0.46 0.92 0.84 1.1c 0.22 -0.09 0.5 -0.13 0.84 -0.13c 0.55 0 0.83 0.12 0.83 0.35c 0 0.2 -0.25 0.3 -0.75 0.3c -0.34 0 -0.64 -0.06 -0.91 -0.18c -0.24 0.13 -0.36 0.3 -0.36 0.52c 0 0.31 0.24 0.56 0.71 0.73c 0.35 0.13 0.72 0.19 1.1 0.19c 0.33 0 0.63 -0.09 0.88 -0.27c 0.1 -0.07 0.17 -0.1 0.22 -0.1c 0.15 0 0.3 0.15 0.3 0.3Z m -1.94 -1.48c 0.11 0 0.21 -0.01 0.31 -0.03c -0.1 -0.02 -0.23 -0.03 -0.39 -0.03c -0.13 0 -0.25 0 -0.34 0.01c 0.13 0.03 0.27 0.05 0.42 0.05Z "/></symbol><symbol id="g6EB644745B351DDCD9F99CE9A6791CDE" overflow="visible"><path d="M 0 0m 9.072 7.1715c -0.1995 0 -0.8505 -0.0315 -1.05 -0.0315c -0.1995 0 -0.861 0.0315 -1.0605 0.0315c -0.1575 0 -0.231 -0.084 -0.231 -0.252c 0 -0.0945 0.0735 -0.147 0.231 -0.1575c 0.441 0 0.6615 -0.1365 0.6615 -0.4095c 0 -0.063 -0.0105 -0.1365 -0.021 -0.21l -1.134 -4.494l -2.2575 5.3025c -0.084 0.1995 -0.105 0.2205 -0.3675 0.2205h -1.3965c -0.252 0 -0.3465 -0.021 -0.3465 -0.252c 0 -0.105 0.1155 -0.1575 0.336 -0.1575c 0.441 0 0.6615 -0.0105 0.672 -0.042l -1.3965 -5.565c -0.0945 -0.4095 -0.336 -0.6405 -0.714 -0.714c -0.273 -0.0315 -0.588 0.0105 -0.588 -0.2835c 0 -0.105 0.063 -0.1575 0.1785 -0.1575c 0.189 0 0.84 0.0315 1.0395 0.0315c 0.1995 0 0.8715 -0.0315 1.071 -0.0315c 0.1575 0 0.231 0.084 0.231 0.252c 0 0.0945 -0.084 0.147 -0.252 0.1575c -0.4305 0.0105 -0.6405 0.147 -0.6405 0.4095c 0 0.0525 0.0105 0.126 0.0315 0.231l 1.3545 5.3655l 2.625 -6.195c 0.063 -0.147 0.147 -0.2205 0.2415 -0.2205c 0.0945 0 0.1575 0.084 0.1995 0.252l 1.4595 5.775c 0.1365 0.5355 0.4305 0.7245 1.0815 0.735c 0.147 0.0105 0.2205 0.0945 0.2205 0.2625c -0.0315 0.0945 -0.042 0.147 -0.1785 0.147Z "/></symbol><symbol id="g2B03AB0F5AB407A22EF3D63210D28B37" overflow="visible"><path d="M 0 0m 2.22705 4.8804c -0.31605 -0.3087 -0.78645 -0.46305 -1.4259 -0.46305v -0.3234c 0.43365 0 0.7791 0.06615 1.0437 0.1911v -3.6603c 0 -0.09555 -0.00735 -0.15435 -0.0294 -0.18375c -0.03675 -0.08085 -0.25725 -0.12495 -0.6615 -0.12495h -0.30135v -0.31605l 1.3083 0.0294l 1.31565 -0.0294v 0.31605h -0.30135c -0.40425 0 -0.62475 0.0441 -0.66885 0.12495c -0.0147 0.0294 -0.02205 0.0882 -0.02205 0.18375v 4.02045c 0 0.19845 -0.0294 0.2352 -0.25725 0.2352Z "/></symbol><symbol id="g697EDEA13A57B66236BD86B36C96CC91" overflow="visible"><path d="M 0 0m 7.329 3.8535h -6.489c -0.168 0 -0.252 -0.084 -0.252 -0.2415c 0 -0.1575 0.084 -0.2415 0.252 -0.2415h 6.489c 0.168 0 0.252 0.084 0.252 0.2415c 0 0.126 -0.1155 0.2415 -0.252 0.2415Z m 0 -1.974h -6.489c -0.168 0 -0.252 -0.084 -0.252 -0.2415c 0 -0.1575 0.084 -0.2415 0.252 -0.2415h 6.489c 0.168 0 0.252 0.084 0.252 0.2415c 0 0.1365 -0.1155 0.2415 -0.252 0.2415Z "/></symbol><symbol id="gCDBA4476372C9644C80346CE58BB3A49" overflow="visible"><path d="M 0 0m 2.8245 6.993c -0.4305 -0.441 -1.0605 -0.6615 -1.89 -0.6615v -0.4095c 0.546 0 0.9975 0.084 1.344 0.252v -5.313c 0 -0.189 -0.042 -0.315 -0.1365 -0.3675c -0.0945 -0.0525 -0.357 -0.084 -0.777 -0.084h -0.3675v -0.4095c 0.2625 0.021 0.8295 0.0315 1.701 0.0315c 0.8715 0 1.4385 -0.0105 1.701 -0.0315v 0.4095h -0.3675c -0.4305 0 -0.693 0.0315 -0.777 0.084c -0.084 0.0525 -0.1365 0.1785 -0.1365 0.3675v 5.817c 0 0.252 -0.021 0.315 -0.294 0.315Z "/></symbol><symbol id="g78600E8C98627C719956C28D931C0FCD" overflow="visible"><path d="M 0 0m 4.053 0c 0 0 0.819 -0.0105 1.029 -0.021c 0.063 0.063 0.063 0.2835 0 0.3465c -0.4095 0.021 -0.4935 0.105 -0.672 0.441l -0.4725 0.8925c -0.2625 0.4935 -0.63 0.7455 -1.2285 0.7455v 0.0315c 0.4095 0.1155 0.588 0.483 0.7455 0.903c 0.126 0.3255 0.252 0.525 0.4725 0.525c 0.0945 0 0.1785 -0.0315 0.2415 -0.0735c 0.063 -0.042 0.1785 -0.0735 0.315 -0.0735c 0.231 0 0.42 0.1995 0.42 0.4095c 0 0.231 -0.252 0.4725 -0.5985 0.4725c -0.609 0 -0.8925 -0.567 -1.092 -1.0605c -0.231 -0.5775 -0.5145 -0.9765 -1.26 -0.9765v 0.6615c 0 0.8715 0.1155 0.903 0.651 0.9555c 0.063 0.063 0.063 0.2835 0 0.3465c -0.252 -0.0105 -0.651 -0.021 -1.071 -0.021c -0.4515 0 -0.819 0.0105 -1.1655 0.021c -0.063 -0.063 -0.063 -0.2835 0 -0.3465c 0.6405 -0.042 0.756 -0.084 0.756 -0.9555v -1.9425c 0 -0.8715 -0.1155 -0.903 -0.756 -0.9555c -0.063 -0.063 -0.063 -0.2835 0 -0.3465c 0.3465 0.0105 0.714 0.021 1.176 0.021c 0.4095 0 0.8295 -0.0105 1.0605 -0.021c 0.063 0.063 0.063 0.2835 0 0.3465c -0.5355 0.042 -0.651 0.084 -0.651 0.9555v 0.9135c 0.714 -0.042 0.903 -0.3255 1.092 -0.714l 0.4515 -0.945c 0.1365 -0.2835 0.3465 -0.525 0.5565 -0.5355Z "/></symbol><symbol id="gC1379707D8F32FABA5511CD9F7E78B4B" overflow="visible"><path d="M 0 0m 4.389 1.281v 1.9425c 0 0.861 0.1365 0.9135 0.714 0.9555c 0.063 0.063 0.063 0.2835 0 0.3465c -0.315 -0.0105 -0.714 -0.021 -1.134 -0.021h -1.9845c -0.3465 0 -0.756 0.0105 -1.071 0.021c -0.063 -0.063 -0.063 -0.2835 0 -0.3465c 0.7455 -0.0525 0.8505 -0.1155 0.8505 -1.2495c 0 -1.1025 -0.084 -1.68 -0.231 -2.1105c -0.1365 -0.378 -0.315 -0.5145 -0.4935 -0.5145c -0.1365 0 -0.1785 0.084 -0.1995 0.2205c -0.0315 0.1995 -0.0945 0.399 -0.3885 0.399c -0.2625 0 -0.4095 -0.21 -0.4095 -0.441c 0 -0.3255 0.294 -0.609 0.777 -0.609c 0.5355 0 0.8295 0.273 1.071 0.84c 0.21 0.504 0.273 1.575 0.273 2.289c 0 0.819 0.0315 1.092 0.4515 1.092h 0.4725c 0.399 0 0.4725 -0.252 0.4725 -0.609v -2.205c 0 -0.861 -0.105 -0.9135 -0.651 -0.9555c -0.0525 -0.063 -0.0525 -0.2835 0 -0.3465c 0.2625 0.0105 0.651 0.021 1.071 0.021c 0.42 0 0.8925 -0.0105 1.1865 -0.021c 0.0525 0.063 0.0525 0.2835 0 0.3465c -0.6825 0.042 -0.777 0.0945 -0.777 0.9555Z "/></symbol><symbol id="g6BE6E829C497D42358C95A1CE01E9C8D" overflow="visible"><path d="M 0 0m 4.053 0.9765c -0.3885 -0.399 -0.693 -0.567 -1.302 -0.567c -0.378 0 -0.819 0.2205 -1.1445 0.756c -0.21 0.3465 -0.336 0.8295 -0.336 1.4385l 2.793 -0.021c 0.126 0 0.1995 0.063 0.1995 0.1785c 0 0.882 -0.315 1.827 -1.7745 1.827c -0.9135 0 -2.1 -0.8715 -2.1 -2.4675c 0 -0.588 0.147 -1.155 0.4935 -1.554c 0.357 -0.42 0.8505 -0.672 1.6065 -0.672c 0.798 0 1.365 0.3675 1.785 0.9135c -0.0315 0.105 -0.0945 0.1575 -0.2205 0.168Z m -2.751 1.9845c 0.1995 1.1865 0.9345 1.281 1.1865 1.281c 0.399 0 0.8715 -0.2205 0.8715 -1.1025c 0 -0.0945 -0.042 -0.147 -0.1575 -0.147Z "/></symbol><symbol id="gEFE4B6AA52BBE68EAC50879BB9FC5B99" overflow="visible"><path d="M 0 0m 1.911 1.281c 0 -0.8715 -0.1155 -0.924 -0.756 -0.9555c -0.063 -0.063 -0.063 -0.2835 0 -0.3465c 0.4095 0.0105 0.8295 0.021 1.176 0.021c 0.357 0 0.7665 -0.0105 1.1655 -0.021c 0.063 0.063 0.063 0.2835 0 0.3465c -0.6405 0.0315 -0.756 0.084 -0.756 0.9555v 2.835h 0.1785c 0.8505 0 1.0185 -0.294 1.197 -1.1445c 0.1365 0 0.273 0.042 0.273 0.042c -0.063 0.483 -0.105 0.945 -0.1155 1.554c -0.2415 -0.021 -1.029 -0.063 -1.554 -0.063h -0.7875c -0.525 0 -1.113 0.0315 -1.533 0.063c -0.0105 -0.609 -0.0525 -1.071 -0.126 -1.554c 0 0 0.147 -0.042 0.2835 -0.042c 0.1785 0.8505 0.336 1.1445 1.197 1.1445h 0.1575Z "/></symbol><symbol id="g2CCA8BF5638277170DC3145805989D03" overflow="visible"><path d="M 0 0m 0.4305 2.1525c 0 -1.071 0.714 -2.2575 2.205 -2.2575c 0.672 0 1.1865 0.2415 1.5435 0.588c 0.4725 0.462 0.6825 1.1235 0.6825 1.764c 0 1.092 -0.5985 2.3625 -2.205 2.3625c -0.693 0 -1.26 -0.2835 -1.6485 -0.735c -0.378 -0.4515 -0.5775 -1.0605 -0.5775 -1.722Z m 2.0685 2.0895c 0.903 0 1.4595 -0.819 1.4595 -2.331c 0 -1.323 -0.6825 -1.6485 -1.176 -1.6485c -1.092 0 -1.449 1.323 -1.449 2.1315c 0 0.9135 0.2205 1.848 1.1655 1.848Z "/></symbol><symbol id="gFE9C95FEAF1BF90E9FD23335C9A50CC7" overflow="visible"><path d="M 0 0m 4.44 7.18c 0.01 0.02 0.01 0.05 0.01 0.08c 0 0.16 -0.08 0.24 -0.24 0.24c -0.11 0 -0.18 -0.05 -0.22 -0.16l -3.42 -9.52c -0.01 -0.02 -0.01 -0.05 -0.01 -0.08c 0 -0.16 0.08 -0.24 0.24 -0.24c 0.11 0 0.18 0.05 0.22 0.16Z "/></symbol><symbol id="g187F960CD8D343F130EAFAB63E4BE0DE" overflow="visible"><path d="M 0 0m 2.37 6.66c -0.51 0 -0.94 -0.18 -1.31 -0.54c -0.37 -0.36 -0.56 -0.78 -0.56 -1.29c 0 -0.34 0.25 -0.59 0.56 -0.59c 0.3 0 0.55 0.26 0.55 0.56c 0 0.33 -0.24 0.56 -0.56 0.56c -0.03 0 -0.05 0 -0.07 -0.01c 0.19 0.49 0.63 0.92 1.26 0.92c 0.82 0 1.28 -0.71 1.28 -1.57c 0 -0.67 -0.34 -1.39 -1.02 -2.15l -1.88 -2.12c -0.13 -0.15 -0.12 -0.14 -0.12 -0.43h 3.71l 0.29 1.8h -0.33c -0.08 -0.51 -0.15 -0.8 -0.21 -0.89c -0.05 -0.05 -0.35 -0.07 -0.9 -0.07h -1.67l 0.97 0.95c 0.68 0.64 1.54 1.33 1.83 1.86c 0.2 0.35 0.3 0.7 0.3 1.05c 0 1.18 -0.92 1.96 -2.12 1.96Z "/></symbol><symbol id="gE1191644B8AD687076B3ABC30E3AED9E" overflow="visible"><path d="M 0 0m 0.87465 3.1164c 0.2352 0 0.4116 0.1764 0.4116 0.4116c 0 0.2646 -0.13965 0.40425 -0.4116 0.4116c 0.1617 0.34545 0.5292 0.62475 1.00695 0.62475c 0.6468 0 1.0731 -0.4851 1.0731 -1.1319c 0 -0.3528 -0.12495 -0.6909 -0.3822 -1.02165c -0.12495 -0.16905 -0.2205 -0.28665 -0.28665 -0.3528l -1.74195 -1.72725c -0.09555 -0.0882 -0.08085 -0.11025 -0.08085 -0.33075h 3.0282l 0.22785 1.3818h -0.3087c -0.05145 -0.38955 -0.11025 -0.6174 -0.1764 -0.66885c -0.03675 -0.02205 -0.2646 -0.03675 -0.69825 -0.03675h -1.2495c 0.49245 0.43365 0.94815 0.8232 1.3818 1.16865c 0.33075 0.25725 0.56595 0.4851 0.71295 0.68355c 0.2205 0.28665 0.33075 0.588 0.33075 0.90405c 0 0.4557 -0.1764 0.81585 -0.53655 1.08045c -0.31605 0.24255 -0.71295 0.3675 -1.18335 0.3675c -0.40425 0 -0.7497 -0.1176 -1.05105 -0.3528c -0.31605 -0.25725 -0.47775 -0.58065 -0.47775 -0.97755c 0 -0.2499 0.18375 -0.43365 0.4116 -0.43365Z "/></symbol><symbol id="gFFB5DED1C275FF530D7E6A46D8012BE7" overflow="visible"><path d="M 0 0m 3.1815 3.7065c 0.693 0.2625 1.344 0.924 1.344 1.8165c 0 0.4515 -0.2205 0.819 -0.651 1.1025c -0.378 0.2415 -0.8085 0.3675 -1.2915 0.3675c -0.4725 0 -0.882 -0.126 -1.2495 -0.3675c -0.4095 -0.273 -0.6195 -0.63 -0.6195 -1.0815c 0 -0.3465 0.231 -0.588 0.567 -0.588c 0.336 0 0.567 0.2415 0.567 0.5775c 0 0.3465 -0.1995 0.5355 -0.5985 0.5565c 0.273 0.3675 0.7035 0.5565 1.2915 0.5565c 0.63 0 0.945 -0.3675 0.945 -1.113c 0 -0.441 -0.084 -0.8085 -0.2415 -1.113c -0.2835 -0.504 -0.672 -0.5985 -1.323 -0.5985c -0.126 -0.021 -0.189 -0.0735 -0.189 -0.168c 0 -0.1575 0.0735 -0.1575 0.2835 -0.1575h 0.4515c 0.7875 0 1.1865 -0.5565 1.1865 -1.68c 0 -0.8925 -0.3255 -1.6695 -1.1235 -1.6695c -0.6825 0 -1.1865 0.231 -1.491 0.693c 0.3675 -0.0105 0.6405 0.2625 0.6405 0.6195c 0 0.357 -0.2625 0.6195 -0.6195 0.6195c -0.4095 0 -0.6195 -0.21 -0.6195 -0.6405c 0 -0.5145 0.231 -0.924 0.693 -1.2495c 0.4095 -0.2835 0.8925 -0.42 1.428 -0.42c 0.5985 0 1.113 0.1995 1.5645 0.588c 0.4515 0.3885 0.672 0.8715 0.672 1.4595c 0 0.987 -0.777 1.6695 -1.617 1.89Z "/></symbol><symbol id="gA3FB4D4BFC37230C0E353DE2FFA1E14" overflow="visible"><path d="M 0 0m 2.6145 -0.231c 1.4805 0 2.2155 1.197 2.2155 3.591c 0 1.6065 -0.336 2.6775 -0.9975 3.2025c -0.3675 0.2835 -0.777 0.4305 -1.2075 0.4305c -1.4805 0 -2.2155 -1.2075 -2.2155 -3.633c 0 -1.932 0.5145 -3.591 2.205 -3.591Z m 1.176 5.733c 0.0735 -0.3675 0.105 -1.0395 0.105 -2.016c 0 -0.966 -0.042 -1.68 -0.1155 -2.142c -0.1365 -0.84 -0.525 -1.26 -1.1655 -1.26c -0.2415 0 -0.483 0.0945 -0.7035 0.273c -0.2835 0.2415 -0.4515 0.735 -0.525 1.491c -0.0315 0.2625 -0.042 0.8085 -0.042 1.638c 0 0.9135 0.0315 1.554 0.084 1.9005c 0.0945 0.5775 0.2835 0.945 0.5775 1.1025c 0.231 0.126 0.4305 0.189 0.609 0.189c 0.6825 0 1.0605 -0.5565 1.176 -1.176Z "/></symbol><symbol id="gDEA2A0379B7527B5C1F8D88530B6617D" overflow="visible"><path d="M 0 0m 0.9945 2.601l -0.051 -1.581c -0.0255 -0.714 -0.153 -0.731 -0.646 -0.7565c -0.051 -0.051 -0.051 -0.2295 0 -0.2805c 0.17 0.0085 0.595 0.017 0.731 0.017c 0.17 0 0.5695 -0.0085 0.7395 -0.017c 0.051 0.051 0.051 0.2295 0 0.2805c -0.4845 0.034 -0.5185 0.119 -0.5015 0.7565l 0.0595 2.0825c 0 0.0765 0.034 0.0765 0.068 0l 1.2325 -3.009c 0.034 -0.0255 0.068 -0.0255 0.0935 0l 1.394 3.0005c 0.0425 0.0935 0.085 0.102 0.085 0l -0.0085 -2.057c 0 -0.7055 -0.0595 -0.731 -0.578 -0.7735c -0.051 -0.051 -0.051 -0.2295 0 -0.2805c 0.306 0.0085 0.6205 0.017 0.918 0.017c 0.255 0 0.6205 -0.0085 0.952 -0.017c 0.051 0.051 0.051 0.2295 0 0.2805c -0.5185 0.034 -0.612 0.068 -0.612 0.7735l -0.017 1.5725c -0.0085 0.7055 0.0935 0.731 0.612 0.7735c 0.051 0.051 0.051 0.2295 0 0.2805c -0.2975 -0.017 -1.122 -0.017 -1.4025 -0.017l -1.1305 -2.431l -0.0425 -0.085l -0.034 0.085l -0.9945 2.431c -0.2805 0 -1.1815 0 -1.479 0.017c -0.051 -0.051 -0.051 -0.2295 0 -0.2805c 0.5185 -0.0425 0.6375 -0.0765 0.612 -0.782Z "/></symbol><symbol id="g5D2E58E4CDB4D7E6C81847885E22D756" overflow="visible"><path d="M 0 0m 3.281 0.7905c -0.3145 -0.323 -0.561 -0.459 -1.054 -0.459c -0.306 0 -0.663 0.1785 -0.9265 0.612c -0.17 0.2805 -0.272 0.6715 -0.272 1.1645l 2.261 -0.017c 0.102 0 0.1615 0.051 0.1615 0.1445c 0 0.714 -0.255 1.479 -1.4365 1.479c -0.7395 0 -1.7 -0.7055 -1.7 -1.9975c 0 -0.476 0.119 -0.935 0.3995 -1.258c 0.289 -0.34 0.6885 -0.544 1.3005 -0.544c 0.646 0 1.105 0.2975 1.445 0.7395c -0.0255 0.085 -0.0765 0.1275 -0.1785 0.136Z m -2.227 1.6065c 0.1615 0.9605 0.7565 1.037 0.9605 1.037c 0.323 0 0.7055 -0.1785 0.7055 -0.8925c 0 -0.0765 -0.034 -0.119 -0.1275 -0.119Z "/></symbol><symbol id="gB3F6F741CFF64E2F87AE274E4C795DAE" overflow="visible"><path d="M 0 0m 3.553 1.037v 1.5725c 0 0.697 0.1105 0.7395 0.578 0.7735c 0.051 0.051 0.051 0.2295 0 0.2805c -0.255 -0.0085 -0.578 -0.017 -0.918 -0.017h -1.6065c -0.2805 0 -0.612 0.0085 -0.867 0.017c -0.051 -0.051 -0.051 -0.2295 0 -0.2805c 0.6035 -0.0425 0.6885 -0.0935 0.6885 -1.0115c 0 -0.8925 -0.068 -1.36 -0.187 -1.7085c -0.1105 -0.306 -0.255 -0.4165 -0.3995 -0.4165c -0.1105 0 -0.1445 0.068 -0.1615 0.1785c -0.0255 0.1615 -0.0765 0.323 -0.3145 0.323c -0.2125 0 -0.3315 -0.17 -0.3315 -0.357c 0 -0.2635 0.238 -0.493 0.629 -0.493c 0.4335 0 0.6715 0.221 0.867 0.68c 0.17 0.408 0.221 1.275 0.221 1.853c 0 0.663 0.0255 0.884 0.3655 0.884h 0.3825c 0.323 0 0.3825 -0.204 0.3825 -0.493v -1.785c 0 -0.697 -0.085 -0.7395 -0.527 -0.7735c -0.0425 -0.051 -0.0425 -0.2295 0 -0.2805c 0.2125 0.0085 0.527 0.017 0.867 0.017c 0.34 0 0.7225 -0.0085 0.9605 -0.017c 0.0425 0.051 0.0425 0.2295 0 0.2805c -0.5525 0.034 -0.629 0.0765 -0.629 0.7735Z "/></symbol><symbol id="gCEFD2E51F012095E752F656A8500C1AE" overflow="visible"><path d="M 0 0m 1.581 2.601c 0 0.714 0.0935 0.7395 0.612 0.782c 0.051 0.051 0.051 0.2295 0 0.2805c -0.289 -0.0085 -0.578 -0.017 -0.952 -0.017c -0.3655 0 -0.663 0.0085 -0.9435 0.017c -0.051 -0.051 -0.051 -0.2295 0 -0.2805c 0.5185 -0.034 0.612 -0.068 0.612 -0.7735v -1.5725c 0 -0.7055 -0.0935 -0.731 -0.612 -0.7735c -0.051 -0.051 -0.051 -0.2295 0 -0.2805c 0.2805 0.0085 0.578 0.017 0.952 0.017c 0.3485 0 0.5355 -0.017 0.884 -0.017c 1.0455 0 1.615 0.2635 1.615 1.173c 0 0.799 -0.697 1.0285 -1.5555 1.0285h -0.612Z m 1.4365 -1.53c 0 -0.697 -0.425 -0.8075 -0.8755 -0.8075c -0.4165 0 -0.561 0.085 -0.561 0.3825v 1.258h 0.6035c 0.6375 0 0.833 -0.3825 0.833 -0.833Z "/></symbol><symbol id="gE827826F9D19F2B711A1B9BF40B9D8A0" overflow="visible"><path d="M 0 0m 1.377 2.6095c 0 0.7055 0.0935 0.731 0.527 0.7735c 0.051 0.051 0.051 0.2295 0 0.2805c -0.204 -0.0085 -0.527 -0.017 -0.867 -0.017c -0.3655 0 -0.6545 0.0085 -0.935 0.017c -0.051 -0.051 -0.051 -0.2295 0 -0.2805c 0.5185 -0.034 0.612 -0.068 0.612 -0.7735v -0.3655c 0 -0.799 0.1785 -1.1135 0.969 -1.1135c 0.5355 0 0.9605 0.306 1.309 0.561v -0.6545c 0 -0.7055 -0.0935 -0.731 -0.612 -0.7735c -0.051 -0.051 -0.051 -0.2295 0 -0.2805c 0.2805 0.0085 0.578 0.017 0.952 0.017c 0.3655 0 0.68 -0.0085 0.952 -0.017c 0.051 0.051 0.051 0.2295 0 0.2805c -0.5185 0.034 -0.612 0.068 -0.612 0.7735v 1.5725c 0 0.7055 0.0935 0.731 0.612 0.7735c 0.051 0.051 0.051 0.2295 0 0.2805c -0.289 -0.0085 -0.578 -0.017 -0.952 -0.017c -0.3315 0 -0.6715 0.0085 -0.867 0.017c -0.051 -0.051 -0.051 -0.2295 0 -0.2805c 0.4335 -0.034 0.527 -0.068 0.527 -0.7735v -0.612c -0.289 -0.255 -0.595 -0.4845 -1.037 -0.4845c -0.5525 0 -0.578 0.289 -0.578 0.952Z "/></symbol><symbol id="g1EEFC323E4FEBE7654D5CC1583F61AF4" overflow="visible"><path d="M 0 0m 3.383 0.7735c -0.034 0.0765 -0.102 0.1105 -0.1785 0.119c -0.289 -0.374 -0.6545 -0.561 -1.02 -0.561c -0.6205 0 -1.139 0.629 -1.139 1.6235c 0 0.935 0.408 1.496 0.969 1.496c 0.5015 0 0.5695 -0.2975 0.6035 -0.595c 0.0255 -0.2295 0.1445 -0.306 0.323 -0.306c 0.1785 0 0.4165 0.1105 0.4165 0.374c 0 0.4675 -0.4845 0.8075 -1.3005 0.8075c -0.8415 0 -1.7425 -0.7565 -1.7425 -1.9635c 0 -1.0965 0.612 -1.853 1.683 -1.853c 0.51 0 0.9605 0.1615 1.3855 0.8585Z "/></symbol><symbol id="g3EDD64AE7B5A40E8FE9DD75D51E8EE8A" overflow="visible"><path d="M 0 0m 1.547 1.037c 0 -0.7055 -0.0935 -0.748 -0.612 -0.7735c -0.051 -0.051 -0.051 -0.2295 0 -0.2805c 0.3315 0.0085 0.6715 0.017 0.952 0.017c 0.289 0 0.6205 -0.0085 0.9435 -0.017c 0.051 0.051 0.051 0.2295 0 0.2805c -0.5185 0.0255 -0.612 0.068 -0.612 0.7735v 2.295h 0.1445c 0.6885 0 0.8245 -0.238 0.969 -0.9265c 0.1105 0 0.221 0.034 0.221 0.034c -0.051 0.391 -0.085 0.765 -0.0935 1.258c -0.1955 -0.017 -0.833 -0.051 -1.258 -0.051h -0.6375c -0.425 0 -0.901 0.0255 -1.241 0.051c -0.0085 -0.493 -0.0425 -0.867 -0.102 -1.258c 0 0 0.119 -0.034 0.2295 -0.034c 0.1445 0.6885 0.272 0.9265 0.969 0.9265h 0.1275Z "/></symbol><symbol id="gA501B866130BB2CA150759E9628F05FB" overflow="visible"><path d="M 0 0m 3.281 0c 0 0 0.663 -0.0085 0.833 -0.017c 0.051 0.051 0.051 0.2295 0 0.2805c -0.3315 0.017 -0.3995 0.085 -0.544 0.357l -0.3825 0.7225c -0.2125 0.3995 -0.51 0.6035 -0.9945 0.6035v 0.0255c 0.3315 0.0935 0.476 0.391 0.6035 0.731c 0.102 0.2635 0.204 0.425 0.3825 0.425c 0.0765 0 0.1445 -0.0255 0.1955 -0.0595c 0.051 -0.034 0.1445 -0.0595 0.255 -0.0595c 0.187 0 0.34 0.1615 0.34 0.3315c 0 0.187 -0.204 0.3825 -0.4845 0.3825c -0.493 0 -0.7225 -0.459 -0.884 -0.8585c -0.187 -0.4675 -0.4165 -0.7905 -1.02 -0.7905v 0.5355c 0 0.7055 0.0935 0.731 0.527 0.7735c 0.051 0.051 0.051 0.2295 0 0.2805c -0.204 -0.0085 -0.527 -0.017 -0.867 -0.017c -0.3655 0 -0.663 0.0085 -0.9435 0.017c -0.051 -0.051 -0.051 -0.2295 0 -0.2805c 0.5185 -0.034 0.612 -0.068 0.612 -0.7735v -1.5725c 0 -0.7055 -0.0935 -0.731 -0.612 -0.7735c -0.051 -0.051 -0.051 -0.2295 0 -0.2805c 0.2805 0.0085 0.578 0.017 0.952 0.017c 0.3315 0 0.6715 -0.0085 0.8585 -0.017c 0.051 0.051 0.051 0.2295 0 0.2805c -0.4335 0.034 -0.527 0.068 -0.527 0.7735v 0.7395c 0.578 -0.034 0.731 -0.2635 0.884 -0.578l 0.3655 -0.765c 0.1105 -0.2295 0.2805 -0.425 0.4505 -0.4335Z "/></symbol><symbol id="gF931FC691828778A920607CF18B9C32A" overflow="visible"><path d="M 0 0m 2.4905 0.408c 0.051 -0.2635 0.1445 -0.493 0.5695 -0.493c 0.323 0 0.629 0.1445 0.8075 0.3145c -0.017 0.102 -0.051 0.1785 -0.1445 0.2295c -0.0595 -0.051 -0.204 -0.136 -0.3145 -0.136c -0.2465 0 -0.255 0.3315 -0.255 0.7225v 1.2495c 0 1.207 -0.663 1.4365 -1.2835 1.4365c -0.697 0 -1.4025 -0.459 -1.4025 -0.9435c 0 -0.204 0.102 -0.306 0.2975 -0.306c 0.2465 0 0.3995 0.1785 0.3995 0.289c 0 0.0595 -0.0085 0.119 -0.0255 0.153c -0.0085 0.0255 -0.017 0.0765 -0.017 0.17c 0 0.2635 0.357 0.357 0.68 0.357c 0.289 0 0.6885 -0.1445 0.6885 -1.105c 0 -0.0595 -0.0255 -0.0935 -0.051 -0.102l -0.731 -0.1785c -0.816 -0.204 -1.4025 -0.6545 -1.4025 -1.2325c 0 -0.697 0.476 -0.918 1.071 -0.918c 0.2975 0 0.5525 0.068 0.9265 0.357l 0.17 0.136Z m 0 1.5725v -1.122c 0 -0.1105 -0.051 -0.17 -0.119 -0.221c -0.221 -0.1785 -0.51 -0.374 -0.748 -0.374c -0.425 0 -0.612 0.34 -0.612 0.6035c 0 0.3825 0.1785 0.7735 0.8075 0.935Z "/></symbol><symbol id="g914956D68D3156A3A1E09D87B27DCE8" overflow="visible"><path d="M 0 0m 1.368 0.0285l 1.0545 -0.0285v 0.3705c -0.342 0 -0.551 0.0095 -0.6175 0.0475c -0.0665 0.038 -0.095 0.152 -0.095 0.3325v 5.8425l -1.3965 -0.1045v -0.361c 0.3325 0 0.5415 -0.0285 0.608 -0.0855c 0.0665 -0.057 0.1045 -0.19 0.1045 -0.4085v -4.883c 0 -0.1805 -0.0285 -0.2945 -0.095 -0.3325c -0.0665 -0.038 -0.2755 -0.0475 -0.6175 -0.0475v -0.3705Z "/></symbol><symbol id="g22F6F1E7BD78974BD412E2736D59A338" overflow="visible"><path d="M 0 0m 2.983 3.9235c 0.4275 0 0.646 -0.3325 0.646 -1.007v -2.166c 0 -0.1805 -0.0285 -0.2945 -0.095 -0.3325c -0.0665 -0.038 -0.2755 -0.057 -0.627 -0.057v -0.361l 1.0925 0.0285l 1.083 -0.0285v 0.361c -0.304 0 -0.5035 0.0095 -0.5985 0.038c -0.095 0.0285 -0.133 0.095 -0.133 0.209v 1.7765c 0 0.4465 -0.0095 0.76 -0.038 0.9405c -0.095 0.5795 -0.5225 0.874 -1.273 0.874c -0.5985 0 -1.045 -0.285 -1.3395 -0.855v 0.855l -1.3965 -0.1045v -0.361c 0.342 0 0.551 -0.0285 0.627 -0.0855c 0.076 -0.057 0.1045 -0.1805 0.1045 -0.399v -2.4985c 0 -0.1805 -0.038 -0.2945 -0.1045 -0.3325c -0.0665 -0.038 -0.2755 -0.057 -0.627 -0.057v -0.361l 1.0925 0.0285l 1.083 -0.0285v 0.361c -0.3515 0 -0.551 0.019 -0.6175 0.057c -0.0665 0.038 -0.1045 0.152 -0.1045 0.3325v 1.71c 0 0.7695 0.4845 1.463 1.2255 1.463Z "/></symbol><symbol id="g1EBFCB518258C4B1CE79CF5CD6F2CDA9" overflow="visible"><path d="M 0 0m 3.021 -2.356c 0.0855 0 0.133 0.0475 0.133 0.133c 0 0.0285 -0.019 0.0665 -0.0475 0.1045c -0.494 0.38 -0.893 1.007 -1.1875 1.8715c -0.2565 0.7505 -0.3895 1.4915 -0.3895 2.223v 0.798c 0 0.7315 0.133 1.4725 0.3895 2.223c 0.2945 0.8645 0.6935 1.4915 1.1875 1.8715c 0.0285 0.0285 0.0475 0.0665 0.0475 0.1045c 0 0.0855 -0.0475 0.133 -0.133 0.133c -0.0095 0 -0.038 -0.0095 -0.0665 -0.0285c -0.57 -0.437 -1.045 -1.083 -1.4345 -1.9475c -0.3705 -0.8265 -0.5605 -1.6055 -0.5605 -2.356v -0.798c 0 -0.7505 0.19 -1.5295 0.5605 -2.356c 0.3895 -0.8645 0.8645 -1.5105 1.4345 -1.9475c 0.0285 -0.019 0.057 -0.0285 0.0665 -0.0285Z "/></symbol><symbol id="gE857CA6BF0DEB6F693A763FA4844BD28" overflow="visible"><path d="M 0 0m 2.5555 6.327c -0.3895 -0.399 -0.9595 -0.5985 -1.71 -0.5985v -0.3705c 0.494 0 0.9025 0.076 1.216 0.228v -4.807c 0 -0.171 -0.038 -0.285 -0.1235 -0.3325c -0.0855 -0.0475 -0.323 -0.076 -0.703 -0.076h -0.3325v -0.3705c 0.2375 0.019 0.7505 0.0285 1.539 0.0285c 0.7885 0 1.3015 -0.0095 1.539 -0.0285v 0.3705h -0.3325c -0.3895 0 -0.627 0.0285 -0.703 0.076c -0.076 0.0475 -0.1235 0.1615 -0.1235 0.3325v 5.263c 0 0.228 -0.019 0.285 -0.266 0.285Z "/></symbol><symbol id="gB72B4F83B5B617FC110DC392B5C9A1AE" overflow="visible"><path d="M 0 0m 4.218 6.821c 0.0095 0.019 0.0095 0.0475 0.0095 0.076c 0 0.152 -0.076 0.228 -0.228 0.228c -0.1045 0 -0.171 -0.0475 -0.209 -0.152l -3.249 -9.044c -0.0095 -0.019 -0.0095 -0.0475 -0.0095 -0.076c 0 -0.152 0.076 -0.228 0.228 -0.228c 0.1045 0 0.171 0.0475 0.209 0.152Z "/></symbol><symbol id="g9F67C973F850ED3CE86776B53F5E0CE6" overflow="visible"><path d="M 0 0m 4.0755 3.7335c 0 0.114 -0.1235 0.2375 -0.3895 0.3705c -0.266 0.133 -0.551 0.1995 -0.8455 0.1995c -0.4655 0 -0.9215 -0.114 -1.349 -0.3325c -0.513 -0.266 -0.7695 -0.6175 -0.7695 -1.045c 0 -0.247 0.114 -0.4655 0.342 -0.6555c -0.3895 -0.2375 -0.817 -0.703 -0.817 -1.2635c 0 -0.779 0.741 -1.216 1.558 -1.216c 0.4655 0 0.855 0.1045 1.1685 0.304c 0.4085 0.2565 0.6175 0.494 0.6175 0.6935c 0 0.0855 -0.0475 0.133 -0.1425 0.133c -0.0475 0 -0.0855 -0.0285 -0.1235 -0.0855c -0.2375 -0.418 -0.608 -0.5415 -1.4345 -0.5415c -0.2185 0 -0.4275 0.019 -0.6175 0.057c -0.3515 0.0665 -0.7125 0.323 -0.7125 0.7125c 0 0.4655 0.437 0.874 0.798 1.045c 0.209 -0.0855 0.475 -0.1235 0.798 -0.1235c 0.5225 0 0.7885 0.114 0.7885 0.3325c 0 0.19 -0.2375 0.285 -0.7125 0.285c -0.323 0 -0.608 -0.057 -0.8645 -0.171c -0.228 0.1235 -0.342 0.285 -0.342 0.494c 0 0.2945 0.228 0.532 0.6745 0.6935c 0.3325 0.1235 0.684 0.1805 1.045 0.1805c 0.3135 0 0.5985 -0.0855 0.836 -0.2565c 0.095 -0.0665 0.1615 -0.095 0.209 -0.095c 0.1425 0 0.285 0.1425 0.285 0.285Z m -1.843 -1.406c 0.1045 0 0.1995 -0.0095 0.2945 -0.0285c -0.095 -0.019 -0.2185 -0.0285 -0.3705 -0.0285c -0.1235 0 -0.2375 0 -0.323 0.0095c 0.1235 0.0285 0.2565 0.0475 0.399 0.0475Z "/></symbol><symbol id="g87ED897F4D302B2F2794ED12E3B4F790" overflow="visible"><path d="M 0 0m 0.741 -2.3275c 0.57 0.437 1.045 1.083 1.4345 1.9475c 0.3705 0.8265 0.5605 1.6055 0.5605 2.356v 0.798c 0 0.7505 -0.19 1.5295 -0.5605 2.356c -0.3895 0.8645 -0.8645 1.5105 -1.4345 1.9475c -0.0285 0.019 -0.057 0.0285 -0.0665 0.0285c -0.0855 0 -0.133 -0.0475 -0.133 -0.133c 0 -0.038 0.019 -0.076 0.0475 -0.1045c 0.494 -0.38 0.893 -1.007 1.1875 -1.8715c 0.2565 -0.7505 0.3895 -1.4915 0.3895 -2.223v -0.798c 0 -0.7315 -0.133 -1.4725 -0.3895 -2.223c -0.2945 -0.8645 -0.6935 -1.4915 -1.1875 -1.8715c -0.0285 -0.038 -0.0475 -0.076 -0.0475 -0.1045c 0 -0.0855 0.0475 -0.133 0.133 -0.133c 0.0095 0 0.038 0.0095 0.0665 0.0285Z "/></symbol><symbol id="g7CE7952E1DB27C3B67FBBB132F3F5D69" overflow="visible"><path d="M 0 0m 8.208 6.4885c -0.1805 0 -0.7695 -0.0285 -0.95 -0.0285c -0.1805 0 -0.779 0.0285 -0.9595 0.0285c -0.1425 0 -0.209 -0.076 -0.209 -0.228c 0 -0.0855 0.0665 -0.133 0.209 -0.1425c 0.399 0 0.5985 -0.1235 0.5985 -0.3705c 0 -0.057 -0.0095 -0.1235 -0.019 -0.19l -1.026 -4.066l -2.0425 4.7975c -0.076 0.1805 -0.095 0.1995 -0.3325 0.1995h -1.2635c -0.228 0 -0.3135 -0.019 -0.3135 -0.228c 0 -0.095 0.1045 -0.1425 0.304 -0.1425c 0.399 0 0.5985 -0.0095 0.608 -0.038l -1.2635 -5.035c -0.0855 -0.3705 -0.304 -0.5795 -0.646 -0.646c -0.247 -0.0285 -0.532 0.0095 -0.532 -0.2565c 0 -0.095 0.057 -0.1425 0.1615 -0.1425c 0.171 0 0.76 0.0285 0.9405 0.0285c 0.1805 0 0.7885 -0.0285 0.969 -0.0285c 0.1425 0 0.209 0.076 0.209 0.228c 0 0.0855 -0.076 0.133 -0.228 0.1425c -0.3895 0.0095 -0.5795 0.133 -0.5795 0.3705c 0 0.0475 0.0095 0.114 0.0285 0.209l 1.2255 4.8545l 2.375 -5.605c 0.057 -0.133 0.133 -0.1995 0.2185 -0.1995c 0.0855 0 0.1425 0.076 0.1805 0.228l 1.3205 5.225c 0.1235 0.4845 0.3895 0.6555 0.9785 0.665c 0.133 0.0095 0.1995 0.0855 0.1995 0.2375c -0.0285 0.0855 -0.038 0.133 -0.1615 0.133Z "/></symbol><symbol id="gBC4B8303896725A26375DB9E4231E234" overflow="visible"><path d="M 0 0m 1.152 0.024l 0.888 -0.024v 0.312c -0.288 0 -0.464 0.008 -0.52 0.04c -0.056 0.032 -0.08 0.128 -0.08 0.28v 4.92l -1.176 -0.088v -0.304c 0.28 0 0.456 -0.024 0.512 -0.072c 0.056 -0.048 0.088 -0.16 0.088 -0.344v -4.112c 0 -0.152 -0.024 -0.248 -0.08 -0.28c -0.056 -0.032 -0.232 -0.04 -0.52 -0.04v -0.312Z "/></symbol><symbol id="g44552E6889D3E74D674B3599B3F63EAD" overflow="visible"><path d="M 0 0m 2.512 3.304c 0.36 0 0.544 -0.28 0.544 -0.848v -1.824c 0 -0.152 -0.024 -0.248 -0.08 -0.28c -0.056 -0.032 -0.232 -0.048 -0.528 -0.048v -0.304l 0.92 0.024l 0.912 -0.024v 0.304c -0.256 0 -0.424 0.008 -0.504 0.032c -0.08 0.024 -0.112 0.08 -0.112 0.176v 1.496c 0 0.376 -0.008 0.64 -0.032 0.792c -0.08 0.488 -0.44 0.736 -1.072 0.736c -0.504 0 -0.88 -0.24 -1.128 -0.72v 0.72l -1.176 -0.088v -0.304c 0.288 0 0.464 -0.024 0.528 -0.072c 0.064 -0.048 0.088 -0.152 0.088 -0.336v -2.104c 0 -0.152 -0.032 -0.248 -0.088 -0.28c -0.056 -0.032 -0.232 -0.048 -0.528 -0.048v -0.304l 0.92 0.024l 0.912 -0.024v 0.304c -0.296 0 -0.464 0.016 -0.52 0.048c -0.056 0.032 -0.088 0.128 -0.088 0.28v 1.44c 0 0.648 0.408 1.232 1.032 1.232Z "/></symbol><symbol id="g629B7864608344627E69514CDD20525D" overflow="visible"><path d="M 0 0m 6.912 5.464c -0.152 0 -0.648 -0.024 -0.8 -0.024c -0.152 0 -0.656 0.024 -0.808 0.024c -0.12 0 -0.176 -0.064 -0.176 -0.192c 0 -0.072 0.056 -0.112 0.176 -0.12c 0.336 0 0.504 -0.104 0.504 -0.312c 0 -0.048 -0.008 -0.104 -0.016 -0.16l -0.864 -3.424l -1.72 4.04c -0.064 0.152 -0.08 0.168 -0.28 0.168h -1.064c -0.192 0 -0.264 -0.016 -0.264 -0.192c 0 -0.08 0.088 -0.12 0.256 -0.12c 0.336 0 0.504 -0.008 0.512 -0.032l -1.064 -4.24c -0.072 -0.312 -0.256 -0.488 -0.544 -0.544c -0.208 -0.024 -0.448 0.008 -0.448 -0.216c 0 -0.08 0.048 -0.12 0.136 -0.12c 0.144 0 0.64 0.024 0.792 0.024c 0.152 0 0.664 -0.024 0.816 -0.024c 0.12 0 0.176 0.064 0.176 0.192c 0 0.072 -0.064 0.112 -0.192 0.12c -0.328 0.008 -0.488 0.112 -0.488 0.312c 0 0.04 0.008 0.096 0.024 0.176l 1.032 4.088l 2 -4.72c 0.048 -0.112 0.112 -0.168 0.184 -0.168c 0.072 0 0.12 0.064 0.152 0.192l 1.112 4.4c 0.104 0.408 0.328 0.552 0.824 0.56c 0.112 0.008 0.168 0.072 0.168 0.2c -0.024 0.072 -0.032 0.112 -0.136 0.112Z "/></symbol><symbol id="g261E37EE47BA4E21BD784007FD9478E8" overflow="visible"><path d="M 0 0m 1.6968 3.7184c -0.2408 -0.2352 -0.5992 -0.3528 -1.0864 -0.3528v -0.2464c 0.3304 0 0.5936 0.0504 0.7952 0.1456v -2.7888c 0 -0.0728 -0.0056 -0.1176 -0.0224 -0.14c -0.028 -0.0616 -0.196 -0.0952 -0.504 -0.0952h -0.2296v -0.2408l 0.9968 0.0224l 1.0024 -0.0224v 0.2408h -0.2296c -0.308 0 -0.476 0.0336 -0.5096 0.0952c -0.0112 0.0224 -0.0168 0.0672 -0.0168 0.14v 3.0632c 0 0.1512 -0.0224 0.1792 -0.196 0.1792Z "/></symbol><symbol id="g22F47D78C3C958CAF0739D54D7624B2D" overflow="visible"><path d="M 0 0m 0.6664 2.3744c 0.1792 0 0.3136 0.1344 0.3136 0.3136c 0 0.2016 -0.1064 0.308 -0.3136 0.3136c 0.1232 0.2632 0.4032 0.476 0.7672 0.476c 0.4928 0 0.8176 -0.3696 0.8176 -0.8624c 0 -0.2688 -0.0952 -0.5264 -0.2912 -0.7784c -0.0952 -0.1288 -0.168 -0.2184 -0.2184 -0.2688l -1.3272 -1.316c -0.0728 -0.0672 -0.0616 -0.084 -0.0616 -0.252h 2.3072l 0.1736 1.0528h -0.2352c -0.0392 -0.2968 -0.084 -0.4704 -0.1344 -0.5096c -0.028 -0.0168 -0.2016 -0.028 -0.532 -0.028h -0.952c 0.3752 0.3304 0.7224 0.6272 1.0528 0.8904c 0.252 0.196 0.4312 0.3696 0.5432 0.5208c 0.168 0.2184 0.252 0.448 0.252 0.6888c 0 0.3472 -0.1344 0.6216 -0.4088 0.8232c -0.2408 0.1848 -0.5432 0.28 -0.9016 0.28c -0.308 0 -0.5712 -0.0896 -0.8008 -0.2688c -0.2408 -0.196 -0.364 -0.4424 -0.364 -0.7448c 0 -0.1904 0.14 -0.3304 0.3136 -0.3304Z "/></symbol><symbol id="g111F480562FE960BC5F50C637F145B12" overflow="visible"><path d="M 0 0m 4.5505 2.9165c 0 0.7885 0.1045 0.817 0.684 0.8645c 0.057 0.057 0.057 0.2565 0 0.3135c -0.3325 -0.019 -0.7505 -0.019 -1.064 -0.019c -0.266 0 -0.646 0.0095 -1.0165 0.019c -0.057 -0.057 -0.057 -0.2565 0 -0.3135c 0.5795 -0.038 0.646 -0.076 0.646 -0.8645v -0.6175h -2.033v 0.6175c 0 0.7885 0.0665 0.817 0.646 0.8645c 0.057 0.057 0.057 0.2565 0 0.3135c -0.361 -0.0095 -0.722 -0.019 -1.026 -0.019c -0.285 0 -0.6745 0.0095 -1.0545 0.019c -0.057 -0.057 -0.057 -0.2565 0 -0.3135c 0.5795 -0.038 0.684 -0.076 0.684 -0.8645v -1.7575c 0 -0.7885 -0.1045 -0.817 -0.684 -0.8645c -0.057 -0.057 -0.057 -0.2565 0 -0.3135c 0.38 0.0095 0.76 0.019 1.064 0.019c 0.304 0 0.6745 -0.0095 1.0165 -0.019c 0.057 0.057 0.057 0.2565 0 0.3135c -0.5795 0.038 -0.646 0.076 -0.646 0.8645v 0.8265h 2.033v -0.8265c 0 -0.7885 -0.0665 -0.817 -0.646 -0.8645c -0.057 -0.057 -0.057 -0.2565 0 -0.3135c 0.342 0.0095 0.6935 0.019 1.026 0.019c 0.285 0 0.684 -0.0095 1.0545 -0.019c 0.057 0.057 0.057 0.2565 0 0.3135c -0.5795 0.038 -0.684 0.076 -0.684 0.8645Z "/></symbol><symbol id="g30F02AEBABA7D40FC17FCA43D8EB3DAA" overflow="visible"><path d="M 0 0m 2.7835 0.456c 0.057 -0.2945 0.1615 -0.551 0.6365 -0.551c 0.361 0 0.703 0.1615 0.9025 0.3515c -0.019 0.114 -0.057 0.1995 -0.1615 0.2565c -0.0665 -0.057 -0.228 -0.152 -0.3515 -0.152c -0.2755 0 -0.285 0.3705 -0.285 0.8075v 1.3965c 0 1.349 -0.741 1.6055 -1.4345 1.6055c -0.779 0 -1.5675 -0.513 -1.5675 -1.0545c 0 -0.228 0.114 -0.342 0.3325 -0.342c 0.2755 0 0.4465 0.1995 0.4465 0.323c 0 0.0665 -0.0095 0.133 -0.0285 0.171c -0.0095 0.0285 -0.019 0.0855 -0.019 0.19c 0 0.2945 0.399 0.399 0.76 0.399c 0.323 0 0.7695 -0.1615 0.7695 -1.235c 0 -0.0665 -0.0285 -0.1045 -0.057 -0.114l -0.817 -0.1995c -0.912 -0.228 -1.5675 -0.7315 -1.5675 -1.3775c 0 -0.779 0.532 -1.026 1.197 -1.026c 0.3325 0 0.6175 0.076 1.0355 0.399l 0.19 0.152Z m 0 1.7575v -1.254c 0 -0.1235 -0.057 -0.19 -0.133 -0.247c -0.247 -0.1995 -0.57 -0.418 -0.836 -0.418c -0.475 0 -0.684 0.38 -0.684 0.6745c 0 0.4275 0.1995 0.8645 0.9025 1.045Z "/></symbol><symbol id="gDBB5E8F5FC9EB2F5349B9D49D6966C24" overflow="visible"><path d="M 0 0m 3.667 0c 0 0 0.741 -0.0095 0.931 -0.019c 0.057 0.057 0.057 0.2565 0 0.3135c -0.3705 0.019 -0.4465 0.095 -0.608 0.399l -0.4275 0.8075c -0.2375 0.4465 -0.57 0.6745 -1.1115 0.6745v 0.0285c 0.3705 0.1045 0.532 0.437 0.6745 0.817c 0.114 0.2945 0.228 0.475 0.4275 0.475c 0.0855 0 0.1615 -0.0285 0.2185 -0.0665c 0.057 -0.038 0.1615 -0.0665 0.285 -0.0665c 0.209 0 0.38 0.1805 0.38 0.3705c 0 0.209 -0.228 0.4275 -0.5415 0.4275c -0.551 0 -0.8075 -0.513 -0.988 -0.9595c -0.209 -0.5225 -0.4655 -0.8835 -1.14 -0.8835v 0.5985c 0 0.7885 0.1045 0.817 0.589 0.8645c 0.057 0.057 0.057 0.2565 0 0.3135c -0.228 -0.0095 -0.589 -0.019 -0.969 -0.019c -0.4085 0 -0.741 0.0095 -1.0545 0.019c -0.057 -0.057 -0.057 -0.2565 0 -0.3135c 0.5795 -0.038 0.684 -0.076 0.684 -0.8645v -1.7575c 0 -0.7885 -0.1045 -0.817 -0.684 -0.8645c -0.057 -0.057 -0.057 -0.2565 0 -0.3135c 0.3135 0.0095 0.646 0.019 1.064 0.019c 0.3705 0 0.7505 -0.0095 0.9595 -0.019c 0.057 0.057 0.057 0.2565 0 0.3135c -0.4845 0.038 -0.589 0.076 -0.589 0.8645v 0.8265c 0.646 -0.038 0.817 -0.2945 0.988 -0.646l 0.4085 -0.855c 0.1235 -0.2565 0.3135 -0.475 0.5035 -0.4845Z "/></symbol><symbol id="gC86282117E7C9F65658F6DDAC49FC51A" overflow="visible"><path d="M 0 0m 3.971 1.159v 1.7575c 0 0.779 0.1235 0.8265 0.646 0.8645c 0.057 0.057 0.057 0.2565 0 0.3135c -0.285 -0.0095 -0.646 -0.019 -1.026 -0.019h -1.7955c -0.3135 0 -0.684 0.0095 -0.969 0.019c -0.057 -0.057 -0.057 -0.2565 0 -0.3135c 0.6745 -0.0475 0.7695 -0.1045 0.7695 -1.1305c 0 -0.9975 -0.076 -1.52 -0.209 -1.9095c -0.1235 -0.342 -0.285 -0.4655 -0.4465 -0.4655c -0.1235 0 -0.1615 0.076 -0.1805 0.1995c -0.0285 0.1805 -0.0855 0.361 -0.3515 0.361c -0.2375 0 -0.3705 -0.19 -0.3705 -0.399c 0 -0.2945 0.266 -0.551 0.703 -0.551c 0.4845 0 0.7505 0.247 0.969 0.76c 0.19 0.456 0.247 1.425 0.247 2.071c 0 0.741 0.0285 0.988 0.4085 0.988h 0.4275c 0.361 0 0.4275 -0.228 0.4275 -0.551v -1.995c 0 -0.779 -0.095 -0.8265 -0.589 -0.8645c -0.0475 -0.057 -0.0475 -0.2565 0 -0.3135c 0.2375 0.0095 0.589 0.019 0.969 0.019c 0.38 0 0.8075 -0.0095 1.0735 -0.019c 0.0475 0.057 0.0475 0.2565 0 0.3135c -0.6175 0.038 -0.703 0.0855 -0.703 0.8645Z "/></symbol><symbol id="gC110FFC20529D78AB6B9724BF2D3193A" overflow="visible"><path d="M 0 0m 0.3895 1.9475c 0 -0.969 0.646 -2.0425 1.995 -2.0425c 0.608 0 1.0735 0.2185 1.3965 0.532c 0.4275 0.418 0.6175 1.0165 0.6175 1.596c 0 0.988 -0.5415 2.1375 -1.995 2.1375c -0.627 0 -1.14 -0.2565 -1.4915 -0.665c -0.342 -0.4085 -0.5225 -0.9595 -0.5225 -1.558Z m 1.8715 1.8905c 0.817 0 1.3205 -0.741 1.3205 -2.109c 0 -1.197 -0.6175 -1.4915 -1.064 -1.4915c -0.988 0 -1.311 1.197 -1.311 1.9285c 0 0.8265 0.1995 1.672 1.0545 1.672Z "/></symbol><symbol id="g527CAB0659B70EE9D8AC978D0844E68E" overflow="visible"><path d="M 0 0m 6.631 3.4865h -5.871c -0.152 0 -0.228 -0.076 -0.228 -0.2185c 0 -0.1425 0.076 -0.2185 0.228 -0.2185h 5.871c 0.152 0 0.228 0.076 0.228 0.2185c 0 0.114 -0.1045 0.2185 -0.228 0.2185Z m 0 -1.786h -5.871c -0.152 0 -0.228 -0.076 -0.228 -0.2185c 0 -0.1425 0.076 -0.2185 0.228 -0.2185h 5.871c 0.152 0 0.228 0.076 0.228 0.2185c 0 0.1235 -0.1045 0.2185 -0.228 0.2185Z "/></symbol><symbol id="g2BBA577A8DD9EA3002D8B107D55FED08" overflow="visible"><path d="M 0 0m 5.3865 6.4885h -3.154c -0.2185 0 -0.323 -0.0095 -0.323 -0.2185c 0 -0.1045 0.1045 -0.152 0.3135 -0.152c 0.19 0 0.57 0.0285 0.57 -0.1235c 0 -0.019 -0.0095 -0.076 -0.038 -0.171l -1.254 -5.0445c -0.0475 -0.209 -0.1425 -0.3325 -0.285 -0.38c -0.0665 -0.019 -0.2375 -0.0285 -0.532 -0.0285c -0.209 0 -0.304 -0.019 -0.304 -0.2185c 0 -0.1045 0.1045 -0.152 0.304 -0.152h 3.1065c 0.646 0 1.2635 0.19 1.862 0.5795c 1.0165 0.6555 1.9855 1.938 1.9855 3.496c 0 1.406 -0.8645 2.413 -2.2515 2.413Z m 1.3585 -2.0615c 0 -1.0735 -0.4845 -2.375 -0.9785 -3.0115c -0.5415 -0.6935 -1.254 -1.045 -2.147 -1.045h -1.0545c -0.1045 0 -0.171 0 -0.209 0.0095c -0.057 0 -0.0855 0.019 -0.0855 0.0475c 0 0.019 0.019 0.0855 0.0475 0.209l 1.2825 5.1585c 0.0855 0.3135 0.076 0.323 0.475 0.323h 1.007c 1.064 0 1.6625 -0.627 1.6625 -1.691Z "/></symbol><symbol id="g71D81E84C847076CE887D3A5D7C0718B" overflow="visible"><path d="M 0 0m 5.0295 3.2235c 0 0.8715 0.1155 0.903 0.756 0.9555c 0.063 0.063 0.063 0.2835 0 0.3465c -0.3675 -0.021 -0.8295 -0.021 -1.176 -0.021c -0.294 0 -0.714 0.0105 -1.1235 0.021c -0.063 -0.063 -0.063 -0.2835 0 -0.3465c 0.6405 -0.042 0.714 -0.084 0.714 -0.9555v -0.6825h -2.247v 0.6825c 0 0.8715 0.0735 0.903 0.714 0.9555c 0.063 0.063 0.063 0.2835 0 0.3465c -0.399 -0.0105 -0.798 -0.021 -1.134 -0.021c -0.315 0 -0.7455 0.0105 -1.1655 0.021c -0.063 -0.063 -0.063 -0.2835 0 -0.3465c 0.6405 -0.042 0.756 -0.084 0.756 -0.9555v -1.9425c 0 -0.8715 -0.1155 -0.903 -0.756 -0.9555c -0.063 -0.063 -0.063 -0.2835 0 -0.3465c 0.42 0.0105 0.84 0.021 1.176 0.021c 0.336 0 0.7455 -0.0105 1.1235 -0.021c 0.063 0.063 0.063 0.2835 0 0.3465c -0.6405 0.042 -0.714 0.084 -0.714 0.9555v 0.9135h 2.247v -0.9135c 0 -0.8715 -0.0735 -0.903 -0.714 -0.9555c -0.063 -0.063 -0.063 -0.2835 0 -0.3465c 0.378 0.0105 0.7665 0.021 1.134 0.021c 0.315 0 0.756 -0.0105 1.1655 -0.021c 0.063 0.063 0.063 0.2835 0 0.3465c -0.6405 0.042 -0.756 0.084 -0.756 0.9555Z "/></symbol><symbol id="gB9CB8C21641BB9D6945EBC7ED76275C1" overflow="visible"><path d="M 0 0m 3.0765 0.504c 0.063 -0.3255 0.1785 -0.609 0.7035 -0.609c 0.399 0 0.777 0.1785 0.9975 0.3885c -0.021 0.126 -0.063 0.2205 -0.1785 0.2835c -0.0735 -0.063 -0.252 -0.168 -0.3885 -0.168c -0.3045 0 -0.315 0.4095 -0.315 0.8925v 1.5435c 0 1.491 -0.819 1.7745 -1.5855 1.7745c -0.861 0 -1.7325 -0.567 -1.7325 -1.1655c 0 -0.252 0.126 -0.378 0.3675 -0.378c 0.3045 0 0.4935 0.2205 0.4935 0.357c 0 0.0735 -0.0105 0.147 -0.0315 0.189c -0.0105 0.0315 -0.021 0.0945 -0.021 0.21c 0 0.3255 0.441 0.441 0.84 0.441c 0.357 0 0.8505 -0.1785 0.8505 -1.365c 0 -0.0735 -0.0315 -0.1155 -0.063 -0.126l -0.903 -0.2205c -1.008 -0.252 -1.7325 -0.8085 -1.7325 -1.5225c 0 -0.861 0.588 -1.134 1.323 -1.134c 0.3675 0 0.6825 0.084 1.1445 0.441l 0.21 0.168Z m 0 1.9425v -1.386c 0 -0.1365 -0.063 -0.21 -0.147 -0.273c -0.273 -0.2205 -0.63 -0.462 -0.924 -0.462c -0.525 0 -0.756 0.42 -0.756 0.7455c 0 0.4725 0.2205 0.9555 0.9975 1.155Z "/></symbol><symbol id="g3CD763AC845B0CB818F9BD746791AD3E" overflow="visible"><path d="M 0 0m 4.5885 4.5045h -2.982c -0.42 0 -0.819 0.0105 -1.134 0.021c -0.063 -0.063 -0.063 -0.2835 0 -0.3465c 0.5775 -0.042 0.714 -0.0945 0.714 -0.9555v -1.9425c 0 -0.861 -0.1365 -0.9135 -0.819 -0.9555c -0.063 -0.063 -0.063 -0.2835 0 -0.3465c 0.315 0.0105 0.819 0.021 1.239 0.021c 0.42 0 0.735 -0.0105 1.05 -0.021c 0.063 0.063 0.063 0.2835 0 0.3465c -0.5355 0.0525 -0.6405 0.0945 -0.6405 0.9555v 2.2785c 0 0.3255 0.0315 0.5355 0.441 0.5355h 1.2705c 0.3885 0 0.4515 -0.1155 0.4515 -0.5355v -2.2785c 0 -0.861 -0.105 -0.9135 -0.651 -0.9555c -0.0525 -0.063 -0.0525 -0.2835 0 -0.3465c 0.2625 0.0105 0.651 0.021 1.071 0.021c 0.42 0 0.8925 -0.0105 1.1865 -0.021c 0.0525 0.063 0.0525 0.2835 0 0.3465c -0.6825 0.042 -0.777 0.0945 -0.777 0.9555v 1.9425c 0 0.861 0.1365 0.9135 0.714 0.9555c 0.063 0.063 0.063 0.2835 0 0.3465c -0.315 -0.0105 -0.714 -0.021 -1.134 -0.021Z "/></symbol><symbol id="g66D110B88773733650ADD996D43A4D85" overflow="visible"><path d="M 0 0m 1.638 3.864c -0.0105 0.315 -0.0315 0.588 -0.084 0.693c -0.021 0.0525 -0.042 0.084 -0.126 0.084c -0.294 -0.1155 -0.567 -0.21 -1.2915 -0.3045c -0.021 -0.063 0 -0.231 0.021 -0.294c 0.567 -0.0525 0.6825 -0.105 0.6825 -0.714v -4.4835c 0 -0.8715 -0.1155 -0.924 -0.756 -0.9555c -0.063 -0.063 -0.063 -0.2835 0 -0.3465c 0.3675 0.0105 0.756 0.021 1.176 0.021c 0.42 0 0.924 -0.0105 1.2705 -0.021c 0.063 0.063 0.063 0.2835 0 0.3465c -0.7455 0.042 -0.861 0.084 -0.861 0.9555v 1.134c 0 0.1365 0.042 0.126 0.147 0.084c 0.2625 -0.105 0.5775 -0.168 0.9135 -0.168c 0.588 0 1.113 0.1785 1.5435 0.588c 0.4935 0.483 0.777 1.134 0.777 1.9845c 0 1.113 -0.7875 2.142 -1.8585 2.142c -0.483 0 -1.0185 -0.315 -1.4385 -0.7875c -0.063 -0.063 -0.105 -0.063 -0.1155 0.042Z m 0.1995 -0.3885c 0.273 0.336 0.756 0.651 1.0605 0.651c 0.672 0 1.2495 -0.756 1.2495 -1.9425c 0 -0.861 -0.3045 -1.932 -1.4805 -1.932c -0.189 0 -0.5565 0.0525 -0.7455 0.2205c -0.21 0.189 -0.252 0.252 -0.252 0.63v 1.911c 0 0.2205 0.042 0.315 0.168 0.462Z "/></symbol><symbol id="g804279143320936389B29079930EB467" overflow="visible"><path d="M 0 0m 1.197 0c 0.294 0.0105 0.399 0.2835 0.525 0.6615c 0.273 0.8295 0.5775 1.344 1.1025 1.344h 0.273v -0.7245c 0 -0.8715 -0.1155 -0.903 -0.756 -0.9555c -0.063 -0.063 -0.063 -0.2835 0 -0.3465c 0.3465 0.0105 0.714 0.021 1.176 0.021c 0.4515 0 0.8295 -0.0105 1.1655 -0.021c 0.063 0.063 0.063 0.2835 0 0.3465c -0.6405 0.042 -0.756 0.084 -0.756 0.9555v 1.9425c 0 0.8715 0.1155 0.903 0.756 0.9555c 0.063 0.063 0.063 0.2835 0 0.3465c -0.357 -0.0105 -0.714 -0.021 -1.176 -0.021c -0.357 0 -0.6615 0.021 -0.924 0.021c -1.8375 0 -1.995 -0.756 -1.995 -1.323c 0 -0.6825 0.525 -1.029 1.302 -1.0605c 0.0315 0 0.0315 -0.0315 0.021 -0.042c -0.399 -0.1155 -0.5775 -0.336 -0.756 -0.7245c -0.1155 -0.2415 -0.21 -0.4725 -0.2625 -0.609c -0.1365 -0.357 -0.315 -0.42 -0.7245 -0.441c -0.063 -0.063 -0.063 -0.2835 0 -0.3465c 0.21 0.0105 1.029 0.021 1.029 0.021Z m 0.294 3.3705c 0 0.4935 0.1575 0.8085 1.008 0.8085c 0.4305 0 0.5985 -0.189 0.5985 -0.588v -1.2285h -0.735c -0.63 0 -0.8715 0.483 -0.8715 1.008Z "/></symbol><symbol id="g7DB29D3496F71FB271523E017004D04" overflow="visible"><path d="M 0 0m 1.2285 3.213l -0.063 -1.953c -0.0315 -0.882 -0.189 -0.903 -0.798 -0.9345c -0.063 -0.063 -0.063 -0.2835 0 -0.3465c 0.21 0.0105 0.735 0.021 0.903 0.021c 0.21 0 0.7035 -0.0105 0.9135 -0.021c 0.063 0.063 0.063 0.2835 0 0.3465c -0.5985 0.042 -0.6405 0.147 -0.6195 0.9345l 0.0735 2.5725c 0 0.0945 0.042 0.0945 0.084 0l 1.5225 -3.717c 0.042 -0.0315 0.084 -0.0315 0.1155 0l 1.722 3.7065c 0.0525 0.1155 0.105 0.126 0.105 0l -0.0105 -2.541c 0 -0.8715 -0.0735 -0.903 -0.714 -0.9555c -0.063 -0.063 -0.063 -0.2835 0 -0.3465c 0.378 0.0105 0.7665 0.021 1.134 0.021c 0.315 0 0.7665 -0.0105 1.176 -0.021c 0.063 0.063 0.063 0.2835 0 0.3465c -0.6405 0.042 -0.756 0.084 -0.756 0.9555l -0.021 1.9425c -0.0105 0.8715 0.1155 0.903 0.756 0.9555c 0.063 0.063 0.063 0.2835 0 0.3465c -0.3675 -0.021 -1.386 -0.021 -1.7325 -0.021l -1.3965 -3.003l -0.0525 -0.105l -0.042 0.105l -1.2285 3.003c -0.3465 0 -1.4595 0 -1.827 0.021c -0.063 -0.063 -0.063 -0.2835 0 -0.3465c 0.6405 -0.0525 0.7875 -0.0945 0.756 -0.966Z "/></symbol><symbol id="gEEDDC0AE78A11326E4C21591EDD4EF63" overflow="visible"><path d="M 0 0m 2.079 0.6615c -0.0315 0 -0.0735 0.021 -0.0735 0.126v 2.394c 0 0.8715 0.2205 0.966 0.756 0.9975c 0.063 0.063 0.063 0.2835 0 0.3465c -0.2415 -0.0105 -0.84 -0.021 -1.2285 -0.021c -0.3465 0 -0.7665 0.0105 -1.1655 0.021c -0.063 -0.063 -0.063 -0.2835 0 -0.3465c 0.6405 -0.0315 0.8085 -0.126 0.8085 -0.9975v -1.8585c 0 -0.8715 -0.168 -0.966 -0.8085 -0.9975c -0.063 -0.063 -0.063 -0.2835 0 -0.3465c 0.4095 0.0105 0.8295 0.021 1.1655 0.021c 0.2415 0 0.525 -0.0105 0.6405 -0.021c 0.0525 0.147 0.147 0.357 0.2625 0.567l 1.638 3.2865c 0.0315 0 0.0735 -0.021 0.0735 -0.126v -2.3835c 0 -0.8715 -0.2205 -0.966 -0.756 -0.9975c -0.063 -0.063 -0.063 -0.2835 0 -0.3465c 0.2415 0.0105 0.8085 0.021 1.2285 0.021c 0.3255 0 0.756 -0.0105 1.1655 -0.021c 0.063 0.063 0.063 0.2835 0 0.3465c -0.6405 0.0315 -0.8085 0.126 -0.8085 0.9975v 1.8585c 0 0.8715 0.168 0.966 0.8085 0.9975c 0.063 0.063 0.063 0.2835 0 0.3465c -0.42 -0.0105 -0.84 -0.021 -1.1655 -0.021c -0.231 0 -0.525 0.0105 -0.63 0.021c -0.084 -0.189 -0.1785 -0.4095 -0.273 -0.588Z m 2.2575 5.5335c 0 0.1995 -0.147 0.3465 -0.399 0.3465c -0.189 0 -0.3675 -0.147 -0.3675 -0.3255c 0 -0.0315 0 -0.0525 0.0105 -0.0735c 0.0105 -0.0315 0.0105 -0.063 0.0105 -0.0945c 0 -0.231 -0.2205 -0.441 -0.525 -0.441c -0.315 0 -0.525 0.2205 -0.525 0.4515c 0 0.021 0 0.0525 0.0105 0.084c 0.0105 0.0315 0.0105 0.0525 0.0105 0.084c 0 0.168 -0.126 0.315 -0.357 0.315c -0.2415 0 -0.4095 -0.1575 -0.4095 -0.3465c 0 -0.567 0.5775 -0.9135 1.26 -0.9135c 0.672 0 1.281 0.336 1.281 0.9135Z "/></symbol><symbol id="g6120A1A2271A87AD1F9AE7AA95366B96" overflow="visible"><path d="M 0 0m 0.4515 0.8715c 0 -0.231 0.1365 -0.399 0.357 -0.567c 0.2625 -0.189 0.609 -0.4095 1.4385 -0.4095c 1.05 0 1.869 0.315 1.869 1.3545c 0 0.63 -0.315 1.05 -1.0605 1.176v 0.0315c 0.6405 0.2415 0.8085 0.5355 0.8085 1.0815c 0 0.609 -0.42 1.071 -1.4805 1.071c -0.5565 0 -1.05 -0.1995 -1.617 -0.294l -0.1365 -1.2495c 0.084 -0.042 0.189 -0.0525 0.2835 -0.042c 0.1995 0.609 0.462 1.218 1.344 1.218c 0.5775 0 0.7665 -0.3465 0.7665 -0.7665c 0 -0.4305 -0.0735 -0.9345 -0.7455 -0.9345c -0.1995 0 -0.378 0.063 -0.5775 0.063c -0.0945 0 -0.1995 -0.063 -0.1995 -0.231c 0 -0.168 0.1155 -0.2205 0.21 -0.2205c 0.1995 0 0.315 0.063 0.5775 0.063c 0.777 0 0.924 -0.5355 0.924 -0.9975c 0 -0.6195 -0.231 -0.9555 -0.9765 -0.9555c -0.5985 0 -0.7035 0.2205 -0.882 0.5985c -0.084 0.189 -0.1995 0.336 -0.4725 0.336c -0.189 0 -0.4305 -0.1575 -0.4305 -0.3255Z "/></symbol><symbol id="g42E7AC9271EF550B3DC462A8D9074BEB" overflow="visible"><path d="M 0 0m 4.179 0.9555c -0.042 0.0945 -0.126 0.1365 -0.2205 0.147c -0.357 -0.462 -0.8085 -0.693 -1.26 -0.693c -0.7665 0 -1.407 0.777 -1.407 2.0055c 0 1.155 0.504 1.848 1.197 1.848c 0.6195 0 0.7035 -0.3675 0.7455 -0.735c 0.0315 -0.2835 0.1785 -0.378 0.399 -0.378c 0.2205 0 0.5145 0.1365 0.5145 0.462c 0 0.5775 -0.5985 0.9975 -1.6065 0.9975c -1.0395 0 -2.1525 -0.9345 -2.1525 -2.4255c 0 -1.3545 0.756 -2.289 2.079 -2.289c 0.63 0 1.1865 0.1995 1.7115 1.0605Z "/></symbol><symbol id="g27DEC58C12F66BC18579BCAFE69C73E3" overflow="visible"><path d="M 0 0m 1.953 3.213c 0 0.882 0.1155 0.9135 0.756 0.966c 0.063 0.063 0.063 0.2835 0 0.3465c -0.357 -0.0105 -0.714 -0.021 -1.176 -0.021c -0.4515 0 -0.819 0.0105 -1.1655 0.021c -0.063 -0.063 -0.063 -0.2835 0 -0.3465c 0.6405 -0.042 0.756 -0.084 0.756 -0.9555v -1.9425c 0 -0.8715 -0.1155 -0.903 -0.756 -0.9555c -0.063 -0.063 -0.063 -0.2835 0 -0.3465c 0.3465 0.0105 0.714 0.021 1.176 0.021c 0.4305 0 0.6615 -0.021 1.092 -0.021c 1.2915 0 1.995 0.3255 1.995 1.449c 0 0.987 -0.861 1.2705 -1.9215 1.2705h -0.756Z m 1.7745 -1.89c 0 -0.861 -0.525 -0.9975 -1.0815 -0.9975c -0.5145 0 -0.693 0.105 -0.693 0.4725v 1.554h 0.7455c 0.7875 0 1.029 -0.4725 1.029 -1.029Z "/></symbol><symbol id="g9F773BD62A12471F4F4746B9CFEC117B" overflow="visible"><path d="M 0 0m 5.9535 7.1715h -3.486c -0.2415 0 -0.357 -0.0105 -0.357 -0.2415c 0 -0.1155 0.1155 -0.168 0.3465 -0.168c 0.21 0 0.63 0.0315 0.63 -0.1365c 0 -0.021 -0.0105 -0.084 -0.042 -0.189l -1.386 -5.5755c -0.0525 -0.231 -0.1575 -0.3675 -0.315 -0.42c -0.0735 -0.021 -0.2625 -0.0315 -0.588 -0.0315c -0.231 0 -0.336 -0.021 -0.336 -0.2415c 0 -0.1155 0.1155 -0.168 0.336 -0.168h 3.4335c 0.714 0 1.3965 0.21 2.058 0.6405c 1.1235 0.7245 2.1945 2.142 2.1945 3.864c 0 1.554 -0.9555 2.667 -2.4885 2.667Z m 1.5015 -2.2785c 0 -1.1865 -0.5355 -2.625 -1.0815 -3.3285c -0.5985 -0.7665 -1.386 -1.155 -2.373 -1.155h -1.1655c -0.1155 0 -0.189 0 -0.231 0.0105c -0.063 0 -0.0945 0.021 -0.0945 0.0525c 0 0.021 0.021 0.0945 0.0525 0.231l 1.4175 5.7015c 0.0945 0.3465 0.084 0.357 0.525 0.357h 1.113c 1.176 0 1.8375 -0.693 1.8375 -1.869Z "/></symbol></defs></svg>