<svg viewBox="0 0 277.345 177.442464877" width="277.345pt" height="177.442464877pt" xmlns="http://www.w3.org/2000/svg" xmlns:xlink="http://www.w3.org/1999/xlink" xmlns:h5="http://www.w3.org/1999/xhtml"><path fill="#ffffff" fill-rule="nonzero" d="M 0 0v 177.442464877h 277.345v -177.442464877Z "/><g transform="translate(8 8)"><path fill="none" stroke="#1a1a18" stroke-width="1.4" stroke-linecap="butt" stroke-linejoin="miter" stroke-miterlimit="4" transform="translate(56.971712598 82.087354641)" d="M 0 0m 0 42.519685039v -42.519685039"/><path fill="none" stroke="#1a1a18" stroke-width="1.12" stroke-linecap="butt" stroke-linejoin="miter" stroke-miterlimit="4" transform="translate(41.19931245 56.846238078)" d="M 0 0m 15.772400148 25.241116563l -15.772400148 -25.241116563"/><path fill="none" stroke="#1a1a18" stroke-width="0.896" stroke-linecap="butt" stroke-linejoin="miter" stroke-miterlimit="4" transform="translate(22.473256966 47.712930563)" d="M 0 0m 18.726055484 9.133307515l -18.726055484 -9.133307515"/><path fill="none" stroke="#1a1a18" stroke-width="0.7168" stroke-linecap="butt" stroke-linejoin="miter" stroke-miterlimit="4" transform="translate(7.968899056 47.712930563)" d="M 0 0m 14.50435791 0l -14.50435791 1.524469446"/><path fill="none" stroke="#1a1a18" stroke-width="0.7168" stroke-linecap="butt" stroke-linejoin="miter" stroke-miterlimit="4" transform="translate(13.655922794 35.576911222)" d="M 0 0m 8.817334172 12.136019341l -8.817334172 -12.136019341"/><path fill="none" stroke="#1a1a18" stroke-width="0.896" stroke-linecap="butt" stroke-linejoin="miter" stroke-miterlimit="4" transform="translate(39.704436711 35.468519029)" d="M 0 0m 1.49487574 21.377719049l -1.49487574 -21.377719049"/><path fill="none" stroke="#1a1a18" stroke-width="0.7168" stroke-linecap="butt" stroke-linejoin="miter" stroke-miterlimit="4" transform="translate(30.887102539 23.332499688)" d="M 0 0m 8.817334172 12.136019341l -8.817334172 -12.136019341"/><path fill="none" stroke="#1a1a18" stroke-width="0.7168" stroke-linecap="butt" stroke-linejoin="miter" stroke-miterlimit="4" transform="translate(39.704436711 21.372929828)" d="M 0 0m 0 14.095589202l 6.275760649 -14.095589202"/><path fill="none" stroke="#1a1a18" stroke-width="1.12" stroke-linecap="butt" stroke-linejoin="miter" stroke-miterlimit="4" transform="translate(56.971712598 55.056644082)" d="M 0 0m 0 27.030710559l 14.372483749 -27.030710559"/><path fill="none" stroke="#1a1a18" stroke-width="0.896" stroke-linecap="butt" stroke-linejoin="miter" stroke-miterlimit="4" transform="translate(69.849320608 33.678925033)" d="M 0 0m 1.49487574 21.377719049l -1.49487574 -21.377719049"/><path fill="none" stroke="#1a1a18" stroke-width="0.7168" stroke-linecap="butt" stroke-linejoin="miter" stroke-miterlimit="4" transform="translate(61.031986436 21.542905692)" d="M 0 0m 8.817334172 12.136019341l -8.817334172 -12.136019341"/><path fill="none" stroke="#1a1a18" stroke-width="0.7168" stroke-linecap="butt" stroke-linejoin="miter" stroke-miterlimit="4" transform="translate(69.849320608 19.583335831)" d="M 0 0m 0 14.095589202l 6.275760649 -14.095589202"/><path fill="none" stroke="#1a1a18" stroke-width="0.896" stroke-linecap="butt" stroke-linejoin="miter" stroke-miterlimit="4" transform="translate(71.344196347 42.730799623)" d="M 0 0m 0 12.325844459l 18.273815898 -12.325844459"/><path fill="none" stroke="#1a1a18" stroke-width="0.7168" stroke-linecap="butt" stroke-linejoin="miter" stroke-miterlimit="4" transform="translate(89.618012246 28.635210421)" d="M 0 0m 0 14.095589202l 6.275760649 -14.095589202"/><path fill="none" stroke="#1a1a18" stroke-width="0.7168" stroke-linecap="butt" stroke-linejoin="miter" stroke-miterlimit="4" transform="translate(89.618012246 41.071892416)" d="M 0 0m 0 1.658907207l 15.783447759 -1.658907207"/><path fill="none" transform="translate(27.699212598 135.945622357)" d="M 0 0h 58.545v 7.101h -58.545v -7.101Z "/><g transform="translate(27.699212598 135.945622357)"><g transform="matrix(1 0 0 -1 0 5.922)"><use xlink:href="#g9C9C9262F30302871979B086E3504457" x="0" y="0" fill="#1a1a18" fill-rule="nonzero"/><use xlink:href="#gF7AD5B3248F8366898BA115B8D318C4E" x="4.401" y="0" fill="#1a1a18" fill-rule="nonzero"/><use xlink:href="#gB118266EF18AECCCCEF724ECE6F3D1D3" x="8.514" y="0" fill="#1a1a18" fill-rule="nonzero"/><use xlink:href="#gAE9E23F53692F92B7B295E455DF99330" x="13.257" y="0" fill="#1a1a18" fill-rule="nonzero"/><use xlink:href="#gF7AD5B3248F8366898BA115B8D318C4E" x="17.775" y="0" fill="#1a1a18" fill-rule="nonzero"/><use xlink:href="#gBDFD935577E92FE00C1DBA4B22F07372" x="24.138" y="0" fill="#1a1a18" fill-rule="nonzero"/><use xlink:href="#gD351E21AD091924D522A6D2D6355C932" x="29.331" y="0" fill="#1a1a18" fill-rule="nonzero"/><use xlink:href="#gB118266EF18AECCCCEF724ECE6F3D1D3" x="33.354" y="0" fill="#1a1a18" fill-rule="nonzero"/><use xlink:href="#g6EA5A1981697E2B5E95285C58F7F7AD0" x="38.097" y="0" fill="#1a1a18" fill-rule="nonzero"/><use xlink:href="#gAE9E23F53692F92B7B295E455DF99330" x="43.371" y="0" fill="#1a1a18" fill-rule="nonzero"/><use xlink:href="#g7253BD4F4A12C91ABC7B03558525FA66" x="47.889" y="0" fill="#1a1a18" fill-rule="nonzero"/><use xlink:href="#g82C799C01D06EF19E125C6F4348D75CA" x="52.425" y="0" fill="#1a1a18" fill-rule="nonzero"/></g></g><path fill="none" stroke="#7c7f6a" stroke-width="0.8" stroke-linecap="butt" stroke-linejoin="miter" stroke-miterlimit="4" stroke-dashoffset="0" stroke-dasharray="3 3" transform="translate(83.900846457 25.394441255)" d="M 0 0v 36.850393701h 34.015748031v -36.850393701h -34.015748031Z "/><path fill="none" stroke="#928c7e" stroke-width="0.9" stroke-linecap="butt" stroke-linejoin="miter" stroke-miterlimit="4" transform="translate(127.837854331 56.575543617)" d="M 0 0h 29.8995018"/><path fill="#928c7e" fill-rule="nonzero" stroke="#928c7e" stroke-width="0.9" stroke-linecap="butt" stroke-linejoin="miter" stroke-miterlimit="4" transform="translate(157.737356126 55.512551491)" d="M 0 0m 2.834645669 1.062992126l -2.834645669 1.062992126v -2.125984252l 2.834645669 1.062992126Z "/><path fill="none" transform="translate(124.479728346 42.774323145)" d="M 0 0h 40.732v 7.565h -40.732v -7.565Z "/><g transform="translate(124.479728268 42.774323129)"><g transform="matrix(1 0 0 -1 0 5.593)"><use xlink:href="#g2884EEE83F88BF741DF31D9C41AEE180" x="0" y="0" fill="#827c70" fill-rule="nonzero"/><use xlink:href="#g3D9A67B9902CBFFCF1182D85B33DBA41" x="4.3775" y="0" fill="#827c70" fill-rule="nonzero"/><use xlink:href="#g5D2E58E4CDB4D7E6C81847885E22D756" x="8.449" y="0" fill="#827c70" fill-rule="nonzero"/><use xlink:href="#gB3F6F741CFF64E2F87AE274E4C795DAE" x="12.2485" y="0" fill="#827c70" fill-rule="nonzero"/><use xlink:href="#gE7AE90A8EDDEF3DDB67EE78D36D80337" x="16.728" y="0" fill="#827c70" fill-rule="nonzero"/><use xlink:href="#gE827826F9D19F2B711A1B9BF40B9D8A0" x="21.709" y="0" fill="#827c70" fill-rule="nonzero"/><use xlink:href="#gE7AE90A8EDDEF3DDB67EE78D36D80337" x="26.2905" y="0" fill="#827c70" fill-rule="nonzero"/><use xlink:href="#gB3F6F741CFF64E2F87AE274E4C795DAE" x="31.2715" y="0" fill="#827c70" fill-rule="nonzero"/><use xlink:href="#gE7AE90A8EDDEF3DDB67EE78D36D80337" x="35.751" y="0" fill="#827c70" fill-rule="nonzero"/></g></g><path fill="none" stroke="#1a1a18" stroke-width="1.4" stroke-linecap="butt" stroke-linejoin="miter" stroke-miterlimit="4" transform="translate(187.365413386 47.278721013)" d="M 0 0m 0 40.477924966l 7.137350295 -40.477924966"/><path fill="none" stroke="#1a1a18" stroke-width="1.12" stroke-linecap="butt" stroke-linejoin="miter" stroke-miterlimit="4" transform="translate(183.72471256 20.602108379)" d="M 0 0m 10.778051121 26.676612635l -10.778051121 -26.676612635"/><path fill="none" stroke="#1a1a18" stroke-width="0.896" stroke-linecap="butt" stroke-linejoin="miter" stroke-miterlimit="4" transform="translate(167.430982889 8.764020833)" d="M 0 0m 16.293729671 11.838087546l -16.293729671 -11.838087546"/><path fill="none" stroke="#1a1a18" stroke-width="0.896" stroke-linecap="butt" stroke-linejoin="miter" stroke-miterlimit="4" transform="translate(183.72471256)" d="M 0 0m 0 20.602108379l 2.165368846 -20.602108379"/><path fill="none" stroke="#1a1a18" stroke-width="1.12" stroke-linecap="butt" stroke-linejoin="miter" stroke-miterlimit="4" transform="translate(194.50276368 23.958566554)" d="M 0 0m 0 23.320154459l 18.219701487 -23.320154459"/><path fill="none" stroke="#1a1a18" stroke-width="0.896" stroke-linecap="butt" stroke-linejoin="miter" stroke-miterlimit="4" transform="translate(212.722465168 3.356458175)" d="M 0 0m 0 20.602108379l 2.165368846 -20.602108379"/><path fill="none" stroke="#1a1a18" stroke-width="0.896" stroke-linecap="butt" stroke-linejoin="miter" stroke-miterlimit="4" transform="translate(212.722465168 15.292039943)" d="M 0 0m 0 8.66652661l 19.465337469 -8.66652661"/><path fill="none" stroke="#7c7f6a" stroke-width="0.8" stroke-linecap="butt" stroke-linejoin="miter" stroke-miterlimit="4" stroke-dashoffset="0" stroke-dasharray="3 3" transform="translate(170.35753937 19.725149917)" d="M 0 0v 76.535433071h 53.858267717v -76.535433071h -53.858267717Z "/><path fill="none" transform="translate(174.692173228 104.764519995)" d="M 0 0h 45.189v 8.028h -45.189v -8.028Z "/><g transform="translate(174.692173228 104.764519995)"><g transform="matrix(1 0 0 -1 0 5.922)"><use xlink:href="#g611C332DF318E3AAFADBD04F1094DD79" x="0" y="0" fill="#1a1a18" fill-rule="nonzero"/><use xlink:href="#g7253BD4F4A12C91ABC7B03558525FA66" x="4.005" y="0" fill="#1a1a18" fill-rule="nonzero"/><use xlink:href="#g611C332DF318E3AAFADBD04F1094DD79" x="8.541" y="0" fill="#1a1a18" fill-rule="nonzero"/><use xlink:href="#gF4C3A83C3E99EE3A06E5D4EEABB5C2D5" x="14.796" y="0" fill="#1a1a18" fill-rule="nonzero"/><use xlink:href="#gD351E21AD091924D522A6D2D6355C932" x="21.15" y="0" fill="#1a1a18" fill-rule="nonzero"/><use xlink:href="#gFFF6E9B9A983FEBF7FB8DCFB305974E9" x="27.423" y="0" fill="#1a1a18" fill-rule="nonzero"/><use xlink:href="#g1DA06070DC2F35791C9FB9712E809870" x="32.058" y="0" fill="#1a1a18" fill-rule="nonzero"/><use xlink:href="#g7253BD4F4A12C91ABC7B03558525FA66" x="35.982" y="0" fill="#1a1a18" fill-rule="nonzero"/><use xlink:href="#g4AD90A9068D018AD3CEC8FD5EA9519DC" x="40.518" y="0" fill="#1a1a18" fill-rule="nonzero"/></g></g><path fill="none" transform="translate(0 152.968464877)" d="M 0 0h 261.345v 8.474h -261.345v -8.474Z "/><g transform="translate(-9.4e-8 152.968464861)"><g transform="matrix(1 0 0 -1 0 6.251)"><use xlink:href="#gC2CBF98E7E07B945C6FA500EA68B32AD" x="0" y="0" fill="#1a1a18" fill-rule="nonzero"/><use xlink:href="#g30F02AEBABA7D40FC17FCA43D8EB3DAA" x="6.46" y="0" fill="#1a1a18" fill-rule="nonzero"/><use xlink:href="#gC86282117E7C9F65658F6DDAC49FC51A" x="10.8015" y="0" fill="#1a1a18" fill-rule="nonzero"/><use xlink:href="#g15DE86D891118100C568580819B789B3" x="15.808" y="0" fill="#1a1a18" fill-rule="nonzero"/><use xlink:href="#g84D5B0775AF6B63E9D146732051F63A6" x="22.686" y="0" fill="#1a1a18" fill-rule="nonzero"/><use xlink:href="#gC110FFC20529D78AB6B9724BF2D3193A" x="30.628" y="0" fill="#1a1a18" fill-rule="nonzero"/><use xlink:href="#gF1C320A4506B818F6BCB8CDA11A2DE6" x="35.416" y="0" fill="#1a1a18" fill-rule="nonzero"/><use xlink:href="#gD243A48DAC45EEC7C88A2988B14DD756" x="39.6435" y="0" fill="#1a1a18" fill-rule="nonzero"/><use xlink:href="#gA3A5C9019285A4C81365474C03E3CF4E" x="44.194" y="0" fill="#1a1a18" fill-rule="nonzero"/><use xlink:href="#g5B0FB9F727640150CA57389F67238C5A" x="48.4405" y="0" fill="#1a1a18" fill-rule="nonzero"/><use xlink:href="#gAD720BDA8ADD5B075B4E7AAFF4B6A517" x="53.371" y="0" fill="#1a1a18" fill-rule="nonzero"/><use xlink:href="#gA3A5C9019285A4C81365474C03E3CF4E" x="61.4365" y="0" fill="#1a1a18" fill-rule="nonzero"/><use xlink:href="#gDBB5E8F5FC9EB2F5349B9D49D6966C24" x="65.683" y="0" fill="#1a1a18" fill-rule="nonzero"/><use xlink:href="#gA47C4F0B8C3EC5E73D65847FE6AA30D8" x="72.827" y="0" fill="#1a1a18" fill-rule="nonzero"/><use xlink:href="#gE3D46A95002377B54E13EEB95624C7DA" x="80.427" y="0" fill="#1a1a18" fill-rule="nonzero"/><use xlink:href="#gC2CBF98E7E07B945C6FA500EA68B32AD" x="85.3195" y="0" fill="#1a1a18" fill-rule="nonzero"/><use xlink:href="#gA3A5C9019285A4C81365474C03E3CF4E" x="91.7795" y="0" fill="#1a1a18" fill-rule="nonzero"/><use xlink:href="#g111F480562FE960BC5F50C637F145B12" x="96.026" y="0" fill="#1a1a18" fill-rule="nonzero"/><use xlink:href="#g4F6C4B764A667C0D20F43C1E2952DF77" x="101.593" y="0" fill="#1a1a18" fill-rule="nonzero"/><use xlink:href="#gAD720BDA8ADD5B075B4E7AAFF4B6A517" x="106.0105" y="0" fill="#1a1a18" fill-rule="nonzero"/><use xlink:href="#gA3A5C9019285A4C81365474C03E3CF4E" x="114.076" y="0" fill="#1a1a18" fill-rule="nonzero"/><use xlink:href="#g111F480562FE960BC5F50C637F145B12" x="118.3225" y="0" fill="#1a1a18" fill-rule="nonzero"/><use xlink:href="#g111F480562FE960BC5F50C637F145B12" x="123.8895" y="0" fill="#1a1a18" fill-rule="nonzero"/><use xlink:href="#g30F02AEBABA7D40FC17FCA43D8EB3DAA" x="129.4565" y="0" fill="#1a1a18" fill-rule="nonzero"/><use xlink:href="#g5AAEF493CBDA45024F82AC9E8378049F" x="133.798" y="0" fill="#1a1a18" fill-rule="nonzero"/><use xlink:href="#gA087682AD38D2D620C1058FCC30E85F0" x="140.7425" y="0" fill="#1a1a18" fill-rule="nonzero"/><use xlink:href="#g30F02AEBABA7D40FC17FCA43D8EB3DAA" x="145.388" y="0" fill="#1a1a18" fill-rule="nonzero"/><use xlink:href="#gC86282117E7C9F65658F6DDAC49FC51A" x="149.7295" y="0" fill="#1a1a18" fill-rule="nonzero"/><use xlink:href="#gDBB5E8F5FC9EB2F5349B9D49D6966C24" x="154.736" y="0" fill="#1a1a18" fill-rule="nonzero"/><use xlink:href="#g30F02AEBABA7D40FC17FCA43D8EB3DAA" x="159.505" y="0" fill="#1a1a18" fill-rule="nonzero"/><use xlink:href="#g1F0789F66DF5BF6464D009EFF79AE18" x="163.8465" y="0" fill="#1a1a18" fill-rule="nonzero"/><use xlink:href="#g75E31E9387E94E3A457DA9304838F591" x="168.4635" y="0" fill="#1a1a18" fill-rule="nonzero"/><use xlink:href="#gC110FFC20529D78AB6B9724BF2D3193A" x="174.0305" y="0" fill="#1a1a18" fill-rule="nonzero"/><use xlink:href="#g9AB4D653434A916376878838EF2269DC" x="181.1935" y="0" fill="#1a1a18" fill-rule="nonzero"/><use xlink:href="#gC110FFC20529D78AB6B9724BF2D3193A" x="187.435" y="0" fill="#1a1a18" fill-rule="nonzero"/><use xlink:href="#g5B0FB9F727640150CA57389F67238C5A" x="192.223" y="0" fill="#1a1a18" fill-rule="nonzero"/><use xlink:href="#gC2CBF98E7E07B945C6FA500EA68B32AD" x="197.1535" y="0" fill="#1a1a18" fill-rule="nonzero"/><use xlink:href="#gA3A5C9019285A4C81365474C03E3CF4E" x="203.6135" y="0" fill="#1a1a18" fill-rule="nonzero"/><use xlink:href="#g111F480562FE960BC5F50C637F145B12" x="210.235" y="0" fill="#1a1a18" fill-rule="nonzero"/><use xlink:href="#gA3A5C9019285A4C81365474C03E3CF4E" x="215.802" y="0" fill="#1a1a18" fill-rule="nonzero"/><use xlink:href="#gC110FFC20529D78AB6B9724BF2D3193A" x="222.4235" y="0" fill="#1a1a18" fill-rule="nonzero"/><use xlink:href="#gF1C320A4506B818F6BCB8CDA11A2DE6" x="227.2115" y="0" fill="#1a1a18" fill-rule="nonzero"/><use xlink:href="#gC86282117E7C9F65658F6DDAC49FC51A" x="231.439" y="0" fill="#1a1a18" fill-rule="nonzero"/><use xlink:href="#g30870B079B88F136C2A9AD2E2890E4EB" x="236.4455" y="0" fill="#1a1a18" fill-rule="nonzero"/><use xlink:href="#g7B65AFC2AB15B852360730FC4AD8D7EC" x="242.0125" y="0" fill="#1a1a18" fill-rule="nonzero"/><use xlink:href="#g30870B079B88F136C2A9AD2E2890E4EB" x="247.133" y="0" fill="#1a1a18" fill-rule="nonzero"/><use xlink:href="#gF1C320A4506B818F6BCB8CDA11A2DE6" x="252.7" y="0" fill="#1a1a18" fill-rule="nonzero"/><use xlink:href="#g4F6C4B764A667C0D20F43C1E2952DF77" x="256.9275" y="0" fill="#1a1a18" fill-rule="nonzero"/></g></g></g><defs><symbol id="g9C9C9262F30302871979B086E3504457" overflow="visible"><path d="M 0 0m 0.306 2.313c 0 -1.701 0.981 -2.403 1.854 -2.403c 1.233 0 1.944 0.918 1.944 2.052c 0 0.972 -0.54 1.989 -1.809 1.989c -0.855 0 -1.377 -0.504 -1.575 -0.936l -0.018 0.018c 0.036 0.468 0.18 1.044 0.315 1.278c 0.288 0.495 0.63 0.522 1.458 0.612c 0.81 0.09 1.386 0.351 1.467 1.359c -0.063 0.027 -0.126 0.036 -0.198 0c -0.072 -0.432 -0.549 -0.549 -1.305 -0.666c -0.729 -0.117 -1.341 -0.369 -1.719 -1.08c -0.324 -0.612 -0.414 -1.368 -0.414 -2.223Z m 0.774 -0.234c 0 0.504 0.18 1.557 1.116 1.557c 0.702 0 1.134 -0.81 1.134 -1.89c 0 -1.134 -0.522 -1.521 -1.008 -1.521c -0.657 0 -1.242 0.855 -1.242 1.854Z "/></symbol><symbol id="gF7AD5B3248F8366898BA115B8D318C4E" overflow="visible"><path d="M 0 0m 2.637 0.432c 0.054 -0.279 0.153 -0.522 0.603 -0.522c 0.342 0 0.666 0.153 0.855 0.333c -0.018 0.108 -0.054 0.189 -0.153 0.243c -0.063 -0.054 -0.216 -0.144 -0.333 -0.144c -0.261 0 -0.27 0.351 -0.27 0.765v 1.323c 0 1.278 -0.702 1.521 -1.359 1.521c -0.738 0 -1.485 -0.486 -1.485 -0.999c 0 -0.216 0.108 -0.324 0.315 -0.324c 0.261 0 0.423 0.189 0.423 0.306c 0 0.063 -0.009 0.126 -0.027 0.162c -0.009 0.027 -0.018 0.081 -0.018 0.18c 0 0.279 0.378 0.378 0.72 0.378c 0.306 0 0.729 -0.153 0.729 -1.17c 0 -0.063 -0.027 -0.099 -0.054 -0.108l -0.774 -0.189c -0.864 -0.216 -1.485 -0.693 -1.485 -1.305c 0 -0.738 0.504 -0.972 1.134 -0.972c 0.315 0 0.585 0.072 0.981 0.378l 0.18 0.144Z m 0 1.665v -1.188c 0 -0.117 -0.054 -0.18 -0.126 -0.234c -0.234 -0.189 -0.54 -0.396 -0.792 -0.396c -0.45 0 -0.648 0.36 -0.648 0.639c 0 0.405 0.189 0.819 0.855 0.99Z "/></symbol><symbol id="gB118266EF18AECCCCEF724ECE6F3D1D3" overflow="visible"><path d="M 0 0m 3.762 1.098v 1.665c 0 0.738 0.117 0.783 0.612 0.819c 0.054 0.054 0.054 0.243 0 0.297c -0.27 -0.009 -0.612 -0.018 -0.972 -0.018h -1.701c -0.297 0 -0.648 0.009 -0.918 0.018c -0.054 -0.054 -0.054 -0.243 0 -0.297c 0.639 -0.045 0.729 -0.099 0.729 -1.071c 0 -0.945 -0.072 -1.44 -0.198 -1.809c -0.117 -0.324 -0.27 -0.441 -0.423 -0.441c -0.117 0 -0.153 0.072 -0.171 0.189c -0.027 0.171 -0.081 0.342 -0.333 0.342c -0.225 0 -0.351 -0.18 -0.351 -0.378c 0 -0.279 0.252 -0.522 0.666 -0.522c 0.459 0 0.711 0.234 0.918 0.72c 0.18 0.432 0.234 1.35 0.234 1.962c 0 0.702 0.027 0.936 0.387 0.936h 0.405c 0.342 0 0.405 -0.216 0.405 -0.522v -1.89c 0 -0.738 -0.09 -0.783 -0.558 -0.819c -0.045 -0.054 -0.045 -0.243 0 -0.297c 0.225 0.009 0.558 0.018 0.918 0.018c 0.36 0 0.765 -0.009 1.017 -0.018c 0.045 0.054 0.045 0.243 0 0.297c -0.585 0.036 -0.666 0.081 -0.666 0.819Z "/></symbol><symbol id="gAE9E23F53692F92B7B295E455DF99330" overflow="visible"><path d="M 0 0m 3.474 0c 0 0 0.702 -0.009 0.882 -0.018c 0.054 0.054 0.054 0.243 0 0.297c -0.351 0.018 -0.423 0.09 -0.576 0.378l -0.405 0.765c -0.225 0.423 -0.54 0.639 -1.053 0.639v 0.027c 0.351 0.099 0.504 0.414 0.639 0.774c 0.108 0.279 0.216 0.45 0.405 0.45c 0.081 0 0.153 -0.027 0.207 -0.063c 0.054 -0.036 0.153 -0.063 0.27 -0.063c 0.198 0 0.36 0.171 0.36 0.351c 0 0.198 -0.216 0.405 -0.513 0.405c -0.522 0 -0.765 -0.486 -0.936 -0.909c -0.198 -0.495 -0.441 -0.837 -1.08 -0.837v 0.567c 0 0.747 0.099 0.774 0.558 0.819c 0.054 0.054 0.054 0.243 0 0.297c -0.216 -0.009 -0.558 -0.018 -0.918 -0.018c -0.387 0 -0.702 0.009 -0.999 0.018c -0.054 -0.054 -0.054 -0.243 0 -0.297c 0.549 -0.036 0.648 -0.072 0.648 -0.819v -1.665c 0 -0.747 -0.099 -0.774 -0.648 -0.819c -0.054 -0.054 -0.054 -0.243 0 -0.297c 0.297 0.009 0.612 0.018 1.008 0.018c 0.351 0 0.711 -0.009 0.909 -0.018c 0.054 0.054 0.054 0.243 0 0.297c -0.459 0.036 -0.558 0.072 -0.558 0.819v 0.783c 0.612 -0.036 0.774 -0.279 0.936 -0.612l 0.387 -0.81c 0.117 -0.243 0.297 -0.45 0.477 -0.459Z "/></symbol><symbol id="gBDFD935577E92FE00C1DBA4B22F07372" overflow="visible"><path d="M 0 0m 2.025 0.351c -0.333 0 -0.387 0.099 -0.387 0.459v 1.953c 0 0.738 0.09 0.783 0.558 0.819c 0.045 0.054 0.045 0.243 0 0.297c -0.225 -0.009 -0.558 -0.018 -0.918 -0.018c -0.36 0 -0.675 0.009 -0.927 0.018c -0.045 -0.054 -0.045 -0.243 0 -0.297c 0.495 -0.036 0.576 -0.081 0.576 -0.819v -1.665c 0 -0.738 -0.117 -0.783 -0.612 -0.819c -0.054 -0.054 -0.054 -0.243 0 -0.297c 0.27 0.009 0.612 0.018 0.972 0.018h 2.268c 0.756 0 1.017 -0.72 1.134 -1.161c 0.081 -0.018 0.162 -0.018 0.234 0.009l -0.054 1.197c -0.009 0.162 -0.144 0.207 -0.27 0.234c -0.207 0.045 -0.351 0.099 -0.351 0.819v 1.665c 0 0.738 0.117 0.783 0.612 0.819c 0.054 0.054 0.054 0.243 0 0.297c -0.27 -0.009 -0.612 -0.018 -0.972 -0.018c -0.36 0 -0.63 0.009 -0.9 0.018c -0.054 -0.054 -0.054 -0.243 0 -0.297c 0.459 -0.045 0.549 -0.081 0.549 -0.819v -1.953c 0 -0.279 -0.027 -0.459 -0.378 -0.459Z "/></symbol><symbol id="gD351E21AD091924D522A6D2D6355C932" overflow="visible"><path d="M 0 0m 3.474 0.837c -0.333 -0.342 -0.594 -0.486 -1.116 -0.486c -0.324 0 -0.702 0.189 -0.981 0.648c -0.18 0.297 -0.288 0.711 -0.288 1.233l 2.394 -0.018c 0.108 0 0.171 0.054 0.171 0.153c 0 0.756 -0.27 1.566 -1.521 1.566c -0.783 0 -1.8 -0.747 -1.8 -2.115c 0 -0.504 0.126 -0.99 0.423 -1.332c 0.306 -0.36 0.729 -0.576 1.377 -0.576c 0.684 0 1.17 0.315 1.53 0.783c -0.027 0.09 -0.081 0.135 -0.189 0.144Z m -2.358 1.701c 0.171 1.017 0.801 1.098 1.017 1.098c 0.342 0 0.747 -0.189 0.747 -0.945c 0 -0.081 -0.036 -0.126 -0.135 -0.126Z "/></symbol><symbol id="g6EA5A1981697E2B5E95285C58F7F7AD0" overflow="visible"><path d="M 0 0m 1.782 0.567c -0.027 0 -0.063 0.018 -0.063 0.108v 2.052c 0 0.747 0.189 0.828 0.648 0.855c 0.054 0.054 0.054 0.243 0 0.297c -0.207 -0.009 -0.72 -0.018 -1.053 -0.018c -0.297 0 -0.657 0.009 -0.999 0.018c -0.054 -0.054 -0.054 -0.243 0 -0.297c 0.549 -0.027 0.693 -0.108 0.693 -0.855v -1.593c 0 -0.747 -0.144 -0.828 -0.693 -0.855c -0.054 -0.054 -0.054 -0.243 0 -0.297c 0.351 0.009 0.711 0.018 0.999 0.018c 0.207 0 0.45 -0.009 0.549 -0.018c 0.045 0.126 0.126 0.306 0.225 0.486l 1.404 2.817c 0.027 0 0.063 -0.018 0.063 -0.108v -2.043c 0 -0.747 -0.189 -0.828 -0.648 -0.855c -0.054 -0.054 -0.054 -0.243 0 -0.297c 0.207 0.009 0.693 0.018 1.053 0.018c 0.279 0 0.648 -0.009 0.999 -0.018c 0.054 0.054 0.054 0.243 0 0.297c -0.549 0.027 -0.693 0.108 -0.693 0.855v 1.593c 0 0.747 0.144 0.828 0.693 0.855c 0.054 0.054 0.054 0.243 0 0.297c -0.36 -0.009 -0.72 -0.018 -0.999 -0.018c -0.198 0 -0.45 0.009 -0.54 0.018c -0.072 -0.162 -0.153 -0.351 -0.234 -0.504Z "/></symbol><symbol id="g7253BD4F4A12C91ABC7B03558525FA66" overflow="visible"><path d="M 0 0m 0.369 1.845c 0 -0.918 0.612 -1.935 1.89 -1.935c 0.576 0 1.017 0.207 1.323 0.504c 0.405 0.396 0.585 0.963 0.585 1.512c 0 0.936 -0.513 2.025 -1.89 2.025c -0.594 0 -1.08 -0.243 -1.413 -0.63c -0.324 -0.387 -0.495 -0.909 -0.495 -1.476Z m 1.773 1.791c 0.774 0 1.251 -0.702 1.251 -1.998c 0 -1.134 -0.585 -1.413 -1.008 -1.413c -0.936 0 -1.242 1.134 -1.242 1.827c 0 0.783 0.189 1.584 0.999 1.584Z "/></symbol><symbol id="g82C799C01D06EF19E125C6F4348D75CA" overflow="visible"><path d="M 0 0m 1.053 2.754l -0.054 -1.674c -0.027 -0.756 -0.162 -0.774 -0.684 -0.801c -0.054 -0.054 -0.054 -0.243 0 -0.297c 0.18 0.009 0.63 0.018 0.774 0.018c 0.18 0 0.603 -0.009 0.783 -0.018c 0.054 0.054 0.054 0.243 0 0.297c -0.513 0.036 -0.549 0.126 -0.531 0.801l 0.063 2.205c 0 0.081 0.036 0.081 0.072 0l 1.305 -3.186c 0.036 -0.027 0.072 -0.027 0.099 0l 1.476 3.177c 0.045 0.099 0.09 0.108 0.09 0l -0.009 -2.178c 0 -0.747 -0.063 -0.774 -0.612 -0.819c -0.054 -0.054 -0.054 -0.243 0 -0.297c 0.324 0.009 0.657 0.018 0.972 0.018c 0.27 0 0.657 -0.009 1.008 -0.018c 0.054 0.054 0.054 0.243 0 0.297c -0.549 0.036 -0.648 0.072 -0.648 0.819l -0.018 1.665c -0.009 0.747 0.099 0.774 0.648 0.819c 0.054 0.054 0.054 0.243 0 0.297c -0.315 -0.018 -1.188 -0.018 -1.485 -0.018l -1.197 -2.574l -0.045 -0.09l -0.036 0.09l -1.053 2.574c -0.297 0 -1.251 0 -1.566 0.018c -0.054 -0.054 -0.054 -0.243 0 -0.297c 0.549 -0.045 0.675 -0.081 0.648 -0.828Z "/></symbol><symbol id="g2884EEE83F88BF741DF31D9C41AEE180" overflow="visible"><path d="M 0 0m 1.734 -1.36c 0.136 0.238 0.2465 0.476 0.3485 0.731c 0.68 1.6405 1.0625 2.516 1.5045 3.468c 0.17 0.357 0.289 0.493 0.6885 0.544c 0.051 0.051 0.051 0.2295 0 0.2805c -0.17 -0.0085 -0.3655 -0.017 -0.6035 -0.017c -0.255 0 -0.5185 0.0085 -0.7735 0.017c -0.051 -0.051 -0.051 -0.2295 0 -0.2805c 0.272 -0.0255 0.544 -0.0765 0.408 -0.3825l -0.8415 -1.9465c -0.0595 -0.136 -0.136 -0.1615 -0.204 0.0085l -0.7565 1.768c -0.153 0.357 -0.1955 0.5185 0.2805 0.5525c 0.051 0.051 0.051 0.2295 0 0.2805c -0.3145 -0.0085 -0.6545 -0.017 -0.9605 -0.017c -0.289 0 -0.5185 0.0085 -0.6885 0.017c -0.051 -0.051 -0.051 -0.2295 0 -0.2805c 0.34 -0.0425 0.4505 -0.119 0.6715 -0.6375l 0.9605 -2.2355c 0.0765 -0.17 0.204 -0.561 0.119 -0.799c -0.102 -0.2805 -0.204 -0.5185 -0.3315 -0.782c -0.0935 -0.17 -0.2125 -0.2465 -0.425 -0.2465c -0.119 0 -0.153 0.0255 -0.2465 0.0255c -0.2465 0 -0.374 -0.255 -0.374 -0.3655c 0 -0.1785 0.17 -0.3145 0.3995 -0.3145c 0.1785 0 0.5185 0.068 0.8245 0.612Z "/></symbol><symbol id="g3D9A67B9902CBFFCF1182D85B33DBA41" overflow="visible"><path d="M 0 0m 1.241 3.6465c -0.3655 0 -0.663 0.0085 -0.9435 0.017c -0.051 -0.051 -0.051 -0.2295 0 -0.2805c 0.5185 -0.034 0.612 -0.068 0.612 -0.7735v -1.5725c 0 -0.7055 -0.0935 -0.731 -0.612 -0.7735c -0.051 -0.051 -0.051 -0.2295 0 -0.2805c 0.2805 0.0085 0.578 0.017 0.952 0.017c 0.3145 0 0.595 -0.017 1.1645 -0.017c 0.731 0 1.2835 0.204 1.2835 1.0455c 0 0.476 -0.2975 0.8075 -0.816 0.901v 0.0255c 0.391 0.0765 0.6885 0.3485 0.6885 0.8585c 0 0.595 -0.3655 0.85 -1.394 0.85c -0.3485 0 -0.5695 -0.017 -0.935 -0.017Z m 0.34 -1.802h 0.646c 0.5185 0 0.7395 -0.34 0.7395 -0.85c 0 -0.5695 -0.323 -0.731 -0.782 -0.731c -0.442 0 -0.6035 0.0765 -0.6035 0.4675Z m 0 0.2465v 0.986c 0 0.255 0.1955 0.306 0.6035 0.306c 0.442 0 0.7055 -0.119 0.7055 -0.629c 0 -0.34 -0.221 -0.663 -0.748 -0.663Z "/></symbol><symbol id="g5D2E58E4CDB4D7E6C81847885E22D756" overflow="visible"><path d="M 0 0m 3.281 0.7905c -0.3145 -0.323 -0.561 -0.459 -1.054 -0.459c -0.306 0 -0.663 0.1785 -0.9265 0.612c -0.17 0.2805 -0.272 0.6715 -0.272 1.1645l 2.261 -0.017c 0.102 0 0.1615 0.051 0.1615 0.1445c 0 0.714 -0.255 1.479 -1.4365 1.479c -0.7395 0 -1.7 -0.7055 -1.7 -1.9975c 0 -0.476 0.119 -0.935 0.3995 -1.258c 0.289 -0.34 0.6885 -0.544 1.3005 -0.544c 0.646 0 1.105 0.2975 1.445 0.7395c -0.0255 0.085 -0.0765 0.1275 -0.1785 0.136Z m -2.227 1.6065c 0.1615 0.9605 0.7565 1.037 0.9605 1.037c 0.323 0 0.7055 -0.1785 0.7055 -0.8925c 0 -0.0765 -0.034 -0.119 -0.1275 -0.119Z "/></symbol><symbol id="gB3F6F741CFF64E2F87AE274E4C795DAE" overflow="visible"><path d="M 0 0m 3.553 1.037v 1.5725c 0 0.697 0.1105 0.7395 0.578 0.7735c 0.051 0.051 0.051 0.2295 0 0.2805c -0.255 -0.0085 -0.578 -0.017 -0.918 -0.017h -1.6065c -0.2805 0 -0.612 0.0085 -0.867 0.017c -0.051 -0.051 -0.051 -0.2295 0 -0.2805c 0.6035 -0.0425 0.6885 -0.0935 0.6885 -1.0115c 0 -0.8925 -0.068 -1.36 -0.187 -1.7085c -0.1105 -0.306 -0.255 -0.4165 -0.3995 -0.4165c -0.1105 0 -0.1445 0.068 -0.1615 0.1785c -0.0255 0.1615 -0.0765 0.323 -0.3145 0.323c -0.2125 0 -0.3315 -0.17 -0.3315 -0.357c 0 -0.2635 0.238 -0.493 0.629 -0.493c 0.4335 0 0.6715 0.221 0.867 0.68c 0.17 0.408 0.221 1.275 0.221 1.853c 0 0.663 0.0255 0.884 0.3655 0.884h 0.3825c 0.323 0 0.3825 -0.204 0.3825 -0.493v -1.785c 0 -0.697 -0.085 -0.7395 -0.527 -0.7735c -0.0425 -0.051 -0.0425 -0.2295 0 -0.2805c 0.2125 0.0085 0.527 0.017 0.867 0.017c 0.34 0 0.7225 -0.0085 0.9605 -0.017c 0.0425 0.051 0.0425 0.2295 0 0.2805c -0.5525 0.034 -0.629 0.0765 -0.629 0.7735Z "/></symbol><symbol id="gE7AE90A8EDDEF3DDB67EE78D36D80337" overflow="visible"><path d="M 0 0m 1.683 0.5355c -0.0255 0 -0.0595 0.017 -0.0595 0.102v 1.938c 0 0.7055 0.1785 0.782 0.612 0.8075c 0.051 0.051 0.051 0.2295 0 0.2805c -0.1955 -0.0085 -0.68 -0.017 -0.9945 -0.017c -0.2805 0 -0.6205 0.0085 -0.9435 0.017c -0.051 -0.051 -0.051 -0.2295 0 -0.2805c 0.5185 -0.0255 0.6545 -0.102 0.6545 -0.8075v -1.5045c 0 -0.7055 -0.136 -0.782 -0.6545 -0.8075c -0.051 -0.051 -0.051 -0.2295 0 -0.2805c 0.3315 0.0085 0.6715 0.017 0.9435 0.017c 0.1955 0 0.425 -0.0085 0.5185 -0.017c 0.0425 0.119 0.119 0.289 0.2125 0.459l 1.326 2.6605c 0.0255 0 0.0595 -0.017 0.0595 -0.102v -1.9295c 0 -0.7055 -0.1785 -0.782 -0.612 -0.8075c -0.051 -0.051 -0.051 -0.2295 0 -0.2805c 0.1955 0.0085 0.6545 0.017 0.9945 0.017c 0.2635 0 0.612 -0.0085 0.9435 -0.017c 0.051 0.051 0.051 0.2295 0 0.2805c -0.5185 0.0255 -0.6545 0.102 -0.6545 0.8075v 1.5045c 0 0.7055 0.136 0.782 0.6545 0.8075c 0.051 0.051 0.051 0.2295 0 0.2805c -0.34 -0.0085 -0.68 -0.017 -0.9435 -0.017c -0.187 0 -0.425 0.0085 -0.51 0.017c -0.068 -0.153 -0.1445 -0.3315 -0.221 -0.476Z "/></symbol><symbol id="gE827826F9D19F2B711A1B9BF40B9D8A0" overflow="visible"><path d="M 0 0m 1.377 2.6095c 0 0.7055 0.0935 0.731 0.527 0.7735c 0.051 0.051 0.051 0.2295 0 0.2805c -0.204 -0.0085 -0.527 -0.017 -0.867 -0.017c -0.3655 0 -0.6545 0.0085 -0.935 0.017c -0.051 -0.051 -0.051 -0.2295 0 -0.2805c 0.5185 -0.034 0.612 -0.068 0.612 -0.7735v -0.3655c 0 -0.799 0.1785 -1.1135 0.969 -1.1135c 0.5355 0 0.9605 0.306 1.309 0.561v -0.6545c 0 -0.7055 -0.0935 -0.731 -0.612 -0.7735c -0.051 -0.051 -0.051 -0.2295 0 -0.2805c 0.2805 0.0085 0.578 0.017 0.952 0.017c 0.3655 0 0.68 -0.0085 0.952 -0.017c 0.051 0.051 0.051 0.2295 0 0.2805c -0.5185 0.034 -0.612 0.068 -0.612 0.7735v 1.5725c 0 0.7055 0.0935 0.731 0.612 0.7735c 0.051 0.051 0.051 0.2295 0 0.2805c -0.289 -0.0085 -0.578 -0.017 -0.952 -0.017c -0.3315 0 -0.6715 0.0085 -0.867 0.017c -0.051 -0.051 -0.051 -0.2295 0 -0.2805c 0.4335 -0.034 0.527 -0.068 0.527 -0.7735v -0.612c -0.289 -0.255 -0.595 -0.4845 -1.037 -0.4845c -0.5525 0 -0.578 0.289 -0.578 0.952Z "/></symbol><symbol id="g611C332DF318E3AAFADBD04F1094DD79" overflow="visible"><path d="M 0 0m 1.638 1.098c 0 -0.747 -0.099 -0.792 -0.648 -0.819c -0.054 -0.054 -0.054 -0.243 0 -0.297c 0.351 0.009 0.711 0.018 1.008 0.018c 0.306 0 0.657 -0.009 0.999 -0.018c 0.054 0.054 0.054 0.243 0 0.297c -0.549 0.027 -0.648 0.072 -0.648 0.819v 2.43h 0.153c 0.729 0 0.873 -0.252 1.026 -0.981c 0.117 0 0.234 0.036 0.234 0.036c -0.054 0.414 -0.09 0.81 -0.099 1.332c -0.207 -0.018 -0.882 -0.054 -1.332 -0.054h -0.675c -0.45 0 -0.954 0.027 -1.314 0.054c -0.009 -0.522 -0.045 -0.918 -0.108 -1.332c 0 0 0.126 -0.036 0.243 -0.036c 0.153 0.729 0.288 0.981 1.026 0.981h 0.135Z "/></symbol><symbol id="gF4C3A83C3E99EE3A06E5D4EEABB5C2D5" overflow="visible"><path d="M 0 0m 0.981 0c 0.18 0.009 0.333 0.216 0.45 0.459l 0.387 0.81c 0.162 0.333 0.414 0.576 1.026 0.612v -0.783c 0 -0.747 -0.108 -0.774 -0.567 -0.819c -0.054 -0.054 -0.054 -0.243 0 -0.297c 0.207 0.009 0.54 0.018 0.9 0.018c 0.351 0 0.693 -0.009 0.891 -0.018c 0.054 0.054 0.054 0.243 0 0.297c -0.459 0.036 -0.567 0.072 -0.567 0.819v 0.783c 0.612 -0.036 0.864 -0.279 1.026 -0.612l 0.387 -0.81c 0.117 -0.243 0.27 -0.45 0.45 -0.459c 0 0 0.666 -0.009 0.846 -0.018c 0.054 0.054 0.054 0.243 0 0.297c -0.351 0.018 -0.441 0.09 -0.594 0.378l -0.405 0.765c -0.225 0.423 -0.522 0.639 -1.035 0.639v 0.027c 0.351 0.099 0.504 0.414 0.639 0.774c 0.108 0.279 0.216 0.45 0.405 0.45c 0.081 0 0.153 -0.027 0.207 -0.063c 0.054 -0.036 0.153 -0.063 0.27 -0.063c 0.198 0 0.36 0.171 0.36 0.351c 0 0.198 -0.216 0.405 -0.513 0.405c -0.522 0 -0.765 -0.486 -0.936 -0.909c -0.198 -0.495 -0.468 -0.837 -1.107 -0.837v 0.567c 0 0.747 0.108 0.774 0.567 0.819c 0.054 0.054 0.054 0.243 0 0.297c -0.216 -0.009 -0.54 -0.018 -0.9 -0.018c -0.351 0 -0.684 0.009 -0.891 0.018c -0.054 -0.054 -0.054 -0.243 0 -0.297c 0.459 -0.036 0.567 -0.072 0.567 -0.819v -0.567c -0.639 0 -0.909 0.342 -1.107 0.837c -0.171 0.423 -0.414 0.909 -0.936 0.909c -0.297 0 -0.513 -0.207 -0.513 -0.405c 0 -0.18 0.162 -0.351 0.36 -0.351c 0.117 0 0.216 0.027 0.27 0.063c 0.054 0.036 0.126 0.063 0.207 0.063c 0.189 0 0.297 -0.171 0.405 -0.45c 0.135 -0.36 0.288 -0.675 0.639 -0.774v -0.027c -0.513 0 -0.81 -0.216 -1.035 -0.639l -0.405 -0.765c -0.153 -0.288 -0.243 -0.36 -0.594 -0.378c -0.054 -0.054 -0.054 -0.243 0 -0.297c 0.18 0.009 0.846 0.018 0.846 0.018Z "/></symbol><symbol id="gFFF6E9B9A983FEBF7FB8DCFB305974E9" overflow="visible"><path d="M 0 0m 1.836 -1.44c 0.144 0.252 0.261 0.504 0.369 0.774c 0.72 1.737 1.125 2.664 1.593 3.672c 0.18 0.378 0.306 0.522 0.729 0.576c 0.054 0.054 0.054 0.243 0 0.297c -0.18 -0.009 -0.387 -0.018 -0.639 -0.018c -0.27 0 -0.549 0.009 -0.819 0.018c -0.054 -0.054 -0.054 -0.243 0 -0.297c 0.288 -0.027 0.576 -0.081 0.432 -0.405l -0.891 -2.061c -0.063 -0.144 -0.144 -0.171 -0.216 0.009l -0.801 1.872c -0.162 0.378 -0.207 0.549 0.297 0.585c 0.054 0.054 0.054 0.243 0 0.297c -0.333 -0.009 -0.693 -0.018 -1.017 -0.018c -0.306 0 -0.549 0.009 -0.729 0.018c -0.054 -0.054 -0.054 -0.243 0 -0.297c 0.36 -0.045 0.477 -0.126 0.711 -0.675l 1.017 -2.367c 0.081 -0.18 0.216 -0.594 0.126 -0.846c -0.108 -0.297 -0.216 -0.549 -0.351 -0.828c -0.099 -0.18 -0.225 -0.261 -0.45 -0.261c -0.126 0 -0.162 0.027 -0.261 0.027c -0.261 0 -0.396 -0.27 -0.396 -0.387c 0 -0.189 0.18 -0.333 0.423 -0.333c 0.189 0 0.549 0.072 0.873 0.648Z "/></symbol><symbol id="g1DA06070DC2F35791C9FB9712E809870" overflow="visible"><path d="M 0 0m 0.387 0.747c 0 -0.198 0.117 -0.342 0.306 -0.486c 0.225 -0.162 0.522 -0.351 1.233 -0.351c 0.9 0 1.602 0.27 1.602 1.161c 0 0.54 -0.27 0.9 -0.909 1.008v 0.027c 0.549 0.207 0.693 0.459 0.693 0.927c 0 0.522 -0.36 0.918 -1.269 0.918c -0.477 0 -0.9 -0.171 -1.386 -0.252l -0.117 -1.071c 0.072 -0.036 0.162 -0.045 0.243 -0.036c 0.171 0.522 0.396 1.044 1.152 1.044c 0.495 0 0.657 -0.297 0.657 -0.657c 0 -0.369 -0.063 -0.801 -0.639 -0.801c -0.171 0 -0.324 0.054 -0.495 0.054c -0.081 0 -0.171 -0.054 -0.171 -0.198c 0 -0.144 0.099 -0.189 0.18 -0.189c 0.171 0 0.27 0.054 0.495 0.054c 0.666 0 0.792 -0.459 0.792 -0.855c 0 -0.531 -0.198 -0.819 -0.837 -0.819c -0.513 0 -0.603 0.189 -0.756 0.513c -0.072 0.162 -0.171 0.288 -0.405 0.288c -0.162 0 -0.369 -0.135 -0.369 -0.279Z "/></symbol><symbol id="g4AD90A9068D018AD3CEC8FD5EA9519DC" overflow="visible"><path d="M 0 0m 1.404 3.312c -0.009 0.27 -0.027 0.504 -0.072 0.594c -0.018 0.045 -0.036 0.072 -0.108 0.072c -0.252 -0.099 -0.486 -0.18 -1.107 -0.261c -0.018 -0.054 0 -0.198 0.018 -0.252c 0.486 -0.045 0.585 -0.09 0.585 -0.612v -3.843c 0 -0.747 -0.099 -0.792 -0.648 -0.819c -0.054 -0.054 -0.054 -0.243 0 -0.297c 0.315 0.009 0.648 0.018 1.008 0.018c 0.36 0 0.792 -0.009 1.089 -0.018c 0.054 0.054 0.054 0.243 0 0.297c -0.639 0.036 -0.738 0.072 -0.738 0.819v 0.972c 0 0.117 0.036 0.108 0.126 0.072c 0.225 -0.09 0.495 -0.144 0.783 -0.144c 0.504 0 0.954 0.153 1.323 0.504c 0.423 0.414 0.666 0.972 0.666 1.701c 0 0.954 -0.675 1.836 -1.593 1.836c -0.414 0 -0.873 -0.27 -1.233 -0.675c -0.054 -0.054 -0.09 -0.054 -0.099 0.036Z m 0.171 -0.333c 0.234 0.288 0.648 0.558 0.909 0.558c 0.576 0 1.071 -0.648 1.071 -1.665c 0 -0.738 -0.261 -1.656 -1.269 -1.656c -0.162 0 -0.477 0.045 -0.639 0.189c -0.18 0.162 -0.216 0.216 -0.216 0.54v 1.638c 0 0.189 0.036 0.27 0.144 0.396Z "/></symbol><symbol id="gC2CBF98E7E07B945C6FA500EA68B32AD" overflow="visible"><path d="M 0 0m 1.1115 2.907l -0.057 -1.767c -0.0285 -0.798 -0.171 -0.817 -0.722 -0.8455c -0.057 -0.057 -0.057 -0.2565 0 -0.3135c 0.19 0.0095 0.665 0.019 0.817 0.019c 0.19 0 0.6365 -0.0095 0.8265 -0.019c 0.057 0.057 0.057 0.2565 0 0.3135c -0.5415 0.038 -0.5795 0.133 -0.5605 0.8455l 0.0665 2.3275c 0 0.0855 0.038 0.0855 0.076 0l 1.3775 -3.363c 0.038 -0.0285 0.076 -0.0285 0.1045 0l 1.558 3.3535c 0.0475 0.1045 0.095 0.114 0.095 0l -0.0095 -2.299c 0 -0.7885 -0.0665 -0.817 -0.646 -0.8645c -0.057 -0.057 -0.057 -0.2565 0 -0.3135c 0.342 0.0095 0.6935 0.019 1.026 0.019c 0.285 0 0.6935 -0.0095 1.064 -0.019c 0.057 0.057 0.057 0.2565 0 0.3135c -0.5795 0.038 -0.684 0.076 -0.684 0.8645l -0.019 1.7575c -0.0095 0.7885 0.1045 0.817 0.684 0.8645c 0.057 0.057 0.057 0.2565 0 0.3135c -0.3325 -0.019 -1.254 -0.019 -1.5675 -0.019l -1.2635 -2.717l -0.0475 -0.095l -0.038 0.095l -1.1115 2.717c -0.3135 0 -1.3205 0 -1.653 0.019c -0.057 -0.057 -0.057 -0.2565 0 -0.3135c 0.5795 -0.0475 0.7125 -0.0855 0.684 -0.874Z "/></symbol><symbol id="g30F02AEBABA7D40FC17FCA43D8EB3DAA" overflow="visible"><path d="M 0 0m 2.7835 0.456c 0.057 -0.2945 0.1615 -0.551 0.6365 -0.551c 0.361 0 0.703 0.1615 0.9025 0.3515c -0.019 0.114 -0.057 0.1995 -0.1615 0.2565c -0.0665 -0.057 -0.228 -0.152 -0.3515 -0.152c -0.2755 0 -0.285 0.3705 -0.285 0.8075v 1.3965c 0 1.349 -0.741 1.6055 -1.4345 1.6055c -0.779 0 -1.5675 -0.513 -1.5675 -1.0545c 0 -0.228 0.114 -0.342 0.3325 -0.342c 0.2755 0 0.4465 0.1995 0.4465 0.323c 0 0.0665 -0.0095 0.133 -0.0285 0.171c -0.0095 0.0285 -0.019 0.0855 -0.019 0.19c 0 0.2945 0.399 0.399 0.76 0.399c 0.323 0 0.7695 -0.1615 0.7695 -1.235c 0 -0.0665 -0.0285 -0.1045 -0.057 -0.114l -0.817 -0.1995c -0.912 -0.228 -1.5675 -0.7315 -1.5675 -1.3775c 0 -0.779 0.532 -1.026 1.197 -1.026c 0.3325 0 0.6175 0.076 1.0355 0.399l 0.19 0.152Z m 0 1.7575v -1.254c 0 -0.1235 -0.057 -0.19 -0.133 -0.247c -0.247 -0.1995 -0.57 -0.418 -0.836 -0.418c -0.475 0 -0.684 0.38 -0.684 0.6745c 0 0.4275 0.1995 0.8645 0.9025 1.045Z "/></symbol><symbol id="gC86282117E7C9F65658F6DDAC49FC51A" overflow="visible"><path d="M 0 0m 3.971 1.159v 1.7575c 0 0.779 0.1235 0.8265 0.646 0.8645c 0.057 0.057 0.057 0.2565 0 0.3135c -0.285 -0.0095 -0.646 -0.019 -1.026 -0.019h -1.7955c -0.3135 0 -0.684 0.0095 -0.969 0.019c -0.057 -0.057 -0.057 -0.2565 0 -0.3135c 0.6745 -0.0475 0.7695 -0.1045 0.7695 -1.1305c 0 -0.9975 -0.076 -1.52 -0.209 -1.9095c -0.1235 -0.342 -0.285 -0.4655 -0.4465 -0.4655c -0.1235 0 -0.1615 0.076 -0.1805 0.1995c -0.0285 0.1805 -0.0855 0.361 -0.3515 0.361c -0.2375 0 -0.3705 -0.19 -0.3705 -0.399c 0 -0.2945 0.266 -0.551 0.703 -0.551c 0.4845 0 0.7505 0.247 0.969 0.76c 0.19 0.456 0.247 1.425 0.247 2.071c 0 0.741 0.0285 0.988 0.4085 0.988h 0.4275c 0.361 0 0.4275 -0.228 0.4275 -0.551v -1.995c 0 -0.779 -0.095 -0.8265 -0.589 -0.8645c -0.0475 -0.057 -0.0475 -0.2565 0 -0.3135c 0.2375 0.0095 0.589 0.019 0.969 0.019c 0.38 0 0.8075 -0.0095 1.0735 -0.019c 0.0475 0.057 0.0475 0.2565 0 0.3135c -0.6175 0.038 -0.703 0.0855 -0.703 0.8645Z "/></symbol><symbol id="g15DE86D891118100C568580819B789B3" overflow="visible"><path d="M 0 0m 1.767 2.907c 0 0.798 0.1045 0.8265 0.684 0.874c 0.057 0.057 0.057 0.2565 0 0.3135c -0.323 -0.0095 -0.646 -0.019 -1.064 -0.019c -0.4085 0 -0.741 0.0095 -1.0545 0.019c -0.057 -0.057 -0.057 -0.2565 0 -0.3135c 0.5795 -0.038 0.684 -0.076 0.684 -0.8645v -1.7575c 0 -0.7885 -0.1045 -0.817 -0.684 -0.8645c -0.057 -0.057 -0.057 -0.2565 0 -0.3135c 0.3135 0.0095 0.646 0.019 1.064 0.019c 0.3895 0 0.5985 -0.019 0.988 -0.019c 1.1685 0 1.805 0.2945 1.805 1.311c 0 0.893 -0.779 1.1495 -1.7385 1.1495h -0.684Z m 4.0945 0.0095c 0 0.7885 0.1045 0.817 0.684 0.8645c 0.057 0.057 0.057 0.2565 0 0.3135c -0.323 -0.0095 -0.646 -0.019 -1.064 -0.019c -0.4085 0 -0.741 0.0095 -1.0545 0.019c -0.057 -0.057 -0.057 -0.2565 0 -0.3135c 0.5795 -0.038 0.684 -0.076 0.684 -0.8645v -1.7575c 0 -0.7885 -0.1045 -0.817 -0.684 -0.8645c -0.057 -0.057 -0.057 -0.2565 0 -0.3135c 0.3135 0.0095 0.646 0.019 1.064 0.019c 0.4085 0 0.7505 -0.0095 1.0545 -0.019c 0.057 0.057 0.057 0.2565 0 0.3135c -0.5795 0.038 -0.684 0.076 -0.684 0.8645Z m -2.489 -1.7195c 0 -0.779 -0.475 -0.9025 -0.9785 -0.9025c -0.4655 0 -0.627 0.095 -0.627 0.4275v 1.406h 0.6745c 0.7125 0 0.931 -0.4275 0.931 -0.931Z "/></symbol><symbol id="g84D5B0775AF6B63E9D146732051F63A6" overflow="visible"><path d="M 0 0m 1.881 0.5985c -0.0285 0 -0.0665 0.019 -0.0665 0.114v 2.166c 0 0.7885 0.1995 0.874 0.684 0.9025c 0.057 0.057 0.057 0.2565 0 0.3135c -0.2185 -0.0095 -0.76 -0.019 -1.1115 -0.019c -0.3135 0 -0.6935 0.0095 -1.0545 0.019c -0.057 -0.057 -0.057 -0.2565 0 -0.3135c 0.5795 -0.0285 0.7315 -0.114 0.7315 -0.9025v -1.6815c 0 -0.7885 -0.152 -0.874 -0.7315 -0.9025c -0.057 -0.057 -0.057 -0.2565 0 -0.3135c 0.3705 0.0095 0.7505 0.019 1.0545 0.019c 0.2185 0 0.475 -0.0095 0.5795 -0.019c 0.0475 0.133 0.133 0.323 0.2375 0.513l 1.482 2.9735c 0.0285 0 0.0665 -0.019 0.0665 -0.114v -2.1565c 0 -0.7885 -0.1995 -0.874 -0.684 -0.9025c -0.057 -0.057 -0.057 -0.2565 0 -0.3135c 0.2185 0.0095 0.7315 0.019 1.1115 0.019c 0.2945 0 0.684 -0.0095 1.0545 -0.019c 0.057 0.057 0.057 0.2565 0 0.3135c -0.5795 0.0285 -0.7315 0.114 -0.7315 0.9025v 1.6815c 0 0.7885 0.152 0.874 0.7315 0.9025c 0.057 0.057 0.057 0.2565 0 0.3135c -0.38 -0.0095 -0.76 -0.019 -1.0545 -0.019c -0.209 0 -0.475 0.0095 -0.57 0.019c -0.076 -0.171 -0.1615 -0.3705 -0.247 -0.532Z m 2.0425 5.0065c 0 0.1805 -0.133 0.3135 -0.361 0.3135c -0.171 0 -0.3325 -0.133 -0.3325 -0.2945c 0 -0.0285 0 -0.0475 0.0095 -0.0665c 0.0095 -0.0285 0.0095 -0.057 0.0095 -0.0855c 0 -0.209 -0.1995 -0.399 -0.475 -0.399c -0.285 0 -0.475 0.1995 -0.475 0.4085c 0 0.019 0 0.0475 0.0095 0.076c 0.0095 0.0285 0.0095 0.0475 0.0095 0.076c 0 0.152 -0.114 0.285 -0.323 0.285c -0.2185 0 -0.3705 -0.1425 -0.3705 -0.3135c 0 -0.513 0.5225 -0.8265 1.14 -0.8265c 0.608 0 1.159 0.304 1.159 0.8265Z "/></symbol><symbol id="gC110FFC20529D78AB6B9724BF2D3193A" overflow="visible"><path d="M 0 0m 0.3895 1.9475c 0 -0.969 0.646 -2.0425 1.995 -2.0425c 0.608 0 1.0735 0.2185 1.3965 0.532c 0.4275 0.418 0.6175 1.0165 0.6175 1.596c 0 0.988 -0.5415 2.1375 -1.995 2.1375c -0.627 0 -1.14 -0.2565 -1.4915 -0.665c -0.342 -0.4085 -0.5225 -0.9595 -0.5225 -1.558Z m 1.8715 1.8905c 0.817 0 1.3205 -0.741 1.3205 -2.109c 0 -1.197 -0.6175 -1.4915 -1.064 -1.4915c -0.988 0 -1.311 1.197 -1.311 1.9285c 0 0.8265 0.1995 1.672 1.0545 1.672Z "/></symbol><symbol id="gF1C320A4506B818F6BCB8CDA11A2DE6" overflow="visible"><path d="M 0 0m 1.729 1.159c 0 -0.7885 -0.1045 -0.836 -0.684 -0.8645c -0.057 -0.057 -0.057 -0.2565 0 -0.3135c 0.3705 0.0095 0.7505 0.019 1.064 0.019c 0.323 0 0.6935 -0.0095 1.0545 -0.019c 0.057 0.057 0.057 0.2565 0 0.3135c -0.5795 0.0285 -0.684 0.076 -0.684 0.8645v 2.565h 0.1615c 0.7695 0 0.9215 -0.266 1.083 -1.0355c 0.1235 0 0.247 0.038 0.247 0.038c -0.057 0.437 -0.095 0.855 -0.1045 1.406c -0.2185 -0.019 -0.931 -0.057 -1.406 -0.057h -0.7125c -0.475 0 -1.007 0.0285 -1.387 0.057c -0.0095 -0.551 -0.0475 -0.969 -0.114 -1.406c 0 0 0.133 -0.038 0.2565 -0.038c 0.1615 0.7695 0.304 1.0355 1.083 1.0355h 0.1425Z "/></symbol><symbol id="gD243A48DAC45EEC7C88A2988B14DD756" overflow="visible"><path d="M 0 0m 1.387 4.0755c -0.4085 0 -0.741 0.0095 -1.0545 0.019c -0.057 -0.057 -0.057 -0.2565 0 -0.3135c 0.5795 -0.038 0.684 -0.076 0.684 -0.8645v -1.7575c 0 -0.7885 -0.1045 -0.817 -0.684 -0.8645c -0.057 -0.057 -0.057 -0.2565 0 -0.3135c 0.3135 0.0095 0.646 0.019 1.064 0.019c 0.3515 0 0.665 -0.019 1.3015 -0.019c 0.817 0 1.4345 0.228 1.4345 1.1685c 0 0.532 -0.3325 0.9025 -0.912 1.007v 0.0285c 0.437 0.0855 0.7695 0.3895 0.7695 0.9595c 0 0.665 -0.4085 0.95 -1.558 0.95c -0.3895 0 -0.6365 -0.019 -1.045 -0.019Z m 0.38 -2.014h 0.722c 0.5795 0 0.8265 -0.38 0.8265 -0.95c 0 -0.6365 -0.361 -0.817 -0.874 -0.817c -0.494 0 -0.6745 0.0855 -0.6745 0.5225Z m 0 0.2755v 1.102c 0 0.285 0.2185 0.342 0.6745 0.342c 0.494 0 0.7885 -0.133 0.7885 -0.703c 0 -0.38 -0.247 -0.741 -0.836 -0.741Z "/></symbol><symbol id="gA3A5C9019285A4C81365474C03E3CF4E" overflow="visible"><path d="M 0 0m 3.667 0.8835c -0.3515 -0.361 -0.627 -0.513 -1.178 -0.513c -0.342 0 -0.741 0.1995 -1.0355 0.684c -0.19 0.3135 -0.304 0.7505 -0.304 1.3015l 2.527 -0.019c 0.114 0 0.1805 0.057 0.1805 0.1615c 0 0.798 -0.285 1.653 -1.6055 1.653c -0.8265 0 -1.9 -0.7885 -1.9 -2.2325c 0 -0.532 0.133 -1.045 0.4465 -1.406c 0.323 -0.38 0.7695 -0.608 1.4535 -0.608c 0.722 0 1.235 0.3325 1.615 0.8265c -0.0285 0.095 -0.0855 0.1425 -0.1995 0.152Z m -2.489 1.7955c 0.1805 1.0735 0.8455 1.159 1.0735 1.159c 0.361 0 0.7885 -0.1995 0.7885 -0.9975c 0 -0.0855 -0.038 -0.133 -0.1425 -0.133Z "/></symbol><symbol id="g5B0FB9F727640150CA57389F67238C5A" overflow="visible"><path d="M 0 0m 1.482 3.496c -0.0095 0.285 -0.0285 0.532 -0.076 0.627c -0.019 0.0475 -0.038 0.076 -0.114 0.076c -0.266 -0.1045 -0.513 -0.19 -1.1685 -0.2755c -0.019 -0.057 0 -0.209 0.019 -0.266c 0.513 -0.0475 0.6175 -0.095 0.6175 -0.646v -4.0565c 0 -0.7885 -0.1045 -0.836 -0.684 -0.8645c -0.057 -0.057 -0.057 -0.2565 0 -0.3135c 0.3325 0.0095 0.684 0.019 1.064 0.019c 0.38 0 0.836 -0.0095 1.1495 -0.019c 0.057 0.057 0.057 0.2565 0 0.3135c -0.6745 0.038 -0.779 0.076 -0.779 0.8645v 1.026c 0 0.1235 0.038 0.114 0.133 0.076c 0.2375 -0.095 0.5225 -0.152 0.8265 -0.152c 0.532 0 1.007 0.1615 1.3965 0.532c 0.4465 0.437 0.703 1.026 0.703 1.7955c 0 1.007 -0.7125 1.938 -1.6815 1.938c -0.437 0 -0.9215 -0.285 -1.3015 -0.7125c -0.057 -0.057 -0.095 -0.057 -0.1045 0.038Z m 0.1805 -0.3515c 0.247 0.304 0.684 0.589 0.9595 0.589c 0.608 0 1.1305 -0.684 1.1305 -1.7575c 0 -0.779 -0.2755 -1.748 -1.3395 -1.748c -0.171 0 -0.5035 0.0475 -0.6745 0.1995c -0.19 0.171 -0.228 0.228 -0.228 0.57v 1.729c 0 0.1995 0.038 0.285 0.152 0.418Z "/></symbol><symbol id="gAD720BDA8ADD5B075B4E7AAFF4B6A517" overflow="visible"><path d="M 0 0m 7.087 1.159v 1.7575c 0 0.779 0.1235 0.8265 0.646 0.8645c 0.057 0.057 0.057 0.2565 0 0.3135c -0.285 -0.0095 -0.646 -0.019 -1.026 -0.019c -0.38 0 -0.665 0.0095 -0.95 0.019c -0.057 -0.057 -0.057 -0.2565 0 -0.3135c 0.4845 -0.0475 0.5795 -0.0855 0.5795 -0.8645v -2.0615c 0 -0.2945 -0.0285 -0.4845 -0.399 -0.4845h -1.121c -0.285 0 -0.4085 0.0855 -0.4085 0.4845v 2.0615c 0.0095 0.779 0.076 0.8265 0.589 0.8645c 0.0475 0.057 0.0475 0.2565 0 0.3135c -0.2375 -0.0095 -0.589 -0.019 -0.969 -0.019c -0.38 0 -0.6935 0.0095 -0.931 0.019c -0.0475 -0.057 -0.0475 -0.2565 0 -0.3135c 0.475 -0.038 0.57 -0.0855 0.5605 -0.8645v -2.071c 0 -0.3515 -0.0475 -0.475 -0.399 -0.475h -1.083c -0.3515 0 -0.4085 0.1045 -0.4085 0.4845v 2.0615c 0 0.779 0.095 0.8265 0.589 0.8645c 0.0475 0.057 0.0475 0.2565 0 0.3135c -0.2375 -0.0095 -0.589 -0.019 -0.969 -0.019c -0.38 0 -0.7125 0.0095 -0.9785 0.019c -0.0475 -0.057 -0.0475 -0.2565 0 -0.3135c 0.5225 -0.038 0.608 -0.0855 0.608 -0.8645v -1.7575c 0 -0.779 -0.1235 -0.8265 -0.646 -0.8645c -0.057 -0.057 -0.057 -0.2565 0 -0.3135c 0.285 0.0095 0.646 0.019 1.026 0.019h 5.3105c 0.38 0 0.741 -0.0095 1.026 -0.019c 0.057 0.057 0.057 0.2565 0 0.3135c -0.5225 0.038 -0.646 0.0855 -0.646 0.8645Z "/></symbol><symbol id="gDBB5E8F5FC9EB2F5349B9D49D6966C24" overflow="visible"><path d="M 0 0m 3.667 0c 0 0 0.741 -0.0095 0.931 -0.019c 0.057 0.057 0.057 0.2565 0 0.3135c -0.3705 0.019 -0.4465 0.095 -0.608 0.399l -0.4275 0.8075c -0.2375 0.4465 -0.57 0.6745 -1.1115 0.6745v 0.0285c 0.3705 0.1045 0.532 0.437 0.6745 0.817c 0.114 0.2945 0.228 0.475 0.4275 0.475c 0.0855 0 0.1615 -0.0285 0.2185 -0.0665c 0.057 -0.038 0.1615 -0.0665 0.285 -0.0665c 0.209 0 0.38 0.1805 0.38 0.3705c 0 0.209 -0.228 0.4275 -0.5415 0.4275c -0.551 0 -0.8075 -0.513 -0.988 -0.9595c -0.209 -0.5225 -0.4655 -0.8835 -1.14 -0.8835v 0.5985c 0 0.7885 0.1045 0.817 0.589 0.8645c 0.057 0.057 0.057 0.2565 0 0.3135c -0.228 -0.0095 -0.589 -0.019 -0.969 -0.019c -0.4085 0 -0.741 0.0095 -1.0545 0.019c -0.057 -0.057 -0.057 -0.2565 0 -0.3135c 0.5795 -0.038 0.684 -0.076 0.684 -0.8645v -1.7575c 0 -0.7885 -0.1045 -0.817 -0.684 -0.8645c -0.057 -0.057 -0.057 -0.2565 0 -0.3135c 0.3135 0.0095 0.646 0.019 1.064 0.019c 0.3705 0 0.7505 -0.0095 0.9595 -0.019c 0.057 0.057 0.057 0.2565 0 0.3135c -0.4845 0.038 -0.589 0.076 -0.589 0.8645v 0.8265c 0.646 -0.038 0.817 -0.2945 0.988 -0.646l 0.4085 -0.855c 0.1235 -0.2565 0.3135 -0.475 0.5035 -0.4845Z "/></symbol><symbol id="gA47C4F0B8C3EC5E73D65847FE6AA30D8" overflow="visible"><path d="M 0 0m 4.408 2.9355c 0.1235 0 0.2565 0.2185 0.2565 0.3135c 0 0.076 -0.038 0.1615 -0.133 0.1615h -3.724c -0.114 0 -0.2375 -0.1805 -0.2375 -0.323c 0 -0.076 0.057 -0.152 0.1425 -0.152Z m 0 -1.577c 0.1235 0 0.2565 0.2185 0.2565 0.3135c 0 0.076 -0.038 0.1615 -0.133 0.1615h -3.724c -0.114 0 -0.2375 -0.1805 -0.2375 -0.323c 0 -0.076 0.057 -0.152 0.1425 -0.152Z "/></symbol><symbol id="gE3D46A95002377B54E13EEB95624C7DA" overflow="visible"><path d="M 0 0m 1.938 -1.52c 0.152 0.266 0.2755 0.532 0.3895 0.817c 0.76 1.8335 1.1875 2.812 1.6815 3.876c 0.19 0.399 0.323 0.551 0.7695 0.608c 0.057 0.057 0.057 0.2565 0 0.3135c -0.19 -0.0095 -0.4085 -0.019 -0.6745 -0.019c -0.285 0 -0.5795 0.0095 -0.8645 0.019c -0.057 -0.057 -0.057 -0.2565 0 -0.3135c 0.304 -0.0285 0.608 -0.0855 0.456 -0.4275l -0.9405 -2.1755c -0.0665 -0.152 -0.152 -0.1805 -0.228 0.0095l -0.8455 1.976c -0.171 0.399 -0.2185 0.5795 0.3135 0.6175c 0.057 0.057 0.057 0.2565 0 0.3135c -0.3515 -0.0095 -0.7315 -0.019 -1.0735 -0.019c -0.323 0 -0.5795 0.0095 -0.7695 0.019c -0.057 -0.057 -0.057 -0.2565 0 -0.3135c 0.38 -0.0475 0.5035 -0.133 0.7505 -0.7125l 1.0735 -2.4985c 0.0855 -0.19 0.228 -0.627 0.133 -0.893c -0.114 -0.3135 -0.228 -0.5795 -0.3705 -0.874c -0.1045 -0.19 -0.2375 -0.2755 -0.475 -0.2755c -0.133 0 -0.171 0.0285 -0.2755 0.0285c -0.2755 0 -0.418 -0.285 -0.418 -0.4085c 0 -0.1995 0.19 -0.3515 0.4465 -0.3515c 0.1995 0 0.5795 0.076 0.9215 0.684Z "/></symbol><symbol id="g111F480562FE960BC5F50C637F145B12" overflow="visible"><path d="M 0 0m 4.5505 2.9165c 0 0.7885 0.1045 0.817 0.684 0.8645c 0.057 0.057 0.057 0.2565 0 0.3135c -0.3325 -0.019 -0.7505 -0.019 -1.064 -0.019c -0.266 0 -0.646 0.0095 -1.0165 0.019c -0.057 -0.057 -0.057 -0.2565 0 -0.3135c 0.5795 -0.038 0.646 -0.076 0.646 -0.8645v -0.6175h -2.033v 0.6175c 0 0.7885 0.0665 0.817 0.646 0.8645c 0.057 0.057 0.057 0.2565 0 0.3135c -0.361 -0.0095 -0.722 -0.019 -1.026 -0.019c -0.285 0 -0.6745 0.0095 -1.0545 0.019c -0.057 -0.057 -0.057 -0.2565 0 -0.3135c 0.5795 -0.038 0.684 -0.076 0.684 -0.8645v -1.7575c 0 -0.7885 -0.1045 -0.817 -0.684 -0.8645c -0.057 -0.057 -0.057 -0.2565 0 -0.3135c 0.38 0.0095 0.76 0.019 1.064 0.019c 0.304 0 0.6745 -0.0095 1.0165 -0.019c 0.057 0.057 0.057 0.2565 0 0.3135c -0.5795 0.038 -0.646 0.076 -0.646 0.8645v 0.8265h 2.033v -0.8265c 0 -0.7885 -0.0665 -0.817 -0.646 -0.8645c -0.057 -0.057 -0.057 -0.2565 0 -0.3135c 0.342 0.0095 0.6935 0.019 1.026 0.019c 0.285 0 0.684 -0.0095 1.0545 -0.019c 0.057 0.057 0.057 0.2565 0 0.3135c -0.5795 0.038 -0.684 0.076 -0.684 0.8645Z "/></symbol><symbol id="g4F6C4B764A667C0D20F43C1E2952DF77" overflow="visible"><path d="M 0 0m 1.767 2.907c 0 0.798 0.1045 0.8265 0.684 0.874c 0.057 0.057 0.057 0.2565 0 0.3135c -0.323 -0.0095 -0.646 -0.019 -1.064 -0.019c -0.4085 0 -0.741 0.0095 -1.0545 0.019c -0.057 -0.057 -0.057 -0.2565 0 -0.3135c 0.5795 -0.038 0.684 -0.076 0.684 -0.8645v -1.7575c 0 -0.7885 -0.1045 -0.817 -0.684 -0.8645c -0.057 -0.057 -0.057 -0.2565 0 -0.3135c 0.3135 0.0095 0.646 0.019 1.064 0.019c 0.3895 0 0.5985 -0.019 0.988 -0.019c 1.1685 0 1.805 0.2945 1.805 1.311c 0 0.893 -0.779 1.1495 -1.7385 1.1495h -0.684Z m 1.6055 -1.71c 0 -0.779 -0.475 -0.9025 -0.9785 -0.9025c -0.4655 0 -0.627 0.095 -0.627 0.4275v 1.406h 0.6745c 0.7125 0 0.931 -0.4275 0.931 -0.931Z "/></symbol><symbol id="g5AAEF493CBDA45024F82AC9E8378049F" overflow="visible"><path d="M 0 0m 1.083 0c 0.266 0.0095 0.361 0.2565 0.475 0.5985c 0.247 0.7505 0.5225 1.216 0.9975 1.216h 0.247v -0.6555c 0 -0.7885 -0.1045 -0.817 -0.684 -0.8645c -0.057 -0.057 -0.057 -0.2565 0 -0.3135c 0.3135 0.0095 0.646 0.019 1.064 0.019c 0.4085 0 0.7505 -0.0095 1.0545 -0.019c 0.057 0.057 0.057 0.2565 0 0.3135c -0.5795 0.038 -0.684 0.076 -0.684 0.8645v 1.7575c 0 0.7885 0.1045 0.817 0.684 0.8645c 0.057 0.057 0.057 0.2565 0 0.3135c -0.323 -0.0095 -0.646 -0.019 -1.064 -0.019c -0.323 0 -0.5985 0.019 -0.836 0.019c -1.6625 0 -1.805 -0.684 -1.805 -1.197c 0 -0.6175 0.475 -0.931 1.178 -0.9595c 0.0285 0 0.0285 -0.0285 0.019 -0.038c -0.361 -0.1045 -0.5225 -0.304 -0.684 -0.6555c -0.1045 -0.2185 -0.19 -0.4275 -0.2375 -0.551c -0.1235 -0.323 -0.285 -0.38 -0.6555 -0.399c -0.057 -0.057 -0.057 -0.2565 0 -0.3135c 0.19 0.0095 0.931 0.019 0.931 0.019Z m 0.266 3.0495c 0 0.4465 0.1425 0.7315 0.912 0.7315c 0.3895 0 0.5415 -0.171 0.5415 -0.532v -1.1115h -0.665c -0.57 0 -0.7885 0.437 -0.7885 0.912Z "/></symbol><symbol id="gA087682AD38D2D620C1058FCC30E85F0" overflow="visible"><path d="M 0 0m 0.323 2.4415c 0 -1.7955 1.0355 -2.5365 1.957 -2.5365c 1.3015 0 2.052 0.969 2.052 2.166c 0 1.026 -0.57 2.0995 -1.9095 2.0995c -0.9025 0 -1.4535 -0.532 -1.6625 -0.988l -0.019 0.019c 0.038 0.494 0.19 1.102 0.3325 1.349c 0.304 0.5225 0.665 0.551 1.539 0.646c 0.855 0.095 1.463 0.3705 1.5485 1.4345c -0.0665 0.0285 -0.133 0.038 -0.209 0c -0.076 -0.456 -0.5795 -0.5795 -1.3775 -0.703c -0.7695 -0.1235 -1.4155 -0.3895 -1.8145 -1.14c -0.342 -0.646 -0.437 -1.444 -0.437 -2.3465Z m 0.817 -0.247c 0 0.532 0.19 1.6435 1.178 1.6435c 0.741 0 1.197 -0.855 1.197 -1.995c 0 -1.197 -0.551 -1.6055 -1.064 -1.6055c -0.6935 0 -1.311 0.9025 -1.311 1.957Z "/></symbol><symbol id="g1F0789F66DF5BF6464D009EFF79AE18" overflow="visible"><path d="M 0 0m 0.665 0.57c 0 -0.2755 0.228 -0.5035 0.5035 -0.5035c 0.2755 0 0.5035 0.228 0.5035 0.5035c 0 0.2755 -0.228 0.5035 -0.5035 0.5035c -0.2755 0 -0.5035 -0.228 -0.5035 -0.5035Z m 0 2.831c 0 -0.2755 0.228 -0.5035 0.5035 -0.5035c 0.2755 0 0.5035 0.228 0.5035 0.5035c 0 0.2755 -0.228 0.5035 -0.5035 0.5035c -0.2755 0 -0.5035 -0.228 -0.5035 -0.5035Z "/></symbol><symbol id="g75E31E9387E94E3A457DA9304838F591" overflow="visible"><path d="M 0 0m 4.1515 4.0755h -2.698c -0.38 0 -0.741 0.0095 -1.026 0.019c -0.057 -0.057 -0.057 -0.2565 0 -0.3135c 0.5225 -0.038 0.646 -0.0855 0.646 -0.8645v -1.7575c 0 -0.779 -0.1235 -0.8265 -0.741 -0.8645c -0.057 -0.057 -0.057 -0.2565 0 -0.3135c 0.285 0.0095 0.741 0.019 1.121 0.019c 0.38 0 0.665 -0.0095 0.95 -0.019c 0.057 0.057 0.057 0.2565 0 0.3135c -0.4845 0.0475 -0.5795 0.0855 -0.5795 0.8645v 2.0615c 0 0.2945 0.0285 0.4845 0.399 0.4845h 1.1495c 0.3515 0 0.4085 -0.1045 0.4085 -0.4845v -2.0615c 0 -0.779 -0.095 -0.8265 -0.589 -0.8645c -0.0475 -0.057 -0.0475 -0.2565 0 -0.3135c 0.2375 0.0095 0.589 0.019 0.969 0.019c 0.38 0 0.8075 -0.0095 1.0735 -0.019c 0.0475 0.057 0.0475 0.2565 0 0.3135c -0.6175 0.038 -0.703 0.0855 -0.703 0.8645v 1.7575c 0 0.779 0.1235 0.8265 0.646 0.8645c 0.057 0.057 0.057 0.2565 0 0.3135c -0.285 -0.0095 -0.646 -0.019 -1.026 -0.019Z "/></symbol><symbol id="g9AB4D653434A916376878838EF2269DC" overflow="visible"><path d="M 0 0m 3.496 5.5385c 0 0.6175 0.038 0.9975 0.038 0.9975c 0 0.0665 -0.038 0.095 -0.1235 0.095c -0.2375 -0.095 -0.95 -0.228 -1.33 -0.2565c -0.019 -0.076 0 -0.228 0.057 -0.285c 0.551 -0.038 0.608 -0.0665 0.608 -0.779v -1.463c -0.1805 0.1995 -0.4085 0.323 -0.703 0.323c -0.8645 0 -1.672 -0.817 -1.672 -2.337c 0 -1.026 0.513 -1.9285 1.463 -1.9285c 0.38 0 0.665 0.114 0.912 0.38v -1.33c 0 -0.7885 -0.1045 -0.836 -0.684 -0.8645c -0.057 -0.057 -0.057 -0.2565 0 -0.3135c 0.3325 0.0095 0.684 0.019 1.064 0.019c 0.38 0 0.741 -0.0095 1.0545 -0.019c 0.057 0.057 0.057 0.2565 0 0.3135c -0.5795 0.0285 -0.684 0.076 -0.684 0.8645v 1.2255c 0.209 -0.209 0.418 -0.2755 0.7125 -0.2755c 0.988 0 1.6625 1.0355 1.6625 2.318c 0 1.0545 -0.5035 1.9475 -1.4535 1.9475c -0.4465 0 -0.7125 -0.171 -0.9215 -0.4275Z m 0.6555 -1.748c 0.7885 0 0.9405 -1.0165 0.9405 -1.8145c 0 -0.8265 -0.152 -1.691 -0.9785 -1.691c -0.1995 0 -0.4085 0.057 -0.6175 0.361v 2.7455c 0.209 0.304 0.4465 0.399 0.6555 0.399Z m -2.052 -3.5055c -0.779 0 -0.95 1.026 -0.95 1.824c 0 0.8265 0.171 1.6815 0.9975 1.6815c 0.209 0 0.3895 -0.095 0.5985 -0.3515v -2.736c -0.1805 -0.285 -0.3895 -0.418 -0.646 -0.418Z "/></symbol><symbol id="g30870B079B88F136C2A9AD2E2890E4EB" overflow="visible"><path d="M 0 0m 1.881 0.5985c -0.0285 0 -0.0665 0.019 -0.0665 0.114v 2.166c 0 0.7885 0.1995 0.874 0.684 0.9025c 0.057 0.057 0.057 0.2565 0 0.3135c -0.2185 -0.0095 -0.76 -0.019 -1.1115 -0.019c -0.3135 0 -0.6935 0.0095 -1.0545 0.019c -0.057 -0.057 -0.057 -0.2565 0 -0.3135c 0.5795 -0.0285 0.7315 -0.114 0.7315 -0.9025v -1.6815c 0 -0.7885 -0.152 -0.874 -0.7315 -0.9025c -0.057 -0.057 -0.057 -0.2565 0 -0.3135c 0.3705 0.0095 0.7505 0.019 1.0545 0.019c 0.2185 0 0.475 -0.0095 0.5795 -0.019c 0.0475 0.133 0.133 0.323 0.2375 0.513l 1.482 2.9735c 0.0285 0 0.0665 -0.019 0.0665 -0.114v -2.1565c 0 -0.7885 -0.1995 -0.874 -0.684 -0.9025c -0.057 -0.057 -0.057 -0.2565 0 -0.3135c 0.2185 0.0095 0.7315 0.019 1.1115 0.019c 0.2945 0 0.684 -0.0095 1.0545 -0.019c 0.057 0.057 0.057 0.2565 0 0.3135c -0.5795 0.0285 -0.7315 0.114 -0.7315 0.9025v 1.6815c 0 0.7885 0.152 0.874 0.7315 0.9025c 0.057 0.057 0.057 0.2565 0 0.3135c -0.38 -0.0095 -0.76 -0.019 -1.0545 -0.019c -0.209 0 -0.475 0.0095 -0.57 0.019c -0.076 -0.171 -0.1615 -0.3705 -0.247 -0.532Z "/></symbol><symbol id="g7B65AFC2AB15B852360730FC4AD8D7EC" overflow="visible"><path d="M 0 0m 1.539 2.9165c 0 0.7885 0.1045 0.817 0.589 0.8645c 0.057 0.057 0.057 0.2565 0 0.3135c -0.228 -0.0095 -0.589 -0.019 -0.969 -0.019c -0.4085 0 -0.7315 0.0095 -1.045 0.019c -0.057 -0.057 -0.057 -0.2565 0 -0.3135c 0.5795 -0.038 0.684 -0.076 0.684 -0.8645v -0.4085c 0 -0.893 0.1995 -1.2445 1.083 -1.2445c 0.5985 0 1.0735 0.342 1.463 0.627v -0.7315c 0 -0.7885 -0.1045 -0.817 -0.684 -0.8645c -0.057 -0.057 -0.057 -0.2565 0 -0.3135c 0.3135 0.0095 0.646 0.019 1.064 0.019c 0.4085 0 0.76 -0.0095 1.064 -0.019c 0.057 0.057 0.057 0.2565 0 0.3135c -0.5795 0.038 -0.684 0.076 -0.684 0.8645v 1.7575c 0 0.7885 0.1045 0.817 0.684 0.8645c 0.057 0.057 0.057 0.2565 0 0.3135c -0.323 -0.0095 -0.646 -0.019 -1.064 -0.019c -0.3705 0 -0.7505 0.0095 -0.969 0.019c -0.057 -0.057 -0.057 -0.2565 0 -0.3135c 0.4845 -0.038 0.589 -0.076 0.589 -0.8645v -0.684c -0.323 -0.285 -0.665 -0.5415 -1.159 -0.5415c -0.6175 0 -0.646 0.323 -0.646 1.064Z "/></symbol></defs></svg>