<svg viewBox="0 0 248.591377953 148.439838583" width="248.591377953pt" height="148.439838583pt" xmlns="http://www.w3.org/2000/svg" xmlns:xlink="http://www.w3.org/1999/xlink" xmlns:h5="http://www.w3.org/1999/xhtml"><path fill="#ffffff" fill-rule="nonzero" d="M 0 0v 148.439838583h 248.591377953v -148.439838583Z "/><g transform="translate(8 8)"><path fill="#d8d5cf" fill-rule="nonzero" stroke="#1a1a18" stroke-width="0.6" stroke-linecap="butt" stroke-linejoin="miter" stroke-miterlimit="4" transform="translate(36.835425197 82.160649606)" d="M 0 0v 36.850393701h 85.039370079v -36.850393701h -85.039370079Z "/><path fill="none" transform="translate(133.213377953 92.543413386)" d="M 0 0h 46.095v 7.014h -46.095v -7.014Z "/><g transform="translate(133.213377906 92.543413291)"><g transform="matrix(1 0 0 -1 0 6.909)"><use xlink:href="#g568D5D3ED6A40ED2A5E686080CDC7CBF" x="0" y="0" fill="#1a1a18" fill-rule="nonzero"/><use xlink:href="#g6120A1A2271A87AD1F9AE7AA95366B96" x="6.153" y="0" fill="#1a1a18" fill-rule="nonzero"/><use xlink:href="#g9FC2A71BDDDA2D0D564137C940E24D2D" x="10.731" y="0" fill="#1a1a18" fill-rule="nonzero"/><use xlink:href="#g6BE6E829C497D42358C95A1CE01E9C8D" x="15.7605" y="0" fill="#1a1a18" fill-rule="nonzero"/><use xlink:href="#g42E7AC9271EF550B3DC462A8D9074BEB" x="20.454" y="0" fill="#1a1a18" fill-rule="nonzero"/><use xlink:href="#gEFE4B6AA52BBE68EAC50879BB9FC5B99" x="24.948" y="0" fill="#1a1a18" fill-rule="nonzero"/><use xlink:href="#g71D81E84C847076CE887D3A5D7C0718B" x="29.6205" y="0" fill="#1a1a18" fill-rule="nonzero"/><use xlink:href="#g804279143320936389B29079930EB467" x="35.7735" y="0" fill="#1a1a18" fill-rule="nonzero"/><use xlink:href="#g78600E8C98627C719956C28D931C0FCD" x="40.824" y="0" fill="#1a1a18" fill-rule="nonzero"/></g></g><path fill="none" transform="translate(133.213377953 102.241137795)" d="M 0 0h 49.563v 8.028h -49.563v -8.028Z "/><g transform="translate(133.213377953 102.241137795)"><g transform="matrix(1 0 0 -1 0 5.922)"><use xlink:href="#g82C799C01D06EF19E125C6F4348D75CA" x="0" y="0" fill="#7c7f6a" fill-rule="nonzero"/><use xlink:href="#gD351E21AD091924D522A6D2D6355C932" x="6.12" y="0" fill="#7c7f6a" fill-rule="nonzero"/><use xlink:href="#gB118266EF18AECCCCEF724ECE6F3D1D3" x="10.143" y="0" fill="#7c7f6a" fill-rule="nonzero"/><use xlink:href="#gAE9E23F53692F92B7B295E455DF99330" x="14.886" y="0" fill="#7c7f6a" fill-rule="nonzero"/><use xlink:href="#g7253BD4F4A12C91ABC7B03558525FA66" x="19.404" y="0" fill="#7c7f6a" fill-rule="nonzero"/><use xlink:href="#gD351E21AD091924D522A6D2D6355C932" x="23.94" y="0" fill="#7c7f6a" fill-rule="nonzero"/><use xlink:href="#g82C799C01D06EF19E125C6F4348D75CA" x="30.213" y="0" fill="#7c7f6a" fill-rule="nonzero"/><use xlink:href="#g7253BD4F4A12C91ABC7B03558525FA66" x="36.333" y="0" fill="#7c7f6a" fill-rule="nonzero"/><use xlink:href="#g4AD90A9068D018AD3CEC8FD5EA9519DC" x="40.869" y="0" fill="#7c7f6a" fill-rule="nonzero"/><use xlink:href="#gD351E21AD091924D522A6D2D6355C932" x="45.54" y="0" fill="#7c7f6a" fill-rule="nonzero"/></g></g><path fill="#a29b8c" fill-rule="nonzero" stroke="#1a1a18" stroke-width="0.6" stroke-linecap="butt" stroke-linejoin="miter" stroke-miterlimit="4" transform="translate(36.835425197 50.979547244)" d="M 0 0v 31.181102362h 85.039370079v -31.181102362h -85.039370079Z "/><path fill="none" transform="translate(133.213377953 58.527665354)" d="M 0 0h 43.3755v 7.014h -43.3755v -7.014Z "/><g transform="translate(133.213377953 58.52766526)"><g transform="matrix(1 0 0 -1 0 6.909)"><use xlink:href="#g3CD763AC845B0CB818F9BD746791AD3E" x="0" y="0" fill="#1a1a18" fill-rule="nonzero"/><use xlink:href="#g6BE6E829C497D42358C95A1CE01E9C8D" x="6.153" y="0" fill="#1a1a18" fill-rule="nonzero"/><use xlink:href="#g42E7AC9271EF550B3DC462A8D9074BEB" x="10.8465" y="0" fill="#1a1a18" fill-rule="nonzero"/><use xlink:href="#gC8E778CD8A5E7E3157A6AF0F0CCA26BC" x="15.3405" y="0" fill="#1a1a18" fill-rule="nonzero"/><use xlink:href="#gB9CB8C21641BB9D6945EBC7ED76275C1" x="21" y="0" fill="#1a1a18" fill-rule="nonzero"/><use xlink:href="#g71D81E84C847076CE887D3A5D7C0718B" x="25.7985" y="0" fill="#1a1a18" fill-rule="nonzero"/><use xlink:href="#g568D5D3ED6A40ED2A5E686080CDC7CBF" x="31.9515" y="0" fill="#1a1a18" fill-rule="nonzero"/><use xlink:href="#g78600E8C98627C719956C28D931C0FCD" x="38.1045" y="0" fill="#1a1a18" fill-rule="nonzero"/></g></g><path fill="none" transform="translate(133.213377953 68.225389764)" d="M 0 0h 99.378v 8.028h -99.378v -8.028Z "/><g transform="translate(133.213377953 68.225389764)"><g transform="matrix(1 0 0 -1 0 5.922)"><use xlink:href="#g7253BD4F4A12C91ABC7B03558525FA66" x="0" y="0" fill="#7c7f6a" fill-rule="nonzero"/><use xlink:href="#g611C332DF318E3AAFADBD04F1094DD79" x="4.536" y="0" fill="#7c7f6a" fill-rule="nonzero"/><use xlink:href="#g7815E2C79248546AAEE49EC7F57ADD4E" x="8.541" y="0" fill="#7c7f6a" fill-rule="nonzero"/><use xlink:href="#g611C332DF318E3AAFADBD04F1094DD79" x="12.393" y="0" fill="#7c7f6a" fill-rule="nonzero"/><use xlink:href="#gFFF6E9B9A983FEBF7FB8DCFB305974E9" x="16.398" y="0" fill="#7c7f6a" fill-rule="nonzero"/><use xlink:href="#gA5834380700F55B3689219A2CC4667E3" x="21.033" y="0" fill="#7c7f6a" fill-rule="nonzero"/><use xlink:href="#gF7AD5B3248F8366898BA115B8D318C4E" x="26.307" y="0" fill="#7c7f6a" fill-rule="nonzero"/><use xlink:href="#gE910E7524AAA5201D690B7EBF26D2697" x="30.42" y="0" fill="#7c7f6a" fill-rule="nonzero"/><use xlink:href="#g2A7A063817D03B183B2F5455DB77D169" x="36.999" y="0" fill="#7c7f6a" fill-rule="nonzero"/><use xlink:href="#gD351E21AD091924D522A6D2D6355C932" x="44.64" y="0" fill="#7c7f6a" fill-rule="nonzero"/><use xlink:href="#gD351E21AD091924D522A6D2D6355C932" x="48.663" y="0" fill="#7c7f6a" fill-rule="nonzero"/><use xlink:href="#g82C799C01D06EF19E125C6F4348D75CA" x="54.936" y="0" fill="#7c7f6a" fill-rule="nonzero"/><use xlink:href="#g7253BD4F4A12C91ABC7B03558525FA66" x="61.056" y="0" fill="#7c7f6a" fill-rule="nonzero"/><use xlink:href="#g4AD90A9068D018AD3CEC8FD5EA9519DC" x="65.592" y="0" fill="#7c7f6a" fill-rule="nonzero"/><use xlink:href="#gD351E21AD091924D522A6D2D6355C932" x="70.263" y="0" fill="#7c7f6a" fill-rule="nonzero"/><use xlink:href="#gCCF28E29FF8CFE46410F5A526209CFA4" x="74.286" y="0" fill="#7c7f6a" fill-rule="nonzero"/><use xlink:href="#g9C9C9262F30302871979B086E3504457" x="78.516" y="0" fill="#7c7f6a" fill-rule="nonzero"/><use xlink:href="#gD351E21AD091924D522A6D2D6355C932" x="82.917" y="0" fill="#7c7f6a" fill-rule="nonzero"/><use xlink:href="#g4AD90A9068D018AD3CEC8FD5EA9519DC" x="86.94" y="0" fill="#7c7f6a" fill-rule="nonzero"/><use xlink:href="#gD351E21AD091924D522A6D2D6355C932" x="91.611" y="0" fill="#7c7f6a" fill-rule="nonzero"/><use xlink:href="#g4AE5337A4A3FF09E9A9AF89B4B83FC9D" x="95.634" y="0" fill="#7c7f6a" fill-rule="nonzero"/></g></g><path fill="#7c7f6a" fill-rule="nonzero" stroke="#1a1a18" stroke-width="0.6" stroke-linecap="butt" stroke-linejoin="miter" stroke-miterlimit="4" transform="translate(36.835425197 25.46773622)" d="M 0 0v 25.511811024h 85.039370079v -25.511811024h -85.039370079Z "/><path fill="none" transform="translate(133.213377953 29.005208661)" d="M 0 0h 88.9035v 9.366h -88.9035v -9.366Z "/><g transform="translate(133.213377906 29.005208614)"><g transform="matrix(1 0 0 -1 0 6.909)"><use xlink:href="#g66D110B88773733650ADD996D43A4D85" x="0" y="0" fill="#1a1a18" fill-rule="nonzero"/><use xlink:href="#g85EEFA3CF2ECFC5855AF8E927776B793" x="5.4495" y="0" fill="#1a1a18" fill-rule="nonzero"/><use xlink:href="#gB51E3EB91C9F0608A3899E7DAD922A18" x="13.0515" y="0" fill="#1a1a18" fill-rule="nonzero"/><use xlink:href="#gC1379707D8F32FABA5511CD9F7E78B4B" x="18.1965" y="0" fill="#1a1a18" fill-rule="nonzero"/><use xlink:href="#g85EEFA3CF2ECFC5855AF8E927776B793" x="23.73" y="0" fill="#1a1a18" fill-rule="nonzero"/><use xlink:href="#g6BE6E829C497D42358C95A1CE01E9C8D" x="31.332" y="0" fill="#1a1a18" fill-rule="nonzero"/><use xlink:href="#g2CCA8BF5638277170DC3145805989D03" x="38.6505" y="0" fill="#1a1a18" fill-rule="nonzero"/><use xlink:href="#gEFE4B6AA52BBE68EAC50879BB9FC5B99" x="43.9425" y="0" fill="#1a1a18" fill-rule="nonzero"/><use xlink:href="#gC1379707D8F32FABA5511CD9F7E78B4B" x="48.615" y="0" fill="#1a1a18" fill-rule="nonzero"/><use xlink:href="#g2CCA8BF5638277170DC3145805989D03" x="54.1485" y="0" fill="#1a1a18" fill-rule="nonzero"/><use xlink:href="#g63CAA9DA1449BB21401EBA22A3288F1B" x="59.4405" y="0" fill="#1a1a18" fill-rule="nonzero"/><use xlink:href="#g6BE6E829C497D42358C95A1CE01E9C8D" x="66.8535" y="0" fill="#1a1a18" fill-rule="nonzero"/><use xlink:href="#g71D81E84C847076CE887D3A5D7C0718B" x="71.547" y="0" fill="#1a1a18" fill-rule="nonzero"/><use xlink:href="#g568D5D3ED6A40ED2A5E686080CDC7CBF" x="77.7" y="0" fill="#1a1a18" fill-rule="nonzero"/><use xlink:href="#g804279143320936389B29079930EB467" x="83.853" y="0" fill="#1a1a18" fill-rule="nonzero"/></g></g><path fill="none" transform="translate(133.213377953 39.878933071)" d="M 0 0h 76.653v 8.028h -76.653v -8.028Z "/><g transform="translate(133.213377953 39.878933071)"><g transform="matrix(1 0 0 -1 0 5.922)"><use xlink:href="#gB118266EF18AECCCCEF724ECE6F3D1D3" x="0" y="0" fill="#7c7f6a" fill-rule="nonzero"/><use xlink:href="#gD351E21AD091924D522A6D2D6355C932" x="4.743" y="0" fill="#7c7f6a" fill-rule="nonzero"/><use xlink:href="#gBA3E9C2E61A84E296B252679103E17C4" x="8.766" y="0" fill="#7c7f6a" fill-rule="nonzero"/><use xlink:href="#g5F2B105DCE44482CD07DFE0B4651B637" x="13.608" y="0" fill="#7c7f6a" fill-rule="nonzero"/><use xlink:href="#g6EA5A1981697E2B5E95285C58F7F7AD0" x="18.882" y="0" fill="#7c7f6a" fill-rule="nonzero"/><use xlink:href="#gAE9E23F53692F92B7B295E455DF99330" x="24.156" y="0" fill="#7c7f6a" fill-rule="nonzero"/><use xlink:href="#gCCF28E29FF8CFE46410F5A526209CFA4" x="28.674" y="0" fill="#7c7f6a" fill-rule="nonzero"/><use xlink:href="#g4AD90A9068D018AD3CEC8FD5EA9519DC" x="32.904" y="0" fill="#7c7f6a" fill-rule="nonzero"/><use xlink:href="#gD351E21AD091924D522A6D2D6355C932" x="37.575" y="0" fill="#7c7f6a" fill-rule="nonzero"/><use xlink:href="#gAE9E23F53692F92B7B295E455DF99330" x="41.598" y="0" fill="#7c7f6a" fill-rule="nonzero"/><use xlink:href="#g6EA5A1981697E2B5E95285C58F7F7AD0" x="46.116" y="0" fill="#7c7f6a" fill-rule="nonzero"/><use xlink:href="#gCCF28E29FF8CFE46410F5A526209CFA4" x="51.39" y="0" fill="#7c7f6a" fill-rule="nonzero"/><use xlink:href="#g6F3F83F8220F4B0FE27ED35A349BC8A6" x="55.62" y="0" fill="#7c7f6a" fill-rule="nonzero"/><use xlink:href="#gD351E21AD091924D522A6D2D6355C932" x="59.931" y="0" fill="#7c7f6a" fill-rule="nonzero"/><use xlink:href="#g611C332DF318E3AAFADBD04F1094DD79" x="63.954" y="0" fill="#7c7f6a" fill-rule="nonzero"/><use xlink:href="#gD351E21AD091924D522A6D2D6355C932" x="67.959" y="0" fill="#7c7f6a" fill-rule="nonzero"/><use xlink:href="#g4AD90A9068D018AD3CEC8FD5EA9519DC" x="71.982" y="0" fill="#7c7f6a" fill-rule="nonzero"/></g></g><path fill="#4c4c4b" fill-rule="nonzero" stroke="#1a1a18" stroke-width="0.6" stroke-linecap="butt" stroke-linejoin="miter" stroke-miterlimit="4" transform="translate(36.835425197 12.711830709)" d="M 0 0v 12.755905512h 85.039370079v -12.755905512h -85.039370079Z "/><path fill="none" transform="translate(133.213377953 11.047350394)" d="M 0 0h 26.9325v 7.014h -26.9325v -7.014Z "/><g transform="translate(133.213377953 11.047350299)"><g transform="matrix(1 0 0 -1 0 6.909)"><use xlink:href="#g3CD763AC845B0CB818F9BD746791AD3E" x="0" y="0" fill="#1a1a18" fill-rule="nonzero"/><use xlink:href="#g2CCA8BF5638277170DC3145805989D03" x="6.153" y="0" fill="#1a1a18" fill-rule="nonzero"/><use xlink:href="#gC8E778CD8A5E7E3157A6AF0F0CCA26BC" x="11.445" y="0" fill="#1a1a18" fill-rule="nonzero"/><use xlink:href="#g9FC2A71BDDDA2D0D564137C940E24D2D" x="17.1045" y="0" fill="#1a1a18" fill-rule="nonzero"/><use xlink:href="#gB9CB8C21641BB9D6945EBC7ED76275C1" x="22.134" y="0" fill="#1a1a18" fill-rule="nonzero"/></g></g><path fill="none" transform="translate(133.213377953 21.204074803)" d="M 0 0h 39.942v 7.11h -39.942v -7.11Z "/><g transform="translate(133.213377953 21.204074661)"><g transform="matrix(1 0 0 -1 0 5.922)"><use xlink:href="#g5F2B105DCE44482CD07DFE0B4651B637" x="0" y="0" fill="#7c7f6a" fill-rule="nonzero"/><use xlink:href="#gF7AD5B3248F8366898BA115B8D318C4E" x="5.274" y="0" fill="#7c7f6a" fill-rule="nonzero"/><use xlink:href="#g785243DD0DBD5D3E5E793E04FC62E83F" x="9.387" y="0" fill="#7c7f6a" fill-rule="nonzero"/><use xlink:href="#g6EA5A1981697E2B5E95285C58F7F7AD0" x="17.028" y="0" fill="#7c7f6a" fill-rule="nonzero"/><use xlink:href="#gBA3E9C2E61A84E296B252679103E17C4" x="24.552" y="0" fill="#7c7f6a" fill-rule="nonzero"/><use xlink:href="#g5F2B105DCE44482CD07DFE0B4651B637" x="29.394" y="0" fill="#7c7f6a" fill-rule="nonzero"/><use xlink:href="#g6EA5A1981697E2B5E95285C58F7F7AD0" x="34.668" y="0" fill="#7c7f6a" fill-rule="nonzero"/></g></g><path fill="none" stroke="#1a1a18" stroke-width="0.6" stroke-linecap="butt" stroke-linejoin="miter" stroke-miterlimit="4" transform="translate(18.410228346 19.235522422)" d="M 0 0m 0 99.775520885v -99.775520885"/><path fill="#1a1a18" fill-rule="nonzero" stroke="#1a1a18" stroke-width="0.6" stroke-linecap="butt" stroke-linejoin="miter" stroke-miterlimit="4" transform="translate(16.284244094 13.566231181)" d="M 0 0m 2.125984252 0l 2.125984252 5.669291339h -4.251968504l 2.125984252 -5.669291339Z "/><path fill="none" transform="translate(6.510228346 124.857838583)" d="M 0 0h 23.8v 7.582h -23.8v -7.582Z "/><g transform="translate(6.51022822 124.857838457)"><g transform="matrix(1 0 0 -1 0 5.593)"><use xlink:href="#g1EEFC323E4FEBE7654D5CC1583F61AF4" x="0" y="0" fill="#7c7f6a" fill-rule="nonzero"/><use xlink:href="#g3EDD64AE7B5A40E8FE9DD75D51E8EE8A" x="3.638" y="0" fill="#7c7f6a" fill-rule="nonzero"/><use xlink:href="#gF931FC691828778A920607CF18B9C32A" x="7.4205" y="0" fill="#7c7f6a" fill-rule="nonzero"/><use xlink:href="#g430571653545A60A3EF6386D136EADA3" x="11.305" y="0" fill="#7c7f6a" fill-rule="nonzero"/><use xlink:href="#gE34E15A46C94CBC2E6ABE8844A1DDB21" x="15.7165" y="0" fill="#7c7f6a" fill-rule="nonzero"/><use xlink:href="#g5D2E58E4CDB4D7E6C81847885E22D756" x="20.0005" y="0" fill="#7c7f6a" fill-rule="nonzero"/></g></g><path fill="none" transform="translate(2.668228346)" d="M 0 0h 31.484v 6.715h -31.484v -6.715Z "/><g transform="translate(2.668228283 -3.1e-8)"><g transform="matrix(1 0 0 -1 0 5.593)"><use xlink:href="#gDEA2A0379B7527B5C1F8D88530B6617D" x="0" y="0" fill="#7c7f6a" fill-rule="nonzero"/><use xlink:href="#gE34E15A46C94CBC2E6ABE8844A1DDB21" x="5.78" y="0" fill="#7c7f6a" fill-rule="nonzero"/><use xlink:href="#gB3F6F741CFF64E2F87AE274E4C795DAE" x="10.064" y="0" fill="#7c7f6a" fill-rule="nonzero"/><use xlink:href="#gE34E15A46C94CBC2E6ABE8844A1DDB21" x="14.5435" y="0" fill="#7c7f6a" fill-rule="nonzero"/><use xlink:href="#gBAF1B227155053221F22F6E06EEFED60" x="18.8275" y="0" fill="#7c7f6a" fill-rule="nonzero"/><use xlink:href="#gE34E15A46C94CBC2E6ABE8844A1DDB21" x="23.4005" y="0" fill="#7c7f6a" fill-rule="nonzero"/><use xlink:href="#g5D2E58E4CDB4D7E6C81847885E22D756" x="27.6845" y="0" fill="#7c7f6a" fill-rule="nonzero"/></g></g><path fill="none" transform="translate(0 54.191598425)" d="M 0 0m 0 24.757l 0 -24.757h 8.474l 0 24.757h -8.474Z "/><g transform="matrix(0 -1 1 0 -1.6e-8 78.948598504)"><g transform="matrix(1 0 0 -1 0 6.251)"><use xlink:href="#gD243A48DAC45EEC7C88A2988B14DD756" x="0" y="0" fill="#1a1a18" fill-rule="nonzero"/><use xlink:href="#g5B0FB9F727640150CA57389F67238C5A" x="4.5505" y="0" fill="#1a1a18" fill-rule="nonzero"/><use xlink:href="#gA3A5C9019285A4C81365474C03E3CF4E" x="9.481" y="0" fill="#1a1a18" fill-rule="nonzero"/><use xlink:href="#gC2CBF98E7E07B945C6FA500EA68B32AD" x="13.7275" y="0" fill="#1a1a18" fill-rule="nonzero"/><use xlink:href="#g5AAEF493CBDA45024F82AC9E8378049F" x="20.1875" y="0" fill="#1a1a18" fill-rule="nonzero"/></g></g></g><defs><symbol id="g568D5D3ED6A40ED2A5E686080CDC7CBF" overflow="visible"><path d="M 0 0m 2.079 0.6615c -0.0315 0 -0.0735 0.021 -0.0735 0.126v 2.394c 0 0.8715 0.2205 0.966 0.756 0.9975c 0.063 0.063 0.063 0.2835 0 0.3465c -0.2415 -0.0105 -0.84 -0.021 -1.2285 -0.021c -0.3465 0 -0.7665 0.0105 -1.1655 0.021c -0.063 -0.063 -0.063 -0.2835 0 -0.3465c 0.6405 -0.0315 0.8085 -0.126 0.8085 -0.9975v -1.8585c 0 -0.8715 -0.168 -0.966 -0.8085 -0.9975c -0.063 -0.063 -0.063 -0.2835 0 -0.3465c 0.4095 0.0105 0.8295 0.021 1.1655 0.021c 0.2415 0 0.525 -0.0105 0.6405 -0.021c 0.0525 0.147 0.147 0.357 0.2625 0.567l 1.638 3.2865c 0.0315 0 0.0735 -0.021 0.0735 -0.126v -2.3835c 0 -0.8715 -0.2205 -0.966 -0.756 -0.9975c -0.063 -0.063 -0.063 -0.2835 0 -0.3465c 0.2415 0.0105 0.8085 0.021 1.2285 0.021c 0.3255 0 0.756 -0.0105 1.1655 -0.021c 0.063 0.063 0.063 0.2835 0 0.3465c -0.6405 0.0315 -0.8085 0.126 -0.8085 0.9975v 1.8585c 0 0.8715 0.168 0.966 0.8085 0.9975c 0.063 0.063 0.063 0.2835 0 0.3465c -0.42 -0.0105 -0.84 -0.021 -1.1655 -0.021c -0.231 0 -0.525 0.0105 -0.63 0.021c -0.084 -0.189 -0.1785 -0.4095 -0.273 -0.588Z "/></symbol><symbol id="g6120A1A2271A87AD1F9AE7AA95366B96" overflow="visible"><path d="M 0 0m 0.4515 0.8715c 0 -0.231 0.1365 -0.399 0.357 -0.567c 0.2625 -0.189 0.609 -0.4095 1.4385 -0.4095c 1.05 0 1.869 0.315 1.869 1.3545c 0 0.63 -0.315 1.05 -1.0605 1.176v 0.0315c 0.6405 0.2415 0.8085 0.5355 0.8085 1.0815c 0 0.609 -0.42 1.071 -1.4805 1.071c -0.5565 0 -1.05 -0.1995 -1.617 -0.294l -0.1365 -1.2495c 0.084 -0.042 0.189 -0.0525 0.2835 -0.042c 0.1995 0.609 0.462 1.218 1.344 1.218c 0.5775 0 0.7665 -0.3465 0.7665 -0.7665c 0 -0.4305 -0.0735 -0.9345 -0.7455 -0.9345c -0.1995 0 -0.378 0.063 -0.5775 0.063c -0.0945 0 -0.1995 -0.063 -0.1995 -0.231c 0 -0.168 0.1155 -0.2205 0.21 -0.2205c 0.1995 0 0.315 0.063 0.5775 0.063c 0.777 0 0.924 -0.5355 0.924 -0.9975c 0 -0.6195 -0.231 -0.9555 -0.9765 -0.9555c -0.5985 0 -0.7035 0.2205 -0.882 0.5985c -0.084 0.189 -0.1995 0.336 -0.4725 0.336c -0.189 0 -0.4305 -0.1575 -0.4305 -0.3255Z "/></symbol><symbol id="g9FC2A71BDDDA2D0D564137C940E24D2D" overflow="visible"><path d="M 0 0m 1.533 4.5045c -0.4515 0 -0.819 0.0105 -1.1655 0.021c -0.063 -0.063 -0.063 -0.2835 0 -0.3465c 0.6405 -0.042 0.756 -0.084 0.756 -0.9555v -1.9425c 0 -0.8715 -0.1155 -0.903 -0.756 -0.9555c -0.063 -0.063 -0.063 -0.2835 0 -0.3465c 0.3465 0.0105 0.714 0.021 1.176 0.021c 0.3885 0 0.735 -0.021 1.4385 -0.021c 0.903 0 1.5855 0.252 1.5855 1.2915c 0 0.588 -0.3675 0.9975 -1.008 1.113v 0.0315c 0.483 0.0945 0.8505 0.4305 0.8505 1.0605c 0 0.735 -0.4515 1.05 -1.722 1.05c -0.4305 0 -0.7035 -0.021 -1.155 -0.021Z m 0.42 -2.226h 0.798c 0.6405 0 0.9135 -0.42 0.9135 -1.05c 0 -0.7035 -0.399 -0.903 -0.966 -0.903c -0.546 0 -0.7455 0.0945 -0.7455 0.5775Z m 0 0.3045v 1.218c 0 0.315 0.2415 0.378 0.7455 0.378c 0.546 0 0.8715 -0.147 0.8715 -0.777c 0 -0.42 -0.273 -0.819 -0.924 -0.819Z "/></symbol><symbol id="g6BE6E829C497D42358C95A1CE01E9C8D" overflow="visible"><path d="M 0 0m 4.053 0.9765c -0.3885 -0.399 -0.693 -0.567 -1.302 -0.567c -0.378 0 -0.819 0.2205 -1.1445 0.756c -0.21 0.3465 -0.336 0.8295 -0.336 1.4385l 2.793 -0.021c 0.126 0 0.1995 0.063 0.1995 0.1785c 0 0.882 -0.315 1.827 -1.7745 1.827c -0.9135 0 -2.1 -0.8715 -2.1 -2.4675c 0 -0.588 0.147 -1.155 0.4935 -1.554c 0.357 -0.42 0.8505 -0.672 1.6065 -0.672c 0.798 0 1.365 0.3675 1.785 0.9135c -0.0315 0.105 -0.0945 0.1575 -0.2205 0.168Z m -2.751 1.9845c 0.1995 1.1865 0.9345 1.281 1.1865 1.281c 0.399 0 0.8715 -0.2205 0.8715 -1.1025c 0 -0.0945 -0.042 -0.147 -0.1575 -0.147Z "/></symbol><symbol id="g42E7AC9271EF550B3DC462A8D9074BEB" overflow="visible"><path d="M 0 0m 4.179 0.9555c -0.042 0.0945 -0.126 0.1365 -0.2205 0.147c -0.357 -0.462 -0.8085 -0.693 -1.26 -0.693c -0.7665 0 -1.407 0.777 -1.407 2.0055c 0 1.155 0.504 1.848 1.197 1.848c 0.6195 0 0.7035 -0.3675 0.7455 -0.735c 0.0315 -0.2835 0.1785 -0.378 0.399 -0.378c 0.2205 0 0.5145 0.1365 0.5145 0.462c 0 0.5775 -0.5985 0.9975 -1.6065 0.9975c -1.0395 0 -2.1525 -0.9345 -2.1525 -2.4255c 0 -1.3545 0.756 -2.289 2.079 -2.289c 0.63 0 1.1865 0.1995 1.7115 1.0605Z "/></symbol><symbol id="gEFE4B6AA52BBE68EAC50879BB9FC5B99" overflow="visible"><path d="M 0 0m 1.911 1.281c 0 -0.8715 -0.1155 -0.924 -0.756 -0.9555c -0.063 -0.063 -0.063 -0.2835 0 -0.3465c 0.4095 0.0105 0.8295 0.021 1.176 0.021c 0.357 0 0.7665 -0.0105 1.1655 -0.021c 0.063 0.063 0.063 0.2835 0 0.3465c -0.6405 0.0315 -0.756 0.084 -0.756 0.9555v 2.835h 0.1785c 0.8505 0 1.0185 -0.294 1.197 -1.1445c 0.1365 0 0.273 0.042 0.273 0.042c -0.063 0.483 -0.105 0.945 -0.1155 1.554c -0.2415 -0.021 -1.029 -0.063 -1.554 -0.063h -0.7875c -0.525 0 -1.113 0.0315 -1.533 0.063c -0.0105 -0.609 -0.0525 -1.071 -0.126 -1.554c 0 0 0.147 -0.042 0.2835 -0.042c 0.1785 0.8505 0.336 1.1445 1.197 1.1445h 0.1575Z "/></symbol><symbol id="g71D81E84C847076CE887D3A5D7C0718B" overflow="visible"><path d="M 0 0m 5.0295 3.2235c 0 0.8715 0.1155 0.903 0.756 0.9555c 0.063 0.063 0.063 0.2835 0 0.3465c -0.3675 -0.021 -0.8295 -0.021 -1.176 -0.021c -0.294 0 -0.714 0.0105 -1.1235 0.021c -0.063 -0.063 -0.063 -0.2835 0 -0.3465c 0.6405 -0.042 0.714 -0.084 0.714 -0.9555v -0.6825h -2.247v 0.6825c 0 0.8715 0.0735 0.903 0.714 0.9555c 0.063 0.063 0.063 0.2835 0 0.3465c -0.399 -0.0105 -0.798 -0.021 -1.134 -0.021c -0.315 0 -0.7455 0.0105 -1.1655 0.021c -0.063 -0.063 -0.063 -0.2835 0 -0.3465c 0.6405 -0.042 0.756 -0.084 0.756 -0.9555v -1.9425c 0 -0.8715 -0.1155 -0.903 -0.756 -0.9555c -0.063 -0.063 -0.063 -0.2835 0 -0.3465c 0.42 0.0105 0.84 0.021 1.176 0.021c 0.336 0 0.7455 -0.0105 1.1235 -0.021c 0.063 0.063 0.063 0.2835 0 0.3465c -0.6405 0.042 -0.714 0.084 -0.714 0.9555v 0.9135h 2.247v -0.9135c 0 -0.8715 -0.0735 -0.903 -0.714 -0.9555c -0.063 -0.063 -0.063 -0.2835 0 -0.3465c 0.378 0.0105 0.7665 0.021 1.134 0.021c 0.315 0 0.756 -0.0105 1.1655 -0.021c 0.063 0.063 0.063 0.2835 0 0.3465c -0.6405 0.042 -0.756 0.084 -0.756 0.9555Z "/></symbol><symbol id="g804279143320936389B29079930EB467" overflow="visible"><path d="M 0 0m 1.197 0c 0.294 0.0105 0.399 0.2835 0.525 0.6615c 0.273 0.8295 0.5775 1.344 1.1025 1.344h 0.273v -0.7245c 0 -0.8715 -0.1155 -0.903 -0.756 -0.9555c -0.063 -0.063 -0.063 -0.2835 0 -0.3465c 0.3465 0.0105 0.714 0.021 1.176 0.021c 0.4515 0 0.8295 -0.0105 1.1655 -0.021c 0.063 0.063 0.063 0.2835 0 0.3465c -0.6405 0.042 -0.756 0.084 -0.756 0.9555v 1.9425c 0 0.8715 0.1155 0.903 0.756 0.9555c 0.063 0.063 0.063 0.2835 0 0.3465c -0.357 -0.0105 -0.714 -0.021 -1.176 -0.021c -0.357 0 -0.6615 0.021 -0.924 0.021c -1.8375 0 -1.995 -0.756 -1.995 -1.323c 0 -0.6825 0.525 -1.029 1.302 -1.0605c 0.0315 0 0.0315 -0.0315 0.021 -0.042c -0.399 -0.1155 -0.5775 -0.336 -0.756 -0.7245c -0.1155 -0.2415 -0.21 -0.4725 -0.2625 -0.609c -0.1365 -0.357 -0.315 -0.42 -0.7245 -0.441c -0.063 -0.063 -0.063 -0.2835 0 -0.3465c 0.21 0.0105 1.029 0.021 1.029 0.021Z m 0.294 3.3705c 0 0.4935 0.1575 0.8085 1.008 0.8085c 0.4305 0 0.5985 -0.189 0.5985 -0.588v -1.2285h -0.735c -0.63 0 -0.8715 0.483 -0.8715 1.008Z "/></symbol><symbol id="g78600E8C98627C719956C28D931C0FCD" overflow="visible"><path d="M 0 0m 4.053 0c 0 0 0.819 -0.0105 1.029 -0.021c 0.063 0.063 0.063 0.2835 0 0.3465c -0.4095 0.021 -0.4935 0.105 -0.672 0.441l -0.4725 0.8925c -0.2625 0.4935 -0.63 0.7455 -1.2285 0.7455v 0.0315c 0.4095 0.1155 0.588 0.483 0.7455 0.903c 0.126 0.3255 0.252 0.525 0.4725 0.525c 0.0945 0 0.1785 -0.0315 0.2415 -0.0735c 0.063 -0.042 0.1785 -0.0735 0.315 -0.0735c 0.231 0 0.42 0.1995 0.42 0.4095c 0 0.231 -0.252 0.4725 -0.5985 0.4725c -0.609 0 -0.8925 -0.567 -1.092 -1.0605c -0.231 -0.5775 -0.5145 -0.9765 -1.26 -0.9765v 0.6615c 0 0.8715 0.1155 0.903 0.651 0.9555c 0.063 0.063 0.063 0.2835 0 0.3465c -0.252 -0.0105 -0.651 -0.021 -1.071 -0.021c -0.4515 0 -0.819 0.0105 -1.1655 0.021c -0.063 -0.063 -0.063 -0.2835 0 -0.3465c 0.6405 -0.042 0.756 -0.084 0.756 -0.9555v -1.9425c 0 -0.8715 -0.1155 -0.903 -0.756 -0.9555c -0.063 -0.063 -0.063 -0.2835 0 -0.3465c 0.3465 0.0105 0.714 0.021 1.176 0.021c 0.4095 0 0.8295 -0.0105 1.0605 -0.021c 0.063 0.063 0.063 0.2835 0 0.3465c -0.5355 0.042 -0.651 0.084 -0.651 0.9555v 0.9135c 0.714 -0.042 0.903 -0.3255 1.092 -0.714l 0.4515 -0.945c 0.1365 -0.2835 0.3465 -0.525 0.5565 -0.5355Z "/></symbol><symbol id="g82C799C01D06EF19E125C6F4348D75CA" overflow="visible"><path d="M 0 0m 1.053 2.754l -0.054 -1.674c -0.027 -0.756 -0.162 -0.774 -0.684 -0.801c -0.054 -0.054 -0.054 -0.243 0 -0.297c 0.18 0.009 0.63 0.018 0.774 0.018c 0.18 0 0.603 -0.009 0.783 -0.018c 0.054 0.054 0.054 0.243 0 0.297c -0.513 0.036 -0.549 0.126 -0.531 0.801l 0.063 2.205c 0 0.081 0.036 0.081 0.072 0l 1.305 -3.186c 0.036 -0.027 0.072 -0.027 0.099 0l 1.476 3.177c 0.045 0.099 0.09 0.108 0.09 0l -0.009 -2.178c 0 -0.747 -0.063 -0.774 -0.612 -0.819c -0.054 -0.054 -0.054 -0.243 0 -0.297c 0.324 0.009 0.657 0.018 0.972 0.018c 0.27 0 0.657 -0.009 1.008 -0.018c 0.054 0.054 0.054 0.243 0 0.297c -0.549 0.036 -0.648 0.072 -0.648 0.819l -0.018 1.665c -0.009 0.747 0.099 0.774 0.648 0.819c 0.054 0.054 0.054 0.243 0 0.297c -0.315 -0.018 -1.188 -0.018 -1.485 -0.018l -1.197 -2.574l -0.045 -0.09l -0.036 0.09l -1.053 2.574c -0.297 0 -1.251 0 -1.566 0.018c -0.054 -0.054 -0.054 -0.243 0 -0.297c 0.549 -0.045 0.675 -0.081 0.648 -0.828Z "/></symbol><symbol id="gD351E21AD091924D522A6D2D6355C932" overflow="visible"><path d="M 0 0m 3.474 0.837c -0.333 -0.342 -0.594 -0.486 -1.116 -0.486c -0.324 0 -0.702 0.189 -0.981 0.648c -0.18 0.297 -0.288 0.711 -0.288 1.233l 2.394 -0.018c 0.108 0 0.171 0.054 0.171 0.153c 0 0.756 -0.27 1.566 -1.521 1.566c -0.783 0 -1.8 -0.747 -1.8 -2.115c 0 -0.504 0.126 -0.99 0.423 -1.332c 0.306 -0.36 0.729 -0.576 1.377 -0.576c 0.684 0 1.17 0.315 1.53 0.783c -0.027 0.09 -0.081 0.135 -0.189 0.144Z m -2.358 1.701c 0.171 1.017 0.801 1.098 1.017 1.098c 0.342 0 0.747 -0.189 0.747 -0.945c 0 -0.081 -0.036 -0.126 -0.135 -0.126Z "/></symbol><symbol id="gB118266EF18AECCCCEF724ECE6F3D1D3" overflow="visible"><path d="M 0 0m 3.762 1.098v 1.665c 0 0.738 0.117 0.783 0.612 0.819c 0.054 0.054 0.054 0.243 0 0.297c -0.27 -0.009 -0.612 -0.018 -0.972 -0.018h -1.701c -0.297 0 -0.648 0.009 -0.918 0.018c -0.054 -0.054 -0.054 -0.243 0 -0.297c 0.639 -0.045 0.729 -0.099 0.729 -1.071c 0 -0.945 -0.072 -1.44 -0.198 -1.809c -0.117 -0.324 -0.27 -0.441 -0.423 -0.441c -0.117 0 -0.153 0.072 -0.171 0.189c -0.027 0.171 -0.081 0.342 -0.333 0.342c -0.225 0 -0.351 -0.18 -0.351 -0.378c 0 -0.279 0.252 -0.522 0.666 -0.522c 0.459 0 0.711 0.234 0.918 0.72c 0.18 0.432 0.234 1.35 0.234 1.962c 0 0.702 0.027 0.936 0.387 0.936h 0.405c 0.342 0 0.405 -0.216 0.405 -0.522v -1.89c 0 -0.738 -0.09 -0.783 -0.558 -0.819c -0.045 -0.054 -0.045 -0.243 0 -0.297c 0.225 0.009 0.558 0.018 0.918 0.018c 0.36 0 0.765 -0.009 1.017 -0.018c 0.045 0.054 0.045 0.243 0 0.297c -0.585 0.036 -0.666 0.081 -0.666 0.819Z "/></symbol><symbol id="gAE9E23F53692F92B7B295E455DF99330" overflow="visible"><path d="M 0 0m 3.474 0c 0 0 0.702 -0.009 0.882 -0.018c 0.054 0.054 0.054 0.243 0 0.297c -0.351 0.018 -0.423 0.09 -0.576 0.378l -0.405 0.765c -0.225 0.423 -0.54 0.639 -1.053 0.639v 0.027c 0.351 0.099 0.504 0.414 0.639 0.774c 0.108 0.279 0.216 0.45 0.405 0.45c 0.081 0 0.153 -0.027 0.207 -0.063c 0.054 -0.036 0.153 -0.063 0.27 -0.063c 0.198 0 0.36 0.171 0.36 0.351c 0 0.198 -0.216 0.405 -0.513 0.405c -0.522 0 -0.765 -0.486 -0.936 -0.909c -0.198 -0.495 -0.441 -0.837 -1.08 -0.837v 0.567c 0 0.747 0.099 0.774 0.558 0.819c 0.054 0.054 0.054 0.243 0 0.297c -0.216 -0.009 -0.558 -0.018 -0.918 -0.018c -0.387 0 -0.702 0.009 -0.999 0.018c -0.054 -0.054 -0.054 -0.243 0 -0.297c 0.549 -0.036 0.648 -0.072 0.648 -0.819v -1.665c 0 -0.747 -0.099 -0.774 -0.648 -0.819c -0.054 -0.054 -0.054 -0.243 0 -0.297c 0.297 0.009 0.612 0.018 1.008 0.018c 0.351 0 0.711 -0.009 0.909 -0.018c 0.054 0.054 0.054 0.243 0 0.297c -0.459 0.036 -0.558 0.072 -0.558 0.819v 0.783c 0.612 -0.036 0.774 -0.279 0.936 -0.612l 0.387 -0.81c 0.117 -0.243 0.297 -0.45 0.477 -0.459Z "/></symbol><symbol id="g7253BD4F4A12C91ABC7B03558525FA66" overflow="visible"><path d="M 0 0m 0.369 1.845c 0 -0.918 0.612 -1.935 1.89 -1.935c 0.576 0 1.017 0.207 1.323 0.504c 0.405 0.396 0.585 0.963 0.585 1.512c 0 0.936 -0.513 2.025 -1.89 2.025c -0.594 0 -1.08 -0.243 -1.413 -0.63c -0.324 -0.387 -0.495 -0.909 -0.495 -1.476Z m 1.773 1.791c 0.774 0 1.251 -0.702 1.251 -1.998c 0 -1.134 -0.585 -1.413 -1.008 -1.413c -0.936 0 -1.242 1.134 -1.242 1.827c 0 0.783 0.189 1.584 0.999 1.584Z "/></symbol><symbol id="g4AD90A9068D018AD3CEC8FD5EA9519DC" overflow="visible"><path d="M 0 0m 1.404 3.312c -0.009 0.27 -0.027 0.504 -0.072 0.594c -0.018 0.045 -0.036 0.072 -0.108 0.072c -0.252 -0.099 -0.486 -0.18 -1.107 -0.261c -0.018 -0.054 0 -0.198 0.018 -0.252c 0.486 -0.045 0.585 -0.09 0.585 -0.612v -3.843c 0 -0.747 -0.099 -0.792 -0.648 -0.819c -0.054 -0.054 -0.054 -0.243 0 -0.297c 0.315 0.009 0.648 0.018 1.008 0.018c 0.36 0 0.792 -0.009 1.089 -0.018c 0.054 0.054 0.054 0.243 0 0.297c -0.639 0.036 -0.738 0.072 -0.738 0.819v 0.972c 0 0.117 0.036 0.108 0.126 0.072c 0.225 -0.09 0.495 -0.144 0.783 -0.144c 0.504 0 0.954 0.153 1.323 0.504c 0.423 0.414 0.666 0.972 0.666 1.701c 0 0.954 -0.675 1.836 -1.593 1.836c -0.414 0 -0.873 -0.27 -1.233 -0.675c -0.054 -0.054 -0.09 -0.054 -0.099 0.036Z m 0.171 -0.333c 0.234 0.288 0.648 0.558 0.909 0.558c 0.576 0 1.071 -0.648 1.071 -1.665c 0 -0.738 -0.261 -1.656 -1.269 -1.656c -0.162 0 -0.477 0.045 -0.639 0.189c -0.18 0.162 -0.216 0.216 -0.216 0.54v 1.638c 0 0.189 0.036 0.27 0.144 0.396Z "/></symbol><symbol id="g3CD763AC845B0CB818F9BD746791AD3E" overflow="visible"><path d="M 0 0m 4.5885 4.5045h -2.982c -0.42 0 -0.819 0.0105 -1.134 0.021c -0.063 -0.063 -0.063 -0.2835 0 -0.3465c 0.5775 -0.042 0.714 -0.0945 0.714 -0.9555v -1.9425c 0 -0.861 -0.1365 -0.9135 -0.819 -0.9555c -0.063 -0.063 -0.063 -0.2835 0 -0.3465c 0.315 0.0105 0.819 0.021 1.239 0.021c 0.42 0 0.735 -0.0105 1.05 -0.021c 0.063 0.063 0.063 0.2835 0 0.3465c -0.5355 0.0525 -0.6405 0.0945 -0.6405 0.9555v 2.2785c 0 0.3255 0.0315 0.5355 0.441 0.5355h 1.2705c 0.3885 0 0.4515 -0.1155 0.4515 -0.5355v -2.2785c 0 -0.861 -0.105 -0.9135 -0.651 -0.9555c -0.0525 -0.063 -0.0525 -0.2835 0 -0.3465c 0.2625 0.0105 0.651 0.021 1.071 0.021c 0.42 0 0.8925 -0.0105 1.1865 -0.021c 0.0525 0.063 0.0525 0.2835 0 0.3465c -0.6825 0.042 -0.777 0.0945 -0.777 0.9555v 1.9425c 0 0.861 0.1365 0.9135 0.714 0.9555c 0.063 0.063 0.063 0.2835 0 0.3465c -0.315 -0.0105 -0.714 -0.021 -1.134 -0.021Z "/></symbol><symbol id="gC8E778CD8A5E7E3157A6AF0F0CCA26BC" overflow="visible"><path d="M 0 0m 1.701 3.2235c 0 0.8715 0.1155 0.903 0.651 0.9555c 0.063 0.063 0.063 0.2835 0 0.3465c -0.252 -0.0105 -0.651 -0.021 -1.071 -0.021c -0.4515 0 -0.8085 0.0105 -1.155 0.021c -0.063 -0.063 -0.063 -0.2835 0 -0.3465c 0.6405 -0.042 0.756 -0.084 0.756 -0.9555v -0.4515c 0 -0.987 0.2205 -1.3755 1.197 -1.3755c 0.6615 0 1.1865 0.378 1.617 0.693v -0.8085c 0 -0.8715 -0.1155 -0.903 -0.756 -0.9555c -0.063 -0.063 -0.063 -0.2835 0 -0.3465c 0.3465 0.0105 0.714 0.021 1.176 0.021c 0.4515 0 0.84 -0.0105 1.176 -0.021c 0.063 0.063 0.063 0.2835 0 0.3465c -0.6405 0.042 -0.756 0.084 -0.756 0.9555v 1.9425c 0 0.8715 0.1155 0.903 0.756 0.9555c 0.063 0.063 0.063 0.2835 0 0.3465c -0.357 -0.0105 -0.714 -0.021 -1.176 -0.021c -0.4095 0 -0.8295 0.0105 -1.071 0.021c -0.063 -0.063 -0.063 -0.2835 0 -0.3465c 0.5355 -0.042 0.651 -0.084 0.651 -0.9555v -0.756c -0.357 -0.315 -0.735 -0.5985 -1.281 -0.5985c -0.6825 0 -0.714 0.357 -0.714 1.176Z "/></symbol><symbol id="gB9CB8C21641BB9D6945EBC7ED76275C1" overflow="visible"><path d="M 0 0m 3.0765 0.504c 0.063 -0.3255 0.1785 -0.609 0.7035 -0.609c 0.399 0 0.777 0.1785 0.9975 0.3885c -0.021 0.126 -0.063 0.2205 -0.1785 0.2835c -0.0735 -0.063 -0.252 -0.168 -0.3885 -0.168c -0.3045 0 -0.315 0.4095 -0.315 0.8925v 1.5435c 0 1.491 -0.819 1.7745 -1.5855 1.7745c -0.861 0 -1.7325 -0.567 -1.7325 -1.1655c 0 -0.252 0.126 -0.378 0.3675 -0.378c 0.3045 0 0.4935 0.2205 0.4935 0.357c 0 0.0735 -0.0105 0.147 -0.0315 0.189c -0.0105 0.0315 -0.021 0.0945 -0.021 0.21c 0 0.3255 0.441 0.441 0.84 0.441c 0.357 0 0.8505 -0.1785 0.8505 -1.365c 0 -0.0735 -0.0315 -0.1155 -0.063 -0.126l -0.903 -0.2205c -1.008 -0.252 -1.7325 -0.8085 -1.7325 -1.5225c 0 -0.861 0.588 -1.134 1.323 -1.134c 0.3675 0 0.6825 0.084 1.1445 0.441l 0.21 0.168Z m 0 1.9425v -1.386c 0 -0.1365 -0.063 -0.21 -0.147 -0.273c -0.273 -0.2205 -0.63 -0.462 -0.924 -0.462c -0.525 0 -0.756 0.42 -0.756 0.7455c 0 0.4725 0.2205 0.9555 0.9975 1.155Z "/></symbol><symbol id="g611C332DF318E3AAFADBD04F1094DD79" overflow="visible"><path d="M 0 0m 1.638 1.098c 0 -0.747 -0.099 -0.792 -0.648 -0.819c -0.054 -0.054 -0.054 -0.243 0 -0.297c 0.351 0.009 0.711 0.018 1.008 0.018c 0.306 0 0.657 -0.009 0.999 -0.018c 0.054 0.054 0.054 0.243 0 0.297c -0.549 0.027 -0.648 0.072 -0.648 0.819v 2.43h 0.153c 0.729 0 0.873 -0.252 1.026 -0.981c 0.117 0 0.234 0.036 0.234 0.036c -0.054 0.414 -0.09 0.81 -0.099 1.332c -0.207 -0.018 -0.882 -0.054 -1.332 -0.054h -0.675c -0.45 0 -0.954 0.027 -1.314 0.054c -0.009 -0.522 -0.045 -0.918 -0.108 -1.332c 0 0 0.126 -0.036 0.243 -0.036c 0.153 0.729 0.288 0.981 1.026 0.981h 0.135Z "/></symbol><symbol id="g7815E2C79248546AAEE49EC7F57ADD4E" overflow="visible"><path d="M 0 0m 3.582 0.819c -0.036 0.081 -0.108 0.117 -0.189 0.126c -0.306 -0.396 -0.693 -0.594 -1.08 -0.594c -0.657 0 -1.206 0.666 -1.206 1.719c 0 0.99 0.432 1.584 1.026 1.584c 0.531 0 0.603 -0.315 0.639 -0.63c 0.027 -0.243 0.153 -0.324 0.342 -0.324c 0.189 0 0.441 0.117 0.441 0.396c 0 0.495 -0.513 0.855 -1.377 0.855c -0.891 0 -1.845 -0.801 -1.845 -2.079c 0 -1.161 0.648 -1.962 1.782 -1.962c 0.54 0 1.017 0.171 1.467 0.909Z "/></symbol><symbol id="gFFF6E9B9A983FEBF7FB8DCFB305974E9" overflow="visible"><path d="M 0 0m 1.836 -1.44c 0.144 0.252 0.261 0.504 0.369 0.774c 0.72 1.737 1.125 2.664 1.593 3.672c 0.18 0.378 0.306 0.522 0.729 0.576c 0.054 0.054 0.054 0.243 0 0.297c -0.18 -0.009 -0.387 -0.018 -0.639 -0.018c -0.27 0 -0.549 0.009 -0.819 0.018c -0.054 -0.054 -0.054 -0.243 0 -0.297c 0.288 -0.027 0.576 -0.081 0.432 -0.405l -0.891 -2.061c -0.063 -0.144 -0.144 -0.171 -0.216 0.009l -0.801 1.872c -0.162 0.378 -0.207 0.549 0.297 0.585c 0.054 0.054 0.054 0.243 0 0.297c -0.333 -0.009 -0.693 -0.018 -1.017 -0.018c -0.306 0 -0.549 0.009 -0.729 0.018c -0.054 -0.054 -0.054 -0.243 0 -0.297c 0.36 -0.045 0.477 -0.126 0.711 -0.675l 1.017 -2.367c 0.081 -0.18 0.216 -0.594 0.126 -0.846c -0.108 -0.297 -0.216 -0.549 -0.351 -0.828c -0.099 -0.18 -0.225 -0.261 -0.45 -0.261c -0.126 0 -0.162 0.027 -0.261 0.027c -0.261 0 -0.396 -0.27 -0.396 -0.387c 0 -0.189 0.18 -0.333 0.423 -0.333c 0.189 0 0.549 0.072 0.873 0.648Z "/></symbol><symbol id="gA5834380700F55B3689219A2CC4667E3" overflow="visible"><path d="M 0 0m 3.933 3.861h -2.556c -0.36 0 -0.702 0.009 -0.972 0.018c -0.054 -0.054 -0.054 -0.243 0 -0.297c 0.495 -0.036 0.612 -0.081 0.612 -0.819v -1.665c 0 -0.738 -0.117 -0.783 -0.702 -0.819c -0.054 -0.054 -0.054 -0.243 0 -0.297c 0.27 0.009 0.702 0.018 1.062 0.018c 0.36 0 0.63 -0.009 0.9 -0.018c 0.054 0.054 0.054 0.243 0 0.297c -0.459 0.045 -0.549 0.081 -0.549 0.819v 1.953c 0 0.279 0.027 0.459 0.378 0.459h 1.089c 0.333 0 0.387 -0.099 0.387 -0.459v -1.953c 0 -0.738 -0.09 -0.783 -0.558 -0.819c -0.045 -0.054 -0.045 -0.243 0 -0.297c 0.225 0.009 0.558 0.018 0.918 0.018c 0.36 0 0.765 -0.009 1.017 -0.018c 0.045 0.054 0.045 0.243 0 0.297c -0.585 0.036 -0.666 0.081 -0.666 0.819v 1.665c 0 0.738 0.117 0.783 0.612 0.819c 0.054 0.054 0.054 0.243 0 0.297c -0.27 -0.009 -0.612 -0.018 -0.972 -0.018Z "/></symbol><symbol id="gF7AD5B3248F8366898BA115B8D318C4E" overflow="visible"><path d="M 0 0m 2.637 0.432c 0.054 -0.279 0.153 -0.522 0.603 -0.522c 0.342 0 0.666 0.153 0.855 0.333c -0.018 0.108 -0.054 0.189 -0.153 0.243c -0.063 -0.054 -0.216 -0.144 -0.333 -0.144c -0.261 0 -0.27 0.351 -0.27 0.765v 1.323c 0 1.278 -0.702 1.521 -1.359 1.521c -0.738 0 -1.485 -0.486 -1.485 -0.999c 0 -0.216 0.108 -0.324 0.315 -0.324c 0.261 0 0.423 0.189 0.423 0.306c 0 0.063 -0.009 0.126 -0.027 0.162c -0.009 0.027 -0.018 0.081 -0.018 0.18c 0 0.279 0.378 0.378 0.72 0.378c 0.306 0 0.729 -0.153 0.729 -1.17c 0 -0.063 -0.027 -0.099 -0.054 -0.108l -0.774 -0.189c -0.864 -0.216 -1.485 -0.693 -1.485 -1.305c 0 -0.738 0.504 -0.972 1.134 -0.972c 0.315 0 0.585 0.072 0.981 0.378l 0.18 0.144Z m 0 1.665v -1.188c 0 -0.117 -0.054 -0.18 -0.126 -0.234c -0.234 -0.189 -0.54 -0.396 -0.792 -0.396c -0.45 0 -0.648 0.36 -0.648 0.639c 0 0.405 0.189 0.819 0.855 0.99Z "/></symbol><symbol id="gE910E7524AAA5201D690B7EBF26D2697" overflow="visible"><path d="M 0 0m 1.674 2.133v 0.63c 0 0.747 0.099 0.774 0.648 0.819c 0.054 0.054 0.054 0.243 0 0.297c -0.306 -0.009 -0.612 -0.018 -1.008 -0.018c -0.387 0 -0.702 0.009 -0.999 0.018c -0.054 -0.054 -0.054 -0.243 0 -0.297c 0.549 -0.036 0.648 -0.072 0.648 -0.819v -1.665c 0 -0.747 -0.099 -0.774 -0.648 -0.819c -0.054 -0.054 -0.054 -0.243 0 -0.297c 0.297 0.009 0.612 0.018 1.008 0.018c 0.387 0 0.711 -0.009 0.999 -0.018c 0.054 0.054 0.054 0.243 0 0.297c -0.549 0.036 -0.648 0.072 -0.648 0.819v 0.684h 0.927c 0.018 -0.909 0.585 -1.872 1.8 -1.872c 1.323 0 1.818 1.143 1.818 2.043c 0 0.936 -0.441 1.998 -1.809 1.998c -1.089 0 -1.701 -0.747 -1.8 -1.818Z m 2.646 1.503c 0.738 0 1.125 -0.657 1.125 -1.971c 0 -1.188 -0.495 -1.44 -0.882 -1.44c -0.891 0 -1.188 1.116 -1.188 1.809c 0 0.783 0.243 1.602 0.945 1.602Z "/></symbol><symbol id="g2A7A063817D03B183B2F5455DB77D169" overflow="visible"><path d="M 0 0m 6.021 0c 0.756 0 1.017 -0.72 1.134 -1.161c 0.081 -0.018 0.162 -0.018 0.234 0.009l -0.054 1.197c -0.009 0.162 -0.144 0.207 -0.27 0.234c -0.207 0.045 -0.351 0.099 -0.351 0.819v 1.665c 0 0.738 0.117 0.783 0.612 0.819c 0.054 0.054 0.054 0.243 0 0.297c -0.27 -0.009 -0.612 -0.018 -0.972 -0.018c -0.36 0 -0.63 0.009 -0.9 0.018c -0.054 -0.054 -0.054 -0.243 0 -0.297c 0.459 -0.045 0.549 -0.081 0.549 -0.819v -1.953c 0 -0.279 -0.027 -0.459 -0.378 -0.459h -1.062c -0.27 0 -0.387 0.081 -0.387 0.459v 1.953c 0.009 0.738 0.072 0.783 0.558 0.819c 0.045 0.054 0.045 0.243 0 0.297c -0.225 -0.009 -0.558 -0.018 -0.918 -0.018c -0.36 0 -0.657 0.009 -0.882 0.018c -0.045 -0.054 -0.045 -0.243 0 -0.297c 0.45 -0.036 0.54 -0.081 0.531 -0.819v -1.962c 0 -0.333 -0.045 -0.45 -0.378 -0.45h -1.026c -0.333 0 -0.387 0.099 -0.387 0.459v 1.953c 0 0.738 0.09 0.783 0.558 0.819c 0.045 0.054 0.045 0.243 0 0.297c -0.225 -0.009 -0.558 -0.018 -0.918 -0.018c -0.36 0 -0.675 0.009 -0.927 0.018c -0.045 -0.054 -0.045 -0.243 0 -0.297c 0.495 -0.036 0.576 -0.081 0.576 -0.819v -1.665c 0 -0.738 -0.117 -0.783 -0.612 -0.819c -0.054 -0.054 -0.054 -0.243 0 -0.297c 0.27 0.009 0.612 0.018 0.972 0.018Z "/></symbol><symbol id="gCCF28E29FF8CFE46410F5A526209CFA4" overflow="visible"><path d="M 0 0m 0.936 0.855c -0.279 0 -0.477 -0.189 -0.477 -0.441c 0 -0.279 0.234 -0.369 0.396 -0.396c 0.171 -0.018 0.324 -0.072 0.324 -0.279c 0 -0.189 -0.324 -0.603 -0.792 -0.72c 0 -0.09 0.018 -0.153 0.081 -0.216c 0.54 0.099 1.062 0.531 1.062 1.161c 0 0.54 -0.234 0.891 -0.594 0.891Z "/></symbol><symbol id="g9C9C9262F30302871979B086E3504457" overflow="visible"><path d="M 0 0m 0.306 2.313c 0 -1.701 0.981 -2.403 1.854 -2.403c 1.233 0 1.944 0.918 1.944 2.052c 0 0.972 -0.54 1.989 -1.809 1.989c -0.855 0 -1.377 -0.504 -1.575 -0.936l -0.018 0.018c 0.036 0.468 0.18 1.044 0.315 1.278c 0.288 0.495 0.63 0.522 1.458 0.612c 0.81 0.09 1.386 0.351 1.467 1.359c -0.063 0.027 -0.126 0.036 -0.198 0c -0.072 -0.432 -0.549 -0.549 -1.305 -0.666c -0.729 -0.117 -1.341 -0.369 -1.719 -1.08c -0.324 -0.612 -0.414 -1.368 -0.414 -2.223Z m 0.774 -0.234c 0 0.504 0.18 1.557 1.116 1.557c 0.702 0 1.134 -0.81 1.134 -1.89c 0 -1.134 -0.522 -1.521 -1.008 -1.521c -0.657 0 -1.242 0.855 -1.242 1.854Z "/></symbol><symbol id="g4AE5337A4A3FF09E9A9AF89B4B83FC9D" overflow="visible"><path d="M 0 0m 1.674 2.763c 0 0.513 0.063 0.747 0.378 0.747h 0.198c 0.738 0 0.954 -0.513 1.08 -1.035c 0.099 -0.009 0.189 0 0.261 0.036c -0.036 0.477 -0.063 0.873 -0.117 1.35l -0.018 0.018c 0 0 -0.72 -0.018 -1.008 -0.018h -1.134c -0.387 0 -0.702 0.009 -0.999 0.018c -0.054 -0.054 -0.054 -0.243 0 -0.297c 0.549 -0.036 0.648 -0.072 0.648 -0.819v -1.665c 0 -0.747 -0.099 -0.774 -0.648 -0.819c -0.054 -0.054 -0.054 -0.243 0 -0.297c 0.297 0.009 0.612 0.018 1.008 0.018c 0.387 0 0.711 -0.009 0.999 -0.018c 0.054 0.054 0.054 0.243 0 0.297c -0.549 0.036 -0.648 0.072 -0.648 0.819Z "/></symbol><symbol id="g66D110B88773733650ADD996D43A4D85" overflow="visible"><path d="M 0 0m 1.638 3.864c -0.0105 0.315 -0.0315 0.588 -0.084 0.693c -0.021 0.0525 -0.042 0.084 -0.126 0.084c -0.294 -0.1155 -0.567 -0.21 -1.2915 -0.3045c -0.021 -0.063 0 -0.231 0.021 -0.294c 0.567 -0.0525 0.6825 -0.105 0.6825 -0.714v -4.4835c 0 -0.8715 -0.1155 -0.924 -0.756 -0.9555c -0.063 -0.063 -0.063 -0.2835 0 -0.3465c 0.3675 0.0105 0.756 0.021 1.176 0.021c 0.42 0 0.924 -0.0105 1.2705 -0.021c 0.063 0.063 0.063 0.2835 0 0.3465c -0.7455 0.042 -0.861 0.084 -0.861 0.9555v 1.134c 0 0.1365 0.042 0.126 0.147 0.084c 0.2625 -0.105 0.5775 -0.168 0.9135 -0.168c 0.588 0 1.113 0.1785 1.5435 0.588c 0.4935 0.483 0.777 1.134 0.777 1.9845c 0 1.113 -0.7875 2.142 -1.8585 2.142c -0.483 0 -1.0185 -0.315 -1.4385 -0.7875c -0.063 -0.063 -0.105 -0.063 -0.1155 0.042Z m 0.1995 -0.3885c 0.273 0.336 0.756 0.651 1.0605 0.651c 0.672 0 1.2495 -0.756 1.2495 -1.9425c 0 -0.861 -0.3045 -1.932 -1.4805 -1.932c -0.189 0 -0.5565 0.0525 -0.7455 0.2205c -0.21 0.189 -0.252 0.252 -0.252 0.63v 1.911c 0 0.2205 0.042 0.315 0.168 0.462Z "/></symbol><symbol id="g85EEFA3CF2ECFC5855AF8E927776B793" overflow="visible"><path d="M 0 0m 1.953 3.213c 0 0.882 0.1155 0.9135 0.756 0.966c 0.063 0.063 0.063 0.2835 0 0.3465c -0.357 -0.0105 -0.714 -0.021 -1.176 -0.021c -0.4515 0 -0.819 0.0105 -1.1655 0.021c -0.063 -0.063 -0.063 -0.2835 0 -0.3465c 0.6405 -0.042 0.756 -0.084 0.756 -0.9555v -1.9425c 0 -0.8715 -0.1155 -0.903 -0.756 -0.9555c -0.063 -0.063 -0.063 -0.2835 0 -0.3465c 0.3465 0.0105 0.714 0.021 1.176 0.021c 0.4305 0 0.6615 -0.021 1.092 -0.021c 1.2915 0 1.995 0.3255 1.995 1.449c 0 0.987 -0.861 1.2705 -1.9215 1.2705h -0.756Z m 4.5255 0.0105c 0 0.8715 0.1155 0.903 0.756 0.9555c 0.063 0.063 0.063 0.2835 0 0.3465c -0.357 -0.0105 -0.714 -0.021 -1.176 -0.021c -0.4515 0 -0.819 0.0105 -1.1655 0.021c -0.063 -0.063 -0.063 -0.2835 0 -0.3465c 0.6405 -0.042 0.756 -0.084 0.756 -0.9555v -1.9425c 0 -0.8715 -0.1155 -0.903 -0.756 -0.9555c -0.063 -0.063 -0.063 -0.2835 0 -0.3465c 0.3465 0.0105 0.714 0.021 1.176 0.021c 0.4515 0 0.8295 -0.0105 1.1655 -0.021c 0.063 0.063 0.063 0.2835 0 0.3465c -0.6405 0.042 -0.756 0.084 -0.756 0.9555Z m -2.751 -1.9005c 0 -0.861 -0.525 -0.9975 -1.0815 -0.9975c -0.5145 0 -0.693 0.105 -0.693 0.4725v 1.554h 0.7455c 0.7875 0 1.029 -0.4725 1.029 -1.029Z "/></symbol><symbol id="gB51E3EB91C9F0608A3899E7DAD922A18" overflow="visible"><path d="M 0 0m 1.911 3.759c -0.2415 0.357 -0.168 0.3675 0.3045 0.42c 0.063 0.063 0.063 0.2835 0 0.3465c -0.2835 -0.0105 -0.7455 -0.021 -1.0605 -0.021c -0.315 0 -0.63 0.0105 -0.903 0.021c -0.063 -0.063 -0.063 -0.2835 0 -0.3465c 0.357 -0.0315 0.651 -0.21 0.945 -0.6405l 0.9135 -1.3335c 0.0525 -0.0735 0.0525 -0.105 0.0105 -0.1575l -0.882 -1.134c -0.42 -0.5355 -0.651 -0.567 -1.0185 -0.588c -0.063 -0.063 -0.063 -0.2835 0 -0.3465c 0.21 0.0105 0.441 0.021 0.756 0.021c 0.315 0 0.609 -0.0105 0.882 -0.021c 0.063 0.063 0.063 0.2835 0 0.3465c -0.378 0.042 -0.462 0.084 -0.231 0.42l 0.6615 0.9555c 0.084 0.126 0.126 0.1155 0.189 0.021l 0.609 -0.84c 0.3675 -0.504 0.1995 -0.525 -0.1365 -0.5565c -0.063 -0.063 -0.063 -0.2835 0 -0.3465c 0.315 0.0105 0.6615 0.021 1.0395 0.021c 0.399 0 0.6825 -0.0105 0.9345 -0.021c 0.063 0.063 0.063 0.2835 0 0.3465c -0.4725 0.0315 -0.63 0.063 -1.05 0.6615l -0.945 1.3335c -0.042 0.063 -0.0525 0.0945 0 0.1575l 0.882 1.1235c 0.3885 0.4935 0.6405 0.546 1.0185 0.5775c 0.063 0.063 0.063 0.2835 0 0.3465c -0.21 -0.0105 -0.4515 -0.021 -0.7665 -0.021c -0.315 0 -0.609 0.0105 -0.882 0.021c -0.063 -0.063 -0.063 -0.2835 0 -0.3465c 0.3885 -0.042 0.504 -0.0735 0.252 -0.4305l -0.6825 -0.9555c -0.0735 -0.105 -0.1155 -0.0945 -0.1995 0.021Z "/></symbol><symbol id="gC1379707D8F32FABA5511CD9F7E78B4B" overflow="visible"><path d="M 0 0m 4.389 1.281v 1.9425c 0 0.861 0.1365 0.9135 0.714 0.9555c 0.063 0.063 0.063 0.2835 0 0.3465c -0.315 -0.0105 -0.714 -0.021 -1.134 -0.021h -1.9845c -0.3465 0 -0.756 0.0105 -1.071 0.021c -0.063 -0.063 -0.063 -0.2835 0 -0.3465c 0.7455 -0.0525 0.8505 -0.1155 0.8505 -1.2495c 0 -1.1025 -0.084 -1.68 -0.231 -2.1105c -0.1365 -0.378 -0.315 -0.5145 -0.4935 -0.5145c -0.1365 0 -0.1785 0.084 -0.1995 0.2205c -0.0315 0.1995 -0.0945 0.399 -0.3885 0.399c -0.2625 0 -0.4095 -0.21 -0.4095 -0.441c 0 -0.3255 0.294 -0.609 0.777 -0.609c 0.5355 0 0.8295 0.273 1.071 0.84c 0.21 0.504 0.273 1.575 0.273 2.289c 0 0.819 0.0315 1.092 0.4515 1.092h 0.4725c 0.399 0 0.4725 -0.252 0.4725 -0.609v -2.205c 0 -0.861 -0.105 -0.9135 -0.651 -0.9555c -0.0525 -0.063 -0.0525 -0.2835 0 -0.3465c 0.2625 0.0105 0.651 0.021 1.071 0.021c 0.42 0 0.8925 -0.0105 1.1865 -0.021c 0.0525 0.063 0.0525 0.2835 0 0.3465c -0.6825 0.042 -0.777 0.0945 -0.777 0.9555Z "/></symbol><symbol id="g2CCA8BF5638277170DC3145805989D03" overflow="visible"><path d="M 0 0m 0.4305 2.1525c 0 -1.071 0.714 -2.2575 2.205 -2.2575c 0.672 0 1.1865 0.2415 1.5435 0.588c 0.4725 0.462 0.6825 1.1235 0.6825 1.764c 0 1.092 -0.5985 2.3625 -2.205 2.3625c -0.693 0 -1.26 -0.2835 -1.6485 -0.735c -0.378 -0.4515 -0.5775 -1.0605 -0.5775 -1.722Z m 2.0685 2.0895c 0.903 0 1.4595 -0.819 1.4595 -2.331c 0 -1.323 -0.6825 -1.6485 -1.176 -1.6485c -1.092 0 -1.449 1.323 -1.449 2.1315c 0 0.9135 0.2205 1.848 1.1655 1.848Z "/></symbol><symbol id="g63CAA9DA1449BB21401EBA22A3288F1B" overflow="visible"><path d="M 0 0m 1.1445 0c 0.21 0.0105 0.3885 0.252 0.525 0.5355l 0.4515 0.945c 0.189 0.3885 0.483 0.672 1.197 0.714v -0.9135c 0 -0.8715 -0.126 -0.903 -0.6615 -0.9555c -0.063 -0.063 -0.063 -0.2835 0 -0.3465c 0.2415 0.0105 0.63 0.021 1.05 0.021c 0.4095 0 0.8085 -0.0105 1.0395 -0.021c 0.063 0.063 0.063 0.2835 0 0.3465c -0.5355 0.042 -0.6615 0.084 -0.6615 0.9555v 0.9135c 0.714 -0.042 1.008 -0.3255 1.197 -0.714l 0.4515 -0.945c 0.1365 -0.2835 0.315 -0.525 0.525 -0.5355c 0 0 0.777 -0.0105 0.987 -0.021c 0.063 0.063 0.063 0.2835 0 0.3465c -0.4095 0.021 -0.5145 0.105 -0.693 0.441l -0.4725 0.8925c -0.2625 0.4935 -0.609 0.7455 -1.2075 0.7455v 0.0315c 0.4095 0.1155 0.588 0.483 0.7455 0.903c 0.126 0.3255 0.252 0.525 0.4725 0.525c 0.0945 0 0.1785 -0.0315 0.2415 -0.0735c 0.063 -0.042 0.1785 -0.0735 0.315 -0.0735c 0.231 0 0.42 0.1995 0.42 0.4095c 0 0.231 -0.252 0.4725 -0.5985 0.4725c -0.609 0 -0.8925 -0.567 -1.092 -1.0605c -0.231 -0.5775 -0.546 -0.9765 -1.2915 -0.9765v 0.6615c 0 0.8715 0.126 0.903 0.6615 0.9555c 0.063 0.063 0.063 0.2835 0 0.3465c -0.252 -0.0105 -0.63 -0.021 -1.05 -0.021c -0.4095 0 -0.798 0.0105 -1.0395 0.021c -0.063 -0.063 -0.063 -0.2835 0 -0.3465c 0.5355 -0.042 0.6615 -0.084 0.6615 -0.9555v -0.6615c -0.7455 0 -1.0605 0.399 -1.2915 0.9765c -0.1995 0.4935 -0.483 1.0605 -1.092 1.0605c -0.3465 0 -0.5985 -0.2415 -0.5985 -0.4725c 0 -0.21 0.189 -0.4095 0.42 -0.4095c 0.1365 0 0.252 0.0315 0.315 0.0735c 0.063 0.042 0.147 0.0735 0.2415 0.0735c 0.2205 0 0.3465 -0.1995 0.4725 -0.525c 0.1575 -0.42 0.336 -0.7875 0.7455 -0.903v -0.0315c -0.5985 0 -0.945 -0.252 -1.2075 -0.7455l -0.4725 -0.8925c -0.1785 -0.336 -0.2835 -0.42 -0.693 -0.441c -0.063 -0.063 -0.063 -0.2835 0 -0.3465c 0.21 0.0105 0.987 0.021 0.987 0.021Z "/></symbol><symbol id="gBA3E9C2E61A84E296B252679103E17C4" overflow="visible"><path d="M 0 0m 1.701 3.861c -0.297 0 -0.648 0.009 -0.918 0.018c -0.054 -0.054 -0.054 -0.243 0 -0.297c 0.549 -0.045 0.711 -0.081 0.675 -0.828c -0.036 -0.828 -0.18 -1.494 -0.333 -2.124c -0.054 -0.243 -0.315 -0.324 -0.567 -0.351c -0.135 -0.018 -0.261 -0.072 -0.27 -0.234l -0.054 -1.197c 0.063 -0.027 0.135 -0.036 0.243 -0.009c 0.081 0.333 0.324 1.161 1.134 1.161h 1.557c 0.801 0 1.062 -0.81 1.143 -1.17c 0.081 -0.018 0.162 -0.018 0.252 0.018l -0.054 1.206c 0 0.126 -0.072 0.198 -0.243 0.225c -0.162 0.027 -0.387 0.09 -0.387 0.423v 2.061c 0 0.738 0.117 0.783 0.612 0.819c 0.054 0.054 0.054 0.243 0 0.297c -0.27 -0.009 -0.612 -0.018 -0.972 -0.018Z m -0.252 -3.402c 0 0.153 0.243 0.747 0.378 2.808c 0.009 0.135 0.072 0.252 0.315 0.252h 0.621c 0.36 0 0.405 -0.252 0.405 -0.558v -2.169c 0 -0.297 -0.018 -0.441 -0.378 -0.441h -1.161c -0.099 0 -0.18 0.009 -0.18 0.108Z "/></symbol><symbol id="g5F2B105DCE44482CD07DFE0B4651B637" overflow="visible"><path d="M 0 0m 4.311 2.763c 0 0.747 0.099 0.774 0.648 0.819c 0.054 0.054 0.054 0.243 0 0.297c -0.315 -0.018 -0.711 -0.018 -1.008 -0.018c -0.252 0 -0.612 0.009 -0.963 0.018c -0.054 -0.054 -0.054 -0.243 0 -0.297c 0.549 -0.036 0.612 -0.072 0.612 -0.819v -0.585h -1.926v 0.585c 0 0.747 0.063 0.774 0.612 0.819c 0.054 0.054 0.054 0.243 0 0.297c -0.342 -0.009 -0.684 -0.018 -0.972 -0.018c -0.27 0 -0.639 0.009 -0.999 0.018c -0.054 -0.054 -0.054 -0.243 0 -0.297c 0.549 -0.036 0.648 -0.072 0.648 -0.819v -1.665c 0 -0.747 -0.099 -0.774 -0.648 -0.819c -0.054 -0.054 -0.054 -0.243 0 -0.297c 0.36 0.009 0.72 0.018 1.008 0.018c 0.288 0 0.639 -0.009 0.963 -0.018c 0.054 0.054 0.054 0.243 0 0.297c -0.549 0.036 -0.612 0.072 -0.612 0.819v 0.783h 1.926v -0.783c 0 -0.747 -0.063 -0.774 -0.612 -0.819c -0.054 -0.054 -0.054 -0.243 0 -0.297c 0.324 0.009 0.657 0.018 0.972 0.018c 0.27 0 0.648 -0.009 0.999 -0.018c 0.054 0.054 0.054 0.243 0 0.297c -0.549 0.036 -0.648 0.072 -0.648 0.819Z "/></symbol><symbol id="g6EA5A1981697E2B5E95285C58F7F7AD0" overflow="visible"><path d="M 0 0m 1.782 0.567c -0.027 0 -0.063 0.018 -0.063 0.108v 2.052c 0 0.747 0.189 0.828 0.648 0.855c 0.054 0.054 0.054 0.243 0 0.297c -0.207 -0.009 -0.72 -0.018 -1.053 -0.018c -0.297 0 -0.657 0.009 -0.999 0.018c -0.054 -0.054 -0.054 -0.243 0 -0.297c 0.549 -0.027 0.693 -0.108 0.693 -0.855v -1.593c 0 -0.747 -0.144 -0.828 -0.693 -0.855c -0.054 -0.054 -0.054 -0.243 0 -0.297c 0.351 0.009 0.711 0.018 0.999 0.018c 0.207 0 0.45 -0.009 0.549 -0.018c 0.045 0.126 0.126 0.306 0.225 0.486l 1.404 2.817c 0.027 0 0.063 -0.018 0.063 -0.108v -2.043c 0 -0.747 -0.189 -0.828 -0.648 -0.855c -0.054 -0.054 -0.054 -0.243 0 -0.297c 0.207 0.009 0.693 0.018 1.053 0.018c 0.279 0 0.648 -0.009 0.999 -0.018c 0.054 0.054 0.054 0.243 0 0.297c -0.549 0.027 -0.693 0.108 -0.693 0.855v 1.593c 0 0.747 0.144 0.828 0.693 0.855c 0.054 0.054 0.054 0.243 0 0.297c -0.36 -0.009 -0.72 -0.018 -0.999 -0.018c -0.198 0 -0.45 0.009 -0.54 0.018c -0.072 -0.162 -0.153 -0.351 -0.234 -0.504Z "/></symbol><symbol id="g6F3F83F8220F4B0FE27ED35A349BC8A6" overflow="visible"><path d="M 0 0m 1.314 3.861c -0.387 0 -0.702 0.009 -0.999 0.018c -0.054 -0.054 -0.054 -0.243 0 -0.297c 0.549 -0.036 0.648 -0.072 0.648 -0.819v -1.665c 0 -0.747 -0.099 -0.774 -0.648 -0.819c -0.054 -0.054 -0.054 -0.243 0 -0.297c 0.297 0.009 0.612 0.018 1.008 0.018c 0.333 0 0.63 -0.018 1.233 -0.018c 0.774 0 1.359 0.216 1.359 1.107c 0 0.504 -0.315 0.855 -0.864 0.954v 0.027c 0.414 0.081 0.729 0.369 0.729 0.909c 0 0.63 -0.387 0.9 -1.476 0.9c -0.369 0 -0.603 -0.018 -0.99 -0.018Z m 0.36 -1.908h 0.684c 0.549 0 0.783 -0.36 0.783 -0.9c 0 -0.603 -0.342 -0.774 -0.828 -0.774c -0.468 0 -0.639 0.081 -0.639 0.495Z m 0 0.261v 1.044c 0 0.27 0.207 0.324 0.639 0.324c 0.468 0 0.747 -0.126 0.747 -0.666c 0 -0.36 -0.234 -0.702 -0.792 -0.702Z "/></symbol><symbol id="g785243DD0DBD5D3E5E793E04FC62E83F" overflow="visible"><path d="M 0 0m 6.714 1.098v 1.665c 0 0.738 0.117 0.783 0.612 0.819c 0.054 0.054 0.054 0.243 0 0.297c -0.27 -0.009 -0.612 -0.018 -0.972 -0.018c -0.36 0 -0.63 0.009 -0.9 0.018c -0.054 -0.054 -0.054 -0.243 0 -0.297c 0.459 -0.045 0.549 -0.081 0.549 -0.819v -1.953c 0 -0.279 -0.027 -0.459 -0.378 -0.459h -1.062c -0.27 0 -0.387 0.081 -0.387 0.459v 1.953c 0.009 0.738 0.072 0.783 0.558 0.819c 0.045 0.054 0.045 0.243 0 0.297c -0.225 -0.009 -0.558 -0.018 -0.918 -0.018c -0.36 0 -0.657 0.009 -0.882 0.018c -0.045 -0.054 -0.045 -0.243 0 -0.297c 0.45 -0.036 0.54 -0.081 0.531 -0.819v -1.962c 0 -0.333 -0.045 -0.45 -0.378 -0.45h -1.026c -0.333 0 -0.387 0.099 -0.387 0.459v 1.953c 0 0.738 0.09 0.783 0.558 0.819c 0.045 0.054 0.045 0.243 0 0.297c -0.225 -0.009 -0.558 -0.018 -0.918 -0.018c -0.36 0 -0.675 0.009 -0.927 0.018c -0.045 -0.054 -0.045 -0.243 0 -0.297c 0.495 -0.036 0.576 -0.081 0.576 -0.819v -1.665c 0 -0.738 -0.117 -0.783 -0.612 -0.819c -0.054 -0.054 -0.054 -0.243 0 -0.297c 0.27 0.009 0.612 0.018 0.972 0.018h 5.031c 0.36 0 0.702 -0.009 0.972 -0.018c 0.054 0.054 0.054 0.243 0 0.297c -0.495 0.036 -0.612 0.081 -0.612 0.819Z "/></symbol><symbol id="g1EEFC323E4FEBE7654D5CC1583F61AF4" overflow="visible"><path d="M 0 0m 3.383 0.7735c -0.034 0.0765 -0.102 0.1105 -0.1785 0.119c -0.289 -0.374 -0.6545 -0.561 -1.02 -0.561c -0.6205 0 -1.139 0.629 -1.139 1.6235c 0 0.935 0.408 1.496 0.969 1.496c 0.5015 0 0.5695 -0.2975 0.6035 -0.595c 0.0255 -0.2295 0.1445 -0.306 0.323 -0.306c 0.1785 0 0.4165 0.1105 0.4165 0.374c 0 0.4675 -0.4845 0.8075 -1.3005 0.8075c -0.8415 0 -1.7425 -0.7565 -1.7425 -1.9635c 0 -1.0965 0.612 -1.853 1.683 -1.853c 0.51 0 0.9605 0.1615 1.3855 0.8585Z "/></symbol><symbol id="g3EDD64AE7B5A40E8FE9DD75D51E8EE8A" overflow="visible"><path d="M 0 0m 1.547 1.037c 0 -0.7055 -0.0935 -0.748 -0.612 -0.7735c -0.051 -0.051 -0.051 -0.2295 0 -0.2805c 0.3315 0.0085 0.6715 0.017 0.952 0.017c 0.289 0 0.6205 -0.0085 0.9435 -0.017c 0.051 0.051 0.051 0.2295 0 0.2805c -0.5185 0.0255 -0.612 0.068 -0.612 0.7735v 2.295h 0.1445c 0.6885 0 0.8245 -0.238 0.969 -0.9265c 0.1105 0 0.221 0.034 0.221 0.034c -0.051 0.391 -0.085 0.765 -0.0935 1.258c -0.1955 -0.017 -0.833 -0.051 -1.258 -0.051h -0.6375c -0.425 0 -0.901 0.0255 -1.241 0.051c -0.0085 -0.493 -0.0425 -0.867 -0.102 -1.258c 0 0 0.119 -0.034 0.2295 -0.034c 0.1445 0.6885 0.272 0.9265 0.969 0.9265h 0.1275Z "/></symbol><symbol id="gF931FC691828778A920607CF18B9C32A" overflow="visible"><path d="M 0 0m 2.4905 0.408c 0.051 -0.2635 0.1445 -0.493 0.5695 -0.493c 0.323 0 0.629 0.1445 0.8075 0.3145c -0.017 0.102 -0.051 0.1785 -0.1445 0.2295c -0.0595 -0.051 -0.204 -0.136 -0.3145 -0.136c -0.2465 0 -0.255 0.3315 -0.255 0.7225v 1.2495c 0 1.207 -0.663 1.4365 -1.2835 1.4365c -0.697 0 -1.4025 -0.459 -1.4025 -0.9435c 0 -0.204 0.102 -0.306 0.2975 -0.306c 0.2465 0 0.3995 0.1785 0.3995 0.289c 0 0.0595 -0.0085 0.119 -0.0255 0.153c -0.0085 0.0255 -0.017 0.0765 -0.017 0.17c 0 0.2635 0.357 0.357 0.68 0.357c 0.289 0 0.6885 -0.1445 0.6885 -1.105c 0 -0.0595 -0.0255 -0.0935 -0.051 -0.102l -0.731 -0.1785c -0.816 -0.204 -1.4025 -0.6545 -1.4025 -1.2325c 0 -0.697 0.476 -0.918 1.071 -0.918c 0.2975 0 0.5525 0.068 0.9265 0.357l 0.17 0.136Z m 0 1.5725v -1.122c 0 -0.1105 -0.051 -0.17 -0.119 -0.221c -0.221 -0.1785 -0.51 -0.374 -0.748 -0.374c -0.425 0 -0.612 0.34 -0.612 0.6035c 0 0.3825 0.1785 0.7735 0.8075 0.935Z "/></symbol><symbol id="g430571653545A60A3EF6386D136EADA3" overflow="visible"><path d="M 0 0m 1.326 3.128c -0.0085 0.255 -0.0255 0.476 -0.068 0.561c -0.017 0.0425 -0.034 0.068 -0.102 0.068c -0.238 -0.0935 -0.459 -0.17 -1.0455 -0.2465c -0.017 -0.051 0 -0.187 0.017 -0.238c 0.459 -0.0425 0.5525 -0.085 0.5525 -0.578v -3.6295c 0 -0.7055 -0.0935 -0.748 -0.612 -0.7735c -0.051 -0.051 -0.051 -0.2295 0 -0.2805c 0.2975 0.0085 0.612 0.017 0.952 0.017c 0.34 0 0.748 -0.0085 1.0285 -0.017c 0.051 0.051 0.051 0.2295 0 0.2805c -0.6035 0.034 -0.697 0.068 -0.697 0.7735v 0.918c 0 0.1105 0.034 0.102 0.119 0.068c 0.2125 -0.085 0.4675 -0.136 0.7395 -0.136c 0.476 0 0.901 0.1445 1.2495 0.476c 0.3995 0.391 0.629 0.918 0.629 1.6065c 0 0.901 -0.6375 1.734 -1.5045 1.734c -0.391 0 -0.8245 -0.255 -1.1645 -0.6375c -0.051 -0.051 -0.085 -0.051 -0.0935 0.034Z m 0.1615 -0.3145c 0.221 0.272 0.612 0.527 0.8585 0.527c 0.544 0 1.0115 -0.612 1.0115 -1.5725c 0 -0.697 -0.2465 -1.564 -1.1985 -1.564c -0.153 0 -0.4505 0.0425 -0.6035 0.1785c -0.17 0.153 -0.204 0.204 -0.204 0.51v 1.547c 0 0.1785 0.034 0.255 0.136 0.374Z "/></symbol><symbol id="gE34E15A46C94CBC2E6ABE8844A1DDB21" overflow="visible"><path d="M 0 0m 0.3485 1.7425c 0 -0.867 0.578 -1.8275 1.785 -1.8275c 0.544 0 0.9605 0.1955 1.2495 0.476c 0.3825 0.374 0.5525 0.9095 0.5525 1.428c 0 0.884 -0.4845 1.9125 -1.785 1.9125c -0.561 0 -1.02 -0.2295 -1.3345 -0.595c -0.306 -0.3655 -0.4675 -0.8585 -0.4675 -1.394Z m 1.6745 1.6915c 0.731 0 1.1815 -0.663 1.1815 -1.887c 0 -1.071 -0.5525 -1.3345 -0.952 -1.3345c -0.884 0 -1.173 1.071 -1.173 1.7255c 0 0.7395 0.1785 1.496 0.9435 1.496Z "/></symbol><symbol id="g5D2E58E4CDB4D7E6C81847885E22D756" overflow="visible"><path d="M 0 0m 3.281 0.7905c -0.3145 -0.323 -0.561 -0.459 -1.054 -0.459c -0.306 0 -0.663 0.1785 -0.9265 0.612c -0.17 0.2805 -0.272 0.6715 -0.272 1.1645l 2.261 -0.017c 0.102 0 0.1615 0.051 0.1615 0.1445c 0 0.714 -0.255 1.479 -1.4365 1.479c -0.7395 0 -1.7 -0.7055 -1.7 -1.9975c 0 -0.476 0.119 -0.935 0.3995 -1.258c 0.289 -0.34 0.6885 -0.544 1.3005 -0.544c 0.646 0 1.105 0.2975 1.445 0.7395c -0.0255 0.085 -0.0765 0.1275 -0.1785 0.136Z m -2.227 1.6065c 0.1615 0.9605 0.7565 1.037 0.9605 1.037c 0.323 0 0.7055 -0.1785 0.7055 -0.8925c 0 -0.0765 -0.034 -0.119 -0.1275 -0.119Z "/></symbol><symbol id="gDEA2A0379B7527B5C1F8D88530B6617D" overflow="visible"><path d="M 0 0m 0.9945 2.601l -0.051 -1.581c -0.0255 -0.714 -0.153 -0.731 -0.646 -0.7565c -0.051 -0.051 -0.051 -0.2295 0 -0.2805c 0.17 0.0085 0.595 0.017 0.731 0.017c 0.17 0 0.5695 -0.0085 0.7395 -0.017c 0.051 0.051 0.051 0.2295 0 0.2805c -0.4845 0.034 -0.5185 0.119 -0.5015 0.7565l 0.0595 2.0825c 0 0.0765 0.034 0.0765 0.068 0l 1.2325 -3.009c 0.034 -0.0255 0.068 -0.0255 0.0935 0l 1.394 3.0005c 0.0425 0.0935 0.085 0.102 0.085 0l -0.0085 -2.057c 0 -0.7055 -0.0595 -0.731 -0.578 -0.7735c -0.051 -0.051 -0.051 -0.2295 0 -0.2805c 0.306 0.0085 0.6205 0.017 0.918 0.017c 0.255 0 0.6205 -0.0085 0.952 -0.017c 0.051 0.051 0.051 0.2295 0 0.2805c -0.5185 0.034 -0.612 0.068 -0.612 0.7735l -0.017 1.5725c -0.0085 0.7055 0.0935 0.731 0.612 0.7735c 0.051 0.051 0.051 0.2295 0 0.2805c -0.2975 -0.017 -1.122 -0.017 -1.4025 -0.017l -1.1305 -2.431l -0.0425 -0.085l -0.034 0.085l -0.9945 2.431c -0.2805 0 -1.1815 0 -1.479 0.017c -0.051 -0.051 -0.051 -0.2295 0 -0.2805c 0.5185 -0.0425 0.6375 -0.0765 0.612 -0.782Z "/></symbol><symbol id="gB3F6F741CFF64E2F87AE274E4C795DAE" overflow="visible"><path d="M 0 0m 3.553 1.037v 1.5725c 0 0.697 0.1105 0.7395 0.578 0.7735c 0.051 0.051 0.051 0.2295 0 0.2805c -0.255 -0.0085 -0.578 -0.017 -0.918 -0.017h -1.6065c -0.2805 0 -0.612 0.0085 -0.867 0.017c -0.051 -0.051 -0.051 -0.2295 0 -0.2805c 0.6035 -0.0425 0.6885 -0.0935 0.6885 -1.0115c 0 -0.8925 -0.068 -1.36 -0.187 -1.7085c -0.1105 -0.306 -0.255 -0.4165 -0.3995 -0.4165c -0.1105 0 -0.1445 0.068 -0.1615 0.1785c -0.0255 0.1615 -0.0765 0.323 -0.3145 0.323c -0.2125 0 -0.3315 -0.17 -0.3315 -0.357c 0 -0.2635 0.238 -0.493 0.629 -0.493c 0.4335 0 0.6715 0.221 0.867 0.68c 0.17 0.408 0.221 1.275 0.221 1.853c 0 0.663 0.0255 0.884 0.3655 0.884h 0.3825c 0.323 0 0.3825 -0.204 0.3825 -0.493v -1.785c 0 -0.697 -0.085 -0.7395 -0.527 -0.7735c -0.0425 -0.051 -0.0425 -0.2295 0 -0.2805c 0.2125 0.0085 0.527 0.017 0.867 0.017c 0.34 0 0.7225 -0.0085 0.9605 -0.017c 0.0425 0.051 0.0425 0.2295 0 0.2805c -0.5525 0.034 -0.629 0.0765 -0.629 0.7735Z "/></symbol><symbol id="gBAF1B227155053221F22F6E06EEFED60" overflow="visible"><path d="M 0 0m 1.6065 3.6465c -0.2805 0 -0.612 0.0085 -0.867 0.017c -0.051 -0.051 -0.051 -0.2295 0 -0.2805c 0.5185 -0.0425 0.6715 -0.0765 0.6375 -0.782c -0.034 -0.782 -0.17 -1.411 -0.3145 -2.006c -0.051 -0.2295 -0.2975 -0.306 -0.5355 -0.3315c -0.1275 -0.017 -0.2465 -0.068 -0.255 -0.221l -0.051 -1.1305c 0.0595 -0.0255 0.1275 -0.034 0.2295 -0.0085c 0.0765 0.3145 0.306 1.0965 1.071 1.0965h 1.4705c 0.7565 0 1.003 -0.765 1.0795 -1.105c 0.0765 -0.017 0.153 -0.017 0.238 0.017l -0.051 1.139c 0 0.119 -0.068 0.187 -0.2295 0.2125c -0.153 0.0255 -0.3655 0.085 -0.3655 0.3995v 1.9465c 0 0.697 0.1105 0.7395 0.578 0.7735c 0.051 0.051 0.051 0.2295 0 0.2805c -0.255 -0.0085 -0.578 -0.017 -0.918 -0.017Z m -0.238 -3.213c 0 0.1445 0.2295 0.7055 0.357 2.652c 0.0085 0.1275 0.068 0.238 0.2975 0.238h 0.5865c 0.34 0 0.3825 -0.238 0.3825 -0.527v -2.0485c 0 -0.2805 -0.017 -0.4165 -0.357 -0.4165h -1.0965c -0.0935 0 -0.17 0.0085 -0.17 0.102Z "/></symbol><symbol id="gD243A48DAC45EEC7C88A2988B14DD756" overflow="visible"><path d="M 0 0m 1.387 4.0755c -0.4085 0 -0.741 0.0095 -1.0545 0.019c -0.057 -0.057 -0.057 -0.2565 0 -0.3135c 0.5795 -0.038 0.684 -0.076 0.684 -0.8645v -1.7575c 0 -0.7885 -0.1045 -0.817 -0.684 -0.8645c -0.057 -0.057 -0.057 -0.2565 0 -0.3135c 0.3135 0.0095 0.646 0.019 1.064 0.019c 0.3515 0 0.665 -0.019 1.3015 -0.019c 0.817 0 1.4345 0.228 1.4345 1.1685c 0 0.532 -0.3325 0.9025 -0.912 1.007v 0.0285c 0.437 0.0855 0.7695 0.3895 0.7695 0.9595c 0 0.665 -0.4085 0.95 -1.558 0.95c -0.3895 0 -0.6365 -0.019 -1.045 -0.019Z m 0.38 -2.014h 0.722c 0.5795 0 0.8265 -0.38 0.8265 -0.95c 0 -0.6365 -0.361 -0.817 -0.874 -0.817c -0.494 0 -0.6745 0.0855 -0.6745 0.5225Z m 0 0.2755v 1.102c 0 0.285 0.2185 0.342 0.6745 0.342c 0.494 0 0.7885 -0.133 0.7885 -0.703c 0 -0.38 -0.247 -0.741 -0.836 -0.741Z "/></symbol><symbol id="g5B0FB9F727640150CA57389F67238C5A" overflow="visible"><path d="M 0 0m 1.482 3.496c -0.0095 0.285 -0.0285 0.532 -0.076 0.627c -0.019 0.0475 -0.038 0.076 -0.114 0.076c -0.266 -0.1045 -0.513 -0.19 -1.1685 -0.2755c -0.019 -0.057 0 -0.209 0.019 -0.266c 0.513 -0.0475 0.6175 -0.095 0.6175 -0.646v -4.0565c 0 -0.7885 -0.1045 -0.836 -0.684 -0.8645c -0.057 -0.057 -0.057 -0.2565 0 -0.3135c 0.3325 0.0095 0.684 0.019 1.064 0.019c 0.38 0 0.836 -0.0095 1.1495 -0.019c 0.057 0.057 0.057 0.2565 0 0.3135c -0.6745 0.038 -0.779 0.076 -0.779 0.8645v 1.026c 0 0.1235 0.038 0.114 0.133 0.076c 0.2375 -0.095 0.5225 -0.152 0.8265 -0.152c 0.532 0 1.007 0.1615 1.3965 0.532c 0.4465 0.437 0.703 1.026 0.703 1.7955c 0 1.007 -0.7125 1.938 -1.6815 1.938c -0.437 0 -0.9215 -0.285 -1.3015 -0.7125c -0.057 -0.057 -0.095 -0.057 -0.1045 0.038Z m 0.1805 -0.3515c 0.247 0.304 0.684 0.589 0.9595 0.589c 0.608 0 1.1305 -0.684 1.1305 -1.7575c 0 -0.779 -0.2755 -1.748 -1.3395 -1.748c -0.171 0 -0.5035 0.0475 -0.6745 0.1995c -0.19 0.171 -0.228 0.228 -0.228 0.57v 1.729c 0 0.1995 0.038 0.285 0.152 0.418Z "/></symbol><symbol id="gA3A5C9019285A4C81365474C03E3CF4E" overflow="visible"><path d="M 0 0m 3.667 0.8835c -0.3515 -0.361 -0.627 -0.513 -1.178 -0.513c -0.342 0 -0.741 0.1995 -1.0355 0.684c -0.19 0.3135 -0.304 0.7505 -0.304 1.3015l 2.527 -0.019c 0.114 0 0.1805 0.057 0.1805 0.1615c 0 0.798 -0.285 1.653 -1.6055 1.653c -0.8265 0 -1.9 -0.7885 -1.9 -2.2325c 0 -0.532 0.133 -1.045 0.4465 -1.406c 0.323 -0.38 0.7695 -0.608 1.4535 -0.608c 0.722 0 1.235 0.3325 1.615 0.8265c -0.0285 0.095 -0.0855 0.1425 -0.1995 0.152Z m -2.489 1.7955c 0.1805 1.0735 0.8455 1.159 1.0735 1.159c 0.361 0 0.7885 -0.1995 0.7885 -0.9975c 0 -0.0855 -0.038 -0.133 -0.1425 -0.133Z "/></symbol><symbol id="gC2CBF98E7E07B945C6FA500EA68B32AD" overflow="visible"><path d="M 0 0m 1.1115 2.907l -0.057 -1.767c -0.0285 -0.798 -0.171 -0.817 -0.722 -0.8455c -0.057 -0.057 -0.057 -0.2565 0 -0.3135c 0.19 0.0095 0.665 0.019 0.817 0.019c 0.19 0 0.6365 -0.0095 0.8265 -0.019c 0.057 0.057 0.057 0.2565 0 0.3135c -0.5415 0.038 -0.5795 0.133 -0.5605 0.8455l 0.0665 2.3275c 0 0.0855 0.038 0.0855 0.076 0l 1.3775 -3.363c 0.038 -0.0285 0.076 -0.0285 0.1045 0l 1.558 3.3535c 0.0475 0.1045 0.095 0.114 0.095 0l -0.0095 -2.299c 0 -0.7885 -0.0665 -0.817 -0.646 -0.8645c -0.057 -0.057 -0.057 -0.2565 0 -0.3135c 0.342 0.0095 0.6935 0.019 1.026 0.019c 0.285 0 0.6935 -0.0095 1.064 -0.019c 0.057 0.057 0.057 0.2565 0 0.3135c -0.5795 0.038 -0.684 0.076 -0.684 0.8645l -0.019 1.7575c -0.0095 0.7885 0.1045 0.817 0.684 0.8645c 0.057 0.057 0.057 0.2565 0 0.3135c -0.3325 -0.019 -1.254 -0.019 -1.5675 -0.019l -1.2635 -2.717l -0.0475 -0.095l -0.038 0.095l -1.1115 2.717c -0.3135 0 -1.3205 0 -1.653 0.019c -0.057 -0.057 -0.057 -0.2565 0 -0.3135c 0.5795 -0.0475 0.7125 -0.0855 0.684 -0.874Z "/></symbol><symbol id="g5AAEF493CBDA45024F82AC9E8378049F" overflow="visible"><path d="M 0 0m 1.083 0c 0.266 0.0095 0.361 0.2565 0.475 0.5985c 0.247 0.7505 0.5225 1.216 0.9975 1.216h 0.247v -0.6555c 0 -0.7885 -0.1045 -0.817 -0.684 -0.8645c -0.057 -0.057 -0.057 -0.2565 0 -0.3135c 0.3135 0.0095 0.646 0.019 1.064 0.019c 0.4085 0 0.7505 -0.0095 1.0545 -0.019c 0.057 0.057 0.057 0.2565 0 0.3135c -0.5795 0.038 -0.684 0.076 -0.684 0.8645v 1.7575c 0 0.7885 0.1045 0.817 0.684 0.8645c 0.057 0.057 0.057 0.2565 0 0.3135c -0.323 -0.0095 -0.646 -0.019 -1.064 -0.019c -0.323 0 -0.5985 0.019 -0.836 0.019c -1.6625 0 -1.805 -0.684 -1.805 -1.197c 0 -0.6175 0.475 -0.931 1.178 -0.9595c 0.0285 0 0.0285 -0.0285 0.019 -0.038c -0.361 -0.1045 -0.5225 -0.304 -0.684 -0.6555c -0.1045 -0.2185 -0.19 -0.4275 -0.2375 -0.551c -0.1235 -0.323 -0.285 -0.38 -0.6555 -0.399c -0.057 -0.057 -0.057 -0.2565 0 -0.3135c 0.19 0.0095 0.931 0.019 0.931 0.019Z m 0.266 3.0495c 0 0.4465 0.1425 0.7315 0.912 0.7315c 0.3895 0 0.5415 -0.171 0.5415 -0.532v -1.1115h -0.665c -0.57 0 -0.7885 0.437 -0.7885 0.912Z "/></symbol></defs></svg>