<svg viewBox="0 0 142.850393701 129.251889764" width="142.850393701pt" height="129.251889764pt" xmlns="http://www.w3.org/2000/svg" xmlns:xlink="http://www.w3.org/1999/xlink" xmlns:h5="http://www.w3.org/1999/xhtml"><path fill="#ffffff" fill-rule="nonzero" d="M 0 0v 129.251889764h 142.850393701v -129.251889764Z "/><g transform="translate(8 8)"><path fill="none" stroke="#1a1a18" stroke-width="0.6" stroke-linecap="butt" stroke-linejoin="miter" stroke-miterlimit="4" transform="translate(2.125984252 100.562952756)" d="M 0 0h 118.200717736"/><path fill="#1a1a18" fill-rule="nonzero" stroke="#1a1a18" stroke-width="0.6" stroke-linecap="butt" stroke-linejoin="miter" stroke-miterlimit="4" transform="translate(120.32670189 98.436968504)" d="M 0 0m 5.669291339 2.125984252l -5.669291339 2.125984252v -4.251968504l 5.669291339 2.125984252Z "/><path fill="none" stroke="#1a1a18" stroke-width="0.6" stroke-linecap="butt" stroke-linejoin="miter" stroke-miterlimit="4" transform="translate(2.125984252 10.708691713)" d="M 0 0m 0 89.854261043v -89.854261043"/><path fill="#1a1a18" fill-rule="nonzero" stroke="#1a1a18" stroke-width="0.6" stroke-linecap="butt" stroke-linejoin="miter" stroke-miterlimit="4" transform="translate(0 5.039400472)" d="M 0 0m 2.125984252 0l 2.125984252 5.669291339h -4.251968504l 2.125984252 -5.669291339Z "/><path fill="none" transform="translate(117.613693701 104.881889764)" d="M 0 0h 9.2367v 8.37h -9.2367v -8.37Z "/><g transform="translate(117.613693701 104.881889622)"><g transform="matrix(1 0 0 -1 0 6.147)"><use xlink:href="#gFB6023562FAA25D0472E92EA23A01C18" x="0" y="0" fill="#7c7f6a" fill-rule="nonzero"/></g><g transform="matrix(1 0 0 -1 5.148 8.37)"><use xlink:href="#g288B7052E2C5A3243884266A1031EA31" x="0" y="0" fill="#7c7f6a" fill-rule="nonzero"/></g></g><path fill="none" transform="translate(7.795275591)" d="M 0 0h 9.2367v 8.37h -9.2367v -8.37Z "/><g transform="translate(7.795275591 -1.42e-7)"><g transform="matrix(1 0 0 -1 0 6.147)"><use xlink:href="#gFB6023562FAA25D0472E92EA23A01C18" x="0" y="0" fill="#7c7f6a" fill-rule="nonzero"/></g><g transform="matrix(1 0 0 -1 5.148 8.37)"><use xlink:href="#g6FB493AE2B08A4DB2159D2431B838D5" x="0" y="0" fill="#7c7f6a" fill-rule="nonzero"/></g></g><path fill="#d1cdc6" fill-rule="nonzero" stroke="#7c7f6a" stroke-width="1" stroke-linecap="butt" stroke-linejoin="miter" stroke-miterlimit="4" transform="translate(2.125984252 32.531456693)" d="M 0 0m 0 68.031496063h 90.708661417l -17.007874016 -48.188976378l -73.700787402 -19.842519685v 68.031496063Z "/><path fill="none" stroke="#1a1a18" stroke-width="0.6" stroke-linecap="butt" stroke-linejoin="miter" stroke-miterlimit="4" transform="translate(92.834645669 100.562952756)" d="M 0 0h 19.842519685"/><path fill="none" transform="translate(5.333273622 76.937933071)" d="M 0 0h 72.9555v 7.565h -72.9555v -7.565Z "/><g transform="translate(5.333273575 76.937933055)"><g transform="matrix(1 0 0 -1 0 5.593)"><use xlink:href="#gBAF1B227155053221F22F6E06EEFED60" x="0" y="0" fill="#1a1a18" fill-rule="nonzero"/><use xlink:href="#gE34E15A46C94CBC2E6ABE8844A1DDB21" x="4.573" y="0" fill="#1a1a18" fill-rule="nonzero"/><use xlink:href="#gBEE50160BCD570B38DEF46393A725EED" x="8.857" y="0" fill="#1a1a18" fill-rule="nonzero"/><use xlink:href="#g2884EEE83F88BF741DF31D9C41AEE180" x="13.838" y="0" fill="#1a1a18" fill-rule="nonzero"/><use xlink:href="#g1EEFC323E4FEBE7654D5CC1583F61AF4" x="18.2155" y="0" fill="#1a1a18" fill-rule="nonzero"/><use xlink:href="#g3EDD64AE7B5A40E8FE9DD75D51E8EE8A" x="21.8535" y="0" fill="#1a1a18" fill-rule="nonzero"/><use xlink:href="#gE7AE90A8EDDEF3DDB67EE78D36D80337" x="25.636" y="0" fill="#1a1a18" fill-rule="nonzero"/><use xlink:href="#gDEA2A0379B7527B5C1F8D88530B6617D" x="30.617" y="0" fill="#1a1a18" fill-rule="nonzero"/><use xlink:href="#g263F4FD32CCD3C47111457350A4C543D" x="36.397" y="0" fill="#1a1a18" fill-rule="nonzero"/><use xlink:href="#g5D2E58E4CDB4D7E6C81847885E22D756" x="42.551" y="0" fill="#1a1a18" fill-rule="nonzero"/><use xlink:href="#gBEE50160BCD570B38DEF46393A725EED" x="48.4755" y="0" fill="#1a1a18" fill-rule="nonzero"/><use xlink:href="#gB3F6F741CFF64E2F87AE274E4C795DAE" x="53.4565" y="0" fill="#1a1a18" fill-rule="nonzero"/><use xlink:href="#gF931FC691828778A920607CF18B9C32A" x="57.936" y="0" fill="#1a1a18" fill-rule="nonzero"/><use xlink:href="#gC8932C6BA7F518DC74E87E2F4A0224EB" x="61.8205" y="0" fill="#1a1a18" fill-rule="nonzero"/><use xlink:href="#g263F4FD32CCD3C47111457350A4C543D" x="66.8015" y="0" fill="#1a1a18" fill-rule="nonzero"/></g></g><path fill="none" stroke="#1a1a18" stroke-width="0.8" stroke-linecap="butt" stroke-linejoin="miter" stroke-miterlimit="4" stroke-dashoffset="0" stroke-dasharray="3 3" transform="translate(36.141732283 18.358228346)" d="M 0 0m 65.196850394 70.866141732l -65.196850394 -70.866141732"/><path fill="none" stroke="#1a1a18" stroke-width="1" stroke-linecap="butt" stroke-linejoin="miter" stroke-miterlimit="4" transform="translate(53.149606299 45.291368878)" d="M 0 0m 0 12.751898838l 17.002531784 -12.751898838"/><path fill="#1a1a18" fill-rule="nonzero" stroke="#1a1a18" stroke-width="1" stroke-linecap="butt" stroke-linejoin="miter" stroke-miterlimit="4" transform="translate(68.876547591 41.889794173)" d="M 0 0m 5.811023622 0l -3.25984252 5.102362205l -2.551181102 -3.401574803l 5.811023622 -1.700787402Z "/><path fill="none" transform="translate(78.661417323 35.950070866)" d="M 0 0h 30.4368v 7.336h -30.4368v -7.336Z "/><g transform="translate(78.661417276 35.950070835)"><g transform="matrix(1 0 0 -1 0 5.464)"><use xlink:href="#g46DFAA35BC521B4F2378CE697B4B163E" x="0" y="0" fill="#7c7f6a" fill-rule="nonzero"/><use xlink:href="#g5D01DA3AB390CB78D7E54204B7DC3F87" x="4.152" y="0" fill="#7c7f6a" fill-rule="nonzero"/><use xlink:href="#g9F99202881449AD6C0CCCD21824C9AF1" x="8.184" y="0" fill="#7c7f6a" fill-rule="nonzero"/><use xlink:href="#gE09E60C0AC8E2E10ADA02C2F49261352" x="11.608" y="0" fill="#7c7f6a" fill-rule="nonzero"/></g><g transform="matrix(1 0 0 -1 17.168 5.464)"><use xlink:href="#gACC3C1049BE7F4FF8EB6028480C7570B" x="0" y="0" fill="#7c7f6a" fill-rule="nonzero"/></g><g transform="matrix(1 0 0 -1 20.832 2.56)"><use xlink:href="#gF513A30B47D1C63BF1DEC0FB5573C9D4" x="0" y="0" fill="#7c7f6a" fill-rule="nonzero"/></g><g transform="matrix(1 0 0 -1 25.8608 5.464)"><use xlink:href="#g8330DA0CB9C10CBAF3BA2E8C701C5521" x="0" y="0" fill="#7c7f6a" fill-rule="nonzero"/></g></g><path fill="#7c7f6a" fill-rule="nonzero" stroke="#1a1a18" stroke-width="0.6" stroke-linecap="butt" stroke-linejoin="miter" stroke-miterlimit="4" transform="translate(72.992125984 49.539330709)" d="M 0 0m 2.834645669 0c -1.564112126 0 -2.834645669 1.270533543 -2.834645669 2.834645669c 0 1.564112126 1.270533543 2.834645669 2.834645669 2.834645669c 1.564112126 0 2.834645669 -1.270533543 2.834645669 -2.834645669c 0 -1.564112126 -1.270533543 -2.834645669 -2.834645669 -2.834645669Z "/><path fill="none" transform="translate(80.078740157 51.426122047)" d="M 0 0h 33.966v 7.565h -33.966v -7.565Z "/><g transform="translate(80.078740157 51.426122031)"><g transform="matrix(1 0 0 -1 0 5.593)"><use xlink:href="#gE34E15A46C94CBC2E6ABE8844A1DDB21" x="0" y="0" fill="#7c7f6a" fill-rule="nonzero"/><use xlink:href="#gBEE50160BCD570B38DEF46393A725EED" x="4.284" y="0" fill="#7c7f6a" fill-rule="nonzero"/><use xlink:href="#g3EDD64AE7B5A40E8FE9DD75D51E8EE8A" x="9.265" y="0" fill="#7c7f6a" fill-rule="nonzero"/><use xlink:href="#gE7AE90A8EDDEF3DDB67EE78D36D80337" x="13.0475" y="0" fill="#7c7f6a" fill-rule="nonzero"/><use xlink:href="#gDEA2A0379B7527B5C1F8D88530B6617D" x="18.0285" y="0" fill="#7c7f6a" fill-rule="nonzero"/><use xlink:href="#g2884EEE83F88BF741DF31D9C41AEE180" x="23.8085" y="0" fill="#7c7f6a" fill-rule="nonzero"/><use xlink:href="#gDEA2A0379B7527B5C1F8D88530B6617D" x="28.186" y="0" fill="#7c7f6a" fill-rule="nonzero"/></g></g></g><defs><symbol id="gFB6023562FAA25D0472E92EA23A01C18" overflow="visible"><path d="M 0 0m 4.743 3.357c 0 0.414 -0.405 0.621 -0.855 0.621c -0.387 0 -0.693 -0.207 -0.927 -0.621c -0.189 0.414 -0.504 0.621 -0.963 0.621c -0.441 0 -0.801 -0.207 -1.089 -0.612c -0.243 -0.351 -0.369 -0.612 -0.369 -0.783c 0 -0.081 0.045 -0.126 0.135 -0.126c 0.081 0 0.135 0.045 0.153 0.126c 0.171 0.522 0.549 1.134 1.152 1.134c 0.297 0 0.441 -0.189 0.441 -0.558c 0 -0.189 -0.162 -0.891 -0.477 -2.097c -0.153 -0.603 -0.423 -0.9 -0.81 -0.9c -0.126 0 -0.243 0.027 -0.342 0.072c 0.234 0.09 0.351 0.252 0.351 0.486c 0 0.234 -0.117 0.351 -0.36 0.351c -0.297 0 -0.522 -0.252 -0.522 -0.549c 0 -0.414 0.423 -0.621 0.864 -0.621c 0.378 0 0.684 0.207 0.927 0.621c 0.171 -0.414 0.495 -0.621 0.963 -0.621c 0.432 0 0.792 0.207 1.08 0.612c 0.243 0.351 0.369 0.612 0.369 0.783c 0 0.081 -0.045 0.126 -0.135 0.126c -0.081 0 -0.126 -0.045 -0.153 -0.126c -0.153 -0.513 -0.558 -1.134 -1.143 -1.134c -0.297 0 -0.45 0.18 -0.45 0.549c 0 0.117 0.045 0.369 0.144 0.774l 0.306 1.215c 0.171 0.675 0.45 1.017 0.846 1.017c 0.126 0 0.243 -0.027 0.342 -0.072c -0.243 -0.081 -0.36 -0.243 -0.36 -0.486c 0 -0.234 0.126 -0.351 0.369 -0.351c 0.288 0 0.513 0.261 0.513 0.549Z "/></symbol><symbol id="g288B7052E2C5A3243884266A1031EA31" overflow="visible"><path d="M 0 0m 1.9089 4.1832c -0.2709 -0.2646 -0.6741 -0.3969 -1.2222 -0.3969v -0.2772c 0.3717 0 0.6678 0.0567 0.8946 0.1638v -3.1374c 0 -0.0819 -0.0063 -0.1323 -0.0252 -0.1575c -0.0315 -0.0693 -0.2205 -0.1071 -0.567 -0.1071h -0.2583v -0.2709l 1.1214 0.0252l 1.1277 -0.0252v 0.2709h -0.2583c -0.3465 0 -0.5355 0.0378 -0.5733 0.1071c -0.0126 0.0252 -0.0189 0.0756 -0.0189 0.1575v 3.4461c 0 0.1701 -0.0252 0.2016 -0.2205 0.2016Z "/></symbol><symbol id="g6FB493AE2B08A4DB2159D2431B838D5" overflow="visible"><path d="M 0 0m 0.7497 2.6712c 0.2016 0 0.3528 0.1512 0.3528 0.3528c 0 0.2268 -0.1197 0.3465 -0.3528 0.3528c 0.1386 0.2961 0.4536 0.5355 0.8631 0.5355c 0.5544 0 0.9198 -0.4158 0.9198 -0.9702c 0 -0.3024 -0.1071 -0.5922 -0.3276 -0.8757c -0.1071 -0.1449 -0.189 -0.2457 -0.2457 -0.3024l -1.4931 -1.4805c -0.0819 -0.0756 -0.0693 -0.0945 -0.0693 -0.2835h 2.5956l 0.1953 1.1844h -0.2646c -0.0441 -0.3339 -0.0945 -0.5292 -0.1512 -0.5733c -0.0315 -0.0189 -0.2268 -0.0315 -0.5985 -0.0315h -1.071c 0.4221 0.3717 0.8127 0.7056 1.1844 1.0017c 0.2835 0.2205 0.4851 0.4158 0.6111 0.5859c 0.189 0.2457 0.2835 0.504 0.2835 0.7749c 0 0.3906 -0.1512 0.6993 -0.4599 0.9261c -0.2709 0.2079 -0.6111 0.315 -1.0143 0.315c -0.3465 0 -0.6426 -0.1008 -0.9009 -0.3024c -0.2709 -0.2205 -0.4095 -0.4977 -0.4095 -0.8379c 0 -0.2142 0.1575 -0.3717 0.3528 -0.3717Z "/></symbol><symbol id="gBAF1B227155053221F22F6E06EEFED60" overflow="visible"><path d="M 0 0m 1.6065 3.6465c -0.2805 0 -0.612 0.0085 -0.867 0.017c -0.051 -0.051 -0.051 -0.2295 0 -0.2805c 0.5185 -0.0425 0.6715 -0.0765 0.6375 -0.782c -0.034 -0.782 -0.17 -1.411 -0.3145 -2.006c -0.051 -0.2295 -0.2975 -0.306 -0.5355 -0.3315c -0.1275 -0.017 -0.2465 -0.068 -0.255 -0.221l -0.051 -1.1305c 0.0595 -0.0255 0.1275 -0.034 0.2295 -0.0085c 0.0765 0.3145 0.306 1.0965 1.071 1.0965h 1.4705c 0.7565 0 1.003 -0.765 1.0795 -1.105c 0.0765 -0.017 0.153 -0.017 0.238 0.017l -0.051 1.139c 0 0.119 -0.068 0.187 -0.2295 0.2125c -0.153 0.0255 -0.3655 0.085 -0.3655 0.3995v 1.9465c 0 0.697 0.1105 0.7395 0.578 0.7735c 0.051 0.051 0.051 0.2295 0 0.2805c -0.255 -0.0085 -0.578 -0.017 -0.918 -0.017Z m -0.238 -3.213c 0 0.1445 0.2295 0.7055 0.357 2.652c 0.0085 0.1275 0.068 0.238 0.2975 0.238h 0.5865c 0.34 0 0.3825 -0.238 0.3825 -0.527v -2.0485c 0 -0.2805 -0.017 -0.4165 -0.357 -0.4165h -1.0965c -0.0935 0 -0.17 0.0085 -0.17 0.102Z "/></symbol><symbol id="gE34E15A46C94CBC2E6ABE8844A1DDB21" overflow="visible"><path d="M 0 0m 0.3485 1.7425c 0 -0.867 0.578 -1.8275 1.785 -1.8275c 0.544 0 0.9605 0.1955 1.2495 0.476c 0.3825 0.374 0.5525 0.9095 0.5525 1.428c 0 0.884 -0.4845 1.9125 -1.785 1.9125c -0.561 0 -1.02 -0.2295 -1.3345 -0.595c -0.306 -0.3655 -0.4675 -0.8585 -0.4675 -1.394Z m 1.6745 1.6915c 0.731 0 1.1815 -0.663 1.1815 -1.887c 0 -1.071 -0.5525 -1.3345 -0.952 -1.3345c -0.884 0 -1.173 1.071 -1.173 1.7255c 0 0.7395 0.1785 1.496 0.9435 1.496Z "/></symbol><symbol id="gBEE50160BCD570B38DEF46393A725EED" overflow="visible"><path d="M 0 0m 3.7145 3.6465h -2.414c -0.34 0 -0.663 0.0085 -0.918 0.017c -0.051 -0.051 -0.051 -0.2295 0 -0.2805c 0.4675 -0.034 0.578 -0.0765 0.578 -0.7735v -1.5725c 0 -0.697 -0.1105 -0.7395 -0.663 -0.7735c -0.051 -0.051 -0.051 -0.2295 0 -0.2805c 0.255 0.0085 0.663 0.017 1.003 0.017c 0.34 0 0.595 -0.0085 0.85 -0.017c 0.051 0.051 0.051 0.2295 0 0.2805c -0.4335 0.0425 -0.5185 0.0765 -0.5185 0.7735v 1.8445c 0 0.2635 0.0255 0.4335 0.357 0.4335h 1.0285c 0.3145 0 0.3655 -0.0935 0.3655 -0.4335v -1.8445c 0 -0.697 -0.085 -0.7395 -0.527 -0.7735c -0.0425 -0.051 -0.0425 -0.2295 0 -0.2805c 0.2125 0.0085 0.527 0.017 0.867 0.017c 0.34 0 0.7225 -0.0085 0.9605 -0.017c 0.0425 0.051 0.0425 0.2295 0 0.2805c -0.5525 0.034 -0.629 0.0765 -0.629 0.7735v 1.5725c 0 0.697 0.1105 0.7395 0.578 0.7735c 0.051 0.051 0.051 0.2295 0 0.2805c -0.255 -0.0085 -0.578 -0.017 -0.918 -0.017Z "/></symbol><symbol id="g2884EEE83F88BF741DF31D9C41AEE180" overflow="visible"><path d="M 0 0m 1.734 -1.36c 0.136 0.238 0.2465 0.476 0.3485 0.731c 0.68 1.6405 1.0625 2.516 1.5045 3.468c 0.17 0.357 0.289 0.493 0.6885 0.544c 0.051 0.051 0.051 0.2295 0 0.2805c -0.17 -0.0085 -0.3655 -0.017 -0.6035 -0.017c -0.255 0 -0.5185 0.0085 -0.7735 0.017c -0.051 -0.051 -0.051 -0.2295 0 -0.2805c 0.272 -0.0255 0.544 -0.0765 0.408 -0.3825l -0.8415 -1.9465c -0.0595 -0.136 -0.136 -0.1615 -0.204 0.0085l -0.7565 1.768c -0.153 0.357 -0.1955 0.5185 0.2805 0.5525c 0.051 0.051 0.051 0.2295 0 0.2805c -0.3145 -0.0085 -0.6545 -0.017 -0.9605 -0.017c -0.289 0 -0.5185 0.0085 -0.6885 0.017c -0.051 -0.051 -0.051 -0.2295 0 -0.2805c 0.34 -0.0425 0.4505 -0.119 0.6715 -0.6375l 0.9605 -2.2355c 0.0765 -0.17 0.204 -0.561 0.119 -0.799c -0.102 -0.2805 -0.204 -0.5185 -0.3315 -0.782c -0.0935 -0.17 -0.2125 -0.2465 -0.425 -0.2465c -0.119 0 -0.153 0.0255 -0.2465 0.0255c -0.2465 0 -0.374 -0.255 -0.374 -0.3655c 0 -0.1785 0.17 -0.3145 0.3995 -0.3145c 0.1785 0 0.5185 0.068 0.8245 0.612Z "/></symbol><symbol id="g1EEFC323E4FEBE7654D5CC1583F61AF4" overflow="visible"><path d="M 0 0m 3.383 0.7735c -0.034 0.0765 -0.102 0.1105 -0.1785 0.119c -0.289 -0.374 -0.6545 -0.561 -1.02 -0.561c -0.6205 0 -1.139 0.629 -1.139 1.6235c 0 0.935 0.408 1.496 0.969 1.496c 0.5015 0 0.5695 -0.2975 0.6035 -0.595c 0.0255 -0.2295 0.1445 -0.306 0.323 -0.306c 0.1785 0 0.4165 0.1105 0.4165 0.374c 0 0.4675 -0.4845 0.8075 -1.3005 0.8075c -0.8415 0 -1.7425 -0.7565 -1.7425 -1.9635c 0 -1.0965 0.612 -1.853 1.683 -1.853c 0.51 0 0.9605 0.1615 1.3855 0.8585Z "/></symbol><symbol id="g3EDD64AE7B5A40E8FE9DD75D51E8EE8A" overflow="visible"><path d="M 0 0m 1.547 1.037c 0 -0.7055 -0.0935 -0.748 -0.612 -0.7735c -0.051 -0.051 -0.051 -0.2295 0 -0.2805c 0.3315 0.0085 0.6715 0.017 0.952 0.017c 0.289 0 0.6205 -0.0085 0.9435 -0.017c 0.051 0.051 0.051 0.2295 0 0.2805c -0.5185 0.0255 -0.612 0.068 -0.612 0.7735v 2.295h 0.1445c 0.6885 0 0.8245 -0.238 0.969 -0.9265c 0.1105 0 0.221 0.034 0.221 0.034c -0.051 0.391 -0.085 0.765 -0.0935 1.258c -0.1955 -0.017 -0.833 -0.051 -1.258 -0.051h -0.6375c -0.425 0 -0.901 0.0255 -1.241 0.051c -0.0085 -0.493 -0.0425 -0.867 -0.102 -1.258c 0 0 0.119 -0.034 0.2295 -0.034c 0.1445 0.6885 0.272 0.9265 0.969 0.9265h 0.1275Z "/></symbol><symbol id="gE7AE90A8EDDEF3DDB67EE78D36D80337" overflow="visible"><path d="M 0 0m 1.683 0.5355c -0.0255 0 -0.0595 0.017 -0.0595 0.102v 1.938c 0 0.7055 0.1785 0.782 0.612 0.8075c 0.051 0.051 0.051 0.2295 0 0.2805c -0.1955 -0.0085 -0.68 -0.017 -0.9945 -0.017c -0.2805 0 -0.6205 0.0085 -0.9435 0.017c -0.051 -0.051 -0.051 -0.2295 0 -0.2805c 0.5185 -0.0255 0.6545 -0.102 0.6545 -0.8075v -1.5045c 0 -0.7055 -0.136 -0.782 -0.6545 -0.8075c -0.051 -0.051 -0.051 -0.2295 0 -0.2805c 0.3315 0.0085 0.6715 0.017 0.9435 0.017c 0.1955 0 0.425 -0.0085 0.5185 -0.017c 0.0425 0.119 0.119 0.289 0.2125 0.459l 1.326 2.6605c 0.0255 0 0.0595 -0.017 0.0595 -0.102v -1.9295c 0 -0.7055 -0.1785 -0.782 -0.612 -0.8075c -0.051 -0.051 -0.051 -0.2295 0 -0.2805c 0.1955 0.0085 0.6545 0.017 0.9945 0.017c 0.2635 0 0.612 -0.0085 0.9435 -0.017c 0.051 0.051 0.051 0.2295 0 0.2805c -0.5185 0.0255 -0.6545 0.102 -0.6545 0.8075v 1.5045c 0 0.7055 0.136 0.782 0.6545 0.8075c 0.051 0.051 0.051 0.2295 0 0.2805c -0.34 -0.0085 -0.68 -0.017 -0.9435 -0.017c -0.187 0 -0.425 0.0085 -0.51 0.017c -0.068 -0.153 -0.1445 -0.3315 -0.221 -0.476Z "/></symbol><symbol id="gDEA2A0379B7527B5C1F8D88530B6617D" overflow="visible"><path d="M 0 0m 0.9945 2.601l -0.051 -1.581c -0.0255 -0.714 -0.153 -0.731 -0.646 -0.7565c -0.051 -0.051 -0.051 -0.2295 0 -0.2805c 0.17 0.0085 0.595 0.017 0.731 0.017c 0.17 0 0.5695 -0.0085 0.7395 -0.017c 0.051 0.051 0.051 0.2295 0 0.2805c -0.4845 0.034 -0.5185 0.119 -0.5015 0.7565l 0.0595 2.0825c 0 0.0765 0.034 0.0765 0.068 0l 1.2325 -3.009c 0.034 -0.0255 0.068 -0.0255 0.0935 0l 1.394 3.0005c 0.0425 0.0935 0.085 0.102 0.085 0l -0.0085 -2.057c 0 -0.7055 -0.0595 -0.731 -0.578 -0.7735c -0.051 -0.051 -0.051 -0.2295 0 -0.2805c 0.306 0.0085 0.6205 0.017 0.918 0.017c 0.255 0 0.6205 -0.0085 0.952 -0.017c 0.051 0.051 0.051 0.2295 0 0.2805c -0.5185 0.034 -0.612 0.068 -0.612 0.7735l -0.017 1.5725c -0.0085 0.7055 0.0935 0.731 0.612 0.7735c 0.051 0.051 0.051 0.2295 0 0.2805c -0.2975 -0.017 -1.122 -0.017 -1.4025 -0.017l -1.1305 -2.431l -0.0425 -0.085l -0.034 0.085l -0.9945 2.431c -0.2805 0 -1.1815 0 -1.479 0.017c -0.051 -0.051 -0.051 -0.2295 0 -0.2805c 0.5185 -0.0425 0.6375 -0.0765 0.612 -0.782Z "/></symbol><symbol id="g263F4FD32CCD3C47111457350A4C543D" overflow="visible"><path d="M 0 0m 1.581 2.601c 0 0.714 0.0935 0.7395 0.612 0.782c 0.051 0.051 0.051 0.2295 0 0.2805c -0.289 -0.0085 -0.578 -0.017 -0.952 -0.017c -0.3655 0 -0.663 0.0085 -0.9435 0.017c -0.051 -0.051 -0.051 -0.2295 0 -0.2805c 0.5185 -0.034 0.612 -0.068 0.612 -0.7735v -1.5725c 0 -0.7055 -0.0935 -0.731 -0.612 -0.7735c -0.051 -0.051 -0.051 -0.2295 0 -0.2805c 0.2805 0.0085 0.578 0.017 0.952 0.017c 0.3485 0 0.5355 -0.017 0.884 -0.017c 1.0455 0 1.615 0.2635 1.615 1.173c 0 0.799 -0.697 1.0285 -1.5555 1.0285h -0.612Z m 3.6635 0.0085c 0 0.7055 0.0935 0.731 0.612 0.7735c 0.051 0.051 0.051 0.2295 0 0.2805c -0.289 -0.0085 -0.578 -0.017 -0.952 -0.017c -0.3655 0 -0.663 0.0085 -0.9435 0.017c -0.051 -0.051 -0.051 -0.2295 0 -0.2805c 0.5185 -0.034 0.612 -0.068 0.612 -0.7735v -1.5725c 0 -0.7055 -0.0935 -0.731 -0.612 -0.7735c -0.051 -0.051 -0.051 -0.2295 0 -0.2805c 0.2805 0.0085 0.578 0.017 0.952 0.017c 0.3655 0 0.6715 -0.0085 0.9435 -0.017c 0.051 0.051 0.051 0.2295 0 0.2805c -0.5185 0.034 -0.612 0.068 -0.612 0.7735Z m -2.227 -1.5385c 0 -0.697 -0.425 -0.8075 -0.8755 -0.8075c -0.4165 0 -0.561 0.085 -0.561 0.3825v 1.258h 0.6035c 0.6375 0 0.833 -0.3825 0.833 -0.833Z "/></symbol><symbol id="g5D2E58E4CDB4D7E6C81847885E22D756" overflow="visible"><path d="M 0 0m 3.281 0.7905c -0.3145 -0.323 -0.561 -0.459 -1.054 -0.459c -0.306 0 -0.663 0.1785 -0.9265 0.612c -0.17 0.2805 -0.272 0.6715 -0.272 1.1645l 2.261 -0.017c 0.102 0 0.1615 0.051 0.1615 0.1445c 0 0.714 -0.255 1.479 -1.4365 1.479c -0.7395 0 -1.7 -0.7055 -1.7 -1.9975c 0 -0.476 0.119 -0.935 0.3995 -1.258c 0.289 -0.34 0.6885 -0.544 1.3005 -0.544c 0.646 0 1.105 0.2975 1.445 0.7395c -0.0255 0.085 -0.0765 0.1275 -0.1785 0.136Z m -2.227 1.6065c 0.1615 0.9605 0.7565 1.037 0.9605 1.037c 0.323 0 0.7055 -0.1785 0.7055 -0.8925c 0 -0.0765 -0.034 -0.119 -0.1275 -0.119Z "/></symbol><symbol id="gB3F6F741CFF64E2F87AE274E4C795DAE" overflow="visible"><path d="M 0 0m 3.553 1.037v 1.5725c 0 0.697 0.1105 0.7395 0.578 0.7735c 0.051 0.051 0.051 0.2295 0 0.2805c -0.255 -0.0085 -0.578 -0.017 -0.918 -0.017h -1.6065c -0.2805 0 -0.612 0.0085 -0.867 0.017c -0.051 -0.051 -0.051 -0.2295 0 -0.2805c 0.6035 -0.0425 0.6885 -0.0935 0.6885 -1.0115c 0 -0.8925 -0.068 -1.36 -0.187 -1.7085c -0.1105 -0.306 -0.255 -0.4165 -0.3995 -0.4165c -0.1105 0 -0.1445 0.068 -0.1615 0.1785c -0.0255 0.1615 -0.0765 0.323 -0.3145 0.323c -0.2125 0 -0.3315 -0.17 -0.3315 -0.357c 0 -0.2635 0.238 -0.493 0.629 -0.493c 0.4335 0 0.6715 0.221 0.867 0.68c 0.17 0.408 0.221 1.275 0.221 1.853c 0 0.663 0.0255 0.884 0.3655 0.884h 0.3825c 0.323 0 0.3825 -0.204 0.3825 -0.493v -1.785c 0 -0.697 -0.085 -0.7395 -0.527 -0.7735c -0.0425 -0.051 -0.0425 -0.2295 0 -0.2805c 0.2125 0.0085 0.527 0.017 0.867 0.017c 0.34 0 0.7225 -0.0085 0.9605 -0.017c 0.0425 0.051 0.0425 0.2295 0 0.2805c -0.5525 0.034 -0.629 0.0765 -0.629 0.7735Z "/></symbol><symbol id="gF931FC691828778A920607CF18B9C32A" overflow="visible"><path d="M 0 0m 2.4905 0.408c 0.051 -0.2635 0.1445 -0.493 0.5695 -0.493c 0.323 0 0.629 0.1445 0.8075 0.3145c -0.017 0.102 -0.051 0.1785 -0.1445 0.2295c -0.0595 -0.051 -0.204 -0.136 -0.3145 -0.136c -0.2465 0 -0.255 0.3315 -0.255 0.7225v 1.2495c 0 1.207 -0.663 1.4365 -1.2835 1.4365c -0.697 0 -1.4025 -0.459 -1.4025 -0.9435c 0 -0.204 0.102 -0.306 0.2975 -0.306c 0.2465 0 0.3995 0.1785 0.3995 0.289c 0 0.0595 -0.0085 0.119 -0.0255 0.153c -0.0085 0.0255 -0.017 0.0765 -0.017 0.17c 0 0.2635 0.357 0.357 0.68 0.357c 0.289 0 0.6885 -0.1445 0.6885 -1.105c 0 -0.0595 -0.0255 -0.0935 -0.051 -0.102l -0.731 -0.1785c -0.816 -0.204 -1.4025 -0.6545 -1.4025 -1.2325c 0 -0.697 0.476 -0.918 1.071 -0.918c 0.2975 0 0.5525 0.068 0.9265 0.357l 0.17 0.136Z m 0 1.5725v -1.122c 0 -0.1105 -0.051 -0.17 -0.119 -0.221c -0.221 -0.1785 -0.51 -0.374 -0.748 -0.374c -0.425 0 -0.612 0.34 -0.612 0.6035c 0 0.3825 0.1785 0.7735 0.8075 0.935Z "/></symbol><symbol id="gC8932C6BA7F518DC74E87E2F4A0224EB" overflow="visible"><path d="M 0 0m 4.0715 2.6095c 0 0.7055 0.0935 0.731 0.612 0.7735c 0.051 0.051 0.051 0.2295 0 0.2805c -0.2975 -0.017 -0.6715 -0.017 -0.952 -0.017c -0.238 0 -0.578 0.0085 -0.9095 0.017c -0.051 -0.051 -0.051 -0.2295 0 -0.2805c 0.5185 -0.034 0.578 -0.068 0.578 -0.7735v -0.5525h -1.819v 0.5525c 0 0.7055 0.0595 0.731 0.578 0.7735c 0.051 0.051 0.051 0.2295 0 0.2805c -0.323 -0.0085 -0.646 -0.017 -0.918 -0.017c -0.255 0 -0.6035 0.0085 -0.9435 0.017c -0.051 -0.051 -0.051 -0.2295 0 -0.2805c 0.5185 -0.034 0.612 -0.068 0.612 -0.7735v -1.5725c 0 -0.7055 -0.0935 -0.731 -0.612 -0.7735c -0.051 -0.051 -0.051 -0.2295 0 -0.2805c 0.34 0.0085 0.68 0.017 0.952 0.017c 0.272 0 0.6035 -0.0085 0.9095 -0.017c 0.051 0.051 0.051 0.2295 0 0.2805c -0.5185 0.034 -0.578 0.068 -0.578 0.7735v 0.7395h 1.819v -0.7395c 0 -0.7055 -0.0595 -0.731 -0.578 -0.7735c -0.051 -0.051 -0.051 -0.2295 0 -0.2805c 0.306 0.0085 0.6205 0.017 0.918 0.017c 0.255 0 0.612 -0.0085 0.9435 -0.017c 0.051 0.051 0.051 0.2295 0 0.2805c -0.5185 0.034 -0.612 0.068 -0.612 0.7735Z "/></symbol><symbol id="g46DFAA35BC521B4F2378CE697B4B163E" overflow="visible"><path d="M 0 0m 1.248 2.944c -0.008 0.24 -0.024 0.448 -0.064 0.528c -0.016 0.04 -0.032 0.064 -0.096 0.064c -0.224 -0.088 -0.432 -0.16 -0.984 -0.232c -0.016 -0.048 0 -0.176 0.016 -0.224c 0.432 -0.04 0.52 -0.08 0.52 -0.544v -3.416c 0 -0.664 -0.088 -0.704 -0.576 -0.728c -0.048 -0.048 -0.048 -0.216 0 -0.264c 0.28 0.008 0.576 0.016 0.896 0.016c 0.32 0 0.704 -0.008 0.968 -0.016c 0.048 0.048 0.048 0.216 0 0.264c -0.568 0.032 -0.656 0.064 -0.656 0.728v 0.864c 0 0.104 0.032 0.096 0.112 0.064c 0.2 -0.08 0.44 -0.128 0.696 -0.128c 0.448 0 0.848 0.136 1.176 0.448c 0.376 0.368 0.592 0.864 0.592 1.512c 0 0.848 -0.6 1.632 -1.416 1.632c -0.368 0 -0.776 -0.24 -1.096 -0.6c -0.048 -0.048 -0.08 -0.048 -0.088 0.032Z m 0.152 -0.296c 0.208 0.256 0.576 0.496 0.808 0.496c 0.512 0 0.952 -0.576 0.952 -1.48c 0 -0.656 -0.232 -1.472 -1.128 -1.472c -0.144 0 -0.424 0.04 -0.568 0.168c -0.16 0.144 -0.192 0.192 -0.192 0.48v 1.456c 0 0.168 0.032 0.24 0.128 0.352Z "/></symbol><symbol id="g5D01DA3AB390CB78D7E54204B7DC3F87" overflow="visible"><path d="M 0 0m 0.328 1.64c 0 -0.816 0.544 -1.72 1.68 -1.72c 0.512 0 0.904 0.184 1.176 0.448c 0.36 0.352 0.52 0.856 0.52 1.344c 0 0.832 -0.456 1.8 -1.68 1.8c -0.528 0 -0.96 -0.216 -1.256 -0.56c -0.288 -0.344 -0.44 -0.808 -0.44 -1.312Z m 1.576 1.592c 0.688 0 1.112 -0.624 1.112 -1.776c 0 -1.008 -0.52 -1.256 -0.896 -1.256c -0.832 0 -1.104 1.008 -1.104 1.624c 0 0.696 0.168 1.408 0.888 1.408Z "/></symbol><symbol id="g9F99202881449AD6C0CCCD21824C9AF1" overflow="visible"><path d="M 0 0m 3.184 0.728c -0.032 0.072 -0.096 0.104 -0.168 0.112c -0.272 -0.352 -0.616 -0.528 -0.96 -0.528c -0.584 0 -1.072 0.592 -1.072 1.528c 0 0.88 0.384 1.408 0.912 1.408c 0.472 0 0.536 -0.28 0.568 -0.56c 0.024 -0.216 0.136 -0.288 0.304 -0.288c 0.168 0 0.392 0.104 0.392 0.352c 0 0.44 -0.456 0.76 -1.224 0.76c -0.792 0 -1.64 -0.712 -1.64 -1.848c 0 -1.032 0.576 -1.744 1.584 -1.744c 0.48 0 0.904 0.152 1.304 0.808Z "/></symbol><symbol id="gE09E60C0AC8E2E10ADA02C2F49261352" overflow="visible"><path d="M 0 0m 1.456 0.976c 0 -0.664 -0.088 -0.704 -0.576 -0.728c -0.048 -0.048 -0.048 -0.216 0 -0.264c 0.312 0.008 0.632 0.016 0.896 0.016c 0.272 0 0.584 -0.008 0.888 -0.016c 0.048 0.048 0.048 0.216 0 0.264c -0.488 0.024 -0.576 0.064 -0.576 0.728v 2.16h 0.136c 0.648 0 0.776 -0.224 0.912 -0.872c 0.104 0 0.208 0.032 0.208 0.032c -0.048 0.368 -0.08 0.72 -0.088 1.184c -0.184 -0.016 -0.784 -0.048 -1.184 -0.048h -0.6c -0.4 0 -0.848 0.024 -1.168 0.048c -0.008 -0.464 -0.04 -0.816 -0.096 -1.184c 0 0 0.112 -0.032 0.216 -0.032c 0.136 0.648 0.256 0.872 0.912 0.872h 0.12Z "/></symbol><symbol id="gACC3C1049BE7F4FF8EB6028480C7570B" overflow="visible"><path d="M 0 0m 2.624 2.6c 0 -0.2 0.104 -0.304 0.32 -0.304c 0.288 0 0.472 0.248 0.472 0.536c 0 0.448 -0.472 0.704 -0.952 0.704c -0.552 0 -1.056 -0.24 -1.488 -0.712c -0.432 -0.472 -0.648 -0.992 -0.648 -1.552c 0 -0.784 0.52 -1.36 1.304 -1.36c 0.424 0 0.8 0.104 1.128 0.304c 0.272 0.168 0.472 0.336 0.6 0.504c 0.056 0.072 0.08 0.128 0.08 0.152c 0 0.088 -0.04 0.136 -0.128 0.136c -0.04 0 -0.08 -0.032 -0.128 -0.096c -0.264 -0.352 -0.592 -0.576 -0.968 -0.672c -0.248 -0.064 -0.432 -0.096 -0.568 -0.096c -0.456 0 -0.68 0.28 -0.68 0.832c 0 0.496 0.232 1.216 0.424 1.56c 0.192 0.352 0.6 0.768 1.072 0.768c 0.304 0 0.512 -0.088 0.624 -0.256c -0.248 -0.024 -0.464 -0.184 -0.464 -0.448Z "/></symbol><symbol id="gF513A30B47D1C63BF1DEC0FB5573C9D4" overflow="visible"><path d="M 0 0m 2.2008 3.5112l -0.7504 -3.024c -0.0224 -0.084 -0.0448 -0.1344 -0.0616 -0.1568c -0.0504 -0.0616 -0.2408 -0.0896 -0.5656 -0.0896c -0.1848 0 -0.2744 0.0112 -0.2744 -0.14c 0 -0.0672 0.0392 -0.1008 0.1176 -0.1008c 0.3024 0 0.6384 0.028 0.952 0.0224l 0.4984 -0.0056c 0.1456 0 0.364 -0.0056 0.4704 -0.0168c 0.0952 0 0.1456 0.0504 0.1456 0.1456c 0 0.0504 -0.028 0.084 -0.0896 0.0952h -0.1568c -0.2744 0 -0.4368 0.0112 -0.476 0.0392c -0.0168 0.0112 -0.0224 0.028 -0.0224 0.056c 0 0.028 0.0056 0.0672 0.0168 0.1232l 0.7336 2.9064c 0.0392 0.1288 0.028 0.1624 0.1512 0.1736c 0.0168 0.0056 0.1232 0.0056 0.3304 0.0056c 0.3192 0 0.5264 -0.0168 0.616 -0.0448c 0.1792 -0.0616 0.2464 -0.1456 0.2464 -0.42c 0 -0.1512 -0.0168 -0.3192 -0.0504 -0.504c 0 -0.0728 0.0392 -0.1064 0.1176 -0.1064c 0.028 0 0.056 0.0056 0.0728 0.0224c 0.028 0.056 0.0448 0.1008 0.0504 0.1344l 0.1512 1.0584c 0 0.0672 -0.0616 0.1008 -0.1904 0.1008h -3.4048c -0.1568 0 -0.168 -0.0112 -0.2072 -0.1288l -0.3528 -0.98c -0.0056 -0.028 -0.028 -0.0896 -0.028 -0.1064c 0 -0.0672 0.0392 -0.1008 0.1176 -0.1008c 0.056 0 0.1008 0.0504 0.1344 0.1456c 0.1904 0.5208 0.3136 0.8512 0.8904 0.9184c 0.0616 0.0056 0.2072 0.0112 0.4368 0.0112h 0.2352c 0.1008 0 0.1456 0.0112 0.1456 -0.0336Z "/></symbol><symbol id="g8330DA0CB9C10CBAF3BA2E8C701C5521" overflow="visible"><path d="M 0 0m 4.216 2.984c 0 0.368 -0.36 0.552 -0.76 0.552c -0.344 0 -0.616 -0.184 -0.824 -0.552c -0.168 0.368 -0.448 0.552 -0.856 0.552c -0.392 0 -0.712 -0.184 -0.968 -0.544c -0.216 -0.312 -0.328 -0.544 -0.328 -0.696c 0 -0.072 0.04 -0.112 0.12 -0.112c 0.072 0 0.12 0.04 0.136 0.112c 0.152 0.464 0.488 1.008 1.024 1.008c 0.264 0 0.392 -0.168 0.392 -0.496c 0 -0.168 -0.144 -0.792 -0.424 -1.864c -0.136 -0.536 -0.376 -0.8 -0.72 -0.8c -0.112 0 -0.216 0.024 -0.304 0.064c 0.208 0.08 0.312 0.224 0.312 0.432c 0 0.208 -0.104 0.312 -0.32 0.312c -0.264 0 -0.464 -0.224 -0.464 -0.488c 0 -0.368 0.376 -0.552 0.768 -0.552c 0.336 0 0.608 0.184 0.824 0.552c 0.152 -0.368 0.44 -0.552 0.856 -0.552c 0.384 0 0.704 0.184 0.96 0.544c 0.216 0.312 0.328 0.544 0.328 0.696c 0 0.072 -0.04 0.112 -0.12 0.112c -0.072 0 -0.112 -0.04 -0.136 -0.112c -0.136 -0.456 -0.496 -1.008 -1.016 -1.008c -0.264 0 -0.4 0.16 -0.4 0.488c 0 0.104 0.04 0.328 0.128 0.688l 0.272 1.08c 0.152 0.6 0.4 0.904 0.752 0.904c 0.112 0 0.216 -0.024 0.304 -0.064c -0.216 -0.072 -0.32 -0.216 -0.32 -0.432c 0 -0.208 0.112 -0.312 0.328 -0.312c 0.256 0 0.456 0.232 0.456 0.488Z "/></symbol></defs></svg>