<svg viewBox="0 0 218.407 153.517127953" width="218.407pt" height="153.517127953pt" xmlns="http://www.w3.org/2000/svg" xmlns:xlink="http://www.w3.org/1999/xlink" xmlns:h5="http://www.w3.org/1999/xhtml"><path fill="#ffffff" fill-rule="nonzero" d="M 0 0v 153.517127953h 218.407v -153.517127953Z "/><g transform="translate(8 8)"><path fill="none" stroke="#1a1a18" stroke-width="0.6" stroke-linecap="butt" stroke-linejoin="miter" stroke-miterlimit="4" transform="translate(61.51846063 106.232244094)" d="M 0 0h 118.200717736"/><path fill="#1a1a18" fill-rule="nonzero" stroke="#1a1a18" stroke-width="0.6" stroke-linecap="butt" stroke-linejoin="miter" stroke-miterlimit="4" transform="translate(179.719178268 104.106259843)" d="M 0 0m 5.669291339 2.125984252l -5.669291339 2.125984252v -4.251968504l 5.669291339 2.125984252Z "/><path fill="none" stroke="#1a1a18" stroke-width="0.6" stroke-linecap="butt" stroke-linejoin="miter" stroke-miterlimit="4" transform="translate(61.51846063 10.708691713)" d="M 0 0m 0 95.523552381v -95.523552381"/><path fill="#1a1a18" fill-rule="nonzero" stroke="#1a1a18" stroke-width="0.6" stroke-linecap="butt" stroke-linejoin="miter" stroke-miterlimit="4" transform="translate(59.392476378 5.039400472)" d="M 0 0m 2.125984252 0l 2.125984252 5.669291339h -4.251968504l 2.125984252 -5.669291339Z "/><path fill="none" transform="translate(177.006170079 110.551181102)" d="M 0 0h 9.2367v 8.37h -9.2367v -8.37Z "/><g transform="translate(177.006170079 110.551180961)"><g transform="matrix(1 0 0 -1 0 6.147)"><use xlink:href="#gFB6023562FAA25D0472E92EA23A01C18" x="0" y="0" fill="#7c7f6a" fill-rule="nonzero"/></g><g transform="matrix(1 0 0 -1 5.148 8.37)"><use xlink:href="#g288B7052E2C5A3243884266A1031EA31" x="0" y="0" fill="#7c7f6a" fill-rule="nonzero"/></g></g><path fill="none" transform="translate(67.187751969)" d="M 0 0h 9.2367v 8.37h -9.2367v -8.37Z "/><g transform="translate(67.187751969 -1.42e-7)"><g transform="matrix(1 0 0 -1 0 6.147)"><use xlink:href="#gFB6023562FAA25D0472E92EA23A01C18" x="0" y="0" fill="#7c7f6a" fill-rule="nonzero"/></g><g transform="matrix(1 0 0 -1 5.148 8.37)"><use xlink:href="#g6FB493AE2B08A4DB2159D2431B838D5" x="0" y="0" fill="#7c7f6a" fill-rule="nonzero"/></g></g><path fill="#d2cfc8" fill-rule="nonzero" stroke="#898c79" stroke-width="1" stroke-linecap="butt" stroke-linejoin="miter" stroke-miterlimit="4" transform="translate(61.51846063 43.87003937)" d="M 0 0m 0 62.362204724h 85.039370079l -17.007874016 -45.354330709l -68.031496063 -17.007874016v 62.362204724Z "/><path fill="#7c7f6a" fill-rule="nonzero" transform="translate(126.998775591 58.326732283)" d="M 0 0m 2.551181102 0c -1.407700913 0 -2.551181102 1.143480189 -2.551181102 2.551181102c 0 1.407700913 1.143480189 2.551181102 2.551181102 2.551181102c 1.407700913 0 2.551181102 -1.143480189 2.551181102 -2.551181102c 0 -1.407700913 -1.143480189 -2.551181102 -2.551181102 -2.551181102Z "/><path fill="none" stroke="#1a1a18" stroke-width="0.9" stroke-linecap="butt" stroke-linejoin="miter" stroke-miterlimit="4" stroke-dashoffset="0" stroke-dasharray="3 3" transform="translate(61.51846063 29.696811024)" d="M 0 0l 99.212598425 76.535433071"/><path fill="#1a1a18" fill-rule="nonzero" stroke="#7c7f6a" stroke-width="0.6" stroke-linecap="butt" stroke-linejoin="miter" stroke-miterlimit="4" transform="translate(139.471216535 48.122007874)" d="M 0 0m 2.834645669 0c -1.564112126 0 -2.834645669 1.270533543 -2.834645669 2.834645669c 0 1.564112126 1.270533543 2.834645669 2.834645669 2.834645669c 1.564112126 0 2.834645669 -1.270533543 2.834645669 -2.834645669c 0 -1.564112126 -1.270533543 -2.834645669 -2.834645669 -2.834645669Z "/><path fill="none" stroke="#1a1a18" stroke-width="0.8" stroke-linecap="butt" stroke-linejoin="miter" stroke-miterlimit="4" transform="translate(129.549956693 55.136663199)" d="M 0 0m 0 5.741250186l 7.381607383 -5.741250186"/><path fill="#1a1a18" fill-rule="nonzero" stroke="#1a1a18" stroke-width="0.8" stroke-linecap="butt" stroke-linejoin="miter" stroke-miterlimit="4" transform="translate(135.626336039 51.656055024)" d="M 0 0m 5.780295772 0l -3.169839635 5.158758572l -2.610456137 -3.356300778l 5.780295772 -1.802457794Z "/><path fill="none" transform="translate(145.140507874 47.396653543)" d="M 0 0h 57v 7.12h -57v -7.12Z "/><g transform="translate(145.14050778 47.396653512)"><g transform="matrix(1 0 0 -1 0 5.264)"><use xlink:href="#g937124D7F3D66536776BB8DA5DFD7893" x="0" y="0" fill="#1a1a18" fill-rule="nonzero"/><use xlink:href="#g5D01DA3AB390CB78D7E54204B7DC3F87" x="4.688" y="0" fill="#1a1a18" fill-rule="nonzero"/><use xlink:href="#gE9BB349F7E32C39203BC6B218DF12838" x="8.72" y="0" fill="#1a1a18" fill-rule="nonzero"/><use xlink:href="#gADB3B27726748394AAF96F33FED6E9BE" x="12.552" y="0" fill="#1a1a18" fill-rule="nonzero"/><use xlink:href="#g9E0D72929382BA054F8819A862FD1C38" x="18.344" y="0" fill="#1a1a18" fill-rule="nonzero"/><use xlink:href="#g5D01DA3AB390CB78D7E54204B7DC3F87" x="25.032" y="0" fill="#1a1a18" fill-rule="nonzero"/><use xlink:href="#gF859B786D36C3A3EB6E93A57BC4F802" x="29.064" y="0" fill="#1a1a18" fill-rule="nonzero"/><use xlink:href="#gE09E60C0AC8E2E10ADA02C2F49261352" x="33.752" y="0" fill="#1a1a18" fill-rule="nonzero"/><use xlink:href="#gDF0740817C60D01D4C0A2F901DD857A7" x="37.312" y="0" fill="#1a1a18" fill-rule="nonzero"/><use xlink:href="#gE4F86D8BE8C69EC1EB36B973594724AB" x="42" y="0" fill="#1a1a18" fill-rule="nonzero"/><use xlink:href="#g89E7AED93332C4356E163D20D023452" x="47.44" y="0" fill="#1a1a18" fill-rule="nonzero"/><use xlink:href="#gE4F86D8BE8C69EC1EB36B973594724AB" x="51.56" y="0" fill="#1a1a18" fill-rule="nonzero"/></g></g><path fill="none" transform="translate(67.187751969 19.04219685)" d="M 0 0h 36.624v 7.136h -36.624v -7.136Z "/><g transform="translate(67.187751874 19.04219674)"><g transform="matrix(1 0 0 -1 0 5.264)"><use xlink:href="#g6B82393DEE9EED3DAD9553B65DF3D165" x="0" y="0" fill="#7c7f6a" fill-rule="nonzero"/><use xlink:href="#g8C50DFC0B8272CD73341C65811BD0E92" x="4.4" y="0" fill="#7c7f6a" fill-rule="nonzero"/><use xlink:href="#g46DFAA35BC521B4F2378CE697B4B163E" x="10.12" y="0" fill="#7c7f6a" fill-rule="nonzero"/><use xlink:href="#g465CA45D0696F5BBCE5E7A11B5E63D98" x="14.272" y="0" fill="#7c7f6a" fill-rule="nonzero"/><use xlink:href="#g9F99202881449AD6C0CCCD21824C9AF1" x="17.848" y="0" fill="#7c7f6a" fill-rule="nonzero"/><use xlink:href="#g89E7AED93332C4356E163D20D023452" x="21.272" y="0" fill="#7c7f6a" fill-rule="nonzero"/><use xlink:href="#g46DFAA35BC521B4F2378CE697B4B163E" x="25.392" y="0" fill="#7c7f6a" fill-rule="nonzero"/><use xlink:href="#g9F99202881449AD6C0CCCD21824C9AF1" x="29.544" y="0" fill="#7c7f6a" fill-rule="nonzero"/><use xlink:href="#gF79D9CC171E1ACC5162F855F1894F43E" x="32.968" y="0" fill="#7c7f6a" fill-rule="nonzero"/></g></g><path fill="none" transform="translate(0 128.805627953)" d="M 0 0h 202.407v 8.7115h -202.407v -8.7115Z "/><g transform="translate(-4.7e-8 128.805627827)"><g transform="matrix(1 0 0 -1 0 6.4885)"><use xlink:href="#g75E31E9387E94E3A457DA9304838F591" x="0" y="0" fill="#1a1a18" fill-rule="nonzero"/><use xlink:href="#g5B0FB9F727640150CA57389F67238C5A" x="5.567" y="0" fill="#1a1a18" fill-rule="nonzero"/><use xlink:href="#g30870B079B88F136C2A9AD2E2890E4EB" x="10.4975" y="0" fill="#1a1a18" fill-rule="nonzero"/><use xlink:href="#gA087682AD38D2D620C1058FCC30E85F0" x="16.0645" y="0" fill="#1a1a18" fill-rule="nonzero"/><use xlink:href="#g15DE86D891118100C568580819B789B3" x="20.71" y="0" fill="#1a1a18" fill-rule="nonzero"/><use xlink:href="#gC86282117E7C9F65658F6DDAC49FC51A" x="27.588" y="0" fill="#1a1a18" fill-rule="nonzero"/><use xlink:href="#g4F6C4B764A667C0D20F43C1E2952DF77" x="32.5945" y="0" fill="#1a1a18" fill-rule="nonzero"/><use xlink:href="#gD243A48DAC45EEC7C88A2988B14DD756" x="39.387" y="0" fill="#1a1a18" fill-rule="nonzero"/><use xlink:href="#g15DE86D891118100C568580819B789B3" x="43.9375" y="0" fill="#1a1a18" fill-rule="nonzero"/><use xlink:href="#g5B0FB9F727640150CA57389F67238C5A" x="50.8155" y="0" fill="#1a1a18" fill-rule="nonzero"/><use xlink:href="#gC110FFC20529D78AB6B9724BF2D3193A" x="55.746" y="0" fill="#1a1a18" fill-rule="nonzero"/><use xlink:href="#g966D14D99AB05D933C4957B2E7FE95D9" x="60.534" y="0" fill="#1a1a18" fill-rule="nonzero"/><use xlink:href="#gC86282117E7C9F65658F6DDAC49FC51A" x="64.6" y="0" fill="#1a1a18" fill-rule="nonzero"/><use xlink:href="#g30F02AEBABA7D40FC17FCA43D8EB3DAA" x="69.6065" y="0" fill="#1a1a18" fill-rule="nonzero"/><use xlink:href="#g111F480562FE960BC5F50C637F145B12" x="76.323" y="0" fill="#1a1a18" fill-rule="nonzero"/><use xlink:href="#g30F02AEBABA7D40FC17FCA43D8EB3DAA" x="81.89" y="0" fill="#1a1a18" fill-rule="nonzero"/></g><g transform="matrix(1 0 0 -1 88.6065 6.4885)"><use xlink:href="#gF4AAA5F7889594ACA10BA11829861743" x="0" y="0" fill="#1a1a18" fill-rule="nonzero"/></g><g transform="matrix(1 0 0 -1 94.145 6.4885)"><use xlink:href="#g7487BF628DA7AF2684C887EDF73D0D86" x="2.375" y="0" fill="#1a1a18" fill-rule="nonzero"/><use xlink:href="#g2CDE8AC35AD8434ADEAF2FC8D76D475D" x="11.799" y="0" fill="#1a1a18" fill-rule="nonzero"/><use xlink:href="#gF1C320A4506B818F6BCB8CDA11A2DE6" x="16.112" y="0" fill="#1a1a18" fill-rule="nonzero"/><use xlink:href="#gC110FFC20529D78AB6B9724BF2D3193A" x="20.3395" y="0" fill="#1a1a18" fill-rule="nonzero"/><use xlink:href="#g30870B079B88F136C2A9AD2E2890E4EB" x="27.5025" y="0" fill="#1a1a18" fill-rule="nonzero"/><use xlink:href="#gA3A5C9019285A4C81365474C03E3CF4E" x="35.4445" y="0" fill="#1a1a18" fill-rule="nonzero"/><use xlink:href="#g966D14D99AB05D933C4957B2E7FE95D9" x="39.691" y="0" fill="#1a1a18" fill-rule="nonzero"/><use xlink:href="#gF1C320A4506B818F6BCB8CDA11A2DE6" x="43.757" y="0" fill="#1a1a18" fill-rule="nonzero"/><use xlink:href="#g4F6C4B764A667C0D20F43C1E2952DF77" x="47.9845" y="0" fill="#1a1a18" fill-rule="nonzero"/><use xlink:href="#g23869749828957FA40F6BA2ECBEE0846" x="54.777" y="0" fill="#1a1a18" fill-rule="nonzero"/><use xlink:href="#gA3A5C9019285A4C81365474C03E3CF4E" x="60.2585" y="0" fill="#1a1a18" fill-rule="nonzero"/><use xlink:href="#g111F480562FE960BC5F50C637F145B12" x="64.505" y="0" fill="#1a1a18" fill-rule="nonzero"/><use xlink:href="#g30F02AEBABA7D40FC17FCA43D8EB3DAA" x="70.072" y="0" fill="#1a1a18" fill-rule="nonzero"/><use xlink:href="#g5B0FB9F727640150CA57389F67238C5A" x="76.7885" y="0" fill="#1a1a18" fill-rule="nonzero"/><use xlink:href="#gA3A5C9019285A4C81365474C03E3CF4E" x="81.719" y="0" fill="#1a1a18" fill-rule="nonzero"/><use xlink:href="#g966D14D99AB05D933C4957B2E7FE95D9" x="85.9655" y="0" fill="#1a1a18" fill-rule="nonzero"/><use xlink:href="#gE3D46A95002377B54E13EEB95624C7DA" x="90.0315" y="0" fill="#1a1a18" fill-rule="nonzero"/><use xlink:href="#g5B0FB9F727640150CA57389F67238C5A" x="94.924" y="0" fill="#1a1a18" fill-rule="nonzero"/><use xlink:href="#g966D14D99AB05D933C4957B2E7FE95D9" x="99.8545" y="0" fill="#1a1a18" fill-rule="nonzero"/><use xlink:href="#g30F02AEBABA7D40FC17FCA43D8EB3DAA" x="103.9205" y="0" fill="#1a1a18" fill-rule="nonzero"/></g></g></g><defs><symbol id="gFB6023562FAA25D0472E92EA23A01C18" overflow="visible"><path d="M 0 0m 4.743 3.357c 0 0.414 -0.405 0.621 -0.855 0.621c -0.387 0 -0.693 -0.207 -0.927 -0.621c -0.189 0.414 -0.504 0.621 -0.963 0.621c -0.441 0 -0.801 -0.207 -1.089 -0.612c -0.243 -0.351 -0.369 -0.612 -0.369 -0.783c 0 -0.081 0.045 -0.126 0.135 -0.126c 0.081 0 0.135 0.045 0.153 0.126c 0.171 0.522 0.549 1.134 1.152 1.134c 0.297 0 0.441 -0.189 0.441 -0.558c 0 -0.189 -0.162 -0.891 -0.477 -2.097c -0.153 -0.603 -0.423 -0.9 -0.81 -0.9c -0.126 0 -0.243 0.027 -0.342 0.072c 0.234 0.09 0.351 0.252 0.351 0.486c 0 0.234 -0.117 0.351 -0.36 0.351c -0.297 0 -0.522 -0.252 -0.522 -0.549c 0 -0.414 0.423 -0.621 0.864 -0.621c 0.378 0 0.684 0.207 0.927 0.621c 0.171 -0.414 0.495 -0.621 0.963 -0.621c 0.432 0 0.792 0.207 1.08 0.612c 0.243 0.351 0.369 0.612 0.369 0.783c 0 0.081 -0.045 0.126 -0.135 0.126c -0.081 0 -0.126 -0.045 -0.153 -0.126c -0.153 -0.513 -0.558 -1.134 -1.143 -1.134c -0.297 0 -0.45 0.18 -0.45 0.549c 0 0.117 0.045 0.369 0.144 0.774l 0.306 1.215c 0.171 0.675 0.45 1.017 0.846 1.017c 0.126 0 0.243 -0.027 0.342 -0.072c -0.243 -0.081 -0.36 -0.243 -0.36 -0.486c 0 -0.234 0.126 -0.351 0.369 -0.351c 0.288 0 0.513 0.261 0.513 0.549Z "/></symbol><symbol id="g288B7052E2C5A3243884266A1031EA31" overflow="visible"><path d="M 0 0m 1.9089 4.1832c -0.2709 -0.2646 -0.6741 -0.3969 -1.2222 -0.3969v -0.2772c 0.3717 0 0.6678 0.0567 0.8946 0.1638v -3.1374c 0 -0.0819 -0.0063 -0.1323 -0.0252 -0.1575c -0.0315 -0.0693 -0.2205 -0.1071 -0.567 -0.1071h -0.2583v -0.2709l 1.1214 0.0252l 1.1277 -0.0252v 0.2709h -0.2583c -0.3465 0 -0.5355 0.0378 -0.5733 0.1071c -0.0126 0.0252 -0.0189 0.0756 -0.0189 0.1575v 3.4461c 0 0.1701 -0.0252 0.2016 -0.2205 0.2016Z "/></symbol><symbol id="g6FB493AE2B08A4DB2159D2431B838D5" overflow="visible"><path d="M 0 0m 0.7497 2.6712c 0.2016 0 0.3528 0.1512 0.3528 0.3528c 0 0.2268 -0.1197 0.3465 -0.3528 0.3528c 0.1386 0.2961 0.4536 0.5355 0.8631 0.5355c 0.5544 0 0.9198 -0.4158 0.9198 -0.9702c 0 -0.3024 -0.1071 -0.5922 -0.3276 -0.8757c -0.1071 -0.1449 -0.189 -0.2457 -0.2457 -0.3024l -1.4931 -1.4805c -0.0819 -0.0756 -0.0693 -0.0945 -0.0693 -0.2835h 2.5956l 0.1953 1.1844h -0.2646c -0.0441 -0.3339 -0.0945 -0.5292 -0.1512 -0.5733c -0.0315 -0.0189 -0.2268 -0.0315 -0.5985 -0.0315h -1.071c 0.4221 0.3717 0.8127 0.7056 1.1844 1.0017c 0.2835 0.2205 0.4851 0.4158 0.6111 0.5859c 0.189 0.2457 0.2835 0.504 0.2835 0.7749c 0 0.3906 -0.1512 0.6993 -0.4599 0.9261c -0.2709 0.2079 -0.6111 0.315 -1.0143 0.315c -0.3465 0 -0.6426 -0.1008 -0.9009 -0.3024c -0.2709 -0.2205 -0.4095 -0.4977 -0.4095 -0.8379c 0 -0.2142 0.1575 -0.3717 0.3528 -0.3717Z "/></symbol><symbol id="g937124D7F3D66536776BB8DA5DFD7893" overflow="visible"><path d="M 0 0m 3.832 2.456c 0 0.664 0.088 0.688 0.576 0.728c 0.048 0.048 0.048 0.216 0 0.264c -0.28 -0.016 -0.632 -0.016 -0.896 -0.016c -0.224 0 -0.544 0.008 -0.856 0.016c -0.048 -0.048 -0.048 -0.216 0 -0.264c 0.488 -0.032 0.544 -0.064 0.544 -0.728v -0.52h -1.712v 0.52c 0 0.664 0.056 0.688 0.544 0.728c 0.048 0.048 0.048 0.216 0 0.264c -0.304 -0.008 -0.608 -0.016 -0.864 -0.016c -0.24 0 -0.568 0.008 -0.888 0.016c -0.048 -0.048 -0.048 -0.216 0 -0.264c 0.488 -0.032 0.576 -0.064 0.576 -0.728v -1.48c 0 -0.664 -0.088 -0.688 -0.576 -0.728c -0.048 -0.048 -0.048 -0.216 0 -0.264c 0.32 0.008 0.64 0.016 0.896 0.016c 0.256 0 0.568 -0.008 0.856 -0.016c 0.048 0.048 0.048 0.216 0 0.264c -0.488 0.032 -0.544 0.064 -0.544 0.728v 0.696h 1.712v -0.696c 0 -0.664 -0.056 -0.688 -0.544 -0.728c -0.048 -0.048 -0.048 -0.216 0 -0.264c 0.288 0.008 0.584 0.016 0.864 0.016c 0.24 0 0.576 -0.008 0.888 -0.016c 0.048 0.048 0.048 0.216 0 0.264c -0.488 0.032 -0.576 0.064 -0.576 0.728Z "/></symbol><symbol id="g5D01DA3AB390CB78D7E54204B7DC3F87" overflow="visible"><path d="M 0 0m 0.328 1.64c 0 -0.816 0.544 -1.72 1.68 -1.72c 0.512 0 0.904 0.184 1.176 0.448c 0.36 0.352 0.52 0.856 0.52 1.344c 0 0.832 -0.456 1.8 -1.68 1.8c -0.528 0 -0.96 -0.216 -1.256 -0.56c -0.288 -0.344 -0.44 -0.808 -0.44 -1.312Z m 1.576 1.592c 0.688 0 1.112 -0.624 1.112 -1.776c 0 -1.008 -0.52 -1.256 -0.896 -1.256c -0.832 0 -1.104 1.008 -1.104 1.624c 0 0.696 0.168 1.408 0.888 1.408Z "/></symbol><symbol id="gE9BB349F7E32C39203BC6B218DF12838" overflow="visible"><path d="M 0 0m 1.168 3.432c -0.344 0 -0.624 0.008 -0.888 0.016c -0.048 -0.048 -0.048 -0.216 0 -0.264c 0.488 -0.032 0.576 -0.064 0.576 -0.728v -1.48c 0 -0.664 -0.088 -0.688 -0.576 -0.728c -0.048 -0.048 -0.048 -0.216 0 -0.264c 0.264 0.008 0.544 0.016 0.896 0.016c 0.296 0 0.56 -0.016 1.096 -0.016c 0.688 0 1.208 0.192 1.208 0.984c 0 0.448 -0.28 0.76 -0.768 0.848v 0.024c 0.368 0.072 0.648 0.328 0.648 0.808c 0 0.56 -0.344 0.8 -1.312 0.8c -0.328 0 -0.536 -0.016 -0.88 -0.016Z m 0.32 -1.696h 0.608c 0.488 0 0.696 -0.32 0.696 -0.8c 0 -0.536 -0.304 -0.688 -0.736 -0.688c -0.416 0 -0.568 0.072 -0.568 0.44Z m 0 0.232v 0.928c 0 0.24 0.184 0.288 0.568 0.288c 0.416 0 0.664 -0.112 0.664 -0.592c 0 -0.32 -0.208 -0.624 -0.704 -0.624Z "/></symbol><symbol id="gADB3B27726748394AAF96F33FED6E9BE" overflow="visible"><path d="M 0 0m 1.488 2.448c 0 0.672 0.088 0.696 0.576 0.736c 0.048 0.048 0.048 0.216 0 0.264c -0.272 -0.008 -0.544 -0.016 -0.896 -0.016c -0.344 0 -0.624 0.008 -0.888 0.016c -0.048 -0.048 -0.048 -0.216 0 -0.264c 0.488 -0.032 0.576 -0.064 0.576 -0.728v -1.48c 0 -0.664 -0.088 -0.688 -0.576 -0.728c -0.048 -0.048 -0.048 -0.216 0 -0.264c 0.264 0.008 0.544 0.016 0.896 0.016c 0.328 0 0.504 -0.016 0.832 -0.016c 0.984 0 1.52 0.248 1.52 1.104c 0 0.752 -0.656 0.968 -1.464 0.968h -0.576Z m 3.448 0.008c 0 0.664 0.088 0.688 0.576 0.728c 0.048 0.048 0.048 0.216 0 0.264c -0.272 -0.008 -0.544 -0.016 -0.896 -0.016c -0.344 0 -0.624 0.008 -0.888 0.016c -0.048 -0.048 -0.048 -0.216 0 -0.264c 0.488 -0.032 0.576 -0.064 0.576 -0.728v -1.48c 0 -0.664 -0.088 -0.688 -0.576 -0.728c -0.048 -0.048 -0.048 -0.216 0 -0.264c 0.264 0.008 0.544 0.016 0.896 0.016c 0.344 0 0.632 -0.008 0.888 -0.016c 0.048 0.048 0.048 0.216 0 0.264c -0.488 0.032 -0.576 0.064 -0.576 0.728Z m -2.096 -1.448c 0 -0.656 -0.4 -0.76 -0.824 -0.76c -0.392 0 -0.528 0.08 -0.528 0.36v 1.184h 0.568c 0.6 0 0.784 -0.36 0.784 -0.784Z "/></symbol><symbol id="g9E0D72929382BA054F8819A862FD1C38" overflow="visible"><path d="M 0 0m 1.584 0.504c -0.024 0 -0.056 0.016 -0.056 0.096v 1.824c 0 0.664 0.168 0.736 0.576 0.76c 0.048 0.048 0.048 0.216 0 0.264c -0.184 -0.008 -0.64 -0.016 -0.936 -0.016c -0.264 0 -0.584 0.008 -0.888 0.016c -0.048 -0.048 -0.048 -0.216 0 -0.264c 0.488 -0.024 0.616 -0.096 0.616 -0.76v -1.416c 0 -0.664 -0.128 -0.736 -0.616 -0.76c -0.048 -0.048 -0.048 -0.216 0 -0.264c 0.312 0.008 0.632 0.016 0.888 0.016c 0.184 0 0.4 -0.008 0.488 -0.016c 0.04 0.112 0.112 0.272 0.2 0.432l 1.248 2.504c 0.024 0 0.056 -0.016 0.056 -0.096v -1.816c 0 -0.664 -0.168 -0.736 -0.576 -0.76c -0.048 -0.048 -0.048 -0.216 0 -0.264c 0.184 0.008 0.616 0.016 0.936 0.016c 0.248 0 0.576 -0.008 0.888 -0.016c 0.048 0.048 0.048 0.216 0 0.264c -0.488 0.024 -0.616 0.096 -0.616 0.76v 1.416c 0 0.664 0.128 0.736 0.616 0.76c 0.048 0.048 0.048 0.216 0 0.264c -0.32 -0.008 -0.64 -0.016 -0.888 -0.016c -0.176 0 -0.4 0.008 -0.48 0.016c -0.064 -0.144 -0.136 -0.312 -0.208 -0.448Z m 1.72 4.216c 0 0.152 -0.112 0.264 -0.304 0.264c -0.144 0 -0.28 -0.112 -0.28 -0.248c 0 -0.024 0 -0.04 0.008 -0.056c 0.008 -0.024 0.008 -0.048 0.008 -0.072c 0 -0.176 -0.168 -0.336 -0.4 -0.336c -0.24 0 -0.4 0.168 -0.4 0.344c 0 0.016 0 0.04 0.008 0.064c 0.008 0.024 0.008 0.04 0.008 0.064c 0 0.128 -0.096 0.24 -0.272 0.24c -0.184 0 -0.312 -0.12 -0.312 -0.264c 0 -0.432 0.44 -0.696 0.96 -0.696c 0.512 0 0.976 0.256 0.976 0.696Z "/></symbol><symbol id="gF859B786D36C3A3EB6E93A57BC4F802" overflow="visible"><path d="M 0 0m 3.496 3.432h -2.272c -0.32 0 -0.624 0.008 -0.864 0.016c -0.048 -0.048 -0.048 -0.216 0 -0.264c 0.44 -0.032 0.544 -0.072 0.544 -0.728v -1.48c 0 -0.656 -0.104 -0.696 -0.624 -0.728c -0.048 -0.048 -0.048 -0.216 0 -0.264c 0.24 0.008 0.624 0.016 0.944 0.016c 0.32 0 0.56 -0.008 0.8 -0.016c 0.048 0.048 0.048 0.216 0 0.264c -0.408 0.04 -0.488 0.072 -0.488 0.728v 1.736c 0 0.248 0.024 0.408 0.336 0.408h 0.968c 0.296 0 0.344 -0.088 0.344 -0.408v -1.736c 0 -0.656 -0.08 -0.696 -0.496 -0.728c -0.04 -0.048 -0.04 -0.216 0 -0.264c 0.2 0.008 0.496 0.016 0.816 0.016c 0.32 0 0.68 -0.008 0.904 -0.016c 0.04 0.048 0.04 0.216 0 0.264c -0.52 0.032 -0.592 0.072 -0.592 0.728v 1.48c 0 0.656 0.104 0.696 0.544 0.728c 0.048 0.048 0.048 0.216 0 0.264c -0.24 -0.008 -0.544 -0.016 -0.864 -0.016Z "/></symbol><symbol id="gE09E60C0AC8E2E10ADA02C2F49261352" overflow="visible"><path d="M 0 0m 1.456 0.976c 0 -0.664 -0.088 -0.704 -0.576 -0.728c -0.048 -0.048 -0.048 -0.216 0 -0.264c 0.312 0.008 0.632 0.016 0.896 0.016c 0.272 0 0.584 -0.008 0.888 -0.016c 0.048 0.048 0.048 0.216 0 0.264c -0.488 0.024 -0.576 0.064 -0.576 0.728v 2.16h 0.136c 0.648 0 0.776 -0.224 0.912 -0.872c 0.104 0 0.208 0.032 0.208 0.032c -0.048 0.368 -0.08 0.72 -0.088 1.184c -0.184 -0.016 -0.784 -0.048 -1.184 -0.048h -0.6c -0.4 0 -0.848 0.024 -1.168 0.048c -0.008 -0.464 -0.04 -0.816 -0.096 -1.184c 0 0 0.112 -0.032 0.216 -0.032c 0.136 0.648 0.256 0.872 0.912 0.872h 0.12Z "/></symbol><symbol id="gDF0740817C60D01D4C0A2F901DD857A7" overflow="visible"><path d="M 0 0m 1.584 0.504c -0.024 0 -0.056 0.016 -0.056 0.096v 1.824c 0 0.664 0.168 0.736 0.576 0.76c 0.048 0.048 0.048 0.216 0 0.264c -0.184 -0.008 -0.64 -0.016 -0.936 -0.016c -0.264 0 -0.584 0.008 -0.888 0.016c -0.048 -0.048 -0.048 -0.216 0 -0.264c 0.488 -0.024 0.616 -0.096 0.616 -0.76v -1.416c 0 -0.664 -0.128 -0.736 -0.616 -0.76c -0.048 -0.048 -0.048 -0.216 0 -0.264c 0.312 0.008 0.632 0.016 0.888 0.016c 0.184 0 0.4 -0.008 0.488 -0.016c 0.04 0.112 0.112 0.272 0.2 0.432l 1.248 2.504c 0.024 0 0.056 -0.016 0.056 -0.096v -1.816c 0 -0.664 -0.168 -0.736 -0.576 -0.76c -0.048 -0.048 -0.048 -0.216 0 -0.264c 0.184 0.008 0.616 0.016 0.936 0.016c 0.248 0 0.576 -0.008 0.888 -0.016c 0.048 0.048 0.048 0.216 0 0.264c -0.488 0.024 -0.616 0.096 -0.616 0.76v 1.416c 0 0.664 0.128 0.736 0.616 0.76c 0.048 0.048 0.048 0.216 0 0.264c -0.32 -0.008 -0.64 -0.016 -0.888 -0.016c -0.176 0 -0.4 0.008 -0.48 0.016c -0.064 -0.144 -0.136 -0.312 -0.208 -0.448Z "/></symbol><symbol id="gE4F86D8BE8C69EC1EB36B973594724AB" overflow="visible"><path d="M 0 0m 0.936 2.448l -0.048 -1.488c -0.024 -0.672 -0.144 -0.688 -0.608 -0.712c -0.048 -0.048 -0.048 -0.216 0 -0.264c 0.16 0.008 0.56 0.016 0.688 0.016c 0.16 0 0.536 -0.008 0.696 -0.016c 0.048 0.048 0.048 0.216 0 0.264c -0.456 0.032 -0.488 0.112 -0.472 0.712l 0.056 1.96c 0 0.072 0.032 0.072 0.064 0l 1.16 -2.832c 0.032 -0.024 0.064 -0.024 0.088 0l 1.312 2.824c 0.04 0.088 0.08 0.096 0.08 0l -0.008 -1.936c 0 -0.664 -0.056 -0.688 -0.544 -0.728c -0.048 -0.048 -0.048 -0.216 0 -0.264c 0.288 0.008 0.584 0.016 0.864 0.016c 0.24 0 0.584 -0.008 0.896 -0.016c 0.048 0.048 0.048 0.216 0 0.264c -0.488 0.032 -0.576 0.064 -0.576 0.728l -0.016 1.48c -0.008 0.664 0.088 0.688 0.576 0.728c 0.048 0.048 0.048 0.216 0 0.264c -0.28 -0.016 -1.056 -0.016 -1.32 -0.016l -1.064 -2.288l -0.04 -0.08l -0.032 0.08l -0.936 2.288c -0.264 0 -1.112 0 -1.392 0.016c -0.048 -0.048 -0.048 -0.216 0 -0.264c 0.488 -0.04 0.6 -0.072 0.576 -0.736Z "/></symbol><symbol id="g89E7AED93332C4356E163D20D023452" overflow="visible"><path d="M 0 0m 1.632 -1.28c 0.128 0.224 0.232 0.448 0.328 0.688c 0.64 1.544 1 2.368 1.416 3.264c 0.16 0.336 0.272 0.464 0.648 0.512c 0.048 0.048 0.048 0.216 0 0.264c -0.16 -0.008 -0.344 -0.016 -0.568 -0.016c -0.24 0 -0.488 0.008 -0.728 0.016c -0.048 -0.048 -0.048 -0.216 0 -0.264c 0.256 -0.024 0.512 -0.072 0.384 -0.36l -0.792 -1.832c -0.056 -0.128 -0.128 -0.152 -0.192 0.008l -0.712 1.664c -0.144 0.336 -0.184 0.488 0.264 0.52c 0.048 0.048 0.048 0.216 0 0.264c -0.296 -0.008 -0.616 -0.016 -0.904 -0.016c -0.272 0 -0.488 0.008 -0.648 0.016c -0.048 -0.048 -0.048 -0.216 0 -0.264c 0.32 -0.04 0.424 -0.112 0.632 -0.6l 0.904 -2.104c 0.072 -0.16 0.192 -0.528 0.112 -0.752c -0.096 -0.264 -0.192 -0.488 -0.312 -0.736c -0.088 -0.16 -0.2 -0.232 -0.4 -0.232c -0.112 0 -0.144 0.024 -0.232 0.024c -0.232 0 -0.352 -0.24 -0.352 -0.344c 0 -0.168 0.16 -0.296 0.376 -0.296c 0.168 0 0.488 0.064 0.776 0.576Z "/></symbol><symbol id="g6B82393DEE9EED3DAD9553B65DF3D165" overflow="visible"><path d="M 0 0m 2 3.48v -1.272h -1.32c -0.096 0 -0.2 -0.152 -0.2 -0.272c 0 -0.064 0.048 -0.128 0.12 -0.128h 1.4v -1.36c 0 -0.072 0.064 -0.12 0.128 -0.12c 0.12 0 0.272 0.104 0.272 0.2v 1.28h 1.304c 0.104 0 0.216 0.184 0.216 0.264c 0 0.064 -0.032 0.136 -0.112 0.136h -1.408v 1.376c 0 0.08 -0.072 0.112 -0.136 0.112c -0.08 0 -0.264 -0.112 -0.264 -0.216Z "/></symbol><symbol id="g8C50DFC0B8272CD73341C65811BD0E92" overflow="visible"><path d="M 0 0m 2.304 0.976v 2.776c 0 0.48 0.008 0.968 0.024 1.072c 0 0.04 -0.016 0.04 -0.048 0.04c -0.44 -0.272 -0.864 -0.472 -1.568 -0.8c 0.016 -0.088 0.048 -0.168 0.12 -0.216c 0.368 0.152 0.544 0.2 0.696 0.2c 0.136 0 0.16 -0.192 0.16 -0.464v -2.608c 0 -0.664 -0.216 -0.704 -0.776 -0.728c -0.048 -0.048 -0.048 -0.216 0 -0.264c 0.392 0.008 0.68 0.016 1.112 0.016c 0.384 0 0.576 -0.008 0.976 -0.016c 0.048 0.048 0.048 0.216 0 0.264c -0.56 0.024 -0.696 0.064 -0.696 0.728Z "/></symbol><symbol id="g46DFAA35BC521B4F2378CE697B4B163E" overflow="visible"><path d="M 0 0m 1.248 2.944c -0.008 0.24 -0.024 0.448 -0.064 0.528c -0.016 0.04 -0.032 0.064 -0.096 0.064c -0.224 -0.088 -0.432 -0.16 -0.984 -0.232c -0.016 -0.048 0 -0.176 0.016 -0.224c 0.432 -0.04 0.52 -0.08 0.52 -0.544v -3.416c 0 -0.664 -0.088 -0.704 -0.576 -0.728c -0.048 -0.048 -0.048 -0.216 0 -0.264c 0.28 0.008 0.576 0.016 0.896 0.016c 0.32 0 0.704 -0.008 0.968 -0.016c 0.048 0.048 0.048 0.216 0 0.264c -0.568 0.032 -0.656 0.064 -0.656 0.728v 0.864c 0 0.104 0.032 0.096 0.112 0.064c 0.2 -0.08 0.44 -0.128 0.696 -0.128c 0.448 0 0.848 0.136 1.176 0.448c 0.376 0.368 0.592 0.864 0.592 1.512c 0 0.848 -0.6 1.632 -1.416 1.632c -0.368 0 -0.776 -0.24 -1.096 -0.6c -0.048 -0.048 -0.08 -0.048 -0.088 0.032Z m 0.152 -0.296c 0.208 0.256 0.576 0.496 0.808 0.496c 0.512 0 0.952 -0.576 0.952 -1.48c 0 -0.656 -0.232 -1.472 -1.128 -1.472c -0.144 0 -0.424 0.04 -0.568 0.168c -0.16 0.144 -0.192 0.192 -0.192 0.48v 1.456c 0 0.168 0.032 0.24 0.128 0.352Z "/></symbol><symbol id="g465CA45D0696F5BBCE5E7A11B5E63D98" overflow="visible"><path d="M 0 0m 3.088 0.744c -0.296 -0.304 -0.528 -0.432 -0.992 -0.432c -0.288 0 -0.624 0.168 -0.872 0.576c -0.16 0.264 -0.256 0.632 -0.256 1.096l 2.128 -0.016c 0.096 0 0.152 0.048 0.152 0.136c 0 0.672 -0.24 1.392 -1.352 1.392c -0.696 0 -1.6 -0.664 -1.6 -1.88c 0 -0.448 0.112 -0.88 0.376 -1.184c 0.272 -0.32 0.648 -0.512 1.224 -0.512c 0.608 0 1.04 0.28 1.36 0.696c -0.024 0.08 -0.072 0.12 -0.168 0.128Z m -2.096 1.512c 0.152 0.904 0.712 0.976 0.904 0.976c 0.304 0 0.664 -0.168 0.664 -0.84c 0 -0.072 -0.032 -0.112 -0.12 -0.112Z "/></symbol><symbol id="g9F99202881449AD6C0CCCD21824C9AF1" overflow="visible"><path d="M 0 0m 3.184 0.728c -0.032 0.072 -0.096 0.104 -0.168 0.112c -0.272 -0.352 -0.616 -0.528 -0.96 -0.528c -0.584 0 -1.072 0.592 -1.072 1.528c 0 0.88 0.384 1.408 0.912 1.408c 0.472 0 0.536 -0.28 0.568 -0.56c 0.024 -0.216 0.136 -0.288 0.304 -0.288c 0.168 0 0.392 0.104 0.392 0.352c 0 0.44 -0.456 0.76 -1.224 0.76c -0.792 0 -1.64 -0.712 -1.64 -1.848c 0 -1.032 0.576 -1.744 1.584 -1.744c 0.48 0 0.904 0.152 1.304 0.808Z "/></symbol><symbol id="gF79D9CC171E1ACC5162F855F1894F43E" overflow="visible"><path d="M 0 0m 2.344 0.384c 0.048 -0.248 0.136 -0.464 0.536 -0.464c 0.304 0 0.592 0.136 0.76 0.296c -0.016 0.096 -0.048 0.168 -0.136 0.216c -0.056 -0.048 -0.192 -0.128 -0.296 -0.128c -0.232 0 -0.24 0.312 -0.24 0.68v 1.176c 0 1.136 -0.624 1.352 -1.208 1.352c -0.656 0 -1.32 -0.432 -1.32 -0.888c 0 -0.192 0.096 -0.288 0.28 -0.288c 0.232 0 0.376 0.168 0.376 0.272c 0 0.056 -0.008 0.112 -0.024 0.144c -0.008 0.024 -0.016 0.072 -0.016 0.16c 0 0.248 0.336 0.336 0.64 0.336c 0.272 0 0.648 -0.136 0.648 -1.04c 0 -0.056 -0.024 -0.088 -0.048 -0.096l -0.688 -0.168c -0.768 -0.192 -1.32 -0.616 -1.32 -1.16c 0 -0.656 0.448 -0.864 1.008 -0.864c 0.28 0 0.52 0.064 0.872 0.336l 0.16 0.128Z m 0 1.48v -1.056c 0 -0.104 -0.048 -0.16 -0.112 -0.208c -0.208 -0.168 -0.48 -0.352 -0.704 -0.352c -0.4 0 -0.576 0.32 -0.576 0.568c 0 0.36 0.168 0.728 0.76 0.88Z "/></symbol><symbol id="g75E31E9387E94E3A457DA9304838F591" overflow="visible"><path d="M 0 0m 4.1515 4.0755h -2.698c -0.38 0 -0.741 0.0095 -1.026 0.019c -0.057 -0.057 -0.057 -0.2565 0 -0.3135c 0.5225 -0.038 0.646 -0.0855 0.646 -0.8645v -1.7575c 0 -0.779 -0.1235 -0.8265 -0.741 -0.8645c -0.057 -0.057 -0.057 -0.2565 0 -0.3135c 0.285 0.0095 0.741 0.019 1.121 0.019c 0.38 0 0.665 -0.0095 0.95 -0.019c 0.057 0.057 0.057 0.2565 0 0.3135c -0.4845 0.0475 -0.5795 0.0855 -0.5795 0.8645v 2.0615c 0 0.2945 0.0285 0.4845 0.399 0.4845h 1.1495c 0.3515 0 0.4085 -0.1045 0.4085 -0.4845v -2.0615c 0 -0.779 -0.095 -0.8265 -0.589 -0.8645c -0.0475 -0.057 -0.0475 -0.2565 0 -0.3135c 0.2375 0.0095 0.589 0.019 0.969 0.019c 0.38 0 0.8075 -0.0095 1.0735 -0.019c 0.0475 0.057 0.0475 0.2565 0 0.3135c -0.6175 0.038 -0.703 0.0855 -0.703 0.8645v 1.7575c 0 0.779 0.1235 0.8265 0.646 0.8645c 0.057 0.057 0.057 0.2565 0 0.3135c -0.285 -0.0095 -0.646 -0.019 -1.026 -0.019Z "/></symbol><symbol id="g5B0FB9F727640150CA57389F67238C5A" overflow="visible"><path d="M 0 0m 1.482 3.496c -0.0095 0.285 -0.0285 0.532 -0.076 0.627c -0.019 0.0475 -0.038 0.076 -0.114 0.076c -0.266 -0.1045 -0.513 -0.19 -1.1685 -0.2755c -0.019 -0.057 0 -0.209 0.019 -0.266c 0.513 -0.0475 0.6175 -0.095 0.6175 -0.646v -4.0565c 0 -0.7885 -0.1045 -0.836 -0.684 -0.8645c -0.057 -0.057 -0.057 -0.2565 0 -0.3135c 0.3325 0.0095 0.684 0.019 1.064 0.019c 0.38 0 0.836 -0.0095 1.1495 -0.019c 0.057 0.057 0.057 0.2565 0 0.3135c -0.6745 0.038 -0.779 0.076 -0.779 0.8645v 1.026c 0 0.1235 0.038 0.114 0.133 0.076c 0.2375 -0.095 0.5225 -0.152 0.8265 -0.152c 0.532 0 1.007 0.1615 1.3965 0.532c 0.4465 0.437 0.703 1.026 0.703 1.7955c 0 1.007 -0.7125 1.938 -1.6815 1.938c -0.437 0 -0.9215 -0.285 -1.3015 -0.7125c -0.057 -0.057 -0.095 -0.057 -0.1045 0.038Z m 0.1805 -0.3515c 0.247 0.304 0.684 0.589 0.9595 0.589c 0.608 0 1.1305 -0.684 1.1305 -1.7575c 0 -0.779 -0.2755 -1.748 -1.3395 -1.748c -0.171 0 -0.5035 0.0475 -0.6745 0.1995c -0.19 0.171 -0.228 0.228 -0.228 0.57v 1.729c 0 0.1995 0.038 0.285 0.152 0.418Z "/></symbol><symbol id="g30870B079B88F136C2A9AD2E2890E4EB" overflow="visible"><path d="M 0 0m 1.881 0.5985c -0.0285 0 -0.0665 0.019 -0.0665 0.114v 2.166c 0 0.7885 0.1995 0.874 0.684 0.9025c 0.057 0.057 0.057 0.2565 0 0.3135c -0.2185 -0.0095 -0.76 -0.019 -1.1115 -0.019c -0.3135 0 -0.6935 0.0095 -1.0545 0.019c -0.057 -0.057 -0.057 -0.2565 0 -0.3135c 0.5795 -0.0285 0.7315 -0.114 0.7315 -0.9025v -1.6815c 0 -0.7885 -0.152 -0.874 -0.7315 -0.9025c -0.057 -0.057 -0.057 -0.2565 0 -0.3135c 0.3705 0.0095 0.7505 0.019 1.0545 0.019c 0.2185 0 0.475 -0.0095 0.5795 -0.019c 0.0475 0.133 0.133 0.323 0.2375 0.513l 1.482 2.9735c 0.0285 0 0.0665 -0.019 0.0665 -0.114v -2.1565c 0 -0.7885 -0.1995 -0.874 -0.684 -0.9025c -0.057 -0.057 -0.057 -0.2565 0 -0.3135c 0.2185 0.0095 0.7315 0.019 1.1115 0.019c 0.2945 0 0.684 -0.0095 1.0545 -0.019c 0.057 0.057 0.057 0.2565 0 0.3135c -0.5795 0.0285 -0.7315 0.114 -0.7315 0.9025v 1.6815c 0 0.7885 0.152 0.874 0.7315 0.9025c 0.057 0.057 0.057 0.2565 0 0.3135c -0.38 -0.0095 -0.76 -0.019 -1.0545 -0.019c -0.209 0 -0.475 0.0095 -0.57 0.019c -0.076 -0.171 -0.1615 -0.3705 -0.247 -0.532Z "/></symbol><symbol id="gA087682AD38D2D620C1058FCC30E85F0" overflow="visible"><path d="M 0 0m 0.323 2.4415c 0 -1.7955 1.0355 -2.5365 1.957 -2.5365c 1.3015 0 2.052 0.969 2.052 2.166c 0 1.026 -0.57 2.0995 -1.9095 2.0995c -0.9025 0 -1.4535 -0.532 -1.6625 -0.988l -0.019 0.019c 0.038 0.494 0.19 1.102 0.3325 1.349c 0.304 0.5225 0.665 0.551 1.539 0.646c 0.855 0.095 1.463 0.3705 1.5485 1.4345c -0.0665 0.0285 -0.133 0.038 -0.209 0c -0.076 -0.456 -0.5795 -0.5795 -1.3775 -0.703c -0.7695 -0.1235 -1.4155 -0.3895 -1.8145 -1.14c -0.342 -0.646 -0.437 -1.444 -0.437 -2.3465Z m 0.817 -0.247c 0 0.532 0.19 1.6435 1.178 1.6435c 0.741 0 1.197 -0.855 1.197 -1.995c 0 -1.197 -0.551 -1.6055 -1.064 -1.6055c -0.6935 0 -1.311 0.9025 -1.311 1.957Z "/></symbol><symbol id="g15DE86D891118100C568580819B789B3" overflow="visible"><path d="M 0 0m 1.767 2.907c 0 0.798 0.1045 0.8265 0.684 0.874c 0.057 0.057 0.057 0.2565 0 0.3135c -0.323 -0.0095 -0.646 -0.019 -1.064 -0.019c -0.4085 0 -0.741 0.0095 -1.0545 0.019c -0.057 -0.057 -0.057 -0.2565 0 -0.3135c 0.5795 -0.038 0.684 -0.076 0.684 -0.8645v -1.7575c 0 -0.7885 -0.1045 -0.817 -0.684 -0.8645c -0.057 -0.057 -0.057 -0.2565 0 -0.3135c 0.3135 0.0095 0.646 0.019 1.064 0.019c 0.3895 0 0.5985 -0.019 0.988 -0.019c 1.1685 0 1.805 0.2945 1.805 1.311c 0 0.893 -0.779 1.1495 -1.7385 1.1495h -0.684Z m 4.0945 0.0095c 0 0.7885 0.1045 0.817 0.684 0.8645c 0.057 0.057 0.057 0.2565 0 0.3135c -0.323 -0.0095 -0.646 -0.019 -1.064 -0.019c -0.4085 0 -0.741 0.0095 -1.0545 0.019c -0.057 -0.057 -0.057 -0.2565 0 -0.3135c 0.5795 -0.038 0.684 -0.076 0.684 -0.8645v -1.7575c 0 -0.7885 -0.1045 -0.817 -0.684 -0.8645c -0.057 -0.057 -0.057 -0.2565 0 -0.3135c 0.3135 0.0095 0.646 0.019 1.064 0.019c 0.4085 0 0.7505 -0.0095 1.0545 -0.019c 0.057 0.057 0.057 0.2565 0 0.3135c -0.5795 0.038 -0.684 0.076 -0.684 0.8645Z m -2.489 -1.7195c 0 -0.779 -0.475 -0.9025 -0.9785 -0.9025c -0.4655 0 -0.627 0.095 -0.627 0.4275v 1.406h 0.6745c 0.7125 0 0.931 -0.4275 0.931 -0.931Z "/></symbol><symbol id="gC86282117E7C9F65658F6DDAC49FC51A" overflow="visible"><path d="M 0 0m 3.971 1.159v 1.7575c 0 0.779 0.1235 0.8265 0.646 0.8645c 0.057 0.057 0.057 0.2565 0 0.3135c -0.285 -0.0095 -0.646 -0.019 -1.026 -0.019h -1.7955c -0.3135 0 -0.684 0.0095 -0.969 0.019c -0.057 -0.057 -0.057 -0.2565 0 -0.3135c 0.6745 -0.0475 0.7695 -0.1045 0.7695 -1.1305c 0 -0.9975 -0.076 -1.52 -0.209 -1.9095c -0.1235 -0.342 -0.285 -0.4655 -0.4465 -0.4655c -0.1235 0 -0.1615 0.076 -0.1805 0.1995c -0.0285 0.1805 -0.0855 0.361 -0.3515 0.361c -0.2375 0 -0.3705 -0.19 -0.3705 -0.399c 0 -0.2945 0.266 -0.551 0.703 -0.551c 0.4845 0 0.7505 0.247 0.969 0.76c 0.19 0.456 0.247 1.425 0.247 2.071c 0 0.741 0.0285 0.988 0.4085 0.988h 0.4275c 0.361 0 0.4275 -0.228 0.4275 -0.551v -1.995c 0 -0.779 -0.095 -0.8265 -0.589 -0.8645c -0.0475 -0.057 -0.0475 -0.2565 0 -0.3135c 0.2375 0.0095 0.589 0.019 0.969 0.019c 0.38 0 0.8075 -0.0095 1.0735 -0.019c 0.0475 0.057 0.0475 0.2565 0 0.3135c -0.6175 0.038 -0.703 0.0855 -0.703 0.8645Z "/></symbol><symbol id="g4F6C4B764A667C0D20F43C1E2952DF77" overflow="visible"><path d="M 0 0m 1.767 2.907c 0 0.798 0.1045 0.8265 0.684 0.874c 0.057 0.057 0.057 0.2565 0 0.3135c -0.323 -0.0095 -0.646 -0.019 -1.064 -0.019c -0.4085 0 -0.741 0.0095 -1.0545 0.019c -0.057 -0.057 -0.057 -0.2565 0 -0.3135c 0.5795 -0.038 0.684 -0.076 0.684 -0.8645v -1.7575c 0 -0.7885 -0.1045 -0.817 -0.684 -0.8645c -0.057 -0.057 -0.057 -0.2565 0 -0.3135c 0.3135 0.0095 0.646 0.019 1.064 0.019c 0.3895 0 0.5985 -0.019 0.988 -0.019c 1.1685 0 1.805 0.2945 1.805 1.311c 0 0.893 -0.779 1.1495 -1.7385 1.1495h -0.684Z m 1.6055 -1.71c 0 -0.779 -0.475 -0.9025 -0.9785 -0.9025c -0.4655 0 -0.627 0.095 -0.627 0.4275v 1.406h 0.6745c 0.7125 0 0.931 -0.4275 0.931 -0.931Z "/></symbol><symbol id="gD243A48DAC45EEC7C88A2988B14DD756" overflow="visible"><path d="M 0 0m 1.387 4.0755c -0.4085 0 -0.741 0.0095 -1.0545 0.019c -0.057 -0.057 -0.057 -0.2565 0 -0.3135c 0.5795 -0.038 0.684 -0.076 0.684 -0.8645v -1.7575c 0 -0.7885 -0.1045 -0.817 -0.684 -0.8645c -0.057 -0.057 -0.057 -0.2565 0 -0.3135c 0.3135 0.0095 0.646 0.019 1.064 0.019c 0.3515 0 0.665 -0.019 1.3015 -0.019c 0.817 0 1.4345 0.228 1.4345 1.1685c 0 0.532 -0.3325 0.9025 -0.912 1.007v 0.0285c 0.437 0.0855 0.7695 0.3895 0.7695 0.9595c 0 0.665 -0.4085 0.95 -1.558 0.95c -0.3895 0 -0.6365 -0.019 -1.045 -0.019Z m 0.38 -2.014h 0.722c 0.5795 0 0.8265 -0.38 0.8265 -0.95c 0 -0.6365 -0.361 -0.817 -0.874 -0.817c -0.494 0 -0.6745 0.0855 -0.6745 0.5225Z m 0 0.2755v 1.102c 0 0.285 0.2185 0.342 0.6745 0.342c 0.494 0 0.7885 -0.133 0.7885 -0.703c 0 -0.38 -0.247 -0.741 -0.836 -0.741Z "/></symbol><symbol id="gC110FFC20529D78AB6B9724BF2D3193A" overflow="visible"><path d="M 0 0m 0.3895 1.9475c 0 -0.969 0.646 -2.0425 1.995 -2.0425c 0.608 0 1.0735 0.2185 1.3965 0.532c 0.4275 0.418 0.6175 1.0165 0.6175 1.596c 0 0.988 -0.5415 2.1375 -1.995 2.1375c -0.627 0 -1.14 -0.2565 -1.4915 -0.665c -0.342 -0.4085 -0.5225 -0.9595 -0.5225 -1.558Z m 1.8715 1.8905c 0.817 0 1.3205 -0.741 1.3205 -2.109c 0 -1.197 -0.6175 -1.4915 -1.064 -1.4915c -0.988 0 -1.311 1.197 -1.311 1.9285c 0 0.8265 0.1995 1.672 1.0545 1.672Z "/></symbol><symbol id="g966D14D99AB05D933C4957B2E7FE95D9" overflow="visible"><path d="M 0 0m 3.781 0.8645c -0.038 0.0855 -0.114 0.1235 -0.1995 0.133c -0.323 -0.418 -0.7315 -0.627 -1.14 -0.627c -0.6935 0 -1.273 0.703 -1.273 1.8145c 0 1.045 0.456 1.672 1.083 1.672c 0.5605 0 0.6365 -0.3325 0.6745 -0.665c 0.0285 -0.2565 0.1615 -0.342 0.361 -0.342c 0.1995 0 0.4655 0.1235 0.4655 0.418c 0 0.5225 -0.5415 0.9025 -1.4535 0.9025c -0.9405 0 -1.9475 -0.8455 -1.9475 -2.1945c 0 -1.2255 0.684 -2.071 1.881 -2.071c 0.57 0 1.0735 0.1805 1.5485 0.9595Z "/></symbol><symbol id="g30F02AEBABA7D40FC17FCA43D8EB3DAA" overflow="visible"><path d="M 0 0m 2.7835 0.456c 0.057 -0.2945 0.1615 -0.551 0.6365 -0.551c 0.361 0 0.703 0.1615 0.9025 0.3515c -0.019 0.114 -0.057 0.1995 -0.1615 0.2565c -0.0665 -0.057 -0.228 -0.152 -0.3515 -0.152c -0.2755 0 -0.285 0.3705 -0.285 0.8075v 1.3965c 0 1.349 -0.741 1.6055 -1.4345 1.6055c -0.779 0 -1.5675 -0.513 -1.5675 -1.0545c 0 -0.228 0.114 -0.342 0.3325 -0.342c 0.2755 0 0.4465 0.1995 0.4465 0.323c 0 0.0665 -0.0095 0.133 -0.0285 0.171c -0.0095 0.0285 -0.019 0.0855 -0.019 0.19c 0 0.2945 0.399 0.399 0.76 0.399c 0.323 0 0.7695 -0.1615 0.7695 -1.235c 0 -0.0665 -0.0285 -0.1045 -0.057 -0.114l -0.817 -0.1995c -0.912 -0.228 -1.5675 -0.7315 -1.5675 -1.3775c 0 -0.779 0.532 -1.026 1.197 -1.026c 0.3325 0 0.6175 0.076 1.0355 0.399l 0.19 0.152Z m 0 1.7575v -1.254c 0 -0.1235 -0.057 -0.19 -0.133 -0.247c -0.247 -0.1995 -0.57 -0.418 -0.836 -0.418c -0.475 0 -0.684 0.38 -0.684 0.6745c 0 0.4275 0.1995 0.8645 0.9025 1.045Z "/></symbol><symbol id="g111F480562FE960BC5F50C637F145B12" overflow="visible"><path d="M 0 0m 4.5505 2.9165c 0 0.7885 0.1045 0.817 0.684 0.8645c 0.057 0.057 0.057 0.2565 0 0.3135c -0.3325 -0.019 -0.7505 -0.019 -1.064 -0.019c -0.266 0 -0.646 0.0095 -1.0165 0.019c -0.057 -0.057 -0.057 -0.2565 0 -0.3135c 0.5795 -0.038 0.646 -0.076 0.646 -0.8645v -0.6175h -2.033v 0.6175c 0 0.7885 0.0665 0.817 0.646 0.8645c 0.057 0.057 0.057 0.2565 0 0.3135c -0.361 -0.0095 -0.722 -0.019 -1.026 -0.019c -0.285 0 -0.6745 0.0095 -1.0545 0.019c -0.057 -0.057 -0.057 -0.2565 0 -0.3135c 0.5795 -0.038 0.684 -0.076 0.684 -0.8645v -1.7575c 0 -0.7885 -0.1045 -0.817 -0.684 -0.8645c -0.057 -0.057 -0.057 -0.2565 0 -0.3135c 0.38 0.0095 0.76 0.019 1.064 0.019c 0.304 0 0.6745 -0.0095 1.0165 -0.019c 0.057 0.057 0.057 0.2565 0 0.3135c -0.5795 0.038 -0.646 0.076 -0.646 0.8645v 0.8265h 2.033v -0.8265c 0 -0.7885 -0.0665 -0.817 -0.646 -0.8645c -0.057 -0.057 -0.057 -0.2565 0 -0.3135c 0.342 0.0095 0.6935 0.019 1.026 0.019c 0.285 0 0.684 -0.0095 1.0545 -0.019c 0.057 0.057 0.057 0.2565 0 0.3135c -0.5795 0.038 -0.684 0.076 -0.684 0.8645Z "/></symbol><symbol id="gF4AAA5F7889594ACA10BA11829861743" overflow="visible"><path d="M 0 0m 0.817 -0.1235c 0.1045 0 0.2185 0.0665 0.342 0.209l 2.2135 2.622c 0.3325 -0.912 0.5795 -1.596 0.741 -2.0615c 0.1045 -0.2945 0.171 -0.4655 0.2185 -0.532c 0.1045 -0.1425 0.285 -0.2185 0.532 -0.2185h 0.1995c 0.095 0.0095 0.1425 0.0475 0.1425 0.133c 0 0.019 -0.019 0.057 -0.057 0.1045c -0.0665 0.0665 -0.133 0.209 -0.209 0.4275l -1.9095 5.339c -0.1615 0.4655 -0.551 0.6935 -1.1685 0.6935c -0.1425 0 -0.209 -0.0475 -0.209 -0.1425c 0 -0.0665 0.057 -0.114 0.1615 -0.1425c 0.133 -0.038 0.2185 -0.0855 0.266 -0.1425c 0.0665 -0.076 0.1615 -0.266 0.266 -0.57l 0.9025 -2.5365l -2.565 -2.5555c -0.1235 -0.1235 -0.1805 -0.228 -0.1805 -0.3135c 0 -0.171 0.1425 -0.3135 0.3135 -0.3135Z "/></symbol><symbol id="g7487BF628DA7AF2684C887EDF73D0D86" overflow="visible"><path d="M 0 0m 0.4655 2.261h 5.928c 0.1235 0 0.247 0.19 0.247 0.304c 0 0.0855 -0.0285 0.1615 -0.133 0.1615h -5.928c -0.114 0 -0.247 -0.19 -0.247 -0.304c 0 -0.076 0.0285 -0.1615 0.133 -0.1615Z "/></symbol><symbol id="g2CDE8AC35AD8434ADEAF2FC8D76D475D" overflow="visible"><path d="M 0 0m 0.4465 0.779c 0 -0.5035 0.7125 -0.874 1.6245 -0.874c 0.988 0 1.9 0.665 1.9 2.1945c 0 1.1495 -0.5225 2.071 -1.9095 2.071c -0.475 0 -0.969 -0.1425 -1.463 -0.1805c -0.0475 -0.361 -0.0665 -0.7505 -0.0855 -1.14c 0.076 -0.0475 0.152 -0.057 0.247 -0.038c 0.171 0.608 0.4845 1.026 1.2255 1.026c 0.798 0 1.1875 -0.779 1.1875 -1.653l -0.0285 -0.019c -0.2565 0.152 -0.5225 0.266 -0.817 0.266c -0.2185 0 -0.4085 -0.0665 -0.5795 -0.1425c -0.152 -0.0665 -0.304 -0.1235 -0.475 -0.1235c -0.133 0 -0.2565 0.057 -0.323 0.057c -0.057 0 -0.076 -0.095 -0.076 -0.133c 0 -0.133 0.4655 -0.304 0.893 -0.304c 0.228 0 0.399 0.0475 0.551 0.114c 0.133 0.057 0.2755 0.095 0.456 0.095c 0.133 0 0.2565 -0.038 0.38 -0.0855c 0 -1.1305 -0.3515 -1.672 -1.197 -1.672c -0.399 0 -0.627 0.209 -0.7505 0.4655c -0.1425 0.304 -0.2755 0.3515 -0.4465 0.3515c -0.1805 0 -0.3135 -0.1235 -0.3135 -0.2755Z "/></symbol><symbol id="gF1C320A4506B818F6BCB8CDA11A2DE6" overflow="visible"><path d="M 0 0m 1.729 1.159c 0 -0.7885 -0.1045 -0.836 -0.684 -0.8645c -0.057 -0.057 -0.057 -0.2565 0 -0.3135c 0.3705 0.0095 0.7505 0.019 1.064 0.019c 0.323 0 0.6935 -0.0095 1.0545 -0.019c 0.057 0.057 0.057 0.2565 0 0.3135c -0.5795 0.0285 -0.684 0.076 -0.684 0.8645v 2.565h 0.1615c 0.7695 0 0.9215 -0.266 1.083 -1.0355c 0.1235 0 0.247 0.038 0.247 0.038c -0.057 0.437 -0.095 0.855 -0.1045 1.406c -0.2185 -0.019 -0.931 -0.057 -1.406 -0.057h -0.7125c -0.475 0 -1.007 0.0285 -1.387 0.057c -0.0095 -0.551 -0.0475 -0.969 -0.114 -1.406c 0 0 0.133 -0.038 0.2565 -0.038c 0.1615 0.7695 0.304 1.0355 1.083 1.0355h 0.1425Z "/></symbol><symbol id="gA3A5C9019285A4C81365474C03E3CF4E" overflow="visible"><path d="M 0 0m 3.667 0.8835c -0.3515 -0.361 -0.627 -0.513 -1.178 -0.513c -0.342 0 -0.741 0.1995 -1.0355 0.684c -0.19 0.3135 -0.304 0.7505 -0.304 1.3015l 2.527 -0.019c 0.114 0 0.1805 0.057 0.1805 0.1615c 0 0.798 -0.285 1.653 -1.6055 1.653c -0.8265 0 -1.9 -0.7885 -1.9 -2.2325c 0 -0.532 0.133 -1.045 0.4465 -1.406c 0.323 -0.38 0.7695 -0.608 1.4535 -0.608c 0.722 0 1.235 0.3325 1.615 0.8265c -0.0285 0.095 -0.0855 0.1425 -0.1995 0.152Z m -2.489 1.7955c 0.1805 1.0735 0.8455 1.159 1.0735 1.159c 0.361 0 0.7885 -0.1995 0.7885 -0.9975c 0 -0.0855 -0.038 -0.133 -0.1425 -0.133Z "/></symbol><symbol id="g23869749828957FA40F6BA2ECBEE0846" overflow="visible"><path d="M 0 0m 2.1375 0.3705c -0.3515 0 -0.4085 0.1045 -0.4085 0.4845v 2.0615c 0 0.779 0.095 0.8265 0.589 0.8645c 0.0475 0.057 0.0475 0.2565 0 0.3135c -0.2375 -0.0095 -0.589 -0.019 -0.969 -0.019c -0.38 0 -0.7125 0.0095 -0.9785 0.019c -0.0475 -0.057 -0.0475 -0.2565 0 -0.3135c 0.5225 -0.038 0.608 -0.0855 0.608 -0.8645v -1.7575c 0 -0.779 -0.1235 -0.8265 -0.646 -0.8645c -0.057 -0.057 -0.057 -0.2565 0 -0.3135c 0.285 0.0095 0.646 0.019 1.026 0.019h 2.394c 0.798 0 1.0735 -0.76 1.197 -1.2255c 0.0855 -0.019 0.171 -0.019 0.247 0.0095l -0.057 1.2635c -0.0095 0.171 -0.152 0.2185 -0.285 0.247c -0.2185 0.0475 -0.3705 0.1045 -0.3705 0.8645v 1.7575c 0 0.779 0.1235 0.8265 0.646 0.8645c 0.057 0.057 0.057 0.2565 0 0.3135c -0.285 -0.0095 -0.646 -0.019 -1.026 -0.019c -0.38 0 -0.665 0.0095 -0.95 0.019c -0.057 -0.057 -0.057 -0.2565 0 -0.3135c 0.4845 -0.0475 0.5795 -0.0855 0.5795 -0.8645v -2.0615c 0 -0.2945 -0.0285 -0.4845 -0.399 -0.4845Z "/></symbol><symbol id="gE3D46A95002377B54E13EEB95624C7DA" overflow="visible"><path d="M 0 0m 1.938 -1.52c 0.152 0.266 0.2755 0.532 0.3895 0.817c 0.76 1.8335 1.1875 2.812 1.6815 3.876c 0.19 0.399 0.323 0.551 0.7695 0.608c 0.057 0.057 0.057 0.2565 0 0.3135c -0.19 -0.0095 -0.4085 -0.019 -0.6745 -0.019c -0.285 0 -0.5795 0.0095 -0.8645 0.019c -0.057 -0.057 -0.057 -0.2565 0 -0.3135c 0.304 -0.0285 0.608 -0.0855 0.456 -0.4275l -0.9405 -2.1755c -0.0665 -0.152 -0.152 -0.1805 -0.228 0.0095l -0.8455 1.976c -0.171 0.399 -0.2185 0.5795 0.3135 0.6175c 0.057 0.057 0.057 0.2565 0 0.3135c -0.3515 -0.0095 -0.7315 -0.019 -1.0735 -0.019c -0.323 0 -0.5795 0.0095 -0.7695 0.019c -0.057 -0.057 -0.057 -0.2565 0 -0.3135c 0.38 -0.0475 0.5035 -0.133 0.7505 -0.7125l 1.0735 -2.4985c 0.0855 -0.19 0.228 -0.627 0.133 -0.893c -0.114 -0.3135 -0.228 -0.5795 -0.3705 -0.874c -0.1045 -0.19 -0.2375 -0.2755 -0.475 -0.2755c -0.133 0 -0.171 0.0285 -0.2755 0.0285c -0.2755 0 -0.418 -0.285 -0.418 -0.4085c 0 -0.1995 0.19 -0.3515 0.4465 -0.3515c 0.1995 0 0.5795 0.076 0.9215 0.684Z "/></symbol></defs></svg>