<svg viewBox="0 0 265.41088189 122.477244094" width="265.41088189pt" height="122.477244094pt" xmlns="http://www.w3.org/2000/svg" xmlns:xlink="http://www.w3.org/1999/xlink" xmlns:h5="http://www.w3.org/1999/xhtml"><path fill="#ffffff" fill-rule="nonzero" d="M 0 0v 122.477244094h 265.41088189v -122.477244094Z "/><g transform="translate(8 8)"><path fill="none" stroke="#969988" stroke-width="0.8" stroke-linecap="butt" stroke-linejoin="miter" stroke-miterlimit="4" d="M 0 0m 48.188976378 0c -26.589906142 0 -48.188976378 21.599070236 -48.188976378 48.188976378c 0 26.589906142 21.599070236 48.188976378 48.188976378 48.188976378c 26.589906142 0 48.188976378 -21.599070236 48.188976378 -48.188976378c 0 -26.589906142 -21.599070236 -48.188976378 -48.188976378 -48.188976378Z "/><path fill="#c9a24b" fill-rule="nonzero" transform="translate(44.787401575 44.787401575)" d="M 0 0m 3.401574803 0c -1.876934551 0 -3.401574803 1.524640252 -3.401574803 3.401574803c 0 1.876934551 1.524640252 3.401574803 3.401574803 3.401574803c 1.876934551 0 3.401574803 -1.524640252 3.401574803 -3.401574803c 0 -1.876934551 -1.524640252 -3.401574803 -3.401574803 -3.401574803Z "/><path fill="#928c7e" fill-rule="nonzero" stroke="#1a1a18" stroke-width="0.6" stroke-linecap="butt" stroke-linejoin="miter" stroke-miterlimit="4" transform="translate(91.842519685 43.653543307)" d="M 0 0m 4.535433071 0c -2.502579402 0 -4.535433071 2.032853669 -4.535433071 4.535433071c 0 2.502579402 2.032853669 4.535433071 4.535433071 4.535433071c 2.502579402 0 4.535433071 -2.032853669 4.535433071 -4.535433071c 0 -2.502579402 -2.032853669 -4.535433071 -4.535433071 -4.535433071Z "/><path fill="none" stroke="#1a1a18" stroke-width="0.9" stroke-linecap="butt" stroke-linejoin="miter" stroke-miterlimit="4" transform="translate(96.377952756 28.21073442)" d="M 0 0m 0 12.891627785v -12.891627785"/><path fill="#1a1a18" fill-rule="nonzero" stroke="#1a1a18" stroke-width="0.9" stroke-linecap="butt" stroke-linejoin="miter" stroke-miterlimit="4" transform="translate(94.251968504 22.541443087)" d="M 0 0m 2.125984252 0l 2.125984252 5.669291339h -4.251968504l 2.125984252 -5.669291339Z "/><path fill="none" transform="translate(100.62992126 25.396956693)" d="M 0 0h 4.216v 5.899h -4.216v -5.899Z "/><g transform="translate(100.629921134 25.396956567)"><g transform="matrix(1 0 0 -1 0 5.8055)"><use xlink:href="#g511BF44F6144F987FD158E3BB6CA6901" x="0" y="0" fill="#7c7f6a" fill-rule="nonzero"/></g></g><path fill="none" stroke="#1a1a18" stroke-width="0.6" stroke-linecap="butt" stroke-linejoin="miter" stroke-miterlimit="4" transform="translate(48.188976378 48.188976378)" d="M 0 0h 48.188976378"/><path fill="none" transform="translate(70.311464567 53.176484252)" d="M 0 0h 3.944v 5.899h -3.944v -5.899Z "/><g transform="translate(70.311464504 53.176484126)"><g transform="matrix(1 0 0 -1 0 5.8055)"><use xlink:href="#gEBA783684BF401862FFC721960A8EC10" x="0" y="0" fill="#1a1a18" fill-rule="nonzero"/></g></g><path fill="none" stroke="#1a1a18" stroke-width="0.6" stroke-linecap="butt" stroke-linejoin="miter" stroke-miterlimit="4" transform="translate(121.88976378 48.188976378)" d="M 0 0h 21.82276498"/><path fill="#1a1a18" fill-rule="nonzero" stroke="#1a1a18" stroke-width="0.6" stroke-linecap="butt" stroke-linejoin="miter" stroke-miterlimit="4" transform="translate(143.712528661 46.062992126)" d="M 0 0m 5.669291339 2.125984252l -5.669291339 2.125984252v -4.251968504l 5.669291339 2.125984252Z "/><path fill="none" transform="translate(123.786992126 37.01303937)" d="M 0 0h 24.552v 5.344h -24.552v -5.344Z "/><g transform="translate(123.786992126 37.013039291)"><g transform="matrix(1 0 0 -1 0 5.264)"><use xlink:href="#g9F99202881449AD6C0CCCD21824C9AF1" x="0" y="0" fill="#7c7f6a" fill-rule="nonzero"/><use xlink:href="#gA5E490FFA4C27385B24874A3876C7C8C" x="3.424" y="0" fill="#7c7f6a" fill-rule="nonzero"/><use xlink:href="#gF79D9CC171E1ACC5162F855F1894F43E" x="9.072" y="0" fill="#7c7f6a" fill-rule="nonzero"/><use xlink:href="#gE09E60C0AC8E2E10ADA02C2F49261352" x="12.728" y="0" fill="#7c7f6a" fill-rule="nonzero"/><use xlink:href="#gDF0740817C60D01D4C0A2F901DD857A7" x="16.288" y="0" fill="#7c7f6a" fill-rule="nonzero"/><use xlink:href="#g465CA45D0696F5BBCE5E7A11B5E63D98" x="20.976" y="0" fill="#7c7f6a" fill-rule="nonzero"/></g></g><path fill="none" stroke="#969988" stroke-width="0.8" stroke-linecap="butt" stroke-linejoin="miter" stroke-miterlimit="4" transform="translate(188.503937008 24.094488189)" d="M 0 0m 24.094488189 0c -13.294953071 0 -24.094488189 10.799535118 -24.094488189 24.094488189c 0 13.294953071 10.799535118 24.094488189 24.094488189 24.094488189c 13.294953071 0 24.094488189 -10.799535118 24.094488189 -24.094488189c 0 -13.294953071 -10.799535118 -24.094488189 -24.094488189 -24.094488189Z "/><path fill="#c9a24b" fill-rule="nonzero" transform="translate(209.196850394 44.787401575)" d="M 0 0m 3.401574803 0c -1.876934551 0 -3.401574803 1.524640252 -3.401574803 3.401574803c 0 1.876934551 1.524640252 3.401574803 3.401574803 3.401574803c 1.876934551 0 3.401574803 -1.524640252 3.401574803 -3.401574803c 0 -1.876934551 -1.524640252 -3.401574803 -3.401574803 -3.401574803Z "/><path fill="#928c7e" fill-rule="nonzero" stroke="#1a1a18" stroke-width="0.6" stroke-linecap="butt" stroke-linejoin="miter" stroke-miterlimit="4" transform="translate(232.157480315 43.653543307)" d="M 0 0m 4.535433071 0c -2.502579402 0 -4.535433071 2.032853669 -4.535433071 4.535433071c 0 2.502579402 2.032853669 4.535433071 4.535433071 4.535433071c 2.502579402 0 4.535433071 -2.032853669 4.535433071 -4.535433071c 0 -2.502579402 -2.032853669 -4.535433071 -4.535433071 -4.535433071Z "/><path fill="none" stroke="#1a1a18" stroke-width="0.9" stroke-linecap="butt" stroke-linejoin="miter" stroke-miterlimit="4" transform="translate(236.692913386 8.368214735)" d="M 0 0m 0 32.73414747v -32.73414747"/><path fill="#1a1a18" fill-rule="nonzero" stroke="#1a1a18" stroke-width="0.9" stroke-linecap="butt" stroke-linejoin="miter" stroke-miterlimit="4" transform="translate(234.566929134 2.698923402)" d="M 0 0m 2.125984252 0l 2.125984252 5.669291339h -4.251968504l 2.125984252 -5.669291339Z "/><path fill="none" transform="translate(240.94488189 14.058374016)" d="M 0 0h 8.466v 5.899h -8.466v -5.899Z "/><g transform="translate(240.944881843 14.05837389)"><g transform="matrix(1 0 0 -1 0 5.8055)"><use xlink:href="#g93CDC01680B3E2FB50DA8122ECFF4EE7" x="0" y="0" fill="#7c7f6a" fill-rule="nonzero"/></g><g transform="matrix(1 0 0 -1 4.25 5.8055)"><use xlink:href="#g511BF44F6144F987FD158E3BB6CA6901" x="0" y="0" fill="#7c7f6a" fill-rule="nonzero"/></g></g><path fill="none" stroke="#1a1a18" stroke-width="0.6" stroke-linecap="butt" stroke-linejoin="miter" stroke-miterlimit="4" transform="translate(212.598425197 48.188976378)" d="M 0 0h 24.094488189"/><path fill="none" transform="translate(218.281937008 52.160734252)" d="M 0 0h 12.444v 7.9305h -12.444v -7.9305Z "/><g transform="translate(218.281936961 52.160734205)"><g transform="matrix(1 0 0 -1 0 5.8055)"><use xlink:href="#gEBA783684BF401862FFC721960A8EC10" x="0" y="0" fill="#1a1a18" fill-rule="nonzero"/></g><g transform="matrix(1 0 0 -1 3.944 5.8055)"><use xlink:href="#g2CFCCBD92B84DA19091A9B4312B8AEF4" x="0" y="0" fill="#1a1a18" fill-rule="nonzero"/></g><g transform="matrix(1 0 0 -1 8.194 5.8055)"><use xlink:href="#g93CDC01680B3E2FB50DA8122ECFF4EE7" x="0" y="0" fill="#1a1a18" fill-rule="nonzero"/></g></g><path fill="none" transform="translate(57.73764217 97.617244094)" d="M 0 0h 145.312117235v 8.86h -145.312117235v -8.86Z "/><g transform="translate(57.737642031 97.617243969)"><g transform="matrix(1 0 0 -1 0 6.83)"><use xlink:href="#g71AD0CC7374456C85E3945751B97D8DE" x="0" y="0" fill="#1a1a18" fill-rule="nonzero"/></g><g transform="matrix(1 0 0 -1 9.587777778 6.83)"><use xlink:href="#g7679559C61795D4B2FBCEF1D6942AEE" x="0" y="0" fill="#1a1a18" fill-rule="nonzero"/></g><g transform="matrix(1 0 0 -1 20.145555556 6.83)"><use xlink:href="#gE39777278336197727783BE5B293B73F" x="0" y="0" fill="#1a1a18" fill-rule="nonzero"/></g><g transform="matrix(1 0 0 -1 28.925555556 6.83)"><use xlink:href="#gCD9466D03AA6A321818B7B1ED83671C" x="0" y="0" fill="#1a1a18" fill-rule="nonzero"/></g><g transform="matrix(1 0 0 -1 33.885555556 6.83)"><use xlink:href="#gEB42AA6B16CD6CC587468757B2CBC685" x="0" y="0" fill="#1a1a18" fill-rule="nonzero"/></g><g transform="matrix(1 0 0 -1 41.303333333 6.83)"><use xlink:href="#g7679559C61795D4B2FBCEF1D6942AEE" x="0" y="0" fill="#1a1a18" fill-rule="nonzero"/></g><g transform="matrix(1 0 0 -1 49.083333333 6.83)"><use xlink:href="#g4EBB1F3D0BF6FE82BDD24154E2664365" x="2.5" y="0" fill="#1a1a18" fill-rule="nonzero"/><use xlink:href="#g1949E26DD82F6B316E546E7EB77B6230" x="6.78" y="0" fill="#1a1a18" fill-rule="nonzero"/><use xlink:href="#gB32648D7E57343E75CA5868C31ED96D6" x="11.82" y="0" fill="#1a1a18" fill-rule="nonzero"/><use xlink:href="#g3D622AE3CE3D42D3B87266F2FD71B749" x="17.24" y="0" fill="#1a1a18" fill-rule="nonzero"/><use xlink:href="#g3326E2553F6DEBD80E9BA175A8944F5E" x="21.14" y="0" fill="#1a1a18" fill-rule="nonzero"/></g><g transform="matrix(1 0 0 -1 84.387270341 6.83)"><use xlink:href="#g4BC4EAB79DF3D72C4200BD5978278472" x="0" y="0" fill="#1a1a18" fill-rule="nonzero"/></g><g transform="matrix(1 0 0 -1 103.85656168 6.83)"><use xlink:href="#gEB42AA6B16CD6CC587468757B2CBC685" x="0" y="0" fill="#1a1a18" fill-rule="nonzero"/></g><g transform="matrix(1 0 0 -1 111.274339458 6.83)"><use xlink:href="#gD8CE28695A0915EF17EE9AF4A7CD4BAA" x="0" y="0" fill="#1a1a18" fill-rule="nonzero"/></g><g transform="matrix(1 0 0 -1 116.274339458 6.83)"><use xlink:href="#g4BC4EAB79DF3D72C4200BD5978278472" x="2.5" y="0" fill="#1a1a18" fill-rule="nonzero"/></g><g transform="matrix(1 0 0 -1 132.574339458 6.83)"><use xlink:href="#gCD9466D03AA6A321818B7B1ED83671C" x="0" y="0" fill="#1a1a18" fill-rule="nonzero"/></g><g transform="matrix(1 0 0 -1 140.312117235 6.83)"><use xlink:href="#g132A4B30C0AAE8C12DA170AAB17B252E" x="0" y="0" fill="#1a1a18" fill-rule="nonzero"/></g></g></g><defs><symbol id="g511BF44F6144F987FD158E3BB6CA6901" overflow="visible"><path d="M 0 0m 3.1365 3.3235c 0 -0.068 0.0765 -0.1785 0.2125 -0.3485c 0.136 -0.17 0.204 -0.3655 0.204 -0.5865c 0 -0.2465 -0.119 -0.663 -0.3655 -1.2495c -0.1785 -0.408 -0.5865 -0.986 -1.088 -0.986c -0.391 0 -0.5865 0.2295 -0.5865 0.697c 0 0.3315 0.1615 0.918 0.4845 1.7595c 0.068 0.1785 0.102 0.323 0.102 0.425c 0 0.425 -0.289 0.7225 -0.714 0.7225c -0.374 0 -0.6715 -0.2125 -0.884 -0.6375c -0.17 -0.3485 -0.255 -0.5695 -0.255 -0.68c 0 -0.0765 0.0425 -0.119 0.136 -0.119c 0.1105 0 0.1275 0.051 0.1615 0.17c 0.1955 0.68 0.4675 1.02 0.816 1.02c 0.1105 0 0.17 -0.0765 0.17 -0.238c 0 -0.136 -0.0425 -0.323 -0.136 -0.5695c -0.3145 -0.8415 -0.476 -1.411 -0.476 -1.7255c 0 -0.4335 0.1445 -0.731 0.4335 -0.8925c 0.2295 -0.119 0.4675 -0.1785 0.714 -0.1785c 0.7565 0 1.2835 0.816 1.5045 1.4705c 0.272 0.799 0.408 1.3855 0.408 1.7595c 0 0.4165 -0.136 0.6205 -0.3995 0.6205c -0.2125 0 -0.442 -0.221 -0.442 -0.4335Z "/></symbol><symbol id="gEBA783684BF401862FFC721960A8EC10" overflow="visible"><path d="M 0 0m 3.706 3.179c 0 0.357 -0.3485 0.578 -0.7225 0.578c -0.4165 0 -0.765 -0.1955 -1.054 -0.595c -0.085 0.3315 -0.374 0.595 -0.7735 0.595c -0.3485 0 -0.6035 -0.272 -0.782 -0.8245c -0.085 -0.2805 -0.1275 -0.442 -0.1275 -0.493c 0 -0.0765 0.0425 -0.119 0.136 -0.119c 0.0425 0 0.068 0.0085 0.0935 0.0255c 0.0425 0.0765 0.068 0.136 0.0765 0.1955c 0.153 0.646 0.3485 0.969 0.578 0.969c 0.1445 0 0.221 -0.119 0.221 -0.357c 0 -0.1105 -0.0425 -0.34 -0.1275 -0.6885l -0.4845 -1.9295c -0.0255 -0.1105 -0.0765 -0.3315 -0.0765 -0.374c 0 -0.17 0.0935 -0.255 0.272 -0.255c 0.17 0 0.2805 0.085 0.34 0.255l 0.1615 0.612c 0.0935 0.3655 0.153 0.6035 0.1785 0.714l 0.2635 1.088c 0.017 0.068 0.085 0.1785 0.1955 0.34c 0.2295 0.323 0.493 0.595 0.9095 0.595c 0.102 0 0.187 -0.017 0.2635 -0.0595c -0.255 -0.0765 -0.3825 -0.238 -0.3825 -0.4675c 0 -0.221 0.119 -0.3315 0.3485 -0.3315c 0.2805 0 0.493 0.2465 0.493 0.527Z "/></symbol><symbol id="g9F99202881449AD6C0CCCD21824C9AF1" overflow="visible"><path d="M 0 0m 3.184 0.728c -0.032 0.072 -0.096 0.104 -0.168 0.112c -0.272 -0.352 -0.616 -0.528 -0.96 -0.528c -0.584 0 -1.072 0.592 -1.072 1.528c 0 0.88 0.384 1.408 0.912 1.408c 0.472 0 0.536 -0.28 0.568 -0.56c 0.024 -0.216 0.136 -0.288 0.304 -0.288c 0.168 0 0.392 0.104 0.392 0.352c 0 0.44 -0.456 0.76 -1.224 0.76c -0.792 0 -1.64 -0.712 -1.64 -1.848c 0 -1.032 0.576 -1.744 1.584 -1.744c 0.48 0 0.904 0.152 1.304 0.808Z "/></symbol><symbol id="gA5E490FFA4C27385B24874A3876C7C8C" overflow="visible"><path d="M 0 0m 0.872 0c 0.16 0.008 0.296 0.192 0.4 0.408l 0.344 0.72c 0.144 0.296 0.368 0.512 0.912 0.544v -0.696c 0 -0.664 -0.096 -0.688 -0.504 -0.728c -0.048 -0.048 -0.048 -0.216 0 -0.264c 0.184 0.008 0.48 0.016 0.8 0.016c 0.312 0 0.616 -0.008 0.792 -0.016c 0.048 0.048 0.048 0.216 0 0.264c -0.408 0.032 -0.504 0.064 -0.504 0.728v 0.696c 0.544 -0.032 0.768 -0.248 0.912 -0.544l 0.344 -0.72c 0.104 -0.216 0.24 -0.4 0.4 -0.408c 0 0 0.592 -0.008 0.752 -0.016c 0.048 0.048 0.048 0.216 0 0.264c -0.312 0.016 -0.392 0.08 -0.528 0.336l -0.36 0.68c -0.2 0.376 -0.464 0.568 -0.92 0.568v 0.024c 0.312 0.088 0.448 0.368 0.568 0.688c 0.096 0.248 0.192 0.4 0.36 0.4c 0.072 0 0.136 -0.024 0.184 -0.056c 0.048 -0.032 0.136 -0.056 0.24 -0.056c 0.176 0 0.32 0.152 0.32 0.312c 0 0.176 -0.192 0.36 -0.456 0.36c -0.464 0 -0.68 -0.432 -0.832 -0.808c -0.176 -0.44 -0.416 -0.744 -0.984 -0.744v 0.504c 0 0.664 0.096 0.688 0.504 0.728c 0.048 0.048 0.048 0.216 0 0.264c -0.192 -0.008 -0.48 -0.016 -0.8 -0.016c -0.312 0 -0.608 0.008 -0.792 0.016c -0.048 -0.048 -0.048 -0.216 0 -0.264c 0.408 -0.032 0.504 -0.064 0.504 -0.728v -0.504c -0.568 0 -0.808 0.304 -0.984 0.744c -0.152 0.376 -0.368 0.808 -0.832 0.808c -0.264 0 -0.456 -0.184 -0.456 -0.36c 0 -0.16 0.144 -0.312 0.32 -0.312c 0.104 0 0.192 0.024 0.24 0.056c 0.048 0.032 0.112 0.056 0.184 0.056c 0.168 0 0.264 -0.152 0.36 -0.4c 0.12 -0.32 0.256 -0.6 0.568 -0.688v -0.024c -0.456 0 -0.72 -0.192 -0.92 -0.568l -0.36 -0.68c -0.136 -0.256 -0.216 -0.32 -0.528 -0.336c -0.048 -0.048 -0.048 -0.216 0 -0.264c 0.16 0.008 0.752 0.016 0.752 0.016Z "/></symbol><symbol id="gF79D9CC171E1ACC5162F855F1894F43E" overflow="visible"><path d="M 0 0m 2.344 0.384c 0.048 -0.248 0.136 -0.464 0.536 -0.464c 0.304 0 0.592 0.136 0.76 0.296c -0.016 0.096 -0.048 0.168 -0.136 0.216c -0.056 -0.048 -0.192 -0.128 -0.296 -0.128c -0.232 0 -0.24 0.312 -0.24 0.68v 1.176c 0 1.136 -0.624 1.352 -1.208 1.352c -0.656 0 -1.32 -0.432 -1.32 -0.888c 0 -0.192 0.096 -0.288 0.28 -0.288c 0.232 0 0.376 0.168 0.376 0.272c 0 0.056 -0.008 0.112 -0.024 0.144c -0.008 0.024 -0.016 0.072 -0.016 0.16c 0 0.248 0.336 0.336 0.64 0.336c 0.272 0 0.648 -0.136 0.648 -1.04c 0 -0.056 -0.024 -0.088 -0.048 -0.096l -0.688 -0.168c -0.768 -0.192 -1.32 -0.616 -1.32 -1.16c 0 -0.656 0.448 -0.864 1.008 -0.864c 0.28 0 0.52 0.064 0.872 0.336l 0.16 0.128Z m 0 1.48v -1.056c 0 -0.104 -0.048 -0.16 -0.112 -0.208c -0.208 -0.168 -0.48 -0.352 -0.704 -0.352c -0.4 0 -0.576 0.32 -0.576 0.568c 0 0.36 0.168 0.728 0.76 0.88Z "/></symbol><symbol id="gE09E60C0AC8E2E10ADA02C2F49261352" overflow="visible"><path d="M 0 0m 1.456 0.976c 0 -0.664 -0.088 -0.704 -0.576 -0.728c -0.048 -0.048 -0.048 -0.216 0 -0.264c 0.312 0.008 0.632 0.016 0.896 0.016c 0.272 0 0.584 -0.008 0.888 -0.016c 0.048 0.048 0.048 0.216 0 0.264c -0.488 0.024 -0.576 0.064 -0.576 0.728v 2.16h 0.136c 0.648 0 0.776 -0.224 0.912 -0.872c 0.104 0 0.208 0.032 0.208 0.032c -0.048 0.368 -0.08 0.72 -0.088 1.184c -0.184 -0.016 -0.784 -0.048 -1.184 -0.048h -0.6c -0.4 0 -0.848 0.024 -1.168 0.048c -0.008 -0.464 -0.04 -0.816 -0.096 -1.184c 0 0 0.112 -0.032 0.216 -0.032c 0.136 0.648 0.256 0.872 0.912 0.872h 0.12Z "/></symbol><symbol id="gDF0740817C60D01D4C0A2F901DD857A7" overflow="visible"><path d="M 0 0m 1.584 0.504c -0.024 0 -0.056 0.016 -0.056 0.096v 1.824c 0 0.664 0.168 0.736 0.576 0.76c 0.048 0.048 0.048 0.216 0 0.264c -0.184 -0.008 -0.64 -0.016 -0.936 -0.016c -0.264 0 -0.584 0.008 -0.888 0.016c -0.048 -0.048 -0.048 -0.216 0 -0.264c 0.488 -0.024 0.616 -0.096 0.616 -0.76v -1.416c 0 -0.664 -0.128 -0.736 -0.616 -0.76c -0.048 -0.048 -0.048 -0.216 0 -0.264c 0.312 0.008 0.632 0.016 0.888 0.016c 0.184 0 0.4 -0.008 0.488 -0.016c 0.04 0.112 0.112 0.272 0.2 0.432l 1.248 2.504c 0.024 0 0.056 -0.016 0.056 -0.096v -1.816c 0 -0.664 -0.168 -0.736 -0.576 -0.76c -0.048 -0.048 -0.048 -0.216 0 -0.264c 0.184 0.008 0.616 0.016 0.936 0.016c 0.248 0 0.576 -0.008 0.888 -0.016c 0.048 0.048 0.048 0.216 0 0.264c -0.488 0.024 -0.616 0.096 -0.616 0.76v 1.416c 0 0.664 0.128 0.736 0.616 0.76c 0.048 0.048 0.048 0.216 0 0.264c -0.32 -0.008 -0.64 -0.016 -0.888 -0.016c -0.176 0 -0.4 0.008 -0.48 0.016c -0.064 -0.144 -0.136 -0.312 -0.208 -0.448Z "/></symbol><symbol id="g465CA45D0696F5BBCE5E7A11B5E63D98" overflow="visible"><path d="M 0 0m 3.088 0.744c -0.296 -0.304 -0.528 -0.432 -0.992 -0.432c -0.288 0 -0.624 0.168 -0.872 0.576c -0.16 0.264 -0.256 0.632 -0.256 1.096l 2.128 -0.016c 0.096 0 0.152 0.048 0.152 0.136c 0 0.672 -0.24 1.392 -1.352 1.392c -0.696 0 -1.6 -0.664 -1.6 -1.88c 0 -0.448 0.112 -0.88 0.376 -1.184c 0.272 -0.32 0.648 -0.512 1.224 -0.512c 0.608 0 1.04 0.28 1.36 0.696c -0.024 0.08 -0.072 0.12 -0.168 0.128Z m -2.096 1.512c 0.152 0.904 0.712 0.976 0.904 0.976c 0.304 0 0.664 -0.168 0.664 -0.84c 0 -0.072 -0.032 -0.112 -0.12 -0.112Z "/></symbol><symbol id="g93CDC01680B3E2FB50DA8122ECFF4EE7" overflow="visible"><path d="M 0 0m 2.0145 5.661c -0.4335 0 -0.799 -0.153 -1.1135 -0.459c -0.3145 -0.306 -0.476 -0.663 -0.476 -1.0965c 0 -0.289 0.2125 -0.5015 0.476 -0.5015c 0.255 0 0.4675 0.221 0.4675 0.476c 0 0.2805 -0.204 0.476 -0.476 0.476c -0.0255 0 -0.0425 0 -0.0595 -0.0085c 0.1615 0.4165 0.5355 0.782 1.071 0.782c 0.697 0 1.088 -0.6035 1.088 -1.3345c 0 -0.5695 -0.289 -1.1815 -0.867 -1.8275l -1.598 -1.802c -0.1105 -0.1275 -0.102 -0.119 -0.102 -0.3655h 3.1535l 0.2465 1.53h -0.2805c -0.068 -0.4335 -0.1275 -0.68 -0.1785 -0.7565c -0.0425 -0.0425 -0.2975 -0.0595 -0.765 -0.0595h -1.4195l 0.8245 0.8075c 0.578 0.544 1.309 1.1305 1.5555 1.581c 0.17 0.2975 0.255 0.595 0.255 0.8925c 0 1.003 -0.782 1.666 -1.802 1.666Z "/></symbol><symbol id="g2CFCCBD92B84DA19091A9B4312B8AEF4" overflow="visible"><path d="M 0 0m 3.774 6.103c 0.0085 0.017 0.0085 0.0425 0.0085 0.068c 0 0.136 -0.068 0.204 -0.204 0.204c -0.0935 0 -0.153 -0.0425 -0.187 -0.136l -2.907 -8.092c -0.0085 -0.017 -0.0085 -0.0425 -0.0085 -0.068c 0 -0.136 0.068 -0.204 0.204 -0.204c 0.0935 0 0.153 0.0425 0.187 0.136Z "/></symbol><symbol id="g71AD0CC7374456C85E3945751B97D8DE" overflow="visible"><path d="M 0 0m 5.2 6.67c 0 0.11 -0.07 0.16 -0.2 0.16l -1.46 -0.03l -1.31 0.03c -0.15 0.01 -0.23 -0.07 -0.23 -0.24c 0 -0.07 0.03 -0.12 0.09 -0.13c 0.09 -0.01 0.17 -0.02 0.22 -0.02c 0.31 -0.01 0.48 -0.03 0.53 -0.04c 0.05 -0.01 0.08 -0.04 0.08 -0.09c 0 -0.02 -0.01 -0.08 -0.04 -0.18l -1.32 -5.31c -0.06 -0.22 -0.16 -0.35 -0.31 -0.4c -0.06 -0.02 -0.24 -0.03 -0.55 -0.03c -0.21 0 -0.31 -0.08 -0.31 -0.24c 0 -0.1 0.1 -0.15 0.31 -0.15h 4.57c 0.25 0 0.27 0 0.34 0.19l 0.78 2.14c 0.03 0.07 0.04 0.12 0.04 0.15c 0 0.1 -0.05 0.15 -0.16 0.15c -0.1 0 -0.15 -0.09 -0.2 -0.23c -0.19 -0.49 -0.37 -0.86 -0.52 -1.09c -0.37 -0.56 -1 -0.92 -1.92 -0.92h -0.93c -0.11 0 -0.18 0 -0.21 0.01c -0.07 0 -0.1 0.02 -0.1 0.05c 0 0.02 0.02 0.09 0.05 0.22l 1.33 5.34c 0.06 0.23 0.19 0.36 0.38 0.41c 0.06 0.01 0.27 0.02 0.63 0.02c 0.28 0 0.42 0 0.42 0.23Z "/></symbol><symbol id="g7679559C61795D4B2FBCEF1D6942AEE" overflow="visible"><path d="M 0 0m 6.98 3.67h -6.18c -0.16 0 -0.24 -0.08 -0.24 -0.23c 0 -0.15 0.08 -0.23 0.24 -0.23h 6.18c 0.16 0 0.24 0.08 0.24 0.23c 0 0.12 -0.11 0.23 -0.24 0.23Z m 0 -1.88h -6.18c -0.16 0 -0.24 -0.08 -0.24 -0.23c 0 -0.15 0.08 -0.23 0.24 -0.23h 6.18c 0.16 0 0.24 0.08 0.24 0.23c 0 0.13 -0.11 0.23 -0.24 0.23Z "/></symbol><symbol id="gE39777278336197727783BE5B293B73F" overflow="visible"><path d="M 0 0m 6.57 4.42c -0.61 0 -1.14 -0.3 -1.59 -0.89c -0.09 0.59 -0.47 0.89 -1.15 0.89c -0.59 0 -1.1 -0.26 -1.52 -0.79c -0.08 0.44 -0.43 0.79 -0.94 0.79c -0.41 0 -0.71 -0.33 -0.92 -0.98c -0.11 -0.32 -0.16 -0.51 -0.16 -0.57c 0 -0.09 0.05 -0.14 0.16 -0.14c 0.05 0 0.08 0.01 0.11 0.03c 0.05 0.09 0.08 0.16 0.1 0.23c 0.18 0.76 0.41 1.14 0.68 1.14c 0.18 0 0.27 -0.14 0.27 -0.42c 0 -0.13 -0.05 -0.4 -0.16 -0.81l -0.57 -2.27c -0.04 -0.12 -0.09 -0.38 -0.09 -0.44c 0 -0.2 0.11 -0.3 0.32 -0.3c 0.2 0 0.34 0.1 0.41 0.3c 0.01 0.05 0.08 0.3 0.19 0.73l 0.21 0.89l 0.3 1.14c 0.11 0.23 0.28 0.46 0.5 0.7c 0.29 0.32 0.65 0.48 1.08 0.48c 0.33 0 0.49 -0.22 0.49 -0.65c 0 -0.13 -0.05 -0.4 -0.15 -0.81l -0.27 -1.14c -0.07 -0.29 -0.23 -0.89 -0.31 -1.21c -0.01 -0.07 -0.02 -0.11 -0.02 -0.13c 0 -0.2 0.11 -0.3 0.33 -0.3c 0.11 0 0.19 0.03 0.26 0.1c 0.15 0.15 0.16 0.22 0.22 0.49l 0.59 2.37c 0.03 0.13 0.17 0.36 0.41 0.68c 0.3 0.4 0.7 0.6 1.19 0.6c 0.33 0 0.49 -0.22 0.49 -0.65c 0 -0.39 -0.2 -1.12 -0.61 -2.19c -0.09 -0.23 -0.13 -0.42 -0.13 -0.55c 0 -0.49 0.37 -0.85 0.85 -0.85c 0.45 0 0.79 0.25 1.04 0.75c 0.2 0.4 0.3 0.67 0.3 0.8c 0 0.09 -0.05 0.14 -0.16 0.14c -0.07 -0.01 -0.14 -0.1 -0.19 -0.21c -0.22 -0.79 -0.54 -1.19 -0.97 -1.19c -0.13 0 -0.2 0.1 -0.2 0.29c 0 0.15 0.06 0.37 0.18 0.68c 0.41 1.07 0.61 1.8 0.61 2.18c 0 0.71 -0.47 1.09 -1.18 1.09Z "/></symbol><symbol id="gCD9466D03AA6A321818B7B1ED83671C" overflow="visible"><path d="M 0 0m 3.69 3.91c 0 -0.08 0.09 -0.21 0.25 -0.41c 0.16 -0.2 0.24 -0.43 0.24 -0.69c 0 -0.29 -0.14 -0.78 -0.43 -1.47c -0.21 -0.48 -0.69 -1.16 -1.28 -1.16c -0.46 0 -0.69 0.27 -0.69 0.82c 0 0.39 0.19 1.08 0.57 2.07c 0.08 0.21 0.12 0.38 0.12 0.5c 0 0.5 -0.34 0.85 -0.84 0.85c -0.44 0 -0.79 -0.25 -1.04 -0.75c -0.2 -0.41 -0.3 -0.67 -0.3 -0.8c 0 -0.09 0.05 -0.14 0.16 -0.14c 0.13 0 0.15 0.06 0.19 0.2c 0.23 0.8 0.55 1.2 0.96 1.2c 0.13 0 0.2 -0.09 0.2 -0.28c 0 -0.16 -0.05 -0.38 -0.16 -0.67c -0.37 -0.99 -0.56 -1.66 -0.56 -2.03c 0 -0.51 0.17 -0.86 0.51 -1.05c 0.27 -0.14 0.55 -0.21 0.84 -0.21c 0.89 0 1.51 0.96 1.77 1.73c 0.32 0.94 0.48 1.63 0.48 2.07c 0 0.49 -0.16 0.73 -0.47 0.73c -0.25 0 -0.52 -0.26 -0.52 -0.51Z "/></symbol><symbol id="gEB42AA6B16CD6CC587468757B2CBC685" overflow="visible"><path d="M 0 0m 4.36 3.74c 0 0.42 -0.41 0.68 -0.85 0.68c -0.49 0 -0.9 -0.23 -1.24 -0.7c -0.1 0.39 -0.44 0.7 -0.91 0.7c -0.41 0 -0.71 -0.32 -0.92 -0.97c -0.1 -0.33 -0.15 -0.52 -0.15 -0.58c 0 -0.09 0.05 -0.14 0.16 -0.14c 0.05 0 0.08 0.01 0.11 0.03c 0.05 0.09 0.08 0.16 0.09 0.23c 0.18 0.76 0.41 1.14 0.68 1.14c 0.17 0 0.26 -0.14 0.26 -0.42c 0 -0.13 -0.05 -0.4 -0.15 -0.81l -0.57 -2.27c -0.03 -0.13 -0.09 -0.39 -0.09 -0.44c 0 -0.2 0.11 -0.3 0.32 -0.3c 0.2 0 0.33 0.1 0.4 0.3l 0.19 0.72c 0.11 0.43 0.18 0.71 0.21 0.84l 0.31 1.28c 0.02 0.08 0.1 0.21 0.23 0.4c 0.27 0.38 0.58 0.7 1.07 0.7c 0.12 0 0.22 -0.02 0.31 -0.07c -0.3 -0.09 -0.45 -0.28 -0.45 -0.55c 0 -0.26 0.14 -0.39 0.41 -0.39c 0.33 0 0.58 0.29 0.58 0.62Z "/></symbol><symbol id="g4EBB1F3D0BF6FE82BDD24154E2664365" overflow="visible"><path d="M 0 0m 3.98 0.91c -0.04 0.09 -0.12 0.13 -0.21 0.14c -0.34 -0.44 -0.77 -0.66 -1.2 -0.66c -0.73 0 -1.34 0.74 -1.34 1.91c 0 1.1 0.48 1.76 1.14 1.76c 0.59 0 0.67 -0.35 0.71 -0.7c 0.03 -0.27 0.17 -0.36 0.38 -0.36c 0.21 0 0.49 0.13 0.49 0.44c 0 0.55 -0.57 0.95 -1.53 0.95c -0.99 0 -2.05 -0.89 -2.05 -2.31c 0 -1.29 0.72 -2.18 1.98 -2.18c 0.6 0 1.13 0.19 1.63 1.01Z "/></symbol><symbol id="g1949E26DD82F6B316E546E7EB77B6230" overflow="visible"><path d="M 0 0m 0.41 2.05c 0 -1.02 0.68 -2.15 2.1 -2.15c 0.64 0 1.13 0.23 1.47 0.56c 0.45 0.44 0.65 1.07 0.65 1.68c 0 1.04 -0.57 2.25 -2.1 2.25c -0.66 0 -1.2 -0.27 -1.57 -0.7c -0.36 -0.43 -0.55 -1.01 -0.55 -1.64Z m 1.97 1.99c 0.86 0 1.39 -0.78 1.39 -2.22c 0 -1.26 -0.65 -1.57 -1.12 -1.57c -1.04 0 -1.38 1.26 -1.38 2.03c 0 0.87 0.21 1.76 1.11 1.76Z "/></symbol><symbol id="gB32648D7E57343E75CA5868C31ED96D6" overflow="visible"><path d="M 0 0m 1.84 3.58c -0.06 -0.07 -0.12 -0.09 -0.12 0c -0.01 0.27 -0.03 0.66 -0.08 0.76c -0.02 0.05 -0.04 0.08 -0.12 0.08c -0.28 -0.11 -0.54 -0.2 -1.23 -0.29c -0.02 -0.06 0 -0.22 0.02 -0.28c 0.54 -0.05 0.65 -0.1 0.65 -0.68v -1.95c 0 -0.82 -0.1 -0.86 -0.7 -0.91c -0.06 -0.06 -0.06 -0.27 0 -0.33c 0.3 0.01 0.7 0.02 1.1 0.02c 0.4 0 0.7 -0.01 1 -0.02c 0.06 0.06 0.06 0.27 0 0.33c -0.51 0.05 -0.61 0.09 -0.61 0.91v 1.64c 0 0.21 0.09 0.33 0.17 0.42c 0.38 0.37 0.83 0.59 1.22 0.59c 0.2 0 0.41 -0.13 0.53 -0.36c 0.1 -0.2 0.12 -0.47 0.12 -0.77v -1.52c 0 -0.82 -0.1 -0.86 -0.62 -0.91c -0.05 -0.06 -0.05 -0.27 0 -0.33c 0.3 0.01 0.62 0.02 1.02 0.02c 0.4 0 0.76 -0.01 1.06 -0.02c 0.05 0.06 0.05 0.27 0 0.33c -0.56 0.05 -0.67 0.09 -0.67 0.91v 1.49c 0 0.55 -0.04 1.03 -0.27 1.34c -0.17 0.22 -0.48 0.34 -0.83 0.34c -0.49 0 -1.05 -0.13 -1.64 -0.81Z "/></symbol><symbol id="g3D622AE3CE3D42D3B87266F2FD71B749" overflow="visible"><path d="M 0 0m 0.48 1.38c 0.04 -0.49 0.07 -0.96 0.07 -1.38c 0.1 0.02 0.2 0.03 0.25 0.03c 0.07 0 0.13 0 0.2 -0.02c 0.27 -0.07 0.54 -0.11 0.91 -0.11c 0.56 0 1.59 0.27 1.59 1.26c 0 0.68 -0.49 1.08 -1.17 1.33c -0.6 0.23 -1 0.38 -1 0.93c 0 0.41 0.36 0.64 0.7 0.64c 0.22 0 0.8 -0.08 0.93 -0.93c 0.06 -0.06 0.26 -0.05 0.32 0.01c 0.03 0.36 0.05 0.73 0.06 1.06c -0.31 0.05 -0.79 0.19 -1.31 0.19c -0.74 0 -1.41 -0.48 -1.41 -1.12c 0 -0.73 0.33 -1.04 1.1 -1.36c 0.83 -0.34 1.02 -0.55 1.02 -0.98c 0 -0.49 -0.48 -0.7 -0.85 -0.7c -0.39 0 -0.61 0.13 -0.71 0.24c -0.22 0.23 -0.33 0.67 -0.39 0.92c -0.06 0.06 -0.25 0.05 -0.31 -0.01Z "/></symbol><symbol id="g3326E2553F6DEBD80E9BA175A8944F5E" overflow="visible"><path d="M 0 0m 0.43 4.29c -0.14 0 -0.18 -0.12 -0.18 -0.2v -0.13c 0 -0.05 0.01 -0.06 0.05 -0.06h 0.59v -3.01c 0 -0.71 0.31 -0.99 0.77 -0.99c 0.46 0 0.96 0.22 1.35 0.66c -0.02 0.1 -0.08 0.16 -0.18 0.17c -0.26 -0.2 -0.56 -0.28 -0.82 -0.28c -0.27 0 -0.33 0.3 -0.33 0.92v 2.53h 1.04c 0.1 0 0.24 0.04 0.24 0.13v 0.2c 0 0.04 -0.03 0.06 -0.08 0.06h -1.2v 0.39c 0 0.65 0.04 1.05 0.04 1.05c 0 0.06 -0.03 0.09 -0.08 0.09c -0.04 0 -0.13 -0.04 -0.22 -0.09c -0.11 -0.06 -0.21 -0.11 -0.34 -0.14c -0.12 -0.04 -0.22 -0.07 -0.22 -0.14c 0 -0.12 0.03 -0.05 0.03 -1.16Z "/></symbol><symbol id="g4BC4EAB79DF3D72C4200BD5978278472" overflow="visible"><path d="M 0 0m 8.56 0.82c 0.86 0.97 1.67 1.53 2.16 1.7v 0.23c -1.08 0.44 -2.16 1.72 -2.16 1.73h -0.4c 0.39 -0.84 0.8 -1.3 1.13 -1.57h -8.7v -0.52h 8.7c -0.32 -0.31 -0.81 -0.85 -1.11 -1.57Z "/></symbol><symbol id="gD8CE28695A0915EF17EE9AF4A7CD4BAA" overflow="visible"><path d="M 0 0m 4.63 0.38c 0.11 0.03 0.17 0.11 0.17 0.23c 0 0.16 -0.08 0.24 -0.24 0.24c -0.03 0 -0.05 -0.01 -0.07 -0.02c -0.72 -0.21 -1.3 -0.65 -1.75 -1.31v 7.27c 0 0.16 -0.08 0.24 -0.24 0.24c -0.16 0 -0.24 -0.08 -0.24 -0.24v -7.27c -0.45 0.66 -1.03 1.1 -1.75 1.31c -0.02 0.01 -0.04 0.02 -0.07 0.02c -0.16 0 -0.24 -0.08 -0.24 -0.24c 0 -0.12 0.06 -0.2 0.17 -0.23c 0.43 -0.13 0.8 -0.35 1.12 -0.66c 0.45 -0.45 0.73 -0.91 0.84 -1.38c 0.02 -0.09 0.08 -0.13 0.17 -0.13c 0.09 0 0.15 0.04 0.17 0.13c 0.11 0.47 0.39 0.93 0.84 1.38c 0.32 0.31 0.69 0.53 1.12 0.66Z "/></symbol><symbol id="g132A4B30C0AAE8C12DA170AAB17B252E" overflow="visible"><path d="M 0 0m 4.56 4.15c 0.16 0 0.24 0.08 0.24 0.24c 0 0.12 -0.06 0.2 -0.17 0.23c -0.43 0.13 -0.8 0.35 -1.12 0.66c -0.45 0.45 -0.73 0.91 -0.84 1.38c -0.02 0.09 -0.08 0.13 -0.17 0.13c -0.09 0 -0.15 -0.04 -0.17 -0.13c -0.11 -0.47 -0.39 -0.93 -0.84 -1.38c -0.32 -0.31 -0.69 -0.53 -1.12 -0.66c -0.11 -0.03 -0.17 -0.11 -0.17 -0.23c 0 -0.16 0.08 -0.24 0.24 -0.24c 0.03 0 0.05 0.01 0.07 0.02c 0.72 0.21 1.3 0.65 1.75 1.31v -7.27c 0 -0.16 0.08 -0.24 0.24 -0.24c 0.16 0 0.24 0.08 0.24 0.24v 7.27c 0.45 -0.66 1.03 -1.1 1.75 -1.31c 0.02 -0.01 0.04 -0.02 0.07 -0.02Z "/></symbol></defs></svg>