<svg viewBox="0 0 276.787401575 142.63711811" width="276.787401575pt" height="142.63711811pt" xmlns="http://www.w3.org/2000/svg" xmlns:xlink="http://www.w3.org/1999/xlink" xmlns:h5="http://www.w3.org/1999/xhtml"><path fill="#ffffff" fill-rule="nonzero" d="M 0 0v 142.63711811h 276.787401575v -142.63711811Z "/><g transform="translate(8 8)"><path fill="none" stroke="#1a1a18" stroke-width="0.6" stroke-linecap="butt" stroke-linejoin="miter" stroke-miterlimit="4" transform="translate(0 17.964228346)" d="M 0 0v 90.708661417h 119.05511811v -90.708661417h -119.05511811Z "/><path fill="none" transform="translate(33.189059055 24.010988189)" d="M 0 0h 52.677v 7.749h -52.677v -7.749Z "/><g transform="translate(33.189058913 24.010988189)"><g transform="matrix(1 0 0 -1 0 5.805)"><use xlink:href="#g1239A0512A1B87341728561DDAD55159" x="0" y="0" fill="#1a1a18" fill-rule="nonzero"/><use xlink:href="#g5A824CC7DE2794C6148A841DA384BF3F" x="5.481" y="0" fill="#1a1a18" fill-rule="nonzero"/><use xlink:href="#gCDDC6E40F48E7598936EA49DC3DBB5C8" x="10.674" y="0" fill="#1a1a18" fill-rule="nonzero"/><use xlink:href="#gA84CBA9482F4B4A17CEE09BB89B04FBA" x="13.977" y="0" fill="#1a1a18" fill-rule="nonzero"/><use xlink:href="#g2F6531DE89CEE38A2CBDC7B71834583C" x="19.593" y="0" fill="#1a1a18" fill-rule="nonzero"/><use xlink:href="#g40DD4A5BBDB2CB2720BA8BB26456342F" x="28.503" y="0" fill="#1a1a18" fill-rule="nonzero"/><use xlink:href="#g85F40F816B953BD33230079688C58792" x="31.338" y="0" fill="#1a1a18" fill-rule="nonzero"/><use xlink:href="#g817DC57461499C221E80891D2BC2D1BE" x="35.964" y="0" fill="#1a1a18" fill-rule="nonzero"/><use xlink:href="#g5563FF523BC3B78B4EC396984227E556" x="40.59" y="0" fill="#1a1a18" fill-rule="nonzero"/><use xlink:href="#g5563FF523BC3B78B4EC396984227E556" x="45.216" y="0" fill="#1a1a18" fill-rule="nonzero"/><use xlink:href="#gB322AC7793ACFE50828405DB758EFE54" x="49.842" y="0" fill="#1a1a18" fill-rule="nonzero"/></g></g><path fill="none" transform="translate(32.055559055 42.213362205)" d="M 0 0h 54.944v 5.36h -54.944v -5.36Z "/><g transform="translate(32.055558945 42.213362189)"><g transform="matrix(1 0 0 -1 0 5.264)"><use xlink:href="#g362A412C7577377BE4D103B9E5EDCC22" x="0" y="0" fill="#1a1a18" fill-rule="nonzero"/><use xlink:href="#gFF63DA2595F1651AF0C535BF803D9AEC" x="4.016" y="0" fill="#1a1a18" fill-rule="nonzero"/><use xlink:href="#g394EF21DFADF8A5ADE413A037787D49A" x="8.232" y="0" fill="#1a1a18" fill-rule="nonzero"/><use xlink:href="#g1A9694FA4202677694E328AC46097BF3" x="14.08" y="0" fill="#1a1a18" fill-rule="nonzero"/><use xlink:href="#g465CA45D0696F5BBCE5E7A11B5E63D98" x="18.392" y="0" fill="#1a1a18" fill-rule="nonzero"/><use xlink:href="#gE9BB349F7E32C39203BC6B218DF12838" x="21.968" y="0" fill="#1a1a18" fill-rule="nonzero"/><use xlink:href="#g5D01DA3AB390CB78D7E54204B7DC3F87" x="25.8" y="0" fill="#1a1a18" fill-rule="nonzero"/><use xlink:href="#g465CA45D0696F5BBCE5E7A11B5E63D98" x="29.832" y="0" fill="#1a1a18" fill-rule="nonzero"/><use xlink:href="#g9F99202881449AD6C0CCCD21824C9AF1" x="35.408" y="0" fill="#1a1a18" fill-rule="nonzero"/><use xlink:href="#gFF63DA2595F1651AF0C535BF803D9AEC" x="38.832" y="0" fill="#1a1a18" fill-rule="nonzero"/><use xlink:href="#g5D01DA3AB390CB78D7E54204B7DC3F87" x="43.048" y="0" fill="#1a1a18" fill-rule="nonzero"/><use xlink:href="#gE9BB349F7E32C39203BC6B218DF12838" x="47.08" y="0" fill="#1a1a18" fill-rule="nonzero"/><use xlink:href="#g5D01DA3AB390CB78D7E54204B7DC3F87" x="50.912" y="0" fill="#1a1a18" fill-rule="nonzero"/></g></g><path fill="none" stroke="#1a1a18" stroke-width="0.6" stroke-linecap="butt" stroke-linejoin="miter" stroke-miterlimit="4" transform="translate(59.527559055 51.979976378)" d="M 0 0v 3.397568129"/><path fill="#1a1a18" fill-rule="nonzero" stroke="#1a1a18" stroke-width="0.6" stroke-linecap="butt" stroke-linejoin="miter" stroke-miterlimit="4" transform="translate(57.401574803 55.377544409)" d="M 0 0m 2.125984252 5.669291339l -2.125984252 -5.669291339h 4.251968504l -2.125984252 5.669291339Z "/><path fill="none" transform="translate(26.743559055 65.419850394)" d="M 0 0h 65.568v 7.136h -65.568v -7.136Z "/><g transform="translate(26.743558961 65.419850283)"><g transform="matrix(1 0 0 -1 0 5.264)"><use xlink:href="#gF859B786D36C3A3EB6E93A57BC4F802" x="0" y="0" fill="#1a1a18" fill-rule="nonzero"/><use xlink:href="#g46DFAA35BC521B4F2378CE697B4B163E" x="4.688" y="0" fill="#1a1a18" fill-rule="nonzero"/><use xlink:href="#gF79D9CC171E1ACC5162F855F1894F43E" x="8.84" y="0" fill="#1a1a18" fill-rule="nonzero"/><use xlink:href="#gE9BB349F7E32C39203BC6B218DF12838" x="12.496" y="0" fill="#1a1a18" fill-rule="nonzero"/><use xlink:href="#gDF0740817C60D01D4C0A2F901DD857A7" x="16.328" y="0" fill="#1a1a18" fill-rule="nonzero"/><use xlink:href="#gFF63DA2595F1651AF0C535BF803D9AEC" x="21.016" y="0" fill="#1a1a18" fill-rule="nonzero"/><use xlink:href="#g5D01DA3AB390CB78D7E54204B7DC3F87" x="25.232" y="0" fill="#1a1a18" fill-rule="nonzero"/><use xlink:href="#g7783EC9FB0C16305C83035E8146994B5" x="29.264" y="0" fill="#1a1a18" fill-rule="nonzero"/><use xlink:href="#gF09D88C2290872E835CD22D560D52A5C" x="31.968" y="0" fill="#1a1a18" fill-rule="nonzero"/><use xlink:href="#gF79D9CC171E1ACC5162F855F1894F43E" x="35.456" y="0" fill="#1a1a18" fill-rule="nonzero"/><use xlink:href="#g3478CFDC408E67C5C7551BD6A62D2425" x="39.112" y="0" fill="#1a1a18" fill-rule="nonzero"/><use xlink:href="#g5D01DA3AB390CB78D7E54204B7DC3F87" x="42.44" y="0" fill="#1a1a18" fill-rule="nonzero"/><use xlink:href="#gE09E60C0AC8E2E10ADA02C2F49261352" x="46.472" y="0" fill="#1a1a18" fill-rule="nonzero"/><use xlink:href="#g5D01DA3AB390CB78D7E54204B7DC3F87" x="50.032" y="0" fill="#1a1a18" fill-rule="nonzero"/><use xlink:href="#gE9BB349F7E32C39203BC6B218DF12838" x="54.064" y="0" fill="#1a1a18" fill-rule="nonzero"/><use xlink:href="#g362A412C7577377BE4D103B9E5EDCC22" x="57.896" y="0" fill="#1a1a18" fill-rule="nonzero"/><use xlink:href="#gF79D9CC171E1ACC5162F855F1894F43E" x="61.912" y="0" fill="#1a1a18" fill-rule="nonzero"/></g></g><path fill="none" stroke="#1a1a18" stroke-width="0.6" stroke-linecap="butt" stroke-linejoin="miter" stroke-miterlimit="4" transform="translate(59.527559055 76.074464567)" d="M 0 0v 3.397568129"/><path fill="#1a1a18" fill-rule="nonzero" stroke="#1a1a18" stroke-width="0.6" stroke-linecap="butt" stroke-linejoin="miter" stroke-miterlimit="4" transform="translate(57.401574803 79.472032598)" d="M 0 0m 2.125984252 5.669291339l -2.125984252 -5.669291339h 4.251968504l -2.125984252 5.669291339Z "/><path fill="none" transform="translate(29.555559055 89.514338583)" d="M 0 0h 59.944v 7.136h -59.944v -7.136Z "/><g transform="translate(29.555558929 89.514338472)"><g transform="matrix(1 0 0 -1 0 5.264)"><use xlink:href="#gF859B786D36C3A3EB6E93A57BC4F802" x="0" y="0" fill="#7c7f6a" fill-rule="nonzero"/><use xlink:href="#g465CA45D0696F5BBCE5E7A11B5E63D98" x="4.688" y="0" fill="#7c7f6a" fill-rule="nonzero"/><use xlink:href="#g46DFAA35BC521B4F2378CE697B4B163E" x="8.264" y="0" fill="#7c7f6a" fill-rule="nonzero"/><use xlink:href="#g465CA45D0696F5BBCE5E7A11B5E63D98" x="12.416" y="0" fill="#7c7f6a" fill-rule="nonzero"/><use xlink:href="#gE9BB349F7E32C39203BC6B218DF12838" x="15.992" y="0" fill="#7c7f6a" fill-rule="nonzero"/><use xlink:href="#g5D01DA3AB390CB78D7E54204B7DC3F87" x="19.824" y="0" fill="#7c7f6a" fill-rule="nonzero"/><use xlink:href="#g46DFAA35BC521B4F2378CE697B4B163E" x="23.856" y="0" fill="#7c7f6a" fill-rule="nonzero"/><use xlink:href="#g5D01DA3AB390CB78D7E54204B7DC3F87" x="28.008" y="0" fill="#7c7f6a" fill-rule="nonzero"/><use xlink:href="#gE09E60C0AC8E2E10ADA02C2F49261352" x="32.04" y="0" fill="#7c7f6a" fill-rule="nonzero"/><use xlink:href="#g63A822DE08B9C7E24E7A5DAFD6086CFF" x="37.6" y="0" fill="#7c7f6a" fill-rule="nonzero"/><use xlink:href="#g46DFAA35BC521B4F2378CE697B4B163E" x="42.856" y="0" fill="#7c7f6a" fill-rule="nonzero"/><use xlink:href="#gF79D9CC171E1ACC5162F855F1894F43E" x="47.008" y="0" fill="#7c7f6a" fill-rule="nonzero"/><use xlink:href="#gF09D88C2290872E835CD22D560D52A5C" x="50.664" y="0" fill="#7c7f6a" fill-rule="nonzero"/><use xlink:href="#gADB3B27726748394AAF96F33FED6E9BE" x="54.152" y="0" fill="#7c7f6a" fill-rule="nonzero"/></g></g><path fill="none" stroke="#1a1a18" stroke-width="0.6" stroke-linecap="butt" stroke-linejoin="miter" stroke-miterlimit="4" transform="translate(141.732283465 17.964228346)" d="M 0 0v 90.708661417h 119.05511811v -90.708661417h -119.05511811Z "/><path fill="none" transform="translate(164.40034252 24.388988189)" d="M 0 0h 73.719v 6.993h -73.719v -6.993Z "/><g transform="translate(164.400342378 24.388988189)"><g transform="matrix(1 0 0 -1 0 5.805)"><use xlink:href="#g2656F7351AE9BCC561E7E4C94BCA011" x="0" y="0" fill="#1a1a18" fill-rule="nonzero"/><use xlink:href="#g118B72297A97CA7F6F1011529CDD556F" x="5.067" y="0" fill="#1a1a18" fill-rule="nonzero"/><use xlink:href="#gC3ADF69B1024D7CD0107CF96BC28FF2B" x="8.973" y="0" fill="#1a1a18" fill-rule="nonzero"/><use xlink:href="#g5B8E4A04E6E401332276CEB65FD12493" x="16.569" y="0" fill="#1a1a18" fill-rule="nonzero"/><use xlink:href="#gFF3B721CF16EC18D90CFF0CBD4D97C3" x="21.771" y="0" fill="#1a1a18" fill-rule="nonzero"/><use xlink:href="#g81457235ADAB1FD6575B764587FE8BBF" x="26.73" y="0" fill="#1a1a18" fill-rule="nonzero"/><use xlink:href="#gB4DC2168A3B47BC57D5C8D3F1253AE1" x="31.644" y="0" fill="#1a1a18" fill-rule="nonzero"/><use xlink:href="#g2656F7351AE9BCC561E7E4C94BCA011" x="36.198" y="0" fill="#1a1a18" fill-rule="nonzero"/><use xlink:href="#g79B7991D1C8E4DB2B79DED6D36C122E4" x="43.515" y="0" fill="#1a1a18" fill-rule="nonzero"/><use xlink:href="#gFF3B721CF16EC18D90CFF0CBD4D97C3" x="49.545" y="0" fill="#1a1a18" fill-rule="nonzero"/><use xlink:href="#g92DC8D65E49AD17244A3C90F6B625A04" x="54.504" y="0" fill="#1a1a18" fill-rule="nonzero"/><use xlink:href="#gB081D2A92777F88E827824BE27985EFD" x="59.346" y="0" fill="#1a1a18" fill-rule="nonzero"/><use xlink:href="#gFAE9846CBF526021E2232F7A92FCCDBF" x="63.747" y="0" fill="#1a1a18" fill-rule="nonzero"/><use xlink:href="#gA5E617B0695BE246E1D943ED94B9EDEB" x="69.057" y="0" fill="#1a1a18" fill-rule="nonzero"/></g></g><path fill="none" transform="translate(171.15184252 41.325362205)" d="M 0 0h 60.216v 7.136h -60.216v -7.136Z "/><g transform="translate(171.151842472 41.325362094)"><g transform="matrix(1 0 0 -1 0 5.264)"><use xlink:href="#g3478CFDC408E67C5C7551BD6A62D2425" x="0" y="0" fill="#1a1a18" fill-rule="nonzero"/><use xlink:href="#g46DFAA35BC521B4F2378CE697B4B163E" x="3.328" y="0" fill="#1a1a18" fill-rule="nonzero"/><use xlink:href="#g5D01DA3AB390CB78D7E54204B7DC3F87" x="7.48" y="0" fill="#1a1a18" fill-rule="nonzero"/><use xlink:href="#gE4F86D8BE8C69EC1EB36B973594724AB" x="11.512" y="0" fill="#1a1a18" fill-rule="nonzero"/><use xlink:href="#gF79D9CC171E1ACC5162F855F1894F43E" x="16.952" y="0" fill="#1a1a18" fill-rule="nonzero"/><use xlink:href="#gAC00C34078948F83CC62D60B02C8E81A" x="20.608" y="0" fill="#1a1a18" fill-rule="nonzero"/><use xlink:href="#g937124D7F3D66536776BB8DA5DFD7893" x="24.912" y="0" fill="#1a1a18" fill-rule="nonzero"/><use xlink:href="#gADB3B27726748394AAF96F33FED6E9BE" x="29.6" y="0" fill="#1a1a18" fill-rule="nonzero"/><use xlink:href="#g9E0D72929382BA054F8819A862FD1C38" x="35.392" y="0" fill="#1a1a18" fill-rule="nonzero"/><use xlink:href="#gE09E60C0AC8E2E10ADA02C2F49261352" x="42.08" y="0" fill="#1a1a18" fill-rule="nonzero"/><use xlink:href="#g465CA45D0696F5BBCE5E7A11B5E63D98" x="45.64" y="0" fill="#1a1a18" fill-rule="nonzero"/><use xlink:href="#g362A412C7577377BE4D103B9E5EDCC22" x="49.216" y="0" fill="#1a1a18" fill-rule="nonzero"/><use xlink:href="#g9F99202881449AD6C0CCCD21824C9AF1" x="53.232" y="0" fill="#1a1a18" fill-rule="nonzero"/><use xlink:href="#gE09E60C0AC8E2E10ADA02C2F49261352" x="56.656" y="0" fill="#1a1a18" fill-rule="nonzero"/></g></g><path fill="none" stroke="#1a1a18" stroke-width="0.6" stroke-linecap="butt" stroke-linejoin="miter" stroke-miterlimit="4" transform="translate(201.25984252 51.979976378)" d="M 0 0v 3.397568129"/><path fill="#1a1a18" fill-rule="nonzero" stroke="#1a1a18" stroke-width="0.6" stroke-linecap="butt" stroke-linejoin="miter" stroke-miterlimit="4" transform="translate(199.133858268 55.377544409)" d="M 0 0m 2.125984252 5.669291339l -2.125984252 -5.669291339h 4.251968504l -2.125984252 5.669291339Z "/><path fill="none" transform="translate(174.70384252 65.427850394)" d="M 0 0h 53.112v 7.12h -53.112v -7.12Z "/><g transform="translate(174.703842425 65.427850362)"><g transform="matrix(1 0 0 -1 0 5.264)"><use xlink:href="#g5D01DA3AB390CB78D7E54204B7DC3F87" x="0" y="0" fill="#1a1a18" fill-rule="nonzero"/><use xlink:href="#gDFD38EC9906BA626C5B7E69A103C103" x="4.032" y="0" fill="#1a1a18" fill-rule="nonzero"/><use xlink:href="#g89E7AED93332C4356E163D20D023452" x="7.944" y="0" fill="#1a1a18" fill-rule="nonzero"/><use xlink:href="#g1A9694FA4202677694E328AC46097BF3" x="12.064" y="0" fill="#1a1a18" fill-rule="nonzero"/><use xlink:href="#g465CA45D0696F5BBCE5E7A11B5E63D98" x="16.376" y="0" fill="#1a1a18" fill-rule="nonzero"/><use xlink:href="#g937124D7F3D66536776BB8DA5DFD7893" x="19.952" y="0" fill="#1a1a18" fill-rule="nonzero"/><use xlink:href="#g937124D7F3D66536776BB8DA5DFD7893" x="24.64" y="0" fill="#1a1a18" fill-rule="nonzero"/><use xlink:href="#gF79D9CC171E1ACC5162F855F1894F43E" x="29.328" y="0" fill="#1a1a18" fill-rule="nonzero"/><use xlink:href="#g3582D8D1264CABFCC073F09D45268688" x="32.984" y="0" fill="#1a1a18" fill-rule="nonzero"/><use xlink:href="#g9F99202881449AD6C0CCCD21824C9AF1" x="38.832" y="0" fill="#1a1a18" fill-rule="nonzero"/><use xlink:href="#g465CA45D0696F5BBCE5E7A11B5E63D98" x="42.256" y="0" fill="#1a1a18" fill-rule="nonzero"/><use xlink:href="#gE09E60C0AC8E2E10ADA02C2F49261352" x="45.832" y="0" fill="#1a1a18" fill-rule="nonzero"/><use xlink:href="#gC175399424EF2D6961EAC52DB2845054" x="49.392" y="0" fill="#1a1a18" fill-rule="nonzero"/></g></g><path fill="none" stroke="#1a1a18" stroke-width="0.6" stroke-linecap="butt" stroke-linejoin="miter" stroke-miterlimit="4" transform="translate(201.25984252 76.074464567)" d="M 0 0v 3.397568129"/><path fill="#1a1a18" fill-rule="nonzero" stroke="#1a1a18" stroke-width="0.6" stroke-linecap="butt" stroke-linejoin="miter" stroke-miterlimit="4" transform="translate(199.133858268 79.472032598)" d="M 0 0m 2.125984252 5.669291339l -2.125984252 -5.669291339h 4.251968504l -2.125984252 5.669291339Z "/><path fill="none" transform="translate(166.72384252 89.514338583)" d="M 0 0h 69.072v 7.136h -69.072v -7.136Z "/><g transform="translate(166.723842472 89.514338472)"><g transform="matrix(1 0 0 -1 0 5.264)"><use xlink:href="#gF859B786D36C3A3EB6E93A57BC4F802" x="0" y="0" fill="#7c7f6a" fill-rule="nonzero"/><use xlink:href="#g46DFAA35BC521B4F2378CE697B4B163E" x="4.688" y="0" fill="#7c7f6a" fill-rule="nonzero"/><use xlink:href="#g465CA45D0696F5BBCE5E7A11B5E63D98" x="8.84" y="0" fill="#7c7f6a" fill-rule="nonzero"/><use xlink:href="#gAC00C34078948F83CC62D60B02C8E81A" x="12.416" y="0" fill="#7c7f6a" fill-rule="nonzero"/><use xlink:href="#g9F99202881449AD6C0CCCD21824C9AF1" x="16.72" y="0" fill="#7c7f6a" fill-rule="nonzero"/><use xlink:href="#g362A412C7577377BE4D103B9E5EDCC22" x="20.144" y="0" fill="#7c7f6a" fill-rule="nonzero"/><use xlink:href="#gF79D9CC171E1ACC5162F855F1894F43E" x="24.16" y="0" fill="#7c7f6a" fill-rule="nonzero"/><use xlink:href="#gF09D88C2290872E835CD22D560D52A5C" x="27.816" y="0" fill="#7c7f6a" fill-rule="nonzero"/><use xlink:href="#gF79D9CC171E1ACC5162F855F1894F43E" x="31.304" y="0" fill="#7c7f6a" fill-rule="nonzero"/><use xlink:href="#g937124D7F3D66536776BB8DA5DFD7893" x="34.96" y="0" fill="#7c7f6a" fill-rule="nonzero"/><use xlink:href="#gDF0740817C60D01D4C0A2F901DD857A7" x="39.648" y="0" fill="#7c7f6a" fill-rule="nonzero"/><use xlink:href="#g465CA45D0696F5BBCE5E7A11B5E63D98" x="44.336" y="0" fill="#7c7f6a" fill-rule="nonzero"/><use xlink:href="#g9F99202881449AD6C0CCCD21824C9AF1" x="49.912" y="0" fill="#7c7f6a" fill-rule="nonzero"/><use xlink:href="#gFF63DA2595F1651AF0C535BF803D9AEC" x="53.336" y="0" fill="#7c7f6a" fill-rule="nonzero"/><use xlink:href="#g5D01DA3AB390CB78D7E54204B7DC3F87" x="57.552" y="0" fill="#7c7f6a" fill-rule="nonzero"/><use xlink:href="#gE9BB349F7E32C39203BC6B218DF12838" x="61.584" y="0" fill="#7c7f6a" fill-rule="nonzero"/><use xlink:href="#gF79D9CC171E1ACC5162F855F1894F43E" x="65.416" y="0" fill="#7c7f6a" fill-rule="nonzero"/></g></g><path fill="none" transform="translate(99.436700787)" d="M 0 0h 61.914v 7.582h -61.914v -7.582Z "/><g transform="translate(99.436700693 -1.26e-7)"><g transform="matrix(1 0 0 -1 0 5.593)"><use xlink:href="#g1EEFC323E4FEBE7654D5CC1583F61AF4" x="0" y="0" fill="#1a1a18" fill-rule="nonzero"/><use xlink:href="#gC8932C6BA7F518DC74E87E2F4A0224EB" x="3.638" y="0" fill="#1a1a18" fill-rule="nonzero"/><use xlink:href="#gF931FC691828778A920607CF18B9C32A" x="8.619" y="0" fill="#1a1a18" fill-rule="nonzero"/><use xlink:href="#g430571653545A60A3EF6386D136EADA3" x="12.5035" y="0" fill="#1a1a18" fill-rule="nonzero"/><use xlink:href="#g2884EEE83F88BF741DF31D9C41AEE180" x="16.915" y="0" fill="#1a1a18" fill-rule="nonzero"/><use xlink:href="#gEF81C0034748F108B423DC4F87ECC2EA" x="21.2925" y="0" fill="#1a1a18" fill-rule="nonzero"/><use xlink:href="#gE7AE90A8EDDEF3DDB67EE78D36D80337" x="27.2935" y="0" fill="#1a1a18" fill-rule="nonzero"/><use xlink:href="#gBEE50160BCD570B38DEF46393A725EED" x="34.3995" y="0" fill="#1a1a18" fill-rule="nonzero"/><use xlink:href="#gE34E15A46C94CBC2E6ABE8844A1DDB21" x="39.3805" y="0" fill="#1a1a18" fill-rule="nonzero"/><use xlink:href="#g2C6A451F1957B6BC42824B2C440B7E11" x="43.6645" y="0" fill="#1a1a18" fill-rule="nonzero"/><use xlink:href="#gE34E15A46C94CBC2E6ABE8844A1DDB21" x="47.8295" y="0" fill="#1a1a18" fill-rule="nonzero"/><use xlink:href="#gEF81C0034748F108B423DC4F87ECC2EA" x="52.1135" y="0" fill="#1a1a18" fill-rule="nonzero"/><use xlink:href="#g5D2E58E4CDB4D7E6C81847885E22D756" x="58.1145" y="0" fill="#1a1a18" fill-rule="nonzero"/></g></g><path fill="none" transform="translate(93.622700787 119.05511811)" d="M 0 0h 73.542v 7.582h -73.542v -7.582Z "/><g transform="translate(93.622700693 119.055117984)"><g transform="matrix(1 0 0 -1 0 5.593)"><use xlink:href="#g3D9A67B9902CBFFCF1182D85B33DBA41" x="0" y="0" fill="#827c70" fill-rule="nonzero"/><use xlink:href="#gC8932C6BA7F518DC74E87E2F4A0224EB" x="4.0715" y="0" fill="#827c70" fill-rule="nonzero"/><use xlink:href="#g2884EEE83F88BF741DF31D9C41AEE180" x="9.0525" y="0" fill="#827c70" fill-rule="nonzero"/><use xlink:href="#g3EDD64AE7B5A40E8FE9DD75D51E8EE8A" x="13.43" y="0" fill="#827c70" fill-rule="nonzero"/><use xlink:href="#g430571653545A60A3EF6386D136EADA3" x="17.2125" y="0" fill="#827c70" fill-rule="nonzero"/><use xlink:href="#gE7AE90A8EDDEF3DDB67EE78D36D80337" x="21.624" y="0" fill="#827c70" fill-rule="nonzero"/><use xlink:href="#gC8932C6BA7F518DC74E87E2F4A0224EB" x="28.73" y="0" fill="#827c70" fill-rule="nonzero"/><use xlink:href="#g5D2E58E4CDB4D7E6C81847885E22D756" x="33.711" y="0" fill="#827c70" fill-rule="nonzero"/><use xlink:href="#g1EEFC323E4FEBE7654D5CC1583F61AF4" x="37.5105" y="0" fill="#827c70" fill-rule="nonzero"/><use xlink:href="#g430571653545A60A3EF6386D136EADA3" x="41.1485" y="0" fill="#827c70" fill-rule="nonzero"/><use xlink:href="#gF931FC691828778A920607CF18B9C32A" x="45.56" y="0" fill="#827c70" fill-rule="nonzero"/><use xlink:href="#g3D9A67B9902CBFFCF1182D85B33DBA41" x="49.4445" y="0" fill="#827c70" fill-rule="nonzero"/><use xlink:href="#gC8932C6BA7F518DC74E87E2F4A0224EB" x="53.516" y="0" fill="#827c70" fill-rule="nonzero"/><use xlink:href="#gE7AE90A8EDDEF3DDB67EE78D36D80337" x="58.497" y="0" fill="#827c70" fill-rule="nonzero"/><use xlink:href="#gDEA2A0379B7527B5C1F8D88530B6617D" x="63.478" y="0" fill="#827c70" fill-rule="nonzero"/><use xlink:href="#gE34E15A46C94CBC2E6ABE8844A1DDB21" x="69.258" y="0" fill="#827c70" fill-rule="nonzero"/></g></g></g><defs><symbol id="g1239A0512A1B87341728561DDAD55159" overflow="visible"><path d="M 0 0m 2.907 3.285h -0.729v 1.701c 0 0.216 0.153 0.441 0.369 0.441h 0.765c 0.675 0 0.864 -0.342 1.062 -0.963c 0.108 -0.018 0.297 0 0.387 0.045c -0.045 0.369 -0.09 1.233 -0.108 1.305c 0 0.018 -0.009 0.027 -0.036 0.027c -0.153 -0.027 -0.225 -0.036 -0.441 -0.036h -2.655c 0 0 -0.936 0.009 -1.386 0.018c -0.054 -0.054 -0.054 -0.252 0 -0.306c 0.63 -0.027 0.783 -0.072 0.783 -0.819v -3.6c 0 -0.747 -0.153 -0.783 -0.783 -0.81c -0.054 -0.054 -0.054 -0.252 0 -0.306c 0.441 0.009 1.395 0.018 1.395 0.018h 2.115c 0.432 0 1.242 -0.018 1.242 -0.018c 0.126 0.45 0.171 1.044 0.243 1.503c -0.09 0.054 -0.288 0.072 -0.405 0.045c -0.18 -0.648 -0.585 -1.152 -1.269 -1.152h -0.909c -0.198 0 -0.369 0.189 -0.369 0.432v 2.061h 0.729c 0.621 0 0.792 -0.171 0.819 -0.576c 0.054 -0.054 0.333 -0.054 0.387 0c -0.009 0.315 -0.018 0.486 -0.018 0.792c 0 0.306 0.009 0.504 0.018 0.774c -0.054 0.054 -0.333 0.054 -0.387 0c -0.027 -0.495 -0.216 -0.576 -0.819 -0.576Z "/></symbol><symbol id="g5A824CC7DE2794C6148A841DA384BF3F" overflow="visible"><path d="M 0 0m 3.141 0.378h -0.54c -0.189 0 -0.315 0.171 -0.315 0.711v 3.618c 0 0.747 0.252 0.783 0.747 0.81c 0.09 0.054 0.09 0.252 0 0.306c -0.738 -0.009 -1.008 -0.018 -1.368 -0.018c -0.36 0 -1.386 0.018 -1.386 0.018c -0.09 -0.054 -0.09 -0.252 0 -0.306c 0.495 -0.027 0.747 -0.063 0.747 -0.81v -3.609c 0 -0.747 -0.252 -0.783 -0.747 -0.81c -0.09 -0.054 -0.09 -0.252 0 -0.306c 0 0 1.035 0.018 1.386 0.018h 2.007c 0.261 0 1.08 -0.018 1.08 -0.018c 0.09 0.45 0.18 1.035 0.234 1.503c -0.09 0.045 -0.279 0.063 -0.387 0.045c -0.18 -0.648 -0.513 -1.152 -1.458 -1.152Z "/></symbol><symbol id="gCDDC6E40F48E7598936EA49DC3DBB5C8" overflow="visible"><path d="M 0 0m 1.026 4.707v -3.609c 0 -0.747 -0.252 -0.783 -0.747 -0.81c -0.09 -0.054 -0.09 -0.252 0 -0.306c 0.36 0.009 1.026 0.018 1.386 0.018c 0.36 0 1.008 -0.009 1.368 -0.018c 0.09 0.054 0.09 0.252 0 0.306c -0.495 0.027 -0.747 0.063 -0.747 0.81v 3.609c 0 0.747 0.252 0.783 0.747 0.81c 0.09 0.054 0.09 0.252 0 0.306c -0.36 -0.009 -1.008 -0.018 -1.368 -0.018c -0.36 0 -1.026 0.009 -1.386 0.018c -0.09 -0.054 -0.09 -0.252 0 -0.306c 0.495 -0.027 0.747 -0.063 0.747 -0.81Z "/></symbol><symbol id="gA84CBA9482F4B4A17CEE09BB89B04FBA" overflow="visible"><path d="M 0 0m 3.861 0.396h -1.8c -0.279 0 -0.261 0.081 -0.144 0.252l 3.186 4.671c 0.18 0.261 0.198 0.315 0.198 0.414c 0 0.054 -0.027 0.09 -0.153 0.09c -0.117 0 -0.333 -0.018 -0.594 -0.018h -1.809c -0.693 0 -1.755 0.045 -2.097 0.072c -0.018 0 -0.036 -0.018 -0.036 -0.027c -0.036 -0.405 -0.135 -1.089 -0.234 -1.521c 0.09 -0.036 0.243 -0.045 0.351 -0.045c 0.18 0.72 0.558 1.134 1.152 1.134h 1.719c 0.162 0 0.081 -0.117 0.018 -0.207l -3.366 -4.869c -0.054 -0.072 -0.072 -0.144 -0.072 -0.207c 0 -0.09 0.045 -0.135 0.171 -0.135h 2.691c 0.693 0 1.755 -0.045 2.097 -0.072c 0.018 0 0.036 0.018 0.036 0.027c 0.072 0.27 0.189 1.053 0.243 1.593c -0.09 0.036 -0.243 0.045 -0.351 0.045c -0.18 -0.72 -0.612 -1.197 -1.206 -1.197Z "/></symbol><symbol id="g2F6531DE89CEE38A2CBDC7B71834583C" overflow="visible"><path d="M 0 0m 1.485 0.711l 0.477 1.251c 0.045 0.117 0.099 0.153 0.315 0.153h 1.71l 0.504 -1.467c 0.108 -0.324 -0.153 -0.333 -0.495 -0.351c -0.054 0 -0.117 -0.009 -0.171 -0.009c -0.054 -0.054 -0.054 -0.252 0 -0.306c 0.333 0.009 1.188 0.018 1.539 0.018c 0.369 0 0.873 -0.009 1.206 -0.018c 0.054 0.054 0.054 0.252 0 0.306c -0.351 0.036 -0.648 0.027 -0.81 0.486l -1.854 5.148c -0.135 -0.081 -0.675 -0.396 -0.99 -0.396l -1.953 -4.608c -0.234 -0.558 -0.504 -0.603 -0.9 -0.63c -0.054 -0.054 -0.054 -0.252 0 -0.306c 0.333 0.009 0.495 0.018 0.846 0.018c 0.369 0 0.864 -0.009 1.197 -0.018c 0.054 0.054 0.054 0.252 0 0.306c -0.342 0.027 -0.765 0.054 -0.621 0.423Z m 0.972 1.836c -0.198 0 -0.261 0.027 -0.225 0.117l 0.792 2.016h 0.063l 0.738 -2.133Z "/></symbol><symbol id="g40DD4A5BBDB2CB2720BA8BB26456342F" overflow="visible"><path d="M 0 0m 0.324 2.277c 0 -0.405 0.045 -2.43 2.088 -4.194l 0.27 0.288c -0.288 0.324 -1.323 1.53 -1.323 3.906c 0 2.376 1.053 3.582 1.323 3.897l -0.252 0.306c -1.179 -1.017 -2.106 -2.565 -2.106 -4.203Z "/></symbol><symbol id="g85F40F816B953BD33230079688C58792" overflow="visible"><path d="M 0 0m 3.303 1.098v 3.249c 0 0.477 0.072 0.99 0.072 0.99c 0 0.117 -0.072 0.153 -0.153 0.153c -0.09 0 -0.243 -0.036 -0.45 -0.135c -0.549 -0.252 -1.161 -0.468 -1.944 -0.792c 0.009 -0.153 0.072 -0.297 0.198 -0.387c 0.486 0.207 0.81 0.225 0.936 0.225c 0.117 0 0.171 -0.036 0.171 -0.486v -2.817c 0 -0.747 -0.432 -0.783 -0.927 -0.81c -0.09 -0.054 -0.09 -0.252 0 -0.306c 0.738 0.009 1.161 0.018 1.521 0.018c 0.36 0 0.765 -0.009 1.503 -0.018c 0.09 0.054 0.09 0.252 0 0.306c -0.495 0.027 -0.927 0.063 -0.927 0.81Z "/></symbol><symbol id="g817DC57461499C221E80891D2BC2D1BE" overflow="visible"><path d="M 0 0m 0.639 0.279c -0.027 -0.108 -0.018 -0.279 0.054 -0.369c 1.269 0.036 1.944 0.279 2.628 0.873c 0.684 0.594 0.972 1.539 0.972 2.403c 0 1.926 -1.062 2.304 -1.971 2.304c -1.404 0 -1.926 -1.134 -1.926 -1.926c 0 -0.441 0.387 -1.449 1.719 -1.449c 0.342 0 0.639 0.117 0.981 0.315c -0.072 -0.648 -0.369 -1.269 -0.792 -1.611c -0.531 -0.432 -1.152 -0.513 -1.665 -0.54Z m 2.511 2.52c -0.342 -0.216 -0.531 -0.234 -0.693 -0.234c -0.603 0 -0.855 0.621 -0.855 1.161c 0 0.972 0.288 1.413 0.612 1.413c 0.45 0 0.945 -0.351 0.945 -1.917c 0 -0.099 0 -0.324 -0.009 -0.423Z "/></symbol><symbol id="g5563FF523BC3B78B4EC396984227E556" overflow="visible"><path d="M 0 0m 4.05 5.121c 0.027 0.108 0.018 0.279 -0.054 0.369c -1.269 -0.036 -1.944 -0.279 -2.628 -0.873c -0.684 -0.594 -0.972 -1.539 -0.972 -2.403c 0 -1.926 1.062 -2.304 1.971 -2.304c 1.404 0 1.926 1.134 1.926 1.926c 0 0.441 -0.387 1.449 -1.719 1.449c -0.342 0 -0.648 -0.117 -0.99 -0.315c 0.072 0.648 0.378 1.269 0.801 1.611c 0.531 0.432 1.152 0.513 1.665 0.54Z m -2.511 -2.52c 0.342 0.216 0.531 0.234 0.693 0.234c 0.603 0 0.855 -0.621 0.855 -1.161c 0 -0.972 -0.288 -1.413 -0.612 -1.413c -0.45 0 -0.945 0.351 -0.945 1.917c 0 0.099 0 0.324 0.009 0.423Z "/></symbol><symbol id="gB322AC7793ACFE50828405DB758EFE54" overflow="visible"><path d="M 0 0m 2.511 2.259c 0 0.405 -0.045 2.43 -2.088 4.194l -0.27 -0.288c 0.288 -0.324 1.323 -1.53 1.323 -3.906c 0 -2.376 -1.053 -3.582 -1.323 -3.897l 0.252 -0.306c 1.179 1.017 2.106 2.565 2.106 4.203Z "/></symbol><symbol id="g362A412C7577377BE4D103B9E5EDCC22" overflow="visible"><path d="M 0 0m 3.088 0c 0 0 0.624 -0.008 0.784 -0.016c 0.048 0.048 0.048 0.216 0 0.264c -0.312 0.016 -0.376 0.08 -0.512 0.336l -0.36 0.68c -0.2 0.376 -0.48 0.568 -0.936 0.568v 0.024c 0.312 0.088 0.448 0.368 0.568 0.688c 0.096 0.248 0.192 0.4 0.36 0.4c 0.072 0 0.136 -0.024 0.184 -0.056c 0.048 -0.032 0.136 -0.056 0.24 -0.056c 0.176 0 0.32 0.152 0.32 0.312c 0 0.176 -0.192 0.36 -0.456 0.36c -0.464 0 -0.68 -0.432 -0.832 -0.808c -0.176 -0.44 -0.392 -0.744 -0.96 -0.744v 0.504c 0 0.664 0.088 0.688 0.496 0.728c 0.048 0.048 0.048 0.216 0 0.264c -0.192 -0.008 -0.496 -0.016 -0.816 -0.016c -0.344 0 -0.624 0.008 -0.888 0.016c -0.048 -0.048 -0.048 -0.216 0 -0.264c 0.488 -0.032 0.576 -0.064 0.576 -0.728v -1.48c 0 -0.664 -0.088 -0.688 -0.576 -0.728c -0.048 -0.048 -0.048 -0.216 0 -0.264c 0.264 0.008 0.544 0.016 0.896 0.016c 0.312 0 0.632 -0.008 0.808 -0.016c 0.048 0.048 0.048 0.216 0 0.264c -0.408 0.032 -0.496 0.064 -0.496 0.728v 0.696c 0.544 -0.032 0.688 -0.248 0.832 -0.544l 0.344 -0.72c 0.104 -0.216 0.264 -0.4 0.424 -0.408Z "/></symbol><symbol id="gFF63DA2595F1651AF0C535BF803D9AEC" overflow="visible"><path d="M 0 0m 3.344 0.976v 1.48c 0 0.656 0.104 0.696 0.544 0.728c 0.048 0.048 0.048 0.216 0 0.264c -0.24 -0.008 -0.544 -0.016 -0.864 -0.016h -1.512c -0.264 0 -0.576 0.008 -0.816 0.016c -0.048 -0.048 -0.048 -0.216 0 -0.264c 0.568 -0.04 0.648 -0.088 0.648 -0.952c 0 -0.84 -0.064 -1.28 -0.176 -1.608c -0.104 -0.288 -0.24 -0.392 -0.376 -0.392c -0.104 0 -0.136 0.064 -0.152 0.168c -0.024 0.152 -0.072 0.304 -0.296 0.304c -0.2 0 -0.312 -0.16 -0.312 -0.336c 0 -0.248 0.224 -0.464 0.592 -0.464c 0.408 0 0.632 0.208 0.816 0.64c 0.16 0.384 0.208 1.2 0.208 1.744c 0 0.624 0.024 0.832 0.344 0.832h 0.36c 0.304 0 0.36 -0.192 0.36 -0.464v -1.68c 0 -0.656 -0.08 -0.696 -0.496 -0.728c -0.04 -0.048 -0.04 -0.216 0 -0.264c 0.2 0.008 0.496 0.016 0.816 0.016c 0.32 0 0.68 -0.008 0.904 -0.016c 0.04 0.048 0.04 0.216 0 0.264c -0.52 0.032 -0.592 0.072 -0.592 0.728Z "/></symbol><symbol id="g394EF21DFADF8A5ADE413A037787D49A" overflow="visible"><path d="M 0 0m 1.488 1.896v 0.56c 0 0.664 0.088 0.688 0.576 0.728c 0.048 0.048 0.048 0.216 0 0.264c -0.272 -0.008 -0.544 -0.016 -0.896 -0.016c -0.344 0 -0.624 0.008 -0.888 0.016c -0.048 -0.048 -0.048 -0.216 0 -0.264c 0.488 -0.032 0.576 -0.064 0.576 -0.728v -1.48c 0 -0.664 -0.088 -0.688 -0.576 -0.728c -0.048 -0.048 -0.048 -0.216 0 -0.264c 0.264 0.008 0.544 0.016 0.896 0.016c 0.344 0 0.632 -0.008 0.888 -0.016c 0.048 0.048 0.048 0.216 0 0.264c -0.488 0.032 -0.576 0.064 -0.576 0.728v 0.608h 0.824c 0.016 -0.808 0.52 -1.664 1.6 -1.664c 1.176 0 1.616 1.016 1.616 1.816c 0 0.832 -0.392 1.776 -1.608 1.776c -0.968 0 -1.512 -0.664 -1.6 -1.616Z m 2.352 1.336c 0.656 0 1 -0.584 1 -1.752c 0 -1.056 -0.44 -1.28 -0.784 -1.28c -0.792 0 -1.056 0.992 -1.056 1.608c 0 0.696 0.216 1.424 0.84 1.424Z "/></symbol><symbol id="g1A9694FA4202677694E328AC46097BF3" overflow="visible"><path d="M 0 0m 1.296 2.456c 0 0.664 0.088 0.688 0.496 0.728c 0.048 0.048 0.048 0.216 0 0.264c -0.192 -0.008 -0.496 -0.016 -0.816 -0.016c -0.344 0 -0.616 0.008 -0.88 0.016c -0.048 -0.048 -0.048 -0.216 0 -0.264c 0.488 -0.032 0.576 -0.064 0.576 -0.728v -0.344c 0 -0.752 0.168 -1.048 0.912 -1.048c 0.504 0 0.904 0.288 1.232 0.528v -0.616c 0 -0.664 -0.088 -0.688 -0.576 -0.728c -0.048 -0.048 -0.048 -0.216 0 -0.264c 0.264 0.008 0.544 0.016 0.896 0.016c 0.344 0 0.64 -0.008 0.896 -0.016c 0.048 0.048 0.048 0.216 0 0.264c -0.488 0.032 -0.576 0.064 -0.576 0.728v 1.48c 0 0.664 0.088 0.688 0.576 0.728c 0.048 0.048 0.048 0.216 0 0.264c -0.272 -0.008 -0.544 -0.016 -0.896 -0.016c -0.312 0 -0.632 0.008 -0.816 0.016c -0.048 -0.048 -0.048 -0.216 0 -0.264c 0.408 -0.032 0.496 -0.064 0.496 -0.728v -0.576c -0.272 -0.24 -0.56 -0.456 -0.976 -0.456c -0.52 0 -0.544 0.272 -0.544 0.896Z "/></symbol><symbol id="g465CA45D0696F5BBCE5E7A11B5E63D98" overflow="visible"><path d="M 0 0m 3.088 0.744c -0.296 -0.304 -0.528 -0.432 -0.992 -0.432c -0.288 0 -0.624 0.168 -0.872 0.576c -0.16 0.264 -0.256 0.632 -0.256 1.096l 2.128 -0.016c 0.096 0 0.152 0.048 0.152 0.136c 0 0.672 -0.24 1.392 -1.352 1.392c -0.696 0 -1.6 -0.664 -1.6 -1.88c 0 -0.448 0.112 -0.88 0.376 -1.184c 0.272 -0.32 0.648 -0.512 1.224 -0.512c 0.608 0 1.04 0.28 1.36 0.696c -0.024 0.08 -0.072 0.12 -0.168 0.128Z m -2.096 1.512c 0.152 0.904 0.712 0.976 0.904 0.976c 0.304 0 0.664 -0.168 0.664 -0.84c 0 -0.072 -0.032 -0.112 -0.12 -0.112Z "/></symbol><symbol id="gE9BB349F7E32C39203BC6B218DF12838" overflow="visible"><path d="M 0 0m 1.168 3.432c -0.344 0 -0.624 0.008 -0.888 0.016c -0.048 -0.048 -0.048 -0.216 0 -0.264c 0.488 -0.032 0.576 -0.064 0.576 -0.728v -1.48c 0 -0.664 -0.088 -0.688 -0.576 -0.728c -0.048 -0.048 -0.048 -0.216 0 -0.264c 0.264 0.008 0.544 0.016 0.896 0.016c 0.296 0 0.56 -0.016 1.096 -0.016c 0.688 0 1.208 0.192 1.208 0.984c 0 0.448 -0.28 0.76 -0.768 0.848v 0.024c 0.368 0.072 0.648 0.328 0.648 0.808c 0 0.56 -0.344 0.8 -1.312 0.8c -0.328 0 -0.536 -0.016 -0.88 -0.016Z m 0.32 -1.696h 0.608c 0.488 0 0.696 -0.32 0.696 -0.8c 0 -0.536 -0.304 -0.688 -0.736 -0.688c -0.416 0 -0.568 0.072 -0.568 0.44Z m 0 0.232v 0.928c 0 0.24 0.184 0.288 0.568 0.288c 0.416 0 0.664 -0.112 0.664 -0.592c 0 -0.32 -0.208 -0.624 -0.704 -0.624Z "/></symbol><symbol id="g5D01DA3AB390CB78D7E54204B7DC3F87" overflow="visible"><path d="M 0 0m 0.328 1.64c 0 -0.816 0.544 -1.72 1.68 -1.72c 0.512 0 0.904 0.184 1.176 0.448c 0.36 0.352 0.52 0.856 0.52 1.344c 0 0.832 -0.456 1.8 -1.68 1.8c -0.528 0 -0.96 -0.216 -1.256 -0.56c -0.288 -0.344 -0.44 -0.808 -0.44 -1.312Z m 1.576 1.592c 0.688 0 1.112 -0.624 1.112 -1.776c 0 -1.008 -0.52 -1.256 -0.896 -1.256c -0.832 0 -1.104 1.008 -1.104 1.624c 0 0.696 0.168 1.408 0.888 1.408Z "/></symbol><symbol id="g9F99202881449AD6C0CCCD21824C9AF1" overflow="visible"><path d="M 0 0m 3.184 0.728c -0.032 0.072 -0.096 0.104 -0.168 0.112c -0.272 -0.352 -0.616 -0.528 -0.96 -0.528c -0.584 0 -1.072 0.592 -1.072 1.528c 0 0.88 0.384 1.408 0.912 1.408c 0.472 0 0.536 -0.28 0.568 -0.56c 0.024 -0.216 0.136 -0.288 0.304 -0.288c 0.168 0 0.392 0.104 0.392 0.352c 0 0.44 -0.456 0.76 -1.224 0.76c -0.792 0 -1.64 -0.712 -1.64 -1.848c 0 -1.032 0.576 -1.744 1.584 -1.744c 0.48 0 0.904 0.152 1.304 0.808Z "/></symbol><symbol id="gF859B786D36C3A3EB6E93A57BC4F802" overflow="visible"><path d="M 0 0m 3.496 3.432h -2.272c -0.32 0 -0.624 0.008 -0.864 0.016c -0.048 -0.048 -0.048 -0.216 0 -0.264c 0.44 -0.032 0.544 -0.072 0.544 -0.728v -1.48c 0 -0.656 -0.104 -0.696 -0.624 -0.728c -0.048 -0.048 -0.048 -0.216 0 -0.264c 0.24 0.008 0.624 0.016 0.944 0.016c 0.32 0 0.56 -0.008 0.8 -0.016c 0.048 0.048 0.048 0.216 0 0.264c -0.408 0.04 -0.488 0.072 -0.488 0.728v 1.736c 0 0.248 0.024 0.408 0.336 0.408h 0.968c 0.296 0 0.344 -0.088 0.344 -0.408v -1.736c 0 -0.656 -0.08 -0.696 -0.496 -0.728c -0.04 -0.048 -0.04 -0.216 0 -0.264c 0.2 0.008 0.496 0.016 0.816 0.016c 0.32 0 0.68 -0.008 0.904 -0.016c 0.04 0.048 0.04 0.216 0 0.264c -0.52 0.032 -0.592 0.072 -0.592 0.728v 1.48c 0 0.656 0.104 0.696 0.544 0.728c 0.048 0.048 0.048 0.216 0 0.264c -0.24 -0.008 -0.544 -0.016 -0.864 -0.016Z "/></symbol><symbol id="g46DFAA35BC521B4F2378CE697B4B163E" overflow="visible"><path d="M 0 0m 1.248 2.944c -0.008 0.24 -0.024 0.448 -0.064 0.528c -0.016 0.04 -0.032 0.064 -0.096 0.064c -0.224 -0.088 -0.432 -0.16 -0.984 -0.232c -0.016 -0.048 0 -0.176 0.016 -0.224c 0.432 -0.04 0.52 -0.08 0.52 -0.544v -3.416c 0 -0.664 -0.088 -0.704 -0.576 -0.728c -0.048 -0.048 -0.048 -0.216 0 -0.264c 0.28 0.008 0.576 0.016 0.896 0.016c 0.32 0 0.704 -0.008 0.968 -0.016c 0.048 0.048 0.048 0.216 0 0.264c -0.568 0.032 -0.656 0.064 -0.656 0.728v 0.864c 0 0.104 0.032 0.096 0.112 0.064c 0.2 -0.08 0.44 -0.128 0.696 -0.128c 0.448 0 0.848 0.136 1.176 0.448c 0.376 0.368 0.592 0.864 0.592 1.512c 0 0.848 -0.6 1.632 -1.416 1.632c -0.368 0 -0.776 -0.24 -1.096 -0.6c -0.048 -0.048 -0.08 -0.048 -0.088 0.032Z m 0.152 -0.296c 0.208 0.256 0.576 0.496 0.808 0.496c 0.512 0 0.952 -0.576 0.952 -1.48c 0 -0.656 -0.232 -1.472 -1.128 -1.472c -0.144 0 -0.424 0.04 -0.568 0.168c -0.16 0.144 -0.192 0.192 -0.192 0.48v 1.456c 0 0.168 0.032 0.24 0.128 0.352Z "/></symbol><symbol id="gF79D9CC171E1ACC5162F855F1894F43E" overflow="visible"><path d="M 0 0m 2.344 0.384c 0.048 -0.248 0.136 -0.464 0.536 -0.464c 0.304 0 0.592 0.136 0.76 0.296c -0.016 0.096 -0.048 0.168 -0.136 0.216c -0.056 -0.048 -0.192 -0.128 -0.296 -0.128c -0.232 0 -0.24 0.312 -0.24 0.68v 1.176c 0 1.136 -0.624 1.352 -1.208 1.352c -0.656 0 -1.32 -0.432 -1.32 -0.888c 0 -0.192 0.096 -0.288 0.28 -0.288c 0.232 0 0.376 0.168 0.376 0.272c 0 0.056 -0.008 0.112 -0.024 0.144c -0.008 0.024 -0.016 0.072 -0.016 0.16c 0 0.248 0.336 0.336 0.64 0.336c 0.272 0 0.648 -0.136 0.648 -1.04c 0 -0.056 -0.024 -0.088 -0.048 -0.096l -0.688 -0.168c -0.768 -0.192 -1.32 -0.616 -1.32 -1.16c 0 -0.656 0.448 -0.864 1.008 -0.864c 0.28 0 0.52 0.064 0.872 0.336l 0.16 0.128Z m 0 1.48v -1.056c 0 -0.104 -0.048 -0.16 -0.112 -0.208c -0.208 -0.168 -0.48 -0.352 -0.704 -0.352c -0.4 0 -0.576 0.32 -0.576 0.568c 0 0.36 0.168 0.728 0.76 0.88Z "/></symbol><symbol id="gDF0740817C60D01D4C0A2F901DD857A7" overflow="visible"><path d="M 0 0m 1.584 0.504c -0.024 0 -0.056 0.016 -0.056 0.096v 1.824c 0 0.664 0.168 0.736 0.576 0.76c 0.048 0.048 0.048 0.216 0 0.264c -0.184 -0.008 -0.64 -0.016 -0.936 -0.016c -0.264 0 -0.584 0.008 -0.888 0.016c -0.048 -0.048 -0.048 -0.216 0 -0.264c 0.488 -0.024 0.616 -0.096 0.616 -0.76v -1.416c 0 -0.664 -0.128 -0.736 -0.616 -0.76c -0.048 -0.048 -0.048 -0.216 0 -0.264c 0.312 0.008 0.632 0.016 0.888 0.016c 0.184 0 0.4 -0.008 0.488 -0.016c 0.04 0.112 0.112 0.272 0.2 0.432l 1.248 2.504c 0.024 0 0.056 -0.016 0.056 -0.096v -1.816c 0 -0.664 -0.168 -0.736 -0.576 -0.76c -0.048 -0.048 -0.048 -0.216 0 -0.264c 0.184 0.008 0.616 0.016 0.936 0.016c 0.248 0 0.576 -0.008 0.888 -0.016c 0.048 0.048 0.048 0.216 0 0.264c -0.488 0.024 -0.616 0.096 -0.616 0.76v 1.416c 0 0.664 0.128 0.736 0.616 0.76c 0.048 0.048 0.048 0.216 0 0.264c -0.32 -0.008 -0.64 -0.016 -0.888 -0.016c -0.176 0 -0.4 0.008 -0.48 0.016c -0.064 -0.144 -0.136 -0.312 -0.208 -0.448Z "/></symbol><symbol id="g7783EC9FB0C16305C83035E8146994B5" overflow="visible"><path d="M 0 0m 2.168 1.784c 0.104 0 0.216 0.224 0.216 0.32c 0 0.08 -0.032 0.16 -0.112 0.16h -1.752c -0.096 0 -0.2 -0.184 -0.2 -0.328c 0 -0.08 0.048 -0.152 0.12 -0.152Z "/></symbol><symbol id="gF09D88C2290872E835CD22D560D52A5C" overflow="visible"><path d="M 0 0m 0.344 0.664c 0 -0.176 0.104 -0.304 0.272 -0.432c 0.2 -0.144 0.464 -0.312 1.096 -0.312c 0.8 0 1.424 0.24 1.424 1.032c 0 0.48 -0.24 0.8 -0.808 0.896v 0.024c 0.488 0.184 0.616 0.408 0.616 0.824c 0 0.464 -0.32 0.816 -1.128 0.816c -0.424 0 -0.8 -0.152 -1.232 -0.224l -0.104 -0.952c 0.064 -0.032 0.144 -0.04 0.216 -0.032c 0.152 0.464 0.352 0.928 1.024 0.928c 0.44 0 0.584 -0.264 0.584 -0.584c 0 -0.328 -0.056 -0.712 -0.568 -0.712c -0.152 0 -0.288 0.048 -0.44 0.048c -0.072 0 -0.152 -0.048 -0.152 -0.176c 0 -0.128 0.088 -0.168 0.16 -0.168c 0.152 0 0.24 0.048 0.44 0.048c 0.592 0 0.704 -0.408 0.704 -0.76c 0 -0.472 -0.176 -0.728 -0.744 -0.728c -0.456 0 -0.536 0.168 -0.672 0.456c -0.064 0.144 -0.152 0.256 -0.36 0.256c -0.144 0 -0.328 -0.12 -0.328 -0.248Z "/></symbol><symbol id="g3478CFDC408E67C5C7551BD6A62D2425" overflow="visible"><path d="M 0 0m 1.488 2.456c 0 0.456 0.056 0.664 0.336 0.664h 0.176c 0.656 0 0.848 -0.456 0.96 -0.92c 0.088 -0.008 0.168 0 0.232 0.032c -0.032 0.424 -0.056 0.776 -0.104 1.2l -0.016 0.016c 0 0 -0.64 -0.016 -0.896 -0.016h -1.008c -0.344 0 -0.624 0.008 -0.888 0.016c -0.048 -0.048 -0.048 -0.216 0 -0.264c 0.488 -0.032 0.576 -0.064 0.576 -0.728v -1.48c 0 -0.664 -0.088 -0.688 -0.576 -0.728c -0.048 -0.048 -0.048 -0.216 0 -0.264c 0.264 0.008 0.544 0.016 0.896 0.016c 0.344 0 0.632 -0.008 0.888 -0.016c 0.048 0.048 0.048 0.216 0 0.264c -0.488 0.032 -0.576 0.064 -0.576 0.728Z "/></symbol><symbol id="gE09E60C0AC8E2E10ADA02C2F49261352" overflow="visible"><path d="M 0 0m 1.456 0.976c 0 -0.664 -0.088 -0.704 -0.576 -0.728c -0.048 -0.048 -0.048 -0.216 0 -0.264c 0.312 0.008 0.632 0.016 0.896 0.016c 0.272 0 0.584 -0.008 0.888 -0.016c 0.048 0.048 0.048 0.216 0 0.264c -0.488 0.024 -0.576 0.064 -0.576 0.728v 2.16h 0.136c 0.648 0 0.776 -0.224 0.912 -0.872c 0.104 0 0.208 0.032 0.208 0.032c -0.048 0.368 -0.08 0.72 -0.088 1.184c -0.184 -0.016 -0.784 -0.048 -1.184 -0.048h -0.6c -0.4 0 -0.848 0.024 -1.168 0.048c -0.008 -0.464 -0.04 -0.816 -0.096 -1.184c 0 0 0.112 -0.032 0.216 -0.032c 0.136 0.648 0.256 0.872 0.912 0.872h 0.12Z "/></symbol><symbol id="g63A822DE08B9C7E24E7A5DAFD6086CFF" overflow="visible"><path d="M 0 0m 2.944 4.664c 0 0.52 0.032 0.84 0.032 0.84c 0 0.056 -0.032 0.08 -0.104 0.08c -0.2 -0.08 -0.8 -0.192 -1.12 -0.216c -0.016 -0.064 0 -0.192 0.048 -0.24c 0.464 -0.032 0.512 -0.056 0.512 -0.656v -1.232c -0.152 0.168 -0.344 0.272 -0.592 0.272c -0.728 0 -1.408 -0.688 -1.408 -1.968c 0 -0.864 0.432 -1.624 1.232 -1.624c 0.32 0 0.56 0.096 0.768 0.32v -1.12c 0 -0.664 -0.088 -0.704 -0.576 -0.728c -0.048 -0.048 -0.048 -0.216 0 -0.264c 0.28 0.008 0.576 0.016 0.896 0.016c 0.32 0 0.624 -0.008 0.888 -0.016c 0.048 0.048 0.048 0.216 0 0.264c -0.488 0.024 -0.576 0.064 -0.576 0.728v 1.032c 0.176 -0.176 0.352 -0.232 0.6 -0.232c 0.832 0 1.4 0.872 1.4 1.952c 0 0.888 -0.424 1.64 -1.224 1.64c -0.376 0 -0.6 -0.144 -0.776 -0.36Z m 0.552 -1.472c 0.664 0 0.792 -0.856 0.792 -1.528c 0 -0.696 -0.128 -1.424 -0.824 -1.424c -0.168 0 -0.344 0.048 -0.52 0.304v 2.312c 0.176 0.256 0.376 0.336 0.552 0.336Z m -1.728 -2.952c -0.656 0 -0.8 0.864 -0.8 1.536c 0 0.696 0.144 1.416 0.84 1.416c 0.176 0 0.328 -0.08 0.504 -0.296v -2.304c -0.152 -0.24 -0.328 -0.352 -0.544 -0.352Z "/></symbol><symbol id="gADB3B27726748394AAF96F33FED6E9BE" overflow="visible"><path d="M 0 0m 1.488 2.448c 0 0.672 0.088 0.696 0.576 0.736c 0.048 0.048 0.048 0.216 0 0.264c -0.272 -0.008 -0.544 -0.016 -0.896 -0.016c -0.344 0 -0.624 0.008 -0.888 0.016c -0.048 -0.048 -0.048 -0.216 0 -0.264c 0.488 -0.032 0.576 -0.064 0.576 -0.728v -1.48c 0 -0.664 -0.088 -0.688 -0.576 -0.728c -0.048 -0.048 -0.048 -0.216 0 -0.264c 0.264 0.008 0.544 0.016 0.896 0.016c 0.328 0 0.504 -0.016 0.832 -0.016c 0.984 0 1.52 0.248 1.52 1.104c 0 0.752 -0.656 0.968 -1.464 0.968h -0.576Z m 3.448 0.008c 0 0.664 0.088 0.688 0.576 0.728c 0.048 0.048 0.048 0.216 0 0.264c -0.272 -0.008 -0.544 -0.016 -0.896 -0.016c -0.344 0 -0.624 0.008 -0.888 0.016c -0.048 -0.048 -0.048 -0.216 0 -0.264c 0.488 -0.032 0.576 -0.064 0.576 -0.728v -1.48c 0 -0.664 -0.088 -0.688 -0.576 -0.728c -0.048 -0.048 -0.048 -0.216 0 -0.264c 0.264 0.008 0.544 0.016 0.896 0.016c 0.344 0 0.632 -0.008 0.888 -0.016c 0.048 0.048 0.048 0.216 0 0.264c -0.488 0.032 -0.576 0.064 -0.576 0.728Z m -2.096 -1.448c 0 -0.656 -0.4 -0.76 -0.824 -0.76c -0.392 0 -0.528 0.08 -0.528 0.36v 1.184h 0.568c 0.6 0 0.784 -0.36 0.784 -0.784Z "/></symbol><symbol id="g2656F7351AE9BCC561E7E4C94BCA011" overflow="visible"><path d="M 0 0m 1.71 1.737c -0.432 -0.081 -0.585 -0.171 -0.729 -0.513c -0.252 -0.621 -0.423 -0.909 -0.81 -0.936c -0.045 -0.072 -0.054 -0.261 0 -0.306c 0.207 0.009 1.179 0.018 1.179 0.018c 0.297 0.009 0.468 0.387 0.585 0.756c 0.189 0.549 0.315 0.9 0.846 0.9h 0.18v -0.513c 0 -0.747 -0.144 -0.828 -0.513 -0.855c -0.054 -0.054 -0.054 -0.252 0 -0.306c 0.207 0.009 0.666 0.018 1.098 0.018c 0.495 0 0.9 -0.009 1.278 -0.018c 0.054 0.054 0.054 0.252 0 0.306c -0.549 0.027 -0.693 0.108 -0.693 0.855v 1.62c 0 0.747 0.144 0.828 0.693 0.855c 0.054 0.054 0.054 0.252 0 0.306c -0.387 -0.009 -0.783 -0.018 -1.278 -0.018c -0.504 0 -0.918 0.018 -1.287 0.018c -0.891 0 -1.611 -0.279 -1.611 -1.089c 0 -0.675 0.576 -1.044 1.053 -1.089Z m 1.251 0.297h -0.54c -0.504 0 -0.621 0.405 -0.621 0.855c 0 0.423 0.288 0.693 0.738 0.693c 0.405 0 0.423 -0.072 0.423 -0.819Z "/></symbol><symbol id="g118B72297A97CA7F6F1011529CDD556F" overflow="visible"><path d="M 0 0m 1.791 -0.09c 1.305 0 1.8 0.585 1.8 1.224c 0 0.72 -0.756 0.936 -1.008 0.981v 0.027c 0.576 0.126 0.855 0.513 0.855 0.864c 0 0.819 -0.783 0.99 -1.584 0.99c -0.495 0 -1.062 -0.09 -1.35 -0.216c -0.081 -0.288 -0.135 -0.63 -0.135 -0.954c 0.09 -0.063 0.189 -0.072 0.351 -0.045c 0.225 0.549 0.576 0.837 0.99 0.837c 0.342 0 0.549 -0.216 0.549 -0.648c 0 -0.369 0 -0.675 -0.639 -0.675h -0.279c -0.063 0 -0.135 -0.054 -0.135 -0.144c 0 -0.081 0.054 -0.252 0.135 -0.252h 0.495c 0.45 0 0.531 -0.414 0.531 -0.828c 0 -0.63 -0.351 -0.783 -0.594 -0.783c -0.324 0 -0.468 0.171 -0.594 0.513c -0.072 0.198 -0.234 0.369 -0.486 0.369c -0.252 0 -0.378 -0.198 -0.378 -0.441c 0 -0.351 0.54 -0.819 1.476 -0.819Z "/></symbol><symbol id="gC3ADF69B1024D7CD0107CF96BC28FF2B" overflow="visible"><path d="M 0 0m 1.521 0l 1.251 -0.018c 1.179 0 1.755 0.351 1.755 1.287c 0 0.999 -0.792 1.179 -1.809 1.179h -0.612v 0.315c 0 0.747 0.144 0.828 0.693 0.855c 0.054 0.054 0.054 0.252 0 0.306c -0.387 -0.009 -0.783 -0.018 -1.278 -0.018c -0.495 0 -0.9 0.009 -1.278 0.018c -0.054 -0.054 -0.054 -0.252 0 -0.306c 0.549 -0.027 0.693 -0.108 0.693 -0.855v -1.62c 0 -0.747 -0.144 -0.828 -0.693 -0.855c -0.054 -0.054 -0.054 -0.252 0 -0.306c 0.387 0.009 0.783 0.018 1.278 0.018Z m 5.139 2.763c 0 0.747 0.144 0.828 0.693 0.855c 0.054 0.054 0.054 0.252 0 0.306c -0.378 -0.009 -0.783 -0.018 -1.278 -0.018c -0.495 0 -0.891 0.009 -1.278 0.018c -0.054 -0.054 -0.054 -0.252 0 -0.306c 0.549 -0.027 0.693 -0.108 0.693 -0.855v -1.62c 0 -0.747 -0.144 -0.828 -0.693 -0.855c -0.054 -0.054 -0.054 -0.252 0 -0.306c 0.378 0.009 0.783 0.018 1.278 0.018c 0.495 0 0.891 -0.009 1.278 -0.018c 0.054 0.054 0.054 0.252 0 0.306c -0.549 0.027 -0.693 0.108 -0.693 0.855Z m -3.303 -1.575c 0 -0.522 -0.225 -0.864 -0.756 -0.864c -0.414 0 -0.495 0.063 -0.495 0.387v 1.395h 0.531c 0.675 0 0.72 -0.558 0.72 -0.918Z "/></symbol><symbol id="g5B8E4A04E6E401332276CEB65FD12493" overflow="visible"><path d="M 0 0m 2.106 1.98c 0.216 0.018 0.549 -0.126 0.693 -0.432c 0.108 -0.234 0.288 -0.684 0.486 -1.026c 0.261 -0.477 0.567 -0.54 0.981 -0.54l 0.801 0.018c 0.045 0.09 0.063 0.189 0 0.288c -0.351 0.045 -0.477 0.126 -0.738 0.603c -0.27 0.486 -0.387 0.792 -0.522 0.972c -0.198 0.261 -0.432 0.369 -0.639 0.423v 0.045c 0.144 0.126 0.279 0.288 0.387 0.432c 0.234 0.333 0.423 0.405 0.702 0.324c 0.288 -0.09 0.639 0.144 0.594 0.504c -0.045 0.306 -0.216 0.405 -0.522 0.405c -0.378 0 -0.684 -0.342 -0.855 -0.585c -0.171 -0.243 -0.486 -0.648 -0.648 -0.801c -0.234 -0.225 -0.513 -0.324 -0.72 -0.333v 0.486c 0 0.747 0.144 0.828 0.513 0.855c 0.054 0.054 0.054 0.252 0 0.306c -0.198 -0.009 -0.666 -0.018 -1.098 -0.018c -0.495 0 -0.891 0.009 -1.278 0.018c -0.054 -0.054 -0.054 -0.252 0 -0.306c 0.549 -0.027 0.693 -0.108 0.693 -0.855v -1.62c 0 -0.747 -0.144 -0.828 -0.693 -0.855c -0.054 -0.054 -0.054 -0.252 0 -0.306c 0.378 0.009 0.783 0.018 1.278 0.018c 0.432 0 0.891 -0.009 1.098 -0.018c 0.054 0.054 0.054 0.252 0 0.306c -0.369 0.027 -0.513 0.108 -0.513 0.855Z "/></symbol><symbol id="gFF3B721CF16EC18D90CFF0CBD4D97C3" overflow="visible"><path d="M 0 0m 0.333 1.863c 0 -1.179 0.936 -1.953 2.142 -1.953c 0.639 0 1.17 0.18 1.539 0.513c 0.459 0.405 0.612 1.017 0.612 1.521c 0 1.179 -0.801 2.052 -2.142 2.052c -0.747 0 -1.305 -0.261 -1.656 -0.666c -0.342 -0.396 -0.495 -0.936 -0.495 -1.467Z m 2.007 1.755c 0.612 0 1.026 -0.729 1.026 -1.962c 0 -1.08 -0.423 -1.368 -0.747 -1.368c -0.738 0 -1.026 1.107 -1.026 1.773c 0 0.828 0.144 1.557 0.747 1.557Z "/></symbol><symbol id="g81457235ADAB1FD6575B764587FE8BBF" overflow="visible"><path d="M 0 0m 1.521 0c 0.576 0 0.9 -0.018 1.476 -0.018c 0.657 0 1.602 0.261 1.602 1.107c 0 0.585 -0.369 0.882 -1.143 0.981l -0.009 0.045c 0.288 0.036 0.972 0.261 0.972 0.855c 0 0.693 -0.414 0.954 -1.719 0.954c -0.351 0 -0.891 -0.018 -1.179 -0.018c -0.495 0 -0.891 0.009 -1.278 0.018c -0.054 -0.054 -0.054 -0.252 0 -0.306c 0.549 -0.027 0.693 -0.108 0.693 -0.855v -1.62c 0 -0.747 -0.144 -0.828 -0.693 -0.855c -0.054 -0.054 -0.054 -0.252 0 -0.306c 0.378 0.009 0.783 0.018 1.278 0.018Z m 0.585 1.926h 0.459c 0.621 0 0.756 -0.351 0.756 -0.819c 0 -0.495 -0.153 -0.819 -0.792 -0.819c -0.387 0 -0.423 0.081 -0.423 0.405Z m 0 0.315v 0.999c 0 0.27 0.081 0.342 0.423 0.342c 0.576 0 0.684 -0.288 0.684 -0.675c 0 -0.36 -0.018 -0.666 -0.648 -0.666Z "/></symbol><symbol id="gB4DC2168A3B47BC57D5C8D3F1253AE1" overflow="visible"><path d="M 0 0m 2.655 0.441c 0.063 -0.369 0.306 -0.531 0.702 -0.531c 0.495 0 0.846 0.189 1.179 0.504c -0.018 0.108 -0.054 0.18 -0.162 0.252c -0.117 -0.09 -0.207 -0.126 -0.378 -0.126c -0.198 0 -0.252 0.162 -0.252 0.603l 0.018 1.296c 0 1.296 -0.801 1.557 -1.539 1.557c -0.657 0 -1.665 -0.378 -1.665 -0.972c 0 -0.252 0.108 -0.45 0.459 -0.45c 0.324 0 0.558 0.198 0.558 0.414c 0 0.045 -0.009 0.099 -0.018 0.153c -0.018 0.09 -0.036 0.18 -0.018 0.27c 0.009 0.099 0.081 0.207 0.378 0.207c 0.378 0 0.693 -0.162 0.693 -1.305l -0.603 -0.189c -0.945 -0.297 -1.611 -0.558 -1.611 -1.269c 0 -0.621 0.342 -0.945 1.125 -0.945c 0.261 0 0.783 0.288 1.08 0.522Z m -0.045 1.521v -1.188c -0.225 -0.18 -0.45 -0.324 -0.612 -0.324c -0.387 0 -0.522 0.261 -0.522 0.54c 0 0.333 0.027 0.612 0.666 0.819Z "/></symbol><symbol id="g79B7991D1C8E4DB2B79DED6D36C122E4" overflow="visible"><path d="M 0 0m 0.729 0.675c -0.045 -0.333 -0.252 -0.369 -0.657 -0.387c -0.054 -0.054 -0.054 -0.252 0 -0.306c 0.189 0.009 0.495 0.018 0.81 0.018c 0.324 0 0.621 -0.009 0.828 -0.018c 0.054 0.054 0.054 0.252 0 0.306c -0.279 0.018 -0.423 0.072 -0.486 0.432c -0.018 0.18 -0.018 0.432 -0.009 0.981l 0.018 1.323h 0.018l 1.224 -2.979h 0.234l 1.296 3.186h 0.027l -0.018 -2.088c -0.009 -0.747 -0.144 -0.828 -0.513 -0.855c -0.054 -0.054 -0.054 -0.252 0 -0.306c 0.207 0.009 0.666 0.018 1.098 0.018c 0.495 0 0.9 -0.009 1.278 -0.018c 0.054 0.054 0.054 0.252 0 0.306c -0.549 0.027 -0.675 0.108 -0.693 0.855l -0.036 1.818c -0.009 0.513 0.018 0.621 0.558 0.657c 0.054 0.099 0.063 0.207 0 0.306l -1.8 -0.018l -0.945 -2.196l -1.008 2.196l -1.656 0.018c -0.045 -0.099 -0.045 -0.207 0 -0.306c 0.576 -0.036 0.612 -0.18 0.576 -0.792l -0.054 -1.152c -0.027 -0.531 -0.054 -0.756 -0.09 -0.999Z "/></symbol><symbol id="g92DC8D65E49AD17244A3C90F6B625A04" overflow="visible"><path d="M 0 0m 1.071 2.826c -0.045 -0.774 -0.117 -1.332 -0.378 -2.151c -0.072 -0.225 -0.243 -0.252 -0.531 -0.279c -0.054 -0.054 -0.063 -0.216 -0.063 -0.333l 0.09 -1.179c 0.126 -0.063 0.27 -0.072 0.387 -0.036c 0.126 0.612 0.261 1.152 0.945 1.152h 1.611c 0.684 0 0.819 -0.54 0.945 -1.152c 0.117 -0.036 0.261 -0.027 0.387 0.036l 0.09 1.179c 0 0.117 -0.009 0.279 -0.063 0.333c -0.432 0.036 -0.612 0.081 -0.612 0.747v 1.62c 0 0.747 0.144 0.828 0.693 0.855c 0.054 0.054 0.054 0.252 0 0.306c -0.387 -0.009 -1.278 -0.018 -1.278 -0.018h -1.143c -0.63 0 -1.656 0.018 -1.656 0.018c -0.045 -0.099 -0.045 -0.207 0 -0.306c 0.576 -0.036 0.612 -0.171 0.576 -0.792Z m 0.126 -2.322c 0 0.153 0.27 0.729 0.432 2.781c 0 0.036 0.045 0.234 0.297 0.234h 0.342c 0.405 0 0.441 -0.135 0.441 -0.441v -2.241c 0 -0.297 -0.027 -0.441 -0.423 -0.441h -0.873c -0.108 0 -0.216 0 -0.216 0.108Z "/></symbol><symbol id="gB081D2A92777F88E827824BE27985EFD" overflow="visible"><path d="M 0 0m 3.879 1.161c -0.369 -0.378 -0.855 -0.477 -1.197 -0.477c -0.702 0 -1.134 0.405 -1.134 1.287c 0 0.063 0.009 0.099 0.009 0.144h 2.16c 0.216 0 0.261 0.153 0.261 0.279c 0 0.765 -0.297 1.602 -1.62 1.602c -0.945 0 -2.025 -0.837 -2.025 -2.214c 0 -0.522 0.189 -1.071 0.576 -1.422c 0.342 -0.306 0.783 -0.45 1.422 -0.45c 0.621 0 1.233 0.315 1.683 0.972c 0 0.117 -0.045 0.279 -0.135 0.279Z m -2.286 1.314c 0.009 0.315 0.054 0.657 0.18 0.837c 0.144 0.216 0.387 0.306 0.486 0.306c 0.243 0 0.576 -0.234 0.576 -0.954c 0 -0.054 0 -0.171 -0.018 -0.189Z "/></symbol><symbol id="gFAE9846CBF526021E2232F7A92FCCDBF" overflow="visible"><path d="M 0 0m 3.789 3.906h -1.881c -0.441 0 -0.738 0.009 -0.927 0.018c -0.036 -0.099 -0.036 -0.225 0 -0.306c 0.549 -0.027 0.576 -0.117 0.576 -1.107c 0 -0.945 -0.009 -1.44 -0.135 -1.809c -0.117 -0.324 -0.198 -0.351 -0.315 -0.351c -0.072 0 -0.162 0.072 -0.216 0.243c -0.081 0.234 -0.261 0.342 -0.486 0.342c -0.261 0 -0.36 -0.225 -0.36 -0.441c 0 -0.279 0.405 -0.603 0.819 -0.603c 0.513 0 0.801 0.225 0.99 0.72c 0.162 0.432 0.171 1.35 0.171 1.962c 0 0.702 0.063 0.936 0.603 0.936c 0.477 0 0.576 0 0.576 -0.747v -1.62c 0 -0.747 -0.234 -0.828 -0.603 -0.855c -0.054 -0.054 -0.054 -0.252 0 -0.306c 0.207 0.009 0.729 0.018 1.188 0.018c 0.495 0 0.9 -0.009 1.278 -0.018c 0.054 0.054 0.054 0.252 0 0.306c -0.549 0.027 -0.693 0.108 -0.693 0.855v 1.62c 0 0.747 0.144 0.828 0.693 0.855c 0.054 0.054 0.054 0.252 0 0.306c -0.387 -0.009 -1.278 -0.018 -1.278 -0.018Z "/></symbol><symbol id="gA5E617B0695BE246E1D943ED94B9EDEB" overflow="visible"><path d="M 0 0m 1.521 0l 1.251 -0.018c 1.179 0 1.755 0.351 1.755 1.287c 0 0.999 -0.792 1.179 -1.809 1.179h -0.612v 0.315c 0 0.747 0.144 0.828 0.693 0.855c 0.054 0.054 0.054 0.252 0 0.306c -0.387 -0.009 -0.783 -0.018 -1.278 -0.018c -0.495 0 -0.9 0.009 -1.278 0.018c -0.054 -0.054 -0.054 -0.252 0 -0.306c 0.549 -0.027 0.693 -0.108 0.693 -0.855v -1.62c 0 -0.747 -0.144 -0.828 -0.693 -0.855c -0.054 -0.054 -0.054 -0.252 0 -0.306c 0.387 0.009 0.783 0.018 1.278 0.018Z m 1.836 1.188c 0 -0.522 -0.225 -0.864 -0.756 -0.864c -0.414 0 -0.495 0.063 -0.495 0.387v 1.395h 0.531c 0.675 0 0.72 -0.558 0.72 -0.918Z "/></symbol><symbol id="gE4F86D8BE8C69EC1EB36B973594724AB" overflow="visible"><path d="M 0 0m 0.936 2.448l -0.048 -1.488c -0.024 -0.672 -0.144 -0.688 -0.608 -0.712c -0.048 -0.048 -0.048 -0.216 0 -0.264c 0.16 0.008 0.56 0.016 0.688 0.016c 0.16 0 0.536 -0.008 0.696 -0.016c 0.048 0.048 0.048 0.216 0 0.264c -0.456 0.032 -0.488 0.112 -0.472 0.712l 0.056 1.96c 0 0.072 0.032 0.072 0.064 0l 1.16 -2.832c 0.032 -0.024 0.064 -0.024 0.088 0l 1.312 2.824c 0.04 0.088 0.08 0.096 0.08 0l -0.008 -1.936c 0 -0.664 -0.056 -0.688 -0.544 -0.728c -0.048 -0.048 -0.048 -0.216 0 -0.264c 0.288 0.008 0.584 0.016 0.864 0.016c 0.24 0 0.584 -0.008 0.896 -0.016c 0.048 0.048 0.048 0.216 0 0.264c -0.488 0.032 -0.576 0.064 -0.576 0.728l -0.016 1.48c -0.008 0.664 0.088 0.688 0.576 0.728c 0.048 0.048 0.048 0.216 0 0.264c -0.28 -0.016 -1.056 -0.016 -1.32 -0.016l -1.064 -2.288l -0.04 -0.08l -0.032 0.08l -0.936 2.288c -0.264 0 -1.112 0 -1.392 0.016c -0.048 -0.048 -0.048 -0.216 0 -0.264c 0.488 -0.04 0.6 -0.072 0.576 -0.736Z "/></symbol><symbol id="gAC00C34078948F83CC62D60B02C8E81A" overflow="visible"><path d="M 0 0m 1.512 3.432c -0.264 0 -0.576 0.008 -0.816 0.016c -0.048 -0.048 -0.048 -0.216 0 -0.264c 0.488 -0.04 0.632 -0.072 0.6 -0.736c -0.032 -0.736 -0.16 -1.328 -0.296 -1.888c -0.048 -0.216 -0.28 -0.288 -0.504 -0.312c -0.12 -0.016 -0.232 -0.064 -0.24 -0.208l -0.048 -1.064c 0.056 -0.024 0.12 -0.032 0.216 -0.008c 0.072 0.296 0.288 1.032 1.008 1.032h 1.384c 0.712 0 0.944 -0.72 1.016 -1.04c 0.072 -0.016 0.144 -0.016 0.224 0.016l -0.048 1.072c 0 0.112 -0.064 0.176 -0.216 0.2c -0.144 0.024 -0.344 0.08 -0.344 0.376v 1.832c 0 0.656 0.104 0.696 0.544 0.728c 0.048 0.048 0.048 0.216 0 0.264c -0.24 -0.008 -0.544 -0.016 -0.864 -0.016Z m -0.224 -3.024c 0 0.136 0.216 0.664 0.336 2.496c 0.008 0.12 0.064 0.224 0.28 0.224h 0.552c 0.32 0 0.36 -0.224 0.36 -0.496v -1.928c 0 -0.264 -0.016 -0.392 -0.336 -0.392h -1.032c -0.088 0 -0.16 0.008 -0.16 0.096Z "/></symbol><symbol id="g937124D7F3D66536776BB8DA5DFD7893" overflow="visible"><path d="M 0 0m 3.832 2.456c 0 0.664 0.088 0.688 0.576 0.728c 0.048 0.048 0.048 0.216 0 0.264c -0.28 -0.016 -0.632 -0.016 -0.896 -0.016c -0.224 0 -0.544 0.008 -0.856 0.016c -0.048 -0.048 -0.048 -0.216 0 -0.264c 0.488 -0.032 0.544 -0.064 0.544 -0.728v -0.52h -1.712v 0.52c 0 0.664 0.056 0.688 0.544 0.728c 0.048 0.048 0.048 0.216 0 0.264c -0.304 -0.008 -0.608 -0.016 -0.864 -0.016c -0.24 0 -0.568 0.008 -0.888 0.016c -0.048 -0.048 -0.048 -0.216 0 -0.264c 0.488 -0.032 0.576 -0.064 0.576 -0.728v -1.48c 0 -0.664 -0.088 -0.688 -0.576 -0.728c -0.048 -0.048 -0.048 -0.216 0 -0.264c 0.32 0.008 0.64 0.016 0.896 0.016c 0.256 0 0.568 -0.008 0.856 -0.016c 0.048 0.048 0.048 0.216 0 0.264c -0.488 0.032 -0.544 0.064 -0.544 0.728v 0.696h 1.712v -0.696c 0 -0.664 -0.056 -0.688 -0.544 -0.728c -0.048 -0.048 -0.048 -0.216 0 -0.264c 0.288 0.008 0.584 0.016 0.864 0.016c 0.24 0 0.576 -0.008 0.888 -0.016c 0.048 0.048 0.048 0.216 0 0.264c -0.488 0.032 -0.576 0.064 -0.576 0.728Z "/></symbol><symbol id="g9E0D72929382BA054F8819A862FD1C38" overflow="visible"><path d="M 0 0m 1.584 0.504c -0.024 0 -0.056 0.016 -0.056 0.096v 1.824c 0 0.664 0.168 0.736 0.576 0.76c 0.048 0.048 0.048 0.216 0 0.264c -0.184 -0.008 -0.64 -0.016 -0.936 -0.016c -0.264 0 -0.584 0.008 -0.888 0.016c -0.048 -0.048 -0.048 -0.216 0 -0.264c 0.488 -0.024 0.616 -0.096 0.616 -0.76v -1.416c 0 -0.664 -0.128 -0.736 -0.616 -0.76c -0.048 -0.048 -0.048 -0.216 0 -0.264c 0.312 0.008 0.632 0.016 0.888 0.016c 0.184 0 0.4 -0.008 0.488 -0.016c 0.04 0.112 0.112 0.272 0.2 0.432l 1.248 2.504c 0.024 0 0.056 -0.016 0.056 -0.096v -1.816c 0 -0.664 -0.168 -0.736 -0.576 -0.76c -0.048 -0.048 -0.048 -0.216 0 -0.264c 0.184 0.008 0.616 0.016 0.936 0.016c 0.248 0 0.576 -0.008 0.888 -0.016c 0.048 0.048 0.048 0.216 0 0.264c -0.488 0.024 -0.616 0.096 -0.616 0.76v 1.416c 0 0.664 0.128 0.736 0.616 0.76c 0.048 0.048 0.048 0.216 0 0.264c -0.32 -0.008 -0.64 -0.016 -0.888 -0.016c -0.176 0 -0.4 0.008 -0.48 0.016c -0.064 -0.144 -0.136 -0.312 -0.208 -0.448Z m 1.72 4.216c 0 0.152 -0.112 0.264 -0.304 0.264c -0.144 0 -0.28 -0.112 -0.28 -0.248c 0 -0.024 0 -0.04 0.008 -0.056c 0.008 -0.024 0.008 -0.048 0.008 -0.072c 0 -0.176 -0.168 -0.336 -0.4 -0.336c -0.24 0 -0.4 0.168 -0.4 0.344c 0 0.016 0 0.04 0.008 0.064c 0.008 0.024 0.008 0.04 0.008 0.064c 0 0.128 -0.096 0.24 -0.272 0.24c -0.184 0 -0.312 -0.12 -0.312 -0.264c 0 -0.432 0.44 -0.696 0.96 -0.696c 0.512 0 0.976 0.256 0.976 0.696Z "/></symbol><symbol id="gDFD38EC9906BA626C5B7E69A103C103" overflow="visible"><path d="M 0 0m 0.272 2.056c 0 -1.512 0.872 -2.136 1.648 -2.136c 1.096 0 1.728 0.816 1.728 1.824c 0 0.864 -0.48 1.768 -1.608 1.768c -0.76 0 -1.224 -0.448 -1.4 -0.832l -0.016 0.016c 0.032 0.416 0.16 0.928 0.28 1.136c 0.256 0.44 0.56 0.464 1.296 0.544c 0.72 0.08 1.232 0.312 1.304 1.208c -0.056 0.024 -0.112 0.032 -0.176 0c -0.064 -0.384 -0.488 -0.488 -1.16 -0.592c -0.648 -0.104 -1.192 -0.328 -1.528 -0.96c -0.288 -0.544 -0.368 -1.216 -0.368 -1.976Z m 0.688 -0.208c 0 0.448 0.16 1.384 0.992 1.384c 0.624 0 1.008 -0.72 1.008 -1.68c 0 -1.008 -0.464 -1.352 -0.896 -1.352c -0.584 0 -1.104 0.76 -1.104 1.648Z "/></symbol><symbol id="g89E7AED93332C4356E163D20D023452" overflow="visible"><path d="M 0 0m 1.632 -1.28c 0.128 0.224 0.232 0.448 0.328 0.688c 0.64 1.544 1 2.368 1.416 3.264c 0.16 0.336 0.272 0.464 0.648 0.512c 0.048 0.048 0.048 0.216 0 0.264c -0.16 -0.008 -0.344 -0.016 -0.568 -0.016c -0.24 0 -0.488 0.008 -0.728 0.016c -0.048 -0.048 -0.048 -0.216 0 -0.264c 0.256 -0.024 0.512 -0.072 0.384 -0.36l -0.792 -1.832c -0.056 -0.128 -0.128 -0.152 -0.192 0.008l -0.712 1.664c -0.144 0.336 -0.184 0.488 0.264 0.52c 0.048 0.048 0.048 0.216 0 0.264c -0.296 -0.008 -0.616 -0.016 -0.904 -0.016c -0.272 0 -0.488 0.008 -0.648 0.016c -0.048 -0.048 -0.048 -0.216 0 -0.264c 0.32 -0.04 0.424 -0.112 0.632 -0.6l 0.904 -2.104c 0.072 -0.16 0.192 -0.528 0.112 -0.752c -0.096 -0.264 -0.192 -0.488 -0.312 -0.736c -0.088 -0.16 -0.2 -0.232 -0.4 -0.232c -0.112 0 -0.144 0.024 -0.232 0.024c -0.232 0 -0.352 -0.24 -0.352 -0.344c 0 -0.168 0.16 -0.296 0.376 -0.296c 0.168 0 0.488 0.064 0.776 0.576Z "/></symbol><symbol id="g3582D8D1264CABFCC073F09D45268688" overflow="visible"><path d="M 0 0m 0.912 0c 0.224 0.008 0.304 0.216 0.4 0.504c 0.208 0.632 0.44 1.024 0.84 1.024h 0.208v -0.552c 0 -0.664 -0.088 -0.688 -0.576 -0.728c -0.048 -0.048 -0.048 -0.216 0 -0.264c 0.264 0.008 0.544 0.016 0.896 0.016c 0.344 0 0.632 -0.008 0.888 -0.016c 0.048 0.048 0.048 0.216 0 0.264c -0.488 0.032 -0.576 0.064 -0.576 0.728v 1.48c 0 0.664 0.088 0.688 0.576 0.728c 0.048 0.048 0.048 0.216 0 0.264c -0.272 -0.008 -0.544 -0.016 -0.896 -0.016c -0.272 0 -0.504 0.016 -0.704 0.016c -1.4 0 -1.52 -0.576 -1.52 -1.008c 0 -0.52 0.4 -0.784 0.992 -0.808c 0.024 0 0.024 -0.024 0.016 -0.032c -0.304 -0.088 -0.44 -0.256 -0.576 -0.552c -0.088 -0.184 -0.16 -0.36 -0.2 -0.464c -0.104 -0.272 -0.24 -0.32 -0.552 -0.336c -0.048 -0.048 -0.048 -0.216 0 -0.264c 0.16 0.008 0.784 0.016 0.784 0.016Z m 0.224 2.568c 0 0.376 0.12 0.616 0.768 0.616c 0.328 0 0.456 -0.144 0.456 -0.448v -0.936h -0.56c -0.48 0 -0.664 0.368 -0.664 0.768Z "/></symbol><symbol id="gC175399424EF2D6961EAC52DB2845054" overflow="visible"><path d="M 0 0m 1.488 2.448c 0 0.672 0.088 0.696 0.576 0.736c 0.048 0.048 0.048 0.216 0 0.264c -0.272 -0.008 -0.544 -0.016 -0.896 -0.016c -0.344 0 -0.624 0.008 -0.888 0.016c -0.048 -0.048 -0.048 -0.216 0 -0.264c 0.488 -0.032 0.576 -0.064 0.576 -0.728v -1.48c 0 -0.664 -0.088 -0.688 -0.576 -0.728c -0.048 -0.048 -0.048 -0.216 0 -0.264c 0.264 0.008 0.544 0.016 0.896 0.016c 0.328 0 0.504 -0.016 0.832 -0.016c 0.984 0 1.52 0.248 1.52 1.104c 0 0.752 -0.656 0.968 -1.464 0.968h -0.576Z m 1.352 -1.44c 0 -0.656 -0.4 -0.76 -0.824 -0.76c -0.392 0 -0.528 0.08 -0.528 0.36v 1.184h 0.568c 0.6 0 0.784 -0.36 0.784 -0.784Z "/></symbol><symbol id="g1EEFC323E4FEBE7654D5CC1583F61AF4" overflow="visible"><path d="M 0 0m 3.383 0.7735c -0.034 0.0765 -0.102 0.1105 -0.1785 0.119c -0.289 -0.374 -0.6545 -0.561 -1.02 -0.561c -0.6205 0 -1.139 0.629 -1.139 1.6235c 0 0.935 0.408 1.496 0.969 1.496c 0.5015 0 0.5695 -0.2975 0.6035 -0.595c 0.0255 -0.2295 0.1445 -0.306 0.323 -0.306c 0.1785 0 0.4165 0.1105 0.4165 0.374c 0 0.4675 -0.4845 0.8075 -1.3005 0.8075c -0.8415 0 -1.7425 -0.7565 -1.7425 -1.9635c 0 -1.0965 0.612 -1.853 1.683 -1.853c 0.51 0 0.9605 0.1615 1.3855 0.8585Z "/></symbol><symbol id="gC8932C6BA7F518DC74E87E2F4A0224EB" overflow="visible"><path d="M 0 0m 4.0715 2.6095c 0 0.7055 0.0935 0.731 0.612 0.7735c 0.051 0.051 0.051 0.2295 0 0.2805c -0.2975 -0.017 -0.6715 -0.017 -0.952 -0.017c -0.238 0 -0.578 0.0085 -0.9095 0.017c -0.051 -0.051 -0.051 -0.2295 0 -0.2805c 0.5185 -0.034 0.578 -0.068 0.578 -0.7735v -0.5525h -1.819v 0.5525c 0 0.7055 0.0595 0.731 0.578 0.7735c 0.051 0.051 0.051 0.2295 0 0.2805c -0.323 -0.0085 -0.646 -0.017 -0.918 -0.017c -0.255 0 -0.6035 0.0085 -0.9435 0.017c -0.051 -0.051 -0.051 -0.2295 0 -0.2805c 0.5185 -0.034 0.612 -0.068 0.612 -0.7735v -1.5725c 0 -0.7055 -0.0935 -0.731 -0.612 -0.7735c -0.051 -0.051 -0.051 -0.2295 0 -0.2805c 0.34 0.0085 0.68 0.017 0.952 0.017c 0.272 0 0.6035 -0.0085 0.9095 -0.017c 0.051 0.051 0.051 0.2295 0 0.2805c -0.5185 0.034 -0.578 0.068 -0.578 0.7735v 0.7395h 1.819v -0.7395c 0 -0.7055 -0.0595 -0.731 -0.578 -0.7735c -0.051 -0.051 -0.051 -0.2295 0 -0.2805c 0.306 0.0085 0.6205 0.017 0.918 0.017c 0.255 0 0.612 -0.0085 0.9435 -0.017c 0.051 0.051 0.051 0.2295 0 0.2805c -0.5185 0.034 -0.612 0.068 -0.612 0.7735Z "/></symbol><symbol id="gF931FC691828778A920607CF18B9C32A" overflow="visible"><path d="M 0 0m 2.4905 0.408c 0.051 -0.2635 0.1445 -0.493 0.5695 -0.493c 0.323 0 0.629 0.1445 0.8075 0.3145c -0.017 0.102 -0.051 0.1785 -0.1445 0.2295c -0.0595 -0.051 -0.204 -0.136 -0.3145 -0.136c -0.2465 0 -0.255 0.3315 -0.255 0.7225v 1.2495c 0 1.207 -0.663 1.4365 -1.2835 1.4365c -0.697 0 -1.4025 -0.459 -1.4025 -0.9435c 0 -0.204 0.102 -0.306 0.2975 -0.306c 0.2465 0 0.3995 0.1785 0.3995 0.289c 0 0.0595 -0.0085 0.119 -0.0255 0.153c -0.0085 0.0255 -0.017 0.0765 -0.017 0.17c 0 0.2635 0.357 0.357 0.68 0.357c 0.289 0 0.6885 -0.1445 0.6885 -1.105c 0 -0.0595 -0.0255 -0.0935 -0.051 -0.102l -0.731 -0.1785c -0.816 -0.204 -1.4025 -0.6545 -1.4025 -1.2325c 0 -0.697 0.476 -0.918 1.071 -0.918c 0.2975 0 0.5525 0.068 0.9265 0.357l 0.17 0.136Z m 0 1.5725v -1.122c 0 -0.1105 -0.051 -0.17 -0.119 -0.221c -0.221 -0.1785 -0.51 -0.374 -0.748 -0.374c -0.425 0 -0.612 0.34 -0.612 0.6035c 0 0.3825 0.1785 0.7735 0.8075 0.935Z "/></symbol><symbol id="g430571653545A60A3EF6386D136EADA3" overflow="visible"><path d="M 0 0m 1.326 3.128c -0.0085 0.255 -0.0255 0.476 -0.068 0.561c -0.017 0.0425 -0.034 0.068 -0.102 0.068c -0.238 -0.0935 -0.459 -0.17 -1.0455 -0.2465c -0.017 -0.051 0 -0.187 0.017 -0.238c 0.459 -0.0425 0.5525 -0.085 0.5525 -0.578v -3.6295c 0 -0.7055 -0.0935 -0.748 -0.612 -0.7735c -0.051 -0.051 -0.051 -0.2295 0 -0.2805c 0.2975 0.0085 0.612 0.017 0.952 0.017c 0.34 0 0.748 -0.0085 1.0285 -0.017c 0.051 0.051 0.051 0.2295 0 0.2805c -0.6035 0.034 -0.697 0.068 -0.697 0.7735v 0.918c 0 0.1105 0.034 0.102 0.119 0.068c 0.2125 -0.085 0.4675 -0.136 0.7395 -0.136c 0.476 0 0.901 0.1445 1.2495 0.476c 0.3995 0.391 0.629 0.918 0.629 1.6065c 0 0.901 -0.6375 1.734 -1.5045 1.734c -0.391 0 -0.8245 -0.255 -1.1645 -0.6375c -0.051 -0.051 -0.085 -0.051 -0.0935 0.034Z m 0.1615 -0.3145c 0.221 0.272 0.612 0.527 0.8585 0.527c 0.544 0 1.0115 -0.612 1.0115 -1.5725c 0 -0.697 -0.2465 -1.564 -1.1985 -1.564c -0.153 0 -0.4505 0.0425 -0.6035 0.1785c -0.17 0.153 -0.204 0.204 -0.204 0.51v 1.547c 0 0.1785 0.034 0.255 0.136 0.374Z "/></symbol><symbol id="g2884EEE83F88BF741DF31D9C41AEE180" overflow="visible"><path d="M 0 0m 1.734 -1.36c 0.136 0.238 0.2465 0.476 0.3485 0.731c 0.68 1.6405 1.0625 2.516 1.5045 3.468c 0.17 0.357 0.289 0.493 0.6885 0.544c 0.051 0.051 0.051 0.2295 0 0.2805c -0.17 -0.0085 -0.3655 -0.017 -0.6035 -0.017c -0.255 0 -0.5185 0.0085 -0.7735 0.017c -0.051 -0.051 -0.051 -0.2295 0 -0.2805c 0.272 -0.0255 0.544 -0.0765 0.408 -0.3825l -0.8415 -1.9465c -0.0595 -0.136 -0.136 -0.1615 -0.204 0.0085l -0.7565 1.768c -0.153 0.357 -0.1955 0.5185 0.2805 0.5525c 0.051 0.051 0.051 0.2295 0 0.2805c -0.3145 -0.0085 -0.6545 -0.017 -0.9605 -0.017c -0.289 0 -0.5185 0.0085 -0.6885 0.017c -0.051 -0.051 -0.051 -0.2295 0 -0.2805c 0.34 -0.0425 0.4505 -0.119 0.6715 -0.6375l 0.9605 -2.2355c 0.0765 -0.17 0.204 -0.561 0.119 -0.799c -0.102 -0.2805 -0.204 -0.5185 -0.3315 -0.782c -0.0935 -0.17 -0.2125 -0.2465 -0.425 -0.2465c -0.119 0 -0.153 0.0255 -0.2465 0.0255c -0.2465 0 -0.374 -0.255 -0.374 -0.3655c 0 -0.1785 0.17 -0.3145 0.3995 -0.3145c 0.1785 0 0.5185 0.068 0.8245 0.612Z "/></symbol><symbol id="gEF81C0034748F108B423DC4F87ECC2EA" overflow="visible"><path d="M 0 0m 0.9265 0c 0.17 0.0085 0.3145 0.204 0.425 0.4335l 0.3655 0.765c 0.153 0.3145 0.391 0.544 0.969 0.578v -0.7395c 0 -0.7055 -0.102 -0.731 -0.5355 -0.7735c -0.051 -0.051 -0.051 -0.2295 0 -0.2805c 0.1955 0.0085 0.51 0.017 0.85 0.017c 0.3315 0 0.6545 -0.0085 0.8415 -0.017c 0.051 0.051 0.051 0.2295 0 0.2805c -0.4335 0.034 -0.5355 0.068 -0.5355 0.7735v 0.7395c 0.578 -0.034 0.816 -0.2635 0.969 -0.578l 0.3655 -0.765c 0.1105 -0.2295 0.255 -0.425 0.425 -0.4335c 0 0 0.629 -0.0085 0.799 -0.017c 0.051 0.051 0.051 0.2295 0 0.2805c -0.3315 0.017 -0.4165 0.085 -0.561 0.357l -0.3825 0.7225c -0.2125 0.3995 -0.493 0.6035 -0.9775 0.6035v 0.0255c 0.3315 0.0935 0.476 0.391 0.6035 0.731c 0.102 0.2635 0.204 0.425 0.3825 0.425c 0.0765 0 0.1445 -0.0255 0.1955 -0.0595c 0.051 -0.034 0.1445 -0.0595 0.255 -0.0595c 0.187 0 0.34 0.1615 0.34 0.3315c 0 0.187 -0.204 0.3825 -0.4845 0.3825c -0.493 0 -0.7225 -0.459 -0.884 -0.8585c -0.187 -0.4675 -0.442 -0.7905 -1.0455 -0.7905v 0.5355c 0 0.7055 0.102 0.731 0.5355 0.7735c 0.051 0.051 0.051 0.2295 0 0.2805c -0.204 -0.0085 -0.51 -0.017 -0.85 -0.017c -0.3315 0 -0.646 0.0085 -0.8415 0.017c -0.051 -0.051 -0.051 -0.2295 0 -0.2805c 0.4335 -0.034 0.5355 -0.068 0.5355 -0.7735v -0.5355c -0.6035 0 -0.8585 0.323 -1.0455 0.7905c -0.1615 0.3995 -0.391 0.8585 -0.884 0.8585c -0.2805 0 -0.4845 -0.1955 -0.4845 -0.3825c 0 -0.17 0.153 -0.3315 0.34 -0.3315c 0.1105 0 0.204 0.0255 0.255 0.0595c 0.051 0.034 0.119 0.0595 0.1955 0.0595c 0.1785 0 0.2805 -0.1615 0.3825 -0.425c 0.1275 -0.34 0.272 -0.6375 0.6035 -0.731v -0.0255c -0.4845 0 -0.765 -0.204 -0.9775 -0.6035l -0.3825 -0.7225c -0.1445 -0.272 -0.2295 -0.34 -0.561 -0.357c -0.051 -0.051 -0.051 -0.2295 0 -0.2805c 0.17 0.0085 0.799 0.017 0.799 0.017Z "/></symbol><symbol id="gE7AE90A8EDDEF3DDB67EE78D36D80337" overflow="visible"><path d="M 0 0m 1.683 0.5355c -0.0255 0 -0.0595 0.017 -0.0595 0.102v 1.938c 0 0.7055 0.1785 0.782 0.612 0.8075c 0.051 0.051 0.051 0.2295 0 0.2805c -0.1955 -0.0085 -0.68 -0.017 -0.9945 -0.017c -0.2805 0 -0.6205 0.0085 -0.9435 0.017c -0.051 -0.051 -0.051 -0.2295 0 -0.2805c 0.5185 -0.0255 0.6545 -0.102 0.6545 -0.8075v -1.5045c 0 -0.7055 -0.136 -0.782 -0.6545 -0.8075c -0.051 -0.051 -0.051 -0.2295 0 -0.2805c 0.3315 0.0085 0.6715 0.017 0.9435 0.017c 0.1955 0 0.425 -0.0085 0.5185 -0.017c 0.0425 0.119 0.119 0.289 0.2125 0.459l 1.326 2.6605c 0.0255 0 0.0595 -0.017 0.0595 -0.102v -1.9295c 0 -0.7055 -0.1785 -0.782 -0.612 -0.8075c -0.051 -0.051 -0.051 -0.2295 0 -0.2805c 0.1955 0.0085 0.6545 0.017 0.9945 0.017c 0.2635 0 0.612 -0.0085 0.9435 -0.017c 0.051 0.051 0.051 0.2295 0 0.2805c -0.5185 0.0255 -0.6545 0.102 -0.6545 0.8075v 1.5045c 0 0.7055 0.136 0.782 0.6545 0.8075c 0.051 0.051 0.051 0.2295 0 0.2805c -0.34 -0.0085 -0.68 -0.017 -0.9435 -0.017c -0.187 0 -0.425 0.0085 -0.51 0.017c -0.068 -0.153 -0.1445 -0.3315 -0.221 -0.476Z "/></symbol><symbol id="gBEE50160BCD570B38DEF46393A725EED" overflow="visible"><path d="M 0 0m 3.7145 3.6465h -2.414c -0.34 0 -0.663 0.0085 -0.918 0.017c -0.051 -0.051 -0.051 -0.2295 0 -0.2805c 0.4675 -0.034 0.578 -0.0765 0.578 -0.7735v -1.5725c 0 -0.697 -0.1105 -0.7395 -0.663 -0.7735c -0.051 -0.051 -0.051 -0.2295 0 -0.2805c 0.255 0.0085 0.663 0.017 1.003 0.017c 0.34 0 0.595 -0.0085 0.85 -0.017c 0.051 0.051 0.051 0.2295 0 0.2805c -0.4335 0.0425 -0.5185 0.0765 -0.5185 0.7735v 1.8445c 0 0.2635 0.0255 0.4335 0.357 0.4335h 1.0285c 0.3145 0 0.3655 -0.0935 0.3655 -0.4335v -1.8445c 0 -0.697 -0.085 -0.7395 -0.527 -0.7735c -0.0425 -0.051 -0.0425 -0.2295 0 -0.2805c 0.2125 0.0085 0.527 0.017 0.867 0.017c 0.34 0 0.7225 -0.0085 0.9605 -0.017c 0.0425 0.051 0.0425 0.2295 0 0.2805c -0.5525 0.034 -0.629 0.0765 -0.629 0.7735v 1.5725c 0 0.697 0.1105 0.7395 0.578 0.7735c 0.051 0.051 0.051 0.2295 0 0.2805c -0.255 -0.0085 -0.578 -0.017 -0.918 -0.017Z "/></symbol><symbol id="gE34E15A46C94CBC2E6ABE8844A1DDB21" overflow="visible"><path d="M 0 0m 0.3485 1.7425c 0 -0.867 0.578 -1.8275 1.785 -1.8275c 0.544 0 0.9605 0.1955 1.2495 0.476c 0.3825 0.374 0.5525 0.9095 0.5525 1.428c 0 0.884 -0.4845 1.9125 -1.785 1.9125c -0.561 0 -1.02 -0.2295 -1.3345 -0.595c -0.306 -0.3655 -0.4675 -0.8585 -0.4675 -1.394Z m 1.6745 1.6915c 0.731 0 1.1815 -0.663 1.1815 -1.887c 0 -1.071 -0.5525 -1.3345 -0.952 -1.3345c -0.884 0 -1.173 1.071 -1.173 1.7255c 0 0.7395 0.1785 1.496 0.9435 1.496Z "/></symbol><symbol id="g2C6A451F1957B6BC42824B2C440B7E11" overflow="visible"><path d="M 0 0m 1.547 3.043c -0.1955 0.289 -0.136 0.2975 0.2465 0.34c 0.051 0.051 0.051 0.2295 0 0.2805c -0.2295 -0.0085 -0.6035 -0.017 -0.8585 -0.017c -0.255 0 -0.51 0.0085 -0.731 0.017c -0.051 -0.051 -0.051 -0.2295 0 -0.2805c 0.289 -0.0255 0.527 -0.17 0.765 -0.5185l 0.7395 -1.0795c 0.0425 -0.0595 0.0425 -0.085 0.0085 -0.1275l -0.714 -0.918c -0.34 -0.4335 -0.527 -0.459 -0.8245 -0.476c -0.051 -0.051 -0.051 -0.2295 0 -0.2805c 0.17 0.0085 0.357 0.017 0.612 0.017c 0.255 0 0.493 -0.0085 0.714 -0.017c 0.051 0.051 0.051 0.2295 0 0.2805c -0.306 0.034 -0.374 0.068 -0.187 0.34l 0.5355 0.7735c 0.068 0.102 0.102 0.0935 0.153 0.017l 0.493 -0.68c 0.2975 -0.408 0.1615 -0.425 -0.1105 -0.4505c -0.051 -0.051 -0.051 -0.2295 0 -0.2805c 0.255 0.0085 0.5355 0.017 0.8415 0.017c 0.323 0 0.5525 -0.0085 0.7565 -0.017c 0.051 0.051 0.051 0.2295 0 0.2805c -0.3825 0.0255 -0.51 0.051 -0.85 0.5355l -0.765 1.0795c -0.034 0.051 -0.0425 0.0765 0 0.1275l 0.714 0.9095c 0.3145 0.3995 0.5185 0.442 0.8245 0.4675c 0.051 0.051 0.051 0.2295 0 0.2805c -0.17 -0.0085 -0.3655 -0.017 -0.6205 -0.017c -0.255 0 -0.493 0.0085 -0.714 0.017c -0.051 -0.051 -0.051 -0.2295 0 -0.2805c 0.3145 -0.034 0.408 -0.0595 0.204 -0.3485l -0.5525 -0.7735c -0.0595 -0.085 -0.0935 -0.0765 -0.1615 0.017Z "/></symbol><symbol id="g5D2E58E4CDB4D7E6C81847885E22D756" overflow="visible"><path d="M 0 0m 3.281 0.7905c -0.3145 -0.323 -0.561 -0.459 -1.054 -0.459c -0.306 0 -0.663 0.1785 -0.9265 0.612c -0.17 0.2805 -0.272 0.6715 -0.272 1.1645l 2.261 -0.017c 0.102 0 0.1615 0.051 0.1615 0.1445c 0 0.714 -0.255 1.479 -1.4365 1.479c -0.7395 0 -1.7 -0.7055 -1.7 -1.9975c 0 -0.476 0.119 -0.935 0.3995 -1.258c 0.289 -0.34 0.6885 -0.544 1.3005 -0.544c 0.646 0 1.105 0.2975 1.445 0.7395c -0.0255 0.085 -0.0765 0.1275 -0.1785 0.136Z m -2.227 1.6065c 0.1615 0.9605 0.7565 1.037 0.9605 1.037c 0.323 0 0.7055 -0.1785 0.7055 -0.8925c 0 -0.0765 -0.034 -0.119 -0.1275 -0.119Z "/></symbol><symbol id="g3D9A67B9902CBFFCF1182D85B33DBA41" overflow="visible"><path d="M 0 0m 1.241 3.6465c -0.3655 0 -0.663 0.0085 -0.9435 0.017c -0.051 -0.051 -0.051 -0.2295 0 -0.2805c 0.5185 -0.034 0.612 -0.068 0.612 -0.7735v -1.5725c 0 -0.7055 -0.0935 -0.731 -0.612 -0.7735c -0.051 -0.051 -0.051 -0.2295 0 -0.2805c 0.2805 0.0085 0.578 0.017 0.952 0.017c 0.3145 0 0.595 -0.017 1.1645 -0.017c 0.731 0 1.2835 0.204 1.2835 1.0455c 0 0.476 -0.2975 0.8075 -0.816 0.901v 0.0255c 0.391 0.0765 0.6885 0.3485 0.6885 0.8585c 0 0.595 -0.3655 0.85 -1.394 0.85c -0.3485 0 -0.5695 -0.017 -0.935 -0.017Z m 0.34 -1.802h 0.646c 0.5185 0 0.7395 -0.34 0.7395 -0.85c 0 -0.5695 -0.323 -0.731 -0.782 -0.731c -0.442 0 -0.6035 0.0765 -0.6035 0.4675Z m 0 0.2465v 0.986c 0 0.255 0.1955 0.306 0.6035 0.306c 0.442 0 0.7055 -0.119 0.7055 -0.629c 0 -0.34 -0.221 -0.663 -0.748 -0.663Z "/></symbol><symbol id="g3EDD64AE7B5A40E8FE9DD75D51E8EE8A" overflow="visible"><path d="M 0 0m 1.547 1.037c 0 -0.7055 -0.0935 -0.748 -0.612 -0.7735c -0.051 -0.051 -0.051 -0.2295 0 -0.2805c 0.3315 0.0085 0.6715 0.017 0.952 0.017c 0.289 0 0.6205 -0.0085 0.9435 -0.017c 0.051 0.051 0.051 0.2295 0 0.2805c -0.5185 0.0255 -0.612 0.068 -0.612 0.7735v 2.295h 0.1445c 0.6885 0 0.8245 -0.238 0.969 -0.9265c 0.1105 0 0.221 0.034 0.221 0.034c -0.051 0.391 -0.085 0.765 -0.0935 1.258c -0.1955 -0.017 -0.833 -0.051 -1.258 -0.051h -0.6375c -0.425 0 -0.901 0.0255 -1.241 0.051c -0.0085 -0.493 -0.0425 -0.867 -0.102 -1.258c 0 0 0.119 -0.034 0.2295 -0.034c 0.1445 0.6885 0.272 0.9265 0.969 0.9265h 0.1275Z "/></symbol><symbol id="gDEA2A0379B7527B5C1F8D88530B6617D" overflow="visible"><path d="M 0 0m 0.9945 2.601l -0.051 -1.581c -0.0255 -0.714 -0.153 -0.731 -0.646 -0.7565c -0.051 -0.051 -0.051 -0.2295 0 -0.2805c 0.17 0.0085 0.595 0.017 0.731 0.017c 0.17 0 0.5695 -0.0085 0.7395 -0.017c 0.051 0.051 0.051 0.2295 0 0.2805c -0.4845 0.034 -0.5185 0.119 -0.5015 0.7565l 0.0595 2.0825c 0 0.0765 0.034 0.0765 0.068 0l 1.2325 -3.009c 0.034 -0.0255 0.068 -0.0255 0.0935 0l 1.394 3.0005c 0.0425 0.0935 0.085 0.102 0.085 0l -0.0085 -2.057c 0 -0.7055 -0.0595 -0.731 -0.578 -0.7735c -0.051 -0.051 -0.051 -0.2295 0 -0.2805c 0.306 0.0085 0.6205 0.017 0.918 0.017c 0.255 0 0.6205 -0.0085 0.952 -0.017c 0.051 0.051 0.051 0.2295 0 0.2805c -0.5185 0.034 -0.612 0.068 -0.612 0.7735l -0.017 1.5725c -0.0085 0.7055 0.0935 0.731 0.612 0.7735c 0.051 0.051 0.051 0.2295 0 0.2805c -0.2975 -0.017 -1.122 -0.017 -1.4025 -0.017l -1.1305 -2.431l -0.0425 -0.085l -0.034 0.085l -0.9945 2.431c -0.2805 0 -1.1815 0 -1.479 0.017c -0.051 -0.051 -0.051 -0.2295 0 -0.2805c 0.5185 -0.0425 0.6375 -0.0765 0.612 -0.782Z "/></symbol></defs></svg>