<svg viewBox="0 0 241.982885827 126.592066929" width="241.982885827pt" height="126.592066929pt" xmlns="http://www.w3.org/2000/svg" xmlns:xlink="http://www.w3.org/1999/xlink" xmlns:h5="http://www.w3.org/1999/xhtml"><path fill="#ffffff" fill-rule="nonzero" d="M 0 0v 126.592066929h 241.982885827v -126.592066929Z "/><g transform="translate(8 8)"><path fill="#a3a597" fill-rule="nonzero" stroke="#1a1a18" stroke-width="0.6" stroke-linecap="butt" stroke-linejoin="miter" stroke-miterlimit="4" transform="translate(4.947106299 12.286437008)" d="M 0 0v 85.039370079h 73.700787402v -85.039370079h -73.700787402Z "/><path fill="none" stroke="#7c7f6a" stroke-width="0.5" stroke-linecap="butt" stroke-linejoin="miter" stroke-miterlimit="4" transform="translate(13.451043307 80.317933071)" d="M 0 0h 56.692913386"/><path fill="none" stroke="#7c7f6a" stroke-width="0.5" stroke-linecap="butt" stroke-linejoin="miter" stroke-miterlimit="4" transform="translate(13.451043307 57.640767717)" d="M 0 0h 56.692913386"/><path fill="none" stroke="#7c7f6a" stroke-width="0.5" stroke-linecap="butt" stroke-linejoin="miter" stroke-miterlimit="4" transform="translate(13.451043307 34.963602362)" d="M 0 0h 56.692913386"/><path fill="none" transform="translate(31.1895 0.9435)" d="M 0 0h 21.216v 5.678h -21.216v -5.678Z "/><g transform="translate(31.189499906 0.94349989)"><g transform="matrix(1 0 0 -1 0 5.593)"><use xlink:href="#gE34E15A46C94CBC2E6ABE8844A1DDB21" x="0" y="0" fill="#1a1a18" fill-rule="nonzero"/><use xlink:href="#gA501B866130BB2CA150759E9628F05FB" x="4.284" y="0" fill="#1a1a18" fill-rule="nonzero"/><use xlink:href="#g5D2E58E4CDB4D7E6C81847885E22D756" x="8.551" y="0" fill="#1a1a18" fill-rule="nonzero"/><use xlink:href="#gF931FC691828778A920607CF18B9C32A" x="12.3505" y="0" fill="#1a1a18" fill-rule="nonzero"/><use xlink:href="#gC8932C6BA7F518DC74E87E2F4A0224EB" x="16.235" y="0" fill="#1a1a18" fill-rule="nonzero"/></g></g><path fill="none" transform="translate(0 103.902066929)" d="M 0 0h 83.595v 6.69h -83.595v -6.69Z "/><g transform="translate(-9.4e-8 103.902066835)"><g transform="matrix(1 0 0 -1 0 4.935)"><use xlink:href="#g4529D13024FDB34FB649E1CF1B9AA565" x="0" y="0" fill="#7c7f6a" fill-rule="nonzero"/><use xlink:href="#gC597D586C3D65B86B3D3351D5EC36C5C" x="3.12" y="0" fill="#7c7f6a" fill-rule="nonzero"/><use xlink:href="#g3036A15D0A2AECE5F3220ADA73EBBEB6" x="7.0125" y="0" fill="#7c7f6a" fill-rule="nonzero"/><use xlink:href="#g3036A15D0A2AECE5F3220ADA73EBBEB6" x="10.365" y="0" fill="#7c7f6a" fill-rule="nonzero"/><use xlink:href="#gEEA2F4BC857577D5A54B2015EAE5E394" x="13.7175" y="0" fill="#7c7f6a" fill-rule="nonzero"/><use xlink:href="#g24A3F0AF4AD0375F71DE4AF9BEABB01F" x="17.055" y="0" fill="#7c7f6a" fill-rule="nonzero"/><use xlink:href="#g86819BE7115F3729C1E76AE930029E69" x="20.265" y="0" fill="#7c7f6a" fill-rule="nonzero"/><use xlink:href="#g104538E36086B77DA6EF42347CC760AA" x="23.8725" y="0" fill="#7c7f6a" fill-rule="nonzero"/><use xlink:href="#g24A3F0AF4AD0375F71DE4AF9BEABB01F" x="26.295" y="0" fill="#7c7f6a" fill-rule="nonzero"/><use xlink:href="#gEEA2F4BC857577D5A54B2015EAE5E394" x="29.505" y="0" fill="#7c7f6a" fill-rule="nonzero"/><use xlink:href="#gE9DD31ED97DC901ABB725871441019F4" x="32.8425" y="0" fill="#7c7f6a" fill-rule="nonzero"/><use xlink:href="#g9BD8815497ACE2CCB2ADDC08AAA56E57" x="38.2725" y="0" fill="#7c7f6a" fill-rule="nonzero"/><use xlink:href="#g3036A15D0A2AECE5F3220ADA73EBBEB6" x="42.6675" y="0" fill="#7c7f6a" fill-rule="nonzero"/><use xlink:href="#gEEA2F4BC857577D5A54B2015EAE5E394" x="46.02" y="0" fill="#7c7f6a" fill-rule="nonzero"/><use xlink:href="#g9FFCC18D170BB6C28C600E5B5ACB7B09" x="51.2325" y="0" fill="#7c7f6a" fill-rule="nonzero"/><use xlink:href="#g3036A15D0A2AECE5F3220ADA73EBBEB6" x="56.3325" y="0" fill="#7c7f6a" fill-rule="nonzero"/><use xlink:href="#g44F03F202C08F14EDCBE40C48B1B4799" x="59.685" y="0" fill="#7c7f6a" fill-rule="nonzero"/><use xlink:href="#gEA97EC147860E78008C33EAABF207A32" x="63.72" y="0" fill="#7c7f6a" fill-rule="nonzero"/><use xlink:href="#g3036A15D0A2AECE5F3220ADA73EBBEB6" x="67.6725" y="0" fill="#7c7f6a" fill-rule="nonzero"/><use xlink:href="#g9BD8815497ACE2CCB2ADDC08AAA56E57" x="71.025" y="0" fill="#7c7f6a" fill-rule="nonzero"/><use xlink:href="#g9BD8815497ACE2CCB2ADDC08AAA56E57" x="75.42" y="0" fill="#7c7f6a" fill-rule="nonzero"/><use xlink:href="#g9DFB8CAEC5B458B41F3893F12F8EC954" x="79.815" y="0" fill="#7c7f6a" fill-rule="nonzero"/></g></g><path fill="none" transform="translate(24.758 51.633622047)" d="M 0 0h 34.079v 6.345h -34.079v -6.345Z "/><g transform="translate(24.757999984 51.633621906)"><g transform="matrix(1 0 0 -1 0 6.147)"><use xlink:href="#gB34AADF20CA1236BFCED76F60F77F06" x="0" y="0" fill="#ffffff" fill-rule="nonzero"/></g><g transform="matrix(1 0 0 -1 6.622 6.147)"><use xlink:href="#g6888BE50B51DC126FE0475636B680C4B" x="0" y="0" fill="#ffffff" fill-rule="nonzero"/></g><g transform="matrix(1 0 0 -1 16.079 6.147)"><use xlink:href="#g6319B865C6572393A952DDCD76DFC216" x="0" y="0" fill="#ffffff" fill-rule="nonzero"/></g><g transform="matrix(1 0 0 -1 20.579 6.147)"><use xlink:href="#g677B5E939AC3BF560D286C1BF5A88FA8" x="0" y="0" fill="#ffffff" fill-rule="nonzero"/></g><g transform="matrix(1 0 0 -1 25.079 6.147)"><use xlink:href="#g6448568A945CF128AA585A8AE897A50C" x="0" y="0" fill="#ffffff" fill-rule="nonzero"/></g><g transform="matrix(1 0 0 -1 29.579 6.147)"><use xlink:href="#g6448568A945CF128AA585A8AE897A50C" x="0" y="0" fill="#ffffff" fill-rule="nonzero"/></g></g><path fill="none" stroke="#1a1a18" stroke-width="0.6" stroke-linecap="butt" stroke-linejoin="miter" stroke-miterlimit="4" transform="translate(89.986476378 23.625019685)" d="M 0 0m 0 62.362204724v -62.362204724"/><path fill="#928c7e" fill-rule="nonzero" stroke="#1a1a18" stroke-width="0.6" stroke-linecap="butt" stroke-linejoin="miter" stroke-miterlimit="4" transform="translate(84.884114173 80.884862205)" d="M 0 0m 5.102362205 0c -2.815401827 0 -5.102362205 2.286960378 -5.102362205 5.102362205c 0 2.815401827 2.286960378 5.102362205 5.102362205 5.102362205c 2.815401827 0 5.102362205 -2.286960378 5.102362205 -5.102362205c 0 -2.815401827 -2.286960378 -5.102362205 -5.102362205 -5.102362205Z "/><path fill="none" transform="translate(79.618476378 8.718437008)" d="M 0 0h 20.736v 7.136h -20.736v -7.136Z "/><g transform="translate(79.618476378 8.718436898)"><g transform="matrix(1 0 0 -1 0 5.264)"><use xlink:href="#g46DFAA35BC521B4F2378CE697B4B163E" x="0" y="0" fill="#1a1a18" fill-rule="nonzero"/><use xlink:href="#g5D01DA3AB390CB78D7E54204B7DC3F87" x="4.152" y="0" fill="#1a1a18" fill-rule="nonzero"/><use xlink:href="#gE9BB349F7E32C39203BC6B218DF12838" x="8.184" y="0" fill="#1a1a18" fill-rule="nonzero"/><use xlink:href="#g937124D7F3D66536776BB8DA5DFD7893" x="12.016" y="0" fill="#1a1a18" fill-rule="nonzero"/><use xlink:href="#g5D01DA3AB390CB78D7E54204B7DC3F87" x="16.704" y="0" fill="#1a1a18" fill-rule="nonzero"/></g></g><path fill="#b9b4a9" fill-rule="nonzero" stroke="#1a1a18" stroke-width="0.6" stroke-linecap="butt" stroke-linejoin="miter" stroke-miterlimit="4" transform="translate(129.671515748 12.286437008)" d="M 0 0v 17.007874016h 73.700787402v -17.007874016h -73.700787402Z "/><path fill="#8f887b" fill-rule="nonzero" stroke="#1a1a18" stroke-width="0.6" stroke-linecap="butt" stroke-linejoin="miter" stroke-miterlimit="4" transform="translate(129.671515748 29.294311024)" d="M 0 0v 68.031496063h 73.700787402v -68.031496063h -73.700787402Z "/><path fill="none" transform="translate(156.963659449)" d="M 0 0h 19.1165v 7.565h -19.1165v -7.565Z "/><g transform="translate(156.963659433 -1.6e-8)"><g transform="matrix(1 0 0 -1 0 5.593)"><use xlink:href="#g1EEFC323E4FEBE7654D5CC1583F61AF4" x="0" y="0" fill="#1a1a18" fill-rule="nonzero"/><use xlink:href="#g2884EEE83F88BF741DF31D9C41AEE180" x="3.638" y="0" fill="#1a1a18" fill-rule="nonzero"/><use xlink:href="#gDB83A5E3A43CD1314807805387E0A9CE" x="8.0155" y="0" fill="#1a1a18" fill-rule="nonzero"/><use xlink:href="#gF931FC691828778A920607CF18B9C32A" x="15.232" y="0" fill="#1a1a18" fill-rule="nonzero"/></g></g><path fill="none" transform="translate(155.018965004 19.74019685)" d="M 0 0h 23.005888889v 4.935h -23.005888889v -4.935Z "/><g transform="translate(155.018964945 19.740196756)"><g transform="matrix(1 0 0 -1 0 4.781)"><use xlink:href="#gE2056BFA19DBF4306E4CB2E32789E5D9" x="0" y="0" fill="#1a1a18" fill-rule="nonzero"/></g><g transform="matrix(1 0 0 -1 5.150444444 4.781)"><use xlink:href="#g1EC4C1D8DABCF32281EA5616E97A0B75" x="0" y="0" fill="#1a1a18" fill-rule="nonzero"/></g><g transform="matrix(1 0 0 -1 12.505888889 4.781)"><use xlink:href="#gD07DF4AE43AB83DAB2C49CD537142568" x="0" y="0" fill="#1a1a18" fill-rule="nonzero"/></g><g transform="matrix(1 0 0 -1 16.005888889 4.781)"><use xlink:href="#g5651A7B51115BA8515955ED8D5708AFF" x="0" y="0" fill="#1a1a18" fill-rule="nonzero"/></g><g transform="matrix(1 0 0 -1 19.505888889 4.781)"><use xlink:href="#g5651A7B51115BA8515955ED8D5708AFF" x="0" y="0" fill="#1a1a18" fill-rule="nonzero"/></g></g><path fill="none" transform="translate(129.246909449 103.902066929)" d="M 0 0h 74.55v 6.69h -74.55v -6.69Z "/><g transform="translate(129.246909354 103.902066835)"><g transform="matrix(1 0 0 -1 0 4.935)"><use xlink:href="#g4529D13024FDB34FB649E1CF1B9AA565" x="0" y="0" fill="#7c7f6a" fill-rule="nonzero"/><use xlink:href="#gC597D586C3D65B86B3D3351D5EC36C5C" x="3.12" y="0" fill="#7c7f6a" fill-rule="nonzero"/><use xlink:href="#g3036A15D0A2AECE5F3220ADA73EBBEB6" x="7.0125" y="0" fill="#7c7f6a" fill-rule="nonzero"/><use xlink:href="#g3036A15D0A2AECE5F3220ADA73EBBEB6" x="10.365" y="0" fill="#7c7f6a" fill-rule="nonzero"/><use xlink:href="#gEEA2F4BC857577D5A54B2015EAE5E394" x="13.7175" y="0" fill="#7c7f6a" fill-rule="nonzero"/><use xlink:href="#g24A3F0AF4AD0375F71DE4AF9BEABB01F" x="17.055" y="0" fill="#7c7f6a" fill-rule="nonzero"/><use xlink:href="#g86819BE7115F3729C1E76AE930029E69" x="20.265" y="0" fill="#7c7f6a" fill-rule="nonzero"/><use xlink:href="#g104538E36086B77DA6EF42347CC760AA" x="23.8725" y="0" fill="#7c7f6a" fill-rule="nonzero"/><use xlink:href="#g24A3F0AF4AD0375F71DE4AF9BEABB01F" x="26.295" y="0" fill="#7c7f6a" fill-rule="nonzero"/><use xlink:href="#gEEA2F4BC857577D5A54B2015EAE5E394" x="29.505" y="0" fill="#7c7f6a" fill-rule="nonzero"/><use xlink:href="#gE9DD31ED97DC901ABB725871441019F4" x="32.8425" y="0" fill="#7c7f6a" fill-rule="nonzero"/><use xlink:href="#g9BD8815497ACE2CCB2ADDC08AAA56E57" x="38.2725" y="0" fill="#7c7f6a" fill-rule="nonzero"/><use xlink:href="#g3036A15D0A2AECE5F3220ADA73EBBEB6" x="42.6675" y="0" fill="#7c7f6a" fill-rule="nonzero"/><use xlink:href="#gEEA2F4BC857577D5A54B2015EAE5E394" x="46.02" y="0" fill="#7c7f6a" fill-rule="nonzero"/><use xlink:href="#g29087D3E44996A2952509944E3ADDF13" x="51.2325" y="0" fill="#7c7f6a" fill-rule="nonzero"/><use xlink:href="#gE9DD31ED97DC901ABB725871441019F4" x="54.9" y="0" fill="#7c7f6a" fill-rule="nonzero"/><use xlink:href="#g24A3F0AF4AD0375F71DE4AF9BEABB01F" x="60.33" y="0" fill="#7c7f6a" fill-rule="nonzero"/><use xlink:href="#gEEA2F4BC857577D5A54B2015EAE5E394" x="63.54" y="0" fill="#7c7f6a" fill-rule="nonzero"/><use xlink:href="#gC597D586C3D65B86B3D3351D5EC36C5C" x="66.8775" y="0" fill="#7c7f6a" fill-rule="nonzero"/><use xlink:href="#g9DFB8CAEC5B458B41F3893F12F8EC954" x="70.77" y="0" fill="#7c7f6a" fill-rule="nonzero"/></g></g><path fill="none" stroke="#1a1a18" stroke-width="0.6" stroke-linecap="butt" stroke-linejoin="miter" stroke-miterlimit="4" transform="translate(214.710885827 23.625019685)" d="M 0 0m 0 62.362204724v -62.362204724"/><path fill="#928c7e" fill-rule="nonzero" stroke="#1a1a18" stroke-width="0.6" stroke-linecap="butt" stroke-linejoin="miter" stroke-miterlimit="4" transform="translate(209.608523622 80.884862205)" d="M 0 0m 5.102362205 0c -2.815401827 0 -5.102362205 2.286960378 -5.102362205 5.102362205c 0 2.815401827 2.286960378 5.102362205 5.102362205 5.102362205c 2.815401827 0 5.102362205 -2.286960378 5.102362205 -5.102362205c 0 -2.815401827 -2.286960378 -5.102362205 -5.102362205 -5.102362205Z "/><path fill="none" stroke="#1a1a18" stroke-width="0.7" stroke-linecap="butt" stroke-linejoin="miter" stroke-miterlimit="4" transform="translate(215.00392823 26.313144153)" d="M 0 0"/><path fill="#1a1a18" fill-rule="nonzero" stroke="#1a1a18" stroke-width="0.7" stroke-linecap="butt" stroke-linejoin="miter" stroke-miterlimit="4" transform="translate(209.93316 24.4116061)" d="M 0 0m 0 4.436922309l 4.11999925 -4.436922309l 1.901538142 3.803076241l -6.021537392 0.633846069Z "/><path fill="#1a1a18" fill-rule="nonzero" stroke="#1a1a18" stroke-width="0.7" stroke-linecap="butt" stroke-linejoin="miter" stroke-miterlimit="4" transform="translate(213.467074261 24.070802299)" d="M 0 0m 6.021537392 0l -4.11999925 4.436922309l -1.901538142 -3.803076241l 6.021537392 -0.633846069Z "/><path fill="none" transform="translate(203.438885827 9.614437008)" d="M 0 0h 22.544v 5.344h -22.544v -5.344Z "/><g transform="translate(203.438885717 9.614436929)"><g transform="matrix(1 0 0 -1 0 5.264)"><use xlink:href="#g9F99202881449AD6C0CCCD21824C9AF1" x="0" y="0" fill="#7c7f6a" fill-rule="nonzero"/><use xlink:href="#g362A412C7577377BE4D103B9E5EDCC22" x="3.424" y="0" fill="#7c7f6a" fill-rule="nonzero"/><use xlink:href="#gF79D9CC171E1ACC5162F855F1894F43E" x="7.44" y="0" fill="#7c7f6a" fill-rule="nonzero"/><use xlink:href="#g1A9694FA4202677694E328AC46097BF3" x="11.096" y="0" fill="#7c7f6a" fill-rule="nonzero"/><use xlink:href="#g465CA45D0696F5BBCE5E7A11B5E63D98" x="15.408" y="0" fill="#7c7f6a" fill-rule="nonzero"/><use xlink:href="#gE09E60C0AC8E2E10ADA02C2F49261352" x="18.984" y="0" fill="#7c7f6a" fill-rule="nonzero"/></g></g></g><defs><symbol id="gE34E15A46C94CBC2E6ABE8844A1DDB21" overflow="visible"><path d="M 0 0m 0.3485 1.7425c 0 -0.867 0.578 -1.8275 1.785 -1.8275c 0.544 0 0.9605 0.1955 1.2495 0.476c 0.3825 0.374 0.5525 0.9095 0.5525 1.428c 0 0.884 -0.4845 1.9125 -1.785 1.9125c -0.561 0 -1.02 -0.2295 -1.3345 -0.595c -0.306 -0.3655 -0.4675 -0.8585 -0.4675 -1.394Z m 1.6745 1.6915c 0.731 0 1.1815 -0.663 1.1815 -1.887c 0 -1.071 -0.5525 -1.3345 -0.952 -1.3345c -0.884 0 -1.173 1.071 -1.173 1.7255c 0 0.7395 0.1785 1.496 0.9435 1.496Z "/></symbol><symbol id="gA501B866130BB2CA150759E9628F05FB" overflow="visible"><path d="M 0 0m 3.281 0c 0 0 0.663 -0.0085 0.833 -0.017c 0.051 0.051 0.051 0.2295 0 0.2805c -0.3315 0.017 -0.3995 0.085 -0.544 0.357l -0.3825 0.7225c -0.2125 0.3995 -0.51 0.6035 -0.9945 0.6035v 0.0255c 0.3315 0.0935 0.476 0.391 0.6035 0.731c 0.102 0.2635 0.204 0.425 0.3825 0.425c 0.0765 0 0.1445 -0.0255 0.1955 -0.0595c 0.051 -0.034 0.1445 -0.0595 0.255 -0.0595c 0.187 0 0.34 0.1615 0.34 0.3315c 0 0.187 -0.204 0.3825 -0.4845 0.3825c -0.493 0 -0.7225 -0.459 -0.884 -0.8585c -0.187 -0.4675 -0.4165 -0.7905 -1.02 -0.7905v 0.5355c 0 0.7055 0.0935 0.731 0.527 0.7735c 0.051 0.051 0.051 0.2295 0 0.2805c -0.204 -0.0085 -0.527 -0.017 -0.867 -0.017c -0.3655 0 -0.663 0.0085 -0.9435 0.017c -0.051 -0.051 -0.051 -0.2295 0 -0.2805c 0.5185 -0.034 0.612 -0.068 0.612 -0.7735v -1.5725c 0 -0.7055 -0.0935 -0.731 -0.612 -0.7735c -0.051 -0.051 -0.051 -0.2295 0 -0.2805c 0.2805 0.0085 0.578 0.017 0.952 0.017c 0.3315 0 0.6715 -0.0085 0.8585 -0.017c 0.051 0.051 0.051 0.2295 0 0.2805c -0.4335 0.034 -0.527 0.068 -0.527 0.7735v 0.7395c 0.578 -0.034 0.731 -0.2635 0.884 -0.578l 0.3655 -0.765c 0.1105 -0.2295 0.2805 -0.425 0.4505 -0.4335Z "/></symbol><symbol id="g5D2E58E4CDB4D7E6C81847885E22D756" overflow="visible"><path d="M 0 0m 3.281 0.7905c -0.3145 -0.323 -0.561 -0.459 -1.054 -0.459c -0.306 0 -0.663 0.1785 -0.9265 0.612c -0.17 0.2805 -0.272 0.6715 -0.272 1.1645l 2.261 -0.017c 0.102 0 0.1615 0.051 0.1615 0.1445c 0 0.714 -0.255 1.479 -1.4365 1.479c -0.7395 0 -1.7 -0.7055 -1.7 -1.9975c 0 -0.476 0.119 -0.935 0.3995 -1.258c 0.289 -0.34 0.6885 -0.544 1.3005 -0.544c 0.646 0 1.105 0.2975 1.445 0.7395c -0.0255 0.085 -0.0765 0.1275 -0.1785 0.136Z m -2.227 1.6065c 0.1615 0.9605 0.7565 1.037 0.9605 1.037c 0.323 0 0.7055 -0.1785 0.7055 -0.8925c 0 -0.0765 -0.034 -0.119 -0.1275 -0.119Z "/></symbol><symbol id="gF931FC691828778A920607CF18B9C32A" overflow="visible"><path d="M 0 0m 2.4905 0.408c 0.051 -0.2635 0.1445 -0.493 0.5695 -0.493c 0.323 0 0.629 0.1445 0.8075 0.3145c -0.017 0.102 -0.051 0.1785 -0.1445 0.2295c -0.0595 -0.051 -0.204 -0.136 -0.3145 -0.136c -0.2465 0 -0.255 0.3315 -0.255 0.7225v 1.2495c 0 1.207 -0.663 1.4365 -1.2835 1.4365c -0.697 0 -1.4025 -0.459 -1.4025 -0.9435c 0 -0.204 0.102 -0.306 0.2975 -0.306c 0.2465 0 0.3995 0.1785 0.3995 0.289c 0 0.0595 -0.0085 0.119 -0.0255 0.153c -0.0085 0.0255 -0.017 0.0765 -0.017 0.17c 0 0.2635 0.357 0.357 0.68 0.357c 0.289 0 0.6885 -0.1445 0.6885 -1.105c 0 -0.0595 -0.0255 -0.0935 -0.051 -0.102l -0.731 -0.1785c -0.816 -0.204 -1.4025 -0.6545 -1.4025 -1.2325c 0 -0.697 0.476 -0.918 1.071 -0.918c 0.2975 0 0.5525 0.068 0.9265 0.357l 0.17 0.136Z m 0 1.5725v -1.122c 0 -0.1105 -0.051 -0.17 -0.119 -0.221c -0.221 -0.1785 -0.51 -0.374 -0.748 -0.374c -0.425 0 -0.612 0.34 -0.612 0.6035c 0 0.3825 0.1785 0.7735 0.8075 0.935Z "/></symbol><symbol id="gC8932C6BA7F518DC74E87E2F4A0224EB" overflow="visible"><path d="M 0 0m 4.0715 2.6095c 0 0.7055 0.0935 0.731 0.612 0.7735c 0.051 0.051 0.051 0.2295 0 0.2805c -0.2975 -0.017 -0.6715 -0.017 -0.952 -0.017c -0.238 0 -0.578 0.0085 -0.9095 0.017c -0.051 -0.051 -0.051 -0.2295 0 -0.2805c 0.5185 -0.034 0.578 -0.068 0.578 -0.7735v -0.5525h -1.819v 0.5525c 0 0.7055 0.0595 0.731 0.578 0.7735c 0.051 0.051 0.051 0.2295 0 0.2805c -0.323 -0.0085 -0.646 -0.017 -0.918 -0.017c -0.255 0 -0.6035 0.0085 -0.9435 0.017c -0.051 -0.051 -0.051 -0.2295 0 -0.2805c 0.5185 -0.034 0.612 -0.068 0.612 -0.7735v -1.5725c 0 -0.7055 -0.0935 -0.731 -0.612 -0.7735c -0.051 -0.051 -0.051 -0.2295 0 -0.2805c 0.34 0.0085 0.68 0.017 0.952 0.017c 0.272 0 0.6035 -0.0085 0.9095 -0.017c 0.051 0.051 0.051 0.2295 0 0.2805c -0.5185 0.034 -0.578 0.068 -0.578 0.7735v 0.7395h 1.819v -0.7395c 0 -0.7055 -0.0595 -0.731 -0.578 -0.7735c -0.051 -0.051 -0.051 -0.2295 0 -0.2805c 0.306 0.0085 0.6205 0.017 0.918 0.017c 0.255 0 0.612 -0.0085 0.9435 -0.017c 0.051 0.051 0.051 0.2295 0 0.2805c -0.5185 0.034 -0.612 0.068 -0.612 0.7735Z "/></symbol><symbol id="g4529D13024FDB34FB649E1CF1B9AA565" overflow="visible"><path d="M 0 0m 1.395 2.3025c 0 0.4275 0.0525 0.6225 0.315 0.6225h 0.165c 0.615 0 0.795 -0.4275 0.9 -0.8625c 0.0825 -0.0075 0.1575 0 0.2175 0.03c -0.03 0.3975 -0.0525 0.7275 -0.0975 1.125l -0.015 0.015c 0 0 -0.6 -0.015 -0.84 -0.015h -0.945c -0.3225 0 -0.585 0.0075 -0.8325 0.015c -0.045 -0.045 -0.045 -0.2025 0 -0.2475c 0.4575 -0.03 0.54 -0.06 0.54 -0.6825v -1.3875c 0 -0.6225 -0.0825 -0.645 -0.54 -0.6825c -0.045 -0.045 -0.045 -0.2025 0 -0.2475c 0.2475 0.0075 0.51 0.015 0.84 0.015c 0.3225 0 0.5925 -0.0075 0.8325 -0.015c 0.045 0.045 0.045 0.2025 0 0.2475c -0.4575 0.03 -0.54 0.06 -0.54 0.6825Z "/></symbol><symbol id="gC597D586C3D65B86B3D3351D5EC36C5C" overflow="visible"><path d="M 0 0m 1.17 2.76c -0.0075 0.225 -0.0225 0.42 -0.06 0.495c -0.015 0.0375 -0.03 0.06 -0.09 0.06c -0.21 -0.0825 -0.405 -0.15 -0.9225 -0.2175c -0.015 -0.045 0 -0.165 0.015 -0.21c 0.405 -0.0375 0.4875 -0.075 0.4875 -0.51v -3.2025c 0 -0.6225 -0.0825 -0.66 -0.54 -0.6825c -0.045 -0.045 -0.045 -0.2025 0 -0.2475c 0.2625 0.0075 0.54 0.015 0.84 0.015c 0.3 0 0.66 -0.0075 0.9075 -0.015c 0.045 0.045 0.045 0.2025 0 0.2475c -0.5325 0.03 -0.615 0.06 -0.615 0.6825v 0.81c 0 0.0975 0.03 0.09 0.105 0.06c 0.1875 -0.075 0.4125 -0.12 0.6525 -0.12c 0.42 0 0.795 0.1275 1.1025 0.42c 0.3525 0.345 0.555 0.81 0.555 1.4175c 0 0.795 -0.5625 1.53 -1.3275 1.53c -0.345 0 -0.7275 -0.225 -1.0275 -0.5625c -0.045 -0.045 -0.075 -0.045 -0.0825 0.03Z m 0.1425 -0.2775c 0.195 0.24 0.54 0.465 0.7575 0.465c 0.48 0 0.8925 -0.54 0.8925 -1.3875c 0 -0.615 -0.2175 -1.38 -1.0575 -1.38c -0.135 0 -0.3975 0.0375 -0.5325 0.1575c -0.15 0.135 -0.18 0.18 -0.18 0.45v 1.365c 0 0.1575 0.03 0.225 0.12 0.33Z "/></symbol><symbol id="g3036A15D0A2AECE5F3220ADA73EBBEB6" overflow="visible"><path d="M 0 0m 2.895 0.6975c -0.2775 -0.285 -0.495 -0.405 -0.93 -0.405c -0.27 0 -0.585 0.1575 -0.8175 0.54c -0.15 0.2475 -0.24 0.5925 -0.24 1.0275l 1.995 -0.015c 0.09 0 0.1425 0.045 0.1425 0.1275c 0 0.63 -0.225 1.305 -1.2675 1.305c -0.6525 0 -1.5 -0.6225 -1.5 -1.7625c 0 -0.42 0.105 -0.825 0.3525 -1.11c 0.255 -0.3 0.6075 -0.48 1.1475 -0.48c 0.57 0 0.975 0.2625 1.275 0.6525c -0.0225 0.075 -0.0675 0.1125 -0.1575 0.12Z m -1.965 1.4175c 0.1425 0.8475 0.6675 0.915 0.8475 0.915c 0.285 0 0.6225 -0.1575 0.6225 -0.7875c 0 -0.0675 -0.03 -0.105 -0.1125 -0.105Z "/></symbol><symbol id="gEEA2F4BC857577D5A54B2015EAE5E394" overflow="visible"><path d="M 0 0m 1.365 0.915c 0 -0.6225 -0.0825 -0.66 -0.54 -0.6825c -0.045 -0.045 -0.045 -0.2025 0 -0.2475c 0.2925 0.0075 0.5925 0.015 0.84 0.015c 0.255 0 0.5475 -0.0075 0.8325 -0.015c 0.045 0.045 0.045 0.2025 0 0.2475c -0.4575 0.0225 -0.54 0.06 -0.54 0.6825v 2.025h 0.1275c 0.6075 0 0.7275 -0.21 0.855 -0.8175c 0.0975 0 0.195 0.03 0.195 0.03c -0.045 0.345 -0.075 0.675 -0.0825 1.11c -0.1725 -0.015 -0.735 -0.045 -1.11 -0.045h -0.5625c -0.375 0 -0.795 0.0225 -1.095 0.045c -0.0075 -0.435 -0.0375 -0.765 -0.09 -1.11c 0 0 0.105 -0.03 0.2025 -0.03c 0.1275 0.6075 0.24 0.8175 0.855 0.8175h 0.1125Z "/></symbol><symbol id="g24A3F0AF4AD0375F71DE4AF9BEABB01F" overflow="visible"><path d="M 0 0m 2.985 0.6825c -0.03 0.0675 -0.09 0.0975 -0.1575 0.105c -0.255 -0.33 -0.5775 -0.495 -0.9 -0.495c -0.5475 0 -1.005 0.555 -1.005 1.4325c 0 0.825 0.36 1.32 0.855 1.32c 0.4425 0 0.5025 -0.2625 0.5325 -0.525c 0.0225 -0.2025 0.1275 -0.27 0.285 -0.27c 0.1575 0 0.3675 0.0975 0.3675 0.33c 0 0.4125 -0.4275 0.7125 -1.1475 0.7125c -0.7425 0 -1.5375 -0.6675 -1.5375 -1.7325c 0 -0.9675 0.54 -1.635 1.485 -1.635c 0.45 0 0.8475 0.1425 1.2225 0.7575Z "/></symbol><symbol id="g86819BE7115F3729C1E76AE930029E69" overflow="visible"><path d="M 0 0m 0.855 0c 0.21 0.0075 0.285 0.2025 0.375 0.4725c 0.195 0.5925 0.4125 0.96 0.7875 0.96h 0.195v -0.5175c 0 -0.6225 -0.0825 -0.645 -0.54 -0.6825c -0.045 -0.045 -0.045 -0.2025 0 -0.2475c 0.2475 0.0075 0.51 0.015 0.84 0.015c 0.3225 0 0.5925 -0.0075 0.8325 -0.015c 0.045 0.045 0.045 0.2025 0 0.2475c -0.4575 0.03 -0.54 0.06 -0.54 0.6825v 1.3875c 0 0.6225 0.0825 0.645 0.54 0.6825c 0.045 0.045 0.045 0.2025 0 0.2475c -0.255 -0.0075 -0.51 -0.015 -0.84 -0.015c -0.255 0 -0.4725 0.015 -0.66 0.015c -1.3125 0 -1.425 -0.54 -1.425 -0.945c 0 -0.4875 0.375 -0.735 0.93 -0.7575c 0.0225 0 0.0225 -0.0225 0.015 -0.03c -0.285 -0.0825 -0.4125 -0.24 -0.54 -0.5175c -0.0825 -0.1725 -0.15 -0.3375 -0.1875 -0.435c -0.0975 -0.255 -0.225 -0.3 -0.5175 -0.315c -0.045 -0.045 -0.045 -0.2025 0 -0.2475c 0.15 0.0075 0.735 0.015 0.735 0.015Z m 0.21 2.4075c 0 0.3525 0.1125 0.5775 0.72 0.5775c 0.3075 0 0.4275 -0.135 0.4275 -0.42v -0.8775h -0.525c -0.45 0 -0.6225 0.345 -0.6225 0.72Z "/></symbol><symbol id="g104538E36086B77DA6EF42347CC760AA" overflow="visible"><path d="M 0 0m 2.1975 4.845h -0.3075l -1.7775 -5.2875h 0.3075Z "/></symbol><symbol id="gE9DD31ED97DC901ABB725871441019F4" overflow="visible"><path d="M 0 0m 1.395 2.295c 0 0.63 0.0825 0.6525 0.54 0.69c 0.045 0.045 0.045 0.2025 0 0.2475c -0.255 -0.0075 -0.51 -0.015 -0.84 -0.015c -0.3225 0 -0.585 0.0075 -0.8325 0.015c -0.045 -0.045 -0.045 -0.2025 0 -0.2475c 0.4575 -0.03 0.54 -0.06 0.54 -0.6825v -1.3875c 0 -0.6225 -0.0825 -0.645 -0.54 -0.6825c -0.045 -0.045 -0.045 -0.2025 0 -0.2475c 0.2475 0.0075 0.51 0.015 0.84 0.015c 0.3075 0 0.4725 -0.015 0.78 -0.015c 0.9225 0 1.425 0.2325 1.425 1.035c 0 0.705 -0.615 0.9075 -1.3725 0.9075h -0.54Z m 3.2325 0.0075c 0 0.6225 0.0825 0.645 0.54 0.6825c 0.045 0.045 0.045 0.2025 0 0.2475c -0.255 -0.0075 -0.51 -0.015 -0.84 -0.015c -0.3225 0 -0.585 0.0075 -0.8325 0.015c -0.045 -0.045 -0.045 -0.2025 0 -0.2475c 0.4575 -0.03 0.54 -0.06 0.54 -0.6825v -1.3875c 0 -0.6225 -0.0825 -0.645 -0.54 -0.6825c -0.045 -0.045 -0.045 -0.2025 0 -0.2475c 0.2475 0.0075 0.51 0.015 0.84 0.015c 0.3225 0 0.5925 -0.0075 0.8325 -0.015c 0.045 0.045 0.045 0.2025 0 0.2475c -0.4575 0.03 -0.54 0.06 -0.54 0.6825Z m -1.965 -1.3575c 0 -0.615 -0.375 -0.7125 -0.7725 -0.7125c -0.3675 0 -0.495 0.075 -0.495 0.3375v 1.11h 0.5325c 0.5625 0 0.735 -0.3375 0.735 -0.735Z "/></symbol><symbol id="g9BD8815497ACE2CCB2ADDC08AAA56E57" overflow="visible"><path d="M 0 0m 3.5925 2.3025c 0 0.6225 0.0825 0.645 0.54 0.6825c 0.045 0.045 0.045 0.2025 0 0.2475c -0.2625 -0.015 -0.5925 -0.015 -0.84 -0.015c -0.21 0 -0.51 0.0075 -0.8025 0.015c -0.045 -0.045 -0.045 -0.2025 0 -0.2475c 0.4575 -0.03 0.51 -0.06 0.51 -0.6825v -0.4875h -1.605v 0.4875c 0 0.6225 0.0525 0.645 0.51 0.6825c 0.045 0.045 0.045 0.2025 0 0.2475c -0.285 -0.0075 -0.57 -0.015 -0.81 -0.015c -0.225 0 -0.5325 0.0075 -0.8325 0.015c -0.045 -0.045 -0.045 -0.2025 0 -0.2475c 0.4575 -0.03 0.54 -0.06 0.54 -0.6825v -1.3875c 0 -0.6225 -0.0825 -0.645 -0.54 -0.6825c -0.045 -0.045 -0.045 -0.2025 0 -0.2475c 0.3 0.0075 0.6 0.015 0.84 0.015c 0.24 0 0.5325 -0.0075 0.8025 -0.015c 0.045 0.045 0.045 0.2025 0 0.2475c -0.4575 0.03 -0.51 0.06 -0.51 0.6825v 0.6525h 1.605v -0.6525c 0 -0.6225 -0.0525 -0.645 -0.51 -0.6825c -0.045 -0.045 -0.045 -0.2025 0 -0.2475c 0.27 0.0075 0.5475 0.015 0.81 0.015c 0.225 0 0.54 -0.0075 0.8325 -0.015c 0.045 0.045 0.045 0.2025 0 0.2475c -0.4575 0.03 -0.54 0.06 -0.54 0.6825Z "/></symbol><symbol id="g9FFCC18D170BB6C28C600E5B5ACB7B09" overflow="visible"><path d="M 0 0m 0.8775 2.295l -0.045 -1.395c -0.0225 -0.63 -0.135 -0.645 -0.57 -0.6675c -0.045 -0.045 -0.045 -0.2025 0 -0.2475c 0.15 0.0075 0.525 0.015 0.645 0.015c 0.15 0 0.5025 -0.0075 0.6525 -0.015c 0.045 0.045 0.045 0.2025 0 0.2475c -0.4275 0.03 -0.4575 0.105 -0.4425 0.6675l 0.0525 1.8375c 0 0.0675 0.03 0.0675 0.06 0l 1.0875 -2.655c 0.03 -0.0225 0.06 -0.0225 0.0825 0l 1.23 2.6475c 0.0375 0.0825 0.075 0.09 0.075 0l -0.0075 -1.815c 0 -0.6225 -0.0525 -0.645 -0.51 -0.6825c -0.045 -0.045 -0.045 -0.2025 0 -0.2475c 0.27 0.0075 0.5475 0.015 0.81 0.015c 0.225 0 0.5475 -0.0075 0.84 -0.015c 0.045 0.045 0.045 0.2025 0 0.2475c -0.4575 0.03 -0.54 0.06 -0.54 0.6825l -0.015 1.3875c -0.0075 0.6225 0.0825 0.645 0.54 0.6825c 0.045 0.045 0.045 0.2025 0 0.2475c -0.2625 -0.015 -0.99 -0.015 -1.2375 -0.015l -0.9975 -2.145l -0.0375 -0.075l -0.03 0.075l -0.8775 2.145c -0.2475 0 -1.0425 0 -1.305 0.015c -0.045 -0.045 -0.045 -0.2025 0 -0.2475c 0.4575 -0.0375 0.5625 -0.0675 0.54 -0.69Z "/></symbol><symbol id="g44F03F202C08F14EDCBE40C48B1B4799" overflow="visible"><path d="M 0 0m 1.4175 3.2175c -0.2475 0 -0.54 0.0075 -0.765 0.015c -0.045 -0.045 -0.045 -0.2025 0 -0.2475c 0.4575 -0.0375 0.5925 -0.0675 0.5625 -0.69c -0.03 -0.69 -0.15 -1.245 -0.2775 -1.77c -0.045 -0.2025 -0.2625 -0.27 -0.4725 -0.2925c -0.1125 -0.015 -0.2175 -0.06 -0.225 -0.195l -0.045 -0.9975c 0.0525 -0.0225 0.1125 -0.03 0.2025 -0.0075c 0.0675 0.2775 0.27 0.9675 0.945 0.9675h 1.2975c 0.6675 0 0.885 -0.675 0.9525 -0.975c 0.0675 -0.015 0.135 -0.015 0.21 0.015l -0.045 1.005c 0 0.105 -0.06 0.165 -0.2025 0.1875c -0.135 0.0225 -0.3225 0.075 -0.3225 0.3525v 1.7175c 0 0.615 0.0975 0.6525 0.51 0.6825c 0.045 0.045 0.045 0.2025 0 0.2475c -0.225 -0.0075 -0.51 -0.015 -0.81 -0.015Z m -0.21 -2.835c 0 0.1275 0.2025 0.6225 0.315 2.34c 0.0075 0.1125 0.06 0.21 0.2625 0.21h 0.5175c 0.3 0 0.3375 -0.21 0.3375 -0.465v -1.8075c 0 -0.2475 -0.015 -0.3675 -0.315 -0.3675h -0.9675c -0.0825 0 -0.15 0.0075 -0.15 0.09Z "/></symbol><symbol id="gEA97EC147860E78008C33EAABF207A32" overflow="visible"><path d="M 0 0m 3.135 0.915v 1.3875c 0 0.615 0.0975 0.6525 0.51 0.6825c 0.045 0.045 0.045 0.2025 0 0.2475c -0.225 -0.0075 -0.51 -0.015 -0.81 -0.015h -1.4175c -0.2475 0 -0.54 0.0075 -0.765 0.015c -0.045 -0.045 -0.045 -0.2025 0 -0.2475c 0.5325 -0.0375 0.6075 -0.0825 0.6075 -0.8925c 0 -0.7875 -0.06 -1.2 -0.165 -1.5075c -0.0975 -0.27 -0.225 -0.3675 -0.3525 -0.3675c -0.0975 0 -0.1275 0.06 -0.1425 0.1575c -0.0225 0.1425 -0.0675 0.285 -0.2775 0.285c -0.1875 0 -0.2925 -0.15 -0.2925 -0.315c 0 -0.2325 0.21 -0.435 0.555 -0.435c 0.3825 0 0.5925 0.195 0.765 0.6c 0.15 0.36 0.195 1.125 0.195 1.635c 0 0.585 0.0225 0.78 0.3225 0.78h 0.3375c 0.285 0 0.3375 -0.18 0.3375 -0.435v -1.575c 0 -0.615 -0.075 -0.6525 -0.465 -0.6825c -0.0375 -0.045 -0.0375 -0.2025 0 -0.2475c 0.1875 0.0075 0.465 0.015 0.765 0.015c 0.3 0 0.6375 -0.0075 0.8475 -0.015c 0.0375 0.045 0.0375 0.2025 0 0.2475c -0.4875 0.03 -0.555 0.0675 -0.555 0.6825Z "/></symbol><symbol id="g9DFB8CAEC5B458B41F3893F12F8EC954" overflow="visible"><path d="M 0 0m 0.3075 1.5375c 0 -0.765 0.51 -1.6125 1.575 -1.6125c 0.48 0 0.8475 0.1725 1.1025 0.42c 0.3375 0.33 0.4875 0.8025 0.4875 1.26c 0 0.78 -0.4275 1.6875 -1.575 1.6875c -0.495 0 -0.9 -0.2025 -1.1775 -0.525c -0.27 -0.3225 -0.4125 -0.7575 -0.4125 -1.23Z m 1.4775 1.4925c 0.645 0 1.0425 -0.585 1.0425 -1.665c 0 -0.945 -0.4875 -1.1775 -0.84 -1.1775c -0.78 0 -1.035 0.945 -1.035 1.5225c 0 0.6525 0.1575 1.32 0.8325 1.32Z "/></symbol><symbol id="gB34AADF20CA1236BFCED76F60F77F06" overflow="visible"><path d="M 0 0m 2.952 2.925c 0 -0.225 0.117 -0.342 0.36 -0.342c 0.324 0 0.531 0.279 0.531 0.603c 0 0.504 -0.531 0.792 -1.071 0.792c -0.621 0 -1.188 -0.27 -1.674 -0.801c -0.486 -0.531 -0.729 -1.116 -0.729 -1.746c 0 -0.882 0.585 -1.53 1.467 -1.53c 0.477 0 0.9 0.117 1.269 0.342c 0.306 0.189 0.531 0.378 0.675 0.567c 0.063 0.081 0.09 0.144 0.09 0.171c 0 0.099 -0.045 0.153 -0.144 0.153c -0.045 0 -0.09 -0.036 -0.144 -0.108c -0.297 -0.396 -0.666 -0.648 -1.089 -0.756c -0.279 -0.072 -0.486 -0.108 -0.639 -0.108c -0.513 0 -0.765 0.315 -0.765 0.936c 0 0.558 0.261 1.368 0.477 1.755c 0.216 0.396 0.675 0.864 1.206 0.864c 0.342 0 0.576 -0.099 0.702 -0.288c -0.279 -0.027 -0.522 -0.207 -0.522 -0.504Z "/></symbol><symbol id="g6888BE50B51DC126FE0475636B680C4B" overflow="visible"><path d="M 0 0m 6.453 3.888v 0.018c 0 0.099 -0.045 0.144 -0.144 0.144c -0.063 0 -0.108 -0.036 -0.135 -0.099c -0.063 -0.315 -0.189 -0.558 -0.369 -0.711c -0.297 -0.261 -0.612 -0.387 -0.954 -0.387c -0.261 0 -0.531 0.099 -0.81 0.288c -0.513 0.369 -0.819 0.576 -0.918 0.639c -0.387 0.225 -0.729 0.333 -1.035 0.333c -0.963 0 -1.395 -0.675 -1.584 -1.557v -0.027c 0 -0.09 0.045 -0.135 0.144 -0.135c 0.081 0 0.126 0.036 0.144 0.108c 0.063 0.315 0.18 0.549 0.36 0.702c 0.297 0.261 0.612 0.387 0.963 0.387c 0.261 0 0.522 -0.099 0.801 -0.297c 0.513 -0.36 0.819 -0.567 0.918 -0.63c 0.387 -0.225 0.729 -0.333 1.035 -0.333c 0.963 0 1.395 0.675 1.584 1.557Z m 0 -1.944v 0.027c 0 0.09 -0.045 0.135 -0.144 0.135c -0.063 0 -0.108 -0.036 -0.135 -0.099c -0.063 -0.315 -0.189 -0.549 -0.369 -0.711c -0.297 -0.261 -0.612 -0.387 -0.954 -0.387c -0.261 0 -0.531 0.099 -0.81 0.297c -0.513 0.36 -0.819 0.567 -0.918 0.63c -0.387 0.225 -0.729 0.333 -1.035 0.333c -0.963 0 -1.395 -0.675 -1.584 -1.557v -0.018c 0 -0.099 0.045 -0.144 0.144 -0.144c 0.081 0 0.126 0.036 0.144 0.108c 0.063 0.315 0.18 0.549 0.36 0.702c 0.297 0.261 0.612 0.387 0.963 0.387c 0.261 0 0.522 -0.099 0.801 -0.288c 0.513 -0.369 0.819 -0.576 0.918 -0.639c 0.387 -0.225 0.729 -0.333 1.035 -0.333c 0.963 0 1.395 0.675 1.584 1.557Z "/></symbol><symbol id="g6319B865C6572393A952DDCD76DFC216" overflow="visible"><path d="M 0 0m 3.177 6.093c -0.081 0 -0.153 -0.045 -0.207 -0.126l -2.718 -4.176v -0.324h 2.349v -0.738c 0 -0.162 -0.036 -0.27 -0.099 -0.315c -0.063 -0.045 -0.234 -0.063 -0.531 -0.063h -0.225v -0.351c 0.261 0.018 0.675 0.027 1.233 0.027c 0.558 0 0.972 -0.009 1.233 -0.027v 0.351h -0.225c -0.297 0 -0.468 0.018 -0.531 0.063c -0.063 0.045 -0.099 0.153 -0.099 0.315v 0.738h 0.882v 0.351h -0.882v 4.122c 0 0.09 -0.063 0.153 -0.18 0.153Z m -0.522 -1.116v -3.159h -2.052Z "/></symbol><symbol id="g677B5E939AC3BF560D286C1BF5A88FA8" overflow="visible"><path d="M 0 0m 2.133 5.994c -0.459 0 -0.846 -0.162 -1.179 -0.486c -0.333 -0.324 -0.504 -0.702 -0.504 -1.161c 0 -0.306 0.225 -0.531 0.504 -0.531c 0.27 0 0.495 0.234 0.495 0.504c 0 0.297 -0.216 0.504 -0.504 0.504c -0.027 0 -0.045 0 -0.063 -0.009c 0.171 0.441 0.567 0.828 1.134 0.828c 0.738 0 1.152 -0.639 1.152 -1.413c 0 -0.603 -0.306 -1.251 -0.918 -1.935l -1.692 -1.908c -0.117 -0.135 -0.108 -0.126 -0.108 -0.387h 3.339l 0.261 1.62h -0.297c -0.072 -0.459 -0.135 -0.72 -0.189 -0.801c -0.045 -0.045 -0.315 -0.063 -0.81 -0.063h -1.503l 0.873 0.855c 0.612 0.576 1.386 1.197 1.647 1.674c 0.18 0.315 0.27 0.63 0.27 0.945c 0 1.062 -0.828 1.764 -1.908 1.764Z "/></symbol><symbol id="g6448568A945CF128AA585A8AE897A50C" overflow="visible"><path d="M 0 0m 2.241 -0.198c 1.269 0 1.899 1.026 1.899 3.078c 0 1.377 -0.288 2.295 -0.855 2.745c -0.315 0.243 -0.666 0.369 -1.035 0.369c -1.269 0 -1.899 -1.035 -1.899 -3.114c 0 -1.656 0.441 -3.078 1.89 -3.078Z m 1.008 4.914c 0.063 -0.315 0.09 -0.891 0.09 -1.728c 0 -0.828 -0.036 -1.44 -0.099 -1.836c -0.117 -0.72 -0.45 -1.08 -0.999 -1.08c -0.207 0 -0.414 0.081 -0.603 0.234c -0.243 0.207 -0.387 0.63 -0.45 1.278c -0.027 0.225 -0.036 0.693 -0.036 1.404c 0 0.783 0.027 1.332 0.072 1.629c 0.081 0.495 0.243 0.81 0.495 0.945c 0.198 0.108 0.369 0.162 0.522 0.162c 0.585 0 0.909 -0.477 1.008 -1.008Z "/></symbol><symbol id="g46DFAA35BC521B4F2378CE697B4B163E" overflow="visible"><path d="M 0 0m 1.248 2.944c -0.008 0.24 -0.024 0.448 -0.064 0.528c -0.016 0.04 -0.032 0.064 -0.096 0.064c -0.224 -0.088 -0.432 -0.16 -0.984 -0.232c -0.016 -0.048 0 -0.176 0.016 -0.224c 0.432 -0.04 0.52 -0.08 0.52 -0.544v -3.416c 0 -0.664 -0.088 -0.704 -0.576 -0.728c -0.048 -0.048 -0.048 -0.216 0 -0.264c 0.28 0.008 0.576 0.016 0.896 0.016c 0.32 0 0.704 -0.008 0.968 -0.016c 0.048 0.048 0.048 0.216 0 0.264c -0.568 0.032 -0.656 0.064 -0.656 0.728v 0.864c 0 0.104 0.032 0.096 0.112 0.064c 0.2 -0.08 0.44 -0.128 0.696 -0.128c 0.448 0 0.848 0.136 1.176 0.448c 0.376 0.368 0.592 0.864 0.592 1.512c 0 0.848 -0.6 1.632 -1.416 1.632c -0.368 0 -0.776 -0.24 -1.096 -0.6c -0.048 -0.048 -0.08 -0.048 -0.088 0.032Z m 0.152 -0.296c 0.208 0.256 0.576 0.496 0.808 0.496c 0.512 0 0.952 -0.576 0.952 -1.48c 0 -0.656 -0.232 -1.472 -1.128 -1.472c -0.144 0 -0.424 0.04 -0.568 0.168c -0.16 0.144 -0.192 0.192 -0.192 0.48v 1.456c 0 0.168 0.032 0.24 0.128 0.352Z "/></symbol><symbol id="g5D01DA3AB390CB78D7E54204B7DC3F87" overflow="visible"><path d="M 0 0m 0.328 1.64c 0 -0.816 0.544 -1.72 1.68 -1.72c 0.512 0 0.904 0.184 1.176 0.448c 0.36 0.352 0.52 0.856 0.52 1.344c 0 0.832 -0.456 1.8 -1.68 1.8c -0.528 0 -0.96 -0.216 -1.256 -0.56c -0.288 -0.344 -0.44 -0.808 -0.44 -1.312Z m 1.576 1.592c 0.688 0 1.112 -0.624 1.112 -1.776c 0 -1.008 -0.52 -1.256 -0.896 -1.256c -0.832 0 -1.104 1.008 -1.104 1.624c 0 0.696 0.168 1.408 0.888 1.408Z "/></symbol><symbol id="gE9BB349F7E32C39203BC6B218DF12838" overflow="visible"><path d="M 0 0m 1.168 3.432c -0.344 0 -0.624 0.008 -0.888 0.016c -0.048 -0.048 -0.048 -0.216 0 -0.264c 0.488 -0.032 0.576 -0.064 0.576 -0.728v -1.48c 0 -0.664 -0.088 -0.688 -0.576 -0.728c -0.048 -0.048 -0.048 -0.216 0 -0.264c 0.264 0.008 0.544 0.016 0.896 0.016c 0.296 0 0.56 -0.016 1.096 -0.016c 0.688 0 1.208 0.192 1.208 0.984c 0 0.448 -0.28 0.76 -0.768 0.848v 0.024c 0.368 0.072 0.648 0.328 0.648 0.808c 0 0.56 -0.344 0.8 -1.312 0.8c -0.328 0 -0.536 -0.016 -0.88 -0.016Z m 0.32 -1.696h 0.608c 0.488 0 0.696 -0.32 0.696 -0.8c 0 -0.536 -0.304 -0.688 -0.736 -0.688c -0.416 0 -0.568 0.072 -0.568 0.44Z m 0 0.232v 0.928c 0 0.24 0.184 0.288 0.568 0.288c 0.416 0 0.664 -0.112 0.664 -0.592c 0 -0.32 -0.208 -0.624 -0.704 -0.624Z "/></symbol><symbol id="g937124D7F3D66536776BB8DA5DFD7893" overflow="visible"><path d="M 0 0m 3.832 2.456c 0 0.664 0.088 0.688 0.576 0.728c 0.048 0.048 0.048 0.216 0 0.264c -0.28 -0.016 -0.632 -0.016 -0.896 -0.016c -0.224 0 -0.544 0.008 -0.856 0.016c -0.048 -0.048 -0.048 -0.216 0 -0.264c 0.488 -0.032 0.544 -0.064 0.544 -0.728v -0.52h -1.712v 0.52c 0 0.664 0.056 0.688 0.544 0.728c 0.048 0.048 0.048 0.216 0 0.264c -0.304 -0.008 -0.608 -0.016 -0.864 -0.016c -0.24 0 -0.568 0.008 -0.888 0.016c -0.048 -0.048 -0.048 -0.216 0 -0.264c 0.488 -0.032 0.576 -0.064 0.576 -0.728v -1.48c 0 -0.664 -0.088 -0.688 -0.576 -0.728c -0.048 -0.048 -0.048 -0.216 0 -0.264c 0.32 0.008 0.64 0.016 0.896 0.016c 0.256 0 0.568 -0.008 0.856 -0.016c 0.048 0.048 0.048 0.216 0 0.264c -0.488 0.032 -0.544 0.064 -0.544 0.728v 0.696h 1.712v -0.696c 0 -0.664 -0.056 -0.688 -0.544 -0.728c -0.048 -0.048 -0.048 -0.216 0 -0.264c 0.288 0.008 0.584 0.016 0.864 0.016c 0.24 0 0.576 -0.008 0.888 -0.016c 0.048 0.048 0.048 0.216 0 0.264c -0.488 0.032 -0.576 0.064 -0.576 0.728Z "/></symbol><symbol id="g1EEFC323E4FEBE7654D5CC1583F61AF4" overflow="visible"><path d="M 0 0m 3.383 0.7735c -0.034 0.0765 -0.102 0.1105 -0.1785 0.119c -0.289 -0.374 -0.6545 -0.561 -1.02 -0.561c -0.6205 0 -1.139 0.629 -1.139 1.6235c 0 0.935 0.408 1.496 0.969 1.496c 0.5015 0 0.5695 -0.2975 0.6035 -0.595c 0.0255 -0.2295 0.1445 -0.306 0.323 -0.306c 0.1785 0 0.4165 0.1105 0.4165 0.374c 0 0.4675 -0.4845 0.8075 -1.3005 0.8075c -0.8415 0 -1.7425 -0.7565 -1.7425 -1.9635c 0 -1.0965 0.612 -1.853 1.683 -1.853c 0.51 0 0.9605 0.1615 1.3855 0.8585Z "/></symbol><symbol id="g2884EEE83F88BF741DF31D9C41AEE180" overflow="visible"><path d="M 0 0m 1.734 -1.36c 0.136 0.238 0.2465 0.476 0.3485 0.731c 0.68 1.6405 1.0625 2.516 1.5045 3.468c 0.17 0.357 0.289 0.493 0.6885 0.544c 0.051 0.051 0.051 0.2295 0 0.2805c -0.17 -0.0085 -0.3655 -0.017 -0.6035 -0.017c -0.255 0 -0.5185 0.0085 -0.7735 0.017c -0.051 -0.051 -0.051 -0.2295 0 -0.2805c 0.272 -0.0255 0.544 -0.0765 0.408 -0.3825l -0.8415 -1.9465c -0.0595 -0.136 -0.136 -0.1615 -0.204 0.0085l -0.7565 1.768c -0.153 0.357 -0.1955 0.5185 0.2805 0.5525c 0.051 0.051 0.051 0.2295 0 0.2805c -0.3145 -0.0085 -0.6545 -0.017 -0.9605 -0.017c -0.289 0 -0.5185 0.0085 -0.6885 0.017c -0.051 -0.051 -0.051 -0.2295 0 -0.2805c 0.34 -0.0425 0.4505 -0.119 0.6715 -0.6375l 0.9605 -2.2355c 0.0765 -0.17 0.204 -0.561 0.119 -0.799c -0.102 -0.2805 -0.204 -0.5185 -0.3315 -0.782c -0.0935 -0.17 -0.2125 -0.2465 -0.425 -0.2465c -0.119 0 -0.153 0.0255 -0.2465 0.0255c -0.2465 0 -0.374 -0.255 -0.374 -0.3655c 0 -0.1785 0.17 -0.3145 0.3995 -0.3145c 0.1785 0 0.5185 0.068 0.8245 0.612Z "/></symbol><symbol id="gDB83A5E3A43CD1314807805387E0A9CE" overflow="visible"><path d="M 0 0m 6.341 1.037v 1.5725c 0 0.697 0.1105 0.7395 0.578 0.7735c 0.051 0.051 0.051 0.2295 0 0.2805c -0.255 -0.0085 -0.578 -0.017 -0.918 -0.017c -0.34 0 -0.595 0.0085 -0.85 0.017c -0.051 -0.051 -0.051 -0.2295 0 -0.2805c 0.4335 -0.0425 0.5185 -0.0765 0.5185 -0.7735v -1.8445c 0 -0.2635 -0.0255 -0.4335 -0.357 -0.4335h -1.003c -0.255 0 -0.3655 0.0765 -0.3655 0.4335v 1.8445c 0.0085 0.697 0.068 0.7395 0.527 0.7735c 0.0425 0.051 0.0425 0.2295 0 0.2805c -0.2125 -0.0085 -0.527 -0.017 -0.867 -0.017c -0.34 0 -0.6205 0.0085 -0.833 0.017c -0.0425 -0.051 -0.0425 -0.2295 0 -0.2805c 0.425 -0.034 0.51 -0.0765 0.5015 -0.7735v -1.853c 0 -0.3145 -0.0425 -0.425 -0.357 -0.425h -0.969c -0.3145 0 -0.3655 0.0935 -0.3655 0.4335v 1.8445c 0 0.697 0.085 0.7395 0.527 0.7735c 0.0425 0.051 0.0425 0.2295 0 0.2805c -0.2125 -0.0085 -0.527 -0.017 -0.867 -0.017c -0.34 0 -0.6375 0.0085 -0.8755 0.017c -0.0425 -0.051 -0.0425 -0.2295 0 -0.2805c 0.4675 -0.034 0.544 -0.0765 0.544 -0.7735v -1.5725c 0 -0.697 -0.1105 -0.7395 -0.578 -0.7735c -0.051 -0.051 -0.051 -0.2295 0 -0.2805c 0.255 0.0085 0.578 0.017 0.918 0.017h 4.7515c 0.34 0 0.663 -0.0085 0.918 -0.017c 0.051 0.051 0.051 0.2295 0 0.2805c -0.4675 0.034 -0.578 0.0765 -0.578 0.7735Z "/></symbol><symbol id="gE2056BFA19DBF4306E4CB2E32789E5D9" overflow="visible"><path d="M 0 0m 2.296 2.275c 0 -0.175 0.091 -0.266 0.28 -0.266c 0.252 0 0.413 0.217 0.413 0.469c 0 0.392 -0.413 0.616 -0.833 0.616c -0.483 0 -0.924 -0.21 -1.302 -0.623c -0.378 -0.413 -0.567 -0.868 -0.567 -1.358c 0 -0.686 0.455 -1.19 1.141 -1.19c 0.371 0 0.7 0.091 0.987 0.266c 0.238 0.147 0.413 0.294 0.525 0.441c 0.049 0.063 0.07 0.112 0.07 0.133c 0 0.077 -0.035 0.119 -0.112 0.119c -0.035 0 -0.07 -0.028 -0.112 -0.084c -0.231 -0.308 -0.518 -0.504 -0.847 -0.588c -0.217 -0.056 -0.378 -0.084 -0.497 -0.084c -0.399 0 -0.595 0.245 -0.595 0.728c 0 0.434 0.203 1.064 0.371 1.365c 0.168 0.308 0.525 0.672 0.938 0.672c 0.266 0 0.448 -0.077 0.546 -0.224c -0.217 -0.021 -0.406 -0.161 -0.406 -0.392Z "/></symbol><symbol id="g1EC4C1D8DABCF32281EA5616E97A0B75" overflow="visible"><path d="M 0 0m 5.019 3.024v 0.014c 0 0.077 -0.035 0.112 -0.112 0.112c -0.049 0 -0.084 -0.028 -0.105 -0.077c -0.049 -0.245 -0.147 -0.434 -0.287 -0.553c -0.231 -0.203 -0.476 -0.301 -0.742 -0.301c -0.203 0 -0.413 0.077 -0.63 0.224c -0.399 0.287 -0.637 0.448 -0.714 0.497c -0.301 0.175 -0.567 0.259 -0.805 0.259c -0.749 0 -1.085 -0.525 -1.232 -1.211v -0.021c 0 -0.07 0.035 -0.105 0.112 -0.105c 0.063 0 0.098 0.028 0.112 0.084c 0.049 0.245 0.14 0.427 0.28 0.546c 0.231 0.203 0.476 0.301 0.749 0.301c 0.203 0 0.406 -0.077 0.623 -0.231c 0.399 -0.28 0.637 -0.441 0.714 -0.49c 0.301 -0.175 0.567 -0.259 0.805 -0.259c 0.749 0 1.085 0.525 1.232 1.211Z m 0 -1.512v 0.021c 0 0.07 -0.035 0.105 -0.112 0.105c -0.049 0 -0.084 -0.028 -0.105 -0.077c -0.049 -0.245 -0.147 -0.427 -0.287 -0.553c -0.231 -0.203 -0.476 -0.301 -0.742 -0.301c -0.203 0 -0.413 0.077 -0.63 0.231c -0.399 0.28 -0.637 0.441 -0.714 0.49c -0.301 0.175 -0.567 0.259 -0.805 0.259c -0.749 0 -1.085 -0.525 -1.232 -1.211v -0.014c 0 -0.077 0.035 -0.112 0.112 -0.112c 0.063 0 0.098 0.028 0.112 0.084c 0.049 0.245 0.14 0.427 0.28 0.546c 0.231 0.203 0.476 0.301 0.749 0.301c 0.203 0 0.406 -0.077 0.623 -0.224c 0.399 -0.287 0.637 -0.448 0.714 -0.497c 0.301 -0.175 0.567 -0.259 0.805 -0.259c 0.749 0 1.085 0.525 1.232 1.211Z "/></symbol><symbol id="gD07DF4AE43AB83DAB2C49CD537142568" overflow="visible"><path d="M 0 0m 1.75 4.662c -0.343 0 -0.644 -0.112 -0.896 -0.336c -0.252 -0.224 -0.378 -0.504 -0.378 -0.847c 0 -0.287 0.105 -0.546 0.315 -0.777c 0.049 -0.056 0.203 -0.175 0.462 -0.357c -0.637 -0.329 -0.959 -0.756 -0.959 -1.274c 0 -0.371 0.154 -0.672 0.455 -0.903c 0.28 -0.217 0.609 -0.322 0.994 -0.322c 0.392 0 0.735 0.126 1.022 0.378c 0.287 0.252 0.434 0.581 0.434 0.966c 0 0.322 -0.112 0.609 -0.343 0.868c -0.084 0.091 -0.301 0.252 -0.644 0.469c 0.539 0.287 0.805 0.651 0.805 1.078c 0 0.637 -0.609 1.057 -1.267 1.057Z m 0.903 -1.057c 0 -0.364 -0.217 -0.679 -0.651 -0.938l -0.833 0.546c -0.217 0.14 -0.329 0.322 -0.329 0.539c 0 0.42 0.455 0.679 0.903 0.679c 0.483 0 0.91 -0.343 0.91 -0.826Z m -0.903 -3.507c -0.574 0 -1.057 0.413 -1.057 0.973c 0 0.469 0.259 0.847 0.777 1.134l 0.826 -0.525c 0.336 -0.217 0.504 -0.462 0.504 -0.742c 0 -0.504 -0.525 -0.84 -1.05 -0.84Z "/></symbol><symbol id="g5651A7B51115BA8515955ED8D5708AFF" overflow="visible"><path d="M 0 0m 1.743 -0.154c 0.987 0 1.477 0.798 1.477 2.394c 0 1.071 -0.224 1.785 -0.665 2.135c -0.245 0.189 -0.518 0.287 -0.805 0.287c -0.987 0 -1.477 -0.805 -1.477 -2.422c 0 -1.288 0.343 -2.394 1.47 -2.394Z m 0.784 3.822c 0.049 -0.245 0.07 -0.693 0.07 -1.344c 0 -0.644 -0.028 -1.12 -0.077 -1.428c -0.091 -0.56 -0.35 -0.84 -0.777 -0.84c -0.161 0 -0.322 0.063 -0.469 0.182c -0.189 0.161 -0.301 0.49 -0.35 0.994c -0.021 0.175 -0.028 0.539 -0.028 1.092c 0 0.609 0.021 1.036 0.056 1.267c 0.063 0.385 0.189 0.63 0.385 0.735c 0.154 0.084 0.287 0.126 0.406 0.126c 0.455 0 0.707 -0.371 0.784 -0.784Z "/></symbol><symbol id="g29087D3E44996A2952509944E3ADDF13" overflow="visible"><path d="M 0 0m 0.255 1.9275c 0 -1.4175 0.8175 -2.0025 1.545 -2.0025c 1.0275 0 1.62 0.765 1.62 1.71c 0 0.81 -0.45 1.6575 -1.5075 1.6575c -0.7125 0 -1.1475 -0.42 -1.3125 -0.78l -0.015 0.015c 0.03 0.39 0.15 0.87 0.2625 1.065c 0.24 0.4125 0.525 0.435 1.215 0.51c 0.675 0.075 1.155 0.2925 1.2225 1.1325c -0.0525 0.0225 -0.105 0.03 -0.165 0c -0.06 -0.36 -0.4575 -0.4575 -1.0875 -0.555c -0.6075 -0.0975 -1.1175 -0.3075 -1.4325 -0.9c -0.27 -0.51 -0.345 -1.14 -0.345 -1.8525Z m 0.645 -0.195c 0 0.42 0.15 1.2975 0.93 1.2975c 0.585 0 0.945 -0.675 0.945 -1.575c 0 -0.945 -0.435 -1.2675 -0.84 -1.2675c -0.5475 0 -1.035 0.7125 -1.035 1.545Z "/></symbol><symbol id="g9F99202881449AD6C0CCCD21824C9AF1" overflow="visible"><path d="M 0 0m 3.184 0.728c -0.032 0.072 -0.096 0.104 -0.168 0.112c -0.272 -0.352 -0.616 -0.528 -0.96 -0.528c -0.584 0 -1.072 0.592 -1.072 1.528c 0 0.88 0.384 1.408 0.912 1.408c 0.472 0 0.536 -0.28 0.568 -0.56c 0.024 -0.216 0.136 -0.288 0.304 -0.288c 0.168 0 0.392 0.104 0.392 0.352c 0 0.44 -0.456 0.76 -1.224 0.76c -0.792 0 -1.64 -0.712 -1.64 -1.848c 0 -1.032 0.576 -1.744 1.584 -1.744c 0.48 0 0.904 0.152 1.304 0.808Z "/></symbol><symbol id="g362A412C7577377BE4D103B9E5EDCC22" overflow="visible"><path d="M 0 0m 3.088 0c 0 0 0.624 -0.008 0.784 -0.016c 0.048 0.048 0.048 0.216 0 0.264c -0.312 0.016 -0.376 0.08 -0.512 0.336l -0.36 0.68c -0.2 0.376 -0.48 0.568 -0.936 0.568v 0.024c 0.312 0.088 0.448 0.368 0.568 0.688c 0.096 0.248 0.192 0.4 0.36 0.4c 0.072 0 0.136 -0.024 0.184 -0.056c 0.048 -0.032 0.136 -0.056 0.24 -0.056c 0.176 0 0.32 0.152 0.32 0.312c 0 0.176 -0.192 0.36 -0.456 0.36c -0.464 0 -0.68 -0.432 -0.832 -0.808c -0.176 -0.44 -0.392 -0.744 -0.96 -0.744v 0.504c 0 0.664 0.088 0.688 0.496 0.728c 0.048 0.048 0.048 0.216 0 0.264c -0.192 -0.008 -0.496 -0.016 -0.816 -0.016c -0.344 0 -0.624 0.008 -0.888 0.016c -0.048 -0.048 -0.048 -0.216 0 -0.264c 0.488 -0.032 0.576 -0.064 0.576 -0.728v -1.48c 0 -0.664 -0.088 -0.688 -0.576 -0.728c -0.048 -0.048 -0.048 -0.216 0 -0.264c 0.264 0.008 0.544 0.016 0.896 0.016c 0.312 0 0.632 -0.008 0.808 -0.016c 0.048 0.048 0.048 0.216 0 0.264c -0.408 0.032 -0.496 0.064 -0.496 0.728v 0.696c 0.544 -0.032 0.688 -0.248 0.832 -0.544l 0.344 -0.72c 0.104 -0.216 0.264 -0.4 0.424 -0.408Z "/></symbol><symbol id="gF79D9CC171E1ACC5162F855F1894F43E" overflow="visible"><path d="M 0 0m 2.344 0.384c 0.048 -0.248 0.136 -0.464 0.536 -0.464c 0.304 0 0.592 0.136 0.76 0.296c -0.016 0.096 -0.048 0.168 -0.136 0.216c -0.056 -0.048 -0.192 -0.128 -0.296 -0.128c -0.232 0 -0.24 0.312 -0.24 0.68v 1.176c 0 1.136 -0.624 1.352 -1.208 1.352c -0.656 0 -1.32 -0.432 -1.32 -0.888c 0 -0.192 0.096 -0.288 0.28 -0.288c 0.232 0 0.376 0.168 0.376 0.272c 0 0.056 -0.008 0.112 -0.024 0.144c -0.008 0.024 -0.016 0.072 -0.016 0.16c 0 0.248 0.336 0.336 0.64 0.336c 0.272 0 0.648 -0.136 0.648 -1.04c 0 -0.056 -0.024 -0.088 -0.048 -0.096l -0.688 -0.168c -0.768 -0.192 -1.32 -0.616 -1.32 -1.16c 0 -0.656 0.448 -0.864 1.008 -0.864c 0.28 0 0.52 0.064 0.872 0.336l 0.16 0.128Z m 0 1.48v -1.056c 0 -0.104 -0.048 -0.16 -0.112 -0.208c -0.208 -0.168 -0.48 -0.352 -0.704 -0.352c -0.4 0 -0.576 0.32 -0.576 0.568c 0 0.36 0.168 0.728 0.76 0.88Z "/></symbol><symbol id="g1A9694FA4202677694E328AC46097BF3" overflow="visible"><path d="M 0 0m 1.296 2.456c 0 0.664 0.088 0.688 0.496 0.728c 0.048 0.048 0.048 0.216 0 0.264c -0.192 -0.008 -0.496 -0.016 -0.816 -0.016c -0.344 0 -0.616 0.008 -0.88 0.016c -0.048 -0.048 -0.048 -0.216 0 -0.264c 0.488 -0.032 0.576 -0.064 0.576 -0.728v -0.344c 0 -0.752 0.168 -1.048 0.912 -1.048c 0.504 0 0.904 0.288 1.232 0.528v -0.616c 0 -0.664 -0.088 -0.688 -0.576 -0.728c -0.048 -0.048 -0.048 -0.216 0 -0.264c 0.264 0.008 0.544 0.016 0.896 0.016c 0.344 0 0.64 -0.008 0.896 -0.016c 0.048 0.048 0.048 0.216 0 0.264c -0.488 0.032 -0.576 0.064 -0.576 0.728v 1.48c 0 0.664 0.088 0.688 0.576 0.728c 0.048 0.048 0.048 0.216 0 0.264c -0.272 -0.008 -0.544 -0.016 -0.896 -0.016c -0.312 0 -0.632 0.008 -0.816 0.016c -0.048 -0.048 -0.048 -0.216 0 -0.264c 0.408 -0.032 0.496 -0.064 0.496 -0.728v -0.576c -0.272 -0.24 -0.56 -0.456 -0.976 -0.456c -0.52 0 -0.544 0.272 -0.544 0.896Z "/></symbol><symbol id="g465CA45D0696F5BBCE5E7A11B5E63D98" overflow="visible"><path d="M 0 0m 3.088 0.744c -0.296 -0.304 -0.528 -0.432 -0.992 -0.432c -0.288 0 -0.624 0.168 -0.872 0.576c -0.16 0.264 -0.256 0.632 -0.256 1.096l 2.128 -0.016c 0.096 0 0.152 0.048 0.152 0.136c 0 0.672 -0.24 1.392 -1.352 1.392c -0.696 0 -1.6 -0.664 -1.6 -1.88c 0 -0.448 0.112 -0.88 0.376 -1.184c 0.272 -0.32 0.648 -0.512 1.224 -0.512c 0.608 0 1.04 0.28 1.36 0.696c -0.024 0.08 -0.072 0.12 -0.168 0.128Z m -2.096 1.512c 0.152 0.904 0.712 0.976 0.904 0.976c 0.304 0 0.664 -0.168 0.664 -0.84c 0 -0.072 -0.032 -0.112 -0.12 -0.112Z "/></symbol><symbol id="gE09E60C0AC8E2E10ADA02C2F49261352" overflow="visible"><path d="M 0 0m 1.456 0.976c 0 -0.664 -0.088 -0.704 -0.576 -0.728c -0.048 -0.048 -0.048 -0.216 0 -0.264c 0.312 0.008 0.632 0.016 0.896 0.016c 0.272 0 0.584 -0.008 0.888 -0.016c 0.048 0.048 0.048 0.216 0 0.264c -0.488 0.024 -0.576 0.064 -0.576 0.728v 2.16h 0.136c 0.648 0 0.776 -0.224 0.912 -0.872c 0.104 0 0.208 0.032 0.208 0.032c -0.048 0.368 -0.08 0.72 -0.088 1.184c -0.184 -0.016 -0.784 -0.048 -1.184 -0.048h -0.6c -0.4 0 -0.848 0.024 -1.168 0.048c -0.008 -0.464 -0.04 -0.816 -0.096 -1.184c 0 0 0.112 -0.032 0.216 -0.032c 0.136 0.648 0.256 0.872 0.912 0.872h 0.12Z "/></symbol></defs></svg>