<svg viewBox="0 0 202.322145669 130.644503937" width="202.322145669pt" height="130.644503937pt" xmlns="http://www.w3.org/2000/svg" xmlns:xlink="http://www.w3.org/1999/xlink" xmlns:h5="http://www.w3.org/1999/xhtml"><path fill="#ffffff" fill-rule="nonzero" d="M 0 0v 130.644503937h 202.322145669v -130.644503937Z "/><g transform="translate(8 8)"><path fill="none" stroke="#1a1a18" stroke-width="0.6" stroke-linecap="butt" stroke-linejoin="miter" stroke-miterlimit="4" transform="translate(7.739468504 55.116944882)" d="M 0 0h 172.058985452"/><path fill="#1a1a18" fill-rule="nonzero" stroke="#1a1a18" stroke-width="0.6" stroke-linecap="butt" stroke-linejoin="miter" stroke-miterlimit="4" transform="translate(179.798453858 52.99096063)" d="M 0 0m 5.669291339 2.125984252l -5.669291339 2.125984252v -4.251968504l 5.669291339 2.125984252Z "/><path fill="none" transform="translate(159.626145669 60.46488189)" d="M 0 0h 26.696v 6.312h -26.696v -6.312Z "/><g transform="translate(159.626145606 60.464881795)"><g transform="matrix(1 0 0 -1 0 5.264)"><use xlink:href="#gE4F86D8BE8C69EC1EB36B973594724AB" x="0" y="0" fill="#7c7f6a" fill-rule="nonzero"/><use xlink:href="#g465CA45D0696F5BBCE5E7A11B5E63D98" x="5.44" y="0" fill="#7c7f6a" fill-rule="nonzero"/><use xlink:href="#g9F99202881449AD6C0CCCD21824C9AF1" x="9.016" y="0" fill="#7c7f6a" fill-rule="nonzero"/><use xlink:href="#g3582D8D1264CABFCC073F09D45268688" x="12.44" y="0" fill="#7c7f6a" fill-rule="nonzero"/><use xlink:href="#g4D4D07FBB1AB736B92087EDE50C2CE76" x="16.288" y="0" fill="#7c7f6a" fill-rule="nonzero"/><use xlink:href="#gADB3B27726748394AAF96F33FED6E9BE" x="20.904" y="0" fill="#7c7f6a" fill-rule="nonzero"/></g></g><path fill="none" stroke="#1a1a18" stroke-width="0.6" stroke-linecap="butt" stroke-linejoin="miter" stroke-miterlimit="4" transform="translate(7.739468504 10.617014548)" d="M 0 0m 0 104.027489389v -104.027489389"/><path fill="#1a1a18" fill-rule="nonzero" stroke="#1a1a18" stroke-width="0.6" stroke-linecap="butt" stroke-linejoin="miter" stroke-miterlimit="4" transform="translate(5.613484252 4.947723307)" d="M 0 0m 2.125984252 0l 2.125984252 5.669291339h -4.251968504l 2.125984252 -5.669291339Z "/><path fill="none" transform="translate(3.4875 1.453322835)" d="M 0 0h 4.776v 5.28h -4.776v -5.28Z "/><g transform="translate(3.487499953 1.453322787)"><g transform="matrix(1 0 0 -1 0 5.264)"><use xlink:href="#g257321D448ABEEFA4C949A97C9AEA63C" x="0" y="0" fill="#7c7f6a" fill-rule="nonzero"/></g></g><path fill="none" transform="translate(0 52.611944882)" d="M 0 0h 3.4875l 0 5.01h -3.4875v -5.01Z "/><g transform="translate(0 52.611944835)"><g transform="matrix(1 0 0 -1 0 4.935)"><use xlink:href="#g755DF9CE1CDD846D73FA5B6599213F56" x="0" y="0" fill="#1a1a18" fill-rule="nonzero"/></g></g><path fill="none" stroke="#7c7f6a" stroke-width="1.2" stroke-linecap="butt" stroke-linejoin="miter" stroke-miterlimit="4" transform="translate(7.739468504 43.780452868)" d="M 0 0m 0 22.510095252l 3.543307087 -0.14877486l 3.543307087 -0.195338362l 3.543307087 -0.24107685l 3.543307087 -0.285797147l 3.543307087 -0.329310376l 3.543307087 -0.371432759l 3.543307087 -0.411986391l 3.543307087 -0.450799992l 3.543307087 -0.487709635l 3.543307087 -0.52255943l 3.543307087 -0.555202188l 3.543307087 -0.585500043l 3.543307087 -0.613325031l 3.543307087 -0.638559632l 3.543307087 -0.66109727l 3.543307087 -0.680842754l 3.543307087 -0.697712691l 3.543307087 -0.711635829l 3.543307087 -0.722553364l 3.543307087 -0.730419186l 3.543307087 -0.735200074l 3.543307087 -0.736875834l 3.543307087 -0.73543939l 3.543307087 -0.730896809l 3.543307087 -0.723267275l 3.543307087 -0.712583013l 3.543307087 -0.698889148l 3.543307087 -0.682243515l 3.543307087 -0.662716419l 3.543307087 -0.640390331l 3.543307087 -0.615359547l 3.543307087 -0.587729783l 3.543307087 -0.557617736l 3.543307087 -0.525150583l 3.543307087 -0.49046545l 3.543307087 -0.45370883l 3.543307087 -0.415035964l 3.543307087 -0.37461019l 3.543307087 -0.332602244l 3.543307087 -0.289189548l 3.543307087 -0.244555457l 3.543307087 -0.198888483l 3.543307087 -0.152381501l 3.543307087 -0.105230933l 3.543307087 -0.057635922l 3.543307087 -0.009797484l 3.543307087 0.038082334l 3.543307087 0.08580131"/><path fill="none" transform="translate(151.391562992 34.541070866)" d="M 0 0h 23.592v 7.136h -23.592v -7.136Z "/><g transform="translate(151.391562898 34.541070756)"><g transform="matrix(1 0 0 -1 0 5.264)"><use xlink:href="#g89E7AED93332C4356E163D20D023452" x="0" y="0" fill="#7c7f6a" fill-rule="nonzero"/><use xlink:href="#gE4F86D8BE8C69EC1EB36B973594724AB" x="6.12" y="0" fill="#7c7f6a" fill-rule="nonzero"/><use xlink:href="#g5D01DA3AB390CB78D7E54204B7DC3F87" x="11.56" y="0" fill="#7c7f6a" fill-rule="nonzero"/><use xlink:href="#g46DFAA35BC521B4F2378CE697B4B163E" x="15.592" y="0" fill="#7c7f6a" fill-rule="nonzero"/><use xlink:href="#g3582D8D1264CABFCC073F09D45268688" x="19.744" y="0" fill="#7c7f6a" fill-rule="nonzero"/></g></g><path fill="none" stroke="#1a1a18" stroke-width="1.4" stroke-linecap="butt" stroke-linejoin="miter" stroke-miterlimit="4" transform="translate(7.739468504 11.188038327)" d="M 0 0m 0 87.226619101l 3.543307087 -0.576502581l 3.543307087 -0.756936152l 3.543307087 -0.934172794l 3.543307087 -1.107463945l 3.543307087 -1.276077708l 3.543307087 -1.439301941l 3.543307087 -1.596447263l 3.543307087 -1.746849971l 3.543307087 -1.889874835l 3.543307087 -2.024917789l 3.543307087 -2.151408478l 3.543307087 -2.268812665l 3.543307087 -2.376634493l 3.543307087 -2.474418576l 3.543307087 -2.56175192l 3.543307087 -2.638265673l 3.543307087 -2.703636677l 3.543307087 -2.757588838l 3.543307087 -2.799894287l 3.543307087 -2.830374347l 3.543307087 -2.848900285l 3.543307087 -2.855393857l 3.543307087 -2.849827637l 3.543307087 -2.832225133l 3.543307087 -2.802660691l 3.543307087 -2.761259176l 3.543307087 -2.708195448l 3.543307087 -2.643693622l 3.543307087 -2.568026123l 3.543307087 -2.481512533l 3.543307087 -2.384518243l 3.543307087 -2.277452911l 3.543307087 -2.160768727l 3.543307087 -2.034958509l 3.543307087 -1.900553618l 3.543307087 -1.758121715l 3.543307087 -1.608264362l 3.543307087 -1.451614485l 3.543307087 -1.288833695l 3.543307087 -1.1206095l 3.543307087 -0.947652397l 3.543307087 -0.770692872l 3.543307087 -0.590478315l 3.543307087 -0.407769866l 3.543307087 -0.223339196l 3.543307087 -0.03796525l 3.543307087 0.147569043l 3.543307087 0.332480076"/><path fill="none" transform="translate(86.858838583)" d="M 0 0h 11.84v 5.352h -11.84v -5.352Z "/><g transform="translate(86.858838567 -4.7e-8)"><g transform="matrix(1 0 0 -1 0 5.264)"><use xlink:href="#g6B82393DEE9EED3DAD9553B65DF3D165" x="0" y="0" fill="#1a1a18" fill-rule="nonzero"/><use xlink:href="#g4DADFF8D06AE4DC17FB93571E5AFF437" x="4.4" y="0" fill="#1a1a18" fill-rule="nonzero"/><use xlink:href="#gD00C9D162D1CBC09F2F7551D594DBB72" x="8.12" y="0" fill="#1a1a18" fill-rule="nonzero"/></g></g><path fill="none" transform="translate(86.858838583 106.299212598)" d="M 0 0h 11.84v 5.352h -11.84v -5.352Z "/><g transform="translate(86.858838567 106.299212551)"><g transform="matrix(1 0 0 -1 0 5.264)"><use xlink:href="#g12ECFB2AAC83BB8F34248FA9698A5638" x="0" y="0" fill="#1a1a18" fill-rule="nonzero"/><use xlink:href="#gD00C9D162D1CBC09F2F7551D594DBB72" x="4.4" y="0" fill="#1a1a18" fill-rule="nonzero"/><use xlink:href="#g97663EC9AEA74EADA07472643E1BE1B4" x="8.12" y="0" fill="#1a1a18" fill-rule="nonzero"/></g></g><path fill="none" transform="translate(150.111562992 79.903401575)" d="M 0 0h 24.872v 7.12h -24.872v -7.12Z "/><g transform="translate(150.111562976 79.903401543)"><g transform="matrix(1 0 0 -1 0 5.264)"><use xlink:href="#gA2A11AB0A6C2D3E9809B25DD57660B2E" x="0" y="0" fill="#1a1a18" fill-rule="nonzero"/><use xlink:href="#g362A412C7577377BE4D103B9E5EDCC22" x="4.64" y="0" fill="#1a1a18" fill-rule="nonzero"/><use xlink:href="#g89E7AED93332C4356E163D20D023452" x="8.656" y="0" fill="#1a1a18" fill-rule="nonzero"/><use xlink:href="#gE09E60C0AC8E2E10ADA02C2F49261352" x="12.776" y="0" fill="#1a1a18" fill-rule="nonzero"/><use xlink:href="#gDF0740817C60D01D4C0A2F901DD857A7" x="16.336" y="0" fill="#1a1a18" fill-rule="nonzero"/><use xlink:href="#g3582D8D1264CABFCC073F09D45268688" x="21.024" y="0" fill="#1a1a18" fill-rule="nonzero"/></g></g></g><defs><symbol id="gE4F86D8BE8C69EC1EB36B973594724AB" overflow="visible"><path d="M 0 0m 0.936 2.448l -0.048 -1.488c -0.024 -0.672 -0.144 -0.688 -0.608 -0.712c -0.048 -0.048 -0.048 -0.216 0 -0.264c 0.16 0.008 0.56 0.016 0.688 0.016c 0.16 0 0.536 -0.008 0.696 -0.016c 0.048 0.048 0.048 0.216 0 0.264c -0.456 0.032 -0.488 0.112 -0.472 0.712l 0.056 1.96c 0 0.072 0.032 0.072 0.064 0l 1.16 -2.832c 0.032 -0.024 0.064 -0.024 0.088 0l 1.312 2.824c 0.04 0.088 0.08 0.096 0.08 0l -0.008 -1.936c 0 -0.664 -0.056 -0.688 -0.544 -0.728c -0.048 -0.048 -0.048 -0.216 0 -0.264c 0.288 0.008 0.584 0.016 0.864 0.016c 0.24 0 0.584 -0.008 0.896 -0.016c 0.048 0.048 0.048 0.216 0 0.264c -0.488 0.032 -0.576 0.064 -0.576 0.728l -0.016 1.48c -0.008 0.664 0.088 0.688 0.576 0.728c 0.048 0.048 0.048 0.216 0 0.264c -0.28 -0.016 -1.056 -0.016 -1.32 -0.016l -1.064 -2.288l -0.04 -0.08l -0.032 0.08l -0.936 2.288c -0.264 0 -1.112 0 -1.392 0.016c -0.048 -0.048 -0.048 -0.216 0 -0.264c 0.488 -0.04 0.6 -0.072 0.576 -0.736Z "/></symbol><symbol id="g465CA45D0696F5BBCE5E7A11B5E63D98" overflow="visible"><path d="M 0 0m 3.088 0.744c -0.296 -0.304 -0.528 -0.432 -0.992 -0.432c -0.288 0 -0.624 0.168 -0.872 0.576c -0.16 0.264 -0.256 0.632 -0.256 1.096l 2.128 -0.016c 0.096 0 0.152 0.048 0.152 0.136c 0 0.672 -0.24 1.392 -1.352 1.392c -0.696 0 -1.6 -0.664 -1.6 -1.88c 0 -0.448 0.112 -0.88 0.376 -1.184c 0.272 -0.32 0.648 -0.512 1.224 -0.512c 0.608 0 1.04 0.28 1.36 0.696c -0.024 0.08 -0.072 0.12 -0.168 0.128Z m -2.096 1.512c 0.152 0.904 0.712 0.976 0.904 0.976c 0.304 0 0.664 -0.168 0.664 -0.84c 0 -0.072 -0.032 -0.112 -0.12 -0.112Z "/></symbol><symbol id="g9F99202881449AD6C0CCCD21824C9AF1" overflow="visible"><path d="M 0 0m 3.184 0.728c -0.032 0.072 -0.096 0.104 -0.168 0.112c -0.272 -0.352 -0.616 -0.528 -0.96 -0.528c -0.584 0 -1.072 0.592 -1.072 1.528c 0 0.88 0.384 1.408 0.912 1.408c 0.472 0 0.536 -0.28 0.568 -0.56c 0.024 -0.216 0.136 -0.288 0.304 -0.288c 0.168 0 0.392 0.104 0.392 0.352c 0 0.44 -0.456 0.76 -1.224 0.76c -0.792 0 -1.64 -0.712 -1.64 -1.848c 0 -1.032 0.576 -1.744 1.584 -1.744c 0.48 0 0.904 0.152 1.304 0.808Z "/></symbol><symbol id="g3582D8D1264CABFCC073F09D45268688" overflow="visible"><path d="M 0 0m 0.912 0c 0.224 0.008 0.304 0.216 0.4 0.504c 0.208 0.632 0.44 1.024 0.84 1.024h 0.208v -0.552c 0 -0.664 -0.088 -0.688 -0.576 -0.728c -0.048 -0.048 -0.048 -0.216 0 -0.264c 0.264 0.008 0.544 0.016 0.896 0.016c 0.344 0 0.632 -0.008 0.888 -0.016c 0.048 0.048 0.048 0.216 0 0.264c -0.488 0.032 -0.576 0.064 -0.576 0.728v 1.48c 0 0.664 0.088 0.688 0.576 0.728c 0.048 0.048 0.048 0.216 0 0.264c -0.272 -0.008 -0.544 -0.016 -0.896 -0.016c -0.272 0 -0.504 0.016 -0.704 0.016c -1.4 0 -1.52 -0.576 -1.52 -1.008c 0 -0.52 0.4 -0.784 0.992 -0.808c 0.024 0 0.024 -0.024 0.016 -0.032c -0.304 -0.088 -0.44 -0.256 -0.576 -0.552c -0.088 -0.184 -0.16 -0.36 -0.2 -0.464c -0.104 -0.272 -0.24 -0.32 -0.552 -0.336c -0.048 -0.048 -0.048 -0.216 0 -0.264c 0.16 0.008 0.784 0.016 0.784 0.016Z m 0.224 2.568c 0 0.376 0.12 0.616 0.768 0.616c 0.328 0 0.456 -0.144 0.456 -0.448v -0.936h -0.56c -0.48 0 -0.664 0.368 -0.664 0.768Z "/></symbol><symbol id="g4D4D07FBB1AB736B92087EDE50C2CE76" overflow="visible"><path d="M 0 0m 1.8 0.312c -0.296 0 -0.344 0.088 -0.344 0.408v 1.736c 0 0.656 0.08 0.696 0.496 0.728c 0.04 0.048 0.04 0.216 0 0.264c -0.2 -0.008 -0.496 -0.016 -0.816 -0.016c -0.32 0 -0.6 0.008 -0.824 0.016c -0.04 -0.048 -0.04 -0.216 0 -0.264c 0.44 -0.032 0.512 -0.072 0.512 -0.728v -1.48c 0 -0.656 -0.104 -0.696 -0.544 -0.728c -0.048 -0.048 -0.048 -0.216 0 -0.264c 0.24 0.008 0.544 0.016 0.864 0.016h 2.016c 0.672 0 0.904 -0.64 1.008 -1.032c 0.072 -0.016 0.144 -0.016 0.208 0.008l -0.048 1.064c -0.008 0.144 -0.128 0.184 -0.24 0.208c -0.184 0.04 -0.312 0.088 -0.312 0.728v 1.48c 0 0.656 0.104 0.696 0.544 0.728c 0.048 0.048 0.048 0.216 0 0.264c -0.24 -0.008 -0.544 -0.016 -0.864 -0.016c -0.32 0 -0.56 0.008 -0.8 0.016c -0.048 -0.048 -0.048 -0.216 0 -0.264c 0.408 -0.04 0.488 -0.072 0.488 -0.728v -1.736c 0 -0.248 -0.024 -0.408 -0.336 -0.408Z "/></symbol><symbol id="gADB3B27726748394AAF96F33FED6E9BE" overflow="visible"><path d="M 0 0m 1.488 2.448c 0 0.672 0.088 0.696 0.576 0.736c 0.048 0.048 0.048 0.216 0 0.264c -0.272 -0.008 -0.544 -0.016 -0.896 -0.016c -0.344 0 -0.624 0.008 -0.888 0.016c -0.048 -0.048 -0.048 -0.216 0 -0.264c 0.488 -0.032 0.576 -0.064 0.576 -0.728v -1.48c 0 -0.664 -0.088 -0.688 -0.576 -0.728c -0.048 -0.048 -0.048 -0.216 0 -0.264c 0.264 0.008 0.544 0.016 0.896 0.016c 0.328 0 0.504 -0.016 0.832 -0.016c 0.984 0 1.52 0.248 1.52 1.104c 0 0.752 -0.656 0.968 -1.464 0.968h -0.576Z m 3.448 0.008c 0 0.664 0.088 0.688 0.576 0.728c 0.048 0.048 0.048 0.216 0 0.264c -0.272 -0.008 -0.544 -0.016 -0.896 -0.016c -0.344 0 -0.624 0.008 -0.888 0.016c -0.048 -0.048 -0.048 -0.216 0 -0.264c 0.488 -0.032 0.576 -0.064 0.576 -0.728v -1.48c 0 -0.664 -0.088 -0.688 -0.576 -0.728c -0.048 -0.048 -0.048 -0.216 0 -0.264c 0.264 0.008 0.544 0.016 0.896 0.016c 0.344 0 0.632 -0.008 0.888 -0.016c 0.048 0.048 0.048 0.216 0 0.264c -0.488 0.032 -0.576 0.064 -0.576 0.728Z m -2.096 -1.448c 0 -0.656 -0.4 -0.76 -0.824 -0.76c -0.392 0 -0.528 0.08 -0.528 0.36v 1.184h 0.568c 0.6 0 0.784 -0.36 0.784 -0.784Z "/></symbol><symbol id="g257321D448ABEEFA4C949A97C9AEA63C" overflow="visible"><path d="M 0 0m 2.8 0.976v 3.056c 0 0.512 0.08 0.816 0.368 0.816h 0.176c 0.6 0 0.976 -0.208 1.112 -0.824c 0.088 0 0.2 0.008 0.272 0.04c -0.056 0.368 -0.096 0.776 -0.104 1.136c 0 0.008 -0.016 0.024 -0.024 0.024c -0.272 -0.024 -1.16 -0.064 -1.792 -0.064h -0.688c -0.616 0 -1.56 0.04 -1.864 0.064c -0.016 0 -0.032 -0.016 -0.032 -0.024c -0.032 -0.36 -0.112 -0.776 -0.2 -1.16c 0.08 -0.032 0.176 -0.04 0.272 -0.04c 0.16 0.64 0.528 0.848 1.056 0.848h 0.392c 0.296 0 0.376 -0.304 0.376 -0.792v -3.08c 0 -0.664 -0.136 -0.704 -0.776 -0.728c -0.048 -0.048 -0.048 -0.216 0 -0.264c 0.392 0.008 0.8 0.016 1.12 0.016c 0.304 0 0.712 -0.008 1.112 -0.016c 0.048 0.048 0.048 0.216 0 0.264c -0.64 0.024 -0.776 0.064 -0.776 0.728Z "/></symbol><symbol id="g755DF9CE1CDD846D73FA5B6599213F56" overflow="visible"><path d="M 0 0m 1.71 -0.075c 0.5775 0 1.455 0.585 1.455 2.3475c 0 0.7425 -0.18 1.38 -0.51 1.815c -0.195 0.2625 -0.51 0.4875 -0.915 0.4875c -0.7425 0 -1.4475 -0.885 -1.4475 -2.37c 0 -0.8025 0.2475 -1.5525 0.66 -1.965c 0.21 -0.21 0.465 -0.315 0.7575 -0.315Z m 0.03 4.3875c 0.1275 0 0.2475 -0.045 0.3375 -0.1275c 0.2325 -0.195 0.435 -0.765 0.435 -1.77c 0 -0.69 -0.0225 -1.1625 -0.1275 -1.545c -0.165 -0.615 -0.5325 -0.6825 -0.6675 -0.6825c -0.6975 0 -0.7725 1.2825 -0.7725 1.935c 0 1.845 0.4575 2.19 0.795 2.19Z "/></symbol><symbol id="g89E7AED93332C4356E163D20D023452" overflow="visible"><path d="M 0 0m 1.632 -1.28c 0.128 0.224 0.232 0.448 0.328 0.688c 0.64 1.544 1 2.368 1.416 3.264c 0.16 0.336 0.272 0.464 0.648 0.512c 0.048 0.048 0.048 0.216 0 0.264c -0.16 -0.008 -0.344 -0.016 -0.568 -0.016c -0.24 0 -0.488 0.008 -0.728 0.016c -0.048 -0.048 -0.048 -0.216 0 -0.264c 0.256 -0.024 0.512 -0.072 0.384 -0.36l -0.792 -1.832c -0.056 -0.128 -0.128 -0.152 -0.192 0.008l -0.712 1.664c -0.144 0.336 -0.184 0.488 0.264 0.52c 0.048 0.048 0.048 0.216 0 0.264c -0.296 -0.008 -0.616 -0.016 -0.904 -0.016c -0.272 0 -0.488 0.008 -0.648 0.016c -0.048 -0.048 -0.048 -0.216 0 -0.264c 0.32 -0.04 0.424 -0.112 0.632 -0.6l 0.904 -2.104c 0.072 -0.16 0.192 -0.528 0.112 -0.752c -0.096 -0.264 -0.192 -0.488 -0.312 -0.736c -0.088 -0.16 -0.2 -0.232 -0.4 -0.232c -0.112 0 -0.144 0.024 -0.232 0.024c -0.232 0 -0.352 -0.24 -0.352 -0.344c 0 -0.168 0.16 -0.296 0.376 -0.296c 0.168 0 0.488 0.064 0.776 0.576Z "/></symbol><symbol id="g5D01DA3AB390CB78D7E54204B7DC3F87" overflow="visible"><path d="M 0 0m 0.328 1.64c 0 -0.816 0.544 -1.72 1.68 -1.72c 0.512 0 0.904 0.184 1.176 0.448c 0.36 0.352 0.52 0.856 0.52 1.344c 0 0.832 -0.456 1.8 -1.68 1.8c -0.528 0 -0.96 -0.216 -1.256 -0.56c -0.288 -0.344 -0.44 -0.808 -0.44 -1.312Z m 1.576 1.592c 0.688 0 1.112 -0.624 1.112 -1.776c 0 -1.008 -0.52 -1.256 -0.896 -1.256c -0.832 0 -1.104 1.008 -1.104 1.624c 0 0.696 0.168 1.408 0.888 1.408Z "/></symbol><symbol id="g46DFAA35BC521B4F2378CE697B4B163E" overflow="visible"><path d="M 0 0m 1.248 2.944c -0.008 0.24 -0.024 0.448 -0.064 0.528c -0.016 0.04 -0.032 0.064 -0.096 0.064c -0.224 -0.088 -0.432 -0.16 -0.984 -0.232c -0.016 -0.048 0 -0.176 0.016 -0.224c 0.432 -0.04 0.52 -0.08 0.52 -0.544v -3.416c 0 -0.664 -0.088 -0.704 -0.576 -0.728c -0.048 -0.048 -0.048 -0.216 0 -0.264c 0.28 0.008 0.576 0.016 0.896 0.016c 0.32 0 0.704 -0.008 0.968 -0.016c 0.048 0.048 0.048 0.216 0 0.264c -0.568 0.032 -0.656 0.064 -0.656 0.728v 0.864c 0 0.104 0.032 0.096 0.112 0.064c 0.2 -0.08 0.44 -0.128 0.696 -0.128c 0.448 0 0.848 0.136 1.176 0.448c 0.376 0.368 0.592 0.864 0.592 1.512c 0 0.848 -0.6 1.632 -1.416 1.632c -0.368 0 -0.776 -0.24 -1.096 -0.6c -0.048 -0.048 -0.08 -0.048 -0.088 0.032Z m 0.152 -0.296c 0.208 0.256 0.576 0.496 0.808 0.496c 0.512 0 0.952 -0.576 0.952 -1.48c 0 -0.656 -0.232 -1.472 -1.128 -1.472c -0.144 0 -0.424 0.04 -0.568 0.168c -0.16 0.144 -0.192 0.192 -0.192 0.48v 1.456c 0 0.168 0.032 0.24 0.128 0.352Z "/></symbol><symbol id="g6B82393DEE9EED3DAD9553B65DF3D165" overflow="visible"><path d="M 0 0m 2 3.48v -1.272h -1.32c -0.096 0 -0.2 -0.152 -0.2 -0.272c 0 -0.064 0.048 -0.128 0.12 -0.128h 1.4v -1.36c 0 -0.072 0.064 -0.12 0.128 -0.12c 0.12 0 0.272 0.104 0.272 0.2v 1.28h 1.304c 0.104 0 0.216 0.184 0.216 0.264c 0 0.064 -0.032 0.136 -0.112 0.136h -1.408v 1.376c 0 0.08 -0.072 0.112 -0.136 0.112c -0.08 0 -0.264 -0.112 -0.264 -0.216Z "/></symbol><symbol id="g4DADFF8D06AE4DC17FB93571E5AFF437" overflow="visible"><path d="M 0 0m 1.72 4.6c 0.344 0 0.664 -0.208 0.664 -0.72c 0 -0.4 -0.464 -1.016 -1.256 -1.128l 0.04 -0.256c 0.136 0.016 0.28 0.016 0.384 0.016c 0.456 0 1.048 -0.128 1.048 -1.032c 0 -1.064 -0.712 -1.28 -0.992 -1.28c -0.408 0 -0.48 0.184 -0.576 0.328c -0.08 0.112 -0.184 0.208 -0.344 0.208c -0.168 0 -0.336 -0.152 -0.336 -0.28c 0 -0.32 0.672 -0.536 1.152 -0.536c 0.952 0 1.8 0.616 1.8 1.672c 0 0.872 -0.656 1.184 -1.128 1.264l -0.008 0.016c 0.656 0.312 0.84 0.64 0.84 1.064c 0 0.24 -0.056 0.432 -0.248 0.632c -0.176 0.176 -0.456 0.312 -0.872 0.312c -1.176 0 -1.512 -0.768 -1.512 -1.032c 0 -0.112 0.08 -0.272 0.272 -0.272c 0.28 0 0.312 0.264 0.312 0.416c 0 0.512 0.552 0.608 0.76 0.608Z "/></symbol><symbol id="gD00C9D162D1CBC09F2F7551D594DBB72" overflow="visible"><path d="M 0 0m 2.552 1.512c 0 -0.76 -0.4 -1.32 -0.88 -1.32c -0.304 0 -0.408 0.2 -0.528 0.36c -0.104 0.136 -0.24 0.256 -0.408 0.256c -0.152 0 -0.304 -0.136 -0.304 -0.296c 0 -0.328 0.68 -0.6 1.136 -0.6c 0.992 0 1.696 0.736 1.696 1.744c 0 0.776 -0.536 1.472 -1.432 1.472c -0.344 0 -0.64 -0.072 -0.784 -0.128l 0.16 1.336c 0.296 -0.032 0.552 -0.072 0.936 -0.072c 0.24 0 0.512 0.016 0.84 0.048l 0.128 0.544l -0.056 0.032c -0.456 -0.048 -0.888 -0.088 -1.312 -0.088c -0.296 0 -0.584 0.016 -0.864 0.04l -0.272 -2.304c 0.424 0.16 0.728 0.192 1.016 0.192c 0.52 0 0.928 -0.344 0.928 -1.216Z "/></symbol><symbol id="g12ECFB2AAC83BB8F34248FA9698A5638" overflow="visible"><path d="M 0 0m 3.704 1.808c 0.104 0 0.216 0.184 0.216 0.264c 0 0.064 -0.032 0.136 -0.112 0.136h -3.128c -0.096 0 -0.2 -0.152 -0.2 -0.272c 0 -0.064 0.048 -0.128 0.12 -0.128Z "/></symbol><symbol id="g97663EC9AEA74EADA07472643E1BE1B4" overflow="visible"><path d="M 0 0m 1.824 -0.08c 0.616 0 1.552 0.624 1.552 2.504c 0 0.792 -0.192 1.472 -0.544 1.936c -0.208 0.28 -0.544 0.52 -0.976 0.52c -0.792 0 -1.544 -0.944 -1.544 -2.528c 0 -0.856 0.264 -1.656 0.704 -2.096c 0.224 -0.224 0.496 -0.336 0.808 -0.336Z m 0.032 4.68c 0.136 0 0.264 -0.048 0.36 -0.136c 0.248 -0.208 0.464 -0.816 0.464 -1.888c 0 -0.736 -0.024 -1.24 -0.136 -1.648c -0.176 -0.656 -0.568 -0.728 -0.712 -0.728c -0.744 0 -0.824 1.368 -0.824 2.064c 0 1.968 0.488 2.336 0.848 2.336Z "/></symbol><symbol id="gA2A11AB0A6C2D3E9809B25DD57660B2E" overflow="visible"><path d="M 0 0m 3.144 2.584v -1.608c 0 -0.664 -0.192 -0.696 -0.816 -0.728c -0.048 -0.048 -0.048 -0.216 0 -0.264c 0.4 0.008 0.704 0.016 1.152 0.016c 0.408 0 0.648 -0.008 1.04 -0.016c 0.048 0.048 0.048 0.216 0 0.264c -0.56 0.024 -0.696 0.064 -0.696 0.728v 3.208c 0 0.664 0.136 0.704 0.696 0.728c 0.048 0.048 0.048 0.216 0 0.264c -0.4 -0.008 -0.632 -0.016 -1.032 -0.016c -0.272 0 -0.744 0.008 -1.024 0.008c -1.488 0 -1.848 -0.688 -1.848 -1.24c 0 -0.816 0.712 -1.216 1.256 -1.296v -0.024c -0.216 -0.128 -0.48 -0.328 -0.68 -0.848c -0.408 -1.072 -0.76 -1.504 -1.016 -1.536l -0.072 -0.008c -0.032 0 -0.056 -0.024 -0.056 -0.064v -0.152l 0.008 -0.016l 0.528 0.008c 0.568 0.008 0.864 0.656 1.208 1.52c 0.336 0.848 0.496 1.08 1.352 1.072Z m -1.792 1.432c 0 0.744 0.608 0.872 1.056 0.872c 0.696 0 0.728 -0.024 0.728 -0.288v -1.704h -0.624c -0.664 0 -1.16 0.272 -1.16 1.12Z "/></symbol><symbol id="g362A412C7577377BE4D103B9E5EDCC22" overflow="visible"><path d="M 0 0m 3.088 0c 0 0 0.624 -0.008 0.784 -0.016c 0.048 0.048 0.048 0.216 0 0.264c -0.312 0.016 -0.376 0.08 -0.512 0.336l -0.36 0.68c -0.2 0.376 -0.48 0.568 -0.936 0.568v 0.024c 0.312 0.088 0.448 0.368 0.568 0.688c 0.096 0.248 0.192 0.4 0.36 0.4c 0.072 0 0.136 -0.024 0.184 -0.056c 0.048 -0.032 0.136 -0.056 0.24 -0.056c 0.176 0 0.32 0.152 0.32 0.312c 0 0.176 -0.192 0.36 -0.456 0.36c -0.464 0 -0.68 -0.432 -0.832 -0.808c -0.176 -0.44 -0.392 -0.744 -0.96 -0.744v 0.504c 0 0.664 0.088 0.688 0.496 0.728c 0.048 0.048 0.048 0.216 0 0.264c -0.192 -0.008 -0.496 -0.016 -0.816 -0.016c -0.344 0 -0.624 0.008 -0.888 0.016c -0.048 -0.048 -0.048 -0.216 0 -0.264c 0.488 -0.032 0.576 -0.064 0.576 -0.728v -1.48c 0 -0.664 -0.088 -0.688 -0.576 -0.728c -0.048 -0.048 -0.048 -0.216 0 -0.264c 0.264 0.008 0.544 0.016 0.896 0.016c 0.312 0 0.632 -0.008 0.808 -0.016c 0.048 0.048 0.048 0.216 0 0.264c -0.408 0.032 -0.496 0.064 -0.496 0.728v 0.696c 0.544 -0.032 0.688 -0.248 0.832 -0.544l 0.344 -0.72c 0.104 -0.216 0.264 -0.4 0.424 -0.408Z "/></symbol><symbol id="gE09E60C0AC8E2E10ADA02C2F49261352" overflow="visible"><path d="M 0 0m 1.456 0.976c 0 -0.664 -0.088 -0.704 -0.576 -0.728c -0.048 -0.048 -0.048 -0.216 0 -0.264c 0.312 0.008 0.632 0.016 0.896 0.016c 0.272 0 0.584 -0.008 0.888 -0.016c 0.048 0.048 0.048 0.216 0 0.264c -0.488 0.024 -0.576 0.064 -0.576 0.728v 2.16h 0.136c 0.648 0 0.776 -0.224 0.912 -0.872c 0.104 0 0.208 0.032 0.208 0.032c -0.048 0.368 -0.08 0.72 -0.088 1.184c -0.184 -0.016 -0.784 -0.048 -1.184 -0.048h -0.6c -0.4 0 -0.848 0.024 -1.168 0.048c -0.008 -0.464 -0.04 -0.816 -0.096 -1.184c 0 0 0.112 -0.032 0.216 -0.032c 0.136 0.648 0.256 0.872 0.912 0.872h 0.12Z "/></symbol><symbol id="gDF0740817C60D01D4C0A2F901DD857A7" overflow="visible"><path d="M 0 0m 1.584 0.504c -0.024 0 -0.056 0.016 -0.056 0.096v 1.824c 0 0.664 0.168 0.736 0.576 0.76c 0.048 0.048 0.048 0.216 0 0.264c -0.184 -0.008 -0.64 -0.016 -0.936 -0.016c -0.264 0 -0.584 0.008 -0.888 0.016c -0.048 -0.048 -0.048 -0.216 0 -0.264c 0.488 -0.024 0.616 -0.096 0.616 -0.76v -1.416c 0 -0.664 -0.128 -0.736 -0.616 -0.76c -0.048 -0.048 -0.048 -0.216 0 -0.264c 0.312 0.008 0.632 0.016 0.888 0.016c 0.184 0 0.4 -0.008 0.488 -0.016c 0.04 0.112 0.112 0.272 0.2 0.432l 1.248 2.504c 0.024 0 0.056 -0.016 0.056 -0.096v -1.816c 0 -0.664 -0.168 -0.736 -0.576 -0.76c -0.048 -0.048 -0.048 -0.216 0 -0.264c 0.184 0.008 0.616 0.016 0.936 0.016c 0.248 0 0.576 -0.008 0.888 -0.016c 0.048 0.048 0.048 0.216 0 0.264c -0.488 0.024 -0.616 0.096 -0.616 0.76v 1.416c 0 0.664 0.128 0.736 0.616 0.76c 0.048 0.048 0.048 0.216 0 0.264c -0.32 -0.008 -0.64 -0.016 -0.888 -0.016c -0.176 0 -0.4 0.008 -0.48 0.016c -0.064 -0.144 -0.136 -0.312 -0.208 -0.448Z "/></symbol></defs></svg>