<svg viewBox="0 0 454.047043307 159.524062992" width="454.047043307pt" height="159.524062992pt" xmlns="http://www.w3.org/2000/svg" xmlns:xlink="http://www.w3.org/1999/xlink" xmlns:h5="http://www.w3.org/1999/xhtml"><path fill="#ffffff" fill-rule="nonzero" d="M 0 0v 159.524062992h 454.047043307v -159.524062992Z "/><g transform="translate(8 8)"><path fill="none" stroke="#1a1a18" stroke-width="1.3" stroke-linecap="butt" stroke-linejoin="miter" stroke-miterlimit="4" transform="translate(56.860759843 26.34723622)" d="M 0 0h 87.874015748"/><path fill="none" stroke="#1a1a18" stroke-width="1.3" stroke-linecap="butt" stroke-linejoin="miter" stroke-miterlimit="4" transform="translate(144.734775591 22.66219685)" d="M 0 0m 0 3.68503937l 7.653543307 -3.68503937l 10.204724409 7.37007874l 7.653543307 -3.68503937"/><path fill="none" stroke="#1a1a18" stroke-width="1.3" stroke-linecap="butt" stroke-linejoin="miter" stroke-miterlimit="4" transform="translate(170.246586614 26.34723622)" d="M 0 0h 234.558248007"/><path fill="#1a1a18" fill-rule="nonzero" stroke="#1a1a18" stroke-width="1.3" stroke-linecap="butt" stroke-linejoin="miter" stroke-miterlimit="4" transform="translate(404.804834646 25.177944882)" d="M 0 0m 3.118110236 1.169291339l -3.118110236 1.169291339v -2.338582677l 3.118110236 1.169291339Z "/><path fill="none" transform="translate(414.593043307 22.33323622)" d="M 0 0h 23.454v 8.028h -23.454v -8.028Z "/><g transform="translate(414.593043307 22.33323622)"><g transform="matrix(1 0 0 -1 0 5.922)"><use xlink:href="#g6F3F83F8220F4B0FE27ED35A349BC8A6" x="0" y="0" fill="#7c7f6a" fill-rule="nonzero"/><use xlink:href="#g4AD90A9068D018AD3CEC8FD5EA9519DC" x="4.311" y="0" fill="#7c7f6a" fill-rule="nonzero"/><use xlink:href="#gD351E21AD091924D522A6D2D6355C932" x="8.982" y="0" fill="#7c7f6a" fill-rule="nonzero"/><use xlink:href="#g82C799C01D06EF19E125C6F4348D75CA" x="13.005" y="0" fill="#7c7f6a" fill-rule="nonzero"/><use xlink:href="#gCC8431763A18574B9D70D89AC0A75466" x="19.125" y="0" fill="#7c7f6a" fill-rule="nonzero"/></g></g><path fill="none" transform="translate(62.522267717 34.470248031)" d="M 0 0h 76.551v 7.565h -76.551v -7.565Z "/><g transform="translate(62.522267669 34.470248016)"><g transform="matrix(1 0 0 -1 0 5.593)"><use xlink:href="#gBAF1B227155053221F22F6E06EEFED60" x="0" y="0" fill="#7c7f6a" fill-rule="nonzero"/><use xlink:href="#gE34E15A46C94CBC2E6ABE8844A1DDB21" x="4.573" y="0" fill="#7c7f6a" fill-rule="nonzero"/><use xlink:href="#gBEE50160BCD570B38DEF46393A725EED" x="8.857" y="0" fill="#7c7f6a" fill-rule="nonzero"/><use xlink:href="#gE7AE90A8EDDEF3DDB67EE78D36D80337" x="13.838" y="0" fill="#7c7f6a" fill-rule="nonzero"/><use xlink:href="#g1EEFC323E4FEBE7654D5CC1583F61AF4" x="18.819" y="0" fill="#7c7f6a" fill-rule="nonzero"/><use xlink:href="#gCEFD2E51F012095E752F656A8500C1AE" x="22.457" y="0" fill="#7c7f6a" fill-rule="nonzero"/><use xlink:href="#gDEA2A0379B7527B5C1F8D88530B6617D" x="26.4095" y="0" fill="#7c7f6a" fill-rule="nonzero"/><use xlink:href="#g5D2E58E4CDB4D7E6C81847885E22D756" x="32.1895" y="0" fill="#7c7f6a" fill-rule="nonzero"/><use xlink:href="#gC8932C6BA7F518DC74E87E2F4A0224EB" x="35.989" y="0" fill="#7c7f6a" fill-rule="nonzero"/><use xlink:href="#gC8932C6BA7F518DC74E87E2F4A0224EB" x="40.97" y="0" fill="#7c7f6a" fill-rule="nonzero"/><use xlink:href="#gF931FC691828778A920607CF18B9C32A" x="45.951" y="0" fill="#7c7f6a" fill-rule="nonzero"/><use xlink:href="#gEF5DE670D307ABF3FAA7AE7F58FA196F" x="49.8355" y="0" fill="#7c7f6a" fill-rule="nonzero"/><use xlink:href="#gC8D6D5492F0FFEF84F8079BC5341E7A6" x="56.049" y="0" fill="#7c7f6a" fill-rule="nonzero"/><use xlink:href="#gB3F6F741CFF64E2F87AE274E4C795DAE" x="59.585" y="0" fill="#7c7f6a" fill-rule="nonzero"/><use xlink:href="#g2884EEE83F88BF741DF31D9C41AEE180" x="64.0645" y="0" fill="#7c7f6a" fill-rule="nonzero"/><use xlink:href="#g76961810B6DEE2CEF630C1F5B8F93C8E" x="68.442" y="0" fill="#7c7f6a" fill-rule="nonzero"/><use xlink:href="#gCEFD2E51F012095E752F656A8500C1AE" x="72.5985" y="0" fill="#7c7f6a" fill-rule="nonzero"/></g></g><path fill="none" transform="translate(46.781767717 43.755614173)" d="M 0 0h 108.032v 7.136h -108.032v -7.136Z "/><g transform="translate(46.781767701 43.755614063)"><g transform="matrix(1 0 0 -1 0 5.264)"><use xlink:href="#gB30BF778AB490C945CE3B0B01F2D3DE5" x="0" y="0" fill="#7c7f6a" fill-rule="nonzero"/><use xlink:href="#gDFD38EC9906BA626C5B7E69A103C103" x="2.384" y="0" fill="#7c7f6a" fill-rule="nonzero"/><use xlink:href="#g46DFAA35BC521B4F2378CE697B4B163E" x="6.296" y="0" fill="#7c7f6a" fill-rule="nonzero"/><use xlink:href="#g5D01DA3AB390CB78D7E54204B7DC3F87" x="10.448" y="0" fill="#7c7f6a" fill-rule="nonzero"/><use xlink:href="#g937124D7F3D66536776BB8DA5DFD7893" x="14.48" y="0" fill="#7c7f6a" fill-rule="nonzero"/><use xlink:href="#gF09D88C2290872E835CD22D560D52A5C" x="19.168" y="0" fill="#7c7f6a" fill-rule="nonzero"/><use xlink:href="#g5D01DA3AB390CB78D7E54204B7DC3F87" x="22.656" y="0" fill="#7c7f6a" fill-rule="nonzero"/><use xlink:href="#gE9BB349F7E32C39203BC6B218DF12838" x="26.688" y="0" fill="#7c7f6a" fill-rule="nonzero"/><use xlink:href="#gADB3B27726748394AAF96F33FED6E9BE" x="30.52" y="0" fill="#7c7f6a" fill-rule="nonzero"/><use xlink:href="#g9E0D72929382BA054F8819A862FD1C38" x="36.312" y="0" fill="#7c7f6a" fill-rule="nonzero"/><use xlink:href="#gE9BB349F7E32C39203BC6B218DF12838" x="43" y="0" fill="#7c7f6a" fill-rule="nonzero"/><use xlink:href="#g465CA45D0696F5BBCE5E7A11B5E63D98" x="46.832" y="0" fill="#7c7f6a" fill-rule="nonzero"/><use xlink:href="#g362A412C7577377BE4D103B9E5EDCC22" x="50.408" y="0" fill="#7c7f6a" fill-rule="nonzero"/><use xlink:href="#g6250019511BFB8795A3460240BB5387A" x="54.424" y="0" fill="#7c7f6a" fill-rule="nonzero"/></g><g transform="matrix(1 0 0 -1 60.184 5.264)"><use xlink:href="#g177F9E273DA262FEAD295E221F7D9A5E" x="0" y="0" fill="#7c7f6a" fill-rule="nonzero"/><use xlink:href="#g177F9E273DA262FEAD295E221F7D9A5E" x="2.376" y="0" fill="#7c7f6a" fill-rule="nonzero"/></g><g transform="matrix(1 0 0 -1 66.936 5.264)"><use xlink:href="#gE09E60C0AC8E2E10ADA02C2F49261352" x="0" y="0" fill="#7c7f6a" fill-rule="nonzero"/><use xlink:href="#gADB3B27726748394AAF96F33FED6E9BE" x="3.56" y="0" fill="#7c7f6a" fill-rule="nonzero"/><use xlink:href="#g9F99202881449AD6C0CCCD21824C9AF1" x="9.352" y="0" fill="#7c7f6a" fill-rule="nonzero"/><use xlink:href="#gDA9D104EDC10412DB2A75684B1270D2D" x="12.776" y="0" fill="#7c7f6a" fill-rule="nonzero"/><use xlink:href="#gAC00C34078948F83CC62D60B02C8E81A" x="16.536" y="0" fill="#7c7f6a" fill-rule="nonzero"/><use xlink:href="#g5D01DA3AB390CB78D7E54204B7DC3F87" x="20.84" y="0" fill="#7c7f6a" fill-rule="nonzero"/><use xlink:href="#g937124D7F3D66536776BB8DA5DFD7893" x="26.872" y="0" fill="#7c7f6a" fill-rule="nonzero"/><use xlink:href="#gDA9D104EDC10412DB2A75684B1270D2D" x="31.56" y="0" fill="#7c7f6a" fill-rule="nonzero"/><use xlink:href="#g74629E0EED4CC27B54990D26AF653518" x="33.32" y="0" fill="#7c7f6a" fill-rule="nonzero"/><use xlink:href="#gDA9D104EDC10412DB2A75684B1270D2D" x="36.952" y="0" fill="#7c7f6a" fill-rule="nonzero"/><use xlink:href="#g8BFB8D74D1A095ADA64D562E8FB553BF" x="38.712" y="0" fill="#7c7f6a" fill-rule="nonzero"/></g></g><path fill="none" stroke="#1a1a18" stroke-width="1.3" stroke-linecap="butt" stroke-linejoin="miter" stroke-miterlimit="4" transform="translate(78.120602362 20.111015748)" d="M 0 0m 0 6.236220472v -6.236220472"/><path fill="#1a1a18" fill-rule="nonzero" transform="translate(75.99461811 24.221251969)" d="M 0 0m 2.125984252 0c -1.173084094 0 -2.125984252 0.952900157 -2.125984252 2.125984252c 0 1.173084094 0.952900157 2.125984252 2.125984252 2.125984252c 1.173084094 0 2.125984252 -0.952900157 2.125984252 -2.125984252c 0 -1.173084094 -0.952900157 -2.125984252 -2.125984252 -2.125984252Z "/><path fill="none" transform="translate(57.396352362)" d="M 0 0h 41.4485v 8.474h -41.4485v -8.474Z "/><g transform="translate(57.396352252 -1.6e-8)"><g transform="matrix(1 0 0 -1 0 6.251)"><use xlink:href="#gF797BEB250DC793C654741DDFB7687AB" x="0" y="0" fill="#1a1a18" fill-rule="nonzero"/><use xlink:href="#gC110FFC20529D78AB6B9724BF2D3193A" x="3.952" y="0" fill="#1a1a18" fill-rule="nonzero"/><use xlink:href="#g5B0FB9F727640150CA57389F67238C5A" x="8.74" y="0" fill="#1a1a18" fill-rule="nonzero"/><use xlink:href="#gC110FFC20529D78AB6B9724BF2D3193A" x="13.6705" y="0" fill="#1a1a18" fill-rule="nonzero"/><use xlink:href="#g6669B171F620D83100083E58706CE8E4" x="18.4585" y="0" fill="#1a1a18" fill-rule="nonzero"/><use xlink:href="#g30870B079B88F136C2A9AD2E2890E4EB" x="23.5695" y="0" fill="#1a1a18" fill-rule="nonzero"/><use xlink:href="#g1FC4F205433E0CF638FCEB589ABFC670" x="29.1365" y="0" fill="#1a1a18" fill-rule="nonzero"/><use xlink:href="#gA3A5C9019285A4C81365474C03E3CF4E" x="37.202" y="0" fill="#1a1a18" fill-rule="nonzero"/></g></g><path fill="none" transform="translate(64.614102362 9.077437008)" d="M 0 0h 27.013v 7.327h -27.013v -7.327Z "/><g transform="translate(64.614102236 9.077436976)"><g transform="matrix(1 0 0 -1 0 5.593)"><use xlink:href="#g43C8B9012740230B4896641F111759B5" x="0" y="0" fill="#7c7f6a" fill-rule="nonzero"/><use xlink:href="#gBAF1B227155053221F22F6E06EEFED60" x="2.533" y="0" fill="#7c7f6a" fill-rule="nonzero"/><use xlink:href="#gF931FC691828778A920607CF18B9C32A" x="7.106" y="0" fill="#7c7f6a" fill-rule="nonzero"/><use xlink:href="#g3EDD64AE7B5A40E8FE9DD75D51E8EE8A" x="10.9905" y="0" fill="#7c7f6a" fill-rule="nonzero"/><use xlink:href="#gF931FC691828778A920607CF18B9C32A" x="14.773" y="0" fill="#7c7f6a" fill-rule="nonzero"/><use xlink:href="#gACC36E988B99A2C990E6AE07D9F961E9" x="20.7825" y="0" fill="#7c7f6a" fill-rule="nonzero"/><use xlink:href="#gB168405E1D605C5C8AB8C2E5EBAB1021" x="24.48" y="0" fill="#7c7f6a" fill-rule="nonzero"/></g></g><path fill="none" stroke="#1a1a18" stroke-width="1.3" stroke-linecap="butt" stroke-linejoin="miter" stroke-miterlimit="4" transform="translate(181.950930023 20.111015748)" d="M 0 0m 0 6.236220472v -6.236220472"/><path fill="#1a1a18" fill-rule="nonzero" transform="translate(179.824945771 24.221251969)" d="M 0 0m 2.125984252 0c -1.173084094 0 -2.125984252 0.952900157 -2.125984252 2.125984252c 0 1.173084094 0.952900157 2.125984252 2.125984252 2.125984252c 1.173084094 0 2.125984252 -0.952900157 2.125984252 -2.125984252c 0 -1.173084094 -0.952900157 -2.125984252 -2.125984252 -2.125984252Z "/><path fill="none" transform="translate(165.577680023 9.838830709)" d="M 0 0h 32.7465v 7.505h -32.7465v -7.505Z "/><g transform="translate(165.577679881 9.838830598)"><g transform="matrix(1 0 0 -1 0 6.251)"><use xlink:href="#g966D14D99AB05D933C4957B2E7FE95D9" x="0" y="0" fill="#1a1a18" fill-rule="nonzero"/><use xlink:href="#gC86282117E7C9F65658F6DDAC49FC51A" x="4.066" y="0" fill="#1a1a18" fill-rule="nonzero"/><use xlink:href="#gC110FFC20529D78AB6B9724BF2D3193A" x="9.0725" y="0" fill="#1a1a18" fill-rule="nonzero"/><use xlink:href="#gA087682AD38D2D620C1058FCC30E85F0" x="13.8605" y="0" fill="#1a1a18" fill-rule="nonzero"/><use xlink:href="#gC110FFC20529D78AB6B9724BF2D3193A" x="18.506" y="0" fill="#1a1a18" fill-rule="nonzero"/><use xlink:href="#g6669B171F620D83100083E58706CE8E4" x="23.294" y="0" fill="#1a1a18" fill-rule="nonzero"/><use xlink:href="#g30F02AEBABA7D40FC17FCA43D8EB3DAA" x="28.405" y="0" fill="#1a1a18" fill-rule="nonzero"/></g></g><path fill="none" transform="translate(174.045930023 32.007923228)" d="M 0 0h 15.81v 5.6865h -15.81v -5.6865Z "/><g transform="translate(174.045929976 32.007923134)"><g transform="matrix(1 0 0 -1 0 5.593)"><use xlink:href="#gD223D6497379E9976FC7F5DC3352CD9F" x="0" y="0" fill="#7c7f6a" fill-rule="nonzero"/><use xlink:href="#g6B6515263C8491F6898E68FFAE1136A4" x="3.9525" y="0" fill="#7c7f6a" fill-rule="nonzero"/><use xlink:href="#g6B6515263C8491F6898E68FFAE1136A4" x="7.905" y="0" fill="#7c7f6a" fill-rule="nonzero"/><use xlink:href="#gF989C3096186E26723BBEA141A8C649D" x="11.8575" y="0" fill="#7c7f6a" fill-rule="nonzero"/></g></g><path fill="none" stroke="#1a1a18" stroke-width="1.3" stroke-linecap="butt" stroke-linejoin="miter" stroke-miterlimit="4" transform="translate(249.250904623 20.111015748)" d="M 0 0m 0 6.236220472v -6.236220472"/><path fill="#1a1a18" fill-rule="nonzero" transform="translate(247.124920371 24.221251969)" d="M 0 0m 2.125984252 0c -1.173084094 0 -2.125984252 0.952900157 -2.125984252 2.125984252c 0 1.173084094 0.952900157 2.125984252 2.125984252 2.125984252c 1.173084094 0 2.125984252 -0.952900157 2.125984252 -2.125984252c 0 -1.173084094 -0.952900157 -2.125984252 -2.125984252 -2.125984252Z "/><path fill="none" transform="translate(225.724154623 0.4845)" d="M 0 0h 47.0535v 7.505h -47.0535v -7.505Z "/><g transform="translate(225.724154576 0.48449989)"><g transform="matrix(1 0 0 -1 0 6.251)"><use xlink:href="#gEF309F12F30096DE5290FA7176BEA650" x="0" y="0" fill="#1a1a18" fill-rule="nonzero"/><use xlink:href="#gD243A48DAC45EEC7C88A2988B14DD756" x="5.586" y="0" fill="#1a1a18" fill-rule="nonzero"/><use xlink:href="#gA3A5C9019285A4C81365474C03E3CF4E" x="10.1365" y="0" fill="#1a1a18" fill-rule="nonzero"/><use xlink:href="#g6669B171F620D83100083E58706CE8E4" x="14.383" y="0" fill="#1a1a18" fill-rule="nonzero"/><use xlink:href="#gA3A5C9019285A4C81365474C03E3CF4E" x="19.494" y="0" fill="#1a1a18" fill-rule="nonzero"/><use xlink:href="#g111F480562FE960BC5F50C637F145B12" x="23.7405" y="0" fill="#1a1a18" fill-rule="nonzero"/><use xlink:href="#g966D14D99AB05D933C4957B2E7FE95D9" x="29.3075" y="0" fill="#1a1a18" fill-rule="nonzero"/><use xlink:href="#gDBB5E8F5FC9EB2F5349B9D49D6966C24" x="33.3735" y="0" fill="#1a1a18" fill-rule="nonzero"/><use xlink:href="#g30F02AEBABA7D40FC17FCA43D8EB3DAA" x="38.1425" y="0" fill="#1a1a18" fill-rule="nonzero"/><use xlink:href="#g5AAEF493CBDA45024F82AC9E8378049F" x="42.484" y="0" fill="#1a1a18" fill-rule="nonzero"/></g></g><path fill="none" transform="translate(241.345904623 32.007923228)" d="M 0 0h 15.81v 5.6865h -15.81v -5.6865Z "/><g transform="translate(241.345904576 32.007923134)"><g transform="matrix(1 0 0 -1 0 5.593)"><use xlink:href="#gD223D6497379E9976FC7F5DC3352CD9F" x="0" y="0" fill="#7c7f6a" fill-rule="nonzero"/><use xlink:href="#gF989C3096186E26723BBEA141A8C649D" x="3.9525" y="0" fill="#7c7f6a" fill-rule="nonzero"/><use xlink:href="#gD7F3603AE07CA6EC40268D26CF17A17B" x="7.905" y="0" fill="#7c7f6a" fill-rule="nonzero"/><use xlink:href="#g1025CE8674AB1344572BC90E67D4CE52" x="11.8575" y="0" fill="#7c7f6a" fill-rule="nonzero"/></g></g><path fill="none" stroke="#1a1a18" stroke-width="1.3" stroke-linecap="butt" stroke-linejoin="miter" stroke-miterlimit="4" transform="translate(349.46934506 20.111015748)" d="M 0 0m 0 6.236220472v -6.236220472"/><path fill="#1a1a18" fill-rule="nonzero" transform="translate(347.343360808 24.221251969)" d="M 0 0m 2.125984252 0c -1.173084094 0 -2.125984252 0.952900157 -2.125984252 2.125984252c 0 1.173084094 0.952900157 2.125984252 2.125984252 2.125984252c 1.173084094 0 2.125984252 -0.952900157 2.125984252 -2.125984252c 0 -1.173084094 -0.952900157 -2.125984252 -2.125984252 -2.125984252Z "/><path fill="none" transform="translate(332.87759506 9.354330709)" d="M 0 0h 33.1835v 8.474h -33.1835v -8.474Z "/><g transform="translate(332.877595044 9.354330693)"><g transform="matrix(1 0 0 -1 0 6.251)"><use xlink:href="#g23869749828957FA40F6BA2ECBEE0846" x="0" y="0" fill="#1a1a18" fill-rule="nonzero"/><use xlink:href="#gA3A5C9019285A4C81365474C03E3CF4E" x="5.4815" y="0" fill="#1a1a18" fill-rule="nonzero"/><use xlink:href="#g5B0FB9F727640150CA57389F67238C5A" x="9.728" y="0" fill="#1a1a18" fill-rule="nonzero"/><use xlink:href="#gDBB5E8F5FC9EB2F5349B9D49D6966C24" x="14.6585" y="0" fill="#1a1a18" fill-rule="nonzero"/><use xlink:href="#gC110FFC20529D78AB6B9724BF2D3193A" x="19.4275" y="0" fill="#1a1a18" fill-rule="nonzero"/><use xlink:href="#gD243A48DAC45EEC7C88A2988B14DD756" x="24.2155" y="0" fill="#1a1a18" fill-rule="nonzero"/><use xlink:href="#g4F6C4B764A667C0D20F43C1E2952DF77" x="28.766" y="0" fill="#1a1a18" fill-rule="nonzero"/></g></g><path fill="none" transform="translate(335.28284506 31.999423228)" d="M 0 0h 28.373v 5.7035h -28.373v -5.7035Z "/><g transform="translate(335.282845044 31.999423165)"><g transform="matrix(1 0 0 -1 0 5.593)"><use xlink:href="#gD223D6497379E9976FC7F5DC3352CD9F" x="0" y="0" fill="#7c7f6a" fill-rule="nonzero"/><use xlink:href="#gDE2A50121CA4B7FACE68098E70425CEC" x="3.9525" y="0" fill="#7c7f6a" fill-rule="nonzero"/><use xlink:href="#g1025CE8674AB1344572BC90E67D4CE52" x="7.905" y="0" fill="#7c7f6a" fill-rule="nonzero"/><use xlink:href="#g34E634B8D08F8B91F4ACC67018EAE93C" x="11.8575" y="0" fill="#7c7f6a" fill-rule="nonzero"/><use xlink:href="#g67C98D5EA1B34DF831EBA943FAA672CC" x="15.81" y="0" fill="#7c7f6a" fill-rule="nonzero"/><use xlink:href="#g1025CE8674AB1344572BC90E67D4CE52" x="20.468" y="0" fill="#7c7f6a" fill-rule="nonzero"/><use xlink:href="#g2A9125C850EDBFED6BF10AF5B3F60660" x="24.4205" y="0" fill="#7c7f6a" fill-rule="nonzero"/></g></g><path fill="none" transform="translate(7.3625 64.62992126)" d="M 0 0h 39.577v 8.474h -39.577v -8.474Z "/><g transform="translate(7.362499874 64.629921244)"><g transform="matrix(1 0 0 -1 0 6.251)"><use xlink:href="#g75E31E9387E94E3A457DA9304838F591" x="0" y="0" fill="#1a1a18" fill-rule="nonzero"/><use xlink:href="#g5B0FB9F727640150CA57389F67238C5A" x="5.567" y="0" fill="#1a1a18" fill-rule="nonzero"/><use xlink:href="#gA3A5C9019285A4C81365474C03E3CF4E" x="10.4975" y="0" fill="#1a1a18" fill-rule="nonzero"/><use xlink:href="#g6669B171F620D83100083E58706CE8E4" x="14.744" y="0" fill="#1a1a18" fill-rule="nonzero"/><use xlink:href="#g30F02AEBABA7D40FC17FCA43D8EB3DAA" x="19.855" y="0" fill="#1a1a18" fill-rule="nonzero"/><use xlink:href="#g111F480562FE960BC5F50C637F145B12" x="24.1965" y="0" fill="#1a1a18" fill-rule="nonzero"/><use xlink:href="#g30870B079B88F136C2A9AD2E2890E4EB" x="29.7635" y="0" fill="#1a1a18" fill-rule="nonzero"/><use xlink:href="#gA3A5C9019285A4C81365474C03E3CF4E" x="35.3305" y="0" fill="#1a1a18" fill-rule="nonzero"/></g></g><path fill="none" transform="translate(0 90.151232283)" d="M 0 0h 46.9395v 8.455h -46.9395v -8.455Z "/><g transform="translate(0 90.151232157)"><g transform="matrix(1 0 0 -1 0 6.251)"><use xlink:href="#g6669B171F620D83100083E58706CE8E4" x="0" y="0" fill="#1a1a18" fill-rule="nonzero"/><use xlink:href="#gC110FFC20529D78AB6B9724BF2D3193A" x="5.111" y="0" fill="#1a1a18" fill-rule="nonzero"/><use xlink:href="#gDBB5E8F5FC9EB2F5349B9D49D6966C24" x="9.899" y="0" fill="#1a1a18" fill-rule="nonzero"/><use xlink:href="#gE3D46A95002377B54E13EEB95624C7DA" x="14.668" y="0" fill="#1a1a18" fill-rule="nonzero"/><use xlink:href="#gC2CBF98E7E07B945C6FA500EA68B32AD" x="19.5605" y="0" fill="#1a1a18" fill-rule="nonzero"/><use xlink:href="#gA3A5C9019285A4C81365474C03E3CF4E" x="26.0205" y="0" fill="#1a1a18" fill-rule="nonzero"/><use xlink:href="#g111F480562FE960BC5F50C637F145B12" x="30.267" y="0" fill="#1a1a18" fill-rule="nonzero"/><use xlink:href="#gF1C320A4506B818F6BCB8CDA11A2DE6" x="35.834" y="0" fill="#1a1a18" fill-rule="nonzero"/><use xlink:href="#g15DE86D891118100C568580819B789B3" x="40.0615" y="0" fill="#1a1a18" fill-rule="nonzero"/></g></g><path fill="none" transform="translate(0.095 115.653543307)" d="M 0 0h 46.8445v 8.474h -46.8445v -8.474Z "/><g transform="translate(0.094999874 115.653543291)"><g transform="matrix(1 0 0 -1 0 6.251)"><use xlink:href="#g30F02AEBABA7D40FC17FCA43D8EB3DAA" x="0" y="0" fill="#1a1a18" fill-rule="nonzero"/><use xlink:href="#g5B0FB9F727640150CA57389F67238C5A" x="4.3415" y="0" fill="#1a1a18" fill-rule="nonzero"/><use xlink:href="#g5A2E3E8C6E57858B2C4B02FBB21BEB4E" x="9.272" y="0" fill="#1a1a18" fill-rule="nonzero"/><use xlink:href="#gA3A5C9019285A4C81365474C03E3CF4E" x="13.927" y="0" fill="#1a1a18" fill-rule="nonzero"/><use xlink:href="#gC110FFC20529D78AB6B9724BF2D3193A" x="18.1735" y="0" fill="#1a1a18" fill-rule="nonzero"/><use xlink:href="#gC86282117E7C9F65658F6DDAC49FC51A" x="22.9615" y="0" fill="#1a1a18" fill-rule="nonzero"/><use xlink:href="#gC110FFC20529D78AB6B9724BF2D3193A" x="27.968" y="0" fill="#1a1a18" fill-rule="nonzero"/><use xlink:href="#gF797BEB250DC793C654741DDFB7687AB" x="32.756" y="0" fill="#1a1a18" fill-rule="nonzero"/><use xlink:href="#g30870B079B88F136C2A9AD2E2890E4EB" x="36.708" y="0" fill="#1a1a18" fill-rule="nonzero"/><use xlink:href="#g5AAEF493CBDA45024F82AC9E8378049F" x="42.275" y="0" fill="#1a1a18" fill-rule="nonzero"/></g></g><path fill="none" stroke="#a29b8c" stroke-width="0.5" stroke-linecap="butt" stroke-linejoin="miter" stroke-miterlimit="4" transform="translate(56.860759843 61.213377953)" d="M 0 0h 186.537973076"/><path fill="none" stroke="#a29b8c" stroke-width="0.5" stroke-linecap="butt" stroke-linejoin="miter" stroke-miterlimit="4" transform="translate(56.860759843 76.520464567)" d="M 0 0h 186.537973076"/><path fill="none" stroke="#a29b8c" stroke-width="0.45" stroke-linecap="butt" stroke-linejoin="miter" stroke-miterlimit="4" transform="translate(56.860759843 61.213377953)" d="M 0 0m 0 15.307086614l 8.503937008 -15.307086614"/><path fill="none" stroke="#a29b8c" stroke-width="0.45" stroke-linecap="butt" stroke-linejoin="miter" stroke-miterlimit="4" transform="translate(64.283551159 61.213377953)" d="M 0 0m 0 15.307086614l 8.503937008 -15.307086614"/><path fill="none" stroke="#a29b8c" stroke-width="0.45" stroke-linecap="butt" stroke-linejoin="miter" stroke-miterlimit="4" transform="translate(71.706342475 61.213377953)" d="M 0 0m 0 15.307086614l 8.503937008 -15.307086614"/><path fill="none" stroke="#a29b8c" stroke-width="0.45" stroke-linecap="butt" stroke-linejoin="miter" stroke-miterlimit="4" transform="translate(79.129133791 61.213377953)" d="M 0 0m 0 15.307086614l 8.503937008 -15.307086614"/><path fill="none" stroke="#a29b8c" stroke-width="0.45" stroke-linecap="butt" stroke-linejoin="miter" stroke-miterlimit="4" transform="translate(86.551925107 61.213377953)" d="M 0 0m 0 15.307086614l 8.503937008 -15.307086614"/><path fill="none" stroke="#a29b8c" stroke-width="0.45" stroke-linecap="butt" stroke-linejoin="miter" stroke-miterlimit="4" transform="translate(93.974716423 61.213377953)" d="M 0 0m 0 15.307086614l 8.503937008 -15.307086614"/><path fill="none" stroke="#a29b8c" stroke-width="0.45" stroke-linecap="butt" stroke-linejoin="miter" stroke-miterlimit="4" transform="translate(101.39750774 61.213377953)" d="M 0 0m 0 15.307086614l 8.503937008 -15.307086614"/><path fill="none" stroke="#a29b8c" stroke-width="0.45" stroke-linecap="butt" stroke-linejoin="miter" stroke-miterlimit="4" transform="translate(108.820299056 61.213377953)" d="M 0 0m 0 15.307086614l 8.503937008 -15.307086614"/><path fill="none" stroke="#a29b8c" stroke-width="0.45" stroke-linecap="butt" stroke-linejoin="miter" stroke-miterlimit="4" transform="translate(116.243090372 61.213377953)" d="M 0 0m 0 15.307086614l 8.503937008 -15.307086614"/><path fill="none" stroke="#a29b8c" stroke-width="0.45" stroke-linecap="butt" stroke-linejoin="miter" stroke-miterlimit="4" transform="translate(123.665881688 61.213377953)" d="M 0 0m 0 15.307086614l 8.503937008 -15.307086614"/><path fill="none" stroke="#a29b8c" stroke-width="0.45" stroke-linecap="butt" stroke-linejoin="miter" stroke-miterlimit="4" transform="translate(131.088673004 61.213377953)" d="M 0 0m 0 15.307086614l 8.503937008 -15.307086614"/><path fill="none" stroke="#a29b8c" stroke-width="0.45" stroke-linecap="butt" stroke-linejoin="miter" stroke-miterlimit="4" transform="translate(138.51146432 61.213377953)" d="M 0 0m 0 15.307086614l 8.503937008 -15.307086614"/><path fill="none" stroke="#a29b8c" stroke-width="0.45" stroke-linecap="butt" stroke-linejoin="miter" stroke-miterlimit="4" transform="translate(145.934255637 61.213377953)" d="M 0 0m 0 15.307086614l 8.503937008 -15.307086614"/><path fill="none" stroke="#a29b8c" stroke-width="0.45" stroke-linecap="butt" stroke-linejoin="miter" stroke-miterlimit="4" transform="translate(153.357046953 61.213377953)" d="M 0 0m 0 15.307086614l 8.503937008 -15.307086614"/><path fill="none" stroke="#a29b8c" stroke-width="0.45" stroke-linecap="butt" stroke-linejoin="miter" stroke-miterlimit="4" transform="translate(160.779838269 61.213377953)" d="M 0 0m 0 15.307086614l 8.503937008 -15.307086614"/><path fill="none" stroke="#a29b8c" stroke-width="0.45" stroke-linecap="butt" stroke-linejoin="miter" stroke-miterlimit="4" transform="translate(168.202629585 61.213377953)" d="M 0 0m 0 15.307086614l 8.503937008 -15.307086614"/><path fill="none" stroke="#a29b8c" stroke-width="0.45" stroke-linecap="butt" stroke-linejoin="miter" stroke-miterlimit="4" transform="translate(175.625420901 61.213377953)" d="M 0 0m 0 15.307086614l 8.503937008 -15.307086614"/><path fill="none" stroke="#a29b8c" stroke-width="0.45" stroke-linecap="butt" stroke-linejoin="miter" stroke-miterlimit="4" transform="translate(183.048212217 61.213377953)" d="M 0 0m 0 15.307086614l 8.503937008 -15.307086614"/><path fill="none" stroke="#a29b8c" stroke-width="0.45" stroke-linecap="butt" stroke-linejoin="miter" stroke-miterlimit="4" transform="translate(190.471003534 61.213377953)" d="M 0 0m 0 15.307086614l 8.503937008 -15.307086614"/><path fill="none" stroke="#a29b8c" stroke-width="0.45" stroke-linecap="butt" stroke-linejoin="miter" stroke-miterlimit="4" transform="translate(197.89379485 61.213377953)" d="M 0 0m 0 15.307086614l 8.503937008 -15.307086614"/><path fill="none" stroke="#a29b8c" stroke-width="0.45" stroke-linecap="butt" stroke-linejoin="miter" stroke-miterlimit="4" transform="translate(205.316586166 61.213377953)" d="M 0 0m 0 15.307086614l 8.503937008 -15.307086614"/><path fill="none" stroke="#a29b8c" stroke-width="0.45" stroke-linecap="butt" stroke-linejoin="miter" stroke-miterlimit="4" transform="translate(212.739377482 61.213377953)" d="M 0 0m 0 15.307086614l 8.503937008 -15.307086614"/><path fill="none" stroke="#a29b8c" stroke-width="0.45" stroke-linecap="butt" stroke-linejoin="miter" stroke-miterlimit="4" transform="translate(220.162168798 61.213377953)" d="M 0 0m 0 15.307086614l 8.503937008 -15.307086614"/><path fill="none" stroke="#a29b8c" stroke-width="0.45" stroke-linecap="butt" stroke-linejoin="miter" stroke-miterlimit="4" transform="translate(227.584960114 61.213377953)" d="M 0 0m 0 15.307086614l 8.503937008 -15.307086614"/><path fill="none" stroke="#a29b8c" stroke-width="0.45" stroke-linecap="butt" stroke-linejoin="miter" stroke-miterlimit="4" transform="translate(235.007751431 61.213377953)" d="M 0 0m 0 15.307086614l 8.503937008 -15.307086614"/><path fill="none" stroke="#a29b8c" stroke-width="0.45" stroke-linecap="butt" stroke-linejoin="miter" stroke-miterlimit="4" transform="translate(242.430542747 62.049479322)" d="M 0 0m 0 14.470985244l 8.039436247 -14.470985244"/><path fill="none" stroke="#a29b8c" stroke-width="0.45" stroke-linecap="butt" stroke-linejoin="miter" stroke-miterlimit="4" transform="translate(249.853334063 63.657366572)" d="M 0 0m 0 12.863097995l 7.146165553 -12.863097995"/><path fill="none" stroke="#a29b8c" stroke-width="0.45" stroke-linecap="butt" stroke-linejoin="miter" stroke-miterlimit="4" transform="translate(257.276125379 65.265253821)" d="M 0 0m 0 11.255210746l 6.252894859 -11.255210746"/><path fill="none" stroke="#a29b8c" stroke-width="0.45" stroke-linecap="butt" stroke-linejoin="miter" stroke-miterlimit="4" transform="translate(264.698916695 66.873141071)" d="M 0 0m 0 9.647323496l 5.359624165 -9.647323496"/><path fill="none" stroke="#a29b8c" stroke-width="0.45" stroke-linecap="butt" stroke-linejoin="miter" stroke-miterlimit="4" transform="translate(272.121708011 68.48102832)" d="M 0 0m 0 8.039436247l 4.466353471 -8.039436247"/><path fill="none" stroke="#a29b8c" stroke-width="0.45" stroke-linecap="butt" stroke-linejoin="miter" stroke-miterlimit="4" transform="translate(279.544499328 70.088915569)" d="M 0 0m 0 6.431548998l 3.573082776 -6.431548998"/><path fill="none" stroke="#a29b8c" stroke-width="0.45" stroke-linecap="butt" stroke-linejoin="miter" stroke-miterlimit="4" transform="translate(286.967290644 71.696802819)" d="M 0 0m 0 4.823661748l 2.679812082 -4.823661748"/><path fill="none" stroke="#a29b8c" stroke-width="0.45" stroke-linecap="butt" stroke-linejoin="miter" stroke-miterlimit="4" transform="translate(294.39008196 73.304690068)" d="M 0 0m 0 3.215774499l 1.786541388 -3.215774499"/><path fill="none" stroke="#a29b8c" stroke-width="0.45" stroke-linecap="butt" stroke-linejoin="miter" stroke-miterlimit="4" transform="translate(301.812873276 74.912577318)" d="M 0 0m 0 1.607887249l 0.893270694 -1.607887249"/><path fill="none" stroke="#1a1a18" stroke-width="1.5" stroke-linecap="butt" stroke-linejoin="miter" stroke-miterlimit="4" transform="translate(181.950930023 94.378732283)" d="M 0 0h 215.067310135"/><path fill="none" stroke="#1a1a18" stroke-width="1.5" stroke-linecap="butt" stroke-linejoin="miter" stroke-miterlimit="4" transform="translate(181.950930023 89.843299213)" d="M 0 0m 0 9.070866142v -9.070866142"/><path fill="#1a1a18" fill-rule="nonzero" transform="translate(180.250142621 92.677944882)" d="M 0 0m 1.700787402 0c -0.938467276 0 -1.700787402 0.762320126 -1.700787402 1.700787402c 0 0.938467276 0.762320126 1.700787402 1.700787402 1.700787402c 0.938467276 0 1.700787402 -0.762320126 1.700787402 -1.700787402c 0 -0.938467276 -0.762320126 -1.700787402 -1.700787402 -1.700787402Z "/><path fill="#1a1a18" fill-rule="nonzero" transform="translate(247.550117221 92.677944882)" d="M 0 0m 1.700787402 0c -0.938467276 0 -1.700787402 0.762320126 -1.700787402 1.700787402c 0 0.938467276 0.762320126 1.700787402 1.700787402 1.700787402c 0.938467276 0 1.700787402 -0.762320126 1.700787402 -1.700787402c 0 -0.938467276 -0.762320126 -1.700787402 -1.700787402 -1.700787402Z "/><path fill="#1a1a18" fill-rule="nonzero" transform="translate(347.768557658 92.677944882)" d="M 0 0m 1.700787402 0c -0.938467276 0 -1.700787402 0.762320126 -1.700787402 1.700787402c 0 0.938467276 0.762320126 1.700787402 1.700787402 1.700787402c 0.938467276 0 1.700787402 -0.762320126 1.700787402 -1.700787402c 0 -0.938467276 -0.762320126 -1.700787402 -1.700787402 -1.700787402Z "/><path fill="#7c7f6a" fill-rule="nonzero" transform="translate(69.333200787 116.772433071)" d="M 0 0m 3.118110236 0c -1.720523339 0 -3.118110236 1.397586898 -3.118110236 3.118110236c 0 1.720523339 1.397586898 3.118110236 3.118110236 3.118110236c 1.720523339 0 3.118110236 -1.397586898 3.118110236 -3.118110236c 0 -1.720523339 -1.397586898 -3.118110236 -3.118110236 -3.118110236Z "/><path fill="#7c7f6a" fill-rule="nonzero" transform="translate(92.010366142 116.772433071)" d="M 0 0m 3.118110236 0c -1.720523339 0 -3.118110236 1.397586898 -3.118110236 3.118110236c 0 1.720523339 1.397586898 3.118110236 3.118110236 3.118110236c 1.720523339 0 3.118110236 -1.397586898 3.118110236 -3.118110236c 0 -1.720523339 -1.397586898 -3.118110236 -3.118110236 -3.118110236Z "/><path fill="#7c7f6a" fill-rule="nonzero" transform="translate(120.356822835 116.772433071)" d="M 0 0m 3.118110236 0c -1.720523339 0 -3.118110236 1.397586898 -3.118110236 3.118110236c 0 1.720523339 1.397586898 3.118110236 3.118110236 3.118110236c 1.720523339 0 3.118110236 -1.397586898 3.118110236 -3.118110236c 0 -1.720523339 -1.397586898 -3.118110236 -3.118110236 -3.118110236Z "/><path fill="none" stroke="#a29b8c" stroke-width="0.5" stroke-linecap="butt" stroke-linejoin="miter" stroke-miterlimit="4" stroke-dashoffset="0" stroke-dasharray="0.5 2" transform="translate(157.490681102 53.276370079)" d="M 0 0m 0 78.519685039v -78.519685039"/><path fill="none" transform="translate(118.790181102 135.942062992)" d="M 0 0h 77.401v 7.582h -77.401v -7.582Z "/><g transform="translate(118.790181071 135.942062866)"><g transform="matrix(1 0 0 -1 0 5.593)"><use xlink:href="#gBEE50160BCD570B38DEF46393A725EED" x="0" y="0" fill="#7c7f6a" fill-rule="nonzero"/><use xlink:href="#gE34E15A46C94CBC2E6ABE8844A1DDB21" x="4.981" y="0" fill="#7c7f6a" fill-rule="nonzero"/><use xlink:href="#g430571653545A60A3EF6386D136EADA3" x="9.265" y="0" fill="#7c7f6a" fill-rule="nonzero"/><use xlink:href="#gE34E15A46C94CBC2E6ABE8844A1DDB21" x="13.6765" y="0" fill="#7c7f6a" fill-rule="nonzero"/><use xlink:href="#gC8D6D5492F0FFEF84F8079BC5341E7A6" x="17.9605" y="0" fill="#7c7f6a" fill-rule="nonzero"/><use xlink:href="#gBEE50160BCD570B38DEF46393A725EED" x="23.6215" y="0" fill="#7c7f6a" fill-rule="nonzero"/><use xlink:href="#gE7AE90A8EDDEF3DDB67EE78D36D80337" x="28.6025" y="0" fill="#7c7f6a" fill-rule="nonzero"/><use xlink:href="#g1EEFC323E4FEBE7654D5CC1583F61AF4" x="33.5835" y="0" fill="#7c7f6a" fill-rule="nonzero"/><use xlink:href="#gCEFD2E51F012095E752F656A8500C1AE" x="37.2215" y="0" fill="#7c7f6a" fill-rule="nonzero"/><use xlink:href="#gDEA2A0379B7527B5C1F8D88530B6617D" x="41.174" y="0" fill="#7c7f6a" fill-rule="nonzero"/><use xlink:href="#g5D2E58E4CDB4D7E6C81847885E22D756" x="46.954" y="0" fill="#7c7f6a" fill-rule="nonzero"/><use xlink:href="#gC8932C6BA7F518DC74E87E2F4A0224EB" x="50.7535" y="0" fill="#7c7f6a" fill-rule="nonzero"/><use xlink:href="#gC8932C6BA7F518DC74E87E2F4A0224EB" x="55.7345" y="0" fill="#7c7f6a" fill-rule="nonzero"/><use xlink:href="#gE34E15A46C94CBC2E6ABE8844A1DDB21" x="60.7155" y="0" fill="#7c7f6a" fill-rule="nonzero"/><use xlink:href="#g1EEFC323E4FEBE7654D5CC1583F61AF4" x="64.9995" y="0" fill="#7c7f6a" fill-rule="nonzero"/><use xlink:href="#g3EDD64AE7B5A40E8FE9DD75D51E8EE8A" x="68.6375" y="0" fill="#7c7f6a" fill-rule="nonzero"/><use xlink:href="#gE7AE90A8EDDEF3DDB67EE78D36D80337" x="72.42" y="0" fill="#7c7f6a" fill-rule="nonzero"/></g></g></g><defs><symbol id="g6F3F83F8220F4B0FE27ED35A349BC8A6" overflow="visible"><path d="M 0 0m 1.314 3.861c -0.387 0 -0.702 0.009 -0.999 0.018c -0.054 -0.054 -0.054 -0.243 0 -0.297c 0.549 -0.036 0.648 -0.072 0.648 -0.819v -1.665c 0 -0.747 -0.099 -0.774 -0.648 -0.819c -0.054 -0.054 -0.054 -0.243 0 -0.297c 0.297 0.009 0.612 0.018 1.008 0.018c 0.333 0 0.63 -0.018 1.233 -0.018c 0.774 0 1.359 0.216 1.359 1.107c 0 0.504 -0.315 0.855 -0.864 0.954v 0.027c 0.414 0.081 0.729 0.369 0.729 0.909c 0 0.63 -0.387 0.9 -1.476 0.9c -0.369 0 -0.603 -0.018 -0.99 -0.018Z m 0.36 -1.908h 0.684c 0.549 0 0.783 -0.36 0.783 -0.9c 0 -0.603 -0.342 -0.774 -0.828 -0.774c -0.468 0 -0.639 0.081 -0.639 0.495Z m 0 0.261v 1.044c 0 0.27 0.207 0.324 0.639 0.324c 0.468 0 0.747 -0.126 0.747 -0.666c 0 -0.36 -0.234 -0.702 -0.792 -0.702Z "/></symbol><symbol id="g4AD90A9068D018AD3CEC8FD5EA9519DC" overflow="visible"><path d="M 0 0m 1.404 3.312c -0.009 0.27 -0.027 0.504 -0.072 0.594c -0.018 0.045 -0.036 0.072 -0.108 0.072c -0.252 -0.099 -0.486 -0.18 -1.107 -0.261c -0.018 -0.054 0 -0.198 0.018 -0.252c 0.486 -0.045 0.585 -0.09 0.585 -0.612v -3.843c 0 -0.747 -0.099 -0.792 -0.648 -0.819c -0.054 -0.054 -0.054 -0.243 0 -0.297c 0.315 0.009 0.648 0.018 1.008 0.018c 0.36 0 0.792 -0.009 1.089 -0.018c 0.054 0.054 0.054 0.243 0 0.297c -0.639 0.036 -0.738 0.072 -0.738 0.819v 0.972c 0 0.117 0.036 0.108 0.126 0.072c 0.225 -0.09 0.495 -0.144 0.783 -0.144c 0.504 0 0.954 0.153 1.323 0.504c 0.423 0.414 0.666 0.972 0.666 1.701c 0 0.954 -0.675 1.836 -1.593 1.836c -0.414 0 -0.873 -0.27 -1.233 -0.675c -0.054 -0.054 -0.09 -0.054 -0.099 0.036Z m 0.171 -0.333c 0.234 0.288 0.648 0.558 0.909 0.558c 0.576 0 1.071 -0.648 1.071 -1.665c 0 -0.738 -0.261 -1.656 -1.269 -1.656c -0.162 0 -0.477 0.045 -0.639 0.189c -0.18 0.162 -0.216 0.216 -0.216 0.54v 1.638c 0 0.189 0.036 0.27 0.144 0.396Z "/></symbol><symbol id="gD351E21AD091924D522A6D2D6355C932" overflow="visible"><path d="M 0 0m 3.474 0.837c -0.333 -0.342 -0.594 -0.486 -1.116 -0.486c -0.324 0 -0.702 0.189 -0.981 0.648c -0.18 0.297 -0.288 0.711 -0.288 1.233l 2.394 -0.018c 0.108 0 0.171 0.054 0.171 0.153c 0 0.756 -0.27 1.566 -1.521 1.566c -0.783 0 -1.8 -0.747 -1.8 -2.115c 0 -0.504 0.126 -0.99 0.423 -1.332c 0.306 -0.36 0.729 -0.576 1.377 -0.576c 0.684 0 1.17 0.315 1.53 0.783c -0.027 0.09 -0.081 0.135 -0.189 0.144Z m -2.358 1.701c 0.171 1.017 0.801 1.098 1.017 1.098c 0.342 0 0.747 -0.189 0.747 -0.945c 0 -0.081 -0.036 -0.126 -0.135 -0.126Z "/></symbol><symbol id="g82C799C01D06EF19E125C6F4348D75CA" overflow="visible"><path d="M 0 0m 1.053 2.754l -0.054 -1.674c -0.027 -0.756 -0.162 -0.774 -0.684 -0.801c -0.054 -0.054 -0.054 -0.243 0 -0.297c 0.18 0.009 0.63 0.018 0.774 0.018c 0.18 0 0.603 -0.009 0.783 -0.018c 0.054 0.054 0.054 0.243 0 0.297c -0.513 0.036 -0.549 0.126 -0.531 0.801l 0.063 2.205c 0 0.081 0.036 0.081 0.072 0l 1.305 -3.186c 0.036 -0.027 0.072 -0.027 0.099 0l 1.476 3.177c 0.045 0.099 0.09 0.108 0.09 0l -0.009 -2.178c 0 -0.747 -0.063 -0.774 -0.612 -0.819c -0.054 -0.054 -0.054 -0.243 0 -0.297c 0.324 0.009 0.657 0.018 0.972 0.018c 0.27 0 0.657 -0.009 1.008 -0.018c 0.054 0.054 0.054 0.243 0 0.297c -0.549 0.036 -0.648 0.072 -0.648 0.819l -0.018 1.665c -0.009 0.747 0.099 0.774 0.648 0.819c 0.054 0.054 0.054 0.243 0 0.297c -0.315 -0.018 -1.188 -0.018 -1.485 -0.018l -1.197 -2.574l -0.045 -0.09l -0.036 0.09l -1.053 2.574c -0.297 0 -1.251 0 -1.566 0.018c -0.054 -0.054 -0.054 -0.243 0 -0.297c 0.549 -0.045 0.675 -0.081 0.648 -0.828Z "/></symbol><symbol id="gCC8431763A18574B9D70D89AC0A75466" overflow="visible"><path d="M 0 0m 1.026 0c 0.252 0.009 0.342 0.243 0.45 0.567c 0.234 0.711 0.495 1.152 0.945 1.152h 0.234v -0.621c 0 -0.747 -0.099 -0.774 -0.648 -0.819c -0.054 -0.054 -0.054 -0.243 0 -0.297c 0.297 0.009 0.612 0.018 1.008 0.018c 0.387 0 0.711 -0.009 0.999 -0.018c 0.054 0.054 0.054 0.243 0 0.297c -0.549 0.036 -0.648 0.072 -0.648 0.819v 1.665c 0 0.747 0.099 0.774 0.648 0.819c 0.054 0.054 0.054 0.243 0 0.297c -0.306 -0.009 -0.612 -0.018 -1.008 -0.018c -0.306 0 -0.567 0.018 -0.792 0.018c -1.575 0 -1.71 -0.648 -1.71 -1.134c 0 -0.585 0.45 -0.882 1.116 -0.909c 0.027 0 0.027 -0.027 0.018 -0.036c -0.342 -0.099 -0.495 -0.288 -0.648 -0.621c -0.099 -0.207 -0.18 -0.405 -0.225 -0.522c -0.117 -0.306 -0.27 -0.36 -0.621 -0.378c -0.054 -0.054 -0.054 -0.243 0 -0.297c 0.18 0.009 0.882 0.018 0.882 0.018Z m 0.252 2.889c 0 0.423 0.135 0.693 0.864 0.693c 0.369 0 0.513 -0.162 0.513 -0.504v -1.053h -0.63c -0.54 0 -0.747 0.414 -0.747 0.864Z "/></symbol><symbol id="gBAF1B227155053221F22F6E06EEFED60" overflow="visible"><path d="M 0 0m 1.6065 3.6465c -0.2805 0 -0.612 0.0085 -0.867 0.017c -0.051 -0.051 -0.051 -0.2295 0 -0.2805c 0.5185 -0.0425 0.6715 -0.0765 0.6375 -0.782c -0.034 -0.782 -0.17 -1.411 -0.3145 -2.006c -0.051 -0.2295 -0.2975 -0.306 -0.5355 -0.3315c -0.1275 -0.017 -0.2465 -0.068 -0.255 -0.221l -0.051 -1.1305c 0.0595 -0.0255 0.1275 -0.034 0.2295 -0.0085c 0.0765 0.3145 0.306 1.0965 1.071 1.0965h 1.4705c 0.7565 0 1.003 -0.765 1.0795 -1.105c 0.0765 -0.017 0.153 -0.017 0.238 0.017l -0.051 1.139c 0 0.119 -0.068 0.187 -0.2295 0.2125c -0.153 0.0255 -0.3655 0.085 -0.3655 0.3995v 1.9465c 0 0.697 0.1105 0.7395 0.578 0.7735c 0.051 0.051 0.051 0.2295 0 0.2805c -0.255 -0.0085 -0.578 -0.017 -0.918 -0.017Z m -0.238 -3.213c 0 0.1445 0.2295 0.7055 0.357 2.652c 0.0085 0.1275 0.068 0.238 0.2975 0.238h 0.5865c 0.34 0 0.3825 -0.238 0.3825 -0.527v -2.0485c 0 -0.2805 -0.017 -0.4165 -0.357 -0.4165h -1.0965c -0.0935 0 -0.17 0.0085 -0.17 0.102Z "/></symbol><symbol id="gE34E15A46C94CBC2E6ABE8844A1DDB21" overflow="visible"><path d="M 0 0m 0.3485 1.7425c 0 -0.867 0.578 -1.8275 1.785 -1.8275c 0.544 0 0.9605 0.1955 1.2495 0.476c 0.3825 0.374 0.5525 0.9095 0.5525 1.428c 0 0.884 -0.4845 1.9125 -1.785 1.9125c -0.561 0 -1.02 -0.2295 -1.3345 -0.595c -0.306 -0.3655 -0.4675 -0.8585 -0.4675 -1.394Z m 1.6745 1.6915c 0.731 0 1.1815 -0.663 1.1815 -1.887c 0 -1.071 -0.5525 -1.3345 -0.952 -1.3345c -0.884 0 -1.173 1.071 -1.173 1.7255c 0 0.7395 0.1785 1.496 0.9435 1.496Z "/></symbol><symbol id="gBEE50160BCD570B38DEF46393A725EED" overflow="visible"><path d="M 0 0m 3.7145 3.6465h -2.414c -0.34 0 -0.663 0.0085 -0.918 0.017c -0.051 -0.051 -0.051 -0.2295 0 -0.2805c 0.4675 -0.034 0.578 -0.0765 0.578 -0.7735v -1.5725c 0 -0.697 -0.1105 -0.7395 -0.663 -0.7735c -0.051 -0.051 -0.051 -0.2295 0 -0.2805c 0.255 0.0085 0.663 0.017 1.003 0.017c 0.34 0 0.595 -0.0085 0.85 -0.017c 0.051 0.051 0.051 0.2295 0 0.2805c -0.4335 0.0425 -0.5185 0.0765 -0.5185 0.7735v 1.8445c 0 0.2635 0.0255 0.4335 0.357 0.4335h 1.0285c 0.3145 0 0.3655 -0.0935 0.3655 -0.4335v -1.8445c 0 -0.697 -0.085 -0.7395 -0.527 -0.7735c -0.0425 -0.051 -0.0425 -0.2295 0 -0.2805c 0.2125 0.0085 0.527 0.017 0.867 0.017c 0.34 0 0.7225 -0.0085 0.9605 -0.017c 0.0425 0.051 0.0425 0.2295 0 0.2805c -0.5525 0.034 -0.629 0.0765 -0.629 0.7735v 1.5725c 0 0.697 0.1105 0.7395 0.578 0.7735c 0.051 0.051 0.051 0.2295 0 0.2805c -0.255 -0.0085 -0.578 -0.017 -0.918 -0.017Z "/></symbol><symbol id="gE7AE90A8EDDEF3DDB67EE78D36D80337" overflow="visible"><path d="M 0 0m 1.683 0.5355c -0.0255 0 -0.0595 0.017 -0.0595 0.102v 1.938c 0 0.7055 0.1785 0.782 0.612 0.8075c 0.051 0.051 0.051 0.2295 0 0.2805c -0.1955 -0.0085 -0.68 -0.017 -0.9945 -0.017c -0.2805 0 -0.6205 0.0085 -0.9435 0.017c -0.051 -0.051 -0.051 -0.2295 0 -0.2805c 0.5185 -0.0255 0.6545 -0.102 0.6545 -0.8075v -1.5045c 0 -0.7055 -0.136 -0.782 -0.6545 -0.8075c -0.051 -0.051 -0.051 -0.2295 0 -0.2805c 0.3315 0.0085 0.6715 0.017 0.9435 0.017c 0.1955 0 0.425 -0.0085 0.5185 -0.017c 0.0425 0.119 0.119 0.289 0.2125 0.459l 1.326 2.6605c 0.0255 0 0.0595 -0.017 0.0595 -0.102v -1.9295c 0 -0.7055 -0.1785 -0.782 -0.612 -0.8075c -0.051 -0.051 -0.051 -0.2295 0 -0.2805c 0.1955 0.0085 0.6545 0.017 0.9945 0.017c 0.2635 0 0.612 -0.0085 0.9435 -0.017c 0.051 0.051 0.051 0.2295 0 0.2805c -0.5185 0.0255 -0.6545 0.102 -0.6545 0.8075v 1.5045c 0 0.7055 0.136 0.782 0.6545 0.8075c 0.051 0.051 0.051 0.2295 0 0.2805c -0.34 -0.0085 -0.68 -0.017 -0.9435 -0.017c -0.187 0 -0.425 0.0085 -0.51 0.017c -0.068 -0.153 -0.1445 -0.3315 -0.221 -0.476Z "/></symbol><symbol id="g1EEFC323E4FEBE7654D5CC1583F61AF4" overflow="visible"><path d="M 0 0m 3.383 0.7735c -0.034 0.0765 -0.102 0.1105 -0.1785 0.119c -0.289 -0.374 -0.6545 -0.561 -1.02 -0.561c -0.6205 0 -1.139 0.629 -1.139 1.6235c 0 0.935 0.408 1.496 0.969 1.496c 0.5015 0 0.5695 -0.2975 0.6035 -0.595c 0.0255 -0.2295 0.1445 -0.306 0.323 -0.306c 0.1785 0 0.4165 0.1105 0.4165 0.374c 0 0.4675 -0.4845 0.8075 -1.3005 0.8075c -0.8415 0 -1.7425 -0.7565 -1.7425 -1.9635c 0 -1.0965 0.612 -1.853 1.683 -1.853c 0.51 0 0.9605 0.1615 1.3855 0.8585Z "/></symbol><symbol id="gCEFD2E51F012095E752F656A8500C1AE" overflow="visible"><path d="M 0 0m 1.581 2.601c 0 0.714 0.0935 0.7395 0.612 0.782c 0.051 0.051 0.051 0.2295 0 0.2805c -0.289 -0.0085 -0.578 -0.017 -0.952 -0.017c -0.3655 0 -0.663 0.0085 -0.9435 0.017c -0.051 -0.051 -0.051 -0.2295 0 -0.2805c 0.5185 -0.034 0.612 -0.068 0.612 -0.7735v -1.5725c 0 -0.7055 -0.0935 -0.731 -0.612 -0.7735c -0.051 -0.051 -0.051 -0.2295 0 -0.2805c 0.2805 0.0085 0.578 0.017 0.952 0.017c 0.3485 0 0.5355 -0.017 0.884 -0.017c 1.0455 0 1.615 0.2635 1.615 1.173c 0 0.799 -0.697 1.0285 -1.5555 1.0285h -0.612Z m 1.4365 -1.53c 0 -0.697 -0.425 -0.8075 -0.8755 -0.8075c -0.4165 0 -0.561 0.085 -0.561 0.3825v 1.258h 0.6035c 0.6375 0 0.833 -0.3825 0.833 -0.833Z "/></symbol><symbol id="gDEA2A0379B7527B5C1F8D88530B6617D" overflow="visible"><path d="M 0 0m 0.9945 2.601l -0.051 -1.581c -0.0255 -0.714 -0.153 -0.731 -0.646 -0.7565c -0.051 -0.051 -0.051 -0.2295 0 -0.2805c 0.17 0.0085 0.595 0.017 0.731 0.017c 0.17 0 0.5695 -0.0085 0.7395 -0.017c 0.051 0.051 0.051 0.2295 0 0.2805c -0.4845 0.034 -0.5185 0.119 -0.5015 0.7565l 0.0595 2.0825c 0 0.0765 0.034 0.0765 0.068 0l 1.2325 -3.009c 0.034 -0.0255 0.068 -0.0255 0.0935 0l 1.394 3.0005c 0.0425 0.0935 0.085 0.102 0.085 0l -0.0085 -2.057c 0 -0.7055 -0.0595 -0.731 -0.578 -0.7735c -0.051 -0.051 -0.051 -0.2295 0 -0.2805c 0.306 0.0085 0.6205 0.017 0.918 0.017c 0.255 0 0.6205 -0.0085 0.952 -0.017c 0.051 0.051 0.051 0.2295 0 0.2805c -0.5185 0.034 -0.612 0.068 -0.612 0.7735l -0.017 1.5725c -0.0085 0.7055 0.0935 0.731 0.612 0.7735c 0.051 0.051 0.051 0.2295 0 0.2805c -0.2975 -0.017 -1.122 -0.017 -1.4025 -0.017l -1.1305 -2.431l -0.0425 -0.085l -0.034 0.085l -0.9945 2.431c -0.2805 0 -1.1815 0 -1.479 0.017c -0.051 -0.051 -0.051 -0.2295 0 -0.2805c 0.5185 -0.0425 0.6375 -0.0765 0.612 -0.782Z "/></symbol><symbol id="g5D2E58E4CDB4D7E6C81847885E22D756" overflow="visible"><path d="M 0 0m 3.281 0.7905c -0.3145 -0.323 -0.561 -0.459 -1.054 -0.459c -0.306 0 -0.663 0.1785 -0.9265 0.612c -0.17 0.2805 -0.272 0.6715 -0.272 1.1645l 2.261 -0.017c 0.102 0 0.1615 0.051 0.1615 0.1445c 0 0.714 -0.255 1.479 -1.4365 1.479c -0.7395 0 -1.7 -0.7055 -1.7 -1.9975c 0 -0.476 0.119 -0.935 0.3995 -1.258c 0.289 -0.34 0.6885 -0.544 1.3005 -0.544c 0.646 0 1.105 0.2975 1.445 0.7395c -0.0255 0.085 -0.0765 0.1275 -0.1785 0.136Z m -2.227 1.6065c 0.1615 0.9605 0.7565 1.037 0.9605 1.037c 0.323 0 0.7055 -0.1785 0.7055 -0.8925c 0 -0.0765 -0.034 -0.119 -0.1275 -0.119Z "/></symbol><symbol id="gC8932C6BA7F518DC74E87E2F4A0224EB" overflow="visible"><path d="M 0 0m 4.0715 2.6095c 0 0.7055 0.0935 0.731 0.612 0.7735c 0.051 0.051 0.051 0.2295 0 0.2805c -0.2975 -0.017 -0.6715 -0.017 -0.952 -0.017c -0.238 0 -0.578 0.0085 -0.9095 0.017c -0.051 -0.051 -0.051 -0.2295 0 -0.2805c 0.5185 -0.034 0.578 -0.068 0.578 -0.7735v -0.5525h -1.819v 0.5525c 0 0.7055 0.0595 0.731 0.578 0.7735c 0.051 0.051 0.051 0.2295 0 0.2805c -0.323 -0.0085 -0.646 -0.017 -0.918 -0.017c -0.255 0 -0.6035 0.0085 -0.9435 0.017c -0.051 -0.051 -0.051 -0.2295 0 -0.2805c 0.5185 -0.034 0.612 -0.068 0.612 -0.7735v -1.5725c 0 -0.7055 -0.0935 -0.731 -0.612 -0.7735c -0.051 -0.051 -0.051 -0.2295 0 -0.2805c 0.34 0.0085 0.68 0.017 0.952 0.017c 0.272 0 0.6035 -0.0085 0.9095 -0.017c 0.051 0.051 0.051 0.2295 0 0.2805c -0.5185 0.034 -0.578 0.068 -0.578 0.7735v 0.7395h 1.819v -0.7395c 0 -0.7055 -0.0595 -0.731 -0.578 -0.7735c -0.051 -0.051 -0.051 -0.2295 0 -0.2805c 0.306 0.0085 0.6205 0.017 0.918 0.017c 0.255 0 0.612 -0.0085 0.9435 -0.017c 0.051 0.051 0.051 0.2295 0 0.2805c -0.5185 0.034 -0.612 0.068 -0.612 0.7735Z "/></symbol><symbol id="gF931FC691828778A920607CF18B9C32A" overflow="visible"><path d="M 0 0m 2.4905 0.408c 0.051 -0.2635 0.1445 -0.493 0.5695 -0.493c 0.323 0 0.629 0.1445 0.8075 0.3145c -0.017 0.102 -0.051 0.1785 -0.1445 0.2295c -0.0595 -0.051 -0.204 -0.136 -0.3145 -0.136c -0.2465 0 -0.255 0.3315 -0.255 0.7225v 1.2495c 0 1.207 -0.663 1.4365 -1.2835 1.4365c -0.697 0 -1.4025 -0.459 -1.4025 -0.9435c 0 -0.204 0.102 -0.306 0.2975 -0.306c 0.2465 0 0.3995 0.1785 0.3995 0.289c 0 0.0595 -0.0085 0.119 -0.0255 0.153c -0.0085 0.0255 -0.017 0.0765 -0.017 0.17c 0 0.2635 0.357 0.357 0.68 0.357c 0.289 0 0.6885 -0.1445 0.6885 -1.105c 0 -0.0595 -0.0255 -0.0935 -0.051 -0.102l -0.731 -0.1785c -0.816 -0.204 -1.4025 -0.6545 -1.4025 -1.2325c 0 -0.697 0.476 -0.918 1.071 -0.918c 0.2975 0 0.5525 0.068 0.9265 0.357l 0.17 0.136Z m 0 1.5725v -1.122c 0 -0.1105 -0.051 -0.17 -0.119 -0.221c -0.221 -0.1785 -0.51 -0.374 -0.748 -0.374c -0.425 0 -0.612 0.34 -0.612 0.6035c 0 0.3825 0.1785 0.7735 0.8075 0.935Z "/></symbol><symbol id="gEF5DE670D307ABF3FAA7AE7F58FA196F" overflow="visible"><path d="M 0 0m 0.969 0c 0.238 0.0085 0.323 0.2295 0.425 0.5355c 0.221 0.6715 0.4675 1.088 0.8925 1.088h 0.221v -0.5865c 0 -0.7055 -0.0935 -0.731 -0.612 -0.7735c -0.051 -0.051 -0.051 -0.2295 0 -0.2805c 0.2805 0.0085 0.578 0.017 0.952 0.017c 0.3655 0 0.6715 -0.0085 0.9435 -0.017c 0.051 0.051 0.051 0.2295 0 0.2805c -0.5185 0.034 -0.612 0.068 -0.612 0.7735v 1.5725c 0 0.7055 0.0935 0.731 0.612 0.7735c 0.051 0.051 0.051 0.2295 0 0.2805c -0.289 -0.0085 -0.578 -0.017 -0.952 -0.017c -0.289 0 -0.5355 0.017 -0.748 0.017c -1.4875 0 -1.615 -0.612 -1.615 -1.071c 0 -0.5525 0.425 -0.833 1.054 -0.8585c 0.0255 0 0.0255 -0.0255 0.017 -0.034c -0.323 -0.0935 -0.4675 -0.272 -0.612 -0.5865c -0.0935 -0.1955 -0.17 -0.3825 -0.2125 -0.493c -0.1105 -0.289 -0.255 -0.34 -0.5865 -0.357c -0.051 -0.051 -0.051 -0.2295 0 -0.2805c 0.17 0.0085 0.833 0.017 0.833 0.017Z m 0.238 2.7285c 0 0.3995 0.1275 0.6545 0.816 0.6545c 0.3485 0 0.4845 -0.153 0.4845 -0.476v -0.9945h -0.595c -0.51 0 -0.7055 0.391 -0.7055 0.816Z "/></symbol><symbol id="gC8D6D5492F0FFEF84F8079BC5341E7A6" overflow="visible"><path d="M 0 0m 1.581 2.6095c 0 0.4845 0.0595 0.7055 0.357 0.7055h 0.187c 0.697 0 0.901 -0.4845 1.02 -0.9775c 0.0935 -0.0085 0.1785 0 0.2465 0.034c -0.034 0.4505 -0.0595 0.8245 -0.1105 1.275l -0.017 0.017c 0 0 -0.68 -0.017 -0.952 -0.017h -1.071c -0.3655 0 -0.663 0.0085 -0.9435 0.017c -0.051 -0.051 -0.051 -0.2295 0 -0.2805c 0.5185 -0.034 0.612 -0.068 0.612 -0.7735v -1.5725c 0 -0.7055 -0.0935 -0.731 -0.612 -0.7735c -0.051 -0.051 -0.051 -0.2295 0 -0.2805c 0.2805 0.0085 0.578 0.017 0.952 0.017c 0.3655 0 0.6715 -0.0085 0.9435 -0.017c 0.051 0.051 0.051 0.2295 0 0.2805c -0.5185 0.034 -0.612 0.068 -0.612 0.7735Z "/></symbol><symbol id="gB3F6F741CFF64E2F87AE274E4C795DAE" overflow="visible"><path d="M 0 0m 3.553 1.037v 1.5725c 0 0.697 0.1105 0.7395 0.578 0.7735c 0.051 0.051 0.051 0.2295 0 0.2805c -0.255 -0.0085 -0.578 -0.017 -0.918 -0.017h -1.6065c -0.2805 0 -0.612 0.0085 -0.867 0.017c -0.051 -0.051 -0.051 -0.2295 0 -0.2805c 0.6035 -0.0425 0.6885 -0.0935 0.6885 -1.0115c 0 -0.8925 -0.068 -1.36 -0.187 -1.7085c -0.1105 -0.306 -0.255 -0.4165 -0.3995 -0.4165c -0.1105 0 -0.1445 0.068 -0.1615 0.1785c -0.0255 0.1615 -0.0765 0.323 -0.3145 0.323c -0.2125 0 -0.3315 -0.17 -0.3315 -0.357c 0 -0.2635 0.238 -0.493 0.629 -0.493c 0.4335 0 0.6715 0.221 0.867 0.68c 0.17 0.408 0.221 1.275 0.221 1.853c 0 0.663 0.0255 0.884 0.3655 0.884h 0.3825c 0.323 0 0.3825 -0.204 0.3825 -0.493v -1.785c 0 -0.697 -0.085 -0.7395 -0.527 -0.7735c -0.0425 -0.051 -0.0425 -0.2295 0 -0.2805c 0.2125 0.0085 0.527 0.017 0.867 0.017c 0.34 0 0.7225 -0.0085 0.9605 -0.017c 0.0425 0.051 0.0425 0.2295 0 0.2805c -0.5525 0.034 -0.629 0.0765 -0.629 0.7735Z "/></symbol><symbol id="g2884EEE83F88BF741DF31D9C41AEE180" overflow="visible"><path d="M 0 0m 1.734 -1.36c 0.136 0.238 0.2465 0.476 0.3485 0.731c 0.68 1.6405 1.0625 2.516 1.5045 3.468c 0.17 0.357 0.289 0.493 0.6885 0.544c 0.051 0.051 0.051 0.2295 0 0.2805c -0.17 -0.0085 -0.3655 -0.017 -0.6035 -0.017c -0.255 0 -0.5185 0.0085 -0.7735 0.017c -0.051 -0.051 -0.051 -0.2295 0 -0.2805c 0.272 -0.0255 0.544 -0.0765 0.408 -0.3825l -0.8415 -1.9465c -0.0595 -0.136 -0.136 -0.1615 -0.204 0.0085l -0.7565 1.768c -0.153 0.357 -0.1955 0.5185 0.2805 0.5525c 0.051 0.051 0.051 0.2295 0 0.2805c -0.3145 -0.0085 -0.6545 -0.017 -0.9605 -0.017c -0.289 0 -0.5185 0.0085 -0.6885 0.017c -0.051 -0.051 -0.051 -0.2295 0 -0.2805c 0.34 -0.0425 0.4505 -0.119 0.6715 -0.6375l 0.9605 -2.2355c 0.0765 -0.17 0.204 -0.561 0.119 -0.799c -0.102 -0.2805 -0.204 -0.5185 -0.3315 -0.782c -0.0935 -0.17 -0.2125 -0.2465 -0.425 -0.2465c -0.119 0 -0.153 0.0255 -0.2465 0.0255c -0.2465 0 -0.374 -0.255 -0.374 -0.3655c 0 -0.1785 0.17 -0.3145 0.3995 -0.3145c 0.1785 0 0.5185 0.068 0.8245 0.612Z "/></symbol><symbol id="g76961810B6DEE2CEF630C1F5B8F93C8E" overflow="visible"><path d="M 0 0m 0.289 2.1845c 0 -1.6065 0.9265 -2.2695 1.751 -2.2695c 1.1645 0 1.836 0.867 1.836 1.938c 0 0.918 -0.51 1.8785 -1.7085 1.8785c -0.8075 0 -1.3005 -0.476 -1.4875 -0.884l -0.017 0.017c 0.034 0.442 0.17 0.986 0.2975 1.207c 0.272 0.4675 0.595 0.493 1.377 0.578c 0.765 0.085 1.309 0.3315 1.3855 1.2835c -0.0595 0.0255 -0.119 0.034 -0.187 0c -0.068 -0.408 -0.5185 -0.5185 -1.2325 -0.629c -0.6885 -0.1105 -1.2665 -0.3485 -1.6235 -1.02c -0.306 -0.578 -0.391 -1.292 -0.391 -2.0995Z m 0.731 -0.221c 0 0.476 0.17 1.4705 1.054 1.4705c 0.663 0 1.071 -0.765 1.071 -1.785c 0 -1.071 -0.493 -1.4365 -0.952 -1.4365c -0.6205 0 -1.173 0.8075 -1.173 1.751Z "/></symbol><symbol id="gB30BF778AB490C945CE3B0B01F2D3DE5" overflow="visible"><path d="M 0 0m 0.352 2.016c 0 -0.36 0.032 -2.208 1.696 -3.648c 0.08 0.016 0.144 0.072 0.168 0.136c -0.264 0.304 -1.2 1.408 -1.2 3.512c 0 2.104 0.944 3.208 1.2 3.496c -0.024 0.08 -0.08 0.136 -0.168 0.144c -0.952 -0.816 -1.696 -2.152 -1.696 -3.64Z "/></symbol><symbol id="gDFD38EC9906BA626C5B7E69A103C103" overflow="visible"><path d="M 0 0m 0.272 2.056c 0 -1.512 0.872 -2.136 1.648 -2.136c 1.096 0 1.728 0.816 1.728 1.824c 0 0.864 -0.48 1.768 -1.608 1.768c -0.76 0 -1.224 -0.448 -1.4 -0.832l -0.016 0.016c 0.032 0.416 0.16 0.928 0.28 1.136c 0.256 0.44 0.56 0.464 1.296 0.544c 0.72 0.08 1.232 0.312 1.304 1.208c -0.056 0.024 -0.112 0.032 -0.176 0c -0.064 -0.384 -0.488 -0.488 -1.16 -0.592c -0.648 -0.104 -1.192 -0.328 -1.528 -0.96c -0.288 -0.544 -0.368 -1.216 -0.368 -1.976Z m 0.688 -0.208c 0 0.448 0.16 1.384 0.992 1.384c 0.624 0 1.008 -0.72 1.008 -1.68c 0 -1.008 -0.464 -1.352 -0.896 -1.352c -0.584 0 -1.104 0.76 -1.104 1.648Z "/></symbol><symbol id="g46DFAA35BC521B4F2378CE697B4B163E" overflow="visible"><path d="M 0 0m 1.248 2.944c -0.008 0.24 -0.024 0.448 -0.064 0.528c -0.016 0.04 -0.032 0.064 -0.096 0.064c -0.224 -0.088 -0.432 -0.16 -0.984 -0.232c -0.016 -0.048 0 -0.176 0.016 -0.224c 0.432 -0.04 0.52 -0.08 0.52 -0.544v -3.416c 0 -0.664 -0.088 -0.704 -0.576 -0.728c -0.048 -0.048 -0.048 -0.216 0 -0.264c 0.28 0.008 0.576 0.016 0.896 0.016c 0.32 0 0.704 -0.008 0.968 -0.016c 0.048 0.048 0.048 0.216 0 0.264c -0.568 0.032 -0.656 0.064 -0.656 0.728v 0.864c 0 0.104 0.032 0.096 0.112 0.064c 0.2 -0.08 0.44 -0.128 0.696 -0.128c 0.448 0 0.848 0.136 1.176 0.448c 0.376 0.368 0.592 0.864 0.592 1.512c 0 0.848 -0.6 1.632 -1.416 1.632c -0.368 0 -0.776 -0.24 -1.096 -0.6c -0.048 -0.048 -0.08 -0.048 -0.088 0.032Z m 0.152 -0.296c 0.208 0.256 0.576 0.496 0.808 0.496c 0.512 0 0.952 -0.576 0.952 -1.48c 0 -0.656 -0.232 -1.472 -1.128 -1.472c -0.144 0 -0.424 0.04 -0.568 0.168c -0.16 0.144 -0.192 0.192 -0.192 0.48v 1.456c 0 0.168 0.032 0.24 0.128 0.352Z "/></symbol><symbol id="g5D01DA3AB390CB78D7E54204B7DC3F87" overflow="visible"><path d="M 0 0m 0.328 1.64c 0 -0.816 0.544 -1.72 1.68 -1.72c 0.512 0 0.904 0.184 1.176 0.448c 0.36 0.352 0.52 0.856 0.52 1.344c 0 0.832 -0.456 1.8 -1.68 1.8c -0.528 0 -0.96 -0.216 -1.256 -0.56c -0.288 -0.344 -0.44 -0.808 -0.44 -1.312Z m 1.576 1.592c 0.688 0 1.112 -0.624 1.112 -1.776c 0 -1.008 -0.52 -1.256 -0.896 -1.256c -0.832 0 -1.104 1.008 -1.104 1.624c 0 0.696 0.168 1.408 0.888 1.408Z "/></symbol><symbol id="g937124D7F3D66536776BB8DA5DFD7893" overflow="visible"><path d="M 0 0m 3.832 2.456c 0 0.664 0.088 0.688 0.576 0.728c 0.048 0.048 0.048 0.216 0 0.264c -0.28 -0.016 -0.632 -0.016 -0.896 -0.016c -0.224 0 -0.544 0.008 -0.856 0.016c -0.048 -0.048 -0.048 -0.216 0 -0.264c 0.488 -0.032 0.544 -0.064 0.544 -0.728v -0.52h -1.712v 0.52c 0 0.664 0.056 0.688 0.544 0.728c 0.048 0.048 0.048 0.216 0 0.264c -0.304 -0.008 -0.608 -0.016 -0.864 -0.016c -0.24 0 -0.568 0.008 -0.888 0.016c -0.048 -0.048 -0.048 -0.216 0 -0.264c 0.488 -0.032 0.576 -0.064 0.576 -0.728v -1.48c 0 -0.664 -0.088 -0.688 -0.576 -0.728c -0.048 -0.048 -0.048 -0.216 0 -0.264c 0.32 0.008 0.64 0.016 0.896 0.016c 0.256 0 0.568 -0.008 0.856 -0.016c 0.048 0.048 0.048 0.216 0 0.264c -0.488 0.032 -0.544 0.064 -0.544 0.728v 0.696h 1.712v -0.696c 0 -0.664 -0.056 -0.688 -0.544 -0.728c -0.048 -0.048 -0.048 -0.216 0 -0.264c 0.288 0.008 0.584 0.016 0.864 0.016c 0.24 0 0.576 -0.008 0.888 -0.016c 0.048 0.048 0.048 0.216 0 0.264c -0.488 0.032 -0.576 0.064 -0.576 0.728Z "/></symbol><symbol id="gF09D88C2290872E835CD22D560D52A5C" overflow="visible"><path d="M 0 0m 0.344 0.664c 0 -0.176 0.104 -0.304 0.272 -0.432c 0.2 -0.144 0.464 -0.312 1.096 -0.312c 0.8 0 1.424 0.24 1.424 1.032c 0 0.48 -0.24 0.8 -0.808 0.896v 0.024c 0.488 0.184 0.616 0.408 0.616 0.824c 0 0.464 -0.32 0.816 -1.128 0.816c -0.424 0 -0.8 -0.152 -1.232 -0.224l -0.104 -0.952c 0.064 -0.032 0.144 -0.04 0.216 -0.032c 0.152 0.464 0.352 0.928 1.024 0.928c 0.44 0 0.584 -0.264 0.584 -0.584c 0 -0.328 -0.056 -0.712 -0.568 -0.712c -0.152 0 -0.288 0.048 -0.44 0.048c -0.072 0 -0.152 -0.048 -0.152 -0.176c 0 -0.128 0.088 -0.168 0.16 -0.168c 0.152 0 0.24 0.048 0.44 0.048c 0.592 0 0.704 -0.408 0.704 -0.76c 0 -0.472 -0.176 -0.728 -0.744 -0.728c -0.456 0 -0.536 0.168 -0.672 0.456c -0.064 0.144 -0.152 0.256 -0.36 0.256c -0.144 0 -0.328 -0.12 -0.328 -0.248Z "/></symbol><symbol id="gE9BB349F7E32C39203BC6B218DF12838" overflow="visible"><path d="M 0 0m 1.168 3.432c -0.344 0 -0.624 0.008 -0.888 0.016c -0.048 -0.048 -0.048 -0.216 0 -0.264c 0.488 -0.032 0.576 -0.064 0.576 -0.728v -1.48c 0 -0.664 -0.088 -0.688 -0.576 -0.728c -0.048 -0.048 -0.048 -0.216 0 -0.264c 0.264 0.008 0.544 0.016 0.896 0.016c 0.296 0 0.56 -0.016 1.096 -0.016c 0.688 0 1.208 0.192 1.208 0.984c 0 0.448 -0.28 0.76 -0.768 0.848v 0.024c 0.368 0.072 0.648 0.328 0.648 0.808c 0 0.56 -0.344 0.8 -1.312 0.8c -0.328 0 -0.536 -0.016 -0.88 -0.016Z m 0.32 -1.696h 0.608c 0.488 0 0.696 -0.32 0.696 -0.8c 0 -0.536 -0.304 -0.688 -0.736 -0.688c -0.416 0 -0.568 0.072 -0.568 0.44Z m 0 0.232v 0.928c 0 0.24 0.184 0.288 0.568 0.288c 0.416 0 0.664 -0.112 0.664 -0.592c 0 -0.32 -0.208 -0.624 -0.704 -0.624Z "/></symbol><symbol id="gADB3B27726748394AAF96F33FED6E9BE" overflow="visible"><path d="M 0 0m 1.488 2.448c 0 0.672 0.088 0.696 0.576 0.736c 0.048 0.048 0.048 0.216 0 0.264c -0.272 -0.008 -0.544 -0.016 -0.896 -0.016c -0.344 0 -0.624 0.008 -0.888 0.016c -0.048 -0.048 -0.048 -0.216 0 -0.264c 0.488 -0.032 0.576 -0.064 0.576 -0.728v -1.48c 0 -0.664 -0.088 -0.688 -0.576 -0.728c -0.048 -0.048 -0.048 -0.216 0 -0.264c 0.264 0.008 0.544 0.016 0.896 0.016c 0.328 0 0.504 -0.016 0.832 -0.016c 0.984 0 1.52 0.248 1.52 1.104c 0 0.752 -0.656 0.968 -1.464 0.968h -0.576Z m 3.448 0.008c 0 0.664 0.088 0.688 0.576 0.728c 0.048 0.048 0.048 0.216 0 0.264c -0.272 -0.008 -0.544 -0.016 -0.896 -0.016c -0.344 0 -0.624 0.008 -0.888 0.016c -0.048 -0.048 -0.048 -0.216 0 -0.264c 0.488 -0.032 0.576 -0.064 0.576 -0.728v -1.48c 0 -0.664 -0.088 -0.688 -0.576 -0.728c -0.048 -0.048 -0.048 -0.216 0 -0.264c 0.264 0.008 0.544 0.016 0.896 0.016c 0.344 0 0.632 -0.008 0.888 -0.016c 0.048 0.048 0.048 0.216 0 0.264c -0.488 0.032 -0.576 0.064 -0.576 0.728Z m -2.096 -1.448c 0 -0.656 -0.4 -0.76 -0.824 -0.76c -0.392 0 -0.528 0.08 -0.528 0.36v 1.184h 0.568c 0.6 0 0.784 -0.36 0.784 -0.784Z "/></symbol><symbol id="g9E0D72929382BA054F8819A862FD1C38" overflow="visible"><path d="M 0 0m 1.584 0.504c -0.024 0 -0.056 0.016 -0.056 0.096v 1.824c 0 0.664 0.168 0.736 0.576 0.76c 0.048 0.048 0.048 0.216 0 0.264c -0.184 -0.008 -0.64 -0.016 -0.936 -0.016c -0.264 0 -0.584 0.008 -0.888 0.016c -0.048 -0.048 -0.048 -0.216 0 -0.264c 0.488 -0.024 0.616 -0.096 0.616 -0.76v -1.416c 0 -0.664 -0.128 -0.736 -0.616 -0.76c -0.048 -0.048 -0.048 -0.216 0 -0.264c 0.312 0.008 0.632 0.016 0.888 0.016c 0.184 0 0.4 -0.008 0.488 -0.016c 0.04 0.112 0.112 0.272 0.2 0.432l 1.248 2.504c 0.024 0 0.056 -0.016 0.056 -0.096v -1.816c 0 -0.664 -0.168 -0.736 -0.576 -0.76c -0.048 -0.048 -0.048 -0.216 0 -0.264c 0.184 0.008 0.616 0.016 0.936 0.016c 0.248 0 0.576 -0.008 0.888 -0.016c 0.048 0.048 0.048 0.216 0 0.264c -0.488 0.024 -0.616 0.096 -0.616 0.76v 1.416c 0 0.664 0.128 0.736 0.616 0.76c 0.048 0.048 0.048 0.216 0 0.264c -0.32 -0.008 -0.64 -0.016 -0.888 -0.016c -0.176 0 -0.4 0.008 -0.48 0.016c -0.064 -0.144 -0.136 -0.312 -0.208 -0.448Z m 1.72 4.216c 0 0.152 -0.112 0.264 -0.304 0.264c -0.144 0 -0.28 -0.112 -0.28 -0.248c 0 -0.024 0 -0.04 0.008 -0.056c 0.008 -0.024 0.008 -0.048 0.008 -0.072c 0 -0.176 -0.168 -0.336 -0.4 -0.336c -0.24 0 -0.4 0.168 -0.4 0.344c 0 0.016 0 0.04 0.008 0.064c 0.008 0.024 0.008 0.04 0.008 0.064c 0 0.128 -0.096 0.24 -0.272 0.24c -0.184 0 -0.312 -0.12 -0.312 -0.264c 0 -0.432 0.44 -0.696 0.96 -0.696c 0.512 0 0.976 0.256 0.976 0.696Z "/></symbol><symbol id="g465CA45D0696F5BBCE5E7A11B5E63D98" overflow="visible"><path d="M 0 0m 3.088 0.744c -0.296 -0.304 -0.528 -0.432 -0.992 -0.432c -0.288 0 -0.624 0.168 -0.872 0.576c -0.16 0.264 -0.256 0.632 -0.256 1.096l 2.128 -0.016c 0.096 0 0.152 0.048 0.152 0.136c 0 0.672 -0.24 1.392 -1.352 1.392c -0.696 0 -1.6 -0.664 -1.6 -1.88c 0 -0.448 0.112 -0.88 0.376 -1.184c 0.272 -0.32 0.648 -0.512 1.224 -0.512c 0.608 0 1.04 0.28 1.36 0.696c -0.024 0.08 -0.072 0.12 -0.168 0.128Z m -2.096 1.512c 0.152 0.904 0.712 0.976 0.904 0.976c 0.304 0 0.664 -0.168 0.664 -0.84c 0 -0.072 -0.032 -0.112 -0.12 -0.112Z "/></symbol><symbol id="g362A412C7577377BE4D103B9E5EDCC22" overflow="visible"><path d="M 0 0m 3.088 0c 0 0 0.624 -0.008 0.784 -0.016c 0.048 0.048 0.048 0.216 0 0.264c -0.312 0.016 -0.376 0.08 -0.512 0.336l -0.36 0.68c -0.2 0.376 -0.48 0.568 -0.936 0.568v 0.024c 0.312 0.088 0.448 0.368 0.568 0.688c 0.096 0.248 0.192 0.4 0.36 0.4c 0.072 0 0.136 -0.024 0.184 -0.056c 0.048 -0.032 0.136 -0.056 0.24 -0.056c 0.176 0 0.32 0.152 0.32 0.312c 0 0.176 -0.192 0.36 -0.456 0.36c -0.464 0 -0.68 -0.432 -0.832 -0.808c -0.176 -0.44 -0.392 -0.744 -0.96 -0.744v 0.504c 0 0.664 0.088 0.688 0.496 0.728c 0.048 0.048 0.048 0.216 0 0.264c -0.192 -0.008 -0.496 -0.016 -0.816 -0.016c -0.344 0 -0.624 0.008 -0.888 0.016c -0.048 -0.048 -0.048 -0.216 0 -0.264c 0.488 -0.032 0.576 -0.064 0.576 -0.728v -1.48c 0 -0.664 -0.088 -0.688 -0.576 -0.728c -0.048 -0.048 -0.048 -0.216 0 -0.264c 0.264 0.008 0.544 0.016 0.896 0.016c 0.312 0 0.632 -0.008 0.808 -0.016c 0.048 0.048 0.048 0.216 0 0.264c -0.408 0.032 -0.496 0.064 -0.496 0.728v 0.696c 0.544 -0.032 0.688 -0.248 0.832 -0.544l 0.344 -0.72c 0.104 -0.216 0.264 -0.4 0.424 -0.408Z "/></symbol><symbol id="g6250019511BFB8795A3460240BB5387A" overflow="visible"><path d="M 0 0m 0.832 0.76c -0.248 0 -0.424 -0.168 -0.424 -0.392c 0 -0.248 0.208 -0.328 0.352 -0.352c 0.152 -0.016 0.288 -0.064 0.288 -0.248c 0 -0.168 -0.288 -0.536 -0.704 -0.64c 0 -0.08 0.016 -0.136 0.072 -0.192c 0.48 0.088 0.944 0.472 0.944 1.032c 0 0.48 -0.208 0.792 -0.528 0.792Z "/></symbol><symbol id="g177F9E273DA262FEAD295E221F7D9A5E" overflow="visible"><path d="M 0 0m 1.528 0.976v 3.208c 0 0.664 0.136 0.704 0.696 0.728c 0.048 0.048 0.048 0.216 0 0.264c -0.352 -0.008 -0.728 -0.016 -1.04 -0.016c -0.264 0 -0.656 0.008 -1.032 0.016c -0.048 -0.048 -0.048 -0.216 0 -0.264c 0.56 -0.024 0.696 -0.064 0.696 -0.728v -3.208c 0 -0.664 -0.136 -0.704 -0.696 -0.728c -0.048 -0.048 -0.048 -0.216 0 -0.264c 0.36 0.008 0.752 0.016 1.04 0.016c 0.288 0 0.672 -0.008 1.032 -0.016c 0.048 0.048 0.048 0.216 0 0.264c -0.56 0.024 -0.696 0.064 -0.696 0.728Z "/></symbol><symbol id="gE09E60C0AC8E2E10ADA02C2F49261352" overflow="visible"><path d="M 0 0m 1.456 0.976c 0 -0.664 -0.088 -0.704 -0.576 -0.728c -0.048 -0.048 -0.048 -0.216 0 -0.264c 0.312 0.008 0.632 0.016 0.896 0.016c 0.272 0 0.584 -0.008 0.888 -0.016c 0.048 0.048 0.048 0.216 0 0.264c -0.488 0.024 -0.576 0.064 -0.576 0.728v 2.16h 0.136c 0.648 0 0.776 -0.224 0.912 -0.872c 0.104 0 0.208 0.032 0.208 0.032c -0.048 0.368 -0.08 0.72 -0.088 1.184c -0.184 -0.016 -0.784 -0.048 -1.184 -0.048h -0.6c -0.4 0 -0.848 0.024 -1.168 0.048c -0.008 -0.464 -0.04 -0.816 -0.096 -1.184c 0 0 0.112 -0.032 0.216 -0.032c 0.136 0.648 0.256 0.872 0.912 0.872h 0.12Z "/></symbol><symbol id="g9F99202881449AD6C0CCCD21824C9AF1" overflow="visible"><path d="M 0 0m 3.184 0.728c -0.032 0.072 -0.096 0.104 -0.168 0.112c -0.272 -0.352 -0.616 -0.528 -0.96 -0.528c -0.584 0 -1.072 0.592 -1.072 1.528c 0 0.88 0.384 1.408 0.912 1.408c 0.472 0 0.536 -0.28 0.568 -0.56c 0.024 -0.216 0.136 -0.288 0.304 -0.288c 0.168 0 0.392 0.104 0.392 0.352c 0 0.44 -0.456 0.76 -1.224 0.76c -0.792 0 -1.64 -0.712 -1.64 -1.848c 0 -1.032 0.576 -1.744 1.584 -1.744c 0.48 0 0.904 0.152 1.304 0.808Z "/></symbol><symbol id="gDA9D104EDC10412DB2A75684B1270D2D" overflow="visible"><path d="M 0 0m 0.456 0.344c 0 -0.232 0.192 -0.424 0.424 -0.424c 0.232 0 0.424 0.192 0.424 0.424c 0 0.232 -0.192 0.424 -0.424 0.424c -0.232 0 -0.424 -0.192 -0.424 -0.424Z "/></symbol><symbol id="gAC00C34078948F83CC62D60B02C8E81A" overflow="visible"><path d="M 0 0m 1.512 3.432c -0.264 0 -0.576 0.008 -0.816 0.016c -0.048 -0.048 -0.048 -0.216 0 -0.264c 0.488 -0.04 0.632 -0.072 0.6 -0.736c -0.032 -0.736 -0.16 -1.328 -0.296 -1.888c -0.048 -0.216 -0.28 -0.288 -0.504 -0.312c -0.12 -0.016 -0.232 -0.064 -0.24 -0.208l -0.048 -1.064c 0.056 -0.024 0.12 -0.032 0.216 -0.008c 0.072 0.296 0.288 1.032 1.008 1.032h 1.384c 0.712 0 0.944 -0.72 1.016 -1.04c 0.072 -0.016 0.144 -0.016 0.224 0.016l -0.048 1.072c 0 0.112 -0.064 0.176 -0.216 0.2c -0.144 0.024 -0.344 0.08 -0.344 0.376v 1.832c 0 0.656 0.104 0.696 0.544 0.728c 0.048 0.048 0.048 0.216 0 0.264c -0.24 -0.008 -0.544 -0.016 -0.864 -0.016Z m -0.224 -3.024c 0 0.136 0.216 0.664 0.336 2.496c 0.008 0.12 0.064 0.224 0.28 0.224h 0.552c 0.32 0 0.36 -0.224 0.36 -0.496v -1.928c 0 -0.264 -0.016 -0.392 -0.336 -0.392h -1.032c -0.088 0 -0.16 0.008 -0.16 0.096Z "/></symbol><symbol id="g74629E0EED4CC27B54990D26AF653518" overflow="visible"><path d="M 0 0m 0.376 0.656c 0 -0.424 0.6 -0.736 1.368 -0.736c 0.832 0 1.6 0.56 1.6 1.848c 0 0.968 -0.44 1.744 -1.608 1.744c -0.4 0 -0.816 -0.12 -1.232 -0.152c -0.04 -0.304 -0.056 -0.632 -0.072 -0.96c 0.064 -0.04 0.128 -0.048 0.208 -0.032c 0.144 0.512 0.408 0.864 1.032 0.864c 0.672 0 1 -0.656 1 -1.392l -0.024 -0.016c -0.216 0.128 -0.44 0.224 -0.688 0.224c -0.184 0 -0.344 -0.056 -0.488 -0.12c -0.128 -0.056 -0.256 -0.104 -0.4 -0.104c -0.112 0 -0.216 0.048 -0.272 0.048c -0.048 0 -0.064 -0.08 -0.064 -0.112c 0 -0.112 0.392 -0.256 0.752 -0.256c 0.192 0 0.336 0.04 0.464 0.096c 0.112 0.048 0.232 0.08 0.384 0.08c 0.112 0 0.216 -0.032 0.32 -0.072c 0 -0.952 -0.296 -1.408 -1.008 -1.408c -0.336 0 -0.528 0.176 -0.632 0.392c -0.12 0.256 -0.232 0.296 -0.376 0.296c -0.152 0 -0.264 -0.104 -0.264 -0.232Z "/></symbol><symbol id="g8BFB8D74D1A095ADA64D562E8FB553BF" overflow="visible"><path d="M 0 0m 2.032 2.016c 0 0.36 -0.032 2.208 -1.696 3.648c -0.08 -0.016 -0.144 -0.072 -0.168 -0.136c 0.264 -0.304 1.2 -1.408 1.2 -3.512c 0 -2.104 -0.944 -3.208 -1.2 -3.496c 0.024 -0.08 0.08 -0.136 0.168 -0.144c 0.952 0.816 1.696 2.152 1.696 3.64Z "/></symbol><symbol id="gF797BEB250DC793C654741DDFB7687AB" overflow="visible"><path d="M 0 0m 1.767 2.9165c 0 0.5415 0.0665 0.7885 0.399 0.7885h 0.209c 0.779 0 1.007 -0.5415 1.14 -1.0925c 0.1045 -0.0095 0.1995 0 0.2755 0.038c -0.038 0.5035 -0.0665 0.9215 -0.1235 1.425l -0.019 0.019c 0 0 -0.76 -0.019 -1.064 -0.019h -1.197c -0.4085 0 -0.741 0.0095 -1.0545 0.019c -0.057 -0.057 -0.057 -0.2565 0 -0.3135c 0.5795 -0.038 0.684 -0.076 0.684 -0.8645v -1.7575c 0 -0.7885 -0.1045 -0.817 -0.684 -0.8645c -0.057 -0.057 -0.057 -0.2565 0 -0.3135c 0.3135 0.0095 0.646 0.019 1.064 0.019c 0.4085 0 0.7505 -0.0095 1.0545 -0.019c 0.057 0.057 0.057 0.2565 0 0.3135c -0.5795 0.038 -0.684 0.076 -0.684 0.8645Z "/></symbol><symbol id="gC110FFC20529D78AB6B9724BF2D3193A" overflow="visible"><path d="M 0 0m 0.3895 1.9475c 0 -0.969 0.646 -2.0425 1.995 -2.0425c 0.608 0 1.0735 0.2185 1.3965 0.532c 0.4275 0.418 0.6175 1.0165 0.6175 1.596c 0 0.988 -0.5415 2.1375 -1.995 2.1375c -0.627 0 -1.14 -0.2565 -1.4915 -0.665c -0.342 -0.4085 -0.5225 -0.9595 -0.5225 -1.558Z m 1.8715 1.8905c 0.817 0 1.3205 -0.741 1.3205 -2.109c 0 -1.197 -0.6175 -1.4915 -1.064 -1.4915c -0.988 0 -1.311 1.197 -1.311 1.9285c 0 0.8265 0.1995 1.672 1.0545 1.672Z "/></symbol><symbol id="g5B0FB9F727640150CA57389F67238C5A" overflow="visible"><path d="M 0 0m 1.482 3.496c -0.0095 0.285 -0.0285 0.532 -0.076 0.627c -0.019 0.0475 -0.038 0.076 -0.114 0.076c -0.266 -0.1045 -0.513 -0.19 -1.1685 -0.2755c -0.019 -0.057 0 -0.209 0.019 -0.266c 0.513 -0.0475 0.6175 -0.095 0.6175 -0.646v -4.0565c 0 -0.7885 -0.1045 -0.836 -0.684 -0.8645c -0.057 -0.057 -0.057 -0.2565 0 -0.3135c 0.3325 0.0095 0.684 0.019 1.064 0.019c 0.38 0 0.836 -0.0095 1.1495 -0.019c 0.057 0.057 0.057 0.2565 0 0.3135c -0.6745 0.038 -0.779 0.076 -0.779 0.8645v 1.026c 0 0.1235 0.038 0.114 0.133 0.076c 0.2375 -0.095 0.5225 -0.152 0.8265 -0.152c 0.532 0 1.007 0.1615 1.3965 0.532c 0.4465 0.437 0.703 1.026 0.703 1.7955c 0 1.007 -0.7125 1.938 -1.6815 1.938c -0.437 0 -0.9215 -0.285 -1.3015 -0.7125c -0.057 -0.057 -0.095 -0.057 -0.1045 0.038Z m 0.1805 -0.3515c 0.247 0.304 0.684 0.589 0.9595 0.589c 0.608 0 1.1305 -0.684 1.1305 -1.7575c 0 -0.779 -0.2755 -1.748 -1.3395 -1.748c -0.171 0 -0.5035 0.0475 -0.6745 0.1995c -0.19 0.171 -0.228 0.228 -0.228 0.57v 1.729c 0 0.1995 0.038 0.285 0.152 0.418Z "/></symbol><symbol id="g6669B171F620D83100083E58706CE8E4" overflow="visible"><path d="M 0 0m 1.7955 4.0755c -0.3135 0 -0.684 0.0095 -0.969 0.019c -0.057 -0.057 -0.057 -0.2565 0 -0.3135c 0.5795 -0.0475 0.7505 -0.0855 0.7125 -0.874c -0.038 -0.874 -0.19 -1.577 -0.3515 -2.242c -0.057 -0.2565 -0.3325 -0.342 -0.5985 -0.3705c -0.1425 -0.019 -0.2755 -0.076 -0.285 -0.247l -0.057 -1.2635c 0.0665 -0.0285 0.1425 -0.038 0.2565 -0.0095c 0.0855 0.3515 0.342 1.2255 1.197 1.2255h 1.6435c 0.8455 0 1.121 -0.855 1.2065 -1.235c 0.0855 -0.019 0.171 -0.019 0.266 0.019l -0.057 1.273c 0 0.133 -0.076 0.209 -0.2565 0.2375c -0.171 0.0285 -0.4085 0.095 -0.4085 0.4465v 2.1755c 0 0.779 0.1235 0.8265 0.646 0.8645c 0.057 0.057 0.057 0.2565 0 0.3135c -0.285 -0.0095 -0.646 -0.019 -1.026 -0.019Z m -0.266 -3.591c 0 0.1615 0.2565 0.7885 0.399 2.964c 0.0095 0.1425 0.076 0.266 0.3325 0.266h 0.6555c 0.38 0 0.4275 -0.266 0.4275 -0.589v -2.2895c 0 -0.3135 -0.019 -0.4655 -0.399 -0.4655h -1.2255c -0.1045 0 -0.19 0.0095 -0.19 0.114Z "/></symbol><symbol id="g30870B079B88F136C2A9AD2E2890E4EB" overflow="visible"><path d="M 0 0m 1.881 0.5985c -0.0285 0 -0.0665 0.019 -0.0665 0.114v 2.166c 0 0.7885 0.1995 0.874 0.684 0.9025c 0.057 0.057 0.057 0.2565 0 0.3135c -0.2185 -0.0095 -0.76 -0.019 -1.1115 -0.019c -0.3135 0 -0.6935 0.0095 -1.0545 0.019c -0.057 -0.057 -0.057 -0.2565 0 -0.3135c 0.5795 -0.0285 0.7315 -0.114 0.7315 -0.9025v -1.6815c 0 -0.7885 -0.152 -0.874 -0.7315 -0.9025c -0.057 -0.057 -0.057 -0.2565 0 -0.3135c 0.3705 0.0095 0.7505 0.019 1.0545 0.019c 0.2185 0 0.475 -0.0095 0.5795 -0.019c 0.0475 0.133 0.133 0.323 0.2375 0.513l 1.482 2.9735c 0.0285 0 0.0665 -0.019 0.0665 -0.114v -2.1565c 0 -0.7885 -0.1995 -0.874 -0.684 -0.9025c -0.057 -0.057 -0.057 -0.2565 0 -0.3135c 0.2185 0.0095 0.7315 0.019 1.1115 0.019c 0.2945 0 0.684 -0.0095 1.0545 -0.019c 0.057 0.057 0.057 0.2565 0 0.3135c -0.5795 0.0285 -0.7315 0.114 -0.7315 0.9025v 1.6815c 0 0.7885 0.152 0.874 0.7315 0.9025c 0.057 0.057 0.057 0.2565 0 0.3135c -0.38 -0.0095 -0.76 -0.019 -1.0545 -0.019c -0.209 0 -0.475 0.0095 -0.57 0.019c -0.076 -0.171 -0.1615 -0.3705 -0.247 -0.532Z "/></symbol><symbol id="g1FC4F205433E0CF638FCEB589ABFC670" overflow="visible"><path d="M 0 0m 6.3555 0c 0.798 0 1.0735 -0.76 1.197 -1.2255c 0.0855 -0.019 0.171 -0.019 0.247 0.0095l -0.057 1.2635c -0.0095 0.171 -0.152 0.2185 -0.285 0.247c -0.2185 0.0475 -0.3705 0.1045 -0.3705 0.8645v 1.7575c 0 0.779 0.1235 0.8265 0.646 0.8645c 0.057 0.057 0.057 0.2565 0 0.3135c -0.285 -0.0095 -0.646 -0.019 -1.026 -0.019c -0.38 0 -0.665 0.0095 -0.95 0.019c -0.057 -0.057 -0.057 -0.2565 0 -0.3135c 0.4845 -0.0475 0.5795 -0.0855 0.5795 -0.8645v -2.0615c 0 -0.2945 -0.0285 -0.4845 -0.399 -0.4845h -1.121c -0.285 0 -0.4085 0.0855 -0.4085 0.4845v 2.0615c 0.0095 0.779 0.076 0.8265 0.589 0.8645c 0.0475 0.057 0.0475 0.2565 0 0.3135c -0.2375 -0.0095 -0.589 -0.019 -0.969 -0.019c -0.38 0 -0.6935 0.0095 -0.931 0.019c -0.0475 -0.057 -0.0475 -0.2565 0 -0.3135c 0.475 -0.038 0.57 -0.0855 0.5605 -0.8645v -2.071c 0 -0.3515 -0.0475 -0.475 -0.399 -0.475h -1.083c -0.3515 0 -0.4085 0.1045 -0.4085 0.4845v 2.0615c 0 0.779 0.095 0.8265 0.589 0.8645c 0.0475 0.057 0.0475 0.2565 0 0.3135c -0.2375 -0.0095 -0.589 -0.019 -0.969 -0.019c -0.38 0 -0.7125 0.0095 -0.9785 0.019c -0.0475 -0.057 -0.0475 -0.2565 0 -0.3135c 0.5225 -0.038 0.608 -0.0855 0.608 -0.8645v -1.7575c 0 -0.779 -0.1235 -0.8265 -0.646 -0.8645c -0.057 -0.057 -0.057 -0.2565 0 -0.3135c 0.285 0.0095 0.646 0.019 1.026 0.019Z "/></symbol><symbol id="gA3A5C9019285A4C81365474C03E3CF4E" overflow="visible"><path d="M 0 0m 3.667 0.8835c -0.3515 -0.361 -0.627 -0.513 -1.178 -0.513c -0.342 0 -0.741 0.1995 -1.0355 0.684c -0.19 0.3135 -0.304 0.7505 -0.304 1.3015l 2.527 -0.019c 0.114 0 0.1805 0.057 0.1805 0.1615c 0 0.798 -0.285 1.653 -1.6055 1.653c -0.8265 0 -1.9 -0.7885 -1.9 -2.2325c 0 -0.532 0.133 -1.045 0.4465 -1.406c 0.323 -0.38 0.7695 -0.608 1.4535 -0.608c 0.722 0 1.235 0.3325 1.615 0.8265c -0.0285 0.095 -0.0855 0.1425 -0.1995 0.152Z m -2.489 1.7955c 0.1805 1.0735 0.8455 1.159 1.0735 1.159c 0.361 0 0.7885 -0.1995 0.7885 -0.9975c 0 -0.0855 -0.038 -0.133 -0.1425 -0.133Z "/></symbol><symbol id="g43C8B9012740230B4896641F111759B5" overflow="visible"><path d="M 0 0m 0.374 2.142c 0 -0.3825 0.034 -2.346 1.802 -3.876c 0.085 0.017 0.153 0.0765 0.1785 0.1445c -0.2805 0.323 -1.275 1.496 -1.275 3.7315c 0 2.2355 1.003 3.4085 1.275 3.7145c -0.0255 0.085 -0.085 0.1445 -0.1785 0.153c -1.0115 -0.867 -1.802 -2.2865 -1.802 -3.8675Z "/></symbol><symbol id="g3EDD64AE7B5A40E8FE9DD75D51E8EE8A" overflow="visible"><path d="M 0 0m 1.547 1.037c 0 -0.7055 -0.0935 -0.748 -0.612 -0.7735c -0.051 -0.051 -0.051 -0.2295 0 -0.2805c 0.3315 0.0085 0.6715 0.017 0.952 0.017c 0.289 0 0.6205 -0.0085 0.9435 -0.017c 0.051 0.051 0.051 0.2295 0 0.2805c -0.5185 0.0255 -0.612 0.068 -0.612 0.7735v 2.295h 0.1445c 0.6885 0 0.8245 -0.238 0.969 -0.9265c 0.1105 0 0.221 0.034 0.221 0.034c -0.051 0.391 -0.085 0.765 -0.0935 1.258c -0.1955 -0.017 -0.833 -0.051 -1.258 -0.051h -0.6375c -0.425 0 -0.901 0.0255 -1.241 0.051c -0.0085 -0.493 -0.0425 -0.867 -0.102 -1.258c 0 0 0.119 -0.034 0.2295 -0.034c 0.1445 0.6885 0.272 0.9265 0.969 0.9265h 0.1275Z "/></symbol><symbol id="gACC36E988B99A2C990E6AE07D9F961E9" overflow="visible"><path d="M 0 0m 0.969 4.862c 0 0.255 0.34 0.459 0.8245 0.459c 0.4845 0 0.8075 -0.4845 0.8075 -1.037c 0 -0.3995 -0.1275 -0.646 -0.4675 -0.9605c -0.5525 -0.5015 -0.595 -1.003 -0.595 -1.3685v -0.391c 0 -0.0595 0.068 -0.085 0.136 -0.085c 0.068 0 0.1445 0.0255 0.1445 0.085v 0.374c 0 0.204 0.0085 0.408 0.119 0.6205c 0.0765 0.1445 0.2465 0.2805 0.442 0.425c 0.3995 0.289 0.9265 0.663 0.9265 1.3345c 0 0.7735 -0.561 1.2835 -1.428 1.2835c -0.4505 0 -0.8075 -0.119 -1.054 -0.3315c -0.255 -0.204 -0.4335 -0.442 -0.4335 -0.765c 0 -0.2975 0.2125 -0.3655 0.3485 -0.3655c 0.1615 0 0.3315 0.102 0.3315 0.2975c 0 0.1105 -0.017 0.1615 -0.051 0.204c -0.034 0.0425 -0.051 0.0935 -0.051 0.221Z m 0.255 -4.4965c 0 -0.2465 0.204 -0.4505 0.4505 -0.4505c 0.2465 0 0.4505 0.204 0.4505 0.4505c 0 0.2465 -0.204 0.4505 -0.4505 0.4505c -0.2465 0 -0.4505 -0.204 -0.4505 -0.4505Z "/></symbol><symbol id="gB168405E1D605C5C8AB8C2E5EBAB1021" overflow="visible"><path d="M 0 0m 2.159 2.142c 0 0.3825 -0.034 2.346 -1.802 3.876c -0.085 -0.017 -0.153 -0.0765 -0.1785 -0.1445c 0.2805 -0.323 1.275 -1.496 1.275 -3.7315c 0 -2.2355 -1.003 -3.4085 -1.275 -3.7145c 0.0255 -0.085 0.085 -0.1445 0.1785 -0.153c 1.0115 0.867 1.802 2.2865 1.802 3.8675Z "/></symbol><symbol id="g966D14D99AB05D933C4957B2E7FE95D9" overflow="visible"><path d="M 0 0m 3.781 0.8645c -0.038 0.0855 -0.114 0.1235 -0.1995 0.133c -0.323 -0.418 -0.7315 -0.627 -1.14 -0.627c -0.6935 0 -1.273 0.703 -1.273 1.8145c 0 1.045 0.456 1.672 1.083 1.672c 0.5605 0 0.6365 -0.3325 0.6745 -0.665c 0.0285 -0.2565 0.1615 -0.342 0.361 -0.342c 0.1995 0 0.4655 0.1235 0.4655 0.418c 0 0.5225 -0.5415 0.9025 -1.4535 0.9025c -0.9405 0 -1.9475 -0.8455 -1.9475 -2.1945c 0 -1.2255 0.684 -2.071 1.881 -2.071c 0.57 0 1.0735 0.1805 1.5485 0.9595Z "/></symbol><symbol id="gC86282117E7C9F65658F6DDAC49FC51A" overflow="visible"><path d="M 0 0m 3.971 1.159v 1.7575c 0 0.779 0.1235 0.8265 0.646 0.8645c 0.057 0.057 0.057 0.2565 0 0.3135c -0.285 -0.0095 -0.646 -0.019 -1.026 -0.019h -1.7955c -0.3135 0 -0.684 0.0095 -0.969 0.019c -0.057 -0.057 -0.057 -0.2565 0 -0.3135c 0.6745 -0.0475 0.7695 -0.1045 0.7695 -1.1305c 0 -0.9975 -0.076 -1.52 -0.209 -1.9095c -0.1235 -0.342 -0.285 -0.4655 -0.4465 -0.4655c -0.1235 0 -0.1615 0.076 -0.1805 0.1995c -0.0285 0.1805 -0.0855 0.361 -0.3515 0.361c -0.2375 0 -0.3705 -0.19 -0.3705 -0.399c 0 -0.2945 0.266 -0.551 0.703 -0.551c 0.4845 0 0.7505 0.247 0.969 0.76c 0.19 0.456 0.247 1.425 0.247 2.071c 0 0.741 0.0285 0.988 0.4085 0.988h 0.4275c 0.361 0 0.4275 -0.228 0.4275 -0.551v -1.995c 0 -0.779 -0.095 -0.8265 -0.589 -0.8645c -0.0475 -0.057 -0.0475 -0.2565 0 -0.3135c 0.2375 0.0095 0.589 0.019 0.969 0.019c 0.38 0 0.8075 -0.0095 1.0735 -0.019c 0.0475 0.057 0.0475 0.2565 0 0.3135c -0.6175 0.038 -0.703 0.0855 -0.703 0.8645Z "/></symbol><symbol id="gA087682AD38D2D620C1058FCC30E85F0" overflow="visible"><path d="M 0 0m 0.323 2.4415c 0 -1.7955 1.0355 -2.5365 1.957 -2.5365c 1.3015 0 2.052 0.969 2.052 2.166c 0 1.026 -0.57 2.0995 -1.9095 2.0995c -0.9025 0 -1.4535 -0.532 -1.6625 -0.988l -0.019 0.019c 0.038 0.494 0.19 1.102 0.3325 1.349c 0.304 0.5225 0.665 0.551 1.539 0.646c 0.855 0.095 1.463 0.3705 1.5485 1.4345c -0.0665 0.0285 -0.133 0.038 -0.209 0c -0.076 -0.456 -0.5795 -0.5795 -1.3775 -0.703c -0.7695 -0.1235 -1.4155 -0.3895 -1.8145 -1.14c -0.342 -0.646 -0.437 -1.444 -0.437 -2.3465Z m 0.817 -0.247c 0 0.532 0.19 1.6435 1.178 1.6435c 0.741 0 1.197 -0.855 1.197 -1.995c 0 -1.197 -0.551 -1.6055 -1.064 -1.6055c -0.6935 0 -1.311 0.9025 -1.311 1.957Z "/></symbol><symbol id="g30F02AEBABA7D40FC17FCA43D8EB3DAA" overflow="visible"><path d="M 0 0m 2.7835 0.456c 0.057 -0.2945 0.1615 -0.551 0.6365 -0.551c 0.361 0 0.703 0.1615 0.9025 0.3515c -0.019 0.114 -0.057 0.1995 -0.1615 0.2565c -0.0665 -0.057 -0.228 -0.152 -0.3515 -0.152c -0.2755 0 -0.285 0.3705 -0.285 0.8075v 1.3965c 0 1.349 -0.741 1.6055 -1.4345 1.6055c -0.779 0 -1.5675 -0.513 -1.5675 -1.0545c 0 -0.228 0.114 -0.342 0.3325 -0.342c 0.2755 0 0.4465 0.1995 0.4465 0.323c 0 0.0665 -0.0095 0.133 -0.0285 0.171c -0.0095 0.0285 -0.019 0.0855 -0.019 0.19c 0 0.2945 0.399 0.399 0.76 0.399c 0.323 0 0.7695 -0.1615 0.7695 -1.235c 0 -0.0665 -0.0285 -0.1045 -0.057 -0.114l -0.817 -0.1995c -0.912 -0.228 -1.5675 -0.7315 -1.5675 -1.3775c 0 -0.779 0.532 -1.026 1.197 -1.026c 0.3325 0 0.6175 0.076 1.0355 0.399l 0.19 0.152Z m 0 1.7575v -1.254c 0 -0.1235 -0.057 -0.19 -0.133 -0.247c -0.247 -0.1995 -0.57 -0.418 -0.836 -0.418c -0.475 0 -0.684 0.38 -0.684 0.6745c 0 0.4275 0.1995 0.8645 0.9025 1.045Z "/></symbol><symbol id="gD223D6497379E9976FC7F5DC3352CD9F" overflow="visible"><path d="M 0 0m 2.448 1.037v 2.9495c 0 0.51 0.0085 1.0285 0.0255 1.139c 0 0.0425 -0.017 0.0425 -0.051 0.0425c -0.4675 -0.289 -0.918 -0.5015 -1.666 -0.85c 0.017 -0.0935 0.051 -0.1785 0.1275 -0.2295c 0.391 0.1615 0.578 0.2125 0.7395 0.2125c 0.1445 0 0.17 -0.204 0.17 -0.493v -2.771c 0 -0.7055 -0.2295 -0.748 -0.8245 -0.7735c -0.051 -0.051 -0.051 -0.2295 0 -0.2805c 0.4165 0.0085 0.7225 0.017 1.1815 0.017c 0.408 0 0.612 -0.0085 1.037 -0.017c 0.051 0.051 0.051 0.2295 0 0.2805c -0.595 0.0255 -0.7395 0.068 -0.7395 0.7735Z "/></symbol><symbol id="g6B6515263C8491F6898E68FFAE1136A4" overflow="visible"><path d="M 0 0m 2.7115 1.6065c 0 -0.8075 -0.425 -1.4025 -0.935 -1.4025c -0.323 0 -0.4335 0.2125 -0.561 0.3825c -0.1105 0.1445 -0.255 0.272 -0.4335 0.272c -0.1615 0 -0.323 -0.1445 -0.323 -0.3145c 0 -0.3485 0.7225 -0.6375 1.207 -0.6375c 1.054 0 1.802 0.782 1.802 1.853c 0 0.8245 -0.5695 1.564 -1.5215 1.564c -0.3655 0 -0.68 -0.0765 -0.833 -0.136l 0.17 1.4195c 0.3145 -0.034 0.5865 -0.0765 0.9945 -0.0765c 0.255 0 0.544 0.017 0.8925 0.051l 0.136 0.578l -0.0595 0.034c -0.4845 -0.051 -0.9435 -0.0935 -1.394 -0.0935c -0.3145 0 -0.6205 0.017 -0.918 0.0425l -0.289 -2.448c 0.4505 0.17 0.7735 0.204 1.0795 0.204c 0.5525 0 0.986 -0.3655 0.986 -1.292Z "/></symbol><symbol id="gF989C3096186E26723BBEA141A8C649D" overflow="visible"><path d="M 0 0m 1.224 2.9155c 0.2295 0.7735 0.7735 1.632 1.904 2.057c 0 0.102 -0.034 0.1785 -0.102 0.221c -0.8585 -0.255 -1.3855 -0.612 -1.8615 -1.1645c -0.527 -0.612 -0.7905 -1.3855 -0.7905 -2.057c 0 -1.7255 0.9775 -2.0655 1.632 -2.0655c 1.1135 0 1.5725 1.0795 1.5725 1.8105c 0 0.731 -0.391 1.3855 -1.547 1.3855c -0.221 0 -0.5525 -0.068 -0.8075 -0.187Z m -0.0765 -0.306c 0.2805 0.187 0.561 0.1955 0.7055 0.1955c 0.833 0 1.02 -0.816 1.02 -1.241c 0 -0.935 -0.357 -1.36 -0.7735 -1.36c -0.5355 0 -1.02 0.289 -1.02 1.7425c 0 0.1955 0.017 0.4165 0.068 0.663Z "/></symbol><symbol id="gEF309F12F30096DE5290FA7176BEA650" overflow="visible"><path d="M 0 0m 1.406 6.1275c -0.342 0 -0.855 0.0095 -1.2255 0.019c -0.057 -0.057 -0.057 -0.2565 0 -0.3135c 0.665 -0.0285 0.8265 -0.076 0.8265 -0.8645v -3.8095c 0 -0.7885 -0.1615 -0.836 -0.8265 -0.8645c -0.057 -0.057 -0.057 -0.2565 0 -0.3135c 0.3705 0.0095 0.8835 0.019 1.235 0.019c 0.342 0 0.589 -0.019 1.387 -0.019c 1.8905 0 2.394 0.95 2.394 1.767c 0 0.912 -0.6365 1.4345 -1.463 1.672v 0.019c 0.475 0.2375 0.9025 0.7315 0.9025 1.2445c 0 0.6365 -0.2755 1.463 -2.0425 1.463c -0.3325 0 -0.8455 -0.019 -1.1875 -0.019Z m 0.4085 -2.9735h 0.6555c 1.3015 0 1.843 -0.7315 1.843 -1.5865c 0 -0.6935 -0.266 -1.273 -1.71 -1.273c -0.665 0 -0.7885 0.247 -0.7885 0.8265Z m 0 2.071c 0 0.5035 0 0.5985 0.8265 0.5985c 0.532 0 1.2255 -0.285 1.2255 -1.254c 0 -0.8075 -0.5605 -1.0925 -1.349 -1.0925h -0.703Z "/></symbol><symbol id="gD243A48DAC45EEC7C88A2988B14DD756" overflow="visible"><path d="M 0 0m 1.387 4.0755c -0.4085 0 -0.741 0.0095 -1.0545 0.019c -0.057 -0.057 -0.057 -0.2565 0 -0.3135c 0.5795 -0.038 0.684 -0.076 0.684 -0.8645v -1.7575c 0 -0.7885 -0.1045 -0.817 -0.684 -0.8645c -0.057 -0.057 -0.057 -0.2565 0 -0.3135c 0.3135 0.0095 0.646 0.019 1.064 0.019c 0.3515 0 0.665 -0.019 1.3015 -0.019c 0.817 0 1.4345 0.228 1.4345 1.1685c 0 0.532 -0.3325 0.9025 -0.912 1.007v 0.0285c 0.437 0.0855 0.7695 0.3895 0.7695 0.9595c 0 0.665 -0.4085 0.95 -1.558 0.95c -0.3895 0 -0.6365 -0.019 -1.045 -0.019Z m 0.38 -2.014h 0.722c 0.5795 0 0.8265 -0.38 0.8265 -0.95c 0 -0.6365 -0.361 -0.817 -0.874 -0.817c -0.494 0 -0.6745 0.0855 -0.6745 0.5225Z m 0 0.2755v 1.102c 0 0.285 0.2185 0.342 0.6745 0.342c 0.494 0 0.7885 -0.133 0.7885 -0.703c 0 -0.38 -0.247 -0.741 -0.836 -0.741Z "/></symbol><symbol id="g111F480562FE960BC5F50C637F145B12" overflow="visible"><path d="M 0 0m 4.5505 2.9165c 0 0.7885 0.1045 0.817 0.684 0.8645c 0.057 0.057 0.057 0.2565 0 0.3135c -0.3325 -0.019 -0.7505 -0.019 -1.064 -0.019c -0.266 0 -0.646 0.0095 -1.0165 0.019c -0.057 -0.057 -0.057 -0.2565 0 -0.3135c 0.5795 -0.038 0.646 -0.076 0.646 -0.8645v -0.6175h -2.033v 0.6175c 0 0.7885 0.0665 0.817 0.646 0.8645c 0.057 0.057 0.057 0.2565 0 0.3135c -0.361 -0.0095 -0.722 -0.019 -1.026 -0.019c -0.285 0 -0.6745 0.0095 -1.0545 0.019c -0.057 -0.057 -0.057 -0.2565 0 -0.3135c 0.5795 -0.038 0.684 -0.076 0.684 -0.8645v -1.7575c 0 -0.7885 -0.1045 -0.817 -0.684 -0.8645c -0.057 -0.057 -0.057 -0.2565 0 -0.3135c 0.38 0.0095 0.76 0.019 1.064 0.019c 0.304 0 0.6745 -0.0095 1.0165 -0.019c 0.057 0.057 0.057 0.2565 0 0.3135c -0.5795 0.038 -0.646 0.076 -0.646 0.8645v 0.8265h 2.033v -0.8265c 0 -0.7885 -0.0665 -0.817 -0.646 -0.8645c -0.057 -0.057 -0.057 -0.2565 0 -0.3135c 0.342 0.0095 0.6935 0.019 1.026 0.019c 0.285 0 0.684 -0.0095 1.0545 -0.019c 0.057 0.057 0.057 0.2565 0 0.3135c -0.5795 0.038 -0.684 0.076 -0.684 0.8645Z "/></symbol><symbol id="gDBB5E8F5FC9EB2F5349B9D49D6966C24" overflow="visible"><path d="M 0 0m 3.667 0c 0 0 0.741 -0.0095 0.931 -0.019c 0.057 0.057 0.057 0.2565 0 0.3135c -0.3705 0.019 -0.4465 0.095 -0.608 0.399l -0.4275 0.8075c -0.2375 0.4465 -0.57 0.6745 -1.1115 0.6745v 0.0285c 0.3705 0.1045 0.532 0.437 0.6745 0.817c 0.114 0.2945 0.228 0.475 0.4275 0.475c 0.0855 0 0.1615 -0.0285 0.2185 -0.0665c 0.057 -0.038 0.1615 -0.0665 0.285 -0.0665c 0.209 0 0.38 0.1805 0.38 0.3705c 0 0.209 -0.228 0.4275 -0.5415 0.4275c -0.551 0 -0.8075 -0.513 -0.988 -0.9595c -0.209 -0.5225 -0.4655 -0.8835 -1.14 -0.8835v 0.5985c 0 0.7885 0.1045 0.817 0.589 0.8645c 0.057 0.057 0.057 0.2565 0 0.3135c -0.228 -0.0095 -0.589 -0.019 -0.969 -0.019c -0.4085 0 -0.741 0.0095 -1.0545 0.019c -0.057 -0.057 -0.057 -0.2565 0 -0.3135c 0.5795 -0.038 0.684 -0.076 0.684 -0.8645v -1.7575c 0 -0.7885 -0.1045 -0.817 -0.684 -0.8645c -0.057 -0.057 -0.057 -0.2565 0 -0.3135c 0.3135 0.0095 0.646 0.019 1.064 0.019c 0.3705 0 0.7505 -0.0095 0.9595 -0.019c 0.057 0.057 0.057 0.2565 0 0.3135c -0.4845 0.038 -0.589 0.076 -0.589 0.8645v 0.8265c 0.646 -0.038 0.817 -0.2945 0.988 -0.646l 0.4085 -0.855c 0.1235 -0.2565 0.3135 -0.475 0.5035 -0.4845Z "/></symbol><symbol id="g5AAEF493CBDA45024F82AC9E8378049F" overflow="visible"><path d="M 0 0m 1.083 0c 0.266 0.0095 0.361 0.2565 0.475 0.5985c 0.247 0.7505 0.5225 1.216 0.9975 1.216h 0.247v -0.6555c 0 -0.7885 -0.1045 -0.817 -0.684 -0.8645c -0.057 -0.057 -0.057 -0.2565 0 -0.3135c 0.3135 0.0095 0.646 0.019 1.064 0.019c 0.4085 0 0.7505 -0.0095 1.0545 -0.019c 0.057 0.057 0.057 0.2565 0 0.3135c -0.5795 0.038 -0.684 0.076 -0.684 0.8645v 1.7575c 0 0.7885 0.1045 0.817 0.684 0.8645c 0.057 0.057 0.057 0.2565 0 0.3135c -0.323 -0.0095 -0.646 -0.019 -1.064 -0.019c -0.323 0 -0.5985 0.019 -0.836 0.019c -1.6625 0 -1.805 -0.684 -1.805 -1.197c 0 -0.6175 0.475 -0.931 1.178 -0.9595c 0.0285 0 0.0285 -0.0285 0.019 -0.038c -0.361 -0.1045 -0.5225 -0.304 -0.684 -0.6555c -0.1045 -0.2185 -0.19 -0.4275 -0.2375 -0.551c -0.1235 -0.323 -0.285 -0.38 -0.6555 -0.399c -0.057 -0.057 -0.057 -0.2565 0 -0.3135c 0.19 0.0095 0.931 0.019 0.931 0.019Z m 0.266 3.0495c 0 0.4465 0.1425 0.7315 0.912 0.7315c 0.3895 0 0.5415 -0.171 0.5415 -0.532v -1.1115h -0.665c -0.57 0 -0.7885 0.437 -0.7885 0.912Z "/></symbol><symbol id="gD7F3603AE07CA6EC40268D26CF17A17B" overflow="visible"><path d="M 0 0m 3.655 1.8615h -0.7055v 2.482c 0 0.425 0 0.7565 0.017 0.8245l -0.017 0.017h -0.272c -0.0595 0 -0.102 -0.051 -0.136 -0.0935c -0.5355 -0.6545 -1.5215 -2.057 -2.3035 -3.2725c 0.0255 -0.1275 0.0765 -0.357 0.3315 -0.357h 1.734v -0.782c 0 -0.391 -0.323 -0.391 -0.6885 -0.4165c -0.051 -0.051 -0.051 -0.2295 0 -0.2805c 0.272 0.0085 0.612 0.017 1.003 0.017c 0.3315 0 0.6545 -0.0085 0.9265 -0.017c 0.051 0.051 0.051 0.2295 0 0.2805c -0.4165 0.034 -0.595 0.017 -0.595 0.4165v 0.782h 0.5865c 0.119 0 0.2465 0.1615 0.2465 0.2635c 0 0.085 -0.034 0.136 -0.1275 0.136Z m -1.3515 2.448v -2.448h -1.6235c 0.4335 0.697 1.037 1.649 1.6235 2.448Z "/></symbol><symbol id="g1025CE8674AB1344572BC90E67D4CE52" overflow="visible"><path d="M 0 0m 3.3405 4.1225c 0 0.612 -0.476 1.0625 -1.309 1.0625c -0.867 0 -1.428 -0.5185 -1.428 -1.173c 0 -0.476 0.2295 -0.8245 0.748 -1.1475l 0.221 -0.136c -0.2465 -0.1275 -0.476 -0.2805 -0.6885 -0.4675c -0.3485 -0.306 -0.493 -0.6885 -0.493 -1.02c 0 -0.867 0.612 -1.326 1.513 -1.326c 1.1135 0 1.6575 0.816 1.6575 1.462c 0 0.493 -0.2125 0.9265 -0.663 1.1985l -0.6035 0.3655c 0.3995 0.1955 1.0455 0.6375 1.0455 1.1815Z m -1.4195 -3.91c -0.3825 0 -0.9605 0.2635 -0.9605 1.0285c 0 0.255 0.1105 0.85 0.8415 1.3345l 0.3995 -0.238c 0.527 -0.323 0.7395 -0.7225 0.7395 -1.1305c 0 -0.85 -0.6375 -0.9945 -1.02 -0.9945Z m 0.068 4.675c 0.5525 0 0.7565 -0.3655 0.7565 -0.7565c 0 -0.459 -0.4505 -0.8415 -0.68 -1.0115l -0.2635 0.1615c -0.5355 0.3485 -0.595 0.629 -0.595 0.8925c 0 0.391 0.272 0.714 0.782 0.714Z "/></symbol><symbol id="g23869749828957FA40F6BA2ECBEE0846" overflow="visible"><path d="M 0 0m 2.1375 0.3705c -0.3515 0 -0.4085 0.1045 -0.4085 0.4845v 2.0615c 0 0.779 0.095 0.8265 0.589 0.8645c 0.0475 0.057 0.0475 0.2565 0 0.3135c -0.2375 -0.0095 -0.589 -0.019 -0.969 -0.019c -0.38 0 -0.7125 0.0095 -0.9785 0.019c -0.0475 -0.057 -0.0475 -0.2565 0 -0.3135c 0.5225 -0.038 0.608 -0.0855 0.608 -0.8645v -1.7575c 0 -0.779 -0.1235 -0.8265 -0.646 -0.8645c -0.057 -0.057 -0.057 -0.2565 0 -0.3135c 0.285 0.0095 0.646 0.019 1.026 0.019h 2.394c 0.798 0 1.0735 -0.76 1.197 -1.2255c 0.0855 -0.019 0.171 -0.019 0.247 0.0095l -0.057 1.2635c -0.0095 0.171 -0.152 0.2185 -0.285 0.247c -0.2185 0.0475 -0.3705 0.1045 -0.3705 0.8645v 1.7575c 0 0.779 0.1235 0.8265 0.646 0.8645c 0.057 0.057 0.057 0.2565 0 0.3135c -0.285 -0.0095 -0.646 -0.019 -1.026 -0.019c -0.38 0 -0.665 0.0095 -0.95 0.019c -0.057 -0.057 -0.057 -0.2565 0 -0.3135c 0.4845 -0.0475 0.5795 -0.0855 0.5795 -0.8645v -2.0615c 0 -0.2945 -0.0285 -0.4845 -0.399 -0.4845Z "/></symbol><symbol id="g4F6C4B764A667C0D20F43C1E2952DF77" overflow="visible"><path d="M 0 0m 1.767 2.907c 0 0.798 0.1045 0.8265 0.684 0.874c 0.057 0.057 0.057 0.2565 0 0.3135c -0.323 -0.0095 -0.646 -0.019 -1.064 -0.019c -0.4085 0 -0.741 0.0095 -1.0545 0.019c -0.057 -0.057 -0.057 -0.2565 0 -0.3135c 0.5795 -0.038 0.684 -0.076 0.684 -0.8645v -1.7575c 0 -0.7885 -0.1045 -0.817 -0.684 -0.8645c -0.057 -0.057 -0.057 -0.2565 0 -0.3135c 0.3135 0.0095 0.646 0.019 1.064 0.019c 0.3895 0 0.5985 -0.019 0.988 -0.019c 1.1685 0 1.805 0.2945 1.805 1.311c 0 0.893 -0.779 1.1495 -1.7385 1.1495h -0.684Z m 1.6055 -1.71c 0 -0.779 -0.475 -0.9025 -0.9785 -0.9025c -0.4655 0 -0.627 0.095 -0.627 0.4275v 1.406h 0.6745c 0.7125 0 0.931 -0.4275 0.931 -0.931Z "/></symbol><symbol id="gDE2A50121CA4B7FACE68098E70425CEC" overflow="visible"><path d="M 0 0m 1.445 4.5475h 1.5215c -0.663 -1.649 -1.3345 -3.3065 -1.9125 -4.5985l 0.068 -0.0595l 0.578 0.0255c 0.4845 1.445 0.952 2.856 1.904 5.1765l -0.136 0.102c -0.1445 -0.0425 -0.3315 -0.0935 -0.6545 -0.0935h -1.751c -0.289 0 -0.272 0.085 -0.425 0.119c -0.0255 0 -0.034 0 -0.034 -0.0255c -0.0085 -0.408 -0.102 -0.918 -0.17 -1.36c 0.0935 -0.0255 0.1785 -0.034 0.272 -0.0255c 0.187 0.68 0.4675 0.7395 0.7395 0.7395Z "/></symbol><symbol id="g34E634B8D08F8B91F4ACC67018EAE93C" overflow="visible"><path d="M 0 0m 0.5185 3.978c 0 -0.1785 0.1615 -0.3315 0.34 -0.3315c 0.1445 0 0.3995 0.153 0.3995 0.34c 0 0.068 -0.017 0.119 -0.034 0.1785c -0.017 0.0595 -0.068 0.136 -0.068 0.204c 0 0.2125 0.221 0.5185 0.8415 0.5185c 0.306 0 0.7395 -0.2125 0.7395 -1.0285c 0 -0.544 -0.1955 -0.986 -0.697 -1.496l -0.629 -0.6205c -0.833 -0.85 -0.969 -1.258 -0.969 -1.7595c 0 0 0.4335 0.017 0.7055 0.017h 1.4875c 0.272 0 0.663 -0.017 0.663 -0.017c 0.1105 0.4505 0.1955 1.088 0.204 1.343c -0.051 0.0425 -0.1615 0.0595 -0.2465 0.0425c -0.1445 -0.6035 -0.289 -0.816 -0.595 -0.816h -1.513c 0 0.408 0.5865 0.986 0.629 1.0285l 0.8585 0.8245c 0.4845 0.4675 0.85 0.8415 0.85 1.4875c 0 0.918 -0.748 1.292 -1.4365 1.292c -0.9435 0 -1.53 -0.697 -1.53 -1.207Z "/></symbol><symbol id="g67C98D5EA1B34DF831EBA943FAA672CC" overflow="visible"><path d="M 0 0m 0.561 2.023h 3.434c 0.1105 0 0.221 0.17 0.221 0.272c 0 0.0765 -0.0255 0.1445 -0.119 0.1445h -3.434c -0.102 0 -0.221 -0.17 -0.221 -0.272c 0 -0.068 0.0255 -0.1445 0.119 -0.1445Z "/></symbol><symbol id="g2A9125C850EDBFED6BF10AF5B3F60660" overflow="visible"><path d="M 0 0m 2.7795 2.176c -0.2295 -0.7735 -0.7735 -1.632 -1.904 -2.057c 0 -0.102 0.034 -0.1785 0.102 -0.221c 0.8585 0.255 1.3855 0.612 1.8615 1.1645c 0.527 0.612 0.7905 1.3855 0.7905 2.057c 0 1.7255 -0.9775 2.0655 -1.632 2.0655c -1.1135 0 -1.5725 -1.0795 -1.5725 -1.8105c 0 -0.731 0.391 -1.3855 1.547 -1.3855c 0.221 0 0.5525 0.068 0.8075 0.187Z m 0.0765 0.306c -0.2805 -0.187 -0.561 -0.1955 -0.7055 -0.1955c -0.833 0 -1.02 0.816 -1.02 1.241c 0 0.935 0.357 1.36 0.7735 1.36c 0.5355 0 1.02 -0.289 1.02 -1.7425c 0 -0.187 -0.017 -0.4165 -0.068 -0.663Z "/></symbol><symbol id="g75E31E9387E94E3A457DA9304838F591" overflow="visible"><path d="M 0 0m 4.1515 4.0755h -2.698c -0.38 0 -0.741 0.0095 -1.026 0.019c -0.057 -0.057 -0.057 -0.2565 0 -0.3135c 0.5225 -0.038 0.646 -0.0855 0.646 -0.8645v -1.7575c 0 -0.779 -0.1235 -0.8265 -0.741 -0.8645c -0.057 -0.057 -0.057 -0.2565 0 -0.3135c 0.285 0.0095 0.741 0.019 1.121 0.019c 0.38 0 0.665 -0.0095 0.95 -0.019c 0.057 0.057 0.057 0.2565 0 0.3135c -0.4845 0.0475 -0.5795 0.0855 -0.5795 0.8645v 2.0615c 0 0.2945 0.0285 0.4845 0.399 0.4845h 1.1495c 0.3515 0 0.4085 -0.1045 0.4085 -0.4845v -2.0615c 0 -0.779 -0.095 -0.8265 -0.589 -0.8645c -0.0475 -0.057 -0.0475 -0.2565 0 -0.3135c 0.2375 0.0095 0.589 0.019 0.969 0.019c 0.38 0 0.8075 -0.0095 1.0735 -0.019c 0.0475 0.057 0.0475 0.2565 0 0.3135c -0.6175 0.038 -0.703 0.0855 -0.703 0.8645v 1.7575c 0 0.779 0.1235 0.8265 0.646 0.8645c 0.057 0.057 0.057 0.2565 0 0.3135c -0.285 -0.0095 -0.646 -0.019 -1.026 -0.019Z "/></symbol><symbol id="gE3D46A95002377B54E13EEB95624C7DA" overflow="visible"><path d="M 0 0m 1.938 -1.52c 0.152 0.266 0.2755 0.532 0.3895 0.817c 0.76 1.8335 1.1875 2.812 1.6815 3.876c 0.19 0.399 0.323 0.551 0.7695 0.608c 0.057 0.057 0.057 0.2565 0 0.3135c -0.19 -0.0095 -0.4085 -0.019 -0.6745 -0.019c -0.285 0 -0.5795 0.0095 -0.8645 0.019c -0.057 -0.057 -0.057 -0.2565 0 -0.3135c 0.304 -0.0285 0.608 -0.0855 0.456 -0.4275l -0.9405 -2.1755c -0.0665 -0.152 -0.152 -0.1805 -0.228 0.0095l -0.8455 1.976c -0.171 0.399 -0.2185 0.5795 0.3135 0.6175c 0.057 0.057 0.057 0.2565 0 0.3135c -0.3515 -0.0095 -0.7315 -0.019 -1.0735 -0.019c -0.323 0 -0.5795 0.0095 -0.7695 0.019c -0.057 -0.057 -0.057 -0.2565 0 -0.3135c 0.38 -0.0475 0.5035 -0.133 0.7505 -0.7125l 1.0735 -2.4985c 0.0855 -0.19 0.228 -0.627 0.133 -0.893c -0.114 -0.3135 -0.228 -0.5795 -0.3705 -0.874c -0.1045 -0.19 -0.2375 -0.2755 -0.475 -0.2755c -0.133 0 -0.171 0.0285 -0.2755 0.0285c -0.2755 0 -0.418 -0.285 -0.418 -0.4085c 0 -0.1995 0.19 -0.3515 0.4465 -0.3515c 0.1995 0 0.5795 0.076 0.9215 0.684Z "/></symbol><symbol id="gC2CBF98E7E07B945C6FA500EA68B32AD" overflow="visible"><path d="M 0 0m 1.1115 2.907l -0.057 -1.767c -0.0285 -0.798 -0.171 -0.817 -0.722 -0.8455c -0.057 -0.057 -0.057 -0.2565 0 -0.3135c 0.19 0.0095 0.665 0.019 0.817 0.019c 0.19 0 0.6365 -0.0095 0.8265 -0.019c 0.057 0.057 0.057 0.2565 0 0.3135c -0.5415 0.038 -0.5795 0.133 -0.5605 0.8455l 0.0665 2.3275c 0 0.0855 0.038 0.0855 0.076 0l 1.3775 -3.363c 0.038 -0.0285 0.076 -0.0285 0.1045 0l 1.558 3.3535c 0.0475 0.1045 0.095 0.114 0.095 0l -0.0095 -2.299c 0 -0.7885 -0.0665 -0.817 -0.646 -0.8645c -0.057 -0.057 -0.057 -0.2565 0 -0.3135c 0.342 0.0095 0.6935 0.019 1.026 0.019c 0.285 0 0.6935 -0.0095 1.064 -0.019c 0.057 0.057 0.057 0.2565 0 0.3135c -0.5795 0.038 -0.684 0.076 -0.684 0.8645l -0.019 1.7575c -0.0095 0.7885 0.1045 0.817 0.684 0.8645c 0.057 0.057 0.057 0.2565 0 0.3135c -0.3325 -0.019 -1.254 -0.019 -1.5675 -0.019l -1.2635 -2.717l -0.0475 -0.095l -0.038 0.095l -1.1115 2.717c -0.3135 0 -1.3205 0 -1.653 0.019c -0.057 -0.057 -0.057 -0.2565 0 -0.3135c 0.5795 -0.0475 0.7125 -0.0855 0.684 -0.874Z "/></symbol><symbol id="gF1C320A4506B818F6BCB8CDA11A2DE6" overflow="visible"><path d="M 0 0m 1.729 1.159c 0 -0.7885 -0.1045 -0.836 -0.684 -0.8645c -0.057 -0.057 -0.057 -0.2565 0 -0.3135c 0.3705 0.0095 0.7505 0.019 1.064 0.019c 0.323 0 0.6935 -0.0095 1.0545 -0.019c 0.057 0.057 0.057 0.2565 0 0.3135c -0.5795 0.0285 -0.684 0.076 -0.684 0.8645v 2.565h 0.1615c 0.7695 0 0.9215 -0.266 1.083 -1.0355c 0.1235 0 0.247 0.038 0.247 0.038c -0.057 0.437 -0.095 0.855 -0.1045 1.406c -0.2185 -0.019 -0.931 -0.057 -1.406 -0.057h -0.7125c -0.475 0 -1.007 0.0285 -1.387 0.057c -0.0095 -0.551 -0.0475 -0.969 -0.114 -1.406c 0 0 0.133 -0.038 0.2565 -0.038c 0.1615 0.7695 0.304 1.0355 1.083 1.0355h 0.1425Z "/></symbol><symbol id="g15DE86D891118100C568580819B789B3" overflow="visible"><path d="M 0 0m 1.767 2.907c 0 0.798 0.1045 0.8265 0.684 0.874c 0.057 0.057 0.057 0.2565 0 0.3135c -0.323 -0.0095 -0.646 -0.019 -1.064 -0.019c -0.4085 0 -0.741 0.0095 -1.0545 0.019c -0.057 -0.057 -0.057 -0.2565 0 -0.3135c 0.5795 -0.038 0.684 -0.076 0.684 -0.8645v -1.7575c 0 -0.7885 -0.1045 -0.817 -0.684 -0.8645c -0.057 -0.057 -0.057 -0.2565 0 -0.3135c 0.3135 0.0095 0.646 0.019 1.064 0.019c 0.3895 0 0.5985 -0.019 0.988 -0.019c 1.1685 0 1.805 0.2945 1.805 1.311c 0 0.893 -0.779 1.1495 -1.7385 1.1495h -0.684Z m 4.0945 0.0095c 0 0.7885 0.1045 0.817 0.684 0.8645c 0.057 0.057 0.057 0.2565 0 0.3135c -0.323 -0.0095 -0.646 -0.019 -1.064 -0.019c -0.4085 0 -0.741 0.0095 -1.0545 0.019c -0.057 -0.057 -0.057 -0.2565 0 -0.3135c 0.5795 -0.038 0.684 -0.076 0.684 -0.8645v -1.7575c 0 -0.7885 -0.1045 -0.817 -0.684 -0.8645c -0.057 -0.057 -0.057 -0.2565 0 -0.3135c 0.3135 0.0095 0.646 0.019 1.064 0.019c 0.4085 0 0.7505 -0.0095 1.0545 -0.019c 0.057 0.057 0.057 0.2565 0 0.3135c -0.5795 0.038 -0.684 0.076 -0.684 0.8645Z m -2.489 -1.7195c 0 -0.779 -0.475 -0.9025 -0.9785 -0.9025c -0.4655 0 -0.627 0.095 -0.627 0.4275v 1.406h 0.6745c 0.7125 0 0.931 -0.4275 0.931 -0.931Z "/></symbol><symbol id="g5A2E3E8C6E57858B2C4B02FBB21BEB4E" overflow="visible"><path d="M 0 0m 1.729 3.401c -0.2185 0.323 -0.152 0.3325 0.2755 0.38c 0.057 0.057 0.057 0.2565 0 0.3135c -0.2565 -0.0095 -0.6745 -0.019 -0.9595 -0.019c -0.285 0 -0.57 0.0095 -0.817 0.019c -0.057 -0.057 -0.057 -0.2565 0 -0.3135c 0.323 -0.0285 0.589 -0.19 0.855 -0.5795l 0.8265 -1.2065c 0.0475 -0.0665 0.0475 -0.095 0.0095 -0.1425l -0.798 -1.026c -0.38 -0.4845 -0.589 -0.513 -0.9215 -0.532c -0.057 -0.057 -0.057 -0.2565 0 -0.3135c 0.19 0.0095 0.399 0.019 0.684 0.019c 0.285 0 0.551 -0.0095 0.798 -0.019c 0.057 0.057 0.057 0.2565 0 0.3135c -0.342 0.038 -0.418 0.076 -0.209 0.38l 0.5985 0.8645c 0.076 0.114 0.114 0.1045 0.171 0.019l 0.551 -0.76c 0.3325 -0.456 0.1805 -0.475 -0.1235 -0.5035c -0.057 -0.057 -0.057 -0.2565 0 -0.3135c 0.285 0.0095 0.5985 0.019 0.9405 0.019c 0.361 0 0.6175 -0.0095 0.8455 -0.019c 0.057 0.057 0.057 0.2565 0 0.3135c -0.4275 0.0285 -0.57 0.057 -0.95 0.5985l -0.855 1.2065c -0.038 0.057 -0.0475 0.0855 0 0.1425l 0.798 1.0165c 0.3515 0.4465 0.5795 0.494 0.9215 0.5225c 0.057 0.057 0.057 0.2565 0 0.3135c -0.19 -0.0095 -0.4085 -0.019 -0.6935 -0.019c -0.285 0 -0.551 0.0095 -0.798 0.019c -0.057 -0.057 -0.057 -0.2565 0 -0.3135c 0.3515 -0.038 0.456 -0.0665 0.228 -0.3895l -0.6175 -0.8645c -0.0665 -0.095 -0.1045 -0.0855 -0.1805 0.019Z "/></symbol><symbol id="g430571653545A60A3EF6386D136EADA3" overflow="visible"><path d="M 0 0m 1.326 3.128c -0.0085 0.255 -0.0255 0.476 -0.068 0.561c -0.017 0.0425 -0.034 0.068 -0.102 0.068c -0.238 -0.0935 -0.459 -0.17 -1.0455 -0.2465c -0.017 -0.051 0 -0.187 0.017 -0.238c 0.459 -0.0425 0.5525 -0.085 0.5525 -0.578v -3.6295c 0 -0.7055 -0.0935 -0.748 -0.612 -0.7735c -0.051 -0.051 -0.051 -0.2295 0 -0.2805c 0.2975 0.0085 0.612 0.017 0.952 0.017c 0.34 0 0.748 -0.0085 1.0285 -0.017c 0.051 0.051 0.051 0.2295 0 0.2805c -0.6035 0.034 -0.697 0.068 -0.697 0.7735v 0.918c 0 0.1105 0.034 0.102 0.119 0.068c 0.2125 -0.085 0.4675 -0.136 0.7395 -0.136c 0.476 0 0.901 0.1445 1.2495 0.476c 0.3995 0.391 0.629 0.918 0.629 1.6065c 0 0.901 -0.6375 1.734 -1.5045 1.734c -0.391 0 -0.8245 -0.255 -1.1645 -0.6375c -0.051 -0.051 -0.085 -0.051 -0.0935 0.034Z m 0.1615 -0.3145c 0.221 0.272 0.612 0.527 0.8585 0.527c 0.544 0 1.0115 -0.612 1.0115 -1.5725c 0 -0.697 -0.2465 -1.564 -1.1985 -1.564c -0.153 0 -0.4505 0.0425 -0.6035 0.1785c -0.17 0.153 -0.204 0.204 -0.204 0.51v 1.547c 0 0.1785 0.034 0.255 0.136 0.374Z "/></symbol></defs></svg>