<svg viewBox="0 0 380.425464567 210.064782016" width="380.425464567pt" height="210.064782016pt" xmlns="http://www.w3.org/2000/svg" xmlns:xlink="http://www.w3.org/1999/xlink" xmlns:h5="http://www.w3.org/1999/xhtml"><path fill="#ffffff" fill-rule="nonzero" d="M 0 0v 210.064782016h 380.425464567v -210.064782016Z "/><g transform="translate(8 8)"><path fill="none" stroke="#c3beb4" stroke-width="0.4" stroke-linecap="butt" stroke-linejoin="miter" stroke-miterlimit="4" transform="translate(108.119566929 12.464427685)" d="M 0 0m 0 147.401574803v -147.401574803"/><path fill="none" stroke="#c3beb4" stroke-width="0.4" stroke-linecap="butt" stroke-linejoin="miter" stroke-miterlimit="4" transform="translate(167.647125984 12.464427685)" d="M 0 0m 0 147.401574803v -147.401574803"/><path fill="none" stroke="#c3beb4" stroke-width="0.4" stroke-linecap="butt" stroke-linejoin="miter" stroke-miterlimit="4" transform="translate(227.174685039 12.464427685)" d="M 0 0m 0 147.401574803v -147.401574803"/><path fill="none" stroke="#c3beb4" stroke-width="0.4" stroke-linecap="butt" stroke-linejoin="miter" stroke-miterlimit="4" transform="translate(286.702244094 12.464427685)" d="M 0 0m 0 147.401574803v -147.401574803"/><path fill="none" stroke="#c3beb4" stroke-width="0.4" stroke-linecap="butt" stroke-linejoin="miter" stroke-miterlimit="4" transform="translate(48.592007874 123.015608787)" d="M 0 0h 238.11023622"/><path fill="none" stroke="#c3beb4" stroke-width="0.4" stroke-linecap="butt" stroke-linejoin="miter" stroke-miterlimit="4" transform="translate(48.592007874 86.165215087)" d="M 0 0h 238.11023622"/><path fill="none" stroke="#c3beb4" stroke-width="0.4" stroke-linecap="butt" stroke-linejoin="miter" stroke-miterlimit="4" transform="translate(48.592007874 49.314821386)" d="M 0 0h 238.11023622"/><path fill="none" stroke="#c3beb4" stroke-width="0.4" stroke-linecap="butt" stroke-linejoin="miter" stroke-miterlimit="4" transform="translate(48.592007874 12.464427685)" d="M 0 0h 238.11023622"/><path fill="none" stroke="#1a1a18" stroke-width="1.2" stroke-linecap="butt" stroke-linejoin="miter" stroke-miterlimit="4" transform="translate(48.592007874 159.866002488)" d="M 0 0h 247.456553582"/><path fill="#1a1a18" fill-rule="nonzero" stroke="#1a1a18" stroke-width="1.2" stroke-linecap="butt" stroke-linejoin="miter" stroke-miterlimit="4" transform="translate(296.048561543 158.69671115)" d="M 0 0m 3.118110236 1.169291339l -3.118110236 1.169291339v -2.338582677l 3.118110236 1.169291339Z "/><path fill="none" stroke="#1a1a18" stroke-width="1.2" stroke-linecap="butt" stroke-linejoin="miter" stroke-miterlimit="4" transform="translate(48.592007874 3.118110324)" d="M 0 0m 0 156.747892164v -156.747892164"/><path fill="#1a1a18" fill-rule="nonzero" stroke="#1a1a18" stroke-width="1.2" stroke-linecap="butt" stroke-linejoin="miter" stroke-miterlimit="4" transform="translate(47.422716535)" d="M 0 0m 1.169291339 0l 1.169291339 3.118110236h -2.338582677l 1.169291339 -3.118110236Z "/><path fill="none" stroke="#1a1a18" stroke-width="1" stroke-linecap="butt" stroke-linejoin="miter" stroke-miterlimit="4" transform="translate(48.592007874 159.866002488)" d="M 0 0v 3.968503937"/><path fill="none" transform="translate(46.499507874 168.198585165)" d="M 0 0h 4.185v 6.012h -4.185v -6.012Z "/><g transform="translate(46.499507874 168.198585165)"><g transform="matrix(1 0 0 -1 0 5.922)"><use xlink:href="#g2672FDBBE364B15F69A47DA3D826EE6F" x="0" y="0" fill="#1a1a18" fill-rule="nonzero"/></g></g><path fill="none" stroke="#1a1a18" stroke-width="1" stroke-linecap="butt" stroke-linejoin="miter" stroke-miterlimit="4" transform="translate(108.119566929 159.866002488)" d="M 0 0v 3.968503937"/><path fill="none" transform="translate(106.027066929 168.234585165)" d="M 0 0h 4.185v 5.94h -4.185v -5.94Z "/><g transform="translate(106.027066929 168.234585165)"><g transform="matrix(1 0 0 -1 0 5.922)"><use xlink:href="#gD11A58C3A3B421C2056FF05E75045811" x="0" y="0" fill="#1a1a18" fill-rule="nonzero"/></g></g><path fill="none" stroke="#1a1a18" stroke-width="1" stroke-linecap="butt" stroke-linejoin="miter" stroke-miterlimit="4" transform="translate(167.647125984 159.866002488)" d="M 0 0v 3.968503937"/><path fill="none" transform="translate(165.554625984 168.198585165)" d="M 0 0h 4.185v 6.012h -4.185v -6.012Z "/><g transform="translate(165.554625984 168.198585165)"><g transform="matrix(1 0 0 -1 0 5.922)"><use xlink:href="#g75AAF25DAC5F6DB189268F229776135" x="0" y="0" fill="#1a1a18" fill-rule="nonzero"/></g></g><path fill="none" stroke="#1a1a18" stroke-width="1" stroke-linecap="butt" stroke-linejoin="miter" stroke-miterlimit="4" transform="translate(227.174685039 159.866002488)" d="M 0 0v 3.968503937"/><path fill="none" transform="translate(222.989685039 168.234585165)" d="M 0 0h 8.37v 5.94h -8.37v -5.94Z "/><g transform="translate(222.989685039 168.234585165)"><g transform="matrix(1 0 0 -1 0 5.922)"><use xlink:href="#g1C0AA09C88C242CF299E410BACB4170A" x="0" y="0" fill="#1a1a18" fill-rule="nonzero"/><use xlink:href="#g847357BB8876AF51969CA80692415844" x="4.185" y="0" fill="#1a1a18" fill-rule="nonzero"/></g></g><path fill="none" stroke="#1a1a18" stroke-width="1" stroke-linecap="butt" stroke-linejoin="miter" stroke-miterlimit="4" transform="translate(286.702244094 159.866002488)" d="M 0 0v 3.968503937"/><path fill="none" transform="translate(282.517244094 168.194085165)" d="M 0 0h 8.37v 6.021h -8.37v -6.021Z "/><g transform="translate(282.517244094 168.194085165)"><g transform="matrix(1 0 0 -1 0 5.922)"><use xlink:href="#g1C0AA09C88C242CF299E410BACB4170A" x="0" y="0" fill="#1a1a18" fill-rule="nonzero"/><use xlink:href="#g7427B35904D8106763807ACF831A9726" x="4.185" y="0" fill="#1a1a18" fill-rule="nonzero"/></g></g><path fill="none" stroke="#1a1a18" stroke-width="1" stroke-linecap="butt" stroke-linejoin="miter" stroke-miterlimit="4" transform="translate(44.623503937 159.866002488)" d="M 0 0m 3.968503937 0h -3.968503937"/><path fill="none" transform="translate(35.903070866 156.860002488)" d="M 0 0h 4.185v 6.012h -4.185v -6.012Z "/><g transform="translate(35.903070866 156.860002488)"><g transform="matrix(1 0 0 -1 0 5.922)"><use xlink:href="#g2672FDBBE364B15F69A47DA3D826EE6F" x="0" y="0" fill="#1a1a18" fill-rule="nonzero"/></g></g><path fill="none" stroke="#1a1a18" stroke-width="1" stroke-linecap="butt" stroke-linejoin="miter" stroke-miterlimit="4" transform="translate(44.623503937 123.015608787)" d="M 0 0m 3.968503937 0h -3.968503937"/><path fill="none" transform="translate(25.553070866 119.456108787)" d="M 0 0h 14.535v 7.119h -14.535v -7.119Z "/><g transform="translate(25.553070866 119.456108787)"><g transform="matrix(1 0 0 -1 0 5.922)"><use xlink:href="#g2672FDBBE364B15F69A47DA3D826EE6F" x="0" y="0" fill="#1a1a18" fill-rule="nonzero"/><use xlink:href="#gCCF28E29FF8CFE46410F5A526209CFA4" x="4.185" y="0" fill="#1a1a18" fill-rule="nonzero"/><use xlink:href="#g847357BB8876AF51969CA80692415844" x="6.165" y="0" fill="#1a1a18" fill-rule="nonzero"/><use xlink:href="#g96351278D88006CC7926B74AF66DE974" x="10.35" y="0" fill="#1a1a18" fill-rule="nonzero"/></g></g><path fill="none" stroke="#1a1a18" stroke-width="1" stroke-linecap="butt" stroke-linejoin="miter" stroke-miterlimit="4" transform="translate(44.623503937 86.165215087)" d="M 0 0m 3.968503937 0h -3.968503937"/><path fill="none" transform="translate(25.553070866 82.605715087)" d="M 0 0h 14.535v 7.119h -14.535v -7.119Z "/><g transform="translate(25.553070866 82.605715087)"><g transform="matrix(1 0 0 -1 0 5.922)"><use xlink:href="#g2672FDBBE364B15F69A47DA3D826EE6F" x="0" y="0" fill="#1a1a18" fill-rule="nonzero"/><use xlink:href="#gCCF28E29FF8CFE46410F5A526209CFA4" x="4.185" y="0" fill="#1a1a18" fill-rule="nonzero"/><use xlink:href="#g96351278D88006CC7926B74AF66DE974" x="6.165" y="0" fill="#1a1a18" fill-rule="nonzero"/><use xlink:href="#g2672FDBBE364B15F69A47DA3D826EE6F" x="10.35" y="0" fill="#1a1a18" fill-rule="nonzero"/></g></g><path fill="none" stroke="#1a1a18" stroke-width="1" stroke-linecap="butt" stroke-linejoin="miter" stroke-miterlimit="4" transform="translate(44.623503937 49.314821386)" d="M 0 0m 3.968503937 0h -3.968503937"/><path fill="none" transform="translate(25.553070866 45.755321386)" d="M 0 0h 14.535v 7.119h -14.535v -7.119Z "/><g transform="translate(25.553070866 45.755321386)"><g transform="matrix(1 0 0 -1 0 5.922)"><use xlink:href="#g2672FDBBE364B15F69A47DA3D826EE6F" x="0" y="0" fill="#1a1a18" fill-rule="nonzero"/><use xlink:href="#gCCF28E29FF8CFE46410F5A526209CFA4" x="4.185" y="0" fill="#1a1a18" fill-rule="nonzero"/><use xlink:href="#g208428D5F859A4A1DB0C0823EAA61FB0" x="6.165" y="0" fill="#1a1a18" fill-rule="nonzero"/><use xlink:href="#g96351278D88006CC7926B74AF66DE974" x="10.35" y="0" fill="#1a1a18" fill-rule="nonzero"/></g></g><path fill="none" stroke="#1a1a18" stroke-width="1" stroke-linecap="butt" stroke-linejoin="miter" stroke-miterlimit="4" transform="translate(44.623503937 12.464427685)" d="M 0 0m 3.968503937 0h -3.968503937"/><path fill="none" transform="translate(35.903070866 9.494427685)" d="M 0 0h 4.185v 5.94h -4.185v -5.94Z "/><g transform="translate(35.903070866 9.494427685)"><g transform="matrix(1 0 0 -1 0 5.922)"><use xlink:href="#g1C0AA09C88C242CF299E410BACB4170A" x="0" y="0" fill="#1a1a18" fill-rule="nonzero"/></g></g><path fill="none" transform="translate(92.472125984 185.194782016)" d="M 0 0h 150.35v 8.87h -150.35v -8.87Z "/><g transform="translate(92.472125969 185.194782)"><g transform="matrix(1 0 0 -1 0 6.83)"><use xlink:href="#gAB8B9E265B3CCA4072A334611102AFDC" x="0" y="0" fill="#1a1a18" fill-rule="nonzero"/><use xlink:href="#gF91E605A926A6829D0875F26DD95556B" x="5.86" y="0" fill="#1a1a18" fill-rule="nonzero"/><use xlink:href="#g1E1CCF3C3F9C9FC6D96E38E66EA39633" x="10.9" y="0" fill="#1a1a18" fill-rule="nonzero"/><use xlink:href="#gF91E605A926A6829D0875F26DD95556B" x="15.92" y="0" fill="#1a1a18" fill-rule="nonzero"/><use xlink:href="#g58FE41588FF370B2D963AE7490CB53AD" x="20.96" y="0" fill="#1a1a18" fill-rule="nonzero"/><use xlink:href="#g8C4BCE4FF39E54C5E232A1A0A3B7612A" x="26.23" y="0" fill="#1a1a18" fill-rule="nonzero"/><use xlink:href="#gD51468542432F864548926048E523B26" x="30.7" y="0" fill="#1a1a18" fill-rule="nonzero"/><use xlink:href="#g3730A52707D5D005176FA819A7950DF6" x="36.56" y="0" fill="#1a1a18" fill-rule="nonzero"/><use xlink:href="#g973DF8CE92806CB27780D5D49D7C2E68" x="42.42" y="0" fill="#1a1a18" fill-rule="nonzero"/></g><g transform="matrix(1 0 0 -1 49.73 6.83)"><use xlink:href="#g2EFE33C5504D867B813D7940C7587DC4" x="0" y="0" fill="#1a1a18" fill-rule="nonzero"/></g><g transform="matrix(1 0 0 -1 55.73 6.83)"><use xlink:href="#g98BE2FE73204EAC9F74BB0877216C668" x="2.5" y="0" fill="#1a1a18" fill-rule="nonzero"/><use xlink:href="#gE2723647FFCFE887839C6909BF8FF8CF" x="5.48" y="0" fill="#1a1a18" fill-rule="nonzero"/><use xlink:href="#g7D7A5D08C55ACC07707850317A5B7900" x="9.84" y="0" fill="#1a1a18" fill-rule="nonzero"/><use xlink:href="#g9FDA399337BA5CEE43DE6885B462BE24" x="16.91" y="0" fill="#1a1a18" fill-rule="nonzero"/><use xlink:href="#g6DFAD7171EBFBAC7EAFD0C61FA59A787" x="21.56" y="0" fill="#1a1a18" fill-rule="nonzero"/><use xlink:href="#g6DFAD7171EBFBAC7EAFD0C61FA59A787" x="26.21" y="0" fill="#1a1a18" fill-rule="nonzero"/><use xlink:href="#g58FE41588FF370B2D963AE7490CB53AD" x="33.36" y="0" fill="#1a1a18" fill-rule="nonzero"/><use xlink:href="#g8C4BCE4FF39E54C5E232A1A0A3B7612A" x="38.63" y="0" fill="#1a1a18" fill-rule="nonzero"/><use xlink:href="#gF7E2F11D9500E34CEB199CAED225F368" x="43.1" y="0" fill="#1a1a18" fill-rule="nonzero"/><use xlink:href="#g9C25E780E6AD3E011190AC1851E58112" x="47.55" y="0" fill="#1a1a18" fill-rule="nonzero"/><use xlink:href="#gAB8B9E265B3CCA4072A334611102AFDC" x="52.25" y="0" fill="#1a1a18" fill-rule="nonzero"/><use xlink:href="#gF91E605A926A6829D0875F26DD95556B" x="58.11" y="0" fill="#1a1a18" fill-rule="nonzero"/><use xlink:href="#gD51D1BA75A4578B9DA0C9BBB90D056B7" x="65.65" y="0" fill="#1a1a18" fill-rule="nonzero"/><use xlink:href="#g53E88946A301F5C1DCEA2C720F6596D3" x="70.3" y="0" fill="#1a1a18" fill-rule="nonzero"/><use xlink:href="#g58FE41588FF370B2D963AE7490CB53AD" x="77.45" y="0" fill="#1a1a18" fill-rule="nonzero"/><use xlink:href="#g8C4BCE4FF39E54C5E232A1A0A3B7612A" x="82.72" y="0" fill="#1a1a18" fill-rule="nonzero"/><use xlink:href="#gF7E2F11D9500E34CEB199CAED225F368" x="87.19" y="0" fill="#1a1a18" fill-rule="nonzero"/><use xlink:href="#gC3FB9C47AE4BC674026ABA4DF5513DF4" x="91.64" y="0" fill="#1a1a18" fill-rule="nonzero"/></g></g><path fill="none" transform="translate(0 28.304215087)" d="M 0 0m 0 115.722l 0 -115.722h 9.31l 0 115.722h -9.31Z "/><g transform="matrix(0 -1 1 0 -1.26e-7 144.026215228)"><g transform="matrix(1 0 0 -1 0 6.83)"><use xlink:href="#g829D75AC8F1C9E46EE8828572BC54649" x="0" y="0" fill="#1a1a18" fill-rule="nonzero"/><use xlink:href="#gF91E605A926A6829D0875F26DD95556B" x="5.38" y="0" fill="#1a1a18" fill-rule="nonzero"/><use xlink:href="#g58FE41588FF370B2D963AE7490CB53AD" x="10.42" y="0" fill="#1a1a18" fill-rule="nonzero"/><use xlink:href="#g973DF8CE92806CB27780D5D49D7C2E68" x="15.69" y="0" fill="#1a1a18" fill-rule="nonzero"/><use xlink:href="#g829D75AC8F1C9E46EE8828572BC54649" x="23" y="0" fill="#1a1a18" fill-rule="nonzero"/><use xlink:href="#g8C4BCE4FF39E54C5E232A1A0A3B7612A" x="28.38" y="0" fill="#1a1a18" fill-rule="nonzero"/><use xlink:href="#gF7E2F11D9500E34CEB199CAED225F368" x="32.85" y="0" fill="#1a1a18" fill-rule="nonzero"/><use xlink:href="#g7D7A5D08C55ACC07707850317A5B7900" x="37.3" y="0" fill="#1a1a18" fill-rule="nonzero"/><use xlink:href="#g58FE41588FF370B2D963AE7490CB53AD" x="41.87" y="0" fill="#1a1a18" fill-rule="nonzero"/><use xlink:href="#g8C4BCE4FF39E54C5E232A1A0A3B7612A" x="47.14" y="0" fill="#1a1a18" fill-rule="nonzero"/><use xlink:href="#g7F8987E4FAE1707EB0E446F973D62EDC" x="51.61" y="0" fill="#1a1a18" fill-rule="nonzero"/></g><g transform="matrix(1 0 0 -1 59.97 6.83)"><use xlink:href="#g2A7FE5FFBB7D8C773E81780030968208" x="0" y="0" fill="#1a1a18" fill-rule="nonzero"/></g><g transform="matrix(1 0 0 -1 69.477777778 6.83)"><use xlink:href="#g7679559C61795D4B2FBCEF1D6942AEE" x="0" y="0" fill="#1a1a18" fill-rule="nonzero"/></g><g transform="matrix(1 0 0 -1 80.035555556 6.83)"><use xlink:href="#gA5379C297008FE083E855C8E8B850A03" x="0" y="0" fill="#1a1a18" fill-rule="nonzero"/></g><g transform="matrix(1 0 0 -1 83.925555556 6.83)"><use xlink:href="#gDCB33243FA7B758E3BCD0C7DC09CD368" x="0" y="0" fill="#1a1a18" fill-rule="nonzero"/></g><g transform="matrix(1 0 0 -1 91.147777778 6.83)"><use xlink:href="#gE8ADFB55DBC888FEFF5896D44F418AFF" x="0" y="0" fill="#1a1a18" fill-rule="nonzero"/></g><g transform="matrix(1 0 0 -1 101.15 6.83)"><use xlink:href="#gBC8720471D078DB80FD85DE8E60CBD8B" x="0" y="0" fill="#1a1a18" fill-rule="nonzero"/></g><g transform="matrix(1 0 0 -1 106.33 6.83)"><use xlink:href="#g62817012A814A947D74F91B268BA3C0F" x="0" y="0" fill="#1a1a18" fill-rule="nonzero"/></g><g transform="matrix(1 0 0 -1 110.22 3.2)"><use xlink:href="#g81B4C88530E1D7011E2531255CEEA8CF" x="0" y="0" fill="#1a1a18" fill-rule="nonzero"/></g></g><path fill="none" stroke="#1a1a18" stroke-width="1.5" stroke-linecap="butt" stroke-linejoin="miter" stroke-miterlimit="4" transform="translate(48.592007874 12.464427685)" d="M 0 0l 14.881889764 7.37007874l 14.881889764 7.001574803l 14.881889764 6.651496063l 14.881889764 6.31892126l 14.881889764 6.002975197l 14.881889764 5.702826437l 14.881889764 5.417685115l 14.881889764 5.146800859l 14.881889764 4.889460816l 14.881889764 4.644987776l 14.881889764 4.412738387l 14.881889764 4.192101467l 14.881889764 3.982496394l 14.881889764 3.783371574l 14.881889764 3.594202996l 14.881889764 3.414492846"/><path fill="none" stroke="#7c7f6a" stroke-width="1.4" stroke-linecap="butt" stroke-linejoin="miter" stroke-miterlimit="4" transform="translate(48.592007874 12.464427685)" d="M 0 0l 14.881889764 29.480314961l 14.881889764 23.584251969l 14.881889764 18.867401575l 14.881889764 15.09392126l 14.881889764 12.075137008l 14.881889764 9.660109606l 14.881889764 7.728087685l 14.881889764 6.182470148l 14.881889764 4.945976118l 14.881889764 3.956780895l 14.881889764 3.165424716l 14.881889764 2.532339773l 14.881889764 2.025871818l 14.881889764 1.620697454l 14.881889764 1.296557964l 14.881889764 1.037246371"/><path fill="#1a1a18" fill-rule="nonzero" transform="translate(284.717992126 93.006386448)" d="M 0 0m 1.984251969 0c -1.094878488 0 -1.984251969 0.88937348 -1.984251969 1.984251969c 0 1.094878488 0.88937348 1.984251969 1.984251969 1.984251969c 1.094878488 0 1.984251969 -0.88937348 1.984251969 -1.984251969c 0 -1.094878488 -0.88937348 -1.984251969 -1.984251969 -1.984251969Z "/><path fill="#7c7f6a" fill-rule="nonzero" transform="translate(284.717992126 153.732765036)" d="M 0 0m 1.984251969 0c -1.094878488 0 -1.984251969 0.88937348 -1.984251969 1.984251969c 0 1.094878488 0.88937348 1.984251969 1.984251969 1.984251969c 1.094878488 0 1.984251969 -0.88937348 1.984251969 -1.984251969c 0 -1.094878488 -0.88937348 -1.984251969 -1.984251969 -1.984251969Z "/><path fill="none" transform="translate(292.938464567 85.307347077)" d="M 0 0h 71.487v 8.028h -71.487v -8.028Z "/><g transform="translate(292.938464567 85.307347077)"><g transform="matrix(1 0 0 -1 0 5.922)"><use xlink:href="#gE4D9A604B225CE4DF2FABF10EA31D7B8" x="0" y="0" fill="#1a1a18" fill-rule="nonzero"/><use xlink:href="#g4AE5337A4A3FF09E9A9AF89B4B83FC9D" x="4.887" y="0" fill="#1a1a18" fill-rule="nonzero"/><use xlink:href="#g7253BD4F4A12C91ABC7B03558525FA66" x="8.631" y="0" fill="#1a1a18" fill-rule="nonzero"/><use xlink:href="#g4AD90A9068D018AD3CEC8FD5EA9519DC" x="13.167" y="0" fill="#1a1a18" fill-rule="nonzero"/><use xlink:href="#g7253BD4F4A12C91ABC7B03558525FA66" x="17.838" y="0" fill="#1a1a18" fill-rule="nonzero"/><use xlink:href="#gBA3E9C2E61A84E296B252679103E17C4" x="22.374" y="0" fill="#1a1a18" fill-rule="nonzero"/><use xlink:href="#g6EA5A1981697E2B5E95285C58F7F7AD0" x="27.216" y="0" fill="#1a1a18" fill-rule="nonzero"/><use xlink:href="#g2A7A063817D03B183B2F5455DB77D169" x="32.49" y="0" fill="#1a1a18" fill-rule="nonzero"/><use xlink:href="#gD351E21AD091924D522A6D2D6355C932" x="40.131" y="0" fill="#1a1a18" fill-rule="nonzero"/><use xlink:href="#g9C9C9262F30302871979B086E3504457" x="46.404" y="0" fill="#1a1a18" fill-rule="nonzero"/><use xlink:href="#g5CCD3C35BE7C263075DDDC3F0C06DEE6" x="50.805" y="0" fill="#1a1a18" fill-rule="nonzero"/><use xlink:href="#gB118266EF18AECCCCEF724ECE6F3D1D3" x="57.321" y="0" fill="#1a1a18" fill-rule="nonzero"/><use xlink:href="#g7253BD4F4A12C91ABC7B03558525FA66" x="62.064" y="0" fill="#1a1a18" fill-rule="nonzero"/><use xlink:href="#g1C332B931D1FEF774D83D90A6359918F" x="66.6" y="0" fill="#1a1a18" fill-rule="nonzero"/></g></g><path fill="none" transform="translate(292.938464567 94.098034085)" d="M 0 0h 53.533v 7.4545h -53.533v -7.4545Z "/><g transform="translate(292.938464535 94.098034007)"><g transform="matrix(1 0 0 -1 0 5.8055)"><use xlink:href="#gF8536E2EA94D7AB1CE427C0DAEAD4838" x="0" y="0" fill="#7c7f6a" fill-rule="nonzero"/></g><g transform="matrix(1 0 0 -1 4.403 5.8055)"><use xlink:href="#g9FA988BA2249965C7020114D496B656" x="2.125" y="0" fill="#7c7f6a" fill-rule="nonzero"/><use xlink:href="#gE3FE2528F38598467A4D88E2DBCB8679" x="8.925" y="0" fill="#7c7f6a" fill-rule="nonzero"/><use xlink:href="#gDF3935FCC17A128C279585C276902B1A" x="12.8775" y="0" fill="#7c7f6a" fill-rule="nonzero"/><use xlink:href="#gE3FE2528F38598467A4D88E2DBCB8679" x="14.7475" y="0" fill="#7c7f6a" fill-rule="nonzero"/><use xlink:href="#g6B6515263C8491F6898E68FFAE1136A4" x="18.7" y="0" fill="#7c7f6a" fill-rule="nonzero"/></g><g transform="matrix(1 0 0 -1 29.1805 5.8055)"><use xlink:href="#g7186995358F4CDEDF9956A9CB942507B" x="0" y="0" fill="#7c7f6a" fill-rule="nonzero"/></g><g transform="matrix(1 0 0 -1 37.6805 5.8055)"><use xlink:href="#gE3FE2528F38598467A4D88E2DBCB8679" x="2.125" y="0" fill="#7c7f6a" fill-rule="nonzero"/><use xlink:href="#gDF3935FCC17A128C279585C276902B1A" x="6.0775" y="0" fill="#7c7f6a" fill-rule="nonzero"/><use xlink:href="#gD7F3603AE07CA6EC40268D26CF17A17B" x="7.9475" y="0" fill="#7c7f6a" fill-rule="nonzero"/><use xlink:href="#gD7F3603AE07CA6EC40268D26CF17A17B" x="11.9" y="0" fill="#7c7f6a" fill-rule="nonzero"/></g></g><path fill="none" transform="translate(292.938464567 139.122646926)" d="M 0 0h 50.634v 7.11h -50.634v -7.11Z "/><g transform="translate(292.938464425 139.122646784)"><g transform="matrix(1 0 0 -1 0 5.922)"><use xlink:href="#gE4D9A604B225CE4DF2FABF10EA31D7B8" x="0" y="0" fill="#7c7f6a" fill-rule="nonzero"/><use xlink:href="#g4AE5337A4A3FF09E9A9AF89B4B83FC9D" x="4.887" y="0" fill="#7c7f6a" fill-rule="nonzero"/><use xlink:href="#gBA3E9C2E61A84E296B252679103E17C4" x="8.631" y="0" fill="#7c7f6a" fill-rule="nonzero"/><use xlink:href="#gD351E21AD091924D522A6D2D6355C932" x="13.473" y="0" fill="#7c7f6a" fill-rule="nonzero"/><use xlink:href="#g7815E2C79248546AAEE49EC7F57ADD4E" x="19.746" y="0" fill="#7c7f6a" fill-rule="nonzero"/><use xlink:href="#g611C332DF318E3AAFADBD04F1094DD79" x="23.598" y="0" fill="#7c7f6a" fill-rule="nonzero"/><use xlink:href="#g7253BD4F4A12C91ABC7B03558525FA66" x="27.603" y="0" fill="#7c7f6a" fill-rule="nonzero"/><use xlink:href="#gCC8431763A18574B9D70D89AC0A75466" x="32.139" y="0" fill="#7c7f6a" fill-rule="nonzero"/><use xlink:href="#gB118266EF18AECCCCEF724ECE6F3D1D3" x="36.468" y="0" fill="#7c7f6a" fill-rule="nonzero"/><use xlink:href="#g7253BD4F4A12C91ABC7B03558525FA66" x="41.211" y="0" fill="#7c7f6a" fill-rule="nonzero"/><use xlink:href="#g1C332B931D1FEF774D83D90A6359918F" x="45.747" y="0" fill="#7c7f6a" fill-rule="nonzero"/></g></g><path fill="none" transform="translate(292.938464567 147.454333934)" d="M 0 0h 49.5805v 7.4545h -49.5805v -7.4545Z "/><g transform="translate(292.938464441 147.454333855)"><g transform="matrix(1 0 0 -1 0 5.8055)"><use xlink:href="#gF8536E2EA94D7AB1CE427C0DAEAD4838" x="0" y="0" fill="#7c7f6a" fill-rule="nonzero"/></g><g transform="matrix(1 0 0 -1 4.403 5.8055)"><use xlink:href="#g9FA988BA2249965C7020114D496B656" x="2.125" y="0" fill="#7c7f6a" fill-rule="nonzero"/><use xlink:href="#gE3FE2528F38598467A4D88E2DBCB8679" x="8.925" y="0" fill="#7c7f6a" fill-rule="nonzero"/><use xlink:href="#gDF3935FCC17A128C279585C276902B1A" x="12.8775" y="0" fill="#7c7f6a" fill-rule="nonzero"/><use xlink:href="#g34E634B8D08F8B91F4ACC67018EAE93C" x="14.7475" y="0" fill="#7c7f6a" fill-rule="nonzero"/></g><g transform="matrix(1 0 0 -1 25.228 5.8055)"><use xlink:href="#g7186995358F4CDEDF9956A9CB942507B" x="0" y="0" fill="#7c7f6a" fill-rule="nonzero"/></g><g transform="matrix(1 0 0 -1 33.728 5.8055)"><use xlink:href="#gE3FE2528F38598467A4D88E2DBCB8679" x="2.125" y="0" fill="#7c7f6a" fill-rule="nonzero"/><use xlink:href="#gDF3935FCC17A128C279585C276902B1A" x="6.0775" y="0" fill="#7c7f6a" fill-rule="nonzero"/><use xlink:href="#gE3FE2528F38598467A4D88E2DBCB8679" x="7.9475" y="0" fill="#7c7f6a" fill-rule="nonzero"/><use xlink:href="#gC93E921AEAEC051AF54DEF19CEE5AFC4" x="11.9" y="0" fill="#7c7f6a" fill-rule="nonzero"/></g></g></g><defs><symbol id="g2672FDBBE364B15F69A47DA3D826EE6F" overflow="visible"><path d="M 0 0m 2.052 -0.09c 0.693 0 1.746 0.702 1.746 2.817c 0 0.891 -0.216 1.656 -0.612 2.178c -0.234 0.315 -0.612 0.585 -1.098 0.585c -0.891 0 -1.737 -1.062 -1.737 -2.844c 0 -0.963 0.297 -1.863 0.792 -2.358c 0.252 -0.252 0.558 -0.378 0.909 -0.378Z m 0.036 5.265c 0.153 0 0.297 -0.054 0.405 -0.153c 0.279 -0.234 0.522 -0.918 0.522 -2.124c 0 -0.828 -0.027 -1.395 -0.153 -1.854c -0.198 -0.738 -0.639 -0.819 -0.801 -0.819c -0.837 0 -0.927 1.539 -0.927 2.322c 0 2.214 0.549 2.628 0.954 2.628Z "/></symbol><symbol id="gD11A58C3A3B421C2056FF05E75045811" overflow="visible"><path d="M 0 0m 3.87 1.971h -0.747v 2.628c 0 0.45 0 0.801 0.018 0.873l -0.018 0.018h -0.288c -0.063 0 -0.108 -0.054 -0.144 -0.099c -0.567 -0.693 -1.611 -2.178 -2.439 -3.465c 0.027 -0.135 0.081 -0.378 0.351 -0.378h 1.836v -0.828c 0 -0.414 -0.342 -0.414 -0.729 -0.441c -0.054 -0.054 -0.054 -0.243 0 -0.297c 0.288 0.009 0.648 0.018 1.062 0.018c 0.351 0 0.693 -0.009 0.981 -0.018c 0.054 0.054 0.054 0.243 0 0.297c -0.441 0.036 -0.63 0.018 -0.63 0.441v 0.828h 0.621c 0.126 0 0.261 0.171 0.261 0.279c 0 0.09 -0.036 0.144 -0.135 0.144Z m -1.431 2.592v -2.592h -1.719c 0.459 0.738 1.098 1.746 1.719 2.592Z "/></symbol><symbol id="g75AAF25DAC5F6DB189268F229776135" overflow="visible"><path d="M 0 0m 3.537 4.365c 0 0.648 -0.504 1.125 -1.386 1.125c -0.918 0 -1.512 -0.549 -1.512 -1.242c 0 -0.504 0.243 -0.873 0.792 -1.215l 0.234 -0.144c -0.261 -0.135 -0.504 -0.297 -0.729 -0.495c -0.369 -0.324 -0.522 -0.729 -0.522 -1.08c 0 -0.918 0.648 -1.404 1.602 -1.404c 1.179 0 1.755 0.864 1.755 1.548c 0 0.522 -0.225 0.981 -0.702 1.269l -0.639 0.387c 0.423 0.207 1.107 0.675 1.107 1.251Z m -1.503 -4.14c -0.405 0 -1.017 0.279 -1.017 1.089c 0 0.27 0.117 0.9 0.891 1.413l 0.423 -0.252c 0.558 -0.342 0.783 -0.765 0.783 -1.197c 0 -0.9 -0.675 -1.053 -1.08 -1.053Z m 0.072 4.95c 0.585 0 0.801 -0.387 0.801 -0.801c 0 -0.486 -0.477 -0.891 -0.72 -1.071l -0.279 0.171c -0.567 0.369 -0.63 0.666 -0.63 0.945c 0 0.414 0.288 0.756 0.828 0.756Z "/></symbol><symbol id="g1C0AA09C88C242CF299E410BACB4170A" overflow="visible"><path d="M 0 0m 2.592 1.098v 3.123c 0 0.54 0.009 1.089 0.027 1.206c 0 0.045 -0.018 0.045 -0.054 0.045c -0.495 -0.306 -0.972 -0.531 -1.764 -0.9c 0.018 -0.099 0.054 -0.189 0.135 -0.243c 0.414 0.171 0.612 0.225 0.783 0.225c 0.153 0 0.18 -0.216 0.18 -0.522v -2.934c 0 -0.747 -0.243 -0.792 -0.873 -0.819c -0.054 -0.054 -0.054 -0.243 0 -0.297c 0.441 0.009 0.765 0.018 1.251 0.018c 0.432 0 0.648 -0.009 1.098 -0.018c 0.054 0.054 0.054 0.243 0 0.297c -0.63 0.027 -0.783 0.072 -0.783 0.819Z "/></symbol><symbol id="g847357BB8876AF51969CA80692415844" overflow="visible"><path d="M 0 0m 0.549 4.212c 0 -0.189 0.171 -0.351 0.36 -0.351c 0.153 0 0.423 0.162 0.423 0.36c 0 0.072 -0.018 0.126 -0.036 0.189c -0.018 0.063 -0.072 0.144 -0.072 0.216c 0 0.225 0.234 0.549 0.891 0.549c 0.324 0 0.783 -0.225 0.783 -1.089c 0 -0.576 -0.207 -1.044 -0.738 -1.584l -0.666 -0.657c -0.882 -0.9 -1.026 -1.332 -1.026 -1.863c 0 0 0.459 0.018 0.747 0.018h 1.575c 0.288 0 0.702 -0.018 0.702 -0.018c 0.117 0.477 0.207 1.152 0.216 1.422c -0.054 0.045 -0.171 0.063 -0.261 0.045c -0.153 -0.639 -0.306 -0.864 -0.63 -0.864h -1.602c 0 0.432 0.621 1.044 0.666 1.089l 0.909 0.873c 0.513 0.495 0.9 0.891 0.9 1.575c 0 0.972 -0.792 1.368 -1.521 1.368c -0.999 0 -1.62 -0.738 -1.62 -1.278Z "/></symbol><symbol id="g7427B35904D8106763807ACF831A9726" overflow="visible"><path d="M 0 0m 1.296 3.087c 0.243 0.819 0.819 1.728 2.016 2.178c 0 0.108 -0.036 0.189 -0.108 0.234c -0.909 -0.27 -1.467 -0.648 -1.971 -1.233c -0.558 -0.648 -0.837 -1.467 -0.837 -2.178c 0 -1.827 1.035 -2.187 1.728 -2.187c 1.179 0 1.665 1.143 1.665 1.917c 0 0.774 -0.414 1.467 -1.638 1.467c -0.234 0 -0.585 -0.072 -0.855 -0.198Z m -0.081 -0.324c 0.297 0.198 0.594 0.207 0.747 0.207c 0.882 0 1.08 -0.864 1.08 -1.314c 0 -0.99 -0.378 -1.44 -0.819 -1.44c -0.567 0 -1.08 0.306 -1.08 1.845c 0 0.207 0.018 0.441 0.072 0.702Z "/></symbol><symbol id="gCCF28E29FF8CFE46410F5A526209CFA4" overflow="visible"><path d="M 0 0m 0.936 0.855c -0.279 0 -0.477 -0.189 -0.477 -0.441c 0 -0.279 0.234 -0.369 0.396 -0.396c 0.171 -0.018 0.324 -0.072 0.324 -0.279c 0 -0.189 -0.324 -0.603 -0.792 -0.72c 0 -0.09 0.018 -0.153 0.081 -0.216c 0.54 0.099 1.062 0.531 1.062 1.161c 0 0.54 -0.234 0.891 -0.594 0.891Z "/></symbol><symbol id="g96351278D88006CC7926B74AF66DE974" overflow="visible"><path d="M 0 0m 2.871 1.701c 0 -0.855 -0.45 -1.485 -0.99 -1.485c -0.342 0 -0.459 0.225 -0.594 0.405c -0.117 0.153 -0.27 0.288 -0.459 0.288c -0.171 0 -0.342 -0.153 -0.342 -0.333c 0 -0.369 0.765 -0.675 1.278 -0.675c 1.116 0 1.908 0.828 1.908 1.962c 0 0.873 -0.603 1.656 -1.611 1.656c -0.387 0 -0.72 -0.081 -0.882 -0.144l 0.18 1.503c 0.333 -0.036 0.621 -0.081 1.053 -0.081c 0.27 0 0.576 0.018 0.945 0.054l 0.144 0.612l -0.063 0.036c -0.513 -0.054 -0.999 -0.099 -1.476 -0.099c -0.333 0 -0.657 0.018 -0.972 0.045l -0.306 -2.592c 0.477 0.18 0.819 0.216 1.143 0.216c 0.585 0 1.044 -0.387 1.044 -1.368Z "/></symbol><symbol id="g208428D5F859A4A1DB0C0823EAA61FB0" overflow="visible"><path d="M 0 0m 1.53 4.815h 1.611c -0.702 -1.746 -1.413 -3.501 -2.025 -4.869l 0.072 -0.063l 0.612 0.027c 0.513 1.53 1.008 3.024 2.016 5.481l -0.144 0.108c -0.153 -0.045 -0.351 -0.099 -0.693 -0.099h -1.854c -0.306 0 -0.288 0.09 -0.45 0.126c -0.027 0 -0.036 0 -0.036 -0.027c -0.009 -0.432 -0.108 -0.972 -0.18 -1.44c 0.099 -0.027 0.189 -0.036 0.288 -0.027c 0.198 0.72 0.495 0.783 0.783 0.783Z "/></symbol><symbol id="gAB8B9E265B3CCA4072A334611102AFDC" overflow="visible"><path d="M 0 0m 4.37 4.29h -2.84c -0.4 0 -0.78 0.01 -1.08 0.02c -0.06 -0.06 -0.06 -0.27 0 -0.33c 0.55 -0.04 0.68 -0.09 0.68 -0.91v -1.85c 0 -0.82 -0.13 -0.87 -0.78 -0.91c -0.06 -0.06 -0.06 -0.27 0 -0.33c 0.3 0.01 0.78 0.02 1.18 0.02c 0.4 0 0.7 -0.01 1 -0.02c 0.06 0.06 0.06 0.27 0 0.33c -0.51 0.05 -0.61 0.09 -0.61 0.91v 2.17c 0 0.31 0.03 0.51 0.42 0.51h 1.21c 0.37 0 0.43 -0.11 0.43 -0.51v -2.17c 0 -0.82 -0.1 -0.87 -0.62 -0.91c -0.05 -0.06 -0.05 -0.27 0 -0.33c 0.25 0.01 0.62 0.02 1.02 0.02c 0.4 0 0.85 -0.01 1.13 -0.02c 0.05 0.06 0.05 0.27 0 0.33c -0.65 0.04 -0.74 0.09 -0.74 0.91v 1.85c 0 0.82 0.13 0.87 0.68 0.91c 0.06 0.06 0.06 0.27 0 0.33c -0.3 -0.01 -0.68 -0.02 -1.08 -0.02Z "/></symbol><symbol id="gF91E605A926A6829D0875F26DD95556B" overflow="visible"><path d="M 0 0m 0.41 2.05c 0 -1.02 0.68 -2.15 2.1 -2.15c 0.64 0 1.13 0.23 1.47 0.56c 0.45 0.44 0.65 1.07 0.65 1.68c 0 1.04 -0.57 2.25 -2.1 2.25c -0.66 0 -1.2 -0.27 -1.57 -0.7c -0.36 -0.43 -0.55 -1.01 -0.55 -1.64Z m 1.97 1.99c 0.86 0 1.39 -0.78 1.39 -2.22c 0 -1.26 -0.65 -1.57 -1.12 -1.57c -1.04 0 -1.38 1.26 -1.38 2.03c 0 0.87 0.21 1.76 1.11 1.76Z "/></symbol><symbol id="g1E1CCF3C3F9C9FC6D96E38E66EA39633" overflow="visible"><path d="M 0 0m 3.86 0c 0 0 0.78 -0.01 0.98 -0.02c 0.06 0.06 0.06 0.27 0 0.33c -0.39 0.02 -0.47 0.1 -0.64 0.42l -0.45 0.85c -0.25 0.47 -0.6 0.71 -1.17 0.71v 0.03c 0.39 0.11 0.56 0.46 0.71 0.86c 0.12 0.31 0.24 0.5 0.45 0.5c 0.09 0 0.17 -0.03 0.23 -0.07c 0.06 -0.04 0.17 -0.07 0.3 -0.07c 0.22 0 0.4 0.19 0.4 0.39c 0 0.22 -0.24 0.45 -0.57 0.45c -0.58 0 -0.85 -0.54 -1.04 -1.01c -0.22 -0.55 -0.49 -0.93 -1.2 -0.93v 0.63c 0 0.83 0.11 0.86 0.62 0.91c 0.06 0.06 0.06 0.27 0 0.33c -0.24 -0.01 -0.62 -0.02 -1.02 -0.02c -0.43 0 -0.78 0.01 -1.11 0.02c -0.06 -0.06 -0.06 -0.27 0 -0.33c 0.61 -0.04 0.72 -0.08 0.72 -0.91v -1.85c 0 -0.83 -0.11 -0.86 -0.72 -0.91c -0.06 -0.06 -0.06 -0.27 0 -0.33c 0.33 0.01 0.68 0.02 1.12 0.02c 0.39 0 0.79 -0.01 1.01 -0.02c 0.06 0.06 0.06 0.27 0 0.33c -0.51 0.04 -0.62 0.08 -0.62 0.91v 0.87c 0.68 -0.04 0.86 -0.31 1.04 -0.68l 0.43 -0.9c 0.13 -0.27 0.33 -0.5 0.53 -0.51Z "/></symbol><symbol id="g58FE41588FF370B2D963AE7490CB53AD" overflow="visible"><path d="M 0 0m 4.18 1.22v 1.85c 0 0.82 0.13 0.87 0.68 0.91c 0.06 0.06 0.06 0.27 0 0.33c -0.3 -0.01 -0.68 -0.02 -1.08 -0.02h -1.89c -0.33 0 -0.72 0.01 -1.02 0.02c -0.06 -0.06 -0.06 -0.27 0 -0.33c 0.71 -0.05 0.81 -0.11 0.81 -1.19c 0 -1.05 -0.08 -1.6 -0.22 -2.01c -0.13 -0.36 -0.3 -0.49 -0.47 -0.49c -0.13 0 -0.17 0.08 -0.19 0.21c -0.03 0.19 -0.09 0.38 -0.37 0.38c -0.25 0 -0.39 -0.2 -0.39 -0.42c 0 -0.31 0.28 -0.58 0.74 -0.58c 0.51 0 0.79 0.26 1.02 0.8c 0.2 0.48 0.26 1.5 0.26 2.18c 0 0.78 0.03 1.04 0.43 1.04h 0.45c 0.38 0 0.45 -0.24 0.45 -0.58v -2.1c 0 -0.82 -0.1 -0.87 -0.62 -0.91c -0.05 -0.06 -0.05 -0.27 0 -0.33c 0.25 0.01 0.62 0.02 1.02 0.02c 0.4 0 0.85 -0.01 1.13 -0.02c 0.05 0.06 0.05 0.27 0 0.33c -0.65 0.04 -0.74 0.09 -0.74 0.91Z "/></symbol><symbol id="g8C4BCE4FF39E54C5E232A1A0A3B7612A" overflow="visible"><path d="M 0 0m 3.86 0.93c -0.37 -0.38 -0.66 -0.54 -1.24 -0.54c -0.36 0 -0.78 0.21 -1.09 0.72c -0.2 0.33 -0.32 0.79 -0.32 1.37l 2.66 -0.02c 0.12 0 0.19 0.06 0.19 0.17c 0 0.84 -0.3 1.74 -1.69 1.74c -0.87 0 -2 -0.83 -2 -2.35c 0 -0.56 0.14 -1.1 0.47 -1.48c 0.34 -0.4 0.81 -0.64 1.53 -0.64c 0.76 0 1.3 0.35 1.7 0.87c -0.03 0.1 -0.09 0.15 -0.21 0.16Z m -2.62 1.89c 0.19 1.13 0.89 1.22 1.13 1.22c 0.38 0 0.83 -0.21 0.83 -1.05c 0 -0.09 -0.04 -0.14 -0.15 -0.14Z "/></symbol><symbol id="gD51468542432F864548926048E523B26" overflow="visible"><path d="M 0 0m 4.79 3.07c 0 0.83 0.11 0.86 0.72 0.91c 0.06 0.06 0.06 0.27 0 0.33c -0.35 -0.02 -0.79 -0.02 -1.12 -0.02c -0.28 0 -0.68 0.01 -1.07 0.02c -0.06 -0.06 -0.06 -0.27 0 -0.33c 0.61 -0.04 0.68 -0.08 0.68 -0.91v -0.65h -2.14v 0.65c 0 0.83 0.07 0.86 0.68 0.91c 0.06 0.06 0.06 0.27 0 0.33c -0.38 -0.01 -0.76 -0.02 -1.08 -0.02c -0.3 0 -0.71 0.01 -1.11 0.02c -0.06 -0.06 -0.06 -0.27 0 -0.33c 0.61 -0.04 0.72 -0.08 0.72 -0.91v -1.85c 0 -0.83 -0.11 -0.86 -0.72 -0.91c -0.06 -0.06 -0.06 -0.27 0 -0.33c 0.4 0.01 0.8 0.02 1.12 0.02c 0.32 0 0.71 -0.01 1.07 -0.02c 0.06 0.06 0.06 0.27 0 0.33c -0.61 0.04 -0.68 0.08 -0.68 0.91v 0.87h 2.14v -0.87c 0 -0.83 -0.07 -0.86 -0.68 -0.91c -0.06 -0.06 -0.06 -0.27 0 -0.33c 0.36 0.01 0.73 0.02 1.08 0.02c 0.3 0 0.72 -0.01 1.11 -0.02c 0.06 0.06 0.06 0.27 0 0.33c -0.61 0.04 -0.72 0.08 -0.72 0.91Z "/></symbol><symbol id="g3730A52707D5D005176FA819A7950DF6" overflow="visible"><path d="M 0 0m 1.98 0.63c -0.03 0 -0.07 0.02 -0.07 0.12v 2.28c 0 0.83 0.21 0.92 0.72 0.95c 0.06 0.06 0.06 0.27 0 0.33c -0.23 -0.01 -0.8 -0.02 -1.17 -0.02c -0.33 0 -0.73 0.01 -1.11 0.02c -0.06 -0.06 -0.06 -0.27 0 -0.33c 0.61 -0.03 0.77 -0.12 0.77 -0.95v -1.77c 0 -0.83 -0.16 -0.92 -0.77 -0.95c -0.06 -0.06 -0.06 -0.27 0 -0.33c 0.39 0.01 0.79 0.02 1.11 0.02c 0.23 0 0.5 -0.01 0.61 -0.02c 0.05 0.14 0.14 0.34 0.25 0.54l 1.56 3.13c 0.03 0 0.07 -0.02 0.07 -0.12v -2.27c 0 -0.83 -0.21 -0.92 -0.72 -0.95c -0.06 -0.06 -0.06 -0.27 0 -0.33c 0.23 0.01 0.77 0.02 1.17 0.02c 0.31 0 0.72 -0.01 1.11 -0.02c 0.06 0.06 0.06 0.27 0 0.33c -0.61 0.03 -0.77 0.12 -0.77 0.95v 1.77c 0 0.83 0.16 0.92 0.77 0.95c 0.06 0.06 0.06 0.27 0 0.33c -0.4 -0.01 -0.8 -0.02 -1.11 -0.02c -0.22 0 -0.5 0.01 -0.6 0.02c -0.08 -0.18 -0.17 -0.39 -0.26 -0.56Z "/></symbol><symbol id="g973DF8CE92806CB27780D5D49D7C2E68" overflow="visible"><path d="M 0 0m 1.14 0c 0.28 0.01 0.38 0.27 0.5 0.63c 0.26 0.79 0.55 1.28 1.05 1.28h 0.26v -0.69c 0 -0.83 -0.11 -0.86 -0.72 -0.91c -0.06 -0.06 -0.06 -0.27 0 -0.33c 0.33 0.01 0.68 0.02 1.12 0.02c 0.43 0 0.79 -0.01 1.11 -0.02c 0.06 0.06 0.06 0.27 0 0.33c -0.61 0.04 -0.72 0.08 -0.72 0.91v 1.85c 0 0.83 0.11 0.86 0.72 0.91c 0.06 0.06 0.06 0.27 0 0.33c -0.34 -0.01 -0.68 -0.02 -1.12 -0.02c -0.34 0 -0.63 0.02 -0.88 0.02c -1.75 0 -1.9 -0.72 -1.9 -1.26c 0 -0.65 0.5 -0.98 1.24 -1.01c 0.03 0 0.03 -0.03 0.02 -0.04c -0.38 -0.11 -0.55 -0.32 -0.72 -0.69c -0.11 -0.23 -0.2 -0.45 -0.25 -0.58c -0.13 -0.34 -0.3 -0.4 -0.69 -0.42c -0.06 -0.06 -0.06 -0.27 0 -0.33c 0.2 0.01 0.98 0.02 0.98 0.02Z m 0.28 3.21c 0 0.47 0.15 0.77 0.96 0.77c 0.41 0 0.57 -0.18 0.57 -0.56v -1.17h -0.7c -0.6 0 -0.83 0.46 -0.83 0.96Z "/></symbol><symbol id="g2EFE33C5504D867B813D7940C7587DC4" overflow="visible"><path d="M 0 0m 5.37 1.37c -0.23 -0.79 -0.56 -1.19 -0.97 -1.19c -0.13 0 -0.2 0.1 -0.2 0.29c 0 0.14 0.06 0.37 0.18 0.68c 0.4 1.09 0.6 1.81 0.6 2.18c 0 0.7 -0.47 1.09 -1.17 1.09c -0.59 0 -1.1 -0.26 -1.51 -0.79c -0.08 0.44 -0.43 0.79 -0.94 0.79c -0.56 0 -0.78 -0.52 -0.92 -0.97c -0.1 -0.32 -0.15 -0.51 -0.15 -0.58c 0 -0.09 0.05 -0.14 0.16 -0.14c 0.05 0 0.08 0.01 0.11 0.03c 0.05 0.09 0.08 0.16 0.09 0.23c 0.18 0.76 0.41 1.14 0.68 1.14c 0.18 0 0.27 -0.14 0.27 -0.42c 0 -0.13 -0.05 -0.4 -0.16 -0.81l -0.57 -2.27c -0.03 -0.13 -0.09 -0.39 -0.09 -0.44c 0 -0.2 0.11 -0.3 0.33 -0.3c 0.19 0 0.33 0.1 0.4 0.3c 0.02 0.05 0.08 0.3 0.19 0.73l 0.21 0.89l 0.3 1.14c 0.11 0.23 0.28 0.46 0.49 0.7c 0.29 0.32 0.65 0.48 1.08 0.48c 0.33 0 0.49 -0.22 0.49 -0.65c 0 -0.38 -0.21 -1.14 -0.64 -2.28c -0.07 -0.18 -0.1 -0.33 -0.1 -0.46c 0 -0.49 0.37 -0.85 0.85 -0.85c 0.44 0 0.79 0.25 1.04 0.75c 0.19 0.4 0.29 0.67 0.29 0.8c 0 0.09 -0.05 0.14 -0.16 0.14c -0.03 0 -0.18 -0.09 -0.18 -0.21Z "/></symbol><symbol id="g98BE2FE73204EAC9F74BB0877216C668" overflow="visible"><path d="M 0 0m 0.44 2.52c 0 -0.45 0.04 -2.76 2.12 -4.56c 0.1 0.02 0.18 0.09 0.21 0.17c -0.33 0.38 -1.5 1.76 -1.5 4.39c 0 2.63 1.18 4.01 1.5 4.37c -0.03 0.1 -0.1 0.17 -0.21 0.18c -1.19 -1.02 -2.12 -2.69 -2.12 -4.55Z "/></symbol><symbol id="gE2723647FFCFE887839C6909BF8FF8CF" overflow="visible"><path d="M 0 0m 0.43 0.83c 0 -0.22 0.13 -0.38 0.34 -0.54c 0.25 -0.18 0.58 -0.39 1.37 -0.39c 1 0 1.78 0.3 1.78 1.29c 0 0.6 -0.3 1 -1.01 1.12v 0.03c 0.61 0.23 0.77 0.51 0.77 1.03c 0 0.58 -0.4 1.02 -1.41 1.02c -0.53 0 -1 -0.19 -1.54 -0.28l -0.13 -1.19c 0.08 -0.04 0.18 -0.05 0.27 -0.04c 0.19 0.58 0.44 1.16 1.28 1.16c 0.55 0 0.73 -0.33 0.73 -0.73c 0 -0.41 -0.07 -0.89 -0.71 -0.89c -0.19 0 -0.36 0.06 -0.55 0.06c -0.09 0 -0.19 -0.06 -0.19 -0.22c 0 -0.16 0.11 -0.21 0.2 -0.21c 0.19 0 0.3 0.06 0.55 0.06c 0.74 0 0.88 -0.51 0.88 -0.95c 0 -0.59 -0.22 -0.91 -0.93 -0.91c -0.57 0 -0.67 0.21 -0.84 0.57c -0.08 0.18 -0.19 0.32 -0.45 0.32c -0.18 0 -0.41 -0.15 -0.41 -0.31Z "/></symbol><symbol id="g7D7A5D08C55ACC07707850317A5B7900" overflow="visible"><path d="M 0 0m 2.93 0.48c 0.06 -0.31 0.17 -0.58 0.67 -0.58c 0.38 0 0.74 0.17 0.95 0.37c -0.02 0.12 -0.06 0.21 -0.17 0.27c -0.07 -0.06 -0.24 -0.16 -0.37 -0.16c -0.29 0 -0.3 0.39 -0.3 0.85v 1.47c 0 1.42 -0.78 1.69 -1.51 1.69c -0.82 0 -1.65 -0.54 -1.65 -1.11c 0 -0.24 0.12 -0.36 0.35 -0.36c 0.29 0 0.47 0.21 0.47 0.34c 0 0.07 -0.01 0.14 -0.03 0.18c -0.01 0.03 -0.02 0.09 -0.02 0.2c 0 0.31 0.42 0.42 0.8 0.42c 0.34 0 0.81 -0.17 0.81 -1.3c 0 -0.07 -0.03 -0.11 -0.06 -0.12l -0.86 -0.21c -0.96 -0.24 -1.65 -0.77 -1.65 -1.45c 0 -0.82 0.56 -1.08 1.26 -1.08c 0.35 0 0.65 0.08 1.09 0.42l 0.2 0.16Z m 0 1.85v -1.32c 0 -0.13 -0.06 -0.2 -0.14 -0.26c -0.26 -0.21 -0.6 -0.44 -0.88 -0.44c -0.5 0 -0.72 0.4 -0.72 0.71c 0 0.45 0.21 0.91 0.95 1.1Z "/></symbol><symbol id="g9FDA399337BA5CEE43DE6885B462BE24" overflow="visible"><path d="M 0 0m 4.3 2.19h -0.83v 2.92c 0 0.5 0 0.89 0.02 0.97l -0.02 0.02h -0.32c -0.07 0 -0.12 -0.06 -0.16 -0.11c -0.63 -0.77 -1.79 -2.42 -2.71 -3.85c 0.03 -0.15 0.09 -0.42 0.39 -0.42h 2.04v -0.92c 0 -0.46 -0.38 -0.46 -0.81 -0.49c -0.06 -0.06 -0.06 -0.27 0 -0.33c 0.32 0.01 0.72 0.02 1.18 0.02c 0.39 0 0.77 -0.01 1.09 -0.02c 0.06 0.06 0.06 0.27 0 0.33c -0.49 0.04 -0.7 0.02 -0.7 0.49v 0.92h 0.69c 0.14 0 0.29 0.19 0.29 0.31c 0 0.1 -0.04 0.16 -0.15 0.16Z m -1.59 2.88v -2.88h -1.91c 0.51 0.82 1.22 1.94 1.91 2.88Z "/></symbol><symbol id="g6DFAD7171EBFBAC7EAFD0C61FA59A787" overflow="visible"><path d="M 0 0m 2.28 -0.1c 0.77 0 1.94 0.78 1.94 3.13c 0 0.99 -0.24 1.84 -0.68 2.42c -0.26 0.35 -0.68 0.65 -1.22 0.65c -0.99 0 -1.93 -1.18 -1.93 -3.16c 0 -1.07 0.33 -2.07 0.88 -2.62c 0.28 -0.28 0.62 -0.42 1.01 -0.42Z m 0.04 5.85c 0.17 0 0.33 -0.06 0.45 -0.17c 0.31 -0.26 0.58 -1.02 0.58 -2.36c 0 -0.92 -0.03 -1.55 -0.17 -2.06c -0.22 -0.82 -0.71 -0.91 -0.89 -0.91c -0.93 0 -1.03 1.71 -1.03 2.58c 0 2.46 0.61 2.92 1.06 2.92Z "/></symbol><symbol id="gF7E2F11D9500E34CEB199CAED225F368" overflow="visible"><path d="M 0 0m 1.82 1.22c 0 -0.83 -0.11 -0.88 -0.72 -0.91c -0.06 -0.06 -0.06 -0.27 0 -0.33c 0.39 0.01 0.79 0.02 1.12 0.02c 0.34 0 0.73 -0.01 1.11 -0.02c 0.06 0.06 0.06 0.27 0 0.33c -0.61 0.03 -0.72 0.08 -0.72 0.91v 2.7h 0.17c 0.81 0 0.97 -0.28 1.14 -1.09c 0.13 0 0.26 0.04 0.26 0.04c -0.06 0.46 -0.1 0.9 -0.11 1.48c -0.23 -0.02 -0.98 -0.06 -1.48 -0.06h -0.75c -0.5 0 -1.06 0.03 -1.46 0.06c -0.01 -0.58 -0.05 -1.02 -0.12 -1.48c 0 0 0.14 -0.04 0.27 -0.04c 0.17 0.81 0.32 1.09 1.14 1.09h 0.15Z "/></symbol><symbol id="g9C25E780E6AD3E011190AC1851E58112" overflow="visible"><path d="M 0 0m 1.04 0.95c -0.31 0 -0.53 -0.21 -0.53 -0.49c 0 -0.31 0.26 -0.41 0.44 -0.44c 0.19 -0.02 0.36 -0.08 0.36 -0.31c 0 -0.21 -0.36 -0.67 -0.88 -0.8c 0 -0.1 0.02 -0.17 0.09 -0.24c 0.6 0.11 1.18 0.59 1.18 1.29c 0 0.6 -0.26 0.99 -0.66 0.99Z "/></symbol><symbol id="gD51D1BA75A4578B9DA0C9BBB90D056B7" overflow="visible"><path d="M 0 0m 0.61 4.68c 0 -0.21 0.19 -0.39 0.4 -0.39c 0.17 0 0.47 0.18 0.47 0.4c 0 0.08 -0.02 0.14 -0.04 0.21c -0.02 0.07 -0.08 0.16 -0.08 0.24c 0 0.25 0.26 0.61 0.99 0.61c 0.36 0 0.87 -0.25 0.87 -1.21c 0 -0.64 -0.23 -1.16 -0.82 -1.76l -0.74 -0.73c -0.98 -1 -1.14 -1.48 -1.14 -2.07c 0 0 0.51 0.02 0.83 0.02h 1.75c 0.32 0 0.78 -0.02 0.78 -0.02c 0.13 0.53 0.23 1.28 0.24 1.58c -0.06 0.05 -0.19 0.07 -0.29 0.05c -0.17 -0.71 -0.34 -0.96 -0.7 -0.96h -1.78c 0 0.48 0.69 1.16 0.74 1.21l 1.01 0.97c 0.57 0.55 1 0.99 1 1.75c 0 1.08 -0.88 1.52 -1.69 1.52c -1.11 0 -1.8 -0.82 -1.8 -1.42Z "/></symbol><symbol id="g53E88946A301F5C1DCEA2C720F6596D3" overflow="visible"><path d="M 0 0m 3.19 1.89c 0 -0.95 -0.5 -1.65 -1.1 -1.65c -0.38 0 -0.51 0.25 -0.66 0.45c -0.13 0.17 -0.3 0.32 -0.51 0.32c -0.19 0 -0.38 -0.17 -0.38 -0.37c 0 -0.41 0.85 -0.75 1.42 -0.75c 1.24 0 2.12 0.92 2.12 2.18c 0 0.97 -0.67 1.84 -1.79 1.84c -0.43 0 -0.8 -0.09 -0.98 -0.16l 0.2 1.67c 0.37 -0.04 0.69 -0.09 1.17 -0.09c 0.3 0 0.64 0.02 1.05 0.06l 0.16 0.68l -0.07 0.04c -0.57 -0.06 -1.11 -0.11 -1.64 -0.11c -0.37 0 -0.73 0.02 -1.08 0.05l -0.34 -2.88c 0.53 0.2 0.91 0.24 1.27 0.24c 0.65 0 1.16 -0.43 1.16 -1.52Z "/></symbol><symbol id="gC3FB9C47AE4BC674026ABA4DF5513DF4" overflow="visible"><path d="M 0 0m 2.54 2.52c 0 0.45 -0.04 2.76 -2.12 4.56c -0.1 -0.02 -0.18 -0.09 -0.21 -0.17c 0.33 -0.38 1.5 -1.76 1.5 -4.39c 0 -2.63 -1.18 -4.01 -1.5 -4.37c 0.03 -0.1 0.1 -0.17 0.21 -0.18c 1.19 1.02 2.12 2.69 2.12 4.55Z "/></symbol><symbol id="g829D75AC8F1C9E46EE8828572BC54649" overflow="visible"><path d="M 0 0m 1.89 4.29c -0.33 0 -0.72 0.01 -1.02 0.02c -0.06 -0.06 -0.06 -0.27 0 -0.33c 0.61 -0.05 0.79 -0.09 0.75 -0.92c -0.04 -0.92 -0.2 -1.66 -0.37 -2.36c -0.06 -0.27 -0.35 -0.36 -0.63 -0.39c -0.15 -0.02 -0.29 -0.08 -0.3 -0.26l -0.06 -1.33c 0.07 -0.03 0.15 -0.04 0.27 -0.01c 0.09 0.37 0.36 1.29 1.26 1.29h 1.73c 0.89 0 1.18 -0.9 1.27 -1.3c 0.09 -0.02 0.18 -0.02 0.28 0.02l -0.06 1.34c 0 0.14 -0.08 0.22 -0.27 0.25c -0.18 0.03 -0.43 0.1 -0.43 0.47v 2.29c 0 0.82 0.13 0.87 0.68 0.91c 0.06 0.06 0.06 0.27 0 0.33c -0.3 -0.01 -0.68 -0.02 -1.08 -0.02Z m -0.28 -3.78c 0 0.17 0.27 0.83 0.42 3.12c 0.01 0.15 0.08 0.28 0.35 0.28h 0.69c 0.4 0 0.45 -0.28 0.45 -0.62v -2.41c 0 -0.33 -0.02 -0.49 -0.42 -0.49h -1.29c -0.11 0 -0.2 0.01 -0.2 0.12Z "/></symbol><symbol id="g7F8987E4FAE1707EB0E446F973D62EDC" overflow="visible"><path d="M 0 0m 1.98 0.63c -0.03 0 -0.07 0.02 -0.07 0.12v 2.28c 0 0.83 0.21 0.92 0.72 0.95c 0.06 0.06 0.06 0.27 0 0.33c -0.23 -0.01 -0.8 -0.02 -1.17 -0.02c -0.33 0 -0.73 0.01 -1.11 0.02c -0.06 -0.06 -0.06 -0.27 0 -0.33c 0.61 -0.03 0.77 -0.12 0.77 -0.95v -1.77c 0 -0.83 -0.16 -0.92 -0.77 -0.95c -0.06 -0.06 -0.06 -0.27 0 -0.33c 0.39 0.01 0.79 0.02 1.11 0.02c 0.23 0 0.5 -0.01 0.61 -0.02c 0.05 0.14 0.14 0.34 0.25 0.54l 1.56 3.13c 0.03 0 0.07 -0.02 0.07 -0.12v -2.27c 0 -0.83 -0.21 -0.92 -0.72 -0.95c -0.06 -0.06 -0.06 -0.27 0 -0.33c 0.23 0.01 0.77 0.02 1.17 0.02c 0.31 0 0.72 -0.01 1.11 -0.02c 0.06 0.06 0.06 0.27 0 0.33c -0.61 0.03 -0.77 0.12 -0.77 0.95v 1.77c 0 0.83 0.16 0.92 0.77 0.95c 0.06 0.06 0.06 0.27 0 0.33c -0.4 -0.01 -0.8 -0.02 -1.11 -0.02c -0.22 0 -0.5 0.01 -0.6 0.02c -0.08 -0.18 -0.17 -0.39 -0.26 -0.56Z m 2.15 5.27c 0 0.19 -0.14 0.33 -0.38 0.33c -0.18 0 -0.35 -0.14 -0.35 -0.31c 0 -0.03 0 -0.05 0.01 -0.07c 0.01 -0.03 0.01 -0.06 0.01 -0.09c 0 -0.22 -0.21 -0.42 -0.5 -0.42c -0.3 0 -0.5 0.21 -0.5 0.43c 0 0.02 0 0.05 0.01 0.08c 0.01 0.03 0.01 0.05 0.01 0.08c 0 0.16 -0.12 0.3 -0.34 0.3c -0.23 0 -0.39 -0.15 -0.39 -0.33c 0 -0.54 0.55 -0.87 1.2 -0.87c 0.64 0 1.22 0.32 1.22 0.87Z "/></symbol><symbol id="g2A7FE5FFBB7D8C773E81780030968208" overflow="visible"><path d="M 0 0m 1.33 1.57c 0 0.24 0.03 0.44 0.08 0.6c 0 0.1 -0.05 0.15 -0.16 0.15c -0.05 0 -0.09 -0.02 -0.11 -0.04c -0.05 -0.05 -0.62 -2.2 -0.62 -2.36c 0 -0.09 0.05 -0.14 0.15 -0.14c 0.05 0 0.12 0.05 0.21 0.16l 0.45 0.53c 0.35 -0.46 0.91 -0.69 1.67 -0.69c 0.66 0 1.24 0.27 1.76 0.8c 0.52 0.53 0.78 1.12 0.78 1.78c 0 0.47 -0.16 0.87 -0.49 1.19c -0.15 0.13 -0.35 0.24 -0.6 0.33c -0.23 0.05 -0.45 0.11 -0.67 0.17l -0.66 0.18c -0.33 0.09 -0.58 0.46 -0.58 0.86c 0 0.43 0.17 0.8 0.52 1.12c 0.35 0.32 0.74 0.48 1.17 0.48c 0.92 0 1.38 -0.5 1.38 -1.49c 0 -0.18 -0.04 -0.38 -0.04 -0.55v -0.03c 0.03 -0.07 0.08 -0.11 0.16 -0.11c 0.09 0 0.15 0.08 0.19 0.23l 0.53 2.17c 0 0.09 -0.05 0.14 -0.15 0.14c -0.05 0 -0.12 -0.05 -0.21 -0.16l -0.43 -0.52c -0.28 0.45 -0.75 0.68 -1.42 0.68c -0.63 0 -1.2 -0.24 -1.7 -0.71c -0.52 -0.48 -0.78 -1.03 -0.78 -1.66c 0 -0.72 0.47 -1.29 1.06 -1.45l 1.05 -0.27c 0.54 -0.15 0.88 -0.34 0.88 -1.01c 0 -0.46 -0.18 -0.87 -0.53 -1.23c -0.35 -0.36 -0.75 -0.55 -1.2 -0.55c -0.98 0 -1.69 0.43 -1.69 1.4Z "/></symbol><symbol id="g7679559C61795D4B2FBCEF1D6942AEE" overflow="visible"><path d="M 0 0m 6.98 3.67h -6.18c -0.16 0 -0.24 -0.08 -0.24 -0.23c 0 -0.15 0.08 -0.23 0.24 -0.23h 6.18c 0.16 0 0.24 0.08 0.24 0.23c 0 0.12 -0.11 0.23 -0.24 0.23Z m 0 -1.88h -6.18c -0.16 0 -0.24 -0.08 -0.24 -0.23c 0 -0.15 0.08 -0.23 0.24 -0.23h 6.18c 0.16 0 0.24 0.08 0.24 0.23c 0 0.13 -0.11 0.23 -0.24 0.23Z "/></symbol><symbol id="gA5379C297008FE083E855C8E8B850A03" overflow="visible"><path d="M 0 0m 3.18 -2.48c 0.09 0 0.14 0.05 0.14 0.14c 0 0.03 -0.02 0.07 -0.05 0.11c -0.52 0.4 -0.94 1.06 -1.25 1.97c -0.27 0.79 -0.41 1.57 -0.41 2.34v 0.84c 0 0.77 0.14 1.55 0.41 2.34c 0.31 0.91 0.73 1.57 1.25 1.97c 0.03 0.03 0.05 0.07 0.05 0.11c 0 0.09 -0.05 0.14 -0.14 0.14c -0.01 0 -0.04 -0.01 -0.07 -0.03c -0.6 -0.46 -1.1 -1.14 -1.51 -2.05c -0.39 -0.87 -0.59 -1.69 -0.59 -2.48v -0.84c 0 -0.79 0.2 -1.61 0.59 -2.48c 0.41 -0.91 0.91 -1.59 1.51 -2.05c 0.03 -0.02 0.06 -0.03 0.07 -0.03Z "/></symbol><symbol id="gDCB33243FA7B758E3BCD0C7DC09CD368" overflow="visible"><path d="M 0 0m 2.69 6.66c -0.41 -0.42 -1.01 -0.63 -1.8 -0.63v -0.39c 0.52 0 0.95 0.08 1.28 0.24v -5.06c 0 -0.18 -0.04 -0.3 -0.13 -0.35c -0.09 -0.05 -0.34 -0.08 -0.74 -0.08h -0.35v -0.39c 0.25 0.02 0.79 0.03 1.62 0.03c 0.83 0 1.37 -0.01 1.62 -0.03v 0.39h -0.35c -0.41 0 -0.66 0.03 -0.74 0.08c -0.08 0.05 -0.13 0.17 -0.13 0.35v 5.54c 0 0.24 -0.02 0.3 -0.28 0.3Z "/></symbol><symbol id="gE8ADFB55DBC888FEFF5896D44F418AFF" overflow="visible"><path d="M 0 0m 6.98 2.7h -6.18c -0.16 0 -0.24 -0.07 -0.24 -0.2c 0 -0.13 0.08 -0.2 0.24 -0.2h 6.18c 0.16 0 0.24 0.07 0.24 0.2c 0 0.12 -0.12 0.2 -0.24 0.2Z "/></symbol><symbol id="gBC8720471D078DB80FD85DE8E60CBD8B" overflow="visible"><path d="M 0 0m 3.55 4.42c -0.44 0 -0.86 -0.23 -1.27 -0.69c -0.11 0.46 -0.42 0.69 -0.91 0.69c -0.41 0 -0.71 -0.33 -0.92 -0.98c -0.1 -0.33 -0.15 -0.52 -0.15 -0.58c 0 -0.09 0.05 -0.14 0.16 -0.14c 0.05 0 0.08 0.01 0.11 0.03c 0.05 0.09 0.08 0.16 0.09 0.23c 0.18 0.76 0.41 1.14 0.68 1.14c 0.18 0 0.27 -0.14 0.27 -0.41c 0 -0.15 -0.02 -0.32 -0.07 -0.5l -1.1 -4.39c -0.09 -0.33 -0.1 -0.37 -0.49 -0.37c -0.18 0 -0.27 -0.08 -0.27 -0.23c 0 -0.11 0.06 -0.16 0.17 -0.16c 0.15 0 0.67 0.03 0.82 0.03c 0.19 0 0.79 -0.03 0.98 -0.03c 0.15 0 0.22 0.08 0.22 0.24c 0 0.1 -0.09 0.15 -0.28 0.15c -0.18 0 -0.45 -0.01 -0.45 0.11c 0 0.13 0.41 1.7 0.45 1.87c 0.2 -0.37 0.5 -0.56 0.9 -0.56c 0.65 0 1.22 0.33 1.72 1c 0.46 0.61 0.69 1.26 0.69 1.93c 0 0.87 -0.52 1.62 -1.35 1.62Z m -0.03 -0.3c 0.39 0 0.59 -0.3 0.59 -0.89c 0 -0.27 -0.06 -0.63 -0.17 -1.08c -0.23 -0.87 -0.52 -1.44 -0.87 -1.73c -0.21 -0.17 -0.4 -0.26 -0.59 -0.26c -0.29 0 -0.49 0.13 -0.6 0.4c -0.09 0.21 -0.14 0.36 -0.14 0.44l 0.51 2.09c 0.05 0.22 0.23 0.45 0.51 0.68c 0.28 0.23 0.53 0.35 0.76 0.35Z "/></symbol><symbol id="g62817012A814A947D74F91B268BA3C0F" overflow="visible"><path d="M 0 0m 0.78 -2.45c 0.6 0.46 1.1 1.14 1.51 2.05c 0.39 0.87 0.59 1.69 0.59 2.48v 0.84c 0 0.79 -0.2 1.61 -0.59 2.48c -0.41 0.91 -0.91 1.59 -1.51 2.05c -0.03 0.02 -0.06 0.03 -0.07 0.03c -0.09 0 -0.14 -0.05 -0.14 -0.14c 0 -0.04 0.02 -0.08 0.05 -0.11c 0.52 -0.4 0.94 -1.06 1.25 -1.97c 0.27 -0.79 0.41 -1.57 0.41 -2.34v -0.84c 0 -0.77 -0.14 -1.55 -0.41 -2.34c -0.31 -0.91 -0.73 -1.57 -1.25 -1.97c -0.03 -0.04 -0.05 -0.08 -0.05 -0.11c 0 -0.09 0.05 -0.14 0.14 -0.14c 0.01 0 0.04 0.01 0.07 0.03Z "/></symbol><symbol id="g81B4C88530E1D7011E2531255CEEA8CF" overflow="visible"><path d="M 0 0m 1.148 3.087c -0.231 0 -0.42 -0.126 -0.567 -0.385c -0.098 -0.175 -0.175 -0.357 -0.224 -0.56c -0.021 -0.077 -0.028 -0.119 -0.028 -0.133c 0 -0.077 0.049 -0.119 0.147 -0.119c 0.133 0 0.14 0.077 0.175 0.224c 0.119 0.483 0.28 0.728 0.483 0.728c 0.133 0 0.196 -0.105 0.196 -0.315c 0 -0.077 -0.035 -0.259 -0.112 -0.56l -0.371 -1.498c -0.049 -0.189 -0.07 -0.287 -0.07 -0.294c 0 -0.161 0.091 -0.245 0.266 -0.245c 0.133 0 0.231 0.056 0.294 0.168c 0.021 0.042 0.063 0.189 0.126 0.434l 0.147 0.616c 0.084 0.329 0.133 0.511 0.147 0.553c 0.056 0.182 0.14 0.357 0.259 0.518c 0.294 0.413 0.63 0.623 1.015 0.623c 0.252 0 0.378 -0.154 0.378 -0.455c 0 -0.273 -0.133 -0.756 -0.406 -1.456c -0.07 -0.182 -0.105 -0.308 -0.105 -0.385c 0 -0.378 0.308 -0.616 0.686 -0.616c 0.329 0 0.595 0.168 0.784 0.504c 0.161 0.287 0.238 0.476 0.238 0.574c 0 0.077 -0.049 0.119 -0.14 0.119c -0.049 -0.007 -0.098 -0.042 -0.147 -0.112c -0.007 -0.007 -0.007 -0.021 -0.007 -0.028c -0.161 -0.539 -0.399 -0.812 -0.707 -0.812c -0.098 0 -0.147 0.07 -0.147 0.217c 0 0.098 0.056 0.28 0.161 0.546c 0.245 0.623 0.364 1.071 0.364 1.337c 0 0.322 -0.112 0.546 -0.329 0.665c -0.175 0.098 -0.378 0.147 -0.595 0.147c -0.455 0 -0.84 -0.196 -1.148 -0.588c -0.063 0.343 -0.364 0.588 -0.763 0.588Z "/></symbol><symbol id="gE4D9A604B225CE4DF2FABF10EA31D7B8" overflow="visible"><path d="M 0 0m 1.404 1.935c 0.342 0.387 0.675 0.819 1.143 1.53c -0.018 0.09 -0.117 0.162 -0.216 0.171c -0.711 -0.765 -1.161 -1.206 -1.665 -1.647v -0.108c 0.504 -0.441 0.954 -0.873 1.665 -1.647c 0.099 0.009 0.198 0.081 0.216 0.171c -0.468 0.711 -0.801 1.152 -1.143 1.53Z m 1.62 0c 0.342 0.387 0.675 0.819 1.143 1.53c -0.018 0.09 -0.117 0.162 -0.216 0.171c -0.711 -0.765 -1.161 -1.206 -1.665 -1.647v -0.108c 0.504 -0.441 0.954 -0.873 1.665 -1.647c 0.099 0.009 0.198 0.081 0.216 0.171c -0.468 0.711 -0.801 1.152 -1.143 1.53Z "/></symbol><symbol id="g4AE5337A4A3FF09E9A9AF89B4B83FC9D" overflow="visible"><path d="M 0 0m 1.674 2.763c 0 0.513 0.063 0.747 0.378 0.747h 0.198c 0.738 0 0.954 -0.513 1.08 -1.035c 0.099 -0.009 0.189 0 0.261 0.036c -0.036 0.477 -0.063 0.873 -0.117 1.35l -0.018 0.018c 0 0 -0.72 -0.018 -1.008 -0.018h -1.134c -0.387 0 -0.702 0.009 -0.999 0.018c -0.054 -0.054 -0.054 -0.243 0 -0.297c 0.549 -0.036 0.648 -0.072 0.648 -0.819v -1.665c 0 -0.747 -0.099 -0.774 -0.648 -0.819c -0.054 -0.054 -0.054 -0.243 0 -0.297c 0.297 0.009 0.612 0.018 1.008 0.018c 0.387 0 0.711 -0.009 0.999 -0.018c 0.054 0.054 0.054 0.243 0 0.297c -0.549 0.036 -0.648 0.072 -0.648 0.819Z "/></symbol><symbol id="g7253BD4F4A12C91ABC7B03558525FA66" overflow="visible"><path d="M 0 0m 0.369 1.845c 0 -0.918 0.612 -1.935 1.89 -1.935c 0.576 0 1.017 0.207 1.323 0.504c 0.405 0.396 0.585 0.963 0.585 1.512c 0 0.936 -0.513 2.025 -1.89 2.025c -0.594 0 -1.08 -0.243 -1.413 -0.63c -0.324 -0.387 -0.495 -0.909 -0.495 -1.476Z m 1.773 1.791c 0.774 0 1.251 -0.702 1.251 -1.998c 0 -1.134 -0.585 -1.413 -1.008 -1.413c -0.936 0 -1.242 1.134 -1.242 1.827c 0 0.783 0.189 1.584 0.999 1.584Z "/></symbol><symbol id="g4AD90A9068D018AD3CEC8FD5EA9519DC" overflow="visible"><path d="M 0 0m 1.404 3.312c -0.009 0.27 -0.027 0.504 -0.072 0.594c -0.018 0.045 -0.036 0.072 -0.108 0.072c -0.252 -0.099 -0.486 -0.18 -1.107 -0.261c -0.018 -0.054 0 -0.198 0.018 -0.252c 0.486 -0.045 0.585 -0.09 0.585 -0.612v -3.843c 0 -0.747 -0.099 -0.792 -0.648 -0.819c -0.054 -0.054 -0.054 -0.243 0 -0.297c 0.315 0.009 0.648 0.018 1.008 0.018c 0.36 0 0.792 -0.009 1.089 -0.018c 0.054 0.054 0.054 0.243 0 0.297c -0.639 0.036 -0.738 0.072 -0.738 0.819v 0.972c 0 0.117 0.036 0.108 0.126 0.072c 0.225 -0.09 0.495 -0.144 0.783 -0.144c 0.504 0 0.954 0.153 1.323 0.504c 0.423 0.414 0.666 0.972 0.666 1.701c 0 0.954 -0.675 1.836 -1.593 1.836c -0.414 0 -0.873 -0.27 -1.233 -0.675c -0.054 -0.054 -0.09 -0.054 -0.099 0.036Z m 0.171 -0.333c 0.234 0.288 0.648 0.558 0.909 0.558c 0.576 0 1.071 -0.648 1.071 -1.665c 0 -0.738 -0.261 -1.656 -1.269 -1.656c -0.162 0 -0.477 0.045 -0.639 0.189c -0.18 0.162 -0.216 0.216 -0.216 0.54v 1.638c 0 0.189 0.036 0.27 0.144 0.396Z "/></symbol><symbol id="gBA3E9C2E61A84E296B252679103E17C4" overflow="visible"><path d="M 0 0m 1.701 3.861c -0.297 0 -0.648 0.009 -0.918 0.018c -0.054 -0.054 -0.054 -0.243 0 -0.297c 0.549 -0.045 0.711 -0.081 0.675 -0.828c -0.036 -0.828 -0.18 -1.494 -0.333 -2.124c -0.054 -0.243 -0.315 -0.324 -0.567 -0.351c -0.135 -0.018 -0.261 -0.072 -0.27 -0.234l -0.054 -1.197c 0.063 -0.027 0.135 -0.036 0.243 -0.009c 0.081 0.333 0.324 1.161 1.134 1.161h 1.557c 0.801 0 1.062 -0.81 1.143 -1.17c 0.081 -0.018 0.162 -0.018 0.252 0.018l -0.054 1.206c 0 0.126 -0.072 0.198 -0.243 0.225c -0.162 0.027 -0.387 0.09 -0.387 0.423v 2.061c 0 0.738 0.117 0.783 0.612 0.819c 0.054 0.054 0.054 0.243 0 0.297c -0.27 -0.009 -0.612 -0.018 -0.972 -0.018Z m -0.252 -3.402c 0 0.153 0.243 0.747 0.378 2.808c 0.009 0.135 0.072 0.252 0.315 0.252h 0.621c 0.36 0 0.405 -0.252 0.405 -0.558v -2.169c 0 -0.297 -0.018 -0.441 -0.378 -0.441h -1.161c -0.099 0 -0.18 0.009 -0.18 0.108Z "/></symbol><symbol id="g6EA5A1981697E2B5E95285C58F7F7AD0" overflow="visible"><path d="M 0 0m 1.782 0.567c -0.027 0 -0.063 0.018 -0.063 0.108v 2.052c 0 0.747 0.189 0.828 0.648 0.855c 0.054 0.054 0.054 0.243 0 0.297c -0.207 -0.009 -0.72 -0.018 -1.053 -0.018c -0.297 0 -0.657 0.009 -0.999 0.018c -0.054 -0.054 -0.054 -0.243 0 -0.297c 0.549 -0.027 0.693 -0.108 0.693 -0.855v -1.593c 0 -0.747 -0.144 -0.828 -0.693 -0.855c -0.054 -0.054 -0.054 -0.243 0 -0.297c 0.351 0.009 0.711 0.018 0.999 0.018c 0.207 0 0.45 -0.009 0.549 -0.018c 0.045 0.126 0.126 0.306 0.225 0.486l 1.404 2.817c 0.027 0 0.063 -0.018 0.063 -0.108v -2.043c 0 -0.747 -0.189 -0.828 -0.648 -0.855c -0.054 -0.054 -0.054 -0.243 0 -0.297c 0.207 0.009 0.693 0.018 1.053 0.018c 0.279 0 0.648 -0.009 0.999 -0.018c 0.054 0.054 0.054 0.243 0 0.297c -0.549 0.027 -0.693 0.108 -0.693 0.855v 1.593c 0 0.747 0.144 0.828 0.693 0.855c 0.054 0.054 0.054 0.243 0 0.297c -0.36 -0.009 -0.72 -0.018 -0.999 -0.018c -0.198 0 -0.45 0.009 -0.54 0.018c -0.072 -0.162 -0.153 -0.351 -0.234 -0.504Z "/></symbol><symbol id="g2A7A063817D03B183B2F5455DB77D169" overflow="visible"><path d="M 0 0m 6.021 0c 0.756 0 1.017 -0.72 1.134 -1.161c 0.081 -0.018 0.162 -0.018 0.234 0.009l -0.054 1.197c -0.009 0.162 -0.144 0.207 -0.27 0.234c -0.207 0.045 -0.351 0.099 -0.351 0.819v 1.665c 0 0.738 0.117 0.783 0.612 0.819c 0.054 0.054 0.054 0.243 0 0.297c -0.27 -0.009 -0.612 -0.018 -0.972 -0.018c -0.36 0 -0.63 0.009 -0.9 0.018c -0.054 -0.054 -0.054 -0.243 0 -0.297c 0.459 -0.045 0.549 -0.081 0.549 -0.819v -1.953c 0 -0.279 -0.027 -0.459 -0.378 -0.459h -1.062c -0.27 0 -0.387 0.081 -0.387 0.459v 1.953c 0.009 0.738 0.072 0.783 0.558 0.819c 0.045 0.054 0.045 0.243 0 0.297c -0.225 -0.009 -0.558 -0.018 -0.918 -0.018c -0.36 0 -0.657 0.009 -0.882 0.018c -0.045 -0.054 -0.045 -0.243 0 -0.297c 0.45 -0.036 0.54 -0.081 0.531 -0.819v -1.962c 0 -0.333 -0.045 -0.45 -0.378 -0.45h -1.026c -0.333 0 -0.387 0.099 -0.387 0.459v 1.953c 0 0.738 0.09 0.783 0.558 0.819c 0.045 0.054 0.045 0.243 0 0.297c -0.225 -0.009 -0.558 -0.018 -0.918 -0.018c -0.36 0 -0.675 0.009 -0.927 0.018c -0.045 -0.054 -0.045 -0.243 0 -0.297c 0.495 -0.036 0.576 -0.081 0.576 -0.819v -1.665c 0 -0.738 -0.117 -0.783 -0.612 -0.819c -0.054 -0.054 -0.054 -0.243 0 -0.297c 0.27 0.009 0.612 0.018 0.972 0.018Z "/></symbol><symbol id="gD351E21AD091924D522A6D2D6355C932" overflow="visible"><path d="M 0 0m 3.474 0.837c -0.333 -0.342 -0.594 -0.486 -1.116 -0.486c -0.324 0 -0.702 0.189 -0.981 0.648c -0.18 0.297 -0.288 0.711 -0.288 1.233l 2.394 -0.018c 0.108 0 0.171 0.054 0.171 0.153c 0 0.756 -0.27 1.566 -1.521 1.566c -0.783 0 -1.8 -0.747 -1.8 -2.115c 0 -0.504 0.126 -0.99 0.423 -1.332c 0.306 -0.36 0.729 -0.576 1.377 -0.576c 0.684 0 1.17 0.315 1.53 0.783c -0.027 0.09 -0.081 0.135 -0.189 0.144Z m -2.358 1.701c 0.171 1.017 0.801 1.098 1.017 1.098c 0.342 0 0.747 -0.189 0.747 -0.945c 0 -0.081 -0.036 -0.126 -0.135 -0.126Z "/></symbol><symbol id="g9C9C9262F30302871979B086E3504457" overflow="visible"><path d="M 0 0m 0.306 2.313c 0 -1.701 0.981 -2.403 1.854 -2.403c 1.233 0 1.944 0.918 1.944 2.052c 0 0.972 -0.54 1.989 -1.809 1.989c -0.855 0 -1.377 -0.504 -1.575 -0.936l -0.018 0.018c 0.036 0.468 0.18 1.044 0.315 1.278c 0.288 0.495 0.63 0.522 1.458 0.612c 0.81 0.09 1.386 0.351 1.467 1.359c -0.063 0.027 -0.126 0.036 -0.198 0c -0.072 -0.432 -0.549 -0.549 -1.305 -0.666c -0.729 -0.117 -1.341 -0.369 -1.719 -1.08c -0.324 -0.612 -0.414 -1.368 -0.414 -2.223Z m 0.774 -0.234c 0 0.504 0.18 1.557 1.116 1.557c 0.702 0 1.134 -0.81 1.134 -1.89c 0 -1.134 -0.522 -1.521 -1.008 -1.521c -0.657 0 -1.242 0.855 -1.242 1.854Z "/></symbol><symbol id="g5CCD3C35BE7C263075DDDC3F0C06DEE6" overflow="visible"><path d="M 0 0m 1.674 2.754c 0 0.756 0.099 0.783 0.648 0.828c 0.054 0.054 0.054 0.243 0 0.297c -0.306 -0.009 -0.612 -0.018 -1.008 -0.018c -0.387 0 -0.702 0.009 -0.999 0.018c -0.054 -0.054 -0.054 -0.243 0 -0.297c 0.549 -0.036 0.648 -0.072 0.648 -0.819v -1.665c 0 -0.747 -0.099 -0.774 -0.648 -0.819c -0.054 -0.054 -0.054 -0.243 0 -0.297c 0.297 0.009 0.612 0.018 1.008 0.018c 0.369 0 0.567 -0.018 0.936 -0.018c 1.107 0 1.71 0.279 1.71 1.242c 0 0.846 -0.738 1.089 -1.647 1.089h -0.648Z m 3.879 0.009c 0 0.747 0.099 0.774 0.648 0.819c 0.054 0.054 0.054 0.243 0 0.297c -0.306 -0.009 -0.612 -0.018 -1.008 -0.018c -0.387 0 -0.702 0.009 -0.999 0.018c -0.054 -0.054 -0.054 -0.243 0 -0.297c 0.549 -0.036 0.648 -0.072 0.648 -0.819v -1.665c 0 -0.747 -0.099 -0.774 -0.648 -0.819c -0.054 -0.054 -0.054 -0.243 0 -0.297c 0.297 0.009 0.612 0.018 1.008 0.018c 0.387 0 0.711 -0.009 0.999 -0.018c 0.054 0.054 0.054 0.243 0 0.297c -0.549 0.036 -0.648 0.072 -0.648 0.819Z m -2.358 -1.629c 0 -0.738 -0.45 -0.855 -0.927 -0.855c -0.441 0 -0.594 0.09 -0.594 0.405v 1.332h 0.639c 0.675 0 0.882 -0.405 0.882 -0.882Z "/></symbol><symbol id="gB118266EF18AECCCCEF724ECE6F3D1D3" overflow="visible"><path d="M 0 0m 3.762 1.098v 1.665c 0 0.738 0.117 0.783 0.612 0.819c 0.054 0.054 0.054 0.243 0 0.297c -0.27 -0.009 -0.612 -0.018 -0.972 -0.018h -1.701c -0.297 0 -0.648 0.009 -0.918 0.018c -0.054 -0.054 -0.054 -0.243 0 -0.297c 0.639 -0.045 0.729 -0.099 0.729 -1.071c 0 -0.945 -0.072 -1.44 -0.198 -1.809c -0.117 -0.324 -0.27 -0.441 -0.423 -0.441c -0.117 0 -0.153 0.072 -0.171 0.189c -0.027 0.171 -0.081 0.342 -0.333 0.342c -0.225 0 -0.351 -0.18 -0.351 -0.378c 0 -0.279 0.252 -0.522 0.666 -0.522c 0.459 0 0.711 0.234 0.918 0.72c 0.18 0.432 0.234 1.35 0.234 1.962c 0 0.702 0.027 0.936 0.387 0.936h 0.405c 0.342 0 0.405 -0.216 0.405 -0.522v -1.89c 0 -0.738 -0.09 -0.783 -0.558 -0.819c -0.045 -0.054 -0.045 -0.243 0 -0.297c 0.225 0.009 0.558 0.018 0.918 0.018c 0.36 0 0.765 -0.009 1.017 -0.018c 0.045 0.054 0.045 0.243 0 0.297c -0.585 0.036 -0.666 0.081 -0.666 0.819Z "/></symbol><symbol id="g1C332B931D1FEF774D83D90A6359918F" overflow="visible"><path d="M 0 0m 1.863 1.935c -0.333 -0.378 -0.675 -0.819 -1.143 -1.53c 0.027 -0.09 0.126 -0.162 0.216 -0.171c 0.72 0.774 1.17 1.206 1.665 1.647v 0.108c -0.495 0.441 -0.945 0.882 -1.665 1.647c -0.09 -0.009 -0.189 -0.081 -0.216 -0.171c 0.468 -0.711 0.81 -1.143 1.143 -1.53Z m 1.62 0c -0.333 -0.378 -0.675 -0.819 -1.143 -1.53c 0.027 -0.09 0.126 -0.162 0.216 -0.171c 0.72 0.774 1.17 1.206 1.665 1.647v 0.108c -0.495 0.441 -0.945 0.882 -1.665 1.647c -0.09 -0.009 -0.189 -0.081 -0.216 -0.171c 0.468 -0.711 0.81 -1.143 1.143 -1.53Z "/></symbol><symbol id="gF8536E2EA94D7AB1CE427C0DAEAD4838" overflow="visible"><path d="M 0 0m 3.0175 3.757c -0.374 0 -0.731 -0.1955 -1.0795 -0.5865c -0.0935 0.391 -0.357 0.5865 -0.7735 0.5865c -0.3485 0 -0.6035 -0.2805 -0.782 -0.833c -0.085 -0.2805 -0.1275 -0.442 -0.1275 -0.493c 0 -0.0765 0.0425 -0.119 0.136 -0.119c 0.0425 0 0.068 0.0085 0.0935 0.0255c 0.0425 0.0765 0.068 0.136 0.0765 0.1955c 0.153 0.646 0.3485 0.969 0.578 0.969c 0.153 0 0.2295 -0.119 0.2295 -0.3485c 0 -0.1275 -0.017 -0.272 -0.0595 -0.425l -0.935 -3.7315c -0.0765 -0.2805 -0.085 -0.3145 -0.4165 -0.3145c -0.153 0 -0.2295 -0.068 -0.2295 -0.1955c 0 -0.0935 0.051 -0.136 0.1445 -0.136c 0.1275 0 0.5695 0.0255 0.697 0.0255c 0.1615 0 0.6715 -0.0255 0.833 -0.0255c 0.1275 0 0.187 0.068 0.187 0.204c 0 0.085 -0.0765 0.1275 -0.238 0.1275c -0.153 0 -0.3825 -0.0085 -0.3825 0.0935c 0 0.1105 0.3485 1.445 0.3825 1.5895c 0.17 -0.3145 0.425 -0.476 0.765 -0.476c 0.5525 0 1.037 0.2805 1.462 0.85c 0.391 0.5185 0.5865 1.071 0.5865 1.6405c 0 0.7395 -0.442 1.377 -1.1475 1.377Z m -0.0255 -0.255c 0.3315 0 0.5015 -0.255 0.5015 -0.7565c 0 -0.2295 -0.051 -0.5355 -0.1445 -0.918c -0.1955 -0.7395 -0.442 -1.224 -0.7395 -1.4705c -0.1785 -0.1445 -0.34 -0.221 -0.5015 -0.221c -0.2465 0 -0.4165 0.1105 -0.51 0.34c -0.0765 0.1785 -0.119 0.306 -0.119 0.374l 0.4335 1.7765c 0.0425 0.187 0.1955 0.3825 0.4335 0.578c 0.238 0.1955 0.4505 0.2975 0.646 0.2975Z "/></symbol><symbol id="g9FA988BA2249965C7020114D496B656" overflow="visible"><path d="M 0 0m 3.944 2.6265c 0.1105 0 0.2295 0.1955 0.2295 0.2805c 0 0.068 -0.034 0.1445 -0.119 0.1445h -3.332c -0.102 0 -0.2125 -0.1615 -0.2125 -0.289c 0 -0.068 0.051 -0.136 0.1275 -0.136Z m 0 -1.411c 0.1105 0 0.2295 0.1955 0.2295 0.2805c 0 0.068 -0.034 0.1445 -0.119 0.1445h -3.332c -0.102 0 -0.2125 -0.1615 -0.2125 -0.289c 0 -0.068 0.051 -0.136 0.1275 -0.136Z "/></symbol><symbol id="gE3FE2528F38598467A4D88E2DBCB8679" overflow="visible"><path d="M 0 0m 1.938 -0.085c 0.6545 0 1.649 0.663 1.649 2.6605c 0 0.8415 -0.204 1.564 -0.578 2.057c -0.221 0.2975 -0.578 0.5525 -1.037 0.5525c -0.8415 0 -1.6405 -1.003 -1.6405 -2.686c 0 -0.9095 0.2805 -1.7595 0.748 -2.227c 0.238 -0.238 0.527 -0.357 0.8585 -0.357Z m 0.034 4.9725c 0.1445 0 0.2805 -0.051 0.3825 -0.1445c 0.2635 -0.221 0.493 -0.867 0.493 -2.006c 0 -0.782 -0.0255 -1.3175 -0.1445 -1.751c -0.187 -0.697 -0.6035 -0.7735 -0.7565 -0.7735c -0.7905 0 -0.8755 1.4535 -0.8755 2.193c 0 2.091 0.5185 2.482 0.901 2.482Z "/></symbol><symbol id="gDF3935FCC17A128C279585C276902B1A" overflow="visible"><path d="M 0 0m 0.884 0.8075c -0.2635 0 -0.4505 -0.1785 -0.4505 -0.4165c 0 -0.2635 0.221 -0.3485 0.374 -0.374c 0.1615 -0.017 0.306 -0.068 0.306 -0.2635c 0 -0.1785 -0.306 -0.5695 -0.748 -0.68c 0 -0.085 0.017 -0.1445 0.0765 -0.204c 0.51 0.0935 1.003 0.5015 1.003 1.0965c 0 0.51 -0.221 0.8415 -0.561 0.8415Z "/></symbol><symbol id="g6B6515263C8491F6898E68FFAE1136A4" overflow="visible"><path d="M 0 0m 2.7115 1.6065c 0 -0.8075 -0.425 -1.4025 -0.935 -1.4025c -0.323 0 -0.4335 0.2125 -0.561 0.3825c -0.1105 0.1445 -0.255 0.272 -0.4335 0.272c -0.1615 0 -0.323 -0.1445 -0.323 -0.3145c 0 -0.3485 0.7225 -0.6375 1.207 -0.6375c 1.054 0 1.802 0.782 1.802 1.853c 0 0.8245 -0.5695 1.564 -1.5215 1.564c -0.3655 0 -0.68 -0.0765 -0.833 -0.136l 0.17 1.4195c 0.3145 -0.034 0.5865 -0.0765 0.9945 -0.0765c 0.255 0 0.544 0.017 0.8925 0.051l 0.136 0.578l -0.0595 0.034c -0.4845 -0.051 -0.9435 -0.0935 -1.394 -0.0935c -0.3145 0 -0.6205 0.017 -0.918 0.0425l -0.289 -2.448c 0.4505 0.17 0.7735 0.204 1.0795 0.204c 0.5525 0 0.986 -0.3655 0.986 -1.292Z "/></symbol><symbol id="g7186995358F4CDEDF9956A9CB942507B" overflow="visible"><path d="M 0 0m 7.922 1.989c 0.0595 0.0255 0.0935 0.0765 0.0935 0.136c 0 0.0595 -0.034 0.1105 -0.0935 0.136c -0.408 0.136 -0.7905 0.425 -1.1475 0.867c -0.238 0.2975 -0.3995 0.646 -0.476 1.0455c -0.0255 0.1105 -0.0935 0.1615 -0.204 0.1615c -0.136 0 -0.204 -0.068 -0.204 -0.2125l 0.0085 -0.017v -0.0085c 0.1445 -0.7395 0.5185 -1.326 1.139 -1.768h -6.341c -0.136 0 -0.204 -0.068 -0.204 -0.204c 0 -0.136 0.068 -0.204 0.204 -0.204h 6.341c -0.6205 -0.442 -0.9945 -1.0285 -1.139 -1.768v -0.0085l -0.0085 -0.017c 0 -0.1445 0.068 -0.2125 0.204 -0.2125c 0.1105 0 0.1785 0.051 0.204 0.1615c 0.0765 0.3995 0.238 0.748 0.476 1.0455c 0.357 0.442 0.7395 0.731 1.1475 0.867Z "/></symbol><symbol id="gD7F3603AE07CA6EC40268D26CF17A17B" overflow="visible"><path d="M 0 0m 3.655 1.8615h -0.7055v 2.482c 0 0.425 0 0.7565 0.017 0.8245l -0.017 0.017h -0.272c -0.0595 0 -0.102 -0.051 -0.136 -0.0935c -0.5355 -0.6545 -1.5215 -2.057 -2.3035 -3.2725c 0.0255 -0.1275 0.0765 -0.357 0.3315 -0.357h 1.734v -0.782c 0 -0.391 -0.323 -0.391 -0.6885 -0.4165c -0.051 -0.051 -0.051 -0.2295 0 -0.2805c 0.272 0.0085 0.612 0.017 1.003 0.017c 0.3315 0 0.6545 -0.0085 0.9265 -0.017c 0.051 0.051 0.051 0.2295 0 0.2805c -0.4165 0.034 -0.595 0.017 -0.595 0.4165v 0.782h 0.5865c 0.119 0 0.2465 0.1615 0.2465 0.2635c 0 0.085 -0.034 0.136 -0.1275 0.136Z m -1.3515 2.448v -2.448h -1.6235c 0.4335 0.697 1.037 1.649 1.6235 2.448Z "/></symbol><symbol id="g7815E2C79248546AAEE49EC7F57ADD4E" overflow="visible"><path d="M 0 0m 3.582 0.819c -0.036 0.081 -0.108 0.117 -0.189 0.126c -0.306 -0.396 -0.693 -0.594 -1.08 -0.594c -0.657 0 -1.206 0.666 -1.206 1.719c 0 0.99 0.432 1.584 1.026 1.584c 0.531 0 0.603 -0.315 0.639 -0.63c 0.027 -0.243 0.153 -0.324 0.342 -0.324c 0.189 0 0.441 0.117 0.441 0.396c 0 0.495 -0.513 0.855 -1.377 0.855c -0.891 0 -1.845 -0.801 -1.845 -2.079c 0 -1.161 0.648 -1.962 1.782 -1.962c 0.54 0 1.017 0.171 1.467 0.909Z "/></symbol><symbol id="g611C332DF318E3AAFADBD04F1094DD79" overflow="visible"><path d="M 0 0m 1.638 1.098c 0 -0.747 -0.099 -0.792 -0.648 -0.819c -0.054 -0.054 -0.054 -0.243 0 -0.297c 0.351 0.009 0.711 0.018 1.008 0.018c 0.306 0 0.657 -0.009 0.999 -0.018c 0.054 0.054 0.054 0.243 0 0.297c -0.549 0.027 -0.648 0.072 -0.648 0.819v 2.43h 0.153c 0.729 0 0.873 -0.252 1.026 -0.981c 0.117 0 0.234 0.036 0.234 0.036c -0.054 0.414 -0.09 0.81 -0.099 1.332c -0.207 -0.018 -0.882 -0.054 -1.332 -0.054h -0.675c -0.45 0 -0.954 0.027 -1.314 0.054c -0.009 -0.522 -0.045 -0.918 -0.108 -1.332c 0 0 0.126 -0.036 0.243 -0.036c 0.153 0.729 0.288 0.981 1.026 0.981h 0.135Z "/></symbol><symbol id="gCC8431763A18574B9D70D89AC0A75466" overflow="visible"><path d="M 0 0m 1.026 0c 0.252 0.009 0.342 0.243 0.45 0.567c 0.234 0.711 0.495 1.152 0.945 1.152h 0.234v -0.621c 0 -0.747 -0.099 -0.774 -0.648 -0.819c -0.054 -0.054 -0.054 -0.243 0 -0.297c 0.297 0.009 0.612 0.018 1.008 0.018c 0.387 0 0.711 -0.009 0.999 -0.018c 0.054 0.054 0.054 0.243 0 0.297c -0.549 0.036 -0.648 0.072 -0.648 0.819v 1.665c 0 0.747 0.099 0.774 0.648 0.819c 0.054 0.054 0.054 0.243 0 0.297c -0.306 -0.009 -0.612 -0.018 -1.008 -0.018c -0.306 0 -0.567 0.018 -0.792 0.018c -1.575 0 -1.71 -0.648 -1.71 -1.134c 0 -0.585 0.45 -0.882 1.116 -0.909c 0.027 0 0.027 -0.027 0.018 -0.036c -0.342 -0.099 -0.495 -0.288 -0.648 -0.621c -0.099 -0.207 -0.18 -0.405 -0.225 -0.522c -0.117 -0.306 -0.27 -0.36 -0.621 -0.378c -0.054 -0.054 -0.054 -0.243 0 -0.297c 0.18 0.009 0.882 0.018 0.882 0.018Z m 0.252 2.889c 0 0.423 0.135 0.693 0.864 0.693c 0.369 0 0.513 -0.162 0.513 -0.504v -1.053h -0.63c -0.54 0 -0.747 0.414 -0.747 0.864Z "/></symbol><symbol id="g34E634B8D08F8B91F4ACC67018EAE93C" overflow="visible"><path d="M 0 0m 0.5185 3.978c 0 -0.1785 0.1615 -0.3315 0.34 -0.3315c 0.1445 0 0.3995 0.153 0.3995 0.34c 0 0.068 -0.017 0.119 -0.034 0.1785c -0.017 0.0595 -0.068 0.136 -0.068 0.204c 0 0.2125 0.221 0.5185 0.8415 0.5185c 0.306 0 0.7395 -0.2125 0.7395 -1.0285c 0 -0.544 -0.1955 -0.986 -0.697 -1.496l -0.629 -0.6205c -0.833 -0.85 -0.969 -1.258 -0.969 -1.7595c 0 0 0.4335 0.017 0.7055 0.017h 1.4875c 0.272 0 0.663 -0.017 0.663 -0.017c 0.1105 0.4505 0.1955 1.088 0.204 1.343c -0.051 0.0425 -0.1615 0.0595 -0.2465 0.0425c -0.1445 -0.6035 -0.289 -0.816 -0.595 -0.816h -1.513c 0 0.408 0.5865 0.986 0.629 1.0285l 0.8585 0.8245c 0.4845 0.4675 0.85 0.8415 0.85 1.4875c 0 0.918 -0.748 1.292 -1.4365 1.292c -0.9435 0 -1.53 -0.697 -1.53 -1.207Z "/></symbol><symbol id="gC93E921AEAEC051AF54DEF19CEE5AFC4" overflow="visible"><path d="M 0 0m 1.8275 4.8875c 0.3655 0 0.7055 -0.221 0.7055 -0.765c 0 -0.425 -0.493 -1.0795 -1.3345 -1.1985l 0.0425 -0.272c 0.1445 0.017 0.2975 0.017 0.408 0.017c 0.4845 0 1.1135 -0.136 1.1135 -1.0965c 0 -1.1305 -0.7565 -1.36 -1.054 -1.36c -0.4335 0 -0.51 0.1955 -0.612 0.3485c -0.085 0.119 -0.1955 0.221 -0.3655 0.221c -0.1785 0 -0.357 -0.1615 -0.357 -0.2975c 0 -0.34 0.714 -0.5695 1.224 -0.5695c 1.0115 0 1.9125 0.6545 1.9125 1.7765c 0 0.9265 -0.697 1.258 -1.1985 1.343l -0.0085 0.017c 0.697 0.3315 0.8925 0.68 0.8925 1.1305c 0 0.255 -0.0595 0.459 -0.2635 0.6715c -0.187 0.187 -0.4845 0.3315 -0.9265 0.3315c -1.2495 0 -1.6065 -0.816 -1.6065 -1.0965c 0 -0.119 0.085 -0.289 0.289 -0.289c 0.2975 0 0.3315 0.2805 0.3315 0.442c 0 0.544 0.5865 0.646 0.8075 0.646Z "/></symbol></defs></svg>