<svg viewBox="0 0 226.330708661 103.190047244" width="226.330708661pt" height="103.190047244pt" xmlns="http://www.w3.org/2000/svg" xmlns:xlink="http://www.w3.org/1999/xlink" xmlns:h5="http://www.w3.org/1999/xhtml"><path fill="#ffffff" fill-rule="nonzero" d="M 0 0v 103.190047244h 226.330708661v -103.190047244Z "/><g transform="translate(8 8)"><path fill="#c3beb4" fill-rule="nonzero" stroke="#1a1a18" stroke-width="0.6" stroke-linecap="butt" stroke-linejoin="miter" stroke-miterlimit="4" d="M 0 0v 73.700787402h 39.68503937v -73.700787402h -39.68503937Z "/><path fill="#c3beb4" fill-rule="nonzero" stroke="#1a1a18" stroke-width="0.6" stroke-linecap="butt" stroke-linejoin="miter" stroke-miterlimit="4" transform="translate(44.787401575)" d="M 0 0v 73.700787402h 39.68503937v -73.700787402h -39.68503937Z "/><path fill="#a3a597" fill-rule="nonzero" transform="translate(39.68503937 14.173228346)" d="M 0 0v 45.354330709h 5.102362205v -45.354330709h -5.102362205Z "/><path fill="none" transform="translate(14.892220472 80.054047244)" d="M 0 0h 54.688v 7.136h -54.688v -7.136Z "/><g transform="translate(14.892220346 80.054047134)"><g transform="matrix(1 0 0 -1 0 5.264)"><use xlink:href="#gE9BB349F7E32C39203BC6B218DF12838" x="0" y="0" fill="#1a1a18" fill-rule="nonzero"/><use xlink:href="#g5D01DA3AB390CB78D7E54204B7DC3F87" x="3.832" y="0" fill="#1a1a18" fill-rule="nonzero"/><use xlink:href="#gAC00C34078948F83CC62D60B02C8E81A" x="7.864" y="0" fill="#1a1a18" fill-rule="nonzero"/><use xlink:href="#gF79D9CC171E1ACC5162F855F1894F43E" x="12.168" y="0" fill="#1a1a18" fill-rule="nonzero"/><use xlink:href="#gE9BB349F7E32C39203BC6B218DF12838" x="17.824" y="0" fill="#1a1a18" fill-rule="nonzero"/><use xlink:href="#gE09E60C0AC8E2E10ADA02C2F49261352" x="23.656" y="0" fill="#1a1a18" fill-rule="nonzero"/><use xlink:href="#g46DFAA35BC521B4F2378CE697B4B163E" x="27.216" y="0" fill="#1a1a18" fill-rule="nonzero"/><use xlink:href="#g465CA45D0696F5BBCE5E7A11B5E63D98" x="31.368" y="0" fill="#1a1a18" fill-rule="nonzero"/><use xlink:href="#g775017EEFD2CB44D9D38F07A9B1E438F" x="34.944" y="0" fill="#1a1a18" fill-rule="nonzero"/><use xlink:href="#gDF0740817C60D01D4C0A2F901DD857A7" x="41.736" y="0" fill="#1a1a18" fill-rule="nonzero"/><use xlink:href="#g937124D7F3D66536776BB8DA5DFD7893" x="46.424" y="0" fill="#1a1a18" fill-rule="nonzero"/><use xlink:href="#g465CA45D0696F5BBCE5E7A11B5E63D98" x="51.112" y="0" fill="#1a1a18" fill-rule="nonzero"/></g></g><path fill="none" stroke="#1a1a18" stroke-width="0.6" stroke-linecap="butt" stroke-linejoin="miter" stroke-miterlimit="4" transform="translate(96.377952756 36.850393701)" d="M 0 0h 10.484182303"/><path fill="#1a1a18" fill-rule="nonzero" stroke="#1a1a18" stroke-width="0.6" stroke-linecap="butt" stroke-linejoin="miter" stroke-miterlimit="4" transform="translate(106.862134961 34.724409449)" d="M 0 0m 5.669291339 2.125984252l -5.669291339 2.125984252v -4.251968504l 5.669291339 2.125984252Z "/><path fill="none" transform="translate(95.631389764 25.224456693)" d="M 0 0h 18.501v 6.244h -18.501v -6.244Z "/><g transform="translate(95.631389717 25.224456614)"><g transform="matrix(1 0 0 -1 0 4.606)"><use xlink:href="#gA408CA310B3AA6A0743986FADF9C27FE" x="0" y="0" fill="#7c7f6a" fill-rule="nonzero"/><use xlink:href="#g2C8FD1FAF3F7CA18BDE7C2D379CD795D" x="4.76" y="0" fill="#7c7f6a" fill-rule="nonzero"/><use xlink:href="#gC74A9A23C1CADEB93662524CF6D2F936" x="8.288" y="0" fill="#7c7f6a" fill-rule="nonzero"/><use xlink:href="#g2C8FD1FAF3F7CA18BDE7C2D379CD795D" x="11.921" y="0" fill="#7c7f6a" fill-rule="nonzero"/><use xlink:href="#g1DB6B81222F72118B9A97DF2E8E89B41" x="15.449" y="0" fill="#7c7f6a" fill-rule="nonzero"/></g></g><path fill="#c3beb4" fill-rule="nonzero" stroke="#1a1a18" stroke-width="0.6" stroke-linecap="butt" stroke-linejoin="miter" stroke-miterlimit="4" transform="translate(119.05511811)" d="M 0 0v 73.700787402h 39.68503937v -73.700787402h -39.68503937Z "/><path fill="#c3beb4" fill-rule="nonzero" stroke="#1a1a18" stroke-width="0.6" stroke-linecap="butt" stroke-linejoin="miter" stroke-miterlimit="4" transform="translate(170.645669291)" d="M 0 0v 73.700787402h 39.68503937v -73.700787402h -39.68503937Z "/><path fill="#898c79" fill-rule="nonzero" stroke="#1a1a18" stroke-width="0.6" stroke-linecap="butt" stroke-linejoin="miter" stroke-miterlimit="4" transform="translate(158.74015748 8.503937008)" d="M 0 0v 56.692913386h 11.905511811v -56.692913386h -11.905511811Z "/><path fill="none" transform="translate(132.260913386 80.054047244)" d="M 0 0h 64.864v 7.136h -64.864v -7.136Z "/><g transform="translate(132.260913354 80.054047134)"><g transform="matrix(1 0 0 -1 0 5.264)"><use xlink:href="#gFF63DA2595F1651AF0C535BF803D9AEC" x="0" y="0" fill="#1a1a18" fill-rule="nonzero"/><use xlink:href="#g5B86C949DFB7906AEEFB9D7AF40C1424" x="4.216" y="0" fill="#1a1a18" fill-rule="nonzero"/><use xlink:href="#gAC00C34078948F83CC62D60B02C8E81A" x="7.792" y="0" fill="#1a1a18" fill-rule="nonzero"/><use xlink:href="#g6B82393DEE9EED3DAD9553B65DF3D165" x="14.096" y="0" fill="#1a1a18" fill-rule="nonzero"/><use xlink:href="#gF202C94D14936097C4B17EAD9BB679E3" x="18.496" y="0" fill="#1a1a18" fill-rule="nonzero"/><use xlink:href="#g7CDC5CF6E8BB436194E203BAC49A6B3C" x="22.216" y="0" fill="#1a1a18" fill-rule="nonzero"/><use xlink:href="#g46DFAA35BC521B4F2378CE697B4B163E" x="29.312" y="0" fill="#1a1a18" fill-rule="nonzero"/><use xlink:href="#gF79D9CC171E1ACC5162F855F1894F43E" x="33.464" y="0" fill="#1a1a18" fill-rule="nonzero"/><use xlink:href="#g9F99202881449AD6C0CCCD21824C9AF1" x="37.12" y="0" fill="#1a1a18" fill-rule="nonzero"/><use xlink:href="#gF859B786D36C3A3EB6E93A57BC4F802" x="40.544" y="0" fill="#1a1a18" fill-rule="nonzero"/><use xlink:href="#gDF0740817C60D01D4C0A2F901DD857A7" x="45.232" y="0" fill="#1a1a18" fill-rule="nonzero"/><use xlink:href="#g46DFAA35BC521B4F2378CE697B4B163E" x="49.92" y="0" fill="#1a1a18" fill-rule="nonzero"/><use xlink:href="#gF79D9CC171E1ACC5162F855F1894F43E" x="54.072" y="0" fill="#1a1a18" fill-rule="nonzero"/><use xlink:href="#g465CA45D0696F5BBCE5E7A11B5E63D98" x="57.728" y="0" fill="#1a1a18" fill-rule="nonzero"/><use xlink:href="#gE09E60C0AC8E2E10ADA02C2F49261352" x="61.304" y="0" fill="#1a1a18" fill-rule="nonzero"/></g></g><path fill="none" stroke="#7c7f6a" stroke-width="0.6" stroke-linecap="butt" stroke-linejoin="miter" stroke-miterlimit="4" transform="translate(155.342589351 36.850393701)" d="M 0 0m 1.980245295 0h -1.980245295"/><path fill="#7c7f6a" fill-rule="nonzero" stroke="#7c7f6a" stroke-width="0.6" stroke-linecap="butt" stroke-linejoin="miter" stroke-miterlimit="4" transform="translate(149.67329811 34.724409449)" d="M 0 0m 0 2.125984252l 5.669291339 -2.125984252v 4.251968504l -5.669291339 -2.125984252Z "/><path fill="none" stroke="#7c7f6a" stroke-width="0.6" stroke-linecap="butt" stroke-linejoin="miter" stroke-miterlimit="4" transform="translate(171.496062992 36.850393701)" d="M 0 0h 1.980245295"/><path fill="#7c7f6a" fill-rule="nonzero" stroke="#7c7f6a" stroke-width="0.6" stroke-linecap="butt" stroke-linejoin="miter" stroke-miterlimit="4" transform="translate(173.476308189 34.724409449)" d="M 0 0m 5.669291339 2.125984252l -5.669291339 2.125984252v -4.251968504l 5.669291339 2.125984252Z "/></g><defs><symbol id="gE9BB349F7E32C39203BC6B218DF12838" overflow="visible"><path d="M 0 0m 1.168 3.432c -0.344 0 -0.624 0.008 -0.888 0.016c -0.048 -0.048 -0.048 -0.216 0 -0.264c 0.488 -0.032 0.576 -0.064 0.576 -0.728v -1.48c 0 -0.664 -0.088 -0.688 -0.576 -0.728c -0.048 -0.048 -0.048 -0.216 0 -0.264c 0.264 0.008 0.544 0.016 0.896 0.016c 0.296 0 0.56 -0.016 1.096 -0.016c 0.688 0 1.208 0.192 1.208 0.984c 0 0.448 -0.28 0.76 -0.768 0.848v 0.024c 0.368 0.072 0.648 0.328 0.648 0.808c 0 0.56 -0.344 0.8 -1.312 0.8c -0.328 0 -0.536 -0.016 -0.88 -0.016Z m 0.32 -1.696h 0.608c 0.488 0 0.696 -0.32 0.696 -0.8c 0 -0.536 -0.304 -0.688 -0.736 -0.688c -0.416 0 -0.568 0.072 -0.568 0.44Z m 0 0.232v 0.928c 0 0.24 0.184 0.288 0.568 0.288c 0.416 0 0.664 -0.112 0.664 -0.592c 0 -0.32 -0.208 -0.624 -0.704 -0.624Z "/></symbol><symbol id="g5D01DA3AB390CB78D7E54204B7DC3F87" overflow="visible"><path d="M 0 0m 0.328 1.64c 0 -0.816 0.544 -1.72 1.68 -1.72c 0.512 0 0.904 0.184 1.176 0.448c 0.36 0.352 0.52 0.856 0.52 1.344c 0 0.832 -0.456 1.8 -1.68 1.8c -0.528 0 -0.96 -0.216 -1.256 -0.56c -0.288 -0.344 -0.44 -0.808 -0.44 -1.312Z m 1.576 1.592c 0.688 0 1.112 -0.624 1.112 -1.776c 0 -1.008 -0.52 -1.256 -0.896 -1.256c -0.832 0 -1.104 1.008 -1.104 1.624c 0 0.696 0.168 1.408 0.888 1.408Z "/></symbol><symbol id="gAC00C34078948F83CC62D60B02C8E81A" overflow="visible"><path d="M 0 0m 1.512 3.432c -0.264 0 -0.576 0.008 -0.816 0.016c -0.048 -0.048 -0.048 -0.216 0 -0.264c 0.488 -0.04 0.632 -0.072 0.6 -0.736c -0.032 -0.736 -0.16 -1.328 -0.296 -1.888c -0.048 -0.216 -0.28 -0.288 -0.504 -0.312c -0.12 -0.016 -0.232 -0.064 -0.24 -0.208l -0.048 -1.064c 0.056 -0.024 0.12 -0.032 0.216 -0.008c 0.072 0.296 0.288 1.032 1.008 1.032h 1.384c 0.712 0 0.944 -0.72 1.016 -1.04c 0.072 -0.016 0.144 -0.016 0.224 0.016l -0.048 1.072c 0 0.112 -0.064 0.176 -0.216 0.2c -0.144 0.024 -0.344 0.08 -0.344 0.376v 1.832c 0 0.656 0.104 0.696 0.544 0.728c 0.048 0.048 0.048 0.216 0 0.264c -0.24 -0.008 -0.544 -0.016 -0.864 -0.016Z m -0.224 -3.024c 0 0.136 0.216 0.664 0.336 2.496c 0.008 0.12 0.064 0.224 0.28 0.224h 0.552c 0.32 0 0.36 -0.224 0.36 -0.496v -1.928c 0 -0.264 -0.016 -0.392 -0.336 -0.392h -1.032c -0.088 0 -0.16 0.008 -0.16 0.096Z "/></symbol><symbol id="gF79D9CC171E1ACC5162F855F1894F43E" overflow="visible"><path d="M 0 0m 2.344 0.384c 0.048 -0.248 0.136 -0.464 0.536 -0.464c 0.304 0 0.592 0.136 0.76 0.296c -0.016 0.096 -0.048 0.168 -0.136 0.216c -0.056 -0.048 -0.192 -0.128 -0.296 -0.128c -0.232 0 -0.24 0.312 -0.24 0.68v 1.176c 0 1.136 -0.624 1.352 -1.208 1.352c -0.656 0 -1.32 -0.432 -1.32 -0.888c 0 -0.192 0.096 -0.288 0.28 -0.288c 0.232 0 0.376 0.168 0.376 0.272c 0 0.056 -0.008 0.112 -0.024 0.144c -0.008 0.024 -0.016 0.072 -0.016 0.16c 0 0.248 0.336 0.336 0.64 0.336c 0.272 0 0.648 -0.136 0.648 -1.04c 0 -0.056 -0.024 -0.088 -0.048 -0.096l -0.688 -0.168c -0.768 -0.192 -1.32 -0.616 -1.32 -1.16c 0 -0.656 0.448 -0.864 1.008 -0.864c 0.28 0 0.52 0.064 0.872 0.336l 0.16 0.128Z m 0 1.48v -1.056c 0 -0.104 -0.048 -0.16 -0.112 -0.208c -0.208 -0.168 -0.48 -0.352 -0.704 -0.352c -0.4 0 -0.576 0.32 -0.576 0.568c 0 0.36 0.168 0.728 0.76 0.88Z "/></symbol><symbol id="gE09E60C0AC8E2E10ADA02C2F49261352" overflow="visible"><path d="M 0 0m 1.456 0.976c 0 -0.664 -0.088 -0.704 -0.576 -0.728c -0.048 -0.048 -0.048 -0.216 0 -0.264c 0.312 0.008 0.632 0.016 0.896 0.016c 0.272 0 0.584 -0.008 0.888 -0.016c 0.048 0.048 0.048 0.216 0 0.264c -0.488 0.024 -0.576 0.064 -0.576 0.728v 2.16h 0.136c 0.648 0 0.776 -0.224 0.912 -0.872c 0.104 0 0.208 0.032 0.208 0.032c -0.048 0.368 -0.08 0.72 -0.088 1.184c -0.184 -0.016 -0.784 -0.048 -1.184 -0.048h -0.6c -0.4 0 -0.848 0.024 -1.168 0.048c -0.008 -0.464 -0.04 -0.816 -0.096 -1.184c 0 0 0.112 -0.032 0.216 -0.032c 0.136 0.648 0.256 0.872 0.912 0.872h 0.12Z "/></symbol><symbol id="g46DFAA35BC521B4F2378CE697B4B163E" overflow="visible"><path d="M 0 0m 1.248 2.944c -0.008 0.24 -0.024 0.448 -0.064 0.528c -0.016 0.04 -0.032 0.064 -0.096 0.064c -0.224 -0.088 -0.432 -0.16 -0.984 -0.232c -0.016 -0.048 0 -0.176 0.016 -0.224c 0.432 -0.04 0.52 -0.08 0.52 -0.544v -3.416c 0 -0.664 -0.088 -0.704 -0.576 -0.728c -0.048 -0.048 -0.048 -0.216 0 -0.264c 0.28 0.008 0.576 0.016 0.896 0.016c 0.32 0 0.704 -0.008 0.968 -0.016c 0.048 0.048 0.048 0.216 0 0.264c -0.568 0.032 -0.656 0.064 -0.656 0.728v 0.864c 0 0.104 0.032 0.096 0.112 0.064c 0.2 -0.08 0.44 -0.128 0.696 -0.128c 0.448 0 0.848 0.136 1.176 0.448c 0.376 0.368 0.592 0.864 0.592 1.512c 0 0.848 -0.6 1.632 -1.416 1.632c -0.368 0 -0.776 -0.24 -1.096 -0.6c -0.048 -0.048 -0.08 -0.048 -0.088 0.032Z m 0.152 -0.296c 0.208 0.256 0.576 0.496 0.808 0.496c 0.512 0 0.952 -0.576 0.952 -1.48c 0 -0.656 -0.232 -1.472 -1.128 -1.472c -0.144 0 -0.424 0.04 -0.568 0.168c -0.16 0.144 -0.192 0.192 -0.192 0.48v 1.456c 0 0.168 0.032 0.24 0.128 0.352Z "/></symbol><symbol id="g465CA45D0696F5BBCE5E7A11B5E63D98" overflow="visible"><path d="M 0 0m 3.088 0.744c -0.296 -0.304 -0.528 -0.432 -0.992 -0.432c -0.288 0 -0.624 0.168 -0.872 0.576c -0.16 0.264 -0.256 0.632 -0.256 1.096l 2.128 -0.016c 0.096 0 0.152 0.048 0.152 0.136c 0 0.672 -0.24 1.392 -1.352 1.392c -0.696 0 -1.6 -0.664 -1.6 -1.88c 0 -0.448 0.112 -0.88 0.376 -1.184c 0.272 -0.32 0.648 -0.512 1.224 -0.512c 0.608 0 1.04 0.28 1.36 0.696c -0.024 0.08 -0.072 0.12 -0.168 0.128Z m -2.096 1.512c 0.152 0.904 0.712 0.976 0.904 0.976c 0.304 0 0.664 -0.168 0.664 -0.84c 0 -0.072 -0.032 -0.112 -0.12 -0.112Z "/></symbol><symbol id="g775017EEFD2CB44D9D38F07A9B1E438F" overflow="visible"><path d="M 0 0m 5.352 0c 0.672 0 0.904 -0.64 1.008 -1.032c 0.072 -0.016 0.144 -0.016 0.208 0.008l -0.048 1.064c -0.008 0.144 -0.128 0.184 -0.24 0.208c -0.184 0.04 -0.312 0.088 -0.312 0.728v 1.48c 0 0.656 0.104 0.696 0.544 0.728c 0.048 0.048 0.048 0.216 0 0.264c -0.24 -0.008 -0.544 -0.016 -0.864 -0.016c -0.32 0 -0.56 0.008 -0.8 0.016c -0.048 -0.048 -0.048 -0.216 0 -0.264c 0.408 -0.04 0.488 -0.072 0.488 -0.728v -1.736c 0 -0.248 -0.024 -0.408 -0.336 -0.408h -0.944c -0.24 0 -0.344 0.072 -0.344 0.408v 1.736c 0.008 0.656 0.064 0.696 0.496 0.728c 0.04 0.048 0.04 0.216 0 0.264c -0.2 -0.008 -0.496 -0.016 -0.816 -0.016c -0.32 0 -0.584 0.008 -0.784 0.016c -0.04 -0.048 -0.04 -0.216 0 -0.264c 0.4 -0.032 0.48 -0.072 0.472 -0.728v -1.744c 0 -0.296 -0.04 -0.4 -0.336 -0.4h -0.912c -0.296 0 -0.344 0.088 -0.344 0.408v 1.736c 0 0.656 0.08 0.696 0.496 0.728c 0.04 0.048 0.04 0.216 0 0.264c -0.2 -0.008 -0.496 -0.016 -0.816 -0.016c -0.32 0 -0.6 0.008 -0.824 0.016c -0.04 -0.048 -0.04 -0.216 0 -0.264c 0.44 -0.032 0.512 -0.072 0.512 -0.728v -1.48c 0 -0.656 -0.104 -0.696 -0.544 -0.728c -0.048 -0.048 -0.048 -0.216 0 -0.264c 0.24 0.008 0.544 0.016 0.864 0.016Z "/></symbol><symbol id="gDF0740817C60D01D4C0A2F901DD857A7" overflow="visible"><path d="M 0 0m 1.584 0.504c -0.024 0 -0.056 0.016 -0.056 0.096v 1.824c 0 0.664 0.168 0.736 0.576 0.76c 0.048 0.048 0.048 0.216 0 0.264c -0.184 -0.008 -0.64 -0.016 -0.936 -0.016c -0.264 0 -0.584 0.008 -0.888 0.016c -0.048 -0.048 -0.048 -0.216 0 -0.264c 0.488 -0.024 0.616 -0.096 0.616 -0.76v -1.416c 0 -0.664 -0.128 -0.736 -0.616 -0.76c -0.048 -0.048 -0.048 -0.216 0 -0.264c 0.312 0.008 0.632 0.016 0.888 0.016c 0.184 0 0.4 -0.008 0.488 -0.016c 0.04 0.112 0.112 0.272 0.2 0.432l 1.248 2.504c 0.024 0 0.056 -0.016 0.056 -0.096v -1.816c 0 -0.664 -0.168 -0.736 -0.576 -0.76c -0.048 -0.048 -0.048 -0.216 0 -0.264c 0.184 0.008 0.616 0.016 0.936 0.016c 0.248 0 0.576 -0.008 0.888 -0.016c 0.048 0.048 0.048 0.216 0 0.264c -0.488 0.024 -0.616 0.096 -0.616 0.76v 1.416c 0 0.664 0.128 0.736 0.616 0.76c 0.048 0.048 0.048 0.216 0 0.264c -0.32 -0.008 -0.64 -0.016 -0.888 -0.016c -0.176 0 -0.4 0.008 -0.48 0.016c -0.064 -0.144 -0.136 -0.312 -0.208 -0.448Z "/></symbol><symbol id="g937124D7F3D66536776BB8DA5DFD7893" overflow="visible"><path d="M 0 0m 3.832 2.456c 0 0.664 0.088 0.688 0.576 0.728c 0.048 0.048 0.048 0.216 0 0.264c -0.28 -0.016 -0.632 -0.016 -0.896 -0.016c -0.224 0 -0.544 0.008 -0.856 0.016c -0.048 -0.048 -0.048 -0.216 0 -0.264c 0.488 -0.032 0.544 -0.064 0.544 -0.728v -0.52h -1.712v 0.52c 0 0.664 0.056 0.688 0.544 0.728c 0.048 0.048 0.048 0.216 0 0.264c -0.304 -0.008 -0.608 -0.016 -0.864 -0.016c -0.24 0 -0.568 0.008 -0.888 0.016c -0.048 -0.048 -0.048 -0.216 0 -0.264c 0.488 -0.032 0.576 -0.064 0.576 -0.728v -1.48c 0 -0.664 -0.088 -0.688 -0.576 -0.728c -0.048 -0.048 -0.048 -0.216 0 -0.264c 0.32 0.008 0.64 0.016 0.896 0.016c 0.256 0 0.568 -0.008 0.856 -0.016c 0.048 0.048 0.048 0.216 0 0.264c -0.488 0.032 -0.544 0.064 -0.544 0.728v 0.696h 1.712v -0.696c 0 -0.664 -0.056 -0.688 -0.544 -0.728c -0.048 -0.048 -0.048 -0.216 0 -0.264c 0.288 0.008 0.584 0.016 0.864 0.016c 0.24 0 0.576 -0.008 0.888 -0.016c 0.048 0.048 0.048 0.216 0 0.264c -0.488 0.032 -0.576 0.064 -0.576 0.728Z "/></symbol><symbol id="gA408CA310B3AA6A0743986FADF9C27FE" overflow="visible"><path d="M 0 0m 0.819 2.142l -0.042 -1.302c -0.021 -0.588 -0.126 -0.602 -0.532 -0.623c -0.042 -0.042 -0.042 -0.189 0 -0.231c 0.14 0.007 0.49 0.014 0.602 0.014c 0.14 0 0.469 -0.007 0.609 -0.014c 0.042 0.042 0.042 0.189 0 0.231c -0.399 0.028 -0.427 0.098 -0.413 0.623l 0.049 1.715c 0 0.063 0.028 0.063 0.056 0l 1.015 -2.478c 0.028 -0.021 0.056 -0.021 0.077 0l 1.148 2.471c 0.035 0.077 0.07 0.084 0.07 0l -0.007 -1.694c 0 -0.581 -0.049 -0.602 -0.476 -0.637c -0.042 -0.042 -0.042 -0.189 0 -0.231c 0.252 0.007 0.511 0.014 0.756 0.014c 0.21 0 0.511 -0.007 0.784 -0.014c 0.042 0.042 0.042 0.189 0 0.231c -0.427 0.028 -0.504 0.056 -0.504 0.637l -0.014 1.295c -0.007 0.581 0.077 0.602 0.504 0.637c 0.042 0.042 0.042 0.189 0 0.231c -0.245 -0.014 -0.924 -0.014 -1.155 -0.014l -0.931 -2.002l -0.035 -0.07l -0.028 0.07l -0.819 2.002c -0.231 0 -0.973 0 -1.218 0.014c -0.042 -0.042 -0.042 -0.189 0 -0.231c 0.427 -0.035 0.525 -0.063 0.504 -0.644Z "/></symbol><symbol id="g2C8FD1FAF3F7CA18BDE7C2D379CD795D" overflow="visible"><path d="M 0 0m 0.287 1.435c 0 -0.714 0.476 -1.505 1.47 -1.505c 0.448 0 0.791 0.161 1.029 0.392c 0.315 0.308 0.455 0.749 0.455 1.176c 0 0.728 -0.399 1.575 -1.47 1.575c -0.462 0 -0.84 -0.189 -1.099 -0.49c -0.252 -0.301 -0.385 -0.707 -0.385 -1.148Z m 1.379 1.393c 0.602 0 0.973 -0.546 0.973 -1.554c 0 -0.882 -0.455 -1.099 -0.784 -1.099c -0.728 0 -0.966 0.882 -0.966 1.421c 0 0.609 0.147 1.232 0.777 1.232Z "/></symbol><symbol id="gC74A9A23C1CADEB93662524CF6D2F936" overflow="visible"><path d="M 0 0m 1.092 2.576c -0.007 0.21 -0.021 0.392 -0.056 0.462c -0.014 0.035 -0.028 0.056 -0.084 0.056c -0.196 -0.077 -0.378 -0.14 -0.861 -0.203c -0.014 -0.042 0 -0.154 0.014 -0.196c 0.378 -0.035 0.455 -0.07 0.455 -0.476v -2.989c 0 -0.581 -0.077 -0.616 -0.504 -0.637c -0.042 -0.042 -0.042 -0.189 0 -0.231c 0.245 0.007 0.504 0.014 0.784 0.014c 0.28 0 0.616 -0.007 0.847 -0.014c 0.042 0.042 0.042 0.189 0 0.231c -0.497 0.028 -0.574 0.056 -0.574 0.637v 0.756c 0 0.091 0.028 0.084 0.098 0.056c 0.175 -0.07 0.385 -0.112 0.609 -0.112c 0.392 0 0.742 0.119 1.029 0.392c 0.329 0.322 0.518 0.756 0.518 1.323c 0 0.742 -0.525 1.428 -1.239 1.428c -0.322 0 -0.679 -0.21 -0.959 -0.525c -0.042 -0.042 -0.07 -0.042 -0.077 0.028Z m 0.133 -0.259c 0.182 0.224 0.504 0.434 0.707 0.434c 0.448 0 0.833 -0.504 0.833 -1.295c 0 -0.574 -0.203 -1.288 -0.987 -1.288c -0.126 0 -0.371 0.035 -0.497 0.147c -0.14 0.126 -0.168 0.168 -0.168 0.42v 1.274c 0 0.147 0.028 0.21 0.112 0.308Z "/></symbol><symbol id="g1DB6B81222F72118B9A97DF2E8E89B41" overflow="visible"><path d="M 0 0m 0.301 0.581c 0 -0.154 0.091 -0.266 0.238 -0.378c 0.175 -0.126 0.406 -0.273 0.959 -0.273c 0.7 0 1.246 0.21 1.246 0.903c 0 0.42 -0.21 0.7 -0.707 0.784v 0.021c 0.427 0.161 0.539 0.357 0.539 0.721c 0 0.406 -0.28 0.714 -0.987 0.714c -0.371 0 -0.7 -0.133 -1.078 -0.196l -0.091 -0.833c 0.056 -0.028 0.126 -0.035 0.189 -0.028c 0.133 0.406 0.308 0.812 0.896 0.812c 0.385 0 0.511 -0.231 0.511 -0.511c 0 -0.287 -0.049 -0.623 -0.497 -0.623c -0.133 0 -0.252 0.042 -0.385 0.042c -0.063 0 -0.133 -0.042 -0.133 -0.154c 0 -0.112 0.077 -0.147 0.14 -0.147c 0.133 0 0.21 0.042 0.385 0.042c 0.518 0 0.616 -0.357 0.616 -0.665c 0 -0.413 -0.154 -0.637 -0.651 -0.637c -0.399 0 -0.469 0.147 -0.588 0.399c -0.056 0.126 -0.133 0.224 -0.315 0.224c -0.126 0 -0.287 -0.105 -0.287 -0.217Z "/></symbol><symbol id="gFF63DA2595F1651AF0C535BF803D9AEC" overflow="visible"><path d="M 0 0m 3.344 0.976v 1.48c 0 0.656 0.104 0.696 0.544 0.728c 0.048 0.048 0.048 0.216 0 0.264c -0.24 -0.008 -0.544 -0.016 -0.864 -0.016h -1.512c -0.264 0 -0.576 0.008 -0.816 0.016c -0.048 -0.048 -0.048 -0.216 0 -0.264c 0.568 -0.04 0.648 -0.088 0.648 -0.952c 0 -0.84 -0.064 -1.28 -0.176 -1.608c -0.104 -0.288 -0.24 -0.392 -0.376 -0.392c -0.104 0 -0.136 0.064 -0.152 0.168c -0.024 0.152 -0.072 0.304 -0.296 0.304c -0.2 0 -0.312 -0.16 -0.312 -0.336c 0 -0.248 0.224 -0.464 0.592 -0.464c 0.408 0 0.632 0.208 0.816 0.64c 0.16 0.384 0.208 1.2 0.208 1.744c 0 0.624 0.024 0.832 0.344 0.832h 0.36c 0.304 0 0.36 -0.192 0.36 -0.464v -1.68c 0 -0.656 -0.08 -0.696 -0.496 -0.728c -0.04 -0.048 -0.04 -0.216 0 -0.264c 0.2 0.008 0.496 0.016 0.816 0.016c 0.32 0 0.68 -0.008 0.904 -0.016c 0.04 0.048 0.04 0.216 0 0.264c -0.52 0.032 -0.592 0.072 -0.592 0.728Z "/></symbol><symbol id="g5B86C949DFB7906AEEFB9D7AF40C1424" overflow="visible"><path d="M 0 0m 3.088 0.744c -0.296 -0.304 -0.528 -0.432 -0.992 -0.432c -0.288 0 -0.624 0.168 -0.872 0.576c -0.16 0.264 -0.256 0.632 -0.256 1.096l 2.128 -0.016c 0.096 0 0.152 0.048 0.152 0.136c 0 0.672 -0.24 1.392 -1.352 1.392c -0.696 0 -1.6 -0.664 -1.6 -1.88c 0 -0.448 0.112 -0.88 0.376 -1.184c 0.272 -0.32 0.648 -0.512 1.224 -0.512c 0.608 0 1.04 0.28 1.36 0.696c -0.024 0.08 -0.072 0.12 -0.168 0.128Z m -2.096 1.512c 0.152 0.904 0.712 0.976 0.904 0.976c 0.304 0 0.664 -0.168 0.664 -0.84c 0 -0.072 -0.032 -0.112 -0.12 -0.112Z m -0.2 2.344c 0 -0.208 0.168 -0.376 0.376 -0.376c 0.208 0 0.376 0.168 0.376 0.376c 0 0.208 -0.168 0.384 -0.376 0.384c -0.208 0 -0.376 -0.176 -0.376 -0.384Z m 1.352 0c 0 -0.208 0.168 -0.376 0.376 -0.376c 0.208 0 0.376 0.168 0.376 0.376c 0 0.208 -0.168 0.384 -0.376 0.384c -0.208 0 -0.376 -0.176 -0.376 -0.384Z "/></symbol><symbol id="g6B82393DEE9EED3DAD9553B65DF3D165" overflow="visible"><path d="M 0 0m 2 3.48v -1.272h -1.32c -0.096 0 -0.2 -0.152 -0.2 -0.272c 0 -0.064 0.048 -0.128 0.12 -0.128h 1.4v -1.36c 0 -0.072 0.064 -0.12 0.128 -0.12c 0.12 0 0.272 0.104 0.272 0.2v 1.28h 1.304c 0.104 0 0.216 0.184 0.216 0.264c 0 0.064 -0.032 0.136 -0.112 0.136h -1.408v 1.376c 0 0.08 -0.072 0.112 -0.136 0.112c -0.08 0 -0.264 -0.112 -0.264 -0.216Z "/></symbol><symbol id="gF202C94D14936097C4B17EAD9BB679E3" overflow="visible"><path d="M 0 0m 2.616 2.048c -0.216 -0.728 -0.728 -1.536 -1.792 -1.936c 0 -0.096 0.032 -0.168 0.096 -0.208c 0.808 0.24 1.304 0.576 1.752 1.096c 0.496 0.576 0.744 1.304 0.744 1.936c 0 1.624 -0.92 1.944 -1.536 1.944c -1.048 0 -1.48 -1.016 -1.48 -1.704c 0 -0.688 0.368 -1.304 1.456 -1.304c 0.208 0 0.52 0.064 0.76 0.176Z m 0.072 0.288c -0.264 -0.176 -0.528 -0.184 -0.664 -0.184c -0.784 0 -0.96 0.768 -0.96 1.168c 0 0.88 0.336 1.28 0.728 1.28c 0.504 0 0.96 -0.272 0.96 -1.64c 0 -0.176 -0.016 -0.392 -0.064 -0.624Z "/></symbol><symbol id="g7CDC5CF6E8BB436194E203BAC49A6B3C" overflow="visible"><path d="M 0 0m 2.912 4.168c -0.144 0 -0.424 0 -0.856 0.2c -0.08 0.096 -0.312 0.2 -0.536 0.2c -0.576 0 -1.064 -0.568 -1.064 -1.272c 0 -0.408 0.24 -0.872 0.736 -0.872c 0.672 0 1.024 0.904 1.024 1.416c 0 0.072 -0.008 0.144 -0.024 0.2c 0.152 -0.088 0.456 -0.168 0.64 -0.168c 0.24 0 0.552 0.032 0.856 0.152l -2.872 -4l 0.272 -0.12l 3.28 4.568l -0.256 0.128c -0.248 -0.336 -0.864 -0.432 -1.2 -0.432Z m 0.112 -3.384c 0 -0.424 0.256 -0.88 0.744 -0.88c 0.664 0 1.016 0.88 1.016 1.416c 0 0.584 -0.368 0.728 -0.688 0.728c -0.592 0 -1.072 -0.608 -1.072 -1.264Z m -2.136 2.4c 0 0.464 0.328 1.136 0.72 1.136c 0.144 0 0.344 -0.088 0.344 -0.488c 0 -0.464 -0.272 -1.16 -0.712 -1.16c -0.144 0 -0.352 0.096 -0.352 0.512Z m 2.576 -2.52c 0 0.464 0.328 1.136 0.72 1.136c 0.112 0 0.336 -0.072 0.336 -0.488c 0 -0.448 -0.264 -1.16 -0.704 -1.16c -0.152 0 -0.352 0.096 -0.352 0.512Z "/></symbol><symbol id="g9F99202881449AD6C0CCCD21824C9AF1" overflow="visible"><path d="M 0 0m 3.184 0.728c -0.032 0.072 -0.096 0.104 -0.168 0.112c -0.272 -0.352 -0.616 -0.528 -0.96 -0.528c -0.584 0 -1.072 0.592 -1.072 1.528c 0 0.88 0.384 1.408 0.912 1.408c 0.472 0 0.536 -0.28 0.568 -0.56c 0.024 -0.216 0.136 -0.288 0.304 -0.288c 0.168 0 0.392 0.104 0.392 0.352c 0 0.44 -0.456 0.76 -1.224 0.76c -0.792 0 -1.64 -0.712 -1.64 -1.848c 0 -1.032 0.576 -1.744 1.584 -1.744c 0.48 0 0.904 0.152 1.304 0.808Z "/></symbol><symbol id="gF859B786D36C3A3EB6E93A57BC4F802" overflow="visible"><path d="M 0 0m 3.496 3.432h -2.272c -0.32 0 -0.624 0.008 -0.864 0.016c -0.048 -0.048 -0.048 -0.216 0 -0.264c 0.44 -0.032 0.544 -0.072 0.544 -0.728v -1.48c 0 -0.656 -0.104 -0.696 -0.624 -0.728c -0.048 -0.048 -0.048 -0.216 0 -0.264c 0.24 0.008 0.624 0.016 0.944 0.016c 0.32 0 0.56 -0.008 0.8 -0.016c 0.048 0.048 0.048 0.216 0 0.264c -0.408 0.04 -0.488 0.072 -0.488 0.728v 1.736c 0 0.248 0.024 0.408 0.336 0.408h 0.968c 0.296 0 0.344 -0.088 0.344 -0.408v -1.736c 0 -0.656 -0.08 -0.696 -0.496 -0.728c -0.04 -0.048 -0.04 -0.216 0 -0.264c 0.2 0.008 0.496 0.016 0.816 0.016c 0.32 0 0.68 -0.008 0.904 -0.016c 0.04 0.048 0.04 0.216 0 0.264c -0.52 0.032 -0.592 0.072 -0.592 0.728v 1.48c 0 0.656 0.104 0.696 0.544 0.728c 0.048 0.048 0.048 0.216 0 0.264c -0.24 -0.008 -0.544 -0.016 -0.864 -0.016Z "/></symbol></defs></svg>