<svg viewBox="0 0 217.751968504 128.163818898" width="217.751968504pt" height="128.163818898pt" xmlns="http://www.w3.org/2000/svg" xmlns:xlink="http://www.w3.org/1999/xlink" xmlns:h5="http://www.w3.org/1999/xhtml"><path fill="#ffffff" fill-rule="nonzero" d="M 0 0v 128.163818898h 217.751968504v -128.163818898Z "/><g transform="translate(8 8)"><path fill="none" stroke="#1a1a18" stroke-width="0.6" stroke-linecap="butt" stroke-linejoin="miter" stroke-miterlimit="4" transform="translate(23.169291339 99.735452756)" d="M 0 0h 172.058985452"/><path fill="#1a1a18" fill-rule="nonzero" stroke="#1a1a18" stroke-width="0.6" stroke-linecap="butt" stroke-linejoin="miter" stroke-miterlimit="4" transform="translate(195.228276693 97.609468504)" d="M 0 0m 5.669291339 2.125984252l -5.669291339 2.125984252v -4.251968504l 5.669291339 2.125984252Z "/><path fill="none" stroke="#1a1a18" stroke-width="0.6" stroke-linecap="butt" stroke-linejoin="miter" stroke-miterlimit="4" transform="translate(23.169291339 9.881191713)" d="M 0 0m 0 89.854261043v -89.854261043"/><path fill="#1a1a18" fill-rule="nonzero" stroke="#1a1a18" stroke-width="0.6" stroke-linecap="butt" stroke-linejoin="miter" stroke-miterlimit="4" transform="translate(21.043307087 4.211900472)" d="M 0 0m 2.125984252 0l 2.125984252 5.669291339h -4.251968504l 2.125984252 -5.669291339Z "/><path fill="none" transform="translate(183.204968504 105.448818898)" d="M 0 0h 18.547v 6.715h -18.547v -6.715Z "/><g transform="translate(183.204968425 105.448818866)"><g transform="matrix(1 0 0 -1 0 5.593)"><use xlink:href="#gC8D6D5492F0FFEF84F8079BC5341E7A6" x="0" y="0" fill="#7c7f6a" fill-rule="nonzero"/><use xlink:href="#gE34E15A46C94CBC2E6ABE8844A1DDB21" x="3.536" y="0" fill="#7c7f6a" fill-rule="nonzero"/><use xlink:href="#gBAF1B227155053221F22F6E06EEFED60" x="7.82" y="0" fill="#7c7f6a" fill-rule="nonzero"/><use xlink:href="#g263F4FD32CCD3C47111457350A4C543D" x="12.393" y="0" fill="#7c7f6a" fill-rule="nonzero"/></g></g><path fill="none" transform="translate(27.421259843)" d="M 0 0h 30.26v 6.715h -30.26v -6.715Z "/><g transform="translate(27.42125978 -3.1e-8)"><g transform="matrix(1 0 0 -1 0 5.593)"><use xlink:href="#gBAF1B227155053221F22F6E06EEFED60" x="0" y="0" fill="#7c7f6a" fill-rule="nonzero"/><use xlink:href="#gE34E15A46C94CBC2E6ABE8844A1DDB21" x="4.573" y="0" fill="#7c7f6a" fill-rule="nonzero"/><use xlink:href="#gB3F6F741CFF64E2F87AE274E4C795DAE" x="8.857" y="0" fill="#7c7f6a" fill-rule="nonzero"/><use xlink:href="#gEF5DE670D307ABF3FAA7AE7F58FA196F" x="13.3365" y="0" fill="#7c7f6a" fill-rule="nonzero"/><use xlink:href="#gB9938806A05440DD6FFC987390502D24" x="19.55" y="0" fill="#7c7f6a" fill-rule="nonzero"/><use xlink:href="#gD2DB2061AE0EA809B6698BD47B107ED1" x="22.1595" y="0" fill="#7c7f6a" fill-rule="nonzero"/></g><g transform="matrix(1 0 0 -1 24.769 5.593)"><use xlink:href="#gF3FF310DD78D490221D189C5F51C1BB1" x="0" y="0" fill="#7c7f6a" fill-rule="nonzero"/></g></g><path fill="none" stroke="#1a1a18" stroke-width="1.4" stroke-linecap="butt" stroke-linejoin="miter" stroke-miterlimit="4" transform="translate(23.169291339 14.696082677)" d="M 0 0l 3.543307087 7.057923885l 3.543307087 6.472144739l 3.543307087 5.934982894l 3.543307087 5.44240331l 3.543307087 4.99070584l 3.543307087 4.576497434l 3.543307087 4.196666651l 3.543307087 3.848360287l 3.543307087 3.528961942l 3.543307087 3.23607237l 3.543307087 2.967491447l 3.543307087 2.721201655l 3.543307087 2.49535292l 3.543307087 2.288248717l 3.543307087 2.098333325l 3.543307087 1.924180143l 3.543307087 1.764480971l 3.543307087 1.618036185l 3.543307087 1.483745723l 3.543307087 1.360600828l 3.543307087 1.24767646l 3.543307087 1.144124358l 3.543307087 1.049166663l 3.543307087 0.962090072l 3.543307087 0.882240486l 3.543307087 0.809018092l 3.543307087 0.741872862l 3.543307087 0.680300414l 3.543307087 0.62383823l 3.543307087 0.572062179l 3.543307087 0.524583331l 3.543307087 0.481045036l 3.543307087 0.441120243l 3.543307087 0.404509046l 3.543307087 0.370936431l 3.543307087 0.340150207l 3.543307087 0.311919115l 3.543307087 0.28603109l 3.543307087 0.262291666l 3.543307087 0.240522518l 3.543307087 0.220560121l 3.543307087 0.202254523l 3.543307087 0.185468215l 3.543307087 0.170075103l 3.543307087 0.155959558l 3.543307087 0.143015545l 3.543307087 0.131145833l 3.543307087 0.120261259"/><path fill="none" stroke="#1a1a18" stroke-width="0.6" stroke-linecap="butt" stroke-linejoin="miter" stroke-miterlimit="4" transform="translate(20.334645669 14.696082677)" d="M 0 0h 5.669291339"/><path fill="none" transform="translate(14 12.305582677)" d="M 0 0h 3.5v 4.781h -3.5v -4.781Z "/><g transform="translate(13.99999989 12.305582614)"><g transform="matrix(1 0 0 -1 0 4.781)"><use xlink:href="#gEE39941251B52A5B3E1406C8F73FACE3" x="0" y="0" fill="#1a1a18" fill-rule="nonzero"/></g></g><path fill="none" stroke="#1a1a18" stroke-width="0.6" stroke-linecap="butt" stroke-linejoin="miter" stroke-miterlimit="4" transform="translate(23.169291339 96.900807087)" d="M 0 0m 0 5.669291339v -5.669291339"/><path fill="none" transform="translate(21.658041339 106.635318898)" d="M 0 0h 3.0225v 4.342h -3.0225v -4.342Z "/><g transform="translate(21.658041244 106.635318772)"><g transform="matrix(1 0 0 -1 0 4.277)"><use xlink:href="#g8810ECE1E693236E51BADD835CE25BCE" x="0" y="0" fill="#1a1a18" fill-rule="nonzero"/></g></g><path fill="none" stroke="#1a1a18" stroke-width="0.6" stroke-linecap="butt" stroke-linejoin="miter" stroke-miterlimit="4" transform="translate(20.334645669 57.215767717)" d="M 0 0h 5.669291339"/><path fill="none" transform="translate(3.5 53.950267717)" d="M 0 0h 14v 6.531h -14v -6.531Z "/><g transform="translate(3.499999984 53.950267669)"><g transform="matrix(1 0 0 -1 0 4.781)"><use xlink:href="#gEE39941251B52A5B3E1406C8F73FACE3" x="0" y="0" fill="#1a1a18" fill-rule="nonzero"/><use xlink:href="#gFDD16C1599CC055AD80DFE5D214C8C36" x="3.5" y="0" fill="#1a1a18" fill-rule="nonzero"/><use xlink:href="#g62E1EE4766495B6A7E1E179EB72D1165" x="7" y="0" fill="#1a1a18" fill-rule="nonzero"/><use xlink:href="#g86F7515C030429063388C2091316D5B3" x="10.5" y="0" fill="#1a1a18" fill-rule="nonzero"/></g></g><path fill="none" stroke="#1a1a18" stroke-width="0.6" stroke-linecap="butt" stroke-linejoin="miter" stroke-miterlimit="4" transform="translate(51.515748031 96.900807087)" d="M 0 0m 0 5.669291339v -5.669291339"/><path fill="none" transform="translate(45.470748031 106.625568898)" d="M 0 0h 12.09v 4.3615h -12.09v -4.3615Z "/><g transform="translate(45.470747937 106.625568866)"><g transform="matrix(1 0 0 -1 0 4.277)"><use xlink:href="#g22022A3B2BB7179C5EB401622BD4A20A" x="0" y="0" fill="#1a1a18" fill-rule="nonzero"/><use xlink:href="#gBAE9384296257CB3DD7449F248B3C475" x="3.0225" y="0" fill="#1a1a18" fill-rule="nonzero"/><use xlink:href="#gD5509C92469AEE87750B17B31D05379" x="6.045" y="0" fill="#1a1a18" fill-rule="nonzero"/><use xlink:href="#g8810ECE1E693236E51BADD835CE25BCE" x="9.0675" y="0" fill="#1a1a18" fill-rule="nonzero"/></g></g><path fill="none" stroke="#1a1a18" stroke-width="0.6" stroke-linecap="butt" stroke-linejoin="miter" stroke-miterlimit="4" transform="translate(20.334645669 78.475610236)" d="M 0 0h 5.669291339"/><path fill="none" transform="translate(3.5 75.210110236)" d="M 0 0h 14v 6.531h -14v -6.531Z "/><g transform="translate(3.499999984 75.210110189)"><g transform="matrix(1 0 0 -1 0 4.781)"><use xlink:href="#gEE39941251B52A5B3E1406C8F73FACE3" x="0" y="0" fill="#1a1a18" fill-rule="nonzero"/><use xlink:href="#gFDD16C1599CC055AD80DFE5D214C8C36" x="3.5" y="0" fill="#1a1a18" fill-rule="nonzero"/><use xlink:href="#g62E1EE4766495B6A7E1E179EB72D1165" x="7" y="0" fill="#1a1a18" fill-rule="nonzero"/><use xlink:href="#g5537D0DB4C109823A5700B5B666A8FA9" x="10.5" y="0" fill="#1a1a18" fill-rule="nonzero"/></g></g><path fill="none" stroke="#1a1a18" stroke-width="0.6" stroke-linecap="butt" stroke-linejoin="miter" stroke-miterlimit="4" transform="translate(79.862204724 96.900807087)" d="M 0 0m 0 5.669291339v -5.669291339"/><path fill="none" transform="translate(72.305954724 106.632068898)" d="M 0 0h 15.1125v 4.3485h -15.1125v -4.3485Z "/><g transform="translate(72.305954677 106.63206885)"><g transform="matrix(1 0 0 -1 0 4.277)"><use xlink:href="#g7367FA0D079087AA0F4241A69F6F3934" x="0" y="0" fill="#1a1a18" fill-rule="nonzero"/><use xlink:href="#g7367FA0D079087AA0F4241A69F6F3934" x="3.0225" y="0" fill="#1a1a18" fill-rule="nonzero"/><use xlink:href="#g989DB3914DBF94EC9B64221F100A1F1F" x="6.045" y="0" fill="#1a1a18" fill-rule="nonzero"/><use xlink:href="#gF579B9FB3601BA91D91B278A0952366A" x="9.0675" y="0" fill="#1a1a18" fill-rule="nonzero"/><use xlink:href="#g8810ECE1E693236E51BADD835CE25BCE" x="12.09" y="0" fill="#1a1a18" fill-rule="nonzero"/></g></g><path fill="none" stroke="#1a1a18" stroke-width="0.6" stroke-linecap="butt" stroke-linejoin="miter" stroke-miterlimit="4" transform="translate(20.334645669 89.105531496)" d="M 0 0h 5.669291339"/><path fill="none" transform="translate(3.5 85.840031496)" d="M 0 0h 14v 6.531h -14v -6.531Z "/><g transform="translate(3.499999984 85.840031449)"><g transform="matrix(1 0 0 -1 0 4.781)"><use xlink:href="#gEE39941251B52A5B3E1406C8F73FACE3" x="0" y="0" fill="#1a1a18" fill-rule="nonzero"/><use xlink:href="#gFDD16C1599CC055AD80DFE5D214C8C36" x="3.5" y="0" fill="#1a1a18" fill-rule="nonzero"/><use xlink:href="#g62E1EE4766495B6A7E1E179EB72D1165" x="7" y="0" fill="#1a1a18" fill-rule="nonzero"/><use xlink:href="#gD07DF4AE43AB83DAB2C49CD537142568" x="10.5" y="0" fill="#1a1a18" fill-rule="nonzero"/></g></g><path fill="none" stroke="#1a1a18" stroke-width="0.6" stroke-linecap="butt" stroke-linejoin="miter" stroke-miterlimit="4" transform="translate(108.208661417 96.900807087)" d="M 0 0m 0 5.669291339v -5.669291339"/><path fill="none" transform="translate(100.652411417 106.625568898)" d="M 0 0h 15.1125v 4.3615h -15.1125v -4.3615Z "/><g transform="translate(100.65241137 106.625568866)"><g transform="matrix(1 0 0 -1 0 4.277)"><use xlink:href="#g7367FA0D079087AA0F4241A69F6F3934" x="0" y="0" fill="#1a1a18" fill-rule="nonzero"/><use xlink:href="#gBAE9384296257CB3DD7449F248B3C475" x="3.0225" y="0" fill="#1a1a18" fill-rule="nonzero"/><use xlink:href="#g7367FA0D079087AA0F4241A69F6F3934" x="6.045" y="0" fill="#1a1a18" fill-rule="nonzero"/><use xlink:href="#gB40933FDDCB8FE93729A5B609149B1F0" x="9.0675" y="0" fill="#1a1a18" fill-rule="nonzero"/><use xlink:href="#g8810ECE1E693236E51BADD835CE25BCE" x="12.09" y="0" fill="#1a1a18" fill-rule="nonzero"/></g></g><path fill="none" stroke="#1a1a18" stroke-width="0.6" stroke-linecap="butt" stroke-linejoin="miter" stroke-miterlimit="4" transform="translate(20.334645669 94.420492126)" d="M 0 0h 5.669291339"/><path fill="none" transform="translate(0 91.154992126)" d="M 0 0h 17.5v 6.531h -17.5v -6.531Z "/><g transform="translate(-1.26e-7 91.154992079)"><g transform="matrix(1 0 0 -1 0 4.781)"><use xlink:href="#gEE39941251B52A5B3E1406C8F73FACE3" x="0" y="0" fill="#1a1a18" fill-rule="nonzero"/><use xlink:href="#gFDD16C1599CC055AD80DFE5D214C8C36" x="3.5" y="0" fill="#1a1a18" fill-rule="nonzero"/><use xlink:href="#g62E1EE4766495B6A7E1E179EB72D1165" x="7" y="0" fill="#1a1a18" fill-rule="nonzero"/><use xlink:href="#gEE39941251B52A5B3E1406C8F73FACE3" x="10.5" y="0" fill="#1a1a18" fill-rule="nonzero"/><use xlink:href="#g8F2ACD9279C715CEAA12931B1931AC1B" x="14" y="0" fill="#1a1a18" fill-rule="nonzero"/></g></g><path fill="none" stroke="#1a1a18" stroke-width="0.6" stroke-linecap="butt" stroke-linejoin="miter" stroke-miterlimit="4" transform="translate(136.55511811 96.900807087)" d="M 0 0m 0 5.669291339v -5.669291339"/><path fill="none" transform="translate(128.99886811 106.628818898)" d="M 0 0h 15.1125v 4.355h -15.1125v -4.355Z "/><g transform="translate(128.998868063 106.628818787)"><g transform="matrix(1 0 0 -1 0 4.277)"><use xlink:href="#gFC7A74828477F36919AB045AE61A8380" x="0" y="0" fill="#1a1a18" fill-rule="nonzero"/><use xlink:href="#gFC7A74828477F36919AB045AE61A8380" x="3.0225" y="0" fill="#1a1a18" fill-rule="nonzero"/><use xlink:href="#gB40933FDDCB8FE93729A5B609149B1F0" x="6.045" y="0" fill="#1a1a18" fill-rule="nonzero"/><use xlink:href="#gFC7A74828477F36919AB045AE61A8380" x="9.0675" y="0" fill="#1a1a18" fill-rule="nonzero"/><use xlink:href="#g8810ECE1E693236E51BADD835CE25BCE" x="12.09" y="0" fill="#1a1a18" fill-rule="nonzero"/></g></g><path fill="none" stroke="#1a1a18" stroke-width="0.6" stroke-linecap="butt" stroke-linejoin="miter" stroke-miterlimit="4" transform="translate(20.334645669 97.077972441)" d="M 0 0h 5.669291339"/><path fill="none" transform="translate(0 93.812472441)" d="M 0 0h 17.5v 6.531h -17.5v -6.531Z "/><g transform="translate(-1.26e-7 93.812472394)"><g transform="matrix(1 0 0 -1 0 4.781)"><use xlink:href="#gEE39941251B52A5B3E1406C8F73FACE3" x="0" y="0" fill="#1a1a18" fill-rule="nonzero"/><use xlink:href="#gFDD16C1599CC055AD80DFE5D214C8C36" x="3.5" y="0" fill="#1a1a18" fill-rule="nonzero"/><use xlink:href="#g62E1EE4766495B6A7E1E179EB72D1165" x="7" y="0" fill="#1a1a18" fill-rule="nonzero"/><use xlink:href="#g825DD8AC2FA3547BEFC9CFC803A4E13F" x="10.5" y="0" fill="#1a1a18" fill-rule="nonzero"/><use xlink:href="#g86F7515C030429063388C2091316D5B3" x="14" y="0" fill="#1a1a18" fill-rule="nonzero"/></g></g><path fill="none" stroke="#1a1a18" stroke-width="0.6" stroke-linecap="butt" stroke-linejoin="miter" stroke-miterlimit="4" transform="translate(164.901574803 96.900807087)" d="M 0 0m 0 5.669291339v -5.669291339"/><path fill="none" transform="translate(157.345324803 106.632068898)" d="M 0 0h 15.1125v 4.3485h -15.1125v -4.3485Z "/><g transform="translate(157.345324756 106.63206885)"><g transform="matrix(1 0 0 -1 0 4.277)"><use xlink:href="#gFC7A74828477F36919AB045AE61A8380" x="0" y="0" fill="#1a1a18" fill-rule="nonzero"/><use xlink:href="#gBF56EACC7D0959D4E47E9FA89953BDE4" x="3.0225" y="0" fill="#1a1a18" fill-rule="nonzero"/><use xlink:href="#gF579B9FB3601BA91D91B278A0952366A" x="6.045" y="0" fill="#1a1a18" fill-rule="nonzero"/><use xlink:href="#g22022A3B2BB7179C5EB401622BD4A20A" x="9.0675" y="0" fill="#1a1a18" fill-rule="nonzero"/><use xlink:href="#g8810ECE1E693236E51BADD835CE25BCE" x="12.09" y="0" fill="#1a1a18" fill-rule="nonzero"/></g></g><path fill="none" transform="translate(97.165385827 70.655641732)" d="M 0 0h 93.248v 7.136h -93.248v -7.136Z "/><g transform="translate(97.165385717 70.655641622)"><g transform="matrix(1 0 0 -1 0 5.264)"><use xlink:href="#gF859B786D36C3A3EB6E93A57BC4F802" x="0" y="0" fill="#7c7f6a" fill-rule="nonzero"/><use xlink:href="#g46DFAA35BC521B4F2378CE697B4B163E" x="4.688" y="0" fill="#7c7f6a" fill-rule="nonzero"/><use xlink:href="#g465CA45D0696F5BBCE5E7A11B5E63D98" x="8.84" y="0" fill="#7c7f6a" fill-rule="nonzero"/><use xlink:href="#gAC00C34078948F83CC62D60B02C8E81A" x="12.416" y="0" fill="#7c7f6a" fill-rule="nonzero"/><use xlink:href="#g465CA45D0696F5BBCE5E7A11B5E63D98" x="16.72" y="0" fill="#7c7f6a" fill-rule="nonzero"/><use xlink:href="#gFF63DA2595F1651AF0C535BF803D9AEC" x="20.296" y="0" fill="#7c7f6a" fill-rule="nonzero"/><use xlink:href="#gE4F86D8BE8C69EC1EB36B973594724AB" x="26.512" y="0" fill="#7c7f6a" fill-rule="nonzero"/><use xlink:href="#g465CA45D0696F5BBCE5E7A11B5E63D98" x="31.952" y="0" fill="#7c7f6a" fill-rule="nonzero"/><use xlink:href="#gE09E60C0AC8E2E10ADA02C2F49261352" x="35.528" y="0" fill="#7c7f6a" fill-rule="nonzero"/><use xlink:href="#g5D01DA3AB390CB78D7E54204B7DC3F87" x="39.088" y="0" fill="#7c7f6a" fill-rule="nonzero"/><use xlink:href="#gAC00C34078948F83CC62D60B02C8E81A" x="43.12" y="0" fill="#7c7f6a" fill-rule="nonzero"/><use xlink:href="#gF79D9CC171E1ACC5162F855F1894F43E" x="47.424" y="0" fill="#7c7f6a" fill-rule="nonzero"/><use xlink:href="#g6DB1303ED6E3887CCE592EFB97F217BF" x="53.08" y="0" fill="#7c7f6a" fill-rule="nonzero"/><use xlink:href="#gD00C9D162D1CBC09F2F7551D594DBB72" x="59.296" y="0" fill="#7c7f6a" fill-rule="nonzero"/><use xlink:href="#g97663EC9AEA74EADA07472643E1BE1B4" x="63.016" y="0" fill="#7c7f6a" fill-rule="nonzero"/><use xlink:href="#g97663EC9AEA74EADA07472643E1BE1B4" x="68.736" y="0" fill="#7c7f6a" fill-rule="nonzero"/><use xlink:href="#g97663EC9AEA74EADA07472643E1BE1B4" x="72.456" y="0" fill="#7c7f6a" fill-rule="nonzero"/><use xlink:href="#g97663EC9AEA74EADA07472643E1BE1B4" x="76.176" y="0" fill="#7c7f6a" fill-rule="nonzero"/><use xlink:href="#gFF63DA2595F1651AF0C535BF803D9AEC" x="81.896" y="0" fill="#7c7f6a" fill-rule="nonzero"/><use xlink:href="#g465CA45D0696F5BBCE5E7A11B5E63D98" x="86.112" y="0" fill="#7c7f6a" fill-rule="nonzero"/><use xlink:href="#gE09E60C0AC8E2E10ADA02C2F49261352" x="89.688" y="0" fill="#7c7f6a" fill-rule="nonzero"/></g></g></g><defs><symbol id="gC8D6D5492F0FFEF84F8079BC5341E7A6" overflow="visible"><path d="M 0 0m 1.581 2.6095c 0 0.4845 0.0595 0.7055 0.357 0.7055h 0.187c 0.697 0 0.901 -0.4845 1.02 -0.9775c 0.0935 -0.0085 0.1785 0 0.2465 0.034c -0.034 0.4505 -0.0595 0.8245 -0.1105 1.275l -0.017 0.017c 0 0 -0.68 -0.017 -0.952 -0.017h -1.071c -0.3655 0 -0.663 0.0085 -0.9435 0.017c -0.051 -0.051 -0.051 -0.2295 0 -0.2805c 0.5185 -0.034 0.612 -0.068 0.612 -0.7735v -1.5725c 0 -0.7055 -0.0935 -0.731 -0.612 -0.7735c -0.051 -0.051 -0.051 -0.2295 0 -0.2805c 0.2805 0.0085 0.578 0.017 0.952 0.017c 0.3655 0 0.6715 -0.0085 0.9435 -0.017c 0.051 0.051 0.051 0.2295 0 0.2805c -0.5185 0.034 -0.612 0.068 -0.612 0.7735Z "/></symbol><symbol id="gE34E15A46C94CBC2E6ABE8844A1DDB21" overflow="visible"><path d="M 0 0m 0.3485 1.7425c 0 -0.867 0.578 -1.8275 1.785 -1.8275c 0.544 0 0.9605 0.1955 1.2495 0.476c 0.3825 0.374 0.5525 0.9095 0.5525 1.428c 0 0.884 -0.4845 1.9125 -1.785 1.9125c -0.561 0 -1.02 -0.2295 -1.3345 -0.595c -0.306 -0.3655 -0.4675 -0.8585 -0.4675 -1.394Z m 1.6745 1.6915c 0.731 0 1.1815 -0.663 1.1815 -1.887c 0 -1.071 -0.5525 -1.3345 -0.952 -1.3345c -0.884 0 -1.173 1.071 -1.173 1.7255c 0 0.7395 0.1785 1.496 0.9435 1.496Z "/></symbol><symbol id="gBAF1B227155053221F22F6E06EEFED60" overflow="visible"><path d="M 0 0m 1.6065 3.6465c -0.2805 0 -0.612 0.0085 -0.867 0.017c -0.051 -0.051 -0.051 -0.2295 0 -0.2805c 0.5185 -0.0425 0.6715 -0.0765 0.6375 -0.782c -0.034 -0.782 -0.17 -1.411 -0.3145 -2.006c -0.051 -0.2295 -0.2975 -0.306 -0.5355 -0.3315c -0.1275 -0.017 -0.2465 -0.068 -0.255 -0.221l -0.051 -1.1305c 0.0595 -0.0255 0.1275 -0.034 0.2295 -0.0085c 0.0765 0.3145 0.306 1.0965 1.071 1.0965h 1.4705c 0.7565 0 1.003 -0.765 1.0795 -1.105c 0.0765 -0.017 0.153 -0.017 0.238 0.017l -0.051 1.139c 0 0.119 -0.068 0.187 -0.2295 0.2125c -0.153 0.0255 -0.3655 0.085 -0.3655 0.3995v 1.9465c 0 0.697 0.1105 0.7395 0.578 0.7735c 0.051 0.051 0.051 0.2295 0 0.2805c -0.255 -0.0085 -0.578 -0.017 -0.918 -0.017Z m -0.238 -3.213c 0 0.1445 0.2295 0.7055 0.357 2.652c 0.0085 0.1275 0.068 0.238 0.2975 0.238h 0.5865c 0.34 0 0.3825 -0.238 0.3825 -0.527v -2.0485c 0 -0.2805 -0.017 -0.4165 -0.357 -0.4165h -1.0965c -0.0935 0 -0.17 0.0085 -0.17 0.102Z "/></symbol><symbol id="g263F4FD32CCD3C47111457350A4C543D" overflow="visible"><path d="M 0 0m 1.581 2.601c 0 0.714 0.0935 0.7395 0.612 0.782c 0.051 0.051 0.051 0.2295 0 0.2805c -0.289 -0.0085 -0.578 -0.017 -0.952 -0.017c -0.3655 0 -0.663 0.0085 -0.9435 0.017c -0.051 -0.051 -0.051 -0.2295 0 -0.2805c 0.5185 -0.034 0.612 -0.068 0.612 -0.7735v -1.5725c 0 -0.7055 -0.0935 -0.731 -0.612 -0.7735c -0.051 -0.051 -0.051 -0.2295 0 -0.2805c 0.2805 0.0085 0.578 0.017 0.952 0.017c 0.3485 0 0.5355 -0.017 0.884 -0.017c 1.0455 0 1.615 0.2635 1.615 1.173c 0 0.799 -0.697 1.0285 -1.5555 1.0285h -0.612Z m 3.6635 0.0085c 0 0.7055 0.0935 0.731 0.612 0.7735c 0.051 0.051 0.051 0.2295 0 0.2805c -0.289 -0.0085 -0.578 -0.017 -0.952 -0.017c -0.3655 0 -0.663 0.0085 -0.9435 0.017c -0.051 -0.051 -0.051 -0.2295 0 -0.2805c 0.5185 -0.034 0.612 -0.068 0.612 -0.7735v -1.5725c 0 -0.7055 -0.0935 -0.731 -0.612 -0.7735c -0.051 -0.051 -0.051 -0.2295 0 -0.2805c 0.2805 0.0085 0.578 0.017 0.952 0.017c 0.3655 0 0.6715 -0.0085 0.9435 -0.017c 0.051 0.051 0.051 0.2295 0 0.2805c -0.5185 0.034 -0.612 0.068 -0.612 0.7735Z m -2.227 -1.5385c 0 -0.697 -0.425 -0.8075 -0.8755 -0.8075c -0.4165 0 -0.561 0.085 -0.561 0.3825v 1.258h 0.6035c 0.6375 0 0.833 -0.3825 0.833 -0.833Z "/></symbol><symbol id="gB3F6F741CFF64E2F87AE274E4C795DAE" overflow="visible"><path d="M 0 0m 3.553 1.037v 1.5725c 0 0.697 0.1105 0.7395 0.578 0.7735c 0.051 0.051 0.051 0.2295 0 0.2805c -0.255 -0.0085 -0.578 -0.017 -0.918 -0.017h -1.6065c -0.2805 0 -0.612 0.0085 -0.867 0.017c -0.051 -0.051 -0.051 -0.2295 0 -0.2805c 0.6035 -0.0425 0.6885 -0.0935 0.6885 -1.0115c 0 -0.8925 -0.068 -1.36 -0.187 -1.7085c -0.1105 -0.306 -0.255 -0.4165 -0.3995 -0.4165c -0.1105 0 -0.1445 0.068 -0.1615 0.1785c -0.0255 0.1615 -0.0765 0.323 -0.3145 0.323c -0.2125 0 -0.3315 -0.17 -0.3315 -0.357c 0 -0.2635 0.238 -0.493 0.629 -0.493c 0.4335 0 0.6715 0.221 0.867 0.68c 0.17 0.408 0.221 1.275 0.221 1.853c 0 0.663 0.0255 0.884 0.3655 0.884h 0.3825c 0.323 0 0.3825 -0.204 0.3825 -0.493v -1.785c 0 -0.697 -0.085 -0.7395 -0.527 -0.7735c -0.0425 -0.051 -0.0425 -0.2295 0 -0.2805c 0.2125 0.0085 0.527 0.017 0.867 0.017c 0.34 0 0.7225 -0.0085 0.9605 -0.017c 0.0425 0.051 0.0425 0.2295 0 0.2805c -0.5525 0.034 -0.629 0.0765 -0.629 0.7735Z "/></symbol><symbol id="gEF5DE670D307ABF3FAA7AE7F58FA196F" overflow="visible"><path d="M 0 0m 0.969 0c 0.238 0.0085 0.323 0.2295 0.425 0.5355c 0.221 0.6715 0.4675 1.088 0.8925 1.088h 0.221v -0.5865c 0 -0.7055 -0.0935 -0.731 -0.612 -0.7735c -0.051 -0.051 -0.051 -0.2295 0 -0.2805c 0.2805 0.0085 0.578 0.017 0.952 0.017c 0.3655 0 0.6715 -0.0085 0.9435 -0.017c 0.051 0.051 0.051 0.2295 0 0.2805c -0.5185 0.034 -0.612 0.068 -0.612 0.7735v 1.5725c 0 0.7055 0.0935 0.731 0.612 0.7735c 0.051 0.051 0.051 0.2295 0 0.2805c -0.289 -0.0085 -0.578 -0.017 -0.952 -0.017c -0.289 0 -0.5355 0.017 -0.748 0.017c -1.4875 0 -1.615 -0.612 -1.615 -1.071c 0 -0.5525 0.425 -0.833 1.054 -0.8585c 0.0255 0 0.0255 -0.0255 0.017 -0.034c -0.323 -0.0935 -0.4675 -0.272 -0.612 -0.5865c -0.0935 -0.1955 -0.17 -0.3825 -0.2125 -0.493c -0.1105 -0.289 -0.255 -0.34 -0.5865 -0.357c -0.051 -0.051 -0.051 -0.2295 0 -0.2805c 0.17 0.0085 0.833 0.017 0.833 0.017Z m 0.238 2.7285c 0 0.3995 0.1275 0.6545 0.816 0.6545c 0.3485 0 0.4845 -0.153 0.4845 -0.476v -0.9945h -0.595c -0.51 0 -0.7055 0.391 -0.7055 0.816Z "/></symbol><symbol id="gB9938806A05440DD6FFC987390502D24" overflow="visible"><path d="M 0 0m 1.1475 5.27c 0.102 0 0.119 -0.0765 0.119 -0.3485v -1.105c 0 -0.4335 -0.2635 -0.459 -0.6035 -0.476c -0.0425 -0.068 -0.034 -0.1955 0 -0.2465c 0.255 0.0085 0.5185 0.0085 0.816 0.0085c 0.2805 0 0.459 0 0.714 -0.0085c 0.034 0.0595 0.034 0.1785 0 0.2465c -0.289 0.017 -0.4675 0.0425 -0.4675 0.476v 2.0315c -0.0425 0.0425 -0.1105 0.0255 -0.153 0c -0.374 -0.2295 -0.595 -0.3315 -0.9945 -0.476c 0 -0.102 0.017 -0.1785 0.085 -0.2295c 0.2125 0.0765 0.374 0.1275 0.4845 0.1275Z "/></symbol><symbol id="gD2DB2061AE0EA809B6698BD47B107ED1" overflow="visible"><path d="M 0 0m 1.53 3.74c 0 -0.3485 -0.1105 -0.374 -0.4505 -0.391c -0.0425 -0.068 -0.034 -0.1955 0 -0.2465c 0.255 0.0085 0.3655 0.0085 0.663 0.0085c 0.255 0 0.408 0 0.663 -0.0085c 0.034 0.0595 0.034 0.1785 0 0.2465c -0.289 0.017 -0.4335 0.0425 -0.4335 0.391v 0.204h 0.425l 0.051 0.289h -0.476v 1.53c 0 0.0765 -0.102 0.085 -0.1615 0.085c -0.0255 0 -0.102 0 -0.1105 -0.0085c -0.136 -0.0765 -0.2295 -0.17 -0.306 -0.2635c -0.2975 -0.3485 -0.6715 -0.7905 -0.952 -1.2495c -0.034 -0.0425 -0.0595 -0.085 -0.085 -0.1445c -0.017 -0.068 -0.0595 -0.238 0.1615 -0.238h 1.0115Z m 0 1.683v -1.19h -0.833c 0.0595 0.153 0.5015 0.7735 0.833 1.19Z "/></symbol><symbol id="gF3FF310DD78D490221D189C5F51C1BB1" overflow="visible"><path d="M 0 0m 3.0345 -0.085c 0.8245 0 1.581 0.391 2.159 1.1475c -0.0425 0.0765 -0.102 0.1275 -0.1955 0.1275c -0.6035 -0.663 -1.1815 -0.9265 -1.972 -0.9265c -1.1475 0 -1.938 1.292 -1.938 2.533c 0 0.731 0.1955 1.343 0.5015 1.7255c 0.425 0.5185 0.918 0.7565 1.36 0.7565c 1.173 0 1.6405 -0.697 1.8615 -1.428c 0.102 -0.034 0.187 -0.0085 0.2805 0.0425c -0.0425 0.442 -0.102 0.85 -0.187 1.3175c -0.4335 0.0425 -0.816 0.3825 -1.8615 0.3825c -0.7225 0 -1.326 -0.2635 -1.8275 -0.7225c -0.561 -0.5185 -0.901 -1.3515 -0.901 -2.2355c 0 -1.479 0.8925 -2.72 2.72 -2.72Z "/></symbol><symbol id="gEE39941251B52A5B3E1406C8F73FACE3" overflow="visible"><path d="M 0 0m 1.883 4.662c -0.287 -0.294 -0.707 -0.441 -1.26 -0.441v -0.273c 0.364 0 0.665 0.056 0.896 0.168v -3.542c 0 -0.126 -0.028 -0.21 -0.091 -0.245c -0.063 -0.035 -0.238 -0.056 -0.518 -0.056h -0.245v -0.273c 0.175 0.014 0.553 0.021 1.134 0.021c 0.581 0 0.959 -0.007 1.134 -0.021v 0.273h -0.245c -0.287 0 -0.462 0.021 -0.518 0.056c -0.056 0.035 -0.091 0.119 -0.091 0.245v 3.878c 0 0.168 -0.014 0.21 -0.196 0.21Z "/></symbol><symbol id="g8810ECE1E693236E51BADD835CE25BCE" overflow="visible"><path d="M 0 0m 1.482 -0.065c 0.5005 0 1.261 0.507 1.261 2.0345c 0 0.6435 -0.156 1.196 -0.442 1.573c -0.169 0.2275 -0.442 0.4225 -0.793 0.4225c -0.6435 0 -1.2545 -0.767 -1.2545 -2.054c 0 -0.6955 0.2145 -1.3455 0.572 -1.703c 0.182 -0.182 0.403 -0.273 0.6565 -0.273Z m 0.026 3.8025c 0.1105 0 0.2145 -0.039 0.2925 -0.1105c 0.2015 -0.169 0.377 -0.663 0.377 -1.534c 0 -0.598 -0.0195 -1.0075 -0.1105 -1.339c -0.143 -0.533 -0.4615 -0.5915 -0.5785 -0.5915c -0.6045 0 -0.6695 1.1115 -0.6695 1.677c 0 1.599 0.3965 1.898 0.689 1.898Z "/></symbol><symbol id="gFDD16C1599CC055AD80DFE5D214C8C36" overflow="visible"><path d="M 0 0m 2.94 -1.75c 0.112 0 0.168 0.056 0.168 0.168c 0 0.021 0 0.042 -0.007 0.056l -2.394 6.664c -0.028 0.077 -0.077 0.112 -0.154 0.112c -0.112 0 -0.168 -0.056 -0.168 -0.168c 0 -0.021 0 -0.042 0.007 -0.056l 2.394 -6.664c 0.028 -0.077 0.077 -0.112 0.154 -0.112Z "/></symbol><symbol id="g62E1EE4766495B6A7E1E179EB72D1165" overflow="visible"><path d="M 0 0m 3.108 5.026c 0.007 0.014 0.007 0.035 0.007 0.056c 0 0.112 -0.056 0.168 -0.168 0.168c -0.077 0 -0.126 -0.035 -0.154 -0.112l -2.394 -6.664c -0.007 -0.014 -0.007 -0.035 -0.007 -0.056c 0 -0.112 0.056 -0.168 0.168 -0.168c 0.077 0 0.126 0.035 0.154 0.112Z "/></symbol><symbol id="g86F7515C030429063388C2091316D5B3" overflow="visible"><path d="M 0 0m 1.659 4.662c -0.357 0 -0.658 -0.126 -0.917 -0.378c -0.259 -0.252 -0.392 -0.546 -0.392 -0.903c 0 -0.238 0.175 -0.413 0.392 -0.413c 0.21 0 0.385 0.182 0.385 0.392c 0 0.231 -0.168 0.392 -0.392 0.392c -0.021 0 -0.035 0 -0.049 -0.007c 0.133 0.343 0.441 0.644 0.882 0.644c 0.574 0 0.896 -0.497 0.896 -1.099c 0 -0.469 -0.238 -0.973 -0.714 -1.505l -1.316 -1.484c -0.091 -0.105 -0.084 -0.098 -0.084 -0.301h 2.597l 0.203 1.26h -0.231c -0.056 -0.357 -0.105 -0.56 -0.147 -0.623c -0.035 -0.035 -0.245 -0.049 -0.63 -0.049h -1.169l 0.679 0.665c 0.476 0.448 1.078 0.931 1.281 1.302c 0.14 0.245 0.21 0.49 0.21 0.735c 0 0.826 -0.644 1.372 -1.484 1.372Z "/></symbol><symbol id="g22022A3B2BB7179C5EB401622BD4A20A" overflow="visible"><path d="M 0 0m 2.0735 1.2285c 0 -0.6175 -0.325 -1.0725 -0.715 -1.0725c -0.247 0 -0.3315 0.1625 -0.429 0.2925c -0.0845 0.1105 -0.195 0.208 -0.3315 0.208c -0.1235 0 -0.247 -0.1105 -0.247 -0.2405c 0 -0.2665 0.5525 -0.4875 0.923 -0.4875c 0.806 0 1.378 0.598 1.378 1.417c 0 0.6305 -0.4355 1.196 -1.1635 1.196c -0.2795 0 -0.52 -0.0585 -0.637 -0.104l 0.13 1.0855c 0.2405 -0.026 0.4485 -0.0585 0.7605 -0.0585c 0.195 0 0.416 0.013 0.6825 0.039l 0.104 0.442l -0.0455 0.026c -0.3705 -0.039 -0.7215 -0.0715 -1.066 -0.0715c -0.2405 0 -0.4745 0.013 -0.702 0.0325l -0.221 -1.872c 0.3445 0.13 0.5915 0.156 0.8255 0.156c 0.4225 0 0.754 -0.2795 0.754 -0.988Z "/></symbol><symbol id="gBAE9384296257CB3DD7449F248B3C475" overflow="visible"><path d="M 0 0m 1.105 3.4775h 1.1635c -0.507 -1.261 -1.0205 -2.5285 -1.4625 -3.5165l 0.052 -0.0455l 0.442 0.0195c 0.3705 1.105 0.728 2.184 1.456 3.9585l -0.104 0.078c -0.1105 -0.0325 -0.2535 -0.0715 -0.5005 -0.0715h -1.339c -0.221 0 -0.208 0.065 -0.325 0.091c -0.0195 0 -0.026 0 -0.026 -0.0195c -0.0065 -0.312 -0.078 -0.702 -0.13 -1.04c 0.0715 -0.0195 0.1365 -0.026 0.208 -0.0195c 0.143 0.52 0.3575 0.5655 0.5655 0.5655Z "/></symbol><symbol id="gD5509C92469AEE87750B17B31D05379" overflow="visible"><path d="M 0 0m 1.3975 3.7375c 0.2795 0 0.5395 -0.169 0.5395 -0.585c 0 -0.325 -0.377 -0.8255 -1.0205 -0.9165l 0.0325 -0.208c 0.1105 0.013 0.2275 0.013 0.312 0.013c 0.3705 0 0.8515 -0.104 0.8515 -0.8385c 0 -0.8645 -0.5785 -1.04 -0.806 -1.04c -0.3315 0 -0.39 0.1495 -0.468 0.2665c -0.065 0.091 -0.1495 0.169 -0.2795 0.169c -0.1365 0 -0.273 -0.1235 -0.273 -0.2275c 0 -0.26 0.546 -0.4355 0.936 -0.4355c 0.7735 0 1.4625 0.5005 1.4625 1.3585c 0 0.7085 -0.533 0.962 -0.9165 1.027l -0.0065 0.013c 0.533 0.2535 0.6825 0.52 0.6825 0.8645c 0 0.195 -0.0455 0.351 -0.2015 0.5135c -0.143 0.143 -0.3705 0.2535 -0.7085 0.2535c -0.9555 0 -1.2285 -0.624 -1.2285 -0.8385c 0 -0.091 0.065 -0.221 0.221 -0.221c 0.2275 0 0.2535 0.2145 0.2535 0.338c 0 0.416 0.4485 0.494 0.6175 0.494Z "/></symbol><symbol id="g5537D0DB4C109823A5700B5B666A8FA9" overflow="visible"><path d="M 0 0m 2.471 4.739c -0.063 0 -0.119 -0.035 -0.161 -0.098l -2.114 -3.248v -0.252h 1.827v -0.574c 0 -0.126 -0.028 -0.21 -0.077 -0.245c -0.049 -0.035 -0.182 -0.049 -0.413 -0.049h -0.175v -0.273c 0.203 0.014 0.525 0.021 0.959 0.021c 0.434 0 0.756 -0.007 0.959 -0.021v 0.273h -0.175c -0.231 0 -0.364 0.014 -0.413 0.049c -0.049 0.035 -0.077 0.119 -0.077 0.245v 0.574h 0.686v 0.273h -0.686v 3.206c 0 0.07 -0.049 0.119 -0.14 0.119Z m -0.406 -0.868v -2.457h -1.596Z "/></symbol><symbol id="g7367FA0D079087AA0F4241A69F6F3934" overflow="visible"><path d="M 0 0m 1.872 0.793v 2.2555c 0 0.39 0.0065 0.7865 0.0195 0.871c 0 0.0325 -0.013 0.0325 -0.039 0.0325c -0.3575 -0.221 -0.702 -0.3835 -1.274 -0.65c 0.013 -0.0715 0.039 -0.1365 0.0975 -0.1755c 0.299 0.1235 0.442 0.1625 0.5655 0.1625c 0.1105 0 0.13 -0.156 0.13 -0.377v -2.119c 0 -0.5395 -0.1755 -0.572 -0.6305 -0.5915c -0.039 -0.039 -0.039 -0.1755 0 -0.2145c 0.3185 0.0065 0.5525 0.013 0.9035 0.013c 0.312 0 0.468 -0.0065 0.793 -0.013c 0.039 0.039 0.039 0.1755 0 0.2145c -0.455 0.0195 -0.5655 0.052 -0.5655 0.5915Z "/></symbol><symbol id="g989DB3914DBF94EC9B64221F100A1F1F" overflow="visible"><path d="M 0 0m 2.795 1.4235h -0.5395v 1.898c 0 0.325 0 0.5785 0.013 0.6305l -0.013 0.013h -0.208c -0.0455 0 -0.078 -0.039 -0.104 -0.0715c -0.4095 -0.5005 -1.1635 -1.573 -1.7615 -2.5025c 0.0195 -0.0975 0.0585 -0.273 0.2535 -0.273h 1.326v -0.598c 0 -0.299 -0.247 -0.299 -0.5265 -0.3185c -0.039 -0.039 -0.039 -0.1755 0 -0.2145c 0.208 0.0065 0.468 0.013 0.767 0.013c 0.2535 0 0.5005 -0.0065 0.7085 -0.013c 0.039 0.039 0.039 0.1755 0 0.2145c -0.3185 0.026 -0.455 0.013 -0.455 0.3185v 0.598h 0.4485c 0.091 0 0.1885 0.1235 0.1885 0.2015c 0 0.065 -0.026 0.104 -0.0975 0.104Z m -1.0335 1.872v -1.872h -1.2415c 0.3315 0.533 0.793 1.261 1.2415 1.872Z "/></symbol><symbol id="gF579B9FB3601BA91D91B278A0952366A" overflow="visible"><path d="M 0 0m 0.936 2.2295c 0.1755 0.5915 0.5915 1.248 1.456 1.573c 0 0.078 -0.026 0.1365 -0.078 0.169c -0.6565 -0.195 -1.0595 -0.468 -1.4235 -0.8905c -0.403 -0.468 -0.6045 -1.0595 -0.6045 -1.573c 0 -1.3195 0.7475 -1.5795 1.248 -1.5795c 0.8515 0 1.2025 0.8255 1.2025 1.3845c 0 0.559 -0.299 1.0595 -1.183 1.0595c -0.169 0 -0.4225 -0.052 -0.6175 -0.143Z m -0.0585 -0.234c 0.2145 0.143 0.429 0.1495 0.5395 0.1495c 0.637 0 0.78 -0.624 0.78 -0.949c 0 -0.715 -0.273 -1.04 -0.5915 -1.04c -0.4095 0 -0.78 0.221 -0.78 1.3325c 0 0.1495 0.013 0.3185 0.052 0.507Z "/></symbol><symbol id="gD07DF4AE43AB83DAB2C49CD537142568" overflow="visible"><path d="M 0 0m 1.75 4.662c -0.343 0 -0.644 -0.112 -0.896 -0.336c -0.252 -0.224 -0.378 -0.504 -0.378 -0.847c 0 -0.287 0.105 -0.546 0.315 -0.777c 0.049 -0.056 0.203 -0.175 0.462 -0.357c -0.637 -0.329 -0.959 -0.756 -0.959 -1.274c 0 -0.371 0.154 -0.672 0.455 -0.903c 0.28 -0.217 0.609 -0.322 0.994 -0.322c 0.392 0 0.735 0.126 1.022 0.378c 0.287 0.252 0.434 0.581 0.434 0.966c 0 0.322 -0.112 0.609 -0.343 0.868c -0.084 0.091 -0.301 0.252 -0.644 0.469c 0.539 0.287 0.805 0.651 0.805 1.078c 0 0.637 -0.609 1.057 -1.267 1.057Z m 0.903 -1.057c 0 -0.364 -0.217 -0.679 -0.651 -0.938l -0.833 0.546c -0.217 0.14 -0.329 0.322 -0.329 0.539c 0 0.42 0.455 0.679 0.903 0.679c 0.483 0 0.91 -0.343 0.91 -0.826Z m -0.903 -3.507c -0.574 0 -1.057 0.413 -1.057 0.973c 0 0.469 0.259 0.847 0.777 1.134l 0.826 -0.525c 0.336 -0.217 0.504 -0.462 0.504 -0.742c 0 -0.504 -0.525 -0.84 -1.05 -0.84Z "/></symbol><symbol id="gB40933FDDCB8FE93729A5B609149B1F0" overflow="visible"><path d="M 0 0m 2.1255 1.664c -0.1755 -0.5915 -0.5915 -1.248 -1.456 -1.573c 0 -0.078 0.026 -0.1365 0.078 -0.169c 0.6565 0.195 1.0595 0.468 1.4235 0.8905c 0.403 0.468 0.6045 1.0595 0.6045 1.573c 0 1.3195 -0.7475 1.5795 -1.248 1.5795c -0.8515 0 -1.2025 -0.8255 -1.2025 -1.3845c 0 -0.559 0.299 -1.0595 1.183 -1.0595c 0.169 0 0.4225 0.052 0.6175 0.143Z m 0.0585 0.234c -0.2145 -0.143 -0.429 -0.1495 -0.5395 -0.1495c -0.637 0 -0.78 0.624 -0.78 0.949c 0 0.715 0.273 1.04 0.5915 1.04c 0.4095 0 0.78 -0.221 0.78 -1.3325c 0 -0.143 -0.013 -0.3185 -0.052 -0.507Z "/></symbol><symbol id="g8F2ACD9279C715CEAA12931B1931AC1B" overflow="visible"><path d="M 0 0m 2.681 3.528c 0.231 0 0.343 0.119 0.343 0.357c 0 0.504 -0.378 0.777 -0.896 0.777c -0.581 0 -1.043 -0.273 -1.386 -0.826c -0.301 -0.476 -0.448 -1.015 -0.448 -1.624c 0 -0.889 0.161 -1.512 0.49 -1.883c 0.28 -0.322 0.602 -0.483 0.973 -0.483c 0.427 0 0.777 0.161 1.05 0.483c 0.259 0.308 0.392 0.679 0.392 1.106c 0 0.427 -0.126 0.791 -0.378 1.092c -0.266 0.322 -0.609 0.49 -1.022 0.49c -0.364 0 -0.644 -0.203 -0.833 -0.595v 0.042c 0 0.791 0.196 1.463 0.616 1.771c 0.182 0.133 0.371 0.196 0.56 0.196c 0.252 0 0.434 -0.07 0.553 -0.217c -0.238 0 -0.357 -0.133 -0.357 -0.343c 0 -0.196 0.147 -0.343 0.343 -0.343Z m -0.273 -1.148c 0.077 -0.161 0.119 -0.476 0.119 -0.938c 0 -0.455 -0.035 -0.756 -0.112 -0.91c -0.14 -0.287 -0.357 -0.434 -0.658 -0.434c -0.203 0 -0.357 0.07 -0.469 0.21c -0.091 0.112 -0.154 0.21 -0.182 0.287c -0.084 0.217 -0.126 0.546 -0.126 0.994c 0 0.196 0.028 0.385 0.077 0.567c 0.091 0.329 0.35 0.637 0.735 0.637c 0.273 0 0.483 -0.14 0.616 -0.413Z "/></symbol><symbol id="gFC7A74828477F36919AB045AE61A8380" overflow="visible"><path d="M 0 0m 0.3965 3.042c 0 -0.1365 0.1235 -0.2535 0.26 -0.2535c 0.1105 0 0.3055 0.117 0.3055 0.26c 0 0.052 -0.013 0.091 -0.026 0.1365c -0.013 0.0455 -0.052 0.104 -0.052 0.156c 0 0.1625 0.169 0.3965 0.6435 0.3965c 0.234 0 0.5655 -0.1625 0.5655 -0.7865c 0 -0.416 -0.1495 -0.754 -0.533 -1.144l -0.481 -0.4745c -0.637 -0.65 -0.741 -0.962 -0.741 -1.3455c 0 0 0.3315 0.013 0.5395 0.013h 1.1375c 0.208 0 0.507 -0.013 0.507 -0.013c 0.0845 0.3445 0.1495 0.832 0.156 1.027c -0.039 0.0325 -0.1235 0.0455 -0.1885 0.0325c -0.1105 -0.4615 -0.221 -0.624 -0.455 -0.624h -1.157c 0 0.312 0.4485 0.754 0.481 0.7865l 0.6565 0.6305c 0.3705 0.3575 0.65 0.6435 0.65 1.1375c 0 0.702 -0.572 0.988 -1.0985 0.988c -0.7215 0 -1.17 -0.533 -1.17 -0.923Z "/></symbol><symbol id="g825DD8AC2FA3547BEFC9CFC803A4E13F" overflow="visible"><path d="M 0 0m 2.121 2.471c 0.462 0.175 0.896 0.616 0.896 1.211c 0 0.301 -0.147 0.546 -0.434 0.735c -0.252 0.161 -0.539 0.245 -0.861 0.245c -0.315 0 -0.588 -0.084 -0.833 -0.245c -0.273 -0.182 -0.413 -0.42 -0.413 -0.721c 0 -0.231 0.154 -0.392 0.378 -0.392c 0.224 0 0.378 0.161 0.378 0.385c 0 0.231 -0.133 0.357 -0.399 0.371c 0.182 0.245 0.469 0.371 0.861 0.371c 0.42 0 0.63 -0.245 0.63 -0.742c 0 -0.294 -0.056 -0.539 -0.161 -0.742c -0.189 -0.336 -0.448 -0.399 -0.882 -0.399c -0.084 -0.014 -0.126 -0.049 -0.126 -0.112c 0 -0.105 0.049 -0.105 0.189 -0.105h 0.301c 0.525 0 0.791 -0.371 0.791 -1.12c 0 -0.595 -0.217 -1.113 -0.749 -1.113c -0.455 0 -0.791 0.154 -0.994 0.462c 0.245 -0.007 0.427 0.175 0.427 0.413c 0 0.238 -0.175 0.413 -0.413 0.413c -0.273 0 -0.413 -0.14 -0.413 -0.427c 0 -0.343 0.154 -0.616 0.462 -0.833c 0.273 -0.189 0.595 -0.28 0.952 -0.28c 0.399 0 0.742 0.133 1.043 0.392c 0.301 0.259 0.448 0.581 0.448 0.973c 0 0.658 -0.518 1.113 -1.078 1.26Z "/></symbol><symbol id="gBF56EACC7D0959D4E47E9FA89953BDE4" overflow="visible"><path d="M 0 0m 2.5545 3.1525c 0 0.468 -0.364 0.8125 -1.001 0.8125c -0.663 0 -1.092 -0.3965 -1.092 -0.897c 0 -0.364 0.1755 -0.6305 0.572 -0.8775l 0.169 -0.104c -0.1885 -0.0975 -0.364 -0.2145 -0.5265 -0.3575c -0.2665 -0.234 -0.377 -0.5265 -0.377 -0.78c 0 -0.663 0.468 -1.014 1.157 -1.014c 0.8515 0 1.2675 0.624 1.2675 1.118c 0 0.377 -0.1625 0.7085 -0.507 0.9165l -0.4615 0.2795c 0.3055 0.1495 0.7995 0.4875 0.7995 0.9035Z m -1.0855 -2.99c -0.2925 0 -0.7345 0.2015 -0.7345 0.7865c 0 0.195 0.0845 0.65 0.6435 1.0205l 0.3055 -0.182c 0.403 -0.247 0.5655 -0.5525 0.5655 -0.8645c 0 -0.65 -0.4875 -0.7605 -0.78 -0.7605Z m 0.052 3.575c 0.4225 0 0.5785 -0.2795 0.5785 -0.5785c 0 -0.351 -0.3445 -0.6435 -0.52 -0.7735l -0.2015 0.1235c -0.4095 0.2665 -0.455 0.481 -0.455 0.6825c 0 0.299 0.208 0.546 0.598 0.546Z "/></symbol><symbol id="gF859B786D36C3A3EB6E93A57BC4F802" overflow="visible"><path d="M 0 0m 3.496 3.432h -2.272c -0.32 0 -0.624 0.008 -0.864 0.016c -0.048 -0.048 -0.048 -0.216 0 -0.264c 0.44 -0.032 0.544 -0.072 0.544 -0.728v -1.48c 0 -0.656 -0.104 -0.696 -0.624 -0.728c -0.048 -0.048 -0.048 -0.216 0 -0.264c 0.24 0.008 0.624 0.016 0.944 0.016c 0.32 0 0.56 -0.008 0.8 -0.016c 0.048 0.048 0.048 0.216 0 0.264c -0.408 0.04 -0.488 0.072 -0.488 0.728v 1.736c 0 0.248 0.024 0.408 0.336 0.408h 0.968c 0.296 0 0.344 -0.088 0.344 -0.408v -1.736c 0 -0.656 -0.08 -0.696 -0.496 -0.728c -0.04 -0.048 -0.04 -0.216 0 -0.264c 0.2 0.008 0.496 0.016 0.816 0.016c 0.32 0 0.68 -0.008 0.904 -0.016c 0.04 0.048 0.04 0.216 0 0.264c -0.52 0.032 -0.592 0.072 -0.592 0.728v 1.48c 0 0.656 0.104 0.696 0.544 0.728c 0.048 0.048 0.048 0.216 0 0.264c -0.24 -0.008 -0.544 -0.016 -0.864 -0.016Z "/></symbol><symbol id="g46DFAA35BC521B4F2378CE697B4B163E" overflow="visible"><path d="M 0 0m 1.248 2.944c -0.008 0.24 -0.024 0.448 -0.064 0.528c -0.016 0.04 -0.032 0.064 -0.096 0.064c -0.224 -0.088 -0.432 -0.16 -0.984 -0.232c -0.016 -0.048 0 -0.176 0.016 -0.224c 0.432 -0.04 0.52 -0.08 0.52 -0.544v -3.416c 0 -0.664 -0.088 -0.704 -0.576 -0.728c -0.048 -0.048 -0.048 -0.216 0 -0.264c 0.28 0.008 0.576 0.016 0.896 0.016c 0.32 0 0.704 -0.008 0.968 -0.016c 0.048 0.048 0.048 0.216 0 0.264c -0.568 0.032 -0.656 0.064 -0.656 0.728v 0.864c 0 0.104 0.032 0.096 0.112 0.064c 0.2 -0.08 0.44 -0.128 0.696 -0.128c 0.448 0 0.848 0.136 1.176 0.448c 0.376 0.368 0.592 0.864 0.592 1.512c 0 0.848 -0.6 1.632 -1.416 1.632c -0.368 0 -0.776 -0.24 -1.096 -0.6c -0.048 -0.048 -0.08 -0.048 -0.088 0.032Z m 0.152 -0.296c 0.208 0.256 0.576 0.496 0.808 0.496c 0.512 0 0.952 -0.576 0.952 -1.48c 0 -0.656 -0.232 -1.472 -1.128 -1.472c -0.144 0 -0.424 0.04 -0.568 0.168c -0.16 0.144 -0.192 0.192 -0.192 0.48v 1.456c 0 0.168 0.032 0.24 0.128 0.352Z "/></symbol><symbol id="g465CA45D0696F5BBCE5E7A11B5E63D98" overflow="visible"><path d="M 0 0m 3.088 0.744c -0.296 -0.304 -0.528 -0.432 -0.992 -0.432c -0.288 0 -0.624 0.168 -0.872 0.576c -0.16 0.264 -0.256 0.632 -0.256 1.096l 2.128 -0.016c 0.096 0 0.152 0.048 0.152 0.136c 0 0.672 -0.24 1.392 -1.352 1.392c -0.696 0 -1.6 -0.664 -1.6 -1.88c 0 -0.448 0.112 -0.88 0.376 -1.184c 0.272 -0.32 0.648 -0.512 1.224 -0.512c 0.608 0 1.04 0.28 1.36 0.696c -0.024 0.08 -0.072 0.12 -0.168 0.128Z m -2.096 1.512c 0.152 0.904 0.712 0.976 0.904 0.976c 0.304 0 0.664 -0.168 0.664 -0.84c 0 -0.072 -0.032 -0.112 -0.12 -0.112Z "/></symbol><symbol id="gAC00C34078948F83CC62D60B02C8E81A" overflow="visible"><path d="M 0 0m 1.512 3.432c -0.264 0 -0.576 0.008 -0.816 0.016c -0.048 -0.048 -0.048 -0.216 0 -0.264c 0.488 -0.04 0.632 -0.072 0.6 -0.736c -0.032 -0.736 -0.16 -1.328 -0.296 -1.888c -0.048 -0.216 -0.28 -0.288 -0.504 -0.312c -0.12 -0.016 -0.232 -0.064 -0.24 -0.208l -0.048 -1.064c 0.056 -0.024 0.12 -0.032 0.216 -0.008c 0.072 0.296 0.288 1.032 1.008 1.032h 1.384c 0.712 0 0.944 -0.72 1.016 -1.04c 0.072 -0.016 0.144 -0.016 0.224 0.016l -0.048 1.072c 0 0.112 -0.064 0.176 -0.216 0.2c -0.144 0.024 -0.344 0.08 -0.344 0.376v 1.832c 0 0.656 0.104 0.696 0.544 0.728c 0.048 0.048 0.048 0.216 0 0.264c -0.24 -0.008 -0.544 -0.016 -0.864 -0.016Z m -0.224 -3.024c 0 0.136 0.216 0.664 0.336 2.496c 0.008 0.12 0.064 0.224 0.28 0.224h 0.552c 0.32 0 0.36 -0.224 0.36 -0.496v -1.928c 0 -0.264 -0.016 -0.392 -0.336 -0.392h -1.032c -0.088 0 -0.16 0.008 -0.16 0.096Z "/></symbol><symbol id="gFF63DA2595F1651AF0C535BF803D9AEC" overflow="visible"><path d="M 0 0m 3.344 0.976v 1.48c 0 0.656 0.104 0.696 0.544 0.728c 0.048 0.048 0.048 0.216 0 0.264c -0.24 -0.008 -0.544 -0.016 -0.864 -0.016h -1.512c -0.264 0 -0.576 0.008 -0.816 0.016c -0.048 -0.048 -0.048 -0.216 0 -0.264c 0.568 -0.04 0.648 -0.088 0.648 -0.952c 0 -0.84 -0.064 -1.28 -0.176 -1.608c -0.104 -0.288 -0.24 -0.392 -0.376 -0.392c -0.104 0 -0.136 0.064 -0.152 0.168c -0.024 0.152 -0.072 0.304 -0.296 0.304c -0.2 0 -0.312 -0.16 -0.312 -0.336c 0 -0.248 0.224 -0.464 0.592 -0.464c 0.408 0 0.632 0.208 0.816 0.64c 0.16 0.384 0.208 1.2 0.208 1.744c 0 0.624 0.024 0.832 0.344 0.832h 0.36c 0.304 0 0.36 -0.192 0.36 -0.464v -1.68c 0 -0.656 -0.08 -0.696 -0.496 -0.728c -0.04 -0.048 -0.04 -0.216 0 -0.264c 0.2 0.008 0.496 0.016 0.816 0.016c 0.32 0 0.68 -0.008 0.904 -0.016c 0.04 0.048 0.04 0.216 0 0.264c -0.52 0.032 -0.592 0.072 -0.592 0.728Z "/></symbol><symbol id="gE4F86D8BE8C69EC1EB36B973594724AB" overflow="visible"><path d="M 0 0m 0.936 2.448l -0.048 -1.488c -0.024 -0.672 -0.144 -0.688 -0.608 -0.712c -0.048 -0.048 -0.048 -0.216 0 -0.264c 0.16 0.008 0.56 0.016 0.688 0.016c 0.16 0 0.536 -0.008 0.696 -0.016c 0.048 0.048 0.048 0.216 0 0.264c -0.456 0.032 -0.488 0.112 -0.472 0.712l 0.056 1.96c 0 0.072 0.032 0.072 0.064 0l 1.16 -2.832c 0.032 -0.024 0.064 -0.024 0.088 0l 1.312 2.824c 0.04 0.088 0.08 0.096 0.08 0l -0.008 -1.936c 0 -0.664 -0.056 -0.688 -0.544 -0.728c -0.048 -0.048 -0.048 -0.216 0 -0.264c 0.288 0.008 0.584 0.016 0.864 0.016c 0.24 0 0.584 -0.008 0.896 -0.016c 0.048 0.048 0.048 0.216 0 0.264c -0.488 0.032 -0.576 0.064 -0.576 0.728l -0.016 1.48c -0.008 0.664 0.088 0.688 0.576 0.728c 0.048 0.048 0.048 0.216 0 0.264c -0.28 -0.016 -1.056 -0.016 -1.32 -0.016l -1.064 -2.288l -0.04 -0.08l -0.032 0.08l -0.936 2.288c -0.264 0 -1.112 0 -1.392 0.016c -0.048 -0.048 -0.048 -0.216 0 -0.264c 0.488 -0.04 0.6 -0.072 0.576 -0.736Z "/></symbol><symbol id="gE09E60C0AC8E2E10ADA02C2F49261352" overflow="visible"><path d="M 0 0m 1.456 0.976c 0 -0.664 -0.088 -0.704 -0.576 -0.728c -0.048 -0.048 -0.048 -0.216 0 -0.264c 0.312 0.008 0.632 0.016 0.896 0.016c 0.272 0 0.584 -0.008 0.888 -0.016c 0.048 0.048 0.048 0.216 0 0.264c -0.488 0.024 -0.576 0.064 -0.576 0.728v 2.16h 0.136c 0.648 0 0.776 -0.224 0.912 -0.872c 0.104 0 0.208 0.032 0.208 0.032c -0.048 0.368 -0.08 0.72 -0.088 1.184c -0.184 -0.016 -0.784 -0.048 -1.184 -0.048h -0.6c -0.4 0 -0.848 0.024 -1.168 0.048c -0.008 -0.464 -0.04 -0.816 -0.096 -1.184c 0 0 0.112 -0.032 0.216 -0.032c 0.136 0.648 0.256 0.872 0.912 0.872h 0.12Z "/></symbol><symbol id="g5D01DA3AB390CB78D7E54204B7DC3F87" overflow="visible"><path d="M 0 0m 0.328 1.64c 0 -0.816 0.544 -1.72 1.68 -1.72c 0.512 0 0.904 0.184 1.176 0.448c 0.36 0.352 0.52 0.856 0.52 1.344c 0 0.832 -0.456 1.8 -1.68 1.8c -0.528 0 -0.96 -0.216 -1.256 -0.56c -0.288 -0.344 -0.44 -0.808 -0.44 -1.312Z m 1.576 1.592c 0.688 0 1.112 -0.624 1.112 -1.776c 0 -1.008 -0.52 -1.256 -0.896 -1.256c -0.832 0 -1.104 1.008 -1.104 1.624c 0 0.696 0.168 1.408 0.888 1.408Z "/></symbol><symbol id="gF79D9CC171E1ACC5162F855F1894F43E" overflow="visible"><path d="M 0 0m 2.344 0.384c 0.048 -0.248 0.136 -0.464 0.536 -0.464c 0.304 0 0.592 0.136 0.76 0.296c -0.016 0.096 -0.048 0.168 -0.136 0.216c -0.056 -0.048 -0.192 -0.128 -0.296 -0.128c -0.232 0 -0.24 0.312 -0.24 0.68v 1.176c 0 1.136 -0.624 1.352 -1.208 1.352c -0.656 0 -1.32 -0.432 -1.32 -0.888c 0 -0.192 0.096 -0.288 0.28 -0.288c 0.232 0 0.376 0.168 0.376 0.272c 0 0.056 -0.008 0.112 -0.024 0.144c -0.008 0.024 -0.016 0.072 -0.016 0.16c 0 0.248 0.336 0.336 0.64 0.336c 0.272 0 0.648 -0.136 0.648 -1.04c 0 -0.056 -0.024 -0.088 -0.048 -0.096l -0.688 -0.168c -0.768 -0.192 -1.32 -0.616 -1.32 -1.16c 0 -0.656 0.448 -0.864 1.008 -0.864c 0.28 0 0.52 0.064 0.872 0.336l 0.16 0.128Z m 0 1.48v -1.056c 0 -0.104 -0.048 -0.16 -0.112 -0.208c -0.208 -0.168 -0.48 -0.352 -0.704 -0.352c -0.4 0 -0.576 0.32 -0.576 0.568c 0 0.36 0.168 0.728 0.76 0.88Z "/></symbol><symbol id="g6DB1303ED6E3887CCE592EFB97F217BF" overflow="visible"><path d="M 0 0m 0.464 1.832c 0.048 -0.024 0.088 -0.032 0.136 -0.032c 0.184 0.352 0.56 0.584 0.84 0.584c 0.2 0 0.392 -0.112 0.584 -0.256c 0.192 -0.144 0.424 -0.264 0.608 -0.264c 0.192 0 0.712 0.104 0.96 0.96c -0.024 0.032 -0.072 0.048 -0.136 0.048c -0.176 -0.4 -0.568 -0.536 -0.792 -0.536c -0.176 0 -0.36 0.104 -0.576 0.264c -0.192 0.144 -0.416 0.256 -0.6 0.256c -0.488 0 -0.92 -0.504 -1.024 -1.024Z m -0.032 -1.168c 0.048 -0.024 0.088 -0.032 0.136 -0.032c 0.184 0.352 0.56 0.584 0.84 0.584c 0.2 0 0.392 -0.112 0.584 -0.256c 0.192 -0.144 0.424 -0.264 0.608 -0.264c 0.192 0 0.712 0.104 0.96 0.96c -0.024 0.032 -0.072 0.048 -0.136 0.048c -0.176 -0.4 -0.568 -0.536 -0.792 -0.536c -0.176 0 -0.36 0.104 -0.576 0.264c -0.192 0.144 -0.416 0.256 -0.6 0.256c -0.488 0 -0.92 -0.504 -1.024 -1.024Z "/></symbol><symbol id="gD00C9D162D1CBC09F2F7551D594DBB72" overflow="visible"><path d="M 0 0m 2.552 1.512c 0 -0.76 -0.4 -1.32 -0.88 -1.32c -0.304 0 -0.408 0.2 -0.528 0.36c -0.104 0.136 -0.24 0.256 -0.408 0.256c -0.152 0 -0.304 -0.136 -0.304 -0.296c 0 -0.328 0.68 -0.6 1.136 -0.6c 0.992 0 1.696 0.736 1.696 1.744c 0 0.776 -0.536 1.472 -1.432 1.472c -0.344 0 -0.64 -0.072 -0.784 -0.128l 0.16 1.336c 0.296 -0.032 0.552 -0.072 0.936 -0.072c 0.24 0 0.512 0.016 0.84 0.048l 0.128 0.544l -0.056 0.032c -0.456 -0.048 -0.888 -0.088 -1.312 -0.088c -0.296 0 -0.584 0.016 -0.864 0.04l -0.272 -2.304c 0.424 0.16 0.728 0.192 1.016 0.192c 0.52 0 0.928 -0.344 0.928 -1.216Z "/></symbol><symbol id="g97663EC9AEA74EADA07472643E1BE1B4" overflow="visible"><path d="M 0 0m 1.824 -0.08c 0.616 0 1.552 0.624 1.552 2.504c 0 0.792 -0.192 1.472 -0.544 1.936c -0.208 0.28 -0.544 0.52 -0.976 0.52c -0.792 0 -1.544 -0.944 -1.544 -2.528c 0 -0.856 0.264 -1.656 0.704 -2.096c 0.224 -0.224 0.496 -0.336 0.808 -0.336Z m 0.032 4.68c 0.136 0 0.264 -0.048 0.36 -0.136c 0.248 -0.208 0.464 -0.816 0.464 -1.888c 0 -0.736 -0.024 -1.24 -0.136 -1.648c -0.176 -0.656 -0.568 -0.728 -0.712 -0.728c -0.744 0 -0.824 1.368 -0.824 2.064c 0 1.968 0.488 2.336 0.848 2.336Z "/></symbol></defs></svg>