<svg viewBox="0 0 234.606137795 112.377952756" width="234.606137795pt" height="112.377952756pt" xmlns="http://www.w3.org/2000/svg" xmlns:xlink="http://www.w3.org/1999/xlink" xmlns:h5="http://www.w3.org/1999/xhtml"><path fill="#ffffff" fill-rule="nonzero" d="M 0 0v 112.377952756h 234.606137795v -112.377952756Z "/><g transform="translate(8 8)"><path fill="#c3beb4" fill-rule="nonzero" stroke="#1a1a18" stroke-width="0.6" stroke-linecap="butt" stroke-linejoin="miter" stroke-miterlimit="4" transform="translate(31.430374016 8.503937008)" d="M 0 0v 19.842519685h 113.385826772v -19.842519685h -113.385826772Z "/><path fill="#9d9f8f" fill-rule="nonzero" stroke="#1a1a18" stroke-width="0.6" stroke-linecap="butt" stroke-linejoin="miter" stroke-miterlimit="4" transform="translate(31.430374016 28.346456693)" d="M 0 0v 68.031496063h 113.385826772v -68.031496063h -113.385826772Z "/><path fill="none" stroke="#1a1a18" stroke-width="0.6" stroke-linecap="butt" stroke-linejoin="miter" stroke-miterlimit="4" transform="translate(42.768956693)" d="M 0 0m 0 8.503937008v -8.503937008"/><path fill="none" stroke="#1a1a18" stroke-width="0.6" stroke-linecap="butt" stroke-linejoin="miter" stroke-miterlimit="4" transform="translate(59.776830709)" d="M 0 0m 0 8.503937008v -8.503937008"/><path fill="none" stroke="#1a1a18" stroke-width="0.6" stroke-linecap="butt" stroke-linejoin="miter" stroke-miterlimit="4" transform="translate(76.784704724)" d="M 0 0m 0 8.503937008v -8.503937008"/><path fill="none" stroke="#1a1a18" stroke-width="0.6" stroke-linecap="butt" stroke-linejoin="miter" stroke-miterlimit="4" transform="translate(93.79257874)" d="M 0 0m 0 8.503937008v -8.503937008"/><path fill="none" stroke="#1a1a18" stroke-width="0.6" stroke-linecap="butt" stroke-linejoin="miter" stroke-miterlimit="4" transform="translate(110.800452756)" d="M 0 0m 0 8.503937008v -8.503937008"/><path fill="none" stroke="#1a1a18" stroke-width="0.6" stroke-linecap="butt" stroke-linejoin="miter" stroke-miterlimit="4" transform="translate(127.808326772)" d="M 0 0m 0 8.503937008v -8.503937008"/><path fill="#8f887b" fill-rule="nonzero" stroke="#1a1a18" stroke-width="0.6" stroke-linecap="butt" stroke-linejoin="miter" stroke-miterlimit="4" transform="translate(96.060295276 56.125984252)" d="M 0 0m 11.905511811 0c -6.569270929 0 -11.905511811 5.336240882 -11.905511811 11.905511811c 0 6.569270929 5.336240882 11.905511811 11.905511811 11.905511811c 6.569270929 0 11.905511811 -5.336240882 11.905511811 -11.905511811c 0 -6.569270929 -5.336240882 -11.905511811 -11.905511811 -11.905511811Z "/><path fill="none" stroke="#1a1a18" stroke-width="0.6" stroke-linecap="butt" stroke-linejoin="miter" stroke-miterlimit="4" transform="translate(89.540610236 72.283464567)" d="M 0 0m 8.503937008 0l -8.503937008 8.503937008"/><path fill="none" stroke="#1a1a18" stroke-width="0.6" stroke-linecap="butt" stroke-linejoin="miter" stroke-miterlimit="4" transform="translate(99.461870079 76.535433071)" d="M 0 0m 2.834645669 0l -2.834645669 9.921259843"/><path fill="none" transform="translate(96.233807087 65.693496063)" d="M 0 0h 23.464v 4.676h -23.464v -4.676Z "/><g transform="translate(96.233807055 65.693496047)"><g transform="matrix(1 0 0 -1 0 4.606)"><use xlink:href="#gA408CA310B3AA6A0743986FADF9C27FE" x="0" y="0" fill="#ffffff" fill-rule="nonzero"/><use xlink:href="#g75633B6F29A5888E724D0857D045C4A2" x="4.76" y="0" fill="#ffffff" fill-rule="nonzero"/><use xlink:href="#gA408CA310B3AA6A0743986FADF9C27FE" x="7.959" y="0" fill="#ffffff" fill-rule="nonzero"/><use xlink:href="#g2C8FD1FAF3F7CA18BDE7C2D379CD795D" x="12.719" y="0" fill="#ffffff" fill-rule="nonzero"/><use xlink:href="#g471B80484583B5D32DA164DFAFBD5076" x="16.247" y="0" fill="#ffffff" fill-rule="nonzero"/><use xlink:href="#g5928E759C40FFCD0D23D8B8F6182CF30" x="20.349" y="0" fill="#ffffff" fill-rule="nonzero"/></g></g><path fill="none" transform="translate(153.320137795 15.41019685)" d="M 0 0h 59.94v 6.03h -59.94v -6.03Z "/><g transform="translate(153.320137795 15.410196709)"><g transform="matrix(1 0 0 -1 0 5.922)"><use xlink:href="#gF7AD5B3248F8366898BA115B8D318C4E" x="0" y="0" fill="#1a1a18" fill-rule="nonzero"/><use xlink:href="#gAE9E23F53692F92B7B295E455DF99330" x="4.113" y="0" fill="#1a1a18" fill-rule="nonzero"/><use xlink:href="#g611C332DF318E3AAFADBD04F1094DD79" x="8.631" y="0" fill="#1a1a18" fill-rule="nonzero"/><use xlink:href="#g6EA5A1981697E2B5E95285C58F7F7AD0" x="12.636" y="0" fill="#1a1a18" fill-rule="nonzero"/><use xlink:href="#g6F3F83F8220F4B0FE27ED35A349BC8A6" x="17.91" y="0" fill="#1a1a18" fill-rule="nonzero"/><use xlink:href="#g5F2B105DCE44482CD07DFE0B4651B637" x="22.221" y="0" fill="#1a1a18" fill-rule="nonzero"/><use xlink:href="#g5CCD3C35BE7C263075DDDC3F0C06DEE6" x="27.495" y="0" fill="#1a1a18" fill-rule="nonzero"/><use xlink:href="#gAC51535933F66B1324FEFB6C0CD8A486" x="34.011" y="0" fill="#1a1a18" fill-rule="nonzero"/><use xlink:href="#g7815E2C79248546AAEE49EC7F57ADD4E" x="41.535" y="0" fill="#1a1a18" fill-rule="nonzero"/><use xlink:href="#gB118266EF18AECCCCEF724ECE6F3D1D3" x="45.387" y="0" fill="#1a1a18" fill-rule="nonzero"/><use xlink:href="#g7253BD4F4A12C91ABC7B03558525FA66" x="50.13" y="0" fill="#1a1a18" fill-rule="nonzero"/><use xlink:href="#gAC51535933F66B1324FEFB6C0CD8A486" x="54.666" y="0" fill="#1a1a18" fill-rule="nonzero"/></g></g><path fill="none" transform="translate(153.320137795 24.416633858)" d="M 0 0h 53.385v 5.025h -53.385v -5.025Z "/><g transform="translate(153.320137748 24.416633764)"><g transform="matrix(1 0 0 -1 0 4.935)"><use xlink:href="#g9DFB8CAEC5B458B41F3893F12F8EC954" x="0" y="0" fill="#7c7f6a" fill-rule="nonzero"/><use xlink:href="#gEEA2F4BC857577D5A54B2015EAE5E394" x="3.78" y="0" fill="#7c7f6a" fill-rule="nonzero"/><use xlink:href="#gEEA2F4BC857577D5A54B2015EAE5E394" x="7.1175" y="0" fill="#7c7f6a" fill-rule="nonzero"/><use xlink:href="#gFF794F08E96A5B8C53E798F025ED07F6" x="10.455" y="0" fill="#7c7f6a" fill-rule="nonzero"/><use xlink:href="#gD7561D22518914316F6BE22AAAA2B6AA" x="13.8825" y="0" fill="#7c7f6a" fill-rule="nonzero"/><use xlink:href="#g16EB0E76256A1564D6F72B0EC768AD0D" x="18.2775" y="0" fill="#7c7f6a" fill-rule="nonzero"/><use xlink:href="#gFF794F08E96A5B8C53E798F025ED07F6" x="21.87" y="0" fill="#7c7f6a" fill-rule="nonzero"/><use xlink:href="#g3036A15D0A2AECE5F3220ADA73EBBEB6" x="25.2975" y="0" fill="#7c7f6a" fill-rule="nonzero"/><use xlink:href="#gEEA2F4BC857577D5A54B2015EAE5E394" x="28.65" y="0" fill="#7c7f6a" fill-rule="nonzero"/><use xlink:href="#gEA97EC147860E78008C33EAABF207A32" x="33.8625" y="0" fill="#7c7f6a" fill-rule="nonzero"/><use xlink:href="#g3036A15D0A2AECE5F3220ADA73EBBEB6" x="37.815" y="0" fill="#7c7f6a" fill-rule="nonzero"/><use xlink:href="#gEEA2F4BC857577D5A54B2015EAE5E394" x="41.1675" y="0" fill="#7c7f6a" fill-rule="nonzero"/><use xlink:href="#g9DFB8CAEC5B458B41F3893F12F8EC954" x="44.505" y="0" fill="#7c7f6a" fill-rule="nonzero"/><use xlink:href="#g9FFCC18D170BB6C28C600E5B5ACB7B09" x="48.285" y="0" fill="#7c7f6a" fill-rule="nonzero"/></g></g><path fill="none" transform="translate(153.320137795 55.513559055)" d="M 0 0h 65.286v 8.028h -65.286v -8.028Z "/><g transform="translate(153.320137654 55.513559055)"><g transform="matrix(1 0 0 -1 0 5.922)"><use xlink:href="#g6F3F83F8220F4B0FE27ED35A349BC8A6" x="0" y="0" fill="#ffffff" fill-rule="nonzero"/><use xlink:href="#gD351E21AD091924D522A6D2D6355C932" x="4.311" y="0" fill="#ffffff" fill-rule="nonzero"/><use xlink:href="#g3515EF5FD07324BC31659A9072C9EEF0" x="8.334" y="0" fill="#ffffff" fill-rule="nonzero"/><use xlink:href="#g5F2B105DCE44482CD07DFE0B4651B637" x="13.185" y="0" fill="#ffffff" fill-rule="nonzero"/><use xlink:href="#gF7AD5B3248F8366898BA115B8D318C4E" x="18.459" y="0" fill="#ffffff" fill-rule="nonzero"/><use xlink:href="#gCC8431763A18574B9D70D89AC0A75466" x="22.572" y="0" fill="#ffffff" fill-rule="nonzero"/><use xlink:href="#g82C799C01D06EF19E125C6F4348D75CA" x="29.151" y="0" fill="#ffffff" fill-rule="nonzero"/><use xlink:href="#gD351E21AD091924D522A6D2D6355C932" x="35.271" y="0" fill="#ffffff" fill-rule="nonzero"/><use xlink:href="#g4AD90A9068D018AD3CEC8FD5EA9519DC" x="39.294" y="0" fill="#ffffff" fill-rule="nonzero"/><use xlink:href="#g1DA06070DC2F35791C9FB9712E809870" x="43.965" y="0" fill="#ffffff" fill-rule="nonzero"/><use xlink:href="#gB118266EF18AECCCCEF724ECE6F3D1D3" x="47.889" y="0" fill="#ffffff" fill-rule="nonzero"/><use xlink:href="#g7253BD4F4A12C91ABC7B03558525FA66" x="52.632" y="0" fill="#ffffff" fill-rule="nonzero"/><use xlink:href="#g611C332DF318E3AAFADBD04F1094DD79" x="57.168" y="0" fill="#ffffff" fill-rule="nonzero"/><use xlink:href="#gF7AD5B3248F8366898BA115B8D318C4E" x="61.173" y="0" fill="#ffffff" fill-rule="nonzero"/></g></g><path fill="none" transform="translate(153.320137795 65.518996063)" d="M 0 0h 62.9775v 5.025h -62.9775v -5.025Z "/><g transform="translate(153.320137654 65.518995969)"><g transform="matrix(1 0 0 -1 0 4.935)"><use xlink:href="#g81CECF2A01DB167B75FB6D7F75C86D75" x="0" y="0" fill="#ffffff" fill-rule="nonzero"/><use xlink:href="#g2518A51456538726C07542FBD10D7082" x="6.3525" y="0" fill="#ffffff" fill-rule="nonzero"/><use xlink:href="#g755DF9CE1CDD846D73FA5B6599213F56" x="12.3525" y="0" fill="#ffffff" fill-rule="nonzero"/><use xlink:href="#g475737710EF91202766030DA0E8B0F58" x="17.715" y="0" fill="#ffffff" fill-rule="nonzero"/><use xlink:href="#gD6CA0829192013EE14B5BAF2BF44205E" x="19.7175" y="0" fill="#ffffff" fill-rule="nonzero"/></g><g transform="matrix(1 0 0 -1 26.4375 4.935)"><use xlink:href="#gEEA2F4BC857577D5A54B2015EAE5E394" x="0" y="0" fill="#ffffff" fill-rule="nonzero"/><use xlink:href="#gE9DD31ED97DC901ABB725871441019F4" x="3.3375" y="0" fill="#ffffff" fill-rule="nonzero"/><use xlink:href="#g24A3F0AF4AD0375F71DE4AF9BEABB01F" x="8.7675" y="0" fill="#ffffff" fill-rule="nonzero"/><use xlink:href="#g86819BE7115F3729C1E76AE930029E69" x="11.9775" y="0" fill="#ffffff" fill-rule="nonzero"/><use xlink:href="#g88DF289CB0ABE82F4BDD978B7C9B130C" x="15.585" y="0" fill="#ffffff" fill-rule="nonzero"/><use xlink:href="#gD7561D22518914316F6BE22AAAA2B6AA" x="19.6275" y="0" fill="#ffffff" fill-rule="nonzero"/><use xlink:href="#gEA97EC147860E78008C33EAABF207A32" x="25.8975" y="0" fill="#ffffff" fill-rule="nonzero"/><use xlink:href="#g3036A15D0A2AECE5F3220ADA73EBBEB6" x="29.85" y="0" fill="#ffffff" fill-rule="nonzero"/><use xlink:href="#gEEA2F4BC857577D5A54B2015EAE5E394" x="33.2025" y="0" fill="#ffffff" fill-rule="nonzero"/></g></g><path fill="none" stroke="#c9a24b" stroke-width="1" stroke-linecap="butt" stroke-linejoin="miter" stroke-miterlimit="4" transform="translate(15.839822835 11.338582677)" d="M 0 0l 5.663949107 4.24796183"/><path fill="#c9a24b" fill-rule="nonzero" stroke="#c9a24b" stroke-width="1" stroke-linecap="butt" stroke-linejoin="miter" stroke-miterlimit="4" transform="translate(20.228181449 13.885757008)" d="M 0 0m 5.811023622 5.102362205l -5.811023622 -1.700787402l 2.551181102 -3.401574803l 3.25984252 5.102362205Z "/><path fill="none" transform="translate(0 7.408759843)" d="M 0 0h 14.4225v 5.025h -14.4225v -5.025Z "/><g transform="translate(-1.42e-7 7.408759748)"><g transform="matrix(1 0 0 -1 0 4.935)"><use xlink:href="#gEA97EC147860E78008C33EAABF207A32" x="0" y="0" fill="#7c7f6a" fill-rule="nonzero"/><use xlink:href="#g3036A15D0A2AECE5F3220ADA73EBBEB6" x="3.9525" y="0" fill="#7c7f6a" fill-rule="nonzero"/><use xlink:href="#gEEA2F4BC857577D5A54B2015EAE5E394" x="7.305" y="0" fill="#7c7f6a" fill-rule="nonzero"/><use xlink:href="#g9DFB8CAEC5B458B41F3893F12F8EC954" x="10.6425" y="0" fill="#7c7f6a" fill-rule="nonzero"/></g></g></g><defs><symbol id="gA408CA310B3AA6A0743986FADF9C27FE" overflow="visible"><path d="M 0 0m 0.819 2.142l -0.042 -1.302c -0.021 -0.588 -0.126 -0.602 -0.532 -0.623c -0.042 -0.042 -0.042 -0.189 0 -0.231c 0.14 0.007 0.49 0.014 0.602 0.014c 0.14 0 0.469 -0.007 0.609 -0.014c 0.042 0.042 0.042 0.189 0 0.231c -0.399 0.028 -0.427 0.098 -0.413 0.623l 0.049 1.715c 0 0.063 0.028 0.063 0.056 0l 1.015 -2.478c 0.028 -0.021 0.056 -0.021 0.077 0l 1.148 2.471c 0.035 0.077 0.07 0.084 0.07 0l -0.007 -1.694c 0 -0.581 -0.049 -0.602 -0.476 -0.637c -0.042 -0.042 -0.042 -0.189 0 -0.231c 0.252 0.007 0.511 0.014 0.756 0.014c 0.21 0 0.511 -0.007 0.784 -0.014c 0.042 0.042 0.042 0.189 0 0.231c -0.427 0.028 -0.504 0.056 -0.504 0.637l -0.014 1.295c -0.007 0.581 0.077 0.602 0.504 0.637c 0.042 0.042 0.042 0.189 0 0.231c -0.245 -0.014 -0.924 -0.014 -1.155 -0.014l -0.931 -2.002l -0.035 -0.07l -0.028 0.07l -0.819 2.002c -0.231 0 -0.973 0 -1.218 0.014c -0.042 -0.042 -0.042 -0.189 0 -0.231c 0.427 -0.035 0.525 -0.063 0.504 -0.644Z "/></symbol><symbol id="g75633B6F29A5888E724D0857D045C4A2" overflow="visible"><path d="M 0 0m 2.051 0.336c 0.042 -0.217 0.119 -0.406 0.469 -0.406c 0.266 0 0.518 0.119 0.665 0.259c -0.014 0.084 -0.042 0.147 -0.119 0.189c -0.049 -0.042 -0.168 -0.112 -0.259 -0.112c -0.203 0 -0.21 0.273 -0.21 0.595v 1.029c 0 0.994 -0.546 1.183 -1.057 1.183c -0.574 0 -1.155 -0.378 -1.155 -0.777c 0 -0.168 0.084 -0.252 0.245 -0.252c 0.203 0 0.329 0.147 0.329 0.238c 0 0.049 -0.007 0.098 -0.021 0.126c -0.007 0.021 -0.014 0.063 -0.014 0.14c 0 0.217 0.294 0.294 0.56 0.294c 0.238 0 0.567 -0.119 0.567 -0.91c 0 -0.049 -0.021 -0.077 -0.042 -0.084l -0.602 -0.147c -0.672 -0.168 -1.155 -0.539 -1.155 -1.015c 0 -0.574 0.392 -0.756 0.882 -0.756c 0.245 0 0.455 0.056 0.763 0.294l 0.14 0.112Z m 0 1.295v -0.924c 0 -0.091 -0.042 -0.14 -0.098 -0.182c -0.182 -0.147 -0.42 -0.308 -0.616 -0.308c -0.35 0 -0.504 0.28 -0.504 0.497c 0 0.315 0.147 0.637 0.665 0.77Z "/></symbol><symbol id="g2C8FD1FAF3F7CA18BDE7C2D379CD795D" overflow="visible"><path d="M 0 0m 0.287 1.435c 0 -0.714 0.476 -1.505 1.47 -1.505c 0.448 0 0.791 0.161 1.029 0.392c 0.315 0.308 0.455 0.749 0.455 1.176c 0 0.728 -0.399 1.575 -1.47 1.575c -0.462 0 -0.84 -0.189 -1.099 -0.49c -0.252 -0.301 -0.385 -0.707 -0.385 -1.148Z m 1.379 1.393c 0.602 0 0.973 -0.546 0.973 -1.554c 0 -0.882 -0.455 -1.099 -0.784 -1.099c -0.728 0 -0.966 0.882 -0.966 1.421c 0 0.609 0.147 1.232 0.777 1.232Z "/></symbol><symbol id="g471B80484583B5D32DA164DFAFBD5076" overflow="visible"><path d="M 0 0m 3.353 2.149c 0 0.581 0.077 0.602 0.504 0.637c 0.042 0.042 0.042 0.189 0 0.231c -0.245 -0.014 -0.553 -0.014 -0.784 -0.014c -0.196 0 -0.476 0.007 -0.749 0.014c -0.042 -0.042 -0.042 -0.189 0 -0.231c 0.427 -0.028 0.476 -0.056 0.476 -0.637v -0.455h -1.498v 0.455c 0 0.581 0.049 0.602 0.476 0.637c 0.042 0.042 0.042 0.189 0 0.231c -0.266 -0.007 -0.532 -0.014 -0.756 -0.014c -0.21 0 -0.497 0.007 -0.777 0.014c -0.042 -0.042 -0.042 -0.189 0 -0.231c 0.427 -0.028 0.504 -0.056 0.504 -0.637v -1.295c 0 -0.581 -0.077 -0.602 -0.504 -0.637c -0.042 -0.042 -0.042 -0.189 0 -0.231c 0.28 0.007 0.56 0.014 0.784 0.014c 0.224 0 0.497 -0.007 0.749 -0.014c 0.042 0.042 0.042 0.189 0 0.231c -0.427 0.028 -0.476 0.056 -0.476 0.637v 0.609h 1.498v -0.609c 0 -0.581 -0.049 -0.602 -0.476 -0.637c -0.042 -0.042 -0.042 -0.189 0 -0.231c 0.252 0.007 0.511 0.014 0.756 0.014c 0.21 0 0.504 -0.007 0.777 -0.014c 0.042 0.042 0.042 0.189 0 0.231c -0.427 0.028 -0.504 0.056 -0.504 0.637Z "/></symbol><symbol id="g5928E759C40FFCD0D23D8B8F6182CF30" overflow="visible"><path d="M 0 0m 1.274 0.854c 0 -0.581 -0.077 -0.616 -0.504 -0.637c -0.042 -0.042 -0.042 -0.189 0 -0.231c 0.273 0.007 0.553 0.014 0.784 0.014c 0.238 0 0.511 -0.007 0.777 -0.014c 0.042 0.042 0.042 0.189 0 0.231c -0.427 0.021 -0.504 0.056 -0.504 0.637v 1.89h 0.119c 0.567 0 0.679 -0.196 0.798 -0.763c 0.091 0 0.182 0.028 0.182 0.028c -0.042 0.322 -0.07 0.63 -0.077 1.036c -0.161 -0.014 -0.686 -0.042 -1.036 -0.042h -0.525c -0.35 0 -0.742 0.021 -1.022 0.042c -0.007 -0.406 -0.035 -0.714 -0.084 -1.036c 0 0 0.098 -0.028 0.189 -0.028c 0.119 0.567 0.224 0.763 0.798 0.763h 0.105Z "/></symbol><symbol id="gF7AD5B3248F8366898BA115B8D318C4E" overflow="visible"><path d="M 0 0m 2.637 0.432c 0.054 -0.279 0.153 -0.522 0.603 -0.522c 0.342 0 0.666 0.153 0.855 0.333c -0.018 0.108 -0.054 0.189 -0.153 0.243c -0.063 -0.054 -0.216 -0.144 -0.333 -0.144c -0.261 0 -0.27 0.351 -0.27 0.765v 1.323c 0 1.278 -0.702 1.521 -1.359 1.521c -0.738 0 -1.485 -0.486 -1.485 -0.999c 0 -0.216 0.108 -0.324 0.315 -0.324c 0.261 0 0.423 0.189 0.423 0.306c 0 0.063 -0.009 0.126 -0.027 0.162c -0.009 0.027 -0.018 0.081 -0.018 0.18c 0 0.279 0.378 0.378 0.72 0.378c 0.306 0 0.729 -0.153 0.729 -1.17c 0 -0.063 -0.027 -0.099 -0.054 -0.108l -0.774 -0.189c -0.864 -0.216 -1.485 -0.693 -1.485 -1.305c 0 -0.738 0.504 -0.972 1.134 -0.972c 0.315 0 0.585 0.072 0.981 0.378l 0.18 0.144Z m 0 1.665v -1.188c 0 -0.117 -0.054 -0.18 -0.126 -0.234c -0.234 -0.189 -0.54 -0.396 -0.792 -0.396c -0.45 0 -0.648 0.36 -0.648 0.639c 0 0.405 0.189 0.819 0.855 0.99Z "/></symbol><symbol id="gAE9E23F53692F92B7B295E455DF99330" overflow="visible"><path d="M 0 0m 3.474 0c 0 0 0.702 -0.009 0.882 -0.018c 0.054 0.054 0.054 0.243 0 0.297c -0.351 0.018 -0.423 0.09 -0.576 0.378l -0.405 0.765c -0.225 0.423 -0.54 0.639 -1.053 0.639v 0.027c 0.351 0.099 0.504 0.414 0.639 0.774c 0.108 0.279 0.216 0.45 0.405 0.45c 0.081 0 0.153 -0.027 0.207 -0.063c 0.054 -0.036 0.153 -0.063 0.27 -0.063c 0.198 0 0.36 0.171 0.36 0.351c 0 0.198 -0.216 0.405 -0.513 0.405c -0.522 0 -0.765 -0.486 -0.936 -0.909c -0.198 -0.495 -0.441 -0.837 -1.08 -0.837v 0.567c 0 0.747 0.099 0.774 0.558 0.819c 0.054 0.054 0.054 0.243 0 0.297c -0.216 -0.009 -0.558 -0.018 -0.918 -0.018c -0.387 0 -0.702 0.009 -0.999 0.018c -0.054 -0.054 -0.054 -0.243 0 -0.297c 0.549 -0.036 0.648 -0.072 0.648 -0.819v -1.665c 0 -0.747 -0.099 -0.774 -0.648 -0.819c -0.054 -0.054 -0.054 -0.243 0 -0.297c 0.297 0.009 0.612 0.018 1.008 0.018c 0.351 0 0.711 -0.009 0.909 -0.018c 0.054 0.054 0.054 0.243 0 0.297c -0.459 0.036 -0.558 0.072 -0.558 0.819v 0.783c 0.612 -0.036 0.774 -0.279 0.936 -0.612l 0.387 -0.81c 0.117 -0.243 0.297 -0.45 0.477 -0.459Z "/></symbol><symbol id="g611C332DF318E3AAFADBD04F1094DD79" overflow="visible"><path d="M 0 0m 1.638 1.098c 0 -0.747 -0.099 -0.792 -0.648 -0.819c -0.054 -0.054 -0.054 -0.243 0 -0.297c 0.351 0.009 0.711 0.018 1.008 0.018c 0.306 0 0.657 -0.009 0.999 -0.018c 0.054 0.054 0.054 0.243 0 0.297c -0.549 0.027 -0.648 0.072 -0.648 0.819v 2.43h 0.153c 0.729 0 0.873 -0.252 1.026 -0.981c 0.117 0 0.234 0.036 0.234 0.036c -0.054 0.414 -0.09 0.81 -0.099 1.332c -0.207 -0.018 -0.882 -0.054 -1.332 -0.054h -0.675c -0.45 0 -0.954 0.027 -1.314 0.054c -0.009 -0.522 -0.045 -0.918 -0.108 -1.332c 0 0 0.126 -0.036 0.243 -0.036c 0.153 0.729 0.288 0.981 1.026 0.981h 0.135Z "/></symbol><symbol id="g6EA5A1981697E2B5E95285C58F7F7AD0" overflow="visible"><path d="M 0 0m 1.782 0.567c -0.027 0 -0.063 0.018 -0.063 0.108v 2.052c 0 0.747 0.189 0.828 0.648 0.855c 0.054 0.054 0.054 0.243 0 0.297c -0.207 -0.009 -0.72 -0.018 -1.053 -0.018c -0.297 0 -0.657 0.009 -0.999 0.018c -0.054 -0.054 -0.054 -0.243 0 -0.297c 0.549 -0.027 0.693 -0.108 0.693 -0.855v -1.593c 0 -0.747 -0.144 -0.828 -0.693 -0.855c -0.054 -0.054 -0.054 -0.243 0 -0.297c 0.351 0.009 0.711 0.018 0.999 0.018c 0.207 0 0.45 -0.009 0.549 -0.018c 0.045 0.126 0.126 0.306 0.225 0.486l 1.404 2.817c 0.027 0 0.063 -0.018 0.063 -0.108v -2.043c 0 -0.747 -0.189 -0.828 -0.648 -0.855c -0.054 -0.054 -0.054 -0.243 0 -0.297c 0.207 0.009 0.693 0.018 1.053 0.018c 0.279 0 0.648 -0.009 0.999 -0.018c 0.054 0.054 0.054 0.243 0 0.297c -0.549 0.027 -0.693 0.108 -0.693 0.855v 1.593c 0 0.747 0.144 0.828 0.693 0.855c 0.054 0.054 0.054 0.243 0 0.297c -0.36 -0.009 -0.72 -0.018 -0.999 -0.018c -0.198 0 -0.45 0.009 -0.54 0.018c -0.072 -0.162 -0.153 -0.351 -0.234 -0.504Z "/></symbol><symbol id="g6F3F83F8220F4B0FE27ED35A349BC8A6" overflow="visible"><path d="M 0 0m 1.314 3.861c -0.387 0 -0.702 0.009 -0.999 0.018c -0.054 -0.054 -0.054 -0.243 0 -0.297c 0.549 -0.036 0.648 -0.072 0.648 -0.819v -1.665c 0 -0.747 -0.099 -0.774 -0.648 -0.819c -0.054 -0.054 -0.054 -0.243 0 -0.297c 0.297 0.009 0.612 0.018 1.008 0.018c 0.333 0 0.63 -0.018 1.233 -0.018c 0.774 0 1.359 0.216 1.359 1.107c 0 0.504 -0.315 0.855 -0.864 0.954v 0.027c 0.414 0.081 0.729 0.369 0.729 0.909c 0 0.63 -0.387 0.9 -1.476 0.9c -0.369 0 -0.603 -0.018 -0.99 -0.018Z m 0.36 -1.908h 0.684c 0.549 0 0.783 -0.36 0.783 -0.9c 0 -0.603 -0.342 -0.774 -0.828 -0.774c -0.468 0 -0.639 0.081 -0.639 0.495Z m 0 0.261v 1.044c 0 0.27 0.207 0.324 0.639 0.324c 0.468 0 0.747 -0.126 0.747 -0.666c 0 -0.36 -0.234 -0.702 -0.792 -0.702Z "/></symbol><symbol id="g5F2B105DCE44482CD07DFE0B4651B637" overflow="visible"><path d="M 0 0m 4.311 2.763c 0 0.747 0.099 0.774 0.648 0.819c 0.054 0.054 0.054 0.243 0 0.297c -0.315 -0.018 -0.711 -0.018 -1.008 -0.018c -0.252 0 -0.612 0.009 -0.963 0.018c -0.054 -0.054 -0.054 -0.243 0 -0.297c 0.549 -0.036 0.612 -0.072 0.612 -0.819v -0.585h -1.926v 0.585c 0 0.747 0.063 0.774 0.612 0.819c 0.054 0.054 0.054 0.243 0 0.297c -0.342 -0.009 -0.684 -0.018 -0.972 -0.018c -0.27 0 -0.639 0.009 -0.999 0.018c -0.054 -0.054 -0.054 -0.243 0 -0.297c 0.549 -0.036 0.648 -0.072 0.648 -0.819v -1.665c 0 -0.747 -0.099 -0.774 -0.648 -0.819c -0.054 -0.054 -0.054 -0.243 0 -0.297c 0.36 0.009 0.72 0.018 1.008 0.018c 0.288 0 0.639 -0.009 0.963 -0.018c 0.054 0.054 0.054 0.243 0 0.297c -0.549 0.036 -0.612 0.072 -0.612 0.819v 0.783h 1.926v -0.783c 0 -0.747 -0.063 -0.774 -0.612 -0.819c -0.054 -0.054 -0.054 -0.243 0 -0.297c 0.324 0.009 0.657 0.018 0.972 0.018c 0.27 0 0.648 -0.009 0.999 -0.018c 0.054 0.054 0.054 0.243 0 0.297c -0.549 0.036 -0.648 0.072 -0.648 0.819Z "/></symbol><symbol id="g5CCD3C35BE7C263075DDDC3F0C06DEE6" overflow="visible"><path d="M 0 0m 1.674 2.754c 0 0.756 0.099 0.783 0.648 0.828c 0.054 0.054 0.054 0.243 0 0.297c -0.306 -0.009 -0.612 -0.018 -1.008 -0.018c -0.387 0 -0.702 0.009 -0.999 0.018c -0.054 -0.054 -0.054 -0.243 0 -0.297c 0.549 -0.036 0.648 -0.072 0.648 -0.819v -1.665c 0 -0.747 -0.099 -0.774 -0.648 -0.819c -0.054 -0.054 -0.054 -0.243 0 -0.297c 0.297 0.009 0.612 0.018 1.008 0.018c 0.369 0 0.567 -0.018 0.936 -0.018c 1.107 0 1.71 0.279 1.71 1.242c 0 0.846 -0.738 1.089 -1.647 1.089h -0.648Z m 3.879 0.009c 0 0.747 0.099 0.774 0.648 0.819c 0.054 0.054 0.054 0.243 0 0.297c -0.306 -0.009 -0.612 -0.018 -1.008 -0.018c -0.387 0 -0.702 0.009 -0.999 0.018c -0.054 -0.054 -0.054 -0.243 0 -0.297c 0.549 -0.036 0.648 -0.072 0.648 -0.819v -1.665c 0 -0.747 -0.099 -0.774 -0.648 -0.819c -0.054 -0.054 -0.054 -0.243 0 -0.297c 0.297 0.009 0.612 0.018 1.008 0.018c 0.387 0 0.711 -0.009 0.999 -0.018c 0.054 0.054 0.054 0.243 0 0.297c -0.549 0.036 -0.648 0.072 -0.648 0.819Z m -2.358 -1.629c 0 -0.738 -0.45 -0.855 -0.927 -0.855c -0.441 0 -0.594 0.09 -0.594 0.405v 1.332h 0.639c 0.675 0 0.882 -0.405 0.882 -0.882Z "/></symbol><symbol id="gAC51535933F66B1324FEFB6C0CD8A486" overflow="visible"><path d="M 0 0m 1.782 0.567c -0.027 0 -0.063 0.018 -0.063 0.108v 2.052c 0 0.747 0.189 0.828 0.648 0.855c 0.054 0.054 0.054 0.243 0 0.297c -0.207 -0.009 -0.72 -0.018 -1.053 -0.018c -0.297 0 -0.657 0.009 -0.999 0.018c -0.054 -0.054 -0.054 -0.243 0 -0.297c 0.549 -0.027 0.693 -0.108 0.693 -0.855v -1.593c 0 -0.747 -0.144 -0.828 -0.693 -0.855c -0.054 -0.054 -0.054 -0.243 0 -0.297c 0.351 0.009 0.711 0.018 0.999 0.018c 0.207 0 0.45 -0.009 0.549 -0.018c 0.045 0.126 0.126 0.306 0.225 0.486l 1.404 2.817c 0.027 0 0.063 -0.018 0.063 -0.108v -2.043c 0 -0.747 -0.189 -0.828 -0.648 -0.855c -0.054 -0.054 -0.054 -0.243 0 -0.297c 0.207 0.009 0.693 0.018 1.053 0.018c 0.279 0 0.648 -0.009 0.999 -0.018c 0.054 0.054 0.054 0.243 0 0.297c -0.549 0.027 -0.693 0.108 -0.693 0.855v 1.593c 0 0.747 0.144 0.828 0.693 0.855c 0.054 0.054 0.054 0.243 0 0.297c -0.36 -0.009 -0.72 -0.018 -0.999 -0.018c -0.198 0 -0.45 0.009 -0.54 0.018c -0.072 -0.162 -0.153 -0.351 -0.234 -0.504Z m 1.935 4.743c 0 0.171 -0.126 0.297 -0.342 0.297c -0.162 0 -0.315 -0.126 -0.315 -0.279c 0 -0.027 0 -0.045 0.009 -0.063c 0.009 -0.027 0.009 -0.054 0.009 -0.081c 0 -0.198 -0.189 -0.378 -0.45 -0.378c -0.27 0 -0.45 0.189 -0.45 0.387c 0 0.018 0 0.045 0.009 0.072c 0.009 0.027 0.009 0.045 0.009 0.072c 0 0.144 -0.108 0.27 -0.306 0.27c -0.207 0 -0.351 -0.135 -0.351 -0.297c 0 -0.486 0.495 -0.783 1.08 -0.783c 0.576 0 1.098 0.288 1.098 0.783Z "/></symbol><symbol id="g7815E2C79248546AAEE49EC7F57ADD4E" overflow="visible"><path d="M 0 0m 3.582 0.819c -0.036 0.081 -0.108 0.117 -0.189 0.126c -0.306 -0.396 -0.693 -0.594 -1.08 -0.594c -0.657 0 -1.206 0.666 -1.206 1.719c 0 0.99 0.432 1.584 1.026 1.584c 0.531 0 0.603 -0.315 0.639 -0.63c 0.027 -0.243 0.153 -0.324 0.342 -0.324c 0.189 0 0.441 0.117 0.441 0.396c 0 0.495 -0.513 0.855 -1.377 0.855c -0.891 0 -1.845 -0.801 -1.845 -2.079c 0 -1.161 0.648 -1.962 1.782 -1.962c 0.54 0 1.017 0.171 1.467 0.909Z "/></symbol><symbol id="gB118266EF18AECCCCEF724ECE6F3D1D3" overflow="visible"><path d="M 0 0m 3.762 1.098v 1.665c 0 0.738 0.117 0.783 0.612 0.819c 0.054 0.054 0.054 0.243 0 0.297c -0.27 -0.009 -0.612 -0.018 -0.972 -0.018h -1.701c -0.297 0 -0.648 0.009 -0.918 0.018c -0.054 -0.054 -0.054 -0.243 0 -0.297c 0.639 -0.045 0.729 -0.099 0.729 -1.071c 0 -0.945 -0.072 -1.44 -0.198 -1.809c -0.117 -0.324 -0.27 -0.441 -0.423 -0.441c -0.117 0 -0.153 0.072 -0.171 0.189c -0.027 0.171 -0.081 0.342 -0.333 0.342c -0.225 0 -0.351 -0.18 -0.351 -0.378c 0 -0.279 0.252 -0.522 0.666 -0.522c 0.459 0 0.711 0.234 0.918 0.72c 0.18 0.432 0.234 1.35 0.234 1.962c 0 0.702 0.027 0.936 0.387 0.936h 0.405c 0.342 0 0.405 -0.216 0.405 -0.522v -1.89c 0 -0.738 -0.09 -0.783 -0.558 -0.819c -0.045 -0.054 -0.045 -0.243 0 -0.297c 0.225 0.009 0.558 0.018 0.918 0.018c 0.36 0 0.765 -0.009 1.017 -0.018c 0.045 0.054 0.045 0.243 0 0.297c -0.585 0.036 -0.666 0.081 -0.666 0.819Z "/></symbol><symbol id="g7253BD4F4A12C91ABC7B03558525FA66" overflow="visible"><path d="M 0 0m 0.369 1.845c 0 -0.918 0.612 -1.935 1.89 -1.935c 0.576 0 1.017 0.207 1.323 0.504c 0.405 0.396 0.585 0.963 0.585 1.512c 0 0.936 -0.513 2.025 -1.89 2.025c -0.594 0 -1.08 -0.243 -1.413 -0.63c -0.324 -0.387 -0.495 -0.909 -0.495 -1.476Z m 1.773 1.791c 0.774 0 1.251 -0.702 1.251 -1.998c 0 -1.134 -0.585 -1.413 -1.008 -1.413c -0.936 0 -1.242 1.134 -1.242 1.827c 0 0.783 0.189 1.584 0.999 1.584Z "/></symbol><symbol id="g9DFB8CAEC5B458B41F3893F12F8EC954" overflow="visible"><path d="M 0 0m 0.3075 1.5375c 0 -0.765 0.51 -1.6125 1.575 -1.6125c 0.48 0 0.8475 0.1725 1.1025 0.42c 0.3375 0.33 0.4875 0.8025 0.4875 1.26c 0 0.78 -0.4275 1.6875 -1.575 1.6875c -0.495 0 -0.9 -0.2025 -1.1775 -0.525c -0.27 -0.3225 -0.4125 -0.7575 -0.4125 -1.23Z m 1.4775 1.4925c 0.645 0 1.0425 -0.585 1.0425 -1.665c 0 -0.945 -0.4875 -1.1775 -0.84 -1.1775c -0.78 0 -1.035 0.945 -1.035 1.5225c 0 0.6525 0.1575 1.32 0.8325 1.32Z "/></symbol><symbol id="gEEA2F4BC857577D5A54B2015EAE5E394" overflow="visible"><path d="M 0 0m 1.365 0.915c 0 -0.6225 -0.0825 -0.66 -0.54 -0.6825c -0.045 -0.045 -0.045 -0.2025 0 -0.2475c 0.2925 0.0075 0.5925 0.015 0.84 0.015c 0.255 0 0.5475 -0.0075 0.8325 -0.015c 0.045 0.045 0.045 0.2025 0 0.2475c -0.4575 0.0225 -0.54 0.06 -0.54 0.6825v 2.025h 0.1275c 0.6075 0 0.7275 -0.21 0.855 -0.8175c 0.0975 0 0.195 0.03 0.195 0.03c -0.045 0.345 -0.075 0.675 -0.0825 1.11c -0.1725 -0.015 -0.735 -0.045 -1.11 -0.045h -0.5625c -0.375 0 -0.795 0.0225 -1.095 0.045c -0.0075 -0.435 -0.0375 -0.765 -0.09 -1.11c 0 0 0.105 -0.03 0.2025 -0.03c 0.1275 0.6075 0.24 0.8175 0.855 0.8175h 0.1125Z "/></symbol><symbol id="gFF794F08E96A5B8C53E798F025ED07F6" overflow="visible"><path d="M 0 0m 2.1975 0.36c 0.045 -0.2325 0.1275 -0.435 0.5025 -0.435c 0.285 0 0.555 0.1275 0.7125 0.2775c -0.015 0.09 -0.045 0.1575 -0.1275 0.2025c -0.0525 -0.045 -0.18 -0.12 -0.2775 -0.12c -0.2175 0 -0.225 0.2925 -0.225 0.6375v 1.1025c 0 1.065 -0.585 1.2675 -1.1325 1.2675c -0.615 0 -1.2375 -0.405 -1.2375 -0.8325c 0 -0.18 0.09 -0.27 0.2625 -0.27c 0.2175 0 0.3525 0.1575 0.3525 0.255c 0 0.0525 -0.0075 0.105 -0.0225 0.135c -0.0075 0.0225 -0.015 0.0675 -0.015 0.15c 0 0.2325 0.315 0.315 0.6 0.315c 0.255 0 0.6075 -0.1275 0.6075 -0.975c 0 -0.0525 -0.0225 -0.0825 -0.045 -0.09l -0.645 -0.1575c -0.72 -0.18 -1.2375 -0.5775 -1.2375 -1.0875c 0 -0.615 0.42 -0.81 0.945 -0.81c 0.2625 0 0.4875 0.06 0.8175 0.315l 0.15 0.12Z m 0 1.3875v -0.99c 0 -0.0975 -0.045 -0.15 -0.105 -0.195c -0.195 -0.1575 -0.45 -0.33 -0.66 -0.33c -0.375 0 -0.54 0.3 -0.54 0.5325c 0 0.3375 0.1575 0.6825 0.7125 0.825Z "/></symbol><symbol id="gD7561D22518914316F6BE22AAAA2B6AA" overflow="visible"><path d="M 0 0m 1.485 0.4725c -0.0225 0 -0.0525 0.015 -0.0525 0.09v 1.71c 0 0.6225 0.1575 0.69 0.54 0.7125c 0.045 0.045 0.045 0.2025 0 0.2475c -0.1725 -0.0075 -0.6 -0.015 -0.8775 -0.015c -0.2475 0 -0.5475 0.0075 -0.8325 0.015c -0.045 -0.045 -0.045 -0.2025 0 -0.2475c 0.4575 -0.0225 0.5775 -0.09 0.5775 -0.7125v -1.3275c 0 -0.6225 -0.12 -0.69 -0.5775 -0.7125c -0.045 -0.045 -0.045 -0.2025 0 -0.2475c 0.2925 0.0075 0.5925 0.015 0.8325 0.015c 0.1725 0 0.375 -0.0075 0.4575 -0.015c 0.0375 0.105 0.105 0.255 0.1875 0.405l 1.17 2.3475c 0.0225 0 0.0525 -0.015 0.0525 -0.09v -1.7025c 0 -0.6225 -0.1575 -0.69 -0.54 -0.7125c -0.045 -0.045 -0.045 -0.2025 0 -0.2475c 0.1725 0.0075 0.5775 0.015 0.8775 0.015c 0.2325 0 0.54 -0.0075 0.8325 -0.015c 0.045 0.045 0.045 0.2025 0 0.2475c -0.4575 0.0225 -0.5775 0.09 -0.5775 0.7125v 1.3275c 0 0.6225 0.12 0.69 0.5775 0.7125c 0.045 0.045 0.045 0.2025 0 0.2475c -0.3 -0.0075 -0.6 -0.015 -0.8325 -0.015c -0.165 0 -0.375 0.0075 -0.45 0.015c -0.06 -0.135 -0.1275 -0.2925 -0.195 -0.42Z "/></symbol><symbol id="g16EB0E76256A1564D6F72B0EC768AD0D" overflow="visible"><path d="M 0 0m 1.095 3.2175c -0.3225 0 -0.585 0.0075 -0.8325 0.015c -0.045 -0.045 -0.045 -0.2025 0 -0.2475c 0.4575 -0.03 0.54 -0.06 0.54 -0.6825v -1.3875c 0 -0.6225 -0.0825 -0.645 -0.54 -0.6825c -0.045 -0.045 -0.045 -0.2025 0 -0.2475c 0.2475 0.0075 0.51 0.015 0.84 0.015c 0.2775 0 0.525 -0.015 1.0275 -0.015c 0.645 0 1.1325 0.18 1.1325 0.9225c 0 0.42 -0.2625 0.7125 -0.72 0.795v 0.0225c 0.345 0.0675 0.6075 0.3075 0.6075 0.7575c 0 0.525 -0.3225 0.75 -1.23 0.75c -0.3075 0 -0.5025 -0.015 -0.825 -0.015Z m 0.3 -1.59h 0.57c 0.4575 0 0.6525 -0.3 0.6525 -0.75c 0 -0.5025 -0.285 -0.645 -0.69 -0.645c -0.39 0 -0.5325 0.0675 -0.5325 0.4125Z m 0 0.2175v 0.87c 0 0.225 0.1725 0.27 0.5325 0.27c 0.39 0 0.6225 -0.105 0.6225 -0.555c 0 -0.3 -0.195 -0.585 -0.66 -0.585Z "/></symbol><symbol id="g3036A15D0A2AECE5F3220ADA73EBBEB6" overflow="visible"><path d="M 0 0m 2.895 0.6975c -0.2775 -0.285 -0.495 -0.405 -0.93 -0.405c -0.27 0 -0.585 0.1575 -0.8175 0.54c -0.15 0.2475 -0.24 0.5925 -0.24 1.0275l 1.995 -0.015c 0.09 0 0.1425 0.045 0.1425 0.1275c 0 0.63 -0.225 1.305 -1.2675 1.305c -0.6525 0 -1.5 -0.6225 -1.5 -1.7625c 0 -0.42 0.105 -0.825 0.3525 -1.11c 0.255 -0.3 0.6075 -0.48 1.1475 -0.48c 0.57 0 0.975 0.2625 1.275 0.6525c -0.0225 0.075 -0.0675 0.1125 -0.1575 0.12Z m -1.965 1.4175c 0.1425 0.8475 0.6675 0.915 0.8475 0.915c 0.285 0 0.6225 -0.1575 0.6225 -0.7875c 0 -0.0675 -0.03 -0.105 -0.1125 -0.105Z "/></symbol><symbol id="gEA97EC147860E78008C33EAABF207A32" overflow="visible"><path d="M 0 0m 3.135 0.915v 1.3875c 0 0.615 0.0975 0.6525 0.51 0.6825c 0.045 0.045 0.045 0.2025 0 0.2475c -0.225 -0.0075 -0.51 -0.015 -0.81 -0.015h -1.4175c -0.2475 0 -0.54 0.0075 -0.765 0.015c -0.045 -0.045 -0.045 -0.2025 0 -0.2475c 0.5325 -0.0375 0.6075 -0.0825 0.6075 -0.8925c 0 -0.7875 -0.06 -1.2 -0.165 -1.5075c -0.0975 -0.27 -0.225 -0.3675 -0.3525 -0.3675c -0.0975 0 -0.1275 0.06 -0.1425 0.1575c -0.0225 0.1425 -0.0675 0.285 -0.2775 0.285c -0.1875 0 -0.2925 -0.15 -0.2925 -0.315c 0 -0.2325 0.21 -0.435 0.555 -0.435c 0.3825 0 0.5925 0.195 0.765 0.6c 0.15 0.36 0.195 1.125 0.195 1.635c 0 0.585 0.0225 0.78 0.3225 0.78h 0.3375c 0.285 0 0.3375 -0.18 0.3375 -0.435v -1.575c 0 -0.615 -0.075 -0.6525 -0.465 -0.6825c -0.0375 -0.045 -0.0375 -0.2025 0 -0.2475c 0.1875 0.0075 0.465 0.015 0.765 0.015c 0.3 0 0.6375 -0.0075 0.8475 -0.015c 0.0375 0.045 0.0375 0.2025 0 0.2475c -0.4875 0.03 -0.555 0.0675 -0.555 0.6825Z "/></symbol><symbol id="g9FFCC18D170BB6C28C600E5B5ACB7B09" overflow="visible"><path d="M 0 0m 0.8775 2.295l -0.045 -1.395c -0.0225 -0.63 -0.135 -0.645 -0.57 -0.6675c -0.045 -0.045 -0.045 -0.2025 0 -0.2475c 0.15 0.0075 0.525 0.015 0.645 0.015c 0.15 0 0.5025 -0.0075 0.6525 -0.015c 0.045 0.045 0.045 0.2025 0 0.2475c -0.4275 0.03 -0.4575 0.105 -0.4425 0.6675l 0.0525 1.8375c 0 0.0675 0.03 0.0675 0.06 0l 1.0875 -2.655c 0.03 -0.0225 0.06 -0.0225 0.0825 0l 1.23 2.6475c 0.0375 0.0825 0.075 0.09 0.075 0l -0.0075 -1.815c 0 -0.6225 -0.0525 -0.645 -0.51 -0.6825c -0.045 -0.045 -0.045 -0.2025 0 -0.2475c 0.27 0.0075 0.5475 0.015 0.81 0.015c 0.225 0 0.5475 -0.0075 0.84 -0.015c 0.045 0.045 0.045 0.2025 0 0.2475c -0.4575 0.03 -0.54 0.06 -0.54 0.6825l -0.015 1.3875c -0.0075 0.6225 0.0825 0.645 0.54 0.6825c 0.045 0.045 0.045 0.2025 0 0.2475c -0.2625 -0.015 -0.99 -0.015 -1.2375 -0.015l -0.9975 -2.145l -0.0375 -0.075l -0.03 0.075l -0.8775 2.145c -0.2475 0 -1.0425 0 -1.305 0.015c -0.045 -0.045 -0.045 -0.2025 0 -0.2475c 0.4575 -0.0375 0.5625 -0.0675 0.54 -0.69Z "/></symbol><symbol id="gD351E21AD091924D522A6D2D6355C932" overflow="visible"><path d="M 0 0m 3.474 0.837c -0.333 -0.342 -0.594 -0.486 -1.116 -0.486c -0.324 0 -0.702 0.189 -0.981 0.648c -0.18 0.297 -0.288 0.711 -0.288 1.233l 2.394 -0.018c 0.108 0 0.171 0.054 0.171 0.153c 0 0.756 -0.27 1.566 -1.521 1.566c -0.783 0 -1.8 -0.747 -1.8 -2.115c 0 -0.504 0.126 -0.99 0.423 -1.332c 0.306 -0.36 0.729 -0.576 1.377 -0.576c 0.684 0 1.17 0.315 1.53 0.783c -0.027 0.09 -0.081 0.135 -0.189 0.144Z m -2.358 1.701c 0.171 1.017 0.801 1.098 1.017 1.098c 0.342 0 0.747 -0.189 0.747 -0.945c 0 -0.081 -0.036 -0.126 -0.135 -0.126Z "/></symbol><symbol id="g3515EF5FD07324BC31659A9072C9EEF0" overflow="visible"><path d="M 0 0m 1.458 2.763c 0 0.747 0.099 0.774 0.558 0.819c 0.054 0.054 0.054 0.243 0 0.297c -0.216 -0.009 -0.558 -0.018 -0.918 -0.018c -0.387 0 -0.693 0.009 -0.99 0.018c -0.054 -0.054 -0.054 -0.243 0 -0.297c 0.549 -0.036 0.648 -0.072 0.648 -0.819v -0.387c 0 -0.846 0.189 -1.179 1.026 -1.179c 0.567 0 1.017 0.324 1.386 0.594v -0.693c 0 -0.747 -0.099 -0.774 -0.648 -0.819c -0.054 -0.054 -0.054 -0.243 0 -0.297c 0.297 0.009 0.612 0.018 1.008 0.018c 0.387 0 0.72 -0.009 1.008 -0.018c 0.054 0.054 0.054 0.243 0 0.297c -0.549 0.036 -0.648 0.072 -0.648 0.819v 1.665c 0 0.747 0.099 0.774 0.648 0.819c 0.054 0.054 0.054 0.243 0 0.297c -0.306 -0.009 -0.612 -0.018 -1.008 -0.018c -0.351 0 -0.711 0.009 -0.918 0.018c -0.054 -0.054 -0.054 -0.243 0 -0.297c 0.459 -0.036 0.558 -0.072 0.558 -0.819v -0.648c -0.306 -0.27 -0.63 -0.513 -1.098 -0.513c -0.585 0 -0.612 0.306 -0.612 1.008Z "/></symbol><symbol id="gCC8431763A18574B9D70D89AC0A75466" overflow="visible"><path d="M 0 0m 1.026 0c 0.252 0.009 0.342 0.243 0.45 0.567c 0.234 0.711 0.495 1.152 0.945 1.152h 0.234v -0.621c 0 -0.747 -0.099 -0.774 -0.648 -0.819c -0.054 -0.054 -0.054 -0.243 0 -0.297c 0.297 0.009 0.612 0.018 1.008 0.018c 0.387 0 0.711 -0.009 0.999 -0.018c 0.054 0.054 0.054 0.243 0 0.297c -0.549 0.036 -0.648 0.072 -0.648 0.819v 1.665c 0 0.747 0.099 0.774 0.648 0.819c 0.054 0.054 0.054 0.243 0 0.297c -0.306 -0.009 -0.612 -0.018 -1.008 -0.018c -0.306 0 -0.567 0.018 -0.792 0.018c -1.575 0 -1.71 -0.648 -1.71 -1.134c 0 -0.585 0.45 -0.882 1.116 -0.909c 0.027 0 0.027 -0.027 0.018 -0.036c -0.342 -0.099 -0.495 -0.288 -0.648 -0.621c -0.099 -0.207 -0.18 -0.405 -0.225 -0.522c -0.117 -0.306 -0.27 -0.36 -0.621 -0.378c -0.054 -0.054 -0.054 -0.243 0 -0.297c 0.18 0.009 0.882 0.018 0.882 0.018Z m 0.252 2.889c 0 0.423 0.135 0.693 0.864 0.693c 0.369 0 0.513 -0.162 0.513 -0.504v -1.053h -0.63c -0.54 0 -0.747 0.414 -0.747 0.864Z "/></symbol><symbol id="g82C799C01D06EF19E125C6F4348D75CA" overflow="visible"><path d="M 0 0m 1.053 2.754l -0.054 -1.674c -0.027 -0.756 -0.162 -0.774 -0.684 -0.801c -0.054 -0.054 -0.054 -0.243 0 -0.297c 0.18 0.009 0.63 0.018 0.774 0.018c 0.18 0 0.603 -0.009 0.783 -0.018c 0.054 0.054 0.054 0.243 0 0.297c -0.513 0.036 -0.549 0.126 -0.531 0.801l 0.063 2.205c 0 0.081 0.036 0.081 0.072 0l 1.305 -3.186c 0.036 -0.027 0.072 -0.027 0.099 0l 1.476 3.177c 0.045 0.099 0.09 0.108 0.09 0l -0.009 -2.178c 0 -0.747 -0.063 -0.774 -0.612 -0.819c -0.054 -0.054 -0.054 -0.243 0 -0.297c 0.324 0.009 0.657 0.018 0.972 0.018c 0.27 0 0.657 -0.009 1.008 -0.018c 0.054 0.054 0.054 0.243 0 0.297c -0.549 0.036 -0.648 0.072 -0.648 0.819l -0.018 1.665c -0.009 0.747 0.099 0.774 0.648 0.819c 0.054 0.054 0.054 0.243 0 0.297c -0.315 -0.018 -1.188 -0.018 -1.485 -0.018l -1.197 -2.574l -0.045 -0.09l -0.036 0.09l -1.053 2.574c -0.297 0 -1.251 0 -1.566 0.018c -0.054 -0.054 -0.054 -0.243 0 -0.297c 0.549 -0.045 0.675 -0.081 0.648 -0.828Z "/></symbol><symbol id="g4AD90A9068D018AD3CEC8FD5EA9519DC" overflow="visible"><path d="M 0 0m 1.404 3.312c -0.009 0.27 -0.027 0.504 -0.072 0.594c -0.018 0.045 -0.036 0.072 -0.108 0.072c -0.252 -0.099 -0.486 -0.18 -1.107 -0.261c -0.018 -0.054 0 -0.198 0.018 -0.252c 0.486 -0.045 0.585 -0.09 0.585 -0.612v -3.843c 0 -0.747 -0.099 -0.792 -0.648 -0.819c -0.054 -0.054 -0.054 -0.243 0 -0.297c 0.315 0.009 0.648 0.018 1.008 0.018c 0.36 0 0.792 -0.009 1.089 -0.018c 0.054 0.054 0.054 0.243 0 0.297c -0.639 0.036 -0.738 0.072 -0.738 0.819v 0.972c 0 0.117 0.036 0.108 0.126 0.072c 0.225 -0.09 0.495 -0.144 0.783 -0.144c 0.504 0 0.954 0.153 1.323 0.504c 0.423 0.414 0.666 0.972 0.666 1.701c 0 0.954 -0.675 1.836 -1.593 1.836c -0.414 0 -0.873 -0.27 -1.233 -0.675c -0.054 -0.054 -0.09 -0.054 -0.099 0.036Z m 0.171 -0.333c 0.234 0.288 0.648 0.558 0.909 0.558c 0.576 0 1.071 -0.648 1.071 -1.665c 0 -0.738 -0.261 -1.656 -1.269 -1.656c -0.162 0 -0.477 0.045 -0.639 0.189c -0.18 0.162 -0.216 0.216 -0.216 0.54v 1.638c 0 0.189 0.036 0.27 0.144 0.396Z "/></symbol><symbol id="g1DA06070DC2F35791C9FB9712E809870" overflow="visible"><path d="M 0 0m 0.387 0.747c 0 -0.198 0.117 -0.342 0.306 -0.486c 0.225 -0.162 0.522 -0.351 1.233 -0.351c 0.9 0 1.602 0.27 1.602 1.161c 0 0.54 -0.27 0.9 -0.909 1.008v 0.027c 0.549 0.207 0.693 0.459 0.693 0.927c 0 0.522 -0.36 0.918 -1.269 0.918c -0.477 0 -0.9 -0.171 -1.386 -0.252l -0.117 -1.071c 0.072 -0.036 0.162 -0.045 0.243 -0.036c 0.171 0.522 0.396 1.044 1.152 1.044c 0.495 0 0.657 -0.297 0.657 -0.657c 0 -0.369 -0.063 -0.801 -0.639 -0.801c -0.171 0 -0.324 0.054 -0.495 0.054c -0.081 0 -0.171 -0.054 -0.171 -0.198c 0 -0.144 0.099 -0.189 0.18 -0.189c 0.171 0 0.27 0.054 0.495 0.054c 0.666 0 0.792 -0.459 0.792 -0.855c 0 -0.531 -0.198 -0.819 -0.837 -0.819c -0.513 0 -0.603 0.189 -0.756 0.513c -0.072 0.162 -0.171 0.288 -0.405 0.288c -0.162 0 -0.369 -0.135 -0.369 -0.279Z "/></symbol><symbol id="g81CECF2A01DB167B75FB6D7F75C86D75" overflow="visible"><path d="M 0 0m 2.625 0.915v 2.865c 0 0.48 0.075 0.765 0.345 0.765h 0.165c 0.5625 0 0.915 -0.195 1.0425 -0.7725c 0.0825 0 0.1875 0.0075 0.255 0.0375c -0.0525 0.345 -0.09 0.7275 -0.0975 1.065c 0 0.0075 -0.015 0.0225 -0.0225 0.0225c -0.255 -0.0225 -1.0875 -0.06 -1.68 -0.06h -0.645c -0.5775 0 -1.4625 0.0375 -1.7475 0.06c -0.015 0 -0.03 -0.015 -0.03 -0.0225c -0.03 -0.3375 -0.105 -0.7275 -0.1875 -1.0875c 0.075 -0.03 0.165 -0.0375 0.255 -0.0375c 0.15 0.6 0.495 0.795 0.99 0.795h 0.3675c 0.2775 0 0.3525 -0.285 0.3525 -0.7425v -2.8875c 0 -0.6225 -0.1275 -0.66 -0.7275 -0.6825c -0.045 -0.045 -0.045 -0.2025 0 -0.2475c 0.3675 0.0075 0.75 0.015 1.05 0.015c 0.285 0 0.6675 -0.0075 1.0425 -0.015c 0.045 0.045 0.045 0.2025 0 0.2475c -0.6 0.0225 -0.7275 0.06 -0.7275 0.6825Z "/></symbol><symbol id="g2518A51456538726C07542FBD10D7082" overflow="visible"><path d="M 0 0m 1.035 1.7925l 2.3775 0.8625c 0.0975 0.105 0.105 0.33 0 0.375l -2.925 -1.0575c -0.0675 -0.1275 -0.0675 -0.2475 0 -0.36l 2.925 -1.065c 0.105 0.045 0.0975 0.27 0 0.375Z "/></symbol><symbol id="g755DF9CE1CDD846D73FA5B6599213F56" overflow="visible"><path d="M 0 0m 1.71 -0.075c 0.5775 0 1.455 0.585 1.455 2.3475c 0 0.7425 -0.18 1.38 -0.51 1.815c -0.195 0.2625 -0.51 0.4875 -0.915 0.4875c -0.7425 0 -1.4475 -0.885 -1.4475 -2.37c 0 -0.8025 0.2475 -1.5525 0.66 -1.965c 0.21 -0.21 0.465 -0.315 0.7575 -0.315Z m 0.03 4.3875c 0.1275 0 0.2475 -0.045 0.3375 -0.1275c 0.2325 -0.195 0.435 -0.765 0.435 -1.77c 0 -0.69 -0.0225 -1.1625 -0.1275 -1.545c -0.165 -0.615 -0.5325 -0.6825 -0.6675 -0.6825c -0.6975 0 -0.7725 1.2825 -0.7725 1.935c 0 1.845 0.4575 2.19 0.795 2.19Z "/></symbol><symbol id="g475737710EF91202766030DA0E8B0F58" overflow="visible"><path d="M 0 0m 0.255 3.8175c 0 -0.4125 0.3375 -0.75 0.75 -0.75c 0.4125 0 0.7425 0.3375 0.7425 0.75c 0 0.42 -0.33 0.7575 -0.7425 0.7575c -0.4125 0 -0.75 -0.3375 -0.75 -0.7575Z m 1.2375 -0.0075c 0 -0.255 -0.18 -0.5175 -0.4875 -0.5175c -0.315 0 -0.495 0.255 -0.495 0.5175c 0 0.27 0.1725 0.54 0.495 0.54c 0.3375 0 0.4875 -0.2925 0.4875 -0.54Z "/></symbol><symbol id="gD6CA0829192013EE14B5BAF2BF44205E" overflow="visible"><path d="M 0 0m 2.6775 -0.075c 0.7275 0 1.395 0.345 1.905 1.0125c -0.0375 0.0675 -0.09 0.1125 -0.1725 0.1125c -0.5325 -0.585 -1.0425 -0.8175 -1.74 -0.8175c -1.0125 0 -1.71 1.14 -1.71 2.235c 0 0.645 0.1725 1.185 0.4425 1.5225c 0.375 0.4575 0.81 0.6675 1.2 0.6675c 1.035 0 1.4475 -0.615 1.6425 -1.26c 0.09 -0.03 0.165 -0.0075 0.2475 0.0375c -0.0375 0.39 -0.09 0.75 -0.165 1.1625c -0.3825 0.0375 -0.72 0.3375 -1.6425 0.3375c -0.6375 0 -1.17 -0.2325 -1.6125 -0.6375c -0.495 -0.4575 -0.795 -1.1925 -0.795 -1.9725c 0 -1.305 0.7875 -2.4 2.4 -2.4Z "/></symbol><symbol id="gE9DD31ED97DC901ABB725871441019F4" overflow="visible"><path d="M 0 0m 1.395 2.295c 0 0.63 0.0825 0.6525 0.54 0.69c 0.045 0.045 0.045 0.2025 0 0.2475c -0.255 -0.0075 -0.51 -0.015 -0.84 -0.015c -0.3225 0 -0.585 0.0075 -0.8325 0.015c -0.045 -0.045 -0.045 -0.2025 0 -0.2475c 0.4575 -0.03 0.54 -0.06 0.54 -0.6825v -1.3875c 0 -0.6225 -0.0825 -0.645 -0.54 -0.6825c -0.045 -0.045 -0.045 -0.2025 0 -0.2475c 0.2475 0.0075 0.51 0.015 0.84 0.015c 0.3075 0 0.4725 -0.015 0.78 -0.015c 0.9225 0 1.425 0.2325 1.425 1.035c 0 0.705 -0.615 0.9075 -1.3725 0.9075h -0.54Z m 3.2325 0.0075c 0 0.6225 0.0825 0.645 0.54 0.6825c 0.045 0.045 0.045 0.2025 0 0.2475c -0.255 -0.0075 -0.51 -0.015 -0.84 -0.015c -0.3225 0 -0.585 0.0075 -0.8325 0.015c -0.045 -0.045 -0.045 -0.2025 0 -0.2475c 0.4575 -0.03 0.54 -0.06 0.54 -0.6825v -1.3875c 0 -0.6225 -0.0825 -0.645 -0.54 -0.6825c -0.045 -0.045 -0.045 -0.2025 0 -0.2475c 0.2475 0.0075 0.51 0.015 0.84 0.015c 0.3225 0 0.5925 -0.0075 0.8325 -0.015c 0.045 0.045 0.045 0.2025 0 0.2475c -0.4575 0.03 -0.54 0.06 -0.54 0.6825Z m -1.965 -1.3575c 0 -0.615 -0.375 -0.7125 -0.7725 -0.7125c -0.3675 0 -0.495 0.075 -0.495 0.3375v 1.11h 0.5325c 0.5625 0 0.735 -0.3375 0.735 -0.735Z "/></symbol><symbol id="g24A3F0AF4AD0375F71DE4AF9BEABB01F" overflow="visible"><path d="M 0 0m 2.985 0.6825c -0.03 0.0675 -0.09 0.0975 -0.1575 0.105c -0.255 -0.33 -0.5775 -0.495 -0.9 -0.495c -0.5475 0 -1.005 0.555 -1.005 1.4325c 0 0.825 0.36 1.32 0.855 1.32c 0.4425 0 0.5025 -0.2625 0.5325 -0.525c 0.0225 -0.2025 0.1275 -0.27 0.285 -0.27c 0.1575 0 0.3675 0.0975 0.3675 0.33c 0 0.4125 -0.4275 0.7125 -1.1475 0.7125c -0.7425 0 -1.5375 -0.6675 -1.5375 -1.7325c 0 -0.9675 0.54 -1.635 1.485 -1.635c 0.45 0 0.8475 0.1425 1.2225 0.7575Z "/></symbol><symbol id="g86819BE7115F3729C1E76AE930029E69" overflow="visible"><path d="M 0 0m 0.855 0c 0.21 0.0075 0.285 0.2025 0.375 0.4725c 0.195 0.5925 0.4125 0.96 0.7875 0.96h 0.195v -0.5175c 0 -0.6225 -0.0825 -0.645 -0.54 -0.6825c -0.045 -0.045 -0.045 -0.2025 0 -0.2475c 0.2475 0.0075 0.51 0.015 0.84 0.015c 0.3225 0 0.5925 -0.0075 0.8325 -0.015c 0.045 0.045 0.045 0.2025 0 0.2475c -0.4575 0.03 -0.54 0.06 -0.54 0.6825v 1.3875c 0 0.6225 0.0825 0.645 0.54 0.6825c 0.045 0.045 0.045 0.2025 0 0.2475c -0.255 -0.0075 -0.51 -0.015 -0.84 -0.015c -0.255 0 -0.4725 0.015 -0.66 0.015c -1.3125 0 -1.425 -0.54 -1.425 -0.945c 0 -0.4875 0.375 -0.735 0.93 -0.7575c 0.0225 0 0.0225 -0.0225 0.015 -0.03c -0.285 -0.0825 -0.4125 -0.24 -0.54 -0.5175c -0.0825 -0.1725 -0.15 -0.3375 -0.1875 -0.435c -0.0975 -0.255 -0.225 -0.3 -0.5175 -0.315c -0.045 -0.045 -0.045 -0.2025 0 -0.2475c 0.15 0.0075 0.735 0.015 0.735 0.015Z m 0.21 2.4075c 0 0.3525 0.1125 0.5775 0.72 0.5775c 0.3075 0 0.4275 -0.135 0.4275 -0.42v -0.8775h -0.525c -0.45 0 -0.6225 0.345 -0.6225 0.72Z "/></symbol><symbol id="g88DF289CB0ABE82F4BDD978B7C9B130C" overflow="visible"><path d="M 0 0m 1.215 2.3025c 0 0.6225 0.0825 0.645 0.465 0.6825c 0.045 0.045 0.045 0.2025 0 0.2475c -0.18 -0.0075 -0.465 -0.015 -0.765 -0.015c -0.3225 0 -0.5775 0.0075 -0.825 0.015c -0.045 -0.045 -0.045 -0.2025 0 -0.2475c 0.4575 -0.03 0.54 -0.06 0.54 -0.6825v -0.3225c 0 -0.705 0.1575 -0.9825 0.855 -0.9825c 0.4725 0 0.8475 0.27 1.155 0.495v -0.5775c 0 -0.6225 -0.0825 -0.645 -0.54 -0.6825c -0.045 -0.045 -0.045 -0.2025 0 -0.2475c 0.2475 0.0075 0.51 0.015 0.84 0.015c 0.3225 0 0.6 -0.0075 0.84 -0.015c 0.045 0.045 0.045 0.2025 0 0.2475c -0.4575 0.03 -0.54 0.06 -0.54 0.6825v 1.3875c 0 0.6225 0.0825 0.645 0.54 0.6825c 0.045 0.045 0.045 0.2025 0 0.2475c -0.255 -0.0075 -0.51 -0.015 -0.84 -0.015c -0.2925 0 -0.5925 0.0075 -0.765 0.015c -0.045 -0.045 -0.045 -0.2025 0 -0.2475c 0.3825 -0.03 0.465 -0.06 0.465 -0.6825v -0.54c -0.255 -0.225 -0.525 -0.4275 -0.915 -0.4275c -0.4875 0 -0.51 0.255 -0.51 0.84Z "/></symbol></defs></svg>