<svg class="typst-doc" viewBox="0 0 234.6061377952756 112.37795275590551" width="234.6061377952756pt" height="112.37795275590551pt" xmlns="http://www.w3.org/2000/svg" xmlns:xlink="http://www.w3.org/1999/xlink" xmlns:h5="http://www.w3.org/1999/xhtml">
    <path class="typst-shape" fill="#ffffff" fill-rule="nonzero" d="M 0 0 L 0 112.37795 L 234.60614 112.37795 L 234.60614 0 Z "/>
    <g>
        <g transform="translate(8 8)">
            <g class="typst-group">
                <g>
                    <g transform="translate(31.430374015748033 8.50393700787401)">
                        <path class="typst-shape" fill="#c3beb4" fill-rule="nonzero" stroke="#1a1a18" stroke-width="0.6" stroke-linecap="butt" stroke-linejoin="miter" stroke-miterlimit="4" d="M 0 0 L 0 19.84252 L 113.385826 19.84252 L 113.385826 0 L 0 0 Z "/>
                    </g>
                    <g transform="translate(31.430374015748033 28.346456692913385)">
                        <path class="typst-shape" fill="#9d9f8f" fill-rule="nonzero" stroke="#1a1a18" stroke-width="0.6" stroke-linecap="butt" stroke-linejoin="miter" stroke-miterlimit="4" d="M 0 0 L 0 68.031494 L 113.385826 68.031494 L 113.385826 0 L 0 0 Z "/>
                    </g>
                    <g transform="translate(42.768956692913385 0)">
                        <path class="typst-shape" fill="none" stroke="#1a1a18" stroke-width="0.6" stroke-linecap="butt" stroke-linejoin="miter" stroke-miterlimit="4" d="M 0 8.503937 L 0 0 "/>
                    </g>
                    <g transform="translate(59.77683070866143 0)">
                        <path class="typst-shape" fill="none" stroke="#1a1a18" stroke-width="0.6" stroke-linecap="butt" stroke-linejoin="miter" stroke-miterlimit="4" d="M 0 8.503937 L 0 0 "/>
                    </g>
                    <g transform="translate(76.78470472440944 0)">
                        <path class="typst-shape" fill="none" stroke="#1a1a18" stroke-width="0.6" stroke-linecap="butt" stroke-linejoin="miter" stroke-miterlimit="4" d="M 0 8.503937 L 0 0 "/>
                    </g>
                    <g transform="translate(93.7925787401575 0)">
                        <path class="typst-shape" fill="none" stroke="#1a1a18" stroke-width="0.6" stroke-linecap="butt" stroke-linejoin="miter" stroke-miterlimit="4" d="M 0 8.503937 L 0 0 "/>
                    </g>
                    <g transform="translate(110.80045275590551 0)">
                        <path class="typst-shape" fill="none" stroke="#1a1a18" stroke-width="0.6" stroke-linecap="butt" stroke-linejoin="miter" stroke-miterlimit="4" d="M 0 8.503937 L 0 0 "/>
                    </g>
                    <g transform="translate(127.80832677165354 0)">
                        <path class="typst-shape" fill="none" stroke="#1a1a18" stroke-width="0.6" stroke-linecap="butt" stroke-linejoin="miter" stroke-miterlimit="4" d="M 0 8.503937 L 0 0 "/>
                    </g>
                    <g transform="translate(96.06029527559056 56.125984251968504)">
                        <path class="typst-shape" fill="#8f887b" fill-rule="nonzero" stroke="#1a1a18" stroke-width="0.6" stroke-linecap="butt" stroke-linejoin="miter" stroke-miterlimit="4" d="M 11.905512 0 C 5.336241 0 0 5.336241 0 11.905512 C 0 18.474783 5.336241 23.811024 11.905512 23.811024 C 18.474783 23.811024 23.811024 18.474783 23.811024 11.905512 C 23.811024 5.336241 18.474783 0 11.905512 0 Z "/>
                    </g>
                    <g transform="translate(89.54061023622047 72.28346456692914)">
                        <path class="typst-shape" fill="none" stroke="#1a1a18" stroke-width="0.6" stroke-linecap="butt" stroke-linejoin="miter" stroke-miterlimit="4" d="M 8.503937 0 L 0 8.503937 "/>
                    </g>
                    <g transform="translate(99.46187007874015 76.53543307086615)">
                        <path class="typst-shape" fill="none" stroke="#1a1a18" stroke-width="0.6" stroke-linecap="butt" stroke-linejoin="miter" stroke-miterlimit="4" d="M 2.8346457 0 L 0 9.92126 "/>
                    </g>
                    <g transform="translate(96.23380708661418 65.69349606299211)">
                        <path class="typst-shape" fill="none" d="M 0 0 L 23.464 0 L 23.464 4.676 L 0 4.676 L 0 0 Z "/>
                    </g>
                    <g transform="translate(96.23380705511812 65.6934960472441)">
                        <g class="typst-group">
                            <g>
                                <g transform="translate(0 0)">
                                    <g class="typst-group">
                                        <g>
                                            <g transform="translate(0 4.606)">
                                                <g class="typst-text" transform="scale(1, -1)">
                                                    <use xlink:href="#gE5523BA80EBB86114B41AB05BDAFA86C" x="0" fill="#ffffff" fill-rule="nonzero"/>
                                                    <use xlink:href="#gF4AD29F81B26A6B26B7EB9FBA94CBF35" x="4.760000000000001" fill="#ffffff" fill-rule="nonzero"/>
                                                    <use xlink:href="#gE5523BA80EBB86114B41AB05BDAFA86C" x="7.959000000000001" fill="#ffffff" fill-rule="nonzero"/>
                                                    <use xlink:href="#g516DA322983DC8BB906A4EE8F36BD02E" x="12.719000000000001" fill="#ffffff" fill-rule="nonzero"/>
                                                    <use xlink:href="#g63509B51436EB4445AAE6E023E7E70" x="16.247" fill="#ffffff" fill-rule="nonzero"/>
                                                    <use xlink:href="#g6FE163FA00F1834D822D82B44845F142" x="20.349" fill="#ffffff" fill-rule="nonzero"/>
                                                </g>
                                            </g>
                                        </g>
                                    </g>
                                </g>
                            </g>
                        </g>
                    </g>
                    <g transform="translate(153.3201377952756 15.410196850393701)">
                        <path class="typst-shape" fill="none" d="M 0 0 L 59.94 0 L 59.94 6.03 L 0 6.03 L 0 0 Z "/>
                    </g>
                    <g transform="translate(153.3201377952756 15.410196708661415)">
                        <g class="typst-group">
                            <g>
                                <g transform="translate(0 0)">
                                    <g class="typst-group">
                                        <g>
                                            <g transform="translate(0 5.922000000000001)">
                                                <g class="typst-text" transform="scale(1, -1)">
                                                    <use xlink:href="#g9D808B18B70931D4A423E57404C23E1A" x="0" fill="#1a1a18" fill-rule="nonzero"/>
                                                    <use xlink:href="#g372C0B0E98745A46B4D58798C5450A8C" x="4.113" fill="#1a1a18" fill-rule="nonzero"/>
                                                    <use xlink:href="#gE5FBEC3A915E2D9534A37A1813D7F710" x="8.631" fill="#1a1a18" fill-rule="nonzero"/>
                                                    <use xlink:href="#g7E20603D126C6AA5582B2D8205A6B26E" x="12.636" fill="#1a1a18" fill-rule="nonzero"/>
                                                    <use xlink:href="#g2DE200BEC81CA8326BA49B358FB666D8" x="17.91" fill="#1a1a18" fill-rule="nonzero"/>
                                                    <use xlink:href="#g7DAAB32D3FC1017B6983C86DE527A5F8" x="22.221" fill="#1a1a18" fill-rule="nonzero"/>
                                                    <use xlink:href="#gB5FAB7947D834D65CDD3F371FCCEC4B5" x="27.495" fill="#1a1a18" fill-rule="nonzero"/>
                                                    <use xlink:href="#gBE028FE9FD67F328406B0C7495044695" x="34.011" fill="#1a1a18" fill-rule="nonzero"/>
                                                    <use xlink:href="#g111D701A310C46A5A90DD40F3742CD3B" x="41.535000000000004" fill="#1a1a18" fill-rule="nonzero"/>
                                                    <use xlink:href="#gE9B4FEA09DDC621E499CD4F7FC0219B3" x="45.387" fill="#1a1a18" fill-rule="nonzero"/>
                                                    <use xlink:href="#g49EC3574D18D1B05A1AECA8B912FC6F8" x="50.13" fill="#1a1a18" fill-rule="nonzero"/>
                                                    <use xlink:href="#gBE028FE9FD67F328406B0C7495044695" x="54.666000000000004" fill="#1a1a18" fill-rule="nonzero"/>
                                                </g>
                                            </g>
                                        </g>
                                    </g>
                                </g>
                            </g>
                        </g>
                    </g>
                    <g transform="translate(153.3201377952756 24.416633858267712)">
                        <path class="typst-shape" fill="none" d="M 0 0 L 53.385 0 L 53.385 5.025 L 0 5.025 L 0 0 Z "/>
                    </g>
                    <g transform="translate(153.3201377480315 24.41663376377952)">
                        <g class="typst-group">
                            <g>
                                <g transform="translate(0 0)">
                                    <g class="typst-group">
                                        <g>
                                            <g transform="translate(0 4.935)">
                                                <g class="typst-text" transform="scale(1, -1)">
                                                    <use xlink:href="#gA210BA53B7E65B659B972528E8ED741E" x="0" fill="#7c7f6a" fill-rule="nonzero"/>
                                                    <use xlink:href="#g83235F8599C32C22344876901707D8C2" x="3.78" fill="#7c7f6a" fill-rule="nonzero"/>
                                                    <use xlink:href="#g83235F8599C32C22344876901707D8C2" x="7.1175" fill="#7c7f6a" fill-rule="nonzero"/>
                                                    <use xlink:href="#gDC328C9BC699C2129D3FF1CC3A4E6043" x="10.455" fill="#7c7f6a" fill-rule="nonzero"/>
                                                    <use xlink:href="#gF33BCA568611109E7F2E9B43B5FC788" x="13.8825" fill="#7c7f6a" fill-rule="nonzero"/>
                                                    <use xlink:href="#g9C854CF28247E5DE8B4285761E14FB84" x="18.2775" fill="#7c7f6a" fill-rule="nonzero"/>
                                                    <use xlink:href="#gDC328C9BC699C2129D3FF1CC3A4E6043" x="21.87" fill="#7c7f6a" fill-rule="nonzero"/>
                                                    <use xlink:href="#g4A5F0B34BA8706AA1D49E24D8330F667" x="25.2975" fill="#7c7f6a" fill-rule="nonzero"/>
                                                    <use xlink:href="#g83235F8599C32C22344876901707D8C2" x="28.65" fill="#7c7f6a" fill-rule="nonzero"/>
                                                    <use xlink:href="#gB0BFCC62D352F67446992032ECB8AFAD" x="33.8625" fill="#7c7f6a" fill-rule="nonzero"/>
                                                    <use xlink:href="#g4A5F0B34BA8706AA1D49E24D8330F667" x="37.815" fill="#7c7f6a" fill-rule="nonzero"/>
                                                    <use xlink:href="#g83235F8599C32C22344876901707D8C2" x="41.1675" fill="#7c7f6a" fill-rule="nonzero"/>
                                                    <use xlink:href="#gA210BA53B7E65B659B972528E8ED741E" x="44.504999999999995" fill="#7c7f6a" fill-rule="nonzero"/>
                                                    <use xlink:href="#gE886804D18163F31D133F26ED2B800AE" x="48.285" fill="#7c7f6a" fill-rule="nonzero"/>
                                                </g>
                                            </g>
                                        </g>
                                    </g>
                                </g>
                            </g>
                        </g>
                    </g>
                    <g transform="translate(153.3201377952756 55.51355905511811)">
                        <path class="typst-shape" fill="none" d="M 0 0 L 65.286 0 L 65.286 8.028 L 0 8.028 L 0 0 Z "/>
                    </g>
                    <g transform="translate(153.32013765354333 55.5135590551181)">
                        <g class="typst-group">
                            <g>
                                <g transform="translate(0 0)">
                                    <g class="typst-group">
                                        <g>
                                            <g transform="translate(0 5.922000000000001)">
                                                <g class="typst-text" transform="scale(1, -1)">
                                                    <use xlink:href="#g2DE200BEC81CA8326BA49B358FB666D8" x="0" fill="#ffffff" fill-rule="nonzero"/>
                                                    <use xlink:href="#g498D63BE9E74D36B5EA8ECFB42ED3CD9" x="4.311" fill="#ffffff" fill-rule="nonzero"/>
                                                    <use xlink:href="#g9124254A44A2B2077B37C2B3456EFDAB" x="8.334" fill="#ffffff" fill-rule="nonzero"/>
                                                    <use xlink:href="#g7DAAB32D3FC1017B6983C86DE527A5F8" x="13.184999999999999" fill="#ffffff" fill-rule="nonzero"/>
                                                    <use xlink:href="#g9D808B18B70931D4A423E57404C23E1A" x="18.459" fill="#ffffff" fill-rule="nonzero"/>
                                                    <use xlink:href="#gF1FC50BE67466BE8CA5D65167FE5C8ED" x="22.572" fill="#ffffff" fill-rule="nonzero"/>
                                                    <use xlink:href="#gA615F02FC9D6F3E4FAD6DAF75B9FA769" x="29.151" fill="#ffffff" fill-rule="nonzero"/>
                                                    <use xlink:href="#g498D63BE9E74D36B5EA8ECFB42ED3CD9" x="35.271" fill="#ffffff" fill-rule="nonzero"/>
                                                    <use xlink:href="#gE0CE25E2EA5F586FD4885AC3CABC8923" x="39.294" fill="#ffffff" fill-rule="nonzero"/>
                                                    <use xlink:href="#gD77E1E677A6718D777B385A5DF30F82" x="43.964999999999996" fill="#ffffff" fill-rule="nonzero"/>
                                                    <use xlink:href="#gE9B4FEA09DDC621E499CD4F7FC0219B3" x="47.888999999999996" fill="#ffffff" fill-rule="nonzero"/>
                                                    <use xlink:href="#g49EC3574D18D1B05A1AECA8B912FC6F8" x="52.632" fill="#ffffff" fill-rule="nonzero"/>
                                                    <use xlink:href="#gE5FBEC3A915E2D9534A37A1813D7F710" x="57.168" fill="#ffffff" fill-rule="nonzero"/>
                                                    <use xlink:href="#g9D808B18B70931D4A423E57404C23E1A" x="61.173" fill="#ffffff" fill-rule="nonzero"/>
                                                </g>
                                            </g>
                                        </g>
                                    </g>
                                </g>
                            </g>
                        </g>
                    </g>
                    <g transform="translate(153.3201377952756 65.51899606299212)">
                        <path class="typst-shape" fill="none" d="M 0 0 L 62.9775 0 L 62.9775 5.025 L 0 5.025 L 0 0 Z "/>
                    </g>
                    <g transform="translate(153.3201377952756 65.51899596850393)">
                        <g class="typst-group">
                            <g>
                                <g transform="translate(0 0)">
                                    <g class="typst-group">
                                        <g>
                                            <g transform="translate(0 4.935)">
                                                <g class="typst-text" transform="scale(1, -1)">
                                                    <use xlink:href="#gD0FDECB2FE6BA0695C57A110BF240FBD" x="0" fill="#ffffff" fill-rule="nonzero"/>
                                                    <use xlink:href="#g251F941FFD3B03800AE1F4E26A6F2D70" x="6.352499999999999" fill="#ffffff" fill-rule="nonzero"/>
                                                    <use xlink:href="#g4DBF26FE769CE6A58F9CD13F191AEDBC" x="12.3525" fill="#ffffff" fill-rule="nonzero"/>
                                                    <use xlink:href="#g12D2436A7206AE53F7BA78DAFDF62E59" x="17.715" fill="#ffffff" fill-rule="nonzero"/>
                                                    <use xlink:href="#g63CA5A4FC0BD3740FC45E5D0FEE5A392" x="19.7175" fill="#ffffff" fill-rule="nonzero"/>
                                                </g>
                                            </g>
                                            <g transform="translate(26.4375 4.935)">
                                                <g class="typst-text" transform="scale(1, -1)">
                                                    <use xlink:href="#g83235F8599C32C22344876901707D8C2" x="0" fill="#ffffff" fill-rule="nonzero"/>
                                                    <use xlink:href="#gA0ACB123143960580F0160DE8E5A82D4" x="3.3375" fill="#ffffff" fill-rule="nonzero"/>
                                                    <use xlink:href="#g6D36A68516CBEE03A2DD8B366FBF4CB7" x="8.7675" fill="#ffffff" fill-rule="nonzero"/>
                                                    <use xlink:href="#gD9DAE9E830675D99CC0822E6BD711A3F" x="11.9775" fill="#ffffff" fill-rule="nonzero"/>
                                                    <use xlink:href="#g449C97B8511C40D3D565A872B17544E0" x="15.584999999999999" fill="#ffffff" fill-rule="nonzero"/>
                                                    <use xlink:href="#gF33BCA568611109E7F2E9B43B5FC788" x="19.627499999999998" fill="#ffffff" fill-rule="nonzero"/>
                                                    <use xlink:href="#gB0BFCC62D352F67446992032ECB8AFAD" x="25.897499999999997" fill="#ffffff" fill-rule="nonzero"/>
                                                    <use xlink:href="#g4A5F0B34BA8706AA1D49E24D8330F667" x="29.849999999999998" fill="#ffffff" fill-rule="nonzero"/>
                                                    <use xlink:href="#g83235F8599C32C22344876901707D8C2" x="33.2025" fill="#ffffff" fill-rule="nonzero"/>
                                                </g>
                                            </g>
                                        </g>
                                    </g>
                                </g>
                            </g>
                        </g>
                    </g>
                    <g transform="translate(15.83982283464567 11.338582677165352)">
                        <path class="typst-shape" fill="none" stroke="#c9a24b" stroke-width="1" stroke-linecap="butt" stroke-linejoin="miter" stroke-miterlimit="4" d="M 0 0 L 5.663949 4.247962 "/>
                    </g>
                    <g transform="translate(20.228181448818898 13.885757007874014)">
                        <path class="typst-shape" fill="#c9a24b" fill-rule="nonzero" stroke="#c9a24b" stroke-width="1" stroke-linecap="butt" stroke-linejoin="miter" stroke-miterlimit="4" d="M 5.8110237 5.102362 L 0 3.4015749 L 2.551181 0 L 5.8110237 5.102362 Z "/>
                    </g>
                    <g transform="translate(0 7.408759842519691)">
                        <path class="typst-shape" fill="none" d="M 0 0 L 14.4225 0 L 14.4225 5.025 L 0 5.025 L 0 0 Z "/>
                    </g>
                    <g transform="translate(-0.0000001417322813163834 7.408759748031497)">
                        <g class="typst-group">
                            <g>
                                <g transform="translate(0 0)">
                                    <g class="typst-group">
                                        <g>
                                            <g transform="translate(0 4.935)">
                                                <g class="typst-text" transform="scale(1, -1)">
                                                    <use xlink:href="#gB0BFCC62D352F67446992032ECB8AFAD" x="0" fill="#7c7f6a" fill-rule="nonzero"/>
                                                    <use xlink:href="#g4A5F0B34BA8706AA1D49E24D8330F667" x="3.9525" fill="#7c7f6a" fill-rule="nonzero"/>
                                                    <use xlink:href="#g83235F8599C32C22344876901707D8C2" x="7.305" fill="#7c7f6a" fill-rule="nonzero"/>
                                                    <use xlink:href="#gA210BA53B7E65B659B972528E8ED741E" x="10.6425" fill="#7c7f6a" fill-rule="nonzero"/>
                                                </g>
                                            </g>
                                        </g>
                                    </g>
                                </g>
                            </g>
                        </g>
                    </g>
                </g>
            </g>
        </g>
    </g>
    <defs id="glyph">
        <symbol id="gE5523BA80EBB86114B41AB05BDAFA86C" overflow="visible">
            <path d="M 0.819 2.142 L 0.777 0.84000003 C 0.75600004 0.252 0.651 0.238 0.245 0.21700001 C 0.20300001 0.17500001 0.20300001 0.028 0.245 -0.014 C 0.38500002 -0.007 0.735 0 0.847 0 C 0.98700005 0 1.316 -0.007 1.4560001 -0.014 C 1.498 0.028 1.498 0.17500001 1.4560001 0.21700001 C 1.057 0.245 1.029 0.315 1.043 0.84000003 L 1.092 2.555 C 1.092 2.618 1.12 2.618 1.148 2.555 L 2.163 0.077 C 2.191 0.056 2.219 0.056 2.24 0.077 L 3.388 2.548 C 3.423 2.625 3.4580002 2.632 3.4580002 2.548 L 3.4510002 0.85400003 C 3.4510002 0.273 3.4020002 0.252 2.9750001 0.21700001 C 2.933 0.17500001 2.933 0.028 2.9750001 -0.014 C 3.227 -0.007 3.486 0 3.7310002 0 C 3.9410002 0 4.242 -0.007 4.5150003 -0.014 C 4.557 0.028 4.557 0.17500001 4.5150003 0.21700001 C 4.0880003 0.245 4.011 0.273 4.011 0.85400003 L 3.9970002 2.1490002 C 3.99 2.73 4.0740004 2.7510002 4.501 2.786 C 4.543 2.828 4.543 2.9750001 4.501 3.0170002 C 4.256 3.003 3.5770001 3.003 3.3460002 3.003 L 2.415 1.001 L 2.38 0.93100005 L 2.352 1.001 L 1.533 3.003 C 1.302 3.003 0.56 3.003 0.315 3.0170002 C 0.273 2.9750001 0.273 2.828 0.315 2.786 C 0.74200004 2.7510002 0.84000003 2.723 0.819 2.142 Z "/>
        </symbol>
        <symbol id="gF4AD29F81B26A6B26B7EB9FBA94CBF35" overflow="visible">
            <path d="M 2.051 0.33600003 C 2.0930002 0.119 2.17 -0.07 2.52 -0.07 C 2.786 -0.07 3.038 0.049000002 3.1850002 0.18900001 C 3.171 0.273 3.1430001 0.33600003 3.066 0.37800002 C 3.0170002 0.33600003 2.898 0.266 2.8070002 0.266 C 2.604 0.266 2.5970001 0.53900003 2.5970001 0.861 L 2.5970001 1.8900001 C 2.5970001 2.884 2.051 3.0730002 1.5400001 3.0730002 C 0.966 3.0730002 0.38500002 2.6950002 0.38500002 2.296 C 0.38500002 2.128 0.469 2.0440001 0.63 2.0440001 C 0.833 2.0440001 0.95900005 2.191 0.95900005 2.282 C 0.95900005 2.331 0.952 2.38 0.938 2.408 C 0.93100005 2.4290001 0.924 2.4710002 0.924 2.548 C 0.924 2.765 1.218 2.842 1.4840001 2.842 C 1.722 2.842 2.051 2.723 2.051 1.932 C 2.051 1.883 2.03 1.855 2.009 1.848 L 1.4070001 1.7010001 C 0.735 1.533 0.252 1.1620001 0.252 0.68600005 C 0.252 0.112 0.644 -0.07 1.1340001 -0.07 C 1.3790001 -0.07 1.5890001 -0.014 1.8970001 0.224 L 2.0370002 0.33600003 Z M 2.051 1.631 L 2.051 0.707 C 2.051 0.616 2.009 0.56700003 1.9530001 0.52500004 C 1.771 0.37800002 1.533 0.21700001 1.337 0.21700001 C 0.98700005 0.21700001 0.833 0.497 0.833 0.71400005 C 0.833 1.029 0.98 1.3510001 1.498 1.4840001 Z "/>
        </symbol>
        <symbol id="g516DA322983DC8BB906A4EE8F36BD02E" overflow="visible">
            <path d="M 0.287 1.4350001 C 0.287 0.721 0.763 -0.07 1.7570001 -0.07 C 2.2050002 -0.07 2.548 0.091000006 2.786 0.322 C 3.101 0.63 3.2410002 1.071 3.2410002 1.498 C 3.2410002 2.226 2.842 3.0730002 1.771 3.0730002 C 1.309 3.0730002 0.93100005 2.884 0.67200005 2.5830002 C 0.42000002 2.282 0.287 1.876 0.287 1.4350001 Z M 1.666 2.828 C 2.2680001 2.828 2.6390002 2.282 2.6390002 1.274 C 2.6390002 0.39200002 2.184 0.17500001 1.855 0.17500001 C 1.1270001 0.17500001 0.889 1.057 0.889 1.5960001 C 0.889 2.2050002 1.036 2.828 1.666 2.828 Z "/>
        </symbol>
        <symbol id="g63509B51436EB4445AAE6E023E7E70" overflow="visible">
            <path d="M 3.3530002 2.1490002 C 3.3530002 2.73 3.43 2.7510002 3.857 2.786 C 3.8990002 2.828 3.8990002 2.9750001 3.857 3.0170002 C 3.6120002 3.003 3.3040001 3.003 3.0730002 3.003 C 2.877 3.003 2.5970001 3.01 2.3240001 3.0170002 C 2.282 2.9750001 2.282 2.828 2.3240001 2.786 C 2.7510002 2.7580001 2.8000002 2.73 2.8000002 2.1490002 L 2.8000002 1.694 L 1.302 1.694 L 1.302 2.1490002 C 1.302 2.73 1.3510001 2.7510002 1.778 2.786 C 1.82 2.828 1.82 2.9750001 1.778 3.0170002 C 1.5120001 3.01 1.246 3.003 1.0220001 3.003 C 0.81200004 3.003 0.52500004 3.01 0.245 3.0170002 C 0.20300001 2.9750001 0.20300001 2.828 0.245 2.786 C 0.67200005 2.7580001 0.749 2.73 0.749 2.1490002 L 0.749 0.85400003 C 0.749 0.273 0.67200005 0.252 0.245 0.21700001 C 0.20300001 0.17500001 0.20300001 0.028 0.245 -0.014 C 0.52500004 -0.007 0.805 0 1.029 0 C 1.253 0 1.526 -0.007 1.778 -0.014 C 1.82 0.028 1.82 0.17500001 1.778 0.21700001 C 1.3510001 0.245 1.302 0.273 1.302 0.85400003 L 1.302 1.463 L 2.8000002 1.463 L 2.8000002 0.85400003 C 2.8000002 0.273 2.7510002 0.252 2.3240001 0.21700001 C 2.282 0.17500001 2.282 0.028 2.3240001 -0.014 C 2.576 -0.007 2.835 0 3.0800002 0 C 3.2900002 0 3.584 -0.007 3.857 -0.014 C 3.8990002 0.028 3.8990002 0.17500001 3.857 0.21700001 C 3.43 0.245 3.3530002 0.273 3.3530002 0.85400003 Z "/>
        </symbol>
        <symbol id="g6FE163FA00F1834D822D82B44845F142" overflow="visible">
            <path d="M 1.274 0.85400003 C 1.274 0.273 1.197 0.238 0.77000004 0.21700001 C 0.72800004 0.17500001 0.72800004 0.028 0.77000004 -0.014 C 1.043 -0.007 1.3230001 0 1.554 0 C 1.792 0 2.065 -0.007 2.331 -0.014 C 2.3730001 0.028 2.3730001 0.17500001 2.331 0.21700001 C 1.904 0.238 1.827 0.273 1.827 0.85400003 L 1.827 2.7440002 L 1.9460001 2.7440002 C 2.513 2.7440002 2.625 2.548 2.7440002 1.9810001 C 2.835 1.9810001 2.926 2.009 2.926 2.009 C 2.884 2.331 2.8560002 2.6390002 2.849 3.045 C 2.6880002 3.0310001 2.163 3.003 1.8130001 3.003 L 1.288 3.003 C 0.938 3.003 0.546 3.0240002 0.266 3.045 C 0.259 2.6390002 0.231 2.331 0.18200001 2.009 C 0.18200001 2.009 0.28 1.9810001 0.37100002 1.9810001 C 0.49 2.548 0.595 2.7440002 1.169 2.7440002 L 1.274 2.7440002 Z "/>
        </symbol>
        <symbol id="g9D808B18B70931D4A423E57404C23E1A" overflow="visible">
            <path d="M 2.6369998 0.43199998 C 2.691 0.153 2.79 -0.089999996 3.2399998 -0.089999996 C 3.5819998 -0.089999996 3.906 0.06299999 4.095 0.24299999 C 4.0769997 0.35099998 4.041 0.43199998 3.942 0.48599997 C 3.879 0.43199998 3.7259998 0.34199998 3.6089997 0.34199998 C 3.3479998 0.34199998 3.3389997 0.69299996 3.3389997 1.107 L 3.3389997 2.4299998 C 3.3389997 3.708 2.6369998 3.9509997 1.9799999 3.9509997 C 1.242 3.9509997 0.49499997 3.465 0.49499997 2.952 C 0.49499997 2.7359998 0.603 2.6279998 0.80999994 2.6279998 C 1.071 2.6279998 1.2329999 2.817 1.2329999 2.9339998 C 1.2329999 2.997 1.224 3.06 1.206 3.096 C 1.1969999 3.123 1.188 3.1769998 1.188 3.2759998 C 1.188 3.5549998 1.566 3.6539998 1.9079999 3.6539998 C 2.214 3.6539998 2.6369998 3.501 2.6369998 2.484 C 2.6369998 2.421 2.61 2.385 2.583 2.376 L 1.8089999 2.1869998 C 0.94499993 1.971 0.324 1.494 0.324 0.88199997 C 0.324 0.144 0.82799995 -0.089999996 1.458 -0.089999996 C 1.7729999 -0.089999996 2.043 -0.018 2.439 0.288 L 2.619 0.43199998 Z M 2.6369998 2.097 L 2.6369998 0.909 C 2.6369998 0.79199994 2.583 0.729 2.511 0.67499995 C 2.277 0.48599997 1.971 0.27899998 1.719 0.27899998 C 1.2689999 0.27899998 1.071 0.639 1.071 0.918 C 1.071 1.323 1.26 1.7369999 1.9259999 1.9079999 Z "/>
        </symbol>
        <symbol id="g372C0B0E98745A46B4D58798C5450A8C" overflow="visible">
            <path d="M 3.4739997 0 C 3.4739997 0 4.1759996 -0.009 4.356 -0.018 C 4.41 0.036 4.41 0.225 4.356 0.27899998 C 4.0049996 0.297 3.9329998 0.369 3.7799997 0.65699995 L 3.3749998 1.4219999 C 3.1499999 1.8449999 2.8349998 2.0609999 2.3219998 2.0609999 L 2.3219998 2.0879998 C 2.6729999 2.1869998 2.826 2.5019999 2.961 2.862 C 3.0689998 3.1409998 3.1769998 3.3119998 3.366 3.3119998 C 3.4469998 3.3119998 3.5189998 3.2849998 3.573 3.2489998 C 3.6269999 3.2129998 3.7259998 3.1859999 3.843 3.1859999 C 4.041 3.1859999 4.2029996 3.3569999 4.2029996 3.537 C 4.2029996 3.735 3.9869998 3.942 3.6899998 3.942 C 3.1679997 3.942 2.925 3.4559999 2.754 3.0329998 C 2.556 2.5379999 2.313 2.1959999 1.6739999 2.1959999 L 1.6739999 2.7629998 C 1.6739999 3.5099998 1.7729999 3.537 2.2319999 3.5819998 C 2.286 3.636 2.286 3.8249998 2.2319999 3.879 C 2.0159998 3.87 1.6739999 3.8609998 1.3139999 3.8609998 C 0.927 3.8609998 0.612 3.87 0.315 3.879 C 0.26099998 3.8249998 0.26099998 3.636 0.315 3.5819998 C 0.86399996 3.5459998 0.96299994 3.5099998 0.96299994 2.7629998 L 0.96299994 1.0979999 C 0.96299994 0.35099998 0.86399996 0.324 0.315 0.27899998 C 0.26099998 0.225 0.26099998 0.036 0.315 -0.018 C 0.612 -0.009 0.927 0 1.323 0 C 1.6739999 0 2.034 -0.009 2.2319999 -0.018 C 2.286 0.036 2.286 0.225 2.2319999 0.27899998 C 1.7729999 0.315 1.6739999 0.35099998 1.6739999 1.0979999 L 1.6739999 1.8809999 C 2.286 1.8449999 2.448 1.6019999 2.61 1.2689999 L 2.997 0.459 C 3.1139998 0.21599999 3.294 0.009 3.4739997 0 Z "/>
        </symbol>
        <symbol id="gE5FBEC3A915E2D9534A37A1813D7F710" overflow="visible">
            <path d="M 1.6379999 1.0979999 C 1.6379999 0.35099998 1.5389999 0.306 0.98999995 0.27899998 C 0.936 0.225 0.936 0.036 0.98999995 -0.018 C 1.341 -0.009 1.701 0 1.9979999 0 C 2.304 0 2.655 -0.009 2.997 -0.018 C 3.0509999 0.036 3.0509999 0.225 2.997 0.27899998 C 2.448 0.306 2.349 0.35099998 2.349 1.0979999 L 2.349 3.5279999 L 2.5019999 3.5279999 C 3.231 3.5279999 3.3749998 3.2759998 3.5279999 2.547 C 3.6449997 2.547 3.7619998 2.583 3.7619998 2.583 C 3.708 2.997 3.672 3.393 3.6629999 3.9149997 C 3.4559999 3.8969998 2.781 3.8609998 2.3309999 3.8609998 L 1.6559999 3.8609998 C 1.206 3.8609998 0.70199996 3.8879998 0.34199998 3.9149997 C 0.33299997 3.393 0.297 2.997 0.234 2.583 C 0.234 2.583 0.35999998 2.547 0.47699997 2.547 C 0.63 3.2759998 0.765 3.5279999 1.5029999 3.5279999 L 1.6379999 3.5279999 Z "/>
        </symbol>
        <symbol id="g7E20603D126C6AA5582B2D8205A6B26E" overflow="visible">
            <path d="M 1.782 0.567 C 1.7549999 0.567 1.719 0.585 1.719 0.67499995 L 1.719 2.727 C 1.719 3.4739997 1.9079999 3.5549998 2.3669999 3.5819998 C 2.421 3.636 2.421 3.8249998 2.3669999 3.879 C 2.1599998 3.87 1.647 3.8609998 1.3139999 3.8609998 C 1.017 3.8609998 0.65699995 3.87 0.315 3.879 C 0.26099998 3.8249998 0.26099998 3.636 0.315 3.5819998 C 0.86399996 3.5549998 1.0079999 3.4739997 1.0079999 2.727 L 1.0079999 1.134 C 1.0079999 0.387 0.86399996 0.306 0.315 0.27899998 C 0.26099998 0.225 0.26099998 0.036 0.315 -0.018 C 0.66599995 -0.009 1.0259999 0 1.3139999 0 C 1.5209999 0 1.7639999 -0.009 1.8629999 -0.018 C 1.9079999 0.107999995 1.989 0.288 2.0879998 0.468 L 3.4919999 3.2849998 C 3.5189998 3.2849998 3.5549998 3.267 3.5549998 3.1769998 L 3.5549998 1.134 C 3.5549998 0.387 3.366 0.306 2.9069998 0.27899998 C 2.853 0.225 2.853 0.036 2.9069998 -0.018 C 3.1139998 -0.009 3.6 0 3.9599998 0 C 4.239 0 4.608 -0.009 4.9589996 -0.018 C 5.013 0.036 5.013 0.225 4.9589996 0.27899998 C 4.41 0.306 4.266 0.387 4.266 1.134 L 4.266 2.727 C 4.266 3.4739997 4.41 3.5549998 4.9589996 3.5819998 C 5.013 3.636 5.013 3.8249998 4.9589996 3.879 C 4.599 3.87 4.239 3.8609998 3.9599998 3.8609998 C 3.7619998 3.8609998 3.5099998 3.87 3.4199998 3.879 C 3.3479998 3.7169998 3.267 3.5279999 3.1859999 3.3749998 Z "/>
        </symbol>
        <symbol id="g2DE200BEC81CA8326BA49B358FB666D8" overflow="visible">
            <path d="M 1.3139999 3.8609998 C 0.927 3.8609998 0.612 3.87 0.315 3.879 C 0.26099998 3.8249998 0.26099998 3.636 0.315 3.5819998 C 0.86399996 3.5459998 0.96299994 3.5099998 0.96299994 2.7629998 L 0.96299994 1.0979999 C 0.96299994 0.35099998 0.86399996 0.324 0.315 0.27899998 C 0.26099998 0.225 0.26099998 0.036 0.315 -0.018 C 0.612 -0.009 0.927 0 1.323 0 C 1.6559999 0 1.953 -0.018 2.556 -0.018 C 3.33 -0.018 3.9149997 0.19799998 3.9149997 1.089 C 3.9149997 1.5929999 3.6 1.9439999 3.0509999 2.043 L 3.0509999 2.07 C 3.465 2.151 3.7799997 2.439 3.7799997 2.9789999 C 3.7799997 3.6089997 3.393 3.879 2.304 3.879 C 1.935 3.879 1.701 3.8609998 1.3139999 3.8609998 Z M 1.6739999 1.953 L 2.3579998 1.953 C 2.9069998 1.953 3.1409998 1.5929999 3.1409998 1.053 C 3.1409998 0.45 2.7989998 0.27899998 2.313 0.27899998 C 1.8449999 0.27899998 1.6739999 0.35999998 1.6739999 0.774 Z M 1.6739999 2.214 L 1.6739999 3.258 C 1.6739999 3.5279999 1.8809999 3.5819998 2.313 3.5819998 C 2.781 3.5819998 3.06 3.4559999 3.06 2.916 C 3.06 2.556 2.826 2.214 2.268 2.214 Z "/>
        </symbol>
        <symbol id="g7DAAB32D3FC1017B6983C86DE527A5F8" overflow="visible">
            <path d="M 4.311 2.7629998 C 4.311 3.5099998 4.41 3.537 4.9589996 3.5819998 C 5.013 3.636 5.013 3.8249998 4.9589996 3.879 C 4.6439996 3.8609998 4.2479997 3.8609998 3.9509997 3.8609998 C 3.699 3.8609998 3.3389997 3.87 2.988 3.879 C 2.9339998 3.8249998 2.9339998 3.636 2.988 3.5819998 C 3.537 3.5459998 3.6 3.5099998 3.6 2.7629998 L 3.6 2.178 L 1.6739999 2.178 L 1.6739999 2.7629998 C 1.6739999 3.5099998 1.7369999 3.537 2.286 3.5819998 C 2.34 3.636 2.34 3.8249998 2.286 3.879 C 1.9439999 3.87 1.6019999 3.8609998 1.3139999 3.8609998 C 1.0439999 3.8609998 0.67499995 3.87 0.315 3.879 C 0.26099998 3.8249998 0.26099998 3.636 0.315 3.5819998 C 0.86399996 3.5459998 0.96299994 3.5099998 0.96299994 2.7629998 L 0.96299994 1.0979999 C 0.96299994 0.35099998 0.86399996 0.324 0.315 0.27899998 C 0.26099998 0.225 0.26099998 0.036 0.315 -0.018 C 0.67499995 -0.009 1.035 0 1.323 0 C 1.611 0 1.9619999 -0.009 2.286 -0.018 C 2.34 0.036 2.34 0.225 2.286 0.27899998 C 1.7369999 0.315 1.6739999 0.35099998 1.6739999 1.0979999 L 1.6739999 1.8809999 L 3.6 1.8809999 L 3.6 1.0979999 C 3.6 0.35099998 3.537 0.324 2.988 0.27899998 C 2.9339998 0.225 2.9339998 0.036 2.988 -0.018 C 3.3119998 -0.009 3.6449997 0 3.9599998 0 C 4.23 0 4.608 -0.009 4.9589996 -0.018 C 5.013 0.036 5.013 0.225 4.9589996 0.27899998 C 4.41 0.315 4.311 0.35099998 4.311 1.0979999 Z "/>
        </symbol>
        <symbol id="gB5FAB7947D834D65CDD3F371FCCEC4B5" overflow="visible">
            <path d="M 1.6739999 2.754 C 1.6739999 3.5099998 1.7729999 3.537 2.3219998 3.5819998 C 2.376 3.636 2.376 3.8249998 2.3219998 3.879 C 2.0159998 3.87 1.7099999 3.8609998 1.3139999 3.8609998 C 0.927 3.8609998 0.612 3.87 0.315 3.879 C 0.26099998 3.8249998 0.26099998 3.636 0.315 3.5819998 C 0.86399996 3.5459998 0.96299994 3.5099998 0.96299994 2.7629998 L 0.96299994 1.0979999 C 0.96299994 0.35099998 0.86399996 0.324 0.315 0.27899998 C 0.26099998 0.225 0.26099998 0.036 0.315 -0.018 C 0.612 -0.009 0.927 0 1.323 0 C 1.6919999 0 1.8899999 -0.018 2.2589998 -0.018 C 3.366 -0.018 3.9689999 0.26099998 3.9689999 1.224 C 3.9689999 2.07 3.231 2.313 2.3219998 2.313 L 1.6739999 2.313 Z M 5.553 2.7629998 C 5.553 3.5099998 5.652 3.537 6.2009997 3.5819998 C 6.2549996 3.636 6.2549996 3.8249998 6.2009997 3.879 C 5.895 3.87 5.5889997 3.8609998 5.193 3.8609998 C 4.8059998 3.8609998 4.4909997 3.87 4.194 3.879 C 4.14 3.8249998 4.14 3.636 4.194 3.5819998 C 4.743 3.5459998 4.842 3.5099998 4.842 2.7629998 L 4.842 1.0979999 C 4.842 0.35099998 4.743 0.324 4.194 0.27899998 C 4.14 0.225 4.14 0.036 4.194 -0.018 C 4.4909997 -0.009 4.8059998 0 5.2019997 0 C 5.5889997 0 5.9129996 -0.009 6.2009997 -0.018 C 6.2549996 0.036 6.2549996 0.225 6.2009997 0.27899998 C 5.652 0.315 5.553 0.35099998 5.553 1.0979999 Z M 3.195 1.134 C 3.195 0.39599997 2.745 0.27899998 2.268 0.27899998 C 1.8269999 0.27899998 1.6739999 0.369 1.6739999 0.68399996 L 1.6739999 2.0159998 L 2.313 2.0159998 C 2.988 2.0159998 3.195 1.611 3.195 1.134 Z "/>
        </symbol>
        <symbol id="gBE028FE9FD67F328406B0C7495044695" overflow="visible">
            <path d="M 1.782 0.567 C 1.7549999 0.567 1.719 0.585 1.719 0.67499995 L 1.719 2.727 C 1.719 3.4739997 1.9079999 3.5549998 2.3669999 3.5819998 C 2.421 3.636 2.421 3.8249998 2.3669999 3.879 C 2.1599998 3.87 1.647 3.8609998 1.3139999 3.8609998 C 1.017 3.8609998 0.65699995 3.87 0.315 3.879 C 0.26099998 3.8249998 0.26099998 3.636 0.315 3.5819998 C 0.86399996 3.5549998 1.0079999 3.4739997 1.0079999 2.727 L 1.0079999 1.134 C 1.0079999 0.387 0.86399996 0.306 0.315 0.27899998 C 0.26099998 0.225 0.26099998 0.036 0.315 -0.018 C 0.66599995 -0.009 1.0259999 0 1.3139999 0 C 1.5209999 0 1.7639999 -0.009 1.8629999 -0.018 C 1.9079999 0.107999995 1.989 0.288 2.0879998 0.468 L 3.4919999 3.2849998 C 3.5189998 3.2849998 3.5549998 3.267 3.5549998 3.1769998 L 3.5549998 1.134 C 3.5549998 0.387 3.366 0.306 2.9069998 0.27899998 C 2.853 0.225 2.853 0.036 2.9069998 -0.018 C 3.1139998 -0.009 3.6 0 3.9599998 0 C 4.239 0 4.608 -0.009 4.9589996 -0.018 C 5.013 0.036 5.013 0.225 4.9589996 0.27899998 C 4.41 0.306 4.266 0.387 4.266 1.134 L 4.266 2.727 C 4.266 3.4739997 4.41 3.5549998 4.9589996 3.5819998 C 5.013 3.636 5.013 3.8249998 4.9589996 3.879 C 4.599 3.87 4.239 3.8609998 3.9599998 3.8609998 C 3.7619998 3.8609998 3.5099998 3.87 3.4199998 3.879 C 3.3479998 3.7169998 3.267 3.5279999 3.1859999 3.3749998 Z M 3.7169998 5.31 C 3.7169998 5.481 3.5909998 5.607 3.3749998 5.607 C 3.2129998 5.607 3.06 5.481 3.06 5.3279996 C 3.06 5.3009996 3.06 5.283 3.0689998 5.265 C 3.0779998 5.238 3.0779998 5.211 3.0779998 5.184 C 3.0779998 4.9859996 2.889 4.8059998 2.6279998 4.8059998 C 2.3579998 4.8059998 2.178 4.995 2.178 5.193 C 2.178 5.211 2.178 5.238 2.1869998 5.265 C 2.1959999 5.292 2.1959999 5.31 2.1959999 5.337 C 2.1959999 5.481 2.0879998 5.607 1.8899999 5.607 C 1.683 5.607 1.5389999 5.4719996 1.5389999 5.31 C 1.5389999 4.824 2.034 4.527 2.619 4.527 C 3.195 4.527 3.7169998 4.8149996 3.7169998 5.31 Z "/>
        </symbol>
        <symbol id="g111D701A310C46A5A90DD40F3742CD3B" overflow="visible">
            <path d="M 3.5819998 0.81899995 C 3.5459998 0.9 3.4739997 0.936 3.393 0.94499993 C 3.087 0.54899997 2.6999998 0.35099998 2.313 0.35099998 C 1.6559999 0.35099998 1.107 1.017 1.107 2.07 C 1.107 3.06 1.5389999 3.6539998 2.133 3.6539998 C 2.6639998 3.6539998 2.7359998 3.3389997 2.7719998 3.024 C 2.7989998 2.781 2.925 2.6999998 3.1139998 2.6999998 C 3.303 2.6999998 3.5549998 2.817 3.5549998 3.096 C 3.5549998 3.5909998 3.0419998 3.9509997 2.178 3.9509997 C 1.287 3.9509997 0.33299997 3.1499999 0.33299997 1.872 C 0.33299997 0.71099997 0.98099995 -0.089999996 2.115 -0.089999996 C 2.655 -0.089999996 3.132 0.081 3.5819998 0.81899995 Z "/>
        </symbol>
        <symbol id="gE9B4FEA09DDC621E499CD4F7FC0219B3" overflow="visible">
            <path d="M 3.7619998 1.0979999 L 3.7619998 2.7629998 C 3.7619998 3.501 3.879 3.5459998 4.3739996 3.5819998 C 4.428 3.636 4.428 3.8249998 4.3739996 3.879 C 4.1039996 3.87 3.7619998 3.8609998 3.402 3.8609998 L 1.701 3.8609998 C 1.4039999 3.8609998 1.053 3.87 0.783 3.879 C 0.729 3.8249998 0.729 3.636 0.783 3.5819998 C 1.4219999 3.537 1.512 3.4829998 1.512 2.511 C 1.512 1.566 1.4399999 1.071 1.3139999 0.70199996 C 1.1969999 0.378 1.0439999 0.26099998 0.891 0.26099998 C 0.774 0.26099998 0.738 0.33299997 0.71999997 0.45 C 0.69299996 0.621 0.639 0.79199994 0.387 0.79199994 C 0.162 0.79199994 0.036 0.612 0.036 0.41399997 C 0.036 0.13499999 0.288 -0.107999995 0.70199996 -0.107999995 C 1.1609999 -0.107999995 1.413 0.12599999 1.6199999 0.612 C 1.8 1.0439999 1.854 1.9619999 1.854 2.574 C 1.854 3.2759998 1.8809999 3.5099998 2.241 3.5099998 L 2.646 3.5099998 C 2.988 3.5099998 3.0509999 3.294 3.0509999 2.988 L 3.0509999 1.0979999 C 3.0509999 0.35999998 2.961 0.315 2.4929998 0.27899998 C 2.448 0.225 2.448 0.036 2.4929998 -0.018 C 2.718 -0.009 3.0509999 0 3.4109998 0 C 3.771 0 4.1759996 -0.009 4.428 -0.018 C 4.4729996 0.036 4.4729996 0.225 4.428 0.27899998 C 3.843 0.315 3.7619998 0.35999998 3.7619998 1.0979999 Z "/>
        </symbol>
        <symbol id="g49EC3574D18D1B05A1AECA8B912FC6F8" overflow="visible">
            <path d="M 0.369 1.8449999 C 0.369 0.927 0.98099995 -0.089999996 2.2589998 -0.089999996 C 2.8349998 -0.089999996 3.2759998 0.117 3.5819998 0.41399997 C 3.9869998 0.80999994 4.167 1.377 4.167 1.9259999 C 4.167 2.862 3.6539998 3.9509997 2.277 3.9509997 C 1.683 3.9509997 1.1969999 3.708 0.86399996 3.3209999 C 0.53999996 2.9339998 0.369 2.412 0.369 1.8449999 Z M 2.142 3.636 C 2.916 3.636 3.393 2.9339998 3.393 1.6379999 C 3.393 0.50399995 2.8079998 0.225 2.385 0.225 C 1.4489999 0.225 1.143 1.359 1.143 2.0519998 C 1.143 2.8349998 1.3319999 3.636 2.142 3.636 Z "/>
        </symbol>
        <symbol id="gA210BA53B7E65B659B972528E8ED741E" overflow="visible">
            <path d="M 0.3075 1.5375 C 0.3075 0.7725 0.8175 -0.074999996 1.8824999 -0.074999996 C 2.3625 -0.074999996 2.73 0.0975 2.985 0.345 C 3.3225 0.675 3.4724998 1.1474999 3.4724998 1.605 C 3.4724998 2.385 3.0449998 3.2925 1.8974999 3.2925 C 1.4024999 3.2925 0.9975 3.09 0.71999997 2.7675 C 0.45 2.445 0.3075 2.01 0.3075 1.5375 Z M 1.785 3.03 C 2.4299998 3.03 2.8274999 2.445 2.8274999 1.365 C 2.8274999 0.42 2.34 0.1875 1.9875 0.1875 C 1.2075 0.1875 0.9525 1.1324999 0.9525 1.7099999 C 0.9525 2.3625 1.11 3.03 1.785 3.03 Z "/>
        </symbol>
        <symbol id="g83235F8599C32C22344876901707D8C2" overflow="visible">
            <path d="M 1.365 0.91499996 C 1.365 0.2925 1.2825 0.255 0.825 0.2325 C 0.78 0.1875 0.78 0.03 0.825 -0.015 C 1.1175 -0.0075 1.4175 0 1.665 0 C 1.92 0 2.2124999 -0.0075 2.4975 -0.015 C 2.5425 0.03 2.5425 0.1875 2.4975 0.2325 C 2.04 0.255 1.9575 0.2925 1.9575 0.91499996 L 1.9575 2.9399998 L 2.085 2.9399998 C 2.6924999 2.9399998 2.8125 2.73 2.9399998 2.1225 C 3.0375 2.1225 3.135 2.1525 3.135 2.1525 C 3.09 2.4975 3.06 2.8274999 3.0525 3.2624998 C 2.8799999 3.2475 2.3174999 3.2175 1.9425 3.2175 L 1.38 3.2175 C 1.005 3.2175 0.585 3.24 0.285 3.2624998 C 0.2775 2.8274999 0.24749999 2.4975 0.195 2.1525 C 0.195 2.1525 0.29999998 2.1225 0.39749998 2.1225 C 0.525 2.73 0.6375 2.9399998 1.2524999 2.9399998 L 1.365 2.9399998 Z "/>
        </symbol>
        <symbol id="gDC328C9BC699C2129D3FF1CC3A4E6043" overflow="visible">
            <path d="M 2.1975 0.35999998 C 2.2425 0.1275 2.325 -0.074999996 2.7 -0.074999996 C 2.985 -0.074999996 3.2549999 0.0525 3.4125 0.2025 C 3.3975 0.2925 3.3674998 0.35999998 3.2849998 0.405 C 3.2324998 0.35999998 3.105 0.285 3.0075 0.285 C 2.79 0.285 2.7825 0.5775 2.7825 0.92249995 L 2.7825 2.0249999 C 2.7825 3.09 2.1975 3.2925 1.65 3.2925 C 1.035 3.2925 0.4125 2.8875 0.4125 2.46 C 0.4125 2.28 0.5025 2.19 0.675 2.19 C 0.8925 2.19 1.0275 2.3474998 1.0275 2.445 C 1.0275 2.4975 1.02 2.55 1.005 2.58 C 0.9975 2.6025 0.98999995 2.6475 0.98999995 2.73 C 0.98999995 2.9624999 1.305 3.0449998 1.5899999 3.0449998 C 1.8449999 3.0449998 2.1975 2.9175 2.1975 2.07 C 2.1975 2.0175 2.175 1.9875 2.1525 1.9799999 L 1.5074999 1.8225 C 0.78749996 1.6424999 0.26999998 1.245 0.26999998 0.73499995 C 0.26999998 0.12 0.69 -0.074999996 1.2149999 -0.074999996 C 1.4775 -0.074999996 1.7025 -0.015 2.0325 0.24 L 2.1825 0.35999998 Z M 2.1975 1.7475 L 2.1975 0.7575 C 2.1975 0.65999997 2.1525 0.60749996 2.0925 0.5625 C 1.8974999 0.405 1.6424999 0.2325 1.4325 0.2325 C 1.0575 0.2325 0.8925 0.53249997 0.8925 0.765 C 0.8925 1.1025 1.05 1.4475 1.605 1.5899999 Z "/>
        </symbol>
        <symbol id="gF33BCA568611109E7F2E9B43B5FC788" overflow="visible">
            <path d="M 1.485 0.4725 C 1.4625 0.4725 1.4325 0.48749998 1.4325 0.5625 L 1.4325 2.2725 C 1.4325 2.895 1.5899999 2.9624999 1.9725 2.985 C 2.0175 3.03 2.0175 3.1875 1.9725 3.2324998 C 1.8 3.225 1.3725 3.2175 1.095 3.2175 C 0.84749997 3.2175 0.5475 3.225 0.2625 3.2324998 C 0.2175 3.1875 0.2175 3.03 0.2625 2.985 C 0.71999997 2.9624999 0.84 2.895 0.84 2.2725 L 0.84 0.945 C 0.84 0.3225 0.71999997 0.255 0.2625 0.2325 C 0.2175 0.1875 0.2175 0.03 0.2625 -0.015 C 0.555 -0.0075 0.85499996 0 1.095 0 C 1.2674999 0 1.4699999 -0.0075 1.5525 -0.015 C 1.5899999 0.089999996 1.6574999 0.24 1.74 0.39 L 2.9099998 2.7375 C 2.9325 2.7375 2.9624999 2.7224998 2.9624999 2.6475 L 2.9624999 0.945 C 2.9624999 0.3225 2.8049998 0.255 2.4225 0.2325 C 2.3775 0.1875 2.3775 0.03 2.4225 -0.015 C 2.595 -0.0075 3 0 3.3 0 C 3.5325 0 3.84 -0.0075 4.1324997 -0.015 C 4.1775 0.03 4.1775 0.1875 4.1324997 0.2325 C 3.675 0.255 3.5549998 0.3225 3.5549998 0.945 L 3.5549998 2.2725 C 3.5549998 2.895 3.675 2.9624999 4.1324997 2.985 C 4.1775 3.03 4.1775 3.1875 4.1324997 3.2324998 C 3.8325 3.225 3.5325 3.2175 3.3 3.2175 C 3.135 3.2175 2.925 3.225 2.85 3.2324998 C 2.79 3.0974998 2.7224998 2.9399998 2.655 2.8125 Z "/>
        </symbol>
        <symbol id="g9C854CF28247E5DE8B4285761E14FB84" overflow="visible">
            <path d="M 1.095 3.2175 C 0.7725 3.2175 0.51 3.225 0.2625 3.2324998 C 0.2175 3.1875 0.2175 3.03 0.2625 2.985 C 0.71999997 2.955 0.8025 2.925 0.8025 2.3025 L 0.8025 0.91499996 C 0.8025 0.2925 0.71999997 0.26999998 0.2625 0.2325 C 0.2175 0.1875 0.2175 0.03 0.2625 -0.015 C 0.51 -0.0075 0.7725 0 1.1025 0 C 1.38 0 1.6274999 -0.015 2.1299999 -0.015 C 2.7749999 -0.015 3.2624998 0.16499999 3.2624998 0.90749997 C 3.2624998 1.3275 3 1.62 2.5425 1.7025 L 2.5425 1.7249999 C 2.8875 1.7925 3.1499999 2.0325 3.1499999 2.4824998 C 3.1499999 3.0075 2.8274999 3.2324998 1.92 3.2324998 C 1.6125 3.2324998 1.4175 3.2175 1.095 3.2175 Z M 1.395 1.6274999 L 1.9649999 1.6274999 C 2.4225 1.6274999 2.6174998 1.3275 2.6174998 0.8775 C 2.6174998 0.375 2.3325 0.2325 1.9275 0.2325 C 1.5375 0.2325 1.395 0.29999998 1.395 0.645 Z M 1.395 1.8449999 L 1.395 2.715 C 1.395 2.9399998 1.5675 2.985 1.9275 2.985 C 2.3174999 2.985 2.55 2.8799999 2.55 2.4299998 C 2.55 2.1299999 2.355 1.8449999 1.89 1.8449999 Z "/>
        </symbol>
        <symbol id="g4A5F0B34BA8706AA1D49E24D8330F667" overflow="visible">
            <path d="M 2.895 0.6975 C 2.6174998 0.4125 2.3999999 0.2925 1.9649999 0.2925 C 1.6949999 0.2925 1.38 0.45 1.1474999 0.8325 C 0.9975 1.0799999 0.90749997 1.425 0.90749997 1.86 L 2.9025 1.8449999 C 2.9924998 1.8449999 3.0449998 1.89 3.0449998 1.9725 C 3.0449998 2.6025 2.82 3.2775 1.7774999 3.2775 C 1.125 3.2775 0.2775 2.655 0.2775 1.515 C 0.2775 1.095 0.3825 0.69 0.63 0.405 C 0.885 0.105 1.2375 -0.074999996 1.7774999 -0.074999996 C 2.3474998 -0.074999996 2.7525 0.1875 3.0525 0.5775 C 3.03 0.6525 2.985 0.69 2.895 0.6975 Z M 0.93 2.115 C 1.0725 2.9624999 1.5975 3.03 1.7774999 3.03 C 2.0625 3.03 2.3999999 2.8725 2.3999999 2.2425 C 2.3999999 2.175 2.37 2.1375 2.2875 2.1375 Z "/>
        </symbol>
        <symbol id="gB0BFCC62D352F67446992032ECB8AFAD" overflow="visible">
            <path d="M 3.135 0.91499996 L 3.135 2.3025 C 3.135 2.9175 3.2324998 2.955 3.645 2.985 C 3.6899998 3.03 3.6899998 3.1875 3.645 3.2324998 C 3.4199998 3.225 3.135 3.2175 2.835 3.2175 L 1.4175 3.2175 C 1.17 3.2175 0.8775 3.225 0.6525 3.2324998 C 0.60749996 3.1875 0.60749996 3.03 0.6525 2.985 C 1.185 2.9475 1.26 2.9025 1.26 2.0925 C 1.26 1.305 1.1999999 0.8925 1.095 0.585 C 0.9975 0.315 0.87 0.2175 0.7425 0.2175 C 0.645 0.2175 0.615 0.2775 0.59999996 0.375 C 0.5775 0.5175 0.53249997 0.65999997 0.3225 0.65999997 C 0.13499999 0.65999997 0.03 0.51 0.03 0.345 C 0.03 0.1125 0.24 -0.089999996 0.585 -0.089999996 C 0.9675 -0.089999996 1.1775 0.105 1.35 0.51 C 1.5 0.87 1.545 1.635 1.545 2.145 C 1.545 2.73 1.5675 2.925 1.8675 2.925 L 2.205 2.925 C 2.49 2.925 2.5425 2.745 2.5425 2.49 L 2.5425 0.91499996 C 2.5425 0.29999998 2.4675 0.2625 2.0774999 0.2325 C 2.04 0.1875 2.04 0.03 2.0774999 -0.015 C 2.2649999 -0.0075 2.5425 0 2.8425 0 C 3.1425 0 3.48 -0.0075 3.6899998 -0.015 C 3.7275 0.03 3.7275 0.1875 3.6899998 0.2325 C 3.2024999 0.2625 3.135 0.29999998 3.135 0.91499996 Z "/>
        </symbol>
        <symbol id="gE886804D18163F31D133F26ED2B800AE" overflow="visible">
            <path d="M 0.8775 2.2949998 L 0.8325 0.9 C 0.81 0.26999998 0.6975 0.255 0.2625 0.2325 C 0.2175 0.1875 0.2175 0.03 0.2625 -0.015 C 0.4125 -0.0075 0.78749996 0 0.90749997 0 C 1.0575 0 1.41 -0.0075 1.56 -0.015 C 1.605 0.03 1.605 0.1875 1.56 0.2325 C 1.1324999 0.2625 1.1025 0.3375 1.1175 0.9 L 1.17 2.7375 C 1.17 2.8049998 1.1999999 2.8049998 1.23 2.7375 L 2.3174999 0.082499996 C 2.3474998 0.06 2.3775 0.06 2.3999999 0.082499996 L 3.6299999 2.73 C 3.6675 2.8125 3.705 2.82 3.705 2.73 L 3.6975 0.91499996 C 3.6975 0.2925 3.645 0.26999998 3.1875 0.2325 C 3.1425 0.1875 3.1425 0.03 3.1875 -0.015 C 3.4575 -0.0075 3.735 0 3.9975 0 C 4.2225 0 4.545 -0.0075 4.8375 -0.015 C 4.8824997 0.03 4.8824997 0.1875 4.8375 0.2325 C 4.38 0.2625 4.2975 0.2925 4.2975 0.91499996 L 4.2825 2.3025 C 4.275 2.925 4.365 2.9475 4.8224998 2.985 C 4.8675 3.03 4.8675 3.1875 4.8224998 3.2324998 C 4.56 3.2175 3.8325 3.2175 3.585 3.2175 L 2.5874999 1.0725 L 2.55 0.9975 L 2.52 1.0725 L 1.6424999 3.2175 C 1.395 3.2175 0.59999996 3.2175 0.3375 3.2324998 C 0.2925 3.1875 0.2925 3.03 0.3375 2.985 C 0.79499996 2.9475 0.9 2.9175 0.8775 2.2949998 Z "/>
        </symbol>
        <symbol id="g498D63BE9E74D36B5EA8ECFB42ED3CD9" overflow="visible">
            <path d="M 3.4739997 0.83699995 C 3.1409998 0.49499997 2.8799999 0.35099998 2.3579998 0.35099998 C 2.034 0.35099998 1.6559999 0.53999996 1.377 0.99899995 C 1.1969999 1.296 1.089 1.7099999 1.089 2.2319999 L 3.4829998 2.214 C 3.5909998 2.214 3.6539998 2.268 3.6539998 2.3669999 C 3.6539998 3.123 3.3839998 3.9329998 2.133 3.9329998 C 1.3499999 3.9329998 0.33299997 3.1859999 0.33299997 1.818 C 0.33299997 1.3139999 0.459 0.82799995 0.756 0.48599997 C 1.0619999 0.12599999 1.4849999 -0.089999996 2.133 -0.089999996 C 2.817 -0.089999996 3.303 0.225 3.6629999 0.69299996 C 3.636 0.783 3.5819998 0.82799995 3.4739997 0.83699995 Z M 1.1159999 2.5379999 C 1.287 3.5549998 1.9169999 3.636 2.133 3.636 C 2.475 3.636 2.8799999 3.4469998 2.8799999 2.691 C 2.8799999 2.61 2.8439999 2.5649998 2.745 2.5649998 Z "/>
        </symbol>
        <symbol id="g9124254A44A2B2077B37C2B3456EFDAB" overflow="visible">
            <path d="M 1.458 2.7629998 C 1.458 3.5099998 1.5569999 3.537 2.0159998 3.5819998 C 2.07 3.636 2.07 3.8249998 2.0159998 3.879 C 1.8 3.87 1.458 3.8609998 1.0979999 3.8609998 C 0.71099997 3.8609998 0.40499997 3.87 0.107999995 3.879 C 0.053999998 3.8249998 0.053999998 3.636 0.107999995 3.5819998 C 0.65699995 3.5459998 0.756 3.5099998 0.756 2.7629998 L 0.756 2.376 C 0.756 1.53 0.94499993 1.1969999 1.782 1.1969999 C 2.349 1.1969999 2.7989998 1.5209999 3.1679997 1.7909999 L 3.1679997 1.0979999 C 3.1679997 0.35099998 3.0689998 0.324 2.52 0.27899998 C 2.4659998 0.225 2.4659998 0.036 2.52 -0.018 C 2.817 -0.009 3.132 0 3.5279999 0 C 3.9149997 0 4.2479997 -0.009 4.536 -0.018 C 4.5899997 0.036 4.5899997 0.225 4.536 0.27899998 C 3.9869998 0.315 3.8879998 0.35099998 3.8879998 1.0979999 L 3.8879998 2.7629998 C 3.8879998 3.5099998 3.9869998 3.537 4.536 3.5819998 C 4.5899997 3.636 4.5899997 3.8249998 4.536 3.879 C 4.23 3.87 3.9239998 3.8609998 3.5279999 3.8609998 C 3.1769998 3.8609998 2.817 3.87 2.61 3.879 C 2.556 3.8249998 2.556 3.636 2.61 3.5819998 C 3.0689998 3.5459998 3.1679997 3.5099998 3.1679997 2.7629998 L 3.1679997 2.115 C 2.862 1.8449999 2.5379999 1.6019999 2.07 1.6019999 C 1.4849999 1.6019999 1.458 1.9079999 1.458 2.61 Z "/>
        </symbol>
        <symbol id="gF1FC50BE67466BE8CA5D65167FE5C8ED" overflow="visible">
            <path d="M 1.0259999 0 C 1.278 0.009 1.3679999 0.24299999 1.476 0.567 C 1.7099999 1.278 1.971 1.719 2.421 1.719 L 2.655 1.719 L 2.655 1.0979999 C 2.655 0.35099998 2.556 0.324 2.007 0.27899998 C 1.953 0.225 1.953 0.036 2.007 -0.018 C 2.304 -0.009 2.619 0 3.0149999 0 C 3.402 0 3.7259998 -0.009 4.014 -0.018 C 4.068 0.036 4.068 0.225 4.014 0.27899998 C 3.465 0.315 3.366 0.35099998 3.366 1.0979999 L 3.366 2.7629998 C 3.366 3.5099998 3.465 3.537 4.014 3.5819998 C 4.068 3.636 4.068 3.8249998 4.014 3.879 C 3.708 3.87 3.402 3.8609998 3.0059998 3.8609998 C 2.6999998 3.8609998 2.439 3.879 2.214 3.879 C 0.639 3.879 0.50399995 3.231 0.50399995 2.745 C 0.50399995 2.1599998 0.95399994 1.8629999 1.6199999 1.836 C 1.647 1.836 1.647 1.8089999 1.6379999 1.8 C 1.296 1.701 1.143 1.512 0.98999995 1.1789999 C 0.891 0.97199994 0.80999994 0.774 0.765 0.65699995 C 0.648 0.35099998 0.49499997 0.297 0.144 0.27899998 C 0.089999996 0.225 0.089999996 0.036 0.144 -0.018 C 0.324 -0.009 1.0259999 0 1.0259999 0 Z M 1.278 2.889 C 1.278 3.3119998 1.413 3.5819998 2.142 3.5819998 C 2.511 3.5819998 2.655 3.4199998 2.655 3.0779998 L 2.655 2.0249999 L 2.0249999 2.0249999 C 1.4849999 2.0249999 1.278 2.439 1.278 2.889 Z "/>
        </symbol>
        <symbol id="gA615F02FC9D6F3E4FAD6DAF75B9FA769" overflow="visible">
            <path d="M 1.053 2.754 L 0.99899995 1.0799999 C 0.97199994 0.324 0.83699995 0.306 0.315 0.27899998 C 0.26099998 0.225 0.26099998 0.036 0.315 -0.018 C 0.49499997 -0.009 0.94499993 0 1.089 0 C 1.2689999 0 1.6919999 -0.009 1.872 -0.018 C 1.9259999 0.036 1.9259999 0.225 1.872 0.27899998 C 1.359 0.315 1.323 0.40499997 1.341 1.0799999 L 1.4039999 3.2849998 C 1.4039999 3.366 1.4399999 3.366 1.476 3.2849998 L 2.781 0.09899999 C 2.817 0.072 2.853 0.072 2.8799999 0.09899999 L 4.356 3.2759998 C 4.401 3.3749998 4.4459996 3.3839998 4.4459996 3.2759998 L 4.437 1.0979999 C 4.437 0.35099998 4.3739996 0.324 3.8249998 0.27899998 C 3.771 0.225 3.771 0.036 3.8249998 -0.018 C 4.1489997 -0.009 4.482 0 4.797 0 C 5.067 0 5.454 -0.009 5.805 -0.018 C 5.8589997 0.036 5.8589997 0.225 5.805 0.27899998 C 5.2559996 0.315 5.1569996 0.35099998 5.1569996 1.0979999 L 5.139 2.7629998 C 5.1299996 3.5099998 5.238 3.537 5.7869997 3.5819998 C 5.8409996 3.636 5.8409996 3.8249998 5.7869997 3.879 C 5.4719996 3.8609998 4.599 3.8609998 4.302 3.8609998 L 3.1049998 1.287 L 3.06 1.1969999 L 3.024 1.287 L 1.971 3.8609998 C 1.6739999 3.8609998 0.71999997 3.8609998 0.40499997 3.879 C 0.35099998 3.8249998 0.35099998 3.636 0.40499997 3.5819998 C 0.95399994 3.537 1.0799999 3.501 1.053 2.754 Z "/>
        </symbol>
        <symbol id="gE0CE25E2EA5F586FD4885AC3CABC8923" overflow="visible">
            <path d="M 1.4039999 3.3119998 C 1.395 3.5819998 1.377 3.8159997 1.3319999 3.906 C 1.3139999 3.9509997 1.296 3.978 1.224 3.978 C 0.97199994 3.879 0.738 3.7979999 0.117 3.7169998 C 0.09899999 3.6629999 0.117 3.5189998 0.13499999 3.465 C 0.621 3.4199998 0.71999997 3.3749998 0.71999997 2.853 L 0.71999997 -0.98999995 C 0.71999997 -1.7369999 0.621 -1.782 0.072 -1.8089999 C 0.018 -1.8629999 0.018 -2.0519998 0.072 -2.106 C 0.387 -2.097 0.71999997 -2.0879998 1.0799999 -2.0879998 C 1.4399999 -2.0879998 1.872 -2.097 2.169 -2.106 C 2.2229998 -2.0519998 2.2229998 -1.8629999 2.169 -1.8089999 C 1.53 -1.7729999 1.431 -1.7369999 1.431 -0.98999995 L 1.431 -0.018 C 1.431 0.09899999 1.4669999 0.089999996 1.5569999 0.053999998 C 1.782 -0.036 2.0519998 -0.089999996 2.34 -0.089999996 C 2.8439999 -0.089999996 3.294 0.06299999 3.6629999 0.41399997 C 4.086 0.82799995 4.329 1.3859999 4.329 2.115 C 4.329 3.0689998 3.6539998 3.9509997 2.7359998 3.9509997 C 2.3219998 3.9509997 1.8629999 3.6809998 1.5029999 3.2759998 C 1.4489999 3.222 1.413 3.222 1.4039999 3.3119998 Z M 1.5749999 2.9789999 C 1.8089999 3.267 2.2229998 3.537 2.484 3.537 C 3.06 3.537 3.5549998 2.889 3.5549998 1.872 C 3.5549998 1.134 3.294 0.21599999 2.286 0.21599999 C 2.1239998 0.21599999 1.8089999 0.26099998 1.647 0.40499997 C 1.4669999 0.567 1.431 0.621 1.431 0.94499993 L 1.431 2.583 C 1.431 2.7719998 1.4669999 2.853 1.5749999 2.9789999 Z "/>
        </symbol>
        <symbol id="gD77E1E677A6718D777B385A5DF30F82" overflow="visible">
            <path d="M 0.387 0.747 C 0.387 0.54899997 0.50399995 0.40499997 0.69299996 0.26099998 C 0.918 0.09899999 1.2149999 -0.089999996 1.9259999 -0.089999996 C 2.826 -0.089999996 3.5279999 0.17999999 3.5279999 1.071 C 3.5279999 1.611 3.258 1.971 2.619 2.079 L 2.619 2.106 C 3.1679997 2.313 3.3119998 2.5649998 3.3119998 3.0329998 C 3.3119998 3.5549998 2.952 3.9509997 2.043 3.9509997 C 1.566 3.9509997 1.143 3.7799997 0.65699995 3.699 L 0.53999996 2.6279998 C 0.612 2.592 0.70199996 2.583 0.783 2.592 C 0.95399994 3.1139998 1.1789999 3.636 1.935 3.636 C 2.4299998 3.636 2.592 3.3389997 2.592 2.9789999 C 2.592 2.61 2.5289998 2.178 1.953 2.178 C 1.782 2.178 1.629 2.2319999 1.458 2.2319999 C 1.377 2.2319999 1.287 2.178 1.287 2.034 C 1.287 1.8899999 1.3859999 1.8449999 1.4669999 1.8449999 C 1.6379999 1.8449999 1.7369999 1.8989999 1.9619999 1.8989999 C 2.6279998 1.8989999 2.754 1.4399999 2.754 1.0439999 C 2.754 0.51299995 2.556 0.225 1.9169999 0.225 C 1.4039999 0.225 1.3139999 0.41399997 1.1609999 0.738 C 1.089 0.9 0.98999995 1.0259999 0.756 1.0259999 C 0.594 1.0259999 0.387 0.891 0.387 0.747 Z "/>
        </symbol>
        <symbol id="gD0FDECB2FE6BA0695C57A110BF240FBD" overflow="visible">
            <path d="M 2.625 0.91499996 L 2.625 3.78 C 2.625 4.2599998 2.7 4.545 2.97 4.545 L 3.135 4.545 C 3.6975 4.545 4.0499997 4.35 4.1775 3.7724998 C 4.2599998 3.7724998 4.365 3.78 4.4325 3.81 C 4.38 4.1549997 4.3424997 4.5375 4.335 4.875 C 4.335 4.8824997 4.3199997 4.8975 4.3125 4.8975 C 4.0575 4.875 3.225 4.8375 2.6325 4.8375 L 1.9875 4.8375 C 1.41 4.8375 0.525 4.875 0.24 4.8975 C 0.225 4.8975 0.21 4.8824997 0.21 4.875 C 0.17999999 4.5375 0.105 4.1475 0.022499999 3.7875 C 0.0975 3.7575 0.1875 3.75 0.2775 3.75 C 0.42749998 4.35 0.7725 4.545 1.2674999 4.545 L 1.635 4.545 C 1.9124999 4.545 1.9875 4.2599998 1.9875 3.8025 L 1.9875 0.91499996 C 1.9875 0.2925 1.86 0.255 1.26 0.2325 C 1.2149999 0.1875 1.2149999 0.03 1.26 -0.015 C 1.6274999 -0.0075 2.01 0 2.31 0 C 2.595 0 2.9775 -0.0075 3.3525 -0.015 C 3.3975 0.03 3.3975 0.1875 3.3525 0.2325 C 2.7525 0.255 2.625 0.2925 2.625 0.91499996 Z "/>
        </symbol>
        <symbol id="g251F941FFD3B03800AE1F4E26A6F2D70" overflow="visible">
            <path d="M 1.035 1.7925 L 3.4125 2.655 C 3.51 2.76 3.5175 2.985 3.4125 3.03 L 0.48749998 1.9725 C 0.42 1.8449999 0.42 1.7249999 0.48749998 1.6125 L 3.4125 0.5475 C 3.5175 0.5925 3.51 0.8175 3.4125 0.92249995 Z "/>
        </symbol>
        <symbol id="g4DBF26FE769CE6A58F9CD13F191AEDBC" overflow="visible">
            <path d="M 1.7099999 -0.074999996 C 2.2875 -0.074999996 3.165 0.51 3.165 2.2725 C 3.165 3.0149999 2.985 3.6525 2.655 4.0875 C 2.46 4.35 2.145 4.575 1.74 4.575 C 0.9975 4.575 0.2925 3.6899998 0.2925 2.205 C 0.2925 1.4024999 0.53999996 0.6525 0.9525 0.24 C 1.1625 0.03 1.4175 -0.074999996 1.7099999 -0.074999996 Z M 1.74 4.3125 C 1.8675 4.3125 1.9875 4.2675 2.0774999 4.185 C 2.31 3.99 2.5125 3.4199998 2.5125 2.415 C 2.5125 1.7249999 2.49 1.2524999 2.385 0.87 C 2.22 0.255 1.8525 0.1875 1.7175 0.1875 C 1.02 0.1875 0.945 1.4699999 0.945 2.1225 C 0.945 3.9675 1.4024999 4.3125 1.74 4.3125 Z "/>
        </symbol>
        <symbol id="g12D2436A7206AE53F7BA78DAFDF62E59" overflow="visible">
            <path d="M 0.255 3.8174999 C 0.255 3.405 0.5925 3.0674999 1.005 3.0674999 C 1.4175 3.0674999 1.7475 3.405 1.7475 3.8174999 C 1.7475 4.2374997 1.4175 4.575 1.005 4.575 C 0.5925 4.575 0.255 4.2374997 0.255 3.8174999 Z M 1.4925 3.81 C 1.4925 3.5549998 1.3125 3.2925 1.005 3.2925 C 0.69 3.2925 0.51 3.5475 0.51 3.81 C 0.51 4.08 0.6825 4.35 1.005 4.35 C 1.3425 4.35 1.4925 4.0575 1.4925 3.81 Z "/>
        </symbol>
        <symbol id="g63CA5A4FC0BD3740FC45E5D0FEE5A392" overflow="visible">
            <path d="M 2.6775 -0.074999996 C 3.405 -0.074999996 4.0724998 0.26999998 4.5825 0.9375 C 4.545 1.005 4.4925 1.05 4.41 1.05 C 3.8774998 0.465 3.3674998 0.2325 2.6699998 0.2325 C 1.6574999 0.2325 0.96 1.3725 0.96 2.4675 C 0.96 3.1125 1.1324999 3.6525 1.4024999 3.99 C 1.7774999 4.4474998 2.2124999 4.6575 2.6025 4.6575 C 3.6374998 4.6575 4.0499997 4.0425 4.245 3.3975 C 4.335 3.3674998 4.41 3.3899999 4.4925 3.435 C 4.455 3.8249998 4.4024997 4.185 4.3275 4.5975 C 3.945 4.6349998 3.6074998 4.935 2.685 4.935 C 2.0475 4.935 1.515 4.7025 1.0725 4.2975 C 0.5775 3.84 0.2775 3.105 0.2775 2.325 C 0.2775 1.02 1.0649999 -0.074999996 2.6775 -0.074999996 Z "/>
        </symbol>
        <symbol id="gA0ACB123143960580F0160DE8E5A82D4" overflow="visible">
            <path d="M 1.395 2.2949998 C 1.395 2.925 1.4775 2.9475 1.935 2.985 C 1.9799999 3.03 1.9799999 3.1875 1.935 3.2324998 C 1.68 3.225 1.425 3.2175 1.095 3.2175 C 0.7725 3.2175 0.51 3.225 0.2625 3.2324998 C 0.2175 3.1875 0.2175 3.03 0.2625 2.985 C 0.71999997 2.955 0.8025 2.925 0.8025 2.3025 L 0.8025 0.91499996 C 0.8025 0.2925 0.71999997 0.26999998 0.2625 0.2325 C 0.2175 0.1875 0.2175 0.03 0.2625 -0.015 C 0.51 -0.0075 0.7725 0 1.1025 0 C 1.41 0 1.5749999 -0.015 1.8824999 -0.015 C 2.8049998 -0.015 3.3075 0.2175 3.3075 1.02 C 3.3075 1.7249999 2.6924999 1.9275 1.935 1.9275 L 1.395 1.9275 Z M 4.6275 2.3025 C 4.6275 2.925 4.71 2.9475 5.1675 2.985 C 5.2125 3.03 5.2125 3.1875 5.1675 3.2324998 C 4.9125 3.225 4.6575 3.2175 4.3275 3.2175 C 4.005 3.2175 3.7424998 3.225 3.495 3.2324998 C 3.4499998 3.1875 3.4499998 3.03 3.495 2.985 C 3.9524999 2.955 4.035 2.925 4.035 2.3025 L 4.035 0.91499996 C 4.035 0.2925 3.9524999 0.26999998 3.495 0.2325 C 3.4499998 0.1875 3.4499998 0.03 3.495 -0.015 C 3.7424998 -0.0075 4.005 0 4.335 0 C 4.6575 0 4.9275 -0.0075 5.1675 -0.015 C 5.2125 0.03 5.2125 0.1875 5.1675 0.2325 C 4.71 0.2625 4.6275 0.2925 4.6275 0.91499996 Z M 2.6625 0.945 C 2.6625 0.32999998 2.2875 0.2325 1.89 0.2325 C 1.5224999 0.2325 1.395 0.3075 1.395 0.57 L 1.395 1.68 L 1.9275 1.68 C 2.49 1.68 2.6625 1.3425 2.6625 0.945 Z "/>
        </symbol>
        <symbol id="g6D36A68516CBEE03A2DD8B366FBF4CB7" overflow="visible">
            <path d="M 2.985 0.6825 C 2.955 0.75 2.895 0.78 2.8274999 0.78749996 C 2.5725 0.45749998 2.25 0.2925 1.9275 0.2925 C 1.38 0.2925 0.92249995 0.84749997 0.92249995 1.7249999 C 0.92249995 2.55 1.2825 3.0449998 1.7774999 3.0449998 C 2.22 3.0449998 2.28 2.7825 2.31 2.52 C 2.3325 2.3174999 2.4375 2.25 2.595 2.25 C 2.7525 2.25 2.9624999 2.3474998 2.9624999 2.58 C 2.9624999 2.9924998 2.5349998 3.2925 1.8149999 3.2925 C 1.0725 3.2925 0.2775 2.625 0.2775 1.56 C 0.2775 0.5925 0.8175 -0.074999996 1.7624999 -0.074999996 C 2.2124999 -0.074999996 2.61 0.067499995 2.985 0.6825 Z "/>
        </symbol>
        <symbol id="gD9DAE9E830675D99CC0822E6BD711A3F" overflow="visible">
            <path d="M 0.85499996 0 C 1.0649999 0.0075 1.14 0.2025 1.23 0.4725 C 1.425 1.0649999 1.6424999 1.4325 2.0175 1.4325 L 2.2124999 1.4325 L 2.2124999 0.91499996 C 2.2124999 0.2925 2.1299999 0.26999998 1.6725 0.2325 C 1.6274999 0.1875 1.6274999 0.03 1.6725 -0.015 C 1.92 -0.0075 2.1825 0 2.5125 0 C 2.835 0 3.105 -0.0075 3.345 -0.015 C 3.3899999 0.03 3.3899999 0.1875 3.345 0.2325 C 2.8875 0.2625 2.8049998 0.2925 2.8049998 0.91499996 L 2.8049998 2.3025 C 2.8049998 2.925 2.8875 2.9475 3.345 2.985 C 3.3899999 3.03 3.3899999 3.1875 3.345 3.2324998 C 3.09 3.225 2.835 3.2175 2.5049999 3.2175 C 2.25 3.2175 2.0325 3.2324998 1.8449999 3.2324998 C 0.53249997 3.2324998 0.42 2.6924999 0.42 2.2875 C 0.42 1.8 0.79499996 1.5525 1.35 1.53 C 1.3725 1.53 1.3725 1.5074999 1.365 1.5 C 1.0799999 1.4175 0.9525 1.26 0.825 0.98249996 C 0.7425 0.81 0.675 0.645 0.6375 0.5475 C 0.53999996 0.2925 0.4125 0.24749999 0.12 0.2325 C 0.074999996 0.1875 0.074999996 0.03 0.12 -0.015 C 0.26999998 -0.0075 0.85499996 0 0.85499996 0 Z M 1.0649999 2.4075 C 1.0649999 2.76 1.1775 2.985 1.785 2.985 C 2.0925 2.985 2.2124999 2.85 2.2124999 2.565 L 2.2124999 1.6875 L 1.6875 1.6875 C 1.2375 1.6875 1.0649999 2.0325 1.0649999 2.4075 Z "/>
        </symbol>
        <symbol id="g449C97B8511C40D3D565A872B17544E0" overflow="visible">
            <path d="M 1.2149999 2.3025 C 1.2149999 2.925 1.2975 2.9475 1.68 2.985 C 1.7249999 3.03 1.7249999 3.1875 1.68 3.2324998 C 1.5 3.225 1.2149999 3.2175 0.91499996 3.2175 C 0.5925 3.2175 0.3375 3.225 0.089999996 3.2324998 C 0.044999998 3.1875 0.044999998 3.03 0.089999996 2.985 C 0.5475 2.955 0.63 2.925 0.63 2.3025 L 0.63 1.9799999 C 0.63 1.275 0.78749996 0.9975 1.485 0.9975 C 1.9575 0.9975 2.3325 1.2674999 2.6399999 1.4925 L 2.6399999 0.91499996 C 2.6399999 0.2925 2.5575 0.26999998 2.1 0.2325 C 2.055 0.1875 2.055 0.03 2.1 -0.015 C 2.3474998 -0.0075 2.61 0 2.9399998 0 C 3.2624998 0 3.54 -0.0075 3.78 -0.015 C 3.8249998 0.03 3.8249998 0.1875 3.78 0.2325 C 3.3225 0.2625 3.24 0.2925 3.24 0.91499996 L 3.24 2.3025 C 3.24 2.925 3.3225 2.9475 3.78 2.985 C 3.8249998 3.03 3.8249998 3.1875 3.78 3.2324998 C 3.5249999 3.225 3.27 3.2175 2.9399998 3.2175 C 2.6475 3.2175 2.3474998 3.225 2.175 3.2324998 C 2.1299999 3.1875 2.1299999 3.03 2.175 2.985 C 2.5575 2.955 2.6399999 2.925 2.6399999 2.3025 L 2.6399999 1.7624999 C 2.385 1.5375 2.115 1.3349999 1.7249999 1.3349999 C 1.2375 1.3349999 1.2149999 1.5899999 1.2149999 2.175 Z "/>
        </symbol>
    </defs>
</svg>
