<svg viewBox="0 0 402.078740157 229.08992126" width="402.078740157pt" height="229.08992126pt" xmlns="http://www.w3.org/2000/svg" xmlns:xlink="http://www.w3.org/1999/xlink" xmlns:h5="http://www.w3.org/1999/xhtml"><path fill="#ffffff" fill-rule="nonzero" d="M 0 0v 229.08992126h 402.078740157v -229.08992126Z "/><g transform="translate(8 8)"><path fill="none" stroke="#1a1a18" stroke-width="1.6" stroke-linecap="butt" stroke-linejoin="miter" stroke-miterlimit="4" transform="translate(6.236220472 7.37007874)" d="M 0 0h 379.842519685"/><path fill="none" stroke="#a29b8c" stroke-width="0.6" stroke-linecap="butt" stroke-linejoin="miter" stroke-miterlimit="4" d="M 0 0m 6.236220472 7.37007874l -6.236220472 -7.37007874"/><path fill="none" stroke="#a29b8c" stroke-width="0.6" stroke-linecap="butt" stroke-linejoin="miter" stroke-miterlimit="4" transform="translate(14.173228346)" d="M 0 0m 6.236220472 7.37007874l -6.236220472 -7.37007874"/><path fill="none" stroke="#a29b8c" stroke-width="0.6" stroke-linecap="butt" stroke-linejoin="miter" stroke-miterlimit="4" transform="translate(28.346456693)" d="M 0 0m 6.236220472 7.37007874l -6.236220472 -7.37007874"/><path fill="none" stroke="#a29b8c" stroke-width="0.6" stroke-linecap="butt" stroke-linejoin="miter" stroke-miterlimit="4" transform="translate(42.519685039)" d="M 0 0m 6.236220472 7.37007874l -6.236220472 -7.37007874"/><path fill="none" stroke="#a29b8c" stroke-width="0.6" stroke-linecap="butt" stroke-linejoin="miter" stroke-miterlimit="4" transform="translate(56.692913386)" d="M 0 0m 6.236220472 7.37007874l -6.236220472 -7.37007874"/><path fill="none" stroke="#a29b8c" stroke-width="0.6" stroke-linecap="butt" stroke-linejoin="miter" stroke-miterlimit="4" transform="translate(70.866141732)" d="M 0 0m 6.236220472 7.37007874l -6.236220472 -7.37007874"/><path fill="none" stroke="#a29b8c" stroke-width="0.6" stroke-linecap="butt" stroke-linejoin="miter" stroke-miterlimit="4" transform="translate(85.039370079)" d="M 0 0m 6.236220472 7.37007874l -6.236220472 -7.37007874"/><path fill="none" stroke="#a29b8c" stroke-width="0.6" stroke-linecap="butt" stroke-linejoin="miter" stroke-miterlimit="4" transform="translate(99.212598425)" d="M 0 0m 6.236220472 7.37007874l -6.236220472 -7.37007874"/><path fill="none" stroke="#a29b8c" stroke-width="0.6" stroke-linecap="butt" stroke-linejoin="miter" stroke-miterlimit="4" transform="translate(113.385826772)" d="M 0 0m 6.236220472 7.37007874l -6.236220472 -7.37007874"/><path fill="none" stroke="#a29b8c" stroke-width="0.6" stroke-linecap="butt" stroke-linejoin="miter" stroke-miterlimit="4" transform="translate(127.559055118)" d="M 0 0m 6.236220472 7.37007874l -6.236220472 -7.37007874"/><path fill="none" stroke="#a29b8c" stroke-width="0.6" stroke-linecap="butt" stroke-linejoin="miter" stroke-miterlimit="4" transform="translate(141.732283465)" d="M 0 0m 6.236220472 7.37007874l -6.236220472 -7.37007874"/><path fill="none" stroke="#a29b8c" stroke-width="0.6" stroke-linecap="butt" stroke-linejoin="miter" stroke-miterlimit="4" transform="translate(155.905511811)" d="M 0 0m 6.236220472 7.37007874l -6.236220472 -7.37007874"/><path fill="none" stroke="#a29b8c" stroke-width="0.6" stroke-linecap="butt" stroke-linejoin="miter" stroke-miterlimit="4" transform="translate(170.078740157)" d="M 0 0m 6.236220472 7.37007874l -6.236220472 -7.37007874"/><path fill="none" stroke="#a29b8c" stroke-width="0.6" stroke-linecap="butt" stroke-linejoin="miter" stroke-miterlimit="4" transform="translate(184.251968504)" d="M 0 0m 6.236220472 7.37007874l -6.236220472 -7.37007874"/><path fill="none" stroke="#a29b8c" stroke-width="0.6" stroke-linecap="butt" stroke-linejoin="miter" stroke-miterlimit="4" transform="translate(198.42519685)" d="M 0 0m 6.236220472 7.37007874l -6.236220472 -7.37007874"/><path fill="none" stroke="#a29b8c" stroke-width="0.6" stroke-linecap="butt" stroke-linejoin="miter" stroke-miterlimit="4" transform="translate(212.598425197)" d="M 0 0m 6.236220472 7.37007874l -6.236220472 -7.37007874"/><path fill="none" stroke="#a29b8c" stroke-width="0.6" stroke-linecap="butt" stroke-linejoin="miter" stroke-miterlimit="4" transform="translate(226.771653543)" d="M 0 0m 6.236220472 7.37007874l -6.236220472 -7.37007874"/><path fill="none" stroke="#a29b8c" stroke-width="0.6" stroke-linecap="butt" stroke-linejoin="miter" stroke-miterlimit="4" transform="translate(240.94488189)" d="M 0 0m 6.236220472 7.37007874l -6.236220472 -7.37007874"/><path fill="none" stroke="#a29b8c" stroke-width="0.6" stroke-linecap="butt" stroke-linejoin="miter" stroke-miterlimit="4" transform="translate(255.118110236)" d="M 0 0m 6.236220472 7.37007874l -6.236220472 -7.37007874"/><path fill="none" stroke="#a29b8c" stroke-width="0.6" stroke-linecap="butt" stroke-linejoin="miter" stroke-miterlimit="4" transform="translate(269.291338583)" d="M 0 0m 6.236220472 7.37007874l -6.236220472 -7.37007874"/><path fill="none" stroke="#a29b8c" stroke-width="0.6" stroke-linecap="butt" stroke-linejoin="miter" stroke-miterlimit="4" transform="translate(283.464566929)" d="M 0 0m 6.236220472 7.37007874l -6.236220472 -7.37007874"/><path fill="none" stroke="#a29b8c" stroke-width="0.6" stroke-linecap="butt" stroke-linejoin="miter" stroke-miterlimit="4" transform="translate(297.637795276)" d="M 0 0m 6.236220472 7.37007874l -6.236220472 -7.37007874"/><path fill="none" stroke="#a29b8c" stroke-width="0.6" stroke-linecap="butt" stroke-linejoin="miter" stroke-miterlimit="4" transform="translate(311.811023622)" d="M 0 0m 6.236220472 7.37007874l -6.236220472 -7.37007874"/><path fill="none" stroke="#a29b8c" stroke-width="0.6" stroke-linecap="butt" stroke-linejoin="miter" stroke-miterlimit="4" transform="translate(325.984251969)" d="M 0 0m 6.236220472 7.37007874l -6.236220472 -7.37007874"/><path fill="none" stroke="#a29b8c" stroke-width="0.6" stroke-linecap="butt" stroke-linejoin="miter" stroke-miterlimit="4" transform="translate(340.157480315)" d="M 0 0m 6.236220472 7.37007874l -6.236220472 -7.37007874"/><path fill="none" stroke="#a29b8c" stroke-width="0.6" stroke-linecap="butt" stroke-linejoin="miter" stroke-miterlimit="4" transform="translate(354.330708661)" d="M 0 0m 6.236220472 7.37007874l -6.236220472 -7.37007874"/><path fill="none" stroke="#a29b8c" stroke-width="0.6" stroke-linecap="butt" stroke-linejoin="miter" stroke-miterlimit="4" transform="translate(368.503937008)" d="M 0 0m 6.236220472 7.37007874l -6.236220472 -7.37007874"/><path fill="none" stroke="#1a1a18" stroke-width="1.4" stroke-linecap="butt" stroke-linejoin="miter" stroke-miterlimit="4" transform="translate(45.921259843 7.37007874)" d="M 0 0v 4.535433071"/><path fill="none" stroke="#1a1a18" stroke-width="1.4" stroke-linecap="butt" stroke-linejoin="miter" stroke-miterlimit="4" transform="translate(130.960629921 7.37007874)" d="M 0 0v 4.535433071"/><path fill="none" stroke="#1a1a18" stroke-width="0.6" stroke-linecap="butt" stroke-linejoin="miter" stroke-miterlimit="4" transform="translate(45.921259843 7.37007874)" d="M 0 0l 32.322037278 105.720620266"/><path fill="#1a1a18" fill-rule="nonzero" transform="translate(72.574005782 107.421407667)" d="M 0 0m 5.669291339 0c -3.128224252 0 -5.669291339 2.541067087 -5.669291339 5.669291339c 0 3.128224252 2.541067087 5.669291339 5.669291339 5.669291339c 3.128224252 0 5.669291339 -2.541067087 5.669291339 -5.669291339c 0 -3.128224252 -2.541067087 -5.669291339 -5.669291339 -5.669291339Z "/><path fill="none" stroke="#1a1a18" stroke-width="0.6" stroke-linecap="butt" stroke-linejoin="miter" stroke-miterlimit="4" transform="translate(130.960629921 7.37007874)" d="M 0 0l 32.322037278 105.720620266"/><path fill="#1a1a18" fill-rule="nonzero" transform="translate(154.211801058 104.019832864)" d="M 0 0m 9.070866142 0c -5.005158803 0 -9.070866142 4.065707339 -9.070866142 9.070866142c 0 5.005158803 4.065707339 9.070866142 9.070866142 9.070866142c 5.005158803 0 9.070866142 -4.065707339 9.070866142 -9.070866142c 0 -5.005158803 -4.065707339 -9.070866142 -9.070866142 -9.070866142Z "/><path fill="none" stroke="#7c7f6a" stroke-width="0.7" stroke-linecap="butt" stroke-linejoin="miter" stroke-miterlimit="4" transform="translate(16.845369831 113.090699055)" d="M 0 0m 61.397927334 0c -19.988342005 6.111049422 -41.276510512 6.423870704 -61.397927334 0.938463843"/><path fill="#7c7f6a" fill-rule="nonzero" stroke="#7c7f6a" stroke-width="0.7" stroke-linecap="butt" stroke-linejoin="miter" stroke-miterlimit="4" transform="translate(14.556058583 113.180469267)" d="M 0 0m 0 0.189650166l 2.535936832 -0.189650166l -0.500598014 1.714228369l -2.035338818 -1.524578203Z "/><path fill="none" stroke="#7c7f6a" stroke-width="0.7" stroke-linecap="butt" stroke-linejoin="miter" stroke-miterlimit="4" transform="translate(101.88473991 113.090699055)" d="M 0 0m 61.397927334 0c -19.988342005 6.111049422 -41.276510512 6.423870704 -61.397927334 0.938463843"/><path fill="#7c7f6a" fill-rule="nonzero" stroke="#7c7f6a" stroke-width="0.7" stroke-linecap="butt" stroke-linejoin="miter" stroke-miterlimit="4" transform="translate(99.595428661 113.180469267)" d="M 0 0m 0 0.189650166l 2.535936832 -0.189650166l -0.500598014 1.714228369l -2.035338818 -1.524578203Z "/><path fill="none" transform="translate(36.760944882 204.16992126)" d="M 0 0h 103.36v 8.92h -103.36v -8.92Z "/><g transform="translate(36.760944756 204.169921228)"><g transform="matrix(1 0 0 -1 0 6.58)"><use xlink:href="#g4C5600170187B2FBAE4AB64C2B9CBFAF" x="0" y="0" fill="#1a1a18" fill-rule="nonzero"/><use xlink:href="#g7D7A5D08C55ACC07707850317A5B7900" x="6.8" y="0" fill="#1a1a18" fill-rule="nonzero"/><use xlink:href="#g3034C02F099195832EC02A04CF67550" x="11.37" y="0" fill="#1a1a18" fill-rule="nonzero"/><use xlink:href="#g3034C02F099195832EC02A04CF67550" x="15.65" y="0" fill="#1a1a18" fill-rule="nonzero"/><use xlink:href="#g7D7A5D08C55ACC07707850317A5B7900" x="19.93" y="0" fill="#1a1a18" fill-rule="nonzero"/><use xlink:href="#g2758B5BB388824681AB843E0CC5617AD" x="27" y="0" fill="#1a1a18" fill-rule="nonzero"/><use xlink:href="#gD51D1BA75A4578B9DA0C9BBB90D056B7" x="32.5" y="0" fill="#1a1a18" fill-rule="nonzero"/><use xlink:href="#g9C25E780E6AD3E011190AC1851E58112" x="37.15" y="0" fill="#1a1a18" fill-rule="nonzero"/><use xlink:href="#g53E88946A301F5C1DCEA2C720F6596D3" x="39.35" y="0" fill="#1a1a18" fill-rule="nonzero"/><use xlink:href="#gA8A9DDAB53341C8E5F3D2FE21FD6753" x="46.5" y="0" fill="#1a1a18" fill-rule="nonzero"/><use xlink:href="#gF91E605A926A6829D0875F26DD95556B" x="56.42" y="0" fill="#1a1a18" fill-rule="nonzero"/><use xlink:href="#g829D75AC8F1C9E46EE8828572BC54649" x="61.46" y="0" fill="#1a1a18" fill-rule="nonzero"/><use xlink:href="#g3730A52707D5D005176FA819A7950DF6" x="66.84" y="0" fill="#1a1a18" fill-rule="nonzero"/><use xlink:href="#gD51468542432F864548926048E523B26" x="72.7" y="0" fill="#1a1a18" fill-rule="nonzero"/><use xlink:href="#g8F03A4AE8D3B195D4882A1755C55580A" x="81.06" y="0" fill="#1a1a18" fill-rule="nonzero"/><use xlink:href="#g3730A52707D5D005176FA819A7950DF6" x="86.25" y="0" fill="#1a1a18" fill-rule="nonzero"/><use xlink:href="#gF7E2F11D9500E34CEB199CAED225F368" x="92.11" y="0" fill="#1a1a18" fill-rule="nonzero"/><use xlink:href="#g4C5600170187B2FBAE4AB64C2B9CBFAF" x="96.56" y="0" fill="#1a1a18" fill-rule="nonzero"/></g></g><path fill="none" stroke="#a29b8c" stroke-width="0.6" stroke-linecap="butt" stroke-linejoin="miter" stroke-miterlimit="4" stroke-dashoffset="0" stroke-dasharray="0.6 2" transform="translate(201.826771654 15.874015748)" d="M 0 0m 0 181.417322835v -181.417322835"/><path fill="none" stroke="#1a1a18" stroke-width="1.4" stroke-linecap="butt" stroke-linejoin="miter" stroke-miterlimit="4" transform="translate(278.362204724 7.37007874)" d="M 0 0v 4.535433071"/><path fill="none" stroke="#1a1a18" stroke-width="1.4" stroke-linecap="butt" stroke-linejoin="miter" stroke-miterlimit="4" transform="translate(357.732283465 7.37007874)" d="M 0 0v 4.535433071"/><path fill="none" stroke="#1a1a18" stroke-width="0.6" stroke-linecap="butt" stroke-linejoin="miter" stroke-miterlimit="4" transform="translate(278.362204724 7.37007874)" d="M 0 0l 35.9413749 125.342469959"/><path fill="#1a1a18" fill-rule="nonzero" transform="translate(306.933500884 125.342469959)" d="M 0 0m 7.37007874 0c -4.066691528 0 -7.37007874 3.303387213 -7.37007874 7.37007874c 0 4.066691528 3.303387213 7.37007874 7.37007874 7.37007874c 4.066691528 0 7.37007874 -3.303387213 7.37007874 -7.37007874c 0 -4.066691528 -3.303387213 -7.37007874 -7.37007874 -7.37007874Z "/><path fill="none" stroke="#1a1a18" stroke-width="0.6" stroke-linecap="butt" stroke-linejoin="miter" stroke-miterlimit="4" transform="translate(357.732283465 7.37007874)" d="M 0 0l 14.290209037 29.299270486"/><path fill="#1a1a18" fill-rule="nonzero" transform="translate(364.652413761 29.299270486)" d="M 0 0m 7.37007874 0c -4.066691528 0 -7.37007874 3.303387213 -7.37007874 7.37007874c 0 4.066691528 3.303387213 7.37007874 7.37007874 7.37007874c 4.066691528 0 7.37007874 -3.303387213 7.37007874 -7.37007874c 0 -4.066691528 -3.303387213 -7.37007874 -7.37007874 -7.37007874Z "/><path fill="none" stroke="#7c7f6a" stroke-width="0.7" stroke-linecap="butt" stroke-linejoin="miter" stroke-miterlimit="4" transform="translate(245.680999454 132.712548661)" d="M 0 0m 68.622580263 0c -22.403853999 6.424201757 -46.099510673 6.72063442 -68.622580263 0.889297987"/><path fill="#7c7f6a" fill-rule="nonzero" stroke="#7c7f6a" stroke-width="0.7" stroke-linecap="butt" stroke-linejoin="miter" stroke-miterlimit="4" transform="translate(243.381892535 132.748034276)" d="M 0 0m 0 0.229032748l 2.532683699 -0.229032748l -0.473900475 1.721800096l -2.058783224 -1.492767348Z "/><path fill="none" stroke="#7c7f6a" stroke-width="0.7" stroke-linecap="butt" stroke-linejoin="miter" stroke-miterlimit="4" transform="translate(346.550845578 36.669349134)" d="M 0 0m 25.471646957 0c -8.000726463 3.902215028 -17.200224221 4.342797428 -25.471646957 1.321747199"/><path fill="#7c7f6a" fill-rule="nonzero" stroke="#7c7f6a" stroke-width="0.7" stroke-linecap="butt" stroke-linejoin="miter" stroke-miterlimit="4" transform="translate(344.355800882 37.067739874)" d="M 0 0l 2.539529889 0.133156679l -0.713740529 1.636994718l -1.82578936 -1.770151397Z "/><path fill="none" transform="translate(265.916674113 112.149674683)" d="M 0 0h 35.631v 7.11h -35.631v -7.11Z "/><g transform="translate(265.916673971 112.149674541)"><g transform="matrix(1 0 0 -1 0 5.922)"><use xlink:href="#gBA3E9C2E61A84E296B252679103E17C4" x="0" y="0" fill="#7c7f6a" fill-rule="nonzero"/><use xlink:href="#gB118266EF18AECCCCEF724ECE6F3D1D3" x="4.842" y="0" fill="#7c7f6a" fill-rule="nonzero"/><use xlink:href="#g6EA5A1981697E2B5E95285C58F7F7AD0" x="9.585" y="0" fill="#7c7f6a" fill-rule="nonzero"/><use xlink:href="#g5F2B105DCE44482CD07DFE0B4651B637" x="14.859" y="0" fill="#7c7f6a" fill-rule="nonzero"/><use xlink:href="#gF7AD5B3248F8366898BA115B8D318C4E" x="20.133" y="0" fill="#7c7f6a" fill-rule="nonzero"/><use xlink:href="#g4CD60CD22DA0AE2B10685E0D2E1A6FCC" x="26.496" y="0" fill="#7c7f6a" fill-rule="nonzero"/><use xlink:href="#gD11A58C3A3B421C2056FF05E75045811" x="31.446" y="0" fill="#7c7f6a" fill-rule="nonzero"/></g></g><path fill="none" transform="translate(267.877244094 204.16992126)" d="M 0 0h 100.34v 8.92h -100.34v -8.92Z "/><g transform="translate(267.877243984 204.169921228)"><g transform="matrix(1 0 0 -1 0 6.58)"><use xlink:href="#g829D75AC8F1C9E46EE8828572BC54649" x="0" y="0" fill="#1a1a18" fill-rule="nonzero"/><use xlink:href="#g58FE41588FF370B2D963AE7490CB53AD" x="5.38" y="0" fill="#1a1a18" fill-rule="nonzero"/><use xlink:href="#g3730A52707D5D005176FA819A7950DF6" x="10.65" y="0" fill="#1a1a18" fill-rule="nonzero"/><use xlink:href="#gD51468542432F864548926048E523B26" x="16.51" y="0" fill="#1a1a18" fill-rule="nonzero"/><use xlink:href="#g7D7A5D08C55ACC07707850317A5B7900" x="22.37" y="0" fill="#1a1a18" fill-rule="nonzero"/><use xlink:href="#g2758B5BB388824681AB843E0CC5617AD" x="29.44" y="0" fill="#1a1a18" fill-rule="nonzero"/><use xlink:href="#g9FDA399337BA5CEE43DE6885B462BE24" x="34.94" y="0" fill="#1a1a18" fill-rule="nonzero"/><use xlink:href="#g4BC4EAB79DF3D72C4200BD5978278472" x="42.09" y="0" fill="#1a1a18" fill-rule="nonzero"/><use xlink:href="#gAB8B9E265B3CCA4072A334611102AFDC" x="55.89" y="0" fill="#1a1a18" fill-rule="nonzero"/><use xlink:href="#g8C4BCE4FF39E54C5E232A1A0A3B7612A" x="61.75" y="0" fill="#1a1a18" fill-rule="nonzero"/><use xlink:href="#g8F03A4AE8D3B195D4882A1755C55580A" x="66.22" y="0" fill="#1a1a18" fill-rule="nonzero"/><use xlink:href="#g3730A52707D5D005176FA819A7950DF6" x="71.41" y="0" fill="#1a1a18" fill-rule="nonzero"/><use xlink:href="#gF91E605A926A6829D0875F26DD95556B" x="77.27" y="0" fill="#1a1a18" fill-rule="nonzero"/><use xlink:href="#g829D75AC8F1C9E46EE8828572BC54649" x="82.31" y="0" fill="#1a1a18" fill-rule="nonzero"/><use xlink:href="#g2758B5BB388824681AB843E0CC5617AD" x="90.19" y="0" fill="#1a1a18" fill-rule="nonzero"/><use xlink:href="#gD51D1BA75A4578B9DA0C9BBB90D056B7" x="95.69" y="0" fill="#1a1a18" fill-rule="nonzero"/></g></g></g><defs><symbol id="g4C5600170187B2FBAE4AB64C2B9CBFAF" overflow="visible"><path d="M 0 0m 1.17 3.06l -0.06 -1.86c -0.03 -0.84 -0.18 -0.86 -0.76 -0.89c -0.06 -0.06 -0.06 -0.27 0 -0.33c 0.2 0.01 0.7 0.02 0.86 0.02c 0.2 0 0.67 -0.01 0.87 -0.02c 0.06 0.06 0.06 0.27 0 0.33c -0.57 0.04 -0.61 0.14 -0.59 0.89l 0.07 2.45c 0 0.09 0.04 0.09 0.08 0l 1.45 -3.54c 0.04 -0.03 0.08 -0.03 0.11 0l 1.64 3.53c 0.05 0.11 0.1 0.12 0.1 0l -0.01 -2.42c 0 -0.83 -0.07 -0.86 -0.68 -0.91c -0.06 -0.06 -0.06 -0.27 0 -0.33c 0.36 0.01 0.73 0.02 1.08 0.02c 0.3 0 0.73 -0.01 1.12 -0.02c 0.06 0.06 0.06 0.27 0 0.33c -0.61 0.04 -0.72 0.08 -0.72 0.91l -0.02 1.85c -0.01 0.83 0.11 0.86 0.72 0.91c 0.06 0.06 0.06 0.27 0 0.33c -0.35 -0.02 -1.32 -0.02 -1.65 -0.02l -1.33 -2.86l -0.05 -0.1l -0.04 0.1l -1.17 2.86c -0.33 0 -1.39 0 -1.74 0.02c -0.06 -0.06 -0.06 -0.27 0 -0.33c 0.61 -0.05 0.75 -0.09 0.72 -0.92Z "/></symbol><symbol id="g7D7A5D08C55ACC07707850317A5B7900" overflow="visible"><path d="M 0 0m 2.93 0.48c 0.06 -0.31 0.17 -0.58 0.67 -0.58c 0.38 0 0.74 0.17 0.95 0.37c -0.02 0.12 -0.06 0.21 -0.17 0.27c -0.07 -0.06 -0.24 -0.16 -0.37 -0.16c -0.29 0 -0.3 0.39 -0.3 0.85v 1.47c 0 1.42 -0.78 1.69 -1.51 1.69c -0.82 0 -1.65 -0.54 -1.65 -1.11c 0 -0.24 0.12 -0.36 0.35 -0.36c 0.29 0 0.47 0.21 0.47 0.34c 0 0.07 -0.01 0.14 -0.03 0.18c -0.01 0.03 -0.02 0.09 -0.02 0.2c 0 0.31 0.42 0.42 0.8 0.42c 0.34 0 0.81 -0.17 0.81 -1.3c 0 -0.07 -0.03 -0.11 -0.06 -0.12l -0.86 -0.21c -0.96 -0.24 -1.65 -0.77 -1.65 -1.45c 0 -0.82 0.56 -1.08 1.26 -1.08c 0.35 0 0.65 0.08 1.09 0.42l 0.2 0.16Z m 0 1.85v -1.32c 0 -0.13 -0.06 -0.2 -0.14 -0.26c -0.26 -0.21 -0.6 -0.44 -0.88 -0.44c -0.5 0 -0.72 0.4 -0.72 0.71c 0 0.45 0.21 0.91 0.95 1.1Z "/></symbol><symbol id="g3034C02F099195832EC02A04CF67550" overflow="visible"><path d="M 0 0m 3.98 0.91c -0.04 0.09 -0.12 0.13 -0.21 0.14c -0.34 -0.44 -0.77 -0.66 -1.2 -0.66c -0.73 0 -1.34 0.74 -1.34 1.91c 0 1.1 0.48 1.76 1.14 1.76c 0.59 0 0.67 -0.35 0.71 -0.7c 0.03 -0.27 0.17 -0.36 0.38 -0.36c 0.21 0 0.49 0.13 0.49 0.44c 0 0.55 -0.57 0.95 -1.53 0.95c -0.99 0 -2.05 -0.89 -2.05 -2.31c 0 -1.29 0.72 -2.18 1.98 -2.18c 0.6 0 1.13 0.19 1.63 1.01Z "/></symbol><symbol id="g2758B5BB388824681AB843E0CC5617AD" overflow="visible"><path d="M 0 0m 3.08 2.52l 1.23 1.23l -0.35 0.35l -1.22 -1.23l -1.22 1.23l -0.36 -0.35l 1.23 -1.23l -1.23 -1.22l 0.36 -0.35l 1.22 1.22l 1.22 -1.22l 0.35 0.35Z "/></symbol><symbol id="gD51D1BA75A4578B9DA0C9BBB90D056B7" overflow="visible"><path d="M 0 0m 0.61 4.68c 0 -0.21 0.19 -0.39 0.4 -0.39c 0.17 0 0.47 0.18 0.47 0.4c 0 0.08 -0.02 0.14 -0.04 0.21c -0.02 0.07 -0.08 0.16 -0.08 0.24c 0 0.25 0.26 0.61 0.99 0.61c 0.36 0 0.87 -0.25 0.87 -1.21c 0 -0.64 -0.23 -1.16 -0.82 -1.76l -0.74 -0.73c -0.98 -1 -1.14 -1.48 -1.14 -2.07c 0 0 0.51 0.02 0.83 0.02h 1.75c 0.32 0 0.78 -0.02 0.78 -0.02c 0.13 0.53 0.23 1.28 0.24 1.58c -0.06 0.05 -0.19 0.07 -0.29 0.05c -0.17 -0.71 -0.34 -0.96 -0.7 -0.96h -1.78c 0 0.48 0.69 1.16 0.74 1.21l 1.01 0.97c 0.57 0.55 1 0.99 1 1.75c 0 1.08 -0.88 1.52 -1.69 1.52c -1.11 0 -1.8 -0.82 -1.8 -1.42Z "/></symbol><symbol id="g9C25E780E6AD3E011190AC1851E58112" overflow="visible"><path d="M 0 0m 1.04 0.95c -0.31 0 -0.53 -0.21 -0.53 -0.49c 0 -0.31 0.26 -0.41 0.44 -0.44c 0.19 -0.02 0.36 -0.08 0.36 -0.31c 0 -0.21 -0.36 -0.67 -0.88 -0.8c 0 -0.1 0.02 -0.17 0.09 -0.24c 0.6 0.11 1.18 0.59 1.18 1.29c 0 0.6 -0.26 0.99 -0.66 0.99Z "/></symbol><symbol id="g53E88946A301F5C1DCEA2C720F6596D3" overflow="visible"><path d="M 0 0m 3.19 1.89c 0 -0.95 -0.5 -1.65 -1.1 -1.65c -0.38 0 -0.51 0.25 -0.66 0.45c -0.13 0.17 -0.3 0.32 -0.51 0.32c -0.19 0 -0.38 -0.17 -0.38 -0.37c 0 -0.41 0.85 -0.75 1.42 -0.75c 1.24 0 2.12 0.92 2.12 2.18c 0 0.97 -0.67 1.84 -1.79 1.84c -0.43 0 -0.8 -0.09 -0.98 -0.16l 0.2 1.67c 0.37 -0.04 0.69 -0.09 1.17 -0.09c 0.3 0 0.64 0.02 1.05 0.06l 0.16 0.68l -0.07 0.04c -0.57 -0.06 -1.11 -0.11 -1.64 -0.11c -0.37 0 -0.73 0.02 -1.08 0.05l -0.34 -2.88c 0.53 0.2 0.91 0.24 1.27 0.24c 0.65 0 1.16 -0.43 1.16 -1.52Z "/></symbol><symbol id="gA8A9DDAB53341C8E5F3D2FE21FD6753" overflow="visible"><path d="M 0 0m 0.49 2.38h 6.24c 0.13 0 0.26 0.2 0.26 0.32c 0 0.09 -0.03 0.17 -0.14 0.17h -6.24c -0.12 0 -0.26 -0.2 -0.26 -0.32c 0 -0.08 0.03 -0.17 0.14 -0.17Z "/></symbol><symbol id="gF91E605A926A6829D0875F26DD95556B" overflow="visible"><path d="M 0 0m 0.41 2.05c 0 -1.02 0.68 -2.15 2.1 -2.15c 0.64 0 1.13 0.23 1.47 0.56c 0.45 0.44 0.65 1.07 0.65 1.68c 0 1.04 -0.57 2.25 -2.1 2.25c -0.66 0 -1.2 -0.27 -1.57 -0.7c -0.36 -0.43 -0.55 -1.01 -0.55 -1.64Z m 1.97 1.99c 0.86 0 1.39 -0.78 1.39 -2.22c 0 -1.26 -0.65 -1.57 -1.12 -1.57c -1.04 0 -1.38 1.26 -1.38 2.03c 0 0.87 0.21 1.76 1.11 1.76Z "/></symbol><symbol id="g829D75AC8F1C9E46EE8828572BC54649" overflow="visible"><path d="M 0 0m 1.89 4.29c -0.33 0 -0.72 0.01 -1.02 0.02c -0.06 -0.06 -0.06 -0.27 0 -0.33c 0.61 -0.05 0.79 -0.09 0.75 -0.92c -0.04 -0.92 -0.2 -1.66 -0.37 -2.36c -0.06 -0.27 -0.35 -0.36 -0.63 -0.39c -0.15 -0.02 -0.29 -0.08 -0.3 -0.26l -0.06 -1.33c 0.07 -0.03 0.15 -0.04 0.27 -0.01c 0.09 0.37 0.36 1.29 1.26 1.29h 1.73c 0.89 0 1.18 -0.9 1.27 -1.3c 0.09 -0.02 0.18 -0.02 0.28 0.02l -0.06 1.34c 0 0.14 -0.08 0.22 -0.27 0.25c -0.18 0.03 -0.43 0.1 -0.43 0.47v 2.29c 0 0.82 0.13 0.87 0.68 0.91c 0.06 0.06 0.06 0.27 0 0.33c -0.3 -0.01 -0.68 -0.02 -1.08 -0.02Z m -0.28 -3.78c 0 0.17 0.27 0.83 0.42 3.12c 0.01 0.15 0.08 0.28 0.35 0.28h 0.69c 0.4 0 0.45 -0.28 0.45 -0.62v -2.41c 0 -0.33 -0.02 -0.49 -0.42 -0.49h -1.29c -0.11 0 -0.2 0.01 -0.2 0.12Z "/></symbol><symbol id="g3730A52707D5D005176FA819A7950DF6" overflow="visible"><path d="M 0 0m 1.98 0.63c -0.03 0 -0.07 0.02 -0.07 0.12v 2.28c 0 0.83 0.21 0.92 0.72 0.95c 0.06 0.06 0.06 0.27 0 0.33c -0.23 -0.01 -0.8 -0.02 -1.17 -0.02c -0.33 0 -0.73 0.01 -1.11 0.02c -0.06 -0.06 -0.06 -0.27 0 -0.33c 0.61 -0.03 0.77 -0.12 0.77 -0.95v -1.77c 0 -0.83 -0.16 -0.92 -0.77 -0.95c -0.06 -0.06 -0.06 -0.27 0 -0.33c 0.39 0.01 0.79 0.02 1.11 0.02c 0.23 0 0.5 -0.01 0.61 -0.02c 0.05 0.14 0.14 0.34 0.25 0.54l 1.56 3.13c 0.03 0 0.07 -0.02 0.07 -0.12v -2.27c 0 -0.83 -0.21 -0.92 -0.72 -0.95c -0.06 -0.06 -0.06 -0.27 0 -0.33c 0.23 0.01 0.77 0.02 1.17 0.02c 0.31 0 0.72 -0.01 1.11 -0.02c 0.06 0.06 0.06 0.27 0 0.33c -0.61 0.03 -0.77 0.12 -0.77 0.95v 1.77c 0 0.83 0.16 0.92 0.77 0.95c 0.06 0.06 0.06 0.27 0 0.33c -0.4 -0.01 -0.8 -0.02 -1.11 -0.02c -0.22 0 -0.5 0.01 -0.6 0.02c -0.08 -0.18 -0.17 -0.39 -0.26 -0.56Z "/></symbol><symbol id="gD51468542432F864548926048E523B26" overflow="visible"><path d="M 0 0m 4.79 3.07c 0 0.83 0.11 0.86 0.72 0.91c 0.06 0.06 0.06 0.27 0 0.33c -0.35 -0.02 -0.79 -0.02 -1.12 -0.02c -0.28 0 -0.68 0.01 -1.07 0.02c -0.06 -0.06 -0.06 -0.27 0 -0.33c 0.61 -0.04 0.68 -0.08 0.68 -0.91v -0.65h -2.14v 0.65c 0 0.83 0.07 0.86 0.68 0.91c 0.06 0.06 0.06 0.27 0 0.33c -0.38 -0.01 -0.76 -0.02 -1.08 -0.02c -0.3 0 -0.71 0.01 -1.11 0.02c -0.06 -0.06 -0.06 -0.27 0 -0.33c 0.61 -0.04 0.72 -0.08 0.72 -0.91v -1.85c 0 -0.83 -0.11 -0.86 -0.72 -0.91c -0.06 -0.06 -0.06 -0.27 0 -0.33c 0.4 0.01 0.8 0.02 1.12 0.02c 0.32 0 0.71 -0.01 1.07 -0.02c 0.06 0.06 0.06 0.27 0 0.33c -0.61 0.04 -0.68 0.08 -0.68 0.91v 0.87h 2.14v -0.87c 0 -0.83 -0.07 -0.86 -0.68 -0.91c -0.06 -0.06 -0.06 -0.27 0 -0.33c 0.36 0.01 0.73 0.02 1.08 0.02c 0.3 0 0.72 -0.01 1.11 -0.02c 0.06 0.06 0.06 0.27 0 0.33c -0.61 0.04 -0.72 0.08 -0.72 0.91Z "/></symbol><symbol id="g8F03A4AE8D3B195D4882A1755C55580A" overflow="visible"><path d="M 0 0m 1.56 3.68c -0.01 0.3 -0.03 0.56 -0.08 0.66c -0.02 0.05 -0.04 0.08 -0.12 0.08c -0.28 -0.11 -0.54 -0.2 -1.23 -0.29c -0.02 -0.06 0 -0.22 0.02 -0.28c 0.54 -0.05 0.65 -0.1 0.65 -0.68v -4.27c 0 -0.83 -0.11 -0.88 -0.72 -0.91c -0.06 -0.06 -0.06 -0.27 0 -0.33c 0.35 0.01 0.72 0.02 1.12 0.02c 0.4 0 0.88 -0.01 1.21 -0.02c 0.06 0.06 0.06 0.27 0 0.33c -0.71 0.04 -0.82 0.08 -0.82 0.91v 1.08c 0 0.13 0.04 0.12 0.14 0.08c 0.25 -0.1 0.55 -0.16 0.87 -0.16c 0.56 0 1.06 0.17 1.47 0.56c 0.47 0.46 0.74 1.08 0.74 1.89c 0 1.06 -0.75 2.04 -1.77 2.04c -0.46 0 -0.97 -0.3 -1.37 -0.75c -0.06 -0.06 -0.1 -0.06 -0.11 0.04Z m 0.19 -0.37c 0.26 0.32 0.72 0.62 1.01 0.62c 0.64 0 1.19 -0.72 1.19 -1.85c 0 -0.82 -0.29 -1.84 -1.41 -1.84c -0.18 0 -0.53 0.05 -0.71 0.21c -0.2 0.18 -0.24 0.24 -0.24 0.6v 1.82c 0 0.21 0.04 0.3 0.16 0.44Z "/></symbol><symbol id="gF7E2F11D9500E34CEB199CAED225F368" overflow="visible"><path d="M 0 0m 1.82 1.22c 0 -0.83 -0.11 -0.88 -0.72 -0.91c -0.06 -0.06 -0.06 -0.27 0 -0.33c 0.39 0.01 0.79 0.02 1.12 0.02c 0.34 0 0.73 -0.01 1.11 -0.02c 0.06 0.06 0.06 0.27 0 0.33c -0.61 0.03 -0.72 0.08 -0.72 0.91v 2.7h 0.17c 0.81 0 0.97 -0.28 1.14 -1.09c 0.13 0 0.26 0.04 0.26 0.04c -0.06 0.46 -0.1 0.9 -0.11 1.48c -0.23 -0.02 -0.98 -0.06 -1.48 -0.06h -0.75c -0.5 0 -1.06 0.03 -1.46 0.06c -0.01 -0.58 -0.05 -1.02 -0.12 -1.48c 0 0 0.14 -0.04 0.27 -0.04c 0.17 0.81 0.32 1.09 1.14 1.09h 0.15Z "/></symbol><symbol id="gBA3E9C2E61A84E296B252679103E17C4" overflow="visible"><path d="M 0 0m 1.701 3.861c -0.297 0 -0.648 0.009 -0.918 0.018c -0.054 -0.054 -0.054 -0.243 0 -0.297c 0.549 -0.045 0.711 -0.081 0.675 -0.828c -0.036 -0.828 -0.18 -1.494 -0.333 -2.124c -0.054 -0.243 -0.315 -0.324 -0.567 -0.351c -0.135 -0.018 -0.261 -0.072 -0.27 -0.234l -0.054 -1.197c 0.063 -0.027 0.135 -0.036 0.243 -0.009c 0.081 0.333 0.324 1.161 1.134 1.161h 1.557c 0.801 0 1.062 -0.81 1.143 -1.17c 0.081 -0.018 0.162 -0.018 0.252 0.018l -0.054 1.206c 0 0.126 -0.072 0.198 -0.243 0.225c -0.162 0.027 -0.387 0.09 -0.387 0.423v 2.061c 0 0.738 0.117 0.783 0.612 0.819c 0.054 0.054 0.054 0.243 0 0.297c -0.27 -0.009 -0.612 -0.018 -0.972 -0.018Z m -0.252 -3.402c 0 0.153 0.243 0.747 0.378 2.808c 0.009 0.135 0.072 0.252 0.315 0.252h 0.621c 0.36 0 0.405 -0.252 0.405 -0.558v -2.169c 0 -0.297 -0.018 -0.441 -0.378 -0.441h -1.161c -0.099 0 -0.18 0.009 -0.18 0.108Z "/></symbol><symbol id="gB118266EF18AECCCCEF724ECE6F3D1D3" overflow="visible"><path d="M 0 0m 3.762 1.098v 1.665c 0 0.738 0.117 0.783 0.612 0.819c 0.054 0.054 0.054 0.243 0 0.297c -0.27 -0.009 -0.612 -0.018 -0.972 -0.018h -1.701c -0.297 0 -0.648 0.009 -0.918 0.018c -0.054 -0.054 -0.054 -0.243 0 -0.297c 0.639 -0.045 0.729 -0.099 0.729 -1.071c 0 -0.945 -0.072 -1.44 -0.198 -1.809c -0.117 -0.324 -0.27 -0.441 -0.423 -0.441c -0.117 0 -0.153 0.072 -0.171 0.189c -0.027 0.171 -0.081 0.342 -0.333 0.342c -0.225 0 -0.351 -0.18 -0.351 -0.378c 0 -0.279 0.252 -0.522 0.666 -0.522c 0.459 0 0.711 0.234 0.918 0.72c 0.18 0.432 0.234 1.35 0.234 1.962c 0 0.702 0.027 0.936 0.387 0.936h 0.405c 0.342 0 0.405 -0.216 0.405 -0.522v -1.89c 0 -0.738 -0.09 -0.783 -0.558 -0.819c -0.045 -0.054 -0.045 -0.243 0 -0.297c 0.225 0.009 0.558 0.018 0.918 0.018c 0.36 0 0.765 -0.009 1.017 -0.018c 0.045 0.054 0.045 0.243 0 0.297c -0.585 0.036 -0.666 0.081 -0.666 0.819Z "/></symbol><symbol id="g6EA5A1981697E2B5E95285C58F7F7AD0" overflow="visible"><path d="M 0 0m 1.782 0.567c -0.027 0 -0.063 0.018 -0.063 0.108v 2.052c 0 0.747 0.189 0.828 0.648 0.855c 0.054 0.054 0.054 0.243 0 0.297c -0.207 -0.009 -0.72 -0.018 -1.053 -0.018c -0.297 0 -0.657 0.009 -0.999 0.018c -0.054 -0.054 -0.054 -0.243 0 -0.297c 0.549 -0.027 0.693 -0.108 0.693 -0.855v -1.593c 0 -0.747 -0.144 -0.828 -0.693 -0.855c -0.054 -0.054 -0.054 -0.243 0 -0.297c 0.351 0.009 0.711 0.018 0.999 0.018c 0.207 0 0.45 -0.009 0.549 -0.018c 0.045 0.126 0.126 0.306 0.225 0.486l 1.404 2.817c 0.027 0 0.063 -0.018 0.063 -0.108v -2.043c 0 -0.747 -0.189 -0.828 -0.648 -0.855c -0.054 -0.054 -0.054 -0.243 0 -0.297c 0.207 0.009 0.693 0.018 1.053 0.018c 0.279 0 0.648 -0.009 0.999 -0.018c 0.054 0.054 0.054 0.243 0 0.297c -0.549 0.027 -0.693 0.108 -0.693 0.855v 1.593c 0 0.747 0.144 0.828 0.693 0.855c 0.054 0.054 0.054 0.243 0 0.297c -0.36 -0.009 -0.72 -0.018 -0.999 -0.018c -0.198 0 -0.45 0.009 -0.54 0.018c -0.072 -0.162 -0.153 -0.351 -0.234 -0.504Z "/></symbol><symbol id="g5F2B105DCE44482CD07DFE0B4651B637" overflow="visible"><path d="M 0 0m 4.311 2.763c 0 0.747 0.099 0.774 0.648 0.819c 0.054 0.054 0.054 0.243 0 0.297c -0.315 -0.018 -0.711 -0.018 -1.008 -0.018c -0.252 0 -0.612 0.009 -0.963 0.018c -0.054 -0.054 -0.054 -0.243 0 -0.297c 0.549 -0.036 0.612 -0.072 0.612 -0.819v -0.585h -1.926v 0.585c 0 0.747 0.063 0.774 0.612 0.819c 0.054 0.054 0.054 0.243 0 0.297c -0.342 -0.009 -0.684 -0.018 -0.972 -0.018c -0.27 0 -0.639 0.009 -0.999 0.018c -0.054 -0.054 -0.054 -0.243 0 -0.297c 0.549 -0.036 0.648 -0.072 0.648 -0.819v -1.665c 0 -0.747 -0.099 -0.774 -0.648 -0.819c -0.054 -0.054 -0.054 -0.243 0 -0.297c 0.36 0.009 0.72 0.018 1.008 0.018c 0.288 0 0.639 -0.009 0.963 -0.018c 0.054 0.054 0.054 0.243 0 0.297c -0.549 0.036 -0.612 0.072 -0.612 0.819v 0.783h 1.926v -0.783c 0 -0.747 -0.063 -0.774 -0.612 -0.819c -0.054 -0.054 -0.054 -0.243 0 -0.297c 0.324 0.009 0.657 0.018 0.972 0.018c 0.27 0 0.648 -0.009 0.999 -0.018c 0.054 0.054 0.054 0.243 0 0.297c -0.549 0.036 -0.648 0.072 -0.648 0.819Z "/></symbol><symbol id="gF7AD5B3248F8366898BA115B8D318C4E" overflow="visible"><path d="M 0 0m 2.637 0.432c 0.054 -0.279 0.153 -0.522 0.603 -0.522c 0.342 0 0.666 0.153 0.855 0.333c -0.018 0.108 -0.054 0.189 -0.153 0.243c -0.063 -0.054 -0.216 -0.144 -0.333 -0.144c -0.261 0 -0.27 0.351 -0.27 0.765v 1.323c 0 1.278 -0.702 1.521 -1.359 1.521c -0.738 0 -1.485 -0.486 -1.485 -0.999c 0 -0.216 0.108 -0.324 0.315 -0.324c 0.261 0 0.423 0.189 0.423 0.306c 0 0.063 -0.009 0.126 -0.027 0.162c -0.009 0.027 -0.018 0.081 -0.018 0.18c 0 0.279 0.378 0.378 0.72 0.378c 0.306 0 0.729 -0.153 0.729 -1.17c 0 -0.063 -0.027 -0.099 -0.054 -0.108l -0.774 -0.189c -0.864 -0.216 -1.485 -0.693 -1.485 -1.305c 0 -0.738 0.504 -0.972 1.134 -0.972c 0.315 0 0.585 0.072 0.981 0.378l 0.18 0.144Z m 0 1.665v -1.188c 0 -0.117 -0.054 -0.18 -0.126 -0.234c -0.234 -0.189 -0.54 -0.396 -0.792 -0.396c -0.45 0 -0.648 0.36 -0.648 0.639c 0 0.405 0.189 0.819 0.855 0.99Z "/></symbol><symbol id="g4CD60CD22DA0AE2B10685E0D2E1A6FCC" overflow="visible"><path d="M 0 0m 2.772 2.268l 1.107 1.107l -0.315 0.315l -1.098 -1.107l -1.098 1.107l -0.324 -0.315l 1.107 -1.107l -1.107 -1.098l 0.324 -0.315l 1.098 1.098l 1.098 -1.098l 0.315 0.315Z "/></symbol><symbol id="gD11A58C3A3B421C2056FF05E75045811" overflow="visible"><path d="M 0 0m 3.87 1.971h -0.747v 2.628c 0 0.45 0 0.801 0.018 0.873l -0.018 0.018h -0.288c -0.063 0 -0.108 -0.054 -0.144 -0.099c -0.567 -0.693 -1.611 -2.178 -2.439 -3.465c 0.027 -0.135 0.081 -0.378 0.351 -0.378h 1.836v -0.828c 0 -0.414 -0.342 -0.414 -0.729 -0.441c -0.054 -0.054 -0.054 -0.243 0 -0.297c 0.288 0.009 0.648 0.018 1.062 0.018c 0.351 0 0.693 -0.009 0.981 -0.018c 0.054 0.054 0.054 0.243 0 0.297c -0.441 0.036 -0.63 0.018 -0.63 0.441v 0.828h 0.621c 0.126 0 0.261 0.171 0.261 0.279c 0 0.09 -0.036 0.144 -0.135 0.144Z m -1.431 2.592v -2.592h -1.719c 0.459 0.738 1.098 1.746 1.719 2.592Z "/></symbol><symbol id="g58FE41588FF370B2D963AE7490CB53AD" overflow="visible"><path d="M 0 0m 4.18 1.22v 1.85c 0 0.82 0.13 0.87 0.68 0.91c 0.06 0.06 0.06 0.27 0 0.33c -0.3 -0.01 -0.68 -0.02 -1.08 -0.02h -1.89c -0.33 0 -0.72 0.01 -1.02 0.02c -0.06 -0.06 -0.06 -0.27 0 -0.33c 0.71 -0.05 0.81 -0.11 0.81 -1.19c 0 -1.05 -0.08 -1.6 -0.22 -2.01c -0.13 -0.36 -0.3 -0.49 -0.47 -0.49c -0.13 0 -0.17 0.08 -0.19 0.21c -0.03 0.19 -0.09 0.38 -0.37 0.38c -0.25 0 -0.39 -0.2 -0.39 -0.42c 0 -0.31 0.28 -0.58 0.74 -0.58c 0.51 0 0.79 0.26 1.02 0.8c 0.2 0.48 0.26 1.5 0.26 2.18c 0 0.78 0.03 1.04 0.43 1.04h 0.45c 0.38 0 0.45 -0.24 0.45 -0.58v -2.1c 0 -0.82 -0.1 -0.87 -0.62 -0.91c -0.05 -0.06 -0.05 -0.27 0 -0.33c 0.25 0.01 0.62 0.02 1.02 0.02c 0.4 0 0.85 -0.01 1.13 -0.02c 0.05 0.06 0.05 0.27 0 0.33c -0.65 0.04 -0.74 0.09 -0.74 0.91Z "/></symbol><symbol id="g9FDA399337BA5CEE43DE6885B462BE24" overflow="visible"><path d="M 0 0m 4.3 2.19h -0.83v 2.92c 0 0.5 0 0.89 0.02 0.97l -0.02 0.02h -0.32c -0.07 0 -0.12 -0.06 -0.16 -0.11c -0.63 -0.77 -1.79 -2.42 -2.71 -3.85c 0.03 -0.15 0.09 -0.42 0.39 -0.42h 2.04v -0.92c 0 -0.46 -0.38 -0.46 -0.81 -0.49c -0.06 -0.06 -0.06 -0.27 0 -0.33c 0.32 0.01 0.72 0.02 1.18 0.02c 0.39 0 0.77 -0.01 1.09 -0.02c 0.06 0.06 0.06 0.27 0 0.33c -0.49 0.04 -0.7 0.02 -0.7 0.49v 0.92h 0.69c 0.14 0 0.29 0.19 0.29 0.31c 0 0.1 -0.04 0.16 -0.15 0.16Z m -1.59 2.88v -2.88h -1.91c 0.51 0.82 1.22 1.94 1.91 2.88Z "/></symbol><symbol id="g4BC4EAB79DF3D72C4200BD5978278472" overflow="visible"><path d="M 0 0m 8.56 0.82c 0.86 0.97 1.67 1.53 2.16 1.7v 0.23c -1.08 0.44 -2.16 1.72 -2.16 1.73h -0.4c 0.39 -0.84 0.8 -1.3 1.13 -1.57h -8.7v -0.52h 8.7c -0.32 -0.31 -0.81 -0.85 -1.11 -1.57Z "/></symbol><symbol id="gAB8B9E265B3CCA4072A334611102AFDC" overflow="visible"><path d="M 0 0m 4.37 4.29h -2.84c -0.4 0 -0.78 0.01 -1.08 0.02c -0.06 -0.06 -0.06 -0.27 0 -0.33c 0.55 -0.04 0.68 -0.09 0.68 -0.91v -1.85c 0 -0.82 -0.13 -0.87 -0.78 -0.91c -0.06 -0.06 -0.06 -0.27 0 -0.33c 0.3 0.01 0.78 0.02 1.18 0.02c 0.4 0 0.7 -0.01 1 -0.02c 0.06 0.06 0.06 0.27 0 0.33c -0.51 0.05 -0.61 0.09 -0.61 0.91v 2.17c 0 0.31 0.03 0.51 0.42 0.51h 1.21c 0.37 0 0.43 -0.11 0.43 -0.51v -2.17c 0 -0.82 -0.1 -0.87 -0.62 -0.91c -0.05 -0.06 -0.05 -0.27 0 -0.33c 0.25 0.01 0.62 0.02 1.02 0.02c 0.4 0 0.85 -0.01 1.13 -0.02c 0.05 0.06 0.05 0.27 0 0.33c -0.65 0.04 -0.74 0.09 -0.74 0.91v 1.85c 0 0.82 0.13 0.87 0.68 0.91c 0.06 0.06 0.06 0.27 0 0.33c -0.3 -0.01 -0.68 -0.02 -1.08 -0.02Z "/></symbol><symbol id="g8C4BCE4FF39E54C5E232A1A0A3B7612A" overflow="visible"><path d="M 0 0m 3.86 0.93c -0.37 -0.38 -0.66 -0.54 -1.24 -0.54c -0.36 0 -0.78 0.21 -1.09 0.72c -0.2 0.33 -0.32 0.79 -0.32 1.37l 2.66 -0.02c 0.12 0 0.19 0.06 0.19 0.17c 0 0.84 -0.3 1.74 -1.69 1.74c -0.87 0 -2 -0.83 -2 -2.35c 0 -0.56 0.14 -1.1 0.47 -1.48c 0.34 -0.4 0.81 -0.64 1.53 -0.64c 0.76 0 1.3 0.35 1.7 0.87c -0.03 0.1 -0.09 0.15 -0.21 0.16Z m -2.62 1.89c 0.19 1.13 0.89 1.22 1.13 1.22c 0.38 0 0.83 -0.21 0.83 -1.05c 0 -0.09 -0.04 -0.14 -0.15 -0.14Z "/></symbol></defs></svg>