<svg viewBox="0 0 247.295322835 62.449507874" width="247.295322835pt" height="62.449507874pt" xmlns="http://www.w3.org/2000/svg" xmlns:xlink="http://www.w3.org/1999/xlink" xmlns:h5="http://www.w3.org/1999/xhtml"><path fill="#ffffff" fill-rule="nonzero" d="M 0 0v 62.449507874h 247.295322835v -62.449507874Z "/><g transform="translate(8 8)"><path fill="#9d9f8f" fill-rule="nonzero" stroke="#1a1a18" stroke-width="0.6" stroke-linecap="butt" stroke-linejoin="miter" stroke-miterlimit="4" d="M 0 0m 15.590551181 0c -8.602616693 0 -15.590551181 6.987934488 -15.590551181 15.590551181c 0 8.602616693 6.987934488 15.590551181 15.590551181 15.590551181c 8.602616693 0 15.590551181 -6.987934488 15.590551181 -15.590551181c 0 -8.602616693 -6.987934488 -15.590551181 -15.590551181 -15.590551181Z "/><path fill="none" transform="translate(0.868051181 7.340551181)" d="M 0 0h 29.445v 16.5h -29.445v -16.5Z "/><g transform="translate(0.868051134 7.340551087)"><g transform="matrix(1 0 0 -1 0 4.935)"><use xlink:href="#g9FFCC18D170BB6C28C600E5B5ACB7B09" x="0" y="0" fill="#ffffff" fill-rule="nonzero"/><use xlink:href="#g9DFB8CAEC5B458B41F3893F12F8EC954" x="5.1" y="0" fill="#ffffff" fill-rule="nonzero"/><use xlink:href="#gC597D586C3D65B86B3D3351D5EC36C5C" x="8.88" y="0" fill="#ffffff" fill-rule="nonzero"/><use xlink:href="#g24A3F0AF4AD0375F71DE4AF9BEABB01F" x="12.7725" y="0" fill="#ffffff" fill-rule="nonzero"/><use xlink:href="#g7B6E1CB6926B0D89434DDB00C857E76D" x="15.9825" y="0" fill="#ffffff" fill-rule="nonzero"/><use xlink:href="#gFF794F08E96A5B8C53E798F025ED07F6" x="19.7475" y="0" fill="#ffffff" fill-rule="nonzero"/><use xlink:href="#g86819BE7115F3729C1E76AE930029E69" x="23.175" y="0" fill="#ffffff" fill-rule="nonzero"/></g><g transform="matrix(1 0 0 -1 0 14.745)"><use xlink:href="#g29087D3E44996A2952509944E3ADDF13" x="0" y="0" fill="#ffffff" fill-rule="nonzero"/><use xlink:href="#gFF794F08E96A5B8C53E798F025ED07F6" x="3.6675" y="0" fill="#ffffff" fill-rule="nonzero"/><use xlink:href="#g7B6E1CB6926B0D89434DDB00C857E76D" x="7.095" y="0" fill="#ffffff" fill-rule="nonzero"/><use xlink:href="#gEEA2F4BC857577D5A54B2015EAE5E394" x="10.86" y="0" fill="#ffffff" fill-rule="nonzero"/><use xlink:href="#g3036A15D0A2AECE5F3220ADA73EBBEB6" x="14.1975" y="0" fill="#ffffff" fill-rule="nonzero"/><use xlink:href="#gC597D586C3D65B86B3D3351D5EC36C5C" x="17.55" y="0" fill="#ffffff" fill-rule="nonzero"/><use xlink:href="#gD7561D22518914316F6BE22AAAA2B6AA" x="21.4425" y="0" fill="#ffffff" fill-rule="nonzero"/><use xlink:href="#g86819BE7115F3729C1E76AE930029E69" x="25.8375" y="0" fill="#ffffff" fill-rule="nonzero"/></g></g><path fill="none" transform="translate(2.510551181 37.757362205)" d="M 0 0h 26.16v 6.69h -26.16v -6.69Z "/><g transform="translate(2.510551134 37.75736211)"><g transform="matrix(1 0 0 -1 0 4.935)"><use xlink:href="#g9BD8815497ACE2CCB2ADDC08AAA56E57" x="0" y="0" fill="#7c7f6a" fill-rule="nonzero"/><use xlink:href="#gFF794F08E96A5B8C53E798F025ED07F6" x="4.395" y="0" fill="#7c7f6a" fill-rule="nonzero"/><use xlink:href="#g9BD8815497ACE2CCB2ADDC08AAA56E57" x="9.6975" y="0" fill="#7c7f6a" fill-rule="nonzero"/><use xlink:href="#g9DFB8CAEC5B458B41F3893F12F8EC954" x="14.0925" y="0" fill="#7c7f6a" fill-rule="nonzero"/><use xlink:href="#gC597D586C3D65B86B3D3351D5EC36C5C" x="17.8725" y="0" fill="#7c7f6a" fill-rule="nonzero"/><use xlink:href="#gD7561D22518914316F6BE22AAAA2B6AA" x="21.765" y="0" fill="#7c7f6a" fill-rule="nonzero"/></g></g><path fill="#c9a24b" fill-rule="nonzero" stroke="#1a1a18" stroke-width="0.6" stroke-linecap="butt" stroke-linejoin="miter" stroke-miterlimit="4" transform="translate(11.905511811 11.905511811)" d="M 0 0m 3.68503937 0c -2.033345764 0 -3.68503937 1.651693606 -3.68503937 3.68503937c 0 2.033345764 1.651693606 3.68503937 3.68503937 3.68503937c 2.033345764 0 3.68503937 -1.651693606 3.68503937 -3.68503937c 0 -2.033345764 -1.651693606 -3.68503937 -3.68503937 -3.68503937Z "/><path fill="none" stroke="#1a1a18" stroke-width="1" stroke-linecap="butt" stroke-linejoin="miter" stroke-miterlimit="4" transform="translate(34.015748031 18.42519685)" d="M 0 0h 59.520881266"/><path fill="#1a1a18" fill-rule="nonzero" stroke="#1a1a18" stroke-width="1" stroke-linecap="butt" stroke-linejoin="miter" stroke-miterlimit="4" transform="translate(93.536629228 16.299212598)" d="M 0 0m 5.669291339 2.125984252l -5.669291339 2.125984252v -4.251968504l 5.669291339 2.125984252Z "/><path fill="none" transform="translate(43.922173228 4.935937008)" d="M 0 0h 45.384v 7.136h -45.384v -7.136Z "/><g transform="translate(43.922173181 4.935936898)"><g transform="matrix(1 0 0 -1 0 5.264)"><use xlink:href="#gF859B786D36C3A3EB6E93A57BC4F802" x="0" y="0" fill="#7c7f6a" fill-rule="nonzero"/><use xlink:href="#g465CA45D0696F5BBCE5E7A11B5E63D98" x="4.688" y="0" fill="#7c7f6a" fill-rule="nonzero"/><use xlink:href="#g46DFAA35BC521B4F2378CE697B4B163E" x="8.264" y="0" fill="#7c7f6a" fill-rule="nonzero"/><use xlink:href="#g465CA45D0696F5BBCE5E7A11B5E63D98" x="12.416" y="0" fill="#7c7f6a" fill-rule="nonzero"/><use xlink:href="#g937124D7F3D66536776BB8DA5DFD7893" x="15.992" y="0" fill="#7c7f6a" fill-rule="nonzero"/><use xlink:href="#g5D01DA3AB390CB78D7E54204B7DC3F87" x="20.68" y="0" fill="#7c7f6a" fill-rule="nonzero"/><use xlink:href="#g9F99202881449AD6C0CCCD21824C9AF1" x="24.712" y="0" fill="#7c7f6a" fill-rule="nonzero"/><use xlink:href="#g3478CFDC408E67C5C7551BD6A62D2425" x="30.136" y="0" fill="#7c7f6a" fill-rule="nonzero"/><use xlink:href="#g465CA45D0696F5BBCE5E7A11B5E63D98" x="33.464" y="0" fill="#7c7f6a" fill-rule="nonzero"/><use xlink:href="#g937124D7F3D66536776BB8DA5DFD7893" x="37.04" y="0" fill="#7c7f6a" fill-rule="nonzero"/><use xlink:href="#gF79D9CC171E1ACC5162F855F1894F43E" x="41.728" y="0" fill="#7c7f6a" fill-rule="nonzero"/></g></g><path fill="#c9a24b" fill-rule="nonzero" stroke="#1a1a18" stroke-width="0.6" stroke-linecap="butt" stroke-linejoin="miter" stroke-miterlimit="4" transform="translate(63.779527559 15.590551181)" d="M 0 0m 2.834645669 0c -1.564112126 0 -2.834645669 1.270533543 -2.834645669 2.834645669c 0 1.564112126 1.270533543 2.834645669 2.834645669 2.834645669c 1.564112126 0 2.834645669 -1.270533543 2.834645669 -2.834645669c 0 -1.564112126 -1.270533543 -2.834645669 -2.834645669 -2.834645669Z "/><path fill="#958f81" fill-rule="nonzero" stroke="#1a1a18" stroke-width="0.6" stroke-linecap="butt" stroke-linejoin="miter" stroke-miterlimit="4" transform="translate(111.968503937 1.417322835)" d="M 0 0m 17.007874016 0c -9.384672756 0 -17.007874016 7.62320126 -17.007874016 17.007874016c 0 9.384672756 7.62320126 17.007874016 17.007874016 17.007874016c 9.384672756 0 17.007874016 -7.62320126 17.007874016 -17.007874016c 0 -9.384672756 -7.62320126 -17.007874016 -17.007874016 -17.007874016Z "/><path fill="none" transform="translate(112.463377953 10.72519685)" d="M 0 0h 33.026v 15.4h -33.026v -15.4Z "/><g transform="translate(112.463377937 10.725196819)"><g transform="matrix(1 0 0 -1 0 4.606)"><use xlink:href="#g5FDCEB127327F5367D632439101BB95C" x="0" y="0" fill="#ffffff" fill-rule="nonzero"/><use xlink:href="#g7F53C732E919D004D6F103F0B6654A5" x="4.116" y="0" fill="#ffffff" fill-rule="nonzero"/><use xlink:href="#gFB891BE0A6F67F5DCF46E294A74CDFE3" x="7.315" y="0" fill="#ffffff" fill-rule="nonzero"/><use xlink:href="#gABB9F1B4C6313DD44D3DD6524A14736D" x="10.311" y="0" fill="#ffffff" fill-rule="nonzero"/><use xlink:href="#gA7BF18C335220D5E7117B3A9324A7487" x="12.523" y="0" fill="#ffffff" fill-rule="nonzero"/><use xlink:href="#gEED51DA56EC6F651CDEA9C1904670910" x="15.652" y="0" fill="#ffffff" fill-rule="nonzero"/><use xlink:href="#g15DA33CDDA977652EC4FAB62F28BD18E" x="18.2" y="0" fill="#ffffff" fill-rule="nonzero"/><use xlink:href="#g95109BF97F5D69311623DCB01E17B5" x="21.728" y="0" fill="#ffffff" fill-rule="nonzero"/><use xlink:href="#g3AB780C36179048EC76D019079FF43A1" x="23.625" y="0" fill="#ffffff" fill-rule="nonzero"/><use xlink:href="#gA7BF18C335220D5E7117B3A9324A7487" x="27.167" y="0" fill="#ffffff" fill-rule="nonzero"/><use xlink:href="#gE526F6D2B84A63AE0DCACF8701BCF7C4" x="30.296" y="0" fill="#ffffff" fill-rule="nonzero"/></g><g transform="matrix(1 0 0 -1 0 13.762)"><use xlink:href="#g2A00D5AD23258A592B8B29234C197A30" x="0" y="0" fill="#ffffff" fill-rule="nonzero"/><use xlink:href="#g9D9F00457DD473BEA9AD32B9D633655D" x="3.633" y="0" fill="#ffffff" fill-rule="nonzero"/><use xlink:href="#gA7BF18C335220D5E7117B3A9324A7487" x="5.481" y="0" fill="#ffffff" fill-rule="nonzero"/><use xlink:href="#g63BA0D4B783D3976C10CC4CBE65795B6" x="8.61" y="0" fill="#ffffff" fill-rule="nonzero"/><use xlink:href="#gA7BF18C335220D5E7117B3A9324A7487" x="12.131" y="0" fill="#ffffff" fill-rule="nonzero"/><use xlink:href="#g95109BF97F5D69311623DCB01E17B5" x="15.26" y="0" fill="#ffffff" fill-rule="nonzero"/><use xlink:href="#gF03346E6A3FFD945A12950F24C79EA53" x="17.157" y="0" fill="#ffffff" fill-rule="nonzero"/><use xlink:href="#gE526F6D2B84A63AE0DCACF8701BCF7C4" x="20.874" y="0" fill="#ffffff" fill-rule="nonzero"/></g></g><path fill="#c9a24b" fill-rule="nonzero" stroke="#1a1a18" stroke-width="0.6" stroke-linecap="butt" stroke-linejoin="miter" stroke-miterlimit="4" transform="translate(125.291338583 14.74015748)" d="M 0 0m 3.68503937 0c -2.033345764 0 -3.68503937 1.651693606 -3.68503937 3.68503937c 0 2.033345764 1.651693606 3.68503937 3.68503937 3.68503937c 2.033345764 0 3.68503937 -1.651693606 3.68503937 -3.68503937c 0 -2.033345764 -1.651693606 -3.68503937 -3.68503937 -3.68503937Z "/><path fill="none" transform="translate(91.757627953 41.424507874)" d="M 0 0h 74.4375v 5.025h -74.4375v -5.025Z "/><g transform="translate(91.757627858 41.42450778)"><g transform="matrix(1 0 0 -1 0 4.935)"><use xlink:href="#g16EB0E76256A1564D6F72B0EC768AD0D" x="0" y="0" fill="#1a1a18" fill-rule="nonzero"/><use xlink:href="#g7B6E1CB6926B0D89434DDB00C857E76D" x="5.4675" y="0" fill="#1a1a18" fill-rule="nonzero"/><use xlink:href="#gD7561D22518914316F6BE22AAAA2B6AA" x="9.2325" y="0" fill="#1a1a18" fill-rule="nonzero"/><use xlink:href="#g34F684D2788A1EFD489841EBF0BF1F0C" x="13.6275" y="0" fill="#1a1a18" fill-rule="nonzero"/><use xlink:href="#g3036A15D0A2AECE5F3220ADA73EBBEB6" x="19.995" y="0" fill="#1a1a18" fill-rule="nonzero"/><use xlink:href="#g88DF289CB0ABE82F4BDD978B7C9B130C" x="23.3475" y="0" fill="#1a1a18" fill-rule="nonzero"/><use xlink:href="#g9BD8815497ACE2CCB2ADDC08AAA56E57" x="27.39" y="0" fill="#1a1a18" fill-rule="nonzero"/><use xlink:href="#gD7561D22518914316F6BE22AAAA2B6AA" x="31.785" y="0" fill="#1a1a18" fill-rule="nonzero"/><use xlink:href="#g7B6E1CB6926B0D89434DDB00C857E76D" x="36.18" y="0" fill="#1a1a18" fill-rule="nonzero"/><use xlink:href="#g3036A15D0A2AECE5F3220ADA73EBBEB6" x="39.945" y="0" fill="#1a1a18" fill-rule="nonzero"/><use xlink:href="#g88DF289CB0ABE82F4BDD978B7C9B130C" x="45.1725" y="0" fill="#1a1a18" fill-rule="nonzero"/><use xlink:href="#g3036A15D0A2AECE5F3220ADA73EBBEB6" x="49.215" y="0" fill="#1a1a18" fill-rule="nonzero"/><use xlink:href="#gEA97EC147860E78008C33EAABF207A32" x="52.5675" y="0" fill="#1a1a18" fill-rule="nonzero"/><use xlink:href="#g9DFB8CAEC5B458B41F3893F12F8EC954" x="56.52" y="0" fill="#1a1a18" fill-rule="nonzero"/><use xlink:href="#g16EB0E76256A1564D6F72B0EC768AD0D" x="60.3" y="0" fill="#1a1a18" fill-rule="nonzero"/><use xlink:href="#g3036A15D0A2AECE5F3220ADA73EBBEB6" x="63.8925" y="0" fill="#1a1a18" fill-rule="nonzero"/><use xlink:href="#g7B6E1CB6926B0D89434DDB00C857E76D" x="67.245" y="0" fill="#1a1a18" fill-rule="nonzero"/><use xlink:href="#gFF794F08E96A5B8C53E798F025ED07F6" x="71.01" y="0" fill="#1a1a18" fill-rule="nonzero"/></g></g><path fill="none" stroke="#1a1a18" stroke-width="0.6" stroke-linecap="butt" stroke-linejoin="miter" stroke-miterlimit="4" transform="translate(148.818897638 18.42519685)" d="M 0 0h 21.82276498"/><path fill="#1a1a18" fill-rule="nonzero" stroke="#1a1a18" stroke-width="0.6" stroke-linecap="butt" stroke-linejoin="miter" stroke-miterlimit="4" transform="translate(170.64166252 16.299212598)" d="M 0 0m 5.669291339 2.125984252l -5.669291339 2.125984252v -4.251968504l 5.669291339 2.125984252Z "/><path fill="none" transform="translate(181.417322835 9.07519685)" d="M 0 0h 49.878v 18.7h -49.878v -18.7Z "/><g transform="translate(181.417322693 9.075196772)"><g transform="matrix(1 0 0 -1 0 5.593)"><use xlink:href="#gBEE50160BCD570B38DEF46393A725EED" x="0" y="0" fill="#1a1a18" fill-rule="nonzero"/><use xlink:href="#g5D2E58E4CDB4D7E6C81847885E22D756" x="4.981" y="0" fill="#1a1a18" fill-rule="nonzero"/><use xlink:href="#g430571653545A60A3EF6386D136EADA3" x="8.7805" y="0" fill="#1a1a18" fill-rule="nonzero"/><use xlink:href="#g5D2E58E4CDB4D7E6C81847885E22D756" x="13.192" y="0" fill="#1a1a18" fill-rule="nonzero"/><use xlink:href="#g3D9A67B9902CBFFCF1182D85B33DBA41" x="16.9915" y="0" fill="#1a1a18" fill-rule="nonzero"/><use xlink:href="#gF931FC691828778A920607CF18B9C32A" x="21.063" y="0" fill="#1a1a18" fill-rule="nonzero"/><use xlink:href="#g430571653545A60A3EF6386D136EADA3" x="24.9475" y="0" fill="#1a1a18" fill-rule="nonzero"/><use xlink:href="#gE7AE90A8EDDEF3DDB67EE78D36D80337" x="29.359" y="0" fill="#1a1a18" fill-rule="nonzero"/><use xlink:href="#g3D9A67B9902CBFFCF1182D85B33DBA41" x="34.34" y="0" fill="#1a1a18" fill-rule="nonzero"/><use xlink:href="#gF931FC691828778A920607CF18B9C32A" x="38.4115" y="0" fill="#1a1a18" fill-rule="nonzero"/><use xlink:href="#g5D2E58E4CDB4D7E6C81847885E22D756" x="42.296" y="0" fill="#1a1a18" fill-rule="nonzero"/><use xlink:href="#g3EDD64AE7B5A40E8FE9DD75D51E8EE8A" x="46.0955" y="0" fill="#1a1a18" fill-rule="nonzero"/></g><g transform="matrix(1 0 0 -1 0 16.711)"><use xlink:href="#gBEE50160BCD570B38DEF46393A725EED" x="0" y="0" fill="#1a1a18" fill-rule="nonzero"/><use xlink:href="#gE34E15A46C94CBC2E6ABE8844A1DDB21" x="4.981" y="0" fill="#1a1a18" fill-rule="nonzero"/><use xlink:href="#g430571653545A60A3EF6386D136EADA3" x="9.265" y="0" fill="#1a1a18" fill-rule="nonzero"/><use xlink:href="#g8C1172E200F7C8B0584A0B9E041FADA3" x="13.6765" y="0" fill="#1a1a18" fill-rule="nonzero"/><use xlink:href="#gE7AE90A8EDDEF3DDB67EE78D36D80337" x="19.261" y="0" fill="#1a1a18" fill-rule="nonzero"/><use xlink:href="#g430571653545A60A3EF6386D136EADA3" x="24.242" y="0" fill="#1a1a18" fill-rule="nonzero"/><use xlink:href="#gF931FC691828778A920607CF18B9C32A" x="28.6535" y="0" fill="#1a1a18" fill-rule="nonzero"/><use xlink:href="#gC8932C6BA7F518DC74E87E2F4A0224EB" x="32.538" y="0" fill="#1a1a18" fill-rule="nonzero"/></g></g></g><defs><symbol id="g9FFCC18D170BB6C28C600E5B5ACB7B09" overflow="visible"><path d="M 0 0m 0.8775 2.295l -0.045 -1.395c -0.0225 -0.63 -0.135 -0.645 -0.57 -0.6675c -0.045 -0.045 -0.045 -0.2025 0 -0.2475c 0.15 0.0075 0.525 0.015 0.645 0.015c 0.15 0 0.5025 -0.0075 0.6525 -0.015c 0.045 0.045 0.045 0.2025 0 0.2475c -0.4275 0.03 -0.4575 0.105 -0.4425 0.6675l 0.0525 1.8375c 0 0.0675 0.03 0.0675 0.06 0l 1.0875 -2.655c 0.03 -0.0225 0.06 -0.0225 0.0825 0l 1.23 2.6475c 0.0375 0.0825 0.075 0.09 0.075 0l -0.0075 -1.815c 0 -0.6225 -0.0525 -0.645 -0.51 -0.6825c -0.045 -0.045 -0.045 -0.2025 0 -0.2475c 0.27 0.0075 0.5475 0.015 0.81 0.015c 0.225 0 0.5475 -0.0075 0.84 -0.015c 0.045 0.045 0.045 0.2025 0 0.2475c -0.4575 0.03 -0.54 0.06 -0.54 0.6825l -0.015 1.3875c -0.0075 0.6225 0.0825 0.645 0.54 0.6825c 0.045 0.045 0.045 0.2025 0 0.2475c -0.2625 -0.015 -0.99 -0.015 -1.2375 -0.015l -0.9975 -2.145l -0.0375 -0.075l -0.03 0.075l -0.8775 2.145c -0.2475 0 -1.0425 0 -1.305 0.015c -0.045 -0.045 -0.045 -0.2025 0 -0.2475c 0.4575 -0.0375 0.5625 -0.0675 0.54 -0.69Z "/></symbol><symbol id="g9DFB8CAEC5B458B41F3893F12F8EC954" overflow="visible"><path d="M 0 0m 0.3075 1.5375c 0 -0.765 0.51 -1.6125 1.575 -1.6125c 0.48 0 0.8475 0.1725 1.1025 0.42c 0.3375 0.33 0.4875 0.8025 0.4875 1.26c 0 0.78 -0.4275 1.6875 -1.575 1.6875c -0.495 0 -0.9 -0.2025 -1.1775 -0.525c -0.27 -0.3225 -0.4125 -0.7575 -0.4125 -1.23Z m 1.4775 1.4925c 0.645 0 1.0425 -0.585 1.0425 -1.665c 0 -0.945 -0.4875 -1.1775 -0.84 -1.1775c -0.78 0 -1.035 0.945 -1.035 1.5225c 0 0.6525 0.1575 1.32 0.8325 1.32Z "/></symbol><symbol id="gC597D586C3D65B86B3D3351D5EC36C5C" overflow="visible"><path d="M 0 0m 1.17 2.76c -0.0075 0.225 -0.0225 0.42 -0.06 0.495c -0.015 0.0375 -0.03 0.06 -0.09 0.06c -0.21 -0.0825 -0.405 -0.15 -0.9225 -0.2175c -0.015 -0.045 0 -0.165 0.015 -0.21c 0.405 -0.0375 0.4875 -0.075 0.4875 -0.51v -3.2025c 0 -0.6225 -0.0825 -0.66 -0.54 -0.6825c -0.045 -0.045 -0.045 -0.2025 0 -0.2475c 0.2625 0.0075 0.54 0.015 0.84 0.015c 0.3 0 0.66 -0.0075 0.9075 -0.015c 0.045 0.045 0.045 0.2025 0 0.2475c -0.5325 0.03 -0.615 0.06 -0.615 0.6825v 0.81c 0 0.0975 0.03 0.09 0.105 0.06c 0.1875 -0.075 0.4125 -0.12 0.6525 -0.12c 0.42 0 0.795 0.1275 1.1025 0.42c 0.3525 0.345 0.555 0.81 0.555 1.4175c 0 0.795 -0.5625 1.53 -1.3275 1.53c -0.345 0 -0.7275 -0.225 -1.0275 -0.5625c -0.045 -0.045 -0.075 -0.045 -0.0825 0.03Z m 0.1425 -0.2775c 0.195 0.24 0.54 0.465 0.7575 0.465c 0.48 0 0.8925 -0.54 0.8925 -1.3875c 0 -0.615 -0.2175 -1.38 -1.0575 -1.38c -0.135 0 -0.3975 0.0375 -0.5325 0.1575c -0.15 0.135 -0.18 0.18 -0.18 0.45v 1.365c 0 0.1575 0.03 0.225 0.12 0.33Z "/></symbol><symbol id="g24A3F0AF4AD0375F71DE4AF9BEABB01F" overflow="visible"><path d="M 0 0m 2.985 0.6825c -0.03 0.0675 -0.09 0.0975 -0.1575 0.105c -0.255 -0.33 -0.5775 -0.495 -0.9 -0.495c -0.5475 0 -1.005 0.555 -1.005 1.4325c 0 0.825 0.36 1.32 0.855 1.32c 0.4425 0 0.5025 -0.2625 0.5325 -0.525c 0.0225 -0.2025 0.1275 -0.27 0.285 -0.27c 0.1575 0 0.3675 0.0975 0.3675 0.33c 0 0.4125 -0.4275 0.7125 -1.1475 0.7125c -0.7425 0 -1.5375 -0.6675 -1.5375 -1.7325c 0 -0.9675 0.54 -1.635 1.485 -1.635c 0.45 0 0.8475 0.1425 1.2225 0.7575Z "/></symbol><symbol id="g7B6E1CB6926B0D89434DDB00C857E76D" overflow="visible"><path d="M 0 0m 2.895 0c 0 0 0.585 -0.0075 0.735 -0.015c 0.045 0.045 0.045 0.2025 0 0.2475c -0.2925 0.015 -0.3525 0.075 -0.48 0.315l -0.3375 0.6375c -0.1875 0.3525 -0.45 0.5325 -0.8775 0.5325v 0.0225c 0.2925 0.0825 0.42 0.345 0.5325 0.645c 0.09 0.2325 0.18 0.375 0.3375 0.375c 0.0675 0 0.1275 -0.0225 0.1725 -0.0525c 0.045 -0.03 0.1275 -0.0525 0.225 -0.0525c 0.165 0 0.3 0.1425 0.3 0.2925c 0 0.165 -0.18 0.3375 -0.4275 0.3375c -0.435 0 -0.6375 -0.405 -0.78 -0.7575c -0.165 -0.4125 -0.3675 -0.6975 -0.9 -0.6975v 0.4725c 0 0.6225 0.0825 0.645 0.465 0.6825c 0.045 0.045 0.045 0.2025 0 0.2475c -0.18 -0.0075 -0.465 -0.015 -0.765 -0.015c -0.3225 0 -0.585 0.0075 -0.8325 0.015c -0.045 -0.045 -0.045 -0.2025 0 -0.2475c 0.4575 -0.03 0.54 -0.06 0.54 -0.6825v -1.3875c 0 -0.6225 -0.0825 -0.645 -0.54 -0.6825c -0.045 -0.045 -0.045 -0.2025 0 -0.2475c 0.2475 0.0075 0.51 0.015 0.84 0.015c 0.2925 0 0.5925 -0.0075 0.7575 -0.015c 0.045 0.045 0.045 0.2025 0 0.2475c -0.3825 0.03 -0.465 0.06 -0.465 0.6825v 0.6525c 0.51 -0.03 0.645 -0.2325 0.78 -0.51l 0.3225 -0.675c 0.0975 -0.2025 0.2475 -0.375 0.3975 -0.3825Z "/></symbol><symbol id="gFF794F08E96A5B8C53E798F025ED07F6" overflow="visible"><path d="M 0 0m 2.1975 0.36c 0.045 -0.2325 0.1275 -0.435 0.5025 -0.435c 0.285 0 0.555 0.1275 0.7125 0.2775c -0.015 0.09 -0.045 0.1575 -0.1275 0.2025c -0.0525 -0.045 -0.18 -0.12 -0.2775 -0.12c -0.2175 0 -0.225 0.2925 -0.225 0.6375v 1.1025c 0 1.065 -0.585 1.2675 -1.1325 1.2675c -0.615 0 -1.2375 -0.405 -1.2375 -0.8325c 0 -0.18 0.09 -0.27 0.2625 -0.27c 0.2175 0 0.3525 0.1575 0.3525 0.255c 0 0.0525 -0.0075 0.105 -0.0225 0.135c -0.0075 0.0225 -0.015 0.0675 -0.015 0.15c 0 0.2325 0.315 0.315 0.6 0.315c 0.255 0 0.6075 -0.1275 0.6075 -0.975c 0 -0.0525 -0.0225 -0.0825 -0.045 -0.09l -0.645 -0.1575c -0.72 -0.18 -1.2375 -0.5775 -1.2375 -1.0875c 0 -0.615 0.42 -0.81 0.945 -0.81c 0.2625 0 0.4875 0.06 0.8175 0.315l 0.15 0.12Z m 0 1.3875v -0.99c 0 -0.0975 -0.045 -0.15 -0.105 -0.195c -0.195 -0.1575 -0.45 -0.33 -0.66 -0.33c -0.375 0 -0.54 0.3 -0.54 0.5325c 0 0.3375 0.1575 0.6825 0.7125 0.825Z "/></symbol><symbol id="g86819BE7115F3729C1E76AE930029E69" overflow="visible"><path d="M 0 0m 0.855 0c 0.21 0.0075 0.285 0.2025 0.375 0.4725c 0.195 0.5925 0.4125 0.96 0.7875 0.96h 0.195v -0.5175c 0 -0.6225 -0.0825 -0.645 -0.54 -0.6825c -0.045 -0.045 -0.045 -0.2025 0 -0.2475c 0.2475 0.0075 0.51 0.015 0.84 0.015c 0.3225 0 0.5925 -0.0075 0.8325 -0.015c 0.045 0.045 0.045 0.2025 0 0.2475c -0.4575 0.03 -0.54 0.06 -0.54 0.6825v 1.3875c 0 0.6225 0.0825 0.645 0.54 0.6825c 0.045 0.045 0.045 0.2025 0 0.2475c -0.255 -0.0075 -0.51 -0.015 -0.84 -0.015c -0.255 0 -0.4725 0.015 -0.66 0.015c -1.3125 0 -1.425 -0.54 -1.425 -0.945c 0 -0.4875 0.375 -0.735 0.93 -0.7575c 0.0225 0 0.0225 -0.0225 0.015 -0.03c -0.285 -0.0825 -0.4125 -0.24 -0.54 -0.5175c -0.0825 -0.1725 -0.15 -0.3375 -0.1875 -0.435c -0.0975 -0.255 -0.225 -0.3 -0.5175 -0.315c -0.045 -0.045 -0.045 -0.2025 0 -0.2475c 0.15 0.0075 0.735 0.015 0.735 0.015Z m 0.21 2.4075c 0 0.3525 0.1125 0.5775 0.72 0.5775c 0.3075 0 0.4275 -0.135 0.4275 -0.42v -0.8775h -0.525c -0.45 0 -0.6225 0.345 -0.6225 0.72Z "/></symbol><symbol id="g29087D3E44996A2952509944E3ADDF13" overflow="visible"><path d="M 0 0m 0.255 1.9275c 0 -1.4175 0.8175 -2.0025 1.545 -2.0025c 1.0275 0 1.62 0.765 1.62 1.71c 0 0.81 -0.45 1.6575 -1.5075 1.6575c -0.7125 0 -1.1475 -0.42 -1.3125 -0.78l -0.015 0.015c 0.03 0.39 0.15 0.87 0.2625 1.065c 0.24 0.4125 0.525 0.435 1.215 0.51c 0.675 0.075 1.155 0.2925 1.2225 1.1325c -0.0525 0.0225 -0.105 0.03 -0.165 0c -0.06 -0.36 -0.4575 -0.4575 -1.0875 -0.555c -0.6075 -0.0975 -1.1175 -0.3075 -1.4325 -0.9c -0.27 -0.51 -0.345 -1.14 -0.345 -1.8525Z m 0.645 -0.195c 0 0.42 0.15 1.2975 0.93 1.2975c 0.585 0 0.945 -0.675 0.945 -1.575c 0 -0.945 -0.435 -1.2675 -0.84 -1.2675c -0.5475 0 -1.035 0.7125 -1.035 1.545Z "/></symbol><symbol id="gEEA2F4BC857577D5A54B2015EAE5E394" overflow="visible"><path d="M 0 0m 1.365 0.915c 0 -0.6225 -0.0825 -0.66 -0.54 -0.6825c -0.045 -0.045 -0.045 -0.2025 0 -0.2475c 0.2925 0.0075 0.5925 0.015 0.84 0.015c 0.255 0 0.5475 -0.0075 0.8325 -0.015c 0.045 0.045 0.045 0.2025 0 0.2475c -0.4575 0.0225 -0.54 0.06 -0.54 0.6825v 2.025h 0.1275c 0.6075 0 0.7275 -0.21 0.855 -0.8175c 0.0975 0 0.195 0.03 0.195 0.03c -0.045 0.345 -0.075 0.675 -0.0825 1.11c -0.1725 -0.015 -0.735 -0.045 -1.11 -0.045h -0.5625c -0.375 0 -0.795 0.0225 -1.095 0.045c -0.0075 -0.435 -0.0375 -0.765 -0.09 -1.11c 0 0 0.105 -0.03 0.2025 -0.03c 0.1275 0.6075 0.24 0.8175 0.855 0.8175h 0.1125Z "/></symbol><symbol id="g3036A15D0A2AECE5F3220ADA73EBBEB6" overflow="visible"><path d="M 0 0m 2.895 0.6975c -0.2775 -0.285 -0.495 -0.405 -0.93 -0.405c -0.27 0 -0.585 0.1575 -0.8175 0.54c -0.15 0.2475 -0.24 0.5925 -0.24 1.0275l 1.995 -0.015c 0.09 0 0.1425 0.045 0.1425 0.1275c 0 0.63 -0.225 1.305 -1.2675 1.305c -0.6525 0 -1.5 -0.6225 -1.5 -1.7625c 0 -0.42 0.105 -0.825 0.3525 -1.11c 0.255 -0.3 0.6075 -0.48 1.1475 -0.48c 0.57 0 0.975 0.2625 1.275 0.6525c -0.0225 0.075 -0.0675 0.1125 -0.1575 0.12Z m -1.965 1.4175c 0.1425 0.8475 0.6675 0.915 0.8475 0.915c 0.285 0 0.6225 -0.1575 0.6225 -0.7875c 0 -0.0675 -0.03 -0.105 -0.1125 -0.105Z "/></symbol><symbol id="gD7561D22518914316F6BE22AAAA2B6AA" overflow="visible"><path d="M 0 0m 1.485 0.4725c -0.0225 0 -0.0525 0.015 -0.0525 0.09v 1.71c 0 0.6225 0.1575 0.69 0.54 0.7125c 0.045 0.045 0.045 0.2025 0 0.2475c -0.1725 -0.0075 -0.6 -0.015 -0.8775 -0.015c -0.2475 0 -0.5475 0.0075 -0.8325 0.015c -0.045 -0.045 -0.045 -0.2025 0 -0.2475c 0.4575 -0.0225 0.5775 -0.09 0.5775 -0.7125v -1.3275c 0 -0.6225 -0.12 -0.69 -0.5775 -0.7125c -0.045 -0.045 -0.045 -0.2025 0 -0.2475c 0.2925 0.0075 0.5925 0.015 0.8325 0.015c 0.1725 0 0.375 -0.0075 0.4575 -0.015c 0.0375 0.105 0.105 0.255 0.1875 0.405l 1.17 2.3475c 0.0225 0 0.0525 -0.015 0.0525 -0.09v -1.7025c 0 -0.6225 -0.1575 -0.69 -0.54 -0.7125c -0.045 -0.045 -0.045 -0.2025 0 -0.2475c 0.1725 0.0075 0.5775 0.015 0.8775 0.015c 0.2325 0 0.54 -0.0075 0.8325 -0.015c 0.045 0.045 0.045 0.2025 0 0.2475c -0.4575 0.0225 -0.5775 0.09 -0.5775 0.7125v 1.3275c 0 0.6225 0.12 0.69 0.5775 0.7125c 0.045 0.045 0.045 0.2025 0 0.2475c -0.3 -0.0075 -0.6 -0.015 -0.8325 -0.015c -0.165 0 -0.375 0.0075 -0.45 0.015c -0.06 -0.135 -0.1275 -0.2925 -0.195 -0.42Z "/></symbol><symbol id="g9BD8815497ACE2CCB2ADDC08AAA56E57" overflow="visible"><path d="M 0 0m 3.5925 2.3025c 0 0.6225 0.0825 0.645 0.54 0.6825c 0.045 0.045 0.045 0.2025 0 0.2475c -0.2625 -0.015 -0.5925 -0.015 -0.84 -0.015c -0.21 0 -0.51 0.0075 -0.8025 0.015c -0.045 -0.045 -0.045 -0.2025 0 -0.2475c 0.4575 -0.03 0.51 -0.06 0.51 -0.6825v -0.4875h -1.605v 0.4875c 0 0.6225 0.0525 0.645 0.51 0.6825c 0.045 0.045 0.045 0.2025 0 0.2475c -0.285 -0.0075 -0.57 -0.015 -0.81 -0.015c -0.225 0 -0.5325 0.0075 -0.8325 0.015c -0.045 -0.045 -0.045 -0.2025 0 -0.2475c 0.4575 -0.03 0.54 -0.06 0.54 -0.6825v -1.3875c 0 -0.6225 -0.0825 -0.645 -0.54 -0.6825c -0.045 -0.045 -0.045 -0.2025 0 -0.2475c 0.3 0.0075 0.6 0.015 0.84 0.015c 0.24 0 0.5325 -0.0075 0.8025 -0.015c 0.045 0.045 0.045 0.2025 0 0.2475c -0.4575 0.03 -0.51 0.06 -0.51 0.6825v 0.6525h 1.605v -0.6525c 0 -0.6225 -0.0525 -0.645 -0.51 -0.6825c -0.045 -0.045 -0.045 -0.2025 0 -0.2475c 0.27 0.0075 0.5475 0.015 0.81 0.015c 0.225 0 0.54 -0.0075 0.8325 -0.015c 0.045 0.045 0.045 0.2025 0 0.2475c -0.4575 0.03 -0.54 0.06 -0.54 0.6825Z "/></symbol><symbol id="gF859B786D36C3A3EB6E93A57BC4F802" overflow="visible"><path d="M 0 0m 3.496 3.432h -2.272c -0.32 0 -0.624 0.008 -0.864 0.016c -0.048 -0.048 -0.048 -0.216 0 -0.264c 0.44 -0.032 0.544 -0.072 0.544 -0.728v -1.48c 0 -0.656 -0.104 -0.696 -0.624 -0.728c -0.048 -0.048 -0.048 -0.216 0 -0.264c 0.24 0.008 0.624 0.016 0.944 0.016c 0.32 0 0.56 -0.008 0.8 -0.016c 0.048 0.048 0.048 0.216 0 0.264c -0.408 0.04 -0.488 0.072 -0.488 0.728v 1.736c 0 0.248 0.024 0.408 0.336 0.408h 0.968c 0.296 0 0.344 -0.088 0.344 -0.408v -1.736c 0 -0.656 -0.08 -0.696 -0.496 -0.728c -0.04 -0.048 -0.04 -0.216 0 -0.264c 0.2 0.008 0.496 0.016 0.816 0.016c 0.32 0 0.68 -0.008 0.904 -0.016c 0.04 0.048 0.04 0.216 0 0.264c -0.52 0.032 -0.592 0.072 -0.592 0.728v 1.48c 0 0.656 0.104 0.696 0.544 0.728c 0.048 0.048 0.048 0.216 0 0.264c -0.24 -0.008 -0.544 -0.016 -0.864 -0.016Z "/></symbol><symbol id="g465CA45D0696F5BBCE5E7A11B5E63D98" overflow="visible"><path d="M 0 0m 3.088 0.744c -0.296 -0.304 -0.528 -0.432 -0.992 -0.432c -0.288 0 -0.624 0.168 -0.872 0.576c -0.16 0.264 -0.256 0.632 -0.256 1.096l 2.128 -0.016c 0.096 0 0.152 0.048 0.152 0.136c 0 0.672 -0.24 1.392 -1.352 1.392c -0.696 0 -1.6 -0.664 -1.6 -1.88c 0 -0.448 0.112 -0.88 0.376 -1.184c 0.272 -0.32 0.648 -0.512 1.224 -0.512c 0.608 0 1.04 0.28 1.36 0.696c -0.024 0.08 -0.072 0.12 -0.168 0.128Z m -2.096 1.512c 0.152 0.904 0.712 0.976 0.904 0.976c 0.304 0 0.664 -0.168 0.664 -0.84c 0 -0.072 -0.032 -0.112 -0.12 -0.112Z "/></symbol><symbol id="g46DFAA35BC521B4F2378CE697B4B163E" overflow="visible"><path d="M 0 0m 1.248 2.944c -0.008 0.24 -0.024 0.448 -0.064 0.528c -0.016 0.04 -0.032 0.064 -0.096 0.064c -0.224 -0.088 -0.432 -0.16 -0.984 -0.232c -0.016 -0.048 0 -0.176 0.016 -0.224c 0.432 -0.04 0.52 -0.08 0.52 -0.544v -3.416c 0 -0.664 -0.088 -0.704 -0.576 -0.728c -0.048 -0.048 -0.048 -0.216 0 -0.264c 0.28 0.008 0.576 0.016 0.896 0.016c 0.32 0 0.704 -0.008 0.968 -0.016c 0.048 0.048 0.048 0.216 0 0.264c -0.568 0.032 -0.656 0.064 -0.656 0.728v 0.864c 0 0.104 0.032 0.096 0.112 0.064c 0.2 -0.08 0.44 -0.128 0.696 -0.128c 0.448 0 0.848 0.136 1.176 0.448c 0.376 0.368 0.592 0.864 0.592 1.512c 0 0.848 -0.6 1.632 -1.416 1.632c -0.368 0 -0.776 -0.24 -1.096 -0.6c -0.048 -0.048 -0.08 -0.048 -0.088 0.032Z m 0.152 -0.296c 0.208 0.256 0.576 0.496 0.808 0.496c 0.512 0 0.952 -0.576 0.952 -1.48c 0 -0.656 -0.232 -1.472 -1.128 -1.472c -0.144 0 -0.424 0.04 -0.568 0.168c -0.16 0.144 -0.192 0.192 -0.192 0.48v 1.456c 0 0.168 0.032 0.24 0.128 0.352Z "/></symbol><symbol id="g937124D7F3D66536776BB8DA5DFD7893" overflow="visible"><path d="M 0 0m 3.832 2.456c 0 0.664 0.088 0.688 0.576 0.728c 0.048 0.048 0.048 0.216 0 0.264c -0.28 -0.016 -0.632 -0.016 -0.896 -0.016c -0.224 0 -0.544 0.008 -0.856 0.016c -0.048 -0.048 -0.048 -0.216 0 -0.264c 0.488 -0.032 0.544 -0.064 0.544 -0.728v -0.52h -1.712v 0.52c 0 0.664 0.056 0.688 0.544 0.728c 0.048 0.048 0.048 0.216 0 0.264c -0.304 -0.008 -0.608 -0.016 -0.864 -0.016c -0.24 0 -0.568 0.008 -0.888 0.016c -0.048 -0.048 -0.048 -0.216 0 -0.264c 0.488 -0.032 0.576 -0.064 0.576 -0.728v -1.48c 0 -0.664 -0.088 -0.688 -0.576 -0.728c -0.048 -0.048 -0.048 -0.216 0 -0.264c 0.32 0.008 0.64 0.016 0.896 0.016c 0.256 0 0.568 -0.008 0.856 -0.016c 0.048 0.048 0.048 0.216 0 0.264c -0.488 0.032 -0.544 0.064 -0.544 0.728v 0.696h 1.712v -0.696c 0 -0.664 -0.056 -0.688 -0.544 -0.728c -0.048 -0.048 -0.048 -0.216 0 -0.264c 0.288 0.008 0.584 0.016 0.864 0.016c 0.24 0 0.576 -0.008 0.888 -0.016c 0.048 0.048 0.048 0.216 0 0.264c -0.488 0.032 -0.576 0.064 -0.576 0.728Z "/></symbol><symbol id="g5D01DA3AB390CB78D7E54204B7DC3F87" overflow="visible"><path d="M 0 0m 0.328 1.64c 0 -0.816 0.544 -1.72 1.68 -1.72c 0.512 0 0.904 0.184 1.176 0.448c 0.36 0.352 0.52 0.856 0.52 1.344c 0 0.832 -0.456 1.8 -1.68 1.8c -0.528 0 -0.96 -0.216 -1.256 -0.56c -0.288 -0.344 -0.44 -0.808 -0.44 -1.312Z m 1.576 1.592c 0.688 0 1.112 -0.624 1.112 -1.776c 0 -1.008 -0.52 -1.256 -0.896 -1.256c -0.832 0 -1.104 1.008 -1.104 1.624c 0 0.696 0.168 1.408 0.888 1.408Z "/></symbol><symbol id="g9F99202881449AD6C0CCCD21824C9AF1" overflow="visible"><path d="M 0 0m 3.184 0.728c -0.032 0.072 -0.096 0.104 -0.168 0.112c -0.272 -0.352 -0.616 -0.528 -0.96 -0.528c -0.584 0 -1.072 0.592 -1.072 1.528c 0 0.88 0.384 1.408 0.912 1.408c 0.472 0 0.536 -0.28 0.568 -0.56c 0.024 -0.216 0.136 -0.288 0.304 -0.288c 0.168 0 0.392 0.104 0.392 0.352c 0 0.44 -0.456 0.76 -1.224 0.76c -0.792 0 -1.64 -0.712 -1.64 -1.848c 0 -1.032 0.576 -1.744 1.584 -1.744c 0.48 0 0.904 0.152 1.304 0.808Z "/></symbol><symbol id="g3478CFDC408E67C5C7551BD6A62D2425" overflow="visible"><path d="M 0 0m 1.488 2.456c 0 0.456 0.056 0.664 0.336 0.664h 0.176c 0.656 0 0.848 -0.456 0.96 -0.92c 0.088 -0.008 0.168 0 0.232 0.032c -0.032 0.424 -0.056 0.776 -0.104 1.2l -0.016 0.016c 0 0 -0.64 -0.016 -0.896 -0.016h -1.008c -0.344 0 -0.624 0.008 -0.888 0.016c -0.048 -0.048 -0.048 -0.216 0 -0.264c 0.488 -0.032 0.576 -0.064 0.576 -0.728v -1.48c 0 -0.664 -0.088 -0.688 -0.576 -0.728c -0.048 -0.048 -0.048 -0.216 0 -0.264c 0.264 0.008 0.544 0.016 0.896 0.016c 0.344 0 0.632 -0.008 0.888 -0.016c 0.048 0.048 0.048 0.216 0 0.264c -0.488 0.032 -0.576 0.064 -0.576 0.728Z "/></symbol><symbol id="gF79D9CC171E1ACC5162F855F1894F43E" overflow="visible"><path d="M 0 0m 2.344 0.384c 0.048 -0.248 0.136 -0.464 0.536 -0.464c 0.304 0 0.592 0.136 0.76 0.296c -0.016 0.096 -0.048 0.168 -0.136 0.216c -0.056 -0.048 -0.192 -0.128 -0.296 -0.128c -0.232 0 -0.24 0.312 -0.24 0.68v 1.176c 0 1.136 -0.624 1.352 -1.208 1.352c -0.656 0 -1.32 -0.432 -1.32 -0.888c 0 -0.192 0.096 -0.288 0.28 -0.288c 0.232 0 0.376 0.168 0.376 0.272c 0 0.056 -0.008 0.112 -0.024 0.144c -0.008 0.024 -0.016 0.072 -0.016 0.16c 0 0.248 0.336 0.336 0.64 0.336c 0.272 0 0.648 -0.136 0.648 -1.04c 0 -0.056 -0.024 -0.088 -0.048 -0.096l -0.688 -0.168c -0.768 -0.192 -1.32 -0.616 -1.32 -1.16c 0 -0.656 0.448 -0.864 1.008 -0.864c 0.28 0 0.52 0.064 0.872 0.336l 0.16 0.128Z m 0 1.48v -1.056c 0 -0.104 -0.048 -0.16 -0.112 -0.208c -0.208 -0.168 -0.48 -0.352 -0.704 -0.352c -0.4 0 -0.576 0.32 -0.576 0.568c 0 0.36 0.168 0.728 0.76 0.88Z "/></symbol><symbol id="g5FDCEB127327F5367D632439101BB95C" overflow="visible"><path d="M 0 0m 1.036 4.515c -0.252 0 -0.63 0.007 -0.903 0.014c -0.042 -0.042 -0.042 -0.189 0 -0.231c 0.49 -0.021 0.609 -0.056 0.609 -0.637v -2.807c 0 -0.581 -0.119 -0.616 -0.609 -0.637c -0.042 -0.042 -0.042 -0.189 0 -0.231c 0.273 0.007 0.651 0.014 0.91 0.014c 0.252 0 0.434 -0.014 1.022 -0.014c 1.393 0 1.764 0.7 1.764 1.302c 0 0.672 -0.469 1.057 -1.078 1.232v 0.014c 0.35 0.175 0.665 0.539 0.665 0.917c 0 0.469 -0.203 1.078 -1.505 1.078c -0.245 0 -0.623 -0.014 -0.875 -0.014Z m 0.301 -2.191h 0.483c 0.959 0 1.358 -0.539 1.358 -1.169c 0 -0.511 -0.196 -0.938 -1.26 -0.938c -0.49 0 -0.581 0.182 -0.581 0.609Z m 0 1.526c 0 0.371 0 0.441 0.609 0.441c 0.392 0 0.903 -0.21 0.903 -0.924c 0 -0.595 -0.413 -0.805 -0.994 -0.805h -0.518Z "/></symbol><symbol id="g7F53C732E919D004D6F103F0B6654A5" overflow="visible"><path d="M 0 0m 2.051 0.336c 0.042 -0.217 0.119 -0.406 0.469 -0.406c 0.266 0 0.518 0.119 0.665 0.259c -0.014 0.084 -0.042 0.147 -0.119 0.189c -0.049 -0.042 -0.168 -0.112 -0.259 -0.112c -0.203 0 -0.21 0.273 -0.21 0.595v 1.029c 0 0.994 -0.546 1.183 -1.057 1.183c -0.574 0 -1.155 -0.378 -1.155 -0.777c 0 -0.168 0.084 -0.252 0.245 -0.252c 0.203 0 0.329 0.147 0.329 0.238c 0 0.049 -0.007 0.098 -0.021 0.126c -0.007 0.021 -0.014 0.063 -0.014 0.14c 0 0.217 0.294 0.294 0.56 0.294c 0.238 0 0.567 -0.119 0.567 -0.91c 0 -0.049 -0.021 -0.077 -0.042 -0.084l -0.602 -0.147c -0.672 -0.168 -1.155 -0.539 -1.155 -1.015c 0 -0.574 0.392 -0.756 0.882 -0.756c 0.245 0 0.455 0.056 0.763 0.294l 0.14 0.112Z m 0 1.295v -0.924c 0 -0.091 -0.042 -0.14 -0.098 -0.182c -0.182 -0.147 -0.42 -0.308 -0.616 -0.308c -0.35 0 -0.504 0.28 -0.504 0.497c 0 0.315 0.147 0.637 0.665 0.77Z "/></symbol><symbol id="gFB891BE0A6F67F5DCF46E294A74CDFE3" overflow="visible"><path d="M 0 0m 2.786 0.637c -0.028 0.063 -0.084 0.091 -0.147 0.098c -0.238 -0.308 -0.539 -0.462 -0.84 -0.462c -0.511 0 -0.938 0.518 -0.938 1.337c 0 0.77 0.336 1.232 0.798 1.232c 0.413 0 0.469 -0.245 0.497 -0.49c 0.021 -0.189 0.119 -0.252 0.266 -0.252c 0.147 0 0.343 0.091 0.343 0.308c 0 0.385 -0.399 0.665 -1.071 0.665c -0.693 0 -1.435 -0.623 -1.435 -1.617c 0 -0.903 0.504 -1.526 1.386 -1.526c 0.42 0 0.791 0.133 1.141 0.707Z "/></symbol><symbol id="gABB9F1B4C6313DD44D3DD6524A14736D" overflow="visible"><path d="M 0 0m 0.301 3.003c -0.098 0 -0.126 -0.084 -0.126 -0.14v -0.091c 0 -0.035 0.007 -0.042 0.035 -0.042h 0.413v -2.107c 0 -0.497 0.217 -0.693 0.539 -0.693c 0.322 0 0.672 0.154 0.945 0.462c -0.014 0.07 -0.056 0.112 -0.126 0.119c -0.182 -0.14 -0.392 -0.196 -0.574 -0.196c -0.189 0 -0.231 0.21 -0.231 0.644v 1.771h 0.728c 0.07 0 0.168 0.028 0.168 0.091v 0.14c 0 0.028 -0.021 0.042 -0.056 0.042h -0.84v 0.273c 0 0.455 0.028 0.735 0.028 0.735c 0 0.042 -0.021 0.063 -0.056 0.063c -0.028 0 -0.091 -0.028 -0.154 -0.063c -0.077 -0.042 -0.147 -0.077 -0.238 -0.098c -0.084 -0.028 -0.154 -0.049 -0.154 -0.098c 0 -0.084 0.021 -0.035 0.021 -0.812Z "/></symbol><symbol id="gA7BF18C335220D5E7117B3A9324A7487" overflow="visible"><path d="M 0 0m 2.702 0.651c -0.259 -0.266 -0.462 -0.378 -0.868 -0.378c -0.252 0 -0.546 0.147 -0.763 0.504c -0.14 0.231 -0.224 0.553 -0.224 0.959l 1.862 -0.014c 0.084 0 0.133 0.042 0.133 0.119c 0 0.588 -0.21 1.218 -1.183 1.218c -0.609 0 -1.4 -0.581 -1.4 -1.645c 0 -0.392 0.098 -0.77 0.329 -1.036c 0.238 -0.28 0.567 -0.448 1.071 -0.448c 0.532 0 0.91 0.245 1.19 0.609c -0.021 0.07 -0.063 0.105 -0.147 0.112Z m -1.834 1.323c 0.133 0.791 0.623 0.854 0.791 0.854c 0.266 0 0.581 -0.147 0.581 -0.735c 0 -0.063 -0.028 -0.098 -0.105 -0.098Z "/></symbol><symbol id="gEED51DA56EC6F651CDEA9C1904670910" overflow="visible"><path d="M 0 0m 1.232 2.506c -0.014 0.28 -0.021 0.462 -0.056 0.532c -0.014 0.035 -0.028 0.056 -0.084 0.056c -0.196 -0.077 -0.378 -0.14 -0.861 -0.203c -0.014 -0.042 0 -0.154 0.014 -0.196c 0.378 -0.035 0.455 -0.07 0.455 -0.476v -1.365c 0 -0.581 -0.084 -0.609 -0.518 -0.637c -0.042 -0.042 -0.042 -0.189 0 -0.231c 0.245 0.007 0.518 0.014 0.798 0.014c 0.28 0 0.602 -0.007 0.847 -0.014c 0.042 0.042 0.042 0.189 0 0.231c -0.49 0.035 -0.574 0.056 -0.574 0.637v 0.973c 0 0.182 0.084 0.343 0.168 0.469c 0.077 0.112 0.238 0.343 0.322 0.343c 0.063 0 0.126 -0.014 0.182 -0.091c 0.049 -0.07 0.133 -0.161 0.252 -0.161c 0.168 0 0.329 0.175 0.329 0.35c 0 0.133 -0.126 0.336 -0.42 0.336c -0.329 0 -0.616 -0.308 -0.777 -0.581c -0.042 -0.077 -0.077 -0.021 -0.077 0.014Z "/></symbol><symbol id="g15DA33CDDA977652EC4FAB62F28BD18E" overflow="visible"><path d="M 0 0m 0.287 1.435c 0 -0.714 0.476 -1.505 1.47 -1.505c 0.448 0 0.791 0.161 1.029 0.392c 0.315 0.308 0.455 0.749 0.455 1.176c 0 0.728 -0.399 1.575 -1.47 1.575c -0.462 0 -0.84 -0.189 -1.099 -0.49c -0.252 -0.301 -0.385 -0.707 -0.385 -1.148Z m 1.379 1.393c 0.602 0 0.973 -0.546 0.973 -1.554c 0 -0.882 -0.455 -1.099 -0.784 -1.099c -0.728 0 -0.966 0.882 -0.966 1.421c 0 0.609 0.147 1.232 0.777 1.232Z "/></symbol><symbol id="g95109BF97F5D69311623DCB01E17B5" overflow="visible"><path d="M 0 0m 1.267 0.854v 1.393c 0 0.35 0.028 0.798 0.028 0.798c 0 0.028 -0.035 0.049 -0.091 0.049c -0.196 -0.077 -0.476 -0.14 -0.959 -0.203c -0.014 -0.042 0 -0.154 0.014 -0.196c 0.385 -0.035 0.455 -0.077 0.455 -0.476v -1.365c 0 -0.581 -0.077 -0.602 -0.504 -0.637c -0.042 -0.042 -0.042 -0.189 0 -0.231c 0.231 0.007 0.504 0.014 0.784 0.014c 0.28 0 0.546 -0.007 0.777 -0.014c 0.042 0.042 0.042 0.189 0 0.231c -0.427 0.028 -0.504 0.056 -0.504 0.637Z m -0.637 3.339c 0 -0.182 0.168 -0.364 0.336 -0.364c 0.196 0 0.364 0.189 0.364 0.336c 0 0.168 -0.147 0.364 -0.336 0.364c -0.168 0 -0.364 -0.168 -0.364 -0.336Z "/></symbol><symbol id="g3AB780C36179048EC76D019079FF43A1" overflow="visible"><path d="M 0 0m 2.338 0.35c 0.035 0.028 0.098 0.042 0.105 -0.007c 0.021 -0.168 0.077 -0.413 0.077 -0.413c 0.056 -0.021 0.091 -0.014 0.133 0c 0.154 0.126 0.399 0.231 0.826 0.28c 0.042 0.042 0.042 0.147 0 0.189c -0.448 0.035 -0.511 0.168 -0.511 0.511v 3.171c 0 0.455 0.028 0.735 0.028 0.735c 0 0.049 -0.028 0.07 -0.091 0.07c -0.175 -0.07 -0.7 -0.168 -0.98 -0.189c -0.014 -0.056 0 -0.168 0.042 -0.21c 0.021 0 0.042 0 0.063 0c 0.308 -0.021 0.385 -0.021 0.385 -0.574v -0.896c 0 -0.049 -0.014 -0.063 -0.063 -0.063c -0.028 0 -0.315 0.119 -0.546 0.119c -0.462 0 -0.77 -0.154 -1.05 -0.42c -0.301 -0.301 -0.483 -0.714 -0.483 -1.232c 0 -0.861 0.434 -1.491 1.19 -1.491c 0.273 0 0.532 0.14 0.875 0.42Z m 0.077 0.518c 0 -0.133 -0.014 -0.189 -0.112 -0.273c -0.259 -0.224 -0.483 -0.336 -0.658 -0.336c -0.378 0 -0.77 0.413 -0.77 1.288c 0 0.504 0.098 0.784 0.203 0.931c 0.217 0.329 0.511 0.35 0.651 0.35c 0.252 0 0.427 -0.091 0.567 -0.252c 0.098 -0.112 0.119 -0.161 0.119 -0.378Z "/></symbol><symbol id="gE526F6D2B84A63AE0DCACF8701BCF7C4" overflow="visible"><path d="M 0 0m 0.336 0.966c 0.028 -0.343 0.049 -0.672 0.049 -0.966c 0.07 0.014 0.14 0.021 0.175 0.021c 0.049 0 0.091 0 0.14 -0.014c 0.189 -0.049 0.378 -0.077 0.637 -0.077c 0.392 0 1.113 0.189 1.113 0.882c 0 0.476 -0.343 0.756 -0.819 0.931c -0.42 0.161 -0.7 0.266 -0.7 0.651c 0 0.287 0.252 0.448 0.49 0.448c 0.154 0 0.56 -0.056 0.651 -0.651c 0.042 -0.042 0.182 -0.035 0.224 0.007c 0.021 0.252 0.035 0.511 0.042 0.742c -0.217 0.035 -0.553 0.133 -0.917 0.133c -0.518 0 -0.987 -0.336 -0.987 -0.784c 0 -0.511 0.231 -0.728 0.77 -0.952c 0.581 -0.238 0.714 -0.385 0.714 -0.686c 0 -0.343 -0.336 -0.49 -0.595 -0.49c -0.273 0 -0.427 0.091 -0.497 0.168c -0.154 0.161 -0.231 0.469 -0.273 0.644c -0.042 0.042 -0.175 0.035 -0.217 -0.007Z "/></symbol><symbol id="g2A00D5AD23258A592B8B29234C197A30" overflow="visible"><path d="M 0 0m 1.092 2.576c -0.007 0.21 -0.021 0.392 -0.056 0.462c -0.014 0.035 -0.028 0.056 -0.084 0.056c -0.196 -0.077 -0.378 -0.14 -0.861 -0.203c -0.014 -0.042 0 -0.154 0.014 -0.196c 0.378 -0.035 0.455 -0.07 0.455 -0.476v -2.989c 0 -0.581 -0.077 -0.616 -0.504 -0.637c -0.042 -0.042 -0.042 -0.189 0 -0.231c 0.245 0.007 0.504 0.014 0.784 0.014c 0.28 0 0.616 -0.007 0.847 -0.014c 0.042 0.042 0.042 0.189 0 0.231c -0.497 0.028 -0.574 0.056 -0.574 0.637v 0.756c 0 0.091 0.028 0.084 0.098 0.056c 0.175 -0.07 0.385 -0.112 0.609 -0.112c 0.392 0 0.742 0.119 1.029 0.392c 0.329 0.322 0.518 0.756 0.518 1.323c 0 0.742 -0.525 1.428 -1.239 1.428c -0.322 0 -0.679 -0.21 -0.959 -0.525c -0.042 -0.042 -0.07 -0.042 -0.077 0.028Z m 0.133 -0.259c 0.182 0.224 0.504 0.434 0.707 0.434c 0.448 0 0.833 -0.504 0.833 -1.295c 0 -0.574 -0.203 -1.288 -0.987 -1.288c -0.126 0 -0.371 0.035 -0.497 0.147c -0.14 0.126 -0.168 0.168 -0.168 0.42v 1.274c 0 0.147 0.028 0.21 0.112 0.308Z "/></symbol><symbol id="g9D9F00457DD473BEA9AD32B9D633655D" overflow="visible"><path d="M 0 0m 0.665 0.854c 0 -0.581 -0.077 -0.616 -0.504 -0.637c -0.042 -0.042 -0.042 -0.189 0 -0.231c 0.245 0.007 0.504 0.014 0.784 0.014c 0.28 0 0.546 -0.007 0.777 -0.014c 0.042 0.042 0.042 0.189 0 0.231c -0.427 0.021 -0.504 0.056 -0.504 0.637v 3.227c 0 0.455 0.028 0.735 0.028 0.735c 0 0.049 -0.028 0.07 -0.091 0.07c -0.175 -0.07 -0.7 -0.168 -0.98 -0.189c -0.014 -0.056 0 -0.168 0.042 -0.21c 0.406 -0.028 0.448 -0.049 0.448 -0.574Z "/></symbol><symbol id="g63BA0D4B783D3976C10CC4CBE65795B6" overflow="visible"><path d="M 0 0m 1.169 2.758c -0.042 -0.042 -0.07 -0.028 -0.07 0.035v 1.288c 0 0.455 0.028 0.735 0.028 0.735c 0 0.049 -0.028 0.07 -0.091 0.07c -0.175 -0.07 -0.7 -0.168 -0.98 -0.189c -0.014 -0.056 0 -0.168 0.042 -0.21c 0.021 0 0.042 0 0.063 0c 0.308 -0.021 0.385 -0.021 0.385 -0.574v -3.416c 0 -0.273 -0.007 -0.399 -0.028 -0.497c 0.035 -0.056 0.07 -0.084 0.154 -0.084c 0.042 0.042 0.112 0.105 0.168 0.168c 0.07 0.084 0.112 0.084 0.189 0.021c 0.161 -0.133 0.371 -0.175 0.616 -0.175c 0.714 0 1.547 0.651 1.547 1.764c 0 0.854 -0.63 1.379 -1.239 1.379c -0.301 0 -0.567 -0.119 -0.784 -0.315Z m 0.049 -0.217c 0.182 0.161 0.392 0.224 0.595 0.224c 0.427 0 0.777 -0.518 0.777 -1.197c 0 -0.798 -0.322 -1.4 -0.987 -1.4c -0.217 0 -0.364 0.154 -0.504 0.329v 1.75c 0 0.147 0.028 0.217 0.119 0.294Z "/></symbol><symbol id="gF03346E6A3FFD945A12950F24C79EA53" overflow="visible"><path d="M 0 0m 1.519 -0.07c 0.273 0 0.602 0.14 0.945 0.42c 0.035 0.028 0.098 0.042 0.105 -0.007c 0.021 -0.175 0.077 -0.413 0.077 -0.413c 0.056 -0.021 0.091 -0.014 0.133 0c 0.154 0.126 0.399 0.231 0.826 0.28c 0.042 0.042 0.042 0.147 0 0.189c -0.448 0.035 -0.511 0.168 -0.511 0.511v 1.344c 0 0.21 0.028 0.721 0.028 0.721c 0 0.021 -0.021 0.042 -0.056 0.042c -0.035 -0.007 -0.14 -0.014 -0.245 -0.014c -0.224 0 -0.476 0.007 -0.714 0.014c -0.042 -0.042 -0.042 -0.189 0 -0.231c 0.343 -0.021 0.434 -0.105 0.434 -0.567v -1.351c 0 -0.133 -0.014 -0.189 -0.112 -0.273c -0.259 -0.224 -0.525 -0.336 -0.7 -0.336c -0.21 0 -0.56 0.098 -0.56 0.721v 1.274c 0 0.21 0.028 0.721 0.028 0.721c 0 0.021 -0.021 0.042 -0.056 0.042c -0.035 -0.007 -0.14 -0.014 -0.245 -0.014c -0.224 0 -0.476 0.007 -0.714 0.014c -0.042 -0.042 -0.042 -0.189 0 -0.231c 0.336 -0.028 0.434 -0.105 0.434 -0.56v -1.344c 0 -0.483 0.21 -0.952 0.903 -0.952Z "/></symbol><symbol id="g16EB0E76256A1564D6F72B0EC768AD0D" overflow="visible"><path d="M 0 0m 1.095 3.2175c -0.3225 0 -0.585 0.0075 -0.8325 0.015c -0.045 -0.045 -0.045 -0.2025 0 -0.2475c 0.4575 -0.03 0.54 -0.06 0.54 -0.6825v -1.3875c 0 -0.6225 -0.0825 -0.645 -0.54 -0.6825c -0.045 -0.045 -0.045 -0.2025 0 -0.2475c 0.2475 0.0075 0.51 0.015 0.84 0.015c 0.2775 0 0.525 -0.015 1.0275 -0.015c 0.645 0 1.1325 0.18 1.1325 0.9225c 0 0.42 -0.2625 0.7125 -0.72 0.795v 0.0225c 0.345 0.0675 0.6075 0.3075 0.6075 0.7575c 0 0.525 -0.3225 0.75 -1.23 0.75c -0.3075 0 -0.5025 -0.015 -0.825 -0.015Z m 0.3 -1.59h 0.57c 0.4575 0 0.6525 -0.3 0.6525 -0.75c 0 -0.5025 -0.285 -0.645 -0.69 -0.645c -0.39 0 -0.5325 0.0675 -0.5325 0.4125Z m 0 0.2175v 0.87c 0 0.225 0.1725 0.27 0.5325 0.27c 0.39 0 0.6225 -0.105 0.6225 -0.555c 0 -0.3 -0.195 -0.585 -0.66 -0.585Z "/></symbol><symbol id="g34F684D2788A1EFD489841EBF0BF1F0C" overflow="visible"><path d="M 0 0m 5.595 0.915v 1.3875c 0 0.615 0.0975 0.6525 0.51 0.6825c 0.045 0.045 0.045 0.2025 0 0.2475c -0.225 -0.0075 -0.51 -0.015 -0.81 -0.015c -0.3 0 -0.525 0.0075 -0.75 0.015c -0.045 -0.045 -0.045 -0.2025 0 -0.2475c 0.3825 -0.0375 0.4575 -0.0675 0.4575 -0.6825v -1.6275c 0 -0.2325 -0.0225 -0.3825 -0.315 -0.3825h -0.885c -0.225 0 -0.3225 0.0675 -0.3225 0.3825v 1.6275c 0.0075 0.615 0.06 0.6525 0.465 0.6825c 0.0375 0.045 0.0375 0.2025 0 0.2475c -0.1875 -0.0075 -0.465 -0.015 -0.765 -0.015c -0.3 0 -0.5475 0.0075 -0.735 0.015c -0.0375 -0.045 -0.0375 -0.2025 0 -0.2475c 0.375 -0.03 0.45 -0.0675 0.4425 -0.6825v -1.635c 0 -0.2775 -0.0375 -0.375 -0.315 -0.375h -0.855c -0.2775 0 -0.3225 0.0825 -0.3225 0.3825v 1.6275c 0 0.615 0.075 0.6525 0.465 0.6825c 0.0375 0.045 0.0375 0.2025 0 0.2475c -0.1875 -0.0075 -0.465 -0.015 -0.765 -0.015c -0.3 0 -0.5625 0.0075 -0.7725 0.015c -0.0375 -0.045 -0.0375 -0.2025 0 -0.2475c 0.4125 -0.03 0.48 -0.0675 0.48 -0.6825v -1.3875c 0 -0.615 -0.0975 -0.6525 -0.51 -0.6825c -0.045 -0.045 -0.045 -0.2025 0 -0.2475c 0.225 0.0075 0.51 0.015 0.81 0.015h 4.1925c 0.3 0 0.585 -0.0075 0.81 -0.015c 0.045 0.045 0.045 0.2025 0 0.2475c -0.4125 0.03 -0.51 0.0675 -0.51 0.6825Z "/></symbol><symbol id="g88DF289CB0ABE82F4BDD978B7C9B130C" overflow="visible"><path d="M 0 0m 1.215 2.3025c 0 0.6225 0.0825 0.645 0.465 0.6825c 0.045 0.045 0.045 0.2025 0 0.2475c -0.18 -0.0075 -0.465 -0.015 -0.765 -0.015c -0.3225 0 -0.5775 0.0075 -0.825 0.015c -0.045 -0.045 -0.045 -0.2025 0 -0.2475c 0.4575 -0.03 0.54 -0.06 0.54 -0.6825v -0.3225c 0 -0.705 0.1575 -0.9825 0.855 -0.9825c 0.4725 0 0.8475 0.27 1.155 0.495v -0.5775c 0 -0.6225 -0.0825 -0.645 -0.54 -0.6825c -0.045 -0.045 -0.045 -0.2025 0 -0.2475c 0.2475 0.0075 0.51 0.015 0.84 0.015c 0.3225 0 0.6 -0.0075 0.84 -0.015c 0.045 0.045 0.045 0.2025 0 0.2475c -0.4575 0.03 -0.54 0.06 -0.54 0.6825v 1.3875c 0 0.6225 0.0825 0.645 0.54 0.6825c 0.045 0.045 0.045 0.2025 0 0.2475c -0.255 -0.0075 -0.51 -0.015 -0.84 -0.015c -0.2925 0 -0.5925 0.0075 -0.765 0.015c -0.045 -0.045 -0.045 -0.2025 0 -0.2475c 0.3825 -0.03 0.465 -0.06 0.465 -0.6825v -0.54c -0.255 -0.225 -0.525 -0.4275 -0.915 -0.4275c -0.4875 0 -0.51 0.255 -0.51 0.84Z "/></symbol><symbol id="gEA97EC147860E78008C33EAABF207A32" overflow="visible"><path d="M 0 0m 3.135 0.915v 1.3875c 0 0.615 0.0975 0.6525 0.51 0.6825c 0.045 0.045 0.045 0.2025 0 0.2475c -0.225 -0.0075 -0.51 -0.015 -0.81 -0.015h -1.4175c -0.2475 0 -0.54 0.0075 -0.765 0.015c -0.045 -0.045 -0.045 -0.2025 0 -0.2475c 0.5325 -0.0375 0.6075 -0.0825 0.6075 -0.8925c 0 -0.7875 -0.06 -1.2 -0.165 -1.5075c -0.0975 -0.27 -0.225 -0.3675 -0.3525 -0.3675c -0.0975 0 -0.1275 0.06 -0.1425 0.1575c -0.0225 0.1425 -0.0675 0.285 -0.2775 0.285c -0.1875 0 -0.2925 -0.15 -0.2925 -0.315c 0 -0.2325 0.21 -0.435 0.555 -0.435c 0.3825 0 0.5925 0.195 0.765 0.6c 0.15 0.36 0.195 1.125 0.195 1.635c 0 0.585 0.0225 0.78 0.3225 0.78h 0.3375c 0.285 0 0.3375 -0.18 0.3375 -0.435v -1.575c 0 -0.615 -0.075 -0.6525 -0.465 -0.6825c -0.0375 -0.045 -0.0375 -0.2025 0 -0.2475c 0.1875 0.0075 0.465 0.015 0.765 0.015c 0.3 0 0.6375 -0.0075 0.8475 -0.015c 0.0375 0.045 0.0375 0.2025 0 0.2475c -0.4875 0.03 -0.555 0.0675 -0.555 0.6825Z "/></symbol><symbol id="gBEE50160BCD570B38DEF46393A725EED" overflow="visible"><path d="M 0 0m 3.7145 3.6465h -2.414c -0.34 0 -0.663 0.0085 -0.918 0.017c -0.051 -0.051 -0.051 -0.2295 0 -0.2805c 0.4675 -0.034 0.578 -0.0765 0.578 -0.7735v -1.5725c 0 -0.697 -0.1105 -0.7395 -0.663 -0.7735c -0.051 -0.051 -0.051 -0.2295 0 -0.2805c 0.255 0.0085 0.663 0.017 1.003 0.017c 0.34 0 0.595 -0.0085 0.85 -0.017c 0.051 0.051 0.051 0.2295 0 0.2805c -0.4335 0.0425 -0.5185 0.0765 -0.5185 0.7735v 1.8445c 0 0.2635 0.0255 0.4335 0.357 0.4335h 1.0285c 0.3145 0 0.3655 -0.0935 0.3655 -0.4335v -1.8445c 0 -0.697 -0.085 -0.7395 -0.527 -0.7735c -0.0425 -0.051 -0.0425 -0.2295 0 -0.2805c 0.2125 0.0085 0.527 0.017 0.867 0.017c 0.34 0 0.7225 -0.0085 0.9605 -0.017c 0.0425 0.051 0.0425 0.2295 0 0.2805c -0.5525 0.034 -0.629 0.0765 -0.629 0.7735v 1.5725c 0 0.697 0.1105 0.7395 0.578 0.7735c 0.051 0.051 0.051 0.2295 0 0.2805c -0.255 -0.0085 -0.578 -0.017 -0.918 -0.017Z "/></symbol><symbol id="g5D2E58E4CDB4D7E6C81847885E22D756" overflow="visible"><path d="M 0 0m 3.281 0.7905c -0.3145 -0.323 -0.561 -0.459 -1.054 -0.459c -0.306 0 -0.663 0.1785 -0.9265 0.612c -0.17 0.2805 -0.272 0.6715 -0.272 1.1645l 2.261 -0.017c 0.102 0 0.1615 0.051 0.1615 0.1445c 0 0.714 -0.255 1.479 -1.4365 1.479c -0.7395 0 -1.7 -0.7055 -1.7 -1.9975c 0 -0.476 0.119 -0.935 0.3995 -1.258c 0.289 -0.34 0.6885 -0.544 1.3005 -0.544c 0.646 0 1.105 0.2975 1.445 0.7395c -0.0255 0.085 -0.0765 0.1275 -0.1785 0.136Z m -2.227 1.6065c 0.1615 0.9605 0.7565 1.037 0.9605 1.037c 0.323 0 0.7055 -0.1785 0.7055 -0.8925c 0 -0.0765 -0.034 -0.119 -0.1275 -0.119Z "/></symbol><symbol id="g430571653545A60A3EF6386D136EADA3" overflow="visible"><path d="M 0 0m 1.326 3.128c -0.0085 0.255 -0.0255 0.476 -0.068 0.561c -0.017 0.0425 -0.034 0.068 -0.102 0.068c -0.238 -0.0935 -0.459 -0.17 -1.0455 -0.2465c -0.017 -0.051 0 -0.187 0.017 -0.238c 0.459 -0.0425 0.5525 -0.085 0.5525 -0.578v -3.6295c 0 -0.7055 -0.0935 -0.748 -0.612 -0.7735c -0.051 -0.051 -0.051 -0.2295 0 -0.2805c 0.2975 0.0085 0.612 0.017 0.952 0.017c 0.34 0 0.748 -0.0085 1.0285 -0.017c 0.051 0.051 0.051 0.2295 0 0.2805c -0.6035 0.034 -0.697 0.068 -0.697 0.7735v 0.918c 0 0.1105 0.034 0.102 0.119 0.068c 0.2125 -0.085 0.4675 -0.136 0.7395 -0.136c 0.476 0 0.901 0.1445 1.2495 0.476c 0.3995 0.391 0.629 0.918 0.629 1.6065c 0 0.901 -0.6375 1.734 -1.5045 1.734c -0.391 0 -0.8245 -0.255 -1.1645 -0.6375c -0.051 -0.051 -0.085 -0.051 -0.0935 0.034Z m 0.1615 -0.3145c 0.221 0.272 0.612 0.527 0.8585 0.527c 0.544 0 1.0115 -0.612 1.0115 -1.5725c 0 -0.697 -0.2465 -1.564 -1.1985 -1.564c -0.153 0 -0.4505 0.0425 -0.6035 0.1785c -0.17 0.153 -0.204 0.204 -0.204 0.51v 1.547c 0 0.1785 0.034 0.255 0.136 0.374Z "/></symbol><symbol id="g3D9A67B9902CBFFCF1182D85B33DBA41" overflow="visible"><path d="M 0 0m 1.241 3.6465c -0.3655 0 -0.663 0.0085 -0.9435 0.017c -0.051 -0.051 -0.051 -0.2295 0 -0.2805c 0.5185 -0.034 0.612 -0.068 0.612 -0.7735v -1.5725c 0 -0.7055 -0.0935 -0.731 -0.612 -0.7735c -0.051 -0.051 -0.051 -0.2295 0 -0.2805c 0.2805 0.0085 0.578 0.017 0.952 0.017c 0.3145 0 0.595 -0.017 1.1645 -0.017c 0.731 0 1.2835 0.204 1.2835 1.0455c 0 0.476 -0.2975 0.8075 -0.816 0.901v 0.0255c 0.391 0.0765 0.6885 0.3485 0.6885 0.8585c 0 0.595 -0.3655 0.85 -1.394 0.85c -0.3485 0 -0.5695 -0.017 -0.935 -0.017Z m 0.34 -1.802h 0.646c 0.5185 0 0.7395 -0.34 0.7395 -0.85c 0 -0.5695 -0.323 -0.731 -0.782 -0.731c -0.442 0 -0.6035 0.0765 -0.6035 0.4675Z m 0 0.2465v 0.986c 0 0.255 0.1955 0.306 0.6035 0.306c 0.442 0 0.7055 -0.119 0.7055 -0.629c 0 -0.34 -0.221 -0.663 -0.748 -0.663Z "/></symbol><symbol id="gF931FC691828778A920607CF18B9C32A" overflow="visible"><path d="M 0 0m 2.4905 0.408c 0.051 -0.2635 0.1445 -0.493 0.5695 -0.493c 0.323 0 0.629 0.1445 0.8075 0.3145c -0.017 0.102 -0.051 0.1785 -0.1445 0.2295c -0.0595 -0.051 -0.204 -0.136 -0.3145 -0.136c -0.2465 0 -0.255 0.3315 -0.255 0.7225v 1.2495c 0 1.207 -0.663 1.4365 -1.2835 1.4365c -0.697 0 -1.4025 -0.459 -1.4025 -0.9435c 0 -0.204 0.102 -0.306 0.2975 -0.306c 0.2465 0 0.3995 0.1785 0.3995 0.289c 0 0.0595 -0.0085 0.119 -0.0255 0.153c -0.0085 0.0255 -0.017 0.0765 -0.017 0.17c 0 0.2635 0.357 0.357 0.68 0.357c 0.289 0 0.6885 -0.1445 0.6885 -1.105c 0 -0.0595 -0.0255 -0.0935 -0.051 -0.102l -0.731 -0.1785c -0.816 -0.204 -1.4025 -0.6545 -1.4025 -1.2325c 0 -0.697 0.476 -0.918 1.071 -0.918c 0.2975 0 0.5525 0.068 0.9265 0.357l 0.17 0.136Z m 0 1.5725v -1.122c 0 -0.1105 -0.051 -0.17 -0.119 -0.221c -0.221 -0.1785 -0.51 -0.374 -0.748 -0.374c -0.425 0 -0.612 0.34 -0.612 0.6035c 0 0.3825 0.1785 0.7735 0.8075 0.935Z "/></symbol><symbol id="gE7AE90A8EDDEF3DDB67EE78D36D80337" overflow="visible"><path d="M 0 0m 1.683 0.5355c -0.0255 0 -0.0595 0.017 -0.0595 0.102v 1.938c 0 0.7055 0.1785 0.782 0.612 0.8075c 0.051 0.051 0.051 0.2295 0 0.2805c -0.1955 -0.0085 -0.68 -0.017 -0.9945 -0.017c -0.2805 0 -0.6205 0.0085 -0.9435 0.017c -0.051 -0.051 -0.051 -0.2295 0 -0.2805c 0.5185 -0.0255 0.6545 -0.102 0.6545 -0.8075v -1.5045c 0 -0.7055 -0.136 -0.782 -0.6545 -0.8075c -0.051 -0.051 -0.051 -0.2295 0 -0.2805c 0.3315 0.0085 0.6715 0.017 0.9435 0.017c 0.1955 0 0.425 -0.0085 0.5185 -0.017c 0.0425 0.119 0.119 0.289 0.2125 0.459l 1.326 2.6605c 0.0255 0 0.0595 -0.017 0.0595 -0.102v -1.9295c 0 -0.7055 -0.1785 -0.782 -0.612 -0.8075c -0.051 -0.051 -0.051 -0.2295 0 -0.2805c 0.1955 0.0085 0.6545 0.017 0.9945 0.017c 0.2635 0 0.612 -0.0085 0.9435 -0.017c 0.051 0.051 0.051 0.2295 0 0.2805c -0.5185 0.0255 -0.6545 0.102 -0.6545 0.8075v 1.5045c 0 0.7055 0.136 0.782 0.6545 0.8075c 0.051 0.051 0.051 0.2295 0 0.2805c -0.34 -0.0085 -0.68 -0.017 -0.9435 -0.017c -0.187 0 -0.425 0.0085 -0.51 0.017c -0.068 -0.153 -0.1445 -0.3315 -0.221 -0.476Z "/></symbol><symbol id="g3EDD64AE7B5A40E8FE9DD75D51E8EE8A" overflow="visible"><path d="M 0 0m 1.547 1.037c 0 -0.7055 -0.0935 -0.748 -0.612 -0.7735c -0.051 -0.051 -0.051 -0.2295 0 -0.2805c 0.3315 0.0085 0.6715 0.017 0.952 0.017c 0.289 0 0.6205 -0.0085 0.9435 -0.017c 0.051 0.051 0.051 0.2295 0 0.2805c -0.5185 0.0255 -0.612 0.068 -0.612 0.7735v 2.295h 0.1445c 0.6885 0 0.8245 -0.238 0.969 -0.9265c 0.1105 0 0.221 0.034 0.221 0.034c -0.051 0.391 -0.085 0.765 -0.0935 1.258c -0.1955 -0.017 -0.833 -0.051 -1.258 -0.051h -0.6375c -0.425 0 -0.901 0.0255 -1.241 0.051c -0.0085 -0.493 -0.0425 -0.867 -0.102 -1.258c 0 0 0.119 -0.034 0.2295 -0.034c 0.1445 0.6885 0.272 0.9265 0.969 0.9265h 0.1275Z "/></symbol><symbol id="gE34E15A46C94CBC2E6ABE8844A1DDB21" overflow="visible"><path d="M 0 0m 0.3485 1.7425c 0 -0.867 0.578 -1.8275 1.785 -1.8275c 0.544 0 0.9605 0.1955 1.2495 0.476c 0.3825 0.374 0.5525 0.9095 0.5525 1.428c 0 0.884 -0.4845 1.9125 -1.785 1.9125c -0.561 0 -1.02 -0.2295 -1.3345 -0.595c -0.306 -0.3655 -0.4675 -0.8585 -0.4675 -1.394Z m 1.6745 1.6915c 0.731 0 1.1815 -0.663 1.1815 -1.887c 0 -1.071 -0.5525 -1.3345 -0.952 -1.3345c -0.884 0 -1.173 1.071 -1.173 1.7255c 0 0.7395 0.1785 1.496 0.9435 1.496Z "/></symbol><symbol id="g8C1172E200F7C8B0584A0B9E041FADA3" overflow="visible"><path d="M 0 0m 3.128 4.9555c 0 0.5525 0.034 0.8925 0.034 0.8925c 0 0.0595 -0.034 0.085 -0.1105 0.085c -0.2125 -0.085 -0.85 -0.204 -1.19 -0.2295c -0.017 -0.068 0 -0.204 0.051 -0.255c 0.493 -0.034 0.544 -0.0595 0.544 -0.697v -1.309c -0.1615 0.1785 -0.3655 0.289 -0.629 0.289c -0.7735 0 -1.496 -0.731 -1.496 -2.091c 0 -0.918 0.459 -1.7255 1.309 -1.7255c 0.34 0 0.595 0.102 0.816 0.34v -1.19c 0 -0.7055 -0.0935 -0.748 -0.612 -0.7735c -0.051 -0.051 -0.051 -0.2295 0 -0.2805c 0.2975 0.0085 0.612 0.017 0.952 0.017c 0.34 0 0.663 -0.0085 0.9435 -0.017c 0.051 0.051 0.051 0.2295 0 0.2805c -0.5185 0.0255 -0.612 0.068 -0.612 0.7735v 1.0965c 0.187 -0.187 0.374 -0.2465 0.6375 -0.2465c 0.884 0 1.4875 0.9265 1.4875 2.074c 0 0.9435 -0.4505 1.7425 -1.3005 1.7425c -0.3995 0 -0.6375 -0.153 -0.8245 -0.3825Z m 0.5865 -1.564c 0.7055 0 0.8415 -0.9095 0.8415 -1.6235c 0 -0.7395 -0.136 -1.513 -0.8755 -1.513c -0.1785 0 -0.3655 0.051 -0.5525 0.323v 2.4565c 0.187 0.272 0.3995 0.357 0.5865 0.357Z m -1.836 -3.1365c -0.697 0 -0.85 0.918 -0.85 1.632c 0 0.7395 0.153 1.5045 0.8925 1.5045c 0.187 0 0.3485 -0.085 0.5355 -0.3145v -2.448c -0.1615 -0.255 -0.3485 -0.374 -0.578 -0.374Z "/></symbol><symbol id="gC8932C6BA7F518DC74E87E2F4A0224EB" overflow="visible"><path d="M 0 0m 4.0715 2.6095c 0 0.7055 0.0935 0.731 0.612 0.7735c 0.051 0.051 0.051 0.2295 0 0.2805c -0.2975 -0.017 -0.6715 -0.017 -0.952 -0.017c -0.238 0 -0.578 0.0085 -0.9095 0.017c -0.051 -0.051 -0.051 -0.2295 0 -0.2805c 0.5185 -0.034 0.578 -0.068 0.578 -0.7735v -0.5525h -1.819v 0.5525c 0 0.7055 0.0595 0.731 0.578 0.7735c 0.051 0.051 0.051 0.2295 0 0.2805c -0.323 -0.0085 -0.646 -0.017 -0.918 -0.017c -0.255 0 -0.6035 0.0085 -0.9435 0.017c -0.051 -0.051 -0.051 -0.2295 0 -0.2805c 0.5185 -0.034 0.612 -0.068 0.612 -0.7735v -1.5725c 0 -0.7055 -0.0935 -0.731 -0.612 -0.7735c -0.051 -0.051 -0.051 -0.2295 0 -0.2805c 0.34 0.0085 0.68 0.017 0.952 0.017c 0.272 0 0.6035 -0.0085 0.9095 -0.017c 0.051 0.051 0.051 0.2295 0 0.2805c -0.5185 0.034 -0.578 0.068 -0.578 0.7735v 0.7395h 1.819v -0.7395c 0 -0.7055 -0.0595 -0.731 -0.578 -0.7735c -0.051 -0.051 -0.051 -0.2295 0 -0.2805c 0.306 0.0085 0.6205 0.017 0.918 0.017c 0.255 0 0.612 -0.0085 0.9435 -0.017c 0.051 0.051 0.051 0.2295 0 0.2805c -0.5185 0.034 -0.612 0.068 -0.612 0.7735Z "/></symbol></defs></svg>