<svg viewBox="0 0 251.275590551 84.031496063" width="251.275590551pt" height="84.031496063pt" xmlns="http://www.w3.org/2000/svg" xmlns:xlink="http://www.w3.org/1999/xlink" xmlns:h5="http://www.w3.org/1999/xhtml"><path fill="#ffffff" fill-rule="nonzero" d="M 0 0v 84.031496063h 251.275590551v -84.031496063Z "/><g transform="translate(8 8)"><path fill="#ccc8c0" fill-rule="nonzero" stroke="#1a1a18" stroke-width="0.6" stroke-linecap="butt" stroke-linejoin="miter" stroke-miterlimit="4" transform="translate(0 22.677165354)" d="M 0 0m 3.401574803 0c -1.876934551 0 -3.401574803 1.524640252 -3.401574803 3.401574803v 15.874015748c 0 1.876934551 1.524640252 3.401574803 3.401574803 3.401574803h 44.220472441c 1.876934551 0 3.401574803 -1.524640252 3.401574803 -3.401574803v -15.874015748c 0 -1.876934551 -1.524640252 -3.401574803 -3.401574803 -3.401574803h -44.220472441Z "/><path fill="none" transform="translate(0.676311024 30.001748031)" d="M 0 0h 49.671v 8.028h -49.671v -8.028Z "/><g transform="translate(0.676311024 30.001748031)"><g transform="matrix(1 0 0 -1 0 5.922)"><use xlink:href="#gA5834380700F55B3689219A2CC4667E3" x="0" y="0" fill="#1a1a18" fill-rule="nonzero"/><use xlink:href="#g6EA5A1981697E2B5E95285C58F7F7AD0" x="5.274" y="0" fill="#1a1a18" fill-rule="nonzero"/><use xlink:href="#g2A7A063817D03B183B2F5455DB77D169" x="10.548" y="0" fill="#1a1a18" fill-rule="nonzero"/><use xlink:href="#gF7AD5B3248F8366898BA115B8D318C4E" x="18.189" y="0" fill="#1a1a18" fill-rule="nonzero"/><use xlink:href="#g47516AA720979696FAFCA8A7B93ACEFC" x="24.552" y="0" fill="#1a1a18" fill-rule="nonzero"/><use xlink:href="#g5F2B105DCE44482CD07DFE0B4651B637" x="27.234" y="0" fill="#1a1a18" fill-rule="nonzero"/><use xlink:href="#g7253BD4F4A12C91ABC7B03558525FA66" x="32.508" y="0" fill="#1a1a18" fill-rule="nonzero"/><use xlink:href="#g4AD90A9068D018AD3CEC8FD5EA9519DC" x="37.044" y="0" fill="#1a1a18" fill-rule="nonzero"/><use xlink:href="#g6EA5A1981697E2B5E95285C58F7F7AD0" x="41.715" y="0" fill="#1a1a18" fill-rule="nonzero"/><use xlink:href="#gFB58F9CAD08F4D0DFA3961AF05C28A35" x="46.989" y="0" fill="#1a1a18" fill-rule="nonzero"/></g></g><path fill="none" stroke="#1a1a18" stroke-width="0.6" stroke-linecap="butt" stroke-linejoin="miter" stroke-miterlimit="4" transform="translate(52.440944882 34.015748031)" d="M 0 0h 26.074733484"/><path fill="#1a1a18" fill-rule="nonzero" stroke="#1a1a18" stroke-width="0.6" stroke-linecap="butt" stroke-linejoin="miter" stroke-miterlimit="4" transform="translate(78.515678268 31.88976378)" d="M 0 0m 5.669291339 2.125984252l -5.669291339 2.125984252v -4.251968504l 5.669291339 2.125984252Z "/><path fill="#d5d2cb" fill-rule="nonzero" stroke="#1a1a18" stroke-width="0.6" stroke-linecap="butt" stroke-linejoin="miter" stroke-miterlimit="4" transform="translate(87.874015748)" d="M 0 0m 3.401574803 0c -1.876934551 0 -3.401574803 1.524640252 -3.401574803 3.401574803v 15.874015748c 0 1.876934551 1.524640252 3.401574803 3.401574803 3.401574803h 49.88976378c 1.876934551 0 3.401574803 -1.524640252 3.401574803 -3.401574803v -15.874015748c 0 -1.876934551 -1.524640252 -3.401574803 -3.401574803 -3.401574803h -49.88976378Z "/><path fill="none" transform="translate(80.521972441 7.324582677)" d="M 0 0h 71.397v 8.028h -71.397v -8.028Z "/><g transform="translate(80.521972299 7.324582677)"><g transform="matrix(1 0 0 -1 0 5.922)"><use xlink:href="#gF858BF125ABDFE8BFF08AFDEC4AC4E4" x="0" y="0" fill="#1a1a18" fill-rule="nonzero"/><use xlink:href="#gD351E21AD091924D522A6D2D6355C932" x="5.913" y="0" fill="#1a1a18" fill-rule="nonzero"/><use xlink:href="#g4AD90A9068D018AD3CEC8FD5EA9519DC" x="9.936" y="0" fill="#1a1a18" fill-rule="nonzero"/><use xlink:href="#g82C799C01D06EF19E125C6F4348D75CA" x="14.607" y="0" fill="#1a1a18" fill-rule="nonzero"/><use xlink:href="#gD351E21AD091924D522A6D2D6355C932" x="20.727" y="0" fill="#1a1a18" fill-rule="nonzero"/><use xlink:href="#g5F2B105DCE44482CD07DFE0B4651B637" x="24.75" y="0" fill="#1a1a18" fill-rule="nonzero"/><use xlink:href="#g611C332DF318E3AAFADBD04F1094DD79" x="30.024" y="0" fill="#1a1a18" fill-rule="nonzero"/><use xlink:href="#g3515EF5FD07324BC31659A9072C9EEF0" x="36.279" y="0" fill="#1a1a18" fill-rule="nonzero"/><use xlink:href="#gD351E21AD091924D522A6D2D6355C932" x="41.13" y="0" fill="#1a1a18" fill-rule="nonzero"/><use xlink:href="#gB118266EF18AECCCCEF724ECE6F3D1D3" x="45.153" y="0" fill="#1a1a18" fill-rule="nonzero"/><use xlink:href="#g7253BD4F4A12C91ABC7B03558525FA66" x="49.896" y="0" fill="#1a1a18" fill-rule="nonzero"/><use xlink:href="#g6F3F83F8220F4B0FE27ED35A349BC8A6" x="54.432" y="0" fill="#1a1a18" fill-rule="nonzero"/><use xlink:href="#gD351E21AD091924D522A6D2D6355C932" x="58.743" y="0" fill="#1a1a18" fill-rule="nonzero"/><use xlink:href="#gAE9E23F53692F92B7B295E455DF99330" x="62.766" y="0" fill="#1a1a18" fill-rule="nonzero"/><use xlink:href="#gF7AD5B3248F8366898BA115B8D318C4E" x="67.284" y="0" fill="#1a1a18" fill-rule="nonzero"/></g></g><path fill="none" transform="translate(147.401574803 7.463338537)" d="M 0 0h 8.89453125v 7.750488281h -8.89453125v -7.750488281Z "/><g transform="translate(147.401574759 7.463338441)"><g transform="matrix(1 0 0 -1 0 7.750488281)"><use xlink:href="#gB106C50952470D562E2639550BD4E5EC" x="0" y="0" fill="#7c7f6a" fill-rule="nonzero"/></g></g><path fill="#a3a597" fill-rule="nonzero" stroke="#1a1a18" stroke-width="0.6" stroke-linecap="butt" stroke-linejoin="miter" stroke-miterlimit="4" transform="translate(87.874015748 45.354330709)" d="M 0 0m 3.401574803 0c -1.876934551 0 -3.401574803 1.524640252 -3.401574803 3.401574803v 15.874015748c 0 1.876934551 1.524640252 3.401574803 3.401574803 3.401574803h 49.88976378c 1.876934551 0 3.401574803 -1.524640252 3.401574803 -3.401574803v -15.874015748c 0 -1.876934551 -1.524640252 -3.401574803 -3.401574803 -3.401574803h -49.88976378Z "/><path fill="none" transform="translate(74.685472441 52.678913386)" d="M 0 0h 83.07v 8.028h -83.07v -8.028Z "/><g transform="translate(74.685472299 52.678913386)"><g transform="matrix(1 0 0 -1 0 5.922)"><use xlink:href="#g9C9C9262F30302871979B086E3504457" x="0" y="0" fill="#1a1a18" fill-rule="nonzero"/><use xlink:href="#gF7AD5B3248F8366898BA115B8D318C4E" x="4.401" y="0" fill="#1a1a18" fill-rule="nonzero"/><use xlink:href="#gAE9E23F53692F92B7B295E455DF99330" x="8.514" y="0" fill="#1a1a18" fill-rule="nonzero"/><use xlink:href="#g611C332DF318E3AAFADBD04F1094DD79" x="13.032" y="0" fill="#1a1a18" fill-rule="nonzero"/><use xlink:href="#gD351E21AD091924D522A6D2D6355C932" x="17.037" y="0" fill="#1a1a18" fill-rule="nonzero"/><use xlink:href="#g4AD90A9068D018AD3CEC8FD5EA9519DC" x="21.06" y="0" fill="#1a1a18" fill-rule="nonzero"/><use xlink:href="#g6EA5A1981697E2B5E95285C58F7F7AD0" x="25.731" y="0" fill="#1a1a18" fill-rule="nonzero"/><use xlink:href="#gCC8431763A18574B9D70D89AC0A75466" x="31.005" y="0" fill="#1a1a18" fill-rule="nonzero"/><use xlink:href="#gAE9E23F53692F92B7B295E455DF99330" x="37.584" y="0" fill="#1a1a18" fill-rule="nonzero"/><use xlink:href="#g6EA5A1981697E2B5E95285C58F7F7AD0" x="42.102" y="0" fill="#1a1a18" fill-rule="nonzero"/><use xlink:href="#g785243DD0DBD5D3E5E793E04FC62E83F" x="47.376" y="0" fill="#1a1a18" fill-rule="nonzero"/><use xlink:href="#gD351E21AD091924D522A6D2D6355C932" x="55.017" y="0" fill="#1a1a18" fill-rule="nonzero"/><use xlink:href="#g3515EF5FD07324BC31659A9072C9EEF0" x="59.04" y="0" fill="#1a1a18" fill-rule="nonzero"/><use xlink:href="#g5F2B105DCE44482CD07DFE0B4651B637" x="63.891" y="0" fill="#1a1a18" fill-rule="nonzero"/><use xlink:href="#g6EA5A1981697E2B5E95285C58F7F7AD0" x="69.165" y="0" fill="#1a1a18" fill-rule="nonzero"/><use xlink:href="#gAE9E23F53692F92B7B295E455DF99330" x="74.439" y="0" fill="#1a1a18" fill-rule="nonzero"/><use xlink:href="#gF7AD5B3248F8366898BA115B8D318C4E" x="78.957" y="0" fill="#1a1a18" fill-rule="nonzero"/></g></g><path fill="none" transform="translate(147.401574803 52.817669245)" d="M 0 0h 9.528320312v 7.750488281h -9.528320312v -7.750488281Z "/><g transform="translate(147.401574755 52.81766915)"><g transform="matrix(1 0 0 -1 0 7.750488281)"><use xlink:href="#g2FA72D45C16B05C4172FD5F1AC12DB62" x="0" y="0" fill="#1a1a18" fill-rule="nonzero"/></g></g><path fill="none" stroke="#1a1a18" stroke-width="0.7" stroke-linecap="butt" stroke-linejoin="miter" stroke-miterlimit="4" transform="translate(36.850393701 41.102362205)" d="M 0 0l 44.648494705 13.642595604"/><path fill="#1a1a18" fill-rule="nonzero" stroke="#1a1a18" stroke-width="0.7" stroke-linecap="butt" stroke-linejoin="miter" stroke-miterlimit="4" transform="translate(80.877636439 52.711769317)" d="M 0 0m 6.043087687 3.689860415l -6.043087687 0.376516339l 1.242504028 -4.066376754l 4.800583658 3.689860415Z "/><path fill="none" stroke="#1a1a18" stroke-width="0.6" stroke-linecap="butt" stroke-linejoin="miter" stroke-miterlimit="4" transform="translate(145.984251969 56.692913386)" d="M 0 0h 23.240087814"/><path fill="#1a1a18" fill-rule="nonzero" stroke="#1a1a18" stroke-width="0.6" stroke-linecap="butt" stroke-linejoin="miter" stroke-miterlimit="4" transform="translate(169.224339685 54.566929134)" d="M 0 0m 5.669291339 2.125984252l -5.669291339 2.125984252v -4.251968504l 5.669291339 2.125984252Z "/><path fill="#ccc8c0" fill-rule="nonzero" stroke="#1a1a18" stroke-width="0.6" stroke-linecap="butt" stroke-linejoin="miter" stroke-miterlimit="4" transform="translate(184.251968504 45.354330709)" d="M 0 0m 3.401574803 0c -1.876934551 0 -3.401574803 1.524640252 -3.401574803 3.401574803v 15.874015748c 0 1.876934551 1.524640252 3.401574803 3.401574803 3.401574803h 44.220472441c 1.876934551 0 3.401574803 -1.524640252 3.401574803 -3.401574803v -15.874015748c 0 -1.876934551 -1.524640252 -3.401574803 -3.401574803 -3.401574803h -44.220472441Z "/><path fill="none" transform="translate(187.304279528 52.678913386)" d="M 0 0h 44.919v 8.028h -44.919v -8.028Z "/><g transform="translate(187.304279528 52.678913386)"><g transform="matrix(1 0 0 -1 0 5.922)"><use xlink:href="#gA5834380700F55B3689219A2CC4667E3" x="0" y="0" fill="#1a1a18" fill-rule="nonzero"/><use xlink:href="#gD351E21AD091924D522A6D2D6355C932" x="5.274" y="0" fill="#1a1a18" fill-rule="nonzero"/><use xlink:href="#g4AD90A9068D018AD3CEC8FD5EA9519DC" x="9.297" y="0" fill="#1a1a18" fill-rule="nonzero"/><use xlink:href="#gD351E21AD091924D522A6D2D6355C932" x="13.968" y="0" fill="#1a1a18" fill-rule="nonzero"/><use xlink:href="#g6F3F83F8220F4B0FE27ED35A349BC8A6" x="17.991" y="0" fill="#1a1a18" fill-rule="nonzero"/><use xlink:href="#gF7AD5B3248F8366898BA115B8D318C4E" x="22.302" y="0" fill="#1a1a18" fill-rule="nonzero"/><use xlink:href="#g4AD90A9068D018AD3CEC8FD5EA9519DC" x="26.415" y="0" fill="#1a1a18" fill-rule="nonzero"/><use xlink:href="#gD351E21AD091924D522A6D2D6355C932" x="31.086" y="0" fill="#1a1a18" fill-rule="nonzero"/><use xlink:href="#g5F2B105DCE44482CD07DFE0B4651B637" x="35.109" y="0" fill="#1a1a18" fill-rule="nonzero"/><use xlink:href="#g7253BD4F4A12C91ABC7B03558525FA66" x="40.383" y="0" fill="#1a1a18" fill-rule="nonzero"/></g></g></g><defs><symbol id="gA5834380700F55B3689219A2CC4667E3" overflow="visible"><path d="M 0 0m 3.933 3.861h -2.556c -0.36 0 -0.702 0.009 -0.972 0.018c -0.054 -0.054 -0.054 -0.243 0 -0.297c 0.495 -0.036 0.612 -0.081 0.612 -0.819v -1.665c 0 -0.738 -0.117 -0.783 -0.702 -0.819c -0.054 -0.054 -0.054 -0.243 0 -0.297c 0.27 0.009 0.702 0.018 1.062 0.018c 0.36 0 0.63 -0.009 0.9 -0.018c 0.054 0.054 0.054 0.243 0 0.297c -0.459 0.045 -0.549 0.081 -0.549 0.819v 1.953c 0 0.279 0.027 0.459 0.378 0.459h 1.089c 0.333 0 0.387 -0.099 0.387 -0.459v -1.953c 0 -0.738 -0.09 -0.783 -0.558 -0.819c -0.045 -0.054 -0.045 -0.243 0 -0.297c 0.225 0.009 0.558 0.018 0.918 0.018c 0.36 0 0.765 -0.009 1.017 -0.018c 0.045 0.054 0.045 0.243 0 0.297c -0.585 0.036 -0.666 0.081 -0.666 0.819v 1.665c 0 0.738 0.117 0.783 0.612 0.819c 0.054 0.054 0.054 0.243 0 0.297c -0.27 -0.009 -0.612 -0.018 -0.972 -0.018Z "/></symbol><symbol id="g6EA5A1981697E2B5E95285C58F7F7AD0" overflow="visible"><path d="M 0 0m 1.782 0.567c -0.027 0 -0.063 0.018 -0.063 0.108v 2.052c 0 0.747 0.189 0.828 0.648 0.855c 0.054 0.054 0.054 0.243 0 0.297c -0.207 -0.009 -0.72 -0.018 -1.053 -0.018c -0.297 0 -0.657 0.009 -0.999 0.018c -0.054 -0.054 -0.054 -0.243 0 -0.297c 0.549 -0.027 0.693 -0.108 0.693 -0.855v -1.593c 0 -0.747 -0.144 -0.828 -0.693 -0.855c -0.054 -0.054 -0.054 -0.243 0 -0.297c 0.351 0.009 0.711 0.018 0.999 0.018c 0.207 0 0.45 -0.009 0.549 -0.018c 0.045 0.126 0.126 0.306 0.225 0.486l 1.404 2.817c 0.027 0 0.063 -0.018 0.063 -0.108v -2.043c 0 -0.747 -0.189 -0.828 -0.648 -0.855c -0.054 -0.054 -0.054 -0.243 0 -0.297c 0.207 0.009 0.693 0.018 1.053 0.018c 0.279 0 0.648 -0.009 0.999 -0.018c 0.054 0.054 0.054 0.243 0 0.297c -0.549 0.027 -0.693 0.108 -0.693 0.855v 1.593c 0 0.747 0.144 0.828 0.693 0.855c 0.054 0.054 0.054 0.243 0 0.297c -0.36 -0.009 -0.72 -0.018 -0.999 -0.018c -0.198 0 -0.45 0.009 -0.54 0.018c -0.072 -0.162 -0.153 -0.351 -0.234 -0.504Z "/></symbol><symbol id="g2A7A063817D03B183B2F5455DB77D169" overflow="visible"><path d="M 0 0m 6.021 0c 0.756 0 1.017 -0.72 1.134 -1.161c 0.081 -0.018 0.162 -0.018 0.234 0.009l -0.054 1.197c -0.009 0.162 -0.144 0.207 -0.27 0.234c -0.207 0.045 -0.351 0.099 -0.351 0.819v 1.665c 0 0.738 0.117 0.783 0.612 0.819c 0.054 0.054 0.054 0.243 0 0.297c -0.27 -0.009 -0.612 -0.018 -0.972 -0.018c -0.36 0 -0.63 0.009 -0.9 0.018c -0.054 -0.054 -0.054 -0.243 0 -0.297c 0.459 -0.045 0.549 -0.081 0.549 -0.819v -1.953c 0 -0.279 -0.027 -0.459 -0.378 -0.459h -1.062c -0.27 0 -0.387 0.081 -0.387 0.459v 1.953c 0.009 0.738 0.072 0.783 0.558 0.819c 0.045 0.054 0.045 0.243 0 0.297c -0.225 -0.009 -0.558 -0.018 -0.918 -0.018c -0.36 0 -0.657 0.009 -0.882 0.018c -0.045 -0.054 -0.045 -0.243 0 -0.297c 0.45 -0.036 0.54 -0.081 0.531 -0.819v -1.962c 0 -0.333 -0.045 -0.45 -0.378 -0.45h -1.026c -0.333 0 -0.387 0.099 -0.387 0.459v 1.953c 0 0.738 0.09 0.783 0.558 0.819c 0.045 0.054 0.045 0.243 0 0.297c -0.225 -0.009 -0.558 -0.018 -0.918 -0.018c -0.36 0 -0.675 0.009 -0.927 0.018c -0.045 -0.054 -0.045 -0.243 0 -0.297c 0.495 -0.036 0.576 -0.081 0.576 -0.819v -1.665c 0 -0.738 -0.117 -0.783 -0.612 -0.819c -0.054 -0.054 -0.054 -0.243 0 -0.297c 0.27 0.009 0.612 0.018 0.972 0.018Z "/></symbol><symbol id="gF7AD5B3248F8366898BA115B8D318C4E" overflow="visible"><path d="M 0 0m 2.637 0.432c 0.054 -0.279 0.153 -0.522 0.603 -0.522c 0.342 0 0.666 0.153 0.855 0.333c -0.018 0.108 -0.054 0.189 -0.153 0.243c -0.063 -0.054 -0.216 -0.144 -0.333 -0.144c -0.261 0 -0.27 0.351 -0.27 0.765v 1.323c 0 1.278 -0.702 1.521 -1.359 1.521c -0.738 0 -1.485 -0.486 -1.485 -0.999c 0 -0.216 0.108 -0.324 0.315 -0.324c 0.261 0 0.423 0.189 0.423 0.306c 0 0.063 -0.009 0.126 -0.027 0.162c -0.009 0.027 -0.018 0.081 -0.018 0.18c 0 0.279 0.378 0.378 0.72 0.378c 0.306 0 0.729 -0.153 0.729 -1.17c 0 -0.063 -0.027 -0.099 -0.054 -0.108l -0.774 -0.189c -0.864 -0.216 -1.485 -0.693 -1.485 -1.305c 0 -0.738 0.504 -0.972 1.134 -0.972c 0.315 0 0.585 0.072 0.981 0.378l 0.18 0.144Z m 0 1.665v -1.188c 0 -0.117 -0.054 -0.18 -0.126 -0.234c -0.234 -0.189 -0.54 -0.396 -0.792 -0.396c -0.45 0 -0.648 0.36 -0.648 0.639c 0 0.405 0.189 0.819 0.855 0.99Z "/></symbol><symbol id="g47516AA720979696FAFCA8A7B93ACEFC" overflow="visible"><path d="M 0 0m 0.396 2.268c 0 -0.405 0.036 -2.484 1.908 -4.104c 0.09 0.018 0.162 0.081 0.189 0.153c -0.297 0.342 -1.35 1.584 -1.35 3.951c 0 2.367 1.062 3.609 1.35 3.933c -0.027 0.09 -0.09 0.153 -0.189 0.162c -1.071 -0.918 -1.908 -2.421 -1.908 -4.095Z "/></symbol><symbol id="g5F2B105DCE44482CD07DFE0B4651B637" overflow="visible"><path d="M 0 0m 4.311 2.763c 0 0.747 0.099 0.774 0.648 0.819c 0.054 0.054 0.054 0.243 0 0.297c -0.315 -0.018 -0.711 -0.018 -1.008 -0.018c -0.252 0 -0.612 0.009 -0.963 0.018c -0.054 -0.054 -0.054 -0.243 0 -0.297c 0.549 -0.036 0.612 -0.072 0.612 -0.819v -0.585h -1.926v 0.585c 0 0.747 0.063 0.774 0.612 0.819c 0.054 0.054 0.054 0.243 0 0.297c -0.342 -0.009 -0.684 -0.018 -0.972 -0.018c -0.27 0 -0.639 0.009 -0.999 0.018c -0.054 -0.054 -0.054 -0.243 0 -0.297c 0.549 -0.036 0.648 -0.072 0.648 -0.819v -1.665c 0 -0.747 -0.099 -0.774 -0.648 -0.819c -0.054 -0.054 -0.054 -0.243 0 -0.297c 0.36 0.009 0.72 0.018 1.008 0.018c 0.288 0 0.639 -0.009 0.963 -0.018c 0.054 0.054 0.054 0.243 0 0.297c -0.549 0.036 -0.612 0.072 -0.612 0.819v 0.783h 1.926v -0.783c 0 -0.747 -0.063 -0.774 -0.612 -0.819c -0.054 -0.054 -0.054 -0.243 0 -0.297c 0.324 0.009 0.657 0.018 0.972 0.018c 0.27 0 0.648 -0.009 0.999 -0.018c 0.054 0.054 0.054 0.243 0 0.297c -0.549 0.036 -0.648 0.072 -0.648 0.819Z "/></symbol><symbol id="g7253BD4F4A12C91ABC7B03558525FA66" overflow="visible"><path d="M 0 0m 0.369 1.845c 0 -0.918 0.612 -1.935 1.89 -1.935c 0.576 0 1.017 0.207 1.323 0.504c 0.405 0.396 0.585 0.963 0.585 1.512c 0 0.936 -0.513 2.025 -1.89 2.025c -0.594 0 -1.08 -0.243 -1.413 -0.63c -0.324 -0.387 -0.495 -0.909 -0.495 -1.476Z m 1.773 1.791c 0.774 0 1.251 -0.702 1.251 -1.998c 0 -1.134 -0.585 -1.413 -1.008 -1.413c -0.936 0 -1.242 1.134 -1.242 1.827c 0 0.783 0.189 1.584 0.999 1.584Z "/></symbol><symbol id="g4AD90A9068D018AD3CEC8FD5EA9519DC" overflow="visible"><path d="M 0 0m 1.404 3.312c -0.009 0.27 -0.027 0.504 -0.072 0.594c -0.018 0.045 -0.036 0.072 -0.108 0.072c -0.252 -0.099 -0.486 -0.18 -1.107 -0.261c -0.018 -0.054 0 -0.198 0.018 -0.252c 0.486 -0.045 0.585 -0.09 0.585 -0.612v -3.843c 0 -0.747 -0.099 -0.792 -0.648 -0.819c -0.054 -0.054 -0.054 -0.243 0 -0.297c 0.315 0.009 0.648 0.018 1.008 0.018c 0.36 0 0.792 -0.009 1.089 -0.018c 0.054 0.054 0.054 0.243 0 0.297c -0.639 0.036 -0.738 0.072 -0.738 0.819v 0.972c 0 0.117 0.036 0.108 0.126 0.072c 0.225 -0.09 0.495 -0.144 0.783 -0.144c 0.504 0 0.954 0.153 1.323 0.504c 0.423 0.414 0.666 0.972 0.666 1.701c 0 0.954 -0.675 1.836 -1.593 1.836c -0.414 0 -0.873 -0.27 -1.233 -0.675c -0.054 -0.054 -0.09 -0.054 -0.099 0.036Z m 0.171 -0.333c 0.234 0.288 0.648 0.558 0.909 0.558c 0.576 0 1.071 -0.648 1.071 -1.665c 0 -0.738 -0.261 -1.656 -1.269 -1.656c -0.162 0 -0.477 0.045 -0.639 0.189c -0.18 0.162 -0.216 0.216 -0.216 0.54v 1.638c 0 0.189 0.036 0.27 0.144 0.396Z "/></symbol><symbol id="gFB58F9CAD08F4D0DFA3961AF05C28A35" overflow="visible"><path d="M 0 0m 2.286 2.268c 0 0.405 -0.036 2.484 -1.908 4.104c -0.09 -0.018 -0.162 -0.081 -0.189 -0.153c 0.297 -0.342 1.35 -1.584 1.35 -3.951c 0 -2.367 -1.062 -3.609 -1.35 -3.933c 0.027 -0.09 0.09 -0.153 0.189 -0.162c 1.071 0.918 1.908 2.421 1.908 4.095Z "/></symbol><symbol id="gF858BF125ABDFE8BFF08AFDEC4AC4E4" overflow="visible"><path d="M 0 0m 3.312 5.247c 0 0.585 0.036 0.945 0.036 0.945c 0 0.063 -0.036 0.09 -0.117 0.09c -0.225 -0.09 -0.9 -0.216 -1.26 -0.243c -0.018 -0.072 0 -0.216 0.054 -0.27c 0.522 -0.036 0.576 -0.063 0.576 -0.738v -1.386c -0.171 0.189 -0.387 0.306 -0.666 0.306c -0.819 0 -1.584 -0.774 -1.584 -2.214c 0 -0.972 0.486 -1.827 1.386 -1.827c 0.36 0 0.63 0.108 0.864 0.36v -1.26c 0 -0.747 -0.099 -0.792 -0.648 -0.819c -0.054 -0.054 -0.054 -0.243 0 -0.297c 0.315 0.009 0.648 0.018 1.008 0.018c 0.36 0 0.702 -0.009 0.999 -0.018c 0.054 0.054 0.054 0.243 0 0.297c -0.549 0.027 -0.648 0.072 -0.648 0.819v 1.161c 0.198 -0.198 0.396 -0.261 0.675 -0.261c 0.936 0 1.575 0.981 1.575 2.196c 0 0.999 -0.477 1.845 -1.377 1.845c -0.423 0 -0.675 -0.162 -0.873 -0.405Z m 0.621 -1.656c 0.747 0 0.891 -0.963 0.891 -1.719c 0 -0.783 -0.144 -1.602 -0.927 -1.602c -0.189 0 -0.387 0.054 -0.585 0.342v 2.601c 0.198 0.288 0.423 0.378 0.621 0.378Z m -1.944 -3.321c -0.738 0 -0.9 0.972 -0.9 1.728c 0 0.783 0.162 1.593 0.945 1.593c 0.198 0 0.369 -0.09 0.567 -0.333v -2.592c -0.171 -0.27 -0.369 -0.396 -0.612 -0.396Z "/></symbol><symbol id="gD351E21AD091924D522A6D2D6355C932" overflow="visible"><path d="M 0 0m 3.474 0.837c -0.333 -0.342 -0.594 -0.486 -1.116 -0.486c -0.324 0 -0.702 0.189 -0.981 0.648c -0.18 0.297 -0.288 0.711 -0.288 1.233l 2.394 -0.018c 0.108 0 0.171 0.054 0.171 0.153c 0 0.756 -0.27 1.566 -1.521 1.566c -0.783 0 -1.8 -0.747 -1.8 -2.115c 0 -0.504 0.126 -0.99 0.423 -1.332c 0.306 -0.36 0.729 -0.576 1.377 -0.576c 0.684 0 1.17 0.315 1.53 0.783c -0.027 0.09 -0.081 0.135 -0.189 0.144Z m -2.358 1.701c 0.171 1.017 0.801 1.098 1.017 1.098c 0.342 0 0.747 -0.189 0.747 -0.945c 0 -0.081 -0.036 -0.126 -0.135 -0.126Z "/></symbol><symbol id="g82C799C01D06EF19E125C6F4348D75CA" overflow="visible"><path d="M 0 0m 1.053 2.754l -0.054 -1.674c -0.027 -0.756 -0.162 -0.774 -0.684 -0.801c -0.054 -0.054 -0.054 -0.243 0 -0.297c 0.18 0.009 0.63 0.018 0.774 0.018c 0.18 0 0.603 -0.009 0.783 -0.018c 0.054 0.054 0.054 0.243 0 0.297c -0.513 0.036 -0.549 0.126 -0.531 0.801l 0.063 2.205c 0 0.081 0.036 0.081 0.072 0l 1.305 -3.186c 0.036 -0.027 0.072 -0.027 0.099 0l 1.476 3.177c 0.045 0.099 0.09 0.108 0.09 0l -0.009 -2.178c 0 -0.747 -0.063 -0.774 -0.612 -0.819c -0.054 -0.054 -0.054 -0.243 0 -0.297c 0.324 0.009 0.657 0.018 0.972 0.018c 0.27 0 0.657 -0.009 1.008 -0.018c 0.054 0.054 0.054 0.243 0 0.297c -0.549 0.036 -0.648 0.072 -0.648 0.819l -0.018 1.665c -0.009 0.747 0.099 0.774 0.648 0.819c 0.054 0.054 0.054 0.243 0 0.297c -0.315 -0.018 -1.188 -0.018 -1.485 -0.018l -1.197 -2.574l -0.045 -0.09l -0.036 0.09l -1.053 2.574c -0.297 0 -1.251 0 -1.566 0.018c -0.054 -0.054 -0.054 -0.243 0 -0.297c 0.549 -0.045 0.675 -0.081 0.648 -0.828Z "/></symbol><symbol id="g611C332DF318E3AAFADBD04F1094DD79" overflow="visible"><path d="M 0 0m 1.638 1.098c 0 -0.747 -0.099 -0.792 -0.648 -0.819c -0.054 -0.054 -0.054 -0.243 0 -0.297c 0.351 0.009 0.711 0.018 1.008 0.018c 0.306 0 0.657 -0.009 0.999 -0.018c 0.054 0.054 0.054 0.243 0 0.297c -0.549 0.027 -0.648 0.072 -0.648 0.819v 2.43h 0.153c 0.729 0 0.873 -0.252 1.026 -0.981c 0.117 0 0.234 0.036 0.234 0.036c -0.054 0.414 -0.09 0.81 -0.099 1.332c -0.207 -0.018 -0.882 -0.054 -1.332 -0.054h -0.675c -0.45 0 -0.954 0.027 -1.314 0.054c -0.009 -0.522 -0.045 -0.918 -0.108 -1.332c 0 0 0.126 -0.036 0.243 -0.036c 0.153 0.729 0.288 0.981 1.026 0.981h 0.135Z "/></symbol><symbol id="g3515EF5FD07324BC31659A9072C9EEF0" overflow="visible"><path d="M 0 0m 1.458 2.763c 0 0.747 0.099 0.774 0.558 0.819c 0.054 0.054 0.054 0.243 0 0.297c -0.216 -0.009 -0.558 -0.018 -0.918 -0.018c -0.387 0 -0.693 0.009 -0.99 0.018c -0.054 -0.054 -0.054 -0.243 0 -0.297c 0.549 -0.036 0.648 -0.072 0.648 -0.819v -0.387c 0 -0.846 0.189 -1.179 1.026 -1.179c 0.567 0 1.017 0.324 1.386 0.594v -0.693c 0 -0.747 -0.099 -0.774 -0.648 -0.819c -0.054 -0.054 -0.054 -0.243 0 -0.297c 0.297 0.009 0.612 0.018 1.008 0.018c 0.387 0 0.72 -0.009 1.008 -0.018c 0.054 0.054 0.054 0.243 0 0.297c -0.549 0.036 -0.648 0.072 -0.648 0.819v 1.665c 0 0.747 0.099 0.774 0.648 0.819c 0.054 0.054 0.054 0.243 0 0.297c -0.306 -0.009 -0.612 -0.018 -1.008 -0.018c -0.351 0 -0.711 0.009 -0.918 0.018c -0.054 -0.054 -0.054 -0.243 0 -0.297c 0.459 -0.036 0.558 -0.072 0.558 -0.819v -0.648c -0.306 -0.27 -0.63 -0.513 -1.098 -0.513c -0.585 0 -0.612 0.306 -0.612 1.008Z "/></symbol><symbol id="gB118266EF18AECCCCEF724ECE6F3D1D3" overflow="visible"><path d="M 0 0m 3.762 1.098v 1.665c 0 0.738 0.117 0.783 0.612 0.819c 0.054 0.054 0.054 0.243 0 0.297c -0.27 -0.009 -0.612 -0.018 -0.972 -0.018h -1.701c -0.297 0 -0.648 0.009 -0.918 0.018c -0.054 -0.054 -0.054 -0.243 0 -0.297c 0.639 -0.045 0.729 -0.099 0.729 -1.071c 0 -0.945 -0.072 -1.44 -0.198 -1.809c -0.117 -0.324 -0.27 -0.441 -0.423 -0.441c -0.117 0 -0.153 0.072 -0.171 0.189c -0.027 0.171 -0.081 0.342 -0.333 0.342c -0.225 0 -0.351 -0.18 -0.351 -0.378c 0 -0.279 0.252 -0.522 0.666 -0.522c 0.459 0 0.711 0.234 0.918 0.72c 0.18 0.432 0.234 1.35 0.234 1.962c 0 0.702 0.027 0.936 0.387 0.936h 0.405c 0.342 0 0.405 -0.216 0.405 -0.522v -1.89c 0 -0.738 -0.09 -0.783 -0.558 -0.819c -0.045 -0.054 -0.045 -0.243 0 -0.297c 0.225 0.009 0.558 0.018 0.918 0.018c 0.36 0 0.765 -0.009 1.017 -0.018c 0.045 0.054 0.045 0.243 0 0.297c -0.585 0.036 -0.666 0.081 -0.666 0.819Z "/></symbol><symbol id="g6F3F83F8220F4B0FE27ED35A349BC8A6" overflow="visible"><path d="M 0 0m 1.314 3.861c -0.387 0 -0.702 0.009 -0.999 0.018c -0.054 -0.054 -0.054 -0.243 0 -0.297c 0.549 -0.036 0.648 -0.072 0.648 -0.819v -1.665c 0 -0.747 -0.099 -0.774 -0.648 -0.819c -0.054 -0.054 -0.054 -0.243 0 -0.297c 0.297 0.009 0.612 0.018 1.008 0.018c 0.333 0 0.63 -0.018 1.233 -0.018c 0.774 0 1.359 0.216 1.359 1.107c 0 0.504 -0.315 0.855 -0.864 0.954v 0.027c 0.414 0.081 0.729 0.369 0.729 0.909c 0 0.63 -0.387 0.9 -1.476 0.9c -0.369 0 -0.603 -0.018 -0.99 -0.018Z m 0.36 -1.908h 0.684c 0.549 0 0.783 -0.36 0.783 -0.9c 0 -0.603 -0.342 -0.774 -0.828 -0.774c -0.468 0 -0.639 0.081 -0.639 0.495Z m 0 0.261v 1.044c 0 0.27 0.207 0.324 0.639 0.324c 0.468 0 0.747 -0.126 0.747 -0.666c 0 -0.36 -0.234 -0.702 -0.792 -0.702Z "/></symbol><symbol id="gAE9E23F53692F92B7B295E455DF99330" overflow="visible"><path d="M 0 0m 3.474 0c 0 0 0.702 -0.009 0.882 -0.018c 0.054 0.054 0.054 0.243 0 0.297c -0.351 0.018 -0.423 0.09 -0.576 0.378l -0.405 0.765c -0.225 0.423 -0.54 0.639 -1.053 0.639v 0.027c 0.351 0.099 0.504 0.414 0.639 0.774c 0.108 0.279 0.216 0.45 0.405 0.45c 0.081 0 0.153 -0.027 0.207 -0.063c 0.054 -0.036 0.153 -0.063 0.27 -0.063c 0.198 0 0.36 0.171 0.36 0.351c 0 0.198 -0.216 0.405 -0.513 0.405c -0.522 0 -0.765 -0.486 -0.936 -0.909c -0.198 -0.495 -0.441 -0.837 -1.08 -0.837v 0.567c 0 0.747 0.099 0.774 0.558 0.819c 0.054 0.054 0.054 0.243 0 0.297c -0.216 -0.009 -0.558 -0.018 -0.918 -0.018c -0.387 0 -0.702 0.009 -0.999 0.018c -0.054 -0.054 -0.054 -0.243 0 -0.297c 0.549 -0.036 0.648 -0.072 0.648 -0.819v -1.665c 0 -0.747 -0.099 -0.774 -0.648 -0.819c -0.054 -0.054 -0.054 -0.243 0 -0.297c 0.297 0.009 0.612 0.018 1.008 0.018c 0.351 0 0.711 -0.009 0.909 -0.018c 0.054 0.054 0.054 0.243 0 0.297c -0.459 0.036 -0.558 0.072 -0.558 0.819v 0.783c 0.612 -0.036 0.774 -0.279 0.936 -0.612l 0.387 -0.81c 0.117 -0.243 0.297 -0.45 0.477 -0.459Z "/></symbol><symbol id="gB106C50952470D562E2639550BD4E5EC" overflow="visible"><path d="M 0 0m 7.084472656 7.122070313q 0.123535156 0.123535156 0.303466797 0.123535156q 0.179931641 0 0.308837891 -0.123535156q 0.12890625 -0.123535156 0.126220703 -0.306152344q -0.002685547 -0.182617188 -0.126220703 -0.311523438l -5.881347656 -5.881347656q -0.0859375 -0.080566406 -0.196044922 -0.107421875q -0.110107422 -0.026855469 -0.222900391 0q -0.112792969 0.026855469 -0.198730469 0.107421875q -0.123535156 0.123535156 -0.123535156 0.306152344q 0 0.182617188 0.123535156 0.306152344l 5.88671875 5.88671875Z m 0.612304688 -5.88671875q 0.123535156 -0.123535156 0.123535156 -0.303466797q 0 -0.179931641 -0.123535156 -0.308837891q -0.123535156 -0.12890625 -0.306152344 -0.126220703q -0.182617188 0.002685547 -0.306152344 0.126220703l -5.88671875 5.881347656q -0.123535156 0.12890625 -0.123535156 0.308837891q 0 0.179931641 0.123535156 0.308837891q 0.123535156 0.123535156 0.308837891 0.123535156q 0.185302734 0 0.308837891 -0.123535156l 5.881347656 -5.88671875Z "/></symbol><symbol id="g9C9C9262F30302871979B086E3504457" overflow="visible"><path d="M 0 0m 0.306 2.313c 0 -1.701 0.981 -2.403 1.854 -2.403c 1.233 0 1.944 0.918 1.944 2.052c 0 0.972 -0.54 1.989 -1.809 1.989c -0.855 0 -1.377 -0.504 -1.575 -0.936l -0.018 0.018c 0.036 0.468 0.18 1.044 0.315 1.278c 0.288 0.495 0.63 0.522 1.458 0.612c 0.81 0.09 1.386 0.351 1.467 1.359c -0.063 0.027 -0.126 0.036 -0.198 0c -0.072 -0.432 -0.549 -0.549 -1.305 -0.666c -0.729 -0.117 -1.341 -0.369 -1.719 -1.08c -0.324 -0.612 -0.414 -1.368 -0.414 -2.223Z m 0.774 -0.234c 0 0.504 0.18 1.557 1.116 1.557c 0.702 0 1.134 -0.81 1.134 -1.89c 0 -1.134 -0.522 -1.521 -1.008 -1.521c -0.657 0 -1.242 0.855 -1.242 1.854Z "/></symbol><symbol id="gCC8431763A18574B9D70D89AC0A75466" overflow="visible"><path d="M 0 0m 1.026 0c 0.252 0.009 0.342 0.243 0.45 0.567c 0.234 0.711 0.495 1.152 0.945 1.152h 0.234v -0.621c 0 -0.747 -0.099 -0.774 -0.648 -0.819c -0.054 -0.054 -0.054 -0.243 0 -0.297c 0.297 0.009 0.612 0.018 1.008 0.018c 0.387 0 0.711 -0.009 0.999 -0.018c 0.054 0.054 0.054 0.243 0 0.297c -0.549 0.036 -0.648 0.072 -0.648 0.819v 1.665c 0 0.747 0.099 0.774 0.648 0.819c 0.054 0.054 0.054 0.243 0 0.297c -0.306 -0.009 -0.612 -0.018 -1.008 -0.018c -0.306 0 -0.567 0.018 -0.792 0.018c -1.575 0 -1.71 -0.648 -1.71 -1.134c 0 -0.585 0.45 -0.882 1.116 -0.909c 0.027 0 0.027 -0.027 0.018 -0.036c -0.342 -0.099 -0.495 -0.288 -0.648 -0.621c -0.099 -0.207 -0.18 -0.405 -0.225 -0.522c -0.117 -0.306 -0.27 -0.36 -0.621 -0.378c -0.054 -0.054 -0.054 -0.243 0 -0.297c 0.18 0.009 0.882 0.018 0.882 0.018Z m 0.252 2.889c 0 0.423 0.135 0.693 0.864 0.693c 0.369 0 0.513 -0.162 0.513 -0.504v -1.053h -0.63c -0.54 0 -0.747 0.414 -0.747 0.864Z "/></symbol><symbol id="g785243DD0DBD5D3E5E793E04FC62E83F" overflow="visible"><path d="M 0 0m 6.714 1.098v 1.665c 0 0.738 0.117 0.783 0.612 0.819c 0.054 0.054 0.054 0.243 0 0.297c -0.27 -0.009 -0.612 -0.018 -0.972 -0.018c -0.36 0 -0.63 0.009 -0.9 0.018c -0.054 -0.054 -0.054 -0.243 0 -0.297c 0.459 -0.045 0.549 -0.081 0.549 -0.819v -1.953c 0 -0.279 -0.027 -0.459 -0.378 -0.459h -1.062c -0.27 0 -0.387 0.081 -0.387 0.459v 1.953c 0.009 0.738 0.072 0.783 0.558 0.819c 0.045 0.054 0.045 0.243 0 0.297c -0.225 -0.009 -0.558 -0.018 -0.918 -0.018c -0.36 0 -0.657 0.009 -0.882 0.018c -0.045 -0.054 -0.045 -0.243 0 -0.297c 0.45 -0.036 0.54 -0.081 0.531 -0.819v -1.962c 0 -0.333 -0.045 -0.45 -0.378 -0.45h -1.026c -0.333 0 -0.387 0.099 -0.387 0.459v 1.953c 0 0.738 0.09 0.783 0.558 0.819c 0.045 0.054 0.045 0.243 0 0.297c -0.225 -0.009 -0.558 -0.018 -0.918 -0.018c -0.36 0 -0.675 0.009 -0.927 0.018c -0.045 -0.054 -0.045 -0.243 0 -0.297c 0.495 -0.036 0.576 -0.081 0.576 -0.819v -1.665c 0 -0.738 -0.117 -0.783 -0.612 -0.819c -0.054 -0.054 -0.054 -0.243 0 -0.297c 0.27 0.009 0.612 0.018 0.972 0.018h 5.031c 0.36 0 0.702 -0.009 0.972 -0.018c 0.054 0.054 0.054 0.243 0 0.297c -0.495 0.036 -0.612 0.081 -0.612 0.819Z "/></symbol><symbol id="g2FA72D45C16B05C4172FD5F1AC12DB62" overflow="visible"><path d="M 0 0m 3.920898438 0.096679688q -0.290039063 0 -0.510253906 0.284667969l -2.196777344 2.852050781q -0.069824219 0.091308594 -0.104736328 0.179931641q -0.034912109 0.088623047 -0.034912109 0.174560547q 0 0.204101563 0.12890625 0.330322266q 0.12890625 0.126220703 0.333007813 0.126220703q 0.247070313 0 0.418945313 -0.236328125l 1.944335938 -2.62109375l 3.6953125 5.9296875q 0.091308594 0.139648438 0.182617188 0.196044922q 0.091308594 0.056396484 0.236328125 0.056396484q 0.198730469 0 0.319580078 -0.120849609q 0.120849609 -0.120849609 0.120849609 -0.319580078q 0 -0.0859375 -0.026855469 -0.171875q -0.026855469 -0.0859375 -0.096679688 -0.193359375l -3.915527344 -6.192871094q -0.182617188 -0.273925781 -0.494140625 -0.273925781Z "/></symbol></defs></svg>