<svg viewBox="0 0 207.059251969 180.69780315" width="207.059251969pt" height="180.69780315pt" xmlns="http://www.w3.org/2000/svg" xmlns:xlink="http://www.w3.org/1999/xlink" xmlns:h5="http://www.w3.org/1999/xhtml"><path fill="#ffffff" fill-rule="nonzero" d="M 0 0v 180.69780315h 207.059251969v -180.69780315Z "/><g transform="translate(8 8)"><path fill="none" stroke="#1a1a18" stroke-width="0.6" stroke-linecap="butt" stroke-linejoin="miter" stroke-miterlimit="4" transform="translate(79.37007874 9.646691713)" d="M 0 0m 0 155.051111436v -155.051111436"/><path fill="#1a1a18" fill-rule="nonzero" stroke="#1a1a18" stroke-width="0.6" stroke-linecap="butt" stroke-linejoin="miter" stroke-miterlimit="4" transform="translate(77.244094488 3.977400472)" d="M 0 0m 2.125984252 0l 2.125984252 5.669291339h -4.251968504l 2.125984252 -5.669291339Z "/><path fill="none" stroke="#1a1a18" stroke-width="0.6" stroke-linecap="butt" stroke-linejoin="miter" stroke-miterlimit="4" transform="translate(0 85.327724409)" d="M 0 0h 155.051111436"/><path fill="#1a1a18" fill-rule="nonzero" stroke="#1a1a18" stroke-width="0.6" stroke-linecap="butt" stroke-linejoin="miter" stroke-miterlimit="4" transform="translate(155.051111339 83.201740157)" d="M 0 0m 5.669291339 2.125984252l -5.669291339 2.125984252v -4.251968504l 5.669291339 2.125984252Z "/><path fill="none" transform="translate(86.456692913)" d="M 0 0h 7.371v 6.246h -7.371v -6.246Z "/><g transform="translate(86.456692913)"><g transform="matrix(1 0 0 -1 0 6.147)"><use xlink:href="#gB34AADF20CA1236BFCED76F60F77F06" x="0" y="0" fill="#7c7f6a" fill-rule="nonzero"/></g><g transform="matrix(1 0 0 -1 4.122 6.147)"><use xlink:href="#g53639B783CA4D00E92983ABDA5BB68C" x="0" y="0" fill="#7c7f6a" fill-rule="nonzero"/></g></g><path fill="none" transform="translate(156.42680315 90.708661417)" d="M 0 0h 5.148v 6.246h -5.148v -6.246Z "/><g transform="translate(156.42680315 90.708661417)"><g transform="matrix(1 0 0 -1 0 6.147)"><use xlink:href="#gFB6023562FAA25D0472E92EA23A01C18" x="0" y="0" fill="#7c7f6a" fill-rule="nonzero"/></g></g><path fill="#d5d2cb" fill-rule="nonzero" stroke="#7c7f6a" stroke-width="1" stroke-linecap="butt" stroke-linejoin="miter" stroke-miterlimit="4" transform="translate(8.503937008 14.461582677)" d="M 0 0m 70.866141732 70.866141732l 70.866141732 -70.866141732h -141.732283465l 70.866141732 70.866141732Z "/><path fill="#d5d2cb" fill-rule="nonzero" stroke="#7c7f6a" stroke-width="1" stroke-linecap="butt" stroke-linejoin="miter" stroke-miterlimit="4" transform="translate(8.503937008 85.327724409)" d="M 0 0m 70.866141732 0l 70.866141732 70.866141732h -141.732283465l 70.866141732 -70.866141732Z "/><path fill="none" transform="translate(63.22007874 27.686956693)" d="M 0 0h 32.3v 7.565h -32.3v -7.565Z "/><g transform="translate(63.22007863 27.686956677)"><g transform="matrix(1 0 0 -1 0 5.593)"><use xlink:href="#g76961810B6DEE2CEF630C1F5B8F93C8E" x="0" y="0" fill="#1a1a18" fill-rule="nonzero"/><use xlink:href="#g2884EEE83F88BF741DF31D9C41AEE180" x="4.1565" y="0" fill="#1a1a18" fill-rule="nonzero"/><use xlink:href="#gBAF1B227155053221F22F6E06EEFED60" x="8.534" y="0" fill="#1a1a18" fill-rule="nonzero"/><use xlink:href="#g2884EEE83F88BF741DF31D9C41AEE180" x="13.107" y="0" fill="#1a1a18" fill-rule="nonzero"/><use xlink:href="#g31E0AF888AC2A0D8C88DAE90C0BA5BC" x="17.4845" y="0" fill="#1a1a18" fill-rule="nonzero"/><use xlink:href="#g5D2E58E4CDB4D7E6C81847885E22D756" x="24.701" y="0" fill="#1a1a18" fill-rule="nonzero"/><use xlink:href="#g5D2E58E4CDB4D7E6C81847885E22D756" x="28.5005" y="0" fill="#1a1a18" fill-rule="nonzero"/></g></g><path fill="none" transform="translate(62.64207874 135.394992126)" d="M 0 0h 33.456v 7.582h -33.456v -7.582Z "/><g transform="translate(62.642078646 135.394992)"><g transform="matrix(1 0 0 -1 0 5.593)"><use xlink:href="#gBEE50160BCD570B38DEF46393A725EED" x="0" y="0" fill="#1a1a18" fill-rule="nonzero"/><use xlink:href="#g430571653545A60A3EF6386D136EADA3" x="4.981" y="0" fill="#1a1a18" fill-rule="nonzero"/><use xlink:href="#gE34E15A46C94CBC2E6ABE8844A1DDB21" x="9.3925" y="0" fill="#1a1a18" fill-rule="nonzero"/><use xlink:href="#gDB83A5E3A43CD1314807805387E0A9CE" x="13.6765" y="0" fill="#1a1a18" fill-rule="nonzero"/><use xlink:href="#gB3F6F741CFF64E2F87AE274E4C795DAE" x="20.893" y="0" fill="#1a1a18" fill-rule="nonzero"/><use xlink:href="#gE34E15A46C94CBC2E6ABE8844A1DDB21" x="25.3725" y="0" fill="#1a1a18" fill-rule="nonzero"/><use xlink:href="#g5D2E58E4CDB4D7E6C81847885E22D756" x="29.6565" y="0" fill="#1a1a18" fill-rule="nonzero"/></g></g><path fill="none" transform="translate(116.715023622 73.096858268)" d="M 0 0h 30.192v 6.32h -30.192v -6.32Z "/><g transform="translate(116.715023575 73.096858205)"><g transform="matrix(1 0 0 -1 0 5.264)"><use xlink:href="#g905CC1E7769410038F6D36CEC9509918" x="0" y="0" fill="#7c7f6a" fill-rule="nonzero"/><use xlink:href="#g3478CFDC408E67C5C7551BD6A62D2425" x="4.344" y="0" fill="#7c7f6a" fill-rule="nonzero"/><use xlink:href="#gAC00C34078948F83CC62D60B02C8E81A" x="7.672" y="0" fill="#7c7f6a" fill-rule="nonzero"/><use xlink:href="#g465CA45D0696F5BBCE5E7A11B5E63D98" x="11.976" y="0" fill="#7c7f6a" fill-rule="nonzero"/><use xlink:href="#g7783EC9FB0C16305C83035E8146994B5" x="15.552" y="0" fill="#7c7f6a" fill-rule="nonzero"/><use xlink:href="#gE09E60C0AC8E2E10ADA02C2F49261352" x="18.256" y="0" fill="#7c7f6a" fill-rule="nonzero"/><use xlink:href="#g5D01DA3AB390CB78D7E54204B7DC3F87" x="21.816" y="0" fill="#7c7f6a" fill-rule="nonzero"/><use xlink:href="#gEB6A11AC15B5C06978DAB2E7110F42D7" x="25.848" y="0" fill="#7c7f6a" fill-rule="nonzero"/></g></g><path fill="none" transform="translate(11.833133858 73.096858268)" d="M 0 0h 30.192v 6.32h -30.192v -6.32Z "/><g transform="translate(11.833133811 73.096858205)"><g transform="matrix(1 0 0 -1 0 5.264)"><use xlink:href="#g905CC1E7769410038F6D36CEC9509918" x="0" y="0" fill="#7c7f6a" fill-rule="nonzero"/><use xlink:href="#g3478CFDC408E67C5C7551BD6A62D2425" x="4.344" y="0" fill="#7c7f6a" fill-rule="nonzero"/><use xlink:href="#gAC00C34078948F83CC62D60B02C8E81A" x="7.672" y="0" fill="#7c7f6a" fill-rule="nonzero"/><use xlink:href="#g465CA45D0696F5BBCE5E7A11B5E63D98" x="11.976" y="0" fill="#7c7f6a" fill-rule="nonzero"/><use xlink:href="#g7783EC9FB0C16305C83035E8146994B5" x="15.552" y="0" fill="#7c7f6a" fill-rule="nonzero"/><use xlink:href="#gE09E60C0AC8E2E10ADA02C2F49261352" x="18.256" y="0" fill="#7c7f6a" fill-rule="nonzero"/><use xlink:href="#g5D01DA3AB390CB78D7E54204B7DC3F87" x="21.816" y="0" fill="#7c7f6a" fill-rule="nonzero"/><use xlink:href="#gEB6A11AC15B5C06978DAB2E7110F42D7" x="25.848" y="0" fill="#7c7f6a" fill-rule="nonzero"/></g></g><path fill="none" stroke="#1a1a18" stroke-width="1.4" stroke-linecap="butt" stroke-linejoin="miter" stroke-miterlimit="4" transform="translate(79.37007874 22.965519685)" d="M 0 0m 0 62.362204724l 19.842519685 -62.362204724"/><path fill="#1a1a18" fill-rule="nonzero" transform="translate(97.228346457 20.981267717)" d="M 0 0m 1.984251969 0c -1.094878488 0 -1.984251969 0.88937348 -1.984251969 1.984251969c 0 1.094878488 0.88937348 1.984251969 1.984251969 1.984251969c 1.094878488 0 1.984251969 -0.88937348 1.984251969 -1.984251969c 0 -1.094878488 -0.88937348 -1.984251969 -1.984251969 -1.984251969Z "/><path fill="none" transform="translate(103.464566929 20.003019685)" d="M 0 0h 37.3275v 5.925h -37.3275v -5.925Z "/><g transform="translate(103.464566787 20.003019591)"><g transform="matrix(1 0 0 -1 0 4.935)"><use xlink:href="#g44F03F202C08F14EDCBE40C48B1B4799" x="0" y="0" fill="#1a1a18" fill-rule="nonzero"/><use xlink:href="#g9DFB8CAEC5B458B41F3893F12F8EC954" x="4.035" y="0" fill="#1a1a18" fill-rule="nonzero"/><use xlink:href="#g24A3F0AF4AD0375F71DE4AF9BEABB01F" x="7.815" y="0" fill="#1a1a18" fill-rule="nonzero"/><use xlink:href="#gEEA2F4BC857577D5A54B2015EAE5E394" x="11.025" y="0" fill="#1a1a18" fill-rule="nonzero"/><use xlink:href="#gD7561D22518914316F6BE22AAAA2B6AA" x="14.3625" y="0" fill="#1a1a18" fill-rule="nonzero"/><use xlink:href="#g2CC855199A0AA6CAF67A668D2734FA5E" x="18.7575" y="0" fill="#1a1a18" fill-rule="nonzero"/><use xlink:href="#gD7561D22518914316F6BE22AAAA2B6AA" x="24.0525" y="0" fill="#1a1a18" fill-rule="nonzero"/><use xlink:href="#g9FFCC18D170BB6C28C600E5B5ACB7B09" x="28.4475" y="0" fill="#1a1a18" fill-rule="nonzero"/><use xlink:href="#g9DFB8CAEC5B458B41F3893F12F8EC954" x="33.5475" y="0" fill="#1a1a18" fill-rule="nonzero"/></g></g><path fill="#7c7f6a" fill-rule="nonzero" transform="translate(139.748031496 66.335598425)" d="M 0 0m 1.984251969 0c -1.094878488 0 -1.984251969 0.88937348 -1.984251969 1.984251969c 0 1.094878488 0.88937348 1.984251969 1.984251969 1.984251969c 1.094878488 0 1.984251969 -0.88937348 1.984251969 -1.984251969c 0 -1.094878488 -0.88937348 -1.984251969 -1.984251969 -1.984251969Z "/><path fill="none" transform="translate(145.984251969 65.357350394)" d="M 0 0h 45.075v 5.925h -45.075v -5.925Z "/><g transform="translate(145.984251874 65.357350299)"><g transform="matrix(1 0 0 -1 0 4.935)"><use xlink:href="#g9BD8815497ACE2CCB2ADDC08AAA56E57" x="0" y="0" fill="#7c7f6a" fill-rule="nonzero"/><use xlink:href="#g3036A15D0A2AECE5F3220ADA73EBBEB6" x="4.395" y="0" fill="#7c7f6a" fill-rule="nonzero"/><use xlink:href="#g44F03F202C08F14EDCBE40C48B1B4799" x="7.7475" y="0" fill="#7c7f6a" fill-rule="nonzero"/><use xlink:href="#g9DFB8CAEC5B458B41F3893F12F8EC954" x="11.7825" y="0" fill="#7c7f6a" fill-rule="nonzero"/><use xlink:href="#g24A3F0AF4AD0375F71DE4AF9BEABB01F" x="15.5625" y="0" fill="#7c7f6a" fill-rule="nonzero"/><use xlink:href="#gEEA2F4BC857577D5A54B2015EAE5E394" x="18.7725" y="0" fill="#7c7f6a" fill-rule="nonzero"/><use xlink:href="#gD7561D22518914316F6BE22AAAA2B6AA" x="22.11" y="0" fill="#7c7f6a" fill-rule="nonzero"/><use xlink:href="#g2CC855199A0AA6CAF67A668D2734FA5E" x="26.505" y="0" fill="#7c7f6a" fill-rule="nonzero"/><use xlink:href="#gD7561D22518914316F6BE22AAAA2B6AA" x="31.8" y="0" fill="#7c7f6a" fill-rule="nonzero"/><use xlink:href="#g9FFCC18D170BB6C28C600E5B5ACB7B09" x="36.195" y="0" fill="#7c7f6a" fill-rule="nonzero"/><use xlink:href="#g9DFB8CAEC5B458B41F3893F12F8EC954" x="41.295" y="0" fill="#7c7f6a" fill-rule="nonzero"/></g></g></g><defs><symbol id="gB34AADF20CA1236BFCED76F60F77F06" overflow="visible"><path d="M 0 0m 2.952 2.925c 0 -0.225 0.117 -0.342 0.36 -0.342c 0.324 0 0.531 0.279 0.531 0.603c 0 0.504 -0.531 0.792 -1.071 0.792c -0.621 0 -1.188 -0.27 -1.674 -0.801c -0.486 -0.531 -0.729 -1.116 -0.729 -1.746c 0 -0.882 0.585 -1.53 1.467 -1.53c 0.477 0 0.9 0.117 1.269 0.342c 0.306 0.189 0.531 0.378 0.675 0.567c 0.063 0.081 0.09 0.144 0.09 0.171c 0 0.099 -0.045 0.153 -0.144 0.153c -0.045 0 -0.09 -0.036 -0.144 -0.108c -0.297 -0.396 -0.666 -0.648 -1.089 -0.756c -0.279 -0.072 -0.486 -0.108 -0.639 -0.108c -0.513 0 -0.765 0.315 -0.765 0.936c 0 0.558 0.261 1.368 0.477 1.755c 0.216 0.396 0.675 0.864 1.206 0.864c 0.342 0 0.576 -0.099 0.702 -0.288c -0.279 -0.027 -0.522 -0.207 -0.522 -0.504Z "/></symbol><symbol id="g53639B783CA4D00E92983ABDA5BB68C" overflow="visible"><path d="M 0 0m 2.97 3.771c 0 0.081 -0.09 0.126 -0.279 0.126h -0.729c 0.234 0.936 0.351 1.422 0.351 1.458c 0 0.189 -0.099 0.279 -0.288 0.279c -0.207 0 -0.333 -0.117 -0.387 -0.351l -0.333 -1.386h -0.801c -0.198 0 -0.297 -0.009 -0.297 -0.198c 0 -0.099 0.09 -0.144 0.279 -0.144h 0.729c -0.441 -1.755 -0.657 -2.682 -0.657 -2.799c 0 -0.504 0.342 -0.855 0.846 -0.855c 0.342 0 0.639 0.153 0.9 0.468c 0.216 0.261 0.369 0.513 0.468 0.756c 0.036 0.099 0.054 0.153 0.054 0.18c 0 0.081 -0.045 0.126 -0.135 0.126c -0.072 0 -0.126 -0.045 -0.162 -0.144c -0.306 -0.747 -0.675 -1.116 -1.116 -1.116c -0.153 0 -0.234 0.126 -0.234 0.369c 0 0.135 0.018 0.279 0.054 0.423l 0.639 2.592h 0.801c 0.234 0 0.297 0.018 0.297 0.216Z "/></symbol><symbol id="gFB6023562FAA25D0472E92EA23A01C18" overflow="visible"><path d="M 0 0m 4.743 3.357c 0 0.414 -0.405 0.621 -0.855 0.621c -0.387 0 -0.693 -0.207 -0.927 -0.621c -0.189 0.414 -0.504 0.621 -0.963 0.621c -0.441 0 -0.801 -0.207 -1.089 -0.612c -0.243 -0.351 -0.369 -0.612 -0.369 -0.783c 0 -0.081 0.045 -0.126 0.135 -0.126c 0.081 0 0.135 0.045 0.153 0.126c 0.171 0.522 0.549 1.134 1.152 1.134c 0.297 0 0.441 -0.189 0.441 -0.558c 0 -0.189 -0.162 -0.891 -0.477 -2.097c -0.153 -0.603 -0.423 -0.9 -0.81 -0.9c -0.126 0 -0.243 0.027 -0.342 0.072c 0.234 0.09 0.351 0.252 0.351 0.486c 0 0.234 -0.117 0.351 -0.36 0.351c -0.297 0 -0.522 -0.252 -0.522 -0.549c 0 -0.414 0.423 -0.621 0.864 -0.621c 0.378 0 0.684 0.207 0.927 0.621c 0.171 -0.414 0.495 -0.621 0.963 -0.621c 0.432 0 0.792 0.207 1.08 0.612c 0.243 0.351 0.369 0.612 0.369 0.783c 0 0.081 -0.045 0.126 -0.135 0.126c -0.081 0 -0.126 -0.045 -0.153 -0.126c -0.153 -0.513 -0.558 -1.134 -1.143 -1.134c -0.297 0 -0.45 0.18 -0.45 0.549c 0 0.117 0.045 0.369 0.144 0.774l 0.306 1.215c 0.171 0.675 0.45 1.017 0.846 1.017c 0.126 0 0.243 -0.027 0.342 -0.072c -0.243 -0.081 -0.36 -0.243 -0.36 -0.486c 0 -0.234 0.126 -0.351 0.369 -0.351c 0.288 0 0.513 0.261 0.513 0.549Z "/></symbol><symbol id="g76961810B6DEE2CEF630C1F5B8F93C8E" overflow="visible"><path d="M 0 0m 0.289 2.1845c 0 -1.6065 0.9265 -2.2695 1.751 -2.2695c 1.1645 0 1.836 0.867 1.836 1.938c 0 0.918 -0.51 1.8785 -1.7085 1.8785c -0.8075 0 -1.3005 -0.476 -1.4875 -0.884l -0.017 0.017c 0.034 0.442 0.17 0.986 0.2975 1.207c 0.272 0.4675 0.595 0.493 1.377 0.578c 0.765 0.085 1.309 0.3315 1.3855 1.2835c -0.0595 0.0255 -0.119 0.034 -0.187 0c -0.068 -0.408 -0.5185 -0.5185 -1.2325 -0.629c -0.6885 -0.1105 -1.2665 -0.3485 -1.6235 -1.02c -0.306 -0.578 -0.391 -1.292 -0.391 -2.0995Z m 0.731 -0.221c 0 0.476 0.17 1.4705 1.054 1.4705c 0.663 0 1.071 -0.765 1.071 -1.785c 0 -1.071 -0.493 -1.4365 -0.952 -1.4365c -0.6205 0 -1.173 0.8075 -1.173 1.751Z "/></symbol><symbol id="g2884EEE83F88BF741DF31D9C41AEE180" overflow="visible"><path d="M 0 0m 1.734 -1.36c 0.136 0.238 0.2465 0.476 0.3485 0.731c 0.68 1.6405 1.0625 2.516 1.5045 3.468c 0.17 0.357 0.289 0.493 0.6885 0.544c 0.051 0.051 0.051 0.2295 0 0.2805c -0.17 -0.0085 -0.3655 -0.017 -0.6035 -0.017c -0.255 0 -0.5185 0.0085 -0.7735 0.017c -0.051 -0.051 -0.051 -0.2295 0 -0.2805c 0.272 -0.0255 0.544 -0.0765 0.408 -0.3825l -0.8415 -1.9465c -0.0595 -0.136 -0.136 -0.1615 -0.204 0.0085l -0.7565 1.768c -0.153 0.357 -0.1955 0.5185 0.2805 0.5525c 0.051 0.051 0.051 0.2295 0 0.2805c -0.3145 -0.0085 -0.6545 -0.017 -0.9605 -0.017c -0.289 0 -0.5185 0.0085 -0.6885 0.017c -0.051 -0.051 -0.051 -0.2295 0 -0.2805c 0.34 -0.0425 0.4505 -0.119 0.6715 -0.6375l 0.9605 -2.2355c 0.0765 -0.17 0.204 -0.561 0.119 -0.799c -0.102 -0.2805 -0.204 -0.5185 -0.3315 -0.782c -0.0935 -0.17 -0.2125 -0.2465 -0.425 -0.2465c -0.119 0 -0.153 0.0255 -0.2465 0.0255c -0.2465 0 -0.374 -0.255 -0.374 -0.3655c 0 -0.1785 0.17 -0.3145 0.3995 -0.3145c 0.1785 0 0.5185 0.068 0.8245 0.612Z "/></symbol><symbol id="gBAF1B227155053221F22F6E06EEFED60" overflow="visible"><path d="M 0 0m 1.6065 3.6465c -0.2805 0 -0.612 0.0085 -0.867 0.017c -0.051 -0.051 -0.051 -0.2295 0 -0.2805c 0.5185 -0.0425 0.6715 -0.0765 0.6375 -0.782c -0.034 -0.782 -0.17 -1.411 -0.3145 -2.006c -0.051 -0.2295 -0.2975 -0.306 -0.5355 -0.3315c -0.1275 -0.017 -0.2465 -0.068 -0.255 -0.221l -0.051 -1.1305c 0.0595 -0.0255 0.1275 -0.034 0.2295 -0.0085c 0.0765 0.3145 0.306 1.0965 1.071 1.0965h 1.4705c 0.7565 0 1.003 -0.765 1.0795 -1.105c 0.0765 -0.017 0.153 -0.017 0.238 0.017l -0.051 1.139c 0 0.119 -0.068 0.187 -0.2295 0.2125c -0.153 0.0255 -0.3655 0.085 -0.3655 0.3995v 1.9465c 0 0.697 0.1105 0.7395 0.578 0.7735c 0.051 0.051 0.051 0.2295 0 0.2805c -0.255 -0.0085 -0.578 -0.017 -0.918 -0.017Z m -0.238 -3.213c 0 0.1445 0.2295 0.7055 0.357 2.652c 0.0085 0.1275 0.068 0.238 0.2975 0.238h 0.5865c 0.34 0 0.3825 -0.238 0.3825 -0.527v -2.0485c 0 -0.2805 -0.017 -0.4165 -0.357 -0.4165h -1.0965c -0.0935 0 -0.17 0.0085 -0.17 0.102Z "/></symbol><symbol id="g31E0AF888AC2A0D8C88DAE90C0BA5BC" overflow="visible"><path d="M 0 0m 5.6865 0c 0.714 0 0.9605 -0.68 1.071 -1.0965c 0.0765 -0.017 0.153 -0.017 0.221 0.0085l -0.051 1.1305c -0.0085 0.153 -0.136 0.1955 -0.255 0.221c -0.1955 0.0425 -0.3315 0.0935 -0.3315 0.7735v 1.5725c 0 0.697 0.1105 0.7395 0.578 0.7735c 0.051 0.051 0.051 0.2295 0 0.2805c -0.255 -0.0085 -0.578 -0.017 -0.918 -0.017c -0.34 0 -0.595 0.0085 -0.85 0.017c -0.051 -0.051 -0.051 -0.2295 0 -0.2805c 0.4335 -0.0425 0.5185 -0.0765 0.5185 -0.7735v -1.8445c 0 -0.2635 -0.0255 -0.4335 -0.357 -0.4335h -1.003c -0.255 0 -0.3655 0.0765 -0.3655 0.4335v 1.8445c 0.0085 0.697 0.068 0.7395 0.527 0.7735c 0.0425 0.051 0.0425 0.2295 0 0.2805c -0.2125 -0.0085 -0.527 -0.017 -0.867 -0.017c -0.34 0 -0.6205 0.0085 -0.833 0.017c -0.0425 -0.051 -0.0425 -0.2295 0 -0.2805c 0.425 -0.034 0.51 -0.0765 0.5015 -0.7735v -1.853c 0 -0.3145 -0.0425 -0.425 -0.357 -0.425h -0.969c -0.3145 0 -0.3655 0.0935 -0.3655 0.4335v 1.8445c 0 0.697 0.085 0.7395 0.527 0.7735c 0.0425 0.051 0.0425 0.2295 0 0.2805c -0.2125 -0.0085 -0.527 -0.017 -0.867 -0.017c -0.34 0 -0.6375 0.0085 -0.8755 0.017c -0.0425 -0.051 -0.0425 -0.2295 0 -0.2805c 0.4675 -0.034 0.544 -0.0765 0.544 -0.7735v -1.5725c 0 -0.697 -0.1105 -0.7395 -0.578 -0.7735c -0.051 -0.051 -0.051 -0.2295 0 -0.2805c 0.255 0.0085 0.578 0.017 0.918 0.017Z "/></symbol><symbol id="g5D2E58E4CDB4D7E6C81847885E22D756" overflow="visible"><path d="M 0 0m 3.281 0.7905c -0.3145 -0.323 -0.561 -0.459 -1.054 -0.459c -0.306 0 -0.663 0.1785 -0.9265 0.612c -0.17 0.2805 -0.272 0.6715 -0.272 1.1645l 2.261 -0.017c 0.102 0 0.1615 0.051 0.1615 0.1445c 0 0.714 -0.255 1.479 -1.4365 1.479c -0.7395 0 -1.7 -0.7055 -1.7 -1.9975c 0 -0.476 0.119 -0.935 0.3995 -1.258c 0.289 -0.34 0.6885 -0.544 1.3005 -0.544c 0.646 0 1.105 0.2975 1.445 0.7395c -0.0255 0.085 -0.0765 0.1275 -0.1785 0.136Z m -2.227 1.6065c 0.1615 0.9605 0.7565 1.037 0.9605 1.037c 0.323 0 0.7055 -0.1785 0.7055 -0.8925c 0 -0.0765 -0.034 -0.119 -0.1275 -0.119Z "/></symbol><symbol id="gBEE50160BCD570B38DEF46393A725EED" overflow="visible"><path d="M 0 0m 3.7145 3.6465h -2.414c -0.34 0 -0.663 0.0085 -0.918 0.017c -0.051 -0.051 -0.051 -0.2295 0 -0.2805c 0.4675 -0.034 0.578 -0.0765 0.578 -0.7735v -1.5725c 0 -0.697 -0.1105 -0.7395 -0.663 -0.7735c -0.051 -0.051 -0.051 -0.2295 0 -0.2805c 0.255 0.0085 0.663 0.017 1.003 0.017c 0.34 0 0.595 -0.0085 0.85 -0.017c 0.051 0.051 0.051 0.2295 0 0.2805c -0.4335 0.0425 -0.5185 0.0765 -0.5185 0.7735v 1.8445c 0 0.2635 0.0255 0.4335 0.357 0.4335h 1.0285c 0.3145 0 0.3655 -0.0935 0.3655 -0.4335v -1.8445c 0 -0.697 -0.085 -0.7395 -0.527 -0.7735c -0.0425 -0.051 -0.0425 -0.2295 0 -0.2805c 0.2125 0.0085 0.527 0.017 0.867 0.017c 0.34 0 0.7225 -0.0085 0.9605 -0.017c 0.0425 0.051 0.0425 0.2295 0 0.2805c -0.5525 0.034 -0.629 0.0765 -0.629 0.7735v 1.5725c 0 0.697 0.1105 0.7395 0.578 0.7735c 0.051 0.051 0.051 0.2295 0 0.2805c -0.255 -0.0085 -0.578 -0.017 -0.918 -0.017Z "/></symbol><symbol id="g430571653545A60A3EF6386D136EADA3" overflow="visible"><path d="M 0 0m 1.326 3.128c -0.0085 0.255 -0.0255 0.476 -0.068 0.561c -0.017 0.0425 -0.034 0.068 -0.102 0.068c -0.238 -0.0935 -0.459 -0.17 -1.0455 -0.2465c -0.017 -0.051 0 -0.187 0.017 -0.238c 0.459 -0.0425 0.5525 -0.085 0.5525 -0.578v -3.6295c 0 -0.7055 -0.0935 -0.748 -0.612 -0.7735c -0.051 -0.051 -0.051 -0.2295 0 -0.2805c 0.2975 0.0085 0.612 0.017 0.952 0.017c 0.34 0 0.748 -0.0085 1.0285 -0.017c 0.051 0.051 0.051 0.2295 0 0.2805c -0.6035 0.034 -0.697 0.068 -0.697 0.7735v 0.918c 0 0.1105 0.034 0.102 0.119 0.068c 0.2125 -0.085 0.4675 -0.136 0.7395 -0.136c 0.476 0 0.901 0.1445 1.2495 0.476c 0.3995 0.391 0.629 0.918 0.629 1.6065c 0 0.901 -0.6375 1.734 -1.5045 1.734c -0.391 0 -0.8245 -0.255 -1.1645 -0.6375c -0.051 -0.051 -0.085 -0.051 -0.0935 0.034Z m 0.1615 -0.3145c 0.221 0.272 0.612 0.527 0.8585 0.527c 0.544 0 1.0115 -0.612 1.0115 -1.5725c 0 -0.697 -0.2465 -1.564 -1.1985 -1.564c -0.153 0 -0.4505 0.0425 -0.6035 0.1785c -0.17 0.153 -0.204 0.204 -0.204 0.51v 1.547c 0 0.1785 0.034 0.255 0.136 0.374Z "/></symbol><symbol id="gE34E15A46C94CBC2E6ABE8844A1DDB21" overflow="visible"><path d="M 0 0m 0.3485 1.7425c 0 -0.867 0.578 -1.8275 1.785 -1.8275c 0.544 0 0.9605 0.1955 1.2495 0.476c 0.3825 0.374 0.5525 0.9095 0.5525 1.428c 0 0.884 -0.4845 1.9125 -1.785 1.9125c -0.561 0 -1.02 -0.2295 -1.3345 -0.595c -0.306 -0.3655 -0.4675 -0.8585 -0.4675 -1.394Z m 1.6745 1.6915c 0.731 0 1.1815 -0.663 1.1815 -1.887c 0 -1.071 -0.5525 -1.3345 -0.952 -1.3345c -0.884 0 -1.173 1.071 -1.173 1.7255c 0 0.7395 0.1785 1.496 0.9435 1.496Z "/></symbol><symbol id="gDB83A5E3A43CD1314807805387E0A9CE" overflow="visible"><path d="M 0 0m 6.341 1.037v 1.5725c 0 0.697 0.1105 0.7395 0.578 0.7735c 0.051 0.051 0.051 0.2295 0 0.2805c -0.255 -0.0085 -0.578 -0.017 -0.918 -0.017c -0.34 0 -0.595 0.0085 -0.85 0.017c -0.051 -0.051 -0.051 -0.2295 0 -0.2805c 0.4335 -0.0425 0.5185 -0.0765 0.5185 -0.7735v -1.8445c 0 -0.2635 -0.0255 -0.4335 -0.357 -0.4335h -1.003c -0.255 0 -0.3655 0.0765 -0.3655 0.4335v 1.8445c 0.0085 0.697 0.068 0.7395 0.527 0.7735c 0.0425 0.051 0.0425 0.2295 0 0.2805c -0.2125 -0.0085 -0.527 -0.017 -0.867 -0.017c -0.34 0 -0.6205 0.0085 -0.833 0.017c -0.0425 -0.051 -0.0425 -0.2295 0 -0.2805c 0.425 -0.034 0.51 -0.0765 0.5015 -0.7735v -1.853c 0 -0.3145 -0.0425 -0.425 -0.357 -0.425h -0.969c -0.3145 0 -0.3655 0.0935 -0.3655 0.4335v 1.8445c 0 0.697 0.085 0.7395 0.527 0.7735c 0.0425 0.051 0.0425 0.2295 0 0.2805c -0.2125 -0.0085 -0.527 -0.017 -0.867 -0.017c -0.34 0 -0.6375 0.0085 -0.8755 0.017c -0.0425 -0.051 -0.0425 -0.2295 0 -0.2805c 0.4675 -0.034 0.544 -0.0765 0.544 -0.7735v -1.5725c 0 -0.697 -0.1105 -0.7395 -0.578 -0.7735c -0.051 -0.051 -0.051 -0.2295 0 -0.2805c 0.255 0.0085 0.578 0.017 0.918 0.017h 4.7515c 0.34 0 0.663 -0.0085 0.918 -0.017c 0.051 0.051 0.051 0.2295 0 0.2805c -0.4675 0.034 -0.578 0.0765 -0.578 0.7735Z "/></symbol><symbol id="gB3F6F741CFF64E2F87AE274E4C795DAE" overflow="visible"><path d="M 0 0m 3.553 1.037v 1.5725c 0 0.697 0.1105 0.7395 0.578 0.7735c 0.051 0.051 0.051 0.2295 0 0.2805c -0.255 -0.0085 -0.578 -0.017 -0.918 -0.017h -1.6065c -0.2805 0 -0.612 0.0085 -0.867 0.017c -0.051 -0.051 -0.051 -0.2295 0 -0.2805c 0.6035 -0.0425 0.6885 -0.0935 0.6885 -1.0115c 0 -0.8925 -0.068 -1.36 -0.187 -1.7085c -0.1105 -0.306 -0.255 -0.4165 -0.3995 -0.4165c -0.1105 0 -0.1445 0.068 -0.1615 0.1785c -0.0255 0.1615 -0.0765 0.323 -0.3145 0.323c -0.2125 0 -0.3315 -0.17 -0.3315 -0.357c 0 -0.2635 0.238 -0.493 0.629 -0.493c 0.4335 0 0.6715 0.221 0.867 0.68c 0.17 0.408 0.221 1.275 0.221 1.853c 0 0.663 0.0255 0.884 0.3655 0.884h 0.3825c 0.323 0 0.3825 -0.204 0.3825 -0.493v -1.785c 0 -0.697 -0.085 -0.7395 -0.527 -0.7735c -0.0425 -0.051 -0.0425 -0.2295 0 -0.2805c 0.2125 0.0085 0.527 0.017 0.867 0.017c 0.34 0 0.7225 -0.0085 0.9605 -0.017c 0.0425 0.051 0.0425 0.2295 0 0.2805c -0.5525 0.034 -0.629 0.0765 -0.629 0.7735Z "/></symbol><symbol id="g905CC1E7769410038F6D36CEC9509918" overflow="visible"><path d="M 0 0m 1.248 1.72c 0.304 0.344 0.6 0.728 1.016 1.36c -0.016 0.08 -0.104 0.144 -0.192 0.152c -0.632 -0.68 -1.032 -1.072 -1.48 -1.464v -0.096c 0.448 -0.392 0.848 -0.776 1.48 -1.464c 0.088 0.008 0.176 0.072 0.192 0.152c -0.416 0.632 -0.712 1.024 -1.016 1.36Z m 1.44 0c 0.304 0.344 0.6 0.728 1.016 1.36c -0.016 0.08 -0.104 0.144 -0.192 0.152c -0.632 -0.68 -1.032 -1.072 -1.48 -1.464v -0.096c 0.448 -0.392 0.848 -0.776 1.48 -1.464c 0.088 0.008 0.176 0.072 0.192 0.152c -0.416 0.632 -0.712 1.024 -1.016 1.36Z "/></symbol><symbol id="g3478CFDC408E67C5C7551BD6A62D2425" overflow="visible"><path d="M 0 0m 1.488 2.456c 0 0.456 0.056 0.664 0.336 0.664h 0.176c 0.656 0 0.848 -0.456 0.96 -0.92c 0.088 -0.008 0.168 0 0.232 0.032c -0.032 0.424 -0.056 0.776 -0.104 1.2l -0.016 0.016c 0 0 -0.64 -0.016 -0.896 -0.016h -1.008c -0.344 0 -0.624 0.008 -0.888 0.016c -0.048 -0.048 -0.048 -0.216 0 -0.264c 0.488 -0.032 0.576 -0.064 0.576 -0.728v -1.48c 0 -0.664 -0.088 -0.688 -0.576 -0.728c -0.048 -0.048 -0.048 -0.216 0 -0.264c 0.264 0.008 0.544 0.016 0.896 0.016c 0.344 0 0.632 -0.008 0.888 -0.016c 0.048 0.048 0.048 0.216 0 0.264c -0.488 0.032 -0.576 0.064 -0.576 0.728Z "/></symbol><symbol id="gAC00C34078948F83CC62D60B02C8E81A" overflow="visible"><path d="M 0 0m 1.512 3.432c -0.264 0 -0.576 0.008 -0.816 0.016c -0.048 -0.048 -0.048 -0.216 0 -0.264c 0.488 -0.04 0.632 -0.072 0.6 -0.736c -0.032 -0.736 -0.16 -1.328 -0.296 -1.888c -0.048 -0.216 -0.28 -0.288 -0.504 -0.312c -0.12 -0.016 -0.232 -0.064 -0.24 -0.208l -0.048 -1.064c 0.056 -0.024 0.12 -0.032 0.216 -0.008c 0.072 0.296 0.288 1.032 1.008 1.032h 1.384c 0.712 0 0.944 -0.72 1.016 -1.04c 0.072 -0.016 0.144 -0.016 0.224 0.016l -0.048 1.072c 0 0.112 -0.064 0.176 -0.216 0.2c -0.144 0.024 -0.344 0.08 -0.344 0.376v 1.832c 0 0.656 0.104 0.696 0.544 0.728c 0.048 0.048 0.048 0.216 0 0.264c -0.24 -0.008 -0.544 -0.016 -0.864 -0.016Z m -0.224 -3.024c 0 0.136 0.216 0.664 0.336 2.496c 0.008 0.12 0.064 0.224 0.28 0.224h 0.552c 0.32 0 0.36 -0.224 0.36 -0.496v -1.928c 0 -0.264 -0.016 -0.392 -0.336 -0.392h -1.032c -0.088 0 -0.16 0.008 -0.16 0.096Z "/></symbol><symbol id="g465CA45D0696F5BBCE5E7A11B5E63D98" overflow="visible"><path d="M 0 0m 3.088 0.744c -0.296 -0.304 -0.528 -0.432 -0.992 -0.432c -0.288 0 -0.624 0.168 -0.872 0.576c -0.16 0.264 -0.256 0.632 -0.256 1.096l 2.128 -0.016c 0.096 0 0.152 0.048 0.152 0.136c 0 0.672 -0.24 1.392 -1.352 1.392c -0.696 0 -1.6 -0.664 -1.6 -1.88c 0 -0.448 0.112 -0.88 0.376 -1.184c 0.272 -0.32 0.648 -0.512 1.224 -0.512c 0.608 0 1.04 0.28 1.36 0.696c -0.024 0.08 -0.072 0.12 -0.168 0.128Z m -2.096 1.512c 0.152 0.904 0.712 0.976 0.904 0.976c 0.304 0 0.664 -0.168 0.664 -0.84c 0 -0.072 -0.032 -0.112 -0.12 -0.112Z "/></symbol><symbol id="g7783EC9FB0C16305C83035E8146994B5" overflow="visible"><path d="M 0 0m 2.168 1.784c 0.104 0 0.216 0.224 0.216 0.32c 0 0.08 -0.032 0.16 -0.112 0.16h -1.752c -0.096 0 -0.2 -0.184 -0.2 -0.328c 0 -0.08 0.048 -0.152 0.12 -0.152Z "/></symbol><symbol id="gE09E60C0AC8E2E10ADA02C2F49261352" overflow="visible"><path d="M 0 0m 1.456 0.976c 0 -0.664 -0.088 -0.704 -0.576 -0.728c -0.048 -0.048 -0.048 -0.216 0 -0.264c 0.312 0.008 0.632 0.016 0.896 0.016c 0.272 0 0.584 -0.008 0.888 -0.016c 0.048 0.048 0.048 0.216 0 0.264c -0.488 0.024 -0.576 0.064 -0.576 0.728v 2.16h 0.136c 0.648 0 0.776 -0.224 0.912 -0.872c 0.104 0 0.208 0.032 0.208 0.032c -0.048 0.368 -0.08 0.72 -0.088 1.184c -0.184 -0.016 -0.784 -0.048 -1.184 -0.048h -0.6c -0.4 0 -0.848 0.024 -1.168 0.048c -0.008 -0.464 -0.04 -0.816 -0.096 -1.184c 0 0 0.112 -0.032 0.216 -0.032c 0.136 0.648 0.256 0.872 0.912 0.872h 0.12Z "/></symbol><symbol id="g5D01DA3AB390CB78D7E54204B7DC3F87" overflow="visible"><path d="M 0 0m 0.328 1.64c 0 -0.816 0.544 -1.72 1.68 -1.72c 0.512 0 0.904 0.184 1.176 0.448c 0.36 0.352 0.52 0.856 0.52 1.344c 0 0.832 -0.456 1.8 -1.68 1.8c -0.528 0 -0.96 -0.216 -1.256 -0.56c -0.288 -0.344 -0.44 -0.808 -0.44 -1.312Z m 1.576 1.592c 0.688 0 1.112 -0.624 1.112 -1.776c 0 -1.008 -0.52 -1.256 -0.896 -1.256c -0.832 0 -1.104 1.008 -1.104 1.624c 0 0.696 0.168 1.408 0.888 1.408Z "/></symbol><symbol id="gEB6A11AC15B5C06978DAB2E7110F42D7" overflow="visible"><path d="M 0 0m 1.656 1.72c -0.296 -0.336 -0.6 -0.728 -1.016 -1.36c 0.024 -0.08 0.112 -0.144 0.192 -0.152c 0.64 0.688 1.04 1.072 1.48 1.464v 0.096c -0.44 0.392 -0.84 0.784 -1.48 1.464c -0.08 -0.008 -0.168 -0.072 -0.192 -0.152c 0.416 -0.632 0.72 -1.016 1.016 -1.36Z m 1.44 0c -0.296 -0.336 -0.6 -0.728 -1.016 -1.36c 0.024 -0.08 0.112 -0.144 0.192 -0.152c 0.64 0.688 1.04 1.072 1.48 1.464v 0.096c -0.44 0.392 -0.84 0.784 -1.48 1.464c -0.08 -0.008 -0.168 -0.072 -0.192 -0.152c 0.416 -0.632 0.72 -1.016 1.016 -1.36Z "/></symbol><symbol id="g44F03F202C08F14EDCBE40C48B1B4799" overflow="visible"><path d="M 0 0m 1.4175 3.2175c -0.2475 0 -0.54 0.0075 -0.765 0.015c -0.045 -0.045 -0.045 -0.2025 0 -0.2475c 0.4575 -0.0375 0.5925 -0.0675 0.5625 -0.69c -0.03 -0.69 -0.15 -1.245 -0.2775 -1.77c -0.045 -0.2025 -0.2625 -0.27 -0.4725 -0.2925c -0.1125 -0.015 -0.2175 -0.06 -0.225 -0.195l -0.045 -0.9975c 0.0525 -0.0225 0.1125 -0.03 0.2025 -0.0075c 0.0675 0.2775 0.27 0.9675 0.945 0.9675h 1.2975c 0.6675 0 0.885 -0.675 0.9525 -0.975c 0.0675 -0.015 0.135 -0.015 0.21 0.015l -0.045 1.005c 0 0.105 -0.06 0.165 -0.2025 0.1875c -0.135 0.0225 -0.3225 0.075 -0.3225 0.3525v 1.7175c 0 0.615 0.0975 0.6525 0.51 0.6825c 0.045 0.045 0.045 0.2025 0 0.2475c -0.225 -0.0075 -0.51 -0.015 -0.81 -0.015Z m -0.21 -2.835c 0 0.1275 0.2025 0.6225 0.315 2.34c 0.0075 0.1125 0.06 0.21 0.2625 0.21h 0.5175c 0.3 0 0.3375 -0.21 0.3375 -0.465v -1.8075c 0 -0.2475 -0.015 -0.3675 -0.315 -0.3675h -0.9675c -0.0825 0 -0.15 0.0075 -0.15 0.09Z "/></symbol><symbol id="g9DFB8CAEC5B458B41F3893F12F8EC954" overflow="visible"><path d="M 0 0m 0.3075 1.5375c 0 -0.765 0.51 -1.6125 1.575 -1.6125c 0.48 0 0.8475 0.1725 1.1025 0.42c 0.3375 0.33 0.4875 0.8025 0.4875 1.26c 0 0.78 -0.4275 1.6875 -1.575 1.6875c -0.495 0 -0.9 -0.2025 -1.1775 -0.525c -0.27 -0.3225 -0.4125 -0.7575 -0.4125 -1.23Z m 1.4775 1.4925c 0.645 0 1.0425 -0.585 1.0425 -1.665c 0 -0.945 -0.4875 -1.1775 -0.84 -1.1775c -0.78 0 -1.035 0.945 -1.035 1.5225c 0 0.6525 0.1575 1.32 0.8325 1.32Z "/></symbol><symbol id="g24A3F0AF4AD0375F71DE4AF9BEABB01F" overflow="visible"><path d="M 0 0m 2.985 0.6825c -0.03 0.0675 -0.09 0.0975 -0.1575 0.105c -0.255 -0.33 -0.5775 -0.495 -0.9 -0.495c -0.5475 0 -1.005 0.555 -1.005 1.4325c 0 0.825 0.36 1.32 0.855 1.32c 0.4425 0 0.5025 -0.2625 0.5325 -0.525c 0.0225 -0.2025 0.1275 -0.27 0.285 -0.27c 0.1575 0 0.3675 0.0975 0.3675 0.33c 0 0.4125 -0.4275 0.7125 -1.1475 0.7125c -0.7425 0 -1.5375 -0.6675 -1.5375 -1.7325c 0 -0.9675 0.54 -1.635 1.485 -1.635c 0.45 0 0.8475 0.1425 1.2225 0.7575Z "/></symbol><symbol id="gEEA2F4BC857577D5A54B2015EAE5E394" overflow="visible"><path d="M 0 0m 1.365 0.915c 0 -0.6225 -0.0825 -0.66 -0.54 -0.6825c -0.045 -0.045 -0.045 -0.2025 0 -0.2475c 0.2925 0.0075 0.5925 0.015 0.84 0.015c 0.255 0 0.5475 -0.0075 0.8325 -0.015c 0.045 0.045 0.045 0.2025 0 0.2475c -0.4575 0.0225 -0.54 0.06 -0.54 0.6825v 2.025h 0.1275c 0.6075 0 0.7275 -0.21 0.855 -0.8175c 0.0975 0 0.195 0.03 0.195 0.03c -0.045 0.345 -0.075 0.675 -0.0825 1.11c -0.1725 -0.015 -0.735 -0.045 -1.11 -0.045h -0.5625c -0.375 0 -0.795 0.0225 -1.095 0.045c -0.0075 -0.435 -0.0375 -0.765 -0.09 -1.11c 0 0 0.105 -0.03 0.2025 -0.03c 0.1275 0.6075 0.24 0.8175 0.855 0.8175h 0.1125Z "/></symbol><symbol id="gD7561D22518914316F6BE22AAAA2B6AA" overflow="visible"><path d="M 0 0m 1.485 0.4725c -0.0225 0 -0.0525 0.015 -0.0525 0.09v 1.71c 0 0.6225 0.1575 0.69 0.54 0.7125c 0.045 0.045 0.045 0.2025 0 0.2475c -0.1725 -0.0075 -0.6 -0.015 -0.8775 -0.015c -0.2475 0 -0.5475 0.0075 -0.8325 0.015c -0.045 -0.045 -0.045 -0.2025 0 -0.2475c 0.4575 -0.0225 0.5775 -0.09 0.5775 -0.7125v -1.3275c 0 -0.6225 -0.12 -0.69 -0.5775 -0.7125c -0.045 -0.045 -0.045 -0.2025 0 -0.2475c 0.2925 0.0075 0.5925 0.015 0.8325 0.015c 0.1725 0 0.375 -0.0075 0.4575 -0.015c 0.0375 0.105 0.105 0.255 0.1875 0.405l 1.17 2.3475c 0.0225 0 0.0525 -0.015 0.0525 -0.09v -1.7025c 0 -0.6225 -0.1575 -0.69 -0.54 -0.7125c -0.045 -0.045 -0.045 -0.2025 0 -0.2475c 0.1725 0.0075 0.5775 0.015 0.8775 0.015c 0.2325 0 0.54 -0.0075 0.8325 -0.015c 0.045 0.045 0.045 0.2025 0 0.2475c -0.4575 0.0225 -0.5775 0.09 -0.5775 0.7125v 1.3275c 0 0.6225 0.12 0.69 0.5775 0.7125c 0.045 0.045 0.045 0.2025 0 0.2475c -0.3 -0.0075 -0.6 -0.015 -0.8325 -0.015c -0.165 0 -0.375 0.0075 -0.45 0.015c -0.06 -0.135 -0.1275 -0.2925 -0.195 -0.42Z "/></symbol><symbol id="g2CC855199A0AA6CAF67A668D2734FA5E" overflow="visible"><path d="M 0 0m 0.8175 0c 0.15 0.0075 0.2775 0.18 0.375 0.3825l 0.3225 0.675c 0.135 0.2775 0.345 0.48 0.855 0.51v -0.6525c 0 -0.6225 -0.09 -0.645 -0.4725 -0.6825c -0.045 -0.045 -0.045 -0.2025 0 -0.2475c 0.1725 0.0075 0.45 0.015 0.75 0.015c 0.2925 0 0.5775 -0.0075 0.7425 -0.015c 0.045 0.045 0.045 0.2025 0 0.2475c -0.3825 0.03 -0.4725 0.06 -0.4725 0.6825v 0.6525c 0.51 -0.03 0.72 -0.2325 0.855 -0.51l 0.3225 -0.675c 0.0975 -0.2025 0.225 -0.375 0.375 -0.3825c 0 0 0.555 -0.0075 0.705 -0.015c 0.045 0.045 0.045 0.2025 0 0.2475c -0.2925 0.015 -0.3675 0.075 -0.495 0.315l -0.3375 0.6375c -0.1875 0.3525 -0.435 0.5325 -0.8625 0.5325v 0.0225c 0.2925 0.0825 0.42 0.345 0.5325 0.645c 0.09 0.2325 0.18 0.375 0.3375 0.375c 0.0675 0 0.1275 -0.0225 0.1725 -0.0525c 0.045 -0.03 0.1275 -0.0525 0.225 -0.0525c 0.165 0 0.3 0.1425 0.3 0.2925c 0 0.165 -0.18 0.3375 -0.4275 0.3375c -0.435 0 -0.6375 -0.405 -0.78 -0.7575c -0.165 -0.4125 -0.39 -0.6975 -0.9225 -0.6975v 0.4725c 0 0.6225 0.09 0.645 0.4725 0.6825c 0.045 0.045 0.045 0.2025 0 0.2475c -0.18 -0.0075 -0.45 -0.015 -0.75 -0.015c -0.2925 0 -0.57 0.0075 -0.7425 0.015c -0.045 -0.045 -0.045 -0.2025 0 -0.2475c 0.3825 -0.03 0.4725 -0.06 0.4725 -0.6825v -0.4725c -0.5325 0 -0.7575 0.285 -0.9225 0.6975c -0.1425 0.3525 -0.345 0.7575 -0.78 0.7575c -0.2475 0 -0.4275 -0.1725 -0.4275 -0.3375c 0 -0.15 0.135 -0.2925 0.3 -0.2925c 0.0975 0 0.18 0.0225 0.225 0.0525c 0.045 0.03 0.105 0.0525 0.1725 0.0525c 0.1575 0 0.2475 -0.1425 0.3375 -0.375c 0.1125 -0.3 0.24 -0.5625 0.5325 -0.645v -0.0225c -0.4275 0 -0.675 -0.18 -0.8625 -0.5325l -0.3375 -0.6375c -0.1275 -0.24 -0.2025 -0.3 -0.495 -0.315c -0.045 -0.045 -0.045 -0.2025 0 -0.2475c 0.15 0.0075 0.705 0.015 0.705 0.015Z "/></symbol><symbol id="g9FFCC18D170BB6C28C600E5B5ACB7B09" overflow="visible"><path d="M 0 0m 0.8775 2.295l -0.045 -1.395c -0.0225 -0.63 -0.135 -0.645 -0.57 -0.6675c -0.045 -0.045 -0.045 -0.2025 0 -0.2475c 0.15 0.0075 0.525 0.015 0.645 0.015c 0.15 0 0.5025 -0.0075 0.6525 -0.015c 0.045 0.045 0.045 0.2025 0 0.2475c -0.4275 0.03 -0.4575 0.105 -0.4425 0.6675l 0.0525 1.8375c 0 0.0675 0.03 0.0675 0.06 0l 1.0875 -2.655c 0.03 -0.0225 0.06 -0.0225 0.0825 0l 1.23 2.6475c 0.0375 0.0825 0.075 0.09 0.075 0l -0.0075 -1.815c 0 -0.6225 -0.0525 -0.645 -0.51 -0.6825c -0.045 -0.045 -0.045 -0.2025 0 -0.2475c 0.27 0.0075 0.5475 0.015 0.81 0.015c 0.225 0 0.5475 -0.0075 0.84 -0.015c 0.045 0.045 0.045 0.2025 0 0.2475c -0.4575 0.03 -0.54 0.06 -0.54 0.6825l -0.015 1.3875c -0.0075 0.6225 0.0825 0.645 0.54 0.6825c 0.045 0.045 0.045 0.2025 0 0.2475c -0.2625 -0.015 -0.99 -0.015 -1.2375 -0.015l -0.9975 -2.145l -0.0375 -0.075l -0.03 0.075l -0.8775 2.145c -0.2475 0 -1.0425 0 -1.305 0.015c -0.045 -0.045 -0.045 -0.2025 0 -0.2475c 0.4575 -0.0375 0.5625 -0.0675 0.54 -0.69Z "/></symbol><symbol id="g9BD8815497ACE2CCB2ADDC08AAA56E57" overflow="visible"><path d="M 0 0m 3.5925 2.3025c 0 0.6225 0.0825 0.645 0.54 0.6825c 0.045 0.045 0.045 0.2025 0 0.2475c -0.2625 -0.015 -0.5925 -0.015 -0.84 -0.015c -0.21 0 -0.51 0.0075 -0.8025 0.015c -0.045 -0.045 -0.045 -0.2025 0 -0.2475c 0.4575 -0.03 0.51 -0.06 0.51 -0.6825v -0.4875h -1.605v 0.4875c 0 0.6225 0.0525 0.645 0.51 0.6825c 0.045 0.045 0.045 0.2025 0 0.2475c -0.285 -0.0075 -0.57 -0.015 -0.81 -0.015c -0.225 0 -0.5325 0.0075 -0.8325 0.015c -0.045 -0.045 -0.045 -0.2025 0 -0.2475c 0.4575 -0.03 0.54 -0.06 0.54 -0.6825v -1.3875c 0 -0.6225 -0.0825 -0.645 -0.54 -0.6825c -0.045 -0.045 -0.045 -0.2025 0 -0.2475c 0.3 0.0075 0.6 0.015 0.84 0.015c 0.24 0 0.5325 -0.0075 0.8025 -0.015c 0.045 0.045 0.045 0.2025 0 0.2475c -0.4575 0.03 -0.51 0.06 -0.51 0.6825v 0.6525h 1.605v -0.6525c 0 -0.6225 -0.0525 -0.645 -0.51 -0.6825c -0.045 -0.045 -0.045 -0.2025 0 -0.2475c 0.27 0.0075 0.5475 0.015 0.81 0.015c 0.225 0 0.54 -0.0075 0.8325 -0.015c 0.045 0.045 0.045 0.2025 0 0.2475c -0.4575 0.03 -0.54 0.06 -0.54 0.6825Z "/></symbol><symbol id="g3036A15D0A2AECE5F3220ADA73EBBEB6" overflow="visible"><path d="M 0 0m 2.895 0.6975c -0.2775 -0.285 -0.495 -0.405 -0.93 -0.405c -0.27 0 -0.585 0.1575 -0.8175 0.54c -0.15 0.2475 -0.24 0.5925 -0.24 1.0275l 1.995 -0.015c 0.09 0 0.1425 0.045 0.1425 0.1275c 0 0.63 -0.225 1.305 -1.2675 1.305c -0.6525 0 -1.5 -0.6225 -1.5 -1.7625c 0 -0.42 0.105 -0.825 0.3525 -1.11c 0.255 -0.3 0.6075 -0.48 1.1475 -0.48c 0.57 0 0.975 0.2625 1.275 0.6525c -0.0225 0.075 -0.0675 0.1125 -0.1575 0.12Z m -1.965 1.4175c 0.1425 0.8475 0.6675 0.915 0.8475 0.915c 0.285 0 0.6225 -0.1575 0.6225 -0.7875c 0 -0.0675 -0.03 -0.105 -0.1125 -0.105Z "/></symbol></defs></svg>