<svg viewBox="0 0 206.121177778 155.001419291" width="206.121177778pt" height="155.001419291pt" xmlns="http://www.w3.org/2000/svg" xmlns:xlink="http://www.w3.org/1999/xlink" xmlns:h5="http://www.w3.org/1999/xhtml"><path fill="#ffffff" fill-rule="nonzero" d="M 0 0v 155.001419291h 206.121177778v -155.001419291Z "/><g transform="translate(8 8)"><path fill="#9a9385" fill-rule="nonzero" transform="translate(36.950352668 113.385826772)" d="M 0 0m 1.417322835 0c -0.782056063 0 -1.417322835 0.635266772 -1.417322835 1.417322835c 0 0.782056063 0.635266772 1.417322835 1.417322835 1.417322835c 0.782056063 0 1.417322835 -0.635266772 1.417322835 -1.417322835c 0 -0.782056063 -0.635266772 -1.417322835 -1.417322835 -1.417322835Z "/><path fill="#9a9385" fill-rule="nonzero" transform="translate(36.950352668 85.039370079)" d="M 0 0m 1.417322835 0c -0.782056063 0 -1.417322835 0.635266772 -1.417322835 1.417322835c 0 0.782056063 0.635266772 1.417322835 1.417322835 1.417322835c 0.782056063 0 1.417322835 -0.635266772 1.417322835 -1.417322835c 0 -0.782056063 -0.635266772 -1.417322835 -1.417322835 -1.417322835Z "/><path fill="#9a9385" fill-rule="nonzero" transform="translate(36.950352668 56.692913386)" d="M 0 0m 1.417322835 0c -0.782056063 0 -1.417322835 0.635266772 -1.417322835 1.417322835c 0 0.782056063 0.635266772 1.417322835 1.417322835 1.417322835c 0.782056063 0 1.417322835 -0.635266772 1.417322835 -1.417322835c 0 -0.782056063 -0.635266772 -1.417322835 -1.417322835 -1.417322835Z "/><path fill="#9a9385" fill-rule="nonzero" transform="translate(36.950352668 28.346456693)" d="M 0 0m 1.417322835 0c -0.782056063 0 -1.417322835 0.635266772 -1.417322835 1.417322835c 0 0.782056063 0.635266772 1.417322835 1.417322835 1.417322835c 0.782056063 0 1.417322835 -0.635266772 1.417322835 -1.417322835c 0 -0.782056063 -0.635266772 -1.417322835 -1.417322835 -1.417322835Z "/><path fill="#9a9385" fill-rule="nonzero" transform="translate(36.950352668)" d="M 0 0m 1.417322835 0c -0.782056063 0 -1.417322835 0.635266772 -1.417322835 1.417322835c 0 0.782056063 0.635266772 1.417322835 1.417322835 1.417322835c 0.782056063 0 1.417322835 -0.635266772 1.417322835 -1.417322835c 0 -0.782056063 -0.635266772 -1.417322835 -1.417322835 -1.417322835Z "/><path fill="#9a9385" fill-rule="nonzero" transform="translate(65.296809361 113.385826772)" d="M 0 0m 1.417322835 0c -0.782056063 0 -1.417322835 0.635266772 -1.417322835 1.417322835c 0 0.782056063 0.635266772 1.417322835 1.417322835 1.417322835c 0.782056063 0 1.417322835 -0.635266772 1.417322835 -1.417322835c 0 -0.782056063 -0.635266772 -1.417322835 -1.417322835 -1.417322835Z "/><path fill="#9a9385" fill-rule="nonzero" transform="translate(65.296809361 85.039370079)" d="M 0 0m 1.417322835 0c -0.782056063 0 -1.417322835 0.635266772 -1.417322835 1.417322835c 0 0.782056063 0.635266772 1.417322835 1.417322835 1.417322835c 0.782056063 0 1.417322835 -0.635266772 1.417322835 -1.417322835c 0 -0.782056063 -0.635266772 -1.417322835 -1.417322835 -1.417322835Z "/><path fill="#9a9385" fill-rule="nonzero" transform="translate(65.296809361 56.692913386)" d="M 0 0m 1.417322835 0c -0.782056063 0 -1.417322835 0.635266772 -1.417322835 1.417322835c 0 0.782056063 0.635266772 1.417322835 1.417322835 1.417322835c 0.782056063 0 1.417322835 -0.635266772 1.417322835 -1.417322835c 0 -0.782056063 -0.635266772 -1.417322835 -1.417322835 -1.417322835Z "/><path fill="#9a9385" fill-rule="nonzero" transform="translate(65.296809361 28.346456693)" d="M 0 0m 1.417322835 0c -0.782056063 0 -1.417322835 0.635266772 -1.417322835 1.417322835c 0 0.782056063 0.635266772 1.417322835 1.417322835 1.417322835c 0.782056063 0 1.417322835 -0.635266772 1.417322835 -1.417322835c 0 -0.782056063 -0.635266772 -1.417322835 -1.417322835 -1.417322835Z "/><path fill="#9a9385" fill-rule="nonzero" transform="translate(65.296809361)" d="M 0 0m 1.417322835 0c -0.782056063 0 -1.417322835 0.635266772 -1.417322835 1.417322835c 0 0.782056063 0.635266772 1.417322835 1.417322835 1.417322835c 0.782056063 0 1.417322835 -0.635266772 1.417322835 -1.417322835c 0 -0.782056063 -0.635266772 -1.417322835 -1.417322835 -1.417322835Z "/><path fill="#9a9385" fill-rule="nonzero" transform="translate(93.643266054 113.385826772)" d="M 0 0m 1.417322835 0c -0.782056063 0 -1.417322835 0.635266772 -1.417322835 1.417322835c 0 0.782056063 0.635266772 1.417322835 1.417322835 1.417322835c 0.782056063 0 1.417322835 -0.635266772 1.417322835 -1.417322835c 0 -0.782056063 -0.635266772 -1.417322835 -1.417322835 -1.417322835Z "/><path fill="#9a9385" fill-rule="nonzero" transform="translate(93.643266054 85.039370079)" d="M 0 0m 1.417322835 0c -0.782056063 0 -1.417322835 0.635266772 -1.417322835 1.417322835c 0 0.782056063 0.635266772 1.417322835 1.417322835 1.417322835c 0.782056063 0 1.417322835 -0.635266772 1.417322835 -1.417322835c 0 -0.782056063 -0.635266772 -1.417322835 -1.417322835 -1.417322835Z "/><path fill="#9a9385" fill-rule="nonzero" transform="translate(93.643266054 56.692913386)" d="M 0 0m 1.417322835 0c -0.782056063 0 -1.417322835 0.635266772 -1.417322835 1.417322835c 0 0.782056063 0.635266772 1.417322835 1.417322835 1.417322835c 0.782056063 0 1.417322835 -0.635266772 1.417322835 -1.417322835c 0 -0.782056063 -0.635266772 -1.417322835 -1.417322835 -1.417322835Z "/><path fill="#9a9385" fill-rule="nonzero" transform="translate(93.643266054 28.346456693)" d="M 0 0m 1.417322835 0c -0.782056063 0 -1.417322835 0.635266772 -1.417322835 1.417322835c 0 0.782056063 0.635266772 1.417322835 1.417322835 1.417322835c 0.782056063 0 1.417322835 -0.635266772 1.417322835 -1.417322835c 0 -0.782056063 -0.635266772 -1.417322835 -1.417322835 -1.417322835Z "/><path fill="#9a9385" fill-rule="nonzero" transform="translate(93.643266054)" d="M 0 0m 1.417322835 0c -0.782056063 0 -1.417322835 0.635266772 -1.417322835 1.417322835c 0 0.782056063 0.635266772 1.417322835 1.417322835 1.417322835c 0.782056063 0 1.417322835 -0.635266772 1.417322835 -1.417322835c 0 -0.782056063 -0.635266772 -1.417322835 -1.417322835 -1.417322835Z "/><path fill="#9a9385" fill-rule="nonzero" transform="translate(121.989722747 113.385826772)" d="M 0 0m 1.417322835 0c -0.782056063 0 -1.417322835 0.635266772 -1.417322835 1.417322835c 0 0.782056063 0.635266772 1.417322835 1.417322835 1.417322835c 0.782056063 0 1.417322835 -0.635266772 1.417322835 -1.417322835c 0 -0.782056063 -0.635266772 -1.417322835 -1.417322835 -1.417322835Z "/><path fill="#9a9385" fill-rule="nonzero" transform="translate(121.989722747 85.039370079)" d="M 0 0m 1.417322835 0c -0.782056063 0 -1.417322835 0.635266772 -1.417322835 1.417322835c 0 0.782056063 0.635266772 1.417322835 1.417322835 1.417322835c 0.782056063 0 1.417322835 -0.635266772 1.417322835 -1.417322835c 0 -0.782056063 -0.635266772 -1.417322835 -1.417322835 -1.417322835Z "/><path fill="#9a9385" fill-rule="nonzero" transform="translate(121.989722747 56.692913386)" d="M 0 0m 1.417322835 0c -0.782056063 0 -1.417322835 0.635266772 -1.417322835 1.417322835c 0 0.782056063 0.635266772 1.417322835 1.417322835 1.417322835c 0.782056063 0 1.417322835 -0.635266772 1.417322835 -1.417322835c 0 -0.782056063 -0.635266772 -1.417322835 -1.417322835 -1.417322835Z "/><path fill="#9a9385" fill-rule="nonzero" transform="translate(121.989722747 28.346456693)" d="M 0 0m 1.417322835 0c -0.782056063 0 -1.417322835 0.635266772 -1.417322835 1.417322835c 0 0.782056063 0.635266772 1.417322835 1.417322835 1.417322835c 0.782056063 0 1.417322835 -0.635266772 1.417322835 -1.417322835c 0 -0.782056063 -0.635266772 -1.417322835 -1.417322835 -1.417322835Z "/><path fill="#9a9385" fill-rule="nonzero" transform="translate(121.989722747)" d="M 0 0m 1.417322835 0c -0.782056063 0 -1.417322835 0.635266772 -1.417322835 1.417322835c 0 0.782056063 0.635266772 1.417322835 1.417322835 1.417322835c 0.782056063 0 1.417322835 -0.635266772 1.417322835 -1.417322835c 0 -0.782056063 -0.635266772 -1.417322835 -1.417322835 -1.417322835Z "/><path fill="#9a9385" fill-rule="nonzero" transform="translate(150.33617944 113.385826772)" d="M 0 0m 1.417322835 0c -0.782056063 0 -1.417322835 0.635266772 -1.417322835 1.417322835c 0 0.782056063 0.635266772 1.417322835 1.417322835 1.417322835c 0.782056063 0 1.417322835 -0.635266772 1.417322835 -1.417322835c 0 -0.782056063 -0.635266772 -1.417322835 -1.417322835 -1.417322835Z "/><path fill="#9a9385" fill-rule="nonzero" transform="translate(150.33617944 85.039370079)" d="M 0 0m 1.417322835 0c -0.782056063 0 -1.417322835 0.635266772 -1.417322835 1.417322835c 0 0.782056063 0.635266772 1.417322835 1.417322835 1.417322835c 0.782056063 0 1.417322835 -0.635266772 1.417322835 -1.417322835c 0 -0.782056063 -0.635266772 -1.417322835 -1.417322835 -1.417322835Z "/><path fill="#9a9385" fill-rule="nonzero" transform="translate(150.33617944 56.692913386)" d="M 0 0m 1.417322835 0c -0.782056063 0 -1.417322835 0.635266772 -1.417322835 1.417322835c 0 0.782056063 0.635266772 1.417322835 1.417322835 1.417322835c 0.782056063 0 1.417322835 -0.635266772 1.417322835 -1.417322835c 0 -0.782056063 -0.635266772 -1.417322835 -1.417322835 -1.417322835Z "/><path fill="#9a9385" fill-rule="nonzero" transform="translate(150.33617944 28.346456693)" d="M 0 0m 1.417322835 0c -0.782056063 0 -1.417322835 0.635266772 -1.417322835 1.417322835c 0 0.782056063 0.635266772 1.417322835 1.417322835 1.417322835c 0.782056063 0 1.417322835 -0.635266772 1.417322835 -1.417322835c 0 -0.782056063 -0.635266772 -1.417322835 -1.417322835 -1.417322835Z "/><path fill="#9a9385" fill-rule="nonzero" transform="translate(150.33617944)" d="M 0 0m 1.417322835 0c -0.782056063 0 -1.417322835 0.635266772 -1.417322835 1.417322835c 0 0.782056063 0.635266772 1.417322835 1.417322835 1.417322835c 0.782056063 0 1.417322835 -0.635266772 1.417322835 -1.417322835c 0 -0.782056063 -0.635266772 -1.417322835 -1.417322835 -1.417322835Z "/><path fill="#1a1a18" fill-rule="nonzero" transform="translate(92.792872353 55.842519685)" d="M 0 0m 2.267716535 0c -1.251289701 0 -2.267716535 1.016426835 -2.267716535 2.267716535c 0 1.251289701 1.016426835 2.267716535 2.267716535 2.267716535c 1.251289701 0 2.267716535 -1.016426835 2.267716535 -2.267716535c 0 -1.251289701 -1.016426835 -2.267716535 -2.267716535 -2.267716535Z "/><path fill="none" transform="translate(93.316838889 65.526496063)" d="M 0 0h 3.4875v 5.01h -3.4875v -5.01Z "/><g transform="translate(93.316838889 65.526496016)"><g transform="matrix(1 0 0 -1 0 4.935)"><use xlink:href="#g755DF9CE1CDD846D73FA5B6599213F56" x="0" y="0" fill="#1a1a18" fill-rule="nonzero"/></g></g><path fill="none" stroke="#7c7f6a" stroke-width="1.4" stroke-linecap="butt" stroke-linejoin="miter" stroke-miterlimit="4" transform="translate(37.942478653 23.839370079)" d="M 0 0m 57.118110236 0c -31.516859339 0 -57.118110236 15.360750539 -57.118110236 34.270866142c 0 18.910115603 25.601250898 34.270866142 57.118110236 34.270866142c 31.516859339 0 57.118110236 -15.360750539 57.118110236 -34.270866142c 0 -18.910115603 -25.601250898 -34.270866142 -57.118110236 -34.270866142Z "/><path fill="#7c7f6a" fill-rule="nonzero" stroke="#1a1a18" stroke-width="0.6" stroke-linecap="butt" stroke-linejoin="miter" stroke-miterlimit="4" transform="translate(120.288935346 26.645669291)" d="M 0 0m 3.118110236 0c -1.720523339 0 -3.118110236 1.397586898 -3.118110236 3.118110236c 0 1.720523339 1.397586898 3.118110236 3.118110236 3.118110236c 1.720523339 0 3.118110236 -1.397586898 3.118110236 -3.118110236c 0 -1.720523339 -1.397586898 -3.118110236 -3.118110236 -3.118110236Z "/><path fill="none" transform="translate(129.07633692 21.943811024)" d="M 0 0h 47.76v 7.136h -47.76v -7.136Z "/><g transform="translate(129.076336873 21.943810913)"><g transform="matrix(1 0 0 -1 0 5.264)"><use xlink:href="#g89E7AED93332C4356E163D20D023452" x="0" y="0" fill="#7c7f6a" fill-rule="nonzero"/><use xlink:href="#gF09D88C2290872E835CD22D560D52A5C" x="4.12" y="0" fill="#7c7f6a" fill-rule="nonzero"/><use xlink:href="#g465CA45D0696F5BBCE5E7A11B5E63D98" x="7.608" y="0" fill="#7c7f6a" fill-rule="nonzero"/><use xlink:href="#gFF63DA2595F1651AF0C535BF803D9AEC" x="11.184" y="0" fill="#7c7f6a" fill-rule="nonzero"/><use xlink:href="#g46DFAA35BC521B4F2378CE697B4B163E" x="17.4" y="0" fill="#7c7f6a" fill-rule="nonzero"/><use xlink:href="#g465CA45D0696F5BBCE5E7A11B5E63D98" x="21.552" y="0" fill="#7c7f6a" fill-rule="nonzero"/><use xlink:href="#g7FEC4917393F0C2A72D87F7F150D50F" x="25.128" y="0" fill="#7c7f6a" fill-rule="nonzero"/><use xlink:href="#g5B86C949DFB7906AEEFB9D7AF40C1424" x="31.92" y="0" fill="#7c7f6a" fill-rule="nonzero"/><use xlink:href="#gE09E60C0AC8E2E10ADA02C2F49261352" x="35.496" y="0" fill="#7c7f6a" fill-rule="nonzero"/><use xlink:href="#g362A412C7577377BE4D103B9E5EDCC22" x="39.056" y="0" fill="#7c7f6a" fill-rule="nonzero"/><use xlink:href="#gDF0740817C60D01D4C0A2F901DD857A7" x="43.072" y="0" fill="#7c7f6a" fill-rule="nonzero"/></g></g><path fill="none" transform="translate(0 130.289919291)" d="M 0 0h 190.121177778v 8.7115h -190.121177778v -8.7115Z "/><g transform="translate(-1.35e-7 130.289919165)"><g transform="matrix(1 0 0 -1 0 6.4885)"><use xlink:href="#gC110FFC20529D78AB6B9724BF2D3193A" x="0" y="0" fill="#1a1a18" fill-rule="nonzero"/><use xlink:href="#gA087682AD38D2D620C1058FCC30E85F0" x="4.788" y="0" fill="#1a1a18" fill-rule="nonzero"/><use xlink:href="#gDB67F5BB72244F07D91A982190680438" x="9.4335" y="0" fill="#1a1a18" fill-rule="nonzero"/><use xlink:href="#gDB3041A08DFB71461CA9A9E16087AB39" x="14.801" y="0" fill="#1a1a18" fill-rule="nonzero"/><use xlink:href="#gC2CBF98E7E07B945C6FA500EA68B32AD" x="19.0475" y="0" fill="#1a1a18" fill-rule="nonzero"/></g><g transform="matrix(1 0 0 -1 27.8825 6.4885)"><use xlink:href="#g11B17A28EB70973DB583038FA1210D50" x="0" y="0" fill="#1a1a18" fill-rule="nonzero"/></g><g transform="matrix(1 0 0 -1 38.092888889 6.4885)"><use xlink:href="#g8A8C8F387883B5A10C7B694A6B08F89E" x="0" y="0" fill="#1a1a18" fill-rule="nonzero"/></g><g transform="matrix(1 0 0 -1 48.122777778 6.4885)"><use xlink:href="#g7B9CB793ADEA3E3D4A6889197B9DC4D9" x="0" y="0" fill="#1a1a18" fill-rule="nonzero"/></g><g transform="matrix(1 0 0 -1 52.872777778 3.04)"><use xlink:href="#g265A60A00C8582DF110892B981E10DAF" x="0" y="0" fill="#1a1a18" fill-rule="nonzero"/></g><g transform="matrix(1 0 0 -1 58.099677778 6.4885)"><use xlink:href="#g7A45A5715D56C7060E7DBE09C0ADCCB3" x="2.375" y="0" fill="#1a1a18" fill-rule="nonzero"/><use xlink:href="#gD243A48DAC45EEC7C88A2988B14DD756" x="15.485" y="0" fill="#1a1a18" fill-rule="nonzero"/><use xlink:href="#g111F480562FE960BC5F50C637F145B12" x="20.0355" y="0" fill="#1a1a18" fill-rule="nonzero"/><use xlink:href="#gE3D46A95002377B54E13EEB95624C7DA" x="25.6025" y="0" fill="#1a1a18" fill-rule="nonzero"/><use xlink:href="#gF1C320A4506B818F6BCB8CDA11A2DE6" x="30.495" y="0" fill="#1a1a18" fill-rule="nonzero"/><use xlink:href="#g5B0FB9F727640150CA57389F67238C5A" x="34.7225" y="0" fill="#1a1a18" fill-rule="nonzero"/><use xlink:href="#g30870B079B88F136C2A9AD2E2890E4EB" x="39.653" y="0" fill="#1a1a18" fill-rule="nonzero"/><use xlink:href="#gA3A5C9019285A4C81365474C03E3CF4E" x="47.595" y="0" fill="#1a1a18" fill-rule="nonzero"/><use xlink:href="#g966D14D99AB05D933C4957B2E7FE95D9" x="51.8415" y="0" fill="#1a1a18" fill-rule="nonzero"/><use xlink:href="#gF1C320A4506B818F6BCB8CDA11A2DE6" x="55.9075" y="0" fill="#1a1a18" fill-rule="nonzero"/><use xlink:href="#g4F6C4B764A667C0D20F43C1E2952DF77" x="60.135" y="0" fill="#1a1a18" fill-rule="nonzero"/><use xlink:href="#g111F480562FE960BC5F50C637F145B12" x="66.9275" y="0" fill="#1a1a18" fill-rule="nonzero"/><use xlink:href="#gA3A5C9019285A4C81365474C03E3CF4E" x="72.4945" y="0" fill="#1a1a18" fill-rule="nonzero"/><use xlink:href="#g111F480562FE960BC5F50C637F145B12" x="76.741" y="0" fill="#1a1a18" fill-rule="nonzero"/><use xlink:href="#gE3D46A95002377B54E13EEB95624C7DA" x="82.308" y="0" fill="#1a1a18" fill-rule="nonzero"/><use xlink:href="#gC86282117E7C9F65658F6DDAC49FC51A" x="87.2005" y="0" fill="#1a1a18" fill-rule="nonzero"/><use xlink:href="#gA3A5C9019285A4C81365474C03E3CF4E" x="92.207" y="0" fill="#1a1a18" fill-rule="nonzero"/><use xlink:href="#gD243A48DAC45EEC7C88A2988B14DD756" x="96.4535" y="0" fill="#1a1a18" fill-rule="nonzero"/><use xlink:href="#gC110FFC20529D78AB6B9724BF2D3193A" x="101.004" y="0" fill="#1a1a18" fill-rule="nonzero"/><use xlink:href="#g84D5B0775AF6B63E9D146732051F63A6" x="105.792" y="0" fill="#1a1a18" fill-rule="nonzero"/><use xlink:href="#gE3D46A95002377B54E13EEB95624C7DA" x="113.734" y="0" fill="#1a1a18" fill-rule="nonzero"/><use xlink:href="#g96E574CFF76A0BA1099A3734F20CCD95" x="118.6265" y="0" fill="#1a1a18" fill-rule="nonzero"/><use xlink:href="#gA3A5C9019285A4C81365474C03E3CF4E" x="122.7685" y="0" fill="#1a1a18" fill-rule="nonzero"/><use xlink:href="#gC86282117E7C9F65658F6DDAC49FC51A" x="127.015" y="0" fill="#1a1a18" fill-rule="nonzero"/></g></g></g><defs><symbol id="g755DF9CE1CDD846D73FA5B6599213F56" overflow="visible"><path d="M 0 0m 1.71 -0.075c 0.5775 0 1.455 0.585 1.455 2.3475c 0 0.7425 -0.18 1.38 -0.51 1.815c -0.195 0.2625 -0.51 0.4875 -0.915 0.4875c -0.7425 0 -1.4475 -0.885 -1.4475 -2.37c 0 -0.8025 0.2475 -1.5525 0.66 -1.965c 0.21 -0.21 0.465 -0.315 0.7575 -0.315Z m 0.03 4.3875c 0.1275 0 0.2475 -0.045 0.3375 -0.1275c 0.2325 -0.195 0.435 -0.765 0.435 -1.77c 0 -0.69 -0.0225 -1.1625 -0.1275 -1.545c -0.165 -0.615 -0.5325 -0.6825 -0.6675 -0.6825c -0.6975 0 -0.7725 1.2825 -0.7725 1.935c 0 1.845 0.4575 2.19 0.795 2.19Z "/></symbol><symbol id="g89E7AED93332C4356E163D20D023452" overflow="visible"><path d="M 0 0m 1.632 -1.28c 0.128 0.224 0.232 0.448 0.328 0.688c 0.64 1.544 1 2.368 1.416 3.264c 0.16 0.336 0.272 0.464 0.648 0.512c 0.048 0.048 0.048 0.216 0 0.264c -0.16 -0.008 -0.344 -0.016 -0.568 -0.016c -0.24 0 -0.488 0.008 -0.728 0.016c -0.048 -0.048 -0.048 -0.216 0 -0.264c 0.256 -0.024 0.512 -0.072 0.384 -0.36l -0.792 -1.832c -0.056 -0.128 -0.128 -0.152 -0.192 0.008l -0.712 1.664c -0.144 0.336 -0.184 0.488 0.264 0.52c 0.048 0.048 0.048 0.216 0 0.264c -0.296 -0.008 -0.616 -0.016 -0.904 -0.016c -0.272 0 -0.488 0.008 -0.648 0.016c -0.048 -0.048 -0.048 -0.216 0 -0.264c 0.32 -0.04 0.424 -0.112 0.632 -0.6l 0.904 -2.104c 0.072 -0.16 0.192 -0.528 0.112 -0.752c -0.096 -0.264 -0.192 -0.488 -0.312 -0.736c -0.088 -0.16 -0.2 -0.232 -0.4 -0.232c -0.112 0 -0.144 0.024 -0.232 0.024c -0.232 0 -0.352 -0.24 -0.352 -0.344c 0 -0.168 0.16 -0.296 0.376 -0.296c 0.168 0 0.488 0.064 0.776 0.576Z "/></symbol><symbol id="gF09D88C2290872E835CD22D560D52A5C" overflow="visible"><path d="M 0 0m 0.344 0.664c 0 -0.176 0.104 -0.304 0.272 -0.432c 0.2 -0.144 0.464 -0.312 1.096 -0.312c 0.8 0 1.424 0.24 1.424 1.032c 0 0.48 -0.24 0.8 -0.808 0.896v 0.024c 0.488 0.184 0.616 0.408 0.616 0.824c 0 0.464 -0.32 0.816 -1.128 0.816c -0.424 0 -0.8 -0.152 -1.232 -0.224l -0.104 -0.952c 0.064 -0.032 0.144 -0.04 0.216 -0.032c 0.152 0.464 0.352 0.928 1.024 0.928c 0.44 0 0.584 -0.264 0.584 -0.584c 0 -0.328 -0.056 -0.712 -0.568 -0.712c -0.152 0 -0.288 0.048 -0.44 0.048c -0.072 0 -0.152 -0.048 -0.152 -0.176c 0 -0.128 0.088 -0.168 0.16 -0.168c 0.152 0 0.24 0.048 0.44 0.048c 0.592 0 0.704 -0.408 0.704 -0.76c 0 -0.472 -0.176 -0.728 -0.744 -0.728c -0.456 0 -0.536 0.168 -0.672 0.456c -0.064 0.144 -0.152 0.256 -0.36 0.256c -0.144 0 -0.328 -0.12 -0.328 -0.248Z "/></symbol><symbol id="g465CA45D0696F5BBCE5E7A11B5E63D98" overflow="visible"><path d="M 0 0m 3.088 0.744c -0.296 -0.304 -0.528 -0.432 -0.992 -0.432c -0.288 0 -0.624 0.168 -0.872 0.576c -0.16 0.264 -0.256 0.632 -0.256 1.096l 2.128 -0.016c 0.096 0 0.152 0.048 0.152 0.136c 0 0.672 -0.24 1.392 -1.352 1.392c -0.696 0 -1.6 -0.664 -1.6 -1.88c 0 -0.448 0.112 -0.88 0.376 -1.184c 0.272 -0.32 0.648 -0.512 1.224 -0.512c 0.608 0 1.04 0.28 1.36 0.696c -0.024 0.08 -0.072 0.12 -0.168 0.128Z m -2.096 1.512c 0.152 0.904 0.712 0.976 0.904 0.976c 0.304 0 0.664 -0.168 0.664 -0.84c 0 -0.072 -0.032 -0.112 -0.12 -0.112Z "/></symbol><symbol id="gFF63DA2595F1651AF0C535BF803D9AEC" overflow="visible"><path d="M 0 0m 3.344 0.976v 1.48c 0 0.656 0.104 0.696 0.544 0.728c 0.048 0.048 0.048 0.216 0 0.264c -0.24 -0.008 -0.544 -0.016 -0.864 -0.016h -1.512c -0.264 0 -0.576 0.008 -0.816 0.016c -0.048 -0.048 -0.048 -0.216 0 -0.264c 0.568 -0.04 0.648 -0.088 0.648 -0.952c 0 -0.84 -0.064 -1.28 -0.176 -1.608c -0.104 -0.288 -0.24 -0.392 -0.376 -0.392c -0.104 0 -0.136 0.064 -0.152 0.168c -0.024 0.152 -0.072 0.304 -0.296 0.304c -0.2 0 -0.312 -0.16 -0.312 -0.336c 0 -0.248 0.224 -0.464 0.592 -0.464c 0.408 0 0.632 0.208 0.816 0.64c 0.16 0.384 0.208 1.2 0.208 1.744c 0 0.624 0.024 0.832 0.344 0.832h 0.36c 0.304 0 0.36 -0.192 0.36 -0.464v -1.68c 0 -0.656 -0.08 -0.696 -0.496 -0.728c -0.04 -0.048 -0.04 -0.216 0 -0.264c 0.2 0.008 0.496 0.016 0.816 0.016c 0.32 0 0.68 -0.008 0.904 -0.016c 0.04 0.048 0.04 0.216 0 0.264c -0.52 0.032 -0.592 0.072 -0.592 0.728Z "/></symbol><symbol id="g46DFAA35BC521B4F2378CE697B4B163E" overflow="visible"><path d="M 0 0m 1.248 2.944c -0.008 0.24 -0.024 0.448 -0.064 0.528c -0.016 0.04 -0.032 0.064 -0.096 0.064c -0.224 -0.088 -0.432 -0.16 -0.984 -0.232c -0.016 -0.048 0 -0.176 0.016 -0.224c 0.432 -0.04 0.52 -0.08 0.52 -0.544v -3.416c 0 -0.664 -0.088 -0.704 -0.576 -0.728c -0.048 -0.048 -0.048 -0.216 0 -0.264c 0.28 0.008 0.576 0.016 0.896 0.016c 0.32 0 0.704 -0.008 0.968 -0.016c 0.048 0.048 0.048 0.216 0 0.264c -0.568 0.032 -0.656 0.064 -0.656 0.728v 0.864c 0 0.104 0.032 0.096 0.112 0.064c 0.2 -0.08 0.44 -0.128 0.696 -0.128c 0.448 0 0.848 0.136 1.176 0.448c 0.376 0.368 0.592 0.864 0.592 1.512c 0 0.848 -0.6 1.632 -1.416 1.632c -0.368 0 -0.776 -0.24 -1.096 -0.6c -0.048 -0.048 -0.08 -0.048 -0.088 0.032Z m 0.152 -0.296c 0.208 0.256 0.576 0.496 0.808 0.496c 0.512 0 0.952 -0.576 0.952 -1.48c 0 -0.656 -0.232 -1.472 -1.128 -1.472c -0.144 0 -0.424 0.04 -0.568 0.168c -0.16 0.144 -0.192 0.192 -0.192 0.48v 1.456c 0 0.168 0.032 0.24 0.128 0.352Z "/></symbol><symbol id="g7FEC4917393F0C2A72D87F7F150D50F" overflow="visible"><path d="M 0 0m 5.968 0.976v 1.48c 0 0.656 0.104 0.696 0.544 0.728c 0.048 0.048 0.048 0.216 0 0.264c -0.24 -0.008 -0.544 -0.016 -0.864 -0.016c -0.32 0 -0.56 0.008 -0.8 0.016c -0.048 -0.048 -0.048 -0.216 0 -0.264c 0.408 -0.04 0.488 -0.072 0.488 -0.728v -1.736c 0 -0.248 -0.024 -0.408 -0.336 -0.408h -0.944c -0.24 0 -0.344 0.072 -0.344 0.408v 1.736c 0.008 0.656 0.064 0.696 0.496 0.728c 0.04 0.048 0.04 0.216 0 0.264c -0.2 -0.008 -0.496 -0.016 -0.816 -0.016c -0.32 0 -0.584 0.008 -0.784 0.016c -0.04 -0.048 -0.04 -0.216 0 -0.264c 0.4 -0.032 0.48 -0.072 0.472 -0.728v -1.744c 0 -0.296 -0.04 -0.4 -0.336 -0.4h -0.912c -0.296 0 -0.344 0.088 -0.344 0.408v 1.736c 0 0.656 0.08 0.696 0.496 0.728c 0.04 0.048 0.04 0.216 0 0.264c -0.2 -0.008 -0.496 -0.016 -0.816 -0.016c -0.32 0 -0.6 0.008 -0.824 0.016c -0.04 -0.048 -0.04 -0.216 0 -0.264c 0.44 -0.032 0.512 -0.072 0.512 -0.728v -1.48c 0 -0.656 -0.104 -0.696 -0.544 -0.728c -0.048 -0.048 -0.048 -0.216 0 -0.264c 0.24 0.008 0.544 0.016 0.864 0.016h 4.472c 0.32 0 0.624 -0.008 0.864 -0.016c 0.048 0.048 0.048 0.216 0 0.264c -0.44 0.032 -0.544 0.072 -0.544 0.728Z "/></symbol><symbol id="g5B86C949DFB7906AEEFB9D7AF40C1424" overflow="visible"><path d="M 0 0m 3.088 0.744c -0.296 -0.304 -0.528 -0.432 -0.992 -0.432c -0.288 0 -0.624 0.168 -0.872 0.576c -0.16 0.264 -0.256 0.632 -0.256 1.096l 2.128 -0.016c 0.096 0 0.152 0.048 0.152 0.136c 0 0.672 -0.24 1.392 -1.352 1.392c -0.696 0 -1.6 -0.664 -1.6 -1.88c 0 -0.448 0.112 -0.88 0.376 -1.184c 0.272 -0.32 0.648 -0.512 1.224 -0.512c 0.608 0 1.04 0.28 1.36 0.696c -0.024 0.08 -0.072 0.12 -0.168 0.128Z m -2.096 1.512c 0.152 0.904 0.712 0.976 0.904 0.976c 0.304 0 0.664 -0.168 0.664 -0.84c 0 -0.072 -0.032 -0.112 -0.12 -0.112Z m -0.2 2.344c 0 -0.208 0.168 -0.376 0.376 -0.376c 0.208 0 0.376 0.168 0.376 0.376c 0 0.208 -0.168 0.384 -0.376 0.384c -0.208 0 -0.376 -0.176 -0.376 -0.384Z m 1.352 0c 0 -0.208 0.168 -0.376 0.376 -0.376c 0.208 0 0.376 0.168 0.376 0.376c 0 0.208 -0.168 0.384 -0.376 0.384c -0.208 0 -0.376 -0.176 -0.376 -0.384Z "/></symbol><symbol id="gE09E60C0AC8E2E10ADA02C2F49261352" overflow="visible"><path d="M 0 0m 1.456 0.976c 0 -0.664 -0.088 -0.704 -0.576 -0.728c -0.048 -0.048 -0.048 -0.216 0 -0.264c 0.312 0.008 0.632 0.016 0.896 0.016c 0.272 0 0.584 -0.008 0.888 -0.016c 0.048 0.048 0.048 0.216 0 0.264c -0.488 0.024 -0.576 0.064 -0.576 0.728v 2.16h 0.136c 0.648 0 0.776 -0.224 0.912 -0.872c 0.104 0 0.208 0.032 0.208 0.032c -0.048 0.368 -0.08 0.72 -0.088 1.184c -0.184 -0.016 -0.784 -0.048 -1.184 -0.048h -0.6c -0.4 0 -0.848 0.024 -1.168 0.048c -0.008 -0.464 -0.04 -0.816 -0.096 -1.184c 0 0 0.112 -0.032 0.216 -0.032c 0.136 0.648 0.256 0.872 0.912 0.872h 0.12Z "/></symbol><symbol id="g362A412C7577377BE4D103B9E5EDCC22" overflow="visible"><path d="M 0 0m 3.088 0c 0 0 0.624 -0.008 0.784 -0.016c 0.048 0.048 0.048 0.216 0 0.264c -0.312 0.016 -0.376 0.08 -0.512 0.336l -0.36 0.68c -0.2 0.376 -0.48 0.568 -0.936 0.568v 0.024c 0.312 0.088 0.448 0.368 0.568 0.688c 0.096 0.248 0.192 0.4 0.36 0.4c 0.072 0 0.136 -0.024 0.184 -0.056c 0.048 -0.032 0.136 -0.056 0.24 -0.056c 0.176 0 0.32 0.152 0.32 0.312c 0 0.176 -0.192 0.36 -0.456 0.36c -0.464 0 -0.68 -0.432 -0.832 -0.808c -0.176 -0.44 -0.392 -0.744 -0.96 -0.744v 0.504c 0 0.664 0.088 0.688 0.496 0.728c 0.048 0.048 0.048 0.216 0 0.264c -0.192 -0.008 -0.496 -0.016 -0.816 -0.016c -0.344 0 -0.624 0.008 -0.888 0.016c -0.048 -0.048 -0.048 -0.216 0 -0.264c 0.488 -0.032 0.576 -0.064 0.576 -0.728v -1.48c 0 -0.664 -0.088 -0.688 -0.576 -0.728c -0.048 -0.048 -0.048 -0.216 0 -0.264c 0.264 0.008 0.544 0.016 0.896 0.016c 0.312 0 0.632 -0.008 0.808 -0.016c 0.048 0.048 0.048 0.216 0 0.264c -0.408 0.032 -0.496 0.064 -0.496 0.728v 0.696c 0.544 -0.032 0.688 -0.248 0.832 -0.544l 0.344 -0.72c 0.104 -0.216 0.264 -0.4 0.424 -0.408Z "/></symbol><symbol id="gDF0740817C60D01D4C0A2F901DD857A7" overflow="visible"><path d="M 0 0m 1.584 0.504c -0.024 0 -0.056 0.016 -0.056 0.096v 1.824c 0 0.664 0.168 0.736 0.576 0.76c 0.048 0.048 0.048 0.216 0 0.264c -0.184 -0.008 -0.64 -0.016 -0.936 -0.016c -0.264 0 -0.584 0.008 -0.888 0.016c -0.048 -0.048 -0.048 -0.216 0 -0.264c 0.488 -0.024 0.616 -0.096 0.616 -0.76v -1.416c 0 -0.664 -0.128 -0.736 -0.616 -0.76c -0.048 -0.048 -0.048 -0.216 0 -0.264c 0.312 0.008 0.632 0.016 0.888 0.016c 0.184 0 0.4 -0.008 0.488 -0.016c 0.04 0.112 0.112 0.272 0.2 0.432l 1.248 2.504c 0.024 0 0.056 -0.016 0.056 -0.096v -1.816c 0 -0.664 -0.168 -0.736 -0.576 -0.76c -0.048 -0.048 -0.048 -0.216 0 -0.264c 0.184 0.008 0.616 0.016 0.936 0.016c 0.248 0 0.576 -0.008 0.888 -0.016c 0.048 0.048 0.048 0.216 0 0.264c -0.488 0.024 -0.616 0.096 -0.616 0.76v 1.416c 0 0.664 0.128 0.736 0.616 0.76c 0.048 0.048 0.048 0.216 0 0.264c -0.32 -0.008 -0.64 -0.016 -0.888 -0.016c -0.176 0 -0.4 0.008 -0.48 0.016c -0.064 -0.144 -0.136 -0.312 -0.208 -0.448Z "/></symbol><symbol id="gC110FFC20529D78AB6B9724BF2D3193A" overflow="visible"><path d="M 0 0m 0.3895 1.9475c 0 -0.969 0.646 -2.0425 1.995 -2.0425c 0.608 0 1.0735 0.2185 1.3965 0.532c 0.4275 0.418 0.6175 1.0165 0.6175 1.596c 0 0.988 -0.5415 2.1375 -1.995 2.1375c -0.627 0 -1.14 -0.2565 -1.4915 -0.665c -0.342 -0.4085 -0.5225 -0.9595 -0.5225 -1.558Z m 1.8715 1.8905c 0.817 0 1.3205 -0.741 1.3205 -2.109c 0 -1.197 -0.6175 -1.4915 -1.064 -1.4915c -0.988 0 -1.311 1.197 -1.311 1.9285c 0 0.8265 0.1995 1.672 1.0545 1.672Z "/></symbol><symbol id="gA087682AD38D2D620C1058FCC30E85F0" overflow="visible"><path d="M 0 0m 0.323 2.4415c 0 -1.7955 1.0355 -2.5365 1.957 -2.5365c 1.3015 0 2.052 0.969 2.052 2.166c 0 1.026 -0.57 2.0995 -1.9095 2.0995c -0.9025 0 -1.4535 -0.532 -1.6625 -0.988l -0.019 0.019c 0.038 0.494 0.19 1.102 0.3325 1.349c 0.304 0.5225 0.665 0.551 1.539 0.646c 0.855 0.095 1.463 0.3705 1.5485 1.4345c -0.0665 0.0285 -0.133 0.038 -0.209 0c -0.076 -0.456 -0.5795 -0.5795 -1.3775 -0.703c -0.7695 -0.1235 -1.4155 -0.3895 -1.8145 -1.14c -0.342 -0.646 -0.437 -1.444 -0.437 -2.3465Z m 0.817 -0.247c 0 0.532 0.19 1.6435 1.178 1.6435c 0.741 0 1.197 -0.855 1.197 -1.995c 0 -1.197 -0.551 -1.6055 -1.064 -1.6055c -0.6935 0 -1.311 0.9025 -1.311 1.957Z "/></symbol><symbol id="gDB67F5BB72244F07D91A982190680438" overflow="visible"><path d="M 0 0m 1.9665 2.9165v -1.7575c 0 -0.7885 -0.1045 -0.817 -0.684 -0.8645c -0.057 -0.057 -0.057 -0.2565 0 -0.3135c 0.3135 0.0095 0.646 0.019 1.064 0.019c 0.3895 0 0.5985 -0.019 0.988 -0.019c 1.1685 0 1.805 0.2945 1.805 1.311c 0 0.893 -0.779 1.1495 -1.7385 1.1495h -0.684v 0.4655c 0 0.798 0.1045 0.8265 0.684 0.874c 0.057 0.057 0.057 0.2565 0 0.3135c -0.323 -0.0095 -0.646 -0.019 -1.064 -0.019c -0.76 0 -1.957 0.019 -1.957 0.019c -0.0095 -0.551 -0.057 -0.9975 -0.1235 -1.4345c 0.076 -0.0285 0.171 -0.057 0.2755 -0.0475c 0.171 0.779 0.304 1.1115 1.0355 1.1115c 0.2185 0 0.399 -0.114 0.399 -0.8075Z m 2.356 -1.7195c 0 -0.779 -0.475 -0.9025 -0.9785 -0.9025c -0.4655 0 -0.627 0.095 -0.627 0.4275v 1.406h 0.6745c 0.7125 0 0.931 -0.4275 0.931 -0.931Z "/></symbol><symbol id="gDB3041A08DFB71461CA9A9E16087AB39" overflow="visible"><path d="M 0 0m 3.667 0.8835c -0.3515 -0.361 -0.627 -0.513 -1.178 -0.513c -0.342 0 -0.741 0.1995 -1.0355 0.684c -0.19 0.3135 -0.304 0.7505 -0.304 1.3015l 2.527 -0.019c 0.114 0 0.1805 0.057 0.1805 0.1615c 0 0.798 -0.285 1.653 -1.6055 1.653c -0.8265 0 -1.9 -0.7885 -1.9 -2.2325c 0 -0.532 0.133 -1.045 0.4465 -1.406c 0.323 -0.38 0.7695 -0.608 1.4535 -0.608c 0.722 0 1.235 0.3325 1.615 0.8265c -0.0285 0.095 -0.0855 0.1425 -0.1995 0.152Z m -2.489 1.7955c 0.1805 1.0735 0.8455 1.159 1.0735 1.159c 0.361 0 0.7885 -0.1995 0.7885 -0.9975c 0 -0.0855 -0.038 -0.133 -0.1425 -0.133Z m -0.2375 2.7835c 0 -0.247 0.1995 -0.4465 0.4465 -0.4465c 0.247 0 0.4465 0.1995 0.4465 0.4465c 0 0.247 -0.1995 0.456 -0.4465 0.456c -0.247 0 -0.4465 -0.209 -0.4465 -0.456Z m 1.6055 0c 0 -0.247 0.1995 -0.4465 0.4465 -0.4465c 0.247 0 0.4465 0.1995 0.4465 0.4465c 0 0.247 -0.1995 0.456 -0.4465 0.456c -0.247 0 -0.4465 -0.209 -0.4465 -0.456Z "/></symbol><symbol id="gC2CBF98E7E07B945C6FA500EA68B32AD" overflow="visible"><path d="M 0 0m 1.1115 2.907l -0.057 -1.767c -0.0285 -0.798 -0.171 -0.817 -0.722 -0.8455c -0.057 -0.057 -0.057 -0.2565 0 -0.3135c 0.19 0.0095 0.665 0.019 0.817 0.019c 0.19 0 0.6365 -0.0095 0.8265 -0.019c 0.057 0.057 0.057 0.2565 0 0.3135c -0.5415 0.038 -0.5795 0.133 -0.5605 0.8455l 0.0665 2.3275c 0 0.0855 0.038 0.0855 0.076 0l 1.3775 -3.363c 0.038 -0.0285 0.076 -0.0285 0.1045 0l 1.558 3.3535c 0.0475 0.1045 0.095 0.114 0.095 0l -0.0095 -2.299c 0 -0.7885 -0.0665 -0.817 -0.646 -0.8645c -0.057 -0.057 -0.057 -0.2565 0 -0.3135c 0.342 0.0095 0.6935 0.019 1.026 0.019c 0.285 0 0.6935 -0.0095 1.064 -0.019c 0.057 0.057 0.057 0.2565 0 0.3135c -0.5795 0.038 -0.684 0.076 -0.684 0.8645l -0.019 1.7575c -0.0095 0.7885 0.1045 0.817 0.684 0.8645c 0.057 0.057 0.057 0.2565 0 0.3135c -0.3325 -0.019 -1.254 -0.019 -1.5675 -0.019l -1.2635 -2.717l -0.0475 -0.095l -0.038 0.095l -1.1115 2.717c -0.3135 0 -1.3205 0 -1.653 0.019c -0.057 -0.057 -0.057 -0.2565 0 -0.3135c 0.5795 -0.0475 0.7125 -0.0855 0.684 -0.874Z "/></symbol><symbol id="g11B17A28EB70973DB583038FA1210D50" overflow="visible"><path d="M 0 0m 6.3745 6.46c -0.1805 0 -0.7505 0.0285 -0.931 0.0285c -0.1425 0 -0.2185 -0.076 -0.2185 -0.2185c 0 -0.095 0.0665 -0.1425 0.19 -0.152c 0.266 -0.0095 0.399 -0.1045 0.399 -0.266c 0 -0.0855 -0.0475 -0.1995 -0.133 -0.342l -2.831 -4.4935l -0.627 4.864c 0 0.1615 0.1995 0.2375 0.608 0.2375c 0.19 0 0.2755 0.0665 0.2755 0.228c 0 0.095 -0.057 0.1425 -0.171 0.1425c -0.209 0 -0.95 -0.0285 -1.159 -0.0285c -0.19 0 -0.836 0.0285 -1.026 0.0285c -0.1425 0 -0.2185 -0.076 -0.2185 -0.2185c 0 -0.1045 0.095 -0.152 0.2755 -0.152c 0.1615 0 0.2755 -0.019 0.3515 -0.038c 0.152 -0.0475 0.1425 -0.0665 0.171 -0.247l 0.741 -5.795c 0.0285 -0.1615 0.1045 -0.247 0.228 -0.247c 0.1235 0 0.2185 0.0665 0.2945 0.19l 3.382 5.377c 0.2185 0.342 0.4275 0.5605 0.6365 0.646c 0.1425 0.0665 0.323 0.1045 0.532 0.114c 0.1045 0.0095 0.152 0.076 0.1615 0.2185c 0.0095 0.1045 -0.0475 0.152 -0.1615 0.152c -0.1425 0 -0.627 -0.0285 -0.7695 -0.0285Z "/></symbol><symbol id="g8A8C8F387883B5A10C7B694A6B08F89E" overflow="visible"><path d="M 0 0m 6.517 2.1565c 0.095 0.0475 0.1425 0.114 0.1425 0.2185c 0 0.1045 -0.0475 0.171 -0.1425 0.2185l -5.453 2.584c -0.0285 0.0095 -0.0665 0.019 -0.1045 0.019c -0.152 0 -0.228 -0.076 -0.228 -0.2375c 0 -0.0855 0.0475 -0.152 0.133 -0.19l 5.073 -2.394l -5.073 -2.394c -0.0855 -0.038 -0.133 -0.1045 -0.133 -0.19c 0 -0.1615 0.076 -0.2375 0.228 -0.2375c 0.038 0 0.076 0.0095 0.1045 0.019Z "/></symbol><symbol id="g7B9CB793ADEA3E3D4A6889197B9DC4D9" overflow="visible"><path d="M 0 0m 2.2515 6.327c -0.4845 0 -0.893 -0.171 -1.2445 -0.513c -0.3515 -0.342 -0.532 -0.741 -0.532 -1.2255c 0 -0.323 0.2375 -0.5605 0.532 -0.5605c 0.285 0 0.5225 0.247 0.5225 0.532c 0 0.3135 -0.228 0.532 -0.532 0.532c -0.0285 0 -0.0475 0 -0.0665 -0.0095c 0.1805 0.4655 0.5985 0.874 1.197 0.874c 0.779 0 1.216 -0.6745 1.216 -1.4915c 0 -0.6365 -0.323 -1.3205 -0.969 -2.0425l -1.786 -2.014c -0.1235 -0.1425 -0.114 -0.133 -0.114 -0.4085h 3.5245l 0.2755 1.71h -0.3135c -0.076 -0.4845 -0.1425 -0.76 -0.1995 -0.8455c -0.0475 -0.0475 -0.3325 -0.0665 -0.855 -0.0665h -1.5865l 0.9215 0.9025c 0.646 0.608 1.463 1.2635 1.7385 1.767c 0.19 0.3325 0.285 0.665 0.285 0.9975c 0 1.121 -0.874 1.862 -2.014 1.862Z "/></symbol><symbol id="g265A60A00C8582DF110892B981E10DAF" overflow="visible"><path d="M 0 0m 1.0906 2.93265c -0.21945 0 -0.399 -0.1197 -0.53865 -0.36575c -0.0931 -0.16625 -0.16625 -0.33915 -0.2128 -0.532c -0.01995 -0.07315 -0.0266 -0.11305 -0.0266 -0.12635c 0 -0.07315 0.04655 -0.11305 0.13965 -0.11305c 0.12635 0 0.133 0.07315 0.16625 0.2128c 0.11305 0.45885 0.266 0.6916 0.45885 0.6916c 0.12635 0 0.1862 -0.09975 0.1862 -0.29925c 0 -0.07315 -0.03325 -0.24605 -0.1064 -0.532l -0.35245 -1.4231c -0.04655 -0.17955 -0.0665 -0.27265 -0.0665 -0.2793c 0 -0.15295 0.08645 -0.23275 0.2527 -0.23275c 0.12635 0 0.21945 0.0532 0.2793 0.1596c 0.01995 0.0399 0.05985 0.17955 0.1197 0.4123l 0.13965 0.5852c 0.0798 0.31255 0.12635 0.48545 0.13965 0.52535c 0.0532 0.1729 0.133 0.33915 0.24605 0.4921c 0.2793 0.39235 0.5985 0.59185 0.96425 0.59185c 0.2394 0 0.3591 -0.1463 0.3591 -0.43225c 0 -0.25935 -0.12635 -0.7182 -0.3857 -1.3832c -0.0665 -0.1729 -0.09975 -0.2926 -0.09975 -0.36575c 0 -0.3591 0.2926 -0.5852 0.6517 -0.5852c 0.31255 0 0.56525 0.1596 0.7448 0.4788c 0.15295 0.27265 0.2261 0.4522 0.2261 0.5453c 0 0.07315 -0.04655 0.11305 -0.133 0.11305c -0.04655 -0.00665 -0.0931 -0.0399 -0.13965 -0.1064c -0.00665 -0.00665 -0.00665 -0.01995 -0.00665 -0.0266c -0.15295 -0.51205 -0.37905 -0.7714 -0.67165 -0.7714c -0.0931 0 -0.13965 0.0665 -0.13965 0.20615c 0 0.0931 0.0532 0.266 0.15295 0.5187c 0.23275 0.59185 0.3458 1.01745 0.3458 1.27015c 0 0.3059 -0.1064 0.5187 -0.31255 0.63175c -0.16625 0.0931 -0.3591 0.13965 -0.56525 0.13965c -0.43225 0 -0.798 -0.1862 -1.0906 -0.5586c -0.05985 0.32585 -0.3458 0.5586 -0.72485 0.5586Z "/></symbol><symbol id="g7A45A5715D56C7060E7DBE09C0ADCCB3" overflow="visible"><path d="M 0 0m 8.132 0.779c 0.817 0.9215 1.5865 1.4535 2.052 1.615v 0.2185c -1.026 0.418 -2.052 1.634 -2.052 1.6435h -0.38c 0.3705 -0.798 0.76 -1.235 1.0735 -1.4915h -8.265v -0.494h 8.265c -0.304 -0.2945 -0.7695 -0.8075 -1.0545 -1.4915Z "/></symbol><symbol id="gD243A48DAC45EEC7C88A2988B14DD756" overflow="visible"><path d="M 0 0m 1.387 4.0755c -0.4085 0 -0.741 0.0095 -1.0545 0.019c -0.057 -0.057 -0.057 -0.2565 0 -0.3135c 0.5795 -0.038 0.684 -0.076 0.684 -0.8645v -1.7575c 0 -0.7885 -0.1045 -0.817 -0.684 -0.8645c -0.057 -0.057 -0.057 -0.2565 0 -0.3135c 0.3135 0.0095 0.646 0.019 1.064 0.019c 0.3515 0 0.665 -0.019 1.3015 -0.019c 0.817 0 1.4345 0.228 1.4345 1.1685c 0 0.532 -0.3325 0.9025 -0.912 1.007v 0.0285c 0.437 0.0855 0.7695 0.3895 0.7695 0.9595c 0 0.665 -0.4085 0.95 -1.558 0.95c -0.3895 0 -0.6365 -0.019 -1.045 -0.019Z m 0.38 -2.014h 0.722c 0.5795 0 0.8265 -0.38 0.8265 -0.95c 0 -0.6365 -0.361 -0.817 -0.874 -0.817c -0.494 0 -0.6745 0.0855 -0.6745 0.5225Z m 0 0.2755v 1.102c 0 0.285 0.2185 0.342 0.6745 0.342c 0.494 0 0.7885 -0.133 0.7885 -0.703c 0 -0.38 -0.247 -0.741 -0.836 -0.741Z "/></symbol><symbol id="g111F480562FE960BC5F50C637F145B12" overflow="visible"><path d="M 0 0m 4.5505 2.9165c 0 0.7885 0.1045 0.817 0.684 0.8645c 0.057 0.057 0.057 0.2565 0 0.3135c -0.3325 -0.019 -0.7505 -0.019 -1.064 -0.019c -0.266 0 -0.646 0.0095 -1.0165 0.019c -0.057 -0.057 -0.057 -0.2565 0 -0.3135c 0.5795 -0.038 0.646 -0.076 0.646 -0.8645v -0.6175h -2.033v 0.6175c 0 0.7885 0.0665 0.817 0.646 0.8645c 0.057 0.057 0.057 0.2565 0 0.3135c -0.361 -0.0095 -0.722 -0.019 -1.026 -0.019c -0.285 0 -0.6745 0.0095 -1.0545 0.019c -0.057 -0.057 -0.057 -0.2565 0 -0.3135c 0.5795 -0.038 0.684 -0.076 0.684 -0.8645v -1.7575c 0 -0.7885 -0.1045 -0.817 -0.684 -0.8645c -0.057 -0.057 -0.057 -0.2565 0 -0.3135c 0.38 0.0095 0.76 0.019 1.064 0.019c 0.304 0 0.6745 -0.0095 1.0165 -0.019c 0.057 0.057 0.057 0.2565 0 0.3135c -0.5795 0.038 -0.646 0.076 -0.646 0.8645v 0.8265h 2.033v -0.8265c 0 -0.7885 -0.0665 -0.817 -0.646 -0.8645c -0.057 -0.057 -0.057 -0.2565 0 -0.3135c 0.342 0.0095 0.6935 0.019 1.026 0.019c 0.285 0 0.684 -0.0095 1.0545 -0.019c 0.057 0.057 0.057 0.2565 0 0.3135c -0.5795 0.038 -0.684 0.076 -0.684 0.8645Z "/></symbol><symbol id="gE3D46A95002377B54E13EEB95624C7DA" overflow="visible"><path d="M 0 0m 1.938 -1.52c 0.152 0.266 0.2755 0.532 0.3895 0.817c 0.76 1.8335 1.1875 2.812 1.6815 3.876c 0.19 0.399 0.323 0.551 0.7695 0.608c 0.057 0.057 0.057 0.2565 0 0.3135c -0.19 -0.0095 -0.4085 -0.019 -0.6745 -0.019c -0.285 0 -0.5795 0.0095 -0.8645 0.019c -0.057 -0.057 -0.057 -0.2565 0 -0.3135c 0.304 -0.0285 0.608 -0.0855 0.456 -0.4275l -0.9405 -2.1755c -0.0665 -0.152 -0.152 -0.1805 -0.228 0.0095l -0.8455 1.976c -0.171 0.399 -0.2185 0.5795 0.3135 0.6175c 0.057 0.057 0.057 0.2565 0 0.3135c -0.3515 -0.0095 -0.7315 -0.019 -1.0735 -0.019c -0.323 0 -0.5795 0.0095 -0.7695 0.019c -0.057 -0.057 -0.057 -0.2565 0 -0.3135c 0.38 -0.0475 0.5035 -0.133 0.7505 -0.7125l 1.0735 -2.4985c 0.0855 -0.19 0.228 -0.627 0.133 -0.893c -0.114 -0.3135 -0.228 -0.5795 -0.3705 -0.874c -0.1045 -0.19 -0.2375 -0.2755 -0.475 -0.2755c -0.133 0 -0.171 0.0285 -0.2755 0.0285c -0.2755 0 -0.418 -0.285 -0.418 -0.4085c 0 -0.1995 0.19 -0.3515 0.4465 -0.3515c 0.1995 0 0.5795 0.076 0.9215 0.684Z "/></symbol><symbol id="gF1C320A4506B818F6BCB8CDA11A2DE6" overflow="visible"><path d="M 0 0m 1.729 1.159c 0 -0.7885 -0.1045 -0.836 -0.684 -0.8645c -0.057 -0.057 -0.057 -0.2565 0 -0.3135c 0.3705 0.0095 0.7505 0.019 1.064 0.019c 0.323 0 0.6935 -0.0095 1.0545 -0.019c 0.057 0.057 0.057 0.2565 0 0.3135c -0.5795 0.0285 -0.684 0.076 -0.684 0.8645v 2.565h 0.1615c 0.7695 0 0.9215 -0.266 1.083 -1.0355c 0.1235 0 0.247 0.038 0.247 0.038c -0.057 0.437 -0.095 0.855 -0.1045 1.406c -0.2185 -0.019 -0.931 -0.057 -1.406 -0.057h -0.7125c -0.475 0 -1.007 0.0285 -1.387 0.057c -0.0095 -0.551 -0.0475 -0.969 -0.114 -1.406c 0 0 0.133 -0.038 0.2565 -0.038c 0.1615 0.7695 0.304 1.0355 1.083 1.0355h 0.1425Z "/></symbol><symbol id="g5B0FB9F727640150CA57389F67238C5A" overflow="visible"><path d="M 0 0m 1.482 3.496c -0.0095 0.285 -0.0285 0.532 -0.076 0.627c -0.019 0.0475 -0.038 0.076 -0.114 0.076c -0.266 -0.1045 -0.513 -0.19 -1.1685 -0.2755c -0.019 -0.057 0 -0.209 0.019 -0.266c 0.513 -0.0475 0.6175 -0.095 0.6175 -0.646v -4.0565c 0 -0.7885 -0.1045 -0.836 -0.684 -0.8645c -0.057 -0.057 -0.057 -0.2565 0 -0.3135c 0.3325 0.0095 0.684 0.019 1.064 0.019c 0.38 0 0.836 -0.0095 1.1495 -0.019c 0.057 0.057 0.057 0.2565 0 0.3135c -0.6745 0.038 -0.779 0.076 -0.779 0.8645v 1.026c 0 0.1235 0.038 0.114 0.133 0.076c 0.2375 -0.095 0.5225 -0.152 0.8265 -0.152c 0.532 0 1.007 0.1615 1.3965 0.532c 0.4465 0.437 0.703 1.026 0.703 1.7955c 0 1.007 -0.7125 1.938 -1.6815 1.938c -0.437 0 -0.9215 -0.285 -1.3015 -0.7125c -0.057 -0.057 -0.095 -0.057 -0.1045 0.038Z m 0.1805 -0.3515c 0.247 0.304 0.684 0.589 0.9595 0.589c 0.608 0 1.1305 -0.684 1.1305 -1.7575c 0 -0.779 -0.2755 -1.748 -1.3395 -1.748c -0.171 0 -0.5035 0.0475 -0.6745 0.1995c -0.19 0.171 -0.228 0.228 -0.228 0.57v 1.729c 0 0.1995 0.038 0.285 0.152 0.418Z "/></symbol><symbol id="g30870B079B88F136C2A9AD2E2890E4EB" overflow="visible"><path d="M 0 0m 1.881 0.5985c -0.0285 0 -0.0665 0.019 -0.0665 0.114v 2.166c 0 0.7885 0.1995 0.874 0.684 0.9025c 0.057 0.057 0.057 0.2565 0 0.3135c -0.2185 -0.0095 -0.76 -0.019 -1.1115 -0.019c -0.3135 0 -0.6935 0.0095 -1.0545 0.019c -0.057 -0.057 -0.057 -0.2565 0 -0.3135c 0.5795 -0.0285 0.7315 -0.114 0.7315 -0.9025v -1.6815c 0 -0.7885 -0.152 -0.874 -0.7315 -0.9025c -0.057 -0.057 -0.057 -0.2565 0 -0.3135c 0.3705 0.0095 0.7505 0.019 1.0545 0.019c 0.2185 0 0.475 -0.0095 0.5795 -0.019c 0.0475 0.133 0.133 0.323 0.2375 0.513l 1.482 2.9735c 0.0285 0 0.0665 -0.019 0.0665 -0.114v -2.1565c 0 -0.7885 -0.1995 -0.874 -0.684 -0.9025c -0.057 -0.057 -0.057 -0.2565 0 -0.3135c 0.2185 0.0095 0.7315 0.019 1.1115 0.019c 0.2945 0 0.684 -0.0095 1.0545 -0.019c 0.057 0.057 0.057 0.2565 0 0.3135c -0.5795 0.0285 -0.7315 0.114 -0.7315 0.9025v 1.6815c 0 0.7885 0.152 0.874 0.7315 0.9025c 0.057 0.057 0.057 0.2565 0 0.3135c -0.38 -0.0095 -0.76 -0.019 -1.0545 -0.019c -0.209 0 -0.475 0.0095 -0.57 0.019c -0.076 -0.171 -0.1615 -0.3705 -0.247 -0.532Z "/></symbol><symbol id="gA3A5C9019285A4C81365474C03E3CF4E" overflow="visible"><path d="M 0 0m 3.667 0.8835c -0.3515 -0.361 -0.627 -0.513 -1.178 -0.513c -0.342 0 -0.741 0.1995 -1.0355 0.684c -0.19 0.3135 -0.304 0.7505 -0.304 1.3015l 2.527 -0.019c 0.114 0 0.1805 0.057 0.1805 0.1615c 0 0.798 -0.285 1.653 -1.6055 1.653c -0.8265 0 -1.9 -0.7885 -1.9 -2.2325c 0 -0.532 0.133 -1.045 0.4465 -1.406c 0.323 -0.38 0.7695 -0.608 1.4535 -0.608c 0.722 0 1.235 0.3325 1.615 0.8265c -0.0285 0.095 -0.0855 0.1425 -0.1995 0.152Z m -2.489 1.7955c 0.1805 1.0735 0.8455 1.159 1.0735 1.159c 0.361 0 0.7885 -0.1995 0.7885 -0.9975c 0 -0.0855 -0.038 -0.133 -0.1425 -0.133Z "/></symbol><symbol id="g966D14D99AB05D933C4957B2E7FE95D9" overflow="visible"><path d="M 0 0m 3.781 0.8645c -0.038 0.0855 -0.114 0.1235 -0.1995 0.133c -0.323 -0.418 -0.7315 -0.627 -1.14 -0.627c -0.6935 0 -1.273 0.703 -1.273 1.8145c 0 1.045 0.456 1.672 1.083 1.672c 0.5605 0 0.6365 -0.3325 0.6745 -0.665c 0.0285 -0.2565 0.1615 -0.342 0.361 -0.342c 0.1995 0 0.4655 0.1235 0.4655 0.418c 0 0.5225 -0.5415 0.9025 -1.4535 0.9025c -0.9405 0 -1.9475 -0.8455 -1.9475 -2.1945c 0 -1.2255 0.684 -2.071 1.881 -2.071c 0.57 0 1.0735 0.1805 1.5485 0.9595Z "/></symbol><symbol id="g4F6C4B764A667C0D20F43C1E2952DF77" overflow="visible"><path d="M 0 0m 1.767 2.907c 0 0.798 0.1045 0.8265 0.684 0.874c 0.057 0.057 0.057 0.2565 0 0.3135c -0.323 -0.0095 -0.646 -0.019 -1.064 -0.019c -0.4085 0 -0.741 0.0095 -1.0545 0.019c -0.057 -0.057 -0.057 -0.2565 0 -0.3135c 0.5795 -0.038 0.684 -0.076 0.684 -0.8645v -1.7575c 0 -0.7885 -0.1045 -0.817 -0.684 -0.8645c -0.057 -0.057 -0.057 -0.2565 0 -0.3135c 0.3135 0.0095 0.646 0.019 1.064 0.019c 0.3895 0 0.5985 -0.019 0.988 -0.019c 1.1685 0 1.805 0.2945 1.805 1.311c 0 0.893 -0.779 1.1495 -1.7385 1.1495h -0.684Z m 1.6055 -1.71c 0 -0.779 -0.475 -0.9025 -0.9785 -0.9025c -0.4655 0 -0.627 0.095 -0.627 0.4275v 1.406h 0.6745c 0.7125 0 0.931 -0.4275 0.931 -0.931Z "/></symbol><symbol id="gC86282117E7C9F65658F6DDAC49FC51A" overflow="visible"><path d="M 0 0m 3.971 1.159v 1.7575c 0 0.779 0.1235 0.8265 0.646 0.8645c 0.057 0.057 0.057 0.2565 0 0.3135c -0.285 -0.0095 -0.646 -0.019 -1.026 -0.019h -1.7955c -0.3135 0 -0.684 0.0095 -0.969 0.019c -0.057 -0.057 -0.057 -0.2565 0 -0.3135c 0.6745 -0.0475 0.7695 -0.1045 0.7695 -1.1305c 0 -0.9975 -0.076 -1.52 -0.209 -1.9095c -0.1235 -0.342 -0.285 -0.4655 -0.4465 -0.4655c -0.1235 0 -0.1615 0.076 -0.1805 0.1995c -0.0285 0.1805 -0.0855 0.361 -0.3515 0.361c -0.2375 0 -0.3705 -0.19 -0.3705 -0.399c 0 -0.2945 0.266 -0.551 0.703 -0.551c 0.4845 0 0.7505 0.247 0.969 0.76c 0.19 0.456 0.247 1.425 0.247 2.071c 0 0.741 0.0285 0.988 0.4085 0.988h 0.4275c 0.361 0 0.4275 -0.228 0.4275 -0.551v -1.995c 0 -0.779 -0.095 -0.8265 -0.589 -0.8645c -0.0475 -0.057 -0.0475 -0.2565 0 -0.3135c 0.2375 0.0095 0.589 0.019 0.969 0.019c 0.38 0 0.8075 -0.0095 1.0735 -0.019c 0.0475 0.057 0.0475 0.2565 0 0.3135c -0.6175 0.038 -0.703 0.0855 -0.703 0.8645Z "/></symbol><symbol id="g84D5B0775AF6B63E9D146732051F63A6" overflow="visible"><path d="M 0 0m 1.881 0.5985c -0.0285 0 -0.0665 0.019 -0.0665 0.114v 2.166c 0 0.7885 0.1995 0.874 0.684 0.9025c 0.057 0.057 0.057 0.2565 0 0.3135c -0.2185 -0.0095 -0.76 -0.019 -1.1115 -0.019c -0.3135 0 -0.6935 0.0095 -1.0545 0.019c -0.057 -0.057 -0.057 -0.2565 0 -0.3135c 0.5795 -0.0285 0.7315 -0.114 0.7315 -0.9025v -1.6815c 0 -0.7885 -0.152 -0.874 -0.7315 -0.9025c -0.057 -0.057 -0.057 -0.2565 0 -0.3135c 0.3705 0.0095 0.7505 0.019 1.0545 0.019c 0.2185 0 0.475 -0.0095 0.5795 -0.019c 0.0475 0.133 0.133 0.323 0.2375 0.513l 1.482 2.9735c 0.0285 0 0.0665 -0.019 0.0665 -0.114v -2.1565c 0 -0.7885 -0.1995 -0.874 -0.684 -0.9025c -0.057 -0.057 -0.057 -0.2565 0 -0.3135c 0.2185 0.0095 0.7315 0.019 1.1115 0.019c 0.2945 0 0.684 -0.0095 1.0545 -0.019c 0.057 0.057 0.057 0.2565 0 0.3135c -0.5795 0.0285 -0.7315 0.114 -0.7315 0.9025v 1.6815c 0 0.7885 0.152 0.874 0.7315 0.9025c 0.057 0.057 0.057 0.2565 0 0.3135c -0.38 -0.0095 -0.76 -0.019 -1.0545 -0.019c -0.209 0 -0.475 0.0095 -0.57 0.019c -0.076 -0.171 -0.1615 -0.3705 -0.247 -0.532Z m 2.0425 5.0065c 0 0.1805 -0.133 0.3135 -0.361 0.3135c -0.171 0 -0.3325 -0.133 -0.3325 -0.2945c 0 -0.0285 0 -0.0475 0.0095 -0.0665c 0.0095 -0.0285 0.0095 -0.057 0.0095 -0.0855c 0 -0.209 -0.1995 -0.399 -0.475 -0.399c -0.285 0 -0.475 0.1995 -0.475 0.4085c 0 0.019 0 0.0475 0.0095 0.076c 0.0095 0.0285 0.0095 0.0475 0.0095 0.076c 0 0.152 -0.114 0.285 -0.323 0.285c -0.2185 0 -0.3705 -0.1425 -0.3705 -0.3135c 0 -0.513 0.5225 -0.8265 1.14 -0.8265c 0.608 0 1.159 0.304 1.159 0.8265Z "/></symbol><symbol id="g96E574CFF76A0BA1099A3734F20CCD95" overflow="visible"><path d="M 0 0m 0.4085 0.7885c 0 -0.209 0.1235 -0.361 0.323 -0.513c 0.2375 -0.171 0.551 -0.3705 1.3015 -0.3705c 0.95 0 1.691 0.285 1.691 1.2255c 0 0.57 -0.285 0.95 -0.9595 1.064v 0.0285c 0.5795 0.2185 0.7315 0.4845 0.7315 0.9785c 0 0.551 -0.38 0.969 -1.3395 0.969c -0.5035 0 -0.95 -0.1805 -1.463 -0.266l -0.1235 -1.1305c 0.076 -0.038 0.171 -0.0475 0.2565 -0.038c 0.1805 0.551 0.418 1.102 1.216 1.102c 0.5225 0 0.6935 -0.3135 0.6935 -0.6935c 0 -0.3895 -0.0665 -0.8455 -0.6745 -0.8455c -0.1805 0 -0.342 0.057 -0.5225 0.057c -0.0855 0 -0.1805 -0.057 -0.1805 -0.209c 0 -0.152 0.1045 -0.1995 0.19 -0.1995c 0.1805 0 0.285 0.057 0.5225 0.057c 0.703 0 0.836 -0.4845 0.836 -0.9025c 0 -0.5605 -0.209 -0.8645 -0.8835 -0.8645c -0.5415 0 -0.6365 0.1995 -0.798 0.5415c -0.076 0.171 -0.1805 0.304 -0.4275 0.304c -0.171 0 -0.3895 -0.1425 -0.3895 -0.2945Z "/></symbol></defs></svg>