<svg viewBox="0 0 359.603388889 188.378694882" width="359.603388889pt" height="188.378694882pt" xmlns="http://www.w3.org/2000/svg" xmlns:xlink="http://www.w3.org/1999/xlink" xmlns:h5="http://www.w3.org/1999/xhtml"><path fill="#ffffff" fill-rule="nonzero" d="M 0 0v 188.378694882h 359.603388889v -188.378694882Z "/><g transform="translate(8 8)"><path fill="none" stroke="#a29b8c" stroke-width="0.6" stroke-linecap="butt" stroke-linejoin="miter" stroke-miterlimit="4" transform="translate(82.510355862 63.141055118)" d="M 0 0m 26.929133858 0c -14.859065197 0 -26.929133858 12.070068661 -26.929133858 26.929133858c 0 14.859065197 12.070068661 26.929133858 26.929133858 26.929133858c 14.859065197 0 26.929133858 -12.070068661 26.929133858 -26.929133858c 0 -14.859065197 -12.070068661 -26.929133858 -26.929133858 -26.929133858Z "/><path fill="#e5e3df" fill-rule="nonzero" stroke="#1a1a18" stroke-width="0.6" stroke-linecap="butt" stroke-linejoin="miter" stroke-miterlimit="4" transform="translate(82.510355862 9.282787402)" d="M 0 0m 26.929133858 0c -14.859065197 0 -26.929133858 12.070068661 -26.929133858 26.929133858c 0 14.859065197 12.070068661 26.929133858 26.929133858 26.929133858c 14.859065197 0 26.929133858 -12.070068661 26.929133858 -26.929133858c 0 -14.859065197 -12.070068661 -26.929133858 -26.929133858 -26.929133858Z "/><path fill="none" transform="translate(96.58748972 0)" d="M 0 0h 25.704v 7.582h -25.704v -7.582Z "/><g transform="translate(96.58748972 -1.26e-7)"><g transform="matrix(1 0 0 -1 0 5.593)"><use xlink:href="#g76961810B6DEE2CEF630C1F5B8F93C8E" x="0" y="0" fill="#1a1a18" fill-rule="nonzero"/><use xlink:href="#g430571653545A60A3EF6386D136EADA3" x="4.1565" y="0" fill="#1a1a18" fill-rule="nonzero"/><use xlink:href="#g5D2E58E4CDB4D7E6C81847885E22D756" x="8.568" y="0" fill="#1a1a18" fill-rule="nonzero"/><use xlink:href="#g3D9A67B9902CBFFCF1182D85B33DBA41" x="12.3675" y="0" fill="#1a1a18" fill-rule="nonzero"/><use xlink:href="#gC8932C6BA7F518DC74E87E2F4A0224EB" x="16.439" y="0" fill="#1a1a18" fill-rule="nonzero"/><use xlink:href="#gE34E15A46C94CBC2E6ABE8844A1DDB21" x="21.42" y="0" fill="#1a1a18" fill-rule="nonzero"/></g></g><path fill="none" transform="translate(99.47323972 119.26703937)" d="M 0 0h 19.9325v 6.715h -19.9325v -6.715Z "/><g transform="translate(99.473239657 119.267039339)"><g transform="matrix(1 0 0 -1 0 5.593)"><use xlink:href="#g1EEFC323E4FEBE7654D5CC1583F61AF4" x="0" y="0" fill="#7c7f6a" fill-rule="nonzero"/><use xlink:href="#gE34E15A46C94CBC2E6ABE8844A1DDB21" x="3.638" y="0" fill="#7c7f6a" fill-rule="nonzero"/><use xlink:href="#g1EEFC323E4FEBE7654D5CC1583F61AF4" x="7.922" y="0" fill="#7c7f6a" fill-rule="nonzero"/><use xlink:href="#g5D2E58E4CDB4D7E6C81847885E22D756" x="11.56" y="0" fill="#7c7f6a" fill-rule="nonzero"/><use xlink:href="#gBAF1B227155053221F22F6E06EEFED60" x="15.3595" y="0" fill="#7c7f6a" fill-rule="nonzero"/></g></g><path fill="none" stroke="#a29b8c" stroke-width="0.7" stroke-linecap="butt" stroke-linejoin="miter" stroke-miterlimit="4" stroke-dashoffset="0" stroke-dasharray="3 3" transform="translate(109.43948972 22.038692913)" d="M 0 0m 0 41.102362205v -41.102362205"/><path fill="none" transform="translate(98.878344051 14.815870079)" d="M 0 0h 7.7265v 5.8055h -7.7265v -5.8055Z "/><g transform="translate(98.878344051 14.815870063)"><g transform="matrix(1 0 0 -1 0 5.8055)"><use xlink:href="#gB9F31D5D3D52AEED76EFDD7E7A64C4CD" x="0" y="0" fill="#7a7469" fill-rule="nonzero"/></g></g><path fill="none" stroke="#1a1a18" stroke-width="1.4" stroke-linecap="butt" stroke-linejoin="miter" stroke-miterlimit="4" transform="translate(109.43948972 26.968044526)" d="M 0 0m 0 36.173010592l 8.351197523 -36.173010592"/><path fill="#1a1a18" fill-rule="nonzero" stroke="#1a1a18" stroke-width="1.4" stroke-linecap="butt" stroke-linejoin="miter" stroke-miterlimit="4" transform="translate(116.547790103 23.65365178)" d="M 0 0m 2.008085066 0l 0.477709418 3.601338079l -2.485794484 -0.573890868l 2.008085066 -3.027447211Z "/><path fill="none" transform="translate(121.838983369 18.070717718)" d="M 0 0h 7.038v 6.147h -7.038v -6.147Z "/><g transform="translate(121.838983369 18.070717576)"><g transform="matrix(1 0 0 -1 0 6.147)"><use xlink:href="#g4259D72878C21130C81441488EE5A6BB" x="0" y="0" fill="#1a1a18" fill-rule="nonzero"/></g></g><path fill="none" stroke="#7c7f6a" stroke-width="0.9" stroke-linecap="butt" stroke-linejoin="miter" stroke-miterlimit="4" transform="translate(109.43948972 44.432393701)" d="M 0 0c 1.416473045 0 2.828364178 0.160864675 4.208533111 0.47950178"/><path fill="none" transform="translate(110.218186917 34.106952866)" d="M 0 0h 4.347v 6.246h -4.347v -6.246Z "/><g transform="translate(110.218186917 34.106952866)"><g transform="matrix(1 0 0 -1 0 6.147)"><use xlink:href="#g73664E2D13367A0D29F4FCFD9394D2E9" x="0" y="0" fill="#7c7f6a" fill-rule="nonzero"/></g></g><path fill="none" stroke="#7c7f6a" stroke-width="0.9" stroke-linecap="butt" stroke-linejoin="miter" stroke-miterlimit="4" transform="translate(95.697468235 63.141055118)" d="M 0 0m 13.742021485 0h -13.742021485"/><path fill="#1a1a18" fill-rule="nonzero" stroke="#7c7f6a" stroke-width="0.9" stroke-linecap="butt" stroke-linejoin="miter" stroke-miterlimit="4" transform="translate(93.146287137 62.184362205)" d="M 0 0m 0 0.956692913l 2.551181102 -0.956692913v 1.913385827l -2.551181102 -0.956692913Z "/><path fill="none" transform="translate(84.514828303 61.542913386)" d="M 0 0h 6.216v 5.464h -6.216v -5.464Z "/><g transform="translate(84.514828255 61.542913354)"><g transform="matrix(1 0 0 -1 0 5.464)"><use xlink:href="#gB6542285DBCC10DC29A41798B36C5AA3" x="0" y="0" fill="#7c7f6a" fill-rule="nonzero"/></g></g><path fill="none" transform="translate(86.58298972 130.783125984)" d="M 0 0h 45.713v 7.582h -45.713v -7.582Z "/><g transform="translate(86.582989657 130.783125858)"><g transform="matrix(1 0 0 -1 0 5.593)"><use xlink:href="#gA501B866130BB2CA150759E9628F05FB" x="0" y="0" fill="#1a1a18" fill-rule="nonzero"/><use xlink:href="#g430571653545A60A3EF6386D136EADA3" x="4.267" y="0" fill="#1a1a18" fill-rule="nonzero"/><use xlink:href="#g2884EEE83F88BF741DF31D9C41AEE180" x="8.6785" y="0" fill="#1a1a18" fill-rule="nonzero"/><use xlink:href="#g3EDD64AE7B5A40E8FE9DD75D51E8EE8A" x="13.056" y="0" fill="#1a1a18" fill-rule="nonzero"/><use xlink:href="#gE34E15A46C94CBC2E6ABE8844A1DDB21" x="16.8385" y="0" fill="#1a1a18" fill-rule="nonzero"/><use xlink:href="#gB4154B742B01C4CB9DD5E5AAD4490D84" x="21.1225" y="0" fill="#1a1a18" fill-rule="nonzero"/><use xlink:href="#gDEA2A0379B7527B5C1F8D88530B6617D" x="28.2285" y="0" fill="#1a1a18" fill-rule="nonzero"/><use xlink:href="#gE34E15A46C94CBC2E6ABE8844A1DDB21" x="34.0085" y="0" fill="#1a1a18" fill-rule="nonzero"/><use xlink:href="#g1EEFC323E4FEBE7654D5CC1583F61AF4" x="38.2925" y="0" fill="#1a1a18" fill-rule="nonzero"/><use xlink:href="#g3EDD64AE7B5A40E8FE9DD75D51E8EE8A" x="41.9305" y="0" fill="#1a1a18" fill-rule="nonzero"/></g></g><path fill="none" transform="translate(81.17698972 143.632137795)" d="M 0 0h 56.525v 5.695h -56.525v -5.695Z "/><g transform="translate(81.176989704 143.632137717)"><g transform="matrix(1 0 0 -1 0 5.593)"><use xlink:href="#g9198438F4524A9573AFBB63C3409A69A" x="0" y="0" fill="#7c7f6a" fill-rule="nonzero"/></g><g transform="matrix(1 0 0 -1 6.2815 5.593)"><use xlink:href="#gDEA2A0379B7527B5C1F8D88530B6617D" x="0" y="0" fill="#7c7f6a" fill-rule="nonzero"/><use xlink:href="#gF931FC691828778A920607CF18B9C32A" x="5.78" y="0" fill="#7c7f6a" fill-rule="nonzero"/><use xlink:href="#gB3F6F741CFF64E2F87AE274E4C795DAE" x="9.6645" y="0" fill="#7c7f6a" fill-rule="nonzero"/><use xlink:href="#g86AC7E23D83A677140844C9CDACC66A2" x="16.269" y="0" fill="#7c7f6a" fill-rule="nonzero"/><use xlink:href="#g11CAB86DAD56BCA12FE1B0081452B59D" x="24.701" y="0" fill="#7c7f6a" fill-rule="nonzero"/><use xlink:href="#gF931FC691828778A920607CF18B9C32A" x="28.407" y="0" fill="#7c7f6a" fill-rule="nonzero"/><use xlink:href="#gEF81C0034748F108B423DC4F87ECC2EA" x="32.2915" y="0" fill="#7c7f6a" fill-rule="nonzero"/><use xlink:href="#gF931FC691828778A920607CF18B9C32A" x="38.2925" y="0" fill="#7c7f6a" fill-rule="nonzero"/><use xlink:href="#g3EDD64AE7B5A40E8FE9DD75D51E8EE8A" x="42.177" y="0" fill="#7c7f6a" fill-rule="nonzero"/><use xlink:href="#gE34E15A46C94CBC2E6ABE8844A1DDB21" x="45.9595" y="0" fill="#7c7f6a" fill-rule="nonzero"/></g></g><path fill="none" stroke="#a29b8c" stroke-width="0.6" stroke-linecap="butt" stroke-linejoin="miter" stroke-miterlimit="4" transform="translate(207.234765311 63.141055118)" d="M 0 0m 26.929133858 0c -14.859065197 0 -26.929133858 12.070068661 -26.929133858 26.929133858c 0 14.859065197 12.070068661 26.929133858 26.929133858 26.929133858c 14.859065197 0 26.929133858 -12.070068661 26.929133858 -26.929133858c 0 -14.859065197 -12.070068661 -26.929133858 -26.929133858 -26.929133858Z "/><path fill="#e5e3df" fill-rule="nonzero" stroke="#1a1a18" stroke-width="0.6" stroke-linecap="butt" stroke-linejoin="miter" stroke-miterlimit="4" transform="translate(207.234765311 9.282787402)" d="M 0 0m 26.929133858 0c -14.859065197 0 -26.929133858 12.070068661 -26.929133858 26.929133858c 0 14.859065197 12.070068661 26.929133858 26.929133858 26.929133858c 14.859065197 0 26.929133858 -12.070068661 26.929133858 -26.929133858c 0 -14.859065197 -12.070068661 -26.929133858 -26.929133858 -26.929133858Z "/><path fill="none" transform="translate(221.311899169 0)" d="M 0 0h 25.704v 7.582h -25.704v -7.582Z "/><g transform="translate(221.311899169 -1.26e-7)"><g transform="matrix(1 0 0 -1 0 5.593)"><use xlink:href="#g76961810B6DEE2CEF630C1F5B8F93C8E" x="0" y="0" fill="#1a1a18" fill-rule="nonzero"/><use xlink:href="#g430571653545A60A3EF6386D136EADA3" x="4.1565" y="0" fill="#1a1a18" fill-rule="nonzero"/><use xlink:href="#g5D2E58E4CDB4D7E6C81847885E22D756" x="8.568" y="0" fill="#1a1a18" fill-rule="nonzero"/><use xlink:href="#g3D9A67B9902CBFFCF1182D85B33DBA41" x="12.3675" y="0" fill="#1a1a18" fill-rule="nonzero"/><use xlink:href="#gC8932C6BA7F518DC74E87E2F4A0224EB" x="16.439" y="0" fill="#1a1a18" fill-rule="nonzero"/><use xlink:href="#gE34E15A46C94CBC2E6ABE8844A1DDB21" x="21.42" y="0" fill="#1a1a18" fill-rule="nonzero"/></g></g><path fill="none" transform="translate(224.197649169 119.26703937)" d="M 0 0h 19.9325v 6.715h -19.9325v -6.715Z "/><g transform="translate(224.197649106 119.267039339)"><g transform="matrix(1 0 0 -1 0 5.593)"><use xlink:href="#g1EEFC323E4FEBE7654D5CC1583F61AF4" x="0" y="0" fill="#7c7f6a" fill-rule="nonzero"/><use xlink:href="#gE34E15A46C94CBC2E6ABE8844A1DDB21" x="3.638" y="0" fill="#7c7f6a" fill-rule="nonzero"/><use xlink:href="#g1EEFC323E4FEBE7654D5CC1583F61AF4" x="7.922" y="0" fill="#7c7f6a" fill-rule="nonzero"/><use xlink:href="#g5D2E58E4CDB4D7E6C81847885E22D756" x="11.56" y="0" fill="#7c7f6a" fill-rule="nonzero"/><use xlink:href="#gBAF1B227155053221F22F6E06EEFED60" x="15.3595" y="0" fill="#7c7f6a" fill-rule="nonzero"/></g></g><path fill="none" stroke="#a29b8c" stroke-width="0.7" stroke-linecap="butt" stroke-linejoin="miter" stroke-miterlimit="4" stroke-dashoffset="0" stroke-dasharray="3 3" transform="translate(234.163899169 22.038692913)" d="M 0 0m 0 41.102362205v -41.102362205"/><path fill="none" transform="translate(223.6027535 14.815870079)" d="M 0 0h 7.7265v 5.8055h -7.7265v -5.8055Z "/><g transform="translate(223.6027535 14.815870063)"><g transform="matrix(1 0 0 -1 0 5.8055)"><use xlink:href="#gB9F31D5D3D52AEED76EFDD7E7A64C4CD" x="0" y="0" fill="#7a7469" fill-rule="nonzero"/></g></g><path fill="none" stroke="#1a1a18" stroke-width="1.4" stroke-linecap="butt" stroke-linejoin="miter" stroke-miterlimit="4" transform="translate(234.163899169 28.719809429)" d="M 0 0m 0 34.421245689l 13.907085984 -34.421245689"/><path fill="#1a1a18" fill-rule="nonzero" stroke="#1a1a18" stroke-width="1.4" stroke-linecap="butt" stroke-linejoin="miter" stroke-miterlimit="4" transform="translate(246.888278204 25.565924157)" d="M 0 0m 2.456959296 0l -0.091545379 3.631729849l -2.365413917 -0.955689253l 2.456959296 -2.676040595Z "/><path fill="none" transform="translate(252.926699204 20.077060514)" d="M 0 0h 7.038v 6.147h -7.038v -6.147Z "/><g transform="translate(252.926699204 20.077060373)"><g transform="matrix(1 0 0 -1 0 6.147)"><use xlink:href="#g4259D72878C21130C81441488EE5A6BB" x="0" y="0" fill="#1a1a18" fill-rule="nonzero"/></g></g><path fill="none" stroke="#7c7f6a" stroke-width="0.9" stroke-linecap="butt" stroke-linejoin="miter" stroke-miterlimit="4" transform="translate(234.163899169 44.432393701)" d="M 0 0c 2.401918935 0 4.781367465 0.462517941 7.008387921 1.362292611"/><path fill="none" transform="translate(236.966457379 34.418454869)" d="M 0 0h 4.347v 6.246h -4.347v -6.246Z "/><g transform="translate(236.966457379 34.418454869)"><g transform="matrix(1 0 0 -1 0 6.147)"><use xlink:href="#g73664E2D13367A0D29F4FCFD9394D2E9" x="0" y="0" fill="#7c7f6a" fill-rule="nonzero"/></g></g><path fill="none" stroke="#7c7f6a" stroke-width="0.9" stroke-linecap="butt" stroke-linejoin="miter" stroke-miterlimit="4" transform="translate(209.65022414 63.141055118)" d="M 0 0m 24.513675029 0h -24.513675029"/><path fill="#1a1a18" fill-rule="nonzero" stroke="#7c7f6a" stroke-width="0.9" stroke-linecap="butt" stroke-linejoin="miter" stroke-miterlimit="4" transform="translate(207.099043043 62.184362205)" d="M 0 0m 0 0.956692913l 2.551181102 -0.956692913v 1.913385827l -2.551181102 -0.956692913Z "/><path fill="none" transform="translate(198.467584208 61.542913386)" d="M 0 0h 6.216v 5.464h -6.216v -5.464Z "/><g transform="translate(198.467584161 61.542913354)"><g transform="matrix(1 0 0 -1 0 5.464)"><use xlink:href="#gB6542285DBCC10DC29A41798B36C5AA3" x="0" y="0" fill="#7c7f6a" fill-rule="nonzero"/></g></g><path fill="none" transform="translate(208.595899169 131.726625984)" d="M 0 0h 51.136v 5.695h -51.136v -5.695Z "/><g transform="translate(208.59589909 131.726625906)"><g transform="matrix(1 0 0 -1 0 5.593)"><use xlink:href="#gBEE50160BCD570B38DEF46393A725EED" x="0" y="0" fill="#1a1a18" fill-rule="nonzero"/><use xlink:href="#gE34E15A46C94CBC2E6ABE8844A1DDB21" x="4.981" y="0" fill="#1a1a18" fill-rule="nonzero"/><use xlink:href="#gB3F6F741CFF64E2F87AE274E4C795DAE" x="9.265" y="0" fill="#1a1a18" fill-rule="nonzero"/><use xlink:href="#gE34E15A46C94CBC2E6ABE8844A1DDB21" x="13.7445" y="0" fill="#1a1a18" fill-rule="nonzero"/><use xlink:href="#gC8D6D5492F0FFEF84F8079BC5341E7A6" x="18.0285" y="0" fill="#1a1a18" fill-rule="nonzero"/><use xlink:href="#gE7AE90A8EDDEF3DDB67EE78D36D80337" x="21.5645" y="0" fill="#1a1a18" fill-rule="nonzero"/><use xlink:href="#gB4154B742B01C4CB9DD5E5AAD4490D84" x="26.5455" y="0" fill="#1a1a18" fill-rule="nonzero"/><use xlink:href="#gDEA2A0379B7527B5C1F8D88530B6617D" x="33.6515" y="0" fill="#1a1a18" fill-rule="nonzero"/><use xlink:href="#gE34E15A46C94CBC2E6ABE8844A1DDB21" x="39.4315" y="0" fill="#1a1a18" fill-rule="nonzero"/><use xlink:href="#g1EEFC323E4FEBE7654D5CC1583F61AF4" x="43.7155" y="0" fill="#1a1a18" fill-rule="nonzero"/><use xlink:href="#g3EDD64AE7B5A40E8FE9DD75D51E8EE8A" x="47.3535" y="0" fill="#1a1a18" fill-rule="nonzero"/></g></g><path fill="none" transform="translate(205.654899169 142.688637795)" d="M 0 0h 57.018v 7.582h -57.018v -7.582Z "/><g transform="translate(205.654899074 142.688637669)"><g transform="matrix(1 0 0 -1 0 5.593)"><use xlink:href="#g9198438F4524A9573AFBB63C3409A69A" x="0" y="0" fill="#1a1a18" fill-rule="nonzero"/><use xlink:href="#gCEE0DCDCB551765DCAE8D9A7DBD02279" x="6.2815" y="0" fill="#1a1a18" fill-rule="nonzero"/><use xlink:href="#g34E634B8D08F8B91F4ACC67018EAE93C" x="18.0115" y="0" fill="#1a1a18" fill-rule="nonzero"/><use xlink:href="#g34E634B8D08F8B91F4ACC67018EAE93C" x="21.964" y="0" fill="#1a1a18" fill-rule="nonzero"/><use xlink:href="#g98BE93694EA1A141C1E7FF533D0ECD03" x="25.9165" y="0" fill="#1a1a18" fill-rule="nonzero"/><use xlink:href="#g86AC7E23D83A677140844C9CDACC66A2" x="30.311" y="0" fill="#1a1a18" fill-rule="nonzero"/></g><g transform="matrix(1 0 0 -1 38.743 5.593)"><use xlink:href="#g1EEFC323E4FEBE7654D5CC1583F61AF4" x="0" y="0" fill="#1a1a18" fill-rule="nonzero"/><use xlink:href="#g430571653545A60A3EF6386D136EADA3" x="3.638" y="0" fill="#1a1a18" fill-rule="nonzero"/><use xlink:href="#g263F4FD32CCD3C47111457350A4C543D" x="8.0495" y="0" fill="#1a1a18" fill-rule="nonzero"/><use xlink:href="#g3D9A67B9902CBFFCF1182D85B33DBA41" x="14.2035" y="0" fill="#1a1a18" fill-rule="nonzero"/></g></g><path fill="none" transform="translate(152.483194444 42.582681102)" d="M 0 0h 38.637v 7.101h -38.637v -7.101Z "/><g transform="translate(152.483194444 42.582681102)"><g transform="matrix(1 0 0 -1 0 5.922)"><use xlink:href="#gA5834380700F55B3689219A2CC4667E3" x="0" y="0" fill="#8a8477" fill-rule="nonzero"/><use xlink:href="#gB118266EF18AECCCCEF724ECE6F3D1D3" x="5.274" y="0" fill="#8a8477" fill-rule="nonzero"/><use xlink:href="#g7253BD4F4A12C91ABC7B03558525FA66" x="10.017" y="0" fill="#8a8477" fill-rule="nonzero"/><use xlink:href="#g2A7A063817D03B183B2F5455DB77D169" x="14.553" y="0" fill="#8a8477" fill-rule="nonzero"/><use xlink:href="#gD351E21AD091924D522A6D2D6355C932" x="22.194" y="0" fill="#8a8477" fill-rule="nonzero"/><use xlink:href="#gB75AB0E2CC62A89AB96A67F9AB496609" x="28.467" y="0" fill="#8a8477" fill-rule="nonzero"/></g></g><path fill="none" stroke="#a29b8c" stroke-width="0.7" stroke-linecap="butt" stroke-linejoin="miter" stroke-miterlimit="4" stroke-dashoffset="0" stroke-dasharray="0.7 2" transform="translate(153.376497594 58.889086614)" d="M 0 0h 36.850393701"/><path fill="none" transform="translate(0 163.667194882)" d="M 0 0h 343.603388889v 8.7115h -343.603388889v -8.7115Z "/><g transform="translate(-4.4e-8 163.667194756)"><g transform="matrix(1 0 0 -1 0 6.4885)"><use xlink:href="#g75E31E9387E94E3A457DA9304838F591" x="0" y="0" fill="#1a1a18" fill-rule="nonzero"/><use xlink:href="#g5B0FB9F727640150CA57389F67238C5A" x="5.567" y="0" fill="#1a1a18" fill-rule="nonzero"/><use xlink:href="#g30870B079B88F136C2A9AD2E2890E4EB" x="10.4975" y="0" fill="#1a1a18" fill-rule="nonzero"/><use xlink:href="#gF44FAB8653C15561E4D64E784B7F129A" x="16.0645" y="0" fill="#1a1a18" fill-rule="nonzero"/><use xlink:href="#g30870B079B88F136C2A9AD2E2890E4EB" x="22.7715" y="0" fill="#1a1a18" fill-rule="nonzero"/><use xlink:href="#gC2CBF98E7E07B945C6FA500EA68B32AD" x="28.3385" y="0" fill="#1a1a18" fill-rule="nonzero"/></g><g transform="matrix(1 0 0 -1 37.1735 6.4885)"><use xlink:href="#gB6AAA1806BBDF9447016B698172F9CC4" x="0" y="0" fill="#1a1a18" fill-rule="nonzero"/></g><g transform="matrix(1 0 0 -1 44.6025 6.4885)"><use xlink:href="#gC110FFC20529D78AB6B9724BF2D3193A" x="2.375" y="0" fill="#1a1a18" fill-rule="nonzero"/><use xlink:href="#gF1C320A4506B818F6BCB8CDA11A2DE6" x="7.163" y="0" fill="#1a1a18" fill-rule="nonzero"/><use xlink:href="#gDBB5E8F5FC9EB2F5349B9D49D6966C24" x="11.3905" y="0" fill="#1a1a18" fill-rule="nonzero"/><use xlink:href="#gC86282117E7C9F65658F6DDAC49FC51A" x="16.1595" y="0" fill="#1a1a18" fill-rule="nonzero"/><use xlink:href="#gC110FFC20529D78AB6B9724BF2D3193A" x="21.166" y="0" fill="#1a1a18" fill-rule="nonzero"/><use xlink:href="#g111F480562FE960BC5F50C637F145B12" x="25.954" y="0" fill="#1a1a18" fill-rule="nonzero"/><use xlink:href="#gDB3041A08DFB71461CA9A9E16087AB39" x="31.521" y="0" fill="#1a1a18" fill-rule="nonzero"/><use xlink:href="#g111F480562FE960BC5F50C637F145B12" x="35.7675" y="0" fill="#1a1a18" fill-rule="nonzero"/><use xlink:href="#gC110FFC20529D78AB6B9724BF2D3193A" x="43.7095" y="0" fill="#1a1a18" fill-rule="nonzero"/><use xlink:href="#gF1C320A4506B818F6BCB8CDA11A2DE6" x="48.4975" y="0" fill="#1a1a18" fill-rule="nonzero"/><use xlink:href="#g111F480562FE960BC5F50C637F145B12" x="55.1" y="0" fill="#1a1a18" fill-rule="nonzero"/><use xlink:href="#gC110FFC20529D78AB6B9724BF2D3193A" x="60.667" y="0" fill="#1a1a18" fill-rule="nonzero"/><use xlink:href="#g5B0FB9F727640150CA57389F67238C5A" x="65.455" y="0" fill="#1a1a18" fill-rule="nonzero"/><use xlink:href="#gC2CBF98E7E07B945C6FA500EA68B32AD" x="70.3855" y="0" fill="#1a1a18" fill-rule="nonzero"/><use xlink:href="#g30F02AEBABA7D40FC17FCA43D8EB3DAA" x="76.8455" y="0" fill="#1a1a18" fill-rule="nonzero"/><use xlink:href="#gC86282117E7C9F65658F6DDAC49FC51A" x="81.187" y="0" fill="#1a1a18" fill-rule="nonzero"/><use xlink:href="#g30870B079B88F136C2A9AD2E2890E4EB" x="86.1935" y="0" fill="#1a1a18" fill-rule="nonzero"/></g><g transform="matrix(1 0 0 -1 138.738 6.4885)"><use xlink:href="#g7CE7952E1DB27C3B67FBBB132F3F5D69" x="0" y="0" fill="#1a1a18" fill-rule="nonzero"/></g><g transform="matrix(1 0 0 -1 147.3735 6.4885)"><use xlink:href="#g111F480562FE960BC5F50C637F145B12" x="2.375" y="0" fill="#1a1a18" fill-rule="nonzero"/><use xlink:href="#g30F02AEBABA7D40FC17FCA43D8EB3DAA" x="7.942" y="0" fill="#1a1a18" fill-rule="nonzero"/></g><g transform="matrix(1 0 0 -1 162.032 6.4885)"><use xlink:href="#g232BBEC87024F1F7B262DF80387D96F9" x="0" y="0" fill="#1a1a18" fill-rule="nonzero"/></g><g transform="matrix(1 0 0 -1 166.6205 6.4885)"><use xlink:href="#g82BD908AFC52B956D9AEE2C2B078180C" x="0" y="0" fill="#1a1a18" fill-rule="nonzero"/><use xlink:href="#g75E31E9387E94E3A457DA9304838F591" x="4.617" y="0" fill="#1a1a18" fill-rule="nonzero"/><use xlink:href="#gC110FFC20529D78AB6B9724BF2D3193A" x="10.184" y="0" fill="#1a1a18" fill-rule="nonzero"/><use xlink:href="#gDBB5E8F5FC9EB2F5349B9D49D6966C24" x="14.972" y="0" fill="#1a1a18" fill-rule="nonzero"/><use xlink:href="#g30F02AEBABA7D40FC17FCA43D8EB3DAA" x="19.741" y="0" fill="#1a1a18" fill-rule="nonzero"/></g><g transform="matrix(1 0 0 -1 193.078 6.4885)"><use xlink:href="#gAA8AB18CCAA349E5F53075D4DA0E8F35" x="0" y="0" fill="#1a1a18" fill-rule="nonzero"/><use xlink:href="#g164E5D328807BC2BE2A559BF3D5CCE7C" x="3.6955" y="0" fill="#1a1a18" fill-rule="nonzero"/><use xlink:href="#g22F6F1E7BD78974BD412E2736D59A338" x="8.4455" y="0" fill="#1a1a18" fill-rule="nonzero"/></g><g transform="matrix(1 0 0 -1 208.388833333 6.4885)"><use xlink:href="#g232BBEC87024F1F7B262DF80387D96F9" x="0" y="0" fill="#1a1a18" fill-rule="nonzero"/></g><g transform="matrix(1 0 0 -1 215.616222222 6.4885)"><use xlink:href="#gC14A3C90D9E5CC1342351858FEB46818" x="0" y="0" fill="#1a1a18" fill-rule="nonzero"/></g><g transform="matrix(1 0 0 -1 225.646111111 6.4885)"><use xlink:href="#g8A238E7650526ABC03034A4AF023834E" x="0" y="0" fill="#1a1a18" fill-rule="nonzero"/></g><g transform="matrix(1 0 0 -1 231.374611111 6.4885)"><use xlink:href="#g65F4F47574D714441D8E0AFC865670A1" x="2.375" y="0" fill="#1a1a18" fill-rule="nonzero"/></g><g transform="matrix(1 0 0 -1 236.580611111 6.4885)"><use xlink:href="#g232BBEC87024F1F7B262DF80387D96F9" x="0" y="0" fill="#1a1a18" fill-rule="nonzero"/></g><g transform="matrix(1 0 0 -1 243.808 6.4885)"><use xlink:href="#gC14A3C90D9E5CC1342351858FEB46818" x="0" y="0" fill="#1a1a18" fill-rule="nonzero"/></g><g transform="matrix(1 0 0 -1 253.837888889 6.4885)"><use xlink:href="#g7B9CB793ADEA3E3D4A6889197B9DC4D9" x="0" y="0" fill="#1a1a18" fill-rule="nonzero"/></g><g transform="matrix(1 0 0 -1 258.587888889 6.4885)"><use xlink:href="#g7B9CB793ADEA3E3D4A6889197B9DC4D9" x="0" y="0" fill="#1a1a18" fill-rule="nonzero"/></g><g transform="matrix(1 0 0 -1 263.337888889 6.4885)"><use xlink:href="#g991DA3E9E3BF4DA2340DCFBF9121950C" x="0" y="0" fill="#1a1a18" fill-rule="nonzero"/></g><g transform="matrix(1 0 0 -1 266.900388889 6.4885)"><use xlink:href="#g5A6CE4BF34A963031FEFE1D1F48FA683" x="0" y="0" fill="#1a1a18" fill-rule="nonzero"/><use xlink:href="#g7487BF628DA7AF2684C887EDF73D0D86" x="5.206" y="0" fill="#1a1a18" fill-rule="nonzero"/><use xlink:href="#gF1C320A4506B818F6BCB8CDA11A2DE6" x="14.63" y="0" fill="#1a1a18" fill-rule="nonzero"/><use xlink:href="#g5B0FB9F727640150CA57389F67238C5A" x="18.8575" y="0" fill="#1a1a18" fill-rule="nonzero"/><use xlink:href="#gA3A5C9019285A4C81365474C03E3CF4E" x="23.788" y="0" fill="#1a1a18" fill-rule="nonzero"/><use xlink:href="#g111F480562FE960BC5F50C637F145B12" x="28.0345" y="0" fill="#1a1a18" fill-rule="nonzero"/><use xlink:href="#g30870B079B88F136C2A9AD2E2890E4EB" x="33.6015" y="0" fill="#1a1a18" fill-rule="nonzero"/><use xlink:href="#g5AAEF493CBDA45024F82AC9E8378049F" x="39.1685" y="0" fill="#1a1a18" fill-rule="nonzero"/><use xlink:href="#g5A2E3E8C6E57858B2C4B02FBB21BEB4E" x="46.113" y="0" fill="#1a1a18" fill-rule="nonzero"/><use xlink:href="#gD243A48DAC45EEC7C88A2988B14DD756" x="50.768" y="0" fill="#1a1a18" fill-rule="nonzero"/><use xlink:href="#g30F02AEBABA7D40FC17FCA43D8EB3DAA" x="55.3185" y="0" fill="#1a1a18" fill-rule="nonzero"/><use xlink:href="#gF1C320A4506B818F6BCB8CDA11A2DE6" x="59.66" y="0" fill="#1a1a18" fill-rule="nonzero"/><use xlink:href="#g30F02AEBABA7D40FC17FCA43D8EB3DAA" x="63.8875" y="0" fill="#1a1a18" fill-rule="nonzero"/><use xlink:href="#gA3A5C9019285A4C81365474C03E3CF4E" x="68.229" y="0" fill="#1a1a18" fill-rule="nonzero"/><use xlink:href="#gF1C320A4506B818F6BCB8CDA11A2DE6" x="72.4755" y="0" fill="#1a1a18" fill-rule="nonzero"/></g></g></g><defs><symbol id="g76961810B6DEE2CEF630C1F5B8F93C8E" overflow="visible"><path d="M 0 0m 0.289 2.1845c 0 -1.6065 0.9265 -2.2695 1.751 -2.2695c 1.1645 0 1.836 0.867 1.836 1.938c 0 0.918 -0.51 1.8785 -1.7085 1.8785c -0.8075 0 -1.3005 -0.476 -1.4875 -0.884l -0.017 0.017c 0.034 0.442 0.17 0.986 0.2975 1.207c 0.272 0.4675 0.595 0.493 1.377 0.578c 0.765 0.085 1.309 0.3315 1.3855 1.2835c -0.0595 0.0255 -0.119 0.034 -0.187 0c -0.068 -0.408 -0.5185 -0.5185 -1.2325 -0.629c -0.6885 -0.1105 -1.2665 -0.3485 -1.6235 -1.02c -0.306 -0.578 -0.391 -1.292 -0.391 -2.0995Z m 0.731 -0.221c 0 0.476 0.17 1.4705 1.054 1.4705c 0.663 0 1.071 -0.765 1.071 -1.785c 0 -1.071 -0.493 -1.4365 -0.952 -1.4365c -0.6205 0 -1.173 0.8075 -1.173 1.751Z "/></symbol><symbol id="g430571653545A60A3EF6386D136EADA3" overflow="visible"><path d="M 0 0m 1.326 3.128c -0.0085 0.255 -0.0255 0.476 -0.068 0.561c -0.017 0.0425 -0.034 0.068 -0.102 0.068c -0.238 -0.0935 -0.459 -0.17 -1.0455 -0.2465c -0.017 -0.051 0 -0.187 0.017 -0.238c 0.459 -0.0425 0.5525 -0.085 0.5525 -0.578v -3.6295c 0 -0.7055 -0.0935 -0.748 -0.612 -0.7735c -0.051 -0.051 -0.051 -0.2295 0 -0.2805c 0.2975 0.0085 0.612 0.017 0.952 0.017c 0.34 0 0.748 -0.0085 1.0285 -0.017c 0.051 0.051 0.051 0.2295 0 0.2805c -0.6035 0.034 -0.697 0.068 -0.697 0.7735v 0.918c 0 0.1105 0.034 0.102 0.119 0.068c 0.2125 -0.085 0.4675 -0.136 0.7395 -0.136c 0.476 0 0.901 0.1445 1.2495 0.476c 0.3995 0.391 0.629 0.918 0.629 1.6065c 0 0.901 -0.6375 1.734 -1.5045 1.734c -0.391 0 -0.8245 -0.255 -1.1645 -0.6375c -0.051 -0.051 -0.085 -0.051 -0.0935 0.034Z m 0.1615 -0.3145c 0.221 0.272 0.612 0.527 0.8585 0.527c 0.544 0 1.0115 -0.612 1.0115 -1.5725c 0 -0.697 -0.2465 -1.564 -1.1985 -1.564c -0.153 0 -0.4505 0.0425 -0.6035 0.1785c -0.17 0.153 -0.204 0.204 -0.204 0.51v 1.547c 0 0.1785 0.034 0.255 0.136 0.374Z "/></symbol><symbol id="g5D2E58E4CDB4D7E6C81847885E22D756" overflow="visible"><path d="M 0 0m 3.281 0.7905c -0.3145 -0.323 -0.561 -0.459 -1.054 -0.459c -0.306 0 -0.663 0.1785 -0.9265 0.612c -0.17 0.2805 -0.272 0.6715 -0.272 1.1645l 2.261 -0.017c 0.102 0 0.1615 0.051 0.1615 0.1445c 0 0.714 -0.255 1.479 -1.4365 1.479c -0.7395 0 -1.7 -0.7055 -1.7 -1.9975c 0 -0.476 0.119 -0.935 0.3995 -1.258c 0.289 -0.34 0.6885 -0.544 1.3005 -0.544c 0.646 0 1.105 0.2975 1.445 0.7395c -0.0255 0.085 -0.0765 0.1275 -0.1785 0.136Z m -2.227 1.6065c 0.1615 0.9605 0.7565 1.037 0.9605 1.037c 0.323 0 0.7055 -0.1785 0.7055 -0.8925c 0 -0.0765 -0.034 -0.119 -0.1275 -0.119Z "/></symbol><symbol id="g3D9A67B9902CBFFCF1182D85B33DBA41" overflow="visible"><path d="M 0 0m 1.241 3.6465c -0.3655 0 -0.663 0.0085 -0.9435 0.017c -0.051 -0.051 -0.051 -0.2295 0 -0.2805c 0.5185 -0.034 0.612 -0.068 0.612 -0.7735v -1.5725c 0 -0.7055 -0.0935 -0.731 -0.612 -0.7735c -0.051 -0.051 -0.051 -0.2295 0 -0.2805c 0.2805 0.0085 0.578 0.017 0.952 0.017c 0.3145 0 0.595 -0.017 1.1645 -0.017c 0.731 0 1.2835 0.204 1.2835 1.0455c 0 0.476 -0.2975 0.8075 -0.816 0.901v 0.0255c 0.391 0.0765 0.6885 0.3485 0.6885 0.8585c 0 0.595 -0.3655 0.85 -1.394 0.85c -0.3485 0 -0.5695 -0.017 -0.935 -0.017Z m 0.34 -1.802h 0.646c 0.5185 0 0.7395 -0.34 0.7395 -0.85c 0 -0.5695 -0.323 -0.731 -0.782 -0.731c -0.442 0 -0.6035 0.0765 -0.6035 0.4675Z m 0 0.2465v 0.986c 0 0.255 0.1955 0.306 0.6035 0.306c 0.442 0 0.7055 -0.119 0.7055 -0.629c 0 -0.34 -0.221 -0.663 -0.748 -0.663Z "/></symbol><symbol id="gC8932C6BA7F518DC74E87E2F4A0224EB" overflow="visible"><path d="M 0 0m 4.0715 2.6095c 0 0.7055 0.0935 0.731 0.612 0.7735c 0.051 0.051 0.051 0.2295 0 0.2805c -0.2975 -0.017 -0.6715 -0.017 -0.952 -0.017c -0.238 0 -0.578 0.0085 -0.9095 0.017c -0.051 -0.051 -0.051 -0.2295 0 -0.2805c 0.5185 -0.034 0.578 -0.068 0.578 -0.7735v -0.5525h -1.819v 0.5525c 0 0.7055 0.0595 0.731 0.578 0.7735c 0.051 0.051 0.051 0.2295 0 0.2805c -0.323 -0.0085 -0.646 -0.017 -0.918 -0.017c -0.255 0 -0.6035 0.0085 -0.9435 0.017c -0.051 -0.051 -0.051 -0.2295 0 -0.2805c 0.5185 -0.034 0.612 -0.068 0.612 -0.7735v -1.5725c 0 -0.7055 -0.0935 -0.731 -0.612 -0.7735c -0.051 -0.051 -0.051 -0.2295 0 -0.2805c 0.34 0.0085 0.68 0.017 0.952 0.017c 0.272 0 0.6035 -0.0085 0.9095 -0.017c 0.051 0.051 0.051 0.2295 0 0.2805c -0.5185 0.034 -0.578 0.068 -0.578 0.7735v 0.7395h 1.819v -0.7395c 0 -0.7055 -0.0595 -0.731 -0.578 -0.7735c -0.051 -0.051 -0.051 -0.2295 0 -0.2805c 0.306 0.0085 0.6205 0.017 0.918 0.017c 0.255 0 0.612 -0.0085 0.9435 -0.017c 0.051 0.051 0.051 0.2295 0 0.2805c -0.5185 0.034 -0.612 0.068 -0.612 0.7735Z "/></symbol><symbol id="gE34E15A46C94CBC2E6ABE8844A1DDB21" overflow="visible"><path d="M 0 0m 0.3485 1.7425c 0 -0.867 0.578 -1.8275 1.785 -1.8275c 0.544 0 0.9605 0.1955 1.2495 0.476c 0.3825 0.374 0.5525 0.9095 0.5525 1.428c 0 0.884 -0.4845 1.9125 -1.785 1.9125c -0.561 0 -1.02 -0.2295 -1.3345 -0.595c -0.306 -0.3655 -0.4675 -0.8585 -0.4675 -1.394Z m 1.6745 1.6915c 0.731 0 1.1815 -0.663 1.1815 -1.887c 0 -1.071 -0.5525 -1.3345 -0.952 -1.3345c -0.884 0 -1.173 1.071 -1.173 1.7255c 0 0.7395 0.1785 1.496 0.9435 1.496Z "/></symbol><symbol id="g1EEFC323E4FEBE7654D5CC1583F61AF4" overflow="visible"><path d="M 0 0m 3.383 0.7735c -0.034 0.0765 -0.102 0.1105 -0.1785 0.119c -0.289 -0.374 -0.6545 -0.561 -1.02 -0.561c -0.6205 0 -1.139 0.629 -1.139 1.6235c 0 0.935 0.408 1.496 0.969 1.496c 0.5015 0 0.5695 -0.2975 0.6035 -0.595c 0.0255 -0.2295 0.1445 -0.306 0.323 -0.306c 0.1785 0 0.4165 0.1105 0.4165 0.374c 0 0.4675 -0.4845 0.8075 -1.3005 0.8075c -0.8415 0 -1.7425 -0.7565 -1.7425 -1.9635c 0 -1.0965 0.612 -1.853 1.683 -1.853c 0.51 0 0.9605 0.1615 1.3855 0.8585Z "/></symbol><symbol id="gBAF1B227155053221F22F6E06EEFED60" overflow="visible"><path d="M 0 0m 1.6065 3.6465c -0.2805 0 -0.612 0.0085 -0.867 0.017c -0.051 -0.051 -0.051 -0.2295 0 -0.2805c 0.5185 -0.0425 0.6715 -0.0765 0.6375 -0.782c -0.034 -0.782 -0.17 -1.411 -0.3145 -2.006c -0.051 -0.2295 -0.2975 -0.306 -0.5355 -0.3315c -0.1275 -0.017 -0.2465 -0.068 -0.255 -0.221l -0.051 -1.1305c 0.0595 -0.0255 0.1275 -0.034 0.2295 -0.0085c 0.0765 0.3145 0.306 1.0965 1.071 1.0965h 1.4705c 0.7565 0 1.003 -0.765 1.0795 -1.105c 0.0765 -0.017 0.153 -0.017 0.238 0.017l -0.051 1.139c 0 0.119 -0.068 0.187 -0.2295 0.2125c -0.153 0.0255 -0.3655 0.085 -0.3655 0.3995v 1.9465c 0 0.697 0.1105 0.7395 0.578 0.7735c 0.051 0.051 0.051 0.2295 0 0.2805c -0.255 -0.0085 -0.578 -0.017 -0.918 -0.017Z m -0.238 -3.213c 0 0.1445 0.2295 0.7055 0.357 2.652c 0.0085 0.1275 0.068 0.238 0.2975 0.238h 0.5865c 0.34 0 0.3825 -0.238 0.3825 -0.527v -2.0485c 0 -0.2805 -0.017 -0.4165 -0.357 -0.4165h -1.0965c -0.0935 0 -0.17 0.0085 -0.17 0.102Z "/></symbol><symbol id="gB9F31D5D3D52AEED76EFDD7E7A64C4CD" overflow="visible"><path d="M 0 0m 7.344 5.8055c -0.1615 0 -0.6885 -0.0255 -0.85 -0.0255c -0.1615 0 -0.697 0.0255 -0.8585 0.0255c -0.1275 0 -0.187 -0.068 -0.187 -0.204c 0 -0.0765 0.0595 -0.119 0.187 -0.1275c 0.357 0 0.5355 -0.1105 0.5355 -0.3315c 0 -0.051 -0.0085 -0.1105 -0.017 -0.17l -0.918 -3.638l -1.8275 4.2925c -0.068 0.1615 -0.085 0.1785 -0.2975 0.1785h -1.1305c -0.204 0 -0.2805 -0.017 -0.2805 -0.204c 0 -0.085 0.0935 -0.1275 0.272 -0.1275c 0.357 0 0.5355 -0.0085 0.544 -0.034l -1.1305 -4.505c -0.0765 -0.3315 -0.272 -0.5185 -0.578 -0.578c -0.221 -0.0255 -0.476 0.0085 -0.476 -0.2295c 0 -0.085 0.051 -0.1275 0.1445 -0.1275c 0.153 0 0.68 0.0255 0.8415 0.0255c 0.1615 0 0.7055 -0.0255 0.867 -0.0255c 0.1275 0 0.187 0.068 0.187 0.204c 0 0.0765 -0.068 0.119 -0.204 0.1275c -0.3485 0.0085 -0.5185 0.119 -0.5185 0.3315c 0 0.0425 0.0085 0.102 0.0255 0.187l 1.0965 4.3435l 2.125 -5.015c 0.051 -0.119 0.119 -0.1785 0.1955 -0.1785c 0.0765 0 0.1275 0.068 0.1615 0.204l 1.1815 4.675c 0.1105 0.4335 0.3485 0.5865 0.8755 0.595c 0.119 0.0085 0.1785 0.0765 0.1785 0.2125c -0.0255 0.0765 -0.034 0.119 -0.1445 0.119Z "/></symbol><symbol id="g4259D72878C21130C81441488EE5A6BB" overflow="visible"><path d="M 0 0m 4.995 6.147h -2.88c -0.207 0 -0.306 -0.009 -0.306 -0.207c 0 -0.099 0.099 -0.144 0.297 -0.144c 0.18 0 0.54 0.027 0.54 -0.117c 0 -0.018 -0.009 -0.072 -0.036 -0.162l -1.188 -4.779c -0.054 -0.198 -0.144 -0.315 -0.27 -0.36c -0.063 -0.018 -0.225 -0.027 -0.504 -0.027c -0.198 0 -0.288 -0.018 -0.288 -0.207c 0 -0.099 0.054 -0.144 0.171 -0.144l 1.125 0.027l 0.576 -0.009c 0.099 0 0.459 -0.018 0.576 -0.018c 0.144 0 0.216 0.072 0.216 0.216c 0 0.09 -0.099 0.135 -0.288 0.135c -0.36 0 -0.54 0.036 -0.54 0.117c 0 0 0.009 0.027 0.027 0.144l 0.54 2.196h 1.485c 0.585 0 1.143 0.18 1.665 0.531c 0.585 0.387 0.873 0.864 0.873 1.431c 0 0.891 -0.846 1.377 -1.791 1.377Z m -0.279 -0.351c 0.783 0 1.17 -0.27 1.17 -0.81c 0 -0.504 -0.252 -1.179 -0.513 -1.413c -0.342 -0.306 -0.792 -0.459 -1.35 -0.459h -1.206l 0.594 2.376c 0.072 0.306 0.072 0.306 0.45 0.306Z "/></symbol><symbol id="g73664E2D13367A0D29F4FCFD9394D2E9" overflow="visible"><path d="M 0 0m 1.476 -0.099c 0.405 0 0.828 0.243 1.242 0.729c 0.72 0.837 1.377 2.385 1.377 3.852c 0 0.369 -0.063 0.756 -0.189 1.143c -0.162 0.477 -0.468 0.72 -0.909 0.72c -0.405 0 -0.81 -0.243 -1.233 -0.729c -0.72 -0.828 -1.386 -2.376 -1.386 -3.852c 0 -0.918 0.297 -1.863 1.098 -1.863Z m 1.512 6.174c 0.297 0 0.45 -0.342 0.45 -1.035c 0 -0.387 -0.09 -0.972 -0.27 -1.737h -1.773c 0.225 0.837 0.441 1.458 0.666 1.863c 0.333 0.603 0.648 0.909 0.927 0.909Z m -1.683 -3.132h 1.764c -0.171 -0.729 -0.378 -1.314 -0.603 -1.755c -0.351 -0.675 -0.675 -1.017 -0.99 -1.017c -0.297 0 -0.441 0.351 -0.441 1.044c 0 0.45 0.09 1.026 0.27 1.728Z "/></symbol><symbol id="gB6542285DBCC10DC29A41798B36C5AA3" overflow="visible"><path d="M 0 0m 1.592 5.248c 0 -0.08 0.088 -0.12 0.256 -0.12c 0.32 0 0.48 -0.032 0.48 -0.104c 0 -0.024 -0.016 -0.08 -0.04 -0.184l -1.04 -4.184c -0.048 -0.176 -0.128 -0.28 -0.24 -0.32c -0.056 -0.016 -0.2 -0.024 -0.448 -0.024c -0.176 0 -0.256 -0.016 -0.256 -0.184c 0 -0.088 0.048 -0.128 0.152 -0.128l 1.04 0.024l 1.184 -0.024c 0.128 0 0.192 0.064 0.192 0.184c 0 0.136 -0.088 0.128 -0.296 0.128c -0.352 0 -0.552 0.016 -0.6 0.056c -0.024 0.008 -0.032 0.04 -0.032 0.08l 0.512 2.12h 0.744c 0.368 0 0.624 -0.016 0.624 -0.32c 0 -0.104 -0.016 -0.232 -0.056 -0.384c -0.008 -0.024 -0.016 -0.056 -0.024 -0.088c 0 -0.088 0.04 -0.128 0.128 -0.128c 0.04 0.008 0.096 0.064 0.152 0.184l 0.432 1.72c 0.016 0.064 0.024 0.112 0.024 0.136c -0.024 0.072 -0.072 0.112 -0.128 0.112c -0.064 0 -0.112 -0.064 -0.144 -0.184c -0.08 -0.304 -0.192 -0.496 -0.32 -0.592c -0.128 -0.096 -0.352 -0.144 -0.672 -0.144h -0.68l 0.496 1.968c 0.064 0.272 0.064 0.28 0.4 0.28h 1.04c 0.776 0 1.128 -0.12 1.128 -0.832c 0 -0.16 -0.008 -0.304 -0.024 -0.424c -0.008 -0.088 -0.016 -0.136 -0.016 -0.144c 0 -0.088 0.04 -0.128 0.12 -0.128c 0.08 0 0.128 0.072 0.144 0.224l 0.16 1.368c 0.024 0.224 -0.032 0.248 -0.248 0.248h -3.872c -0.184 0 -0.272 -0.008 -0.272 -0.192Z "/></symbol><symbol id="gA501B866130BB2CA150759E9628F05FB" overflow="visible"><path d="M 0 0m 3.281 0c 0 0 0.663 -0.0085 0.833 -0.017c 0.051 0.051 0.051 0.2295 0 0.2805c -0.3315 0.017 -0.3995 0.085 -0.544 0.357l -0.3825 0.7225c -0.2125 0.3995 -0.51 0.6035 -0.9945 0.6035v 0.0255c 0.3315 0.0935 0.476 0.391 0.6035 0.731c 0.102 0.2635 0.204 0.425 0.3825 0.425c 0.0765 0 0.1445 -0.0255 0.1955 -0.0595c 0.051 -0.034 0.1445 -0.0595 0.255 -0.0595c 0.187 0 0.34 0.1615 0.34 0.3315c 0 0.187 -0.204 0.3825 -0.4845 0.3825c -0.493 0 -0.7225 -0.459 -0.884 -0.8585c -0.187 -0.4675 -0.4165 -0.7905 -1.02 -0.7905v 0.5355c 0 0.7055 0.0935 0.731 0.527 0.7735c 0.051 0.051 0.051 0.2295 0 0.2805c -0.204 -0.0085 -0.527 -0.017 -0.867 -0.017c -0.3655 0 -0.663 0.0085 -0.9435 0.017c -0.051 -0.051 -0.051 -0.2295 0 -0.2805c 0.5185 -0.034 0.612 -0.068 0.612 -0.7735v -1.5725c 0 -0.7055 -0.0935 -0.731 -0.612 -0.7735c -0.051 -0.051 -0.051 -0.2295 0 -0.2805c 0.2805 0.0085 0.578 0.017 0.952 0.017c 0.3315 0 0.6715 -0.0085 0.8585 -0.017c 0.051 0.051 0.051 0.2295 0 0.2805c -0.4335 0.034 -0.527 0.068 -0.527 0.7735v 0.7395c 0.578 -0.034 0.731 -0.2635 0.884 -0.578l 0.3655 -0.765c 0.1105 -0.2295 0.2805 -0.425 0.4505 -0.4335Z "/></symbol><symbol id="g2884EEE83F88BF741DF31D9C41AEE180" overflow="visible"><path d="M 0 0m 1.734 -1.36c 0.136 0.238 0.2465 0.476 0.3485 0.731c 0.68 1.6405 1.0625 2.516 1.5045 3.468c 0.17 0.357 0.289 0.493 0.6885 0.544c 0.051 0.051 0.051 0.2295 0 0.2805c -0.17 -0.0085 -0.3655 -0.017 -0.6035 -0.017c -0.255 0 -0.5185 0.0085 -0.7735 0.017c -0.051 -0.051 -0.051 -0.2295 0 -0.2805c 0.272 -0.0255 0.544 -0.0765 0.408 -0.3825l -0.8415 -1.9465c -0.0595 -0.136 -0.136 -0.1615 -0.204 0.0085l -0.7565 1.768c -0.153 0.357 -0.1955 0.5185 0.2805 0.5525c 0.051 0.051 0.051 0.2295 0 0.2805c -0.3145 -0.0085 -0.6545 -0.017 -0.9605 -0.017c -0.289 0 -0.5185 0.0085 -0.6885 0.017c -0.051 -0.051 -0.051 -0.2295 0 -0.2805c 0.34 -0.0425 0.4505 -0.119 0.6715 -0.6375l 0.9605 -2.2355c 0.0765 -0.17 0.204 -0.561 0.119 -0.799c -0.102 -0.2805 -0.204 -0.5185 -0.3315 -0.782c -0.0935 -0.17 -0.2125 -0.2465 -0.425 -0.2465c -0.119 0 -0.153 0.0255 -0.2465 0.0255c -0.2465 0 -0.374 -0.255 -0.374 -0.3655c 0 -0.1785 0.17 -0.3145 0.3995 -0.3145c 0.1785 0 0.5185 0.068 0.8245 0.612Z "/></symbol><symbol id="g3EDD64AE7B5A40E8FE9DD75D51E8EE8A" overflow="visible"><path d="M 0 0m 1.547 1.037c 0 -0.7055 -0.0935 -0.748 -0.612 -0.7735c -0.051 -0.051 -0.051 -0.2295 0 -0.2805c 0.3315 0.0085 0.6715 0.017 0.952 0.017c 0.289 0 0.6205 -0.0085 0.9435 -0.017c 0.051 0.051 0.051 0.2295 0 0.2805c -0.5185 0.0255 -0.612 0.068 -0.612 0.7735v 2.295h 0.1445c 0.6885 0 0.8245 -0.238 0.969 -0.9265c 0.1105 0 0.221 0.034 0.221 0.034c -0.051 0.391 -0.085 0.765 -0.0935 1.258c -0.1955 -0.017 -0.833 -0.051 -1.258 -0.051h -0.6375c -0.425 0 -0.901 0.0255 -1.241 0.051c -0.0085 -0.493 -0.0425 -0.867 -0.102 -1.258c 0 0 0.119 -0.034 0.2295 -0.034c 0.1445 0.6885 0.272 0.9265 0.969 0.9265h 0.1275Z "/></symbol><symbol id="gB4154B742B01C4CB9DD5E5AAD4490D84" overflow="visible"><path d="M 0 0m 1.683 0.5355c -0.0255 0 -0.0595 0.017 -0.0595 0.102v 1.938c 0 0.7055 0.1785 0.782 0.612 0.8075c 0.051 0.051 0.051 0.2295 0 0.2805c -0.1955 -0.0085 -0.68 -0.017 -0.9945 -0.017c -0.2805 0 -0.6205 0.0085 -0.9435 0.017c -0.051 -0.051 -0.051 -0.2295 0 -0.2805c 0.5185 -0.0255 0.6545 -0.102 0.6545 -0.8075v -1.5045c 0 -0.7055 -0.136 -0.782 -0.6545 -0.8075c -0.051 -0.051 -0.051 -0.2295 0 -0.2805c 0.3315 0.0085 0.6715 0.017 0.9435 0.017c 0.1955 0 0.425 -0.0085 0.5185 -0.017c 0.0425 0.119 0.119 0.289 0.2125 0.459l 1.326 2.6605c 0.0255 0 0.0595 -0.017 0.0595 -0.102v -1.9295c 0 -0.7055 -0.1785 -0.782 -0.612 -0.8075c -0.051 -0.051 -0.051 -0.2295 0 -0.2805c 0.1955 0.0085 0.6545 0.017 0.9945 0.017c 0.2635 0 0.612 -0.0085 0.9435 -0.017c 0.051 0.051 0.051 0.2295 0 0.2805c -0.5185 0.0255 -0.6545 0.102 -0.6545 0.8075v 1.5045c 0 0.7055 0.136 0.782 0.6545 0.8075c 0.051 0.051 0.051 0.2295 0 0.2805c -0.34 -0.0085 -0.68 -0.017 -0.9435 -0.017c -0.187 0 -0.425 0.0085 -0.51 0.017c -0.068 -0.153 -0.1445 -0.3315 -0.221 -0.476Z m 1.8275 4.4795c 0 0.1615 -0.119 0.2805 -0.323 0.2805c -0.153 0 -0.2975 -0.119 -0.2975 -0.2635c 0 -0.0255 0 -0.0425 0.0085 -0.0595c 0.0085 -0.0255 0.0085 -0.051 0.0085 -0.0765c 0 -0.187 -0.1785 -0.357 -0.425 -0.357c -0.255 0 -0.425 0.1785 -0.425 0.3655c 0 0.017 0 0.0425 0.0085 0.068c 0.0085 0.0255 0.0085 0.0425 0.0085 0.068c 0 0.136 -0.102 0.255 -0.289 0.255c -0.1955 0 -0.3315 -0.1275 -0.3315 -0.2805c 0 -0.459 0.4675 -0.7395 1.02 -0.7395c 0.544 0 1.037 0.272 1.037 0.7395Z "/></symbol><symbol id="gDEA2A0379B7527B5C1F8D88530B6617D" overflow="visible"><path d="M 0 0m 0.9945 2.601l -0.051 -1.581c -0.0255 -0.714 -0.153 -0.731 -0.646 -0.7565c -0.051 -0.051 -0.051 -0.2295 0 -0.2805c 0.17 0.0085 0.595 0.017 0.731 0.017c 0.17 0 0.5695 -0.0085 0.7395 -0.017c 0.051 0.051 0.051 0.2295 0 0.2805c -0.4845 0.034 -0.5185 0.119 -0.5015 0.7565l 0.0595 2.0825c 0 0.0765 0.034 0.0765 0.068 0l 1.2325 -3.009c 0.034 -0.0255 0.068 -0.0255 0.0935 0l 1.394 3.0005c 0.0425 0.0935 0.085 0.102 0.085 0l -0.0085 -2.057c 0 -0.7055 -0.0595 -0.731 -0.578 -0.7735c -0.051 -0.051 -0.051 -0.2295 0 -0.2805c 0.306 0.0085 0.6205 0.017 0.918 0.017c 0.255 0 0.6205 -0.0085 0.952 -0.017c 0.051 0.051 0.051 0.2295 0 0.2805c -0.5185 0.034 -0.612 0.068 -0.612 0.7735l -0.017 1.5725c -0.0085 0.7055 0.0935 0.731 0.612 0.7735c 0.051 0.051 0.051 0.2295 0 0.2805c -0.2975 -0.017 -1.122 -0.017 -1.4025 -0.017l -1.1305 -2.431l -0.0425 -0.085l -0.034 0.085l -0.9945 2.431c -0.2805 0 -1.1815 0 -1.479 0.017c -0.051 -0.051 -0.051 -0.2295 0 -0.2805c 0.5185 -0.0425 0.6375 -0.0765 0.612 -0.782Z "/></symbol><symbol id="g9198438F4524A9573AFBB63C3409A69A" overflow="visible"><path d="M 0 0m 0.3315 2.924c 0 -2.312 0.9945 -3.009 1.7255 -3.009c 0.68 0 1.7765 0.68 1.7765 3.009c 0 2.2525 -1.0455 3.009 -1.7255 3.009c -0.833 0 -1.7765 -0.969 -1.7765 -3.009Z m 2.805 0.1445h -2.108c 0.0085 1.0965 0.3145 2.5755 1.0285 2.5755c 0.629 0 1.071 -1.2495 1.0795 -2.5755Z m 0 -0.306c -0.0085 -1.2325 -0.3825 -2.5585 -1.037 -2.5585c -0.6545 0 -1.0625 1.3345 -1.071 2.5585Z "/></symbol><symbol id="gF931FC691828778A920607CF18B9C32A" overflow="visible"><path d="M 0 0m 2.4905 0.408c 0.051 -0.2635 0.1445 -0.493 0.5695 -0.493c 0.323 0 0.629 0.1445 0.8075 0.3145c -0.017 0.102 -0.051 0.1785 -0.1445 0.2295c -0.0595 -0.051 -0.204 -0.136 -0.3145 -0.136c -0.2465 0 -0.255 0.3315 -0.255 0.7225v 1.2495c 0 1.207 -0.663 1.4365 -1.2835 1.4365c -0.697 0 -1.4025 -0.459 -1.4025 -0.9435c 0 -0.204 0.102 -0.306 0.2975 -0.306c 0.2465 0 0.3995 0.1785 0.3995 0.289c 0 0.0595 -0.0085 0.119 -0.0255 0.153c -0.0085 0.0255 -0.017 0.0765 -0.017 0.17c 0 0.2635 0.357 0.357 0.68 0.357c 0.289 0 0.6885 -0.1445 0.6885 -1.105c 0 -0.0595 -0.0255 -0.0935 -0.051 -0.102l -0.731 -0.1785c -0.816 -0.204 -1.4025 -0.6545 -1.4025 -1.2325c 0 -0.697 0.476 -0.918 1.071 -0.918c 0.2975 0 0.5525 0.068 0.9265 0.357l 0.17 0.136Z m 0 1.5725v -1.122c 0 -0.1105 -0.051 -0.17 -0.119 -0.221c -0.221 -0.1785 -0.51 -0.374 -0.748 -0.374c -0.425 0 -0.612 0.34 -0.612 0.6035c 0 0.3825 0.1785 0.7735 0.8075 0.935Z "/></symbol><symbol id="gB3F6F741CFF64E2F87AE274E4C795DAE" overflow="visible"><path d="M 0 0m 3.553 1.037v 1.5725c 0 0.697 0.1105 0.7395 0.578 0.7735c 0.051 0.051 0.051 0.2295 0 0.2805c -0.255 -0.0085 -0.578 -0.017 -0.918 -0.017h -1.6065c -0.2805 0 -0.612 0.0085 -0.867 0.017c -0.051 -0.051 -0.051 -0.2295 0 -0.2805c 0.6035 -0.0425 0.6885 -0.0935 0.6885 -1.0115c 0 -0.8925 -0.068 -1.36 -0.187 -1.7085c -0.1105 -0.306 -0.255 -0.4165 -0.3995 -0.4165c -0.1105 0 -0.1445 0.068 -0.1615 0.1785c -0.0255 0.1615 -0.0765 0.323 -0.3145 0.323c -0.2125 0 -0.3315 -0.17 -0.3315 -0.357c 0 -0.2635 0.238 -0.493 0.629 -0.493c 0.4335 0 0.6715 0.221 0.867 0.68c 0.17 0.408 0.221 1.275 0.221 1.853c 0 0.663 0.0255 0.884 0.3655 0.884h 0.3825c 0.323 0 0.3825 -0.204 0.3825 -0.493v -1.785c 0 -0.697 -0.085 -0.7395 -0.527 -0.7735c -0.0425 -0.051 -0.0425 -0.2295 0 -0.2805c 0.2125 0.0085 0.527 0.017 0.867 0.017c 0.34 0 0.7225 -0.0085 0.9605 -0.017c 0.0425 0.051 0.0425 0.2295 0 0.2805c -0.5525 0.034 -0.629 0.0765 -0.629 0.7735Z "/></symbol><symbol id="g86AC7E23D83A677140844C9CDACC66A2" overflow="visible"><path d="M 0 0m 0.4165 2.023h 5.304c 0.1105 0 0.221 0.17 0.221 0.272c 0 0.0765 -0.0255 0.1445 -0.119 0.1445h -5.304c -0.102 0 -0.221 -0.17 -0.221 -0.272c 0 -0.068 0.0255 -0.1445 0.119 -0.1445Z "/></symbol><symbol id="g11CAB86DAD56BCA12FE1B0081452B59D" overflow="visible"><path d="M 0 0m 0.3655 0.7055c 0 -0.187 0.1105 -0.323 0.289 -0.459c 0.2125 -0.153 0.493 -0.3315 1.1645 -0.3315c 0.85 0 1.513 0.255 1.513 1.0965c 0 0.51 -0.255 0.85 -0.8585 0.952v 0.0255c 0.5185 0.1955 0.6545 0.4335 0.6545 0.8755c 0 0.493 -0.34 0.867 -1.1985 0.867c -0.4505 0 -0.85 -0.1615 -1.309 -0.238l -0.1105 -1.0115c 0.068 -0.034 0.153 -0.0425 0.2295 -0.034c 0.1615 0.493 0.374 0.986 1.088 0.986c 0.4675 0 0.6205 -0.2805 0.6205 -0.6205c 0 -0.3485 -0.0595 -0.7565 -0.6035 -0.7565c -0.1615 0 -0.306 0.051 -0.4675 0.051c -0.0765 0 -0.1615 -0.051 -0.1615 -0.187c 0 -0.136 0.0935 -0.1785 0.17 -0.1785c 0.1615 0 0.255 0.051 0.4675 0.051c 0.629 0 0.748 -0.4335 0.748 -0.8075c 0 -0.5015 -0.187 -0.7735 -0.7905 -0.7735c -0.4845 0 -0.5695 0.1785 -0.714 0.4845c -0.068 0.153 -0.1615 0.272 -0.3825 0.272c -0.153 0 -0.3485 -0.1275 -0.3485 -0.2635Z "/></symbol><symbol id="gEF81C0034748F108B423DC4F87ECC2EA" overflow="visible"><path d="M 0 0m 0.9265 0c 0.17 0.0085 0.3145 0.204 0.425 0.4335l 0.3655 0.765c 0.153 0.3145 0.391 0.544 0.969 0.578v -0.7395c 0 -0.7055 -0.102 -0.731 -0.5355 -0.7735c -0.051 -0.051 -0.051 -0.2295 0 -0.2805c 0.1955 0.0085 0.51 0.017 0.85 0.017c 0.3315 0 0.6545 -0.0085 0.8415 -0.017c 0.051 0.051 0.051 0.2295 0 0.2805c -0.4335 0.034 -0.5355 0.068 -0.5355 0.7735v 0.7395c 0.578 -0.034 0.816 -0.2635 0.969 -0.578l 0.3655 -0.765c 0.1105 -0.2295 0.255 -0.425 0.425 -0.4335c 0 0 0.629 -0.0085 0.799 -0.017c 0.051 0.051 0.051 0.2295 0 0.2805c -0.3315 0.017 -0.4165 0.085 -0.561 0.357l -0.3825 0.7225c -0.2125 0.3995 -0.493 0.6035 -0.9775 0.6035v 0.0255c 0.3315 0.0935 0.476 0.391 0.6035 0.731c 0.102 0.2635 0.204 0.425 0.3825 0.425c 0.0765 0 0.1445 -0.0255 0.1955 -0.0595c 0.051 -0.034 0.1445 -0.0595 0.255 -0.0595c 0.187 0 0.34 0.1615 0.34 0.3315c 0 0.187 -0.204 0.3825 -0.4845 0.3825c -0.493 0 -0.7225 -0.459 -0.884 -0.8585c -0.187 -0.4675 -0.442 -0.7905 -1.0455 -0.7905v 0.5355c 0 0.7055 0.102 0.731 0.5355 0.7735c 0.051 0.051 0.051 0.2295 0 0.2805c -0.204 -0.0085 -0.51 -0.017 -0.85 -0.017c -0.3315 0 -0.646 0.0085 -0.8415 0.017c -0.051 -0.051 -0.051 -0.2295 0 -0.2805c 0.4335 -0.034 0.5355 -0.068 0.5355 -0.7735v -0.5355c -0.6035 0 -0.8585 0.323 -1.0455 0.7905c -0.1615 0.3995 -0.391 0.8585 -0.884 0.8585c -0.2805 0 -0.4845 -0.1955 -0.4845 -0.3825c 0 -0.17 0.153 -0.3315 0.34 -0.3315c 0.1105 0 0.204 0.0255 0.255 0.0595c 0.051 0.034 0.119 0.0595 0.1955 0.0595c 0.1785 0 0.2805 -0.1615 0.3825 -0.425c 0.1275 -0.34 0.272 -0.6375 0.6035 -0.731v -0.0255c -0.4845 0 -0.765 -0.204 -0.9775 -0.6035l -0.3825 -0.7225c -0.1445 -0.272 -0.2295 -0.34 -0.561 -0.357c -0.051 -0.051 -0.051 -0.2295 0 -0.2805c 0.17 0.0085 0.799 0.017 0.799 0.017Z "/></symbol><symbol id="gBEE50160BCD570B38DEF46393A725EED" overflow="visible"><path d="M 0 0m 3.7145 3.6465h -2.414c -0.34 0 -0.663 0.0085 -0.918 0.017c -0.051 -0.051 -0.051 -0.2295 0 -0.2805c 0.4675 -0.034 0.578 -0.0765 0.578 -0.7735v -1.5725c 0 -0.697 -0.1105 -0.7395 -0.663 -0.7735c -0.051 -0.051 -0.051 -0.2295 0 -0.2805c 0.255 0.0085 0.663 0.017 1.003 0.017c 0.34 0 0.595 -0.0085 0.85 -0.017c 0.051 0.051 0.051 0.2295 0 0.2805c -0.4335 0.0425 -0.5185 0.0765 -0.5185 0.7735v 1.8445c 0 0.2635 0.0255 0.4335 0.357 0.4335h 1.0285c 0.3145 0 0.3655 -0.0935 0.3655 -0.4335v -1.8445c 0 -0.697 -0.085 -0.7395 -0.527 -0.7735c -0.0425 -0.051 -0.0425 -0.2295 0 -0.2805c 0.2125 0.0085 0.527 0.017 0.867 0.017c 0.34 0 0.7225 -0.0085 0.9605 -0.017c 0.0425 0.051 0.0425 0.2295 0 0.2805c -0.5525 0.034 -0.629 0.0765 -0.629 0.7735v 1.5725c 0 0.697 0.1105 0.7395 0.578 0.7735c 0.051 0.051 0.051 0.2295 0 0.2805c -0.255 -0.0085 -0.578 -0.017 -0.918 -0.017Z "/></symbol><symbol id="gC8D6D5492F0FFEF84F8079BC5341E7A6" overflow="visible"><path d="M 0 0m 1.581 2.6095c 0 0.4845 0.0595 0.7055 0.357 0.7055h 0.187c 0.697 0 0.901 -0.4845 1.02 -0.9775c 0.0935 -0.0085 0.1785 0 0.2465 0.034c -0.034 0.4505 -0.0595 0.8245 -0.1105 1.275l -0.017 0.017c 0 0 -0.68 -0.017 -0.952 -0.017h -1.071c -0.3655 0 -0.663 0.0085 -0.9435 0.017c -0.051 -0.051 -0.051 -0.2295 0 -0.2805c 0.5185 -0.034 0.612 -0.068 0.612 -0.7735v -1.5725c 0 -0.7055 -0.0935 -0.731 -0.612 -0.7735c -0.051 -0.051 -0.051 -0.2295 0 -0.2805c 0.2805 0.0085 0.578 0.017 0.952 0.017c 0.3655 0 0.6715 -0.0085 0.9435 -0.017c 0.051 0.051 0.051 0.2295 0 0.2805c -0.5185 0.034 -0.612 0.068 -0.612 0.7735Z "/></symbol><symbol id="gE7AE90A8EDDEF3DDB67EE78D36D80337" overflow="visible"><path d="M 0 0m 1.683 0.5355c -0.0255 0 -0.0595 0.017 -0.0595 0.102v 1.938c 0 0.7055 0.1785 0.782 0.612 0.8075c 0.051 0.051 0.051 0.2295 0 0.2805c -0.1955 -0.0085 -0.68 -0.017 -0.9945 -0.017c -0.2805 0 -0.6205 0.0085 -0.9435 0.017c -0.051 -0.051 -0.051 -0.2295 0 -0.2805c 0.5185 -0.0255 0.6545 -0.102 0.6545 -0.8075v -1.5045c 0 -0.7055 -0.136 -0.782 -0.6545 -0.8075c -0.051 -0.051 -0.051 -0.2295 0 -0.2805c 0.3315 0.0085 0.6715 0.017 0.9435 0.017c 0.1955 0 0.425 -0.0085 0.5185 -0.017c 0.0425 0.119 0.119 0.289 0.2125 0.459l 1.326 2.6605c 0.0255 0 0.0595 -0.017 0.0595 -0.102v -1.9295c 0 -0.7055 -0.1785 -0.782 -0.612 -0.8075c -0.051 -0.051 -0.051 -0.2295 0 -0.2805c 0.1955 0.0085 0.6545 0.017 0.9945 0.017c 0.2635 0 0.612 -0.0085 0.9435 -0.017c 0.051 0.051 0.051 0.2295 0 0.2805c -0.5185 0.0255 -0.6545 0.102 -0.6545 0.8075v 1.5045c 0 0.7055 0.136 0.782 0.6545 0.8075c 0.051 0.051 0.051 0.2295 0 0.2805c -0.34 -0.0085 -0.68 -0.017 -0.9435 -0.017c -0.187 0 -0.425 0.0085 -0.51 0.017c -0.068 -0.153 -0.1445 -0.3315 -0.221 -0.476Z "/></symbol><symbol id="gCEE0DCDCB551765DCAE8D9A7DBD02279" overflow="visible"><path d="M 0 0m 7.276 0.697c 0.731 0.8245 1.4195 1.3005 1.836 1.445v 0.1955c -0.918 0.374 -1.836 1.462 -1.836 1.4705h -0.34c 0.3315 -0.714 0.68 -1.105 0.9605 -1.3345h -7.395v -0.442h 7.395c -0.272 -0.2635 -0.6885 -0.7225 -0.9435 -1.3345Z "/></symbol><symbol id="g34E634B8D08F8B91F4ACC67018EAE93C" overflow="visible"><path d="M 0 0m 0.5185 3.978c 0 -0.1785 0.1615 -0.3315 0.34 -0.3315c 0.1445 0 0.3995 0.153 0.3995 0.34c 0 0.068 -0.017 0.119 -0.034 0.1785c -0.017 0.0595 -0.068 0.136 -0.068 0.204c 0 0.2125 0.221 0.5185 0.8415 0.5185c 0.306 0 0.7395 -0.2125 0.7395 -1.0285c 0 -0.544 -0.1955 -0.986 -0.697 -1.496l -0.629 -0.6205c -0.833 -0.85 -0.969 -1.258 -0.969 -1.7595c 0 0 0.4335 0.017 0.7055 0.017h 1.4875c 0.272 0 0.663 -0.017 0.663 -0.017c 0.1105 0.4505 0.1955 1.088 0.204 1.343c -0.051 0.0425 -0.1615 0.0595 -0.2465 0.0425c -0.1445 -0.6035 -0.289 -0.816 -0.595 -0.816h -1.513c 0 0.408 0.5865 0.986 0.629 1.0285l 0.8585 0.8245c 0.4845 0.4675 0.85 0.8415 0.85 1.4875c 0 0.918 -0.748 1.292 -1.4365 1.292c -0.9435 0 -1.53 -0.697 -1.53 -1.207Z "/></symbol><symbol id="g98BE93694EA1A141C1E7FF533D0ECD03" overflow="visible"><path d="M 0 0m 0.289 4.3265c 0 -0.4675 0.3825 -0.85 0.85 -0.85c 0.4675 0 0.8415 0.3825 0.8415 0.85c 0 0.476 -0.374 0.8585 -0.8415 0.8585c -0.4675 0 -0.85 -0.3825 -0.85 -0.8585Z m 1.4025 -0.0085c 0 -0.289 -0.204 -0.5865 -0.5525 -0.5865c -0.357 0 -0.561 0.289 -0.561 0.5865c 0 0.306 0.1955 0.612 0.561 0.612c 0.3825 0 0.5525 -0.3315 0.5525 -0.612Z "/></symbol><symbol id="g263F4FD32CCD3C47111457350A4C543D" overflow="visible"><path d="M 0 0m 1.581 2.601c 0 0.714 0.0935 0.7395 0.612 0.782c 0.051 0.051 0.051 0.2295 0 0.2805c -0.289 -0.0085 -0.578 -0.017 -0.952 -0.017c -0.3655 0 -0.663 0.0085 -0.9435 0.017c -0.051 -0.051 -0.051 -0.2295 0 -0.2805c 0.5185 -0.034 0.612 -0.068 0.612 -0.7735v -1.5725c 0 -0.7055 -0.0935 -0.731 -0.612 -0.7735c -0.051 -0.051 -0.051 -0.2295 0 -0.2805c 0.2805 0.0085 0.578 0.017 0.952 0.017c 0.3485 0 0.5355 -0.017 0.884 -0.017c 1.0455 0 1.615 0.2635 1.615 1.173c 0 0.799 -0.697 1.0285 -1.5555 1.0285h -0.612Z m 3.6635 0.0085c 0 0.7055 0.0935 0.731 0.612 0.7735c 0.051 0.051 0.051 0.2295 0 0.2805c -0.289 -0.0085 -0.578 -0.017 -0.952 -0.017c -0.3655 0 -0.663 0.0085 -0.9435 0.017c -0.051 -0.051 -0.051 -0.2295 0 -0.2805c 0.5185 -0.034 0.612 -0.068 0.612 -0.7735v -1.5725c 0 -0.7055 -0.0935 -0.731 -0.612 -0.7735c -0.051 -0.051 -0.051 -0.2295 0 -0.2805c 0.2805 0.0085 0.578 0.017 0.952 0.017c 0.3655 0 0.6715 -0.0085 0.9435 -0.017c 0.051 0.051 0.051 0.2295 0 0.2805c -0.5185 0.034 -0.612 0.068 -0.612 0.7735Z m -2.227 -1.5385c 0 -0.697 -0.425 -0.8075 -0.8755 -0.8075c -0.4165 0 -0.561 0.085 -0.561 0.3825v 1.258h 0.6035c 0.6375 0 0.833 -0.3825 0.833 -0.833Z "/></symbol><symbol id="gA5834380700F55B3689219A2CC4667E3" overflow="visible"><path d="M 0 0m 3.933 3.861h -2.556c -0.36 0 -0.702 0.009 -0.972 0.018c -0.054 -0.054 -0.054 -0.243 0 -0.297c 0.495 -0.036 0.612 -0.081 0.612 -0.819v -1.665c 0 -0.738 -0.117 -0.783 -0.702 -0.819c -0.054 -0.054 -0.054 -0.243 0 -0.297c 0.27 0.009 0.702 0.018 1.062 0.018c 0.36 0 0.63 -0.009 0.9 -0.018c 0.054 0.054 0.054 0.243 0 0.297c -0.459 0.045 -0.549 0.081 -0.549 0.819v 1.953c 0 0.279 0.027 0.459 0.378 0.459h 1.089c 0.333 0 0.387 -0.099 0.387 -0.459v -1.953c 0 -0.738 -0.09 -0.783 -0.558 -0.819c -0.045 -0.054 -0.045 -0.243 0 -0.297c 0.225 0.009 0.558 0.018 0.918 0.018c 0.36 0 0.765 -0.009 1.017 -0.018c 0.045 0.054 0.045 0.243 0 0.297c -0.585 0.036 -0.666 0.081 -0.666 0.819v 1.665c 0 0.738 0.117 0.783 0.612 0.819c 0.054 0.054 0.054 0.243 0 0.297c -0.27 -0.009 -0.612 -0.018 -0.972 -0.018Z "/></symbol><symbol id="gB118266EF18AECCCCEF724ECE6F3D1D3" overflow="visible"><path d="M 0 0m 3.762 1.098v 1.665c 0 0.738 0.117 0.783 0.612 0.819c 0.054 0.054 0.054 0.243 0 0.297c -0.27 -0.009 -0.612 -0.018 -0.972 -0.018h -1.701c -0.297 0 -0.648 0.009 -0.918 0.018c -0.054 -0.054 -0.054 -0.243 0 -0.297c 0.639 -0.045 0.729 -0.099 0.729 -1.071c 0 -0.945 -0.072 -1.44 -0.198 -1.809c -0.117 -0.324 -0.27 -0.441 -0.423 -0.441c -0.117 0 -0.153 0.072 -0.171 0.189c -0.027 0.171 -0.081 0.342 -0.333 0.342c -0.225 0 -0.351 -0.18 -0.351 -0.378c 0 -0.279 0.252 -0.522 0.666 -0.522c 0.459 0 0.711 0.234 0.918 0.72c 0.18 0.432 0.234 1.35 0.234 1.962c 0 0.702 0.027 0.936 0.387 0.936h 0.405c 0.342 0 0.405 -0.216 0.405 -0.522v -1.89c 0 -0.738 -0.09 -0.783 -0.558 -0.819c -0.045 -0.054 -0.045 -0.243 0 -0.297c 0.225 0.009 0.558 0.018 0.918 0.018c 0.36 0 0.765 -0.009 1.017 -0.018c 0.045 0.054 0.045 0.243 0 0.297c -0.585 0.036 -0.666 0.081 -0.666 0.819Z "/></symbol><symbol id="g7253BD4F4A12C91ABC7B03558525FA66" overflow="visible"><path d="M 0 0m 0.369 1.845c 0 -0.918 0.612 -1.935 1.89 -1.935c 0.576 0 1.017 0.207 1.323 0.504c 0.405 0.396 0.585 0.963 0.585 1.512c 0 0.936 -0.513 2.025 -1.89 2.025c -0.594 0 -1.08 -0.243 -1.413 -0.63c -0.324 -0.387 -0.495 -0.909 -0.495 -1.476Z m 1.773 1.791c 0.774 0 1.251 -0.702 1.251 -1.998c 0 -1.134 -0.585 -1.413 -1.008 -1.413c -0.936 0 -1.242 1.134 -1.242 1.827c 0 0.783 0.189 1.584 0.999 1.584Z "/></symbol><symbol id="g2A7A063817D03B183B2F5455DB77D169" overflow="visible"><path d="M 0 0m 6.021 0c 0.756 0 1.017 -0.72 1.134 -1.161c 0.081 -0.018 0.162 -0.018 0.234 0.009l -0.054 1.197c -0.009 0.162 -0.144 0.207 -0.27 0.234c -0.207 0.045 -0.351 0.099 -0.351 0.819v 1.665c 0 0.738 0.117 0.783 0.612 0.819c 0.054 0.054 0.054 0.243 0 0.297c -0.27 -0.009 -0.612 -0.018 -0.972 -0.018c -0.36 0 -0.63 0.009 -0.9 0.018c -0.054 -0.054 -0.054 -0.243 0 -0.297c 0.459 -0.045 0.549 -0.081 0.549 -0.819v -1.953c 0 -0.279 -0.027 -0.459 -0.378 -0.459h -1.062c -0.27 0 -0.387 0.081 -0.387 0.459v 1.953c 0.009 0.738 0.072 0.783 0.558 0.819c 0.045 0.054 0.045 0.243 0 0.297c -0.225 -0.009 -0.558 -0.018 -0.918 -0.018c -0.36 0 -0.657 0.009 -0.882 0.018c -0.045 -0.054 -0.045 -0.243 0 -0.297c 0.45 -0.036 0.54 -0.081 0.531 -0.819v -1.962c 0 -0.333 -0.045 -0.45 -0.378 -0.45h -1.026c -0.333 0 -0.387 0.099 -0.387 0.459v 1.953c 0 0.738 0.09 0.783 0.558 0.819c 0.045 0.054 0.045 0.243 0 0.297c -0.225 -0.009 -0.558 -0.018 -0.918 -0.018c -0.36 0 -0.675 0.009 -0.927 0.018c -0.045 -0.054 -0.045 -0.243 0 -0.297c 0.495 -0.036 0.576 -0.081 0.576 -0.819v -1.665c 0 -0.738 -0.117 -0.783 -0.612 -0.819c -0.054 -0.054 -0.054 -0.243 0 -0.297c 0.27 0.009 0.612 0.018 0.972 0.018Z "/></symbol><symbol id="gD351E21AD091924D522A6D2D6355C932" overflow="visible"><path d="M 0 0m 3.474 0.837c -0.333 -0.342 -0.594 -0.486 -1.116 -0.486c -0.324 0 -0.702 0.189 -0.981 0.648c -0.18 0.297 -0.288 0.711 -0.288 1.233l 2.394 -0.018c 0.108 0 0.171 0.054 0.171 0.153c 0 0.756 -0.27 1.566 -1.521 1.566c -0.783 0 -1.8 -0.747 -1.8 -2.115c 0 -0.504 0.126 -0.99 0.423 -1.332c 0.306 -0.36 0.729 -0.576 1.377 -0.576c 0.684 0 1.17 0.315 1.53 0.783c -0.027 0.09 -0.081 0.135 -0.189 0.144Z m -2.358 1.701c 0.171 1.017 0.801 1.098 1.017 1.098c 0.342 0 0.747 -0.189 0.747 -0.945c 0 -0.081 -0.036 -0.126 -0.135 -0.126Z "/></symbol><symbol id="gB75AB0E2CC62A89AB96A67F9AB496609" overflow="visible"><path d="M 0 0m 7.704 0.738c 0.774 0.873 1.503 1.377 1.944 1.53v 0.207c -0.972 0.396 -1.944 1.548 -1.944 1.557h -0.36c 0.351 -0.756 0.72 -1.17 1.017 -1.413h -7.83v -0.468h 7.83c -0.288 -0.279 -0.729 -0.765 -0.999 -1.413Z "/></symbol><symbol id="g75E31E9387E94E3A457DA9304838F591" overflow="visible"><path d="M 0 0m 4.1515 4.0755h -2.698c -0.38 0 -0.741 0.0095 -1.026 0.019c -0.057 -0.057 -0.057 -0.2565 0 -0.3135c 0.5225 -0.038 0.646 -0.0855 0.646 -0.8645v -1.7575c 0 -0.779 -0.1235 -0.8265 -0.741 -0.8645c -0.057 -0.057 -0.057 -0.2565 0 -0.3135c 0.285 0.0095 0.741 0.019 1.121 0.019c 0.38 0 0.665 -0.0095 0.95 -0.019c 0.057 0.057 0.057 0.2565 0 0.3135c -0.4845 0.0475 -0.5795 0.0855 -0.5795 0.8645v 2.0615c 0 0.2945 0.0285 0.4845 0.399 0.4845h 1.1495c 0.3515 0 0.4085 -0.1045 0.4085 -0.4845v -2.0615c 0 -0.779 -0.095 -0.8265 -0.589 -0.8645c -0.0475 -0.057 -0.0475 -0.2565 0 -0.3135c 0.2375 0.0095 0.589 0.019 0.969 0.019c 0.38 0 0.8075 -0.0095 1.0735 -0.019c 0.0475 0.057 0.0475 0.2565 0 0.3135c -0.6175 0.038 -0.703 0.0855 -0.703 0.8645v 1.7575c 0 0.779 0.1235 0.8265 0.646 0.8645c 0.057 0.057 0.057 0.2565 0 0.3135c -0.285 -0.0095 -0.646 -0.019 -1.026 -0.019Z "/></symbol><symbol id="g5B0FB9F727640150CA57389F67238C5A" overflow="visible"><path d="M 0 0m 1.482 3.496c -0.0095 0.285 -0.0285 0.532 -0.076 0.627c -0.019 0.0475 -0.038 0.076 -0.114 0.076c -0.266 -0.1045 -0.513 -0.19 -1.1685 -0.2755c -0.019 -0.057 0 -0.209 0.019 -0.266c 0.513 -0.0475 0.6175 -0.095 0.6175 -0.646v -4.0565c 0 -0.7885 -0.1045 -0.836 -0.684 -0.8645c -0.057 -0.057 -0.057 -0.2565 0 -0.3135c 0.3325 0.0095 0.684 0.019 1.064 0.019c 0.38 0 0.836 -0.0095 1.1495 -0.019c 0.057 0.057 0.057 0.2565 0 0.3135c -0.6745 0.038 -0.779 0.076 -0.779 0.8645v 1.026c 0 0.1235 0.038 0.114 0.133 0.076c 0.2375 -0.095 0.5225 -0.152 0.8265 -0.152c 0.532 0 1.007 0.1615 1.3965 0.532c 0.4465 0.437 0.703 1.026 0.703 1.7955c 0 1.007 -0.7125 1.938 -1.6815 1.938c -0.437 0 -0.9215 -0.285 -1.3015 -0.7125c -0.057 -0.057 -0.095 -0.057 -0.1045 0.038Z m 0.1805 -0.3515c 0.247 0.304 0.684 0.589 0.9595 0.589c 0.608 0 1.1305 -0.684 1.1305 -1.7575c 0 -0.779 -0.2755 -1.748 -1.3395 -1.748c -0.171 0 -0.5035 0.0475 -0.6745 0.1995c -0.19 0.171 -0.228 0.228 -0.228 0.57v 1.729c 0 0.1995 0.038 0.285 0.152 0.418Z "/></symbol><symbol id="g30870B079B88F136C2A9AD2E2890E4EB" overflow="visible"><path d="M 0 0m 1.881 0.5985c -0.0285 0 -0.0665 0.019 -0.0665 0.114v 2.166c 0 0.7885 0.1995 0.874 0.684 0.9025c 0.057 0.057 0.057 0.2565 0 0.3135c -0.2185 -0.0095 -0.76 -0.019 -1.1115 -0.019c -0.3135 0 -0.6935 0.0095 -1.0545 0.019c -0.057 -0.057 -0.057 -0.2565 0 -0.3135c 0.5795 -0.0285 0.7315 -0.114 0.7315 -0.9025v -1.6815c 0 -0.7885 -0.152 -0.874 -0.7315 -0.9025c -0.057 -0.057 -0.057 -0.2565 0 -0.3135c 0.3705 0.0095 0.7505 0.019 1.0545 0.019c 0.2185 0 0.475 -0.0095 0.5795 -0.019c 0.0475 0.133 0.133 0.323 0.2375 0.513l 1.482 2.9735c 0.0285 0 0.0665 -0.019 0.0665 -0.114v -2.1565c 0 -0.7885 -0.1995 -0.874 -0.684 -0.9025c -0.057 -0.057 -0.057 -0.2565 0 -0.3135c 0.2185 0.0095 0.7315 0.019 1.1115 0.019c 0.2945 0 0.684 -0.0095 1.0545 -0.019c 0.057 0.057 0.057 0.2565 0 0.3135c -0.5795 0.0285 -0.7315 0.114 -0.7315 0.9025v 1.6815c 0 0.7885 0.152 0.874 0.7315 0.9025c 0.057 0.057 0.057 0.2565 0 0.3135c -0.38 -0.0095 -0.76 -0.019 -1.0545 -0.019c -0.209 0 -0.475 0.0095 -0.57 0.019c -0.076 -0.171 -0.1615 -0.3705 -0.247 -0.532Z "/></symbol><symbol id="gF44FAB8653C15561E4D64E784B7F129A" overflow="visible"><path d="M 0 0m 1.0355 0c 0.19 0.0095 0.3515 0.228 0.475 0.4845l 0.4085 0.855c 0.171 0.3515 0.437 0.608 1.083 0.646v -0.8265c 0 -0.7885 -0.114 -0.817 -0.5985 -0.8645c -0.057 -0.057 -0.057 -0.2565 0 -0.3135c 0.2185 0.0095 0.57 0.019 0.95 0.019c 0.3705 0 0.7315 -0.0095 0.9405 -0.019c 0.057 0.057 0.057 0.2565 0 0.3135c -0.4845 0.038 -0.5985 0.076 -0.5985 0.8645v 0.8265c 0.646 -0.038 0.912 -0.2945 1.083 -0.646l 0.4085 -0.855c 0.1235 -0.2565 0.285 -0.475 0.475 -0.4845c 0 0 0.703 -0.0095 0.893 -0.019c 0.057 0.057 0.057 0.2565 0 0.3135c -0.3705 0.019 -0.4655 0.095 -0.627 0.399l -0.4275 0.8075c -0.2375 0.4465 -0.551 0.6745 -1.0925 0.6745v 0.0285c 0.3705 0.1045 0.532 0.437 0.6745 0.817c 0.114 0.2945 0.228 0.475 0.4275 0.475c 0.0855 0 0.1615 -0.0285 0.2185 -0.0665c 0.057 -0.038 0.1615 -0.0665 0.285 -0.0665c 0.209 0 0.38 0.1805 0.38 0.3705c 0 0.209 -0.228 0.4275 -0.5415 0.4275c -0.551 0 -0.8075 -0.513 -0.988 -0.9595c -0.209 -0.5225 -0.494 -0.8835 -1.1685 -0.8835v 0.5985c 0 0.7885 0.114 0.817 0.5985 0.8645c 0.057 0.057 0.057 0.2565 0 0.3135c -0.228 -0.0095 -0.57 -0.019 -0.95 -0.019c -0.3705 0 -0.722 0.0095 -0.9405 0.019c -0.057 -0.057 -0.057 -0.2565 0 -0.3135c 0.4845 -0.038 0.5985 -0.076 0.5985 -0.8645v -0.5985c -0.6745 0 -0.9595 0.361 -1.1685 0.8835c -0.1805 0.4465 -0.437 0.9595 -0.988 0.9595c -0.3135 0 -0.5415 -0.2185 -0.5415 -0.4275c 0 -0.19 0.171 -0.3705 0.38 -0.3705c 0.1235 0 0.228 0.0285 0.285 0.0665c 0.057 0.038 0.133 0.0665 0.2185 0.0665c 0.1995 0 0.3135 -0.1805 0.4275 -0.475c 0.1425 -0.38 0.304 -0.7125 0.6745 -0.817v -0.0285c -0.5415 0 -0.855 -0.228 -1.0925 -0.6745l -0.4275 -0.8075c -0.1615 -0.304 -0.2565 -0.38 -0.627 -0.399c -0.057 -0.057 -0.057 -0.2565 0 -0.3135c 0.19 0.0095 0.893 0.019 0.893 0.019Z "/></symbol><symbol id="gC2CBF98E7E07B945C6FA500EA68B32AD" overflow="visible"><path d="M 0 0m 1.1115 2.907l -0.057 -1.767c -0.0285 -0.798 -0.171 -0.817 -0.722 -0.8455c -0.057 -0.057 -0.057 -0.2565 0 -0.3135c 0.19 0.0095 0.665 0.019 0.817 0.019c 0.19 0 0.6365 -0.0095 0.8265 -0.019c 0.057 0.057 0.057 0.2565 0 0.3135c -0.5415 0.038 -0.5795 0.133 -0.5605 0.8455l 0.0665 2.3275c 0 0.0855 0.038 0.0855 0.076 0l 1.3775 -3.363c 0.038 -0.0285 0.076 -0.0285 0.1045 0l 1.558 3.3535c 0.0475 0.1045 0.095 0.114 0.095 0l -0.0095 -2.299c 0 -0.7885 -0.0665 -0.817 -0.646 -0.8645c -0.057 -0.057 -0.057 -0.2565 0 -0.3135c 0.342 0.0095 0.6935 0.019 1.026 0.019c 0.285 0 0.6935 -0.0095 1.064 -0.019c 0.057 0.057 0.057 0.2565 0 0.3135c -0.5795 0.038 -0.684 0.076 -0.684 0.8645l -0.019 1.7575c -0.0095 0.7885 0.1045 0.817 0.684 0.8645c 0.057 0.057 0.057 0.2565 0 0.3135c -0.3325 -0.019 -1.254 -0.019 -1.5675 -0.019l -1.2635 -2.717l -0.0475 -0.095l -0.038 0.095l -1.1115 2.717c -0.3135 0 -1.3205 0 -1.653 0.019c -0.057 -0.057 -0.057 -0.2565 0 -0.3135c 0.5795 -0.0475 0.7125 -0.0855 0.684 -0.874Z "/></symbol><symbol id="gB6AAA1806BBDF9447016B698172F9CC4" overflow="visible"><path d="M 0 0m 5.2725 6.4885h -3.04c -0.2185 0 -0.323 -0.0095 -0.323 -0.2185c 0 -0.1045 0.1045 -0.152 0.3135 -0.152c 0.19 0 0.57 0.0285 0.57 -0.1235c 0 -0.019 -0.0095 -0.076 -0.038 -0.171l -1.254 -5.0445c -0.057 -0.209 -0.152 -0.3325 -0.285 -0.38c -0.0665 -0.019 -0.2375 -0.0285 -0.532 -0.0285c -0.209 0 -0.304 -0.019 -0.304 -0.2185c 0 -0.1045 0.057 -0.152 0.1805 -0.152l 1.1875 0.0285l 0.608 -0.0095c 0.1045 0 0.4845 -0.019 0.608 -0.019c 0.152 0 0.228 0.076 0.228 0.228c 0 0.095 -0.1045 0.1425 -0.304 0.1425c -0.38 0 -0.57 0.038 -0.57 0.1235c 0 0 0.0095 0.0285 0.0285 0.152l 0.57 2.318h 1.5675c 0.6175 0 1.2065 0.19 1.7575 0.5605c 0.6175 0.4085 0.9215 0.912 0.9215 1.5105c 0 0.9405 -0.893 1.4535 -1.8905 1.4535Z m -0.2945 -0.3705c 0.8265 0 1.235 -0.285 1.235 -0.855c 0 -0.532 -0.266 -1.2445 -0.5415 -1.4915c -0.361 -0.323 -0.836 -0.4845 -1.425 -0.4845h -1.273l 0.627 2.508c 0.076 0.323 0.076 0.323 0.475 0.323Z "/></symbol><symbol id="gC110FFC20529D78AB6B9724BF2D3193A" overflow="visible"><path d="M 0 0m 0.3895 1.9475c 0 -0.969 0.646 -2.0425 1.995 -2.0425c 0.608 0 1.0735 0.2185 1.3965 0.532c 0.4275 0.418 0.6175 1.0165 0.6175 1.596c 0 0.988 -0.5415 2.1375 -1.995 2.1375c -0.627 0 -1.14 -0.2565 -1.4915 -0.665c -0.342 -0.4085 -0.5225 -0.9595 -0.5225 -1.558Z m 1.8715 1.8905c 0.817 0 1.3205 -0.741 1.3205 -2.109c 0 -1.197 -0.6175 -1.4915 -1.064 -1.4915c -0.988 0 -1.311 1.197 -1.311 1.9285c 0 0.8265 0.1995 1.672 1.0545 1.672Z "/></symbol><symbol id="gF1C320A4506B818F6BCB8CDA11A2DE6" overflow="visible"><path d="M 0 0m 1.729 1.159c 0 -0.7885 -0.1045 -0.836 -0.684 -0.8645c -0.057 -0.057 -0.057 -0.2565 0 -0.3135c 0.3705 0.0095 0.7505 0.019 1.064 0.019c 0.323 0 0.6935 -0.0095 1.0545 -0.019c 0.057 0.057 0.057 0.2565 0 0.3135c -0.5795 0.0285 -0.684 0.076 -0.684 0.8645v 2.565h 0.1615c 0.7695 0 0.9215 -0.266 1.083 -1.0355c 0.1235 0 0.247 0.038 0.247 0.038c -0.057 0.437 -0.095 0.855 -0.1045 1.406c -0.2185 -0.019 -0.931 -0.057 -1.406 -0.057h -0.7125c -0.475 0 -1.007 0.0285 -1.387 0.057c -0.0095 -0.551 -0.0475 -0.969 -0.114 -1.406c 0 0 0.133 -0.038 0.2565 -0.038c 0.1615 0.7695 0.304 1.0355 1.083 1.0355h 0.1425Z "/></symbol><symbol id="gDBB5E8F5FC9EB2F5349B9D49D6966C24" overflow="visible"><path d="M 0 0m 3.667 0c 0 0 0.741 -0.0095 0.931 -0.019c 0.057 0.057 0.057 0.2565 0 0.3135c -0.3705 0.019 -0.4465 0.095 -0.608 0.399l -0.4275 0.8075c -0.2375 0.4465 -0.57 0.6745 -1.1115 0.6745v 0.0285c 0.3705 0.1045 0.532 0.437 0.6745 0.817c 0.114 0.2945 0.228 0.475 0.4275 0.475c 0.0855 0 0.1615 -0.0285 0.2185 -0.0665c 0.057 -0.038 0.1615 -0.0665 0.285 -0.0665c 0.209 0 0.38 0.1805 0.38 0.3705c 0 0.209 -0.228 0.4275 -0.5415 0.4275c -0.551 0 -0.8075 -0.513 -0.988 -0.9595c -0.209 -0.5225 -0.4655 -0.8835 -1.14 -0.8835v 0.5985c 0 0.7885 0.1045 0.817 0.589 0.8645c 0.057 0.057 0.057 0.2565 0 0.3135c -0.228 -0.0095 -0.589 -0.019 -0.969 -0.019c -0.4085 0 -0.741 0.0095 -1.0545 0.019c -0.057 -0.057 -0.057 -0.2565 0 -0.3135c 0.5795 -0.038 0.684 -0.076 0.684 -0.8645v -1.7575c 0 -0.7885 -0.1045 -0.817 -0.684 -0.8645c -0.057 -0.057 -0.057 -0.2565 0 -0.3135c 0.3135 0.0095 0.646 0.019 1.064 0.019c 0.3705 0 0.7505 -0.0095 0.9595 -0.019c 0.057 0.057 0.057 0.2565 0 0.3135c -0.4845 0.038 -0.589 0.076 -0.589 0.8645v 0.8265c 0.646 -0.038 0.817 -0.2945 0.988 -0.646l 0.4085 -0.855c 0.1235 -0.2565 0.3135 -0.475 0.5035 -0.4845Z "/></symbol><symbol id="gC86282117E7C9F65658F6DDAC49FC51A" overflow="visible"><path d="M 0 0m 3.971 1.159v 1.7575c 0 0.779 0.1235 0.8265 0.646 0.8645c 0.057 0.057 0.057 0.2565 0 0.3135c -0.285 -0.0095 -0.646 -0.019 -1.026 -0.019h -1.7955c -0.3135 0 -0.684 0.0095 -0.969 0.019c -0.057 -0.057 -0.057 -0.2565 0 -0.3135c 0.6745 -0.0475 0.7695 -0.1045 0.7695 -1.1305c 0 -0.9975 -0.076 -1.52 -0.209 -1.9095c -0.1235 -0.342 -0.285 -0.4655 -0.4465 -0.4655c -0.1235 0 -0.1615 0.076 -0.1805 0.1995c -0.0285 0.1805 -0.0855 0.361 -0.3515 0.361c -0.2375 0 -0.3705 -0.19 -0.3705 -0.399c 0 -0.2945 0.266 -0.551 0.703 -0.551c 0.4845 0 0.7505 0.247 0.969 0.76c 0.19 0.456 0.247 1.425 0.247 2.071c 0 0.741 0.0285 0.988 0.4085 0.988h 0.4275c 0.361 0 0.4275 -0.228 0.4275 -0.551v -1.995c 0 -0.779 -0.095 -0.8265 -0.589 -0.8645c -0.0475 -0.057 -0.0475 -0.2565 0 -0.3135c 0.2375 0.0095 0.589 0.019 0.969 0.019c 0.38 0 0.8075 -0.0095 1.0735 -0.019c 0.0475 0.057 0.0475 0.2565 0 0.3135c -0.6175 0.038 -0.703 0.0855 -0.703 0.8645Z "/></symbol><symbol id="g111F480562FE960BC5F50C637F145B12" overflow="visible"><path d="M 0 0m 4.5505 2.9165c 0 0.7885 0.1045 0.817 0.684 0.8645c 0.057 0.057 0.057 0.2565 0 0.3135c -0.3325 -0.019 -0.7505 -0.019 -1.064 -0.019c -0.266 0 -0.646 0.0095 -1.0165 0.019c -0.057 -0.057 -0.057 -0.2565 0 -0.3135c 0.5795 -0.038 0.646 -0.076 0.646 -0.8645v -0.6175h -2.033v 0.6175c 0 0.7885 0.0665 0.817 0.646 0.8645c 0.057 0.057 0.057 0.2565 0 0.3135c -0.361 -0.0095 -0.722 -0.019 -1.026 -0.019c -0.285 0 -0.6745 0.0095 -1.0545 0.019c -0.057 -0.057 -0.057 -0.2565 0 -0.3135c 0.5795 -0.038 0.684 -0.076 0.684 -0.8645v -1.7575c 0 -0.7885 -0.1045 -0.817 -0.684 -0.8645c -0.057 -0.057 -0.057 -0.2565 0 -0.3135c 0.38 0.0095 0.76 0.019 1.064 0.019c 0.304 0 0.6745 -0.0095 1.0165 -0.019c 0.057 0.057 0.057 0.2565 0 0.3135c -0.5795 0.038 -0.646 0.076 -0.646 0.8645v 0.8265h 2.033v -0.8265c 0 -0.7885 -0.0665 -0.817 -0.646 -0.8645c -0.057 -0.057 -0.057 -0.2565 0 -0.3135c 0.342 0.0095 0.6935 0.019 1.026 0.019c 0.285 0 0.684 -0.0095 1.0545 -0.019c 0.057 0.057 0.057 0.2565 0 0.3135c -0.5795 0.038 -0.684 0.076 -0.684 0.8645Z "/></symbol><symbol id="gDB3041A08DFB71461CA9A9E16087AB39" overflow="visible"><path d="M 0 0m 3.667 0.8835c -0.3515 -0.361 -0.627 -0.513 -1.178 -0.513c -0.342 0 -0.741 0.1995 -1.0355 0.684c -0.19 0.3135 -0.304 0.7505 -0.304 1.3015l 2.527 -0.019c 0.114 0 0.1805 0.057 0.1805 0.1615c 0 0.798 -0.285 1.653 -1.6055 1.653c -0.8265 0 -1.9 -0.7885 -1.9 -2.2325c 0 -0.532 0.133 -1.045 0.4465 -1.406c 0.323 -0.38 0.7695 -0.608 1.4535 -0.608c 0.722 0 1.235 0.3325 1.615 0.8265c -0.0285 0.095 -0.0855 0.1425 -0.1995 0.152Z m -2.489 1.7955c 0.1805 1.0735 0.8455 1.159 1.0735 1.159c 0.361 0 0.7885 -0.1995 0.7885 -0.9975c 0 -0.0855 -0.038 -0.133 -0.1425 -0.133Z m -0.2375 2.7835c 0 -0.247 0.1995 -0.4465 0.4465 -0.4465c 0.247 0 0.4465 0.1995 0.4465 0.4465c 0 0.247 -0.1995 0.456 -0.4465 0.456c -0.247 0 -0.4465 -0.209 -0.4465 -0.456Z m 1.6055 0c 0 -0.247 0.1995 -0.4465 0.4465 -0.4465c 0.247 0 0.4465 0.1995 0.4465 0.4465c 0 0.247 -0.1995 0.456 -0.4465 0.456c -0.247 0 -0.4465 -0.209 -0.4465 -0.456Z "/></symbol><symbol id="g30F02AEBABA7D40FC17FCA43D8EB3DAA" overflow="visible"><path d="M 0 0m 2.7835 0.456c 0.057 -0.2945 0.1615 -0.551 0.6365 -0.551c 0.361 0 0.703 0.1615 0.9025 0.3515c -0.019 0.114 -0.057 0.1995 -0.1615 0.2565c -0.0665 -0.057 -0.228 -0.152 -0.3515 -0.152c -0.2755 0 -0.285 0.3705 -0.285 0.8075v 1.3965c 0 1.349 -0.741 1.6055 -1.4345 1.6055c -0.779 0 -1.5675 -0.513 -1.5675 -1.0545c 0 -0.228 0.114 -0.342 0.3325 -0.342c 0.2755 0 0.4465 0.1995 0.4465 0.323c 0 0.0665 -0.0095 0.133 -0.0285 0.171c -0.0095 0.0285 -0.019 0.0855 -0.019 0.19c 0 0.2945 0.399 0.399 0.76 0.399c 0.323 0 0.7695 -0.1615 0.7695 -1.235c 0 -0.0665 -0.0285 -0.1045 -0.057 -0.114l -0.817 -0.1995c -0.912 -0.228 -1.5675 -0.7315 -1.5675 -1.3775c 0 -0.779 0.532 -1.026 1.197 -1.026c 0.3325 0 0.6175 0.076 1.0355 0.399l 0.19 0.152Z m 0 1.7575v -1.254c 0 -0.1235 -0.057 -0.19 -0.133 -0.247c -0.247 -0.1995 -0.57 -0.418 -0.836 -0.418c -0.475 0 -0.684 0.38 -0.684 0.6745c 0 0.4275 0.1995 0.8645 0.9025 1.045Z "/></symbol><symbol id="g7CE7952E1DB27C3B67FBBB132F3F5D69" overflow="visible"><path d="M 0 0m 8.208 6.4885c -0.1805 0 -0.7695 -0.0285 -0.95 -0.0285c -0.1805 0 -0.779 0.0285 -0.9595 0.0285c -0.1425 0 -0.209 -0.076 -0.209 -0.228c 0 -0.0855 0.0665 -0.133 0.209 -0.1425c 0.399 0 0.5985 -0.1235 0.5985 -0.3705c 0 -0.057 -0.0095 -0.1235 -0.019 -0.19l -1.026 -4.066l -2.0425 4.7975c -0.076 0.1805 -0.095 0.1995 -0.3325 0.1995h -1.2635c -0.228 0 -0.3135 -0.019 -0.3135 -0.228c 0 -0.095 0.1045 -0.1425 0.304 -0.1425c 0.399 0 0.5985 -0.0095 0.608 -0.038l -1.2635 -5.035c -0.0855 -0.3705 -0.304 -0.5795 -0.646 -0.646c -0.247 -0.0285 -0.532 0.0095 -0.532 -0.2565c 0 -0.095 0.057 -0.1425 0.1615 -0.1425c 0.171 0 0.76 0.0285 0.9405 0.0285c 0.1805 0 0.7885 -0.0285 0.969 -0.0285c 0.1425 0 0.209 0.076 0.209 0.228c 0 0.0855 -0.076 0.133 -0.228 0.1425c -0.3895 0.0095 -0.5795 0.133 -0.5795 0.3705c 0 0.0475 0.0095 0.114 0.0285 0.209l 1.2255 4.8545l 2.375 -5.605c 0.057 -0.133 0.133 -0.1995 0.2185 -0.1995c 0.0855 0 0.1425 0.076 0.1805 0.228l 1.3205 5.225c 0.1235 0.4845 0.3895 0.6555 0.9785 0.665c 0.133 0.0095 0.1995 0.0855 0.1995 0.2375c -0.0285 0.0855 -0.038 0.133 -0.1615 0.133Z "/></symbol><symbol id="g232BBEC87024F1F7B262DF80387D96F9" overflow="visible"><path d="M 0 0m 1.558 -0.1045c 0.4275 0 0.874 0.2565 1.311 0.7695c 0.76 0.8835 1.4535 2.5175 1.4535 4.066c 0 0.3895 -0.0665 0.798 -0.1995 1.2065c -0.171 0.5035 -0.494 0.76 -0.9595 0.76c -0.4275 0 -0.855 -0.2565 -1.3015 -0.7695c -0.76 -0.874 -1.463 -2.508 -1.463 -4.066c 0 -0.969 0.3135 -1.9665 1.159 -1.9665Z m 1.596 6.517c 0.3135 0 0.475 -0.361 0.475 -1.0925c 0 -0.4085 -0.095 -1.026 -0.285 -1.8335h -1.8715c 0.2375 0.8835 0.4655 1.539 0.703 1.9665c 0.3515 0.6365 0.684 0.9595 0.9785 0.9595Z m -1.7765 -3.306h 1.862c -0.1805 -0.7695 -0.399 -1.387 -0.6365 -1.8525c -0.3705 -0.7125 -0.7125 -1.0735 -1.045 -1.0735c -0.3135 0 -0.4655 0.3705 -0.4655 1.102c 0 0.475 0.095 1.083 0.285 1.824Z "/></symbol><symbol id="g82BD908AFC52B956D9AEE2C2B078180C" overflow="visible"><path d="M 0 0m 1.1685 0.9025c -0.2945 0 -0.5035 -0.1995 -0.5035 -0.4655c 0 -0.2945 0.247 -0.3895 0.418 -0.418c 0.1805 -0.019 0.342 -0.076 0.342 -0.2945c 0 -0.1995 -0.342 -0.6365 -0.836 -0.76c 0 -0.095 0.019 -0.1615 0.0855 -0.228c 0.57 0.1045 1.121 0.5605 1.121 1.2255c 0 0.57 -0.247 0.9405 -0.627 0.9405Z m -0.5035 2.47c 0 -0.2755 0.228 -0.5035 0.5035 -0.5035c 0.2755 0 0.5035 0.228 0.5035 0.5035c 0 0.2755 -0.228 0.5035 -0.5035 0.5035c -0.2755 0 -0.5035 -0.228 -0.5035 -0.5035Z "/></symbol><symbol id="gAA8AB18CCAA349E5F53075D4DA0E8F35" overflow="visible"><path d="M 0 0m 3.154 1.197v 0.57h -0.304v -0.551c 0 -0.475 -0.171 -1.007 -0.589 -1.007c -0.3895 0 -0.5795 0.323 -0.5795 0.969v 2.5745h 1.3205v 0.361h -1.3205v 1.729h -0.304c -0.0095 -0.3135 -0.038 -0.589 -0.1045 -0.836c -0.1615 -0.627 -0.532 -0.95 -1.0925 -0.9785v -0.2755h 0.7885v -2.5555c 0 -0.5605 0.171 -0.9215 0.5035 -1.102c 0.2565 -0.133 0.494 -0.1995 0.7315 -0.1995c 0.627 0 0.95 0.627 0.95 1.3015Z "/></symbol><symbol id="g164E5D328807BC2BE2A559BF3D5CCE7C" overflow="visible"><path d="M 0 0m 4.5885 0.8645v 0.5605h -0.304v -0.5605c 0 -0.3705 -0.1045 -0.5605 -0.304 -0.5605c -0.19 0 -0.304 0.2375 -0.304 0.4275v 1.8715c 0 0.3325 -0.038 0.5795 -0.1045 0.7505c -0.228 0.5605 -0.8835 0.9025 -1.5485 0.9025c -0.7315 0 -1.4535 -0.4085 -1.4535 -1.0925c 0 -0.3135 0.1615 -0.475 0.475 -0.475c 0.3135 0 0.4655 0.152 0.4655 0.4655c 0 0.2755 -0.1425 0.437 -0.437 0.4655c 0.209 0.2375 0.5225 0.361 0.931 0.361c 0.589 0 0.95 -0.5415 0.95 -1.159v -0.3135c -0.741 -0.0475 -1.3015 -0.1615 -1.691 -0.342c -0.6365 -0.2945 -0.9595 -0.703 -0.9595 -1.2445c 0 -0.247 0.095 -0.456 0.2755 -0.6175c 0.304 -0.2755 0.722 -0.4085 1.254 -0.4085c 0.5605 0 0.9595 0.2375 1.2065 0.722c 0.0665 -0.361 0.3325 -0.6745 0.741 -0.6745c 0.5035 0 0.8075 0.399 0.8075 0.9215Z m -2.6885 -0.6935c -0.437 0 -0.798 0.323 -0.798 0.76c 0 0.8835 0.9215 1.2635 1.8525 1.311v -0.9025c 0 -0.6365 -0.418 -1.1685 -1.0545 -1.1685Z "/></symbol><symbol id="g22F6F1E7BD78974BD412E2736D59A338" overflow="visible"><path d="M 0 0m 2.983 3.9235c 0.4275 0 0.646 -0.3325 0.646 -1.007v -2.166c 0 -0.1805 -0.0285 -0.2945 -0.095 -0.3325c -0.0665 -0.038 -0.2755 -0.057 -0.627 -0.057v -0.361l 1.0925 0.0285l 1.083 -0.0285v 0.361c -0.304 0 -0.5035 0.0095 -0.5985 0.038c -0.095 0.0285 -0.133 0.095 -0.133 0.209v 1.7765c 0 0.4465 -0.0095 0.76 -0.038 0.9405c -0.095 0.5795 -0.5225 0.874 -1.273 0.874c -0.5985 0 -1.045 -0.285 -1.3395 -0.855v 0.855l -1.3965 -0.1045v -0.361c 0.342 0 0.551 -0.0285 0.627 -0.0855c 0.076 -0.057 0.1045 -0.1805 0.1045 -0.399v -2.4985c 0 -0.1805 -0.038 -0.2945 -0.1045 -0.3325c -0.0665 -0.038 -0.2755 -0.057 -0.627 -0.057v -0.361l 1.0925 0.0285l 1.083 -0.0285v 0.361c -0.3515 0 -0.551 0.019 -0.6175 0.057c -0.0665 0.038 -0.1045 0.152 -0.1045 0.3325v 1.71c 0 0.7695 0.4845 1.463 1.2255 1.463Z "/></symbol><symbol id="gC14A3C90D9E5CC1342351858FEB46818" overflow="visible"><path d="M 0 0m 6.327 -0.4275c 0.1615 -0.0665 0.3325 0.057 0.3325 0.209c 0 0.095 -0.0475 0.1615 -0.133 0.1995l -5.073 2.394l 5.073 2.394c 0.0855 0.038 0.133 0.1045 0.133 0.19c 0 0.1615 -0.076 0.2375 -0.228 0.2375c -0.038 0 -0.076 -0.0095 -0.1045 -0.019l -5.453 -2.584c -0.095 -0.0475 -0.1425 -0.114 -0.1425 -0.2185c 0 -0.1045 0.0475 -0.171 0.1425 -0.2185Z "/></symbol><symbol id="g8A238E7650526ABC03034A4AF023834E" overflow="visible"><path d="M 0 0m 5.434 1.349c 0 0.0855 -0.0475 0.133 -0.152 0.133c -0.076 0 -0.133 -0.0665 -0.1615 -0.19c -0.19 -0.76 -0.418 -1.14 -0.6745 -1.14c -0.1615 0 -0.247 0.133 -0.247 0.399c 0 0.1615 0.057 0.4845 0.1805 0.9595l 0.266 1.0165c 0.0855 0.342 0.1615 0.5795 0.2185 0.874l 0.057 0.266c 0.019 0.0665 0.0285 0.114 0.0285 0.133c 0 0.1995 -0.1045 0.2945 -0.3135 0.2945c -0.209 0 -0.342 -0.114 -0.399 -0.3515l -0.684 -2.717c 0 -0.1045 -0.152 -0.2945 -0.456 -0.5795c -0.209 -0.1995 -0.4465 -0.2945 -0.722 -0.2945c -0.437 0 -0.6555 0.2565 -0.6555 0.779c 0 0.1805 0.038 0.437 0.1235 0.7885l 0.399 1.577c 0.076 0.2945 0.1235 0.5035 0.1425 0.608c 0 0.1995 -0.1045 0.2945 -0.3135 0.2945c -0.209 0 -0.342 -0.1235 -0.4085 -0.3705l -1.349 -5.434c -0.019 -0.076 -0.0285 -0.1235 -0.0285 -0.152c 0 -0.1995 0.1045 -0.2945 0.304 -0.2945c 0.1425 0 0.2565 0.076 0.361 0.2185c 0.0285 0.0665 0.19 0.722 0.5035 1.9665c 0.228 -0.171 0.5225 -0.2565 0.8835 -0.2565c 0.5605 0 0.931 0.2945 1.2255 0.6365c 0.1045 -0.3515 0.418 -0.6365 0.8645 -0.6365c 0.6555 0 0.855 0.7695 1.007 1.4725Z "/></symbol><symbol id="g65F4F47574D714441D8E0AFC865670A1" overflow="visible"><path d="M 0 0m 0.418 2.394c 0 -0.4275 0.038 -2.622 2.014 -4.332c 0.095 0.019 0.171 0.0855 0.1995 0.1615c -0.3135 0.361 -1.425 1.672 -1.425 4.1705c 0 2.4985 1.121 3.8095 1.425 4.1515c -0.0285 0.095 -0.095 0.1615 -0.1995 0.171c -1.1305 -0.969 -2.014 -2.5555 -2.014 -4.3225Z "/></symbol><symbol id="g7B9CB793ADEA3E3D4A6889197B9DC4D9" overflow="visible"><path d="M 0 0m 2.2515 6.327c -0.4845 0 -0.893 -0.171 -1.2445 -0.513c -0.3515 -0.342 -0.532 -0.741 -0.532 -1.2255c 0 -0.323 0.2375 -0.5605 0.532 -0.5605c 0.285 0 0.5225 0.247 0.5225 0.532c 0 0.3135 -0.228 0.532 -0.532 0.532c -0.0285 0 -0.0475 0 -0.0665 -0.0095c 0.1805 0.4655 0.5985 0.874 1.197 0.874c 0.779 0 1.216 -0.6745 1.216 -1.4915c 0 -0.6365 -0.323 -1.3205 -0.969 -2.0425l -1.786 -2.014c -0.1235 -0.1425 -0.114 -0.133 -0.114 -0.4085h 3.5245l 0.2755 1.71h -0.3135c -0.076 -0.4845 -0.1425 -0.76 -0.1995 -0.8455c -0.0475 -0.0475 -0.3325 -0.0665 -0.855 -0.0665h -1.5865l 0.9215 0.9025c 0.646 0.608 1.463 1.2635 1.7385 1.767c 0.19 0.3325 0.285 0.665 0.285 0.9975c 0 1.121 -0.874 1.862 -2.014 1.862Z "/></symbol><symbol id="g991DA3E9E3BF4DA2340DCFBF9121950C" overflow="visible"><path d="M 0 0m 3.097 5.168c 0 0.7315 -0.5795 1.3205 -1.311 1.3205c -0.7315 0 -1.3205 -0.589 -1.3205 -1.3205c 0 -0.7315 0.589 -1.311 1.3205 -1.311c 0.7125 0 1.311 0.5985 1.311 1.311Z m -0.4465 0c 0 -0.475 -0.3895 -0.8645 -0.8645 -0.8645c -0.4845 0 -0.874 0.38 -0.874 0.8645c 0 0.494 0.38 0.874 0.874 0.874c 0.4845 0 0.8645 -0.3895 0.8645 -0.874Z "/></symbol><symbol id="g5A6CE4BF34A963031FEFE1D1F48FA683" overflow="visible"><path d="M 0 0m 2.413 2.394c 0 0.4275 -0.038 2.622 -2.014 4.332c -0.095 -0.019 -0.171 -0.0855 -0.1995 -0.1615c 0.3135 -0.361 1.425 -1.672 1.425 -4.1705c 0 -2.4985 -1.121 -3.8095 -1.425 -4.1515c 0.0285 -0.095 0.095 -0.1615 0.1995 -0.171c 1.1305 0.969 2.014 2.5555 2.014 4.3225Z "/></symbol><symbol id="g7487BF628DA7AF2684C887EDF73D0D86" overflow="visible"><path d="M 0 0m 0.4655 2.261h 5.928c 0.1235 0 0.247 0.19 0.247 0.304c 0 0.0855 -0.0285 0.1615 -0.133 0.1615h -5.928c -0.114 0 -0.247 -0.19 -0.247 -0.304c 0 -0.076 0.0285 -0.1615 0.133 -0.1615Z "/></symbol><symbol id="gA3A5C9019285A4C81365474C03E3CF4E" overflow="visible"><path d="M 0 0m 3.667 0.8835c -0.3515 -0.361 -0.627 -0.513 -1.178 -0.513c -0.342 0 -0.741 0.1995 -1.0355 0.684c -0.19 0.3135 -0.304 0.7505 -0.304 1.3015l 2.527 -0.019c 0.114 0 0.1805 0.057 0.1805 0.1615c 0 0.798 -0.285 1.653 -1.6055 1.653c -0.8265 0 -1.9 -0.7885 -1.9 -2.2325c 0 -0.532 0.133 -1.045 0.4465 -1.406c 0.323 -0.38 0.7695 -0.608 1.4535 -0.608c 0.722 0 1.235 0.3325 1.615 0.8265c -0.0285 0.095 -0.0855 0.1425 -0.1995 0.152Z m -2.489 1.7955c 0.1805 1.0735 0.8455 1.159 1.0735 1.159c 0.361 0 0.7885 -0.1995 0.7885 -0.9975c 0 -0.0855 -0.038 -0.133 -0.1425 -0.133Z "/></symbol><symbol id="g5AAEF493CBDA45024F82AC9E8378049F" overflow="visible"><path d="M 0 0m 1.083 0c 0.266 0.0095 0.361 0.2565 0.475 0.5985c 0.247 0.7505 0.5225 1.216 0.9975 1.216h 0.247v -0.6555c 0 -0.7885 -0.1045 -0.817 -0.684 -0.8645c -0.057 -0.057 -0.057 -0.2565 0 -0.3135c 0.3135 0.0095 0.646 0.019 1.064 0.019c 0.4085 0 0.7505 -0.0095 1.0545 -0.019c 0.057 0.057 0.057 0.2565 0 0.3135c -0.5795 0.038 -0.684 0.076 -0.684 0.8645v 1.7575c 0 0.7885 0.1045 0.817 0.684 0.8645c 0.057 0.057 0.057 0.2565 0 0.3135c -0.323 -0.0095 -0.646 -0.019 -1.064 -0.019c -0.323 0 -0.5985 0.019 -0.836 0.019c -1.6625 0 -1.805 -0.684 -1.805 -1.197c 0 -0.6175 0.475 -0.931 1.178 -0.9595c 0.0285 0 0.0285 -0.0285 0.019 -0.038c -0.361 -0.1045 -0.5225 -0.304 -0.684 -0.6555c -0.1045 -0.2185 -0.19 -0.4275 -0.2375 -0.551c -0.1235 -0.323 -0.285 -0.38 -0.6555 -0.399c -0.057 -0.057 -0.057 -0.2565 0 -0.3135c 0.19 0.0095 0.931 0.019 0.931 0.019Z m 0.266 3.0495c 0 0.4465 0.1425 0.7315 0.912 0.7315c 0.3895 0 0.5415 -0.171 0.5415 -0.532v -1.1115h -0.665c -0.57 0 -0.7885 0.437 -0.7885 0.912Z "/></symbol><symbol id="g5A2E3E8C6E57858B2C4B02FBB21BEB4E" overflow="visible"><path d="M 0 0m 1.729 3.401c -0.2185 0.323 -0.152 0.3325 0.2755 0.38c 0.057 0.057 0.057 0.2565 0 0.3135c -0.2565 -0.0095 -0.6745 -0.019 -0.9595 -0.019c -0.285 0 -0.57 0.0095 -0.817 0.019c -0.057 -0.057 -0.057 -0.2565 0 -0.3135c 0.323 -0.0285 0.589 -0.19 0.855 -0.5795l 0.8265 -1.2065c 0.0475 -0.0665 0.0475 -0.095 0.0095 -0.1425l -0.798 -1.026c -0.38 -0.4845 -0.589 -0.513 -0.9215 -0.532c -0.057 -0.057 -0.057 -0.2565 0 -0.3135c 0.19 0.0095 0.399 0.019 0.684 0.019c 0.285 0 0.551 -0.0095 0.798 -0.019c 0.057 0.057 0.057 0.2565 0 0.3135c -0.342 0.038 -0.418 0.076 -0.209 0.38l 0.5985 0.8645c 0.076 0.114 0.114 0.1045 0.171 0.019l 0.551 -0.76c 0.3325 -0.456 0.1805 -0.475 -0.1235 -0.5035c -0.057 -0.057 -0.057 -0.2565 0 -0.3135c 0.285 0.0095 0.5985 0.019 0.9405 0.019c 0.361 0 0.6175 -0.0095 0.8455 -0.019c 0.057 0.057 0.057 0.2565 0 0.3135c -0.4275 0.0285 -0.57 0.057 -0.95 0.5985l -0.855 1.2065c -0.038 0.057 -0.0475 0.0855 0 0.1425l 0.798 1.0165c 0.3515 0.4465 0.5795 0.494 0.9215 0.5225c 0.057 0.057 0.057 0.2565 0 0.3135c -0.19 -0.0095 -0.4085 -0.019 -0.6935 -0.019c -0.285 0 -0.551 0.0095 -0.798 0.019c -0.057 -0.057 -0.057 -0.2565 0 -0.3135c 0.3515 -0.038 0.456 -0.0665 0.228 -0.3895l -0.6175 -0.8645c -0.0665 -0.095 -0.1045 -0.0855 -0.1805 0.019Z "/></symbol><symbol id="gD243A48DAC45EEC7C88A2988B14DD756" overflow="visible"><path d="M 0 0m 1.387 4.0755c -0.4085 0 -0.741 0.0095 -1.0545 0.019c -0.057 -0.057 -0.057 -0.2565 0 -0.3135c 0.5795 -0.038 0.684 -0.076 0.684 -0.8645v -1.7575c 0 -0.7885 -0.1045 -0.817 -0.684 -0.8645c -0.057 -0.057 -0.057 -0.2565 0 -0.3135c 0.3135 0.0095 0.646 0.019 1.064 0.019c 0.3515 0 0.665 -0.019 1.3015 -0.019c 0.817 0 1.4345 0.228 1.4345 1.1685c 0 0.532 -0.3325 0.9025 -0.912 1.007v 0.0285c 0.437 0.0855 0.7695 0.3895 0.7695 0.9595c 0 0.665 -0.4085 0.95 -1.558 0.95c -0.3895 0 -0.6365 -0.019 -1.045 -0.019Z m 0.38 -2.014h 0.722c 0.5795 0 0.8265 -0.38 0.8265 -0.95c 0 -0.6365 -0.361 -0.817 -0.874 -0.817c -0.494 0 -0.6745 0.0855 -0.6745 0.5225Z m 0 0.2755v 1.102c 0 0.285 0.2185 0.342 0.6745 0.342c 0.494 0 0.7885 -0.133 0.7885 -0.703c 0 -0.38 -0.247 -0.741 -0.836 -0.741Z "/></symbol></defs></svg>