<svg viewBox="0 0 254.11023622 115.212598425" width="254.11023622pt" height="115.212598425pt" xmlns="http://www.w3.org/2000/svg" xmlns:xlink="http://www.w3.org/1999/xlink" xmlns:h5="http://www.w3.org/1999/xhtml"><path fill="#ffffff" fill-rule="nonzero" d="M 0 0v 115.212598425h 254.11023622v -115.212598425Z "/><g transform="translate(8 8)"><path fill="none" stroke="#1a1a18" stroke-width="0.8" stroke-linecap="butt" stroke-linejoin="miter" stroke-miterlimit="4" transform="translate(0 53.858267717)" d="M 0 0h 85.039370079"/><path fill="none" stroke="#1a1a18" stroke-width="1" stroke-linecap="butt" stroke-linejoin="miter" stroke-miterlimit="4" transform="translate(0 48.763337891)" d="M 0 0m 0 5.094929825l 2.834645669 -2.881010415l 2.834645669 -1.87459059l 2.834645669 -0.213322339l 2.834645669 1.522465542l 2.834645669 2.726412408l 2.834645669 2.97794498l 2.834645669 2.189195695l 2.834645669 0.63569737l 2.834645669 -1.139868335l 2.834645669 -2.517245237l 2.834645669 -3.015275956l 2.834645669 -2.459984033l 2.834645669 -1.045348914l 2.834645669 0.734456656l 2.834645669 2.257695386l 2.834645669 2.992256163l 2.834645669 2.681535774l 2.834645669 1.434077792l 2.834645669 -0.314344822l 2.834645669 -1.952957746l 2.834645669 -2.909346342l 2.834645669 -2.849416559l 2.834645669 -1.794103593l 2.834645669 -0.112058625l 2.834645669 1.609131644l 2.834645669 2.768205935l 2.834645669 2.960266251l 2.834645669 2.118220398l 2.834645669 0.536219219l 2.834645669 -1.233098761"/><path fill="none" transform="translate(7.268768373 30.050498031)" d="M 0 0h 70.501833333v 7.9305h -70.501833333v -7.9305Z "/><g transform="translate(7.268768362 30.050497984)"><g transform="matrix(1 0 0 -1 0 5.8055)"><use xlink:href="#gBAF1B227155053221F22F6E06EEFED60" x="0" y="0" fill="#1a1a18" fill-rule="nonzero"/><use xlink:href="#gF931FC691828778A920607CF18B9C32A" x="4.573" y="0" fill="#1a1a18" fill-rule="nonzero"/><use xlink:href="#gC8932C6BA7F518DC74E87E2F4A0224EB" x="8.4575" y="0" fill="#1a1a18" fill-rule="nonzero"/><use xlink:href="#gC8932C6BA7F518DC74E87E2F4A0224EB" x="13.4385" y="0" fill="#1a1a18" fill-rule="nonzero"/><use xlink:href="#g263F4FD32CCD3C47111457350A4C543D" x="18.4195" y="0" fill="#1a1a18" fill-rule="nonzero"/><use xlink:href="#g5D2E58E4CDB4D7E6C81847885E22D756" x="24.5735" y="0" fill="#1a1a18" fill-rule="nonzero"/></g><g transform="matrix(1 0 0 -1 30.498 5.8055)"><use xlink:href="#g8BA20F8095748B379E9E495F1146FC17" x="0" y="0" fill="#1a1a18" fill-rule="nonzero"/></g><g transform="matrix(1 0 0 -1 39.429611111 5.8055)"><use xlink:href="#gF8E1CB6BA40572D31FCF6A5EFCFBAE7D" x="0" y="0" fill="#1a1a18" fill-rule="nonzero"/></g><g transform="matrix(1 0 0 -1 43.679611111 5.8055)"><use xlink:href="#g2CFCCBD92B84DA19091A9B4312B8AEF4" x="0" y="0" fill="#1a1a18" fill-rule="nonzero"/></g><g transform="matrix(1 0 0 -1 47.929611111 5.8055)"><use xlink:href="#gA69499C6FF6B8BEE1796438EF846EA54" x="0" y="0" fill="#1a1a18" fill-rule="nonzero"/></g><g transform="matrix(1 0 0 -1 55.390722222 5.8055)"><use xlink:href="#g7186995358F4CDEDF9956A9CB942507B" x="0" y="0" fill="#1a1a18" fill-rule="nonzero"/></g><g transform="matrix(1 0 0 -1 66.251833333 5.8055)"><use xlink:href="#g45E5B60DC5A61BB00289070D5B969DAC" x="0" y="0" fill="#1a1a18" fill-rule="nonzero"/></g></g><path fill="none" stroke="#1a1a18" stroke-width="0.6" stroke-linecap="butt" stroke-linejoin="miter" stroke-miterlimit="4" transform="translate(96.377952756 53.858267717)" d="M 0 0h 27.492056318"/><path fill="#1a1a18" fill-rule="nonzero" stroke="#1a1a18" stroke-width="0.6" stroke-linecap="butt" stroke-linejoin="miter" stroke-miterlimit="4" transform="translate(123.870008976 51.732283465)" d="M 0 0m 5.669291339 2.125984252l -5.669291339 2.125984252v -4.251968504l 5.669291339 2.125984252Z "/><path fill="none" transform="translate(97.745826772 40.369007874)" d="M 0 0h 31.28v 7.136h -31.28v -7.136Z "/><g transform="translate(97.745826756 40.369007764)"><g transform="matrix(1 0 0 -1 0 5.264)"><use xlink:href="#g5D01DA3AB390CB78D7E54204B7DC3F87" x="0" y="0" fill="#7c7f6a" fill-rule="nonzero"/><use xlink:href="#gDFD38EC9906BA626C5B7E69A103C103" x="4.032" y="0" fill="#7c7f6a" fill-rule="nonzero"/><use xlink:href="#g46DFAA35BC521B4F2378CE697B4B163E" x="7.944" y="0" fill="#7c7f6a" fill-rule="nonzero"/><use xlink:href="#gF79D9CC171E1ACC5162F855F1894F43E" x="12.096" y="0" fill="#7c7f6a" fill-rule="nonzero"/><use xlink:href="#gE09E60C0AC8E2E10ADA02C2F49261352" x="15.752" y="0" fill="#7c7f6a" fill-rule="nonzero"/><use xlink:href="#gDF0740817C60D01D4C0A2F901DD857A7" x="19.312" y="0" fill="#7c7f6a" fill-rule="nonzero"/><use xlink:href="#gE09E60C0AC8E2E10ADA02C2F49261352" x="24" y="0" fill="#7c7f6a" fill-rule="nonzero"/><use xlink:href="#gC175399424EF2D6961EAC52DB2845054" x="27.56" y="0" fill="#7c7f6a" fill-rule="nonzero"/></g></g><path fill="none" stroke="#1a1a18" stroke-width="0.8" stroke-linecap="butt" stroke-linejoin="miter" stroke-miterlimit="4" transform="translate(147.401574803)" d="M 0 0m 0 99.212598425v -99.212598425"/><path fill="none" stroke="#1a1a18" stroke-width="0.8" stroke-linecap="butt" stroke-linejoin="miter" stroke-miterlimit="4" transform="translate(147.401574803 53.858267717)" d="M 0 0h 90.708661417"/><path fill="none" stroke="#7c7f6a" stroke-width="1.2" stroke-linecap="butt" stroke-linejoin="miter" stroke-miterlimit="4" transform="translate(147.401574803 22.66555462)" d="M 0 0m 0 31.192713096l 2.834645669 -5.775170331l 2.834645669 -4.246499801l 2.834645669 -0.986413351l 2.834645669 2.981382083l 2.834645669 6.263756482l 2.834645669 7.574578351l 2.834645669 6.221666681l 2.834645669 2.425272858l 2.834645669 -2.667421924l 2.834645669 -7.309126175l 2.834645669 -9.735591102l 2.834645669 -8.816366308l 2.834645669 -4.539574338l 2.834645669 1.86605489l 2.834645669 8.255176101l 2.834645669 12.262921874l 2.834645669 12.156503997l 2.834645669 7.542592664l 2.834645669 -0.346331356l 2.834645669 -8.936843883l 2.834645669 -15.125376244l 2.834645669 -16.37037011l 2.834645669 -11.691425653l 2.834645669 -2.196108502l 2.834645669 9.110110052l 2.834645669 18.23587613l 2.834645669 21.576541018l 2.834645669 17.288075392l 2.834645669 6.154282642l 2.834645669 -8.426733307l 2.834645669 -21.424469394l 2.834645669 -27.864964431"/><path fill="none" transform="translate(168.353245626 0.354718504)" d="M 0 0h 54.474611111v 7.7945h -54.474611111v -7.7945Z "/><g transform="translate(168.353245559 0.354718488)"><g transform="matrix(1 0 0 -1 0 5.8055)"><use xlink:href="#g430571653545A60A3EF6386D136EADA3" x="0" y="0" fill="#7c7f6a" fill-rule="nonzero"/><use xlink:href="#g5D2E58E4CDB4D7E6C81847885E22D756" x="4.4115" y="0" fill="#7c7f6a" fill-rule="nonzero"/><use xlink:href="#gDB83A5E3A43CD1314807805387E0A9CE" x="8.211" y="0" fill="#7c7f6a" fill-rule="nonzero"/><use xlink:href="#g5D2E58E4CDB4D7E6C81847885E22D756" x="15.4275" y="0" fill="#7c7f6a" fill-rule="nonzero"/><use xlink:href="#gC8932C6BA7F518DC74E87E2F4A0224EB" x="19.227" y="0" fill="#7c7f6a" fill-rule="nonzero"/><use xlink:href="#gE7AE90A8EDDEF3DDB67EE78D36D80337" x="24.208" y="0" fill="#7c7f6a" fill-rule="nonzero"/><use xlink:href="#g5D2E58E4CDB4D7E6C81847885E22D756" x="29.189" y="0" fill="#7c7f6a" fill-rule="nonzero"/></g><g transform="matrix(1 0 0 -1 35.1135 5.8055)"><use xlink:href="#g7186995358F4CDEDF9956A9CB942507B" x="0" y="0" fill="#7c7f6a" fill-rule="nonzero"/></g><g transform="matrix(1 0 0 -1 45.974611111 5.8055)"><use xlink:href="#gBDC50C427FB58C7E4069BC655E16B804" x="0" y="0" fill="#7c7f6a" fill-rule="nonzero"/></g></g></g><defs><symbol id="gBAF1B227155053221F22F6E06EEFED60" overflow="visible"><path d="M 0 0m 1.6065 3.6465c -0.2805 0 -0.612 0.0085 -0.867 0.017c -0.051 -0.051 -0.051 -0.2295 0 -0.2805c 0.5185 -0.0425 0.6715 -0.0765 0.6375 -0.782c -0.034 -0.782 -0.17 -1.411 -0.3145 -2.006c -0.051 -0.2295 -0.2975 -0.306 -0.5355 -0.3315c -0.1275 -0.017 -0.2465 -0.068 -0.255 -0.221l -0.051 -1.1305c 0.0595 -0.0255 0.1275 -0.034 0.2295 -0.0085c 0.0765 0.3145 0.306 1.0965 1.071 1.0965h 1.4705c 0.7565 0 1.003 -0.765 1.0795 -1.105c 0.0765 -0.017 0.153 -0.017 0.238 0.017l -0.051 1.139c 0 0.119 -0.068 0.187 -0.2295 0.2125c -0.153 0.0255 -0.3655 0.085 -0.3655 0.3995v 1.9465c 0 0.697 0.1105 0.7395 0.578 0.7735c 0.051 0.051 0.051 0.2295 0 0.2805c -0.255 -0.0085 -0.578 -0.017 -0.918 -0.017Z m -0.238 -3.213c 0 0.1445 0.2295 0.7055 0.357 2.652c 0.0085 0.1275 0.068 0.238 0.2975 0.238h 0.5865c 0.34 0 0.3825 -0.238 0.3825 -0.527v -2.0485c 0 -0.2805 -0.017 -0.4165 -0.357 -0.4165h -1.0965c -0.0935 0 -0.17 0.0085 -0.17 0.102Z "/></symbol><symbol id="gF931FC691828778A920607CF18B9C32A" overflow="visible"><path d="M 0 0m 2.4905 0.408c 0.051 -0.2635 0.1445 -0.493 0.5695 -0.493c 0.323 0 0.629 0.1445 0.8075 0.3145c -0.017 0.102 -0.051 0.1785 -0.1445 0.2295c -0.0595 -0.051 -0.204 -0.136 -0.3145 -0.136c -0.2465 0 -0.255 0.3315 -0.255 0.7225v 1.2495c 0 1.207 -0.663 1.4365 -1.2835 1.4365c -0.697 0 -1.4025 -0.459 -1.4025 -0.9435c 0 -0.204 0.102 -0.306 0.2975 -0.306c 0.2465 0 0.3995 0.1785 0.3995 0.289c 0 0.0595 -0.0085 0.119 -0.0255 0.153c -0.0085 0.0255 -0.017 0.0765 -0.017 0.17c 0 0.2635 0.357 0.357 0.68 0.357c 0.289 0 0.6885 -0.1445 0.6885 -1.105c 0 -0.0595 -0.0255 -0.0935 -0.051 -0.102l -0.731 -0.1785c -0.816 -0.204 -1.4025 -0.6545 -1.4025 -1.2325c 0 -0.697 0.476 -0.918 1.071 -0.918c 0.2975 0 0.5525 0.068 0.9265 0.357l 0.17 0.136Z m 0 1.5725v -1.122c 0 -0.1105 -0.051 -0.17 -0.119 -0.221c -0.221 -0.1785 -0.51 -0.374 -0.748 -0.374c -0.425 0 -0.612 0.34 -0.612 0.6035c 0 0.3825 0.1785 0.7735 0.8075 0.935Z "/></symbol><symbol id="gC8932C6BA7F518DC74E87E2F4A0224EB" overflow="visible"><path d="M 0 0m 4.0715 2.6095c 0 0.7055 0.0935 0.731 0.612 0.7735c 0.051 0.051 0.051 0.2295 0 0.2805c -0.2975 -0.017 -0.6715 -0.017 -0.952 -0.017c -0.238 0 -0.578 0.0085 -0.9095 0.017c -0.051 -0.051 -0.051 -0.2295 0 -0.2805c 0.5185 -0.034 0.578 -0.068 0.578 -0.7735v -0.5525h -1.819v 0.5525c 0 0.7055 0.0595 0.731 0.578 0.7735c 0.051 0.051 0.051 0.2295 0 0.2805c -0.323 -0.0085 -0.646 -0.017 -0.918 -0.017c -0.255 0 -0.6035 0.0085 -0.9435 0.017c -0.051 -0.051 -0.051 -0.2295 0 -0.2805c 0.5185 -0.034 0.612 -0.068 0.612 -0.7735v -1.5725c 0 -0.7055 -0.0935 -0.731 -0.612 -0.7735c -0.051 -0.051 -0.051 -0.2295 0 -0.2805c 0.34 0.0085 0.68 0.017 0.952 0.017c 0.272 0 0.6035 -0.0085 0.9095 -0.017c 0.051 0.051 0.051 0.2295 0 0.2805c -0.5185 0.034 -0.578 0.068 -0.578 0.7735v 0.7395h 1.819v -0.7395c 0 -0.7055 -0.0595 -0.731 -0.578 -0.7735c -0.051 -0.051 -0.051 -0.2295 0 -0.2805c 0.306 0.0085 0.6205 0.017 0.918 0.017c 0.255 0 0.612 -0.0085 0.9435 -0.017c 0.051 0.051 0.051 0.2295 0 0.2805c -0.5185 0.034 -0.612 0.068 -0.612 0.7735Z "/></symbol><symbol id="g263F4FD32CCD3C47111457350A4C543D" overflow="visible"><path d="M 0 0m 1.581 2.601c 0 0.714 0.0935 0.7395 0.612 0.782c 0.051 0.051 0.051 0.2295 0 0.2805c -0.289 -0.0085 -0.578 -0.017 -0.952 -0.017c -0.3655 0 -0.663 0.0085 -0.9435 0.017c -0.051 -0.051 -0.051 -0.2295 0 -0.2805c 0.5185 -0.034 0.612 -0.068 0.612 -0.7735v -1.5725c 0 -0.7055 -0.0935 -0.731 -0.612 -0.7735c -0.051 -0.051 -0.051 -0.2295 0 -0.2805c 0.2805 0.0085 0.578 0.017 0.952 0.017c 0.3485 0 0.5355 -0.017 0.884 -0.017c 1.0455 0 1.615 0.2635 1.615 1.173c 0 0.799 -0.697 1.0285 -1.5555 1.0285h -0.612Z m 3.6635 0.0085c 0 0.7055 0.0935 0.731 0.612 0.7735c 0.051 0.051 0.051 0.2295 0 0.2805c -0.289 -0.0085 -0.578 -0.017 -0.952 -0.017c -0.3655 0 -0.663 0.0085 -0.9435 0.017c -0.051 -0.051 -0.051 -0.2295 0 -0.2805c 0.5185 -0.034 0.612 -0.068 0.612 -0.7735v -1.5725c 0 -0.7055 -0.0935 -0.731 -0.612 -0.7735c -0.051 -0.051 -0.051 -0.2295 0 -0.2805c 0.2805 0.0085 0.578 0.017 0.952 0.017c 0.3655 0 0.6715 -0.0085 0.9435 -0.017c 0.051 0.051 0.051 0.2295 0 0.2805c -0.5185 0.034 -0.612 0.068 -0.612 0.7735Z m -2.227 -1.5385c 0 -0.697 -0.425 -0.8075 -0.8755 -0.8075c -0.4165 0 -0.561 0.085 -0.561 0.3825v 1.258h 0.6035c 0.6375 0 0.833 -0.3825 0.833 -0.833Z "/></symbol><symbol id="g5D2E58E4CDB4D7E6C81847885E22D756" overflow="visible"><path d="M 0 0m 3.281 0.7905c -0.3145 -0.323 -0.561 -0.459 -1.054 -0.459c -0.306 0 -0.663 0.1785 -0.9265 0.612c -0.17 0.2805 -0.272 0.6715 -0.272 1.1645l 2.261 -0.017c 0.102 0 0.1615 0.051 0.1615 0.1445c 0 0.714 -0.255 1.479 -1.4365 1.479c -0.7395 0 -1.7 -0.7055 -1.7 -1.9975c 0 -0.476 0.119 -0.935 0.3995 -1.258c 0.289 -0.34 0.6885 -0.544 1.3005 -0.544c 0.646 0 1.105 0.2975 1.445 0.7395c -0.0255 0.085 -0.0765 0.1275 -0.1785 0.136Z m -2.227 1.6065c 0.1615 0.9605 0.7565 1.037 0.9605 1.037c 0.323 0 0.7055 -0.1785 0.7055 -0.8925c 0 -0.0765 -0.034 -0.119 -0.1275 -0.119Z "/></symbol><symbol id="g8BA20F8095748B379E9E495F1146FC17" overflow="visible"><path d="M 0 0m 5.0745 1.2155c 0.6545 0.1955 0.9945 0.782 1.02 1.7595c 0 0.0935 -0.0425 0.136 -0.136 0.136c -0.085 0 -0.1275 -0.0425 -0.136 -0.1275c -0.0085 -0.3655 -0.085 -0.646 -0.238 -0.85c -0.17 -0.2295 -0.5525 -0.4845 -0.9265 -0.4845c -0.255 0 -0.527 0.1105 -0.8075 0.3315c -0.1615 0.1275 -0.2975 0.238 -0.3995 0.323c -0.6035 0.527 -1.122 0.7905 -1.564 0.7905c -0.1275 0 -0.255 -0.017 -0.3825 -0.0595c -0.7225 -0.2125 -1.003 -0.8075 -1.0285 -1.7595c 0 -0.0935 0.0425 -0.136 0.136 -0.136c 0.085 0 0.1275 0.0425 0.136 0.1275c 0.0085 0.3655 0.085 0.646 0.238 0.85c 0.1615 0.221 0.561 0.4845 0.9265 0.4845c 0.255 0 0.527 -0.1105 0.8075 -0.3315c 0.1615 -0.1275 0.2975 -0.238 0.3995 -0.323c 0.6035 -0.527 1.122 -0.7905 1.564 -0.7905c 0.1275 0 0.2635 0.017 0.391 0.0595Z "/></symbol><symbol id="gF8E1CB6BA40572D31FCF6A5EFCFBAE7D" overflow="visible"><path d="M 0 0m 2.2865 5.661c -0.3485 -0.357 -0.8585 -0.5355 -1.53 -0.5355v -0.3315c 0.442 0 0.8075 0.068 1.088 0.204v -4.301c 0 -0.153 -0.034 -0.255 -0.1105 -0.2975c -0.0765 -0.0425 -0.289 -0.068 -0.629 -0.068h -0.2975v -0.3315c 0.2125 0.017 0.6715 0.0255 1.377 0.0255c 0.7055 0 1.1645 -0.0085 1.377 -0.0255v 0.3315h -0.2975c -0.3485 0 -0.561 0.0255 -0.629 0.068c -0.068 0.0425 -0.1105 0.1445 -0.1105 0.2975v 4.709c 0 0.204 -0.017 0.255 -0.238 0.255Z "/></symbol><symbol id="g2CFCCBD92B84DA19091A9B4312B8AEF4" overflow="visible"><path d="M 0 0m 3.774 6.103c 0.0085 0.017 0.0085 0.0425 0.0085 0.068c 0 0.136 -0.068 0.204 -0.204 0.204c -0.0935 0 -0.153 -0.0425 -0.187 -0.136l -2.907 -8.092c -0.0085 -0.017 -0.0085 -0.0425 -0.0085 -0.068c 0 -0.136 0.068 -0.204 0.204 -0.204c 0.0935 0 0.153 0.0425 0.187 0.136Z "/></symbol><symbol id="gA69499C6FF6B8BEE1796438EF846EA54" overflow="visible"><path d="M 0 0m 4.5645 1.1645c -0.1955 -0.6715 -0.476 -1.0115 -0.8245 -1.0115c -0.1105 0 -0.17 0.085 -0.17 0.2465c 0 0.119 0.051 0.3145 0.153 0.578c 0.34 0.9265 0.51 1.5385 0.51 1.853c 0 0.595 -0.3995 0.9265 -0.9945 0.9265c -0.5015 0 -0.935 -0.221 -1.2835 -0.6715c -0.068 0.374 -0.3655 0.6715 -0.799 0.6715c -0.476 0 -0.663 -0.442 -0.782 -0.8245c -0.085 -0.272 -0.1275 -0.4335 -0.1275 -0.493c 0 -0.0765 0.0425 -0.119 0.136 -0.119c 0.0425 0 0.068 0.0085 0.0935 0.0255c 0.0425 0.0765 0.068 0.136 0.0765 0.1955c 0.153 0.646 0.3485 0.969 0.578 0.969c 0.153 0 0.2295 -0.119 0.2295 -0.357c 0 -0.1105 -0.0425 -0.34 -0.136 -0.6885l -0.4845 -1.9295c -0.0255 -0.1105 -0.0765 -0.3315 -0.0765 -0.374c 0 -0.17 0.0935 -0.255 0.2805 -0.255c 0.1615 0 0.2805 0.085 0.34 0.255c 0.017 0.0425 0.068 0.255 0.1615 0.6205l 0.1785 0.7565l 0.255 0.969c 0.0935 0.1955 0.238 0.391 0.4165 0.595c 0.2465 0.272 0.5525 0.408 0.918 0.408c 0.2805 0 0.4165 -0.187 0.4165 -0.5525c 0 -0.323 -0.1785 -0.969 -0.544 -1.938c -0.0595 -0.153 -0.085 -0.2805 -0.085 -0.391c 0 -0.4165 0.3145 -0.7225 0.7225 -0.7225c 0.374 0 0.6715 0.2125 0.884 0.6375c 0.1615 0.34 0.2465 0.5695 0.2465 0.68c 0 0.0765 -0.0425 0.119 -0.136 0.119c -0.0255 0 -0.153 -0.0765 -0.153 -0.1785Z "/></symbol><symbol id="g7186995358F4CDEDF9956A9CB942507B" overflow="visible"><path d="M 0 0m 7.922 1.989c 0.0595 0.0255 0.0935 0.0765 0.0935 0.136c 0 0.0595 -0.034 0.1105 -0.0935 0.136c -0.408 0.136 -0.7905 0.425 -1.1475 0.867c -0.238 0.2975 -0.3995 0.646 -0.476 1.0455c -0.0255 0.1105 -0.0935 0.1615 -0.204 0.1615c -0.136 0 -0.204 -0.068 -0.204 -0.2125l 0.0085 -0.017v -0.0085c 0.1445 -0.7395 0.5185 -1.326 1.139 -1.768h -6.341c -0.136 0 -0.204 -0.068 -0.204 -0.204c 0 -0.136 0.068 -0.204 0.204 -0.204h 6.341c -0.6205 -0.442 -0.9945 -1.0285 -1.139 -1.768v -0.0085l -0.0085 -0.017c 0 -0.1445 0.068 -0.2125 0.204 -0.2125c 0.1105 0 0.1785 0.051 0.204 0.1615c 0.0765 0.3995 0.238 0.748 0.476 1.0455c 0.357 0.442 0.7395 0.731 1.1475 0.867Z "/></symbol><symbol id="g45E5B60DC5A61BB00289070D5B969DAC" overflow="visible"><path d="M 0 0m 2.1165 -0.187c 1.1985 0 1.7935 0.969 1.7935 2.907c 0 1.3005 -0.272 2.1675 -0.8075 2.5925c -0.2975 0.2295 -0.629 0.3485 -0.9775 0.3485c -1.1985 0 -1.7935 -0.9775 -1.7935 -2.941c 0 -1.564 0.4165 -2.907 1.785 -2.907Z m 0.952 4.641c 0.0595 -0.2975 0.085 -0.8415 0.085 -1.632c 0 -0.782 -0.034 -1.36 -0.0935 -1.734c -0.1105 -0.68 -0.425 -1.02 -0.9435 -1.02c -0.1955 0 -0.391 0.0765 -0.5695 0.221c -0.2295 0.1955 -0.3655 0.595 -0.425 1.207c -0.0255 0.2125 -0.034 0.6545 -0.034 1.326c 0 0.7395 0.0255 1.258 0.068 1.5385c 0.0765 0.4675 0.2295 0.765 0.4675 0.8925c 0.187 0.102 0.3485 0.153 0.493 0.153c 0.5525 0 0.8585 -0.4505 0.952 -0.952Z "/></symbol><symbol id="g5D01DA3AB390CB78D7E54204B7DC3F87" overflow="visible"><path d="M 0 0m 0.328 1.64c 0 -0.816 0.544 -1.72 1.68 -1.72c 0.512 0 0.904 0.184 1.176 0.448c 0.36 0.352 0.52 0.856 0.52 1.344c 0 0.832 -0.456 1.8 -1.68 1.8c -0.528 0 -0.96 -0.216 -1.256 -0.56c -0.288 -0.344 -0.44 -0.808 -0.44 -1.312Z m 1.576 1.592c 0.688 0 1.112 -0.624 1.112 -1.776c 0 -1.008 -0.52 -1.256 -0.896 -1.256c -0.832 0 -1.104 1.008 -1.104 1.624c 0 0.696 0.168 1.408 0.888 1.408Z "/></symbol><symbol id="gDFD38EC9906BA626C5B7E69A103C103" overflow="visible"><path d="M 0 0m 0.272 2.056c 0 -1.512 0.872 -2.136 1.648 -2.136c 1.096 0 1.728 0.816 1.728 1.824c 0 0.864 -0.48 1.768 -1.608 1.768c -0.76 0 -1.224 -0.448 -1.4 -0.832l -0.016 0.016c 0.032 0.416 0.16 0.928 0.28 1.136c 0.256 0.44 0.56 0.464 1.296 0.544c 0.72 0.08 1.232 0.312 1.304 1.208c -0.056 0.024 -0.112 0.032 -0.176 0c -0.064 -0.384 -0.488 -0.488 -1.16 -0.592c -0.648 -0.104 -1.192 -0.328 -1.528 -0.96c -0.288 -0.544 -0.368 -1.216 -0.368 -1.976Z m 0.688 -0.208c 0 0.448 0.16 1.384 0.992 1.384c 0.624 0 1.008 -0.72 1.008 -1.68c 0 -1.008 -0.464 -1.352 -0.896 -1.352c -0.584 0 -1.104 0.76 -1.104 1.648Z "/></symbol><symbol id="g46DFAA35BC521B4F2378CE697B4B163E" overflow="visible"><path d="M 0 0m 1.248 2.944c -0.008 0.24 -0.024 0.448 -0.064 0.528c -0.016 0.04 -0.032 0.064 -0.096 0.064c -0.224 -0.088 -0.432 -0.16 -0.984 -0.232c -0.016 -0.048 0 -0.176 0.016 -0.224c 0.432 -0.04 0.52 -0.08 0.52 -0.544v -3.416c 0 -0.664 -0.088 -0.704 -0.576 -0.728c -0.048 -0.048 -0.048 -0.216 0 -0.264c 0.28 0.008 0.576 0.016 0.896 0.016c 0.32 0 0.704 -0.008 0.968 -0.016c 0.048 0.048 0.048 0.216 0 0.264c -0.568 0.032 -0.656 0.064 -0.656 0.728v 0.864c 0 0.104 0.032 0.096 0.112 0.064c 0.2 -0.08 0.44 -0.128 0.696 -0.128c 0.448 0 0.848 0.136 1.176 0.448c 0.376 0.368 0.592 0.864 0.592 1.512c 0 0.848 -0.6 1.632 -1.416 1.632c -0.368 0 -0.776 -0.24 -1.096 -0.6c -0.048 -0.048 -0.08 -0.048 -0.088 0.032Z m 0.152 -0.296c 0.208 0.256 0.576 0.496 0.808 0.496c 0.512 0 0.952 -0.576 0.952 -1.48c 0 -0.656 -0.232 -1.472 -1.128 -1.472c -0.144 0 -0.424 0.04 -0.568 0.168c -0.16 0.144 -0.192 0.192 -0.192 0.48v 1.456c 0 0.168 0.032 0.24 0.128 0.352Z "/></symbol><symbol id="gF79D9CC171E1ACC5162F855F1894F43E" overflow="visible"><path d="M 0 0m 2.344 0.384c 0.048 -0.248 0.136 -0.464 0.536 -0.464c 0.304 0 0.592 0.136 0.76 0.296c -0.016 0.096 -0.048 0.168 -0.136 0.216c -0.056 -0.048 -0.192 -0.128 -0.296 -0.128c -0.232 0 -0.24 0.312 -0.24 0.68v 1.176c 0 1.136 -0.624 1.352 -1.208 1.352c -0.656 0 -1.32 -0.432 -1.32 -0.888c 0 -0.192 0.096 -0.288 0.28 -0.288c 0.232 0 0.376 0.168 0.376 0.272c 0 0.056 -0.008 0.112 -0.024 0.144c -0.008 0.024 -0.016 0.072 -0.016 0.16c 0 0.248 0.336 0.336 0.64 0.336c 0.272 0 0.648 -0.136 0.648 -1.04c 0 -0.056 -0.024 -0.088 -0.048 -0.096l -0.688 -0.168c -0.768 -0.192 -1.32 -0.616 -1.32 -1.16c 0 -0.656 0.448 -0.864 1.008 -0.864c 0.28 0 0.52 0.064 0.872 0.336l 0.16 0.128Z m 0 1.48v -1.056c 0 -0.104 -0.048 -0.16 -0.112 -0.208c -0.208 -0.168 -0.48 -0.352 -0.704 -0.352c -0.4 0 -0.576 0.32 -0.576 0.568c 0 0.36 0.168 0.728 0.76 0.88Z "/></symbol><symbol id="gE09E60C0AC8E2E10ADA02C2F49261352" overflow="visible"><path d="M 0 0m 1.456 0.976c 0 -0.664 -0.088 -0.704 -0.576 -0.728c -0.048 -0.048 -0.048 -0.216 0 -0.264c 0.312 0.008 0.632 0.016 0.896 0.016c 0.272 0 0.584 -0.008 0.888 -0.016c 0.048 0.048 0.048 0.216 0 0.264c -0.488 0.024 -0.576 0.064 -0.576 0.728v 2.16h 0.136c 0.648 0 0.776 -0.224 0.912 -0.872c 0.104 0 0.208 0.032 0.208 0.032c -0.048 0.368 -0.08 0.72 -0.088 1.184c -0.184 -0.016 -0.784 -0.048 -1.184 -0.048h -0.6c -0.4 0 -0.848 0.024 -1.168 0.048c -0.008 -0.464 -0.04 -0.816 -0.096 -1.184c 0 0 0.112 -0.032 0.216 -0.032c 0.136 0.648 0.256 0.872 0.912 0.872h 0.12Z "/></symbol><symbol id="gDF0740817C60D01D4C0A2F901DD857A7" overflow="visible"><path d="M 0 0m 1.584 0.504c -0.024 0 -0.056 0.016 -0.056 0.096v 1.824c 0 0.664 0.168 0.736 0.576 0.76c 0.048 0.048 0.048 0.216 0 0.264c -0.184 -0.008 -0.64 -0.016 -0.936 -0.016c -0.264 0 -0.584 0.008 -0.888 0.016c -0.048 -0.048 -0.048 -0.216 0 -0.264c 0.488 -0.024 0.616 -0.096 0.616 -0.76v -1.416c 0 -0.664 -0.128 -0.736 -0.616 -0.76c -0.048 -0.048 -0.048 -0.216 0 -0.264c 0.312 0.008 0.632 0.016 0.888 0.016c 0.184 0 0.4 -0.008 0.488 -0.016c 0.04 0.112 0.112 0.272 0.2 0.432l 1.248 2.504c 0.024 0 0.056 -0.016 0.056 -0.096v -1.816c 0 -0.664 -0.168 -0.736 -0.576 -0.76c -0.048 -0.048 -0.048 -0.216 0 -0.264c 0.184 0.008 0.616 0.016 0.936 0.016c 0.248 0 0.576 -0.008 0.888 -0.016c 0.048 0.048 0.048 0.216 0 0.264c -0.488 0.024 -0.616 0.096 -0.616 0.76v 1.416c 0 0.664 0.128 0.736 0.616 0.76c 0.048 0.048 0.048 0.216 0 0.264c -0.32 -0.008 -0.64 -0.016 -0.888 -0.016c -0.176 0 -0.4 0.008 -0.48 0.016c -0.064 -0.144 -0.136 -0.312 -0.208 -0.448Z "/></symbol><symbol id="gC175399424EF2D6961EAC52DB2845054" overflow="visible"><path d="M 0 0m 1.488 2.448c 0 0.672 0.088 0.696 0.576 0.736c 0.048 0.048 0.048 0.216 0 0.264c -0.272 -0.008 -0.544 -0.016 -0.896 -0.016c -0.344 0 -0.624 0.008 -0.888 0.016c -0.048 -0.048 -0.048 -0.216 0 -0.264c 0.488 -0.032 0.576 -0.064 0.576 -0.728v -1.48c 0 -0.664 -0.088 -0.688 -0.576 -0.728c -0.048 -0.048 -0.048 -0.216 0 -0.264c 0.264 0.008 0.544 0.016 0.896 0.016c 0.328 0 0.504 -0.016 0.832 -0.016c 0.984 0 1.52 0.248 1.52 1.104c 0 0.752 -0.656 0.968 -1.464 0.968h -0.576Z m 1.352 -1.44c 0 -0.656 -0.4 -0.76 -0.824 -0.76c -0.392 0 -0.528 0.08 -0.528 0.36v 1.184h 0.568c 0.6 0 0.784 -0.36 0.784 -0.784Z "/></symbol><symbol id="g430571653545A60A3EF6386D136EADA3" overflow="visible"><path d="M 0 0m 1.326 3.128c -0.0085 0.255 -0.0255 0.476 -0.068 0.561c -0.017 0.0425 -0.034 0.068 -0.102 0.068c -0.238 -0.0935 -0.459 -0.17 -1.0455 -0.2465c -0.017 -0.051 0 -0.187 0.017 -0.238c 0.459 -0.0425 0.5525 -0.085 0.5525 -0.578v -3.6295c 0 -0.7055 -0.0935 -0.748 -0.612 -0.7735c -0.051 -0.051 -0.051 -0.2295 0 -0.2805c 0.2975 0.0085 0.612 0.017 0.952 0.017c 0.34 0 0.748 -0.0085 1.0285 -0.017c 0.051 0.051 0.051 0.2295 0 0.2805c -0.6035 0.034 -0.697 0.068 -0.697 0.7735v 0.918c 0 0.1105 0.034 0.102 0.119 0.068c 0.2125 -0.085 0.4675 -0.136 0.7395 -0.136c 0.476 0 0.901 0.1445 1.2495 0.476c 0.3995 0.391 0.629 0.918 0.629 1.6065c 0 0.901 -0.6375 1.734 -1.5045 1.734c -0.391 0 -0.8245 -0.255 -1.1645 -0.6375c -0.051 -0.051 -0.085 -0.051 -0.0935 0.034Z m 0.1615 -0.3145c 0.221 0.272 0.612 0.527 0.8585 0.527c 0.544 0 1.0115 -0.612 1.0115 -1.5725c 0 -0.697 -0.2465 -1.564 -1.1985 -1.564c -0.153 0 -0.4505 0.0425 -0.6035 0.1785c -0.17 0.153 -0.204 0.204 -0.204 0.51v 1.547c 0 0.1785 0.034 0.255 0.136 0.374Z "/></symbol><symbol id="gDB83A5E3A43CD1314807805387E0A9CE" overflow="visible"><path d="M 0 0m 6.341 1.037v 1.5725c 0 0.697 0.1105 0.7395 0.578 0.7735c 0.051 0.051 0.051 0.2295 0 0.2805c -0.255 -0.0085 -0.578 -0.017 -0.918 -0.017c -0.34 0 -0.595 0.0085 -0.85 0.017c -0.051 -0.051 -0.051 -0.2295 0 -0.2805c 0.4335 -0.0425 0.5185 -0.0765 0.5185 -0.7735v -1.8445c 0 -0.2635 -0.0255 -0.4335 -0.357 -0.4335h -1.003c -0.255 0 -0.3655 0.0765 -0.3655 0.4335v 1.8445c 0.0085 0.697 0.068 0.7395 0.527 0.7735c 0.0425 0.051 0.0425 0.2295 0 0.2805c -0.2125 -0.0085 -0.527 -0.017 -0.867 -0.017c -0.34 0 -0.6205 0.0085 -0.833 0.017c -0.0425 -0.051 -0.0425 -0.2295 0 -0.2805c 0.425 -0.034 0.51 -0.0765 0.5015 -0.7735v -1.853c 0 -0.3145 -0.0425 -0.425 -0.357 -0.425h -0.969c -0.3145 0 -0.3655 0.0935 -0.3655 0.4335v 1.8445c 0 0.697 0.085 0.7395 0.527 0.7735c 0.0425 0.051 0.0425 0.2295 0 0.2805c -0.2125 -0.0085 -0.527 -0.017 -0.867 -0.017c -0.34 0 -0.6375 0.0085 -0.8755 0.017c -0.0425 -0.051 -0.0425 -0.2295 0 -0.2805c 0.4675 -0.034 0.544 -0.0765 0.544 -0.7735v -1.5725c 0 -0.697 -0.1105 -0.7395 -0.578 -0.7735c -0.051 -0.051 -0.051 -0.2295 0 -0.2805c 0.255 0.0085 0.578 0.017 0.918 0.017h 4.7515c 0.34 0 0.663 -0.0085 0.918 -0.017c 0.051 0.051 0.051 0.2295 0 0.2805c -0.4675 0.034 -0.578 0.0765 -0.578 0.7735Z "/></symbol><symbol id="gE7AE90A8EDDEF3DDB67EE78D36D80337" overflow="visible"><path d="M 0 0m 1.683 0.5355c -0.0255 0 -0.0595 0.017 -0.0595 0.102v 1.938c 0 0.7055 0.1785 0.782 0.612 0.8075c 0.051 0.051 0.051 0.2295 0 0.2805c -0.1955 -0.0085 -0.68 -0.017 -0.9945 -0.017c -0.2805 0 -0.6205 0.0085 -0.9435 0.017c -0.051 -0.051 -0.051 -0.2295 0 -0.2805c 0.5185 -0.0255 0.6545 -0.102 0.6545 -0.8075v -1.5045c 0 -0.7055 -0.136 -0.782 -0.6545 -0.8075c -0.051 -0.051 -0.051 -0.2295 0 -0.2805c 0.3315 0.0085 0.6715 0.017 0.9435 0.017c 0.1955 0 0.425 -0.0085 0.5185 -0.017c 0.0425 0.119 0.119 0.289 0.2125 0.459l 1.326 2.6605c 0.0255 0 0.0595 -0.017 0.0595 -0.102v -1.9295c 0 -0.7055 -0.1785 -0.782 -0.612 -0.8075c -0.051 -0.051 -0.051 -0.2295 0 -0.2805c 0.1955 0.0085 0.6545 0.017 0.9945 0.017c 0.2635 0 0.612 -0.0085 0.9435 -0.017c 0.051 0.051 0.051 0.2295 0 0.2805c -0.5185 0.0255 -0.6545 0.102 -0.6545 0.8075v 1.5045c 0 0.7055 0.136 0.782 0.6545 0.8075c 0.051 0.051 0.051 0.2295 0 0.2805c -0.34 -0.0085 -0.68 -0.017 -0.9435 -0.017c -0.187 0 -0.425 0.0085 -0.51 0.017c -0.068 -0.153 -0.1445 -0.3315 -0.221 -0.476Z "/></symbol><symbol id="gBDC50C427FB58C7E4069BC655E16B804" overflow="visible"><path d="M 0 0m 6.3665 -0.0935c 0.493 0 0.901 0.204 1.2155 0.6035c 0.289 0.374 0.4335 0.816 0.4335 1.326c 0 0.5015 -0.1445 0.9435 -0.425 1.3175c -0.3145 0.3995 -0.714 0.6035 -1.1985 0.6035c -0.578 0 -1.0795 -0.221 -1.496 -0.663c -0.2465 -0.272 -0.442 -0.5185 -0.5865 -0.731c -0.3655 0.4335 -0.612 0.7055 -0.731 0.8075c -0.459 0.391 -0.9435 0.5865 -1.4535 0.5865c -0.493 0 -0.901 -0.204 -1.2155 -0.6035c -0.289 -0.374 -0.4335 -0.816 -0.4335 -1.326c 0 -0.5015 0.1445 -0.9435 0.425 -1.3175c 0.3145 -0.3995 0.714 -0.6035 1.1985 -0.6035c 0.578 0 1.0795 0.221 1.496 0.663c 0.2465 0.272 0.442 0.5185 0.5865 0.731c 0.3655 -0.4335 0.612 -0.7055 0.731 -0.8075c 0.459 -0.391 0.9435 -0.5865 1.4535 -0.5865Z m 1.394 1.9295c 0 -0.238 -0.017 -0.408 -0.0425 -0.51c -0.0425 -0.1615 -0.153 -0.3315 -0.3315 -0.527c -0.2465 -0.2805 -0.544 -0.425 -0.884 -0.425c -0.3655 0 -0.7225 0.1955 -1.088 0.5865c -0.3825 0.4675 -0.663 0.816 -0.8415 1.054c 0.5355 0.9435 1.1645 1.411 1.8785 1.411c 0.7905 0 1.309 -0.7565 1.309 -1.5895Z m -7.0295 -0.0085c 0 0.3825 0.119 0.714 0.357 1.0115c 0.238 0.2975 0.5355 0.4505 0.901 0.4505c 0.3655 0 0.7225 -0.1955 1.088 -0.5865c 0.3825 -0.4675 0.663 -0.816 0.8415 -1.054c -0.5355 -0.9435 -1.1645 -1.411 -1.8785 -1.411c -0.7905 0 -1.309 0.7565 -1.309 1.5895Z "/></symbol></defs></svg>