<svg viewBox="0 0 233.151909548 245.606299213" width="233.151909548pt" height="245.606299213pt" xmlns="http://www.w3.org/2000/svg" xmlns:xlink="http://www.w3.org/1999/xlink" xmlns:h5="http://www.w3.org/1999/xhtml"><path fill="#ffffff" fill-rule="nonzero" d="M 0 0v 245.606299213h 233.151909548v -245.606299213Z "/><g transform="translate(8 8)"><path fill="none" stroke="#1a1a18" stroke-width="0.6" stroke-linecap="butt" stroke-linejoin="miter" stroke-miterlimit="4" transform="translate(22.677165354 45.354330709)" d="M 0 0m 85.039370079 0c -46.92336378 0 -85.039370079 38.116006299 -85.039370079 85.039370079c 0 46.92336378 38.116006299 85.039370079 85.039370079 85.039370079c 46.92336378 0 85.039370079 -38.116006299 85.039370079 -85.039370079c 0 -46.92336378 -38.116006299 -85.039370079 -85.039370079 -85.039370079Z "/><path fill="none" stroke="#a29b8c" stroke-width="0.6" stroke-linecap="butt" stroke-linejoin="miter" stroke-miterlimit="4" transform="translate(2.834645669 130.393700787)" d="M 0 0h 209.763779528"/><path fill="none" stroke="#7c7f6a" stroke-width="0.6" stroke-linecap="butt" stroke-linejoin="miter" stroke-miterlimit="4" stroke-dashoffset="0" stroke-dasharray="3 3" transform="translate(107.716535433)" d="M 0 0m 0 229.606299213v -229.606299213"/><path fill="none" stroke="#1a1a18" stroke-width="0.6" stroke-linecap="butt" stroke-linejoin="miter" stroke-miterlimit="4" transform="translate(107.716535433 17.544219158)" d="M 0 0m 0 112.849481629l 79.01805772 -112.849481629"/><path fill="none" stroke="#7c7f6a" stroke-width="0.6" stroke-linecap="butt" stroke-linejoin="miter" stroke-miterlimit="4" stroke-dashoffset="0" stroke-dasharray="3 3" transform="translate(156.493114272 10.56430527)" d="M 0 0m 0 50.169221673v -50.169221673"/><path fill="#7c7f6a" fill-rule="nonzero" stroke="#7c7f6a" stroke-width="0.6" stroke-linecap="butt" stroke-linejoin="miter" stroke-miterlimit="4" stroke-dashoffset="0" stroke-dasharray="3 3" transform="translate(155.430122173 7.72965978)" d="M 0 0m 1.062992126 0l 1.062992126 2.834645669h -2.125984252l 1.062992126 -2.834645669Z "/><path fill="none" stroke="#1a1a18" stroke-width="0.6" stroke-linecap="butt" stroke-linejoin="miter" stroke-miterlimit="4" transform="translate(122.349509085 109.495648634)" d="M 0 0m 10.878837372 20.898052154c 0 -8.323600589 -4.060542934 -16.12383099 -10.878837372 -20.898052154"/><path fill="none" stroke="#1a1a18" stroke-width="0.6" stroke-linecap="butt" stroke-linejoin="miter" stroke-miterlimit="4" transform="translate(156.493114298 38.056361459)" d="M 0 0m 13.00708769 4.101118996c -3.812169325 -2.669309698 -8.353288251 -4.101118996 -13.00708769 -4.101118996"/><path fill="#1a1a18" fill-rule="nonzero" transform="translate(106.299212598 128.976377953)" d="M 0 0m 1.417322835 0c -0.782056063 0 -1.417322835 0.635266772 -1.417322835 1.417322835c 0 0.782056063 0.635266772 1.417322835 1.417322835 1.417322835c 0.782056063 0 1.417322835 -0.635266772 1.417322835 -1.417322835c 0 -0.782056063 -0.635266772 -1.417322835 -1.417322835 -1.417322835Z "/><path fill="#1a1a18" fill-rule="nonzero" transform="translate(155.075791438 59.316204108)" d="M 0 0m 1.417322835 0c -0.782056063 0 -1.417322835 0.635266772 -1.417322835 1.417322835c 0 0.782056063 0.635266772 1.417322835 1.417322835 1.417322835c 0.782056063 0 1.417322835 -0.635266772 1.417322835 -1.417322835c 0 -0.782056063 -0.635266772 -1.417322835 -1.417322835 -1.417322835Z "/><path fill="none" transform="translate(102.248677165 136.153996063)" d="M 0 0h 8.668v 7.755h -8.668v -7.755Z "/><g transform="translate(102.248677134 136.153996016)"><g transform="matrix(1 0 0 -1 0 7.513)"><use xlink:href="#g9AF2FCDC7D502736E115E482D897EFF2" x="0" y="0" fill="#1a1a18" fill-rule="nonzero"/></g></g><path fill="none" transform="translate(130.52033031 111.694816866)" d="M 0 0h 7.194v 9.911h -7.194v -9.911Z "/><g transform="translate(130.520330216 111.694816803)"><g transform="matrix(1 0 0 -1 0 7.513)"><use xlink:href="#gC41DFB6B59EEB5F6DB729AC735AFDB74" x="0" y="0" fill="#1a1a18" fill-rule="nonzero"/></g></g><path fill="none" transform="translate(150.464624758 23.787131452)" d="M 0 0h 32.514444444v 9.01h -32.514444444v -9.01Z "/><g transform="translate(150.464624696 23.787131421)"><g transform="matrix(1 0 0 -1 0 6.83)"><use xlink:href="#gF99C0212A28E75750A48E6E827328F99" x="0" y="0" fill="#1a1a18" fill-rule="nonzero"/></g><g transform="matrix(1 0 0 -1 5 6.83)"><use xlink:href="#gAA84A9423BA34B701FF3D1FC1A0341B9" x="0" y="0" fill="#1a1a18" fill-rule="nonzero"/></g><g transform="matrix(1 0 0 -1 10 6.83)"><use xlink:href="#g9260F1513A660D7C61BD1276714DE26C" x="0" y="0" fill="#1a1a18" fill-rule="nonzero"/></g><g transform="matrix(1 0 0 -1 15.972222222 6.83)"><use xlink:href="#gE8ADFB55DBC888FEFF5896D44F418AFF" x="0" y="0" fill="#1a1a18" fill-rule="nonzero"/></g><g transform="matrix(1 0 0 -1 25.974444444 6.83)"><use xlink:href="#g394A39A6D6B64E0031935B8E6A2FCE71" x="0" y="0" fill="#1a1a18" fill-rule="nonzero"/></g></g><path fill="none" transform="translate(166.130909548 63.414747415)" d="M 0 0h 51.021v 7.11h -51.021v -7.11Z "/><g transform="translate(166.130909548 63.414747273)"><g transform="matrix(1 0 0 -1 0 5.922)"><use xlink:href="#g5F2B105DCE44482CD07DFE0B4651B637" x="0" y="0" fill="#7c7f6a" fill-rule="nonzero"/><use xlink:href="#gF7AD5B3248F8366898BA115B8D318C4E" x="5.274" y="0" fill="#7c7f6a" fill-rule="nonzero"/><use xlink:href="#g9C9C9262F30302871979B086E3504457" x="9.387" y="0" fill="#7c7f6a" fill-rule="nonzero"/><use xlink:href="#gB118266EF18AECCCCEF724ECE6F3D1D3" x="13.788" y="0" fill="#7c7f6a" fill-rule="nonzero"/><use xlink:href="#gE910E7524AAA5201D690B7EBF26D2697" x="18.531" y="0" fill="#7c7f6a" fill-rule="nonzero"/><use xlink:href="#gBA3E9C2E61A84E296B252679103E17C4" x="25.11" y="0" fill="#7c7f6a" fill-rule="nonzero"/><use xlink:href="#gF7AD5B3248F8366898BA115B8D318C4E" x="29.952" y="0" fill="#7c7f6a" fill-rule="nonzero"/><use xlink:href="#g611C332DF318E3AAFADBD04F1094DD79" x="34.065" y="0" fill="#7c7f6a" fill-rule="nonzero"/><use xlink:href="#gD351E21AD091924D522A6D2D6355C932" x="38.07" y="0" fill="#7c7f6a" fill-rule="nonzero"/><use xlink:href="#gB118266EF18AECCCCEF724ECE6F3D1D3" x="42.093" y="0" fill="#7c7f6a" fill-rule="nonzero"/><use xlink:href="#g1F6C67A5839963BD6478B8393FDBF84B" x="46.836" y="0" fill="#7c7f6a" fill-rule="nonzero"/></g></g><path fill="none" transform="translate(161.028547343 6.262834029)" d="M 0 0h 52.407v 8.028h -52.407v -8.028Z "/><g transform="translate(161.028547343 6.262834029)"><g transform="matrix(1 0 0 -1 0 5.922)"><use xlink:href="#g5F2B105DCE44482CD07DFE0B4651B637" x="0" y="0" fill="#7c7f6a" fill-rule="nonzero"/><use xlink:href="#gF7AD5B3248F8366898BA115B8D318C4E" x="5.274" y="0" fill="#7c7f6a" fill-rule="nonzero"/><use xlink:href="#g2A97175FDC9931E5FE26D203D69696BC" x="11.637" y="0" fill="#7c7f6a" fill-rule="nonzero"/><use xlink:href="#g7253BD4F4A12C91ABC7B03558525FA66" x="17.64" y="0" fill="#7c7f6a" fill-rule="nonzero"/><use xlink:href="#gB118266EF18AECCCCEF724ECE6F3D1D3" x="22.176" y="0" fill="#7c7f6a" fill-rule="nonzero"/><use xlink:href="#gCC8431763A18574B9D70D89AC0A75466" x="26.919" y="0" fill="#7c7f6a" fill-rule="nonzero"/><use xlink:href="#g4AD90A9068D018AD3CEC8FD5EA9519DC" x="31.248" y="0" fill="#7c7f6a" fill-rule="nonzero"/><use xlink:href="#g5F2B105DCE44482CD07DFE0B4651B637" x="35.919" y="0" fill="#7c7f6a" fill-rule="nonzero"/><use xlink:href="#gFFF6E9B9A983FEBF7FB8DCFB305974E9" x="41.193" y="0" fill="#7c7f6a" fill-rule="nonzero"/><use xlink:href="#gE910E7524AAA5201D690B7EBF26D2697" x="45.828" y="0" fill="#7c7f6a" fill-rule="nonzero"/></g></g><path fill="none" transform="translate(67.613173228 1.655291339)" d="M 0 0h 35.001v 8.028h -35.001v -8.028Z "/><g transform="translate(67.613173087 1.655291339)"><g transform="matrix(1 0 0 -1 0 5.922)"><use xlink:href="#g7253BD4F4A12C91ABC7B03558525FA66" x="0" y="0" fill="#7c7f6a" fill-rule="nonzero"/><use xlink:href="#g7815E2C79248546AAEE49EC7F57ADD4E" x="4.536" y="0" fill="#7c7f6a" fill-rule="nonzero"/><use xlink:href="#g1F6C67A5839963BD6478B8393FDBF84B" x="8.388" y="0" fill="#7c7f6a" fill-rule="nonzero"/><use xlink:href="#g82C799C01D06EF19E125C6F4348D75CA" x="14.823" y="0" fill="#7c7f6a" fill-rule="nonzero"/><use xlink:href="#g6EA5A1981697E2B5E95285C58F7F7AD0" x="20.943" y="0" fill="#7c7f6a" fill-rule="nonzero"/><use xlink:href="#g4AD90A9068D018AD3CEC8FD5EA9519DC" x="26.217" y="0" fill="#7c7f6a" fill-rule="nonzero"/><use xlink:href="#gF7AD5B3248F8366898BA115B8D318C4E" x="30.888" y="0" fill="#7c7f6a" fill-rule="nonzero"/></g></g><path fill="none" transform="translate(0 135.450566929)" d="M 0 0h 76.104v 8.028h -76.104v -8.028Z "/><g transform="translate(-1.42e-7 135.450566929)"><g transform="matrix(1 0 0 -1 0 5.922)"><use xlink:href="#gA5834380700F55B3689219A2CC4667E3" x="0" y="0" fill="#a29b8c" fill-rule="nonzero"/><use xlink:href="#gB118266EF18AECCCCEF724ECE6F3D1D3" x="5.274" y="0" fill="#a29b8c" fill-rule="nonzero"/><use xlink:href="#g7253BD4F4A12C91ABC7B03558525FA66" x="10.017" y="0" fill="#a29b8c" fill-rule="nonzero"/><use xlink:href="#g7815E2C79248546AAEE49EC7F57ADD4E" x="14.553" y="0" fill="#a29b8c" fill-rule="nonzero"/><use xlink:href="#gAE9E23F53692F92B7B295E455DF99330" x="18.405" y="0" fill="#a29b8c" fill-rule="nonzero"/><use xlink:href="#g7253BD4F4A12C91ABC7B03558525FA66" x="22.923" y="0" fill="#a29b8c" fill-rule="nonzero"/><use xlink:href="#g7815E2C79248546AAEE49EC7F57ADD4E" x="27.459" y="0" fill="#a29b8c" fill-rule="nonzero"/><use xlink:href="#g611C332DF318E3AAFADBD04F1094DD79" x="31.311" y="0" fill="#a29b8c" fill-rule="nonzero"/><use xlink:href="#g1F6C67A5839963BD6478B8393FDBF84B" x="35.316" y="0" fill="#a29b8c" fill-rule="nonzero"/><use xlink:href="#g1F9714CC671652C524E18E6C36ACD39E" x="41.751" y="0" fill="#a29b8c" fill-rule="nonzero"/><use xlink:href="#gAE9E23F53692F92B7B295E455DF99330" x="45.837" y="0" fill="#a29b8c" fill-rule="nonzero"/><use xlink:href="#g6F3F83F8220F4B0FE27ED35A349BC8A6" x="50.355" y="0" fill="#a29b8c" fill-rule="nonzero"/><use xlink:href="#gF7AD5B3248F8366898BA115B8D318C4E" x="54.666" y="0" fill="#a29b8c" fill-rule="nonzero"/><use xlink:href="#g611C332DF318E3AAFADBD04F1094DD79" x="58.779" y="0" fill="#a29b8c" fill-rule="nonzero"/><use xlink:href="#g7253BD4F4A12C91ABC7B03558525FA66" x="62.784" y="0" fill="#a29b8c" fill-rule="nonzero"/><use xlink:href="#g4AD90A9068D018AD3CEC8FD5EA9519DC" x="67.32" y="0" fill="#a29b8c" fill-rule="nonzero"/><use xlink:href="#gF7AD5B3248F8366898BA115B8D318C4E" x="71.991" y="0" fill="#a29b8c" fill-rule="nonzero"/></g></g></g><defs><symbol id="g9AF2FCDC7D502736E115E482D897EFF2" overflow="visible"><path d="M 0 0m 1.628 2.398c 0 1.408 0.616 2.838 1.309 3.63c 0.561 0.649 1.529 1.298 2.618 1.298c 1.144 0 1.705 -0.869 1.705 -2.057c 0 -0.099 -0.033 -0.451 -0.033 -0.55c 0 -0.099 0.066 -0.154 0.209 -0.154c 0.055 0 0.099 0.011 0.132 0.022c 0.055 0.077 0.088 0.154 0.11 0.231l 0.682 2.783c 0 0.099 -0.055 0.154 -0.165 0.154c -0.044 0 -0.11 -0.044 -0.198 -0.143l -0.715 -0.803c -0.429 0.627 -1.034 0.946 -1.815 0.946c -0.605 0 -1.199 -0.143 -1.804 -0.418c -1.221 -0.572 -2.112 -1.474 -2.684 -2.706c -0.286 -0.605 -0.429 -1.221 -0.429 -1.848c 0 -0.88 0.275 -1.595 0.836 -2.167c 0.561 -0.572 1.276 -0.858 2.156 -0.858c 0.869 0 1.661 0.319 2.376 0.946c 0.297 0.253 0.55 0.561 0.759 0.902c 0.297 0.495 0.451 0.836 0.451 1.045c 0 0.099 -0.055 0.154 -0.176 0.154c -0.099 0 -0.154 -0.044 -0.176 -0.143c -0.231 -0.715 -0.594 -1.287 -1.089 -1.694c -0.627 -0.517 -1.287 -0.781 -1.969 -0.781c -1.32 0 -2.09 0.891 -2.09 2.211Z "/></symbol><symbol id="gC41DFB6B59EEB5F6DB729AC735AFDB74" overflow="visible"><path d="M 0 0m 5.533 4.862c -0.187 0 -0.352 -0.033 -0.517 -0.088c -0.693 -0.231 -1.177 -0.913 -1.452 -1.54c -0.462 -1.023 -0.594 -1.441 -0.935 -2.596c -1.133 0.231 -1.705 0.748 -1.705 1.562c 0 0.737 0.517 1.804 0.88 2.222c 0.066 0.077 0.099 0.132 0.099 0.165c 0 0.099 -0.055 0.154 -0.176 0.154c -0.187 0 -0.429 -0.319 -0.726 -0.957c -0.297 -0.638 -0.451 -1.21 -0.451 -1.705c 0 -1.144 0.869 -1.87 1.87 -2.112l -0.561 -1.782c -0.044 -0.121 -0.066 -0.198 -0.066 -0.231c 0 -0.231 0.121 -0.352 0.363 -0.352c 0.209 0 0.352 0.11 0.44 0.319l 0.374 1.947c 0.121 -0.011 0.22 -0.011 0.319 -0.011c 0.902 0 1.705 0.352 2.431 1.056c 0.726 0.704 1.089 1.507 1.089 2.409c 0 0.858 -0.451 1.54 -1.276 1.54Z m 0.88 -1.782c 0 -0.693 -0.33 -1.298 -1.001 -1.815c -0.627 -0.462 -1.298 -0.693 -2.024 -0.693c -0.066 0 -0.132 0 -0.187 0.011c -0.066 0 -0.099 0 -0.099 -0.011c 0.165 0.869 0.264 1.386 0.308 1.54c 0.253 0.869 1.001 2.035 2.013 2.035c 0.616 0 0.99 -0.44 0.99 -1.067Z "/></symbol><symbol id="gF99C0212A28E75750A48E6E827328F99" overflow="visible"><path d="M 0 0m 1.16 1.4c -0.33 0 -0.49 -0.17 -0.49 -0.51c 0 -0.75 0.61 -1.11 1.4 -1.11c 0.8 0 1.44 0.4 1.91 1.21c 0.39 0.67 0.59 1.44 0.59 2.3c 0 1.27 -0.23 2.17 -0.69 2.7c -0.39 0.45 -0.84 0.67 -1.35 0.67c -0.59 0 -1.08 -0.21 -1.47 -0.64c -0.43 -0.45 -0.64 -0.99 -0.64 -1.62c 0 -0.61 0.18 -1.13 0.54 -1.56c 0.38 -0.46 0.87 -0.69 1.46 -0.69c 0.52 0 0.92 0.28 1.19 0.84v -0.13c 0 -1.09 -0.19 -1.83 -0.58 -2.23c -0.31 -0.33 -0.64 -0.49 -0.97 -0.49c -0.4 0 -0.69 0.09 -0.88 0.28c 0.31 0 0.47 0.18 0.47 0.49c 0 0.28 -0.21 0.49 -0.49 0.49Z m 1.27 1.06c -0.39 0 -0.68 0.2 -0.88 0.6c -0.11 0.23 -0.17 0.68 -0.17 1.33c 0 0.65 0.07 1.09 0.2 1.34c 0.22 0.4 0.54 0.6 0.95 0.6c 0.41 0 0.71 -0.25 0.9 -0.75c 0.11 -0.27 0.18 -0.73 0.18 -1.38c 0 -0.87 -0.39 -1.74 -1.18 -1.74Z "/></symbol><symbol id="gAA84A9423BA34B701FF3D1FC1A0341B9" overflow="visible"><path d="M 0 0m 2.49 -0.22c 1.41 0 2.11 1.14 2.11 3.42c 0 1.53 -0.32 2.55 -0.95 3.05c -0.35 0.27 -0.74 0.41 -1.15 0.41c -1.41 0 -2.11 -1.15 -2.11 -3.46c 0 -1.84 0.49 -3.42 2.1 -3.42Z m 1.12 5.46c 0.07 -0.35 0.1 -0.99 0.1 -1.92c 0 -0.92 -0.04 -1.6 -0.11 -2.04c -0.13 -0.8 -0.5 -1.2 -1.11 -1.2c -0.23 0 -0.46 0.09 -0.67 0.26c -0.27 0.23 -0.43 0.7 -0.5 1.42c -0.03 0.25 -0.04 0.77 -0.04 1.56c 0 0.87 0.03 1.48 0.08 1.81c 0.09 0.55 0.27 0.9 0.55 1.05c 0.22 0.12 0.41 0.18 0.58 0.18c 0.65 0 1.01 -0.53 1.12 -1.12Z "/></symbol><symbol id="g9260F1513A660D7C61BD1276714DE26C" overflow="visible"><path d="M 0 0m 3.26 5.44c 0 0.77 -0.61 1.39 -1.38 1.39c -0.77 0 -1.39 -0.62 -1.39 -1.39c 0 -0.77 0.62 -1.38 1.39 -1.38c 0.75 0 1.38 0.63 1.38 1.38Z m -0.47 0c 0 -0.5 -0.41 -0.91 -0.91 -0.91c -0.51 0 -0.92 0.4 -0.92 0.91c 0 0.52 0.4 0.92 0.92 0.92c 0.51 0 0.91 -0.41 0.91 -0.92Z "/></symbol><symbol id="gE8ADFB55DBC888FEFF5896D44F418AFF" overflow="visible"><path d="M 0 0m 6.98 2.7h -6.18c -0.16 0 -0.24 -0.07 -0.24 -0.2c 0 -0.13 0.08 -0.2 0.24 -0.2h 6.18c 0.16 0 0.24 0.07 0.24 0.2c 0 0.12 -0.12 0.2 -0.24 0.2Z "/></symbol><symbol id="g394A39A6D6B64E0031935B8E6A2FCE71" overflow="visible"><path d="M 0 0m 5.03 4.42c -0.17 0 -0.32 -0.03 -0.47 -0.08c -0.63 -0.21 -1.07 -0.83 -1.32 -1.4c -0.42 -0.93 -0.54 -1.31 -0.85 -2.36c -1.03 0.21 -1.55 0.68 -1.55 1.42c 0 0.67 0.47 1.64 0.8 2.02c 0.06 0.07 0.09 0.12 0.09 0.15c 0 0.09 -0.05 0.14 -0.16 0.14c -0.17 0 -0.39 -0.29 -0.66 -0.87c -0.27 -0.58 -0.41 -1.1 -0.41 -1.55c 0 -1.04 0.79 -1.7 1.7 -1.92l -0.51 -1.62c -0.04 -0.11 -0.06 -0.18 -0.06 -0.21c 0 -0.21 0.11 -0.32 0.33 -0.32c 0.19 0 0.32 0.1 0.4 0.29l 0.34 1.77c 0.11 -0.01 0.2 -0.01 0.29 -0.01c 0.82 0 1.55 0.32 2.21 0.96c 0.66 0.64 0.99 1.37 0.99 2.19c 0 0.78 -0.41 1.4 -1.16 1.4Z m 0.8 -1.62c 0 -0.63 -0.3 -1.18 -0.91 -1.65c -0.57 -0.42 -1.18 -0.63 -1.84 -0.63c -0.06 0 -0.12 0 -0.17 0.01c -0.06 0 -0.09 0 -0.09 -0.01c 0.15 0.79 0.24 1.26 0.28 1.4c 0.23 0.79 0.91 1.85 1.83 1.85c 0.56 0 0.9 -0.4 0.9 -0.97Z "/></symbol><symbol id="g5F2B105DCE44482CD07DFE0B4651B637" overflow="visible"><path d="M 0 0m 4.311 2.763c 0 0.747 0.099 0.774 0.648 0.819c 0.054 0.054 0.054 0.243 0 0.297c -0.315 -0.018 -0.711 -0.018 -1.008 -0.018c -0.252 0 -0.612 0.009 -0.963 0.018c -0.054 -0.054 -0.054 -0.243 0 -0.297c 0.549 -0.036 0.612 -0.072 0.612 -0.819v -0.585h -1.926v 0.585c 0 0.747 0.063 0.774 0.612 0.819c 0.054 0.054 0.054 0.243 0 0.297c -0.342 -0.009 -0.684 -0.018 -0.972 -0.018c -0.27 0 -0.639 0.009 -0.999 0.018c -0.054 -0.054 -0.054 -0.243 0 -0.297c 0.549 -0.036 0.648 -0.072 0.648 -0.819v -1.665c 0 -0.747 -0.099 -0.774 -0.648 -0.819c -0.054 -0.054 -0.054 -0.243 0 -0.297c 0.36 0.009 0.72 0.018 1.008 0.018c 0.288 0 0.639 -0.009 0.963 -0.018c 0.054 0.054 0.054 0.243 0 0.297c -0.549 0.036 -0.612 0.072 -0.612 0.819v 0.783h 1.926v -0.783c 0 -0.747 -0.063 -0.774 -0.612 -0.819c -0.054 -0.054 -0.054 -0.243 0 -0.297c 0.324 0.009 0.657 0.018 0.972 0.018c 0.27 0 0.648 -0.009 0.999 -0.018c 0.054 0.054 0.054 0.243 0 0.297c -0.549 0.036 -0.648 0.072 -0.648 0.819Z "/></symbol><symbol id="gF7AD5B3248F8366898BA115B8D318C4E" overflow="visible"><path d="M 0 0m 2.637 0.432c 0.054 -0.279 0.153 -0.522 0.603 -0.522c 0.342 0 0.666 0.153 0.855 0.333c -0.018 0.108 -0.054 0.189 -0.153 0.243c -0.063 -0.054 -0.216 -0.144 -0.333 -0.144c -0.261 0 -0.27 0.351 -0.27 0.765v 1.323c 0 1.278 -0.702 1.521 -1.359 1.521c -0.738 0 -1.485 -0.486 -1.485 -0.999c 0 -0.216 0.108 -0.324 0.315 -0.324c 0.261 0 0.423 0.189 0.423 0.306c 0 0.063 -0.009 0.126 -0.027 0.162c -0.009 0.027 -0.018 0.081 -0.018 0.18c 0 0.279 0.378 0.378 0.72 0.378c 0.306 0 0.729 -0.153 0.729 -1.17c 0 -0.063 -0.027 -0.099 -0.054 -0.108l -0.774 -0.189c -0.864 -0.216 -1.485 -0.693 -1.485 -1.305c 0 -0.738 0.504 -0.972 1.134 -0.972c 0.315 0 0.585 0.072 0.981 0.378l 0.18 0.144Z m 0 1.665v -1.188c 0 -0.117 -0.054 -0.18 -0.126 -0.234c -0.234 -0.189 -0.54 -0.396 -0.792 -0.396c -0.45 0 -0.648 0.36 -0.648 0.639c 0 0.405 0.189 0.819 0.855 0.99Z "/></symbol><symbol id="g9C9C9262F30302871979B086E3504457" overflow="visible"><path d="M 0 0m 0.306 2.313c 0 -1.701 0.981 -2.403 1.854 -2.403c 1.233 0 1.944 0.918 1.944 2.052c 0 0.972 -0.54 1.989 -1.809 1.989c -0.855 0 -1.377 -0.504 -1.575 -0.936l -0.018 0.018c 0.036 0.468 0.18 1.044 0.315 1.278c 0.288 0.495 0.63 0.522 1.458 0.612c 0.81 0.09 1.386 0.351 1.467 1.359c -0.063 0.027 -0.126 0.036 -0.198 0c -0.072 -0.432 -0.549 -0.549 -1.305 -0.666c -0.729 -0.117 -1.341 -0.369 -1.719 -1.08c -0.324 -0.612 -0.414 -1.368 -0.414 -2.223Z m 0.774 -0.234c 0 0.504 0.18 1.557 1.116 1.557c 0.702 0 1.134 -0.81 1.134 -1.89c 0 -1.134 -0.522 -1.521 -1.008 -1.521c -0.657 0 -1.242 0.855 -1.242 1.854Z "/></symbol><symbol id="gB118266EF18AECCCCEF724ECE6F3D1D3" overflow="visible"><path d="M 0 0m 3.762 1.098v 1.665c 0 0.738 0.117 0.783 0.612 0.819c 0.054 0.054 0.054 0.243 0 0.297c -0.27 -0.009 -0.612 -0.018 -0.972 -0.018h -1.701c -0.297 0 -0.648 0.009 -0.918 0.018c -0.054 -0.054 -0.054 -0.243 0 -0.297c 0.639 -0.045 0.729 -0.099 0.729 -1.071c 0 -0.945 -0.072 -1.44 -0.198 -1.809c -0.117 -0.324 -0.27 -0.441 -0.423 -0.441c -0.117 0 -0.153 0.072 -0.171 0.189c -0.027 0.171 -0.081 0.342 -0.333 0.342c -0.225 0 -0.351 -0.18 -0.351 -0.378c 0 -0.279 0.252 -0.522 0.666 -0.522c 0.459 0 0.711 0.234 0.918 0.72c 0.18 0.432 0.234 1.35 0.234 1.962c 0 0.702 0.027 0.936 0.387 0.936h 0.405c 0.342 0 0.405 -0.216 0.405 -0.522v -1.89c 0 -0.738 -0.09 -0.783 -0.558 -0.819c -0.045 -0.054 -0.045 -0.243 0 -0.297c 0.225 0.009 0.558 0.018 0.918 0.018c 0.36 0 0.765 -0.009 1.017 -0.018c 0.045 0.054 0.045 0.243 0 0.297c -0.585 0.036 -0.666 0.081 -0.666 0.819Z "/></symbol><symbol id="gE910E7524AAA5201D690B7EBF26D2697" overflow="visible"><path d="M 0 0m 1.674 2.133v 0.63c 0 0.747 0.099 0.774 0.648 0.819c 0.054 0.054 0.054 0.243 0 0.297c -0.306 -0.009 -0.612 -0.018 -1.008 -0.018c -0.387 0 -0.702 0.009 -0.999 0.018c -0.054 -0.054 -0.054 -0.243 0 -0.297c 0.549 -0.036 0.648 -0.072 0.648 -0.819v -1.665c 0 -0.747 -0.099 -0.774 -0.648 -0.819c -0.054 -0.054 -0.054 -0.243 0 -0.297c 0.297 0.009 0.612 0.018 1.008 0.018c 0.387 0 0.711 -0.009 0.999 -0.018c 0.054 0.054 0.054 0.243 0 0.297c -0.549 0.036 -0.648 0.072 -0.648 0.819v 0.684h 0.927c 0.018 -0.909 0.585 -1.872 1.8 -1.872c 1.323 0 1.818 1.143 1.818 2.043c 0 0.936 -0.441 1.998 -1.809 1.998c -1.089 0 -1.701 -0.747 -1.8 -1.818Z m 2.646 1.503c 0.738 0 1.125 -0.657 1.125 -1.971c 0 -1.188 -0.495 -1.44 -0.882 -1.44c -0.891 0 -1.188 1.116 -1.188 1.809c 0 0.783 0.243 1.602 0.945 1.602Z "/></symbol><symbol id="gBA3E9C2E61A84E296B252679103E17C4" overflow="visible"><path d="M 0 0m 1.701 3.861c -0.297 0 -0.648 0.009 -0.918 0.018c -0.054 -0.054 -0.054 -0.243 0 -0.297c 0.549 -0.045 0.711 -0.081 0.675 -0.828c -0.036 -0.828 -0.18 -1.494 -0.333 -2.124c -0.054 -0.243 -0.315 -0.324 -0.567 -0.351c -0.135 -0.018 -0.261 -0.072 -0.27 -0.234l -0.054 -1.197c 0.063 -0.027 0.135 -0.036 0.243 -0.009c 0.081 0.333 0.324 1.161 1.134 1.161h 1.557c 0.801 0 1.062 -0.81 1.143 -1.17c 0.081 -0.018 0.162 -0.018 0.252 0.018l -0.054 1.206c 0 0.126 -0.072 0.198 -0.243 0.225c -0.162 0.027 -0.387 0.09 -0.387 0.423v 2.061c 0 0.738 0.117 0.783 0.612 0.819c 0.054 0.054 0.054 0.243 0 0.297c -0.27 -0.009 -0.612 -0.018 -0.972 -0.018Z m -0.252 -3.402c 0 0.153 0.243 0.747 0.378 2.808c 0.009 0.135 0.072 0.252 0.315 0.252h 0.621c 0.36 0 0.405 -0.252 0.405 -0.558v -2.169c 0 -0.297 -0.018 -0.441 -0.378 -0.441h -1.161c -0.099 0 -0.18 0.009 -0.18 0.108Z "/></symbol><symbol id="g611C332DF318E3AAFADBD04F1094DD79" overflow="visible"><path d="M 0 0m 1.638 1.098c 0 -0.747 -0.099 -0.792 -0.648 -0.819c -0.054 -0.054 -0.054 -0.243 0 -0.297c 0.351 0.009 0.711 0.018 1.008 0.018c 0.306 0 0.657 -0.009 0.999 -0.018c 0.054 0.054 0.054 0.243 0 0.297c -0.549 0.027 -0.648 0.072 -0.648 0.819v 2.43h 0.153c 0.729 0 0.873 -0.252 1.026 -0.981c 0.117 0 0.234 0.036 0.234 0.036c -0.054 0.414 -0.09 0.81 -0.099 1.332c -0.207 -0.018 -0.882 -0.054 -1.332 -0.054h -0.675c -0.45 0 -0.954 0.027 -1.314 0.054c -0.009 -0.522 -0.045 -0.918 -0.108 -1.332c 0 0 0.126 -0.036 0.243 -0.036c 0.153 0.729 0.288 0.981 1.026 0.981h 0.135Z "/></symbol><symbol id="gD351E21AD091924D522A6D2D6355C932" overflow="visible"><path d="M 0 0m 3.474 0.837c -0.333 -0.342 -0.594 -0.486 -1.116 -0.486c -0.324 0 -0.702 0.189 -0.981 0.648c -0.18 0.297 -0.288 0.711 -0.288 1.233l 2.394 -0.018c 0.108 0 0.171 0.054 0.171 0.153c 0 0.756 -0.27 1.566 -1.521 1.566c -0.783 0 -1.8 -0.747 -1.8 -2.115c 0 -0.504 0.126 -0.99 0.423 -1.332c 0.306 -0.36 0.729 -0.576 1.377 -0.576c 0.684 0 1.17 0.315 1.53 0.783c -0.027 0.09 -0.081 0.135 -0.189 0.144Z m -2.358 1.701c 0.171 1.017 0.801 1.098 1.017 1.098c 0.342 0 0.747 -0.189 0.747 -0.945c 0 -0.081 -0.036 -0.126 -0.135 -0.126Z "/></symbol><symbol id="g1F6C67A5839963BD6478B8393FDBF84B" overflow="visible"><path d="M 0 0m 1.674 2.754c 0 0.756 0.099 0.783 0.648 0.828c 0.054 0.054 0.054 0.243 0 0.297c -0.306 -0.009 -0.612 -0.018 -1.008 -0.018c -0.387 0 -0.702 0.009 -0.999 0.018c -0.054 -0.054 -0.054 -0.243 0 -0.297c 0.549 -0.036 0.648 -0.072 0.648 -0.819v -1.665c 0 -0.747 -0.099 -0.774 -0.648 -0.819c -0.054 -0.054 -0.054 -0.243 0 -0.297c 0.297 0.009 0.612 0.018 1.008 0.018c 0.369 0 0.567 -0.018 0.936 -0.018c 1.107 0 1.71 0.279 1.71 1.242c 0 0.846 -0.738 1.089 -1.647 1.089h -0.648Z m 1.521 -1.62c 0 -0.738 -0.45 -0.855 -0.927 -0.855c -0.441 0 -0.594 0.09 -0.594 0.405v 1.332h 0.639c 0.675 0 0.882 -0.405 0.882 -0.882Z "/></symbol><symbol id="g2A97175FDC9931E5FE26D203D69696BC" overflow="visible"><path d="M 0 0m 4.689 5.805h -3.375c -0.207 0 -0.711 0.009 -1.161 0.018c -0.054 -0.054 -0.054 -0.243 0 -0.297c 0.63 -0.027 0.783 -0.072 0.783 -0.819v -3.609c 0 -0.747 -0.153 -0.792 -0.783 -0.819c -0.054 -0.054 -0.054 -0.243 0 -0.297c 0.351 0.009 0.81 0.018 1.17 0.018c 0.342 0 0.801 -0.009 1.161 -0.018c 0.054 0.054 0.054 0.243 0 0.297c -0.63 0.027 -0.783 0.072 -0.783 0.819v 3.681c 0 0.558 0.198 0.666 0.414 0.666h 1.773c 0.216 0 0.414 -0.108 0.414 -0.666v -3.681c 0 -0.747 -0.153 -0.792 -0.783 -0.819c -0.054 -0.054 -0.054 -0.243 0 -0.297c 0.342 0.009 0.837 0.018 1.161 0.018c 0.351 0 0.828 -0.009 1.17 -0.018c 0.054 0.054 0.054 0.243 0 0.297c -0.63 0.027 -0.783 0.072 -0.783 0.819v 3.609c 0 0.747 0.153 0.792 0.783 0.819c 0.054 0.054 0.054 0.243 0 0.297c -0.45 -0.009 -0.918 -0.018 -1.161 -0.018Z "/></symbol><symbol id="g7253BD4F4A12C91ABC7B03558525FA66" overflow="visible"><path d="M 0 0m 0.369 1.845c 0 -0.918 0.612 -1.935 1.89 -1.935c 0.576 0 1.017 0.207 1.323 0.504c 0.405 0.396 0.585 0.963 0.585 1.512c 0 0.936 -0.513 2.025 -1.89 2.025c -0.594 0 -1.08 -0.243 -1.413 -0.63c -0.324 -0.387 -0.495 -0.909 -0.495 -1.476Z m 1.773 1.791c 0.774 0 1.251 -0.702 1.251 -1.998c 0 -1.134 -0.585 -1.413 -1.008 -1.413c -0.936 0 -1.242 1.134 -1.242 1.827c 0 0.783 0.189 1.584 0.999 1.584Z "/></symbol><symbol id="gCC8431763A18574B9D70D89AC0A75466" overflow="visible"><path d="M 0 0m 1.026 0c 0.252 0.009 0.342 0.243 0.45 0.567c 0.234 0.711 0.495 1.152 0.945 1.152h 0.234v -0.621c 0 -0.747 -0.099 -0.774 -0.648 -0.819c -0.054 -0.054 -0.054 -0.243 0 -0.297c 0.297 0.009 0.612 0.018 1.008 0.018c 0.387 0 0.711 -0.009 0.999 -0.018c 0.054 0.054 0.054 0.243 0 0.297c -0.549 0.036 -0.648 0.072 -0.648 0.819v 1.665c 0 0.747 0.099 0.774 0.648 0.819c 0.054 0.054 0.054 0.243 0 0.297c -0.306 -0.009 -0.612 -0.018 -1.008 -0.018c -0.306 0 -0.567 0.018 -0.792 0.018c -1.575 0 -1.71 -0.648 -1.71 -1.134c 0 -0.585 0.45 -0.882 1.116 -0.909c 0.027 0 0.027 -0.027 0.018 -0.036c -0.342 -0.099 -0.495 -0.288 -0.648 -0.621c -0.099 -0.207 -0.18 -0.405 -0.225 -0.522c -0.117 -0.306 -0.27 -0.36 -0.621 -0.378c -0.054 -0.054 -0.054 -0.243 0 -0.297c 0.18 0.009 0.882 0.018 0.882 0.018Z m 0.252 2.889c 0 0.423 0.135 0.693 0.864 0.693c 0.369 0 0.513 -0.162 0.513 -0.504v -1.053h -0.63c -0.54 0 -0.747 0.414 -0.747 0.864Z "/></symbol><symbol id="g4AD90A9068D018AD3CEC8FD5EA9519DC" overflow="visible"><path d="M 0 0m 1.404 3.312c -0.009 0.27 -0.027 0.504 -0.072 0.594c -0.018 0.045 -0.036 0.072 -0.108 0.072c -0.252 -0.099 -0.486 -0.18 -1.107 -0.261c -0.018 -0.054 0 -0.198 0.018 -0.252c 0.486 -0.045 0.585 -0.09 0.585 -0.612v -3.843c 0 -0.747 -0.099 -0.792 -0.648 -0.819c -0.054 -0.054 -0.054 -0.243 0 -0.297c 0.315 0.009 0.648 0.018 1.008 0.018c 0.36 0 0.792 -0.009 1.089 -0.018c 0.054 0.054 0.054 0.243 0 0.297c -0.639 0.036 -0.738 0.072 -0.738 0.819v 0.972c 0 0.117 0.036 0.108 0.126 0.072c 0.225 -0.09 0.495 -0.144 0.783 -0.144c 0.504 0 0.954 0.153 1.323 0.504c 0.423 0.414 0.666 0.972 0.666 1.701c 0 0.954 -0.675 1.836 -1.593 1.836c -0.414 0 -0.873 -0.27 -1.233 -0.675c -0.054 -0.054 -0.09 -0.054 -0.099 0.036Z m 0.171 -0.333c 0.234 0.288 0.648 0.558 0.909 0.558c 0.576 0 1.071 -0.648 1.071 -1.665c 0 -0.738 -0.261 -1.656 -1.269 -1.656c -0.162 0 -0.477 0.045 -0.639 0.189c -0.18 0.162 -0.216 0.216 -0.216 0.54v 1.638c 0 0.189 0.036 0.27 0.144 0.396Z "/></symbol><symbol id="gFFF6E9B9A983FEBF7FB8DCFB305974E9" overflow="visible"><path d="M 0 0m 1.836 -1.44c 0.144 0.252 0.261 0.504 0.369 0.774c 0.72 1.737 1.125 2.664 1.593 3.672c 0.18 0.378 0.306 0.522 0.729 0.576c 0.054 0.054 0.054 0.243 0 0.297c -0.18 -0.009 -0.387 -0.018 -0.639 -0.018c -0.27 0 -0.549 0.009 -0.819 0.018c -0.054 -0.054 -0.054 -0.243 0 -0.297c 0.288 -0.027 0.576 -0.081 0.432 -0.405l -0.891 -2.061c -0.063 -0.144 -0.144 -0.171 -0.216 0.009l -0.801 1.872c -0.162 0.378 -0.207 0.549 0.297 0.585c 0.054 0.054 0.054 0.243 0 0.297c -0.333 -0.009 -0.693 -0.018 -1.017 -0.018c -0.306 0 -0.549 0.009 -0.729 0.018c -0.054 -0.054 -0.054 -0.243 0 -0.297c 0.36 -0.045 0.477 -0.126 0.711 -0.675l 1.017 -2.367c 0.081 -0.18 0.216 -0.594 0.126 -0.846c -0.108 -0.297 -0.216 -0.549 -0.351 -0.828c -0.099 -0.18 -0.225 -0.261 -0.45 -0.261c -0.126 0 -0.162 0.027 -0.261 0.027c -0.261 0 -0.396 -0.27 -0.396 -0.387c 0 -0.189 0.18 -0.333 0.423 -0.333c 0.189 0 0.549 0.072 0.873 0.648Z "/></symbol><symbol id="g7815E2C79248546AAEE49EC7F57ADD4E" overflow="visible"><path d="M 0 0m 3.582 0.819c -0.036 0.081 -0.108 0.117 -0.189 0.126c -0.306 -0.396 -0.693 -0.594 -1.08 -0.594c -0.657 0 -1.206 0.666 -1.206 1.719c 0 0.99 0.432 1.584 1.026 1.584c 0.531 0 0.603 -0.315 0.639 -0.63c 0.027 -0.243 0.153 -0.324 0.342 -0.324c 0.189 0 0.441 0.117 0.441 0.396c 0 0.495 -0.513 0.855 -1.377 0.855c -0.891 0 -1.845 -0.801 -1.845 -2.079c 0 -1.161 0.648 -1.962 1.782 -1.962c 0.54 0 1.017 0.171 1.467 0.909Z "/></symbol><symbol id="g82C799C01D06EF19E125C6F4348D75CA" overflow="visible"><path d="M 0 0m 1.053 2.754l -0.054 -1.674c -0.027 -0.756 -0.162 -0.774 -0.684 -0.801c -0.054 -0.054 -0.054 -0.243 0 -0.297c 0.18 0.009 0.63 0.018 0.774 0.018c 0.18 0 0.603 -0.009 0.783 -0.018c 0.054 0.054 0.054 0.243 0 0.297c -0.513 0.036 -0.549 0.126 -0.531 0.801l 0.063 2.205c 0 0.081 0.036 0.081 0.072 0l 1.305 -3.186c 0.036 -0.027 0.072 -0.027 0.099 0l 1.476 3.177c 0.045 0.099 0.09 0.108 0.09 0l -0.009 -2.178c 0 -0.747 -0.063 -0.774 -0.612 -0.819c -0.054 -0.054 -0.054 -0.243 0 -0.297c 0.324 0.009 0.657 0.018 0.972 0.018c 0.27 0 0.657 -0.009 1.008 -0.018c 0.054 0.054 0.054 0.243 0 0.297c -0.549 0.036 -0.648 0.072 -0.648 0.819l -0.018 1.665c -0.009 0.747 0.099 0.774 0.648 0.819c 0.054 0.054 0.054 0.243 0 0.297c -0.315 -0.018 -1.188 -0.018 -1.485 -0.018l -1.197 -2.574l -0.045 -0.09l -0.036 0.09l -1.053 2.574c -0.297 0 -1.251 0 -1.566 0.018c -0.054 -0.054 -0.054 -0.243 0 -0.297c 0.549 -0.045 0.675 -0.081 0.648 -0.828Z "/></symbol><symbol id="g6EA5A1981697E2B5E95285C58F7F7AD0" overflow="visible"><path d="M 0 0m 1.782 0.567c -0.027 0 -0.063 0.018 -0.063 0.108v 2.052c 0 0.747 0.189 0.828 0.648 0.855c 0.054 0.054 0.054 0.243 0 0.297c -0.207 -0.009 -0.72 -0.018 -1.053 -0.018c -0.297 0 -0.657 0.009 -0.999 0.018c -0.054 -0.054 -0.054 -0.243 0 -0.297c 0.549 -0.027 0.693 -0.108 0.693 -0.855v -1.593c 0 -0.747 -0.144 -0.828 -0.693 -0.855c -0.054 -0.054 -0.054 -0.243 0 -0.297c 0.351 0.009 0.711 0.018 0.999 0.018c 0.207 0 0.45 -0.009 0.549 -0.018c 0.045 0.126 0.126 0.306 0.225 0.486l 1.404 2.817c 0.027 0 0.063 -0.018 0.063 -0.108v -2.043c 0 -0.747 -0.189 -0.828 -0.648 -0.855c -0.054 -0.054 -0.054 -0.243 0 -0.297c 0.207 0.009 0.693 0.018 1.053 0.018c 0.279 0 0.648 -0.009 0.999 -0.018c 0.054 0.054 0.054 0.243 0 0.297c -0.549 0.027 -0.693 0.108 -0.693 0.855v 1.593c 0 0.747 0.144 0.828 0.693 0.855c 0.054 0.054 0.054 0.243 0 0.297c -0.36 -0.009 -0.72 -0.018 -0.999 -0.018c -0.198 0 -0.45 0.009 -0.54 0.018c -0.072 -0.162 -0.153 -0.351 -0.234 -0.504Z "/></symbol><symbol id="gA5834380700F55B3689219A2CC4667E3" overflow="visible"><path d="M 0 0m 3.933 3.861h -2.556c -0.36 0 -0.702 0.009 -0.972 0.018c -0.054 -0.054 -0.054 -0.243 0 -0.297c 0.495 -0.036 0.612 -0.081 0.612 -0.819v -1.665c 0 -0.738 -0.117 -0.783 -0.702 -0.819c -0.054 -0.054 -0.054 -0.243 0 -0.297c 0.27 0.009 0.702 0.018 1.062 0.018c 0.36 0 0.63 -0.009 0.9 -0.018c 0.054 0.054 0.054 0.243 0 0.297c -0.459 0.045 -0.549 0.081 -0.549 0.819v 1.953c 0 0.279 0.027 0.459 0.378 0.459h 1.089c 0.333 0 0.387 -0.099 0.387 -0.459v -1.953c 0 -0.738 -0.09 -0.783 -0.558 -0.819c -0.045 -0.054 -0.045 -0.243 0 -0.297c 0.225 0.009 0.558 0.018 0.918 0.018c 0.36 0 0.765 -0.009 1.017 -0.018c 0.045 0.054 0.045 0.243 0 0.297c -0.585 0.036 -0.666 0.081 -0.666 0.819v 1.665c 0 0.738 0.117 0.783 0.612 0.819c 0.054 0.054 0.054 0.243 0 0.297c -0.27 -0.009 -0.612 -0.018 -0.972 -0.018Z "/></symbol><symbol id="gAE9E23F53692F92B7B295E455DF99330" overflow="visible"><path d="M 0 0m 3.474 0c 0 0 0.702 -0.009 0.882 -0.018c 0.054 0.054 0.054 0.243 0 0.297c -0.351 0.018 -0.423 0.09 -0.576 0.378l -0.405 0.765c -0.225 0.423 -0.54 0.639 -1.053 0.639v 0.027c 0.351 0.099 0.504 0.414 0.639 0.774c 0.108 0.279 0.216 0.45 0.405 0.45c 0.081 0 0.153 -0.027 0.207 -0.063c 0.054 -0.036 0.153 -0.063 0.27 -0.063c 0.198 0 0.36 0.171 0.36 0.351c 0 0.198 -0.216 0.405 -0.513 0.405c -0.522 0 -0.765 -0.486 -0.936 -0.909c -0.198 -0.495 -0.441 -0.837 -1.08 -0.837v 0.567c 0 0.747 0.099 0.774 0.558 0.819c 0.054 0.054 0.054 0.243 0 0.297c -0.216 -0.009 -0.558 -0.018 -0.918 -0.018c -0.387 0 -0.702 0.009 -0.999 0.018c -0.054 -0.054 -0.054 -0.243 0 -0.297c 0.549 -0.036 0.648 -0.072 0.648 -0.819v -1.665c 0 -0.747 -0.099 -0.774 -0.648 -0.819c -0.054 -0.054 -0.054 -0.243 0 -0.297c 0.297 0.009 0.612 0.018 1.008 0.018c 0.351 0 0.711 -0.009 0.909 -0.018c 0.054 0.054 0.054 0.243 0 0.297c -0.459 0.036 -0.558 0.072 -0.558 0.819v 0.783c 0.612 -0.036 0.774 -0.279 0.936 -0.612l 0.387 -0.81c 0.117 -0.243 0.297 -0.45 0.477 -0.459Z "/></symbol><symbol id="g1F9714CC671652C524E18E6C36ACD39E" overflow="visible"><path d="M 0 0m 0.423 0.738c 0 -0.477 0.675 -0.828 1.539 -0.828c 0.936 0 1.8 0.63 1.8 2.079c 0 1.089 -0.495 1.962 -1.809 1.962c -0.45 0 -0.918 -0.135 -1.386 -0.171c -0.045 -0.342 -0.063 -0.711 -0.081 -1.08c 0.072 -0.045 0.144 -0.054 0.234 -0.036c 0.162 0.576 0.459 0.972 1.161 0.972c 0.756 0 1.125 -0.738 1.125 -1.566l -0.027 -0.018c -0.243 0.144 -0.495 0.252 -0.774 0.252c -0.207 0 -0.387 -0.063 -0.549 -0.135c -0.144 -0.063 -0.288 -0.117 -0.45 -0.117c -0.126 0 -0.243 0.054 -0.306 0.054c -0.054 0 -0.072 -0.09 -0.072 -0.126c 0 -0.126 0.441 -0.288 0.846 -0.288c 0.216 0 0.378 0.045 0.522 0.108c 0.126 0.054 0.261 0.09 0.432 0.09c 0.126 0 0.243 -0.036 0.36 -0.081c 0 -1.071 -0.333 -1.584 -1.134 -1.584c -0.378 0 -0.594 0.198 -0.711 0.441c -0.135 0.288 -0.261 0.333 -0.423 0.333c -0.171 0 -0.297 -0.117 -0.297 -0.261Z "/></symbol><symbol id="g6F3F83F8220F4B0FE27ED35A349BC8A6" overflow="visible"><path d="M 0 0m 1.314 3.861c -0.387 0 -0.702 0.009 -0.999 0.018c -0.054 -0.054 -0.054 -0.243 0 -0.297c 0.549 -0.036 0.648 -0.072 0.648 -0.819v -1.665c 0 -0.747 -0.099 -0.774 -0.648 -0.819c -0.054 -0.054 -0.054 -0.243 0 -0.297c 0.297 0.009 0.612 0.018 1.008 0.018c 0.333 0 0.63 -0.018 1.233 -0.018c 0.774 0 1.359 0.216 1.359 1.107c 0 0.504 -0.315 0.855 -0.864 0.954v 0.027c 0.414 0.081 0.729 0.369 0.729 0.909c 0 0.63 -0.387 0.9 -1.476 0.9c -0.369 0 -0.603 -0.018 -0.99 -0.018Z m 0.36 -1.908h 0.684c 0.549 0 0.783 -0.36 0.783 -0.9c 0 -0.603 -0.342 -0.774 -0.828 -0.774c -0.468 0 -0.639 0.081 -0.639 0.495Z m 0 0.261v 1.044c 0 0.27 0.207 0.324 0.639 0.324c 0.468 0 0.747 -0.126 0.747 -0.666c 0 -0.36 -0.234 -0.702 -0.792 -0.702Z "/></symbol></defs></svg>