<svg viewBox="0 0 183.423727864 202.015177165" width="183.423727864pt" height="202.015177165pt" xmlns="http://www.w3.org/2000/svg" xmlns:xlink="http://www.w3.org/1999/xlink" xmlns:h5="http://www.w3.org/1999/xhtml"><path fill="#ffffff" fill-rule="nonzero" d="M 0 0v 202.015177165h 183.423727864v -202.015177165Z "/><g transform="translate(8 8)"><path fill="none" stroke="#1a1a18" stroke-width="0.6" stroke-linecap="butt" stroke-linejoin="miter" stroke-miterlimit="4" transform="translate(20.068417107 39.264596135)" d="M 0 0m 147.355310757 70.87308103c -29.792011548 -51.60127766 -88.676502857 -79.059566904 -147.355310757 -68.712909876"/><path fill="none" stroke="#1a1a18" stroke-width="0.6" stroke-linecap="butt" stroke-linejoin="miter" stroke-miterlimit="4" transform="translate(44.679969816 13.759724409)" d="M 0 0m 0 167.244094488v -167.244094488"/><path fill="none" stroke="#1a1a18" stroke-width="0.6" stroke-linecap="butt" stroke-linejoin="miter" stroke-miterlimit="4" transform="translate(44.679969816 60.891714267)" d="M 0 0m 0 120.112104631l 75.240431267 -120.112104631"/><path fill="none" stroke="#1a1a18" stroke-width="0.6" stroke-linecap="butt" stroke-linejoin="miter" stroke-miterlimit="4" transform="translate(44.679969816 13.759724409)" d="M 0 0l 75.240431267 47.131989857"/><path fill="none" stroke="#1a1a18" stroke-width="0.6" stroke-linecap="butt" stroke-linejoin="miter" stroke-miterlimit="4" transform="translate(106.636428642 55.775364941)" d="M 0 0m 8.167623115 13.283972441l -8.167623115 -5.116349326l 5.116349326 -8.167623115"/><path fill="#1a1a18" fill-rule="nonzero" transform="translate(43.262646982 179.586496063)" d="M 0 0m 1.417322835 0c -0.782056063 0 -1.417322835 0.635266772 -1.417322835 1.417322835c 0 0.782056063 0.635266772 1.417322835 1.417322835 1.417322835c 0.782056063 0 1.417322835 -0.635266772 1.417322835 -1.417322835c 0 -0.782056063 -0.635266772 -1.417322835 -1.417322835 -1.417322835Z "/><path fill="#1a1a18" fill-rule="nonzero" transform="translate(43.262646982 12.342401575)" d="M 0 0m 1.417322835 0c -0.782056063 0 -1.417322835 0.635266772 -1.417322835 1.417322835c 0 0.782056063 0.635266772 1.417322835 1.417322835 1.417322835c 0.782056063 0 1.417322835 -0.635266772 1.417322835 -1.417322835c 0 -0.782056063 -0.635266772 -1.417322835 -1.417322835 -1.417322835Z "/><path fill="#1a1a18" fill-rule="nonzero" transform="translate(118.503078248 59.474391432)" d="M 0 0m 1.417322835 0c -0.782056063 0 -1.417322835 0.635266772 -1.417322835 1.417322835c 0 0.782056063 0.635266772 1.417322835 1.417322835 1.417322835c 0.782056063 0 1.417322835 -0.635266772 1.417322835 -1.417322835c 0 -0.782056063 -0.635266772 -1.417322835 -1.417322835 -1.417322835Z "/><path fill="none" transform="translate(30.818174541 178.260177165)" d="M 0 0h 8.448v 7.755h -8.448v -7.755Z "/><g transform="translate(30.818174493 178.260177118)"><g transform="matrix(1 0 0 -1 0 7.513)"><use xlink:href="#g93668732B0E42348DDA57839D5743AC6" x="0" y="0" fill="#1a1a18" fill-rule="nonzero"/></g></g><path fill="none" transform="translate(0 101.864208661)" d="M 0 0h 27.105166667v 8.043h -27.105166667v -8.043Z "/><g transform="translate(-5.2e-8 101.864208614)"><g transform="matrix(1 0 0 -1 0 7.1715)"><use xlink:href="#g7A632304A111DAC694938D7694E89F12" x="0" y="0" fill="#1a1a18" fill-rule="nonzero"/></g><g transform="matrix(1 0 0 -1 10.554833333 7.1715)"><use xlink:href="#g2E528393F503661DFA479F53C57DA451" x="0" y="0" fill="#1a1a18" fill-rule="nonzero"/></g><g transform="matrix(1 0 0 -1 21.057166667 7.1715)"><use xlink:href="#g5AE4271B2AE72882168BC0303969520F" x="0" y="0" fill="#1a1a18" fill-rule="nonzero"/></g></g><path fill="none" transform="translate(53.183906824 22.872129921)" d="M 0 0h 6.048v 7.287h -6.048v -7.287Z "/><g transform="translate(53.183906824 22.872129874)"><g transform="matrix(1 0 0 -1 0 7.1715)"><use xlink:href="#g5AE4271B2AE72882168BC0303969520F" x="0" y="0" fill="#7c7f6a" fill-rule="nonzero"/></g></g><path fill="none" transform="translate(87.827230725 122.915807921)" d="M 0 0h 8.2215v 7.4025h -8.2215v -7.4025Z "/><g transform="translate(87.827230725 122.915807921)"><g transform="matrix(1 0 0 -1 0 7.1715)"><use xlink:href="#g7A632304A111DAC694938D7694E89F12" x="0" y="0" fill="#1a1a18" fill-rule="nonzero"/></g></g><path fill="none" transform="translate(90.782768127 28.579857133)" d="M 0 0h 5.712v 7.287h -5.712v -7.287Z "/><g transform="translate(90.78276808 28.579857086)"><g transform="matrix(1 0 0 -1 0 7.1715)"><use xlink:href="#gE8D9955E89C7BE284262D0B277D31735" x="0" y="0" fill="#1a1a18" fill-rule="nonzero"/></g></g><path fill="none" transform="translate(128.424338091 56.001355999)" d="M 0 0h 8.052v 7.513h -8.052v -7.513Z "/><g transform="translate(128.424338044 56.00135592)"><g transform="matrix(1 0 0 -1 0 7.513)"><use xlink:href="#g8977FDB49ABB816545A648FCABF95916" x="0" y="0" fill="#1a1a18" fill-rule="nonzero"/></g></g><path fill="none" transform="translate(19.169469816)" d="M 0 0h 51.021v 7.11h -51.021v -7.11Z "/><g transform="translate(19.169469816 -1.42e-7)"><g transform="matrix(1 0 0 -1 0 5.922)"><use xlink:href="#g5F2B105DCE44482CD07DFE0B4651B637" x="0" y="0" fill="#7c7f6a" fill-rule="nonzero"/><use xlink:href="#gF7AD5B3248F8366898BA115B8D318C4E" x="5.274" y="0" fill="#7c7f6a" fill-rule="nonzero"/><use xlink:href="#g9C9C9262F30302871979B086E3504457" x="9.387" y="0" fill="#7c7f6a" fill-rule="nonzero"/><use xlink:href="#gB118266EF18AECCCCEF724ECE6F3D1D3" x="13.788" y="0" fill="#7c7f6a" fill-rule="nonzero"/><use xlink:href="#gE910E7524AAA5201D690B7EBF26D2697" x="18.531" y="0" fill="#7c7f6a" fill-rule="nonzero"/><use xlink:href="#gBA3E9C2E61A84E296B252679103E17C4" x="25.11" y="0" fill="#7c7f6a" fill-rule="nonzero"/><use xlink:href="#gF7AD5B3248F8366898BA115B8D318C4E" x="29.952" y="0" fill="#7c7f6a" fill-rule="nonzero"/><use xlink:href="#g611C332DF318E3AAFADBD04F1094DD79" x="34.065" y="0" fill="#7c7f6a" fill-rule="nonzero"/><use xlink:href="#gD351E21AD091924D522A6D2D6355C932" x="38.07" y="0" fill="#7c7f6a" fill-rule="nonzero"/><use xlink:href="#gB118266EF18AECCCCEF724ECE6F3D1D3" x="42.093" y="0" fill="#7c7f6a" fill-rule="nonzero"/><use xlink:href="#g1F6C67A5839963BD6478B8393FDBF84B" x="46.836" y="0" fill="#7c7f6a" fill-rule="nonzero"/></g></g><path fill="none" transform="translate(107.164495571 92.310785133)" d="M 0 0h 35.964v 8.028h -35.964v -8.028Z "/><g transform="translate(107.164495571 92.310785133)"><g transform="matrix(1 0 0 -1 0 5.922)"><use xlink:href="#g4AE5337A4A3FF09E9A9AF89B4B83FC9D" x="0" y="0" fill="#7c7f6a" fill-rule="nonzero"/><use xlink:href="#g7253BD4F4A12C91ABC7B03558525FA66" x="3.744" y="0" fill="#7c7f6a" fill-rule="nonzero"/><use xlink:href="#g4AD90A9068D018AD3CEC8FD5EA9519DC" x="8.28" y="0" fill="#7c7f6a" fill-rule="nonzero"/><use xlink:href="#g6EA5A1981697E2B5E95285C58F7F7AD0" x="12.951" y="0" fill="#7c7f6a" fill-rule="nonzero"/><use xlink:href="#g1DA06070DC2F35791C9FB9712E809870" x="18.225" y="0" fill="#7c7f6a" fill-rule="nonzero"/><use xlink:href="#g7253BD4F4A12C91ABC7B03558525FA66" x="22.149" y="0" fill="#7c7f6a" fill-rule="nonzero"/><use xlink:href="#g5F2B105DCE44482CD07DFE0B4651B637" x="26.685" y="0" fill="#7c7f6a" fill-rule="nonzero"/><use xlink:href="#g611C332DF318E3AAFADBD04F1094DD79" x="31.959" y="0" fill="#7c7f6a" fill-rule="nonzero"/></g></g></g><defs><symbol id="g93668732B0E42348DDA57839D5743AC6" overflow="visible"><path d="M 0 0m 7.722 2.893c 0.275 0.627 0.418 1.254 0.418 1.892c 0 0.858 -0.253 1.562 -0.77 2.123c -0.517 0.561 -1.199 0.847 -2.046 0.847c -0.583 0 -1.166 -0.143 -1.749 -0.429c -1.188 -0.583 -2.057 -1.507 -2.618 -2.761c -0.275 -0.616 -0.418 -1.232 -0.418 -1.859c 0 -0.869 0.253 -1.573 0.77 -2.123c 0.517 -0.55 1.199 -0.825 2.057 -0.825c 0.572 0 1.144 0.143 1.727 0.418c 1.199 0.583 2.068 1.496 2.629 2.717Z m -0.638 2.321c 0 -1.463 -0.66 -2.926 -1.364 -3.795c -0.484 -0.605 -1.32 -1.287 -2.288 -1.287c -1.177 0 -1.793 1.023 -1.793 2.266c 0 0.385 0.077 0.902 0.22 1.529c 0.297 1.298 1.045 2.442 2.024 3.036c 0.473 0.286 0.935 0.429 1.375 0.429c 1.188 0 1.826 -0.946 1.826 -2.178Z "/></symbol><symbol id="g7A632304A111DAC694938D7694E89F12" overflow="visible"><path d="M 0 0m 7.7595 5.5755c 0 0.5355 -0.273 0.945 -0.8085 1.239c -0.4305 0.2415 -0.945 0.357 -1.5225 0.357h -2.961c -0.2415 0 -0.3465 -0.0105 -0.3465 -0.252c 0 -0.0735 0.0315 -0.126 0.0945 -0.1365c 0.105 -0.0105 0.189 -0.021 0.2415 -0.021c 0.315 -0.0105 0.4935 -0.0315 0.546 -0.042c 0.0525 -0.0105 0.084 -0.042 0.084 -0.0945c 0 -0.021 -0.0105 -0.084 -0.042 -0.189l -1.386 -5.5755c -0.0525 -0.231 -0.1575 -0.378 -0.315 -0.4305c -0.0735 -0.021 -0.2625 -0.0315 -0.588 -0.0315c -0.231 0 -0.3255 -0.0105 -0.3255 -0.2415c 0 -0.1155 0.063 -0.168 0.189 -0.1575l 1.302 0.0315l 1.323 -0.0315c 0.168 -0.0105 0.252 0.084 0.252 0.2415c 0 0.105 -0.1155 0.1575 -0.336 0.1575c -0.42 0 -0.63 0.0525 -0.63 0.147c 0 0 0.0105 0.021 0.0315 0.168l 0.672 2.7195h 1.2075c 0.7245 0 1.092 -0.3045 1.092 -0.903c 0 -0.0945 -0.0525 -0.3255 -0.147 -0.7035c -0.1155 -0.441 -0.168 -0.735 -0.168 -0.8925c 0 -0.798 0.6195 -1.1655 1.4175 -1.1655c 0.294 0 0.5775 0.1365 0.861 0.399c 0.2835 0.2625 0.4305 0.546 0.4305 0.84c 0 0.105 -0.0525 0.1575 -0.168 0.1575c -0.0735 0 -0.1365 -0.0525 -0.168 -0.168c -0.1155 -0.3255 -0.2625 -0.567 -0.4305 -0.7035c -0.168 -0.1365 -0.3255 -0.21 -0.483 -0.21c -0.2415 0 -0.3675 0.1995 -0.3675 0.588c 0 0.252 0.0315 0.6405 0.105 1.176c 0.0315 0.2205 0.042 0.378 0.042 0.4935c 0 0.5565 -0.294 0.966 -0.882 1.218c 0.987 0.2415 2.184 0.945 2.184 2.016Z m -1.365 0.8925c 0.21 -0.1365 0.315 -0.3675 0.315 -0.693c 0 -0.21 -0.042 -0.4515 -0.1365 -0.735c -0.2835 -0.861 -0.9975 -1.2915 -2.142 -1.2915h -1.113l 0.6615 2.6565c 0.0525 0.2205 0.1365 0.336 0.252 0.3465c 0.0525 0.0105 0.2625 0.0105 0.63 0.0105c 0.6825 0 1.0815 -0.021 1.533 -0.294Z "/></symbol><symbol id="g2E528393F503661DFA479F53C57DA451" overflow="visible"><path d="M 0 0m 7.329 2.877h -2.9925v 2.9925c 0 0.168 -0.084 0.252 -0.252 0.252c -0.168 0 -0.252 -0.084 -0.252 -0.252v -2.9925h -2.9925c -0.168 0 -0.252 -0.084 -0.252 -0.252c 0 -0.168 0.084 -0.252 0.252 -0.252h 2.9925v -2.9925c 0 -0.168 0.084 -0.252 0.252 -0.252c 0.168 0 0.252 0.084 0.252 0.252v 2.9925h 2.9925c 0.168 0 0.252 0.084 0.252 0.252c 0 0.1365 -0.1155 0.252 -0.252 0.252Z "/></symbol><symbol id="g5AE4271B2AE72882168BC0303969520F" overflow="visible"><path d="M 0 0m 5.376 1.449c -0.2415 -0.8295 -0.5775 -1.2495 -1.0185 -1.2495c -0.1365 0 -0.21 0.0945 -0.21 0.294c 0 0.1575 0.063 0.399 0.189 0.7245c 0.42 1.1235 0.63 1.89 0.63 2.2995c 0 0.7455 -0.483 1.155 -1.2285 1.155c -0.5565 0 -1.0395 -0.231 -1.449 -0.6825l 0.7665 3.1395c -0.021 0.0945 -0.042 0.1575 -0.1785 0.1575c -0.3465 0 -1.113 -0.0945 -1.2495 -0.105c -0.1575 -0.021 -0.2415 -0.0945 -0.2415 -0.252c 0 -0.105 0.0945 -0.1575 0.2835 -0.1575c 0.2205 0 0.462 0.0105 0.483 -0.1365l -1.533 -6.1845c -0.0315 -0.1155 -0.042 -0.189 -0.042 -0.231c 0 -0.2205 0.1155 -0.336 0.336 -0.336c 0.21 0 0.357 0.105 0.4305 0.3045l 0.42 1.722c 0.126 0.5145 0.2205 0.903 0.294 1.1655c 0.0315 0.0735 0.1155 0.2205 0.252 0.4305c 0.378 0.567 0.84 0.8505 1.3965 0.8505c 0.3465 0 0.5145 -0.231 0.5145 -0.6825c 0 -0.4305 -0.21 -1.197 -0.63 -2.31c -0.0945 -0.2415 -0.1365 -0.4305 -0.1365 -0.588c 0 -0.504 0.378 -0.8925 0.882 -0.8925c 0.462 0 0.8295 0.2625 1.092 0.798c 0.1995 0.42 0.3045 0.7035 0.3045 0.84c 0 0.0945 -0.0525 0.147 -0.168 0.147c -0.0315 0 -0.189 -0.0945 -0.189 -0.2205Z "/></symbol><symbol id="gE8D9955E89C7BE284262D0B277D31735" overflow="visible"><path d="M 0 0m 4.5045 6.636l -0.6195 -2.5515c -0.2205 0.3885 -0.525 0.588 -0.9345 0.588c -0.6825 0 -1.281 -0.3465 -1.806 -1.05c -0.483 -0.651 -0.7245 -1.3335 -0.7245 -2.037c 0 -0.924 0.5355 -1.701 1.4175 -1.701c 0.4515 0 0.8925 0.2415 1.3125 0.735c 0.1155 -0.399 0.4725 -0.735 0.966 -0.735c 0.7245 0 0.9555 0.861 1.113 1.638c 0 0.0945 -0.0525 0.147 -0.1575 0.147c -0.0945 0 -0.1575 -0.0735 -0.189 -0.2205c -0.21 -0.8295 -0.462 -1.2495 -0.7455 -1.2495c -0.1785 0 -0.273 0.147 -0.273 0.4305c 0 0.1575 0.021 0.3255 0.063 0.4935l 1.491 6.006v 0.042c -0.0315 0.0735 -0.0945 0.1155 -0.1785 0.1155c -0.2415 0 -0.6825 -0.042 -1.3125 -0.1155c -0.1155 -0.0105 -0.1785 -0.0945 -0.1785 -0.2415c 0 -0.105 0.0945 -0.1575 0.2835 -0.1575c 0.1995 0 0.4725 0.0105 0.4725 -0.1365Z m -0.924 -2.688c 0.105 -0.2205 0.1575 -0.3675 0.1575 -0.462c -0.0105 -0.042 -0.021 -0.0945 -0.0315 -0.168l -0.5145 -2.037c -0.0315 -0.1155 -0.105 -0.2415 -0.1995 -0.3675c -0.3885 -0.4725 -0.7665 -0.714 -1.134 -0.714c -0.4095 0 -0.6195 0.315 -0.6195 0.9345c 0 0.252 0.063 0.63 0.189 1.134c 0.2205 0.8925 0.5355 1.5015 0.924 1.827c 0.21 0.1785 0.4095 0.2625 0.609 0.2625c 0.2835 0 0.4935 -0.1365 0.6195 -0.4095Z "/></symbol><symbol id="g8977FDB49ABB816545A648FCABF95916" overflow="visible"><path d="M 0 0m 3.784 6.941c 0 -0.033 -0.011 -0.11 -0.044 -0.22l -1.452 -5.808c -0.044 -0.165 -0.088 -0.264 -0.121 -0.308c -0.099 -0.121 -0.473 -0.176 -1.133 -0.176c -0.341 0 -0.495 0.033 -0.495 -0.253c 0 -0.121 0.077 -0.176 0.22 -0.176c 0.561 0 1.353 0.044 1.826 0.033l 0.902 -0.011c 0.154 0 0.759 -0.022 0.946 -0.022c 0.187 0 0.275 0.088 0.275 0.264c 0 0.11 -0.132 0.165 -0.407 0.165c -0.572 0 -0.902 0.022 -1.001 0.077c -0.033 0.022 -0.055 0.066 -0.055 0.132l 1.485 5.995c 0.033 0.154 0.066 0.253 0.099 0.286c 0.044 0.066 0.308 0.099 0.792 0.099c 0.605 0 1.023 -0.044 1.232 -0.143c 0.209 -0.099 0.319 -0.33 0.319 -0.704c 0 -0.198 -0.033 -0.484 -0.088 -0.858c -0.022 -0.088 -0.033 -0.154 -0.033 -0.209c 0 -0.121 0.055 -0.187 0.176 -0.187c 0.099 0 0.165 0.099 0.198 0.286l 0.297 1.892c 0.011 0.055 0.022 0.121 0.022 0.187c 0 0.11 -0.11 0.165 -0.341 0.165h -6.028c -0.286 0 -0.308 -0.033 -0.396 -0.242l -0.649 -1.914c -0.033 -0.099 -0.055 -0.165 -0.066 -0.209c 0 -0.11 0.055 -0.165 0.176 -0.165c 0.088 0 0.165 0.088 0.22 0.253c 0.275 0.803 0.55 1.298 0.803 1.507c 0.286 0.231 0.836 0.341 1.639 0.341h 0.429c 0.121 0 0.253 0.011 0.253 -0.077Z "/></symbol><symbol id="g5F2B105DCE44482CD07DFE0B4651B637" overflow="visible"><path d="M 0 0m 4.311 2.763c 0 0.747 0.099 0.774 0.648 0.819c 0.054 0.054 0.054 0.243 0 0.297c -0.315 -0.018 -0.711 -0.018 -1.008 -0.018c -0.252 0 -0.612 0.009 -0.963 0.018c -0.054 -0.054 -0.054 -0.243 0 -0.297c 0.549 -0.036 0.612 -0.072 0.612 -0.819v -0.585h -1.926v 0.585c 0 0.747 0.063 0.774 0.612 0.819c 0.054 0.054 0.054 0.243 0 0.297c -0.342 -0.009 -0.684 -0.018 -0.972 -0.018c -0.27 0 -0.639 0.009 -0.999 0.018c -0.054 -0.054 -0.054 -0.243 0 -0.297c 0.549 -0.036 0.648 -0.072 0.648 -0.819v -1.665c 0 -0.747 -0.099 -0.774 -0.648 -0.819c -0.054 -0.054 -0.054 -0.243 0 -0.297c 0.36 0.009 0.72 0.018 1.008 0.018c 0.288 0 0.639 -0.009 0.963 -0.018c 0.054 0.054 0.054 0.243 0 0.297c -0.549 0.036 -0.612 0.072 -0.612 0.819v 0.783h 1.926v -0.783c 0 -0.747 -0.063 -0.774 -0.612 -0.819c -0.054 -0.054 -0.054 -0.243 0 -0.297c 0.324 0.009 0.657 0.018 0.972 0.018c 0.27 0 0.648 -0.009 0.999 -0.018c 0.054 0.054 0.054 0.243 0 0.297c -0.549 0.036 -0.648 0.072 -0.648 0.819Z "/></symbol><symbol id="gF7AD5B3248F8366898BA115B8D318C4E" overflow="visible"><path d="M 0 0m 2.637 0.432c 0.054 -0.279 0.153 -0.522 0.603 -0.522c 0.342 0 0.666 0.153 0.855 0.333c -0.018 0.108 -0.054 0.189 -0.153 0.243c -0.063 -0.054 -0.216 -0.144 -0.333 -0.144c -0.261 0 -0.27 0.351 -0.27 0.765v 1.323c 0 1.278 -0.702 1.521 -1.359 1.521c -0.738 0 -1.485 -0.486 -1.485 -0.999c 0 -0.216 0.108 -0.324 0.315 -0.324c 0.261 0 0.423 0.189 0.423 0.306c 0 0.063 -0.009 0.126 -0.027 0.162c -0.009 0.027 -0.018 0.081 -0.018 0.18c 0 0.279 0.378 0.378 0.72 0.378c 0.306 0 0.729 -0.153 0.729 -1.17c 0 -0.063 -0.027 -0.099 -0.054 -0.108l -0.774 -0.189c -0.864 -0.216 -1.485 -0.693 -1.485 -1.305c 0 -0.738 0.504 -0.972 1.134 -0.972c 0.315 0 0.585 0.072 0.981 0.378l 0.18 0.144Z m 0 1.665v -1.188c 0 -0.117 -0.054 -0.18 -0.126 -0.234c -0.234 -0.189 -0.54 -0.396 -0.792 -0.396c -0.45 0 -0.648 0.36 -0.648 0.639c 0 0.405 0.189 0.819 0.855 0.99Z "/></symbol><symbol id="g9C9C9262F30302871979B086E3504457" overflow="visible"><path d="M 0 0m 0.306 2.313c 0 -1.701 0.981 -2.403 1.854 -2.403c 1.233 0 1.944 0.918 1.944 2.052c 0 0.972 -0.54 1.989 -1.809 1.989c -0.855 0 -1.377 -0.504 -1.575 -0.936l -0.018 0.018c 0.036 0.468 0.18 1.044 0.315 1.278c 0.288 0.495 0.63 0.522 1.458 0.612c 0.81 0.09 1.386 0.351 1.467 1.359c -0.063 0.027 -0.126 0.036 -0.198 0c -0.072 -0.432 -0.549 -0.549 -1.305 -0.666c -0.729 -0.117 -1.341 -0.369 -1.719 -1.08c -0.324 -0.612 -0.414 -1.368 -0.414 -2.223Z m 0.774 -0.234c 0 0.504 0.18 1.557 1.116 1.557c 0.702 0 1.134 -0.81 1.134 -1.89c 0 -1.134 -0.522 -1.521 -1.008 -1.521c -0.657 0 -1.242 0.855 -1.242 1.854Z "/></symbol><symbol id="gB118266EF18AECCCCEF724ECE6F3D1D3" overflow="visible"><path d="M 0 0m 3.762 1.098v 1.665c 0 0.738 0.117 0.783 0.612 0.819c 0.054 0.054 0.054 0.243 0 0.297c -0.27 -0.009 -0.612 -0.018 -0.972 -0.018h -1.701c -0.297 0 -0.648 0.009 -0.918 0.018c -0.054 -0.054 -0.054 -0.243 0 -0.297c 0.639 -0.045 0.729 -0.099 0.729 -1.071c 0 -0.945 -0.072 -1.44 -0.198 -1.809c -0.117 -0.324 -0.27 -0.441 -0.423 -0.441c -0.117 0 -0.153 0.072 -0.171 0.189c -0.027 0.171 -0.081 0.342 -0.333 0.342c -0.225 0 -0.351 -0.18 -0.351 -0.378c 0 -0.279 0.252 -0.522 0.666 -0.522c 0.459 0 0.711 0.234 0.918 0.72c 0.18 0.432 0.234 1.35 0.234 1.962c 0 0.702 0.027 0.936 0.387 0.936h 0.405c 0.342 0 0.405 -0.216 0.405 -0.522v -1.89c 0 -0.738 -0.09 -0.783 -0.558 -0.819c -0.045 -0.054 -0.045 -0.243 0 -0.297c 0.225 0.009 0.558 0.018 0.918 0.018c 0.36 0 0.765 -0.009 1.017 -0.018c 0.045 0.054 0.045 0.243 0 0.297c -0.585 0.036 -0.666 0.081 -0.666 0.819Z "/></symbol><symbol id="gE910E7524AAA5201D690B7EBF26D2697" overflow="visible"><path d="M 0 0m 1.674 2.133v 0.63c 0 0.747 0.099 0.774 0.648 0.819c 0.054 0.054 0.054 0.243 0 0.297c -0.306 -0.009 -0.612 -0.018 -1.008 -0.018c -0.387 0 -0.702 0.009 -0.999 0.018c -0.054 -0.054 -0.054 -0.243 0 -0.297c 0.549 -0.036 0.648 -0.072 0.648 -0.819v -1.665c 0 -0.747 -0.099 -0.774 -0.648 -0.819c -0.054 -0.054 -0.054 -0.243 0 -0.297c 0.297 0.009 0.612 0.018 1.008 0.018c 0.387 0 0.711 -0.009 0.999 -0.018c 0.054 0.054 0.054 0.243 0 0.297c -0.549 0.036 -0.648 0.072 -0.648 0.819v 0.684h 0.927c 0.018 -0.909 0.585 -1.872 1.8 -1.872c 1.323 0 1.818 1.143 1.818 2.043c 0 0.936 -0.441 1.998 -1.809 1.998c -1.089 0 -1.701 -0.747 -1.8 -1.818Z m 2.646 1.503c 0.738 0 1.125 -0.657 1.125 -1.971c 0 -1.188 -0.495 -1.44 -0.882 -1.44c -0.891 0 -1.188 1.116 -1.188 1.809c 0 0.783 0.243 1.602 0.945 1.602Z "/></symbol><symbol id="gBA3E9C2E61A84E296B252679103E17C4" overflow="visible"><path d="M 0 0m 1.701 3.861c -0.297 0 -0.648 0.009 -0.918 0.018c -0.054 -0.054 -0.054 -0.243 0 -0.297c 0.549 -0.045 0.711 -0.081 0.675 -0.828c -0.036 -0.828 -0.18 -1.494 -0.333 -2.124c -0.054 -0.243 -0.315 -0.324 -0.567 -0.351c -0.135 -0.018 -0.261 -0.072 -0.27 -0.234l -0.054 -1.197c 0.063 -0.027 0.135 -0.036 0.243 -0.009c 0.081 0.333 0.324 1.161 1.134 1.161h 1.557c 0.801 0 1.062 -0.81 1.143 -1.17c 0.081 -0.018 0.162 -0.018 0.252 0.018l -0.054 1.206c 0 0.126 -0.072 0.198 -0.243 0.225c -0.162 0.027 -0.387 0.09 -0.387 0.423v 2.061c 0 0.738 0.117 0.783 0.612 0.819c 0.054 0.054 0.054 0.243 0 0.297c -0.27 -0.009 -0.612 -0.018 -0.972 -0.018Z m -0.252 -3.402c 0 0.153 0.243 0.747 0.378 2.808c 0.009 0.135 0.072 0.252 0.315 0.252h 0.621c 0.36 0 0.405 -0.252 0.405 -0.558v -2.169c 0 -0.297 -0.018 -0.441 -0.378 -0.441h -1.161c -0.099 0 -0.18 0.009 -0.18 0.108Z "/></symbol><symbol id="g611C332DF318E3AAFADBD04F1094DD79" overflow="visible"><path d="M 0 0m 1.638 1.098c 0 -0.747 -0.099 -0.792 -0.648 -0.819c -0.054 -0.054 -0.054 -0.243 0 -0.297c 0.351 0.009 0.711 0.018 1.008 0.018c 0.306 0 0.657 -0.009 0.999 -0.018c 0.054 0.054 0.054 0.243 0 0.297c -0.549 0.027 -0.648 0.072 -0.648 0.819v 2.43h 0.153c 0.729 0 0.873 -0.252 1.026 -0.981c 0.117 0 0.234 0.036 0.234 0.036c -0.054 0.414 -0.09 0.81 -0.099 1.332c -0.207 -0.018 -0.882 -0.054 -1.332 -0.054h -0.675c -0.45 0 -0.954 0.027 -1.314 0.054c -0.009 -0.522 -0.045 -0.918 -0.108 -1.332c 0 0 0.126 -0.036 0.243 -0.036c 0.153 0.729 0.288 0.981 1.026 0.981h 0.135Z "/></symbol><symbol id="gD351E21AD091924D522A6D2D6355C932" overflow="visible"><path d="M 0 0m 3.474 0.837c -0.333 -0.342 -0.594 -0.486 -1.116 -0.486c -0.324 0 -0.702 0.189 -0.981 0.648c -0.18 0.297 -0.288 0.711 -0.288 1.233l 2.394 -0.018c 0.108 0 0.171 0.054 0.171 0.153c 0 0.756 -0.27 1.566 -1.521 1.566c -0.783 0 -1.8 -0.747 -1.8 -2.115c 0 -0.504 0.126 -0.99 0.423 -1.332c 0.306 -0.36 0.729 -0.576 1.377 -0.576c 0.684 0 1.17 0.315 1.53 0.783c -0.027 0.09 -0.081 0.135 -0.189 0.144Z m -2.358 1.701c 0.171 1.017 0.801 1.098 1.017 1.098c 0.342 0 0.747 -0.189 0.747 -0.945c 0 -0.081 -0.036 -0.126 -0.135 -0.126Z "/></symbol><symbol id="g1F6C67A5839963BD6478B8393FDBF84B" overflow="visible"><path d="M 0 0m 1.674 2.754c 0 0.756 0.099 0.783 0.648 0.828c 0.054 0.054 0.054 0.243 0 0.297c -0.306 -0.009 -0.612 -0.018 -1.008 -0.018c -0.387 0 -0.702 0.009 -0.999 0.018c -0.054 -0.054 -0.054 -0.243 0 -0.297c 0.549 -0.036 0.648 -0.072 0.648 -0.819v -1.665c 0 -0.747 -0.099 -0.774 -0.648 -0.819c -0.054 -0.054 -0.054 -0.243 0 -0.297c 0.297 0.009 0.612 0.018 1.008 0.018c 0.369 0 0.567 -0.018 0.936 -0.018c 1.107 0 1.71 0.279 1.71 1.242c 0 0.846 -0.738 1.089 -1.647 1.089h -0.648Z m 1.521 -1.62c 0 -0.738 -0.45 -0.855 -0.927 -0.855c -0.441 0 -0.594 0.09 -0.594 0.405v 1.332h 0.639c 0.675 0 0.882 -0.405 0.882 -0.882Z "/></symbol><symbol id="g4AE5337A4A3FF09E9A9AF89B4B83FC9D" overflow="visible"><path d="M 0 0m 1.674 2.763c 0 0.513 0.063 0.747 0.378 0.747h 0.198c 0.738 0 0.954 -0.513 1.08 -1.035c 0.099 -0.009 0.189 0 0.261 0.036c -0.036 0.477 -0.063 0.873 -0.117 1.35l -0.018 0.018c 0 0 -0.72 -0.018 -1.008 -0.018h -1.134c -0.387 0 -0.702 0.009 -0.999 0.018c -0.054 -0.054 -0.054 -0.243 0 -0.297c 0.549 -0.036 0.648 -0.072 0.648 -0.819v -1.665c 0 -0.747 -0.099 -0.774 -0.648 -0.819c -0.054 -0.054 -0.054 -0.243 0 -0.297c 0.297 0.009 0.612 0.018 1.008 0.018c 0.387 0 0.711 -0.009 0.999 -0.018c 0.054 0.054 0.054 0.243 0 0.297c -0.549 0.036 -0.648 0.072 -0.648 0.819Z "/></symbol><symbol id="g7253BD4F4A12C91ABC7B03558525FA66" overflow="visible"><path d="M 0 0m 0.369 1.845c 0 -0.918 0.612 -1.935 1.89 -1.935c 0.576 0 1.017 0.207 1.323 0.504c 0.405 0.396 0.585 0.963 0.585 1.512c 0 0.936 -0.513 2.025 -1.89 2.025c -0.594 0 -1.08 -0.243 -1.413 -0.63c -0.324 -0.387 -0.495 -0.909 -0.495 -1.476Z m 1.773 1.791c 0.774 0 1.251 -0.702 1.251 -1.998c 0 -1.134 -0.585 -1.413 -1.008 -1.413c -0.936 0 -1.242 1.134 -1.242 1.827c 0 0.783 0.189 1.584 0.999 1.584Z "/></symbol><symbol id="g4AD90A9068D018AD3CEC8FD5EA9519DC" overflow="visible"><path d="M 0 0m 1.404 3.312c -0.009 0.27 -0.027 0.504 -0.072 0.594c -0.018 0.045 -0.036 0.072 -0.108 0.072c -0.252 -0.099 -0.486 -0.18 -1.107 -0.261c -0.018 -0.054 0 -0.198 0.018 -0.252c 0.486 -0.045 0.585 -0.09 0.585 -0.612v -3.843c 0 -0.747 -0.099 -0.792 -0.648 -0.819c -0.054 -0.054 -0.054 -0.243 0 -0.297c 0.315 0.009 0.648 0.018 1.008 0.018c 0.36 0 0.792 -0.009 1.089 -0.018c 0.054 0.054 0.054 0.243 0 0.297c -0.639 0.036 -0.738 0.072 -0.738 0.819v 0.972c 0 0.117 0.036 0.108 0.126 0.072c 0.225 -0.09 0.495 -0.144 0.783 -0.144c 0.504 0 0.954 0.153 1.323 0.504c 0.423 0.414 0.666 0.972 0.666 1.701c 0 0.954 -0.675 1.836 -1.593 1.836c -0.414 0 -0.873 -0.27 -1.233 -0.675c -0.054 -0.054 -0.09 -0.054 -0.099 0.036Z m 0.171 -0.333c 0.234 0.288 0.648 0.558 0.909 0.558c 0.576 0 1.071 -0.648 1.071 -1.665c 0 -0.738 -0.261 -1.656 -1.269 -1.656c -0.162 0 -0.477 0.045 -0.639 0.189c -0.18 0.162 -0.216 0.216 -0.216 0.54v 1.638c 0 0.189 0.036 0.27 0.144 0.396Z "/></symbol><symbol id="g6EA5A1981697E2B5E95285C58F7F7AD0" overflow="visible"><path d="M 0 0m 1.782 0.567c -0.027 0 -0.063 0.018 -0.063 0.108v 2.052c 0 0.747 0.189 0.828 0.648 0.855c 0.054 0.054 0.054 0.243 0 0.297c -0.207 -0.009 -0.72 -0.018 -1.053 -0.018c -0.297 0 -0.657 0.009 -0.999 0.018c -0.054 -0.054 -0.054 -0.243 0 -0.297c 0.549 -0.027 0.693 -0.108 0.693 -0.855v -1.593c 0 -0.747 -0.144 -0.828 -0.693 -0.855c -0.054 -0.054 -0.054 -0.243 0 -0.297c 0.351 0.009 0.711 0.018 0.999 0.018c 0.207 0 0.45 -0.009 0.549 -0.018c 0.045 0.126 0.126 0.306 0.225 0.486l 1.404 2.817c 0.027 0 0.063 -0.018 0.063 -0.108v -2.043c 0 -0.747 -0.189 -0.828 -0.648 -0.855c -0.054 -0.054 -0.054 -0.243 0 -0.297c 0.207 0.009 0.693 0.018 1.053 0.018c 0.279 0 0.648 -0.009 0.999 -0.018c 0.054 0.054 0.054 0.243 0 0.297c -0.549 0.027 -0.693 0.108 -0.693 0.855v 1.593c 0 0.747 0.144 0.828 0.693 0.855c 0.054 0.054 0.054 0.243 0 0.297c -0.36 -0.009 -0.72 -0.018 -0.999 -0.018c -0.198 0 -0.45 0.009 -0.54 0.018c -0.072 -0.162 -0.153 -0.351 -0.234 -0.504Z "/></symbol><symbol id="g1DA06070DC2F35791C9FB9712E809870" overflow="visible"><path d="M 0 0m 0.387 0.747c 0 -0.198 0.117 -0.342 0.306 -0.486c 0.225 -0.162 0.522 -0.351 1.233 -0.351c 0.9 0 1.602 0.27 1.602 1.161c 0 0.54 -0.27 0.9 -0.909 1.008v 0.027c 0.549 0.207 0.693 0.459 0.693 0.927c 0 0.522 -0.36 0.918 -1.269 0.918c -0.477 0 -0.9 -0.171 -1.386 -0.252l -0.117 -1.071c 0.072 -0.036 0.162 -0.045 0.243 -0.036c 0.171 0.522 0.396 1.044 1.152 1.044c 0.495 0 0.657 -0.297 0.657 -0.657c 0 -0.369 -0.063 -0.801 -0.639 -0.801c -0.171 0 -0.324 0.054 -0.495 0.054c -0.081 0 -0.171 -0.054 -0.171 -0.198c 0 -0.144 0.099 -0.189 0.18 -0.189c 0.171 0 0.27 0.054 0.495 0.054c 0.666 0 0.792 -0.459 0.792 -0.855c 0 -0.531 -0.198 -0.819 -0.837 -0.819c -0.513 0 -0.603 0.189 -0.756 0.513c -0.072 0.162 -0.171 0.288 -0.405 0.288c -0.162 0 -0.369 -0.135 -0.369 -0.279Z "/></symbol></defs></svg>