<svg viewBox="0 0 267.716535433 129.385826772" width="267.716535433pt" height="129.385826772pt" xmlns="http://www.w3.org/2000/svg" xmlns:xlink="http://www.w3.org/1999/xlink" xmlns:h5="http://www.w3.org/1999/xhtml"><path fill="#ffffff" fill-rule="nonzero" d="M 0 0v 129.385826772h 267.716535433v -129.385826772Z "/><g transform="translate(8 8)"><path fill="#c4c5bc" fill-rule="nonzero" transform="translate(0 29.763779528)" d="M 0 0v 17.007874016h 85.039370079v -17.007874016h -85.039370079Z "/><path fill="#c4c5bc" fill-rule="nonzero" transform="translate(0 66.614173228)" d="M 0 0v 17.007874016h 85.039370079v -17.007874016h -85.039370079Z "/><path fill="#c4c5bc" fill-rule="nonzero" transform="translate(73.700787402)" d="M 0 0v 113.385826772h 11.338582677v -113.385826772h -11.338582677Z "/><path fill="#c7c3ba" fill-rule="nonzero" stroke="#1a1a18" stroke-width="0.6" stroke-linecap="butt" stroke-linejoin="miter" stroke-miterlimit="4" d="M 0 0v 29.763779528h 85.039370079v -29.763779528h -85.039370079Z "/><path fill="none" transform="translate(14.953393701 12.035551181)" d="M 0 0h 43.794v 7.11h -43.794v -7.11Z "/><g transform="translate(14.953393701 12.035551039)"><g transform="matrix(1 0 0 -1 0 5.922)"><use xlink:href="#gEA3B3A41111D4BFDC37F9EE66A5BAC3B" x="0" y="0" fill="#1a1a18" fill-rule="nonzero"/><use xlink:href="#gB118266EF18AECCCCEF724ECE6F3D1D3" x="6.255" y="0" fill="#1a1a18" fill-rule="nonzero"/><use xlink:href="#g1F6C67A5839963BD6478B8393FDBF84B" x="10.998" y="0" fill="#1a1a18" fill-rule="nonzero"/><use xlink:href="#g611C332DF318E3AAFADBD04F1094DD79" x="15.183" y="0" fill="#1a1a18" fill-rule="nonzero"/><use xlink:href="#g785243DD0DBD5D3E5E793E04FC62E83F" x="19.188" y="0" fill="#1a1a18" fill-rule="nonzero"/><use xlink:href="#g611C332DF318E3AAFADBD04F1094DD79" x="26.829" y="0" fill="#1a1a18" fill-rule="nonzero"/><use xlink:href="#gF7AD5B3248F8366898BA115B8D318C4E" x="30.834" y="0" fill="#1a1a18" fill-rule="nonzero"/><use xlink:href="#gBA3E9C2E61A84E296B252679103E17C4" x="34.947" y="0" fill="#1a1a18" fill-rule="nonzero"/><use xlink:href="#g611C332DF318E3AAFADBD04F1094DD79" x="39.789" y="0" fill="#1a1a18" fill-rule="nonzero"/></g></g><path fill="#a29b8c" fill-rule="nonzero" stroke="#1a1a18" stroke-width="0.6" stroke-linecap="butt" stroke-linejoin="miter" stroke-miterlimit="4" transform="translate(19.842519685 46.771653543)" d="M 0 0v 19.842519685h 36.850393701v -19.842519685h -36.850393701Z "/><path fill="none" transform="translate(18.143716535 52.678913386)" d="M 0 0h 40.248v 8.028h -40.248v -8.028Z "/><g transform="translate(18.143716535 52.678913386)"><g transform="matrix(1 0 0 -1 0 5.922)"><use xlink:href="#gF43627BE07F56F49ED540A9B7D4B3473" x="0" y="0" fill="#1a1a18" fill-rule="nonzero"/><use xlink:href="#g5F2B105DCE44482CD07DFE0B4651B637" x="5.454" y="0" fill="#1a1a18" fill-rule="nonzero"/><use xlink:href="#gF7AD5B3248F8366898BA115B8D318C4E" x="10.728" y="0" fill="#1a1a18" fill-rule="nonzero"/><use xlink:href="#gAC51535933F66B1324FEFB6C0CD8A486" x="14.841" y="0" fill="#1a1a18" fill-rule="nonzero"/><use xlink:href="#gA5834380700F55B3689219A2CC4667E3" x="20.115" y="0" fill="#1a1a18" fill-rule="nonzero"/><use xlink:href="#g92B0517FEDA546B52C117B2B2515B55D" x="25.389" y="0" fill="#1a1a18" fill-rule="nonzero"/><use xlink:href="#g7253BD4F4A12C91ABC7B03558525FA66" x="29.799" y="0" fill="#1a1a18" fill-rule="nonzero"/><use xlink:href="#gF858BF125ABDFE8BFF08AFDEC4AC4E4" x="34.335" y="0" fill="#1a1a18" fill-rule="nonzero"/></g></g><path fill="#c7c3ba" fill-rule="nonzero" stroke="#1a1a18" stroke-width="0.6" stroke-linecap="butt" stroke-linejoin="miter" stroke-miterlimit="4" transform="translate(0 83.622047244)" d="M 0 0v 29.763779528h 85.039370079v -29.763779528h -85.039370079Z "/><path fill="none" transform="translate(8.406956693 95.198598425)" d="M 0 0h 39.879v 8.028h -39.879v -8.028Z "/><g transform="translate(8.406956551 95.198598425)"><g transform="matrix(1 0 0 -1 0 5.922)"><use xlink:href="#g52DB0926E2ED50253C4F62DA44AA2A97" x="0" y="0" fill="#1a1a18" fill-rule="nonzero"/><use xlink:href="#g7253BD4F4A12C91ABC7B03558525FA66" x="6.066" y="0" fill="#1a1a18" fill-rule="nonzero"/><use xlink:href="#g4AD90A9068D018AD3CEC8FD5EA9519DC" x="10.602" y="0" fill="#1a1a18" fill-rule="nonzero"/><use xlink:href="#g785243DD0DBD5D3E5E793E04FC62E83F" x="15.273" y="0" fill="#1a1a18" fill-rule="nonzero"/><use xlink:href="#g611C332DF318E3AAFADBD04F1094DD79" x="22.914" y="0" fill="#1a1a18" fill-rule="nonzero"/><use xlink:href="#gF7AD5B3248F8366898BA115B8D318C4E" x="26.919" y="0" fill="#1a1a18" fill-rule="nonzero"/><use xlink:href="#gBA3E9C2E61A84E296B252679103E17C4" x="31.032" y="0" fill="#1a1a18" fill-rule="nonzero"/><use xlink:href="#g611C332DF318E3AAFADBD04F1094DD79" x="35.874" y="0" fill="#1a1a18" fill-rule="nonzero"/></g></g><path fill="#c7c3ba" fill-rule="nonzero" stroke="#1a1a18" stroke-width="0.6" stroke-linecap="butt" stroke-linejoin="miter" stroke-miterlimit="4" transform="translate(85.039370079 39.68503937)" d="M 0 0v 34.015748031h 25.511811024v -34.015748031h -25.511811024Z "/><path fill="none" transform="translate(86.320275591 28.333602362)" d="M 0 0h 22.95v 5.695h -22.95v -5.695Z "/><g transform="translate(86.320275591 28.333602283)"><g transform="matrix(1 0 0 -1 0 5.593)"><use xlink:href="#gC747BCBE7E53B9F16A6385D49F7FDAB9" x="0" y="0" fill="#1a1a18" fill-rule="nonzero"/><use xlink:href="#gE34E15A46C94CBC2E6ABE8844A1DDB21" x="5.3805" y="0" fill="#1a1a18" fill-rule="nonzero"/><use xlink:href="#gDEA2A0379B7527B5C1F8D88530B6617D" x="9.6645" y="0" fill="#1a1a18" fill-rule="nonzero"/><use xlink:href="#g11CAB86DAD56BCA12FE1B0081452B59D" x="15.4445" y="0" fill="#1a1a18" fill-rule="nonzero"/><use xlink:href="#g5D2E58E4CDB4D7E6C81847885E22D756" x="19.1505" y="0" fill="#1a1a18" fill-rule="nonzero"/></g></g><path fill="none" stroke="#1a1a18" stroke-width="1.6" stroke-linecap="butt" stroke-linejoin="miter" stroke-miterlimit="4" transform="translate(28.346456693 29.763779528)" d="M 0 0m 0 17.007874016v -17.007874016"/><path fill="none" stroke="#1a1a18" stroke-width="1.6" stroke-linecap="butt" stroke-linejoin="miter" stroke-miterlimit="4" transform="translate(48.188976378 29.763779528)" d="M 0 0m 0 17.007874016v -17.007874016"/><path fill="none" stroke="#1a1a18" stroke-width="1.6" stroke-linecap="butt" stroke-linejoin="miter" stroke-miterlimit="4" transform="translate(28.346456693 66.614173228)" d="M 0 0m 0 17.007874016v -17.007874016"/><path fill="none" stroke="#1a1a18" stroke-width="1.6" stroke-linecap="butt" stroke-linejoin="miter" stroke-miterlimit="4" transform="translate(48.188976378 66.614173228)" d="M 0 0m 0 17.007874016v -17.007874016"/><path fill="none" stroke="#1a1a18" stroke-width="1.6" stroke-linecap="butt" stroke-linejoin="miter" stroke-miterlimit="4" transform="translate(56.692913386 56.692913386)" d="M 0 0h 28.346456693"/><path fill="none" stroke="#1a1a18" stroke-width="1.6" stroke-linecap="butt" stroke-linejoin="miter" stroke-miterlimit="4" transform="translate(73.700787402 17.007874016)" d="M 0 0l 17.007874016 22.677165354"/><path fill="none" stroke="#1a1a18" stroke-width="1.6" stroke-linecap="butt" stroke-linejoin="miter" stroke-miterlimit="4" transform="translate(73.700787402 73.700787402)" d="M 0 0m 0 19.842519685l 17.007874016 -19.842519685"/><path fill="none" stroke="#1a1a18" stroke-width="0.6" stroke-linecap="butt" stroke-linejoin="miter" stroke-miterlimit="4" transform="translate(119.05511811 56.692913386)" d="M 0 0h 21.82276498"/><path fill="#1a1a18" fill-rule="nonzero" stroke="#1a1a18" stroke-width="0.6" stroke-linecap="butt" stroke-linejoin="miter" stroke-miterlimit="4" transform="translate(140.877882992 54.566929134)" d="M 0 0m 5.669291339 2.125984252l -5.669291339 2.125984252v -4.251968504l 5.669291339 2.125984252Z "/><path fill="none" transform="translate(112.229096457 42.980653543)" d="M 0 0h 41.9985v 7.582h -41.9985v -7.582Z "/><g transform="translate(112.229096457 42.980653417)"><g transform="matrix(1 0 0 -1 0 5.593)"><use xlink:href="#gF931FC691828778A920607CF18B9C32A" x="0" y="0" fill="#7c7f6a" fill-rule="nonzero"/><use xlink:href="#g76961810B6DEE2CEF630C1F5B8F93C8E" x="3.8845" y="0" fill="#7c7f6a" fill-rule="nonzero"/><use xlink:href="#g1EEFC323E4FEBE7654D5CC1583F61AF4" x="8.041" y="0" fill="#7c7f6a" fill-rule="nonzero"/><use xlink:href="#g3EDD64AE7B5A40E8FE9DD75D51E8EE8A" x="11.679" y="0" fill="#7c7f6a" fill-rule="nonzero"/><use xlink:href="#g430571653545A60A3EF6386D136EADA3" x="15.4615" y="0" fill="#7c7f6a" fill-rule="nonzero"/><use xlink:href="#gF931FC691828778A920607CF18B9C32A" x="19.873" y="0" fill="#7c7f6a" fill-rule="nonzero"/><use xlink:href="#gA501B866130BB2CA150759E9628F05FB" x="23.7575" y="0" fill="#7c7f6a" fill-rule="nonzero"/><use xlink:href="#g307C193B65AEABDBB47E80D2901699BD" x="28.0245" y="0" fill="#7c7f6a" fill-rule="nonzero"/><use xlink:href="#gE7AE90A8EDDEF3DDB67EE78D36D80337" x="32.929" y="0" fill="#7c7f6a" fill-rule="nonzero"/><use xlink:href="#gEF5DE670D307ABF3FAA7AE7F58FA196F" x="37.91" y="0" fill="#7c7f6a" fill-rule="nonzero"/></g></g><path fill="none" stroke="#1a1a18" stroke-width="0.6" stroke-linecap="butt" stroke-linejoin="miter" stroke-miterlimit="4" transform="translate(191.338582677 17.007874016)" d="M 0 0m 7.086614173 0c -9.448818898 13.228346457 -9.448818898 26.456692913 0 39.68503937"/><path fill="none" stroke="#1a1a18" stroke-width="0.6" stroke-linecap="butt" stroke-linejoin="miter" stroke-miterlimit="4" transform="translate(198.42519685 17.007874016)" d="M 0 0c 9.448818898 13.228346457 9.448818898 26.456692913 0 39.68503937"/><path fill="none" stroke="#1a1a18" stroke-width="0.6" stroke-linecap="butt" stroke-linejoin="miter" stroke-miterlimit="4" transform="translate(191.338582677 56.692913386)" d="M 0 0m 7.086614173 0c -9.448818898 13.228346457 -9.448818898 26.456692913 0 39.68503937"/><path fill="none" stroke="#1a1a18" stroke-width="0.6" stroke-linecap="butt" stroke-linejoin="miter" stroke-miterlimit="4" transform="translate(198.42519685 56.692913386)" d="M 0 0c 9.448818898 13.228346457 9.448818898 26.456692913 0 39.68503937"/><path fill="none" stroke="#1a1a18" stroke-width="0.6" stroke-linecap="butt" stroke-linejoin="miter" stroke-miterlimit="4" transform="translate(198.42519685 56.692913386)" d="M 0 0h 45.354330709"/><path fill="none" stroke="#1a1a18" stroke-width="0.6" stroke-linecap="butt" stroke-linejoin="miter" stroke-miterlimit="4" transform="translate(198.42519685 17.007874016)" d="M 0 0l 45.354330709 39.68503937"/><path fill="none" stroke="#1a1a18" stroke-width="0.6" stroke-linecap="butt" stroke-linejoin="miter" stroke-miterlimit="4" transform="translate(198.42519685 56.692913386)" d="M 0 0m 0 39.68503937l 45.354330709 -39.68503937"/><path fill="#ffffff" fill-rule="nonzero" stroke="#1a1a18" stroke-width="1" stroke-linecap="butt" stroke-linejoin="miter" stroke-miterlimit="4" transform="translate(190.488188976 9.070866142)" d="M 0 0m 7.937007874 0c -4.379513953 0 -7.937007874 3.557493921 -7.937007874 7.937007874c 0 4.379513953 3.557493921 7.937007874 7.937007874 7.937007874c 4.379513953 0 7.937007874 -3.557493921 7.937007874 -7.937007874c 0 -4.379513953 -3.557493921 -7.937007874 -7.937007874 -7.937007874Z "/><path fill="none" transform="translate(194.72519685 13.772874016)" d="M 0 0h 7.4v 6.47h -7.4v -6.47Z "/><g transform="translate(194.725196787 13.772873906)"><g transform="matrix(1 0 0 -1 0 6.45)"><use xlink:href="#gF238717FF468AB234CFFBC74AF0DF8ED" x="0" y="0" fill="#1a1a18" fill-rule="nonzero"/></g></g><path fill="#ffffff" fill-rule="nonzero" stroke="#1a1a18" stroke-width="1" stroke-linecap="butt" stroke-linejoin="miter" stroke-miterlimit="4" transform="translate(190.488188976 48.755905512)" d="M 0 0m 7.937007874 0c -4.379513953 0 -7.937007874 3.557493921 -7.937007874 7.937007874c 0 4.379513953 3.557493921 7.937007874 7.937007874 7.937007874c 4.379513953 0 7.937007874 -3.557493921 7.937007874 -7.937007874c 0 -4.379513953 -3.557493921 -7.937007874 -7.937007874 -7.937007874Z "/><path fill="none" transform="translate(195.12519685 53.457913386)" d="M 0 0h 6.6v 6.47h -6.6v -6.47Z "/><g transform="translate(195.125196756 53.457913276)"><g transform="matrix(1 0 0 -1 0 6.45)"><use xlink:href="#gFC64CA2A76D1432029799EB50E29276B" x="0" y="0" fill="#1a1a18" fill-rule="nonzero"/></g></g><path fill="#ffffff" fill-rule="nonzero" stroke="#1a1a18" stroke-width="1" stroke-linecap="butt" stroke-linejoin="miter" stroke-miterlimit="4" transform="translate(190.488188976 88.440944882)" d="M 0 0m 7.937007874 0c -4.379513953 0 -7.937007874 3.557493921 -7.937007874 7.937007874c 0 4.379513953 3.557493921 7.937007874 7.937007874 7.937007874c 4.379513953 0 7.937007874 -3.557493921 7.937007874 -7.937007874c 0 -4.379513953 -3.557493921 -7.937007874 -7.937007874 -7.937007874Z "/><path fill="none" transform="translate(195.15519685 93.142952756)" d="M 0 0h 6.54v 6.47h -6.54v -6.47Z "/><g transform="translate(195.155196803 93.142952646)"><g transform="matrix(1 0 0 -1 0 6.45)"><use xlink:href="#g364FC1F42E82C3C7FCCAD83726AC1732" x="0" y="0" fill="#1a1a18" fill-rule="nonzero"/></g></g><path fill="#ffffff" fill-rule="nonzero" stroke="#1a1a18" stroke-width="1" stroke-linecap="butt" stroke-linejoin="miter" stroke-miterlimit="4" transform="translate(235.842519685 48.755905512)" d="M 0 0m 7.937007874 0c -4.379513953 0 -7.937007874 3.557493921 -7.937007874 7.937007874c 0 4.379513953 3.557493921 7.937007874 7.937007874 7.937007874c 4.379513953 0 7.937007874 -3.557493921 7.937007874 -7.937007874c 0 -4.379513953 -3.557493921 -7.937007874 -7.937007874 -7.937007874Z "/><path fill="none" transform="translate(241.024527559 53.457913386)" d="M 0 0h 5.51v 6.47h -5.51v -6.47Z "/><g transform="translate(241.024527496 53.457913276)"><g transform="matrix(1 0 0 -1 0 6.45)"><use xlink:href="#g696EEAC4F7F4DD7619C4B9BAD516ABD" x="0" y="0" fill="#1a1a18" fill-rule="nonzero"/></g></g></g><defs><symbol id="gEA3B3A41111D4BFDC37F9EE66A5BAC3B" overflow="visible"><path d="M 0 0m 1.395 0.711l 0.495 1.305c 0.045 0.117 0.099 0.153 0.315 0.153h 1.899l 0.522 -1.521c 0.108 -0.306 -0.234 -0.342 -0.666 -0.369c -0.054 -0.054 -0.054 -0.243 0 -0.297c 0.333 0.009 0.828 0.018 1.179 0.018c 0.369 0 0.711 -0.009 1.026 -0.018c 0.054 0.054 0.054 0.243 0 0.297c -0.351 0.036 -0.657 0.063 -0.81 0.495l -1.854 5.148c -0.135 -0.081 -0.378 -0.18 -0.495 -0.18l -2.043 -4.824c -0.234 -0.558 -0.504 -0.612 -0.9 -0.639c -0.054 -0.054 -0.054 -0.243 0 -0.297c 0.234 0.009 0.531 0.018 0.801 0.018c 0.369 0 0.819 -0.009 1.152 -0.018c 0.054 0.054 0.054 0.243 0 0.297c -0.342 0.027 -0.765 0.063 -0.621 0.432Z m 0.972 1.836c -0.198 0 -0.261 0.027 -0.225 0.117l 0.918 2.331h 0.054l 0.846 -2.448Z "/></symbol><symbol id="gB118266EF18AECCCCEF724ECE6F3D1D3" overflow="visible"><path d="M 0 0m 3.762 1.098v 1.665c 0 0.738 0.117 0.783 0.612 0.819c 0.054 0.054 0.054 0.243 0 0.297c -0.27 -0.009 -0.612 -0.018 -0.972 -0.018h -1.701c -0.297 0 -0.648 0.009 -0.918 0.018c -0.054 -0.054 -0.054 -0.243 0 -0.297c 0.639 -0.045 0.729 -0.099 0.729 -1.071c 0 -0.945 -0.072 -1.44 -0.198 -1.809c -0.117 -0.324 -0.27 -0.441 -0.423 -0.441c -0.117 0 -0.153 0.072 -0.171 0.189c -0.027 0.171 -0.081 0.342 -0.333 0.342c -0.225 0 -0.351 -0.18 -0.351 -0.378c 0 -0.279 0.252 -0.522 0.666 -0.522c 0.459 0 0.711 0.234 0.918 0.72c 0.18 0.432 0.234 1.35 0.234 1.962c 0 0.702 0.027 0.936 0.387 0.936h 0.405c 0.342 0 0.405 -0.216 0.405 -0.522v -1.89c 0 -0.738 -0.09 -0.783 -0.558 -0.819c -0.045 -0.054 -0.045 -0.243 0 -0.297c 0.225 0.009 0.558 0.018 0.918 0.018c 0.36 0 0.765 -0.009 1.017 -0.018c 0.045 0.054 0.045 0.243 0 0.297c -0.585 0.036 -0.666 0.081 -0.666 0.819Z "/></symbol><symbol id="g1F6C67A5839963BD6478B8393FDBF84B" overflow="visible"><path d="M 0 0m 1.674 2.754c 0 0.756 0.099 0.783 0.648 0.828c 0.054 0.054 0.054 0.243 0 0.297c -0.306 -0.009 -0.612 -0.018 -1.008 -0.018c -0.387 0 -0.702 0.009 -0.999 0.018c -0.054 -0.054 -0.054 -0.243 0 -0.297c 0.549 -0.036 0.648 -0.072 0.648 -0.819v -1.665c 0 -0.747 -0.099 -0.774 -0.648 -0.819c -0.054 -0.054 -0.054 -0.243 0 -0.297c 0.297 0.009 0.612 0.018 1.008 0.018c 0.369 0 0.567 -0.018 0.936 -0.018c 1.107 0 1.71 0.279 1.71 1.242c 0 0.846 -0.738 1.089 -1.647 1.089h -0.648Z m 1.521 -1.62c 0 -0.738 -0.45 -0.855 -0.927 -0.855c -0.441 0 -0.594 0.09 -0.594 0.405v 1.332h 0.639c 0.675 0 0.882 -0.405 0.882 -0.882Z "/></symbol><symbol id="g611C332DF318E3AAFADBD04F1094DD79" overflow="visible"><path d="M 0 0m 1.638 1.098c 0 -0.747 -0.099 -0.792 -0.648 -0.819c -0.054 -0.054 -0.054 -0.243 0 -0.297c 0.351 0.009 0.711 0.018 1.008 0.018c 0.306 0 0.657 -0.009 0.999 -0.018c 0.054 0.054 0.054 0.243 0 0.297c -0.549 0.027 -0.648 0.072 -0.648 0.819v 2.43h 0.153c 0.729 0 0.873 -0.252 1.026 -0.981c 0.117 0 0.234 0.036 0.234 0.036c -0.054 0.414 -0.09 0.81 -0.099 1.332c -0.207 -0.018 -0.882 -0.054 -1.332 -0.054h -0.675c -0.45 0 -0.954 0.027 -1.314 0.054c -0.009 -0.522 -0.045 -0.918 -0.108 -1.332c 0 0 0.126 -0.036 0.243 -0.036c 0.153 0.729 0.288 0.981 1.026 0.981h 0.135Z "/></symbol><symbol id="g785243DD0DBD5D3E5E793E04FC62E83F" overflow="visible"><path d="M 0 0m 6.714 1.098v 1.665c 0 0.738 0.117 0.783 0.612 0.819c 0.054 0.054 0.054 0.243 0 0.297c -0.27 -0.009 -0.612 -0.018 -0.972 -0.018c -0.36 0 -0.63 0.009 -0.9 0.018c -0.054 -0.054 -0.054 -0.243 0 -0.297c 0.459 -0.045 0.549 -0.081 0.549 -0.819v -1.953c 0 -0.279 -0.027 -0.459 -0.378 -0.459h -1.062c -0.27 0 -0.387 0.081 -0.387 0.459v 1.953c 0.009 0.738 0.072 0.783 0.558 0.819c 0.045 0.054 0.045 0.243 0 0.297c -0.225 -0.009 -0.558 -0.018 -0.918 -0.018c -0.36 0 -0.657 0.009 -0.882 0.018c -0.045 -0.054 -0.045 -0.243 0 -0.297c 0.45 -0.036 0.54 -0.081 0.531 -0.819v -1.962c 0 -0.333 -0.045 -0.45 -0.378 -0.45h -1.026c -0.333 0 -0.387 0.099 -0.387 0.459v 1.953c 0 0.738 0.09 0.783 0.558 0.819c 0.045 0.054 0.045 0.243 0 0.297c -0.225 -0.009 -0.558 -0.018 -0.918 -0.018c -0.36 0 -0.675 0.009 -0.927 0.018c -0.045 -0.054 -0.045 -0.243 0 -0.297c 0.495 -0.036 0.576 -0.081 0.576 -0.819v -1.665c 0 -0.738 -0.117 -0.783 -0.612 -0.819c -0.054 -0.054 -0.054 -0.243 0 -0.297c 0.27 0.009 0.612 0.018 0.972 0.018h 5.031c 0.36 0 0.702 -0.009 0.972 -0.018c 0.054 0.054 0.054 0.243 0 0.297c -0.495 0.036 -0.612 0.081 -0.612 0.819Z "/></symbol><symbol id="gF7AD5B3248F8366898BA115B8D318C4E" overflow="visible"><path d="M 0 0m 2.637 0.432c 0.054 -0.279 0.153 -0.522 0.603 -0.522c 0.342 0 0.666 0.153 0.855 0.333c -0.018 0.108 -0.054 0.189 -0.153 0.243c -0.063 -0.054 -0.216 -0.144 -0.333 -0.144c -0.261 0 -0.27 0.351 -0.27 0.765v 1.323c 0 1.278 -0.702 1.521 -1.359 1.521c -0.738 0 -1.485 -0.486 -1.485 -0.999c 0 -0.216 0.108 -0.324 0.315 -0.324c 0.261 0 0.423 0.189 0.423 0.306c 0 0.063 -0.009 0.126 -0.027 0.162c -0.009 0.027 -0.018 0.081 -0.018 0.18c 0 0.279 0.378 0.378 0.72 0.378c 0.306 0 0.729 -0.153 0.729 -1.17c 0 -0.063 -0.027 -0.099 -0.054 -0.108l -0.774 -0.189c -0.864 -0.216 -1.485 -0.693 -1.485 -1.305c 0 -0.738 0.504 -0.972 1.134 -0.972c 0.315 0 0.585 0.072 0.981 0.378l 0.18 0.144Z m 0 1.665v -1.188c 0 -0.117 -0.054 -0.18 -0.126 -0.234c -0.234 -0.189 -0.54 -0.396 -0.792 -0.396c -0.45 0 -0.648 0.36 -0.648 0.639c 0 0.405 0.189 0.819 0.855 0.99Z "/></symbol><symbol id="gBA3E9C2E61A84E296B252679103E17C4" overflow="visible"><path d="M 0 0m 1.701 3.861c -0.297 0 -0.648 0.009 -0.918 0.018c -0.054 -0.054 -0.054 -0.243 0 -0.297c 0.549 -0.045 0.711 -0.081 0.675 -0.828c -0.036 -0.828 -0.18 -1.494 -0.333 -2.124c -0.054 -0.243 -0.315 -0.324 -0.567 -0.351c -0.135 -0.018 -0.261 -0.072 -0.27 -0.234l -0.054 -1.197c 0.063 -0.027 0.135 -0.036 0.243 -0.009c 0.081 0.333 0.324 1.161 1.134 1.161h 1.557c 0.801 0 1.062 -0.81 1.143 -1.17c 0.081 -0.018 0.162 -0.018 0.252 0.018l -0.054 1.206c 0 0.126 -0.072 0.198 -0.243 0.225c -0.162 0.027 -0.387 0.09 -0.387 0.423v 2.061c 0 0.738 0.117 0.783 0.612 0.819c 0.054 0.054 0.054 0.243 0 0.297c -0.27 -0.009 -0.612 -0.018 -0.972 -0.018Z m -0.252 -3.402c 0 0.153 0.243 0.747 0.378 2.808c 0.009 0.135 0.072 0.252 0.315 0.252h 0.621c 0.36 0 0.405 -0.252 0.405 -0.558v -2.169c 0 -0.297 -0.018 -0.441 -0.378 -0.441h -1.161c -0.099 0 -0.18 0.009 -0.18 0.108Z "/></symbol><symbol id="gF43627BE07F56F49ED540A9B7D4B3473" overflow="visible"><path d="M 0 0m 1.719 1.098v 1.818c 1.026 0 1.188 -0.297 1.539 -1.197c 0.387 -0.99 0.72 -1.719 1.422 -1.728l 0.711 -0.009c 0.054 0.09 0.054 0.207 0 0.297c -0.594 0.027 -0.909 0.459 -1.44 1.827c -0.243 0.63 -0.585 1.017 -1.206 1.017v 0.045c 0.684 0.252 0.891 1.026 0.972 1.584c 0.036 0.261 0.09 0.558 0.36 0.558c 0.117 0 0.189 -0.045 0.288 -0.144c 0.09 -0.09 0.216 -0.135 0.333 -0.135c 0.189 0 0.396 0.099 0.396 0.36c 0 0.207 -0.162 0.468 -0.639 0.468c -0.711 0 -0.981 -0.504 -1.071 -1.062c -0.081 -0.504 -0.207 -1.08 -0.738 -1.368c -0.216 -0.126 -0.603 -0.135 -0.927 -0.135v 1.413c 0 0.747 0.153 0.792 0.783 0.819c 0.054 0.054 0.054 0.243 0 0.297c -0.396 -0.009 -0.819 -0.018 -1.17 -0.018c -0.297 0 -0.738 0.009 -1.161 0.018c -0.054 -0.054 -0.054 -0.243 0 -0.297c 0.63 -0.027 0.783 -0.072 0.783 -0.819v -3.609c 0 -0.747 -0.153 -0.792 -0.783 -0.819c -0.054 -0.054 -0.054 -0.243 0 -0.297c 0.405 0.009 0.846 0.018 1.17 0.018c 0.324 0 0.756 -0.009 1.161 -0.018c 0.054 0.054 0.054 0.243 0 0.297c -0.63 0.027 -0.783 0.072 -0.783 0.819Z "/></symbol><symbol id="g5F2B105DCE44482CD07DFE0B4651B637" overflow="visible"><path d="M 0 0m 4.311 2.763c 0 0.747 0.099 0.774 0.648 0.819c 0.054 0.054 0.054 0.243 0 0.297c -0.315 -0.018 -0.711 -0.018 -1.008 -0.018c -0.252 0 -0.612 0.009 -0.963 0.018c -0.054 -0.054 -0.054 -0.243 0 -0.297c 0.549 -0.036 0.612 -0.072 0.612 -0.819v -0.585h -1.926v 0.585c 0 0.747 0.063 0.774 0.612 0.819c 0.054 0.054 0.054 0.243 0 0.297c -0.342 -0.009 -0.684 -0.018 -0.972 -0.018c -0.27 0 -0.639 0.009 -0.999 0.018c -0.054 -0.054 -0.054 -0.243 0 -0.297c 0.549 -0.036 0.648 -0.072 0.648 -0.819v -1.665c 0 -0.747 -0.099 -0.774 -0.648 -0.819c -0.054 -0.054 -0.054 -0.243 0 -0.297c 0.36 0.009 0.72 0.018 1.008 0.018c 0.288 0 0.639 -0.009 0.963 -0.018c 0.054 0.054 0.054 0.243 0 0.297c -0.549 0.036 -0.612 0.072 -0.612 0.819v 0.783h 1.926v -0.783c 0 -0.747 -0.063 -0.774 -0.612 -0.819c -0.054 -0.054 -0.054 -0.243 0 -0.297c 0.324 0.009 0.657 0.018 0.972 0.018c 0.27 0 0.648 -0.009 0.999 -0.018c 0.054 0.054 0.054 0.243 0 0.297c -0.549 0.036 -0.648 0.072 -0.648 0.819Z "/></symbol><symbol id="gAC51535933F66B1324FEFB6C0CD8A486" overflow="visible"><path d="M 0 0m 1.782 0.567c -0.027 0 -0.063 0.018 -0.063 0.108v 2.052c 0 0.747 0.189 0.828 0.648 0.855c 0.054 0.054 0.054 0.243 0 0.297c -0.207 -0.009 -0.72 -0.018 -1.053 -0.018c -0.297 0 -0.657 0.009 -0.999 0.018c -0.054 -0.054 -0.054 -0.243 0 -0.297c 0.549 -0.027 0.693 -0.108 0.693 -0.855v -1.593c 0 -0.747 -0.144 -0.828 -0.693 -0.855c -0.054 -0.054 -0.054 -0.243 0 -0.297c 0.351 0.009 0.711 0.018 0.999 0.018c 0.207 0 0.45 -0.009 0.549 -0.018c 0.045 0.126 0.126 0.306 0.225 0.486l 1.404 2.817c 0.027 0 0.063 -0.018 0.063 -0.108v -2.043c 0 -0.747 -0.189 -0.828 -0.648 -0.855c -0.054 -0.054 -0.054 -0.243 0 -0.297c 0.207 0.009 0.693 0.018 1.053 0.018c 0.279 0 0.648 -0.009 0.999 -0.018c 0.054 0.054 0.054 0.243 0 0.297c -0.549 0.027 -0.693 0.108 -0.693 0.855v 1.593c 0 0.747 0.144 0.828 0.693 0.855c 0.054 0.054 0.054 0.243 0 0.297c -0.36 -0.009 -0.72 -0.018 -0.999 -0.018c -0.198 0 -0.45 0.009 -0.54 0.018c -0.072 -0.162 -0.153 -0.351 -0.234 -0.504Z m 1.935 4.743c 0 0.171 -0.126 0.297 -0.342 0.297c -0.162 0 -0.315 -0.126 -0.315 -0.279c 0 -0.027 0 -0.045 0.009 -0.063c 0.009 -0.027 0.009 -0.054 0.009 -0.081c 0 -0.198 -0.189 -0.378 -0.45 -0.378c -0.27 0 -0.45 0.189 -0.45 0.387c 0 0.018 0 0.045 0.009 0.072c 0.009 0.027 0.009 0.045 0.009 0.072c 0 0.144 -0.108 0.27 -0.306 0.27c -0.207 0 -0.351 -0.135 -0.351 -0.297c 0 -0.486 0.495 -0.783 1.08 -0.783c 0.576 0 1.098 0.288 1.098 0.783Z "/></symbol><symbol id="gA5834380700F55B3689219A2CC4667E3" overflow="visible"><path d="M 0 0m 3.933 3.861h -2.556c -0.36 0 -0.702 0.009 -0.972 0.018c -0.054 -0.054 -0.054 -0.243 0 -0.297c 0.495 -0.036 0.612 -0.081 0.612 -0.819v -1.665c 0 -0.738 -0.117 -0.783 -0.702 -0.819c -0.054 -0.054 -0.054 -0.243 0 -0.297c 0.27 0.009 0.702 0.018 1.062 0.018c 0.36 0 0.63 -0.009 0.9 -0.018c 0.054 0.054 0.054 0.243 0 0.297c -0.459 0.045 -0.549 0.081 -0.549 0.819v 1.953c 0 0.279 0.027 0.459 0.378 0.459h 1.089c 0.333 0 0.387 -0.099 0.387 -0.459v -1.953c 0 -0.738 -0.09 -0.783 -0.558 -0.819c -0.045 -0.054 -0.045 -0.243 0 -0.297c 0.225 0.009 0.558 0.018 0.918 0.018c 0.36 0 0.765 -0.009 1.017 -0.018c 0.045 0.054 0.045 0.243 0 0.297c -0.585 0.036 -0.666 0.081 -0.666 0.819v 1.665c 0 0.738 0.117 0.783 0.612 0.819c 0.054 0.054 0.054 0.243 0 0.297c -0.27 -0.009 -0.612 -0.018 -0.972 -0.018Z "/></symbol><symbol id="g92B0517FEDA546B52C117B2B2515B55D" overflow="visible"><path d="M 0 0m 1.638 3.222c -0.207 0.306 -0.144 0.315 0.261 0.36c 0.054 0.054 0.054 0.243 0 0.297c -0.243 -0.009 -0.639 -0.018 -0.909 -0.018c -0.27 0 -0.54 0.009 -0.774 0.018c -0.054 -0.054 -0.054 -0.243 0 -0.297c 0.306 -0.027 0.558 -0.18 0.81 -0.549l 0.783 -1.143c 0.045 -0.063 0.045 -0.09 0.009 -0.135l -0.756 -0.972c -0.36 -0.459 -0.558 -0.486 -0.873 -0.504c -0.054 -0.054 -0.054 -0.243 0 -0.297c 0.18 0.009 0.378 0.018 0.648 0.018c 0.27 0 0.522 -0.009 0.756 -0.018c 0.054 0.054 0.054 0.243 0 0.297c -0.324 0.036 -0.396 0.072 -0.198 0.36l 0.567 0.819c 0.072 0.108 0.108 0.099 0.162 0.018l 0.522 -0.72c 0.315 -0.432 0.171 -0.45 -0.117 -0.477c -0.054 -0.054 -0.054 -0.243 0 -0.297c 0.27 0.009 0.567 0.018 0.891 0.018c 0.342 0 0.585 -0.009 0.801 -0.018c 0.054 0.054 0.054 0.243 0 0.297c -0.405 0.027 -0.54 0.054 -0.9 0.567l -0.81 1.143c -0.036 0.054 -0.045 0.081 0 0.135l 0.756 0.963c 0.333 0.423 0.549 0.468 0.873 0.495c 0.054 0.054 0.054 0.243 0 0.297c -0.18 -0.009 -0.387 -0.018 -0.657 -0.018c -0.27 0 -0.522 0.009 -0.756 0.018c -0.054 -0.054 -0.054 -0.243 0 -0.297c 0.333 -0.036 0.432 -0.063 0.216 -0.369l -0.585 -0.819c -0.063 -0.09 -0.099 -0.081 -0.171 0.018Z "/></symbol><symbol id="g7253BD4F4A12C91ABC7B03558525FA66" overflow="visible"><path d="M 0 0m 0.369 1.845c 0 -0.918 0.612 -1.935 1.89 -1.935c 0.576 0 1.017 0.207 1.323 0.504c 0.405 0.396 0.585 0.963 0.585 1.512c 0 0.936 -0.513 2.025 -1.89 2.025c -0.594 0 -1.08 -0.243 -1.413 -0.63c -0.324 -0.387 -0.495 -0.909 -0.495 -1.476Z m 1.773 1.791c 0.774 0 1.251 -0.702 1.251 -1.998c 0 -1.134 -0.585 -1.413 -1.008 -1.413c -0.936 0 -1.242 1.134 -1.242 1.827c 0 0.783 0.189 1.584 0.999 1.584Z "/></symbol><symbol id="gF858BF125ABDFE8BFF08AFDEC4AC4E4" overflow="visible"><path d="M 0 0m 3.312 5.247c 0 0.585 0.036 0.945 0.036 0.945c 0 0.063 -0.036 0.09 -0.117 0.09c -0.225 -0.09 -0.9 -0.216 -1.26 -0.243c -0.018 -0.072 0 -0.216 0.054 -0.27c 0.522 -0.036 0.576 -0.063 0.576 -0.738v -1.386c -0.171 0.189 -0.387 0.306 -0.666 0.306c -0.819 0 -1.584 -0.774 -1.584 -2.214c 0 -0.972 0.486 -1.827 1.386 -1.827c 0.36 0 0.63 0.108 0.864 0.36v -1.26c 0 -0.747 -0.099 -0.792 -0.648 -0.819c -0.054 -0.054 -0.054 -0.243 0 -0.297c 0.315 0.009 0.648 0.018 1.008 0.018c 0.36 0 0.702 -0.009 0.999 -0.018c 0.054 0.054 0.054 0.243 0 0.297c -0.549 0.027 -0.648 0.072 -0.648 0.819v 1.161c 0.198 -0.198 0.396 -0.261 0.675 -0.261c 0.936 0 1.575 0.981 1.575 2.196c 0 0.999 -0.477 1.845 -1.377 1.845c -0.423 0 -0.675 -0.162 -0.873 -0.405Z m 0.621 -1.656c 0.747 0 0.891 -0.963 0.891 -1.719c 0 -0.783 -0.144 -1.602 -0.927 -1.602c -0.189 0 -0.387 0.054 -0.585 0.342v 2.601c 0.198 0.288 0.423 0.378 0.621 0.378Z m -1.944 -3.321c -0.738 0 -0.9 0.972 -0.9 1.728c 0 0.783 0.162 1.593 0.945 1.593c 0.198 0 0.369 -0.09 0.567 -0.333v -2.592c -0.171 -0.27 -0.369 -0.396 -0.612 -0.396Z "/></symbol><symbol id="g52DB0926E2ED50253C4F62DA44AA2A97" overflow="visible"><path d="M 0 0m 1.863 -0.018c 0.351 0.009 0.846 0.018 1.17 0.018c 0.324 0 0.81 -0.009 1.161 -0.018c 0.054 0.072 0.054 0.234 0 0.297c -0.621 0.027 -0.783 0.072 -0.783 0.792c 1.17 0.063 2.313 0.477 2.313 1.908c 0 1.341 -1.008 1.773 -2.313 1.845c 0.018 0.639 0.189 0.675 0.783 0.702c 0.054 0.054 0.054 0.243 0 0.297c -0.342 -0.009 -0.711 -0.018 -1.17 -0.018c -0.45 0 -0.819 0.009 -1.161 0.018c -0.054 -0.054 -0.054 -0.243 0 -0.297c 0.594 -0.027 0.765 -0.063 0.783 -0.702c -1.107 -0.063 -2.313 -0.432 -2.313 -1.899c 0 -1.53 1.341 -1.809 2.313 -1.854c 0 -0.72 -0.162 -0.765 -0.783 -0.792c -0.054 -0.054 -0.054 -0.243 0 -0.297Z m 0.783 1.35c -0.81 0.054 -1.593 0.333 -1.593 1.647c 0 1.242 0.765 1.521 1.593 1.584Z m 0.765 0v 3.231c 0.891 -0.063 1.593 -0.36 1.593 -1.638c 0 -1.26 -0.837 -1.539 -1.593 -1.593Z "/></symbol><symbol id="g4AD90A9068D018AD3CEC8FD5EA9519DC" overflow="visible"><path d="M 0 0m 1.404 3.312c -0.009 0.27 -0.027 0.504 -0.072 0.594c -0.018 0.045 -0.036 0.072 -0.108 0.072c -0.252 -0.099 -0.486 -0.18 -1.107 -0.261c -0.018 -0.054 0 -0.198 0.018 -0.252c 0.486 -0.045 0.585 -0.09 0.585 -0.612v -3.843c 0 -0.747 -0.099 -0.792 -0.648 -0.819c -0.054 -0.054 -0.054 -0.243 0 -0.297c 0.315 0.009 0.648 0.018 1.008 0.018c 0.36 0 0.792 -0.009 1.089 -0.018c 0.054 0.054 0.054 0.243 0 0.297c -0.639 0.036 -0.738 0.072 -0.738 0.819v 0.972c 0 0.117 0.036 0.108 0.126 0.072c 0.225 -0.09 0.495 -0.144 0.783 -0.144c 0.504 0 0.954 0.153 1.323 0.504c 0.423 0.414 0.666 0.972 0.666 1.701c 0 0.954 -0.675 1.836 -1.593 1.836c -0.414 0 -0.873 -0.27 -1.233 -0.675c -0.054 -0.054 -0.09 -0.054 -0.099 0.036Z m 0.171 -0.333c 0.234 0.288 0.648 0.558 0.909 0.558c 0.576 0 1.071 -0.648 1.071 -1.665c 0 -0.738 -0.261 -1.656 -1.269 -1.656c -0.162 0 -0.477 0.045 -0.639 0.189c -0.18 0.162 -0.216 0.216 -0.216 0.54v 1.638c 0 0.189 0.036 0.27 0.144 0.396Z "/></symbol><symbol id="gC747BCBE7E53B9F16A6385D49F7FDAB9" overflow="visible"><path d="M 0 0m 4.437 1.037v 3.4c 0 0.7055 0.1445 0.7565 0.7395 0.782c 0.051 0.051 0.051 0.2295 0 0.2805c -0.4165 -0.0085 -1.105 -0.017 -1.105 -0.017h -2.0145c -0.5525 0 -0.8755 0.017 -0.8755 0.017c -0.051 -0.085 -0.051 -0.204 0 -0.2805c 0.544 -0.017 0.663 -0.034 0.663 -0.9775c -0.0085 -1.7255 -0.1615 -2.7455 -0.323 -3.2725c -0.102 -0.3485 -0.255 -0.561 -0.4335 -0.561c -0.102 0 -0.1955 0.0255 -0.2635 0.221c -0.051 0.153 -0.1615 0.2805 -0.3825 0.2805c -0.2295 0 -0.391 -0.17 -0.391 -0.442c 0 -0.4505 0.4675 -0.5695 0.782 -0.5695c 0.493 0 0.799 0.306 0.9775 0.748c 0.3145 0.782 0.408 2.431 0.408 3.825c 0 0.6375 0.051 0.748 0.4165 0.748h 0.6375c 0.3655 0 0.442 -0.1785 0.442 -0.765v -3.417c 0 -0.7055 -0.1445 -0.748 -0.7395 -0.7735c -0.051 -0.051 -0.051 -0.2295 0 -0.2805c 0.3825 0.0085 0.799 0.017 1.105 0.017c 0.306 0 0.714 -0.0085 1.0965 -0.017c 0.051 0.051 0.051 0.2295 0 0.2805c -0.595 0.0255 -0.7395 0.068 -0.7395 0.7735Z "/></symbol><symbol id="gE34E15A46C94CBC2E6ABE8844A1DDB21" overflow="visible"><path d="M 0 0m 0.3485 1.7425c 0 -0.867 0.578 -1.8275 1.785 -1.8275c 0.544 0 0.9605 0.1955 1.2495 0.476c 0.3825 0.374 0.5525 0.9095 0.5525 1.428c 0 0.884 -0.4845 1.9125 -1.785 1.9125c -0.561 0 -1.02 -0.2295 -1.3345 -0.595c -0.306 -0.3655 -0.4675 -0.8585 -0.4675 -1.394Z m 1.6745 1.6915c 0.731 0 1.1815 -0.663 1.1815 -1.887c 0 -1.071 -0.5525 -1.3345 -0.952 -1.3345c -0.884 0 -1.173 1.071 -1.173 1.7255c 0 0.7395 0.1785 1.496 0.9435 1.496Z "/></symbol><symbol id="gDEA2A0379B7527B5C1F8D88530B6617D" overflow="visible"><path d="M 0 0m 0.9945 2.601l -0.051 -1.581c -0.0255 -0.714 -0.153 -0.731 -0.646 -0.7565c -0.051 -0.051 -0.051 -0.2295 0 -0.2805c 0.17 0.0085 0.595 0.017 0.731 0.017c 0.17 0 0.5695 -0.0085 0.7395 -0.017c 0.051 0.051 0.051 0.2295 0 0.2805c -0.4845 0.034 -0.5185 0.119 -0.5015 0.7565l 0.0595 2.0825c 0 0.0765 0.034 0.0765 0.068 0l 1.2325 -3.009c 0.034 -0.0255 0.068 -0.0255 0.0935 0l 1.394 3.0005c 0.0425 0.0935 0.085 0.102 0.085 0l -0.0085 -2.057c 0 -0.7055 -0.0595 -0.731 -0.578 -0.7735c -0.051 -0.051 -0.051 -0.2295 0 -0.2805c 0.306 0.0085 0.6205 0.017 0.918 0.017c 0.255 0 0.6205 -0.0085 0.952 -0.017c 0.051 0.051 0.051 0.2295 0 0.2805c -0.5185 0.034 -0.612 0.068 -0.612 0.7735l -0.017 1.5725c -0.0085 0.7055 0.0935 0.731 0.612 0.7735c 0.051 0.051 0.051 0.2295 0 0.2805c -0.2975 -0.017 -1.122 -0.017 -1.4025 -0.017l -1.1305 -2.431l -0.0425 -0.085l -0.034 0.085l -0.9945 2.431c -0.2805 0 -1.1815 0 -1.479 0.017c -0.051 -0.051 -0.051 -0.2295 0 -0.2805c 0.5185 -0.0425 0.6375 -0.0765 0.612 -0.782Z "/></symbol><symbol id="g11CAB86DAD56BCA12FE1B0081452B59D" overflow="visible"><path d="M 0 0m 0.3655 0.7055c 0 -0.187 0.1105 -0.323 0.289 -0.459c 0.2125 -0.153 0.493 -0.3315 1.1645 -0.3315c 0.85 0 1.513 0.255 1.513 1.0965c 0 0.51 -0.255 0.85 -0.8585 0.952v 0.0255c 0.5185 0.1955 0.6545 0.4335 0.6545 0.8755c 0 0.493 -0.34 0.867 -1.1985 0.867c -0.4505 0 -0.85 -0.1615 -1.309 -0.238l -0.1105 -1.0115c 0.068 -0.034 0.153 -0.0425 0.2295 -0.034c 0.1615 0.493 0.374 0.986 1.088 0.986c 0.4675 0 0.6205 -0.2805 0.6205 -0.6205c 0 -0.3485 -0.0595 -0.7565 -0.6035 -0.7565c -0.1615 0 -0.306 0.051 -0.4675 0.051c -0.0765 0 -0.1615 -0.051 -0.1615 -0.187c 0 -0.136 0.0935 -0.1785 0.17 -0.1785c 0.1615 0 0.255 0.051 0.4675 0.051c 0.629 0 0.748 -0.4335 0.748 -0.8075c 0 -0.5015 -0.187 -0.7735 -0.7905 -0.7735c -0.4845 0 -0.5695 0.1785 -0.714 0.4845c -0.068 0.153 -0.1615 0.272 -0.3825 0.272c -0.153 0 -0.3485 -0.1275 -0.3485 -0.2635Z "/></symbol><symbol id="g5D2E58E4CDB4D7E6C81847885E22D756" overflow="visible"><path d="M 0 0m 3.281 0.7905c -0.3145 -0.323 -0.561 -0.459 -1.054 -0.459c -0.306 0 -0.663 0.1785 -0.9265 0.612c -0.17 0.2805 -0.272 0.6715 -0.272 1.1645l 2.261 -0.017c 0.102 0 0.1615 0.051 0.1615 0.1445c 0 0.714 -0.255 1.479 -1.4365 1.479c -0.7395 0 -1.7 -0.7055 -1.7 -1.9975c 0 -0.476 0.119 -0.935 0.3995 -1.258c 0.289 -0.34 0.6885 -0.544 1.3005 -0.544c 0.646 0 1.105 0.2975 1.445 0.7395c -0.0255 0.085 -0.0765 0.1275 -0.1785 0.136Z m -2.227 1.6065c 0.1615 0.9605 0.7565 1.037 0.9605 1.037c 0.323 0 0.7055 -0.1785 0.7055 -0.8925c 0 -0.0765 -0.034 -0.119 -0.1275 -0.119Z "/></symbol><symbol id="gF931FC691828778A920607CF18B9C32A" overflow="visible"><path d="M 0 0m 2.4905 0.408c 0.051 -0.2635 0.1445 -0.493 0.5695 -0.493c 0.323 0 0.629 0.1445 0.8075 0.3145c -0.017 0.102 -0.051 0.1785 -0.1445 0.2295c -0.0595 -0.051 -0.204 -0.136 -0.3145 -0.136c -0.2465 0 -0.255 0.3315 -0.255 0.7225v 1.2495c 0 1.207 -0.663 1.4365 -1.2835 1.4365c -0.697 0 -1.4025 -0.459 -1.4025 -0.9435c 0 -0.204 0.102 -0.306 0.2975 -0.306c 0.2465 0 0.3995 0.1785 0.3995 0.289c 0 0.0595 -0.0085 0.119 -0.0255 0.153c -0.0085 0.0255 -0.017 0.0765 -0.017 0.17c 0 0.2635 0.357 0.357 0.68 0.357c 0.289 0 0.6885 -0.1445 0.6885 -1.105c 0 -0.0595 -0.0255 -0.0935 -0.051 -0.102l -0.731 -0.1785c -0.816 -0.204 -1.4025 -0.6545 -1.4025 -1.2325c 0 -0.697 0.476 -0.918 1.071 -0.918c 0.2975 0 0.5525 0.068 0.9265 0.357l 0.17 0.136Z m 0 1.5725v -1.122c 0 -0.1105 -0.051 -0.17 -0.119 -0.221c -0.221 -0.1785 -0.51 -0.374 -0.748 -0.374c -0.425 0 -0.612 0.34 -0.612 0.6035c 0 0.3825 0.1785 0.7735 0.8075 0.935Z "/></symbol><symbol id="g76961810B6DEE2CEF630C1F5B8F93C8E" overflow="visible"><path d="M 0 0m 0.289 2.1845c 0 -1.6065 0.9265 -2.2695 1.751 -2.2695c 1.1645 0 1.836 0.867 1.836 1.938c 0 0.918 -0.51 1.8785 -1.7085 1.8785c -0.8075 0 -1.3005 -0.476 -1.4875 -0.884l -0.017 0.017c 0.034 0.442 0.17 0.986 0.2975 1.207c 0.272 0.4675 0.595 0.493 1.377 0.578c 0.765 0.085 1.309 0.3315 1.3855 1.2835c -0.0595 0.0255 -0.119 0.034 -0.187 0c -0.068 -0.408 -0.5185 -0.5185 -1.2325 -0.629c -0.6885 -0.1105 -1.2665 -0.3485 -1.6235 -1.02c -0.306 -0.578 -0.391 -1.292 -0.391 -2.0995Z m 0.731 -0.221c 0 0.476 0.17 1.4705 1.054 1.4705c 0.663 0 1.071 -0.765 1.071 -1.785c 0 -1.071 -0.493 -1.4365 -0.952 -1.4365c -0.6205 0 -1.173 0.8075 -1.173 1.751Z "/></symbol><symbol id="g1EEFC323E4FEBE7654D5CC1583F61AF4" overflow="visible"><path d="M 0 0m 3.383 0.7735c -0.034 0.0765 -0.102 0.1105 -0.1785 0.119c -0.289 -0.374 -0.6545 -0.561 -1.02 -0.561c -0.6205 0 -1.139 0.629 -1.139 1.6235c 0 0.935 0.408 1.496 0.969 1.496c 0.5015 0 0.5695 -0.2975 0.6035 -0.595c 0.0255 -0.2295 0.1445 -0.306 0.323 -0.306c 0.1785 0 0.4165 0.1105 0.4165 0.374c 0 0.4675 -0.4845 0.8075 -1.3005 0.8075c -0.8415 0 -1.7425 -0.7565 -1.7425 -1.9635c 0 -1.0965 0.612 -1.853 1.683 -1.853c 0.51 0 0.9605 0.1615 1.3855 0.8585Z "/></symbol><symbol id="g3EDD64AE7B5A40E8FE9DD75D51E8EE8A" overflow="visible"><path d="M 0 0m 1.547 1.037c 0 -0.7055 -0.0935 -0.748 -0.612 -0.7735c -0.051 -0.051 -0.051 -0.2295 0 -0.2805c 0.3315 0.0085 0.6715 0.017 0.952 0.017c 0.289 0 0.6205 -0.0085 0.9435 -0.017c 0.051 0.051 0.051 0.2295 0 0.2805c -0.5185 0.0255 -0.612 0.068 -0.612 0.7735v 2.295h 0.1445c 0.6885 0 0.8245 -0.238 0.969 -0.9265c 0.1105 0 0.221 0.034 0.221 0.034c -0.051 0.391 -0.085 0.765 -0.0935 1.258c -0.1955 -0.017 -0.833 -0.051 -1.258 -0.051h -0.6375c -0.425 0 -0.901 0.0255 -1.241 0.051c -0.0085 -0.493 -0.0425 -0.867 -0.102 -1.258c 0 0 0.119 -0.034 0.2295 -0.034c 0.1445 0.6885 0.272 0.9265 0.969 0.9265h 0.1275Z "/></symbol><symbol id="g430571653545A60A3EF6386D136EADA3" overflow="visible"><path d="M 0 0m 1.326 3.128c -0.0085 0.255 -0.0255 0.476 -0.068 0.561c -0.017 0.0425 -0.034 0.068 -0.102 0.068c -0.238 -0.0935 -0.459 -0.17 -1.0455 -0.2465c -0.017 -0.051 0 -0.187 0.017 -0.238c 0.459 -0.0425 0.5525 -0.085 0.5525 -0.578v -3.6295c 0 -0.7055 -0.0935 -0.748 -0.612 -0.7735c -0.051 -0.051 -0.051 -0.2295 0 -0.2805c 0.2975 0.0085 0.612 0.017 0.952 0.017c 0.34 0 0.748 -0.0085 1.0285 -0.017c 0.051 0.051 0.051 0.2295 0 0.2805c -0.6035 0.034 -0.697 0.068 -0.697 0.7735v 0.918c 0 0.1105 0.034 0.102 0.119 0.068c 0.2125 -0.085 0.4675 -0.136 0.7395 -0.136c 0.476 0 0.901 0.1445 1.2495 0.476c 0.3995 0.391 0.629 0.918 0.629 1.6065c 0 0.901 -0.6375 1.734 -1.5045 1.734c -0.391 0 -0.8245 -0.255 -1.1645 -0.6375c -0.051 -0.051 -0.085 -0.051 -0.0935 0.034Z m 0.1615 -0.3145c 0.221 0.272 0.612 0.527 0.8585 0.527c 0.544 0 1.0115 -0.612 1.0115 -1.5725c 0 -0.697 -0.2465 -1.564 -1.1985 -1.564c -0.153 0 -0.4505 0.0425 -0.6035 0.1785c -0.17 0.153 -0.204 0.204 -0.204 0.51v 1.547c 0 0.1785 0.034 0.255 0.136 0.374Z "/></symbol><symbol id="gA501B866130BB2CA150759E9628F05FB" overflow="visible"><path d="M 0 0m 3.281 0c 0 0 0.663 -0.0085 0.833 -0.017c 0.051 0.051 0.051 0.2295 0 0.2805c -0.3315 0.017 -0.3995 0.085 -0.544 0.357l -0.3825 0.7225c -0.2125 0.3995 -0.51 0.6035 -0.9945 0.6035v 0.0255c 0.3315 0.0935 0.476 0.391 0.6035 0.731c 0.102 0.2635 0.204 0.425 0.3825 0.425c 0.0765 0 0.1445 -0.0255 0.1955 -0.0595c 0.051 -0.034 0.1445 -0.0595 0.255 -0.0595c 0.187 0 0.34 0.1615 0.34 0.3315c 0 0.187 -0.204 0.3825 -0.4845 0.3825c -0.493 0 -0.7225 -0.459 -0.884 -0.8585c -0.187 -0.4675 -0.4165 -0.7905 -1.02 -0.7905v 0.5355c 0 0.7055 0.0935 0.731 0.527 0.7735c 0.051 0.051 0.051 0.2295 0 0.2805c -0.204 -0.0085 -0.527 -0.017 -0.867 -0.017c -0.3655 0 -0.663 0.0085 -0.9435 0.017c -0.051 -0.051 -0.051 -0.2295 0 -0.2805c 0.5185 -0.034 0.612 -0.068 0.612 -0.7735v -1.5725c 0 -0.7055 -0.0935 -0.731 -0.612 -0.7735c -0.051 -0.051 -0.051 -0.2295 0 -0.2805c 0.2805 0.0085 0.578 0.017 0.952 0.017c 0.3315 0 0.6715 -0.0085 0.8585 -0.017c 0.051 0.051 0.051 0.2295 0 0.2805c -0.4335 0.034 -0.527 0.068 -0.527 0.7735v 0.7395c 0.578 -0.034 0.731 -0.2635 0.884 -0.578l 0.3655 -0.765c 0.1105 -0.2295 0.2805 -0.425 0.4505 -0.4335Z "/></symbol><symbol id="g307C193B65AEABDBB47E80D2901699BD" overflow="visible"><path d="M 0 0m 1.9125 0.3315c -0.3145 0 -0.3655 0.0935 -0.3655 0.4335v 1.8445c 0 0.697 0.085 0.7395 0.527 0.7735c 0.0425 0.051 0.0425 0.2295 0 0.2805c -0.2125 -0.0085 -0.527 -0.017 -0.867 -0.017c -0.34 0 -0.6375 0.0085 -0.8755 0.017c -0.0425 -0.051 -0.0425 -0.2295 0 -0.2805c 0.4675 -0.034 0.544 -0.0765 0.544 -0.7735v -1.5725c 0 -0.697 -0.1105 -0.7395 -0.578 -0.7735c -0.051 -0.051 -0.051 -0.2295 0 -0.2805c 0.255 0.0085 0.578 0.017 0.918 0.017h 2.142c 0.714 0 0.9605 -0.68 1.071 -1.0965c 0.0765 -0.017 0.153 -0.017 0.221 0.0085l -0.051 1.1305c -0.0085 0.153 -0.136 0.1955 -0.255 0.221c -0.1955 0.0425 -0.3315 0.0935 -0.3315 0.7735v 1.5725c 0 0.697 0.1105 0.7395 0.578 0.7735c 0.051 0.051 0.051 0.2295 0 0.2805c -0.255 -0.0085 -0.578 -0.017 -0.918 -0.017c -0.34 0 -0.595 0.0085 -0.85 0.017c -0.051 -0.051 -0.051 -0.2295 0 -0.2805c 0.4335 -0.0425 0.5185 -0.0765 0.5185 -0.7735v -1.8445c 0 -0.2635 -0.0255 -0.4335 -0.357 -0.4335Z "/></symbol><symbol id="gE7AE90A8EDDEF3DDB67EE78D36D80337" overflow="visible"><path d="M 0 0m 1.683 0.5355c -0.0255 0 -0.0595 0.017 -0.0595 0.102v 1.938c 0 0.7055 0.1785 0.782 0.612 0.8075c 0.051 0.051 0.051 0.2295 0 0.2805c -0.1955 -0.0085 -0.68 -0.017 -0.9945 -0.017c -0.2805 0 -0.6205 0.0085 -0.9435 0.017c -0.051 -0.051 -0.051 -0.2295 0 -0.2805c 0.5185 -0.0255 0.6545 -0.102 0.6545 -0.8075v -1.5045c 0 -0.7055 -0.136 -0.782 -0.6545 -0.8075c -0.051 -0.051 -0.051 -0.2295 0 -0.2805c 0.3315 0.0085 0.6715 0.017 0.9435 0.017c 0.1955 0 0.425 -0.0085 0.5185 -0.017c 0.0425 0.119 0.119 0.289 0.2125 0.459l 1.326 2.6605c 0.0255 0 0.0595 -0.017 0.0595 -0.102v -1.9295c 0 -0.7055 -0.1785 -0.782 -0.612 -0.8075c -0.051 -0.051 -0.051 -0.2295 0 -0.2805c 0.1955 0.0085 0.6545 0.017 0.9945 0.017c 0.2635 0 0.612 -0.0085 0.9435 -0.017c 0.051 0.051 0.051 0.2295 0 0.2805c -0.5185 0.0255 -0.6545 0.102 -0.6545 0.8075v 1.5045c 0 0.7055 0.136 0.782 0.6545 0.8075c 0.051 0.051 0.051 0.2295 0 0.2805c -0.34 -0.0085 -0.68 -0.017 -0.9435 -0.017c -0.187 0 -0.425 0.0085 -0.51 0.017c -0.068 -0.153 -0.1445 -0.3315 -0.221 -0.476Z "/></symbol><symbol id="gEF5DE670D307ABF3FAA7AE7F58FA196F" overflow="visible"><path d="M 0 0m 0.969 0c 0.238 0.0085 0.323 0.2295 0.425 0.5355c 0.221 0.6715 0.4675 1.088 0.8925 1.088h 0.221v -0.5865c 0 -0.7055 -0.0935 -0.731 -0.612 -0.7735c -0.051 -0.051 -0.051 -0.2295 0 -0.2805c 0.2805 0.0085 0.578 0.017 0.952 0.017c 0.3655 0 0.6715 -0.0085 0.9435 -0.017c 0.051 0.051 0.051 0.2295 0 0.2805c -0.5185 0.034 -0.612 0.068 -0.612 0.7735v 1.5725c 0 0.7055 0.0935 0.731 0.612 0.7735c 0.051 0.051 0.051 0.2295 0 0.2805c -0.289 -0.0085 -0.578 -0.017 -0.952 -0.017c -0.289 0 -0.5355 0.017 -0.748 0.017c -1.4875 0 -1.615 -0.612 -1.615 -1.071c 0 -0.5525 0.425 -0.833 1.054 -0.8585c 0.0255 0 0.0255 -0.0255 0.017 -0.034c -0.323 -0.0935 -0.4675 -0.272 -0.612 -0.5865c -0.0935 -0.1955 -0.17 -0.3825 -0.2125 -0.493c -0.1105 -0.289 -0.255 -0.34 -0.5865 -0.357c -0.051 -0.051 -0.051 -0.2295 0 -0.2805c 0.17 0.0085 0.833 0.017 0.833 0.017Z m 0.238 2.7285c 0 0.3995 0.1275 0.6545 0.816 0.6545c 0.3485 0 0.4845 -0.153 0.4845 -0.476v -0.9945h -0.595c -0.51 0 -0.7055 0.391 -0.7055 0.816Z "/></symbol><symbol id="gF238717FF468AB234CFFBC74AF0DF8ED" overflow="visible"><path d="M 0 0m 1.65 0.79l 0.53 1.39c 0.05 0.13 0.11 0.17 0.35 0.17h 1.9l 0.56 -1.63c 0.12 -0.36 -0.17 -0.37 -0.55 -0.39c -0.06 0 -0.13 -0.01 -0.19 -0.01c -0.06 -0.06 -0.06 -0.28 0 -0.34c 0.37 0.01 1.32 0.02 1.71 0.02c 0.41 0 0.97 -0.01 1.34 -0.02c 0.06 0.06 0.06 0.28 0 0.34c -0.39 0.04 -0.72 0.03 -0.9 0.54l -2.06 5.72c -0.15 -0.09 -0.75 -0.44 -1.1 -0.44l -2.17 -5.12c -0.26 -0.62 -0.56 -0.67 -1 -0.7c -0.06 -0.06 -0.06 -0.28 0 -0.34c 0.37 0.01 0.55 0.02 0.94 0.02c 0.41 0 0.96 -0.01 1.33 -0.02c 0.06 0.06 0.06 0.28 0 0.34c -0.38 0.03 -0.85 0.06 -0.69 0.47Z m 1.08 2.04c -0.22 0 -0.29 0.03 -0.25 0.13l 0.88 2.24h 0.07l 0.82 -2.37Z "/></symbol><symbol id="gFC64CA2A76D1432029799EB50E29276B" overflow="visible"><path d="M 0 0m 3.59 6.03c 1.05 0 1.42 -0.56 1.62 -1.28c 0.12 -0.02 0.33 0 0.43 0.05c -0.01 0.52 -0.07 1.15 -0.16 1.67c 0 0 -0.91 -0.02 -1.2 -0.02h -2.43c -0.39 0 -1.54 0.02 -1.54 0.02c -0.1 -0.06 -0.1 -0.28 0 -0.34c 0.55 -0.03 0.83 -0.07 0.83 -0.9v -4.01c 0 -0.83 -0.28 -0.87 -0.83 -0.9c -0.1 -0.06 -0.1 -0.28 0 -0.34c 0 0 1.14 0.02 1.54 0.02c 0.4 0 0.6 -0.02 1.42 -0.02l 0.76 0.02c 1.18 0.03 2.11 0.87 2.11 1.93c 0 0.76 -0.07 1.82 -2.52 1.82h -1.08v 1.49c 0 0.6 0.14 0.79 0.35 0.79Z m -0.44 -5.61c -0.5 0 -0.61 0.14 -0.61 0.88v 2.01h 0.95c 1.12 0 1.15 -0.96 1.15 -1.53c 0 -0.62 -0.02 -1.36 -1.49 -1.36Z "/></symbol><symbol id="g364FC1F42E82C3C7FCCAD83726AC1732" overflow="visible"><path d="M 0 0m 1.73 6.45c -0.4 0 -1.54 0.02 -1.54 0.02c -0.1 -0.06 -0.1 -0.28 0 -0.34c 0.55 -0.03 0.83 -0.07 0.83 -0.9v -4.01c 0 -0.83 -0.28 -0.87 -0.83 -0.9c -0.1 -0.06 -0.1 -0.28 0 -0.34c 0 0 1.14 0.02 1.54 0.02c 0.4 0 1.04 -0.02 1.64 -0.02c 2.05 0 2.71 0.86 2.71 1.88c 0 0.88 -0.44 1.45 -1.5 1.73v 0.02c 0.54 0.24 0.96 0.79 0.96 1.3c 0 0.69 -0.37 1.56 -2.39 1.56c -0.5 0 -1.1 -0.02 -1.42 -0.02Z m 0.69 -3.11h 0.71c 1.03 0 1.48 -0.61 1.48 -1.47c 0 -0.6 -0.21 -1.47 -1.53 -1.47c -0.6 0 -0.66 0.15 -0.66 0.44Z m 0 2.28c 0 0.29 0.05 0.43 0.7 0.43c 0.46 0 1.02 -0.18 1.02 -1.16c 0 -0.8 -0.45 -1.13 -1.16 -1.13h -0.56Z "/></symbol><symbol id="g696EEAC4F7F4DD7619C4B9BAD516ABD" overflow="visible"><path d="M 0 0m 3.35 6.03c 1.05 0 1.42 -0.56 1.62 -1.28c 0.12 -0.02 0.33 0 0.43 0.05c -0.06 0.52 -0.16 1.17 -0.26 1.67c 0 0 -0.91 -0.02 -1.2 -0.02h -2.23c -0.39 0 -1.54 0.02 -1.54 0.02c -0.1 -0.06 -0.1 -0.28 0 -0.34c 0.55 -0.03 0.83 -0.07 0.83 -0.9v -4.01c 0 -0.83 -0.28 -0.87 -0.83 -0.9c -0.1 -0.06 -0.1 -0.28 0 -0.34c 0 0 1.14 0.02 1.54 0.02c 0.4 0 0.7 -0.01 1.52 -0.02c 0.1 0.06 0.1 0.28 0 0.34c -0.55 0.03 -0.83 0.07 -0.83 0.9v 4.02c 0 0.6 0.14 0.79 0.35 0.79Z "/></symbol></defs></svg>