<svg viewBox="0 0 254.892503937 115.017952756" width="254.892503937pt" height="115.017952756pt" xmlns="http://www.w3.org/2000/svg" xmlns:xlink="http://www.w3.org/1999/xlink" xmlns:h5="http://www.w3.org/1999/xhtml"><path fill="#ffffff" fill-rule="nonzero" d="M 0 0v 115.017952756h 254.892503937v -115.017952756Z "/><g transform="translate(8 8)"><path fill="none" stroke="#1a1a18" stroke-width="0.6" stroke-linecap="butt" stroke-linejoin="miter" stroke-miterlimit="4" transform="translate(65.431748031 11.143937008)" d="M 0 0m 7.086614173 0c -9.448818898 13.228346457 -9.448818898 26.456692913 0 39.68503937"/><path fill="none" stroke="#1a1a18" stroke-width="0.6" stroke-linecap="butt" stroke-linejoin="miter" stroke-miterlimit="4" transform="translate(72.518362205 11.143937008)" d="M 0 0c 9.448818898 13.228346457 9.448818898 26.456692913 0 39.68503937"/><path fill="none" stroke="#1a1a18" stroke-width="0.6" stroke-linecap="butt" stroke-linejoin="miter" stroke-miterlimit="4" transform="translate(65.431748031 50.828976378)" d="M 0 0m 7.086614173 0c -9.448818898 13.228346457 -9.448818898 26.456692913 0 39.68503937"/><path fill="none" stroke="#1a1a18" stroke-width="0.6" stroke-linecap="butt" stroke-linejoin="miter" stroke-miterlimit="4" transform="translate(72.518362205 50.828976378)" d="M 0 0c 9.448818898 13.228346457 9.448818898 26.456692913 0 39.68503937"/><path fill="none" stroke="#1a1a18" stroke-width="0.6" stroke-linecap="butt" stroke-linejoin="miter" stroke-miterlimit="4" transform="translate(72.518362205 50.828976378)" d="M 0 0h 45.354330709"/><path fill="none" stroke="#1a1a18" stroke-width="0.6" stroke-linecap="butt" stroke-linejoin="miter" stroke-miterlimit="4" transform="translate(72.518362205 11.143937008)" d="M 0 0l 45.354330709 39.68503937"/><path fill="none" stroke="#1a1a18" stroke-width="0.6" stroke-linecap="butt" stroke-linejoin="miter" stroke-miterlimit="4" transform="translate(72.518362205 50.828976378)" d="M 0 0m 0 39.68503937l 45.354330709 -39.68503937"/><path fill="none" stroke="#7c7f6a" stroke-width="1.4" stroke-linecap="butt" stroke-linejoin="miter" stroke-miterlimit="4" stroke-dashoffset="0" stroke-dasharray="3 3" transform="translate(59.053795276 11.143937008)" d="M 0 0m 13.464566929 0c -17.952755906 13.228346457 -17.952755906 26.456692913 0 39.68503937"/><path fill="none" transform="translate(0 28.147456693)" d="M 0 0h 31.416v 5.678h -31.416v -5.678Z "/><g transform="translate(-4.7e-8 28.147456583)"><g transform="matrix(1 0 0 -1 0 5.593)"><use xlink:href="#g1025CE8674AB1344572BC90E67D4CE52" x="0" y="0" fill="#7c7f6a" fill-rule="nonzero"/><use xlink:href="#g8C72BB449192921556C72857AFAF1123" x="3.9525" y="0" fill="#7c7f6a" fill-rule="nonzero"/><use xlink:href="#gB4154B742B01C4CB9DD5E5AAD4490D84" x="6.8255" y="0" fill="#7c7f6a" fill-rule="nonzero"/><use xlink:href="#gDEA2A0379B7527B5C1F8D88530B6617D" x="13.9315" y="0" fill="#7c7f6a" fill-rule="nonzero"/><use xlink:href="#gE34E15A46C94CBC2E6ABE8844A1DDB21" x="19.7115" y="0" fill="#7c7f6a" fill-rule="nonzero"/><use xlink:href="#g1EEFC323E4FEBE7654D5CC1583F61AF4" x="23.9955" y="0" fill="#7c7f6a" fill-rule="nonzero"/><use xlink:href="#g3EDD64AE7B5A40E8FE9DD75D51E8EE8A" x="27.6335" y="0" fill="#7c7f6a" fill-rule="nonzero"/></g></g><path fill="#ffffff" fill-rule="nonzero" stroke="#7c7f6a" stroke-width="1.6" stroke-linecap="butt" stroke-linejoin="miter" stroke-miterlimit="4" transform="translate(64.014425197 2.64)" d="M 0 0m 8.503937008 0c -4.692336378 0 -8.503937008 3.81160063 -8.503937008 8.503937008c 0 4.692336378 3.81160063 8.503937008 8.503937008 8.503937008c 4.692336378 0 8.503937008 -3.81160063 8.503937008 -8.503937008c 0 -4.692336378 -3.81160063 -8.503937008 -8.503937008 -8.503937008Z "/><path fill="none" transform="translate(69.691362205 7.585437008)" d="M 0 0h 5.654v 7.117h -5.654v -7.117Z "/><g transform="translate(69.691362142 7.585436929)"><g transform="matrix(1 0 0 -1 0 7.095)"><use xlink:href="#g9643649E9FBC0217955C40313894A7AE" x="0" y="0" fill="#7c7f6a" fill-rule="nonzero"/></g></g><path fill="none" transform="translate(82.15615748)" d="M 0 0h 5.56v 5.28h -5.56v -5.28Z "/><g transform="translate(82.156157402 -4.7e-8)"><g transform="matrix(1 0 0 -1 0 5.264)"><use xlink:href="#gD66CB638AEE2552B4842936C259209" x="0" y="0" fill="#a29b8c" fill-rule="nonzero"/></g></g><path fill="#ffffff" fill-rule="nonzero" stroke="#7c7f6a" stroke-width="1.6" stroke-linecap="butt" stroke-linejoin="miter" stroke-miterlimit="4" transform="translate(64.014425197 42.32503937)" d="M 0 0m 8.503937008 0c -4.692336378 0 -8.503937008 3.81160063 -8.503937008 8.503937008c 0 4.692336378 3.81160063 8.503937008 8.503937008 8.503937008c 4.692336378 0 8.503937008 -3.81160063 8.503937008 -8.503937008c 0 -4.692336378 -3.81160063 -8.503937008 -8.503937008 -8.503937008Z "/><path fill="none" transform="translate(69.691362205 47.226476378)" d="M 0 0h 5.654v 7.205h -5.654v -7.205Z "/><g transform="translate(69.691362142 47.226476362)"><g transform="matrix(1 0 0 -1 0 7.095)"><use xlink:href="#g7A70C810FECF1B50F9139DBE05E36E75" x="0" y="0" fill="#7c7f6a" fill-rule="nonzero"/></g></g><path fill="none" transform="translate(82.15615748 39.68503937)" d="M 0 0h 4.664v 5.28h -4.664v -5.28Z "/><g transform="translate(82.156157417 39.685039323)"><g transform="matrix(1 0 0 -1 0 5.264)"><use xlink:href="#gBFDD6E463813A677E94724810ECB9301" x="0" y="0" fill="#a29b8c" fill-rule="nonzero"/></g></g><path fill="#ffffff" fill-rule="nonzero" stroke="#1a1a18" stroke-width="1" stroke-linecap="butt" stroke-linejoin="miter" stroke-miterlimit="4" transform="translate(64.014425197 82.01007874)" d="M 0 0m 8.503937008 0c -4.692336378 0 -8.503937008 3.81160063 -8.503937008 8.503937008c 0 4.692336378 3.81160063 8.503937008 8.503937008 8.503937008c 4.692336378 0 8.503937008 -3.81160063 8.503937008 -8.503937008c 0 -4.692336378 -3.81160063 -8.503937008 -8.503937008 -8.503937008Z "/><path fill="none" transform="translate(69.691362205 86.911515748)" d="M 0 0h 5.654v 7.205h -5.654v -7.205Z "/><g transform="translate(69.691362142 86.911515732)"><g transform="matrix(1 0 0 -1 0 7.095)"><use xlink:href="#gC686C225C82A47FF4D8EC5198742AF19" x="0" y="0" fill="#1a1a18" fill-rule="nonzero"/></g></g><path fill="none" transform="translate(82.15615748 79.37007874)" d="M 0 0h 4.704v 5.28h -4.704v -5.28Z "/><g transform="translate(82.156157433 79.370078693)"><g transform="matrix(1 0 0 -1 0 5.264)"><use xlink:href="#g62042F536A8885746C8F0C40FD747199" x="0" y="0" fill="#a29b8c" fill-rule="nonzero"/></g></g><path fill="#ffffff" fill-rule="nonzero" stroke="#1a1a18" stroke-width="1" stroke-linecap="butt" stroke-linejoin="miter" stroke-miterlimit="4" transform="translate(109.368755906 42.32503937)" d="M 0 0m 8.503937008 0c -4.692336378 0 -8.503937008 3.81160063 -8.503937008 8.503937008c 0 4.692336378 3.81160063 8.503937008 8.503937008 8.503937008c 4.692336378 0 8.503937008 -3.81160063 8.503937008 -8.503937008c 0 -4.692336378 -3.81160063 -8.503937008 -8.503937008 -8.503937008Z "/><path fill="none" transform="translate(115.045692913 47.226476378)" d="M 0 0h 5.654v 7.205h -5.654v -7.205Z "/><g transform="translate(115.04569285 47.226476362)"><g transform="matrix(1 0 0 -1 0 7.095)"><use xlink:href="#gC686C225C82A47FF4D8EC5198742AF19" x="0" y="0" fill="#1a1a18" fill-rule="nonzero"/></g></g><path fill="none" transform="translate(127.510488189 39.68503937)" d="M 0 0h 3.976v 5.28h -3.976v -5.28Z "/><g transform="translate(127.51048811 39.685039323)"><g transform="matrix(1 0 0 -1 0 5.264)"><use xlink:href="#g9F835D92AAE6270BD51C6CE5ABD52C9A" x="0" y="0" fill="#a29b8c" fill-rule="nonzero"/></g></g><path fill="none" transform="translate(143.384503937 29.660102362)" d="M 0 0h 57.608v 8.322h -57.608v -8.322Z "/><g transform="translate(143.384503827 29.660102315)"><g transform="matrix(1 0 0 -1 0 6.4885)"><use xlink:href="#gA087682AD38D2D620C1058FCC30E85F0" x="0" y="0" fill="#1a1a18" fill-rule="nonzero"/><use xlink:href="#g15DE86D891118100C568580819B789B3" x="4.6455" y="0" fill="#1a1a18" fill-rule="nonzero"/><use xlink:href="#gC86282117E7C9F65658F6DDAC49FC51A" x="11.5235" y="0" fill="#1a1a18" fill-rule="nonzero"/><use xlink:href="#gC110FFC20529D78AB6B9724BF2D3193A" x="16.53" y="0" fill="#1a1a18" fill-rule="nonzero"/><use xlink:href="#g1F0789F66DF5BF6464D009EFF79AE18" x="21.318" y="0" fill="#1a1a18" fill-rule="nonzero"/></g><g transform="matrix(1 0 0 -1 25.935 6.4885)"><use xlink:href="#g1D67ADB585984EB7E65DD4FC59896276" x="0" y="0" fill="#1a1a18" fill-rule="nonzero"/></g><g transform="matrix(1 0 0 -1 30.685 6.4885)"><use xlink:href="#g2FB3D085C5C373AD5F11876CA67E9382" x="0" y="0" fill="#1a1a18" fill-rule="nonzero"/></g><g transform="matrix(1 0 0 -1 34.909333333 6.4885)"><use xlink:href="#gFD43D1DD52696D0C8CEE01C5BBAE1FB3" x="0" y="0" fill="#1a1a18" fill-rule="nonzero"/></g><g transform="matrix(1 0 0 -1 39.659333333 6.4885)"><use xlink:href="#g2FB3D085C5C373AD5F11876CA67E9382" x="0" y="0" fill="#1a1a18" fill-rule="nonzero"/></g><g transform="matrix(1 0 0 -1 43.883666667 6.4885)"><use xlink:href="#gFD43D1DD52696D0C8CEE01C5BBAE1FB3" x="0" y="0" fill="#1a1a18" fill-rule="nonzero"/></g><g transform="matrix(1 0 0 -1 48.633666667 6.4885)"><use xlink:href="#g2FB3D085C5C373AD5F11876CA67E9382" x="0" y="0" fill="#1a1a18" fill-rule="nonzero"/></g><g transform="matrix(1 0 0 -1 52.858 6.4885)"><use xlink:href="#gFD43D1DD52696D0C8CEE01C5BBAE1FB3" x="0" y="0" fill="#1a1a18" fill-rule="nonzero"/></g></g><path fill="none" transform="translate(143.384503937 46.667976378)" d="M 0 0h 58.7195v 8.322h -58.7195v -8.322Z "/><g transform="translate(143.384503827 46.667976331)"><g transform="matrix(1 0 0 -1 0 6.4885)"><use xlink:href="#g966D14D99AB05D933C4957B2E7FE95D9" x="0" y="0" fill="#1a1a18" fill-rule="nonzero"/><use xlink:href="#gF1C320A4506B818F6BCB8CDA11A2DE6" x="4.066" y="0" fill="#1a1a18" fill-rule="nonzero"/><use xlink:href="#g30F02AEBABA7D40FC17FCA43D8EB3DAA" x="8.2935" y="0" fill="#1a1a18" fill-rule="nonzero"/><use xlink:href="#gC86282117E7C9F65658F6DDAC49FC51A" x="12.635" y="0" fill="#1a1a18" fill-rule="nonzero"/><use xlink:href="#gC110FFC20529D78AB6B9724BF2D3193A" x="17.6415" y="0" fill="#1a1a18" fill-rule="nonzero"/><use xlink:href="#g1F0789F66DF5BF6464D009EFF79AE18" x="22.4295" y="0" fill="#1a1a18" fill-rule="nonzero"/></g><g transform="matrix(1 0 0 -1 27.0465 6.4885)"><use xlink:href="#g1E2660CC0CBAD91BD2824CA13971C617" x="0" y="0" fill="#1a1a18" fill-rule="nonzero"/></g><g transform="matrix(1 0 0 -1 31.7965 6.4885)"><use xlink:href="#g2FB3D085C5C373AD5F11876CA67E9382" x="0" y="0" fill="#1a1a18" fill-rule="nonzero"/></g><g transform="matrix(1 0 0 -1 36.020833333 6.4885)"><use xlink:href="#g807105DC1F2B28D032B83956F067C81E" x="0" y="0" fill="#1a1a18" fill-rule="nonzero"/></g><g transform="matrix(1 0 0 -1 40.770833333 6.4885)"><use xlink:href="#g2FB3D085C5C373AD5F11876CA67E9382" x="0" y="0" fill="#1a1a18" fill-rule="nonzero"/></g><g transform="matrix(1 0 0 -1 44.995166667 6.4885)"><use xlink:href="#gFD43D1DD52696D0C8CEE01C5BBAE1FB3" x="0" y="0" fill="#1a1a18" fill-rule="nonzero"/></g><g transform="matrix(1 0 0 -1 49.745166667 6.4885)"><use xlink:href="#g2FB3D085C5C373AD5F11876CA67E9382" x="0" y="0" fill="#1a1a18" fill-rule="nonzero"/></g><g transform="matrix(1 0 0 -1 53.9695 6.4885)"><use xlink:href="#gFD43D1DD52696D0C8CEE01C5BBAE1FB3" x="0" y="0" fill="#1a1a18" fill-rule="nonzero"/></g></g><path fill="none" transform="translate(143.384503937 63.831850394)" d="M 0 0h 95.508v 8.01h -95.508v -8.01Z "/><g transform="translate(143.384503795 63.831850252)"><g transform="matrix(1 0 0 -1 0 5.922)"><use xlink:href="#g847357BB8876AF51969CA80692415844" x="0" y="0" fill="#7c7f6a" fill-rule="nonzero"/><use xlink:href="#g5F2B105DCE44482CD07DFE0B4651B637" x="6.435" y="0" fill="#7c7f6a" fill-rule="nonzero"/><use xlink:href="#gD351E21AD091924D522A6D2D6355C932" x="11.709" y="0" fill="#7c7f6a" fill-rule="nonzero"/><use xlink:href="#g3515EF5FD07324BC31659A9072C9EEF0" x="15.732" y="0" fill="#7c7f6a" fill-rule="nonzero"/><use xlink:href="#g99E666F374C663336A4AF6A2BEDCF993" x="20.583" y="0" fill="#7c7f6a" fill-rule="nonzero"/><use xlink:href="#g611C332DF318E3AAFADBD04F1094DD79" x="24.606" y="0" fill="#7c7f6a" fill-rule="nonzero"/><use xlink:href="#g5F2B105DCE44482CD07DFE0B4651B637" x="28.611" y="0" fill="#7c7f6a" fill-rule="nonzero"/><use xlink:href="#g5CCD3C35BE7C263075DDDC3F0C06DEE6" x="33.885" y="0" fill="#7c7f6a" fill-rule="nonzero"/><use xlink:href="#gD351E21AD091924D522A6D2D6355C932" x="40.401" y="0" fill="#7c7f6a" fill-rule="nonzero"/><use xlink:href="#gB75AB0E2CC62A89AB96A67F9AB496609" x="46.674" y="0" fill="#7c7f6a" fill-rule="nonzero"/><use xlink:href="#gA5834380700F55B3689219A2CC4667E3" x="59.094" y="0" fill="#7c7f6a" fill-rule="nonzero"/><use xlink:href="#gFFF6E9B9A983FEBF7FB8DCFB305974E9" x="64.368" y="0" fill="#7c7f6a" fill-rule="nonzero"/><use xlink:href="#g611C332DF318E3AAFADBD04F1094DD79" x="69.003" y="0" fill="#7c7f6a" fill-rule="nonzero"/><use xlink:href="#g1F6C67A5839963BD6478B8393FDBF84B" x="73.008" y="0" fill="#7c7f6a" fill-rule="nonzero"/><use xlink:href="#gD351E21AD091924D522A6D2D6355C932" x="79.443" y="0" fill="#7c7f6a" fill-rule="nonzero"/><use xlink:href="#g7815E2C79248546AAEE49EC7F57ADD4E" x="83.466" y="0" fill="#7c7f6a" fill-rule="nonzero"/><use xlink:href="#g611C332DF318E3AAFADBD04F1094DD79" x="87.318" y="0" fill="#7c7f6a" fill-rule="nonzero"/><use xlink:href="#g1F6C67A5839963BD6478B8393FDBF84B" x="91.323" y="0" fill="#7c7f6a" fill-rule="nonzero"/></g></g></g><defs><symbol id="g1025CE8674AB1344572BC90E67D4CE52" overflow="visible"><path d="M 0 0m 3.3405 4.1225c 0 0.612 -0.476 1.0625 -1.309 1.0625c -0.867 0 -1.428 -0.5185 -1.428 -1.173c 0 -0.476 0.2295 -0.8245 0.748 -1.1475l 0.221 -0.136c -0.2465 -0.1275 -0.476 -0.2805 -0.6885 -0.4675c -0.3485 -0.306 -0.493 -0.6885 -0.493 -1.02c 0 -0.867 0.612 -1.326 1.513 -1.326c 1.1135 0 1.6575 0.816 1.6575 1.462c 0 0.493 -0.2125 0.9265 -0.663 1.1985l -0.6035 0.3655c 0.3995 0.1955 1.0455 0.6375 1.0455 1.1815Z m -1.4195 -3.91c -0.3825 0 -0.9605 0.2635 -0.9605 1.0285c 0 0.255 0.1105 0.85 0.8415 1.3345l 0.3995 -0.238c 0.527 -0.323 0.7395 -0.7225 0.7395 -1.1305c 0 -0.85 -0.6375 -0.9945 -1.02 -0.9945Z m 0.068 4.675c 0.5525 0 0.7565 -0.3655 0.7565 -0.7565c 0 -0.459 -0.4505 -0.8415 -0.68 -1.0115l -0.2635 0.1615c -0.5355 0.3485 -0.595 0.629 -0.595 0.8925c 0 0.391 0.272 0.714 0.782 0.714Z "/></symbol><symbol id="g8C72BB449192921556C72857AFAF1123" overflow="visible"><path d="M 0 0m 2.3035 1.8955c 0.1105 0 0.2295 0.238 0.2295 0.34c 0 0.085 -0.034 0.17 -0.119 0.17h -1.8615c -0.102 0 -0.2125 -0.1955 -0.2125 -0.3485c 0 -0.085 0.051 -0.1615 0.1275 -0.1615Z "/></symbol><symbol id="gB4154B742B01C4CB9DD5E5AAD4490D84" overflow="visible"><path d="M 0 0m 1.683 0.5355c -0.0255 0 -0.0595 0.017 -0.0595 0.102v 1.938c 0 0.7055 0.1785 0.782 0.612 0.8075c 0.051 0.051 0.051 0.2295 0 0.2805c -0.1955 -0.0085 -0.68 -0.017 -0.9945 -0.017c -0.2805 0 -0.6205 0.0085 -0.9435 0.017c -0.051 -0.051 -0.051 -0.2295 0 -0.2805c 0.5185 -0.0255 0.6545 -0.102 0.6545 -0.8075v -1.5045c 0 -0.7055 -0.136 -0.782 -0.6545 -0.8075c -0.051 -0.051 -0.051 -0.2295 0 -0.2805c 0.3315 0.0085 0.6715 0.017 0.9435 0.017c 0.1955 0 0.425 -0.0085 0.5185 -0.017c 0.0425 0.119 0.119 0.289 0.2125 0.459l 1.326 2.6605c 0.0255 0 0.0595 -0.017 0.0595 -0.102v -1.9295c 0 -0.7055 -0.1785 -0.782 -0.612 -0.8075c -0.051 -0.051 -0.051 -0.2295 0 -0.2805c 0.1955 0.0085 0.6545 0.017 0.9945 0.017c 0.2635 0 0.612 -0.0085 0.9435 -0.017c 0.051 0.051 0.051 0.2295 0 0.2805c -0.5185 0.0255 -0.6545 0.102 -0.6545 0.8075v 1.5045c 0 0.7055 0.136 0.782 0.6545 0.8075c 0.051 0.051 0.051 0.2295 0 0.2805c -0.34 -0.0085 -0.68 -0.017 -0.9435 -0.017c -0.187 0 -0.425 0.0085 -0.51 0.017c -0.068 -0.153 -0.1445 -0.3315 -0.221 -0.476Z m 1.8275 4.4795c 0 0.1615 -0.119 0.2805 -0.323 0.2805c -0.153 0 -0.2975 -0.119 -0.2975 -0.2635c 0 -0.0255 0 -0.0425 0.0085 -0.0595c 0.0085 -0.0255 0.0085 -0.051 0.0085 -0.0765c 0 -0.187 -0.1785 -0.357 -0.425 -0.357c -0.255 0 -0.425 0.1785 -0.425 0.3655c 0 0.017 0 0.0425 0.0085 0.068c 0.0085 0.0255 0.0085 0.0425 0.0085 0.068c 0 0.136 -0.102 0.255 -0.289 0.255c -0.1955 0 -0.3315 -0.1275 -0.3315 -0.2805c 0 -0.459 0.4675 -0.7395 1.02 -0.7395c 0.544 0 1.037 0.272 1.037 0.7395Z "/></symbol><symbol id="gDEA2A0379B7527B5C1F8D88530B6617D" overflow="visible"><path d="M 0 0m 0.9945 2.601l -0.051 -1.581c -0.0255 -0.714 -0.153 -0.731 -0.646 -0.7565c -0.051 -0.051 -0.051 -0.2295 0 -0.2805c 0.17 0.0085 0.595 0.017 0.731 0.017c 0.17 0 0.5695 -0.0085 0.7395 -0.017c 0.051 0.051 0.051 0.2295 0 0.2805c -0.4845 0.034 -0.5185 0.119 -0.5015 0.7565l 0.0595 2.0825c 0 0.0765 0.034 0.0765 0.068 0l 1.2325 -3.009c 0.034 -0.0255 0.068 -0.0255 0.0935 0l 1.394 3.0005c 0.0425 0.0935 0.085 0.102 0.085 0l -0.0085 -2.057c 0 -0.7055 -0.0595 -0.731 -0.578 -0.7735c -0.051 -0.051 -0.051 -0.2295 0 -0.2805c 0.306 0.0085 0.6205 0.017 0.918 0.017c 0.255 0 0.6205 -0.0085 0.952 -0.017c 0.051 0.051 0.051 0.2295 0 0.2805c -0.5185 0.034 -0.612 0.068 -0.612 0.7735l -0.017 1.5725c -0.0085 0.7055 0.0935 0.731 0.612 0.7735c 0.051 0.051 0.051 0.2295 0 0.2805c -0.2975 -0.017 -1.122 -0.017 -1.4025 -0.017l -1.1305 -2.431l -0.0425 -0.085l -0.034 0.085l -0.9945 2.431c -0.2805 0 -1.1815 0 -1.479 0.017c -0.051 -0.051 -0.051 -0.2295 0 -0.2805c 0.5185 -0.0425 0.6375 -0.0765 0.612 -0.782Z "/></symbol><symbol id="gE34E15A46C94CBC2E6ABE8844A1DDB21" overflow="visible"><path d="M 0 0m 0.3485 1.7425c 0 -0.867 0.578 -1.8275 1.785 -1.8275c 0.544 0 0.9605 0.1955 1.2495 0.476c 0.3825 0.374 0.5525 0.9095 0.5525 1.428c 0 0.884 -0.4845 1.9125 -1.785 1.9125c -0.561 0 -1.02 -0.2295 -1.3345 -0.595c -0.306 -0.3655 -0.4675 -0.8585 -0.4675 -1.394Z m 1.6745 1.6915c 0.731 0 1.1815 -0.663 1.1815 -1.887c 0 -1.071 -0.5525 -1.3345 -0.952 -1.3345c -0.884 0 -1.173 1.071 -1.173 1.7255c 0 0.7395 0.1785 1.496 0.9435 1.496Z "/></symbol><symbol id="g1EEFC323E4FEBE7654D5CC1583F61AF4" overflow="visible"><path d="M 0 0m 3.383 0.7735c -0.034 0.0765 -0.102 0.1105 -0.1785 0.119c -0.289 -0.374 -0.6545 -0.561 -1.02 -0.561c -0.6205 0 -1.139 0.629 -1.139 1.6235c 0 0.935 0.408 1.496 0.969 1.496c 0.5015 0 0.5695 -0.2975 0.6035 -0.595c 0.0255 -0.2295 0.1445 -0.306 0.323 -0.306c 0.1785 0 0.4165 0.1105 0.4165 0.374c 0 0.4675 -0.4845 0.8075 -1.3005 0.8075c -0.8415 0 -1.7425 -0.7565 -1.7425 -1.9635c 0 -1.0965 0.612 -1.853 1.683 -1.853c 0.51 0 0.9605 0.1615 1.3855 0.8585Z "/></symbol><symbol id="g3EDD64AE7B5A40E8FE9DD75D51E8EE8A" overflow="visible"><path d="M 0 0m 1.547 1.037c 0 -0.7055 -0.0935 -0.748 -0.612 -0.7735c -0.051 -0.051 -0.051 -0.2295 0 -0.2805c 0.3315 0.0085 0.6715 0.017 0.952 0.017c 0.289 0 0.6205 -0.0085 0.9435 -0.017c 0.051 0.051 0.051 0.2295 0 0.2805c -0.5185 0.0255 -0.612 0.068 -0.612 0.7735v 2.295h 0.1445c 0.6885 0 0.8245 -0.238 0.969 -0.9265c 0.1105 0 0.221 0.034 0.221 0.034c -0.051 0.391 -0.085 0.765 -0.0935 1.258c -0.1955 -0.017 -0.833 -0.051 -1.258 -0.051h -0.6375c -0.425 0 -0.901 0.0255 -1.241 0.051c -0.0085 -0.493 -0.0425 -0.867 -0.102 -1.258c 0 0 0.119 -0.034 0.2295 -0.034c 0.1445 0.6885 0.272 0.9265 0.969 0.9265h 0.1275Z "/></symbol><symbol id="g9643649E9FBC0217955C40313894A7AE" overflow="visible"><path d="M 0 0m 5.313 2.299h -1.078v 4.411h -0.99c -0.836 -1.001 -2.024 -2.893 -2.926 -4.257c -0.022 -0.044 -0.077 -0.11 -0.077 -0.143c 0 -0.088 0.242 -0.363 0.319 -0.451c 0.055 -0.055 0.099 -0.077 0.363 -0.077h 1.947v -0.44c 0 -0.913 -0.418 -0.957 -1.023 -0.99c -0.11 -0.066 -0.11 -0.308 0 -0.374c 0.902 0.011 1.276 0.022 1.716 0.022c 0.44 0 0.792 -0.011 1.694 -0.022c 0.11 0.066 0.11 0.308 0 0.374c -0.605 0.033 -1.023 0.077 -1.023 0.99v 0.44h 0.924c 0.154 0 0.319 0.209 0.319 0.341c 0 0.11 -0.044 0.176 -0.165 0.176Z m -2.442 3.212v -3.212h -2.024c 0.55 0.924 1.441 2.42 2.024 3.212Z "/></symbol><symbol id="gD66CB638AEE2552B4842936C259209" overflow="visible"><path d="M 0 0m 1.24 0.632l 0.44 1.16c 0.04 0.104 0.088 0.136 0.28 0.136h 1.688l 0.464 -1.352c 0.096 -0.272 -0.208 -0.304 -0.592 -0.328c -0.048 -0.048 -0.048 -0.216 0 -0.264c 0.296 0.008 0.736 0.016 1.048 0.016c 0.328 0 0.632 -0.008 0.912 -0.016c 0.048 0.048 0.048 0.216 0 0.264c -0.312 0.032 -0.584 0.056 -0.72 0.44l -1.648 4.576c -0.12 -0.072 -0.336 -0.16 -0.44 -0.16l -1.816 -4.288c -0.208 -0.496 -0.448 -0.544 -0.8 -0.568c -0.048 -0.048 -0.048 -0.216 0 -0.264c 0.208 0.008 0.472 0.016 0.712 0.016c 0.328 0 0.728 -0.008 1.024 -0.016c 0.048 0.048 0.048 0.216 0 0.264c -0.304 0.024 -0.68 0.056 -0.552 0.384Z m 0.864 1.632c -0.176 0 -0.232 0.024 -0.2 0.104l 0.816 2.072h 0.048l 0.752 -2.176Z "/></symbol><symbol id="g7A70C810FECF1B50F9139DBE05E36E75" overflow="visible"><path d="M 0 0m 4.95 6.259c 0.033 0.132 0.022 0.341 -0.066 0.451c -1.551 -0.044 -2.376 -0.341 -3.212 -1.067c -0.836 -0.726 -1.188 -1.881 -1.188 -2.937c 0 -2.354 1.298 -2.816 2.409 -2.816c 1.716 0 2.354 1.386 2.354 2.354c 0 0.539 -0.473 1.771 -2.101 1.771c -0.418 0 -0.792 -0.143 -1.21 -0.385c 0.088 0.792 0.462 1.551 0.979 1.969c 0.649 0.528 1.408 0.627 2.035 0.66Z m -3.069 -3.08c 0.418 0.264 0.649 0.286 0.847 0.286c 0.737 0 1.045 -0.759 1.045 -1.419c 0 -1.188 -0.352 -1.727 -0.748 -1.727c -0.55 0 -1.155 0.429 -1.155 2.343c 0 0.121 0 0.396 0.011 0.517Z "/></symbol><symbol id="gBFDD6E463813A677E94724810ECB9301" overflow="visible"><path d="M 0 0m 1.16 0c 0.264 0 0.512 -0.016 0.872 -0.016c 0.648 0 1.176 0.04 1.632 0.344c 0.336 0.224 0.632 0.656 0.632 1.176c 0 0.608 -0.296 1.48 -1.928 1.48h -0.872v 1.608c 0 0.192 0.096 0.248 0.288 0.248h 1c 0.584 0 0.76 -0.416 0.928 -1.088c 0.112 -0.008 0.216 0 0.28 0.04c -0.016 0.44 -0.056 0.888 -0.152 1.368l -0.016 0.016c 0 0 -0.648 -0.016 -0.808 -0.016h -1.864c -0.4 0 -0.632 0.008 -1.032 0.016c -0.048 -0.048 -0.048 -0.216 0 -0.264c 0.56 -0.024 0.696 -0.064 0.696 -0.728v -3.208c 0 -0.664 -0.136 -0.704 -0.696 -0.728c -0.048 -0.048 -0.048 -0.216 0 -0.264c 0.392 0.008 0.632 0.016 1.04 0.016Z m 0.336 2.664h 0.776c 1.08 0 1.304 -0.784 1.304 -1.24c 0 -0.496 -0.248 -1.176 -1.504 -1.176c -0.472 0 -0.576 0.112 -0.576 0.4Z "/></symbol><symbol id="gC686C225C82A47FF4D8EC5198742AF19" overflow="visible"><path d="M 0 0m 2.728 6.248c 0.462 0 0.693 -0.264 0.693 -0.781c 0 -0.836 -0.671 -1.507 -1.683 -1.738l 0.077 -0.44c 0.231 0.066 0.363 0.088 0.528 0.088c 0.572 0 1.375 -0.165 1.375 -1.485c 0 -1.265 -0.748 -1.54 -1.155 -1.54c -0.429 0 -0.66 0.275 -0.803 0.462c -0.121 0.165 -0.308 0.407 -0.715 0.407c -0.341 0 -0.539 -0.286 -0.539 -0.473c 0 -0.231 0.121 -0.396 0.363 -0.517c 0.396 -0.198 0.979 -0.341 1.518 -0.341c 1.298 0 2.75 1.023 2.75 2.552c 0 0.792 -0.517 1.485 -1.441 1.551c 0.484 0.242 1.023 0.825 1.023 1.496c 0 0.484 -0.264 1.221 -1.782 1.221c -1.144 0 -1.606 -0.385 -1.958 -0.704c -0.242 -0.22 -0.308 -0.517 -0.308 -0.66c 0 -0.154 0.055 -0.407 0.418 -0.407c 0.484 0 0.616 0.253 0.682 0.605c 0.121 0.671 0.583 0.704 0.957 0.704Z "/></symbol><symbol id="g62042F536A8885746C8F0C40FD747199" overflow="visible"><path d="M 0 0m 1.184 5.16c -0.288 0 -0.72 0.008 -1.032 0.016c -0.048 -0.048 -0.048 -0.216 0 -0.264c 0.56 -0.024 0.696 -0.064 0.696 -0.728v -3.208c 0 -0.664 -0.136 -0.704 -0.696 -0.728c -0.048 -0.048 -0.048 -0.216 0 -0.264c 0.312 0.008 0.744 0.016 1.04 0.016c 0.288 0 0.496 -0.016 1.168 -0.016c 1.592 0 2.016 0.8 2.016 1.488c 0 0.768 -0.536 1.208 -1.232 1.408v 0.016c 0.4 0.2 0.76 0.616 0.76 1.048c 0 0.536 -0.232 1.232 -1.72 1.232c -0.28 0 -0.712 -0.016 -1 -0.016Z m 0.344 -2.504h 0.552c 1.096 0 1.552 -0.616 1.552 -1.336c 0 -0.584 -0.224 -1.072 -1.44 -1.072c -0.56 0 -0.664 0.208 -0.664 0.696Z m 0 1.744c 0 0.424 0 0.504 0.696 0.504c 0.448 0 1.032 -0.24 1.032 -1.056c 0 -0.68 -0.472 -0.92 -1.136 -0.92h -0.592Z "/></symbol><symbol id="g9F835D92AAE6270BD51C6CE5ABD52C9A" overflow="visible"><path d="M 0 0m 1.176 5.16c 0 0 -0.632 0.008 -1.032 0.016c -0.048 -0.048 -0.048 -0.216 0 -0.264c 0.56 -0.024 0.696 -0.064 0.696 -0.728v -3.208c 0 -0.664 -0.136 -0.704 -0.696 -0.728c -0.048 -0.048 -0.048 -0.216 0 -0.264c 0.312 0.008 0.736 0.016 1.04 0.016c 0.304 0 0.712 -0.008 1.032 -0.016c 0.048 0.048 0.048 0.216 0 0.264c -0.56 0.024 -0.696 0.064 -0.696 0.728v 3.592c 0 0.192 0.096 0.272 0.288 0.272h 0.96c 0.6 0 0.728 -0.4 0.896 -0.952c 0.08 -0.008 0.152 0 0.232 0.032c -0.032 0.672 -0.072 0.984 -0.12 1.256c -0.312 -0.008 -0.96 -0.016 -0.96 -0.016Z "/></symbol><symbol id="gA087682AD38D2D620C1058FCC30E85F0" overflow="visible"><path d="M 0 0m 0.323 2.4415c 0 -1.7955 1.0355 -2.5365 1.957 -2.5365c 1.3015 0 2.052 0.969 2.052 2.166c 0 1.026 -0.57 2.0995 -1.9095 2.0995c -0.9025 0 -1.4535 -0.532 -1.6625 -0.988l -0.019 0.019c 0.038 0.494 0.19 1.102 0.3325 1.349c 0.304 0.5225 0.665 0.551 1.539 0.646c 0.855 0.095 1.463 0.3705 1.5485 1.4345c -0.0665 0.0285 -0.133 0.038 -0.209 0c -0.076 -0.456 -0.5795 -0.5795 -1.3775 -0.703c -0.7695 -0.1235 -1.4155 -0.3895 -1.8145 -1.14c -0.342 -0.646 -0.437 -1.444 -0.437 -2.3465Z m 0.817 -0.247c 0 0.532 0.19 1.6435 1.178 1.6435c 0.741 0 1.197 -0.855 1.197 -1.995c 0 -1.197 -0.551 -1.6055 -1.064 -1.6055c -0.6935 0 -1.311 0.9025 -1.311 1.957Z "/></symbol><symbol id="g15DE86D891118100C568580819B789B3" overflow="visible"><path d="M 0 0m 1.767 2.907c 0 0.798 0.1045 0.8265 0.684 0.874c 0.057 0.057 0.057 0.2565 0 0.3135c -0.323 -0.0095 -0.646 -0.019 -1.064 -0.019c -0.4085 0 -0.741 0.0095 -1.0545 0.019c -0.057 -0.057 -0.057 -0.2565 0 -0.3135c 0.5795 -0.038 0.684 -0.076 0.684 -0.8645v -1.7575c 0 -0.7885 -0.1045 -0.817 -0.684 -0.8645c -0.057 -0.057 -0.057 -0.2565 0 -0.3135c 0.3135 0.0095 0.646 0.019 1.064 0.019c 0.3895 0 0.5985 -0.019 0.988 -0.019c 1.1685 0 1.805 0.2945 1.805 1.311c 0 0.893 -0.779 1.1495 -1.7385 1.1495h -0.684Z m 4.0945 0.0095c 0 0.7885 0.1045 0.817 0.684 0.8645c 0.057 0.057 0.057 0.2565 0 0.3135c -0.323 -0.0095 -0.646 -0.019 -1.064 -0.019c -0.4085 0 -0.741 0.0095 -1.0545 0.019c -0.057 -0.057 -0.057 -0.2565 0 -0.3135c 0.5795 -0.038 0.684 -0.076 0.684 -0.8645v -1.7575c 0 -0.7885 -0.1045 -0.817 -0.684 -0.8645c -0.057 -0.057 -0.057 -0.2565 0 -0.3135c 0.3135 0.0095 0.646 0.019 1.064 0.019c 0.4085 0 0.7505 -0.0095 1.0545 -0.019c 0.057 0.057 0.057 0.2565 0 0.3135c -0.5795 0.038 -0.684 0.076 -0.684 0.8645Z m -2.489 -1.7195c 0 -0.779 -0.475 -0.9025 -0.9785 -0.9025c -0.4655 0 -0.627 0.095 -0.627 0.4275v 1.406h 0.6745c 0.7125 0 0.931 -0.4275 0.931 -0.931Z "/></symbol><symbol id="gC86282117E7C9F65658F6DDAC49FC51A" overflow="visible"><path d="M 0 0m 3.971 1.159v 1.7575c 0 0.779 0.1235 0.8265 0.646 0.8645c 0.057 0.057 0.057 0.2565 0 0.3135c -0.285 -0.0095 -0.646 -0.019 -1.026 -0.019h -1.7955c -0.3135 0 -0.684 0.0095 -0.969 0.019c -0.057 -0.057 -0.057 -0.2565 0 -0.3135c 0.6745 -0.0475 0.7695 -0.1045 0.7695 -1.1305c 0 -0.9975 -0.076 -1.52 -0.209 -1.9095c -0.1235 -0.342 -0.285 -0.4655 -0.4465 -0.4655c -0.1235 0 -0.1615 0.076 -0.1805 0.1995c -0.0285 0.1805 -0.0855 0.361 -0.3515 0.361c -0.2375 0 -0.3705 -0.19 -0.3705 -0.399c 0 -0.2945 0.266 -0.551 0.703 -0.551c 0.4845 0 0.7505 0.247 0.969 0.76c 0.19 0.456 0.247 1.425 0.247 2.071c 0 0.741 0.0285 0.988 0.4085 0.988h 0.4275c 0.361 0 0.4275 -0.228 0.4275 -0.551v -1.995c 0 -0.779 -0.095 -0.8265 -0.589 -0.8645c -0.0475 -0.057 -0.0475 -0.2565 0 -0.3135c 0.2375 0.0095 0.589 0.019 0.969 0.019c 0.38 0 0.8075 -0.0095 1.0735 -0.019c 0.0475 0.057 0.0475 0.2565 0 0.3135c -0.6175 0.038 -0.703 0.0855 -0.703 0.8645Z "/></symbol><symbol id="gC110FFC20529D78AB6B9724BF2D3193A" overflow="visible"><path d="M 0 0m 0.3895 1.9475c 0 -0.969 0.646 -2.0425 1.995 -2.0425c 0.608 0 1.0735 0.2185 1.3965 0.532c 0.4275 0.418 0.6175 1.0165 0.6175 1.596c 0 0.988 -0.5415 2.1375 -1.995 2.1375c -0.627 0 -1.14 -0.2565 -1.4915 -0.665c -0.342 -0.4085 -0.5225 -0.9595 -0.5225 -1.558Z m 1.8715 1.8905c 0.817 0 1.3205 -0.741 1.3205 -2.109c 0 -1.197 -0.6175 -1.4915 -1.064 -1.4915c -0.988 0 -1.311 1.197 -1.311 1.9285c 0 0.8265 0.1995 1.672 1.0545 1.672Z "/></symbol><symbol id="g1F0789F66DF5BF6464D009EFF79AE18" overflow="visible"><path d="M 0 0m 0.665 0.57c 0 -0.2755 0.228 -0.5035 0.5035 -0.5035c 0.2755 0 0.5035 0.228 0.5035 0.5035c 0 0.2755 -0.228 0.5035 -0.5035 0.5035c -0.2755 0 -0.5035 -0.228 -0.5035 -0.5035Z m 0 2.831c 0 -0.2755 0.228 -0.5035 0.5035 -0.5035c 0.2755 0 0.5035 0.228 0.5035 0.5035c 0 0.2755 -0.228 0.5035 -0.5035 0.5035c -0.2755 0 -0.5035 -0.228 -0.5035 -0.5035Z "/></symbol><symbol id="g1D67ADB585984EB7E65DD4FC59896276" overflow="visible"><path d="M 0 0m 1.121 2.9925c 0.0475 0 0.1045 0.038 0.152 0.1045c 0.285 0.4275 0.6745 0.6365 1.1685 0.6365c 0.3325 0 0.589 -0.19 0.76 -0.5795c 0.1045 -0.2565 0.1615 -0.646 0.1615 -1.1685c 0 -0.5985 -0.076 -1.0165 -0.2185 -1.2635c -0.2375 -0.3895 -0.5605 -0.589 -0.969 -0.589c -0.6365 0 -1.14 0.456 -1.311 0.95c 0.0285 -0.0095 0.0475 0 0.0855 0c 0.285 0 0.5225 0.2185 0.5225 0.5035c 0 0.2945 -0.2375 0.494 -0.5225 0.494c -0.3325 0 -0.475 -0.1805 -0.475 -0.532c 0 -0.95 0.7695 -1.7575 1.7195 -1.7575c 0.5795 0 1.0735 0.209 1.4725 0.627c 0.399 0.418 0.5985 0.9215 0.5985 1.501c 0 0.551 -0.1615 1.026 -0.4845 1.4345c -0.3515 0.4465 -0.7885 0.665 -1.3205 0.665c -0.4465 0 -0.836 -0.1425 -1.1495 -0.4275v 1.691c 0.2565 -0.076 0.5035 -0.114 0.76 -0.114c 0.437 0 0.817 0.1045 1.14 0.323c 0.2945 0.1805 0.494 0.361 0.608 0.532c 0.057 0.076 0.0855 0.133 0.0855 0.1615c 0 0.095 -0.0475 0.1425 -0.1425 0.1425c -0.5225 -0.1995 -0.969 -0.304 -1.33 -0.304c -0.4275 0 -0.836 0.0855 -1.2255 0.266c -0.0475 0.019 -0.0855 0.0285 -0.1235 0.0285c -0.0855 0 -0.133 -0.0855 -0.133 -0.266v -2.774c 0 -0.1995 0 -0.285 0.171 -0.285Z "/></symbol><symbol id="g2FB3D085C5C373AD5F11876CA67E9382" overflow="visible"><path d="M 0 0m 1.3205 1.007c -0.304 0 -0.5035 -0.228 -0.5035 -0.532c 0 -0.285 0.2185 -0.5225 0.5035 -0.5225c 0.133 0 0.247 0.038 0.3325 0.1235l 0.0095 -0.076c 0 -0.5985 -0.1995 -1.1115 -0.5985 -1.52c -0.0665 -0.076 -0.1045 -0.133 -0.1045 -0.171c 0 -0.095 0.038 -0.1425 0.1235 -0.1425c 0.0855 0 0.1995 0.114 0.361 0.3325c 0.323 0.456 0.4845 0.9595 0.4845 1.501c 0 0.5035 -0.171 1.007 -0.608 1.007Z "/></symbol><symbol id="gFD43D1DD52696D0C8CEE01C5BBAE1FB3" overflow="visible"><path d="M 0 0m 2.8785 3.3535c 0.627 0.2375 1.216 0.836 1.216 1.6435c 0 0.4085 -0.1995 0.741 -0.589 0.9975c -0.342 0.2185 -0.7315 0.3325 -1.1685 0.3325c -0.4275 0 -0.798 -0.114 -1.1305 -0.3325c -0.3705 -0.247 -0.5605 -0.57 -0.5605 -0.9785c 0 -0.3135 0.209 -0.532 0.513 -0.532c 0.304 0 0.513 0.2185 0.513 0.5225c 0 0.3135 -0.1805 0.4845 -0.5415 0.5035c 0.247 0.3325 0.6365 0.5035 1.1685 0.5035c 0.57 0 0.855 -0.3325 0.855 -1.007c 0 -0.399 -0.076 -0.7315 -0.2185 -1.007c -0.2565 -0.456 -0.608 -0.5415 -1.197 -0.5415c -0.114 -0.019 -0.171 -0.0665 -0.171 -0.152c 0 -0.1425 0.0665 -0.1425 0.2565 -0.1425h 0.4085c 0.7125 0 1.0735 -0.5035 1.0735 -1.52c 0 -0.8075 -0.2945 -1.5105 -1.0165 -1.5105c -0.6175 0 -1.0735 0.209 -1.349 0.627c 0.3325 -0.0095 0.5795 0.2375 0.5795 0.5605c 0 0.323 -0.2375 0.5605 -0.5605 0.5605c -0.3705 0 -0.5605 -0.19 -0.5605 -0.5795c 0 -0.4655 0.209 -0.836 0.627 -1.1305c 0.3705 -0.2565 0.8075 -0.38 1.292 -0.38c 0.5415 0 1.007 0.1805 1.4155 0.532c 0.4085 0.3515 0.608 0.7885 0.608 1.3205c 0 0.893 -0.703 1.5105 -1.463 1.71Z "/></symbol><symbol id="g966D14D99AB05D933C4957B2E7FE95D9" overflow="visible"><path d="M 0 0m 3.781 0.8645c -0.038 0.0855 -0.114 0.1235 -0.1995 0.133c -0.323 -0.418 -0.7315 -0.627 -1.14 -0.627c -0.6935 0 -1.273 0.703 -1.273 1.8145c 0 1.045 0.456 1.672 1.083 1.672c 0.5605 0 0.6365 -0.3325 0.6745 -0.665c 0.0285 -0.2565 0.1615 -0.342 0.361 -0.342c 0.1995 0 0.4655 0.1235 0.4655 0.418c 0 0.5225 -0.5415 0.9025 -1.4535 0.9025c -0.9405 0 -1.9475 -0.8455 -1.9475 -2.1945c 0 -1.2255 0.684 -2.071 1.881 -2.071c 0.57 0 1.0735 0.1805 1.5485 0.9595Z "/></symbol><symbol id="gF1C320A4506B818F6BCB8CDA11A2DE6" overflow="visible"><path d="M 0 0m 1.729 1.159c 0 -0.7885 -0.1045 -0.836 -0.684 -0.8645c -0.057 -0.057 -0.057 -0.2565 0 -0.3135c 0.3705 0.0095 0.7505 0.019 1.064 0.019c 0.323 0 0.6935 -0.0095 1.0545 -0.019c 0.057 0.057 0.057 0.2565 0 0.3135c -0.5795 0.0285 -0.684 0.076 -0.684 0.8645v 2.565h 0.1615c 0.7695 0 0.9215 -0.266 1.083 -1.0355c 0.1235 0 0.247 0.038 0.247 0.038c -0.057 0.437 -0.095 0.855 -0.1045 1.406c -0.2185 -0.019 -0.931 -0.057 -1.406 -0.057h -0.7125c -0.475 0 -1.007 0.0285 -1.387 0.057c -0.0095 -0.551 -0.0475 -0.969 -0.114 -1.406c 0 0 0.133 -0.038 0.2565 -0.038c 0.1615 0.7695 0.304 1.0355 1.083 1.0355h 0.1425Z "/></symbol><symbol id="g30F02AEBABA7D40FC17FCA43D8EB3DAA" overflow="visible"><path d="M 0 0m 2.7835 0.456c 0.057 -0.2945 0.1615 -0.551 0.6365 -0.551c 0.361 0 0.703 0.1615 0.9025 0.3515c -0.019 0.114 -0.057 0.1995 -0.1615 0.2565c -0.0665 -0.057 -0.228 -0.152 -0.3515 -0.152c -0.2755 0 -0.285 0.3705 -0.285 0.8075v 1.3965c 0 1.349 -0.741 1.6055 -1.4345 1.6055c -0.779 0 -1.5675 -0.513 -1.5675 -1.0545c 0 -0.228 0.114 -0.342 0.3325 -0.342c 0.2755 0 0.4465 0.1995 0.4465 0.323c 0 0.0665 -0.0095 0.133 -0.0285 0.171c -0.0095 0.0285 -0.019 0.0855 -0.019 0.19c 0 0.2945 0.399 0.399 0.76 0.399c 0.323 0 0.7695 -0.1615 0.7695 -1.235c 0 -0.0665 -0.0285 -0.1045 -0.057 -0.114l -0.817 -0.1995c -0.912 -0.228 -1.5675 -0.7315 -1.5675 -1.3775c 0 -0.779 0.532 -1.026 1.197 -1.026c 0.3325 0 0.6175 0.076 1.0355 0.399l 0.19 0.152Z m 0 1.7575v -1.254c 0 -0.1235 -0.057 -0.19 -0.133 -0.247c -0.247 -0.1995 -0.57 -0.418 -0.836 -0.418c -0.475 0 -0.684 0.38 -0.684 0.6745c 0 0.4275 0.1995 0.8645 0.9025 1.045Z "/></symbol><symbol id="g1E2660CC0CBAD91BD2824CA13971C617" overflow="visible"><path d="M 0 0m 3.6385 4.788c 0.3135 0 0.4655 0.1615 0.4655 0.4845c 0 0.684 -0.513 1.0545 -1.216 1.0545c -0.7885 0 -1.4155 -0.3705 -1.881 -1.121c -0.4085 -0.646 -0.608 -1.3775 -0.608 -2.204c 0 -1.2065 0.2185 -2.052 0.665 -2.5555c 0.38 -0.437 0.817 -0.6555 1.3205 -0.6555c 0.5795 0 1.0545 0.2185 1.425 0.6555c 0.3515 0.418 0.532 0.9215 0.532 1.501c 0 0.5795 -0.171 1.0735 -0.513 1.482c -0.361 0.437 -0.8265 0.665 -1.387 0.665c -0.494 0 -0.874 -0.2755 -1.1305 -0.8075v 0.057c 0 1.0735 0.266 1.9855 0.836 2.4035c 0.247 0.1805 0.5035 0.266 0.76 0.266c 0.342 0 0.589 -0.095 0.7505 -0.2945c -0.323 0 -0.4845 -0.1805 -0.4845 -0.4655c 0 -0.266 0.1995 -0.4655 0.4655 -0.4655Z m -0.3705 -1.558c 0.1045 -0.2185 0.1615 -0.646 0.1615 -1.273c 0 -0.6175 -0.0475 -1.026 -0.152 -1.235c -0.19 -0.3895 -0.4845 -0.589 -0.893 -0.589c -0.2755 0 -0.4845 0.095 -0.6365 0.285c -0.1235 0.152 -0.209 0.285 -0.247 0.3895c -0.114 0.2945 -0.171 0.741 -0.171 1.349c 0 0.266 0.038 0.5225 0.1045 0.7695c 0.1235 0.4465 0.475 0.8645 0.9975 0.8645c 0.3705 0 0.6555 -0.19 0.836 -0.5605Z "/></symbol><symbol id="g807105DC1F2B28D032B83956F067C81E" overflow="visible"><path d="M 0 0m 3.3535 6.4315c -0.0855 0 -0.1615 -0.0475 -0.2185 -0.133l -2.869 -4.408v -0.342h 2.4795v -0.779c 0 -0.171 -0.038 -0.285 -0.1045 -0.3325c -0.0665 -0.0475 -0.247 -0.0665 -0.5605 -0.0665h -0.2375v -0.3705c 0.2755 0.019 0.7125 0.0285 1.3015 0.0285c 0.589 0 1.026 -0.0095 1.3015 -0.0285v 0.3705h -0.2375c -0.3135 0 -0.494 0.019 -0.5605 0.0665c -0.0665 0.0475 -0.1045 0.1615 -0.1045 0.3325v 0.779h 0.931v 0.3705h -0.931v 4.351c 0 0.095 -0.0665 0.1615 -0.19 0.1615Z m -0.551 -1.178v -3.3345h -2.166Z "/></symbol><symbol id="g847357BB8876AF51969CA80692415844" overflow="visible"><path d="M 0 0m 0.549 4.212c 0 -0.189 0.171 -0.351 0.36 -0.351c 0.153 0 0.423 0.162 0.423 0.36c 0 0.072 -0.018 0.126 -0.036 0.189c -0.018 0.063 -0.072 0.144 -0.072 0.216c 0 0.225 0.234 0.549 0.891 0.549c 0.324 0 0.783 -0.225 0.783 -1.089c 0 -0.576 -0.207 -1.044 -0.738 -1.584l -0.666 -0.657c -0.882 -0.9 -1.026 -1.332 -1.026 -1.863c 0 0 0.459 0.018 0.747 0.018h 1.575c 0.288 0 0.702 -0.018 0.702 -0.018c 0.117 0.477 0.207 1.152 0.216 1.422c -0.054 0.045 -0.171 0.063 -0.261 0.045c -0.153 -0.639 -0.306 -0.864 -0.63 -0.864h -1.602c 0 0.432 0.621 1.044 0.666 1.089l 0.909 0.873c 0.513 0.495 0.9 0.891 0.9 1.575c 0 0.972 -0.792 1.368 -1.521 1.368c -0.999 0 -1.62 -0.738 -1.62 -1.278Z "/></symbol><symbol id="g5F2B105DCE44482CD07DFE0B4651B637" overflow="visible"><path d="M 0 0m 4.311 2.763c 0 0.747 0.099 0.774 0.648 0.819c 0.054 0.054 0.054 0.243 0 0.297c -0.315 -0.018 -0.711 -0.018 -1.008 -0.018c -0.252 0 -0.612 0.009 -0.963 0.018c -0.054 -0.054 -0.054 -0.243 0 -0.297c 0.549 -0.036 0.612 -0.072 0.612 -0.819v -0.585h -1.926v 0.585c 0 0.747 0.063 0.774 0.612 0.819c 0.054 0.054 0.054 0.243 0 0.297c -0.342 -0.009 -0.684 -0.018 -0.972 -0.018c -0.27 0 -0.639 0.009 -0.999 0.018c -0.054 -0.054 -0.054 -0.243 0 -0.297c 0.549 -0.036 0.648 -0.072 0.648 -0.819v -1.665c 0 -0.747 -0.099 -0.774 -0.648 -0.819c -0.054 -0.054 -0.054 -0.243 0 -0.297c 0.36 0.009 0.72 0.018 1.008 0.018c 0.288 0 0.639 -0.009 0.963 -0.018c 0.054 0.054 0.054 0.243 0 0.297c -0.549 0.036 -0.612 0.072 -0.612 0.819v 0.783h 1.926v -0.783c 0 -0.747 -0.063 -0.774 -0.612 -0.819c -0.054 -0.054 -0.054 -0.243 0 -0.297c 0.324 0.009 0.657 0.018 0.972 0.018c 0.27 0 0.648 -0.009 0.999 -0.018c 0.054 0.054 0.054 0.243 0 0.297c -0.549 0.036 -0.648 0.072 -0.648 0.819Z "/></symbol><symbol id="gD351E21AD091924D522A6D2D6355C932" overflow="visible"><path d="M 0 0m 3.474 0.837c -0.333 -0.342 -0.594 -0.486 -1.116 -0.486c -0.324 0 -0.702 0.189 -0.981 0.648c -0.18 0.297 -0.288 0.711 -0.288 1.233l 2.394 -0.018c 0.108 0 0.171 0.054 0.171 0.153c 0 0.756 -0.27 1.566 -1.521 1.566c -0.783 0 -1.8 -0.747 -1.8 -2.115c 0 -0.504 0.126 -0.99 0.423 -1.332c 0.306 -0.36 0.729 -0.576 1.377 -0.576c 0.684 0 1.17 0.315 1.53 0.783c -0.027 0.09 -0.081 0.135 -0.189 0.144Z m -2.358 1.701c 0.171 1.017 0.801 1.098 1.017 1.098c 0.342 0 0.747 -0.189 0.747 -0.945c 0 -0.081 -0.036 -0.126 -0.135 -0.126Z "/></symbol><symbol id="g3515EF5FD07324BC31659A9072C9EEF0" overflow="visible"><path d="M 0 0m 1.458 2.763c 0 0.747 0.099 0.774 0.558 0.819c 0.054 0.054 0.054 0.243 0 0.297c -0.216 -0.009 -0.558 -0.018 -0.918 -0.018c -0.387 0 -0.693 0.009 -0.99 0.018c -0.054 -0.054 -0.054 -0.243 0 -0.297c 0.549 -0.036 0.648 -0.072 0.648 -0.819v -0.387c 0 -0.846 0.189 -1.179 1.026 -1.179c 0.567 0 1.017 0.324 1.386 0.594v -0.693c 0 -0.747 -0.099 -0.774 -0.648 -0.819c -0.054 -0.054 -0.054 -0.243 0 -0.297c 0.297 0.009 0.612 0.018 1.008 0.018c 0.387 0 0.72 -0.009 1.008 -0.018c 0.054 0.054 0.054 0.243 0 0.297c -0.549 0.036 -0.648 0.072 -0.648 0.819v 1.665c 0 0.747 0.099 0.774 0.648 0.819c 0.054 0.054 0.054 0.243 0 0.297c -0.306 -0.009 -0.612 -0.018 -1.008 -0.018c -0.351 0 -0.711 0.009 -0.918 0.018c -0.054 -0.054 -0.054 -0.243 0 -0.297c 0.459 -0.036 0.558 -0.072 0.558 -0.819v -0.648c -0.306 -0.27 -0.63 -0.513 -1.098 -0.513c -0.585 0 -0.612 0.306 -0.612 1.008Z "/></symbol><symbol id="g99E666F374C663336A4AF6A2BEDCF993" overflow="visible"><path d="M 0 0m 3.474 0.837c -0.333 -0.342 -0.594 -0.486 -1.116 -0.486c -0.324 0 -0.702 0.189 -0.981 0.648c -0.18 0.297 -0.288 0.711 -0.288 1.233l 2.394 -0.018c 0.108 0 0.171 0.054 0.171 0.153c 0 0.756 -0.27 1.566 -1.521 1.566c -0.783 0 -1.8 -0.747 -1.8 -2.115c 0 -0.504 0.126 -0.99 0.423 -1.332c 0.306 -0.36 0.729 -0.576 1.377 -0.576c 0.684 0 1.17 0.315 1.53 0.783c -0.027 0.09 -0.081 0.135 -0.189 0.144Z m -2.358 1.701c 0.171 1.017 0.801 1.098 1.017 1.098c 0.342 0 0.747 -0.189 0.747 -0.945c 0 -0.081 -0.036 -0.126 -0.135 -0.126Z m -0.225 2.637c 0 -0.234 0.189 -0.423 0.423 -0.423c 0.234 0 0.423 0.189 0.423 0.423c 0 0.234 -0.189 0.432 -0.423 0.432c -0.234 0 -0.423 -0.198 -0.423 -0.432Z m 1.521 0c 0 -0.234 0.189 -0.423 0.423 -0.423c 0.234 0 0.423 0.189 0.423 0.423c 0 0.234 -0.189 0.432 -0.423 0.432c -0.234 0 -0.423 -0.198 -0.423 -0.432Z "/></symbol><symbol id="g611C332DF318E3AAFADBD04F1094DD79" overflow="visible"><path d="M 0 0m 1.638 1.098c 0 -0.747 -0.099 -0.792 -0.648 -0.819c -0.054 -0.054 -0.054 -0.243 0 -0.297c 0.351 0.009 0.711 0.018 1.008 0.018c 0.306 0 0.657 -0.009 0.999 -0.018c 0.054 0.054 0.054 0.243 0 0.297c -0.549 0.027 -0.648 0.072 -0.648 0.819v 2.43h 0.153c 0.729 0 0.873 -0.252 1.026 -0.981c 0.117 0 0.234 0.036 0.234 0.036c -0.054 0.414 -0.09 0.81 -0.099 1.332c -0.207 -0.018 -0.882 -0.054 -1.332 -0.054h -0.675c -0.45 0 -0.954 0.027 -1.314 0.054c -0.009 -0.522 -0.045 -0.918 -0.108 -1.332c 0 0 0.126 -0.036 0.243 -0.036c 0.153 0.729 0.288 0.981 1.026 0.981h 0.135Z "/></symbol><symbol id="g5CCD3C35BE7C263075DDDC3F0C06DEE6" overflow="visible"><path d="M 0 0m 1.674 2.754c 0 0.756 0.099 0.783 0.648 0.828c 0.054 0.054 0.054 0.243 0 0.297c -0.306 -0.009 -0.612 -0.018 -1.008 -0.018c -0.387 0 -0.702 0.009 -0.999 0.018c -0.054 -0.054 -0.054 -0.243 0 -0.297c 0.549 -0.036 0.648 -0.072 0.648 -0.819v -1.665c 0 -0.747 -0.099 -0.774 -0.648 -0.819c -0.054 -0.054 -0.054 -0.243 0 -0.297c 0.297 0.009 0.612 0.018 1.008 0.018c 0.369 0 0.567 -0.018 0.936 -0.018c 1.107 0 1.71 0.279 1.71 1.242c 0 0.846 -0.738 1.089 -1.647 1.089h -0.648Z m 3.879 0.009c 0 0.747 0.099 0.774 0.648 0.819c 0.054 0.054 0.054 0.243 0 0.297c -0.306 -0.009 -0.612 -0.018 -1.008 -0.018c -0.387 0 -0.702 0.009 -0.999 0.018c -0.054 -0.054 -0.054 -0.243 0 -0.297c 0.549 -0.036 0.648 -0.072 0.648 -0.819v -1.665c 0 -0.747 -0.099 -0.774 -0.648 -0.819c -0.054 -0.054 -0.054 -0.243 0 -0.297c 0.297 0.009 0.612 0.018 1.008 0.018c 0.387 0 0.711 -0.009 0.999 -0.018c 0.054 0.054 0.054 0.243 0 0.297c -0.549 0.036 -0.648 0.072 -0.648 0.819Z m -2.358 -1.629c 0 -0.738 -0.45 -0.855 -0.927 -0.855c -0.441 0 -0.594 0.09 -0.594 0.405v 1.332h 0.639c 0.675 0 0.882 -0.405 0.882 -0.882Z "/></symbol><symbol id="gB75AB0E2CC62A89AB96A67F9AB496609" overflow="visible"><path d="M 0 0m 7.704 0.738c 0.774 0.873 1.503 1.377 1.944 1.53v 0.207c -0.972 0.396 -1.944 1.548 -1.944 1.557h -0.36c 0.351 -0.756 0.72 -1.17 1.017 -1.413h -7.83v -0.468h 7.83c -0.288 -0.279 -0.729 -0.765 -0.999 -1.413Z "/></symbol><symbol id="gA5834380700F55B3689219A2CC4667E3" overflow="visible"><path d="M 0 0m 3.933 3.861h -2.556c -0.36 0 -0.702 0.009 -0.972 0.018c -0.054 -0.054 -0.054 -0.243 0 -0.297c 0.495 -0.036 0.612 -0.081 0.612 -0.819v -1.665c 0 -0.738 -0.117 -0.783 -0.702 -0.819c -0.054 -0.054 -0.054 -0.243 0 -0.297c 0.27 0.009 0.702 0.018 1.062 0.018c 0.36 0 0.63 -0.009 0.9 -0.018c 0.054 0.054 0.054 0.243 0 0.297c -0.459 0.045 -0.549 0.081 -0.549 0.819v 1.953c 0 0.279 0.027 0.459 0.378 0.459h 1.089c 0.333 0 0.387 -0.099 0.387 -0.459v -1.953c 0 -0.738 -0.09 -0.783 -0.558 -0.819c -0.045 -0.054 -0.045 -0.243 0 -0.297c 0.225 0.009 0.558 0.018 0.918 0.018c 0.36 0 0.765 -0.009 1.017 -0.018c 0.045 0.054 0.045 0.243 0 0.297c -0.585 0.036 -0.666 0.081 -0.666 0.819v 1.665c 0 0.738 0.117 0.783 0.612 0.819c 0.054 0.054 0.054 0.243 0 0.297c -0.27 -0.009 -0.612 -0.018 -0.972 -0.018Z "/></symbol><symbol id="gFFF6E9B9A983FEBF7FB8DCFB305974E9" overflow="visible"><path d="M 0 0m 1.836 -1.44c 0.144 0.252 0.261 0.504 0.369 0.774c 0.72 1.737 1.125 2.664 1.593 3.672c 0.18 0.378 0.306 0.522 0.729 0.576c 0.054 0.054 0.054 0.243 0 0.297c -0.18 -0.009 -0.387 -0.018 -0.639 -0.018c -0.27 0 -0.549 0.009 -0.819 0.018c -0.054 -0.054 -0.054 -0.243 0 -0.297c 0.288 -0.027 0.576 -0.081 0.432 -0.405l -0.891 -2.061c -0.063 -0.144 -0.144 -0.171 -0.216 0.009l -0.801 1.872c -0.162 0.378 -0.207 0.549 0.297 0.585c 0.054 0.054 0.054 0.243 0 0.297c -0.333 -0.009 -0.693 -0.018 -1.017 -0.018c -0.306 0 -0.549 0.009 -0.729 0.018c -0.054 -0.054 -0.054 -0.243 0 -0.297c 0.36 -0.045 0.477 -0.126 0.711 -0.675l 1.017 -2.367c 0.081 -0.18 0.216 -0.594 0.126 -0.846c -0.108 -0.297 -0.216 -0.549 -0.351 -0.828c -0.099 -0.18 -0.225 -0.261 -0.45 -0.261c -0.126 0 -0.162 0.027 -0.261 0.027c -0.261 0 -0.396 -0.27 -0.396 -0.387c 0 -0.189 0.18 -0.333 0.423 -0.333c 0.189 0 0.549 0.072 0.873 0.648Z "/></symbol><symbol id="g1F6C67A5839963BD6478B8393FDBF84B" overflow="visible"><path d="M 0 0m 1.674 2.754c 0 0.756 0.099 0.783 0.648 0.828c 0.054 0.054 0.054 0.243 0 0.297c -0.306 -0.009 -0.612 -0.018 -1.008 -0.018c -0.387 0 -0.702 0.009 -0.999 0.018c -0.054 -0.054 -0.054 -0.243 0 -0.297c 0.549 -0.036 0.648 -0.072 0.648 -0.819v -1.665c 0 -0.747 -0.099 -0.774 -0.648 -0.819c -0.054 -0.054 -0.054 -0.243 0 -0.297c 0.297 0.009 0.612 0.018 1.008 0.018c 0.369 0 0.567 -0.018 0.936 -0.018c 1.107 0 1.71 0.279 1.71 1.242c 0 0.846 -0.738 1.089 -1.647 1.089h -0.648Z m 1.521 -1.62c 0 -0.738 -0.45 -0.855 -0.927 -0.855c -0.441 0 -0.594 0.09 -0.594 0.405v 1.332h 0.639c 0.675 0 0.882 -0.405 0.882 -0.882Z "/></symbol><symbol id="g7815E2C79248546AAEE49EC7F57ADD4E" overflow="visible"><path d="M 0 0m 3.582 0.819c -0.036 0.081 -0.108 0.117 -0.189 0.126c -0.306 -0.396 -0.693 -0.594 -1.08 -0.594c -0.657 0 -1.206 0.666 -1.206 1.719c 0 0.99 0.432 1.584 1.026 1.584c 0.531 0 0.603 -0.315 0.639 -0.63c 0.027 -0.243 0.153 -0.324 0.342 -0.324c 0.189 0 0.441 0.117 0.441 0.396c 0 0.495 -0.513 0.855 -1.377 0.855c -0.891 0 -1.845 -0.801 -1.845 -2.079c 0 -1.161 0.648 -1.962 1.782 -1.962c 0.54 0 1.017 0.171 1.467 0.909Z "/></symbol></defs></svg>