<svg viewBox="0 0 233.198866142 193.581992126" width="233.198866142pt" height="193.581992126pt" xmlns="http://www.w3.org/2000/svg" xmlns:xlink="http://www.w3.org/1999/xlink" xmlns:h5="http://www.w3.org/1999/xhtml"><path fill="#ffffff" fill-rule="nonzero" d="M 0 0v 193.581992126h 233.198866142v -193.581992126Z "/><g transform="translate(8 8)"><path fill="#ccc8c0" fill-rule="nonzero" stroke="#1a1a18" stroke-width="0.6" stroke-linecap="butt" stroke-linejoin="miter" stroke-miterlimit="4" transform="translate(69.797291339 11.909866142)" d="M 0 0m 73.700787402 0c -40.666915276 0 -73.700787402 33.033872126 -73.700787402 73.700787402c 0 40.666915276 33.033872126 73.700787402 73.700787402 73.700787402c 40.666915276 0 73.700787402 -33.033872126 73.700787402 -73.700787402c 0 -40.666915276 -33.033872126 -73.700787402 -73.700787402 -73.700787402Z "/><path fill="#909280" fill-rule="nonzero" stroke="#1a1a18" stroke-width="0.6" stroke-linecap="butt" stroke-linejoin="miter" stroke-miterlimit="4" transform="translate(102.395716535 44.508291339)" d="M 0 0m 41.102362205 0c -22.679625827 0 -41.102362205 18.422736378 -41.102362205 41.102362205c 0 22.679625827 18.422736378 41.102362205 41.102362205 41.102362205c 22.679625827 0 41.102362205 -18.422736378 41.102362205 -41.102362205c 0 -22.679625827 -18.422736378 -41.102362205 -41.102362205 -41.102362205Z "/><path fill="#696c5a" fill-rule="nonzero" stroke="#1a1a18" stroke-width="0.6" stroke-linecap="butt" stroke-linejoin="miter" stroke-miterlimit="4" transform="translate(127.907527559 70.020102362)" d="M 0 0m 15.590551181 0c -8.602616693 0 -15.590551181 6.987934488 -15.590551181 15.590551181c 0 8.602616693 6.987934488 15.590551181 15.590551181 15.590551181c 8.602616693 0 15.590551181 -6.987934488 15.590551181 -15.590551181c 0 -8.602616693 -6.987934488 -15.590551181 -15.590551181 -15.590551181Z "/><path fill="none" transform="translate(118.81407874 110.389110236)" d="M 0 0h 49.368v 7.136h -49.368v -7.136Z "/><g transform="translate(118.814078646 110.389110126)"><g transform="matrix(1 0 0 -1 0 5.264)"><use xlink:href="#g3582D8D1264CABFCC073F09D45268688" x="0" y="0" fill="#ffffff" fill-rule="nonzero"/><use xlink:href="#gAC00C34078948F83CC62D60B02C8E81A" x="3.848" y="0" fill="#ffffff" fill-rule="nonzero"/><use xlink:href="#g46DFAA35BC521B4F2378CE697B4B163E" x="8.152" y="0" fill="#ffffff" fill-rule="nonzero"/><use xlink:href="#g5D01DA3AB390CB78D7E54204B7DC3F87" x="12.304" y="0" fill="#ffffff" fill-rule="nonzero"/><use xlink:href="#gB30BF778AB490C945CE3B0B01F2D3DE5" x="18.336" y="0" fill="#ffffff" fill-rule="nonzero"/><use xlink:href="#gA5E490FFA4C27385B24874A3876C7C8C" x="20.72" y="0" fill="#ffffff" fill-rule="nonzero"/><use xlink:href="#gDF0740817C60D01D4C0A2F901DD857A7" x="26.368" y="0" fill="#ffffff" fill-rule="nonzero"/><use xlink:href="#gAC00C34078948F83CC62D60B02C8E81A" x="31.056" y="0" fill="#ffffff" fill-rule="nonzero"/><use xlink:href="#g362A412C7577377BE4D103B9E5EDCC22" x="35.36" y="0" fill="#ffffff" fill-rule="nonzero"/><use xlink:href="#g5D01DA3AB390CB78D7E54204B7DC3F87" x="39.376" y="0" fill="#ffffff" fill-rule="nonzero"/><use xlink:href="#g465CA45D0696F5BBCE5E7A11B5E63D98" x="43.408" y="0" fill="#ffffff" fill-rule="nonzero"/><use xlink:href="#g8BFB8D74D1A095ADA64D562E8FB553BF" x="46.984" y="0" fill="#ffffff" fill-rule="nonzero"/></g></g><path fill="none" transform="translate(130.55807874 27.663062992)" d="M 0 0h 25.88v 5.344h -25.88v -5.344Z "/><g transform="translate(130.558078724 27.663062913)"><g transform="matrix(1 0 0 -1 0 5.264)"><use xlink:href="#gE4F86D8BE8C69EC1EB36B973594724AB" x="0" y="0" fill="#1a1a18" fill-rule="nonzero"/><use xlink:href="#gF79D9CC171E1ACC5162F855F1894F43E" x="5.44" y="0" fill="#1a1a18" fill-rule="nonzero"/><use xlink:href="#g937124D7F3D66536776BB8DA5DFD7893" x="9.096" y="0" fill="#1a1a18" fill-rule="nonzero"/><use xlink:href="#gE09E60C0AC8E2E10ADA02C2F49261352" x="13.784" y="0" fill="#1a1a18" fill-rule="nonzero"/><use xlink:href="#gDF0740817C60D01D4C0A2F901DD857A7" x="17.344" y="0" fill="#1a1a18" fill-rule="nonzero"/><use xlink:href="#g3582D8D1264CABFCC073F09D45268688" x="22.032" y="0" fill="#1a1a18" fill-rule="nonzero"/></g></g><path fill="#1a1a18" fill-rule="nonzero" transform="translate(140.663433071 9.075220472)" d="M 0 0m 2.834645669 0c -1.564112126 0 -2.834645669 1.270533543 -2.834645669 2.834645669c 0 1.564112126 1.270533543 2.834645669 2.834645669 2.834645669c 1.564112126 0 2.834645669 -1.270533543 2.834645669 -2.834645669c 0 -1.564112126 -1.270533543 -2.834645669 -2.834645669 -2.834645669Z "/><path fill="none" transform="translate(135.35507874)" d="M 0 0h 16.286v 5.678h -16.286v -5.678Z "/><g transform="translate(135.355078724 -1.1e-7)"><g transform="matrix(1 0 0 -1 0 5.593)"><use xlink:href="#gE34E15A46C94CBC2E6ABE8844A1DDB21" x="0" y="0" fill="#7c7f6a" fill-rule="nonzero"/><use xlink:href="#gE827826F9D19F2B711A1B9BF40B9D8A0" x="4.284" y="0" fill="#7c7f6a" fill-rule="nonzero"/><use xlink:href="#gF931FC691828778A920607CF18B9C32A" x="8.8655" y="0" fill="#7c7f6a" fill-rule="nonzero"/><use xlink:href="#gC8D6D5492F0FFEF84F8079BC5341E7A6" x="12.75" y="0" fill="#7c7f6a" fill-rule="nonzero"/></g></g><path fill="none" stroke="#1a1a18" stroke-width="0.7" stroke-linecap="butt" stroke-linejoin="miter" stroke-miterlimit="4" transform="translate(74.241918351 11.909866142)" d="M 0 0m 69.256160389 0l -69.256160389 98.907737075"/><path fill="none" stroke="#1a1a18" stroke-width="0.7" stroke-linecap="butt" stroke-linejoin="miter" stroke-miterlimit="4" transform="translate(101.224834593 11.909866142)" d="M 0 0m 42.273244148 0l -42.273244148 134.072791616"/><path fill="none" stroke="#1a1a18" stroke-width="0.7" stroke-linecap="butt" stroke-linejoin="miter" stroke-miterlimit="4" transform="translate(143.49807874 11.909866142)" d="M 0 0l 42.272763539 134.073128141"/><path fill="none" stroke="#1a1a18" stroke-width="0.7" stroke-linecap="butt" stroke-linejoin="miter" stroke-miterlimit="4" transform="translate(143.49807874 11.909866142)" d="M 0 0l 69.25595972 98.908288406"/><path fill="none" transform="translate(0 121.727692913)" d="M 0 0h 64.128v 7.136h -64.128v -7.136Z "/><g transform="translate(-9.4e-8 121.727692803)"><g transform="matrix(1 0 0 -1 0 5.264)"><use xlink:href="#gE947EB4B5E4397664401494D2E30D146" x="0" y="0" fill="#1a1a18" fill-rule="nonzero"/><use xlink:href="#g7783EC9FB0C16305C83035E8146994B5" x="4.328" y="0" fill="#1a1a18" fill-rule="nonzero"/></g><g transform="matrix(1 0 0 -1 7.032 5.264)"><use xlink:href="#gE9BB349F7E32C39203BC6B218DF12838" x="0" y="0" fill="#1a1a18" fill-rule="nonzero"/><use xlink:href="#g5D01DA3AB390CB78D7E54204B7DC3F87" x="3.832" y="0" fill="#1a1a18" fill-rule="nonzero"/><use xlink:href="#gFF63DA2595F1651AF0C535BF803D9AEC" x="7.864" y="0" fill="#1a1a18" fill-rule="nonzero"/><use xlink:href="#g937124D7F3D66536776BB8DA5DFD7893" x="12.08" y="0" fill="#1a1a18" fill-rule="nonzero"/><use xlink:href="#gADB3B27726748394AAF96F33FED6E9BE" x="16.768" y="0" fill="#1a1a18" fill-rule="nonzero"/><use xlink:href="#gF859B786D36C3A3EB6E93A57BC4F802" x="24.56" y="0" fill="#1a1a18" fill-rule="nonzero"/><use xlink:href="#g46DFAA35BC521B4F2378CE697B4B163E" x="29.248" y="0" fill="#1a1a18" fill-rule="nonzero"/><use xlink:href="#g5D01DA3AB390CB78D7E54204B7DC3F87" x="33.4" y="0" fill="#1a1a18" fill-rule="nonzero"/><use xlink:href="#gEF1CB7DB7883465AAAE49B6975EF9AB9" x="37.432" y="0" fill="#1a1a18" fill-rule="nonzero"/><use xlink:href="#g5D01DA3AB390CB78D7E54204B7DC3F87" x="41.352" y="0" fill="#1a1a18" fill-rule="nonzero"/><use xlink:href="#gAC00C34078948F83CC62D60B02C8E81A" x="45.384" y="0" fill="#1a1a18" fill-rule="nonzero"/><use xlink:href="#g3582D8D1264CABFCC073F09D45268688" x="49.688" y="0" fill="#1a1a18" fill-rule="nonzero"/><use xlink:href="#gE09E60C0AC8E2E10ADA02C2F49261352" x="53.536" y="0" fill="#1a1a18" fill-rule="nonzero"/></g></g><path fill="none" stroke="#1a1a18" stroke-width="0.9" stroke-linecap="butt" stroke-linejoin="miter" stroke-miterlimit="4" stroke-dashoffset="0" stroke-dasharray="3 3" transform="translate(128.737201671 11.909866142)" d="M 0 0m 14.760877069 0l -14.760877069 114.255498784"/><path fill="none" stroke="#1a1a18" stroke-width="0.9" stroke-linecap="butt" stroke-linejoin="miter" stroke-miterlimit="4" stroke-dashoffset="0" stroke-dasharray="3 3" transform="translate(143.49807874 11.909866142)" d="M 0 0l 14.760554222 114.25561629"/><path fill="none" stroke="#7c7f6a" stroke-width="1.6" stroke-linecap="butt" stroke-linejoin="miter" stroke-miterlimit="4" transform="translate(143.49807874 85.610653543)" d="M 0 0m 0 0c 21.111216586 9.844321967 45.496083627 9.844321967 66.607300213 0"/><path fill="none" transform="translate(108.52207874 172.221992126)" d="M 0 0h 69.952v 5.36h -69.952v -5.36Z "/><g transform="translate(108.522078614 172.22199211)"><g transform="matrix(1 0 0 -1 0 5.264)"><use xlink:href="#gE09E60C0AC8E2E10ADA02C2F49261352" x="0" y="0" fill="#7c7f6a" fill-rule="nonzero"/><use xlink:href="#g465CA45D0696F5BBCE5E7A11B5E63D98" x="3.56" y="0" fill="#7c7f6a" fill-rule="nonzero"/><use xlink:href="#g937124D7F3D66536776BB8DA5DFD7893" x="7.136" y="0" fill="#7c7f6a" fill-rule="nonzero"/><use xlink:href="#g465CA45D0696F5BBCE5E7A11B5E63D98" x="11.824" y="0" fill="#7c7f6a" fill-rule="nonzero"/><use xlink:href="#gE9BB349F7E32C39203BC6B218DF12838" x="15.4" y="0" fill="#7c7f6a" fill-rule="nonzero"/><use xlink:href="#gF79D9CC171E1ACC5162F855F1894F43E" x="19.232" y="0" fill="#7c7f6a" fill-rule="nonzero"/><use xlink:href="#g3582D8D1264CABFCC073F09D45268688" x="22.888" y="0" fill="#7c7f6a" fill-rule="nonzero"/><use xlink:href="#gF09D88C2290872E835CD22D560D52A5C" x="28.736" y="0" fill="#7c7f6a" fill-rule="nonzero"/><use xlink:href="#g5D01DA3AB390CB78D7E54204B7DC3F87" x="32.224" y="0" fill="#7c7f6a" fill-rule="nonzero"/><use xlink:href="#g937124D7F3D66536776BB8DA5DFD7893" x="36.256" y="0" fill="#7c7f6a" fill-rule="nonzero"/><use xlink:href="#gF79D9CC171E1ACC5162F855F1894F43E" x="40.944" y="0" fill="#7c7f6a" fill-rule="nonzero"/></g><g transform="matrix(1 0 0 -1 46.6 5.264)"><use xlink:href="#gAC173AC16C94F352139132A9DCC12557" x="0" y="0" fill="#7c7f6a" fill-rule="nonzero"/><use xlink:href="#g7783EC9FB0C16305C83035E8146994B5" x="3.88" y="0" fill="#7c7f6a" fill-rule="nonzero"/></g><g transform="matrix(1 0 0 -1 53.184 5.264)"><use xlink:href="#gE9BB349F7E32C39203BC6B218DF12838" x="0" y="0" fill="#7c7f6a" fill-rule="nonzero"/><use xlink:href="#g5D01DA3AB390CB78D7E54204B7DC3F87" x="3.832" y="0" fill="#7c7f6a" fill-rule="nonzero"/><use xlink:href="#gFF63DA2595F1651AF0C535BF803D9AEC" x="7.864" y="0" fill="#7c7f6a" fill-rule="nonzero"/><use xlink:href="#g937124D7F3D66536776BB8DA5DFD7893" x="12.08" y="0" fill="#7c7f6a" fill-rule="nonzero"/></g></g></g><defs><symbol id="g3582D8D1264CABFCC073F09D45268688" overflow="visible"><path d="M 0 0m 0.912 0c 0.224 0.008 0.304 0.216 0.4 0.504c 0.208 0.632 0.44 1.024 0.84 1.024h 0.208v -0.552c 0 -0.664 -0.088 -0.688 -0.576 -0.728c -0.048 -0.048 -0.048 -0.216 0 -0.264c 0.264 0.008 0.544 0.016 0.896 0.016c 0.344 0 0.632 -0.008 0.888 -0.016c 0.048 0.048 0.048 0.216 0 0.264c -0.488 0.032 -0.576 0.064 -0.576 0.728v 1.48c 0 0.664 0.088 0.688 0.576 0.728c 0.048 0.048 0.048 0.216 0 0.264c -0.272 -0.008 -0.544 -0.016 -0.896 -0.016c -0.272 0 -0.504 0.016 -0.704 0.016c -1.4 0 -1.52 -0.576 -1.52 -1.008c 0 -0.52 0.4 -0.784 0.992 -0.808c 0.024 0 0.024 -0.024 0.016 -0.032c -0.304 -0.088 -0.44 -0.256 -0.576 -0.552c -0.088 -0.184 -0.16 -0.36 -0.2 -0.464c -0.104 -0.272 -0.24 -0.32 -0.552 -0.336c -0.048 -0.048 -0.048 -0.216 0 -0.264c 0.16 0.008 0.784 0.016 0.784 0.016Z m 0.224 2.568c 0 0.376 0.12 0.616 0.768 0.616c 0.328 0 0.456 -0.144 0.456 -0.448v -0.936h -0.56c -0.48 0 -0.664 0.368 -0.664 0.768Z "/></symbol><symbol id="gAC00C34078948F83CC62D60B02C8E81A" overflow="visible"><path d="M 0 0m 1.512 3.432c -0.264 0 -0.576 0.008 -0.816 0.016c -0.048 -0.048 -0.048 -0.216 0 -0.264c 0.488 -0.04 0.632 -0.072 0.6 -0.736c -0.032 -0.736 -0.16 -1.328 -0.296 -1.888c -0.048 -0.216 -0.28 -0.288 -0.504 -0.312c -0.12 -0.016 -0.232 -0.064 -0.24 -0.208l -0.048 -1.064c 0.056 -0.024 0.12 -0.032 0.216 -0.008c 0.072 0.296 0.288 1.032 1.008 1.032h 1.384c 0.712 0 0.944 -0.72 1.016 -1.04c 0.072 -0.016 0.144 -0.016 0.224 0.016l -0.048 1.072c 0 0.112 -0.064 0.176 -0.216 0.2c -0.144 0.024 -0.344 0.08 -0.344 0.376v 1.832c 0 0.656 0.104 0.696 0.544 0.728c 0.048 0.048 0.048 0.216 0 0.264c -0.24 -0.008 -0.544 -0.016 -0.864 -0.016Z m -0.224 -3.024c 0 0.136 0.216 0.664 0.336 2.496c 0.008 0.12 0.064 0.224 0.28 0.224h 0.552c 0.32 0 0.36 -0.224 0.36 -0.496v -1.928c 0 -0.264 -0.016 -0.392 -0.336 -0.392h -1.032c -0.088 0 -0.16 0.008 -0.16 0.096Z "/></symbol><symbol id="g46DFAA35BC521B4F2378CE697B4B163E" overflow="visible"><path d="M 0 0m 1.248 2.944c -0.008 0.24 -0.024 0.448 -0.064 0.528c -0.016 0.04 -0.032 0.064 -0.096 0.064c -0.224 -0.088 -0.432 -0.16 -0.984 -0.232c -0.016 -0.048 0 -0.176 0.016 -0.224c 0.432 -0.04 0.52 -0.08 0.52 -0.544v -3.416c 0 -0.664 -0.088 -0.704 -0.576 -0.728c -0.048 -0.048 -0.048 -0.216 0 -0.264c 0.28 0.008 0.576 0.016 0.896 0.016c 0.32 0 0.704 -0.008 0.968 -0.016c 0.048 0.048 0.048 0.216 0 0.264c -0.568 0.032 -0.656 0.064 -0.656 0.728v 0.864c 0 0.104 0.032 0.096 0.112 0.064c 0.2 -0.08 0.44 -0.128 0.696 -0.128c 0.448 0 0.848 0.136 1.176 0.448c 0.376 0.368 0.592 0.864 0.592 1.512c 0 0.848 -0.6 1.632 -1.416 1.632c -0.368 0 -0.776 -0.24 -1.096 -0.6c -0.048 -0.048 -0.08 -0.048 -0.088 0.032Z m 0.152 -0.296c 0.208 0.256 0.576 0.496 0.808 0.496c 0.512 0 0.952 -0.576 0.952 -1.48c 0 -0.656 -0.232 -1.472 -1.128 -1.472c -0.144 0 -0.424 0.04 -0.568 0.168c -0.16 0.144 -0.192 0.192 -0.192 0.48v 1.456c 0 0.168 0.032 0.24 0.128 0.352Z "/></symbol><symbol id="g5D01DA3AB390CB78D7E54204B7DC3F87" overflow="visible"><path d="M 0 0m 0.328 1.64c 0 -0.816 0.544 -1.72 1.68 -1.72c 0.512 0 0.904 0.184 1.176 0.448c 0.36 0.352 0.52 0.856 0.52 1.344c 0 0.832 -0.456 1.8 -1.68 1.8c -0.528 0 -0.96 -0.216 -1.256 -0.56c -0.288 -0.344 -0.44 -0.808 -0.44 -1.312Z m 1.576 1.592c 0.688 0 1.112 -0.624 1.112 -1.776c 0 -1.008 -0.52 -1.256 -0.896 -1.256c -0.832 0 -1.104 1.008 -1.104 1.624c 0 0.696 0.168 1.408 0.888 1.408Z "/></symbol><symbol id="gB30BF778AB490C945CE3B0B01F2D3DE5" overflow="visible"><path d="M 0 0m 0.352 2.016c 0 -0.36 0.032 -2.208 1.696 -3.648c 0.08 0.016 0.144 0.072 0.168 0.136c -0.264 0.304 -1.2 1.408 -1.2 3.512c 0 2.104 0.944 3.208 1.2 3.496c -0.024 0.08 -0.08 0.136 -0.168 0.144c -0.952 -0.816 -1.696 -2.152 -1.696 -3.64Z "/></symbol><symbol id="gA5E490FFA4C27385B24874A3876C7C8C" overflow="visible"><path d="M 0 0m 0.872 0c 0.16 0.008 0.296 0.192 0.4 0.408l 0.344 0.72c 0.144 0.296 0.368 0.512 0.912 0.544v -0.696c 0 -0.664 -0.096 -0.688 -0.504 -0.728c -0.048 -0.048 -0.048 -0.216 0 -0.264c 0.184 0.008 0.48 0.016 0.8 0.016c 0.312 0 0.616 -0.008 0.792 -0.016c 0.048 0.048 0.048 0.216 0 0.264c -0.408 0.032 -0.504 0.064 -0.504 0.728v 0.696c 0.544 -0.032 0.768 -0.248 0.912 -0.544l 0.344 -0.72c 0.104 -0.216 0.24 -0.4 0.4 -0.408c 0 0 0.592 -0.008 0.752 -0.016c 0.048 0.048 0.048 0.216 0 0.264c -0.312 0.016 -0.392 0.08 -0.528 0.336l -0.36 0.68c -0.2 0.376 -0.464 0.568 -0.92 0.568v 0.024c 0.312 0.088 0.448 0.368 0.568 0.688c 0.096 0.248 0.192 0.4 0.36 0.4c 0.072 0 0.136 -0.024 0.184 -0.056c 0.048 -0.032 0.136 -0.056 0.24 -0.056c 0.176 0 0.32 0.152 0.32 0.312c 0 0.176 -0.192 0.36 -0.456 0.36c -0.464 0 -0.68 -0.432 -0.832 -0.808c -0.176 -0.44 -0.416 -0.744 -0.984 -0.744v 0.504c 0 0.664 0.096 0.688 0.504 0.728c 0.048 0.048 0.048 0.216 0 0.264c -0.192 -0.008 -0.48 -0.016 -0.8 -0.016c -0.312 0 -0.608 0.008 -0.792 0.016c -0.048 -0.048 -0.048 -0.216 0 -0.264c 0.408 -0.032 0.504 -0.064 0.504 -0.728v -0.504c -0.568 0 -0.808 0.304 -0.984 0.744c -0.152 0.376 -0.368 0.808 -0.832 0.808c -0.264 0 -0.456 -0.184 -0.456 -0.36c 0 -0.16 0.144 -0.312 0.32 -0.312c 0.104 0 0.192 0.024 0.24 0.056c 0.048 0.032 0.112 0.056 0.184 0.056c 0.168 0 0.264 -0.152 0.36 -0.4c 0.12 -0.32 0.256 -0.6 0.568 -0.688v -0.024c -0.456 0 -0.72 -0.192 -0.92 -0.568l -0.36 -0.68c -0.136 -0.256 -0.216 -0.32 -0.528 -0.336c -0.048 -0.048 -0.048 -0.216 0 -0.264c 0.16 0.008 0.752 0.016 0.752 0.016Z "/></symbol><symbol id="gDF0740817C60D01D4C0A2F901DD857A7" overflow="visible"><path d="M 0 0m 1.584 0.504c -0.024 0 -0.056 0.016 -0.056 0.096v 1.824c 0 0.664 0.168 0.736 0.576 0.76c 0.048 0.048 0.048 0.216 0 0.264c -0.184 -0.008 -0.64 -0.016 -0.936 -0.016c -0.264 0 -0.584 0.008 -0.888 0.016c -0.048 -0.048 -0.048 -0.216 0 -0.264c 0.488 -0.024 0.616 -0.096 0.616 -0.76v -1.416c 0 -0.664 -0.128 -0.736 -0.616 -0.76c -0.048 -0.048 -0.048 -0.216 0 -0.264c 0.312 0.008 0.632 0.016 0.888 0.016c 0.184 0 0.4 -0.008 0.488 -0.016c 0.04 0.112 0.112 0.272 0.2 0.432l 1.248 2.504c 0.024 0 0.056 -0.016 0.056 -0.096v -1.816c 0 -0.664 -0.168 -0.736 -0.576 -0.76c -0.048 -0.048 -0.048 -0.216 0 -0.264c 0.184 0.008 0.616 0.016 0.936 0.016c 0.248 0 0.576 -0.008 0.888 -0.016c 0.048 0.048 0.048 0.216 0 0.264c -0.488 0.024 -0.616 0.096 -0.616 0.76v 1.416c 0 0.664 0.128 0.736 0.616 0.76c 0.048 0.048 0.048 0.216 0 0.264c -0.32 -0.008 -0.64 -0.016 -0.888 -0.016c -0.176 0 -0.4 0.008 -0.48 0.016c -0.064 -0.144 -0.136 -0.312 -0.208 -0.448Z "/></symbol><symbol id="g362A412C7577377BE4D103B9E5EDCC22" overflow="visible"><path d="M 0 0m 3.088 0c 0 0 0.624 -0.008 0.784 -0.016c 0.048 0.048 0.048 0.216 0 0.264c -0.312 0.016 -0.376 0.08 -0.512 0.336l -0.36 0.68c -0.2 0.376 -0.48 0.568 -0.936 0.568v 0.024c 0.312 0.088 0.448 0.368 0.568 0.688c 0.096 0.248 0.192 0.4 0.36 0.4c 0.072 0 0.136 -0.024 0.184 -0.056c 0.048 -0.032 0.136 -0.056 0.24 -0.056c 0.176 0 0.32 0.152 0.32 0.312c 0 0.176 -0.192 0.36 -0.456 0.36c -0.464 0 -0.68 -0.432 -0.832 -0.808c -0.176 -0.44 -0.392 -0.744 -0.96 -0.744v 0.504c 0 0.664 0.088 0.688 0.496 0.728c 0.048 0.048 0.048 0.216 0 0.264c -0.192 -0.008 -0.496 -0.016 -0.816 -0.016c -0.344 0 -0.624 0.008 -0.888 0.016c -0.048 -0.048 -0.048 -0.216 0 -0.264c 0.488 -0.032 0.576 -0.064 0.576 -0.728v -1.48c 0 -0.664 -0.088 -0.688 -0.576 -0.728c -0.048 -0.048 -0.048 -0.216 0 -0.264c 0.264 0.008 0.544 0.016 0.896 0.016c 0.312 0 0.632 -0.008 0.808 -0.016c 0.048 0.048 0.048 0.216 0 0.264c -0.408 0.032 -0.496 0.064 -0.496 0.728v 0.696c 0.544 -0.032 0.688 -0.248 0.832 -0.544l 0.344 -0.72c 0.104 -0.216 0.264 -0.4 0.424 -0.408Z "/></symbol><symbol id="g465CA45D0696F5BBCE5E7A11B5E63D98" overflow="visible"><path d="M 0 0m 3.088 0.744c -0.296 -0.304 -0.528 -0.432 -0.992 -0.432c -0.288 0 -0.624 0.168 -0.872 0.576c -0.16 0.264 -0.256 0.632 -0.256 1.096l 2.128 -0.016c 0.096 0 0.152 0.048 0.152 0.136c 0 0.672 -0.24 1.392 -1.352 1.392c -0.696 0 -1.6 -0.664 -1.6 -1.88c 0 -0.448 0.112 -0.88 0.376 -1.184c 0.272 -0.32 0.648 -0.512 1.224 -0.512c 0.608 0 1.04 0.28 1.36 0.696c -0.024 0.08 -0.072 0.12 -0.168 0.128Z m -2.096 1.512c 0.152 0.904 0.712 0.976 0.904 0.976c 0.304 0 0.664 -0.168 0.664 -0.84c 0 -0.072 -0.032 -0.112 -0.12 -0.112Z "/></symbol><symbol id="g8BFB8D74D1A095ADA64D562E8FB553BF" overflow="visible"><path d="M 0 0m 2.032 2.016c 0 0.36 -0.032 2.208 -1.696 3.648c -0.08 -0.016 -0.144 -0.072 -0.168 -0.136c 0.264 -0.304 1.2 -1.408 1.2 -3.512c 0 -2.104 -0.944 -3.208 -1.2 -3.496c 0.024 -0.08 0.08 -0.136 0.168 -0.144c 0.952 0.816 1.696 2.152 1.696 3.64Z "/></symbol><symbol id="gE4F86D8BE8C69EC1EB36B973594724AB" overflow="visible"><path d="M 0 0m 0.936 2.448l -0.048 -1.488c -0.024 -0.672 -0.144 -0.688 -0.608 -0.712c -0.048 -0.048 -0.048 -0.216 0 -0.264c 0.16 0.008 0.56 0.016 0.688 0.016c 0.16 0 0.536 -0.008 0.696 -0.016c 0.048 0.048 0.048 0.216 0 0.264c -0.456 0.032 -0.488 0.112 -0.472 0.712l 0.056 1.96c 0 0.072 0.032 0.072 0.064 0l 1.16 -2.832c 0.032 -0.024 0.064 -0.024 0.088 0l 1.312 2.824c 0.04 0.088 0.08 0.096 0.08 0l -0.008 -1.936c 0 -0.664 -0.056 -0.688 -0.544 -0.728c -0.048 -0.048 -0.048 -0.216 0 -0.264c 0.288 0.008 0.584 0.016 0.864 0.016c 0.24 0 0.584 -0.008 0.896 -0.016c 0.048 0.048 0.048 0.216 0 0.264c -0.488 0.032 -0.576 0.064 -0.576 0.728l -0.016 1.48c -0.008 0.664 0.088 0.688 0.576 0.728c 0.048 0.048 0.048 0.216 0 0.264c -0.28 -0.016 -1.056 -0.016 -1.32 -0.016l -1.064 -2.288l -0.04 -0.08l -0.032 0.08l -0.936 2.288c -0.264 0 -1.112 0 -1.392 0.016c -0.048 -0.048 -0.048 -0.216 0 -0.264c 0.488 -0.04 0.6 -0.072 0.576 -0.736Z "/></symbol><symbol id="gF79D9CC171E1ACC5162F855F1894F43E" overflow="visible"><path d="M 0 0m 2.344 0.384c 0.048 -0.248 0.136 -0.464 0.536 -0.464c 0.304 0 0.592 0.136 0.76 0.296c -0.016 0.096 -0.048 0.168 -0.136 0.216c -0.056 -0.048 -0.192 -0.128 -0.296 -0.128c -0.232 0 -0.24 0.312 -0.24 0.68v 1.176c 0 1.136 -0.624 1.352 -1.208 1.352c -0.656 0 -1.32 -0.432 -1.32 -0.888c 0 -0.192 0.096 -0.288 0.28 -0.288c 0.232 0 0.376 0.168 0.376 0.272c 0 0.056 -0.008 0.112 -0.024 0.144c -0.008 0.024 -0.016 0.072 -0.016 0.16c 0 0.248 0.336 0.336 0.64 0.336c 0.272 0 0.648 -0.136 0.648 -1.04c 0 -0.056 -0.024 -0.088 -0.048 -0.096l -0.688 -0.168c -0.768 -0.192 -1.32 -0.616 -1.32 -1.16c 0 -0.656 0.448 -0.864 1.008 -0.864c 0.28 0 0.52 0.064 0.872 0.336l 0.16 0.128Z m 0 1.48v -1.056c 0 -0.104 -0.048 -0.16 -0.112 -0.208c -0.208 -0.168 -0.48 -0.352 -0.704 -0.352c -0.4 0 -0.576 0.32 -0.576 0.568c 0 0.36 0.168 0.728 0.76 0.88Z "/></symbol><symbol id="g937124D7F3D66536776BB8DA5DFD7893" overflow="visible"><path d="M 0 0m 3.832 2.456c 0 0.664 0.088 0.688 0.576 0.728c 0.048 0.048 0.048 0.216 0 0.264c -0.28 -0.016 -0.632 -0.016 -0.896 -0.016c -0.224 0 -0.544 0.008 -0.856 0.016c -0.048 -0.048 -0.048 -0.216 0 -0.264c 0.488 -0.032 0.544 -0.064 0.544 -0.728v -0.52h -1.712v 0.52c 0 0.664 0.056 0.688 0.544 0.728c 0.048 0.048 0.048 0.216 0 0.264c -0.304 -0.008 -0.608 -0.016 -0.864 -0.016c -0.24 0 -0.568 0.008 -0.888 0.016c -0.048 -0.048 -0.048 -0.216 0 -0.264c 0.488 -0.032 0.576 -0.064 0.576 -0.728v -1.48c 0 -0.664 -0.088 -0.688 -0.576 -0.728c -0.048 -0.048 -0.048 -0.216 0 -0.264c 0.32 0.008 0.64 0.016 0.896 0.016c 0.256 0 0.568 -0.008 0.856 -0.016c 0.048 0.048 0.048 0.216 0 0.264c -0.488 0.032 -0.544 0.064 -0.544 0.728v 0.696h 1.712v -0.696c 0 -0.664 -0.056 -0.688 -0.544 -0.728c -0.048 -0.048 -0.048 -0.216 0 -0.264c 0.288 0.008 0.584 0.016 0.864 0.016c 0.24 0 0.576 -0.008 0.888 -0.016c 0.048 0.048 0.048 0.216 0 0.264c -0.488 0.032 -0.576 0.064 -0.576 0.728Z "/></symbol><symbol id="gE09E60C0AC8E2E10ADA02C2F49261352" overflow="visible"><path d="M 0 0m 1.456 0.976c 0 -0.664 -0.088 -0.704 -0.576 -0.728c -0.048 -0.048 -0.048 -0.216 0 -0.264c 0.312 0.008 0.632 0.016 0.896 0.016c 0.272 0 0.584 -0.008 0.888 -0.016c 0.048 0.048 0.048 0.216 0 0.264c -0.488 0.024 -0.576 0.064 -0.576 0.728v 2.16h 0.136c 0.648 0 0.776 -0.224 0.912 -0.872c 0.104 0 0.208 0.032 0.208 0.032c -0.048 0.368 -0.08 0.72 -0.088 1.184c -0.184 -0.016 -0.784 -0.048 -1.184 -0.048h -0.6c -0.4 0 -0.848 0.024 -1.168 0.048c -0.008 -0.464 -0.04 -0.816 -0.096 -1.184c 0 0 0.112 -0.032 0.216 -0.032c 0.136 0.648 0.256 0.872 0.912 0.872h 0.12Z "/></symbol><symbol id="gE34E15A46C94CBC2E6ABE8844A1DDB21" overflow="visible"><path d="M 0 0m 0.3485 1.7425c 0 -0.867 0.578 -1.8275 1.785 -1.8275c 0.544 0 0.9605 0.1955 1.2495 0.476c 0.3825 0.374 0.5525 0.9095 0.5525 1.428c 0 0.884 -0.4845 1.9125 -1.785 1.9125c -0.561 0 -1.02 -0.2295 -1.3345 -0.595c -0.306 -0.3655 -0.4675 -0.8585 -0.4675 -1.394Z m 1.6745 1.6915c 0.731 0 1.1815 -0.663 1.1815 -1.887c 0 -1.071 -0.5525 -1.3345 -0.952 -1.3345c -0.884 0 -1.173 1.071 -1.173 1.7255c 0 0.7395 0.1785 1.496 0.9435 1.496Z "/></symbol><symbol id="gE827826F9D19F2B711A1B9BF40B9D8A0" overflow="visible"><path d="M 0 0m 1.377 2.6095c 0 0.7055 0.0935 0.731 0.527 0.7735c 0.051 0.051 0.051 0.2295 0 0.2805c -0.204 -0.0085 -0.527 -0.017 -0.867 -0.017c -0.3655 0 -0.6545 0.0085 -0.935 0.017c -0.051 -0.051 -0.051 -0.2295 0 -0.2805c 0.5185 -0.034 0.612 -0.068 0.612 -0.7735v -0.3655c 0 -0.799 0.1785 -1.1135 0.969 -1.1135c 0.5355 0 0.9605 0.306 1.309 0.561v -0.6545c 0 -0.7055 -0.0935 -0.731 -0.612 -0.7735c -0.051 -0.051 -0.051 -0.2295 0 -0.2805c 0.2805 0.0085 0.578 0.017 0.952 0.017c 0.3655 0 0.68 -0.0085 0.952 -0.017c 0.051 0.051 0.051 0.2295 0 0.2805c -0.5185 0.034 -0.612 0.068 -0.612 0.7735v 1.5725c 0 0.7055 0.0935 0.731 0.612 0.7735c 0.051 0.051 0.051 0.2295 0 0.2805c -0.289 -0.0085 -0.578 -0.017 -0.952 -0.017c -0.3315 0 -0.6715 0.0085 -0.867 0.017c -0.051 -0.051 -0.051 -0.2295 0 -0.2805c 0.4335 -0.034 0.527 -0.068 0.527 -0.7735v -0.612c -0.289 -0.255 -0.595 -0.4845 -1.037 -0.4845c -0.5525 0 -0.578 0.289 -0.578 0.952Z "/></symbol><symbol id="gF931FC691828778A920607CF18B9C32A" overflow="visible"><path d="M 0 0m 2.4905 0.408c 0.051 -0.2635 0.1445 -0.493 0.5695 -0.493c 0.323 0 0.629 0.1445 0.8075 0.3145c -0.017 0.102 -0.051 0.1785 -0.1445 0.2295c -0.0595 -0.051 -0.204 -0.136 -0.3145 -0.136c -0.2465 0 -0.255 0.3315 -0.255 0.7225v 1.2495c 0 1.207 -0.663 1.4365 -1.2835 1.4365c -0.697 0 -1.4025 -0.459 -1.4025 -0.9435c 0 -0.204 0.102 -0.306 0.2975 -0.306c 0.2465 0 0.3995 0.1785 0.3995 0.289c 0 0.0595 -0.0085 0.119 -0.0255 0.153c -0.0085 0.0255 -0.017 0.0765 -0.017 0.17c 0 0.2635 0.357 0.357 0.68 0.357c 0.289 0 0.6885 -0.1445 0.6885 -1.105c 0 -0.0595 -0.0255 -0.0935 -0.051 -0.102l -0.731 -0.1785c -0.816 -0.204 -1.4025 -0.6545 -1.4025 -1.2325c 0 -0.697 0.476 -0.918 1.071 -0.918c 0.2975 0 0.5525 0.068 0.9265 0.357l 0.17 0.136Z m 0 1.5725v -1.122c 0 -0.1105 -0.051 -0.17 -0.119 -0.221c -0.221 -0.1785 -0.51 -0.374 -0.748 -0.374c -0.425 0 -0.612 0.34 -0.612 0.6035c 0 0.3825 0.1785 0.7735 0.8075 0.935Z "/></symbol><symbol id="gC8D6D5492F0FFEF84F8079BC5341E7A6" overflow="visible"><path d="M 0 0m 1.581 2.6095c 0 0.4845 0.0595 0.7055 0.357 0.7055h 0.187c 0.697 0 0.901 -0.4845 1.02 -0.9775c 0.0935 -0.0085 0.1785 0 0.2465 0.034c -0.034 0.4505 -0.0595 0.8245 -0.1105 1.275l -0.017 0.017c 0 0 -0.68 -0.017 -0.952 -0.017h -1.071c -0.3655 0 -0.663 0.0085 -0.9435 0.017c -0.051 -0.051 -0.051 -0.2295 0 -0.2805c 0.5185 -0.034 0.612 -0.068 0.612 -0.7735v -1.5725c 0 -0.7055 -0.0935 -0.731 -0.612 -0.7735c -0.051 -0.051 -0.051 -0.2295 0 -0.2805c 0.2805 0.0085 0.578 0.017 0.952 0.017c 0.3655 0 0.6715 -0.0085 0.9435 -0.017c 0.051 0.051 0.051 0.2295 0 0.2805c -0.5185 0.034 -0.612 0.068 -0.612 0.7735Z "/></symbol><symbol id="gE947EB4B5E4397664401494D2E30D146" overflow="visible"><path d="M 0 0m 0.832 4.184v -3.208c 0 -0.664 -0.136 -0.704 -0.696 -0.728c -0.048 -0.048 -0.048 -0.216 0 -0.264c 0.36 0.008 0.752 0.016 1.04 0.016c 0.28 0 0.752 -0.008 1.152 -0.016c 0.048 0.048 0.048 0.216 0 0.264c -0.624 0.032 -0.816 0.064 -0.816 0.728v 1.36c 0.176 -0.056 0.368 -0.08 0.648 -0.08c 1.456 0 1.896 0.952 1.896 1.632c 0 0.472 -0.312 1.328 -1.792 1.328c -0.304 0 -0.776 -0.056 -1.096 -0.056c -0.296 0 -0.712 0.008 -1.032 0.016c -0.048 -0.048 -0.048 -0.216 0 -0.264c 0.56 -0.024 0.696 -0.064 0.696 -0.728Z m 0.68 0.248c 0 0.232 0.12 0.512 0.696 0.512c 0.552 0 1.104 -0.184 1.104 -1.2c 0 -0.864 -0.416 -1.216 -1.192 -1.216c -0.2 0 -0.52 0.016 -0.608 0.04Z "/></symbol><symbol id="g7783EC9FB0C16305C83035E8146994B5" overflow="visible"><path d="M 0 0m 2.168 1.784c 0.104 0 0.216 0.224 0.216 0.32c 0 0.08 -0.032 0.16 -0.112 0.16h -1.752c -0.096 0 -0.2 -0.184 -0.2 -0.328c 0 -0.08 0.048 -0.152 0.12 -0.152Z "/></symbol><symbol id="gE9BB349F7E32C39203BC6B218DF12838" overflow="visible"><path d="M 0 0m 1.168 3.432c -0.344 0 -0.624 0.008 -0.888 0.016c -0.048 -0.048 -0.048 -0.216 0 -0.264c 0.488 -0.032 0.576 -0.064 0.576 -0.728v -1.48c 0 -0.664 -0.088 -0.688 -0.576 -0.728c -0.048 -0.048 -0.048 -0.216 0 -0.264c 0.264 0.008 0.544 0.016 0.896 0.016c 0.296 0 0.56 -0.016 1.096 -0.016c 0.688 0 1.208 0.192 1.208 0.984c 0 0.448 -0.28 0.76 -0.768 0.848v 0.024c 0.368 0.072 0.648 0.328 0.648 0.808c 0 0.56 -0.344 0.8 -1.312 0.8c -0.328 0 -0.536 -0.016 -0.88 -0.016Z m 0.32 -1.696h 0.608c 0.488 0 0.696 -0.32 0.696 -0.8c 0 -0.536 -0.304 -0.688 -0.736 -0.688c -0.416 0 -0.568 0.072 -0.568 0.44Z m 0 0.232v 0.928c 0 0.24 0.184 0.288 0.568 0.288c 0.416 0 0.664 -0.112 0.664 -0.592c 0 -0.32 -0.208 -0.624 -0.704 -0.624Z "/></symbol><symbol id="gFF63DA2595F1651AF0C535BF803D9AEC" overflow="visible"><path d="M 0 0m 3.344 0.976v 1.48c 0 0.656 0.104 0.696 0.544 0.728c 0.048 0.048 0.048 0.216 0 0.264c -0.24 -0.008 -0.544 -0.016 -0.864 -0.016h -1.512c -0.264 0 -0.576 0.008 -0.816 0.016c -0.048 -0.048 -0.048 -0.216 0 -0.264c 0.568 -0.04 0.648 -0.088 0.648 -0.952c 0 -0.84 -0.064 -1.28 -0.176 -1.608c -0.104 -0.288 -0.24 -0.392 -0.376 -0.392c -0.104 0 -0.136 0.064 -0.152 0.168c -0.024 0.152 -0.072 0.304 -0.296 0.304c -0.2 0 -0.312 -0.16 -0.312 -0.336c 0 -0.248 0.224 -0.464 0.592 -0.464c 0.408 0 0.632 0.208 0.816 0.64c 0.16 0.384 0.208 1.2 0.208 1.744c 0 0.624 0.024 0.832 0.344 0.832h 0.36c 0.304 0 0.36 -0.192 0.36 -0.464v -1.68c 0 -0.656 -0.08 -0.696 -0.496 -0.728c -0.04 -0.048 -0.04 -0.216 0 -0.264c 0.2 0.008 0.496 0.016 0.816 0.016c 0.32 0 0.68 -0.008 0.904 -0.016c 0.04 0.048 0.04 0.216 0 0.264c -0.52 0.032 -0.592 0.072 -0.592 0.728Z "/></symbol><symbol id="gADB3B27726748394AAF96F33FED6E9BE" overflow="visible"><path d="M 0 0m 1.488 2.448c 0 0.672 0.088 0.696 0.576 0.736c 0.048 0.048 0.048 0.216 0 0.264c -0.272 -0.008 -0.544 -0.016 -0.896 -0.016c -0.344 0 -0.624 0.008 -0.888 0.016c -0.048 -0.048 -0.048 -0.216 0 -0.264c 0.488 -0.032 0.576 -0.064 0.576 -0.728v -1.48c 0 -0.664 -0.088 -0.688 -0.576 -0.728c -0.048 -0.048 -0.048 -0.216 0 -0.264c 0.264 0.008 0.544 0.016 0.896 0.016c 0.328 0 0.504 -0.016 0.832 -0.016c 0.984 0 1.52 0.248 1.52 1.104c 0 0.752 -0.656 0.968 -1.464 0.968h -0.576Z m 3.448 0.008c 0 0.664 0.088 0.688 0.576 0.728c 0.048 0.048 0.048 0.216 0 0.264c -0.272 -0.008 -0.544 -0.016 -0.896 -0.016c -0.344 0 -0.624 0.008 -0.888 0.016c -0.048 -0.048 -0.048 -0.216 0 -0.264c 0.488 -0.032 0.576 -0.064 0.576 -0.728v -1.48c 0 -0.664 -0.088 -0.688 -0.576 -0.728c -0.048 -0.048 -0.048 -0.216 0 -0.264c 0.264 0.008 0.544 0.016 0.896 0.016c 0.344 0 0.632 -0.008 0.888 -0.016c 0.048 0.048 0.048 0.216 0 0.264c -0.488 0.032 -0.576 0.064 -0.576 0.728Z m -2.096 -1.448c 0 -0.656 -0.4 -0.76 -0.824 -0.76c -0.392 0 -0.528 0.08 -0.528 0.36v 1.184h 0.568c 0.6 0 0.784 -0.36 0.784 -0.784Z "/></symbol><symbol id="gF859B786D36C3A3EB6E93A57BC4F802" overflow="visible"><path d="M 0 0m 3.496 3.432h -2.272c -0.32 0 -0.624 0.008 -0.864 0.016c -0.048 -0.048 -0.048 -0.216 0 -0.264c 0.44 -0.032 0.544 -0.072 0.544 -0.728v -1.48c 0 -0.656 -0.104 -0.696 -0.624 -0.728c -0.048 -0.048 -0.048 -0.216 0 -0.264c 0.24 0.008 0.624 0.016 0.944 0.016c 0.32 0 0.56 -0.008 0.8 -0.016c 0.048 0.048 0.048 0.216 0 0.264c -0.408 0.04 -0.488 0.072 -0.488 0.728v 1.736c 0 0.248 0.024 0.408 0.336 0.408h 0.968c 0.296 0 0.344 -0.088 0.344 -0.408v -1.736c 0 -0.656 -0.08 -0.696 -0.496 -0.728c -0.04 -0.048 -0.04 -0.216 0 -0.264c 0.2 0.008 0.496 0.016 0.816 0.016c 0.32 0 0.68 -0.008 0.904 -0.016c 0.04 0.048 0.04 0.216 0 0.264c -0.52 0.032 -0.592 0.072 -0.592 0.728v 1.48c 0 0.656 0.104 0.696 0.544 0.728c 0.048 0.048 0.048 0.216 0 0.264c -0.24 -0.008 -0.544 -0.016 -0.864 -0.016Z "/></symbol><symbol id="gEF1CB7DB7883465AAAE49B6975EF9AB9" overflow="visible"><path d="M 0 0m 1.456 2.864c -0.184 0.272 -0.128 0.28 0.232 0.32c 0.048 0.048 0.048 0.216 0 0.264c -0.216 -0.008 -0.568 -0.016 -0.808 -0.016c -0.24 0 -0.48 0.008 -0.688 0.016c -0.048 -0.048 -0.048 -0.216 0 -0.264c 0.272 -0.024 0.496 -0.16 0.72 -0.488l 0.696 -1.016c 0.04 -0.056 0.04 -0.08 0.008 -0.12l -0.672 -0.864c -0.32 -0.408 -0.496 -0.432 -0.776 -0.448c -0.048 -0.048 -0.048 -0.216 0 -0.264c 0.16 0.008 0.336 0.016 0.576 0.016c 0.24 0 0.464 -0.008 0.672 -0.016c 0.048 0.048 0.048 0.216 0 0.264c -0.288 0.032 -0.352 0.064 -0.176 0.32l 0.504 0.728c 0.064 0.096 0.096 0.088 0.144 0.016l 0.464 -0.64c 0.28 -0.384 0.152 -0.4 -0.104 -0.424c -0.048 -0.048 -0.048 -0.216 0 -0.264c 0.24 0.008 0.504 0.016 0.792 0.016c 0.304 0 0.52 -0.008 0.712 -0.016c 0.048 0.048 0.048 0.216 0 0.264c -0.36 0.024 -0.48 0.048 -0.8 0.504l -0.72 1.016c -0.032 0.048 -0.04 0.072 0 0.12l 0.672 0.856c 0.296 0.376 0.488 0.416 0.776 0.44c 0.048 0.048 0.048 0.216 0 0.264c -0.16 -0.008 -0.344 -0.016 -0.584 -0.016c -0.24 0 -0.464 0.008 -0.672 0.016c -0.048 -0.048 -0.048 -0.216 0 -0.264c 0.296 -0.032 0.384 -0.056 0.192 -0.328l -0.52 -0.728c -0.056 -0.08 -0.088 -0.072 -0.152 0.016Z "/></symbol><symbol id="gF09D88C2290872E835CD22D560D52A5C" overflow="visible"><path d="M 0 0m 0.344 0.664c 0 -0.176 0.104 -0.304 0.272 -0.432c 0.2 -0.144 0.464 -0.312 1.096 -0.312c 0.8 0 1.424 0.24 1.424 1.032c 0 0.48 -0.24 0.8 -0.808 0.896v 0.024c 0.488 0.184 0.616 0.408 0.616 0.824c 0 0.464 -0.32 0.816 -1.128 0.816c -0.424 0 -0.8 -0.152 -1.232 -0.224l -0.104 -0.952c 0.064 -0.032 0.144 -0.04 0.216 -0.032c 0.152 0.464 0.352 0.928 1.024 0.928c 0.44 0 0.584 -0.264 0.584 -0.584c 0 -0.328 -0.056 -0.712 -0.568 -0.712c -0.152 0 -0.288 0.048 -0.44 0.048c -0.072 0 -0.152 -0.048 -0.152 -0.176c 0 -0.128 0.088 -0.168 0.16 -0.168c 0.152 0 0.24 0.048 0.44 0.048c 0.592 0 0.704 -0.408 0.704 -0.76c 0 -0.472 -0.176 -0.728 -0.744 -0.728c -0.456 0 -0.536 0.168 -0.672 0.456c -0.064 0.144 -0.152 0.256 -0.36 0.256c -0.144 0 -0.328 -0.12 -0.328 -0.248Z "/></symbol><symbol id="gAC173AC16C94F352139132A9DCC12557" overflow="visible"><path d="M 0 0m 3.16 5.048c -0.464 0.064 -0.448 0.216 -1.232 0.216c -0.808 0 -1.52 -0.536 -1.52 -1.384c 0 -0.84 0.696 -1.224 1.4 -1.496c 0.48 -0.184 1.072 -0.408 1.072 -1.192c 0 -0.648 -0.36 -0.984 -1 -0.984c -0.744 0 -1.224 0.344 -1.4 1.136c -0.104 0.032 -0.184 0.016 -0.264 -0.024c 0.032 -0.616 0.064 -0.824 0.16 -1.216c 0.504 0 0.728 -0.184 1.44 -0.184c 0.36 0 0.704 0.088 0.984 0.264c 0.464 0.288 0.752 0.776 0.752 1.288c 0 0.848 -0.64 1.224 -1.296 1.472c -0.48 0.176 -1.28 0.48 -1.28 1.152c 0 0.448 0.408 0.896 0.88 0.896c 0.776 0 1.024 -0.496 1.184 -1.024c 0.088 -0.016 0.192 -0.008 0.264 0.048c -0.032 0.384 -0.064 0.608 -0.144 1.032Z "/></symbol></defs></svg>