<svg viewBox="0 0 251.92426378 156.076992126" width="251.92426378pt" height="156.076992126pt" xmlns="http://www.w3.org/2000/svg" xmlns:xlink="http://www.w3.org/1999/xlink" xmlns:h5="http://www.w3.org/1999/xhtml"><path fill="#ffffff" fill-rule="nonzero" d="M 0 0v 156.076992126h 251.92426378v -156.076992126Z "/><g transform="translate(8 8)"><path fill="#ccc8c0" fill-rule="nonzero" stroke="#1a1a18" stroke-width="0.6" stroke-linecap="butt" stroke-linejoin="miter" stroke-miterlimit="4" transform="translate(43.168358268 51.023622047)" d="M 0 0v 28.346456693h 28.346456693v -28.346456693h -28.346456693Z "/><path fill="none" stroke="#1a1a18" stroke-width="0.6" stroke-linecap="butt" stroke-linejoin="miter" stroke-miterlimit="4" transform="translate(43.168358268 39.68503937)" d="M 0 0m 0 11.338582677l 11.338582677 -11.338582677"/><path fill="none" stroke="#1a1a18" stroke-width="0.6" stroke-linecap="butt" stroke-linejoin="miter" stroke-miterlimit="4" transform="translate(71.514814961 39.68503937)" d="M 0 0m 0 11.338582677l 11.338582677 -11.338582677"/><path fill="none" stroke="#1a1a18" stroke-width="0.6" stroke-linecap="butt" stroke-linejoin="miter" stroke-miterlimit="4" transform="translate(71.514814961 68.031496063)" d="M 0 0m 0 11.338582677l 11.338582677 -11.338582677"/><path fill="none" stroke="#1a1a18" stroke-width="0.6" stroke-linecap="butt" stroke-linejoin="miter" stroke-miterlimit="4" transform="translate(54.506940945 39.68503937)" d="M 0 0h 28.346456693v 28.346456693"/><path fill="none" transform="translate(51.459377953 90.738307087)" d="M 0 0h 23.103v 5.61h -23.103v -5.61Z "/><g transform="translate(51.459377953 90.738306992)"><g transform="matrix(1 0 0 -1 0 5.593)"><use xlink:href="#gDEA2A0379B7527B5C1F8D88530B6617D" x="0" y="0" fill="#1a1a18" fill-rule="nonzero"/><use xlink:href="#g263F4FD32CCD3C47111457350A4C543D" x="5.78" y="0" fill="#1a1a18" fill-rule="nonzero"/><use xlink:href="#gDB83A5E3A43CD1314807805387E0A9CE" x="11.934" y="0" fill="#1a1a18" fill-rule="nonzero"/><use xlink:href="#gCEFD2E51F012095E752F656A8500C1AE" x="19.1505" y="0" fill="#1a1a18" fill-rule="nonzero"/></g></g><path fill="#ccc8c0" fill-rule="nonzero" stroke="#1a1a18" stroke-width="0.6" stroke-linecap="butt" stroke-linejoin="miter" stroke-miterlimit="4" transform="translate(156.554185039 22.677165354)" d="M 0 0v 56.692913386h 56.692913386v -56.692913386h -56.692913386Z "/><path fill="none" stroke="#1a1a18" stroke-width="0.6" stroke-linecap="butt" stroke-linejoin="miter" stroke-miterlimit="4" transform="translate(156.554185039)" d="M 0 0m 0 22.677165354l 22.677165354 -22.677165354"/><path fill="none" stroke="#1a1a18" stroke-width="0.6" stroke-linecap="butt" stroke-linejoin="miter" stroke-miterlimit="4" transform="translate(213.247098425)" d="M 0 0m 0 22.677165354l 22.677165354 -22.677165354"/><path fill="none" stroke="#1a1a18" stroke-width="0.6" stroke-linecap="butt" stroke-linejoin="miter" stroke-miterlimit="4" transform="translate(213.247098425 56.692913386)" d="M 0 0m 0 22.677165354l 22.677165354 -22.677165354"/><path fill="none" stroke="#1a1a18" stroke-width="0.6" stroke-linecap="butt" stroke-linejoin="miter" stroke-miterlimit="4" transform="translate(179.231350394)" d="M 0 0h 56.692913386v 56.692913386"/><path fill="none" transform="translate(181.878683071 90.695807087)" d="M 0 0h 17.3825v 5.695h -17.3825v -5.695Z "/><g transform="translate(181.878682961 90.695807008)"><g transform="matrix(1 0 0 -1 0 5.593)"><use xlink:href="#g1EEFC323E4FEBE7654D5CC1583F61AF4" x="0" y="0" fill="#1a1a18" fill-rule="nonzero"/><use xlink:href="#gB3F6F741CFF64E2F87AE274E4C795DAE" x="3.638" y="0" fill="#1a1a18" fill-rule="nonzero"/><use xlink:href="#gE34E15A46C94CBC2E6ABE8844A1DDB21" x="8.1175" y="0" fill="#1a1a18" fill-rule="nonzero"/><use xlink:href="#gC8932C6BA7F518DC74E87E2F4A0224EB" x="12.4015" y="0" fill="#1a1a18" fill-rule="nonzero"/></g></g><path fill="none" transform="translate(88.292834646 19.603665354)" d="M 0 0h 6.129v 6.147h -6.129v -6.147Z "/><g transform="translate(88.292834646 19.603665213)"><g transform="matrix(1 0 0 -1 0 6.147)"><use xlink:href="#gC22E9FADD3CBAC6835003760EE90F9B" x="0" y="0" fill="#1a1a18" fill-rule="nonzero"/></g></g><path fill="none" transform="translate(224.940472441 2.595791339)" d="M 0 0h 10.629v 6.147h -10.629v -6.147Z "/><g transform="translate(224.940472441 2.595791197)"><g transform="matrix(1 0 0 -1 0 6.147)"><use xlink:href="#g677B5E939AC3BF560D286C1BF5A88FA8" x="0" y="0" fill="#1a1a18" fill-rule="nonzero"/></g><g transform="matrix(1 0 0 -1 4.5 6.147)"><use xlink:href="#gC22E9FADD3CBAC6835003760EE90F9B" x="0" y="0" fill="#1a1a18" fill-rule="nonzero"/></g></g><path fill="none" transform="translate(32.246298775 114.47011811)" d="M 0 0h 163.57640245v 9.17h -163.57640245v -9.17Z "/><g transform="translate(32.246298709 114.470118)"><g transform="matrix(1 0 0 -1 0 6.83)"><use xlink:href="#gAB8B9E265B3CCA4072A334611102AFDC" x="0" y="0" fill="#1a1a18" fill-rule="nonzero"/><use xlink:href="#gF91E605A926A6829D0875F26DD95556B" x="5.86" y="0" fill="#1a1a18" fill-rule="nonzero"/><use xlink:href="#g43B4DCD2F8848462ADFC1E372BCC35" x="10.9" y="0" fill="#1a1a18" fill-rule="nonzero"/><use xlink:href="#g8C4BCE4FF39E54C5E232A1A0A3B7612A" x="15.69" y="0" fill="#1a1a18" fill-rule="nonzero"/><use xlink:href="#g8F03A4AE8D3B195D4882A1755C55580A" x="20.16" y="0" fill="#1a1a18" fill-rule="nonzero"/><use xlink:href="#g61DDF77DF0A8DDB188082107E5AAA9C1" x="25.35" y="0" fill="#1a1a18" fill-rule="nonzero"/><use xlink:href="#gD51468542432F864548926048E523B26" x="30.25" y="0" fill="#1a1a18" fill-rule="nonzero"/><use xlink:href="#gF91E605A926A6829D0875F26DD95556B" x="36.11" y="0" fill="#1a1a18" fill-rule="nonzero"/><use xlink:href="#g3034C02F099195832EC02A04CF67550" x="41.15" y="0" fill="#1a1a18" fill-rule="nonzero"/><use xlink:href="#gF7E2F11D9500E34CEB199CAED225F368" x="45.43" y="0" fill="#1a1a18" fill-rule="nonzero"/><use xlink:href="#g7A87A3C544B096F08C4452AB1CFF4728" x="49.88" y="0" fill="#1a1a18" fill-rule="nonzero"/></g><g transform="matrix(1 0 0 -1 57.03 6.83)"><use xlink:href="#g2A7FE5FFBB7D8C773E81780030968208" x="0" y="0" fill="#1a1a18" fill-rule="nonzero"/></g><g transform="matrix(1 0 0 -1 66.537777778 6.83)"><use xlink:href="#g8C3D1DE697D76EDA694357F78E3116A2" x="0" y="0" fill="#1a1a18" fill-rule="nonzero"/></g><g transform="matrix(1 0 0 -1 77.095555556 6.83)"><use xlink:href="#g71AD0CC7374456C85E3945751B97D8DE" x="0" y="0" fill="#1a1a18" fill-rule="nonzero"/></g><g transform="matrix(1 0 0 -1 83.905555556 3.2)"><use xlink:href="#g9C0042E55FD1BD8A0767C5F489CC0E48" x="0" y="0" fill="#1a1a18" fill-rule="nonzero"/></g><g transform="matrix(1 0 0 -1 88.448555556 6.83)"><use xlink:href="#g9C25E780E6AD3E011190AC1851E58112" x="0" y="0" fill="#1a1a18" fill-rule="nonzero"/></g><g transform="matrix(1 0 0 -1 98.817846894 6.83)"><use xlink:href="#gF91E605A926A6829D0875F26DD95556B" x="0" y="0" fill="#1a1a18" fill-rule="nonzero"/><use xlink:href="#gEE6BFED97EAD66B608F348D718695C96" x="5.04" y="0" fill="#1a1a18" fill-rule="nonzero"/><use xlink:href="#gEDB46017C788838DEEA77EDE592861E5" x="9.93" y="0" fill="#1a1a18" fill-rule="nonzero"/><use xlink:href="#g9E0EED1382D7915B68E40A5B177AB6F0" x="15.58" y="0" fill="#1a1a18" fill-rule="nonzero"/><use xlink:href="#g4C5600170187B2FBAE4AB64C2B9CBFAF" x="20.05" y="0" fill="#1a1a18" fill-rule="nonzero"/></g><g transform="matrix(1 0 0 -1 128.167846894 6.83)"><use xlink:href="#gEDD91886A3C56BA4A4FF27635933586D" x="0" y="0" fill="#1a1a18" fill-rule="nonzero"/></g><g transform="matrix(1 0 0 -1 141.665624672 6.83)"><use xlink:href="#g8C3D1DE697D76EDA694357F78E3116A2" x="0" y="0" fill="#1a1a18" fill-rule="nonzero"/></g><g transform="matrix(1 0 0 -1 152.22340245 6.83)"><use xlink:href="#g71AD0CC7374456C85E3945751B97D8DE" x="0" y="0" fill="#1a1a18" fill-rule="nonzero"/></g><g transform="matrix(1 0 0 -1 159.03340245 3.2)"><use xlink:href="#gE671C321BACDF5664922469AE07CE749" x="0" y="0" fill="#1a1a18" fill-rule="nonzero"/></g></g><path fill="none" transform="translate(0 132.048992126)" d="M 0 0h 228.069v 8.028h -228.069v -8.028Z "/><g transform="translate(0 132.048992126)"><g transform="matrix(1 0 0 -1 0 5.922)"><use xlink:href="#gFFF6E9B9A983FEBF7FB8DCFB305974E9" x="0" y="0" fill="#7c7f6a" fill-rule="nonzero"/><use xlink:href="#gAE9E23F53692F92B7B295E455DF99330" x="6.885" y="0" fill="#7c7f6a" fill-rule="nonzero"/><use xlink:href="#g4AD90A9068D018AD3CEC8FD5EA9519DC" x="11.403" y="0" fill="#7c7f6a" fill-rule="nonzero"/><use xlink:href="#gFFF6E9B9A983FEBF7FB8DCFB305974E9" x="16.074" y="0" fill="#7c7f6a" fill-rule="nonzero"/><use xlink:href="#gA5834380700F55B3689219A2CC4667E3" x="20.709" y="0" fill="#7c7f6a" fill-rule="nonzero"/><use xlink:href="#g5F2B105DCE44482CD07DFE0B4651B637" x="25.983" y="0" fill="#7c7f6a" fill-rule="nonzero"/><use xlink:href="#g7253BD4F4A12C91ABC7B03558525FA66" x="31.257" y="0" fill="#7c7f6a" fill-rule="nonzero"/><use xlink:href="#g4AE5337A4A3FF09E9A9AF89B4B83FC9D" x="35.793" y="0" fill="#7c7f6a" fill-rule="nonzero"/><use xlink:href="#g7253BD4F4A12C91ABC7B03558525FA66" x="39.537" y="0" fill="#7c7f6a" fill-rule="nonzero"/><use xlink:href="#g611C332DF318E3AAFADBD04F1094DD79" x="46.323" y="0" fill="#7c7f6a" fill-rule="nonzero"/><use xlink:href="#gD351E21AD091924D522A6D2D6355C932" x="50.328" y="0" fill="#7c7f6a" fill-rule="nonzero"/><use xlink:href="#gB118266EF18AECCCCEF724ECE6F3D1D3" x="54.351" y="0" fill="#7c7f6a" fill-rule="nonzero"/><use xlink:href="#gF7AD5B3248F8366898BA115B8D318C4E" x="59.094" y="0" fill="#7c7f6a" fill-rule="nonzero"/><use xlink:href="#gA5834380700F55B3689219A2CC4667E3" x="65.457" y="0" fill="#7c7f6a" fill-rule="nonzero"/><use xlink:href="#g7253BD4F4A12C91ABC7B03558525FA66" x="70.731" y="0" fill="#7c7f6a" fill-rule="nonzero"/><use xlink:href="#g6F3F83F8220F4B0FE27ED35A349BC8A6" x="75.267" y="0" fill="#7c7f6a" fill-rule="nonzero"/><use xlink:href="#gD351E21AD091924D522A6D2D6355C932" x="79.578" y="0" fill="#7c7f6a" fill-rule="nonzero"/><use xlink:href="#g4AD90A9068D018AD3CEC8FD5EA9519DC" x="83.601" y="0" fill="#7c7f6a" fill-rule="nonzero"/><use xlink:href="#g92B0517FEDA546B52C117B2B2515B55D" x="88.272" y="0" fill="#7c7f6a" fill-rule="nonzero"/><use xlink:href="#g5F2B105DCE44482CD07DFE0B4651B637" x="92.682" y="0" fill="#7c7f6a" fill-rule="nonzero"/><use xlink:href="#g7253BD4F4A12C91ABC7B03558525FA66" x="97.956" y="0" fill="#7c7f6a" fill-rule="nonzero"/><use xlink:href="#g7815E2C79248546AAEE49EC7F57ADD4E" x="102.492" y="0" fill="#7c7f6a" fill-rule="nonzero"/><use xlink:href="#g611C332DF318E3AAFADBD04F1094DD79" x="106.344" y="0" fill="#7c7f6a" fill-rule="nonzero"/><use xlink:href="#g6EA5A1981697E2B5E95285C58F7F7AD0" x="110.349" y="0" fill="#7c7f6a" fill-rule="nonzero"/><use xlink:href="#g5F2B105DCE44482CD07DFE0B4651B637" x="117.873" y="0" fill="#7c7f6a" fill-rule="nonzero"/><use xlink:href="#gF7AD5B3248F8366898BA115B8D318C4E" x="123.147" y="0" fill="#7c7f6a" fill-rule="nonzero"/><use xlink:href="#gD351E21AD091924D522A6D2D6355C932" x="129.51" y="0" fill="#7c7f6a" fill-rule="nonzero"/><use xlink:href="#gBA3E9C2E61A84E296B252679103E17C4" x="133.533" y="0" fill="#7c7f6a" fill-rule="nonzero"/><use xlink:href="#g6EA5A1981697E2B5E95285C58F7F7AD0" x="138.375" y="0" fill="#7c7f6a" fill-rule="nonzero"/><use xlink:href="#g5F2B105DCE44482CD07DFE0B4651B637" x="143.649" y="0" fill="#7c7f6a" fill-rule="nonzero"/><use xlink:href="#g6EA5A1981697E2B5E95285C58F7F7AD0" x="148.923" y="0" fill="#7c7f6a" fill-rule="nonzero"/><use xlink:href="#gBDFD935577E92FE00C1DBA4B22F07372" x="154.197" y="0" fill="#7c7f6a" fill-rule="nonzero"/><use xlink:href="#gFFF6E9B9A983FEBF7FB8DCFB305974E9" x="159.39" y="0" fill="#7c7f6a" fill-rule="nonzero"/><use xlink:href="#g7253BD4F4A12C91ABC7B03558525FA66" x="166.275" y="0" fill="#7c7f6a" fill-rule="nonzero"/><use xlink:href="#g9C9C9262F30302871979B086E3504457" x="170.811" y="0" fill="#7c7f6a" fill-rule="nonzero"/><use xlink:href="#gC0247148C001F429D117366C771435D1" x="175.212" y="0" fill="#7c7f6a" fill-rule="nonzero"/><use xlink:href="#g99E666F374C663336A4AF6A2BEDCF993" x="180.297" y="0" fill="#7c7f6a" fill-rule="nonzero"/><use xlink:href="#g82C799C01D06EF19E125C6F4348D75CA" x="184.32" y="0" fill="#7c7f6a" fill-rule="nonzero"/><use xlink:href="#gF7AD5B3248F8366898BA115B8D318C4E" x="190.44" y="0" fill="#7c7f6a" fill-rule="nonzero"/><use xlink:href="#g82C799C01D06EF19E125C6F4348D75CA" x="196.803" y="0" fill="#7c7f6a" fill-rule="nonzero"/><use xlink:href="#gD351E21AD091924D522A6D2D6355C932" x="202.923" y="0" fill="#7c7f6a" fill-rule="nonzero"/><use xlink:href="#g5F2B105DCE44482CD07DFE0B4651B637" x="206.946" y="0" fill="#7c7f6a" fill-rule="nonzero"/><use xlink:href="#g1F6C67A5839963BD6478B8393FDBF84B" x="212.22" y="0" fill="#7c7f6a" fill-rule="nonzero"/><use xlink:href="#g785243DD0DBD5D3E5E793E04FC62E83F" x="216.405" y="0" fill="#7c7f6a" fill-rule="nonzero"/><use xlink:href="#gD351E21AD091924D522A6D2D6355C932" x="224.046" y="0" fill="#7c7f6a" fill-rule="nonzero"/></g></g></g><defs><symbol id="gDEA2A0379B7527B5C1F8D88530B6617D" overflow="visible"><path d="M 0 0m 0.9945 2.601l -0.051 -1.581c -0.0255 -0.714 -0.153 -0.731 -0.646 -0.7565c -0.051 -0.051 -0.051 -0.2295 0 -0.2805c 0.17 0.0085 0.595 0.017 0.731 0.017c 0.17 0 0.5695 -0.0085 0.7395 -0.017c 0.051 0.051 0.051 0.2295 0 0.2805c -0.4845 0.034 -0.5185 0.119 -0.5015 0.7565l 0.0595 2.0825c 0 0.0765 0.034 0.0765 0.068 0l 1.2325 -3.009c 0.034 -0.0255 0.068 -0.0255 0.0935 0l 1.394 3.0005c 0.0425 0.0935 0.085 0.102 0.085 0l -0.0085 -2.057c 0 -0.7055 -0.0595 -0.731 -0.578 -0.7735c -0.051 -0.051 -0.051 -0.2295 0 -0.2805c 0.306 0.0085 0.6205 0.017 0.918 0.017c 0.255 0 0.6205 -0.0085 0.952 -0.017c 0.051 0.051 0.051 0.2295 0 0.2805c -0.5185 0.034 -0.612 0.068 -0.612 0.7735l -0.017 1.5725c -0.0085 0.7055 0.0935 0.731 0.612 0.7735c 0.051 0.051 0.051 0.2295 0 0.2805c -0.2975 -0.017 -1.122 -0.017 -1.4025 -0.017l -1.1305 -2.431l -0.0425 -0.085l -0.034 0.085l -0.9945 2.431c -0.2805 0 -1.1815 0 -1.479 0.017c -0.051 -0.051 -0.051 -0.2295 0 -0.2805c 0.5185 -0.0425 0.6375 -0.0765 0.612 -0.782Z "/></symbol><symbol id="g263F4FD32CCD3C47111457350A4C543D" overflow="visible"><path d="M 0 0m 1.581 2.601c 0 0.714 0.0935 0.7395 0.612 0.782c 0.051 0.051 0.051 0.2295 0 0.2805c -0.289 -0.0085 -0.578 -0.017 -0.952 -0.017c -0.3655 0 -0.663 0.0085 -0.9435 0.017c -0.051 -0.051 -0.051 -0.2295 0 -0.2805c 0.5185 -0.034 0.612 -0.068 0.612 -0.7735v -1.5725c 0 -0.7055 -0.0935 -0.731 -0.612 -0.7735c -0.051 -0.051 -0.051 -0.2295 0 -0.2805c 0.2805 0.0085 0.578 0.017 0.952 0.017c 0.3485 0 0.5355 -0.017 0.884 -0.017c 1.0455 0 1.615 0.2635 1.615 1.173c 0 0.799 -0.697 1.0285 -1.5555 1.0285h -0.612Z m 3.6635 0.0085c 0 0.7055 0.0935 0.731 0.612 0.7735c 0.051 0.051 0.051 0.2295 0 0.2805c -0.289 -0.0085 -0.578 -0.017 -0.952 -0.017c -0.3655 0 -0.663 0.0085 -0.9435 0.017c -0.051 -0.051 -0.051 -0.2295 0 -0.2805c 0.5185 -0.034 0.612 -0.068 0.612 -0.7735v -1.5725c 0 -0.7055 -0.0935 -0.731 -0.612 -0.7735c -0.051 -0.051 -0.051 -0.2295 0 -0.2805c 0.2805 0.0085 0.578 0.017 0.952 0.017c 0.3655 0 0.6715 -0.0085 0.9435 -0.017c 0.051 0.051 0.051 0.2295 0 0.2805c -0.5185 0.034 -0.612 0.068 -0.612 0.7735Z m -2.227 -1.5385c 0 -0.697 -0.425 -0.8075 -0.8755 -0.8075c -0.4165 0 -0.561 0.085 -0.561 0.3825v 1.258h 0.6035c 0.6375 0 0.833 -0.3825 0.833 -0.833Z "/></symbol><symbol id="gDB83A5E3A43CD1314807805387E0A9CE" overflow="visible"><path d="M 0 0m 6.341 1.037v 1.5725c 0 0.697 0.1105 0.7395 0.578 0.7735c 0.051 0.051 0.051 0.2295 0 0.2805c -0.255 -0.0085 -0.578 -0.017 -0.918 -0.017c -0.34 0 -0.595 0.0085 -0.85 0.017c -0.051 -0.051 -0.051 -0.2295 0 -0.2805c 0.4335 -0.0425 0.5185 -0.0765 0.5185 -0.7735v -1.8445c 0 -0.2635 -0.0255 -0.4335 -0.357 -0.4335h -1.003c -0.255 0 -0.3655 0.0765 -0.3655 0.4335v 1.8445c 0.0085 0.697 0.068 0.7395 0.527 0.7735c 0.0425 0.051 0.0425 0.2295 0 0.2805c -0.2125 -0.0085 -0.527 -0.017 -0.867 -0.017c -0.34 0 -0.6205 0.0085 -0.833 0.017c -0.0425 -0.051 -0.0425 -0.2295 0 -0.2805c 0.425 -0.034 0.51 -0.0765 0.5015 -0.7735v -1.853c 0 -0.3145 -0.0425 -0.425 -0.357 -0.425h -0.969c -0.3145 0 -0.3655 0.0935 -0.3655 0.4335v 1.8445c 0 0.697 0.085 0.7395 0.527 0.7735c 0.0425 0.051 0.0425 0.2295 0 0.2805c -0.2125 -0.0085 -0.527 -0.017 -0.867 -0.017c -0.34 0 -0.6375 0.0085 -0.8755 0.017c -0.0425 -0.051 -0.0425 -0.2295 0 -0.2805c 0.4675 -0.034 0.544 -0.0765 0.544 -0.7735v -1.5725c 0 -0.697 -0.1105 -0.7395 -0.578 -0.7735c -0.051 -0.051 -0.051 -0.2295 0 -0.2805c 0.255 0.0085 0.578 0.017 0.918 0.017h 4.7515c 0.34 0 0.663 -0.0085 0.918 -0.017c 0.051 0.051 0.051 0.2295 0 0.2805c -0.4675 0.034 -0.578 0.0765 -0.578 0.7735Z "/></symbol><symbol id="gCEFD2E51F012095E752F656A8500C1AE" overflow="visible"><path d="M 0 0m 1.581 2.601c 0 0.714 0.0935 0.7395 0.612 0.782c 0.051 0.051 0.051 0.2295 0 0.2805c -0.289 -0.0085 -0.578 -0.017 -0.952 -0.017c -0.3655 0 -0.663 0.0085 -0.9435 0.017c -0.051 -0.051 -0.051 -0.2295 0 -0.2805c 0.5185 -0.034 0.612 -0.068 0.612 -0.7735v -1.5725c 0 -0.7055 -0.0935 -0.731 -0.612 -0.7735c -0.051 -0.051 -0.051 -0.2295 0 -0.2805c 0.2805 0.0085 0.578 0.017 0.952 0.017c 0.3485 0 0.5355 -0.017 0.884 -0.017c 1.0455 0 1.615 0.2635 1.615 1.173c 0 0.799 -0.697 1.0285 -1.5555 1.0285h -0.612Z m 1.4365 -1.53c 0 -0.697 -0.425 -0.8075 -0.8755 -0.8075c -0.4165 0 -0.561 0.085 -0.561 0.3825v 1.258h 0.6035c 0.6375 0 0.833 -0.3825 0.833 -0.833Z "/></symbol><symbol id="g1EEFC323E4FEBE7654D5CC1583F61AF4" overflow="visible"><path d="M 0 0m 3.383 0.7735c -0.034 0.0765 -0.102 0.1105 -0.1785 0.119c -0.289 -0.374 -0.6545 -0.561 -1.02 -0.561c -0.6205 0 -1.139 0.629 -1.139 1.6235c 0 0.935 0.408 1.496 0.969 1.496c 0.5015 0 0.5695 -0.2975 0.6035 -0.595c 0.0255 -0.2295 0.1445 -0.306 0.323 -0.306c 0.1785 0 0.4165 0.1105 0.4165 0.374c 0 0.4675 -0.4845 0.8075 -1.3005 0.8075c -0.8415 0 -1.7425 -0.7565 -1.7425 -1.9635c 0 -1.0965 0.612 -1.853 1.683 -1.853c 0.51 0 0.9605 0.1615 1.3855 0.8585Z "/></symbol><symbol id="gB3F6F741CFF64E2F87AE274E4C795DAE" overflow="visible"><path d="M 0 0m 3.553 1.037v 1.5725c 0 0.697 0.1105 0.7395 0.578 0.7735c 0.051 0.051 0.051 0.2295 0 0.2805c -0.255 -0.0085 -0.578 -0.017 -0.918 -0.017h -1.6065c -0.2805 0 -0.612 0.0085 -0.867 0.017c -0.051 -0.051 -0.051 -0.2295 0 -0.2805c 0.6035 -0.0425 0.6885 -0.0935 0.6885 -1.0115c 0 -0.8925 -0.068 -1.36 -0.187 -1.7085c -0.1105 -0.306 -0.255 -0.4165 -0.3995 -0.4165c -0.1105 0 -0.1445 0.068 -0.1615 0.1785c -0.0255 0.1615 -0.0765 0.323 -0.3145 0.323c -0.2125 0 -0.3315 -0.17 -0.3315 -0.357c 0 -0.2635 0.238 -0.493 0.629 -0.493c 0.4335 0 0.6715 0.221 0.867 0.68c 0.17 0.408 0.221 1.275 0.221 1.853c 0 0.663 0.0255 0.884 0.3655 0.884h 0.3825c 0.323 0 0.3825 -0.204 0.3825 -0.493v -1.785c 0 -0.697 -0.085 -0.7395 -0.527 -0.7735c -0.0425 -0.051 -0.0425 -0.2295 0 -0.2805c 0.2125 0.0085 0.527 0.017 0.867 0.017c 0.34 0 0.7225 -0.0085 0.9605 -0.017c 0.0425 0.051 0.0425 0.2295 0 0.2805c -0.5525 0.034 -0.629 0.0765 -0.629 0.7735Z "/></symbol><symbol id="gE34E15A46C94CBC2E6ABE8844A1DDB21" overflow="visible"><path d="M 0 0m 0.3485 1.7425c 0 -0.867 0.578 -1.8275 1.785 -1.8275c 0.544 0 0.9605 0.1955 1.2495 0.476c 0.3825 0.374 0.5525 0.9095 0.5525 1.428c 0 0.884 -0.4845 1.9125 -1.785 1.9125c -0.561 0 -1.02 -0.2295 -1.3345 -0.595c -0.306 -0.3655 -0.4675 -0.8585 -0.4675 -1.394Z m 1.6745 1.6915c 0.731 0 1.1815 -0.663 1.1815 -1.887c 0 -1.071 -0.5525 -1.3345 -0.952 -1.3345c -0.884 0 -1.173 1.071 -1.173 1.7255c 0 0.7395 0.1785 1.496 0.9435 1.496Z "/></symbol><symbol id="gC8932C6BA7F518DC74E87E2F4A0224EB" overflow="visible"><path d="M 0 0m 4.0715 2.6095c 0 0.7055 0.0935 0.731 0.612 0.7735c 0.051 0.051 0.051 0.2295 0 0.2805c -0.2975 -0.017 -0.6715 -0.017 -0.952 -0.017c -0.238 0 -0.578 0.0085 -0.9095 0.017c -0.051 -0.051 -0.051 -0.2295 0 -0.2805c 0.5185 -0.034 0.578 -0.068 0.578 -0.7735v -0.5525h -1.819v 0.5525c 0 0.7055 0.0595 0.731 0.578 0.7735c 0.051 0.051 0.051 0.2295 0 0.2805c -0.323 -0.0085 -0.646 -0.017 -0.918 -0.017c -0.255 0 -0.6035 0.0085 -0.9435 0.017c -0.051 -0.051 -0.051 -0.2295 0 -0.2805c 0.5185 -0.034 0.612 -0.068 0.612 -0.7735v -1.5725c 0 -0.7055 -0.0935 -0.731 -0.612 -0.7735c -0.051 -0.051 -0.051 -0.2295 0 -0.2805c 0.34 0.0085 0.68 0.017 0.952 0.017c 0.272 0 0.6035 -0.0085 0.9095 -0.017c 0.051 0.051 0.051 0.2295 0 0.2805c -0.5185 0.034 -0.578 0.068 -0.578 0.7735v 0.7395h 1.819v -0.7395c 0 -0.7055 -0.0595 -0.731 -0.578 -0.7735c -0.051 -0.051 -0.051 -0.2295 0 -0.2805c 0.306 0.0085 0.6205 0.017 0.918 0.017c 0.255 0 0.612 -0.0085 0.9435 -0.017c 0.051 0.051 0.051 0.2295 0 0.2805c -0.5185 0.034 -0.612 0.068 -0.612 0.7735Z "/></symbol><symbol id="gC22E9FADD3CBAC6835003760EE90F9B" overflow="visible"><path d="M 0 0m 4.68 6.003c 0 0.099 -0.063 0.144 -0.18 0.144l -1.314 -0.027l -1.179 0.027c -0.135 0.009 -0.207 -0.063 -0.207 -0.216c 0 -0.063 0.027 -0.108 0.081 -0.117c 0.081 -0.009 0.153 -0.018 0.198 -0.018c 0.279 -0.009 0.432 -0.027 0.477 -0.036c 0.045 -0.009 0.072 -0.036 0.072 -0.081c 0 -0.018 -0.009 -0.072 -0.036 -0.162l -1.188 -4.779c -0.054 -0.198 -0.144 -0.315 -0.279 -0.36c -0.054 -0.018 -0.216 -0.027 -0.495 -0.027c -0.189 0 -0.279 -0.072 -0.279 -0.216c 0 -0.09 0.09 -0.135 0.279 -0.135h 4.113c 0.225 0 0.243 0 0.306 0.171l 0.702 1.926c 0.027 0.063 0.036 0.108 0.036 0.135c 0 0.09 -0.045 0.135 -0.144 0.135c -0.09 0 -0.135 -0.081 -0.18 -0.207c -0.171 -0.441 -0.333 -0.774 -0.468 -0.981c -0.333 -0.504 -0.9 -0.828 -1.728 -0.828h -0.837c -0.099 0 -0.162 0 -0.189 0.009c -0.063 0 -0.09 0.018 -0.09 0.045c 0 0.018 0.018 0.081 0.045 0.198l 1.197 4.806c 0.054 0.207 0.171 0.324 0.342 0.369c 0.054 0.009 0.243 0.018 0.567 0.018c 0.252 0 0.378 0 0.378 0.207Z "/></symbol><symbol id="g677B5E939AC3BF560D286C1BF5A88FA8" overflow="visible"><path d="M 0 0m 2.133 5.994c -0.459 0 -0.846 -0.162 -1.179 -0.486c -0.333 -0.324 -0.504 -0.702 -0.504 -1.161c 0 -0.306 0.225 -0.531 0.504 -0.531c 0.27 0 0.495 0.234 0.495 0.504c 0 0.297 -0.216 0.504 -0.504 0.504c -0.027 0 -0.045 0 -0.063 -0.009c 0.171 0.441 0.567 0.828 1.134 0.828c 0.738 0 1.152 -0.639 1.152 -1.413c 0 -0.603 -0.306 -1.251 -0.918 -1.935l -1.692 -1.908c -0.117 -0.135 -0.108 -0.126 -0.108 -0.387h 3.339l 0.261 1.62h -0.297c -0.072 -0.459 -0.135 -0.72 -0.189 -0.801c -0.045 -0.045 -0.315 -0.063 -0.81 -0.063h -1.503l 0.873 0.855c 0.612 0.576 1.386 1.197 1.647 1.674c 0.18 0.315 0.27 0.63 0.27 0.945c 0 1.062 -0.828 1.764 -1.908 1.764Z "/></symbol><symbol id="gAB8B9E265B3CCA4072A334611102AFDC" overflow="visible"><path d="M 0 0m 4.37 4.29h -2.84c -0.4 0 -0.78 0.01 -1.08 0.02c -0.06 -0.06 -0.06 -0.27 0 -0.33c 0.55 -0.04 0.68 -0.09 0.68 -0.91v -1.85c 0 -0.82 -0.13 -0.87 -0.78 -0.91c -0.06 -0.06 -0.06 -0.27 0 -0.33c 0.3 0.01 0.78 0.02 1.18 0.02c 0.4 0 0.7 -0.01 1 -0.02c 0.06 0.06 0.06 0.27 0 0.33c -0.51 0.05 -0.61 0.09 -0.61 0.91v 2.17c 0 0.31 0.03 0.51 0.42 0.51h 1.21c 0.37 0 0.43 -0.11 0.43 -0.51v -2.17c 0 -0.82 -0.1 -0.87 -0.62 -0.91c -0.05 -0.06 -0.05 -0.27 0 -0.33c 0.25 0.01 0.62 0.02 1.02 0.02c 0.4 0 0.85 -0.01 1.13 -0.02c 0.05 0.06 0.05 0.27 0 0.33c -0.65 0.04 -0.74 0.09 -0.74 0.91v 1.85c 0 0.82 0.13 0.87 0.68 0.91c 0.06 0.06 0.06 0.27 0 0.33c -0.3 -0.01 -0.68 -0.02 -1.08 -0.02Z "/></symbol><symbol id="gF91E605A926A6829D0875F26DD95556B" overflow="visible"><path d="M 0 0m 0.41 2.05c 0 -1.02 0.68 -2.15 2.1 -2.15c 0.64 0 1.13 0.23 1.47 0.56c 0.45 0.44 0.65 1.07 0.65 1.68c 0 1.04 -0.57 2.25 -2.1 2.25c -0.66 0 -1.2 -0.27 -1.57 -0.7c -0.36 -0.43 -0.55 -1.01 -0.55 -1.64Z m 1.97 1.99c 0.86 0 1.39 -0.78 1.39 -2.22c 0 -1.26 -0.65 -1.57 -1.12 -1.57c -1.04 0 -1.38 1.26 -1.38 2.03c 0 0.87 0.21 1.76 1.11 1.76Z "/></symbol><symbol id="g43B4DCD2F8848462ADFC1E372BCC35" overflow="visible"><path d="M 0 0m 1.46 4.29c -0.43 0 -0.78 0.01 -1.11 0.02c -0.06 -0.06 -0.06 -0.27 0 -0.33c 0.61 -0.04 0.72 -0.08 0.72 -0.91v -1.85c 0 -0.83 -0.11 -0.86 -0.72 -0.91c -0.06 -0.06 -0.06 -0.27 0 -0.33c 0.33 0.01 0.68 0.02 1.12 0.02c 0.37 0 0.7 -0.02 1.37 -0.02c 0.86 0 1.51 0.24 1.51 1.23c 0 0.56 -0.35 0.95 -0.96 1.06v 0.03c 0.46 0.09 0.81 0.41 0.81 1.01c 0 0.7 -0.43 1 -1.64 1c -0.41 0 -0.67 -0.02 -1.1 -0.02Z m 0.4 -2.12h 0.76c 0.61 0 0.87 -0.4 0.87 -1c 0 -0.67 -0.38 -0.86 -0.92 -0.86c -0.52 0 -0.71 0.09 -0.71 0.55Z m 0 0.29v 1.16c 0 0.3 0.23 0.36 0.71 0.36c 0.52 0 0.83 -0.14 0.83 -0.74c 0 -0.4 -0.26 -0.78 -0.88 -0.78Z "/></symbol><symbol id="g8C4BCE4FF39E54C5E232A1A0A3B7612A" overflow="visible"><path d="M 0 0m 3.86 0.93c -0.37 -0.38 -0.66 -0.54 -1.24 -0.54c -0.36 0 -0.78 0.21 -1.09 0.72c -0.2 0.33 -0.32 0.79 -0.32 1.37l 2.66 -0.02c 0.12 0 0.19 0.06 0.19 0.17c 0 0.84 -0.3 1.74 -1.69 1.74c -0.87 0 -2 -0.83 -2 -2.35c 0 -0.56 0.14 -1.1 0.47 -1.48c 0.34 -0.4 0.81 -0.64 1.53 -0.64c 0.76 0 1.3 0.35 1.7 0.87c -0.03 0.1 -0.09 0.15 -0.21 0.16Z m -2.62 1.89c 0.19 1.13 0.89 1.22 1.13 1.22c 0.38 0 0.83 -0.21 0.83 -1.05c 0 -0.09 -0.04 -0.14 -0.15 -0.14Z "/></symbol><symbol id="g8F03A4AE8D3B195D4882A1755C55580A" overflow="visible"><path d="M 0 0m 1.56 3.68c -0.01 0.3 -0.03 0.56 -0.08 0.66c -0.02 0.05 -0.04 0.08 -0.12 0.08c -0.28 -0.11 -0.54 -0.2 -1.23 -0.29c -0.02 -0.06 0 -0.22 0.02 -0.28c 0.54 -0.05 0.65 -0.1 0.65 -0.68v -4.27c 0 -0.83 -0.11 -0.88 -0.72 -0.91c -0.06 -0.06 -0.06 -0.27 0 -0.33c 0.35 0.01 0.72 0.02 1.12 0.02c 0.4 0 0.88 -0.01 1.21 -0.02c 0.06 0.06 0.06 0.27 0 0.33c -0.71 0.04 -0.82 0.08 -0.82 0.91v 1.08c 0 0.13 0.04 0.12 0.14 0.08c 0.25 -0.1 0.55 -0.16 0.87 -0.16c 0.56 0 1.06 0.17 1.47 0.56c 0.47 0.46 0.74 1.08 0.74 1.89c 0 1.06 -0.75 2.04 -1.77 2.04c -0.46 0 -0.97 -0.3 -1.37 -0.75c -0.06 -0.06 -0.1 -0.06 -0.11 0.04Z m 0.19 -0.37c 0.26 0.32 0.72 0.62 1.01 0.62c 0.64 0 1.19 -0.72 1.19 -1.85c 0 -0.82 -0.29 -1.84 -1.41 -1.84c -0.18 0 -0.53 0.05 -0.71 0.21c -0.2 0.18 -0.24 0.24 -0.24 0.6v 1.82c 0 0.21 0.04 0.3 0.16 0.44Z "/></symbol><symbol id="g61DDF77DF0A8DDB188082107E5AAA9C1" overflow="visible"><path d="M 0 0m 1.82 3.58c -0.23 0.34 -0.16 0.35 0.29 0.4c 0.06 0.06 0.06 0.27 0 0.33c -0.27 -0.01 -0.71 -0.02 -1.01 -0.02c -0.3 0 -0.6 0.01 -0.86 0.02c -0.06 -0.06 -0.06 -0.27 0 -0.33c 0.34 -0.03 0.62 -0.2 0.9 -0.61l 0.87 -1.27c 0.05 -0.07 0.05 -0.1 0.01 -0.15l -0.84 -1.08c -0.4 -0.51 -0.62 -0.54 -0.97 -0.56c -0.06 -0.06 -0.06 -0.27 0 -0.33c 0.2 0.01 0.42 0.02 0.72 0.02c 0.3 0 0.58 -0.01 0.84 -0.02c 0.06 0.06 0.06 0.27 0 0.33c -0.36 0.04 -0.44 0.08 -0.22 0.4l 0.63 0.91c 0.08 0.12 0.12 0.11 0.18 0.02l 0.58 -0.8c 0.35 -0.48 0.19 -0.5 -0.13 -0.53c -0.06 -0.06 -0.06 -0.27 0 -0.33c 0.3 0.01 0.63 0.02 0.99 0.02c 0.38 0 0.65 -0.01 0.89 -0.02c 0.06 0.06 0.06 0.27 0 0.33c -0.45 0.03 -0.6 0.06 -1 0.63l -0.9 1.27c -0.04 0.06 -0.05 0.09 0 0.15l 0.84 1.07c 0.37 0.47 0.61 0.52 0.97 0.55c 0.06 0.06 0.06 0.27 0 0.33c -0.2 -0.01 -0.43 -0.02 -0.73 -0.02c -0.3 0 -0.58 0.01 -0.84 0.02c -0.06 -0.06 -0.06 -0.27 0 -0.33c 0.37 -0.04 0.48 -0.07 0.24 -0.41l -0.65 -0.91c -0.07 -0.1 -0.11 -0.09 -0.19 0.02Z "/></symbol><symbol id="gD51468542432F864548926048E523B26" overflow="visible"><path d="M 0 0m 4.79 3.07c 0 0.83 0.11 0.86 0.72 0.91c 0.06 0.06 0.06 0.27 0 0.33c -0.35 -0.02 -0.79 -0.02 -1.12 -0.02c -0.28 0 -0.68 0.01 -1.07 0.02c -0.06 -0.06 -0.06 -0.27 0 -0.33c 0.61 -0.04 0.68 -0.08 0.68 -0.91v -0.65h -2.14v 0.65c 0 0.83 0.07 0.86 0.68 0.91c 0.06 0.06 0.06 0.27 0 0.33c -0.38 -0.01 -0.76 -0.02 -1.08 -0.02c -0.3 0 -0.71 0.01 -1.11 0.02c -0.06 -0.06 -0.06 -0.27 0 -0.33c 0.61 -0.04 0.72 -0.08 0.72 -0.91v -1.85c 0 -0.83 -0.11 -0.86 -0.72 -0.91c -0.06 -0.06 -0.06 -0.27 0 -0.33c 0.4 0.01 0.8 0.02 1.12 0.02c 0.32 0 0.71 -0.01 1.07 -0.02c 0.06 0.06 0.06 0.27 0 0.33c -0.61 0.04 -0.68 0.08 -0.68 0.91v 0.87h 2.14v -0.87c 0 -0.83 -0.07 -0.86 -0.68 -0.91c -0.06 -0.06 -0.06 -0.27 0 -0.33c 0.36 0.01 0.73 0.02 1.08 0.02c 0.3 0 0.72 -0.01 1.11 -0.02c 0.06 0.06 0.06 0.27 0 0.33c -0.61 0.04 -0.72 0.08 -0.72 0.91Z "/></symbol><symbol id="g3034C02F099195832EC02A04CF67550" overflow="visible"><path d="M 0 0m 3.98 0.91c -0.04 0.09 -0.12 0.13 -0.21 0.14c -0.34 -0.44 -0.77 -0.66 -1.2 -0.66c -0.73 0 -1.34 0.74 -1.34 1.91c 0 1.1 0.48 1.76 1.14 1.76c 0.59 0 0.67 -0.35 0.71 -0.7c 0.03 -0.27 0.17 -0.36 0.38 -0.36c 0.21 0 0.49 0.13 0.49 0.44c 0 0.55 -0.57 0.95 -1.53 0.95c -0.99 0 -2.05 -0.89 -2.05 -2.31c 0 -1.29 0.72 -2.18 1.98 -2.18c 0.6 0 1.13 0.19 1.63 1.01Z "/></symbol><symbol id="gF7E2F11D9500E34CEB199CAED225F368" overflow="visible"><path d="M 0 0m 1.82 1.22c 0 -0.83 -0.11 -0.88 -0.72 -0.91c -0.06 -0.06 -0.06 -0.27 0 -0.33c 0.39 0.01 0.79 0.02 1.12 0.02c 0.34 0 0.73 -0.01 1.11 -0.02c 0.06 0.06 0.06 0.27 0 0.33c -0.61 0.03 -0.72 0.08 -0.72 0.91v 2.7h 0.17c 0.81 0 0.97 -0.28 1.14 -1.09c 0.13 0 0.26 0.04 0.26 0.04c -0.06 0.46 -0.1 0.9 -0.11 1.48c -0.23 -0.02 -0.98 -0.06 -1.48 -0.06h -0.75c -0.5 0 -1.06 0.03 -1.46 0.06c -0.01 -0.58 -0.05 -1.02 -0.12 -1.48c 0 0 0.14 -0.04 0.27 -0.04c 0.17 0.81 0.32 1.09 1.14 1.09h 0.15Z "/></symbol><symbol id="g7A87A3C544B096F08C4452AB1CFF4728" overflow="visible"><path d="M 0 0m 1.86 3.06c 0 0.84 0.11 0.87 0.72 0.92c 0.06 0.06 0.06 0.27 0 0.33c -0.34 -0.01 -0.68 -0.02 -1.12 -0.02c -0.43 0 -0.78 0.01 -1.11 0.02c -0.06 -0.06 -0.06 -0.27 0 -0.33c 0.61 -0.04 0.72 -0.08 0.72 -0.91v -1.85c 0 -0.83 -0.11 -0.86 -0.72 -0.91c -0.06 -0.06 -0.06 -0.27 0 -0.33c 0.33 0.01 0.68 0.02 1.12 0.02c 0.41 0 0.63 -0.02 1.04 -0.02c 1.23 0 1.9 0.31 1.9 1.38c 0 0.94 -0.82 1.21 -1.83 1.21h -0.72Z m 1.69 -1.8c 0 -0.82 -0.5 -0.95 -1.03 -0.95c -0.49 0 -0.66 0.1 -0.66 0.45v 1.48h 0.71c 0.75 0 0.98 -0.45 0.98 -0.98Z "/></symbol><symbol id="g2A7FE5FFBB7D8C773E81780030968208" overflow="visible"><path d="M 0 0m 1.33 1.57c 0 0.24 0.03 0.44 0.08 0.6c 0 0.1 -0.05 0.15 -0.16 0.15c -0.05 0 -0.09 -0.02 -0.11 -0.04c -0.05 -0.05 -0.62 -2.2 -0.62 -2.36c 0 -0.09 0.05 -0.14 0.15 -0.14c 0.05 0 0.12 0.05 0.21 0.16l 0.45 0.53c 0.35 -0.46 0.91 -0.69 1.67 -0.69c 0.66 0 1.24 0.27 1.76 0.8c 0.52 0.53 0.78 1.12 0.78 1.78c 0 0.47 -0.16 0.87 -0.49 1.19c -0.15 0.13 -0.35 0.24 -0.6 0.33c -0.23 0.05 -0.45 0.11 -0.67 0.17l -0.66 0.18c -0.33 0.09 -0.58 0.46 -0.58 0.86c 0 0.43 0.17 0.8 0.52 1.12c 0.35 0.32 0.74 0.48 1.17 0.48c 0.92 0 1.38 -0.5 1.38 -1.49c 0 -0.18 -0.04 -0.38 -0.04 -0.55v -0.03c 0.03 -0.07 0.08 -0.11 0.16 -0.11c 0.09 0 0.15 0.08 0.19 0.23l 0.53 2.17c 0 0.09 -0.05 0.14 -0.15 0.14c -0.05 0 -0.12 -0.05 -0.21 -0.16l -0.43 -0.52c -0.28 0.45 -0.75 0.68 -1.42 0.68c -0.63 0 -1.2 -0.24 -1.7 -0.71c -0.52 -0.48 -0.78 -1.03 -0.78 -1.66c 0 -0.72 0.47 -1.29 1.06 -1.45l 1.05 -0.27c 0.54 -0.15 0.88 -0.34 0.88 -1.01c 0 -0.46 -0.18 -0.87 -0.53 -1.23c -0.35 -0.36 -0.75 -0.55 -1.2 -0.55c -0.98 0 -1.69 0.43 -1.69 1.4Z "/></symbol><symbol id="g8C3D1DE697D76EDA694357F78E3116A2" overflow="visible"><path d="M 0 0m 4.62 2.77c -0.27 0.4 -0.55 0.74 -0.82 1.02c -0.4 0.42 -0.89 0.63 -1.48 0.63c -0.55 0 -1 -0.25 -1.33 -0.75c -0.29 -0.43 -0.43 -0.94 -0.43 -1.52c 0 -0.58 0.14 -1.09 0.42 -1.52c 0.33 -0.49 0.77 -0.74 1.32 -0.74c 1.08 0 1.82 0.83 2.23 1.65c 0.27 -0.4 0.54 -0.74 0.81 -1.02c 0.41 -0.42 0.9 -0.63 1.48 -0.63c 0.13 0 0.27 0.02 0.4 0.05v 0.47c -0.15 -0.03 -0.24 -0.04 -0.27 -0.04c -0.36 0 -0.69 0.16 -0.99 0.48c -0.19 0.21 -0.41 0.51 -0.66 0.88l -0.42 0.62c 0.16 0.36 0.4 0.72 0.71 1.09c 0.36 0.41 0.8 0.62 1.32 0.62c 0.1 0 0.2 -0.02 0.31 -0.05c 0 0.22 -0.02 0.35 -0.05 0.38c -0.07 0.02 -0.18 0.03 -0.33 0.03c -1.07 0 -1.82 -0.83 -2.22 -1.65Z m -0.77 -0.19l 0.41 -0.62c -0.16 -0.36 -0.4 -0.72 -0.71 -1.09c -0.36 -0.41 -0.8 -0.62 -1.32 -0.62c -0.45 0 -0.8 0.21 -1.05 0.64c -0.21 0.36 -0.32 0.78 -0.32 1.26c 0 0.45 0.11 0.84 0.32 1.19c 0.25 0.4 0.59 0.6 1.01 0.6c 0.37 0 0.7 -0.16 0.99 -0.48c 0.19 -0.21 0.42 -0.51 0.67 -0.88Z "/></symbol><symbol id="g71AD0CC7374456C85E3945751B97D8DE" overflow="visible"><path d="M 0 0m 5.2 6.67c 0 0.11 -0.07 0.16 -0.2 0.16l -1.46 -0.03l -1.31 0.03c -0.15 0.01 -0.23 -0.07 -0.23 -0.24c 0 -0.07 0.03 -0.12 0.09 -0.13c 0.09 -0.01 0.17 -0.02 0.22 -0.02c 0.31 -0.01 0.48 -0.03 0.53 -0.04c 0.05 -0.01 0.08 -0.04 0.08 -0.09c 0 -0.02 -0.01 -0.08 -0.04 -0.18l -1.32 -5.31c -0.06 -0.22 -0.16 -0.35 -0.31 -0.4c -0.06 -0.02 -0.24 -0.03 -0.55 -0.03c -0.21 0 -0.31 -0.08 -0.31 -0.24c 0 -0.1 0.1 -0.15 0.31 -0.15h 4.57c 0.25 0 0.27 0 0.34 0.19l 0.78 2.14c 0.03 0.07 0.04 0.12 0.04 0.15c 0 0.1 -0.05 0.15 -0.16 0.15c -0.1 0 -0.15 -0.09 -0.2 -0.23c -0.19 -0.49 -0.37 -0.86 -0.52 -1.09c -0.37 -0.56 -1 -0.92 -1.92 -0.92h -0.93c -0.11 0 -0.18 0 -0.21 0.01c -0.07 0 -0.1 0.02 -0.1 0.05c 0 0.02 0.02 0.09 0.05 0.22l 1.33 5.34c 0.06 0.23 0.19 0.36 0.38 0.41c 0.06 0.01 0.27 0.02 0.63 0.02c 0.28 0 0.42 0 0.42 0.23Z "/></symbol><symbol id="g9C0042E55FD1BD8A0767C5F489CC0E48" overflow="visible"><path d="M 0 0m 0.833 2.968c 0.224 0 0.392 0.168 0.392 0.392c 0 0.252 -0.133 0.385 -0.392 0.392c 0.154 0.329 0.504 0.595 0.959 0.595c 0.616 0 1.022 -0.462 1.022 -1.078c 0 -0.336 -0.119 -0.658 -0.364 -0.973c -0.119 -0.161 -0.21 -0.273 -0.273 -0.336l -1.659 -1.645c -0.091 -0.084 -0.077 -0.105 -0.077 -0.315h 2.884l 0.217 1.316h -0.294c -0.049 -0.371 -0.105 -0.588 -0.168 -0.637c -0.035 -0.021 -0.252 -0.035 -0.665 -0.035h -1.19c 0.469 0.413 0.903 0.784 1.316 1.113c 0.315 0.245 0.539 0.462 0.679 0.651c 0.21 0.273 0.315 0.56 0.315 0.861c 0 0.434 -0.168 0.777 -0.511 1.029c -0.301 0.231 -0.679 0.35 -1.127 0.35c -0.385 0 -0.714 -0.112 -1.001 -0.336c -0.301 -0.245 -0.455 -0.553 -0.455 -0.931c 0 -0.238 0.175 -0.413 0.392 -0.413Z "/></symbol><symbol id="g9C25E780E6AD3E011190AC1851E58112" overflow="visible"><path d="M 0 0m 1.04 0.95c -0.31 0 -0.53 -0.21 -0.53 -0.49c 0 -0.31 0.26 -0.41 0.44 -0.44c 0.19 -0.02 0.36 -0.08 0.36 -0.31c 0 -0.21 -0.36 -0.67 -0.88 -0.8c 0 -0.1 0.02 -0.17 0.09 -0.24c 0.6 0.11 1.18 0.59 1.18 1.29c 0 0.6 -0.26 0.99 -0.66 0.99Z "/></symbol><symbol id="gEE6BFED97EAD66B608F348D718695C96" overflow="visible"><path d="M 0 0m 0.34 2.57c 0 -1.89 1.09 -2.67 2.06 -2.67c 1.37 0 2.16 1.02 2.16 2.28c 0 1.08 -0.6 2.21 -2.01 2.21c -0.95 0 -1.53 -0.56 -1.75 -1.04l -0.02 0.02c 0.04 0.52 0.2 1.16 0.35 1.42c 0.32 0.55 0.7 0.58 1.62 0.68c 0.9 0.1 1.54 0.39 1.63 1.51c -0.07 0.03 -0.14 0.04 -0.22 0c -0.08 -0.48 -0.61 -0.61 -1.45 -0.74c -0.81 -0.13 -1.49 -0.41 -1.91 -1.2c -0.36 -0.68 -0.46 -1.52 -0.46 -2.47Z m 0.86 -0.26c 0 0.56 0.2 1.73 1.24 1.73c 0.78 0 1.26 -0.9 1.26 -2.1c 0 -1.26 -0.58 -1.69 -1.12 -1.69c -0.73 0 -1.38 0.95 -1.38 2.06Z "/></symbol><symbol id="gEDB46017C788838DEEA77EDE592861E5" overflow="visible"><path d="M 0 0m 2.07 3.07v -1.85c 0 -0.83 -0.11 -0.86 -0.72 -0.91c -0.06 -0.06 -0.06 -0.27 0 -0.33c 0.33 0.01 0.68 0.02 1.12 0.02c 0.41 0 0.63 -0.02 1.04 -0.02c 1.23 0 1.9 0.31 1.9 1.38c 0 0.94 -0.82 1.21 -1.83 1.21h -0.72v 0.49c 0 0.84 0.11 0.87 0.72 0.92c 0.06 0.06 0.06 0.27 0 0.33c -0.34 -0.01 -0.68 -0.02 -1.12 -0.02c -0.8 0 -2.06 0.02 -2.06 0.02c -0.01 -0.58 -0.06 -1.05 -0.13 -1.51c 0.08 -0.03 0.18 -0.06 0.29 -0.05c 0.18 0.82 0.32 1.17 1.09 1.17c 0.23 0 0.42 -0.12 0.42 -0.85Z m 2.48 -1.81c 0 -0.82 -0.5 -0.95 -1.03 -0.95c -0.49 0 -0.66 0.1 -0.66 0.45v 1.48h 0.71c 0.75 0 0.98 -0.45 0.98 -0.98Z "/></symbol><symbol id="g9E0EED1382D7915B68E40A5B177AB6F0" overflow="visible"><path d="M 0 0m 3.86 0.93c -0.37 -0.38 -0.66 -0.54 -1.24 -0.54c -0.36 0 -0.78 0.21 -1.09 0.72c -0.2 0.33 -0.32 0.79 -0.32 1.37l 2.66 -0.02c 0.12 0 0.19 0.06 0.19 0.17c 0 0.84 -0.3 1.74 -1.69 1.74c -0.87 0 -2 -0.83 -2 -2.35c 0 -0.56 0.14 -1.1 0.47 -1.48c 0.34 -0.4 0.81 -0.64 1.53 -0.64c 0.76 0 1.3 0.35 1.7 0.87c -0.03 0.1 -0.09 0.15 -0.21 0.16Z m -2.62 1.89c 0.19 1.13 0.89 1.22 1.13 1.22c 0.38 0 0.83 -0.21 0.83 -1.05c 0 -0.09 -0.04 -0.14 -0.15 -0.14Z m -0.25 2.93c 0 -0.26 0.21 -0.47 0.47 -0.47c 0.26 0 0.47 0.21 0.47 0.47c 0 0.26 -0.21 0.48 -0.47 0.48c -0.26 0 -0.47 -0.22 -0.47 -0.48Z m 1.69 0c 0 -0.26 0.21 -0.47 0.47 -0.47c 0.26 0 0.47 0.21 0.47 0.47c 0 0.26 -0.21 0.48 -0.47 0.48c -0.26 0 -0.47 -0.22 -0.47 -0.48Z "/></symbol><symbol id="g4C5600170187B2FBAE4AB64C2B9CBFAF" overflow="visible"><path d="M 0 0m 1.17 3.06l -0.06 -1.86c -0.03 -0.84 -0.18 -0.86 -0.76 -0.89c -0.06 -0.06 -0.06 -0.27 0 -0.33c 0.2 0.01 0.7 0.02 0.86 0.02c 0.2 0 0.67 -0.01 0.87 -0.02c 0.06 0.06 0.06 0.27 0 0.33c -0.57 0.04 -0.61 0.14 -0.59 0.89l 0.07 2.45c 0 0.09 0.04 0.09 0.08 0l 1.45 -3.54c 0.04 -0.03 0.08 -0.03 0.11 0l 1.64 3.53c 0.05 0.11 0.1 0.12 0.1 0l -0.01 -2.42c 0 -0.83 -0.07 -0.86 -0.68 -0.91c -0.06 -0.06 -0.06 -0.27 0 -0.33c 0.36 0.01 0.73 0.02 1.08 0.02c 0.3 0 0.73 -0.01 1.12 -0.02c 0.06 0.06 0.06 0.27 0 0.33c -0.61 0.04 -0.72 0.08 -0.72 0.91l -0.02 1.85c -0.01 0.83 0.11 0.86 0.72 0.91c 0.06 0.06 0.06 0.27 0 0.33c -0.35 -0.02 -1.32 -0.02 -1.65 -0.02l -1.33 -2.86l -0.05 -0.1l -0.04 0.1l -1.17 2.86c -0.33 0 -1.39 0 -1.74 0.02c -0.06 -0.06 -0.06 -0.27 0 -0.33c 0.61 -0.05 0.75 -0.09 0.72 -0.92Z "/></symbol><symbol id="gEDD91886A3C56BA4A4FF27635933586D" overflow="visible"><path d="M 0 0m 5.94 0.16c 0 -0.11 0.06 -0.16 0.19 -0.16l 1.23 0.03c 0.23 0.01 1.04 -0.03 1.23 -0.03c 0.15 0 0.23 0.08 0.23 0.24c 0 0.1 -0.1 0.15 -0.31 0.15c -0.41 0 -0.61 0.04 -0.61 0.13c 0 0.03 0.02 0.1 0.05 0.23l 1.32 5.27c 0.05 0.21 0.15 0.34 0.28 0.39c 0.06 0.02 0.24 0.03 0.53 0.03c 0.25 0 0.36 0.01 0.36 0.24c 0 0.1 -0.1 0.15 -0.31 0.15h -1.31c -0.29 0 -0.29 -0.02 -0.42 -0.21l -3.56 -5.54l -0.76 5.49c -0.04 0.25 -0.06 0.26 -0.35 0.26h -1.36c -0.22 0 -0.33 -0.01 -0.33 -0.23c 0 -0.11 0.11 -0.16 0.32 -0.16c 0.2 0 0.61 0.03 0.61 -0.13c 0 -0.02 -0.01 -0.08 -0.04 -0.18l -1.26 -5.03c -0.09 -0.38 -0.32 -0.61 -0.67 -0.68c -0.25 -0.03 -0.58 0.01 -0.58 -0.26c 0 -0.11 0.06 -0.16 0.18 -0.16c 0.18 0 0.81 0.03 0.99 0.03c 0.19 0 0.83 -0.03 1.02 -0.03c 0.15 0 0.22 0.08 0.22 0.24c 0 0.09 -0.07 0.14 -0.22 0.15c -0.42 0 -0.63 0.13 -0.63 0.39c 0 0.04 0.01 0.11 0.04 0.22l 1.3 5.21l 0.83 -5.95c 0.03 -0.17 0.09 -0.26 0.19 -0.26c 0.08 0 0.16 0.07 0.25 0.2l 3.89 6.07l -1.36 -5.45c -0.06 -0.22 -0.16 -0.35 -0.31 -0.4c -0.06 -0.02 -0.25 -0.03 -0.56 -0.03c -0.21 0 -0.31 -0.02 -0.31 -0.23Z "/></symbol><symbol id="gE671C321BACDF5664922469AE07CE749" overflow="visible"><path d="M 0 0m 2.471 2.471c 0.469 0.189 0.917 0.602 0.917 1.197c 0 0.315 -0.168 0.567 -0.497 0.749c -0.273 0.154 -0.581 0.231 -0.924 0.231c -0.343 0 -0.644 -0.07 -0.903 -0.217c -0.315 -0.175 -0.476 -0.42 -0.476 -0.735c 0 -0.266 0.133 -0.399 0.392 -0.399c 0.217 0 0.378 0.168 0.378 0.385c 0 0.217 -0.112 0.343 -0.329 0.378c 0.203 0.217 0.504 0.329 0.917 0.329c 0.455 0 0.714 -0.273 0.714 -0.721c 0 -0.329 -0.091 -0.595 -0.266 -0.805c -0.196 -0.231 -0.336 -0.266 -0.742 -0.294c -0.189 -0.014 -0.315 0.007 -0.315 -0.133c 0 -0.084 0.07 -0.126 0.203 -0.126h 0.371c 0.602 0 0.896 -0.455 0.896 -1.085c 0 -0.616 -0.28 -1.085 -0.868 -1.085c -0.511 0 -0.882 0.14 -1.113 0.427c 0.245 0.028 0.371 0.168 0.371 0.413c 0 0.231 -0.175 0.406 -0.406 0.406c -0.273 0 -0.413 -0.14 -0.413 -0.427c 0 -0.357 0.182 -0.644 0.539 -0.847c 0.301 -0.168 0.644 -0.252 1.036 -0.252c 0.427 0 0.798 0.119 1.12 0.357c 0.35 0.259 0.525 0.595 0.525 1.008c 0 0.651 -0.567 1.099 -1.127 1.246Z "/></symbol><symbol id="gFFF6E9B9A983FEBF7FB8DCFB305974E9" overflow="visible"><path d="M 0 0m 1.836 -1.44c 0.144 0.252 0.261 0.504 0.369 0.774c 0.72 1.737 1.125 2.664 1.593 3.672c 0.18 0.378 0.306 0.522 0.729 0.576c 0.054 0.054 0.054 0.243 0 0.297c -0.18 -0.009 -0.387 -0.018 -0.639 -0.018c -0.27 0 -0.549 0.009 -0.819 0.018c -0.054 -0.054 -0.054 -0.243 0 -0.297c 0.288 -0.027 0.576 -0.081 0.432 -0.405l -0.891 -2.061c -0.063 -0.144 -0.144 -0.171 -0.216 0.009l -0.801 1.872c -0.162 0.378 -0.207 0.549 0.297 0.585c 0.054 0.054 0.054 0.243 0 0.297c -0.333 -0.009 -0.693 -0.018 -1.017 -0.018c -0.306 0 -0.549 0.009 -0.729 0.018c -0.054 -0.054 -0.054 -0.243 0 -0.297c 0.36 -0.045 0.477 -0.126 0.711 -0.675l 1.017 -2.367c 0.081 -0.18 0.216 -0.594 0.126 -0.846c -0.108 -0.297 -0.216 -0.549 -0.351 -0.828c -0.099 -0.18 -0.225 -0.261 -0.45 -0.261c -0.126 0 -0.162 0.027 -0.261 0.027c -0.261 0 -0.396 -0.27 -0.396 -0.387c 0 -0.189 0.18 -0.333 0.423 -0.333c 0.189 0 0.549 0.072 0.873 0.648Z "/></symbol><symbol id="gAE9E23F53692F92B7B295E455DF99330" overflow="visible"><path d="M 0 0m 3.474 0c 0 0 0.702 -0.009 0.882 -0.018c 0.054 0.054 0.054 0.243 0 0.297c -0.351 0.018 -0.423 0.09 -0.576 0.378l -0.405 0.765c -0.225 0.423 -0.54 0.639 -1.053 0.639v 0.027c 0.351 0.099 0.504 0.414 0.639 0.774c 0.108 0.279 0.216 0.45 0.405 0.45c 0.081 0 0.153 -0.027 0.207 -0.063c 0.054 -0.036 0.153 -0.063 0.27 -0.063c 0.198 0 0.36 0.171 0.36 0.351c 0 0.198 -0.216 0.405 -0.513 0.405c -0.522 0 -0.765 -0.486 -0.936 -0.909c -0.198 -0.495 -0.441 -0.837 -1.08 -0.837v 0.567c 0 0.747 0.099 0.774 0.558 0.819c 0.054 0.054 0.054 0.243 0 0.297c -0.216 -0.009 -0.558 -0.018 -0.918 -0.018c -0.387 0 -0.702 0.009 -0.999 0.018c -0.054 -0.054 -0.054 -0.243 0 -0.297c 0.549 -0.036 0.648 -0.072 0.648 -0.819v -1.665c 0 -0.747 -0.099 -0.774 -0.648 -0.819c -0.054 -0.054 -0.054 -0.243 0 -0.297c 0.297 0.009 0.612 0.018 1.008 0.018c 0.351 0 0.711 -0.009 0.909 -0.018c 0.054 0.054 0.054 0.243 0 0.297c -0.459 0.036 -0.558 0.072 -0.558 0.819v 0.783c 0.612 -0.036 0.774 -0.279 0.936 -0.612l 0.387 -0.81c 0.117 -0.243 0.297 -0.45 0.477 -0.459Z "/></symbol><symbol id="g4AD90A9068D018AD3CEC8FD5EA9519DC" overflow="visible"><path d="M 0 0m 1.404 3.312c -0.009 0.27 -0.027 0.504 -0.072 0.594c -0.018 0.045 -0.036 0.072 -0.108 0.072c -0.252 -0.099 -0.486 -0.18 -1.107 -0.261c -0.018 -0.054 0 -0.198 0.018 -0.252c 0.486 -0.045 0.585 -0.09 0.585 -0.612v -3.843c 0 -0.747 -0.099 -0.792 -0.648 -0.819c -0.054 -0.054 -0.054 -0.243 0 -0.297c 0.315 0.009 0.648 0.018 1.008 0.018c 0.36 0 0.792 -0.009 1.089 -0.018c 0.054 0.054 0.054 0.243 0 0.297c -0.639 0.036 -0.738 0.072 -0.738 0.819v 0.972c 0 0.117 0.036 0.108 0.126 0.072c 0.225 -0.09 0.495 -0.144 0.783 -0.144c 0.504 0 0.954 0.153 1.323 0.504c 0.423 0.414 0.666 0.972 0.666 1.701c 0 0.954 -0.675 1.836 -1.593 1.836c -0.414 0 -0.873 -0.27 -1.233 -0.675c -0.054 -0.054 -0.09 -0.054 -0.099 0.036Z m 0.171 -0.333c 0.234 0.288 0.648 0.558 0.909 0.558c 0.576 0 1.071 -0.648 1.071 -1.665c 0 -0.738 -0.261 -1.656 -1.269 -1.656c -0.162 0 -0.477 0.045 -0.639 0.189c -0.18 0.162 -0.216 0.216 -0.216 0.54v 1.638c 0 0.189 0.036 0.27 0.144 0.396Z "/></symbol><symbol id="gA5834380700F55B3689219A2CC4667E3" overflow="visible"><path d="M 0 0m 3.933 3.861h -2.556c -0.36 0 -0.702 0.009 -0.972 0.018c -0.054 -0.054 -0.054 -0.243 0 -0.297c 0.495 -0.036 0.612 -0.081 0.612 -0.819v -1.665c 0 -0.738 -0.117 -0.783 -0.702 -0.819c -0.054 -0.054 -0.054 -0.243 0 -0.297c 0.27 0.009 0.702 0.018 1.062 0.018c 0.36 0 0.63 -0.009 0.9 -0.018c 0.054 0.054 0.054 0.243 0 0.297c -0.459 0.045 -0.549 0.081 -0.549 0.819v 1.953c 0 0.279 0.027 0.459 0.378 0.459h 1.089c 0.333 0 0.387 -0.099 0.387 -0.459v -1.953c 0 -0.738 -0.09 -0.783 -0.558 -0.819c -0.045 -0.054 -0.045 -0.243 0 -0.297c 0.225 0.009 0.558 0.018 0.918 0.018c 0.36 0 0.765 -0.009 1.017 -0.018c 0.045 0.054 0.045 0.243 0 0.297c -0.585 0.036 -0.666 0.081 -0.666 0.819v 1.665c 0 0.738 0.117 0.783 0.612 0.819c 0.054 0.054 0.054 0.243 0 0.297c -0.27 -0.009 -0.612 -0.018 -0.972 -0.018Z "/></symbol><symbol id="g5F2B105DCE44482CD07DFE0B4651B637" overflow="visible"><path d="M 0 0m 4.311 2.763c 0 0.747 0.099 0.774 0.648 0.819c 0.054 0.054 0.054 0.243 0 0.297c -0.315 -0.018 -0.711 -0.018 -1.008 -0.018c -0.252 0 -0.612 0.009 -0.963 0.018c -0.054 -0.054 -0.054 -0.243 0 -0.297c 0.549 -0.036 0.612 -0.072 0.612 -0.819v -0.585h -1.926v 0.585c 0 0.747 0.063 0.774 0.612 0.819c 0.054 0.054 0.054 0.243 0 0.297c -0.342 -0.009 -0.684 -0.018 -0.972 -0.018c -0.27 0 -0.639 0.009 -0.999 0.018c -0.054 -0.054 -0.054 -0.243 0 -0.297c 0.549 -0.036 0.648 -0.072 0.648 -0.819v -1.665c 0 -0.747 -0.099 -0.774 -0.648 -0.819c -0.054 -0.054 -0.054 -0.243 0 -0.297c 0.36 0.009 0.72 0.018 1.008 0.018c 0.288 0 0.639 -0.009 0.963 -0.018c 0.054 0.054 0.054 0.243 0 0.297c -0.549 0.036 -0.612 0.072 -0.612 0.819v 0.783h 1.926v -0.783c 0 -0.747 -0.063 -0.774 -0.612 -0.819c -0.054 -0.054 -0.054 -0.243 0 -0.297c 0.324 0.009 0.657 0.018 0.972 0.018c 0.27 0 0.648 -0.009 0.999 -0.018c 0.054 0.054 0.054 0.243 0 0.297c -0.549 0.036 -0.648 0.072 -0.648 0.819Z "/></symbol><symbol id="g7253BD4F4A12C91ABC7B03558525FA66" overflow="visible"><path d="M 0 0m 0.369 1.845c 0 -0.918 0.612 -1.935 1.89 -1.935c 0.576 0 1.017 0.207 1.323 0.504c 0.405 0.396 0.585 0.963 0.585 1.512c 0 0.936 -0.513 2.025 -1.89 2.025c -0.594 0 -1.08 -0.243 -1.413 -0.63c -0.324 -0.387 -0.495 -0.909 -0.495 -1.476Z m 1.773 1.791c 0.774 0 1.251 -0.702 1.251 -1.998c 0 -1.134 -0.585 -1.413 -1.008 -1.413c -0.936 0 -1.242 1.134 -1.242 1.827c 0 0.783 0.189 1.584 0.999 1.584Z "/></symbol><symbol id="g4AE5337A4A3FF09E9A9AF89B4B83FC9D" overflow="visible"><path d="M 0 0m 1.674 2.763c 0 0.513 0.063 0.747 0.378 0.747h 0.198c 0.738 0 0.954 -0.513 1.08 -1.035c 0.099 -0.009 0.189 0 0.261 0.036c -0.036 0.477 -0.063 0.873 -0.117 1.35l -0.018 0.018c 0 0 -0.72 -0.018 -1.008 -0.018h -1.134c -0.387 0 -0.702 0.009 -0.999 0.018c -0.054 -0.054 -0.054 -0.243 0 -0.297c 0.549 -0.036 0.648 -0.072 0.648 -0.819v -1.665c 0 -0.747 -0.099 -0.774 -0.648 -0.819c -0.054 -0.054 -0.054 -0.243 0 -0.297c 0.297 0.009 0.612 0.018 1.008 0.018c 0.387 0 0.711 -0.009 0.999 -0.018c 0.054 0.054 0.054 0.243 0 0.297c -0.549 0.036 -0.648 0.072 -0.648 0.819Z "/></symbol><symbol id="g611C332DF318E3AAFADBD04F1094DD79" overflow="visible"><path d="M 0 0m 1.638 1.098c 0 -0.747 -0.099 -0.792 -0.648 -0.819c -0.054 -0.054 -0.054 -0.243 0 -0.297c 0.351 0.009 0.711 0.018 1.008 0.018c 0.306 0 0.657 -0.009 0.999 -0.018c 0.054 0.054 0.054 0.243 0 0.297c -0.549 0.027 -0.648 0.072 -0.648 0.819v 2.43h 0.153c 0.729 0 0.873 -0.252 1.026 -0.981c 0.117 0 0.234 0.036 0.234 0.036c -0.054 0.414 -0.09 0.81 -0.099 1.332c -0.207 -0.018 -0.882 -0.054 -1.332 -0.054h -0.675c -0.45 0 -0.954 0.027 -1.314 0.054c -0.009 -0.522 -0.045 -0.918 -0.108 -1.332c 0 0 0.126 -0.036 0.243 -0.036c 0.153 0.729 0.288 0.981 1.026 0.981h 0.135Z "/></symbol><symbol id="gD351E21AD091924D522A6D2D6355C932" overflow="visible"><path d="M 0 0m 3.474 0.837c -0.333 -0.342 -0.594 -0.486 -1.116 -0.486c -0.324 0 -0.702 0.189 -0.981 0.648c -0.18 0.297 -0.288 0.711 -0.288 1.233l 2.394 -0.018c 0.108 0 0.171 0.054 0.171 0.153c 0 0.756 -0.27 1.566 -1.521 1.566c -0.783 0 -1.8 -0.747 -1.8 -2.115c 0 -0.504 0.126 -0.99 0.423 -1.332c 0.306 -0.36 0.729 -0.576 1.377 -0.576c 0.684 0 1.17 0.315 1.53 0.783c -0.027 0.09 -0.081 0.135 -0.189 0.144Z m -2.358 1.701c 0.171 1.017 0.801 1.098 1.017 1.098c 0.342 0 0.747 -0.189 0.747 -0.945c 0 -0.081 -0.036 -0.126 -0.135 -0.126Z "/></symbol><symbol id="gB118266EF18AECCCCEF724ECE6F3D1D3" overflow="visible"><path d="M 0 0m 3.762 1.098v 1.665c 0 0.738 0.117 0.783 0.612 0.819c 0.054 0.054 0.054 0.243 0 0.297c -0.27 -0.009 -0.612 -0.018 -0.972 -0.018h -1.701c -0.297 0 -0.648 0.009 -0.918 0.018c -0.054 -0.054 -0.054 -0.243 0 -0.297c 0.639 -0.045 0.729 -0.099 0.729 -1.071c 0 -0.945 -0.072 -1.44 -0.198 -1.809c -0.117 -0.324 -0.27 -0.441 -0.423 -0.441c -0.117 0 -0.153 0.072 -0.171 0.189c -0.027 0.171 -0.081 0.342 -0.333 0.342c -0.225 0 -0.351 -0.18 -0.351 -0.378c 0 -0.279 0.252 -0.522 0.666 -0.522c 0.459 0 0.711 0.234 0.918 0.72c 0.18 0.432 0.234 1.35 0.234 1.962c 0 0.702 0.027 0.936 0.387 0.936h 0.405c 0.342 0 0.405 -0.216 0.405 -0.522v -1.89c 0 -0.738 -0.09 -0.783 -0.558 -0.819c -0.045 -0.054 -0.045 -0.243 0 -0.297c 0.225 0.009 0.558 0.018 0.918 0.018c 0.36 0 0.765 -0.009 1.017 -0.018c 0.045 0.054 0.045 0.243 0 0.297c -0.585 0.036 -0.666 0.081 -0.666 0.819Z "/></symbol><symbol id="gF7AD5B3248F8366898BA115B8D318C4E" overflow="visible"><path d="M 0 0m 2.637 0.432c 0.054 -0.279 0.153 -0.522 0.603 -0.522c 0.342 0 0.666 0.153 0.855 0.333c -0.018 0.108 -0.054 0.189 -0.153 0.243c -0.063 -0.054 -0.216 -0.144 -0.333 -0.144c -0.261 0 -0.27 0.351 -0.27 0.765v 1.323c 0 1.278 -0.702 1.521 -1.359 1.521c -0.738 0 -1.485 -0.486 -1.485 -0.999c 0 -0.216 0.108 -0.324 0.315 -0.324c 0.261 0 0.423 0.189 0.423 0.306c 0 0.063 -0.009 0.126 -0.027 0.162c -0.009 0.027 -0.018 0.081 -0.018 0.18c 0 0.279 0.378 0.378 0.72 0.378c 0.306 0 0.729 -0.153 0.729 -1.17c 0 -0.063 -0.027 -0.099 -0.054 -0.108l -0.774 -0.189c -0.864 -0.216 -1.485 -0.693 -1.485 -1.305c 0 -0.738 0.504 -0.972 1.134 -0.972c 0.315 0 0.585 0.072 0.981 0.378l 0.18 0.144Z m 0 1.665v -1.188c 0 -0.117 -0.054 -0.18 -0.126 -0.234c -0.234 -0.189 -0.54 -0.396 -0.792 -0.396c -0.45 0 -0.648 0.36 -0.648 0.639c 0 0.405 0.189 0.819 0.855 0.99Z "/></symbol><symbol id="g6F3F83F8220F4B0FE27ED35A349BC8A6" overflow="visible"><path d="M 0 0m 1.314 3.861c -0.387 0 -0.702 0.009 -0.999 0.018c -0.054 -0.054 -0.054 -0.243 0 -0.297c 0.549 -0.036 0.648 -0.072 0.648 -0.819v -1.665c 0 -0.747 -0.099 -0.774 -0.648 -0.819c -0.054 -0.054 -0.054 -0.243 0 -0.297c 0.297 0.009 0.612 0.018 1.008 0.018c 0.333 0 0.63 -0.018 1.233 -0.018c 0.774 0 1.359 0.216 1.359 1.107c 0 0.504 -0.315 0.855 -0.864 0.954v 0.027c 0.414 0.081 0.729 0.369 0.729 0.909c 0 0.63 -0.387 0.9 -1.476 0.9c -0.369 0 -0.603 -0.018 -0.99 -0.018Z m 0.36 -1.908h 0.684c 0.549 0 0.783 -0.36 0.783 -0.9c 0 -0.603 -0.342 -0.774 -0.828 -0.774c -0.468 0 -0.639 0.081 -0.639 0.495Z m 0 0.261v 1.044c 0 0.27 0.207 0.324 0.639 0.324c 0.468 0 0.747 -0.126 0.747 -0.666c 0 -0.36 -0.234 -0.702 -0.792 -0.702Z "/></symbol><symbol id="g92B0517FEDA546B52C117B2B2515B55D" overflow="visible"><path d="M 0 0m 1.638 3.222c -0.207 0.306 -0.144 0.315 0.261 0.36c 0.054 0.054 0.054 0.243 0 0.297c -0.243 -0.009 -0.639 -0.018 -0.909 -0.018c -0.27 0 -0.54 0.009 -0.774 0.018c -0.054 -0.054 -0.054 -0.243 0 -0.297c 0.306 -0.027 0.558 -0.18 0.81 -0.549l 0.783 -1.143c 0.045 -0.063 0.045 -0.09 0.009 -0.135l -0.756 -0.972c -0.36 -0.459 -0.558 -0.486 -0.873 -0.504c -0.054 -0.054 -0.054 -0.243 0 -0.297c 0.18 0.009 0.378 0.018 0.648 0.018c 0.27 0 0.522 -0.009 0.756 -0.018c 0.054 0.054 0.054 0.243 0 0.297c -0.324 0.036 -0.396 0.072 -0.198 0.36l 0.567 0.819c 0.072 0.108 0.108 0.099 0.162 0.018l 0.522 -0.72c 0.315 -0.432 0.171 -0.45 -0.117 -0.477c -0.054 -0.054 -0.054 -0.243 0 -0.297c 0.27 0.009 0.567 0.018 0.891 0.018c 0.342 0 0.585 -0.009 0.801 -0.018c 0.054 0.054 0.054 0.243 0 0.297c -0.405 0.027 -0.54 0.054 -0.9 0.567l -0.81 1.143c -0.036 0.054 -0.045 0.081 0 0.135l 0.756 0.963c 0.333 0.423 0.549 0.468 0.873 0.495c 0.054 0.054 0.054 0.243 0 0.297c -0.18 -0.009 -0.387 -0.018 -0.657 -0.018c -0.27 0 -0.522 0.009 -0.756 0.018c -0.054 -0.054 -0.054 -0.243 0 -0.297c 0.333 -0.036 0.432 -0.063 0.216 -0.369l -0.585 -0.819c -0.063 -0.09 -0.099 -0.081 -0.171 0.018Z "/></symbol><symbol id="g7815E2C79248546AAEE49EC7F57ADD4E" overflow="visible"><path d="M 0 0m 3.582 0.819c -0.036 0.081 -0.108 0.117 -0.189 0.126c -0.306 -0.396 -0.693 -0.594 -1.08 -0.594c -0.657 0 -1.206 0.666 -1.206 1.719c 0 0.99 0.432 1.584 1.026 1.584c 0.531 0 0.603 -0.315 0.639 -0.63c 0.027 -0.243 0.153 -0.324 0.342 -0.324c 0.189 0 0.441 0.117 0.441 0.396c 0 0.495 -0.513 0.855 -1.377 0.855c -0.891 0 -1.845 -0.801 -1.845 -2.079c 0 -1.161 0.648 -1.962 1.782 -1.962c 0.54 0 1.017 0.171 1.467 0.909Z "/></symbol><symbol id="g6EA5A1981697E2B5E95285C58F7F7AD0" overflow="visible"><path d="M 0 0m 1.782 0.567c -0.027 0 -0.063 0.018 -0.063 0.108v 2.052c 0 0.747 0.189 0.828 0.648 0.855c 0.054 0.054 0.054 0.243 0 0.297c -0.207 -0.009 -0.72 -0.018 -1.053 -0.018c -0.297 0 -0.657 0.009 -0.999 0.018c -0.054 -0.054 -0.054 -0.243 0 -0.297c 0.549 -0.027 0.693 -0.108 0.693 -0.855v -1.593c 0 -0.747 -0.144 -0.828 -0.693 -0.855c -0.054 -0.054 -0.054 -0.243 0 -0.297c 0.351 0.009 0.711 0.018 0.999 0.018c 0.207 0 0.45 -0.009 0.549 -0.018c 0.045 0.126 0.126 0.306 0.225 0.486l 1.404 2.817c 0.027 0 0.063 -0.018 0.063 -0.108v -2.043c 0 -0.747 -0.189 -0.828 -0.648 -0.855c -0.054 -0.054 -0.054 -0.243 0 -0.297c 0.207 0.009 0.693 0.018 1.053 0.018c 0.279 0 0.648 -0.009 0.999 -0.018c 0.054 0.054 0.054 0.243 0 0.297c -0.549 0.027 -0.693 0.108 -0.693 0.855v 1.593c 0 0.747 0.144 0.828 0.693 0.855c 0.054 0.054 0.054 0.243 0 0.297c -0.36 -0.009 -0.72 -0.018 -0.999 -0.018c -0.198 0 -0.45 0.009 -0.54 0.018c -0.072 -0.162 -0.153 -0.351 -0.234 -0.504Z "/></symbol><symbol id="gBA3E9C2E61A84E296B252679103E17C4" overflow="visible"><path d="M 0 0m 1.701 3.861c -0.297 0 -0.648 0.009 -0.918 0.018c -0.054 -0.054 -0.054 -0.243 0 -0.297c 0.549 -0.045 0.711 -0.081 0.675 -0.828c -0.036 -0.828 -0.18 -1.494 -0.333 -2.124c -0.054 -0.243 -0.315 -0.324 -0.567 -0.351c -0.135 -0.018 -0.261 -0.072 -0.27 -0.234l -0.054 -1.197c 0.063 -0.027 0.135 -0.036 0.243 -0.009c 0.081 0.333 0.324 1.161 1.134 1.161h 1.557c 0.801 0 1.062 -0.81 1.143 -1.17c 0.081 -0.018 0.162 -0.018 0.252 0.018l -0.054 1.206c 0 0.126 -0.072 0.198 -0.243 0.225c -0.162 0.027 -0.387 0.09 -0.387 0.423v 2.061c 0 0.738 0.117 0.783 0.612 0.819c 0.054 0.054 0.054 0.243 0 0.297c -0.27 -0.009 -0.612 -0.018 -0.972 -0.018Z m -0.252 -3.402c 0 0.153 0.243 0.747 0.378 2.808c 0.009 0.135 0.072 0.252 0.315 0.252h 0.621c 0.36 0 0.405 -0.252 0.405 -0.558v -2.169c 0 -0.297 -0.018 -0.441 -0.378 -0.441h -1.161c -0.099 0 -0.18 0.009 -0.18 0.108Z "/></symbol><symbol id="gBDFD935577E92FE00C1DBA4B22F07372" overflow="visible"><path d="M 0 0m 2.025 0.351c -0.333 0 -0.387 0.099 -0.387 0.459v 1.953c 0 0.738 0.09 0.783 0.558 0.819c 0.045 0.054 0.045 0.243 0 0.297c -0.225 -0.009 -0.558 -0.018 -0.918 -0.018c -0.36 0 -0.675 0.009 -0.927 0.018c -0.045 -0.054 -0.045 -0.243 0 -0.297c 0.495 -0.036 0.576 -0.081 0.576 -0.819v -1.665c 0 -0.738 -0.117 -0.783 -0.612 -0.819c -0.054 -0.054 -0.054 -0.243 0 -0.297c 0.27 0.009 0.612 0.018 0.972 0.018h 2.268c 0.756 0 1.017 -0.72 1.134 -1.161c 0.081 -0.018 0.162 -0.018 0.234 0.009l -0.054 1.197c -0.009 0.162 -0.144 0.207 -0.27 0.234c -0.207 0.045 -0.351 0.099 -0.351 0.819v 1.665c 0 0.738 0.117 0.783 0.612 0.819c 0.054 0.054 0.054 0.243 0 0.297c -0.27 -0.009 -0.612 -0.018 -0.972 -0.018c -0.36 0 -0.63 0.009 -0.9 0.018c -0.054 -0.054 -0.054 -0.243 0 -0.297c 0.459 -0.045 0.549 -0.081 0.549 -0.819v -1.953c 0 -0.279 -0.027 -0.459 -0.378 -0.459Z "/></symbol><symbol id="g9C9C9262F30302871979B086E3504457" overflow="visible"><path d="M 0 0m 0.306 2.313c 0 -1.701 0.981 -2.403 1.854 -2.403c 1.233 0 1.944 0.918 1.944 2.052c 0 0.972 -0.54 1.989 -1.809 1.989c -0.855 0 -1.377 -0.504 -1.575 -0.936l -0.018 0.018c 0.036 0.468 0.18 1.044 0.315 1.278c 0.288 0.495 0.63 0.522 1.458 0.612c 0.81 0.09 1.386 0.351 1.467 1.359c -0.063 0.027 -0.126 0.036 -0.198 0c -0.072 -0.432 -0.549 -0.549 -1.305 -0.666c -0.729 -0.117 -1.341 -0.369 -1.719 -1.08c -0.324 -0.612 -0.414 -1.368 -0.414 -2.223Z m 0.774 -0.234c 0 0.504 0.18 1.557 1.116 1.557c 0.702 0 1.134 -0.81 1.134 -1.89c 0 -1.134 -0.522 -1.521 -1.008 -1.521c -0.657 0 -1.242 0.855 -1.242 1.854Z "/></symbol><symbol id="gC0247148C001F429D117366C771435D1" overflow="visible"><path d="M 0 0m 1.863 2.763v -1.665c 0 -0.747 -0.099 -0.774 -0.648 -0.819c -0.054 -0.054 -0.054 -0.243 0 -0.297c 0.297 0.009 0.612 0.018 1.008 0.018c 0.369 0 0.567 -0.018 0.936 -0.018c 1.107 0 1.71 0.279 1.71 1.242c 0 0.846 -0.738 1.089 -1.647 1.089h -0.648v 0.441c 0 0.756 0.099 0.783 0.648 0.828c 0.054 0.054 0.054 0.243 0 0.297c -0.306 -0.009 -0.612 -0.018 -1.008 -0.018c -0.72 0 -1.854 0.018 -1.854 0.018c -0.009 -0.522 -0.054 -0.945 -0.117 -1.359c 0.072 -0.027 0.162 -0.054 0.261 -0.045c 0.162 0.738 0.288 1.053 0.981 1.053c 0.207 0 0.378 -0.108 0.378 -0.765Z m 2.232 -1.629c 0 -0.738 -0.45 -0.855 -0.927 -0.855c -0.441 0 -0.594 0.09 -0.594 0.405v 1.332h 0.639c 0.675 0 0.882 -0.405 0.882 -0.882Z "/></symbol><symbol id="g99E666F374C663336A4AF6A2BEDCF993" overflow="visible"><path d="M 0 0m 3.474 0.837c -0.333 -0.342 -0.594 -0.486 -1.116 -0.486c -0.324 0 -0.702 0.189 -0.981 0.648c -0.18 0.297 -0.288 0.711 -0.288 1.233l 2.394 -0.018c 0.108 0 0.171 0.054 0.171 0.153c 0 0.756 -0.27 1.566 -1.521 1.566c -0.783 0 -1.8 -0.747 -1.8 -2.115c 0 -0.504 0.126 -0.99 0.423 -1.332c 0.306 -0.36 0.729 -0.576 1.377 -0.576c 0.684 0 1.17 0.315 1.53 0.783c -0.027 0.09 -0.081 0.135 -0.189 0.144Z m -2.358 1.701c 0.171 1.017 0.801 1.098 1.017 1.098c 0.342 0 0.747 -0.189 0.747 -0.945c 0 -0.081 -0.036 -0.126 -0.135 -0.126Z m -0.225 2.637c 0 -0.234 0.189 -0.423 0.423 -0.423c 0.234 0 0.423 0.189 0.423 0.423c 0 0.234 -0.189 0.432 -0.423 0.432c -0.234 0 -0.423 -0.198 -0.423 -0.432Z m 1.521 0c 0 -0.234 0.189 -0.423 0.423 -0.423c 0.234 0 0.423 0.189 0.423 0.423c 0 0.234 -0.189 0.432 -0.423 0.432c -0.234 0 -0.423 -0.198 -0.423 -0.432Z "/></symbol><symbol id="g82C799C01D06EF19E125C6F4348D75CA" overflow="visible"><path d="M 0 0m 1.053 2.754l -0.054 -1.674c -0.027 -0.756 -0.162 -0.774 -0.684 -0.801c -0.054 -0.054 -0.054 -0.243 0 -0.297c 0.18 0.009 0.63 0.018 0.774 0.018c 0.18 0 0.603 -0.009 0.783 -0.018c 0.054 0.054 0.054 0.243 0 0.297c -0.513 0.036 -0.549 0.126 -0.531 0.801l 0.063 2.205c 0 0.081 0.036 0.081 0.072 0l 1.305 -3.186c 0.036 -0.027 0.072 -0.027 0.099 0l 1.476 3.177c 0.045 0.099 0.09 0.108 0.09 0l -0.009 -2.178c 0 -0.747 -0.063 -0.774 -0.612 -0.819c -0.054 -0.054 -0.054 -0.243 0 -0.297c 0.324 0.009 0.657 0.018 0.972 0.018c 0.27 0 0.657 -0.009 1.008 -0.018c 0.054 0.054 0.054 0.243 0 0.297c -0.549 0.036 -0.648 0.072 -0.648 0.819l -0.018 1.665c -0.009 0.747 0.099 0.774 0.648 0.819c 0.054 0.054 0.054 0.243 0 0.297c -0.315 -0.018 -1.188 -0.018 -1.485 -0.018l -1.197 -2.574l -0.045 -0.09l -0.036 0.09l -1.053 2.574c -0.297 0 -1.251 0 -1.566 0.018c -0.054 -0.054 -0.054 -0.243 0 -0.297c 0.549 -0.045 0.675 -0.081 0.648 -0.828Z "/></symbol><symbol id="g1F6C67A5839963BD6478B8393FDBF84B" overflow="visible"><path d="M 0 0m 1.674 2.754c 0 0.756 0.099 0.783 0.648 0.828c 0.054 0.054 0.054 0.243 0 0.297c -0.306 -0.009 -0.612 -0.018 -1.008 -0.018c -0.387 0 -0.702 0.009 -0.999 0.018c -0.054 -0.054 -0.054 -0.243 0 -0.297c 0.549 -0.036 0.648 -0.072 0.648 -0.819v -1.665c 0 -0.747 -0.099 -0.774 -0.648 -0.819c -0.054 -0.054 -0.054 -0.243 0 -0.297c 0.297 0.009 0.612 0.018 1.008 0.018c 0.369 0 0.567 -0.018 0.936 -0.018c 1.107 0 1.71 0.279 1.71 1.242c 0 0.846 -0.738 1.089 -1.647 1.089h -0.648Z m 1.521 -1.62c 0 -0.738 -0.45 -0.855 -0.927 -0.855c -0.441 0 -0.594 0.09 -0.594 0.405v 1.332h 0.639c 0.675 0 0.882 -0.405 0.882 -0.882Z "/></symbol><symbol id="g785243DD0DBD5D3E5E793E04FC62E83F" overflow="visible"><path d="M 0 0m 6.714 1.098v 1.665c 0 0.738 0.117 0.783 0.612 0.819c 0.054 0.054 0.054 0.243 0 0.297c -0.27 -0.009 -0.612 -0.018 -0.972 -0.018c -0.36 0 -0.63 0.009 -0.9 0.018c -0.054 -0.054 -0.054 -0.243 0 -0.297c 0.459 -0.045 0.549 -0.081 0.549 -0.819v -1.953c 0 -0.279 -0.027 -0.459 -0.378 -0.459h -1.062c -0.27 0 -0.387 0.081 -0.387 0.459v 1.953c 0.009 0.738 0.072 0.783 0.558 0.819c 0.045 0.054 0.045 0.243 0 0.297c -0.225 -0.009 -0.558 -0.018 -0.918 -0.018c -0.36 0 -0.657 0.009 -0.882 0.018c -0.045 -0.054 -0.045 -0.243 0 -0.297c 0.45 -0.036 0.54 -0.081 0.531 -0.819v -1.962c 0 -0.333 -0.045 -0.45 -0.378 -0.45h -1.026c -0.333 0 -0.387 0.099 -0.387 0.459v 1.953c 0 0.738 0.09 0.783 0.558 0.819c 0.045 0.054 0.045 0.243 0 0.297c -0.225 -0.009 -0.558 -0.018 -0.918 -0.018c -0.36 0 -0.675 0.009 -0.927 0.018c -0.045 -0.054 -0.045 -0.243 0 -0.297c 0.495 -0.036 0.576 -0.081 0.576 -0.819v -1.665c 0 -0.738 -0.117 -0.783 -0.612 -0.819c -0.054 -0.054 -0.054 -0.243 0 -0.297c 0.27 0.009 0.612 0.018 0.972 0.018h 5.031c 0.36 0 0.702 -0.009 0.972 -0.018c 0.054 0.054 0.054 0.243 0 0.297c -0.495 0.036 -0.612 0.081 -0.612 0.819Z "/></symbol></defs></svg>