<svg viewBox="0 0 176.866141732 168.562913386" width="176.866141732pt" height="168.562913386pt" xmlns="http://www.w3.org/2000/svg" xmlns:xlink="http://www.w3.org/1999/xlink" xmlns:h5="http://www.w3.org/1999/xhtml"><path fill="#ffffff" fill-rule="nonzero" d="M 0 0v 168.562913386h 176.866141732v -168.562913386Z "/><g transform="translate(8 8)"><path fill="none" stroke="#1a1a18" stroke-width="0.6" stroke-linecap="butt" stroke-linejoin="miter" stroke-miterlimit="4" transform="translate(2.125984252 118.024311024)" d="M 0 0h 152.216465767"/><path fill="#1a1a18" fill-rule="nonzero" stroke="#1a1a18" stroke-width="0.6" stroke-linecap="butt" stroke-linejoin="miter" stroke-miterlimit="4" transform="translate(154.342449921 115.898326772)" d="M 0 0m 5.669291339 2.125984252l -5.669291339 2.125984252v -4.251968504l 5.669291339 2.125984252Z "/><path fill="none" stroke="#1a1a18" stroke-width="0.6" stroke-linecap="butt" stroke-linejoin="miter" stroke-miterlimit="4" transform="translate(2.125984252 16.831467304)" d="M 0 0m 0 101.19284372v -101.19284372"/><path fill="#1a1a18" fill-rule="nonzero" stroke="#1a1a18" stroke-width="0.6" stroke-linecap="butt" stroke-linejoin="miter" stroke-miterlimit="4" transform="translate(0 11.162176063)" d="M 0 0m 2.125984252 0l 2.125984252 5.669291339h -4.251968504l 2.125984252 -5.669291339Z "/><path fill="none" transform="translate(108.552141732 123.094677165)" d="M 0 0h 52.314v 8.001h -52.314v -8.001Z "/><g transform="translate(108.552141685 123.094677024)"><g transform="matrix(1 0 0 -1 0 6.147)"><use xlink:href="#g7C9B427924E33B4C86D3C0B52A9CC338" x="0" y="0" fill="#7c7f6a" fill-rule="nonzero"/><use xlink:href="#g24B00CEE24AD49BA8CCC5A5E72931BA6" x="2.502" y="0" fill="#7c7f6a" fill-rule="nonzero"/><use xlink:href="#g256A04A75978FCADC8C3E797864131CD" x="7.002" y="0" fill="#7c7f6a" fill-rule="nonzero"/></g><g transform="matrix(1 0 0 -1 13.002 6.147)"><use xlink:href="#g15909FB4B96B34CEDD4F94D3DB2FAA76" x="0" y="0" fill="#7c7f6a" fill-rule="nonzero"/></g><g transform="matrix(1 0 0 -1 22.65 6.147)"><use xlink:href="#g47516AA720979696FAFCA8A7B93ACEFC" x="2.25" y="0" fill="#7c7f6a" fill-rule="nonzero"/><use xlink:href="#g82C799C01D06EF19E125C6F4348D75CA" x="4.932" y="0" fill="#7c7f6a" fill-rule="nonzero"/><use xlink:href="#gF7AD5B3248F8366898BA115B8D318C4E" x="11.052" y="0" fill="#7c7f6a" fill-rule="nonzero"/><use xlink:href="#g7815E2C79248546AAEE49EC7F57ADD4E" x="15.165" y="0" fill="#7c7f6a" fill-rule="nonzero"/><use xlink:href="#g7815E2C79248546AAEE49EC7F57ADD4E" x="19.017" y="0" fill="#7c7f6a" fill-rule="nonzero"/><use xlink:href="#gF7AD5B3248F8366898BA115B8D318C4E" x="22.869" y="0" fill="#7c7f6a" fill-rule="nonzero"/><use xlink:href="#gFB58F9CAD08F4D0DFA3961AF05C28A35" x="26.982" y="0" fill="#7c7f6a" fill-rule="nonzero"/></g></g><path fill="none" transform="translate(6.377952756 6.307275591)" d="M 0 0h 52.026v 8.001h -52.026v -8.001Z "/><g transform="translate(6.377952709 6.307275449)"><g transform="matrix(1 0 0 -1 0 6.147)"><use xlink:href="#g7C9B427924E33B4C86D3C0B52A9CC338" x="0" y="0" fill="#7c7f6a" fill-rule="nonzero"/><use xlink:href="#g24B00CEE24AD49BA8CCC5A5E72931BA6" x="2.502" y="0" fill="#7c7f6a" fill-rule="nonzero"/><use xlink:href="#g256A04A75978FCADC8C3E797864131CD" x="7.002" y="0" fill="#7c7f6a" fill-rule="nonzero"/></g><g transform="matrix(1 0 0 -1 13.002 6.147)"><use xlink:href="#gBD6B21B15D5D492E1F0A9C7BC1123554" x="0" y="0" fill="#7c7f6a" fill-rule="nonzero"/></g><g transform="matrix(1 0 0 -1 20.058 6.147)"><use xlink:href="#g47516AA720979696FAFCA8A7B93ACEFC" x="2.25" y="0" fill="#7c7f6a" fill-rule="nonzero"/><use xlink:href="#g7253BD4F4A12C91ABC7B03558525FA66" x="4.932" y="0" fill="#7c7f6a" fill-rule="nonzero"/><use xlink:href="#g9C9C9262F30302871979B086E3504457" x="9.468" y="0" fill="#7c7f6a" fill-rule="nonzero"/><use xlink:href="#g82C799C01D06EF19E125C6F4348D75CA" x="13.869" y="0" fill="#7c7f6a" fill-rule="nonzero"/><use xlink:href="#gD351E21AD091924D522A6D2D6355C932" x="19.989" y="0" fill="#7c7f6a" fill-rule="nonzero"/><use xlink:href="#g5F2B105DCE44482CD07DFE0B4651B637" x="24.012" y="0" fill="#7c7f6a" fill-rule="nonzero"/><use xlink:href="#gFB58F9CAD08F4D0DFA3961AF05C28A35" x="29.286" y="0" fill="#7c7f6a" fill-rule="nonzero"/></g></g><path fill="none" stroke="#7c7f6a" stroke-width="1.4" stroke-linecap="butt" stroke-linejoin="miter" stroke-miterlimit="4" transform="translate(13.464566929 25.189665354)" d="M 0 0m 0 78.661417323l 136.062992126 -78.661417323"/><path fill="#1a1a18" fill-rule="nonzero" transform="translate(19.417322835 94.921948819)" d="M 0 0m 2.551181102 0c -1.407700913 0 -2.551181102 1.143480189 -2.551181102 2.551181102c 0 1.407700913 1.143480189 2.551181102 2.551181102 2.551181102c 1.407700913 0 2.551181102 -1.143480189 2.551181102 -2.551181102c 0 -1.407700913 -1.143480189 -2.551181102 -2.551181102 -2.551181102Z "/><path fill="none" transform="translate(11.776003937 85.076870079)" d="M 0 0h 20.385v 4.95h -20.385v -4.95Z "/><g transform="translate(11.776003937 85.076870079)"><g transform="matrix(1 0 0 -1 0 4.935)"><use xlink:href="#g9FFCC18D170BB6C28C600E5B5ACB7B09" x="0" y="0" fill="#1a1a18" fill-rule="nonzero"/><use xlink:href="#gE9DD31ED97DC901ABB725871441019F4" x="5.1" y="0" fill="#1a1a18" fill-rule="nonzero"/><use xlink:href="#g34F684D2788A1EFD489841EBF0BF1F0C" x="10.53" y="0" fill="#1a1a18" fill-rule="nonzero"/><use xlink:href="#g401226A6362CD80CF6074807A052A046" x="16.8975" y="0" fill="#1a1a18" fill-rule="nonzero"/></g></g><path fill="#1a1a18" fill-rule="nonzero" transform="translate(56.267716535 67.284153543)" d="M 0 0m 2.551181102 0c -1.407700913 0 -2.551181102 1.143480189 -2.551181102 2.551181102c 0 1.407700913 1.143480189 2.551181102 2.551181102 2.551181102c 1.407700913 0 2.551181102 -1.143480189 2.551181102 -2.551181102c 0 -1.407700913 -1.143480189 -2.551181102 -2.551181102 -2.551181102Z "/><path fill="none" transform="translate(48.266397638 57.409074803)" d="M 0 0h 21.105v 5.01h -21.105v -5.01Z "/><g transform="translate(48.266397638 57.409074756)"><g transform="matrix(1 0 0 -1 0 4.935)"><use xlink:href="#g7B6E1CB6926B0D89434DDB00C857E76D" x="0" y="0" fill="#1a1a18" fill-rule="nonzero"/><use xlink:href="#g9DFB8CAEC5B458B41F3893F12F8EC954" x="3.765" y="0" fill="#1a1a18" fill-rule="nonzero"/><use xlink:href="#g34F684D2788A1EFD489841EBF0BF1F0C" x="7.545" y="0" fill="#1a1a18" fill-rule="nonzero"/><use xlink:href="#g7B6E1CB6926B0D89434DDB00C857E76D" x="13.9125" y="0" fill="#1a1a18" fill-rule="nonzero"/><use xlink:href="#gFF794F08E96A5B8C53E798F025ED07F6" x="17.6775" y="0" fill="#1a1a18" fill-rule="nonzero"/></g></g><path fill="#1a1a18" fill-rule="nonzero" transform="translate(93.118110236 39.646358268)" d="M 0 0m 2.551181102 0c -1.407700913 0 -2.551181102 1.143480189 -2.551181102 2.551181102c 0 1.407700913 1.143480189 2.551181102 2.551181102 2.551181102c 1.407700913 0 2.551181102 -1.143480189 2.551181102 -2.551181102c 0 -1.407700913 -1.143480189 -2.551181102 -2.551181102 -2.551181102Z "/><path fill="none" transform="translate(82.750541339 29.763779528)" d="M 0 0h 25.8375v 5.025h -25.8375v -5.025Z "/><g transform="translate(82.750541244 29.763779433)"><g transform="matrix(1 0 0 -1 0 4.935)"><use xlink:href="#g88DF289CB0ABE82F4BDD978B7C9B130C" x="0" y="0" fill="#1a1a18" fill-rule="nonzero"/><use xlink:href="#g3036A15D0A2AECE5F3220ADA73EBBEB6" x="4.0425" y="0" fill="#1a1a18" fill-rule="nonzero"/><use xlink:href="#gEA97EC147860E78008C33EAABF207A32" x="7.395" y="0" fill="#1a1a18" fill-rule="nonzero"/><use xlink:href="#g9DFB8CAEC5B458B41F3893F12F8EC954" x="11.3475" y="0" fill="#1a1a18" fill-rule="nonzero"/><use xlink:href="#g16EB0E76256A1564D6F72B0EC768AD0D" x="15.1275" y="0" fill="#1a1a18" fill-rule="nonzero"/><use xlink:href="#g3036A15D0A2AECE5F3220ADA73EBBEB6" x="18.72" y="0" fill="#1a1a18" fill-rule="nonzero"/><use xlink:href="#g7B6E1CB6926B0D89434DDB00C857E76D" x="22.0725" y="0" fill="#1a1a18" fill-rule="nonzero"/></g></g><path fill="#1a1a18" fill-rule="nonzero" transform="translate(132.803149606 9.88257874)" d="M 0 0m 2.551181102 0c -1.407700913 0 -2.551181102 1.143480189 -2.551181102 2.551181102c 0 1.407700913 1.143480189 2.551181102 2.551181102 2.551181102c 1.407700913 0 2.551181102 -1.143480189 2.551181102 -2.551181102c 0 -1.407700913 -1.143480189 -2.551181102 -2.551181102 -2.551181102Z "/><path fill="none" transform="translate(127.685580709)" d="M 0 0h 15.3375v 5.025h -15.3375v -5.025Z "/><g transform="translate(127.685580661 -9.4e-8)"><g transform="matrix(1 0 0 -1 0 4.935)"><use xlink:href="#g24A3F0AF4AD0375F71DE4AF9BEABB01F" x="0" y="0" fill="#1a1a18" fill-rule="nonzero"/><use xlink:href="#gEA97EC147860E78008C33EAABF207A32" x="3.21" y="0" fill="#1a1a18" fill-rule="nonzero"/><use xlink:href="#g9DFB8CAEC5B458B41F3893F12F8EC954" x="7.1625" y="0" fill="#1a1a18" fill-rule="nonzero"/><use xlink:href="#g9BD8815497ACE2CCB2ADDC08AAA56E57" x="10.9425" y="0" fill="#1a1a18" fill-rule="nonzero"/></g></g><path fill="none" transform="translate(85.047096238 74.869271654)" d="M 0 0h 43.921555556v 6.94h -43.921555556v -6.94Z "/><g transform="translate(85.047096189 74.869271622)"><g transform="matrix(1 0 0 -1 0 6.83)"><use xlink:href="#g4AA8B0C9301EC9E49320F675A5719D84" x="0" y="0" fill="#7c7f6a" fill-rule="nonzero"/></g><g transform="matrix(1 0 0 -1 10.617777778 6.83)"><use xlink:href="#g8C3D1DE697D76EDA694357F78E3116A2" x="0" y="0" fill="#7c7f6a" fill-rule="nonzero"/></g><g transform="matrix(1 0 0 -1 21.175555556 6.83)"><use xlink:href="#gEDD91886A3C56BA4A4FF27635933586D" x="0" y="0" fill="#7c7f6a" fill-rule="nonzero"/></g><g transform="matrix(1 0 0 -1 31.895555556 3.2)"><use xlink:href="#gE671C321BACDF5664922469AE07CE749" x="0" y="0" fill="#7c7f6a" fill-rule="nonzero"/></g><g transform="matrix(1 0 0 -1 35.878555556 3.2)"><use xlink:href="#g4227FD74CA6C7C4D799B7B8E8B3BEA4" x="0" y="0" fill="#7c7f6a" fill-rule="nonzero"/></g><g transform="matrix(1 0 0 -1 39.378555556 3.2)"><use xlink:href="#gA34FDBAFC63168279C8D1CAFE4C55D67" x="0" y="0" fill="#7c7f6a" fill-rule="nonzero"/></g></g><path fill="none" transform="translate(15.833667323 145.847913386)" d="M 0 0h 125.6555v 6.715h -125.6555v -6.715Z "/><g transform="translate(15.83366726 145.847913354)"><g transform="matrix(1 0 0 -1 0 5.593)"><use xlink:href="#gC8932C6BA7F518DC74E87E2F4A0224EB" x="0" y="0" fill="#1a1a18" fill-rule="nonzero"/><use xlink:href="#gF931FC691828778A920607CF18B9C32A" x="4.981" y="0" fill="#1a1a18" fill-rule="nonzero"/><use xlink:href="#gA501B866130BB2CA150759E9628F05FB" x="8.8655" y="0" fill="#1a1a18" fill-rule="nonzero"/><use xlink:href="#gB3F6F741CFF64E2F87AE274E4C795DAE" x="13.1325" y="0" fill="#1a1a18" fill-rule="nonzero"/><use xlink:href="#gE34E15A46C94CBC2E6ABE8844A1DDB21" x="17.612" y="0" fill="#1a1a18" fill-rule="nonzero"/><use xlink:href="#gC8932C6BA7F518DC74E87E2F4A0224EB" x="21.896" y="0" fill="#1a1a18" fill-rule="nonzero"/><use xlink:href="#gC93E921AEAEC051AF54DEF19CEE5AFC4" x="29.002" y="0" fill="#1a1a18" fill-rule="nonzero"/><use xlink:href="#g7D75CE9E78896E08E670B4F3199665FA" x="32.9545" y="0" fill="#1a1a18" fill-rule="nonzero"/><use xlink:href="#gD7F3603AE07CA6EC40268D26CF17A17B" x="35.7" y="0" fill="#1a1a18" fill-rule="nonzero"/><use xlink:href="#g3D9A67B9902CBFFCF1182D85B33DBA41" x="41.7775" y="0" fill="#1a1a18" fill-rule="nonzero"/><use xlink:href="#gDEA2A0379B7527B5C1F8D88530B6617D" x="45.849" y="0" fill="#1a1a18" fill-rule="nonzero"/><use xlink:href="#g5D2E58E4CDB4D7E6C81847885E22D756" x="51.629" y="0" fill="#1a1a18" fill-rule="nonzero"/><use xlink:href="#g1EEFC323E4FEBE7654D5CC1583F61AF4" x="55.4285" y="0" fill="#1a1a18" fill-rule="nonzero"/><use xlink:href="#g3EDD64AE7B5A40E8FE9DD75D51E8EE8A" x="59.0665" y="0" fill="#1a1a18" fill-rule="nonzero"/><use xlink:href="#gE34E15A46C94CBC2E6ABE8844A1DDB21" x="62.849" y="0" fill="#1a1a18" fill-rule="nonzero"/><use xlink:href="#gE34E15A46C94CBC2E6ABE8844A1DDB21" x="69.258" y="0" fill="#1a1a18" fill-rule="nonzero"/><use xlink:href="#gEF81C0034748F108B423DC4F87ECC2EA" x="73.542" y="0" fill="#1a1a18" fill-rule="nonzero"/><use xlink:href="#gE7AE90A8EDDEF3DDB67EE78D36D80337" x="79.543" y="0" fill="#1a1a18" fill-rule="nonzero"/><use xlink:href="#gBAF1B227155053221F22F6E06EEFED60" x="84.524" y="0" fill="#1a1a18" fill-rule="nonzero"/><use xlink:href="#gF931FC691828778A920607CF18B9C32A" x="89.097" y="0" fill="#1a1a18" fill-rule="nonzero"/><use xlink:href="#g5D2E58E4CDB4D7E6C81847885E22D756" x="92.9815" y="0" fill="#1a1a18" fill-rule="nonzero"/><use xlink:href="#gDEA2A0379B7527B5C1F8D88530B6617D" x="96.781" y="0" fill="#1a1a18" fill-rule="nonzero"/><use xlink:href="#g263F4FD32CCD3C47111457350A4C543D" x="102.561" y="0" fill="#1a1a18" fill-rule="nonzero"/><use xlink:href="#g2C6A451F1957B6BC42824B2C440B7E11" x="108.715" y="0" fill="#1a1a18" fill-rule="nonzero"/><use xlink:href="#g34E634B8D08F8B91F4ACC67018EAE93C" x="115.005" y="0" fill="#1a1a18" fill-rule="nonzero"/><use xlink:href="#g7D75CE9E78896E08E670B4F3199665FA" x="118.9575" y="0" fill="#1a1a18" fill-rule="nonzero"/><use xlink:href="#gC93E921AEAEC051AF54DEF19CEE5AFC4" x="121.703" y="0" fill="#1a1a18" fill-rule="nonzero"/></g></g></g><defs><symbol id="g7C9B427924E33B4C86D3C0B52A9CC338" overflow="visible"><path d="M 0 0m 1.296 0.027l 0.999 -0.027v 0.351c -0.324 0 -0.522 0.009 -0.585 0.045c -0.063 0.036 -0.09 0.144 -0.09 0.315v 5.535l -1.323 -0.099v -0.342c 0.315 0 0.513 -0.027 0.576 -0.081c 0.063 -0.054 0.099 -0.18 0.099 -0.387v -4.626c 0 -0.171 -0.027 -0.279 -0.09 -0.315c -0.063 -0.036 -0.261 -0.045 -0.585 -0.045v -0.351Z "/></symbol><symbol id="g24B00CEE24AD49BA8CCC5A5E72931BA6" overflow="visible"><path d="M 0 0m 2.241 -0.099c 0.558 0 1.026 0.198 1.413 0.594c 0.387 0.396 0.585 0.873 0.585 1.431c 0 0.567 -0.189 1.062 -0.567 1.476c -0.378 0.414 -0.855 0.63 -1.422 0.63c -0.567 0 -1.035 -0.216 -1.422 -0.63c -0.387 -0.414 -0.576 -0.909 -0.576 -1.476c 0 -0.558 0.189 -1.035 0.576 -1.431c 0.387 -0.396 0.864 -0.594 1.413 -0.594Z m 0.009 0.288c -0.432 0 -0.756 0.189 -0.981 0.576c -0.144 0.252 -0.216 0.666 -0.216 1.233c 0 0.549 0.072 0.945 0.207 1.197c 0.216 0.387 0.54 0.576 0.981 0.576c 0.423 0 0.747 -0.189 0.972 -0.558c 0.153 -0.252 0.225 -0.657 0.225 -1.215c 0 -1.044 -0.306 -1.809 -1.188 -1.809Z "/></symbol><symbol id="g256A04A75978FCADC8C3E797864131CD" overflow="visible"><path d="M 0 0m 3.879 4.077c -0.342 0 -0.657 -0.135 -0.945 -0.405c -0.27 0.207 -0.576 0.306 -0.927 0.306c -0.774 0 -1.476 -0.576 -1.476 -1.332c 0 -0.378 0.135 -0.684 0.405 -0.918c -0.171 -0.216 -0.261 -0.459 -0.261 -0.738c 0 -0.342 0.117 -0.603 0.342 -0.774c -0.378 -0.126 -0.765 -0.45 -0.765 -0.909c 0 -0.387 0.252 -0.693 0.747 -0.909c 0.378 -0.171 0.792 -0.252 1.242 -0.252c 0.459 0 0.882 0.081 1.26 0.252c 0.495 0.216 0.738 0.522 0.738 0.927c 0 0.477 -0.198 0.828 -0.594 1.053c -0.414 0.225 -0.873 0.252 -1.539 0.252c -0.396 0 -0.612 0 -0.657 0.009c -0.252 0.036 -0.432 0.279 -0.432 0.558c 0 0.135 0.036 0.261 0.117 0.369c 0.252 -0.171 0.54 -0.261 0.873 -0.261c 0.774 0 1.467 0.576 1.467 1.332c 0 0.351 -0.117 0.639 -0.351 0.864c 0.225 0.207 0.468 0.306 0.729 0.306c -0.045 -0.045 -0.072 -0.117 -0.072 -0.207c 0 -0.198 0.099 -0.297 0.297 -0.297c 0.189 0 0.288 0.099 0.288 0.306c 0 0.279 -0.216 0.468 -0.486 0.468Z m -1.872 -0.378c 0.486 0 0.729 -0.351 0.729 -1.053c 0 -0.711 -0.243 -1.071 -0.729 -1.071c -0.495 0 -0.738 0.351 -0.738 1.062c 0 0.711 0.243 1.062 0.738 1.062Z m -0.531 -3.663h 0.522c 0.468 0 0.846 -0.027 1.134 -0.09c 0.387 -0.081 0.576 -0.297 0.576 -0.639c 0 -0.288 -0.18 -0.513 -0.54 -0.684c -0.279 -0.135 -0.585 -0.198 -0.918 -0.198c -0.324 0 -0.63 0.063 -0.918 0.198c -0.369 0.171 -0.549 0.396 -0.549 0.684c 0 0.378 0.324 0.729 0.693 0.729Z "/></symbol><symbol id="g15909FB4B96B34CEDD4F94D3DB2FAA76" overflow="visible"><path d="M 0 0m 5.346 0.144c 0 -0.099 0.054 -0.144 0.171 -0.144l 1.107 0.027c 0.207 0.009 0.936 -0.027 1.107 -0.027c 0.135 0 0.207 0.072 0.207 0.216c 0 0.09 -0.09 0.135 -0.279 0.135c -0.369 0 -0.549 0.036 -0.549 0.117c 0 0.027 0.018 0.09 0.045 0.207l 1.188 4.743c 0.045 0.189 0.135 0.306 0.252 0.351c 0.054 0.018 0.216 0.027 0.477 0.027c 0.225 0 0.324 0.009 0.324 0.216c 0 0.09 -0.09 0.135 -0.279 0.135h -1.179c -0.261 0 -0.261 -0.018 -0.378 -0.189l -3.204 -4.986l -0.684 4.941c -0.036 0.225 -0.054 0.234 -0.315 0.234h -1.224c -0.198 0 -0.297 -0.009 -0.297 -0.207c 0 -0.099 0.099 -0.144 0.288 -0.144c 0.18 0 0.549 0.027 0.549 -0.117c 0 -0.018 -0.009 -0.072 -0.036 -0.162l -1.134 -4.527c -0.081 -0.342 -0.288 -0.549 -0.603 -0.612c -0.225 -0.027 -0.522 0.009 -0.522 -0.234c 0 -0.099 0.054 -0.144 0.162 -0.144c 0.162 0 0.729 0.027 0.891 0.027c 0.171 0 0.747 -0.027 0.918 -0.027c 0.135 0 0.198 0.072 0.198 0.216c 0 0.081 -0.063 0.126 -0.198 0.135c -0.378 0 -0.567 0.117 -0.567 0.351c 0 0.036 0.009 0.099 0.036 0.198l 1.17 4.689l 0.747 -5.355c 0.027 -0.153 0.081 -0.234 0.171 -0.234c 0.072 0 0.144 0.063 0.225 0.18l 3.501 5.463l -1.224 -4.905c -0.054 -0.198 -0.144 -0.315 -0.279 -0.36c -0.054 -0.018 -0.225 -0.027 -0.504 -0.027c -0.189 0 -0.279 -0.018 -0.279 -0.207Z "/></symbol><symbol id="g47516AA720979696FAFCA8A7B93ACEFC" overflow="visible"><path d="M 0 0m 0.396 2.268c 0 -0.405 0.036 -2.484 1.908 -4.104c 0.09 0.018 0.162 0.081 0.189 0.153c -0.297 0.342 -1.35 1.584 -1.35 3.951c 0 2.367 1.062 3.609 1.35 3.933c -0.027 0.09 -0.09 0.153 -0.189 0.162c -1.071 -0.918 -1.908 -2.421 -1.908 -4.095Z "/></symbol><symbol id="g82C799C01D06EF19E125C6F4348D75CA" overflow="visible"><path d="M 0 0m 1.053 2.754l -0.054 -1.674c -0.027 -0.756 -0.162 -0.774 -0.684 -0.801c -0.054 -0.054 -0.054 -0.243 0 -0.297c 0.18 0.009 0.63 0.018 0.774 0.018c 0.18 0 0.603 -0.009 0.783 -0.018c 0.054 0.054 0.054 0.243 0 0.297c -0.513 0.036 -0.549 0.126 -0.531 0.801l 0.063 2.205c 0 0.081 0.036 0.081 0.072 0l 1.305 -3.186c 0.036 -0.027 0.072 -0.027 0.099 0l 1.476 3.177c 0.045 0.099 0.09 0.108 0.09 0l -0.009 -2.178c 0 -0.747 -0.063 -0.774 -0.612 -0.819c -0.054 -0.054 -0.054 -0.243 0 -0.297c 0.324 0.009 0.657 0.018 0.972 0.018c 0.27 0 0.657 -0.009 1.008 -0.018c 0.054 0.054 0.054 0.243 0 0.297c -0.549 0.036 -0.648 0.072 -0.648 0.819l -0.018 1.665c -0.009 0.747 0.099 0.774 0.648 0.819c 0.054 0.054 0.054 0.243 0 0.297c -0.315 -0.018 -1.188 -0.018 -1.485 -0.018l -1.197 -2.574l -0.045 -0.09l -0.036 0.09l -1.053 2.574c -0.297 0 -1.251 0 -1.566 0.018c -0.054 -0.054 -0.054 -0.243 0 -0.297c 0.549 -0.045 0.675 -0.081 0.648 -0.828Z "/></symbol><symbol id="gF7AD5B3248F8366898BA115B8D318C4E" overflow="visible"><path d="M 0 0m 2.637 0.432c 0.054 -0.279 0.153 -0.522 0.603 -0.522c 0.342 0 0.666 0.153 0.855 0.333c -0.018 0.108 -0.054 0.189 -0.153 0.243c -0.063 -0.054 -0.216 -0.144 -0.333 -0.144c -0.261 0 -0.27 0.351 -0.27 0.765v 1.323c 0 1.278 -0.702 1.521 -1.359 1.521c -0.738 0 -1.485 -0.486 -1.485 -0.999c 0 -0.216 0.108 -0.324 0.315 -0.324c 0.261 0 0.423 0.189 0.423 0.306c 0 0.063 -0.009 0.126 -0.027 0.162c -0.009 0.027 -0.018 0.081 -0.018 0.18c 0 0.279 0.378 0.378 0.72 0.378c 0.306 0 0.729 -0.153 0.729 -1.17c 0 -0.063 -0.027 -0.099 -0.054 -0.108l -0.774 -0.189c -0.864 -0.216 -1.485 -0.693 -1.485 -1.305c 0 -0.738 0.504 -0.972 1.134 -0.972c 0.315 0 0.585 0.072 0.981 0.378l 0.18 0.144Z m 0 1.665v -1.188c 0 -0.117 -0.054 -0.18 -0.126 -0.234c -0.234 -0.189 -0.54 -0.396 -0.792 -0.396c -0.45 0 -0.648 0.36 -0.648 0.639c 0 0.405 0.189 0.819 0.855 0.99Z "/></symbol><symbol id="g7815E2C79248546AAEE49EC7F57ADD4E" overflow="visible"><path d="M 0 0m 3.582 0.819c -0.036 0.081 -0.108 0.117 -0.189 0.126c -0.306 -0.396 -0.693 -0.594 -1.08 -0.594c -0.657 0 -1.206 0.666 -1.206 1.719c 0 0.99 0.432 1.584 1.026 1.584c 0.531 0 0.603 -0.315 0.639 -0.63c 0.027 -0.243 0.153 -0.324 0.342 -0.324c 0.189 0 0.441 0.117 0.441 0.396c 0 0.495 -0.513 0.855 -1.377 0.855c -0.891 0 -1.845 -0.801 -1.845 -2.079c 0 -1.161 0.648 -1.962 1.782 -1.962c 0.54 0 1.017 0.171 1.467 0.909Z "/></symbol><symbol id="gFB58F9CAD08F4D0DFA3961AF05C28A35" overflow="visible"><path d="M 0 0m 2.286 2.268c 0 0.405 -0.036 2.484 -1.908 4.104c -0.09 -0.018 -0.162 -0.081 -0.189 -0.153c 0.297 -0.342 1.35 -1.584 1.35 -3.951c 0 -2.367 -1.062 -3.609 -1.35 -3.933c 0.027 -0.09 0.09 -0.153 0.189 -0.162c 1.071 0.918 1.908 2.421 1.908 4.095Z "/></symbol><symbol id="gBD6B21B15D5D492E1F0A9C7BC1123554" overflow="visible"><path d="M 0 0m 6.804 4.887c 0 0.819 -0.81 1.26 -1.692 1.26h -2.988c -0.207 0 -0.297 -0.009 -0.297 -0.216c 0 -0.144 0.18 -0.135 0.288 -0.135c 0.27 -0.009 0.432 -0.027 0.477 -0.036c 0.045 -0.009 0.063 -0.036 0.063 -0.081c 0 -0.018 -0.009 -0.072 -0.036 -0.162l -1.188 -4.779c -0.045 -0.198 -0.135 -0.315 -0.27 -0.36c -0.063 -0.018 -0.225 -0.027 -0.504 -0.027c -0.189 0 -0.279 -0.072 -0.279 -0.216c 0 -0.09 0.09 -0.135 0.279 -0.135h 3.177c 0.585 0 1.125 0.18 1.638 0.531c 0.567 0.387 0.855 0.864 0.855 1.422c 0 0.711 -0.585 1.143 -1.224 1.269c 0.792 0.189 1.701 0.792 1.701 1.665Z m -1.818 0.909c 0.621 0 0.936 -0.288 0.936 -0.873c 0 -0.459 -0.18 -0.837 -0.558 -1.143c -0.378 -0.306 -0.801 -0.45 -1.26 -0.45h -1.251l 0.54 2.16c 0.072 0.306 0.072 0.306 0.45 0.306Z m 0.252 -3.105c 0.126 -0.207 0.189 -0.414 0.189 -0.639c 0 -0.468 -0.18 -0.873 -0.549 -1.206c -0.369 -0.333 -0.783 -0.495 -1.26 -0.495h -1.215c -0.09 0 -0.153 0 -0.189 0.009c -0.054 0 -0.081 0.018 -0.081 0.045c 0 0.009 0 0.036 0.009 0.072c 0.279 1.143 0.495 2.007 0.639 2.583h 1.656c 0.387 0 0.648 -0.126 0.801 -0.369Z "/></symbol><symbol id="g7253BD4F4A12C91ABC7B03558525FA66" overflow="visible"><path d="M 0 0m 0.369 1.845c 0 -0.918 0.612 -1.935 1.89 -1.935c 0.576 0 1.017 0.207 1.323 0.504c 0.405 0.396 0.585 0.963 0.585 1.512c 0 0.936 -0.513 2.025 -1.89 2.025c -0.594 0 -1.08 -0.243 -1.413 -0.63c -0.324 -0.387 -0.495 -0.909 -0.495 -1.476Z m 1.773 1.791c 0.774 0 1.251 -0.702 1.251 -1.998c 0 -1.134 -0.585 -1.413 -1.008 -1.413c -0.936 0 -1.242 1.134 -1.242 1.827c 0 0.783 0.189 1.584 0.999 1.584Z "/></symbol><symbol id="g9C9C9262F30302871979B086E3504457" overflow="visible"><path d="M 0 0m 0.306 2.313c 0 -1.701 0.981 -2.403 1.854 -2.403c 1.233 0 1.944 0.918 1.944 2.052c 0 0.972 -0.54 1.989 -1.809 1.989c -0.855 0 -1.377 -0.504 -1.575 -0.936l -0.018 0.018c 0.036 0.468 0.18 1.044 0.315 1.278c 0.288 0.495 0.63 0.522 1.458 0.612c 0.81 0.09 1.386 0.351 1.467 1.359c -0.063 0.027 -0.126 0.036 -0.198 0c -0.072 -0.432 -0.549 -0.549 -1.305 -0.666c -0.729 -0.117 -1.341 -0.369 -1.719 -1.08c -0.324 -0.612 -0.414 -1.368 -0.414 -2.223Z m 0.774 -0.234c 0 0.504 0.18 1.557 1.116 1.557c 0.702 0 1.134 -0.81 1.134 -1.89c 0 -1.134 -0.522 -1.521 -1.008 -1.521c -0.657 0 -1.242 0.855 -1.242 1.854Z "/></symbol><symbol id="gD351E21AD091924D522A6D2D6355C932" overflow="visible"><path d="M 0 0m 3.474 0.837c -0.333 -0.342 -0.594 -0.486 -1.116 -0.486c -0.324 0 -0.702 0.189 -0.981 0.648c -0.18 0.297 -0.288 0.711 -0.288 1.233l 2.394 -0.018c 0.108 0 0.171 0.054 0.171 0.153c 0 0.756 -0.27 1.566 -1.521 1.566c -0.783 0 -1.8 -0.747 -1.8 -2.115c 0 -0.504 0.126 -0.99 0.423 -1.332c 0.306 -0.36 0.729 -0.576 1.377 -0.576c 0.684 0 1.17 0.315 1.53 0.783c -0.027 0.09 -0.081 0.135 -0.189 0.144Z m -2.358 1.701c 0.171 1.017 0.801 1.098 1.017 1.098c 0.342 0 0.747 -0.189 0.747 -0.945c 0 -0.081 -0.036 -0.126 -0.135 -0.126Z "/></symbol><symbol id="g5F2B105DCE44482CD07DFE0B4651B637" overflow="visible"><path d="M 0 0m 4.311 2.763c 0 0.747 0.099 0.774 0.648 0.819c 0.054 0.054 0.054 0.243 0 0.297c -0.315 -0.018 -0.711 -0.018 -1.008 -0.018c -0.252 0 -0.612 0.009 -0.963 0.018c -0.054 -0.054 -0.054 -0.243 0 -0.297c 0.549 -0.036 0.612 -0.072 0.612 -0.819v -0.585h -1.926v 0.585c 0 0.747 0.063 0.774 0.612 0.819c 0.054 0.054 0.054 0.243 0 0.297c -0.342 -0.009 -0.684 -0.018 -0.972 -0.018c -0.27 0 -0.639 0.009 -0.999 0.018c -0.054 -0.054 -0.054 -0.243 0 -0.297c 0.549 -0.036 0.648 -0.072 0.648 -0.819v -1.665c 0 -0.747 -0.099 -0.774 -0.648 -0.819c -0.054 -0.054 -0.054 -0.243 0 -0.297c 0.36 0.009 0.72 0.018 1.008 0.018c 0.288 0 0.639 -0.009 0.963 -0.018c 0.054 0.054 0.054 0.243 0 0.297c -0.549 0.036 -0.612 0.072 -0.612 0.819v 0.783h 1.926v -0.783c 0 -0.747 -0.063 -0.774 -0.612 -0.819c -0.054 -0.054 -0.054 -0.243 0 -0.297c 0.324 0.009 0.657 0.018 0.972 0.018c 0.27 0 0.648 -0.009 0.999 -0.018c 0.054 0.054 0.054 0.243 0 0.297c -0.549 0.036 -0.648 0.072 -0.648 0.819Z "/></symbol><symbol id="g9FFCC18D170BB6C28C600E5B5ACB7B09" overflow="visible"><path d="M 0 0m 0.8775 2.295l -0.045 -1.395c -0.0225 -0.63 -0.135 -0.645 -0.57 -0.6675c -0.045 -0.045 -0.045 -0.2025 0 -0.2475c 0.15 0.0075 0.525 0.015 0.645 0.015c 0.15 0 0.5025 -0.0075 0.6525 -0.015c 0.045 0.045 0.045 0.2025 0 0.2475c -0.4275 0.03 -0.4575 0.105 -0.4425 0.6675l 0.0525 1.8375c 0 0.0675 0.03 0.0675 0.06 0l 1.0875 -2.655c 0.03 -0.0225 0.06 -0.0225 0.0825 0l 1.23 2.6475c 0.0375 0.0825 0.075 0.09 0.075 0l -0.0075 -1.815c 0 -0.6225 -0.0525 -0.645 -0.51 -0.6825c -0.045 -0.045 -0.045 -0.2025 0 -0.2475c 0.27 0.0075 0.5475 0.015 0.81 0.015c 0.225 0 0.5475 -0.0075 0.84 -0.015c 0.045 0.045 0.045 0.2025 0 0.2475c -0.4575 0.03 -0.54 0.06 -0.54 0.6825l -0.015 1.3875c -0.0075 0.6225 0.0825 0.645 0.54 0.6825c 0.045 0.045 0.045 0.2025 0 0.2475c -0.2625 -0.015 -0.99 -0.015 -1.2375 -0.015l -0.9975 -2.145l -0.0375 -0.075l -0.03 0.075l -0.8775 2.145c -0.2475 0 -1.0425 0 -1.305 0.015c -0.045 -0.045 -0.045 -0.2025 0 -0.2475c 0.4575 -0.0375 0.5625 -0.0675 0.54 -0.69Z "/></symbol><symbol id="gE9DD31ED97DC901ABB725871441019F4" overflow="visible"><path d="M 0 0m 1.395 2.295c 0 0.63 0.0825 0.6525 0.54 0.69c 0.045 0.045 0.045 0.2025 0 0.2475c -0.255 -0.0075 -0.51 -0.015 -0.84 -0.015c -0.3225 0 -0.585 0.0075 -0.8325 0.015c -0.045 -0.045 -0.045 -0.2025 0 -0.2475c 0.4575 -0.03 0.54 -0.06 0.54 -0.6825v -1.3875c 0 -0.6225 -0.0825 -0.645 -0.54 -0.6825c -0.045 -0.045 -0.045 -0.2025 0 -0.2475c 0.2475 0.0075 0.51 0.015 0.84 0.015c 0.3075 0 0.4725 -0.015 0.78 -0.015c 0.9225 0 1.425 0.2325 1.425 1.035c 0 0.705 -0.615 0.9075 -1.3725 0.9075h -0.54Z m 3.2325 0.0075c 0 0.6225 0.0825 0.645 0.54 0.6825c 0.045 0.045 0.045 0.2025 0 0.2475c -0.255 -0.0075 -0.51 -0.015 -0.84 -0.015c -0.3225 0 -0.585 0.0075 -0.8325 0.015c -0.045 -0.045 -0.045 -0.2025 0 -0.2475c 0.4575 -0.03 0.54 -0.06 0.54 -0.6825v -1.3875c 0 -0.6225 -0.0825 -0.645 -0.54 -0.6825c -0.045 -0.045 -0.045 -0.2025 0 -0.2475c 0.2475 0.0075 0.51 0.015 0.84 0.015c 0.3225 0 0.5925 -0.0075 0.8325 -0.015c 0.045 0.045 0.045 0.2025 0 0.2475c -0.4575 0.03 -0.54 0.06 -0.54 0.6825Z m -1.965 -1.3575c 0 -0.615 -0.375 -0.7125 -0.7725 -0.7125c -0.3675 0 -0.495 0.075 -0.495 0.3375v 1.11h 0.5325c 0.5625 0 0.735 -0.3375 0.735 -0.735Z "/></symbol><symbol id="g34F684D2788A1EFD489841EBF0BF1F0C" overflow="visible"><path d="M 0 0m 5.595 0.915v 1.3875c 0 0.615 0.0975 0.6525 0.51 0.6825c 0.045 0.045 0.045 0.2025 0 0.2475c -0.225 -0.0075 -0.51 -0.015 -0.81 -0.015c -0.3 0 -0.525 0.0075 -0.75 0.015c -0.045 -0.045 -0.045 -0.2025 0 -0.2475c 0.3825 -0.0375 0.4575 -0.0675 0.4575 -0.6825v -1.6275c 0 -0.2325 -0.0225 -0.3825 -0.315 -0.3825h -0.885c -0.225 0 -0.3225 0.0675 -0.3225 0.3825v 1.6275c 0.0075 0.615 0.06 0.6525 0.465 0.6825c 0.0375 0.045 0.0375 0.2025 0 0.2475c -0.1875 -0.0075 -0.465 -0.015 -0.765 -0.015c -0.3 0 -0.5475 0.0075 -0.735 0.015c -0.0375 -0.045 -0.0375 -0.2025 0 -0.2475c 0.375 -0.03 0.45 -0.0675 0.4425 -0.6825v -1.635c 0 -0.2775 -0.0375 -0.375 -0.315 -0.375h -0.855c -0.2775 0 -0.3225 0.0825 -0.3225 0.3825v 1.6275c 0 0.615 0.075 0.6525 0.465 0.6825c 0.0375 0.045 0.0375 0.2025 0 0.2475c -0.1875 -0.0075 -0.465 -0.015 -0.765 -0.015c -0.3 0 -0.5625 0.0075 -0.7725 0.015c -0.0375 -0.045 -0.0375 -0.2025 0 -0.2475c 0.4125 -0.03 0.48 -0.0675 0.48 -0.6825v -1.3875c 0 -0.615 -0.0975 -0.6525 -0.51 -0.6825c -0.045 -0.045 -0.045 -0.2025 0 -0.2475c 0.225 0.0075 0.51 0.015 0.81 0.015h 4.1925c 0.3 0 0.585 -0.0075 0.81 -0.015c 0.045 0.045 0.045 0.2025 0 0.2475c -0.4125 0.03 -0.51 0.0675 -0.51 0.6825Z "/></symbol><symbol id="g401226A6362CD80CF6074807A052A046" overflow="visible"><path d="M 0 0m 1.395 2.295c 0 0.63 0.0825 0.6525 0.54 0.69c 0.045 0.045 0.045 0.2025 0 0.2475c -0.255 -0.0075 -0.51 -0.015 -0.84 -0.015c -0.3225 0 -0.585 0.0075 -0.8325 0.015c -0.045 -0.045 -0.045 -0.2025 0 -0.2475c 0.4575 -0.03 0.54 -0.06 0.54 -0.6825v -1.3875c 0 -0.6225 -0.0825 -0.645 -0.54 -0.6825c -0.045 -0.045 -0.045 -0.2025 0 -0.2475c 0.2475 0.0075 0.51 0.015 0.84 0.015c 0.3075 0 0.4725 -0.015 0.78 -0.015c 0.9225 0 1.425 0.2325 1.425 1.035c 0 0.705 -0.615 0.9075 -1.3725 0.9075h -0.54Z m 1.2675 -1.35c 0 -0.615 -0.375 -0.7125 -0.7725 -0.7125c -0.3675 0 -0.495 0.075 -0.495 0.3375v 1.11h 0.5325c 0.5625 0 0.735 -0.3375 0.735 -0.735Z "/></symbol><symbol id="g7B6E1CB6926B0D89434DDB00C857E76D" overflow="visible"><path d="M 0 0m 2.895 0c 0 0 0.585 -0.0075 0.735 -0.015c 0.045 0.045 0.045 0.2025 0 0.2475c -0.2925 0.015 -0.3525 0.075 -0.48 0.315l -0.3375 0.6375c -0.1875 0.3525 -0.45 0.5325 -0.8775 0.5325v 0.0225c 0.2925 0.0825 0.42 0.345 0.5325 0.645c 0.09 0.2325 0.18 0.375 0.3375 0.375c 0.0675 0 0.1275 -0.0225 0.1725 -0.0525c 0.045 -0.03 0.1275 -0.0525 0.225 -0.0525c 0.165 0 0.3 0.1425 0.3 0.2925c 0 0.165 -0.18 0.3375 -0.4275 0.3375c -0.435 0 -0.6375 -0.405 -0.78 -0.7575c -0.165 -0.4125 -0.3675 -0.6975 -0.9 -0.6975v 0.4725c 0 0.6225 0.0825 0.645 0.465 0.6825c 0.045 0.045 0.045 0.2025 0 0.2475c -0.18 -0.0075 -0.465 -0.015 -0.765 -0.015c -0.3225 0 -0.585 0.0075 -0.8325 0.015c -0.045 -0.045 -0.045 -0.2025 0 -0.2475c 0.4575 -0.03 0.54 -0.06 0.54 -0.6825v -1.3875c 0 -0.6225 -0.0825 -0.645 -0.54 -0.6825c -0.045 -0.045 -0.045 -0.2025 0 -0.2475c 0.2475 0.0075 0.51 0.015 0.84 0.015c 0.2925 0 0.5925 -0.0075 0.7575 -0.015c 0.045 0.045 0.045 0.2025 0 0.2475c -0.3825 0.03 -0.465 0.06 -0.465 0.6825v 0.6525c 0.51 -0.03 0.645 -0.2325 0.78 -0.51l 0.3225 -0.675c 0.0975 -0.2025 0.2475 -0.375 0.3975 -0.3825Z "/></symbol><symbol id="g9DFB8CAEC5B458B41F3893F12F8EC954" overflow="visible"><path d="M 0 0m 0.3075 1.5375c 0 -0.765 0.51 -1.6125 1.575 -1.6125c 0.48 0 0.8475 0.1725 1.1025 0.42c 0.3375 0.33 0.4875 0.8025 0.4875 1.26c 0 0.78 -0.4275 1.6875 -1.575 1.6875c -0.495 0 -0.9 -0.2025 -1.1775 -0.525c -0.27 -0.3225 -0.4125 -0.7575 -0.4125 -1.23Z m 1.4775 1.4925c 0.645 0 1.0425 -0.585 1.0425 -1.665c 0 -0.945 -0.4875 -1.1775 -0.84 -1.1775c -0.78 0 -1.035 0.945 -1.035 1.5225c 0 0.6525 0.1575 1.32 0.8325 1.32Z "/></symbol><symbol id="gFF794F08E96A5B8C53E798F025ED07F6" overflow="visible"><path d="M 0 0m 2.1975 0.36c 0.045 -0.2325 0.1275 -0.435 0.5025 -0.435c 0.285 0 0.555 0.1275 0.7125 0.2775c -0.015 0.09 -0.045 0.1575 -0.1275 0.2025c -0.0525 -0.045 -0.18 -0.12 -0.2775 -0.12c -0.2175 0 -0.225 0.2925 -0.225 0.6375v 1.1025c 0 1.065 -0.585 1.2675 -1.1325 1.2675c -0.615 0 -1.2375 -0.405 -1.2375 -0.8325c 0 -0.18 0.09 -0.27 0.2625 -0.27c 0.2175 0 0.3525 0.1575 0.3525 0.255c 0 0.0525 -0.0075 0.105 -0.0225 0.135c -0.0075 0.0225 -0.015 0.0675 -0.015 0.15c 0 0.2325 0.315 0.315 0.6 0.315c 0.255 0 0.6075 -0.1275 0.6075 -0.975c 0 -0.0525 -0.0225 -0.0825 -0.045 -0.09l -0.645 -0.1575c -0.72 -0.18 -1.2375 -0.5775 -1.2375 -1.0875c 0 -0.615 0.42 -0.81 0.945 -0.81c 0.2625 0 0.4875 0.06 0.8175 0.315l 0.15 0.12Z m 0 1.3875v -0.99c 0 -0.0975 -0.045 -0.15 -0.105 -0.195c -0.195 -0.1575 -0.45 -0.33 -0.66 -0.33c -0.375 0 -0.54 0.3 -0.54 0.5325c 0 0.3375 0.1575 0.6825 0.7125 0.825Z "/></symbol><symbol id="g88DF289CB0ABE82F4BDD978B7C9B130C" overflow="visible"><path d="M 0 0m 1.215 2.3025c 0 0.6225 0.0825 0.645 0.465 0.6825c 0.045 0.045 0.045 0.2025 0 0.2475c -0.18 -0.0075 -0.465 -0.015 -0.765 -0.015c -0.3225 0 -0.5775 0.0075 -0.825 0.015c -0.045 -0.045 -0.045 -0.2025 0 -0.2475c 0.4575 -0.03 0.54 -0.06 0.54 -0.6825v -0.3225c 0 -0.705 0.1575 -0.9825 0.855 -0.9825c 0.4725 0 0.8475 0.27 1.155 0.495v -0.5775c 0 -0.6225 -0.0825 -0.645 -0.54 -0.6825c -0.045 -0.045 -0.045 -0.2025 0 -0.2475c 0.2475 0.0075 0.51 0.015 0.84 0.015c 0.3225 0 0.6 -0.0075 0.84 -0.015c 0.045 0.045 0.045 0.2025 0 0.2475c -0.4575 0.03 -0.54 0.06 -0.54 0.6825v 1.3875c 0 0.6225 0.0825 0.645 0.54 0.6825c 0.045 0.045 0.045 0.2025 0 0.2475c -0.255 -0.0075 -0.51 -0.015 -0.84 -0.015c -0.2925 0 -0.5925 0.0075 -0.765 0.015c -0.045 -0.045 -0.045 -0.2025 0 -0.2475c 0.3825 -0.03 0.465 -0.06 0.465 -0.6825v -0.54c -0.255 -0.225 -0.525 -0.4275 -0.915 -0.4275c -0.4875 0 -0.51 0.255 -0.51 0.84Z "/></symbol><symbol id="g3036A15D0A2AECE5F3220ADA73EBBEB6" overflow="visible"><path d="M 0 0m 2.895 0.6975c -0.2775 -0.285 -0.495 -0.405 -0.93 -0.405c -0.27 0 -0.585 0.1575 -0.8175 0.54c -0.15 0.2475 -0.24 0.5925 -0.24 1.0275l 1.995 -0.015c 0.09 0 0.1425 0.045 0.1425 0.1275c 0 0.63 -0.225 1.305 -1.2675 1.305c -0.6525 0 -1.5 -0.6225 -1.5 -1.7625c 0 -0.42 0.105 -0.825 0.3525 -1.11c 0.255 -0.3 0.6075 -0.48 1.1475 -0.48c 0.57 0 0.975 0.2625 1.275 0.6525c -0.0225 0.075 -0.0675 0.1125 -0.1575 0.12Z m -1.965 1.4175c 0.1425 0.8475 0.6675 0.915 0.8475 0.915c 0.285 0 0.6225 -0.1575 0.6225 -0.7875c 0 -0.0675 -0.03 -0.105 -0.1125 -0.105Z "/></symbol><symbol id="gEA97EC147860E78008C33EAABF207A32" overflow="visible"><path d="M 0 0m 3.135 0.915v 1.3875c 0 0.615 0.0975 0.6525 0.51 0.6825c 0.045 0.045 0.045 0.2025 0 0.2475c -0.225 -0.0075 -0.51 -0.015 -0.81 -0.015h -1.4175c -0.2475 0 -0.54 0.0075 -0.765 0.015c -0.045 -0.045 -0.045 -0.2025 0 -0.2475c 0.5325 -0.0375 0.6075 -0.0825 0.6075 -0.8925c 0 -0.7875 -0.06 -1.2 -0.165 -1.5075c -0.0975 -0.27 -0.225 -0.3675 -0.3525 -0.3675c -0.0975 0 -0.1275 0.06 -0.1425 0.1575c -0.0225 0.1425 -0.0675 0.285 -0.2775 0.285c -0.1875 0 -0.2925 -0.15 -0.2925 -0.315c 0 -0.2325 0.21 -0.435 0.555 -0.435c 0.3825 0 0.5925 0.195 0.765 0.6c 0.15 0.36 0.195 1.125 0.195 1.635c 0 0.585 0.0225 0.78 0.3225 0.78h 0.3375c 0.285 0 0.3375 -0.18 0.3375 -0.435v -1.575c 0 -0.615 -0.075 -0.6525 -0.465 -0.6825c -0.0375 -0.045 -0.0375 -0.2025 0 -0.2475c 0.1875 0.0075 0.465 0.015 0.765 0.015c 0.3 0 0.6375 -0.0075 0.8475 -0.015c 0.0375 0.045 0.0375 0.2025 0 0.2475c -0.4875 0.03 -0.555 0.0675 -0.555 0.6825Z "/></symbol><symbol id="g16EB0E76256A1564D6F72B0EC768AD0D" overflow="visible"><path d="M 0 0m 1.095 3.2175c -0.3225 0 -0.585 0.0075 -0.8325 0.015c -0.045 -0.045 -0.045 -0.2025 0 -0.2475c 0.4575 -0.03 0.54 -0.06 0.54 -0.6825v -1.3875c 0 -0.6225 -0.0825 -0.645 -0.54 -0.6825c -0.045 -0.045 -0.045 -0.2025 0 -0.2475c 0.2475 0.0075 0.51 0.015 0.84 0.015c 0.2775 0 0.525 -0.015 1.0275 -0.015c 0.645 0 1.1325 0.18 1.1325 0.9225c 0 0.42 -0.2625 0.7125 -0.72 0.795v 0.0225c 0.345 0.0675 0.6075 0.3075 0.6075 0.7575c 0 0.525 -0.3225 0.75 -1.23 0.75c -0.3075 0 -0.5025 -0.015 -0.825 -0.015Z m 0.3 -1.59h 0.57c 0.4575 0 0.6525 -0.3 0.6525 -0.75c 0 -0.5025 -0.285 -0.645 -0.69 -0.645c -0.39 0 -0.5325 0.0675 -0.5325 0.4125Z m 0 0.2175v 0.87c 0 0.225 0.1725 0.27 0.5325 0.27c 0.39 0 0.6225 -0.105 0.6225 -0.555c 0 -0.3 -0.195 -0.585 -0.66 -0.585Z "/></symbol><symbol id="g24A3F0AF4AD0375F71DE4AF9BEABB01F" overflow="visible"><path d="M 0 0m 2.985 0.6825c -0.03 0.0675 -0.09 0.0975 -0.1575 0.105c -0.255 -0.33 -0.5775 -0.495 -0.9 -0.495c -0.5475 0 -1.005 0.555 -1.005 1.4325c 0 0.825 0.36 1.32 0.855 1.32c 0.4425 0 0.5025 -0.2625 0.5325 -0.525c 0.0225 -0.2025 0.1275 -0.27 0.285 -0.27c 0.1575 0 0.3675 0.0975 0.3675 0.33c 0 0.4125 -0.4275 0.7125 -1.1475 0.7125c -0.7425 0 -1.5375 -0.6675 -1.5375 -1.7325c 0 -0.9675 0.54 -1.635 1.485 -1.635c 0.45 0 0.8475 0.1425 1.2225 0.7575Z "/></symbol><symbol id="g9BD8815497ACE2CCB2ADDC08AAA56E57" overflow="visible"><path d="M 0 0m 3.5925 2.3025c 0 0.6225 0.0825 0.645 0.54 0.6825c 0.045 0.045 0.045 0.2025 0 0.2475c -0.2625 -0.015 -0.5925 -0.015 -0.84 -0.015c -0.21 0 -0.51 0.0075 -0.8025 0.015c -0.045 -0.045 -0.045 -0.2025 0 -0.2475c 0.4575 -0.03 0.51 -0.06 0.51 -0.6825v -0.4875h -1.605v 0.4875c 0 0.6225 0.0525 0.645 0.51 0.6825c 0.045 0.045 0.045 0.2025 0 0.2475c -0.285 -0.0075 -0.57 -0.015 -0.81 -0.015c -0.225 0 -0.5325 0.0075 -0.8325 0.015c -0.045 -0.045 -0.045 -0.2025 0 -0.2475c 0.4575 -0.03 0.54 -0.06 0.54 -0.6825v -1.3875c 0 -0.6225 -0.0825 -0.645 -0.54 -0.6825c -0.045 -0.045 -0.045 -0.2025 0 -0.2475c 0.3 0.0075 0.6 0.015 0.84 0.015c 0.24 0 0.5325 -0.0075 0.8025 -0.015c 0.045 0.045 0.045 0.2025 0 0.2475c -0.4575 0.03 -0.51 0.06 -0.51 0.6825v 0.6525h 1.605v -0.6525c 0 -0.6225 -0.0525 -0.645 -0.51 -0.6825c -0.045 -0.045 -0.045 -0.2025 0 -0.2475c 0.27 0.0075 0.5475 0.015 0.81 0.015c 0.225 0 0.54 -0.0075 0.8325 -0.015c 0.045 0.045 0.045 0.2025 0 0.2475c -0.4575 0.03 -0.54 0.06 -0.54 0.6825Z "/></symbol><symbol id="g4AA8B0C9301EC9E49320F675A5719D84" overflow="visible"><path d="M 0 0m 7.56 5.43c 0 0.91 -0.9 1.4 -1.88 1.4h -3.32c -0.23 0 -0.33 -0.01 -0.33 -0.24c 0 -0.16 0.2 -0.15 0.32 -0.15c 0.3 -0.01 0.48 -0.03 0.53 -0.04c 0.05 -0.01 0.07 -0.04 0.07 -0.09c 0 -0.02 -0.01 -0.08 -0.04 -0.18l -1.32 -5.31c -0.05 -0.22 -0.15 -0.35 -0.3 -0.4c -0.07 -0.02 -0.25 -0.03 -0.56 -0.03c -0.21 0 -0.31 -0.08 -0.31 -0.24c 0 -0.1 0.1 -0.15 0.31 -0.15h 3.53c 0.65 0 1.25 0.2 1.82 0.59c 0.63 0.43 0.95 0.96 0.95 1.58c 0 0.79 -0.65 1.27 -1.36 1.41c 0.88 0.21 1.89 0.88 1.89 1.85Z m -2.02 1.01c 0.69 0 1.04 -0.32 1.04 -0.97c 0 -0.51 -0.2 -0.93 -0.62 -1.27c -0.42 -0.34 -0.89 -0.5 -1.4 -0.5h -1.39l 0.6 2.4c 0.08 0.34 0.08 0.34 0.5 0.34Z m 0.28 -3.45c 0.14 -0.23 0.21 -0.46 0.21 -0.71c 0 -0.52 -0.2 -0.97 -0.61 -1.34c -0.41 -0.37 -0.87 -0.55 -1.4 -0.55h -1.35c -0.1 0 -0.17 0 -0.21 0.01c -0.06 0 -0.09 0.02 -0.09 0.05c 0 0.01 0 0.04 0.01 0.08c 0.31 1.27 0.55 2.23 0.71 2.87h 1.84c 0.43 0 0.72 -0.14 0.89 -0.41Z "/></symbol><symbol id="g8C3D1DE697D76EDA694357F78E3116A2" overflow="visible"><path d="M 0 0m 4.62 2.77c -0.27 0.4 -0.55 0.74 -0.82 1.02c -0.4 0.42 -0.89 0.63 -1.48 0.63c -0.55 0 -1 -0.25 -1.33 -0.75c -0.29 -0.43 -0.43 -0.94 -0.43 -1.52c 0 -0.58 0.14 -1.09 0.42 -1.52c 0.33 -0.49 0.77 -0.74 1.32 -0.74c 1.08 0 1.82 0.83 2.23 1.65c 0.27 -0.4 0.54 -0.74 0.81 -1.02c 0.41 -0.42 0.9 -0.63 1.48 -0.63c 0.13 0 0.27 0.02 0.4 0.05v 0.47c -0.15 -0.03 -0.24 -0.04 -0.27 -0.04c -0.36 0 -0.69 0.16 -0.99 0.48c -0.19 0.21 -0.41 0.51 -0.66 0.88l -0.42 0.62c 0.16 0.36 0.4 0.72 0.71 1.09c 0.36 0.41 0.8 0.62 1.32 0.62c 0.1 0 0.2 -0.02 0.31 -0.05c 0 0.22 -0.02 0.35 -0.05 0.38c -0.07 0.02 -0.18 0.03 -0.33 0.03c -1.07 0 -1.82 -0.83 -2.22 -1.65Z m -0.77 -0.19l 0.41 -0.62c -0.16 -0.36 -0.4 -0.72 -0.71 -1.09c -0.36 -0.41 -0.8 -0.62 -1.32 -0.62c -0.45 0 -0.8 0.21 -1.05 0.64c -0.21 0.36 -0.32 0.78 -0.32 1.26c 0 0.45 0.11 0.84 0.32 1.19c 0.25 0.4 0.59 0.6 1.01 0.6c 0.37 0 0.7 -0.16 0.99 -0.48c 0.19 -0.21 0.42 -0.51 0.67 -0.88Z "/></symbol><symbol id="gEDD91886A3C56BA4A4FF27635933586D" overflow="visible"><path d="M 0 0m 5.94 0.16c 0 -0.11 0.06 -0.16 0.19 -0.16l 1.23 0.03c 0.23 0.01 1.04 -0.03 1.23 -0.03c 0.15 0 0.23 0.08 0.23 0.24c 0 0.1 -0.1 0.15 -0.31 0.15c -0.41 0 -0.61 0.04 -0.61 0.13c 0 0.03 0.02 0.1 0.05 0.23l 1.32 5.27c 0.05 0.21 0.15 0.34 0.28 0.39c 0.06 0.02 0.24 0.03 0.53 0.03c 0.25 0 0.36 0.01 0.36 0.24c 0 0.1 -0.1 0.15 -0.31 0.15h -1.31c -0.29 0 -0.29 -0.02 -0.42 -0.21l -3.56 -5.54l -0.76 5.49c -0.04 0.25 -0.06 0.26 -0.35 0.26h -1.36c -0.22 0 -0.33 -0.01 -0.33 -0.23c 0 -0.11 0.11 -0.16 0.32 -0.16c 0.2 0 0.61 0.03 0.61 -0.13c 0 -0.02 -0.01 -0.08 -0.04 -0.18l -1.26 -5.03c -0.09 -0.38 -0.32 -0.61 -0.67 -0.68c -0.25 -0.03 -0.58 0.01 -0.58 -0.26c 0 -0.11 0.06 -0.16 0.18 -0.16c 0.18 0 0.81 0.03 0.99 0.03c 0.19 0 0.83 -0.03 1.02 -0.03c 0.15 0 0.22 0.08 0.22 0.24c 0 0.09 -0.07 0.14 -0.22 0.15c -0.42 0 -0.63 0.13 -0.63 0.39c 0 0.04 0.01 0.11 0.04 0.22l 1.3 5.21l 0.83 -5.95c 0.03 -0.17 0.09 -0.26 0.19 -0.26c 0.08 0 0.16 0.07 0.25 0.2l 3.89 6.07l -1.36 -5.45c -0.06 -0.22 -0.16 -0.35 -0.31 -0.4c -0.06 -0.02 -0.25 -0.03 -0.56 -0.03c -0.21 0 -0.31 -0.02 -0.31 -0.23Z "/></symbol><symbol id="gE671C321BACDF5664922469AE07CE749" overflow="visible"><path d="M 0 0m 2.471 2.471c 0.469 0.189 0.917 0.602 0.917 1.197c 0 0.315 -0.168 0.567 -0.497 0.749c -0.273 0.154 -0.581 0.231 -0.924 0.231c -0.343 0 -0.644 -0.07 -0.903 -0.217c -0.315 -0.175 -0.476 -0.42 -0.476 -0.735c 0 -0.266 0.133 -0.399 0.392 -0.399c 0.217 0 0.378 0.168 0.378 0.385c 0 0.217 -0.112 0.343 -0.329 0.378c 0.203 0.217 0.504 0.329 0.917 0.329c 0.455 0 0.714 -0.273 0.714 -0.721c 0 -0.329 -0.091 -0.595 -0.266 -0.805c -0.196 -0.231 -0.336 -0.266 -0.742 -0.294c -0.189 -0.014 -0.315 0.007 -0.315 -0.133c 0 -0.084 0.07 -0.126 0.203 -0.126h 0.371c 0.602 0 0.896 -0.455 0.896 -1.085c 0 -0.616 -0.28 -1.085 -0.868 -1.085c -0.511 0 -0.882 0.14 -1.113 0.427c 0.245 0.028 0.371 0.168 0.371 0.413c 0 0.231 -0.175 0.406 -0.406 0.406c -0.273 0 -0.413 -0.14 -0.413 -0.427c 0 -0.357 0.182 -0.644 0.539 -0.847c 0.301 -0.168 0.644 -0.252 1.036 -0.252c 0.427 0 0.798 0.119 1.12 0.357c 0.35 0.259 0.525 0.595 0.525 1.008c 0 0.651 -0.567 1.099 -1.127 1.246Z "/></symbol><symbol id="g4227FD74CA6C7C4D799B7B8E8B3BEA4" overflow="visible"><path d="M 0 0m 2.765 5.124l -2.373 -6.615c -0.056 -0.154 0.021 -0.224 0.105 -0.252c 0.084 -0.028 0.189 -0.028 0.245 0.126l 2.373 6.608c 0.056 0.154 -0.021 0.224 -0.105 0.252c -0.077 0.028 -0.189 0.035 -0.245 -0.119Z "/></symbol><symbol id="gA34FDBAFC63168279C8D1CAFE4C55D67" overflow="visible"><path d="M 0 0m 2.758 4.718c -0.077 0 -0.147 -0.035 -0.203 -0.105l -2.282 -3.192v -0.287h 2.023v -0.539c 0 -0.119 -0.021 -0.203 -0.07 -0.238c -0.049 -0.035 -0.203 -0.056 -0.455 -0.056h -0.217v -0.301l 1.057 0.028l 1.071 -0.028v 0.301h -0.21c -0.259 0 -0.413 0.021 -0.462 0.056c -0.049 0.035 -0.07 0.119 -0.07 0.238v 0.539h 0.763v 0.308h -0.763v 3.052c 0 0.168 -0.021 0.224 -0.182 0.224Z m -0.413 -0.861v -2.415h -1.736Z "/></symbol><symbol id="gC8932C6BA7F518DC74E87E2F4A0224EB" overflow="visible"><path d="M 0 0m 4.0715 2.6095c 0 0.7055 0.0935 0.731 0.612 0.7735c 0.051 0.051 0.051 0.2295 0 0.2805c -0.2975 -0.017 -0.6715 -0.017 -0.952 -0.017c -0.238 0 -0.578 0.0085 -0.9095 0.017c -0.051 -0.051 -0.051 -0.2295 0 -0.2805c 0.5185 -0.034 0.578 -0.068 0.578 -0.7735v -0.5525h -1.819v 0.5525c 0 0.7055 0.0595 0.731 0.578 0.7735c 0.051 0.051 0.051 0.2295 0 0.2805c -0.323 -0.0085 -0.646 -0.017 -0.918 -0.017c -0.255 0 -0.6035 0.0085 -0.9435 0.017c -0.051 -0.051 -0.051 -0.2295 0 -0.2805c 0.5185 -0.034 0.612 -0.068 0.612 -0.7735v -1.5725c 0 -0.7055 -0.0935 -0.731 -0.612 -0.7735c -0.051 -0.051 -0.051 -0.2295 0 -0.2805c 0.34 0.0085 0.68 0.017 0.952 0.017c 0.272 0 0.6035 -0.0085 0.9095 -0.017c 0.051 0.051 0.051 0.2295 0 0.2805c -0.5185 0.034 -0.578 0.068 -0.578 0.7735v 0.7395h 1.819v -0.7395c 0 -0.7055 -0.0595 -0.731 -0.578 -0.7735c -0.051 -0.051 -0.051 -0.2295 0 -0.2805c 0.306 0.0085 0.6205 0.017 0.918 0.017c 0.255 0 0.612 -0.0085 0.9435 -0.017c 0.051 0.051 0.051 0.2295 0 0.2805c -0.5185 0.034 -0.612 0.068 -0.612 0.7735Z "/></symbol><symbol id="gF931FC691828778A920607CF18B9C32A" overflow="visible"><path d="M 0 0m 2.4905 0.408c 0.051 -0.2635 0.1445 -0.493 0.5695 -0.493c 0.323 0 0.629 0.1445 0.8075 0.3145c -0.017 0.102 -0.051 0.1785 -0.1445 0.2295c -0.0595 -0.051 -0.204 -0.136 -0.3145 -0.136c -0.2465 0 -0.255 0.3315 -0.255 0.7225v 1.2495c 0 1.207 -0.663 1.4365 -1.2835 1.4365c -0.697 0 -1.4025 -0.459 -1.4025 -0.9435c 0 -0.204 0.102 -0.306 0.2975 -0.306c 0.2465 0 0.3995 0.1785 0.3995 0.289c 0 0.0595 -0.0085 0.119 -0.0255 0.153c -0.0085 0.0255 -0.017 0.0765 -0.017 0.17c 0 0.2635 0.357 0.357 0.68 0.357c 0.289 0 0.6885 -0.1445 0.6885 -1.105c 0 -0.0595 -0.0255 -0.0935 -0.051 -0.102l -0.731 -0.1785c -0.816 -0.204 -1.4025 -0.6545 -1.4025 -1.2325c 0 -0.697 0.476 -0.918 1.071 -0.918c 0.2975 0 0.5525 0.068 0.9265 0.357l 0.17 0.136Z m 0 1.5725v -1.122c 0 -0.1105 -0.051 -0.17 -0.119 -0.221c -0.221 -0.1785 -0.51 -0.374 -0.748 -0.374c -0.425 0 -0.612 0.34 -0.612 0.6035c 0 0.3825 0.1785 0.7735 0.8075 0.935Z "/></symbol><symbol id="gA501B866130BB2CA150759E9628F05FB" overflow="visible"><path d="M 0 0m 3.281 0c 0 0 0.663 -0.0085 0.833 -0.017c 0.051 0.051 0.051 0.2295 0 0.2805c -0.3315 0.017 -0.3995 0.085 -0.544 0.357l -0.3825 0.7225c -0.2125 0.3995 -0.51 0.6035 -0.9945 0.6035v 0.0255c 0.3315 0.0935 0.476 0.391 0.6035 0.731c 0.102 0.2635 0.204 0.425 0.3825 0.425c 0.0765 0 0.1445 -0.0255 0.1955 -0.0595c 0.051 -0.034 0.1445 -0.0595 0.255 -0.0595c 0.187 0 0.34 0.1615 0.34 0.3315c 0 0.187 -0.204 0.3825 -0.4845 0.3825c -0.493 0 -0.7225 -0.459 -0.884 -0.8585c -0.187 -0.4675 -0.4165 -0.7905 -1.02 -0.7905v 0.5355c 0 0.7055 0.0935 0.731 0.527 0.7735c 0.051 0.051 0.051 0.2295 0 0.2805c -0.204 -0.0085 -0.527 -0.017 -0.867 -0.017c -0.3655 0 -0.663 0.0085 -0.9435 0.017c -0.051 -0.051 -0.051 -0.2295 0 -0.2805c 0.5185 -0.034 0.612 -0.068 0.612 -0.7735v -1.5725c 0 -0.7055 -0.0935 -0.731 -0.612 -0.7735c -0.051 -0.051 -0.051 -0.2295 0 -0.2805c 0.2805 0.0085 0.578 0.017 0.952 0.017c 0.3315 0 0.6715 -0.0085 0.8585 -0.017c 0.051 0.051 0.051 0.2295 0 0.2805c -0.4335 0.034 -0.527 0.068 -0.527 0.7735v 0.7395c 0.578 -0.034 0.731 -0.2635 0.884 -0.578l 0.3655 -0.765c 0.1105 -0.2295 0.2805 -0.425 0.4505 -0.4335Z "/></symbol><symbol id="gB3F6F741CFF64E2F87AE274E4C795DAE" overflow="visible"><path d="M 0 0m 3.553 1.037v 1.5725c 0 0.697 0.1105 0.7395 0.578 0.7735c 0.051 0.051 0.051 0.2295 0 0.2805c -0.255 -0.0085 -0.578 -0.017 -0.918 -0.017h -1.6065c -0.2805 0 -0.612 0.0085 -0.867 0.017c -0.051 -0.051 -0.051 -0.2295 0 -0.2805c 0.6035 -0.0425 0.6885 -0.0935 0.6885 -1.0115c 0 -0.8925 -0.068 -1.36 -0.187 -1.7085c -0.1105 -0.306 -0.255 -0.4165 -0.3995 -0.4165c -0.1105 0 -0.1445 0.068 -0.1615 0.1785c -0.0255 0.1615 -0.0765 0.323 -0.3145 0.323c -0.2125 0 -0.3315 -0.17 -0.3315 -0.357c 0 -0.2635 0.238 -0.493 0.629 -0.493c 0.4335 0 0.6715 0.221 0.867 0.68c 0.17 0.408 0.221 1.275 0.221 1.853c 0 0.663 0.0255 0.884 0.3655 0.884h 0.3825c 0.323 0 0.3825 -0.204 0.3825 -0.493v -1.785c 0 -0.697 -0.085 -0.7395 -0.527 -0.7735c -0.0425 -0.051 -0.0425 -0.2295 0 -0.2805c 0.2125 0.0085 0.527 0.017 0.867 0.017c 0.34 0 0.7225 -0.0085 0.9605 -0.017c 0.0425 0.051 0.0425 0.2295 0 0.2805c -0.5525 0.034 -0.629 0.0765 -0.629 0.7735Z "/></symbol><symbol id="gE34E15A46C94CBC2E6ABE8844A1DDB21" overflow="visible"><path d="M 0 0m 0.3485 1.7425c 0 -0.867 0.578 -1.8275 1.785 -1.8275c 0.544 0 0.9605 0.1955 1.2495 0.476c 0.3825 0.374 0.5525 0.9095 0.5525 1.428c 0 0.884 -0.4845 1.9125 -1.785 1.9125c -0.561 0 -1.02 -0.2295 -1.3345 -0.595c -0.306 -0.3655 -0.4675 -0.8585 -0.4675 -1.394Z m 1.6745 1.6915c 0.731 0 1.1815 -0.663 1.1815 -1.887c 0 -1.071 -0.5525 -1.3345 -0.952 -1.3345c -0.884 0 -1.173 1.071 -1.173 1.7255c 0 0.7395 0.1785 1.496 0.9435 1.496Z "/></symbol><symbol id="gC93E921AEAEC051AF54DEF19CEE5AFC4" overflow="visible"><path d="M 0 0m 1.8275 4.8875c 0.3655 0 0.7055 -0.221 0.7055 -0.765c 0 -0.425 -0.493 -1.0795 -1.3345 -1.1985l 0.0425 -0.272c 0.1445 0.017 0.2975 0.017 0.408 0.017c 0.4845 0 1.1135 -0.136 1.1135 -1.0965c 0 -1.1305 -0.7565 -1.36 -1.054 -1.36c -0.4335 0 -0.51 0.1955 -0.612 0.3485c -0.085 0.119 -0.1955 0.221 -0.3655 0.221c -0.1785 0 -0.357 -0.1615 -0.357 -0.2975c 0 -0.34 0.714 -0.5695 1.224 -0.5695c 1.0115 0 1.9125 0.6545 1.9125 1.7765c 0 0.9265 -0.697 1.258 -1.1985 1.343l -0.0085 0.017c 0.697 0.3315 0.8925 0.68 0.8925 1.1305c 0 0.255 -0.0595 0.459 -0.2635 0.6715c -0.187 0.187 -0.4845 0.3315 -0.9265 0.3315c -1.2495 0 -1.6065 -0.816 -1.6065 -1.0965c 0 -0.119 0.085 -0.289 0.289 -0.289c 0.2975 0 0.3315 0.2805 0.3315 0.442c 0 0.544 0.5865 0.646 0.8075 0.646Z "/></symbol><symbol id="g7D75CE9E78896E08E670B4F3199665FA" overflow="visible"><path d="M 0 0m 2.4905 5.491h -0.3485l -2.0145 -5.9925h 0.3485Z "/></symbol><symbol id="gD7F3603AE07CA6EC40268D26CF17A17B" overflow="visible"><path d="M 0 0m 3.655 1.8615h -0.7055v 2.482c 0 0.425 0 0.7565 0.017 0.8245l -0.017 0.017h -0.272c -0.0595 0 -0.102 -0.051 -0.136 -0.0935c -0.5355 -0.6545 -1.5215 -2.057 -2.3035 -3.2725c 0.0255 -0.1275 0.0765 -0.357 0.3315 -0.357h 1.734v -0.782c 0 -0.391 -0.323 -0.391 -0.6885 -0.4165c -0.051 -0.051 -0.051 -0.2295 0 -0.2805c 0.272 0.0085 0.612 0.017 1.003 0.017c 0.3315 0 0.6545 -0.0085 0.9265 -0.017c 0.051 0.051 0.051 0.2295 0 0.2805c -0.4165 0.034 -0.595 0.017 -0.595 0.4165v 0.782h 0.5865c 0.119 0 0.2465 0.1615 0.2465 0.2635c 0 0.085 -0.034 0.136 -0.1275 0.136Z m -1.3515 2.448v -2.448h -1.6235c 0.4335 0.697 1.037 1.649 1.6235 2.448Z "/></symbol><symbol id="g3D9A67B9902CBFFCF1182D85B33DBA41" overflow="visible"><path d="M 0 0m 1.241 3.6465c -0.3655 0 -0.663 0.0085 -0.9435 0.017c -0.051 -0.051 -0.051 -0.2295 0 -0.2805c 0.5185 -0.034 0.612 -0.068 0.612 -0.7735v -1.5725c 0 -0.7055 -0.0935 -0.731 -0.612 -0.7735c -0.051 -0.051 -0.051 -0.2295 0 -0.2805c 0.2805 0.0085 0.578 0.017 0.952 0.017c 0.3145 0 0.595 -0.017 1.1645 -0.017c 0.731 0 1.2835 0.204 1.2835 1.0455c 0 0.476 -0.2975 0.8075 -0.816 0.901v 0.0255c 0.391 0.0765 0.6885 0.3485 0.6885 0.8585c 0 0.595 -0.3655 0.85 -1.394 0.85c -0.3485 0 -0.5695 -0.017 -0.935 -0.017Z m 0.34 -1.802h 0.646c 0.5185 0 0.7395 -0.34 0.7395 -0.85c 0 -0.5695 -0.323 -0.731 -0.782 -0.731c -0.442 0 -0.6035 0.0765 -0.6035 0.4675Z m 0 0.2465v 0.986c 0 0.255 0.1955 0.306 0.6035 0.306c 0.442 0 0.7055 -0.119 0.7055 -0.629c 0 -0.34 -0.221 -0.663 -0.748 -0.663Z "/></symbol><symbol id="gDEA2A0379B7527B5C1F8D88530B6617D" overflow="visible"><path d="M 0 0m 0.9945 2.601l -0.051 -1.581c -0.0255 -0.714 -0.153 -0.731 -0.646 -0.7565c -0.051 -0.051 -0.051 -0.2295 0 -0.2805c 0.17 0.0085 0.595 0.017 0.731 0.017c 0.17 0 0.5695 -0.0085 0.7395 -0.017c 0.051 0.051 0.051 0.2295 0 0.2805c -0.4845 0.034 -0.5185 0.119 -0.5015 0.7565l 0.0595 2.0825c 0 0.0765 0.034 0.0765 0.068 0l 1.2325 -3.009c 0.034 -0.0255 0.068 -0.0255 0.0935 0l 1.394 3.0005c 0.0425 0.0935 0.085 0.102 0.085 0l -0.0085 -2.057c 0 -0.7055 -0.0595 -0.731 -0.578 -0.7735c -0.051 -0.051 -0.051 -0.2295 0 -0.2805c 0.306 0.0085 0.6205 0.017 0.918 0.017c 0.255 0 0.6205 -0.0085 0.952 -0.017c 0.051 0.051 0.051 0.2295 0 0.2805c -0.5185 0.034 -0.612 0.068 -0.612 0.7735l -0.017 1.5725c -0.0085 0.7055 0.0935 0.731 0.612 0.7735c 0.051 0.051 0.051 0.2295 0 0.2805c -0.2975 -0.017 -1.122 -0.017 -1.4025 -0.017l -1.1305 -2.431l -0.0425 -0.085l -0.034 0.085l -0.9945 2.431c -0.2805 0 -1.1815 0 -1.479 0.017c -0.051 -0.051 -0.051 -0.2295 0 -0.2805c 0.5185 -0.0425 0.6375 -0.0765 0.612 -0.782Z "/></symbol><symbol id="g5D2E58E4CDB4D7E6C81847885E22D756" overflow="visible"><path d="M 0 0m 3.281 0.7905c -0.3145 -0.323 -0.561 -0.459 -1.054 -0.459c -0.306 0 -0.663 0.1785 -0.9265 0.612c -0.17 0.2805 -0.272 0.6715 -0.272 1.1645l 2.261 -0.017c 0.102 0 0.1615 0.051 0.1615 0.1445c 0 0.714 -0.255 1.479 -1.4365 1.479c -0.7395 0 -1.7 -0.7055 -1.7 -1.9975c 0 -0.476 0.119 -0.935 0.3995 -1.258c 0.289 -0.34 0.6885 -0.544 1.3005 -0.544c 0.646 0 1.105 0.2975 1.445 0.7395c -0.0255 0.085 -0.0765 0.1275 -0.1785 0.136Z m -2.227 1.6065c 0.1615 0.9605 0.7565 1.037 0.9605 1.037c 0.323 0 0.7055 -0.1785 0.7055 -0.8925c 0 -0.0765 -0.034 -0.119 -0.1275 -0.119Z "/></symbol><symbol id="g1EEFC323E4FEBE7654D5CC1583F61AF4" overflow="visible"><path d="M 0 0m 3.383 0.7735c -0.034 0.0765 -0.102 0.1105 -0.1785 0.119c -0.289 -0.374 -0.6545 -0.561 -1.02 -0.561c -0.6205 0 -1.139 0.629 -1.139 1.6235c 0 0.935 0.408 1.496 0.969 1.496c 0.5015 0 0.5695 -0.2975 0.6035 -0.595c 0.0255 -0.2295 0.1445 -0.306 0.323 -0.306c 0.1785 0 0.4165 0.1105 0.4165 0.374c 0 0.4675 -0.4845 0.8075 -1.3005 0.8075c -0.8415 0 -1.7425 -0.7565 -1.7425 -1.9635c 0 -1.0965 0.612 -1.853 1.683 -1.853c 0.51 0 0.9605 0.1615 1.3855 0.8585Z "/></symbol><symbol id="g3EDD64AE7B5A40E8FE9DD75D51E8EE8A" overflow="visible"><path d="M 0 0m 1.547 1.037c 0 -0.7055 -0.0935 -0.748 -0.612 -0.7735c -0.051 -0.051 -0.051 -0.2295 0 -0.2805c 0.3315 0.0085 0.6715 0.017 0.952 0.017c 0.289 0 0.6205 -0.0085 0.9435 -0.017c 0.051 0.051 0.051 0.2295 0 0.2805c -0.5185 0.0255 -0.612 0.068 -0.612 0.7735v 2.295h 0.1445c 0.6885 0 0.8245 -0.238 0.969 -0.9265c 0.1105 0 0.221 0.034 0.221 0.034c -0.051 0.391 -0.085 0.765 -0.0935 1.258c -0.1955 -0.017 -0.833 -0.051 -1.258 -0.051h -0.6375c -0.425 0 -0.901 0.0255 -1.241 0.051c -0.0085 -0.493 -0.0425 -0.867 -0.102 -1.258c 0 0 0.119 -0.034 0.2295 -0.034c 0.1445 0.6885 0.272 0.9265 0.969 0.9265h 0.1275Z "/></symbol><symbol id="gEF81C0034748F108B423DC4F87ECC2EA" overflow="visible"><path d="M 0 0m 0.9265 0c 0.17 0.0085 0.3145 0.204 0.425 0.4335l 0.3655 0.765c 0.153 0.3145 0.391 0.544 0.969 0.578v -0.7395c 0 -0.7055 -0.102 -0.731 -0.5355 -0.7735c -0.051 -0.051 -0.051 -0.2295 0 -0.2805c 0.1955 0.0085 0.51 0.017 0.85 0.017c 0.3315 0 0.6545 -0.0085 0.8415 -0.017c 0.051 0.051 0.051 0.2295 0 0.2805c -0.4335 0.034 -0.5355 0.068 -0.5355 0.7735v 0.7395c 0.578 -0.034 0.816 -0.2635 0.969 -0.578l 0.3655 -0.765c 0.1105 -0.2295 0.255 -0.425 0.425 -0.4335c 0 0 0.629 -0.0085 0.799 -0.017c 0.051 0.051 0.051 0.2295 0 0.2805c -0.3315 0.017 -0.4165 0.085 -0.561 0.357l -0.3825 0.7225c -0.2125 0.3995 -0.493 0.6035 -0.9775 0.6035v 0.0255c 0.3315 0.0935 0.476 0.391 0.6035 0.731c 0.102 0.2635 0.204 0.425 0.3825 0.425c 0.0765 0 0.1445 -0.0255 0.1955 -0.0595c 0.051 -0.034 0.1445 -0.0595 0.255 -0.0595c 0.187 0 0.34 0.1615 0.34 0.3315c 0 0.187 -0.204 0.3825 -0.4845 0.3825c -0.493 0 -0.7225 -0.459 -0.884 -0.8585c -0.187 -0.4675 -0.442 -0.7905 -1.0455 -0.7905v 0.5355c 0 0.7055 0.102 0.731 0.5355 0.7735c 0.051 0.051 0.051 0.2295 0 0.2805c -0.204 -0.0085 -0.51 -0.017 -0.85 -0.017c -0.3315 0 -0.646 0.0085 -0.8415 0.017c -0.051 -0.051 -0.051 -0.2295 0 -0.2805c 0.4335 -0.034 0.5355 -0.068 0.5355 -0.7735v -0.5355c -0.6035 0 -0.8585 0.323 -1.0455 0.7905c -0.1615 0.3995 -0.391 0.8585 -0.884 0.8585c -0.2805 0 -0.4845 -0.1955 -0.4845 -0.3825c 0 -0.17 0.153 -0.3315 0.34 -0.3315c 0.1105 0 0.204 0.0255 0.255 0.0595c 0.051 0.034 0.119 0.0595 0.1955 0.0595c 0.1785 0 0.2805 -0.1615 0.3825 -0.425c 0.1275 -0.34 0.272 -0.6375 0.6035 -0.731v -0.0255c -0.4845 0 -0.765 -0.204 -0.9775 -0.6035l -0.3825 -0.7225c -0.1445 -0.272 -0.2295 -0.34 -0.561 -0.357c -0.051 -0.051 -0.051 -0.2295 0 -0.2805c 0.17 0.0085 0.799 0.017 0.799 0.017Z "/></symbol><symbol id="gE7AE90A8EDDEF3DDB67EE78D36D80337" overflow="visible"><path d="M 0 0m 1.683 0.5355c -0.0255 0 -0.0595 0.017 -0.0595 0.102v 1.938c 0 0.7055 0.1785 0.782 0.612 0.8075c 0.051 0.051 0.051 0.2295 0 0.2805c -0.1955 -0.0085 -0.68 -0.017 -0.9945 -0.017c -0.2805 0 -0.6205 0.0085 -0.9435 0.017c -0.051 -0.051 -0.051 -0.2295 0 -0.2805c 0.5185 -0.0255 0.6545 -0.102 0.6545 -0.8075v -1.5045c 0 -0.7055 -0.136 -0.782 -0.6545 -0.8075c -0.051 -0.051 -0.051 -0.2295 0 -0.2805c 0.3315 0.0085 0.6715 0.017 0.9435 0.017c 0.1955 0 0.425 -0.0085 0.5185 -0.017c 0.0425 0.119 0.119 0.289 0.2125 0.459l 1.326 2.6605c 0.0255 0 0.0595 -0.017 0.0595 -0.102v -1.9295c 0 -0.7055 -0.1785 -0.782 -0.612 -0.8075c -0.051 -0.051 -0.051 -0.2295 0 -0.2805c 0.1955 0.0085 0.6545 0.017 0.9945 0.017c 0.2635 0 0.612 -0.0085 0.9435 -0.017c 0.051 0.051 0.051 0.2295 0 0.2805c -0.5185 0.0255 -0.6545 0.102 -0.6545 0.8075v 1.5045c 0 0.7055 0.136 0.782 0.6545 0.8075c 0.051 0.051 0.051 0.2295 0 0.2805c -0.34 -0.0085 -0.68 -0.017 -0.9435 -0.017c -0.187 0 -0.425 0.0085 -0.51 0.017c -0.068 -0.153 -0.1445 -0.3315 -0.221 -0.476Z "/></symbol><symbol id="gBAF1B227155053221F22F6E06EEFED60" overflow="visible"><path d="M 0 0m 1.6065 3.6465c -0.2805 0 -0.612 0.0085 -0.867 0.017c -0.051 -0.051 -0.051 -0.2295 0 -0.2805c 0.5185 -0.0425 0.6715 -0.0765 0.6375 -0.782c -0.034 -0.782 -0.17 -1.411 -0.3145 -2.006c -0.051 -0.2295 -0.2975 -0.306 -0.5355 -0.3315c -0.1275 -0.017 -0.2465 -0.068 -0.255 -0.221l -0.051 -1.1305c 0.0595 -0.0255 0.1275 -0.034 0.2295 -0.0085c 0.0765 0.3145 0.306 1.0965 1.071 1.0965h 1.4705c 0.7565 0 1.003 -0.765 1.0795 -1.105c 0.0765 -0.017 0.153 -0.017 0.238 0.017l -0.051 1.139c 0 0.119 -0.068 0.187 -0.2295 0.2125c -0.153 0.0255 -0.3655 0.085 -0.3655 0.3995v 1.9465c 0 0.697 0.1105 0.7395 0.578 0.7735c 0.051 0.051 0.051 0.2295 0 0.2805c -0.255 -0.0085 -0.578 -0.017 -0.918 -0.017Z m -0.238 -3.213c 0 0.1445 0.2295 0.7055 0.357 2.652c 0.0085 0.1275 0.068 0.238 0.2975 0.238h 0.5865c 0.34 0 0.3825 -0.238 0.3825 -0.527v -2.0485c 0 -0.2805 -0.017 -0.4165 -0.357 -0.4165h -1.0965c -0.0935 0 -0.17 0.0085 -0.17 0.102Z "/></symbol><symbol id="g263F4FD32CCD3C47111457350A4C543D" overflow="visible"><path d="M 0 0m 1.581 2.601c 0 0.714 0.0935 0.7395 0.612 0.782c 0.051 0.051 0.051 0.2295 0 0.2805c -0.289 -0.0085 -0.578 -0.017 -0.952 -0.017c -0.3655 0 -0.663 0.0085 -0.9435 0.017c -0.051 -0.051 -0.051 -0.2295 0 -0.2805c 0.5185 -0.034 0.612 -0.068 0.612 -0.7735v -1.5725c 0 -0.7055 -0.0935 -0.731 -0.612 -0.7735c -0.051 -0.051 -0.051 -0.2295 0 -0.2805c 0.2805 0.0085 0.578 0.017 0.952 0.017c 0.3485 0 0.5355 -0.017 0.884 -0.017c 1.0455 0 1.615 0.2635 1.615 1.173c 0 0.799 -0.697 1.0285 -1.5555 1.0285h -0.612Z m 3.6635 0.0085c 0 0.7055 0.0935 0.731 0.612 0.7735c 0.051 0.051 0.051 0.2295 0 0.2805c -0.289 -0.0085 -0.578 -0.017 -0.952 -0.017c -0.3655 0 -0.663 0.0085 -0.9435 0.017c -0.051 -0.051 -0.051 -0.2295 0 -0.2805c 0.5185 -0.034 0.612 -0.068 0.612 -0.7735v -1.5725c 0 -0.7055 -0.0935 -0.731 -0.612 -0.7735c -0.051 -0.051 -0.051 -0.2295 0 -0.2805c 0.2805 0.0085 0.578 0.017 0.952 0.017c 0.3655 0 0.6715 -0.0085 0.9435 -0.017c 0.051 0.051 0.051 0.2295 0 0.2805c -0.5185 0.034 -0.612 0.068 -0.612 0.7735Z m -2.227 -1.5385c 0 -0.697 -0.425 -0.8075 -0.8755 -0.8075c -0.4165 0 -0.561 0.085 -0.561 0.3825v 1.258h 0.6035c 0.6375 0 0.833 -0.3825 0.833 -0.833Z "/></symbol><symbol id="g2C6A451F1957B6BC42824B2C440B7E11" overflow="visible"><path d="M 0 0m 1.547 3.043c -0.1955 0.289 -0.136 0.2975 0.2465 0.34c 0.051 0.051 0.051 0.2295 0 0.2805c -0.2295 -0.0085 -0.6035 -0.017 -0.8585 -0.017c -0.255 0 -0.51 0.0085 -0.731 0.017c -0.051 -0.051 -0.051 -0.2295 0 -0.2805c 0.289 -0.0255 0.527 -0.17 0.765 -0.5185l 0.7395 -1.0795c 0.0425 -0.0595 0.0425 -0.085 0.0085 -0.1275l -0.714 -0.918c -0.34 -0.4335 -0.527 -0.459 -0.8245 -0.476c -0.051 -0.051 -0.051 -0.2295 0 -0.2805c 0.17 0.0085 0.357 0.017 0.612 0.017c 0.255 0 0.493 -0.0085 0.714 -0.017c 0.051 0.051 0.051 0.2295 0 0.2805c -0.306 0.034 -0.374 0.068 -0.187 0.34l 0.5355 0.7735c 0.068 0.102 0.102 0.0935 0.153 0.017l 0.493 -0.68c 0.2975 -0.408 0.1615 -0.425 -0.1105 -0.4505c -0.051 -0.051 -0.051 -0.2295 0 -0.2805c 0.255 0.0085 0.5355 0.017 0.8415 0.017c 0.323 0 0.5525 -0.0085 0.7565 -0.017c 0.051 0.051 0.051 0.2295 0 0.2805c -0.3825 0.0255 -0.51 0.051 -0.85 0.5355l -0.765 1.0795c -0.034 0.051 -0.0425 0.0765 0 0.1275l 0.714 0.9095c 0.3145 0.3995 0.5185 0.442 0.8245 0.4675c 0.051 0.051 0.051 0.2295 0 0.2805c -0.17 -0.0085 -0.3655 -0.017 -0.6205 -0.017c -0.255 0 -0.493 0.0085 -0.714 0.017c -0.051 -0.051 -0.051 -0.2295 0 -0.2805c 0.3145 -0.034 0.408 -0.0595 0.204 -0.3485l -0.5525 -0.7735c -0.0595 -0.085 -0.0935 -0.0765 -0.1615 0.017Z "/></symbol><symbol id="g34E634B8D08F8B91F4ACC67018EAE93C" overflow="visible"><path d="M 0 0m 0.5185 3.978c 0 -0.1785 0.1615 -0.3315 0.34 -0.3315c 0.1445 0 0.3995 0.153 0.3995 0.34c 0 0.068 -0.017 0.119 -0.034 0.1785c -0.017 0.0595 -0.068 0.136 -0.068 0.204c 0 0.2125 0.221 0.5185 0.8415 0.5185c 0.306 0 0.7395 -0.2125 0.7395 -1.0285c 0 -0.544 -0.1955 -0.986 -0.697 -1.496l -0.629 -0.6205c -0.833 -0.85 -0.969 -1.258 -0.969 -1.7595c 0 0 0.4335 0.017 0.7055 0.017h 1.4875c 0.272 0 0.663 -0.017 0.663 -0.017c 0.1105 0.4505 0.1955 1.088 0.204 1.343c -0.051 0.0425 -0.1615 0.0595 -0.2465 0.0425c -0.1445 -0.6035 -0.289 -0.816 -0.595 -0.816h -1.513c 0 0.408 0.5865 0.986 0.629 1.0285l 0.8585 0.8245c 0.4845 0.4675 0.85 0.8415 0.85 1.4875c 0 0.918 -0.748 1.292 -1.4365 1.292c -0.9435 0 -1.53 -0.697 -1.53 -1.207Z "/></symbol></defs></svg>