<svg viewBox="0 0 198.164606299 103.874015748" width="198.164606299pt" height="103.874015748pt" xmlns="http://www.w3.org/2000/svg" xmlns:xlink="http://www.w3.org/1999/xlink" xmlns:h5="http://www.w3.org/1999/xhtml"><path fill="#ffffff" fill-rule="nonzero" d="M 0 0v 103.874015748h 198.164606299v -103.874015748Z "/><g transform="translate(8 8)"><path fill="#d2cfc8" fill-rule="nonzero" stroke="#1a1a18" stroke-width="1.2" stroke-linecap="butt" stroke-linejoin="miter" stroke-miterlimit="4" transform="translate(1.417322835 1.417322835)" d="M 0 0m 0 85.039370079h 113.385826772v -45.354330709h -56.692913386v -39.68503937h -56.692913386v 85.039370079Z "/><path fill="none" stroke="#7c7f6a" stroke-width="0.7" stroke-linecap="butt" stroke-linejoin="miter" stroke-miterlimit="4" transform="translate(1.417322835 86.456692913)" d="M 0 0h 28.346456693"/><path fill="none" stroke="#7c7f6a" stroke-width="0.7" stroke-linecap="butt" stroke-linejoin="miter" stroke-miterlimit="4" transform="translate(1.417322835 58.11023622)" d="M 0 0h 28.346456693"/><path fill="none" stroke="#7c7f6a" stroke-width="0.7" stroke-linecap="butt" stroke-linejoin="miter" stroke-miterlimit="4" transform="translate(1.417322835 58.11023622)" d="M 0 0m 0 28.346456693v -28.346456693"/><path fill="none" stroke="#7c7f6a" stroke-width="0.7" stroke-linecap="butt" stroke-linejoin="miter" stroke-miterlimit="4" transform="translate(1.417322835 58.11023622)" d="M 0 0m 0 28.346456693l 28.346456693 -28.346456693"/><path fill="none" stroke="#7c7f6a" stroke-width="0.7" stroke-linecap="butt" stroke-linejoin="miter" stroke-miterlimit="4" transform="translate(29.763779528 86.456692913)" d="M 0 0h 28.346456693"/><path fill="none" stroke="#7c7f6a" stroke-width="0.7" stroke-linecap="butt" stroke-linejoin="miter" stroke-miterlimit="4" transform="translate(29.763779528 58.11023622)" d="M 0 0h 28.346456693"/><path fill="none" stroke="#7c7f6a" stroke-width="0.7" stroke-linecap="butt" stroke-linejoin="miter" stroke-miterlimit="4" transform="translate(29.763779528 58.11023622)" d="M 0 0m 0 28.346456693v -28.346456693"/><path fill="none" stroke="#7c7f6a" stroke-width="0.7" stroke-linecap="butt" stroke-linejoin="miter" stroke-miterlimit="4" transform="translate(29.763779528 58.11023622)" d="M 0 0m 0 28.346456693l 28.346456693 -28.346456693"/><path fill="none" stroke="#7c7f6a" stroke-width="0.7" stroke-linecap="butt" stroke-linejoin="miter" stroke-miterlimit="4" transform="translate(58.11023622 86.456692913)" d="M 0 0h 28.346456693"/><path fill="none" stroke="#7c7f6a" stroke-width="0.7" stroke-linecap="butt" stroke-linejoin="miter" stroke-miterlimit="4" transform="translate(58.11023622 58.11023622)" d="M 0 0h 28.346456693"/><path fill="none" stroke="#7c7f6a" stroke-width="0.7" stroke-linecap="butt" stroke-linejoin="miter" stroke-miterlimit="4" transform="translate(58.11023622 58.11023622)" d="M 0 0m 0 28.346456693v -28.346456693"/><path fill="none" stroke="#7c7f6a" stroke-width="0.7" stroke-linecap="butt" stroke-linejoin="miter" stroke-miterlimit="4" transform="translate(58.11023622 58.11023622)" d="M 0 0m 0 28.346456693l 28.346456693 -28.346456693"/><path fill="none" stroke="#7c7f6a" stroke-width="0.7" stroke-linecap="butt" stroke-linejoin="miter" stroke-miterlimit="4" transform="translate(86.456692913 86.456692913)" d="M 0 0h 28.346456693"/><path fill="none" stroke="#7c7f6a" stroke-width="0.7" stroke-linecap="butt" stroke-linejoin="miter" stroke-miterlimit="4" transform="translate(86.456692913 58.11023622)" d="M 0 0h 28.346456693"/><path fill="none" stroke="#7c7f6a" stroke-width="0.7" stroke-linecap="butt" stroke-linejoin="miter" stroke-miterlimit="4" transform="translate(86.456692913 58.11023622)" d="M 0 0m 0 28.346456693v -28.346456693"/><path fill="none" stroke="#7c7f6a" stroke-width="0.7" stroke-linecap="butt" stroke-linejoin="miter" stroke-miterlimit="4" transform="translate(86.456692913 58.11023622)" d="M 0 0m 0 28.346456693l 28.346456693 -28.346456693"/><path fill="none" stroke="#7c7f6a" stroke-width="0.7" stroke-linecap="butt" stroke-linejoin="miter" stroke-miterlimit="4" transform="translate(114.803149606 58.11023622)" d="M 0 0m 0 28.346456693v -28.346456693"/><path fill="none" stroke="#7c7f6a" stroke-width="0.7" stroke-linecap="butt" stroke-linejoin="miter" stroke-miterlimit="4" transform="translate(1.417322835 58.11023622)" d="M 0 0h 28.346456693"/><path fill="none" stroke="#7c7f6a" stroke-width="0.7" stroke-linecap="butt" stroke-linejoin="miter" stroke-miterlimit="4" transform="translate(1.417322835 29.763779528)" d="M 0 0h 28.346456693"/><path fill="none" stroke="#7c7f6a" stroke-width="0.7" stroke-linecap="butt" stroke-linejoin="miter" stroke-miterlimit="4" transform="translate(1.417322835 1.417322835)" d="M 0 0h 28.346456693"/><path fill="none" stroke="#7c7f6a" stroke-width="0.7" stroke-linecap="butt" stroke-linejoin="miter" stroke-miterlimit="4" transform="translate(29.763779528 58.11023622)" d="M 0 0h 28.346456693"/><path fill="none" stroke="#7c7f6a" stroke-width="0.7" stroke-linecap="butt" stroke-linejoin="miter" stroke-miterlimit="4" transform="translate(29.763779528 29.763779528)" d="M 0 0h 28.346456693"/><path fill="none" stroke="#7c7f6a" stroke-width="0.7" stroke-linecap="butt" stroke-linejoin="miter" stroke-miterlimit="4" transform="translate(29.763779528 1.417322835)" d="M 0 0h 28.346456693"/><path fill="none" stroke="#7c7f6a" stroke-width="0.7" stroke-linecap="butt" stroke-linejoin="miter" stroke-miterlimit="4" transform="translate(1.417322835 29.763779528)" d="M 0 0m 0 28.346456693v -28.346456693"/><path fill="none" stroke="#7c7f6a" stroke-width="0.7" stroke-linecap="butt" stroke-linejoin="miter" stroke-miterlimit="4" transform="translate(29.763779528 29.763779528)" d="M 0 0m 0 28.346456693v -28.346456693"/><path fill="none" stroke="#7c7f6a" stroke-width="0.7" stroke-linecap="butt" stroke-linejoin="miter" stroke-miterlimit="4" transform="translate(58.11023622 29.763779528)" d="M 0 0m 0 28.346456693v -28.346456693"/><path fill="none" stroke="#7c7f6a" stroke-width="0.7" stroke-linecap="butt" stroke-linejoin="miter" stroke-miterlimit="4" transform="translate(1.417322835 1.417322835)" d="M 0 0m 0 28.346456693v -28.346456693"/><path fill="none" stroke="#7c7f6a" stroke-width="0.7" stroke-linecap="butt" stroke-linejoin="miter" stroke-miterlimit="4" transform="translate(1.417322835 29.763779528)" d="M 0 0m 0 28.346456693l 28.346456693 -28.346456693"/><path fill="none" stroke="#7c7f6a" stroke-width="0.7" stroke-linecap="butt" stroke-linejoin="miter" stroke-miterlimit="4" transform="translate(1.417322835 1.417322835)" d="M 0 0m 0 28.346456693l 28.346456693 -28.346456693"/><path fill="none" stroke="#7c7f6a" stroke-width="0.7" stroke-linecap="butt" stroke-linejoin="miter" stroke-miterlimit="4" transform="translate(29.763779528 1.417322835)" d="M 0 0m 0 28.346456693v -28.346456693"/><path fill="none" stroke="#7c7f6a" stroke-width="0.7" stroke-linecap="butt" stroke-linejoin="miter" stroke-miterlimit="4" transform="translate(29.763779528 29.763779528)" d="M 0 0m 0 28.346456693l 28.346456693 -28.346456693"/><path fill="none" stroke="#7c7f6a" stroke-width="0.7" stroke-linecap="butt" stroke-linejoin="miter" stroke-miterlimit="4" transform="translate(29.763779528 1.417322835)" d="M 0 0m 0 28.346456693l 28.346456693 -28.346456693"/><path fill="#1a1a18" fill-rule="nonzero" transform="translate(0 85.039370079)" d="M 0 0m 1.417322835 0c -0.782056063 0 -1.417322835 0.635266772 -1.417322835 1.417322835c 0 0.782056063 0.635266772 1.417322835 1.417322835 1.417322835c 0.782056063 0 1.417322835 -0.635266772 1.417322835 -1.417322835c 0 -0.782056063 -0.635266772 -1.417322835 -1.417322835 -1.417322835Z "/><path fill="#1a1a18" fill-rule="nonzero" transform="translate(28.346456693 85.039370079)" d="M 0 0m 1.417322835 0c -0.782056063 0 -1.417322835 0.635266772 -1.417322835 1.417322835c 0 0.782056063 0.635266772 1.417322835 1.417322835 1.417322835c 0.782056063 0 1.417322835 -0.635266772 1.417322835 -1.417322835c 0 -0.782056063 -0.635266772 -1.417322835 -1.417322835 -1.417322835Z "/><path fill="#1a1a18" fill-rule="nonzero" transform="translate(56.692913386 85.039370079)" d="M 0 0m 1.417322835 0c -0.782056063 0 -1.417322835 0.635266772 -1.417322835 1.417322835c 0 0.782056063 0.635266772 1.417322835 1.417322835 1.417322835c 0.782056063 0 1.417322835 -0.635266772 1.417322835 -1.417322835c 0 -0.782056063 -0.635266772 -1.417322835 -1.417322835 -1.417322835Z "/><path fill="#1a1a18" fill-rule="nonzero" transform="translate(85.039370079 85.039370079)" d="M 0 0m 1.417322835 0c -0.782056063 0 -1.417322835 0.635266772 -1.417322835 1.417322835c 0 0.782056063 0.635266772 1.417322835 1.417322835 1.417322835c 0.782056063 0 1.417322835 -0.635266772 1.417322835 -1.417322835c 0 -0.782056063 -0.635266772 -1.417322835 -1.417322835 -1.417322835Z "/><path fill="#1a1a18" fill-rule="nonzero" transform="translate(113.385826772 85.039370079)" d="M 0 0m 1.417322835 0c -0.782056063 0 -1.417322835 0.635266772 -1.417322835 1.417322835c 0 0.782056063 0.635266772 1.417322835 1.417322835 1.417322835c 0.782056063 0 1.417322835 -0.635266772 1.417322835 -1.417322835c 0 -0.782056063 -0.635266772 -1.417322835 -1.417322835 -1.417322835Z "/><path fill="#1a1a18" fill-rule="nonzero" transform="translate(0 56.692913386)" d="M 0 0m 1.417322835 0c -0.782056063 0 -1.417322835 0.635266772 -1.417322835 1.417322835c 0 0.782056063 0.635266772 1.417322835 1.417322835 1.417322835c 0.782056063 0 1.417322835 -0.635266772 1.417322835 -1.417322835c 0 -0.782056063 -0.635266772 -1.417322835 -1.417322835 -1.417322835Z "/><path fill="#1a1a18" fill-rule="nonzero" transform="translate(28.346456693 56.692913386)" d="M 0 0m 1.417322835 0c -0.782056063 0 -1.417322835 0.635266772 -1.417322835 1.417322835c 0 0.782056063 0.635266772 1.417322835 1.417322835 1.417322835c 0.782056063 0 1.417322835 -0.635266772 1.417322835 -1.417322835c 0 -0.782056063 -0.635266772 -1.417322835 -1.417322835 -1.417322835Z "/><path fill="#1a1a18" fill-rule="nonzero" transform="translate(56.692913386 56.692913386)" d="M 0 0m 1.417322835 0c -0.782056063 0 -1.417322835 0.635266772 -1.417322835 1.417322835c 0 0.782056063 0.635266772 1.417322835 1.417322835 1.417322835c 0.782056063 0 1.417322835 -0.635266772 1.417322835 -1.417322835c 0 -0.782056063 -0.635266772 -1.417322835 -1.417322835 -1.417322835Z "/><path fill="#1a1a18" fill-rule="nonzero" transform="translate(85.039370079 56.692913386)" d="M 0 0m 1.417322835 0c -0.782056063 0 -1.417322835 0.635266772 -1.417322835 1.417322835c 0 0.782056063 0.635266772 1.417322835 1.417322835 1.417322835c 0.782056063 0 1.417322835 -0.635266772 1.417322835 -1.417322835c 0 -0.782056063 -0.635266772 -1.417322835 -1.417322835 -1.417322835Z "/><path fill="#1a1a18" fill-rule="nonzero" transform="translate(113.385826772 56.692913386)" d="M 0 0m 1.417322835 0c -0.782056063 0 -1.417322835 0.635266772 -1.417322835 1.417322835c 0 0.782056063 0.635266772 1.417322835 1.417322835 1.417322835c 0.782056063 0 1.417322835 -0.635266772 1.417322835 -1.417322835c 0 -0.782056063 -0.635266772 -1.417322835 -1.417322835 -1.417322835Z "/><path fill="#1a1a18" fill-rule="nonzero" transform="translate(0 28.346456693)" d="M 0 0m 1.417322835 0c -0.782056063 0 -1.417322835 0.635266772 -1.417322835 1.417322835c 0 0.782056063 0.635266772 1.417322835 1.417322835 1.417322835c 0.782056063 0 1.417322835 -0.635266772 1.417322835 -1.417322835c 0 -0.782056063 -0.635266772 -1.417322835 -1.417322835 -1.417322835Z "/><path fill="#1a1a18" fill-rule="nonzero" transform="translate(28.346456693 28.346456693)" d="M 0 0m 1.417322835 0c -0.782056063 0 -1.417322835 0.635266772 -1.417322835 1.417322835c 0 0.782056063 0.635266772 1.417322835 1.417322835 1.417322835c 0.782056063 0 1.417322835 -0.635266772 1.417322835 -1.417322835c 0 -0.782056063 -0.635266772 -1.417322835 -1.417322835 -1.417322835Z "/><path fill="#1a1a18" fill-rule="nonzero" transform="translate(56.692913386 28.346456693)" d="M 0 0m 1.417322835 0c -0.782056063 0 -1.417322835 0.635266772 -1.417322835 1.417322835c 0 0.782056063 0.635266772 1.417322835 1.417322835 1.417322835c 0.782056063 0 1.417322835 -0.635266772 1.417322835 -1.417322835c 0 -0.782056063 -0.635266772 -1.417322835 -1.417322835 -1.417322835Z "/><path fill="#1a1a18" fill-rule="nonzero" d="M 0 0m 1.417322835 0c -0.782056063 0 -1.417322835 0.635266772 -1.417322835 1.417322835c 0 0.782056063 0.635266772 1.417322835 1.417322835 1.417322835c 0.782056063 0 1.417322835 -0.635266772 1.417322835 -1.417322835c 0 -0.782056063 -0.635266772 -1.417322835 -1.417322835 -1.417322835Z "/><path fill="#1a1a18" fill-rule="nonzero" transform="translate(28.346456693)" d="M 0 0m 1.417322835 0c -0.782056063 0 -1.417322835 0.635266772 -1.417322835 1.417322835c 0 0.782056063 0.635266772 1.417322835 1.417322835 1.417322835c 0.782056063 0 1.417322835 -0.635266772 1.417322835 -1.417322835c 0 -0.782056063 -0.635266772 -1.417322835 -1.417322835 -1.417322835Z "/><path fill="#1a1a18" fill-rule="nonzero" transform="translate(56.692913386)" d="M 0 0m 1.417322835 0c -0.782056063 0 -1.417322835 0.635266772 -1.417322835 1.417322835c 0 0.782056063 0.635266772 1.417322835 1.417322835 1.417322835c 0.782056063 0 1.417322835 -0.635266772 1.417322835 -1.417322835c 0 -0.782056063 -0.635266772 -1.417322835 -1.417322835 -1.417322835Z "/><path fill="none" transform="translate(143.149606299 35.036007874)" d="M 0 0h 39.015v 17.802h -39.015v -17.802Z "/><g transform="translate(143.149606157 35.036007874)"><g transform="matrix(1 0 0 -1 0 5.922)"><use xlink:href="#gAE9E23F53692F92B7B295E455DF99330" x="0" y="0" fill="#1a1a18" fill-rule="nonzero"/><use xlink:href="#g7253BD4F4A12C91ABC7B03558525FA66" x="4.518" y="0" fill="#1a1a18" fill-rule="nonzero"/><use xlink:href="#g5F2B105DCE44482CD07DFE0B4651B637" x="9.054" y="0" fill="#1a1a18" fill-rule="nonzero"/><use xlink:href="#gD351E21AD091924D522A6D2D6355C932" x="14.328" y="0" fill="#1a1a18" fill-rule="nonzero"/><use xlink:href="#g3515EF5FD07324BC31659A9072C9EEF0" x="18.351" y="0" fill="#1a1a18" fill-rule="nonzero"/><use xlink:href="#g5F2B105DCE44482CD07DFE0B4651B637" x="23.202" y="0" fill="#1a1a18" fill-rule="nonzero"/><use xlink:href="#g5CCD3C35BE7C263075DDDC3F0C06DEE6" x="28.476" y="0" fill="#1a1a18" fill-rule="nonzero"/><use xlink:href="#gD351E21AD091924D522A6D2D6355C932" x="34.992" y="0" fill="#1a1a18" fill-rule="nonzero"/></g><g transform="matrix(1 0 0 -1 0 17.694)"><use xlink:href="#g1F9714CC671652C524E18E6C36ACD39E" x="0" y="0" fill="#1a1a18" fill-rule="nonzero"/><use xlink:href="#gB118266EF18AECCCCEF724ECE6F3D1D3" x="4.086" y="0" fill="#1a1a18" fill-rule="nonzero"/><use xlink:href="#gD351E21AD091924D522A6D2D6355C932" x="8.829" y="0" fill="#1a1a18" fill-rule="nonzero"/><use xlink:href="#g82C799C01D06EF19E125C6F4348D75CA" x="12.852" y="0" fill="#1a1a18" fill-rule="nonzero"/><use xlink:href="#gD351E21AD091924D522A6D2D6355C932" x="18.972" y="0" fill="#1a1a18" fill-rule="nonzero"/><use xlink:href="#g5F2B105DCE44482CD07DFE0B4651B637" x="22.995" y="0" fill="#1a1a18" fill-rule="nonzero"/><use xlink:href="#g611C332DF318E3AAFADBD04F1094DD79" x="28.269" y="0" fill="#1a1a18" fill-rule="nonzero"/><use xlink:href="#g5CCD3C35BE7C263075DDDC3F0C06DEE6" x="32.274" y="0" fill="#1a1a18" fill-rule="nonzero"/></g></g></g><defs><symbol id="gAE9E23F53692F92B7B295E455DF99330" overflow="visible"><path d="M 0 0m 3.474 0c 0 0 0.702 -0.009 0.882 -0.018c 0.054 0.054 0.054 0.243 0 0.297c -0.351 0.018 -0.423 0.09 -0.576 0.378l -0.405 0.765c -0.225 0.423 -0.54 0.639 -1.053 0.639v 0.027c 0.351 0.099 0.504 0.414 0.639 0.774c 0.108 0.279 0.216 0.45 0.405 0.45c 0.081 0 0.153 -0.027 0.207 -0.063c 0.054 -0.036 0.153 -0.063 0.27 -0.063c 0.198 0 0.36 0.171 0.36 0.351c 0 0.198 -0.216 0.405 -0.513 0.405c -0.522 0 -0.765 -0.486 -0.936 -0.909c -0.198 -0.495 -0.441 -0.837 -1.08 -0.837v 0.567c 0 0.747 0.099 0.774 0.558 0.819c 0.054 0.054 0.054 0.243 0 0.297c -0.216 -0.009 -0.558 -0.018 -0.918 -0.018c -0.387 0 -0.702 0.009 -0.999 0.018c -0.054 -0.054 -0.054 -0.243 0 -0.297c 0.549 -0.036 0.648 -0.072 0.648 -0.819v -1.665c 0 -0.747 -0.099 -0.774 -0.648 -0.819c -0.054 -0.054 -0.054 -0.243 0 -0.297c 0.297 0.009 0.612 0.018 1.008 0.018c 0.351 0 0.711 -0.009 0.909 -0.018c 0.054 0.054 0.054 0.243 0 0.297c -0.459 0.036 -0.558 0.072 -0.558 0.819v 0.783c 0.612 -0.036 0.774 -0.279 0.936 -0.612l 0.387 -0.81c 0.117 -0.243 0.297 -0.45 0.477 -0.459Z "/></symbol><symbol id="g7253BD4F4A12C91ABC7B03558525FA66" overflow="visible"><path d="M 0 0m 0.369 1.845c 0 -0.918 0.612 -1.935 1.89 -1.935c 0.576 0 1.017 0.207 1.323 0.504c 0.405 0.396 0.585 0.963 0.585 1.512c 0 0.936 -0.513 2.025 -1.89 2.025c -0.594 0 -1.08 -0.243 -1.413 -0.63c -0.324 -0.387 -0.495 -0.909 -0.495 -1.476Z m 1.773 1.791c 0.774 0 1.251 -0.702 1.251 -1.998c 0 -1.134 -0.585 -1.413 -1.008 -1.413c -0.936 0 -1.242 1.134 -1.242 1.827c 0 0.783 0.189 1.584 0.999 1.584Z "/></symbol><symbol id="g5F2B105DCE44482CD07DFE0B4651B637" overflow="visible"><path d="M 0 0m 4.311 2.763c 0 0.747 0.099 0.774 0.648 0.819c 0.054 0.054 0.054 0.243 0 0.297c -0.315 -0.018 -0.711 -0.018 -1.008 -0.018c -0.252 0 -0.612 0.009 -0.963 0.018c -0.054 -0.054 -0.054 -0.243 0 -0.297c 0.549 -0.036 0.612 -0.072 0.612 -0.819v -0.585h -1.926v 0.585c 0 0.747 0.063 0.774 0.612 0.819c 0.054 0.054 0.054 0.243 0 0.297c -0.342 -0.009 -0.684 -0.018 -0.972 -0.018c -0.27 0 -0.639 0.009 -0.999 0.018c -0.054 -0.054 -0.054 -0.243 0 -0.297c 0.549 -0.036 0.648 -0.072 0.648 -0.819v -1.665c 0 -0.747 -0.099 -0.774 -0.648 -0.819c -0.054 -0.054 -0.054 -0.243 0 -0.297c 0.36 0.009 0.72 0.018 1.008 0.018c 0.288 0 0.639 -0.009 0.963 -0.018c 0.054 0.054 0.054 0.243 0 0.297c -0.549 0.036 -0.612 0.072 -0.612 0.819v 0.783h 1.926v -0.783c 0 -0.747 -0.063 -0.774 -0.612 -0.819c -0.054 -0.054 -0.054 -0.243 0 -0.297c 0.324 0.009 0.657 0.018 0.972 0.018c 0.27 0 0.648 -0.009 0.999 -0.018c 0.054 0.054 0.054 0.243 0 0.297c -0.549 0.036 -0.648 0.072 -0.648 0.819Z "/></symbol><symbol id="gD351E21AD091924D522A6D2D6355C932" overflow="visible"><path d="M 0 0m 3.474 0.837c -0.333 -0.342 -0.594 -0.486 -1.116 -0.486c -0.324 0 -0.702 0.189 -0.981 0.648c -0.18 0.297 -0.288 0.711 -0.288 1.233l 2.394 -0.018c 0.108 0 0.171 0.054 0.171 0.153c 0 0.756 -0.27 1.566 -1.521 1.566c -0.783 0 -1.8 -0.747 -1.8 -2.115c 0 -0.504 0.126 -0.99 0.423 -1.332c 0.306 -0.36 0.729 -0.576 1.377 -0.576c 0.684 0 1.17 0.315 1.53 0.783c -0.027 0.09 -0.081 0.135 -0.189 0.144Z m -2.358 1.701c 0.171 1.017 0.801 1.098 1.017 1.098c 0.342 0 0.747 -0.189 0.747 -0.945c 0 -0.081 -0.036 -0.126 -0.135 -0.126Z "/></symbol><symbol id="g3515EF5FD07324BC31659A9072C9EEF0" overflow="visible"><path d="M 0 0m 1.458 2.763c 0 0.747 0.099 0.774 0.558 0.819c 0.054 0.054 0.054 0.243 0 0.297c -0.216 -0.009 -0.558 -0.018 -0.918 -0.018c -0.387 0 -0.693 0.009 -0.99 0.018c -0.054 -0.054 -0.054 -0.243 0 -0.297c 0.549 -0.036 0.648 -0.072 0.648 -0.819v -0.387c 0 -0.846 0.189 -1.179 1.026 -1.179c 0.567 0 1.017 0.324 1.386 0.594v -0.693c 0 -0.747 -0.099 -0.774 -0.648 -0.819c -0.054 -0.054 -0.054 -0.243 0 -0.297c 0.297 0.009 0.612 0.018 1.008 0.018c 0.387 0 0.72 -0.009 1.008 -0.018c 0.054 0.054 0.054 0.243 0 0.297c -0.549 0.036 -0.648 0.072 -0.648 0.819v 1.665c 0 0.747 0.099 0.774 0.648 0.819c 0.054 0.054 0.054 0.243 0 0.297c -0.306 -0.009 -0.612 -0.018 -1.008 -0.018c -0.351 0 -0.711 0.009 -0.918 0.018c -0.054 -0.054 -0.054 -0.243 0 -0.297c 0.459 -0.036 0.558 -0.072 0.558 -0.819v -0.648c -0.306 -0.27 -0.63 -0.513 -1.098 -0.513c -0.585 0 -0.612 0.306 -0.612 1.008Z "/></symbol><symbol id="g5CCD3C35BE7C263075DDDC3F0C06DEE6" overflow="visible"><path d="M 0 0m 1.674 2.754c 0 0.756 0.099 0.783 0.648 0.828c 0.054 0.054 0.054 0.243 0 0.297c -0.306 -0.009 -0.612 -0.018 -1.008 -0.018c -0.387 0 -0.702 0.009 -0.999 0.018c -0.054 -0.054 -0.054 -0.243 0 -0.297c 0.549 -0.036 0.648 -0.072 0.648 -0.819v -1.665c 0 -0.747 -0.099 -0.774 -0.648 -0.819c -0.054 -0.054 -0.054 -0.243 0 -0.297c 0.297 0.009 0.612 0.018 1.008 0.018c 0.369 0 0.567 -0.018 0.936 -0.018c 1.107 0 1.71 0.279 1.71 1.242c 0 0.846 -0.738 1.089 -1.647 1.089h -0.648Z m 3.879 0.009c 0 0.747 0.099 0.774 0.648 0.819c 0.054 0.054 0.054 0.243 0 0.297c -0.306 -0.009 -0.612 -0.018 -1.008 -0.018c -0.387 0 -0.702 0.009 -0.999 0.018c -0.054 -0.054 -0.054 -0.243 0 -0.297c 0.549 -0.036 0.648 -0.072 0.648 -0.819v -1.665c 0 -0.747 -0.099 -0.774 -0.648 -0.819c -0.054 -0.054 -0.054 -0.243 0 -0.297c 0.297 0.009 0.612 0.018 1.008 0.018c 0.387 0 0.711 -0.009 0.999 -0.018c 0.054 0.054 0.054 0.243 0 0.297c -0.549 0.036 -0.648 0.072 -0.648 0.819Z m -2.358 -1.629c 0 -0.738 -0.45 -0.855 -0.927 -0.855c -0.441 0 -0.594 0.09 -0.594 0.405v 1.332h 0.639c 0.675 0 0.882 -0.405 0.882 -0.882Z "/></symbol><symbol id="g1F9714CC671652C524E18E6C36ACD39E" overflow="visible"><path d="M 0 0m 0.423 0.738c 0 -0.477 0.675 -0.828 1.539 -0.828c 0.936 0 1.8 0.63 1.8 2.079c 0 1.089 -0.495 1.962 -1.809 1.962c -0.45 0 -0.918 -0.135 -1.386 -0.171c -0.045 -0.342 -0.063 -0.711 -0.081 -1.08c 0.072 -0.045 0.144 -0.054 0.234 -0.036c 0.162 0.576 0.459 0.972 1.161 0.972c 0.756 0 1.125 -0.738 1.125 -1.566l -0.027 -0.018c -0.243 0.144 -0.495 0.252 -0.774 0.252c -0.207 0 -0.387 -0.063 -0.549 -0.135c -0.144 -0.063 -0.288 -0.117 -0.45 -0.117c -0.126 0 -0.243 0.054 -0.306 0.054c -0.054 0 -0.072 -0.09 -0.072 -0.126c 0 -0.126 0.441 -0.288 0.846 -0.288c 0.216 0 0.378 0.045 0.522 0.108c 0.126 0.054 0.261 0.09 0.432 0.09c 0.126 0 0.243 -0.036 0.36 -0.081c 0 -1.071 -0.333 -1.584 -1.134 -1.584c -0.378 0 -0.594 0.198 -0.711 0.441c -0.135 0.288 -0.261 0.333 -0.423 0.333c -0.171 0 -0.297 -0.117 -0.297 -0.261Z "/></symbol><symbol id="gB118266EF18AECCCCEF724ECE6F3D1D3" overflow="visible"><path d="M 0 0m 3.762 1.098v 1.665c 0 0.738 0.117 0.783 0.612 0.819c 0.054 0.054 0.054 0.243 0 0.297c -0.27 -0.009 -0.612 -0.018 -0.972 -0.018h -1.701c -0.297 0 -0.648 0.009 -0.918 0.018c -0.054 -0.054 -0.054 -0.243 0 -0.297c 0.639 -0.045 0.729 -0.099 0.729 -1.071c 0 -0.945 -0.072 -1.44 -0.198 -1.809c -0.117 -0.324 -0.27 -0.441 -0.423 -0.441c -0.117 0 -0.153 0.072 -0.171 0.189c -0.027 0.171 -0.081 0.342 -0.333 0.342c -0.225 0 -0.351 -0.18 -0.351 -0.378c 0 -0.279 0.252 -0.522 0.666 -0.522c 0.459 0 0.711 0.234 0.918 0.72c 0.18 0.432 0.234 1.35 0.234 1.962c 0 0.702 0.027 0.936 0.387 0.936h 0.405c 0.342 0 0.405 -0.216 0.405 -0.522v -1.89c 0 -0.738 -0.09 -0.783 -0.558 -0.819c -0.045 -0.054 -0.045 -0.243 0 -0.297c 0.225 0.009 0.558 0.018 0.918 0.018c 0.36 0 0.765 -0.009 1.017 -0.018c 0.045 0.054 0.045 0.243 0 0.297c -0.585 0.036 -0.666 0.081 -0.666 0.819Z "/></symbol><symbol id="g82C799C01D06EF19E125C6F4348D75CA" overflow="visible"><path d="M 0 0m 1.053 2.754l -0.054 -1.674c -0.027 -0.756 -0.162 -0.774 -0.684 -0.801c -0.054 -0.054 -0.054 -0.243 0 -0.297c 0.18 0.009 0.63 0.018 0.774 0.018c 0.18 0 0.603 -0.009 0.783 -0.018c 0.054 0.054 0.054 0.243 0 0.297c -0.513 0.036 -0.549 0.126 -0.531 0.801l 0.063 2.205c 0 0.081 0.036 0.081 0.072 0l 1.305 -3.186c 0.036 -0.027 0.072 -0.027 0.099 0l 1.476 3.177c 0.045 0.099 0.09 0.108 0.09 0l -0.009 -2.178c 0 -0.747 -0.063 -0.774 -0.612 -0.819c -0.054 -0.054 -0.054 -0.243 0 -0.297c 0.324 0.009 0.657 0.018 0.972 0.018c 0.27 0 0.657 -0.009 1.008 -0.018c 0.054 0.054 0.054 0.243 0 0.297c -0.549 0.036 -0.648 0.072 -0.648 0.819l -0.018 1.665c -0.009 0.747 0.099 0.774 0.648 0.819c 0.054 0.054 0.054 0.243 0 0.297c -0.315 -0.018 -1.188 -0.018 -1.485 -0.018l -1.197 -2.574l -0.045 -0.09l -0.036 0.09l -1.053 2.574c -0.297 0 -1.251 0 -1.566 0.018c -0.054 -0.054 -0.054 -0.243 0 -0.297c 0.549 -0.045 0.675 -0.081 0.648 -0.828Z "/></symbol><symbol id="g611C332DF318E3AAFADBD04F1094DD79" overflow="visible"><path d="M 0 0m 1.638 1.098c 0 -0.747 -0.099 -0.792 -0.648 -0.819c -0.054 -0.054 -0.054 -0.243 0 -0.297c 0.351 0.009 0.711 0.018 1.008 0.018c 0.306 0 0.657 -0.009 0.999 -0.018c 0.054 0.054 0.054 0.243 0 0.297c -0.549 0.027 -0.648 0.072 -0.648 0.819v 2.43h 0.153c 0.729 0 0.873 -0.252 1.026 -0.981c 0.117 0 0.234 0.036 0.234 0.036c -0.054 0.414 -0.09 0.81 -0.099 1.332c -0.207 -0.018 -0.882 -0.054 -1.332 -0.054h -0.675c -0.45 0 -0.954 0.027 -1.314 0.054c -0.009 -0.522 -0.045 -0.918 -0.108 -1.332c 0 0 0.126 -0.036 0.243 -0.036c 0.153 0.729 0.288 0.981 1.026 0.981h 0.135Z "/></symbol></defs></svg>