<svg viewBox="0 0 241.917253071 80.746733386" width="241.917253071pt" height="80.746733386pt" xmlns="http://www.w3.org/2000/svg" xmlns:xlink="http://www.w3.org/1999/xlink" xmlns:h5="http://www.w3.org/1999/xhtml"><path fill="#ffffff" fill-rule="nonzero" d="M 0 0v 80.746733386h 241.917253071v -80.746733386Z "/><g transform="translate(8 8)"><path fill="none" stroke="#1a1a18" stroke-width="0.6" stroke-linecap="butt" stroke-linejoin="miter" stroke-miterlimit="4" transform="translate(0 53.003867244)" d="M 0 0h 78.515678366"/><path fill="#1a1a18" fill-rule="nonzero" stroke="#1a1a18" stroke-width="0.6" stroke-linecap="butt" stroke-linejoin="miter" stroke-miterlimit="4" transform="translate(78.515678268 50.877882992)" d="M 0 0m 5.669291339 2.125984252l -5.669291339 2.125984252v -4.251968504l 5.669291339 2.125984252Z "/><path fill="none" stroke="#1a1a18" stroke-width="0.6" stroke-linecap="butt" stroke-linejoin="miter" stroke-miterlimit="4" transform="translate(39.68503937 5.669291241)" d="M 0 0m 0 55.838513011v -55.838513011"/><path fill="#1a1a18" fill-rule="nonzero" stroke="#1a1a18" stroke-width="0.6" stroke-linecap="butt" stroke-linejoin="miter" stroke-miterlimit="4" transform="translate(37.559055118)" d="M 0 0m 2.125984252 0l 2.125984252 5.669291339h -4.251968504l 2.125984252 -5.669291339Z "/><path fill="none" stroke="#1a1a18" stroke-width="1.6" stroke-linecap="butt" stroke-linejoin="miter" stroke-miterlimit="4" transform="translate(2.834645669 53.003867244)" d="M 0 0h 36.850393701"/><path fill="none" stroke="#1a1a18" stroke-width="1.6" stroke-linecap="butt" stroke-linejoin="miter" stroke-miterlimit="4" transform="translate(39.68503937 18.988119213)" d="M 0 0h 39.68503937"/><path fill="none" stroke="#1a1a18" stroke-width="1.6" stroke-linecap="butt" stroke-linejoin="miter" stroke-miterlimit="4" stroke-dashoffset="0" stroke-dasharray="1.6 2" transform="translate(39.68503937 18.988119213)" d="M 0 0m 0 34.015748031v -34.015748031"/><path fill="none" transform="translate(30.862677165 16.348119213)" d="M 0 0h 3.72v 5.28h -3.72v -5.28Z "/><g transform="translate(30.862677071 16.348119165)"><g transform="matrix(1 0 0 -1 0 5.264)"><use xlink:href="#g8C50DFC0B8272CD73341C65811BD0E92" x="0" y="0" fill="#1a1a18" fill-rule="nonzero"/></g></g><path fill="none" transform="translate(55.031350394 6.294682205)" d="M 0 0h 20.331v 8.379h -20.331v -8.379Z "/><g transform="translate(55.031350394 6.294682063)"><g transform="matrix(1 0 0 -1 0 6.147)"><use xlink:href="#gD3C505D5212F2302AB73F3407AF00395" x="0" y="0" fill="#1a1a18" fill-rule="nonzero"/></g><g transform="matrix(1 0 0 -1 8.181 6.147)"><use xlink:href="#g562B041A3C1E4F72B2260C3D3DAD2CDC" x="0" y="0" fill="#1a1a18" fill-rule="nonzero"/></g><g transform="matrix(1 0 0 -1 11.682 6.147)"><use xlink:href="#gFB6023562FAA25D0472E92EA23A01C18" x="0" y="0" fill="#1a1a18" fill-rule="nonzero"/></g><g transform="matrix(1 0 0 -1 16.83 6.147)"><use xlink:href="#g7E8F32A8BA7BED8806C08EFC754F918E" x="0" y="0" fill="#1a1a18" fill-rule="nonzero"/></g></g><path fill="none" stroke="#1a1a18" stroke-width="0.6" stroke-linecap="butt" stroke-linejoin="miter" stroke-miterlimit="4" transform="translate(96.377952756 30.32670189)" d="M 0 0h 27.492056318"/><path fill="#1a1a18" fill-rule="nonzero" stroke="#1a1a18" stroke-width="0.6" stroke-linecap="butt" stroke-linejoin="miter" stroke-miterlimit="4" transform="translate(123.870008976 28.200717638)" d="M 0 0m 5.669291339 2.125984252l -5.669291339 2.125984252v -4.251968504l 5.669291339 2.125984252Z "/><path fill="none" transform="translate(100.366140661 18.873264882)" d="M 0 0h 26.039372222v 5.899h -26.039372222v -5.899Z "/><g transform="translate(100.366140614 18.873264756)"><g transform="matrix(1 0 0 -1 0 5.8055)"><use xlink:href="#g935D056A808FAE0A5E46CBD9FF52EF40" x="0" y="0" fill="#7c7f6a" fill-rule="nonzero"/></g><g transform="matrix(1 0 0 -1 7.7265 2.72)"><use xlink:href="#g7B34D12A1E36E2FC487FC8B3B563E256" x="0" y="0" fill="#7c7f6a" fill-rule="nonzero"/></g><g transform="matrix(1 0 0 -1 12.985261111 5.8055)"><use xlink:href="#gFC54395C37CBF46263C4AAEECE4F6BA9" x="0" y="0" fill="#7c7f6a" fill-rule="nonzero"/></g><g transform="matrix(1 0 0 -1 21.959372222 5.8055)"><use xlink:href="#g9282B5D5C7F1ED7FBC31BBEDF6FD0C84" x="0" y="0" fill="#7c7f6a" fill-rule="nonzero"/></g></g><path fill="none" stroke="#1a1a18" stroke-width="0.6" stroke-linecap="butt" stroke-linejoin="miter" stroke-miterlimit="4" transform="translate(141.732283465 53.003867244)" d="M 0 0h 78.515678366"/><path fill="#1a1a18" fill-rule="nonzero" stroke="#1a1a18" stroke-width="0.6" stroke-linecap="butt" stroke-linejoin="miter" stroke-miterlimit="4" transform="translate(220.247961732 50.877882992)" d="M 0 0m 5.669291339 2.125984252l -5.669291339 2.125984252v -4.251968504l 5.669291339 2.125984252Z "/><path fill="none" stroke="#1a1a18" stroke-width="0.6" stroke-linecap="butt" stroke-linejoin="miter" stroke-miterlimit="4" transform="translate(181.417322835 5.669291241)" d="M 0 0m 0 55.838513011v -55.838513011"/><path fill="#1a1a18" fill-rule="nonzero" stroke="#1a1a18" stroke-width="0.6" stroke-linecap="butt" stroke-linejoin="miter" stroke-miterlimit="4" transform="translate(179.291338583)" d="M 0 0m 2.125984252 0l 2.125984252 5.669291339h -4.251968504l 2.125984252 -5.669291339Z "/><path fill="none" stroke="#7c7f6a" stroke-width="2" stroke-linecap="butt" stroke-linejoin="miter" stroke-miterlimit="4" transform="translate(181.417322835 17.584151957)" d="M 0 0m 0 35.419715287v -35.419715287"/><path fill="#7c7f6a" fill-rule="nonzero" stroke="#7c7f6a" stroke-width="2" stroke-linecap="butt" stroke-linejoin="miter" stroke-miterlimit="4" transform="translate(179.291338583 11.914860756)" d="M 0 0m 2.125984252 0l 2.125984252 5.669291339h -4.251968504l 2.125984252 -5.669291339Z "/><path fill="none" transform="translate(187.086614173 6.294682205)" d="M 0 0h 16.47v 8.379h -16.47v -8.379Z "/><g transform="translate(187.086614173 6.294682063)"><g transform="matrix(1 0 0 -1 0 6.147)"><use xlink:href="#gEEFDC7C2205E3DDFD704EC8B8E4D28DA" x="0" y="0" fill="#7c7f6a" fill-rule="nonzero"/></g><g transform="matrix(1 0 0 -1 4.32 6.147)"><use xlink:href="#g562B041A3C1E4F72B2260C3D3DAD2CDC" x="0" y="0" fill="#7c7f6a" fill-rule="nonzero"/></g><g transform="matrix(1 0 0 -1 7.821 6.147)"><use xlink:href="#gFB6023562FAA25D0472E92EA23A01C18" x="0" y="0" fill="#7c7f6a" fill-rule="nonzero"/></g><g transform="matrix(1 0 0 -1 12.969 6.147)"><use xlink:href="#g7E8F32A8BA7BED8806C08EFC754F918E" x="0" y="0" fill="#7c7f6a" fill-rule="nonzero"/></g></g><path fill="none" transform="translate(179.557322835 59.402733386)" d="M 0 0h 3.72v 5.344h -3.72v -5.344Z "/><g transform="translate(179.55732274 59.402733307)"><g transform="matrix(1 0 0 -1 0 5.264)"><use xlink:href="#g97663EC9AEA74EADA07472643E1BE1B4" x="0" y="0" fill="#1a1a18" fill-rule="nonzero"/></g></g></g><defs><symbol id="g8C50DFC0B8272CD73341C65811BD0E92" overflow="visible"><path d="M 0 0m 2.304 0.976v 2.776c 0 0.48 0.008 0.968 0.024 1.072c 0 0.04 -0.016 0.04 -0.048 0.04c -0.44 -0.272 -0.864 -0.472 -1.568 -0.8c 0.016 -0.088 0.048 -0.168 0.12 -0.216c 0.368 0.152 0.544 0.2 0.696 0.2c 0.136 0 0.16 -0.192 0.16 -0.464v -2.608c 0 -0.664 -0.216 -0.704 -0.776 -0.728c -0.048 -0.048 -0.048 -0.216 0 -0.264c 0.392 0.008 0.68 0.016 1.112 0.016c 0.384 0 0.576 -0.008 0.976 -0.016c 0.048 0.048 0.048 0.216 0 0.264c -0.56 0.024 -0.696 0.064 -0.696 0.728Z "/></symbol><symbol id="gD3C505D5212F2302AB73F3407AF00395" overflow="visible"><path d="M 0 0m 7.929 6.012c 0 0.09 -0.054 0.135 -0.162 0.135l -1.143 -0.027l -1.143 0.027c -0.144 0 -0.207 -0.081 -0.207 -0.216c 0 -0.063 0.027 -0.108 0.072 -0.117c 0.09 -0.009 0.162 -0.018 0.207 -0.018c 0.279 -0.009 0.432 -0.027 0.477 -0.036c 0.045 -0.009 0.072 -0.036 0.072 -0.081c -0.009 -0.027 -0.018 -0.081 -0.036 -0.162l -0.531 -2.142h -2.646l 0.522 2.043c 0.045 0.189 0.126 0.306 0.243 0.351c 0.063 0.018 0.216 0.027 0.468 0.027c 0.243 0 0.342 0 0.342 0.216c 0 0.09 -0.054 0.135 -0.162 0.135l -1.143 -0.027l -1.152 0.027c -0.144 0 -0.207 -0.081 -0.207 -0.216c 0 -0.063 0.027 -0.108 0.081 -0.117c 0.09 -0.009 0.162 -0.018 0.207 -0.018c 0.279 -0.009 0.441 -0.027 0.486 -0.036c 0.045 -0.009 0.063 -0.036 0.063 -0.081c 0 -0.018 -0.009 -0.072 -0.036 -0.162l -1.197 -4.779c -0.045 -0.198 -0.135 -0.315 -0.27 -0.36c -0.063 -0.018 -0.225 -0.027 -0.504 -0.027c -0.198 0 -0.279 -0.018 -0.279 -0.216c 0 -0.09 0.054 -0.135 0.162 -0.135l 1.134 0.027l 0.567 -0.009c 0.099 0 0.477 -0.018 0.576 -0.018c 0.144 0 0.216 0.072 0.216 0.216c 0 0.09 -0.099 0.135 -0.288 0.135c -0.36 0 -0.54 0.036 -0.54 0.117c 0 0 0.009 0.027 0.027 0.144l 0.603 2.412h 2.637l -0.603 -2.412c -0.027 -0.135 -0.135 -0.225 -0.315 -0.252c -0.045 -0.009 -0.198 -0.009 -0.459 -0.009c -0.171 0 -0.252 -0.072 -0.252 -0.216c 0 -0.09 0.054 -0.135 0.162 -0.135l 1.134 0.027l 0.567 -0.009c 0.099 0 0.468 -0.018 0.585 -0.018c 0.144 0 0.216 0.072 0.216 0.216c 0 0.09 -0.099 0.135 -0.288 0.135c -0.369 0 -0.549 0.036 -0.549 0.117c 0 0 0.009 0.027 0.027 0.144l 1.206 4.806c 0.045 0.189 0.126 0.306 0.243 0.351c 0.054 0.018 0.207 0.027 0.468 0.027c 0.234 0 0.342 0 0.342 0.216Z "/></symbol><symbol id="g562B041A3C1E4F72B2260C3D3DAD2CDC" overflow="visible"><path d="M 0 0m 2.862 -2.232c 0.081 0 0.126 0.045 0.126 0.126c 0 0.027 -0.018 0.063 -0.045 0.099c -0.468 0.36 -0.846 0.954 -1.125 1.773c -0.243 0.711 -0.369 1.413 -0.369 2.106v 0.756c 0 0.693 0.126 1.395 0.369 2.106c 0.279 0.819 0.657 1.413 1.125 1.773c 0.027 0.027 0.045 0.063 0.045 0.099c 0 0.081 -0.045 0.126 -0.126 0.126c -0.009 0 -0.036 -0.009 -0.063 -0.027c -0.54 -0.414 -0.99 -1.026 -1.359 -1.845c -0.351 -0.783 -0.531 -1.521 -0.531 -2.232v -0.756c 0 -0.711 0.18 -1.449 0.531 -2.232c 0.369 -0.819 0.819 -1.431 1.359 -1.845c 0.027 -0.018 0.054 -0.027 0.063 -0.027Z "/></symbol><symbol id="gFB6023562FAA25D0472E92EA23A01C18" overflow="visible"><path d="M 0 0m 4.743 3.357c 0 0.414 -0.405 0.621 -0.855 0.621c -0.387 0 -0.693 -0.207 -0.927 -0.621c -0.189 0.414 -0.504 0.621 -0.963 0.621c -0.441 0 -0.801 -0.207 -1.089 -0.612c -0.243 -0.351 -0.369 -0.612 -0.369 -0.783c 0 -0.081 0.045 -0.126 0.135 -0.126c 0.081 0 0.135 0.045 0.153 0.126c 0.171 0.522 0.549 1.134 1.152 1.134c 0.297 0 0.441 -0.189 0.441 -0.558c 0 -0.189 -0.162 -0.891 -0.477 -2.097c -0.153 -0.603 -0.423 -0.9 -0.81 -0.9c -0.126 0 -0.243 0.027 -0.342 0.072c 0.234 0.09 0.351 0.252 0.351 0.486c 0 0.234 -0.117 0.351 -0.36 0.351c -0.297 0 -0.522 -0.252 -0.522 -0.549c 0 -0.414 0.423 -0.621 0.864 -0.621c 0.378 0 0.684 0.207 0.927 0.621c 0.171 -0.414 0.495 -0.621 0.963 -0.621c 0.432 0 0.792 0.207 1.08 0.612c 0.243 0.351 0.369 0.612 0.369 0.783c 0 0.081 -0.045 0.126 -0.135 0.126c -0.081 0 -0.126 -0.045 -0.153 -0.126c -0.153 -0.513 -0.558 -1.134 -1.143 -1.134c -0.297 0 -0.45 0.18 -0.45 0.549c 0 0.117 0.045 0.369 0.144 0.774l 0.306 1.215c 0.171 0.675 0.45 1.017 0.846 1.017c 0.126 0 0.243 -0.027 0.342 -0.072c -0.243 -0.081 -0.36 -0.243 -0.36 -0.486c 0 -0.234 0.126 -0.351 0.369 -0.351c 0.288 0 0.513 0.261 0.513 0.549Z "/></symbol><symbol id="g7E8F32A8BA7BED8806C08EFC754F918E" overflow="visible"><path d="M 0 0m 0.702 -2.205c 0.54 0.414 0.99 1.026 1.359 1.845c 0.351 0.783 0.531 1.521 0.531 2.232v 0.756c 0 0.711 -0.18 1.449 -0.531 2.232c -0.369 0.819 -0.819 1.431 -1.359 1.845c -0.027 0.018 -0.054 0.027 -0.063 0.027c -0.081 0 -0.126 -0.045 -0.126 -0.126c 0 -0.036 0.018 -0.072 0.045 -0.099c 0.468 -0.36 0.846 -0.954 1.125 -1.773c 0.243 -0.711 0.369 -1.413 0.369 -2.106v -0.756c 0 -0.693 -0.126 -1.395 -0.369 -2.106c -0.279 -0.819 -0.657 -1.413 -1.125 -1.773c -0.027 -0.036 -0.045 -0.072 -0.045 -0.099c 0 -0.081 0.045 -0.126 0.126 -0.126c 0.009 0 0.036 0.009 0.063 0.027Z "/></symbol><symbol id="g935D056A808FAE0A5E46CBD9FF52EF40" overflow="visible"><path d="M 0 0m 7.4885 5.678c 0 0.085 -0.051 0.1275 -0.153 0.1275l -1.0795 -0.0255l -1.0795 0.0255c -0.136 0 -0.1955 -0.0765 -0.1955 -0.204c 0 -0.0595 0.0255 -0.102 0.068 -0.1105c 0.085 -0.0085 0.153 -0.017 0.1955 -0.017c 0.2635 -0.0085 0.408 -0.0255 0.4505 -0.034c 0.0425 -0.0085 0.068 -0.034 0.068 -0.0765c -0.0085 -0.0255 -0.017 -0.0765 -0.034 -0.153l -0.5015 -2.023h -2.499l 0.493 1.9295c 0.0425 0.1785 0.119 0.289 0.2295 0.3315c 0.0595 0.017 0.204 0.0255 0.442 0.0255c 0.2295 0 0.323 0 0.323 0.204c 0 0.085 -0.051 0.1275 -0.153 0.1275l -1.0795 -0.0255l -1.088 0.0255c -0.136 0 -0.1955 -0.0765 -0.1955 -0.204c 0 -0.0595 0.0255 -0.102 0.0765 -0.1105c 0.085 -0.0085 0.153 -0.017 0.1955 -0.017c 0.2635 -0.0085 0.4165 -0.0255 0.459 -0.034c 0.0425 -0.0085 0.0595 -0.034 0.0595 -0.0765c 0 -0.017 -0.0085 -0.068 -0.034 -0.153l -1.1305 -4.5135c -0.0425 -0.187 -0.1275 -0.2975 -0.255 -0.34c -0.0595 -0.017 -0.2125 -0.0255 -0.476 -0.0255c -0.187 0 -0.2635 -0.017 -0.2635 -0.204c 0 -0.085 0.051 -0.1275 0.153 -0.1275l 1.071 0.0255l 0.5355 -0.0085c 0.0935 0 0.4505 -0.017 0.544 -0.017c 0.136 0 0.204 0.068 0.204 0.204c 0 0.085 -0.0935 0.1275 -0.272 0.1275c -0.34 0 -0.51 0.034 -0.51 0.1105c 0 0 0.0085 0.0255 0.0255 0.136l 0.5695 2.278h 2.4905l -0.5695 -2.278c -0.0255 -0.1275 -0.1275 -0.2125 -0.2975 -0.238c -0.0425 -0.0085 -0.187 -0.0085 -0.4335 -0.0085c -0.1615 0 -0.238 -0.068 -0.238 -0.204c 0 -0.085 0.051 -0.1275 0.153 -0.1275l 1.071 0.0255l 0.5355 -0.0085c 0.0935 0 0.442 -0.017 0.5525 -0.017c 0.136 0 0.204 0.068 0.204 0.204c 0 0.085 -0.0935 0.1275 -0.272 0.1275c -0.3485 0 -0.5185 0.034 -0.5185 0.1105c 0 0 0.0085 0.0255 0.0255 0.136l 1.139 4.539c 0.0425 0.1785 0.119 0.289 0.2295 0.3315c 0.051 0.017 0.1955 0.0255 0.442 0.0255c 0.221 0 0.323 0 0.323 0.204Z "/></symbol><symbol id="g7B34D12A1E36E2FC487FC8B3B563E256" overflow="visible"><path d="M 0 0m 1.6898 3.26655c -0.14875 0 -0.2499 -0.0595 -0.30345 -0.18445l -0.9996 -2.5109h 0.26775l 1.3209 2.18365c 0.02975 0.05355 0.0476 0.11305 0.0476 0.1785c 0 0.1785 -0.1547 0.3332 -0.3332 0.3332Z "/></symbol><symbol id="gFC54395C37CBF46263C4AAEECE4F6BA9" overflow="visible"><path d="M 0 0m 5.933 3.1195h -5.253c -0.136 0 -0.204 -0.068 -0.204 -0.1955c 0 -0.1275 0.068 -0.1955 0.204 -0.1955h 5.253c 0.136 0 0.204 0.068 0.204 0.1955c 0 0.102 -0.0935 0.1955 -0.204 0.1955Z m 0 -1.598h -5.253c -0.136 0 -0.204 -0.068 -0.204 -0.1955c 0 -0.1275 0.068 -0.1955 0.204 -0.1955h 5.253c 0.136 0 0.204 0.068 0.204 0.1955c 0 0.1105 -0.0935 0.1955 -0.204 0.1955Z "/></symbol><symbol id="g9282B5D5C7F1ED7FBC31BBEDF6FD0C84" overflow="visible"><path d="M 0 0m 3.842 5.644c 0 0.1275 -0.068 0.2125 -0.204 0.2465c -0.4335 0.1105 -0.7565 0.1615 -0.9605 0.1615c -0.6035 0 -0.969 -0.34 -0.969 -0.901c 0 -0.3315 0.1615 -0.8075 0.493 -1.428c -0.8755 -0.221 -1.5555 -0.9945 -1.768 -1.853c -0.0425 -0.1785 -0.068 -0.357 -0.068 -0.5185c 0 -0.323 0.0765 -0.612 0.238 -0.8585c 0.255 -0.391 0.629 -0.5865 1.1135 -0.5865c 0.357 0 0.68 0.1615 0.9775 0.493c 0.4675 0.5355 0.7055 1.2155 0.7055 2.023c 0 0.5185 -0.17 0.9945 -0.5185 1.428l -0.0595 0.0765c -0.5525 0.714 -0.8245 1.19 -0.8245 1.428c 0 0.051 0.0085 0.0935 0.034 0.1275c 0.085 0.153 0.221 0.2295 0.4165 0.221c 0.1445 0 0.323 -0.068 0.5355 -0.1955c 0.2635 -0.1615 0.425 -0.238 0.4845 -0.238c 0.187 0 0.374 0.153 0.374 0.374Z m -2.8985 -4.5305c 0 0.4845 0.119 0.952 0.3655 1.411c 0.2635 0.51 0.6035 0.833 1.02 0.9605c 0.187 -0.323 0.3145 -0.6545 0.391 -0.986c 0.0255 -0.1275 0.034 -0.272 0.034 -0.4165c 0 -0.238 -0.0255 -0.459 -0.0765 -0.6715c -0.2125 -0.833 -0.5355 -1.2495 -0.952 -1.2495c -0.4845 0 -0.782 0.3995 -0.782 0.952Z "/></symbol><symbol id="gEEFDC7C2205E3DDFD704EC8B8E4D28DA" overflow="visible"><path d="M 0 0m 4.068 5.976c 0 0.135 -0.072 0.225 -0.216 0.261c -0.459 0.117 -0.801 0.171 -1.017 0.171c -0.639 0 -1.026 -0.36 -1.026 -0.954c 0 -0.351 0.171 -0.855 0.522 -1.512c -0.927 -0.234 -1.647 -1.053 -1.872 -1.962c -0.045 -0.189 -0.072 -0.378 -0.072 -0.549c 0 -0.342 0.081 -0.648 0.252 -0.909c 0.27 -0.414 0.666 -0.621 1.179 -0.621c 0.378 0 0.72 0.171 1.035 0.522c 0.495 0.567 0.747 1.287 0.747 2.142c 0 0.549 -0.18 1.053 -0.549 1.512l -0.063 0.081c -0.585 0.756 -0.873 1.26 -0.873 1.512c 0 0.054 0.009 0.099 0.036 0.135c 0.09 0.162 0.234 0.243 0.441 0.234c 0.153 0 0.342 -0.072 0.567 -0.207c 0.279 -0.171 0.45 -0.252 0.513 -0.252c 0.198 0 0.396 0.162 0.396 0.396Z m -3.069 -4.797c 0 0.513 0.126 1.008 0.387 1.494c 0.279 0.54 0.639 0.882 1.08 1.017c 0.198 -0.342 0.333 -0.693 0.414 -1.044c 0.027 -0.135 0.036 -0.288 0.036 -0.441c 0 -0.252 -0.027 -0.486 -0.081 -0.711c -0.225 -0.882 -0.567 -1.323 -1.008 -1.323c -0.513 0 -0.828 0.423 -0.828 1.008Z "/></symbol><symbol id="g97663EC9AEA74EADA07472643E1BE1B4" overflow="visible"><path d="M 0 0m 1.824 -0.08c 0.616 0 1.552 0.624 1.552 2.504c 0 0.792 -0.192 1.472 -0.544 1.936c -0.208 0.28 -0.544 0.52 -0.976 0.52c -0.792 0 -1.544 -0.944 -1.544 -2.528c 0 -0.856 0.264 -1.656 0.704 -2.096c 0.224 -0.224 0.496 -0.336 0.808 -0.336Z m 0.032 4.68c 0.136 0 0.264 -0.048 0.36 -0.136c 0.248 -0.208 0.464 -0.816 0.464 -1.888c 0 -0.736 -0.024 -1.24 -0.136 -1.648c -0.176 -0.656 -0.568 -0.728 -0.712 -0.728c -0.744 0 -0.824 1.368 -0.824 2.064c 0 1.968 0.488 2.336 0.848 2.336Z "/></symbol></defs></svg>