<svg viewBox="0 0 164.656 155.410161417" width="164.656pt" height="155.410161417pt" xmlns="http://www.w3.org/2000/svg" xmlns:xlink="http://www.w3.org/1999/xlink" xmlns:h5="http://www.w3.org/1999/xhtml"><path fill="#ffffff" fill-rule="nonzero" d="M 0 0v 155.410161417h 164.656v -155.410161417Z "/><g transform="translate(8 8)"><path fill="none" stroke="#1a1a18" stroke-width="0.6" stroke-linecap="butt" stroke-linejoin="miter" stroke-miterlimit="4" transform="translate(1.538477537 40.222031632)" d="M 0 0m 145.579044699 52.88468358c -10.246125787 -31.534332654 -39.632362797 -52.88468358 -72.78952235 -52.88468358c -33.157159553 0 -62.543396563 21.350350926 -72.78952235 52.88468358"/><path fill="none" stroke="#7c7f6a" stroke-width="1.4" stroke-linecap="butt" stroke-linejoin="miter" stroke-miterlimit="4" transform="translate(74.328 52.296030612)" d="M 0 0m 0 64.461433955l 23.462043218 -64.461433955"/><path fill="none" stroke="#a29b8c" stroke-width="0.7" stroke-linecap="butt" stroke-linejoin="miter" stroke-miterlimit="4" transform="translate(133.73597888 78.489748031)" d="M 0 0m 0 3.968503937l 6.873650449 -3.968503937"/><path fill="none" stroke="#a29b8c" stroke-width="0.7" stroke-linecap="butt" stroke-linejoin="miter" stroke-miterlimit="4" transform="translate(118.422217761 58.127921361)" d="M 0 0m 0 6.080100777l 5.101810319 -6.080100777"/><path fill="none" stroke="#7c7f6a" stroke-width="1.9" stroke-linecap="butt" stroke-linejoin="miter" stroke-miterlimit="4" transform="translate(97.790043218 44.837682882)" d="M 0 0m 0 7.45834773l 2.714616571 -7.45834773"/><path fill="none" stroke="#1a1a18" stroke-width="1.3" stroke-linecap="butt" stroke-linejoin="miter" stroke-miterlimit="4" transform="translate(74.328 40.222031496)" d="M 0 0m 0 7.937007874v -7.937007874"/><path fill="none" stroke="#a29b8c" stroke-width="0.7" stroke-linecap="butt" stroke-linejoin="miter" stroke-miterlimit="4" transform="translate(48.151340212 44.837682882)" d="M 0 0m 2.714616571 7.45834773l -2.714616571 -7.45834773"/><path fill="none" stroke="#a29b8c" stroke-width="0.7" stroke-linecap="butt" stroke-linejoin="miter" stroke-miterlimit="4" transform="translate(25.13197192 58.127921361)" d="M 0 0m 5.101810319 6.080100777l -5.101810319 -6.080100777"/><path fill="none" stroke="#a29b8c" stroke-width="0.7" stroke-linecap="butt" stroke-linejoin="miter" stroke-miterlimit="4" transform="translate(8.046370671 78.489748031)" d="M 0 0m 6.873650449 3.968503937l -6.873650449 -3.968503937"/><path fill="none" stroke="#1a1a18" stroke-width="1" stroke-linecap="butt" stroke-linejoin="miter" stroke-miterlimit="4" transform="translate(74.328 13.292897638)" d="M 0 0m 0 18.418519061v -18.418519061"/><path fill="#1a1a18" fill-rule="nonzero" stroke="#1a1a18" stroke-width="1" stroke-linecap="butt" stroke-linejoin="miter" stroke-miterlimit="4" transform="translate(73.265007874 31.71141663)" d="M 0 0m 1.062992126 2.834645669l -1.062992126 -2.834645669h 2.125984252l -1.062992126 2.834645669Z "/><path fill="none" transform="translate(41.93775)" d="M 0 0h 64.7805v 8.474h -64.7805v -8.474Z "/><g transform="translate(41.937749906 -1.6e-8)"><g transform="matrix(1 0 0 -1 0 6.251)"><use xlink:href="#g966D14D99AB05D933C4957B2E7FE95D9" x="0" y="0" fill="#1a1a18" fill-rule="nonzero"/><use xlink:href="#gA3A5C9019285A4C81365474C03E3CF4E" x="4.066" y="0" fill="#1a1a18" fill-rule="nonzero"/><use xlink:href="#gD243A48DAC45EEC7C88A2988B14DD756" x="8.3125" y="0" fill="#1a1a18" fill-rule="nonzero"/><use xlink:href="#gA3A5C9019285A4C81365474C03E3CF4E" x="12.863" y="0" fill="#1a1a18" fill-rule="nonzero"/><use xlink:href="#g5B0FB9F727640150CA57389F67238C5A" x="17.1095" y="0" fill="#1a1a18" fill-rule="nonzero"/><use xlink:href="#g65F4F47574D714441D8E0AFC865670A1" x="24.415" y="0" fill="#1a1a18" fill-rule="nonzero"/><use xlink:href="#g75E31E9387E94E3A457DA9304838F591" x="27.246" y="0" fill="#1a1a18" fill-rule="nonzero"/><use xlink:href="#gC110FFC20529D78AB6B9724BF2D3193A" x="32.813" y="0" fill="#1a1a18" fill-rule="nonzero"/><use xlink:href="#gC86282117E7C9F65658F6DDAC49FC51A" x="37.601" y="0" fill="#1a1a18" fill-rule="nonzero"/><use xlink:href="#g6669B171F620D83100083E58706CE8E4" x="42.6075" y="0" fill="#1a1a18" fill-rule="nonzero"/><use xlink:href="#gA3A5C9019285A4C81365474C03E3CF4E" x="47.7185" y="0" fill="#1a1a18" fill-rule="nonzero"/><use xlink:href="#g111F480562FE960BC5F50C637F145B12" x="51.965" y="0" fill="#1a1a18" fill-rule="nonzero"/><use xlink:href="#g4F6C4B764A667C0D20F43C1E2952DF77" x="57.532" y="0" fill="#1a1a18" fill-rule="nonzero"/><use xlink:href="#g5A6CE4BF34A963031FEFE1D1F48FA683" x="61.9495" y="0" fill="#1a1a18" fill-rule="nonzero"/></g></g><path fill="none" transform="translate(63.288538556 76.20725089)" d="M 0 0h 18.4585v 6.346h -18.4585v -6.346Z "/><g transform="translate(63.28853843 76.207250858)"><g transform="matrix(1 0 0 -1 0 6.251)"><use xlink:href="#gF1C320A4506B818F6BCB8CDA11A2DE6" x="0" y="0" fill="#7c7f6a" fill-rule="nonzero"/><use xlink:href="#gA3A5C9019285A4C81365474C03E3CF4E" x="4.2275" y="0" fill="#7c7f6a" fill-rule="nonzero"/><use xlink:href="#g111F480562FE960BC5F50C637F145B12" x="8.474" y="0" fill="#7c7f6a" fill-rule="nonzero"/><use xlink:href="#g4F6C4B764A667C0D20F43C1E2952DF77" x="14.041" y="0" fill="#7c7f6a" fill-rule="nonzero"/></g></g><path fill="#1a1a18" fill-rule="nonzero" transform="translate(71.493354331 113.922818898)" d="M 0 0m 2.834645669 0c -1.564112126 0 -2.834645669 1.270533543 -2.834645669 2.834645669c 0 1.564112126 1.270533543 2.834645669 2.834645669 2.834645669c 1.564112126 0 2.834645669 -1.270533543 2.834645669 -2.834645669c 0 -1.564112126 -1.270533543 -2.834645669 -2.834645669 -2.834645669Z "/><path fill="none" transform="translate(38.607779528 114.318393701)" d="M 0 0h 29.484v 6.012h -29.484v -6.012Z "/><g transform="translate(38.607779528 114.318393701)"><g transform="matrix(1 0 0 -1 0 5.922)"><use xlink:href="#g4AE5337A4A3FF09E9A9AF89B4B83FC9D" x="0" y="0" fill="#7c7f6a" fill-rule="nonzero"/><use xlink:href="#g5F2B105DCE44482CD07DFE0B4651B637" x="3.744" y="0" fill="#7c7f6a" fill-rule="nonzero"/><use xlink:href="#g7253BD4F4A12C91ABC7B03558525FA66" x="9.018" y="0" fill="#7c7f6a" fill-rule="nonzero"/><use xlink:href="#g82C799C01D06EF19E125C6F4348D75CA" x="13.554" y="0" fill="#7c7f6a" fill-rule="nonzero"/><use xlink:href="#g7253BD4F4A12C91ABC7B03558525FA66" x="19.674" y="0" fill="#7c7f6a" fill-rule="nonzero"/><use xlink:href="#g5F2B105DCE44482CD07DFE0B4651B637" x="24.21" y="0" fill="#7c7f6a" fill-rule="nonzero"/></g></g><path fill="none" transform="translate(0 130.955161417)" d="M 0 0h 148.656v 8.455h -148.656v -8.455Z "/><g transform="translate(-9.4e-8 130.955161291)"><g transform="matrix(1 0 0 -1 0 6.251)"><use xlink:href="#gDBB5E8F5FC9EB2F5349B9D49D6966C24" x="0" y="0" fill="#1a1a18" fill-rule="nonzero"/><use xlink:href="#gC110FFC20529D78AB6B9724BF2D3193A" x="4.769" y="0" fill="#1a1a18" fill-rule="nonzero"/><use xlink:href="#g111F480562FE960BC5F50C637F145B12" x="9.557" y="0" fill="#1a1a18" fill-rule="nonzero"/><use xlink:href="#gA3A5C9019285A4C81365474C03E3CF4E" x="15.124" y="0" fill="#1a1a18" fill-rule="nonzero"/><use xlink:href="#g23869749828957FA40F6BA2ECBEE0846" x="19.3705" y="0" fill="#1a1a18" fill-rule="nonzero"/><use xlink:href="#gF1C320A4506B818F6BCB8CDA11A2DE6" x="27.227" y="0" fill="#1a1a18" fill-rule="nonzero"/><use xlink:href="#gA3A5C9019285A4C81365474C03E3CF4E" x="31.4545" y="0" fill="#1a1a18" fill-rule="nonzero"/><use xlink:href="#g111F480562FE960BC5F50C637F145B12" x="35.701" y="0" fill="#1a1a18" fill-rule="nonzero"/><use xlink:href="#g30870B079B88F136C2A9AD2E2890E4EB" x="41.268" y="0" fill="#1a1a18" fill-rule="nonzero"/><use xlink:href="#g111F480562FE960BC5F50C637F145B12" x="49.21" y="0" fill="#1a1a18" fill-rule="nonzero"/><use xlink:href="#g30F02AEBABA7D40FC17FCA43D8EB3DAA" x="54.777" y="0" fill="#1a1a18" fill-rule="nonzero"/><use xlink:href="#gC2CBF98E7E07B945C6FA500EA68B32AD" x="61.4935" y="0" fill="#1a1a18" fill-rule="nonzero"/><use xlink:href="#gA3A5C9019285A4C81365474C03E3CF4E" x="67.9535" y="0" fill="#1a1a18" fill-rule="nonzero"/><use xlink:href="#gF1C320A4506B818F6BCB8CDA11A2DE6" x="72.2" y="0" fill="#1a1a18" fill-rule="nonzero"/><use xlink:href="#gDBB5E8F5FC9EB2F5349B9D49D6966C24" x="76.4275" y="0" fill="#1a1a18" fill-rule="nonzero"/><use xlink:href="#gA3A5C9019285A4C81365474C03E3CF4E" x="81.1965" y="0" fill="#1a1a18" fill-rule="nonzero"/><use xlink:href="#gA47C4F0B8C3EC5E73D65847FE6AA30D8" x="87.818" y="0" fill="#1a1a18" fill-rule="nonzero"/><use xlink:href="#gF1C320A4506B818F6BCB8CDA11A2DE6" x="95.418" y="0" fill="#1a1a18" fill-rule="nonzero"/><use xlink:href="#gA3A5C9019285A4C81365474C03E3CF4E" x="99.6455" y="0" fill="#1a1a18" fill-rule="nonzero"/><use xlink:href="#gDBB5E8F5FC9EB2F5349B9D49D6966C24" x="103.892" y="0" fill="#1a1a18" fill-rule="nonzero"/><use xlink:href="#gE3D46A95002377B54E13EEB95624C7DA" x="108.661" y="0" fill="#1a1a18" fill-rule="nonzero"/><use xlink:href="#g1FC4F205433E0CF638FCEB589ABFC670" x="113.5535" y="0" fill="#1a1a18" fill-rule="nonzero"/><use xlink:href="#g30870B079B88F136C2A9AD2E2890E4EB" x="121.619" y="0" fill="#1a1a18" fill-rule="nonzero"/><use xlink:href="#g84D5B0775AF6B63E9D146732051F63A6" x="127.186" y="0" fill="#1a1a18" fill-rule="nonzero"/><use xlink:href="#g7B65AFC2AB15B852360730FC4AD8D7EC" x="135.128" y="0" fill="#1a1a18" fill-rule="nonzero"/><use xlink:href="#g30F02AEBABA7D40FC17FCA43D8EB3DAA" x="140.2485" y="0" fill="#1a1a18" fill-rule="nonzero"/><use xlink:href="#g966D14D99AB05D933C4957B2E7FE95D9" x="144.59" y="0" fill="#1a1a18" fill-rule="nonzero"/></g></g></g><defs><symbol id="g966D14D99AB05D933C4957B2E7FE95D9" overflow="visible"><path d="M 0 0m 3.781 0.8645c -0.038 0.0855 -0.114 0.1235 -0.1995 0.133c -0.323 -0.418 -0.7315 -0.627 -1.14 -0.627c -0.6935 0 -1.273 0.703 -1.273 1.8145c 0 1.045 0.456 1.672 1.083 1.672c 0.5605 0 0.6365 -0.3325 0.6745 -0.665c 0.0285 -0.2565 0.1615 -0.342 0.361 -0.342c 0.1995 0 0.4655 0.1235 0.4655 0.418c 0 0.5225 -0.5415 0.9025 -1.4535 0.9025c -0.9405 0 -1.9475 -0.8455 -1.9475 -2.1945c 0 -1.2255 0.684 -2.071 1.881 -2.071c 0.57 0 1.0735 0.1805 1.5485 0.9595Z "/></symbol><symbol id="gA3A5C9019285A4C81365474C03E3CF4E" overflow="visible"><path d="M 0 0m 3.667 0.8835c -0.3515 -0.361 -0.627 -0.513 -1.178 -0.513c -0.342 0 -0.741 0.1995 -1.0355 0.684c -0.19 0.3135 -0.304 0.7505 -0.304 1.3015l 2.527 -0.019c 0.114 0 0.1805 0.057 0.1805 0.1615c 0 0.798 -0.285 1.653 -1.6055 1.653c -0.8265 0 -1.9 -0.7885 -1.9 -2.2325c 0 -0.532 0.133 -1.045 0.4465 -1.406c 0.323 -0.38 0.7695 -0.608 1.4535 -0.608c 0.722 0 1.235 0.3325 1.615 0.8265c -0.0285 0.095 -0.0855 0.1425 -0.1995 0.152Z m -2.489 1.7955c 0.1805 1.0735 0.8455 1.159 1.0735 1.159c 0.361 0 0.7885 -0.1995 0.7885 -0.9975c 0 -0.0855 -0.038 -0.133 -0.1425 -0.133Z "/></symbol><symbol id="gD243A48DAC45EEC7C88A2988B14DD756" overflow="visible"><path d="M 0 0m 1.387 4.0755c -0.4085 0 -0.741 0.0095 -1.0545 0.019c -0.057 -0.057 -0.057 -0.2565 0 -0.3135c 0.5795 -0.038 0.684 -0.076 0.684 -0.8645v -1.7575c 0 -0.7885 -0.1045 -0.817 -0.684 -0.8645c -0.057 -0.057 -0.057 -0.2565 0 -0.3135c 0.3135 0.0095 0.646 0.019 1.064 0.019c 0.3515 0 0.665 -0.019 1.3015 -0.019c 0.817 0 1.4345 0.228 1.4345 1.1685c 0 0.532 -0.3325 0.9025 -0.912 1.007v 0.0285c 0.437 0.0855 0.7695 0.3895 0.7695 0.9595c 0 0.665 -0.4085 0.95 -1.558 0.95c -0.3895 0 -0.6365 -0.019 -1.045 -0.019Z m 0.38 -2.014h 0.722c 0.5795 0 0.8265 -0.38 0.8265 -0.95c 0 -0.6365 -0.361 -0.817 -0.874 -0.817c -0.494 0 -0.6745 0.0855 -0.6745 0.5225Z m 0 0.2755v 1.102c 0 0.285 0.2185 0.342 0.6745 0.342c 0.494 0 0.7885 -0.133 0.7885 -0.703c 0 -0.38 -0.247 -0.741 -0.836 -0.741Z "/></symbol><symbol id="g5B0FB9F727640150CA57389F67238C5A" overflow="visible"><path d="M 0 0m 1.482 3.496c -0.0095 0.285 -0.0285 0.532 -0.076 0.627c -0.019 0.0475 -0.038 0.076 -0.114 0.076c -0.266 -0.1045 -0.513 -0.19 -1.1685 -0.2755c -0.019 -0.057 0 -0.209 0.019 -0.266c 0.513 -0.0475 0.6175 -0.095 0.6175 -0.646v -4.0565c 0 -0.7885 -0.1045 -0.836 -0.684 -0.8645c -0.057 -0.057 -0.057 -0.2565 0 -0.3135c 0.3325 0.0095 0.684 0.019 1.064 0.019c 0.38 0 0.836 -0.0095 1.1495 -0.019c 0.057 0.057 0.057 0.2565 0 0.3135c -0.6745 0.038 -0.779 0.076 -0.779 0.8645v 1.026c 0 0.1235 0.038 0.114 0.133 0.076c 0.2375 -0.095 0.5225 -0.152 0.8265 -0.152c 0.532 0 1.007 0.1615 1.3965 0.532c 0.4465 0.437 0.703 1.026 0.703 1.7955c 0 1.007 -0.7125 1.938 -1.6815 1.938c -0.437 0 -0.9215 -0.285 -1.3015 -0.7125c -0.057 -0.057 -0.095 -0.057 -0.1045 0.038Z m 0.1805 -0.3515c 0.247 0.304 0.684 0.589 0.9595 0.589c 0.608 0 1.1305 -0.684 1.1305 -1.7575c 0 -0.779 -0.2755 -1.748 -1.3395 -1.748c -0.171 0 -0.5035 0.0475 -0.6745 0.1995c -0.19 0.171 -0.228 0.228 -0.228 0.57v 1.729c 0 0.1995 0.038 0.285 0.152 0.418Z "/></symbol><symbol id="g65F4F47574D714441D8E0AFC865670A1" overflow="visible"><path d="M 0 0m 0.418 2.394c 0 -0.4275 0.038 -2.622 2.014 -4.332c 0.095 0.019 0.171 0.0855 0.1995 0.1615c -0.3135 0.361 -1.425 1.672 -1.425 4.1705c 0 2.4985 1.121 3.8095 1.425 4.1515c -0.0285 0.095 -0.095 0.1615 -0.1995 0.171c -1.1305 -0.969 -2.014 -2.5555 -2.014 -4.3225Z "/></symbol><symbol id="g75E31E9387E94E3A457DA9304838F591" overflow="visible"><path d="M 0 0m 4.1515 4.0755h -2.698c -0.38 0 -0.741 0.0095 -1.026 0.019c -0.057 -0.057 -0.057 -0.2565 0 -0.3135c 0.5225 -0.038 0.646 -0.0855 0.646 -0.8645v -1.7575c 0 -0.779 -0.1235 -0.8265 -0.741 -0.8645c -0.057 -0.057 -0.057 -0.2565 0 -0.3135c 0.285 0.0095 0.741 0.019 1.121 0.019c 0.38 0 0.665 -0.0095 0.95 -0.019c 0.057 0.057 0.057 0.2565 0 0.3135c -0.4845 0.0475 -0.5795 0.0855 -0.5795 0.8645v 2.0615c 0 0.2945 0.0285 0.4845 0.399 0.4845h 1.1495c 0.3515 0 0.4085 -0.1045 0.4085 -0.4845v -2.0615c 0 -0.779 -0.095 -0.8265 -0.589 -0.8645c -0.0475 -0.057 -0.0475 -0.2565 0 -0.3135c 0.2375 0.0095 0.589 0.019 0.969 0.019c 0.38 0 0.8075 -0.0095 1.0735 -0.019c 0.0475 0.057 0.0475 0.2565 0 0.3135c -0.6175 0.038 -0.703 0.0855 -0.703 0.8645v 1.7575c 0 0.779 0.1235 0.8265 0.646 0.8645c 0.057 0.057 0.057 0.2565 0 0.3135c -0.285 -0.0095 -0.646 -0.019 -1.026 -0.019Z "/></symbol><symbol id="gC110FFC20529D78AB6B9724BF2D3193A" overflow="visible"><path d="M 0 0m 0.3895 1.9475c 0 -0.969 0.646 -2.0425 1.995 -2.0425c 0.608 0 1.0735 0.2185 1.3965 0.532c 0.4275 0.418 0.6175 1.0165 0.6175 1.596c 0 0.988 -0.5415 2.1375 -1.995 2.1375c -0.627 0 -1.14 -0.2565 -1.4915 -0.665c -0.342 -0.4085 -0.5225 -0.9595 -0.5225 -1.558Z m 1.8715 1.8905c 0.817 0 1.3205 -0.741 1.3205 -2.109c 0 -1.197 -0.6175 -1.4915 -1.064 -1.4915c -0.988 0 -1.311 1.197 -1.311 1.9285c 0 0.8265 0.1995 1.672 1.0545 1.672Z "/></symbol><symbol id="gC86282117E7C9F65658F6DDAC49FC51A" overflow="visible"><path d="M 0 0m 3.971 1.159v 1.7575c 0 0.779 0.1235 0.8265 0.646 0.8645c 0.057 0.057 0.057 0.2565 0 0.3135c -0.285 -0.0095 -0.646 -0.019 -1.026 -0.019h -1.7955c -0.3135 0 -0.684 0.0095 -0.969 0.019c -0.057 -0.057 -0.057 -0.2565 0 -0.3135c 0.6745 -0.0475 0.7695 -0.1045 0.7695 -1.1305c 0 -0.9975 -0.076 -1.52 -0.209 -1.9095c -0.1235 -0.342 -0.285 -0.4655 -0.4465 -0.4655c -0.1235 0 -0.1615 0.076 -0.1805 0.1995c -0.0285 0.1805 -0.0855 0.361 -0.3515 0.361c -0.2375 0 -0.3705 -0.19 -0.3705 -0.399c 0 -0.2945 0.266 -0.551 0.703 -0.551c 0.4845 0 0.7505 0.247 0.969 0.76c 0.19 0.456 0.247 1.425 0.247 2.071c 0 0.741 0.0285 0.988 0.4085 0.988h 0.4275c 0.361 0 0.4275 -0.228 0.4275 -0.551v -1.995c 0 -0.779 -0.095 -0.8265 -0.589 -0.8645c -0.0475 -0.057 -0.0475 -0.2565 0 -0.3135c 0.2375 0.0095 0.589 0.019 0.969 0.019c 0.38 0 0.8075 -0.0095 1.0735 -0.019c 0.0475 0.057 0.0475 0.2565 0 0.3135c -0.6175 0.038 -0.703 0.0855 -0.703 0.8645Z "/></symbol><symbol id="g6669B171F620D83100083E58706CE8E4" overflow="visible"><path d="M 0 0m 1.7955 4.0755c -0.3135 0 -0.684 0.0095 -0.969 0.019c -0.057 -0.057 -0.057 -0.2565 0 -0.3135c 0.5795 -0.0475 0.7505 -0.0855 0.7125 -0.874c -0.038 -0.874 -0.19 -1.577 -0.3515 -2.242c -0.057 -0.2565 -0.3325 -0.342 -0.5985 -0.3705c -0.1425 -0.019 -0.2755 -0.076 -0.285 -0.247l -0.057 -1.2635c 0.0665 -0.0285 0.1425 -0.038 0.2565 -0.0095c 0.0855 0.3515 0.342 1.2255 1.197 1.2255h 1.6435c 0.8455 0 1.121 -0.855 1.2065 -1.235c 0.0855 -0.019 0.171 -0.019 0.266 0.019l -0.057 1.273c 0 0.133 -0.076 0.209 -0.2565 0.2375c -0.171 0.0285 -0.4085 0.095 -0.4085 0.4465v 2.1755c 0 0.779 0.1235 0.8265 0.646 0.8645c 0.057 0.057 0.057 0.2565 0 0.3135c -0.285 -0.0095 -0.646 -0.019 -1.026 -0.019Z m -0.266 -3.591c 0 0.1615 0.2565 0.7885 0.399 2.964c 0.0095 0.1425 0.076 0.266 0.3325 0.266h 0.6555c 0.38 0 0.4275 -0.266 0.4275 -0.589v -2.2895c 0 -0.3135 -0.019 -0.4655 -0.399 -0.4655h -1.2255c -0.1045 0 -0.19 0.0095 -0.19 0.114Z "/></symbol><symbol id="g111F480562FE960BC5F50C637F145B12" overflow="visible"><path d="M 0 0m 4.5505 2.9165c 0 0.7885 0.1045 0.817 0.684 0.8645c 0.057 0.057 0.057 0.2565 0 0.3135c -0.3325 -0.019 -0.7505 -0.019 -1.064 -0.019c -0.266 0 -0.646 0.0095 -1.0165 0.019c -0.057 -0.057 -0.057 -0.2565 0 -0.3135c 0.5795 -0.038 0.646 -0.076 0.646 -0.8645v -0.6175h -2.033v 0.6175c 0 0.7885 0.0665 0.817 0.646 0.8645c 0.057 0.057 0.057 0.2565 0 0.3135c -0.361 -0.0095 -0.722 -0.019 -1.026 -0.019c -0.285 0 -0.6745 0.0095 -1.0545 0.019c -0.057 -0.057 -0.057 -0.2565 0 -0.3135c 0.5795 -0.038 0.684 -0.076 0.684 -0.8645v -1.7575c 0 -0.7885 -0.1045 -0.817 -0.684 -0.8645c -0.057 -0.057 -0.057 -0.2565 0 -0.3135c 0.38 0.0095 0.76 0.019 1.064 0.019c 0.304 0 0.6745 -0.0095 1.0165 -0.019c 0.057 0.057 0.057 0.2565 0 0.3135c -0.5795 0.038 -0.646 0.076 -0.646 0.8645v 0.8265h 2.033v -0.8265c 0 -0.7885 -0.0665 -0.817 -0.646 -0.8645c -0.057 -0.057 -0.057 -0.2565 0 -0.3135c 0.342 0.0095 0.6935 0.019 1.026 0.019c 0.285 0 0.684 -0.0095 1.0545 -0.019c 0.057 0.057 0.057 0.2565 0 0.3135c -0.5795 0.038 -0.684 0.076 -0.684 0.8645Z "/></symbol><symbol id="g4F6C4B764A667C0D20F43C1E2952DF77" overflow="visible"><path d="M 0 0m 1.767 2.907c 0 0.798 0.1045 0.8265 0.684 0.874c 0.057 0.057 0.057 0.2565 0 0.3135c -0.323 -0.0095 -0.646 -0.019 -1.064 -0.019c -0.4085 0 -0.741 0.0095 -1.0545 0.019c -0.057 -0.057 -0.057 -0.2565 0 -0.3135c 0.5795 -0.038 0.684 -0.076 0.684 -0.8645v -1.7575c 0 -0.7885 -0.1045 -0.817 -0.684 -0.8645c -0.057 -0.057 -0.057 -0.2565 0 -0.3135c 0.3135 0.0095 0.646 0.019 1.064 0.019c 0.3895 0 0.5985 -0.019 0.988 -0.019c 1.1685 0 1.805 0.2945 1.805 1.311c 0 0.893 -0.779 1.1495 -1.7385 1.1495h -0.684Z m 1.6055 -1.71c 0 -0.779 -0.475 -0.9025 -0.9785 -0.9025c -0.4655 0 -0.627 0.095 -0.627 0.4275v 1.406h 0.6745c 0.7125 0 0.931 -0.4275 0.931 -0.931Z "/></symbol><symbol id="g5A6CE4BF34A963031FEFE1D1F48FA683" overflow="visible"><path d="M 0 0m 2.413 2.394c 0 0.4275 -0.038 2.622 -2.014 4.332c -0.095 -0.019 -0.171 -0.0855 -0.1995 -0.1615c 0.3135 -0.361 1.425 -1.672 1.425 -4.1705c 0 -2.4985 -1.121 -3.8095 -1.425 -4.1515c 0.0285 -0.095 0.095 -0.1615 0.1995 -0.171c 1.1305 0.969 2.014 2.5555 2.014 4.3225Z "/></symbol><symbol id="gF1C320A4506B818F6BCB8CDA11A2DE6" overflow="visible"><path d="M 0 0m 1.729 1.159c 0 -0.7885 -0.1045 -0.836 -0.684 -0.8645c -0.057 -0.057 -0.057 -0.2565 0 -0.3135c 0.3705 0.0095 0.7505 0.019 1.064 0.019c 0.323 0 0.6935 -0.0095 1.0545 -0.019c 0.057 0.057 0.057 0.2565 0 0.3135c -0.5795 0.0285 -0.684 0.076 -0.684 0.8645v 2.565h 0.1615c 0.7695 0 0.9215 -0.266 1.083 -1.0355c 0.1235 0 0.247 0.038 0.247 0.038c -0.057 0.437 -0.095 0.855 -0.1045 1.406c -0.2185 -0.019 -0.931 -0.057 -1.406 -0.057h -0.7125c -0.475 0 -1.007 0.0285 -1.387 0.057c -0.0095 -0.551 -0.0475 -0.969 -0.114 -1.406c 0 0 0.133 -0.038 0.2565 -0.038c 0.1615 0.7695 0.304 1.0355 1.083 1.0355h 0.1425Z "/></symbol><symbol id="g4AE5337A4A3FF09E9A9AF89B4B83FC9D" overflow="visible"><path d="M 0 0m 1.674 2.763c 0 0.513 0.063 0.747 0.378 0.747h 0.198c 0.738 0 0.954 -0.513 1.08 -1.035c 0.099 -0.009 0.189 0 0.261 0.036c -0.036 0.477 -0.063 0.873 -0.117 1.35l -0.018 0.018c 0 0 -0.72 -0.018 -1.008 -0.018h -1.134c -0.387 0 -0.702 0.009 -0.999 0.018c -0.054 -0.054 -0.054 -0.243 0 -0.297c 0.549 -0.036 0.648 -0.072 0.648 -0.819v -1.665c 0 -0.747 -0.099 -0.774 -0.648 -0.819c -0.054 -0.054 -0.054 -0.243 0 -0.297c 0.297 0.009 0.612 0.018 1.008 0.018c 0.387 0 0.711 -0.009 0.999 -0.018c 0.054 0.054 0.054 0.243 0 0.297c -0.549 0.036 -0.648 0.072 -0.648 0.819Z "/></symbol><symbol id="g5F2B105DCE44482CD07DFE0B4651B637" overflow="visible"><path d="M 0 0m 4.311 2.763c 0 0.747 0.099 0.774 0.648 0.819c 0.054 0.054 0.054 0.243 0 0.297c -0.315 -0.018 -0.711 -0.018 -1.008 -0.018c -0.252 0 -0.612 0.009 -0.963 0.018c -0.054 -0.054 -0.054 -0.243 0 -0.297c 0.549 -0.036 0.612 -0.072 0.612 -0.819v -0.585h -1.926v 0.585c 0 0.747 0.063 0.774 0.612 0.819c 0.054 0.054 0.054 0.243 0 0.297c -0.342 -0.009 -0.684 -0.018 -0.972 -0.018c -0.27 0 -0.639 0.009 -0.999 0.018c -0.054 -0.054 -0.054 -0.243 0 -0.297c 0.549 -0.036 0.648 -0.072 0.648 -0.819v -1.665c 0 -0.747 -0.099 -0.774 -0.648 -0.819c -0.054 -0.054 -0.054 -0.243 0 -0.297c 0.36 0.009 0.72 0.018 1.008 0.018c 0.288 0 0.639 -0.009 0.963 -0.018c 0.054 0.054 0.054 0.243 0 0.297c -0.549 0.036 -0.612 0.072 -0.612 0.819v 0.783h 1.926v -0.783c 0 -0.747 -0.063 -0.774 -0.612 -0.819c -0.054 -0.054 -0.054 -0.243 0 -0.297c 0.324 0.009 0.657 0.018 0.972 0.018c 0.27 0 0.648 -0.009 0.999 -0.018c 0.054 0.054 0.054 0.243 0 0.297c -0.549 0.036 -0.648 0.072 -0.648 0.819Z "/></symbol><symbol id="g7253BD4F4A12C91ABC7B03558525FA66" overflow="visible"><path d="M 0 0m 0.369 1.845c 0 -0.918 0.612 -1.935 1.89 -1.935c 0.576 0 1.017 0.207 1.323 0.504c 0.405 0.396 0.585 0.963 0.585 1.512c 0 0.936 -0.513 2.025 -1.89 2.025c -0.594 0 -1.08 -0.243 -1.413 -0.63c -0.324 -0.387 -0.495 -0.909 -0.495 -1.476Z m 1.773 1.791c 0.774 0 1.251 -0.702 1.251 -1.998c 0 -1.134 -0.585 -1.413 -1.008 -1.413c -0.936 0 -1.242 1.134 -1.242 1.827c 0 0.783 0.189 1.584 0.999 1.584Z "/></symbol><symbol id="g82C799C01D06EF19E125C6F4348D75CA" overflow="visible"><path d="M 0 0m 1.053 2.754l -0.054 -1.674c -0.027 -0.756 -0.162 -0.774 -0.684 -0.801c -0.054 -0.054 -0.054 -0.243 0 -0.297c 0.18 0.009 0.63 0.018 0.774 0.018c 0.18 0 0.603 -0.009 0.783 -0.018c 0.054 0.054 0.054 0.243 0 0.297c -0.513 0.036 -0.549 0.126 -0.531 0.801l 0.063 2.205c 0 0.081 0.036 0.081 0.072 0l 1.305 -3.186c 0.036 -0.027 0.072 -0.027 0.099 0l 1.476 3.177c 0.045 0.099 0.09 0.108 0.09 0l -0.009 -2.178c 0 -0.747 -0.063 -0.774 -0.612 -0.819c -0.054 -0.054 -0.054 -0.243 0 -0.297c 0.324 0.009 0.657 0.018 0.972 0.018c 0.27 0 0.657 -0.009 1.008 -0.018c 0.054 0.054 0.054 0.243 0 0.297c -0.549 0.036 -0.648 0.072 -0.648 0.819l -0.018 1.665c -0.009 0.747 0.099 0.774 0.648 0.819c 0.054 0.054 0.054 0.243 0 0.297c -0.315 -0.018 -1.188 -0.018 -1.485 -0.018l -1.197 -2.574l -0.045 -0.09l -0.036 0.09l -1.053 2.574c -0.297 0 -1.251 0 -1.566 0.018c -0.054 -0.054 -0.054 -0.243 0 -0.297c 0.549 -0.045 0.675 -0.081 0.648 -0.828Z "/></symbol><symbol id="gDBB5E8F5FC9EB2F5349B9D49D6966C24" overflow="visible"><path d="M 0 0m 3.667 0c 0 0 0.741 -0.0095 0.931 -0.019c 0.057 0.057 0.057 0.2565 0 0.3135c -0.3705 0.019 -0.4465 0.095 -0.608 0.399l -0.4275 0.8075c -0.2375 0.4465 -0.57 0.6745 -1.1115 0.6745v 0.0285c 0.3705 0.1045 0.532 0.437 0.6745 0.817c 0.114 0.2945 0.228 0.475 0.4275 0.475c 0.0855 0 0.1615 -0.0285 0.2185 -0.0665c 0.057 -0.038 0.1615 -0.0665 0.285 -0.0665c 0.209 0 0.38 0.1805 0.38 0.3705c 0 0.209 -0.228 0.4275 -0.5415 0.4275c -0.551 0 -0.8075 -0.513 -0.988 -0.9595c -0.209 -0.5225 -0.4655 -0.8835 -1.14 -0.8835v 0.5985c 0 0.7885 0.1045 0.817 0.589 0.8645c 0.057 0.057 0.057 0.2565 0 0.3135c -0.228 -0.0095 -0.589 -0.019 -0.969 -0.019c -0.4085 0 -0.741 0.0095 -1.0545 0.019c -0.057 -0.057 -0.057 -0.2565 0 -0.3135c 0.5795 -0.038 0.684 -0.076 0.684 -0.8645v -1.7575c 0 -0.7885 -0.1045 -0.817 -0.684 -0.8645c -0.057 -0.057 -0.057 -0.2565 0 -0.3135c 0.3135 0.0095 0.646 0.019 1.064 0.019c 0.3705 0 0.7505 -0.0095 0.9595 -0.019c 0.057 0.057 0.057 0.2565 0 0.3135c -0.4845 0.038 -0.589 0.076 -0.589 0.8645v 0.8265c 0.646 -0.038 0.817 -0.2945 0.988 -0.646l 0.4085 -0.855c 0.1235 -0.2565 0.3135 -0.475 0.5035 -0.4845Z "/></symbol><symbol id="g23869749828957FA40F6BA2ECBEE0846" overflow="visible"><path d="M 0 0m 2.1375 0.3705c -0.3515 0 -0.4085 0.1045 -0.4085 0.4845v 2.0615c 0 0.779 0.095 0.8265 0.589 0.8645c 0.0475 0.057 0.0475 0.2565 0 0.3135c -0.2375 -0.0095 -0.589 -0.019 -0.969 -0.019c -0.38 0 -0.7125 0.0095 -0.9785 0.019c -0.0475 -0.057 -0.0475 -0.2565 0 -0.3135c 0.5225 -0.038 0.608 -0.0855 0.608 -0.8645v -1.7575c 0 -0.779 -0.1235 -0.8265 -0.646 -0.8645c -0.057 -0.057 -0.057 -0.2565 0 -0.3135c 0.285 0.0095 0.646 0.019 1.026 0.019h 2.394c 0.798 0 1.0735 -0.76 1.197 -1.2255c 0.0855 -0.019 0.171 -0.019 0.247 0.0095l -0.057 1.2635c -0.0095 0.171 -0.152 0.2185 -0.285 0.247c -0.2185 0.0475 -0.3705 0.1045 -0.3705 0.8645v 1.7575c 0 0.779 0.1235 0.8265 0.646 0.8645c 0.057 0.057 0.057 0.2565 0 0.3135c -0.285 -0.0095 -0.646 -0.019 -1.026 -0.019c -0.38 0 -0.665 0.0095 -0.95 0.019c -0.057 -0.057 -0.057 -0.2565 0 -0.3135c 0.4845 -0.0475 0.5795 -0.0855 0.5795 -0.8645v -2.0615c 0 -0.2945 -0.0285 -0.4845 -0.399 -0.4845Z "/></symbol><symbol id="g30870B079B88F136C2A9AD2E2890E4EB" overflow="visible"><path d="M 0 0m 1.881 0.5985c -0.0285 0 -0.0665 0.019 -0.0665 0.114v 2.166c 0 0.7885 0.1995 0.874 0.684 0.9025c 0.057 0.057 0.057 0.2565 0 0.3135c -0.2185 -0.0095 -0.76 -0.019 -1.1115 -0.019c -0.3135 0 -0.6935 0.0095 -1.0545 0.019c -0.057 -0.057 -0.057 -0.2565 0 -0.3135c 0.5795 -0.0285 0.7315 -0.114 0.7315 -0.9025v -1.6815c 0 -0.7885 -0.152 -0.874 -0.7315 -0.9025c -0.057 -0.057 -0.057 -0.2565 0 -0.3135c 0.3705 0.0095 0.7505 0.019 1.0545 0.019c 0.2185 0 0.475 -0.0095 0.5795 -0.019c 0.0475 0.133 0.133 0.323 0.2375 0.513l 1.482 2.9735c 0.0285 0 0.0665 -0.019 0.0665 -0.114v -2.1565c 0 -0.7885 -0.1995 -0.874 -0.684 -0.9025c -0.057 -0.057 -0.057 -0.2565 0 -0.3135c 0.2185 0.0095 0.7315 0.019 1.1115 0.019c 0.2945 0 0.684 -0.0095 1.0545 -0.019c 0.057 0.057 0.057 0.2565 0 0.3135c -0.5795 0.0285 -0.7315 0.114 -0.7315 0.9025v 1.6815c 0 0.7885 0.152 0.874 0.7315 0.9025c 0.057 0.057 0.057 0.2565 0 0.3135c -0.38 -0.0095 -0.76 -0.019 -1.0545 -0.019c -0.209 0 -0.475 0.0095 -0.57 0.019c -0.076 -0.171 -0.1615 -0.3705 -0.247 -0.532Z "/></symbol><symbol id="g30F02AEBABA7D40FC17FCA43D8EB3DAA" overflow="visible"><path d="M 0 0m 2.7835 0.456c 0.057 -0.2945 0.1615 -0.551 0.6365 -0.551c 0.361 0 0.703 0.1615 0.9025 0.3515c -0.019 0.114 -0.057 0.1995 -0.1615 0.2565c -0.0665 -0.057 -0.228 -0.152 -0.3515 -0.152c -0.2755 0 -0.285 0.3705 -0.285 0.8075v 1.3965c 0 1.349 -0.741 1.6055 -1.4345 1.6055c -0.779 0 -1.5675 -0.513 -1.5675 -1.0545c 0 -0.228 0.114 -0.342 0.3325 -0.342c 0.2755 0 0.4465 0.1995 0.4465 0.323c 0 0.0665 -0.0095 0.133 -0.0285 0.171c -0.0095 0.0285 -0.019 0.0855 -0.019 0.19c 0 0.2945 0.399 0.399 0.76 0.399c 0.323 0 0.7695 -0.1615 0.7695 -1.235c 0 -0.0665 -0.0285 -0.1045 -0.057 -0.114l -0.817 -0.1995c -0.912 -0.228 -1.5675 -0.7315 -1.5675 -1.3775c 0 -0.779 0.532 -1.026 1.197 -1.026c 0.3325 0 0.6175 0.076 1.0355 0.399l 0.19 0.152Z m 0 1.7575v -1.254c 0 -0.1235 -0.057 -0.19 -0.133 -0.247c -0.247 -0.1995 -0.57 -0.418 -0.836 -0.418c -0.475 0 -0.684 0.38 -0.684 0.6745c 0 0.4275 0.1995 0.8645 0.9025 1.045Z "/></symbol><symbol id="gC2CBF98E7E07B945C6FA500EA68B32AD" overflow="visible"><path d="M 0 0m 1.1115 2.907l -0.057 -1.767c -0.0285 -0.798 -0.171 -0.817 -0.722 -0.8455c -0.057 -0.057 -0.057 -0.2565 0 -0.3135c 0.19 0.0095 0.665 0.019 0.817 0.019c 0.19 0 0.6365 -0.0095 0.8265 -0.019c 0.057 0.057 0.057 0.2565 0 0.3135c -0.5415 0.038 -0.5795 0.133 -0.5605 0.8455l 0.0665 2.3275c 0 0.0855 0.038 0.0855 0.076 0l 1.3775 -3.363c 0.038 -0.0285 0.076 -0.0285 0.1045 0l 1.558 3.3535c 0.0475 0.1045 0.095 0.114 0.095 0l -0.0095 -2.299c 0 -0.7885 -0.0665 -0.817 -0.646 -0.8645c -0.057 -0.057 -0.057 -0.2565 0 -0.3135c 0.342 0.0095 0.6935 0.019 1.026 0.019c 0.285 0 0.6935 -0.0095 1.064 -0.019c 0.057 0.057 0.057 0.2565 0 0.3135c -0.5795 0.038 -0.684 0.076 -0.684 0.8645l -0.019 1.7575c -0.0095 0.7885 0.1045 0.817 0.684 0.8645c 0.057 0.057 0.057 0.2565 0 0.3135c -0.3325 -0.019 -1.254 -0.019 -1.5675 -0.019l -1.2635 -2.717l -0.0475 -0.095l -0.038 0.095l -1.1115 2.717c -0.3135 0 -1.3205 0 -1.653 0.019c -0.057 -0.057 -0.057 -0.2565 0 -0.3135c 0.5795 -0.0475 0.7125 -0.0855 0.684 -0.874Z "/></symbol><symbol id="gA47C4F0B8C3EC5E73D65847FE6AA30D8" overflow="visible"><path d="M 0 0m 4.408 2.9355c 0.1235 0 0.2565 0.2185 0.2565 0.3135c 0 0.076 -0.038 0.1615 -0.133 0.1615h -3.724c -0.114 0 -0.2375 -0.1805 -0.2375 -0.323c 0 -0.076 0.057 -0.152 0.1425 -0.152Z m 0 -1.577c 0.1235 0 0.2565 0.2185 0.2565 0.3135c 0 0.076 -0.038 0.1615 -0.133 0.1615h -3.724c -0.114 0 -0.2375 -0.1805 -0.2375 -0.323c 0 -0.076 0.057 -0.152 0.1425 -0.152Z "/></symbol><symbol id="gE3D46A95002377B54E13EEB95624C7DA" overflow="visible"><path d="M 0 0m 1.938 -1.52c 0.152 0.266 0.2755 0.532 0.3895 0.817c 0.76 1.8335 1.1875 2.812 1.6815 3.876c 0.19 0.399 0.323 0.551 0.7695 0.608c 0.057 0.057 0.057 0.2565 0 0.3135c -0.19 -0.0095 -0.4085 -0.019 -0.6745 -0.019c -0.285 0 -0.5795 0.0095 -0.8645 0.019c -0.057 -0.057 -0.057 -0.2565 0 -0.3135c 0.304 -0.0285 0.608 -0.0855 0.456 -0.4275l -0.9405 -2.1755c -0.0665 -0.152 -0.152 -0.1805 -0.228 0.0095l -0.8455 1.976c -0.171 0.399 -0.2185 0.5795 0.3135 0.6175c 0.057 0.057 0.057 0.2565 0 0.3135c -0.3515 -0.0095 -0.7315 -0.019 -1.0735 -0.019c -0.323 0 -0.5795 0.0095 -0.7695 0.019c -0.057 -0.057 -0.057 -0.2565 0 -0.3135c 0.38 -0.0475 0.5035 -0.133 0.7505 -0.7125l 1.0735 -2.4985c 0.0855 -0.19 0.228 -0.627 0.133 -0.893c -0.114 -0.3135 -0.228 -0.5795 -0.3705 -0.874c -0.1045 -0.19 -0.2375 -0.2755 -0.475 -0.2755c -0.133 0 -0.171 0.0285 -0.2755 0.0285c -0.2755 0 -0.418 -0.285 -0.418 -0.4085c 0 -0.1995 0.19 -0.3515 0.4465 -0.3515c 0.1995 0 0.5795 0.076 0.9215 0.684Z "/></symbol><symbol id="g1FC4F205433E0CF638FCEB589ABFC670" overflow="visible"><path d="M 0 0m 6.3555 0c 0.798 0 1.0735 -0.76 1.197 -1.2255c 0.0855 -0.019 0.171 -0.019 0.247 0.0095l -0.057 1.2635c -0.0095 0.171 -0.152 0.2185 -0.285 0.247c -0.2185 0.0475 -0.3705 0.1045 -0.3705 0.8645v 1.7575c 0 0.779 0.1235 0.8265 0.646 0.8645c 0.057 0.057 0.057 0.2565 0 0.3135c -0.285 -0.0095 -0.646 -0.019 -1.026 -0.019c -0.38 0 -0.665 0.0095 -0.95 0.019c -0.057 -0.057 -0.057 -0.2565 0 -0.3135c 0.4845 -0.0475 0.5795 -0.0855 0.5795 -0.8645v -2.0615c 0 -0.2945 -0.0285 -0.4845 -0.399 -0.4845h -1.121c -0.285 0 -0.4085 0.0855 -0.4085 0.4845v 2.0615c 0.0095 0.779 0.076 0.8265 0.589 0.8645c 0.0475 0.057 0.0475 0.2565 0 0.3135c -0.2375 -0.0095 -0.589 -0.019 -0.969 -0.019c -0.38 0 -0.6935 0.0095 -0.931 0.019c -0.0475 -0.057 -0.0475 -0.2565 0 -0.3135c 0.475 -0.038 0.57 -0.0855 0.5605 -0.8645v -2.071c 0 -0.3515 -0.0475 -0.475 -0.399 -0.475h -1.083c -0.3515 0 -0.4085 0.1045 -0.4085 0.4845v 2.0615c 0 0.779 0.095 0.8265 0.589 0.8645c 0.0475 0.057 0.0475 0.2565 0 0.3135c -0.2375 -0.0095 -0.589 -0.019 -0.969 -0.019c -0.38 0 -0.7125 0.0095 -0.9785 0.019c -0.0475 -0.057 -0.0475 -0.2565 0 -0.3135c 0.5225 -0.038 0.608 -0.0855 0.608 -0.8645v -1.7575c 0 -0.779 -0.1235 -0.8265 -0.646 -0.8645c -0.057 -0.057 -0.057 -0.2565 0 -0.3135c 0.285 0.0095 0.646 0.019 1.026 0.019Z "/></symbol><symbol id="g84D5B0775AF6B63E9D146732051F63A6" overflow="visible"><path d="M 0 0m 1.881 0.5985c -0.0285 0 -0.0665 0.019 -0.0665 0.114v 2.166c 0 0.7885 0.1995 0.874 0.684 0.9025c 0.057 0.057 0.057 0.2565 0 0.3135c -0.2185 -0.0095 -0.76 -0.019 -1.1115 -0.019c -0.3135 0 -0.6935 0.0095 -1.0545 0.019c -0.057 -0.057 -0.057 -0.2565 0 -0.3135c 0.5795 -0.0285 0.7315 -0.114 0.7315 -0.9025v -1.6815c 0 -0.7885 -0.152 -0.874 -0.7315 -0.9025c -0.057 -0.057 -0.057 -0.2565 0 -0.3135c 0.3705 0.0095 0.7505 0.019 1.0545 0.019c 0.2185 0 0.475 -0.0095 0.5795 -0.019c 0.0475 0.133 0.133 0.323 0.2375 0.513l 1.482 2.9735c 0.0285 0 0.0665 -0.019 0.0665 -0.114v -2.1565c 0 -0.7885 -0.1995 -0.874 -0.684 -0.9025c -0.057 -0.057 -0.057 -0.2565 0 -0.3135c 0.2185 0.0095 0.7315 0.019 1.1115 0.019c 0.2945 0 0.684 -0.0095 1.0545 -0.019c 0.057 0.057 0.057 0.2565 0 0.3135c -0.5795 0.0285 -0.7315 0.114 -0.7315 0.9025v 1.6815c 0 0.7885 0.152 0.874 0.7315 0.9025c 0.057 0.057 0.057 0.2565 0 0.3135c -0.38 -0.0095 -0.76 -0.019 -1.0545 -0.019c -0.209 0 -0.475 0.0095 -0.57 0.019c -0.076 -0.171 -0.1615 -0.3705 -0.247 -0.532Z m 2.0425 5.0065c 0 0.1805 -0.133 0.3135 -0.361 0.3135c -0.171 0 -0.3325 -0.133 -0.3325 -0.2945c 0 -0.0285 0 -0.0475 0.0095 -0.0665c 0.0095 -0.0285 0.0095 -0.057 0.0095 -0.0855c 0 -0.209 -0.1995 -0.399 -0.475 -0.399c -0.285 0 -0.475 0.1995 -0.475 0.4085c 0 0.019 0 0.0475 0.0095 0.076c 0.0095 0.0285 0.0095 0.0475 0.0095 0.076c 0 0.152 -0.114 0.285 -0.323 0.285c -0.2185 0 -0.3705 -0.1425 -0.3705 -0.3135c 0 -0.513 0.5225 -0.8265 1.14 -0.8265c 0.608 0 1.159 0.304 1.159 0.8265Z "/></symbol><symbol id="g7B65AFC2AB15B852360730FC4AD8D7EC" overflow="visible"><path d="M 0 0m 1.539 2.9165c 0 0.7885 0.1045 0.817 0.589 0.8645c 0.057 0.057 0.057 0.2565 0 0.3135c -0.228 -0.0095 -0.589 -0.019 -0.969 -0.019c -0.4085 0 -0.7315 0.0095 -1.045 0.019c -0.057 -0.057 -0.057 -0.2565 0 -0.3135c 0.5795 -0.038 0.684 -0.076 0.684 -0.8645v -0.4085c 0 -0.893 0.1995 -1.2445 1.083 -1.2445c 0.5985 0 1.0735 0.342 1.463 0.627v -0.7315c 0 -0.7885 -0.1045 -0.817 -0.684 -0.8645c -0.057 -0.057 -0.057 -0.2565 0 -0.3135c 0.3135 0.0095 0.646 0.019 1.064 0.019c 0.4085 0 0.76 -0.0095 1.064 -0.019c 0.057 0.057 0.057 0.2565 0 0.3135c -0.5795 0.038 -0.684 0.076 -0.684 0.8645v 1.7575c 0 0.7885 0.1045 0.817 0.684 0.8645c 0.057 0.057 0.057 0.2565 0 0.3135c -0.323 -0.0095 -0.646 -0.019 -1.064 -0.019c -0.3705 0 -0.7505 0.0095 -0.969 0.019c -0.057 -0.057 -0.057 -0.2565 0 -0.3135c 0.4845 -0.038 0.589 -0.076 0.589 -0.8645v -0.684c -0.323 -0.285 -0.665 -0.5415 -1.159 -0.5415c -0.6175 0 -0.646 0.323 -0.646 1.064Z "/></symbol></defs></svg>