<svg viewBox="0 0 213.084102362 156.514846457" width="213.084102362pt" height="156.514846457pt" xmlns="http://www.w3.org/2000/svg" xmlns:xlink="http://www.w3.org/1999/xlink" xmlns:h5="http://www.w3.org/1999/xhtml"><path fill="#ffffff" fill-rule="nonzero" d="M 0 0v 156.514846457h 213.084102362v -156.514846457Z "/><g transform="translate(8 8)"><path fill="#958f81" fill-rule="nonzero" transform="translate(9.487629921 81.225255906)" d="M 0 0v 45.354330709h 170.078740157v -45.354330709h -170.078740157Z "/><path fill="none" stroke="#1a1a18" stroke-width="1" stroke-linecap="butt" stroke-linejoin="miter" stroke-miterlimit="4" transform="translate(9.487629921 81.225255906)" d="M 0 0h 170.078740157"/><path fill="none" stroke="#1a1a18" stroke-width="2" stroke-linecap="butt" stroke-linejoin="miter" stroke-miterlimit="4" transform="translate(94.527 13.193759843)" d="M 0 0m 0 68.031496063v -68.031496063"/><path fill="none" stroke="#1a1a18" stroke-width="0.6" stroke-linecap="butt" stroke-linejoin="miter" stroke-miterlimit="4" transform="translate(66.180543307 27.366988189)" d="M 0 0m 0 14.173228346l 28.346456693 -14.173228346l 28.346456693 14.173228346"/><path fill="none" stroke="#1a1a18" stroke-width="0.6" stroke-linecap="butt" stroke-linejoin="miter" stroke-miterlimit="4" transform="translate(73.26715748 13.193759843)" d="M 0 0m 0 14.173228346l 21.25984252 -14.173228346l 21.25984252 14.173228346"/><path fill="none" stroke="#1a1a18" stroke-width="0.6" stroke-linecap="butt" stroke-linejoin="miter" stroke-miterlimit="4" transform="translate(80.353771654 1.855177165)" d="M 0 0m 0 14.173228346l 14.173228346 -14.173228346l 14.173228346 14.173228346"/><path fill="none" stroke="#1a1a18" stroke-width="0.6" stroke-linecap="butt" stroke-linejoin="miter" stroke-miterlimit="4" transform="translate(71.849834646 81.225255906)" d="M 0 0m 22.677165354 0l -22.677165354 34.015748031"/><path fill="none" stroke="#1a1a18" stroke-width="0.6" stroke-linecap="butt" stroke-linejoin="miter" stroke-miterlimit="4" transform="translate(94.527 81.225255906)" d="M 0 0l 22.677165354 34.015748031"/><path fill="none" stroke="#1a1a18" stroke-width="0.6" stroke-linecap="butt" stroke-linejoin="miter" stroke-miterlimit="4" transform="translate(94.527 81.225255906)" d="M 0 0v 36.850393701"/><path fill="none" stroke="#7c7f6a" stroke-width="0.9" stroke-linecap="butt" stroke-linejoin="miter" stroke-miterlimit="4" transform="translate(40.668732283 7.524468504)" d="M 0 0l 22.386116061 13.431669637"/><path fill="#7c7f6a" fill-rule="nonzero" stroke="#7c7f6a" stroke-width="0.9" stroke-linecap="butt" stroke-linejoin="miter" stroke-miterlimit="4" transform="translate(61.961038356 19.133121714)" d="M 0 0m 5.955187124 4.739842821l -5.955187124 -1.093809891l 2.187619767 -3.646032931l 3.767567357 4.739842821Z "/><path fill="none" transform="translate(20.931940945)" d="M 0 0h 14.0675v 6.545h -14.0675v -6.545Z "/><g transform="translate(20.931940929 -6.3e-8)"><g transform="matrix(1 0 0 -1 0 5.593)"><use xlink:href="#gF3FF310DD78D490221D189C5F51C1BB1" x="0" y="0" fill="#7c7f6a" fill-rule="nonzero"/><use xlink:href="#gFD557F23E29B9A14BAF54EDB9C92FC9E" x="5.491" y="0" fill="#7c7f6a" fill-rule="nonzero"/><use xlink:href="#gA7C85E010252B65CB117C54CDD79F8AA" x="11.458" y="0" fill="#7c7f6a" fill-rule="nonzero"/></g></g><path fill="none" transform="translate(125.708102362 29.468279528)" d="M 0 0h 71.376v 7.136h -71.376v -7.136Z "/><g transform="translate(125.708102315 29.468279417)"><g transform="matrix(1 0 0 -1 0 5.264)"><use xlink:href="#g89E7AED93332C4356E163D20D023452" x="0" y="0" fill="#1a1a18" fill-rule="nonzero"/><use xlink:href="#g3478CFDC408E67C5C7551BD6A62D2425" x="4.12" y="0" fill="#1a1a18" fill-rule="nonzero"/><use xlink:href="#gFF63DA2595F1651AF0C535BF803D9AEC" x="7.448" y="0" fill="#1a1a18" fill-rule="nonzero"/><use xlink:href="#g465CA45D0696F5BBCE5E7A11B5E63D98" x="11.664" y="0" fill="#1a1a18" fill-rule="nonzero"/><use xlink:href="#g46DFAA35BC521B4F2378CE697B4B163E" x="15.24" y="0" fill="#1a1a18" fill-rule="nonzero"/><use xlink:href="#g5D01DA3AB390CB78D7E54204B7DC3F87" x="19.392" y="0" fill="#1a1a18" fill-rule="nonzero"/><use xlink:href="#gAC00C34078948F83CC62D60B02C8E81A" x="23.424" y="0" fill="#1a1a18" fill-rule="nonzero"/><use xlink:href="#gE9BB349F7E32C39203BC6B218DF12838" x="29.728" y="0" fill="#1a1a18" fill-rule="nonzero"/><use xlink:href="#gAC00C34078948F83CC62D60B02C8E81A" x="35.56" y="0" fill="#1a1a18" fill-rule="nonzero"/><use xlink:href="#g46DFAA35BC521B4F2378CE697B4B163E" x="39.864" y="0" fill="#1a1a18" fill-rule="nonzero"/><use xlink:href="#g465CA45D0696F5BBCE5E7A11B5E63D98" x="44.016" y="0" fill="#1a1a18" fill-rule="nonzero"/><use xlink:href="#gE9BB349F7E32C39203BC6B218DF12838" x="47.592" y="0" fill="#1a1a18" fill-rule="nonzero"/><use xlink:href="#g465CA45D0696F5BBCE5E7A11B5E63D98" x="51.424" y="0" fill="#1a1a18" fill-rule="nonzero"/><use xlink:href="#g9F99202881449AD6C0CCCD21824C9AF1" x="55" y="0" fill="#1a1a18" fill-rule="nonzero"/><use xlink:href="#gDF0740817C60D01D4C0A2F901DD857A7" x="58.424" y="0" fill="#1a1a18" fill-rule="nonzero"/><use xlink:href="#g937124D7F3D66536776BB8DA5DFD7893" x="63.112" y="0" fill="#1a1a18" fill-rule="nonzero"/><use xlink:href="#g465CA45D0696F5BBCE5E7A11B5E63D98" x="67.8" y="0" fill="#1a1a18" fill-rule="nonzero"/></g></g><path fill="none" transform="translate(125.708102362 97.499775591)" d="M 0 0h 21.576v 7.136h -21.576v -7.136Z "/><g transform="translate(125.708102268 97.49977548)"><g transform="matrix(1 0 0 -1 0 5.264)"><use xlink:href="#g362A412C7577377BE4D103B9E5EDCC22" x="0" y="0" fill="#ffffff" fill-rule="nonzero"/><use xlink:href="#g5D01DA3AB390CB78D7E54204B7DC3F87" x="4.016" y="0" fill="#ffffff" fill-rule="nonzero"/><use xlink:href="#g46DFAA35BC521B4F2378CE697B4B163E" x="8.048" y="0" fill="#ffffff" fill-rule="nonzero"/><use xlink:href="#g937124D7F3D66536776BB8DA5DFD7893" x="12.2" y="0" fill="#ffffff" fill-rule="nonzero"/><use xlink:href="#gDF0740817C60D01D4C0A2F901DD857A7" x="16.888" y="0" fill="#ffffff" fill-rule="nonzero"/></g></g><path fill="none" transform="translate(12.322275591 100.54492126)" d="M 0 0h 69.904v 6.715h -69.904v -6.715Z "/><g transform="translate(12.322275559 100.544921228)"><g transform="matrix(1 0 0 -1 0 5.593)"><use xlink:href="#gBEE50160BCD570B38DEF46393A725EED" x="0" y="0" fill="#ffffff" fill-rule="nonzero"/><use xlink:href="#gE34E15A46C94CBC2E6ABE8844A1DDB21" x="4.981" y="0" fill="#ffffff" fill-rule="nonzero"/><use xlink:href="#gE827826F9D19F2B711A1B9BF40B9D8A0" x="9.265" y="0" fill="#ffffff" fill-rule="nonzero"/><use xlink:href="#g3D9A67B9902CBFFCF1182D85B33DBA41" x="13.8465" y="0" fill="#ffffff" fill-rule="nonzero"/><use xlink:href="#gF931FC691828778A920607CF18B9C32A" x="17.918" y="0" fill="#ffffff" fill-rule="nonzero"/><use xlink:href="#gE7AE90A8EDDEF3DDB67EE78D36D80337" x="23.9275" y="0" fill="#ffffff" fill-rule="nonzero"/><use xlink:href="#gBEE50160BCD570B38DEF46393A725EED" x="31.0335" y="0" fill="#ffffff" fill-rule="nonzero"/><use xlink:href="#gE34E15A46C94CBC2E6ABE8844A1DDB21" x="36.0145" y="0" fill="#ffffff" fill-rule="nonzero"/><use xlink:href="#gBAF1B227155053221F22F6E06EEFED60" x="40.2985" y="0" fill="#ffffff" fill-rule="nonzero"/><use xlink:href="#g1EEFC323E4FEBE7654D5CC1583F61AF4" x="44.8715" y="0" fill="#ffffff" fill-rule="nonzero"/><use xlink:href="#g3EDD64AE7B5A40E8FE9DD75D51E8EE8A" x="48.5095" y="0" fill="#ffffff" fill-rule="nonzero"/><use xlink:href="#gE7AE90A8EDDEF3DDB67EE78D36D80337" x="52.292" y="0" fill="#ffffff" fill-rule="nonzero"/><use xlink:href="#gB3F6F741CFF64E2F87AE274E4C795DAE" x="57.273" y="0" fill="#ffffff" fill-rule="nonzero"/><use xlink:href="#gA501B866130BB2CA150759E9628F05FB" x="61.7525" y="0" fill="#ffffff" fill-rule="nonzero"/><use xlink:href="#gF931FC691828778A920607CF18B9C32A" x="66.0195" y="0" fill="#ffffff" fill-rule="nonzero"/></g></g><path fill="none" transform="translate(0 132.486846457)" d="M 0 0h 189.054v 8.028h -189.054v -8.028Z "/><g transform="translate(0 132.486846457)"><g transform="matrix(1 0 0 -1 0 5.922)"><use xlink:href="#gBA3E9C2E61A84E296B252679103E17C4" x="0" y="0" fill="#7c7f6a" fill-rule="nonzero"/><use xlink:href="#g7253BD4F4A12C91ABC7B03558525FA66" x="4.842" y="0" fill="#7c7f6a" fill-rule="nonzero"/><use xlink:href="#gA5834380700F55B3689219A2CC4667E3" x="11.628" y="0" fill="#7c7f6a" fill-rule="nonzero"/><use xlink:href="#g7253BD4F4A12C91ABC7B03558525FA66" x="16.902" y="0" fill="#7c7f6a" fill-rule="nonzero"/><use xlink:href="#gB118266EF18AECCCCEF724ECE6F3D1D3" x="21.438" y="0" fill="#7c7f6a" fill-rule="nonzero"/><use xlink:href="#g7253BD4F4A12C91ABC7B03558525FA66" x="26.181" y="0" fill="#7c7f6a" fill-rule="nonzero"/><use xlink:href="#g6F3F83F8220F4B0FE27ED35A349BC8A6" x="30.717" y="0" fill="#7c7f6a" fill-rule="nonzero"/><use xlink:href="#g6EA5A1981697E2B5E95285C58F7F7AD0" x="35.028" y="0" fill="#7c7f6a" fill-rule="nonzero"/><use xlink:href="#g5F2B105DCE44482CD07DFE0B4651B637" x="40.302" y="0" fill="#7c7f6a" fill-rule="nonzero"/><use xlink:href="#g5CCD3C35BE7C263075DDDC3F0C06DEE6" x="45.576" y="0" fill="#7c7f6a" fill-rule="nonzero"/><use xlink:href="#gFFF6E9B9A983FEBF7FB8DCFB305974E9" x="54.342" y="0" fill="#7c7f6a" fill-rule="nonzero"/><use xlink:href="#g4AE5337A4A3FF09E9A9AF89B4B83FC9D" x="58.977" y="0" fill="#7c7f6a" fill-rule="nonzero"/><use xlink:href="#gB118266EF18AECCCCEF724ECE6F3D1D3" x="62.721" y="0" fill="#7c7f6a" fill-rule="nonzero"/><use xlink:href="#gD351E21AD091924D522A6D2D6355C932" x="67.464" y="0" fill="#7c7f6a" fill-rule="nonzero"/><use xlink:href="#g4AD90A9068D018AD3CEC8FD5EA9519DC" x="71.487" y="0" fill="#7c7f6a" fill-rule="nonzero"/><use xlink:href="#g7253BD4F4A12C91ABC7B03558525FA66" x="76.158" y="0" fill="#7c7f6a" fill-rule="nonzero"/><use xlink:href="#gBA3E9C2E61A84E296B252679103E17C4" x="80.694" y="0" fill="#7c7f6a" fill-rule="nonzero"/><use xlink:href="#gF7AD5B3248F8366898BA115B8D318C4E" x="85.536" y="0" fill="#7c7f6a" fill-rule="nonzero"/><use xlink:href="#g56F819E8120FD9FB9B80ECED2D9111AC" x="91.899" y="0" fill="#7c7f6a" fill-rule="nonzero"/><use xlink:href="#g6F3F83F8220F4B0FE27ED35A349BC8A6" x="100.827" y="0" fill="#7c7f6a" fill-rule="nonzero"/><use xlink:href="#gA5834380700F55B3689219A2CC4667E3" x="107.388" y="0" fill="#7c7f6a" fill-rule="nonzero"/><use xlink:href="#g7253BD4F4A12C91ABC7B03558525FA66" x="112.662" y="0" fill="#7c7f6a" fill-rule="nonzero"/><use xlink:href="#g3515EF5FD07324BC31659A9072C9EEF0" x="117.198" y="0" fill="#7c7f6a" fill-rule="nonzero"/><use xlink:href="#g6F3F83F8220F4B0FE27ED35A349BC8A6" x="122.049" y="0" fill="#7c7f6a" fill-rule="nonzero"/><use xlink:href="#gD351E21AD091924D522A6D2D6355C932" x="126.36" y="0" fill="#7c7f6a" fill-rule="nonzero"/><use xlink:href="#gCCF28E29FF8CFE46410F5A526209CFA4" x="130.383" y="0" fill="#7c7f6a" fill-rule="nonzero"/><use xlink:href="#gF7AD5B3248F8366898BA115B8D318C4E" x="134.613" y="0" fill="#7c7f6a" fill-rule="nonzero"/><use xlink:href="#g5F2B105DCE44482CD07DFE0B4651B637" x="140.976" y="0" fill="#7c7f6a" fill-rule="nonzero"/><use xlink:href="#gD351E21AD091924D522A6D2D6355C932" x="146.25" y="0" fill="#7c7f6a" fill-rule="nonzero"/><use xlink:href="#g6F3F83F8220F4B0FE27ED35A349BC8A6" x="152.523" y="0" fill="#7c7f6a" fill-rule="nonzero"/><use xlink:href="#g7815E2C79248546AAEE49EC7F57ADD4E" x="159.084" y="0" fill="#7c7f6a" fill-rule="nonzero"/><use xlink:href="#g611C332DF318E3AAFADBD04F1094DD79" x="162.936" y="0" fill="#7c7f6a" fill-rule="nonzero"/><use xlink:href="#g6F3F83F8220F4B0FE27ED35A349BC8A6" x="166.941" y="0" fill="#7c7f6a" fill-rule="nonzero"/><use xlink:href="#g7253BD4F4A12C91ABC7B03558525FA66" x="171.252" y="0" fill="#7c7f6a" fill-rule="nonzero"/><use xlink:href="#gB118266EF18AECCCCEF724ECE6F3D1D3" x="175.788" y="0" fill="#7c7f6a" fill-rule="nonzero"/><use xlink:href="#gF7AD5B3248F8366898BA115B8D318C4E" x="180.531" y="0" fill="#7c7f6a" fill-rule="nonzero"/><use xlink:href="#g92B0517FEDA546B52C117B2B2515B55D" x="184.644" y="0" fill="#7c7f6a" fill-rule="nonzero"/></g></g></g><defs><symbol id="gF3FF310DD78D490221D189C5F51C1BB1" overflow="visible"><path d="M 0 0m 3.0345 -0.085c 0.8245 0 1.581 0.391 2.159 1.1475c -0.0425 0.0765 -0.102 0.1275 -0.1955 0.1275c -0.6035 -0.663 -1.1815 -0.9265 -1.972 -0.9265c -1.1475 0 -1.938 1.292 -1.938 2.533c 0 0.731 0.1955 1.343 0.5015 1.7255c 0.425 0.5185 0.918 0.7565 1.36 0.7565c 1.173 0 1.6405 -0.697 1.8615 -1.428c 0.102 -0.034 0.187 -0.0085 0.2805 0.0425c -0.0425 0.442 -0.102 0.85 -0.187 1.3175c -0.4335 0.0425 -0.816 0.3825 -1.8615 0.3825c -0.7225 0 -1.326 -0.2635 -1.8275 -0.7225c -0.561 -0.5185 -0.901 -1.3515 -0.901 -2.2355c 0 -1.479 0.8925 -2.72 2.72 -2.72Z "/></symbol><symbol id="gFD557F23E29B9A14BAF54EDB9C92FC9E" overflow="visible"><path d="M 0 0m 5.661 2.7965c 0 1.7595 -1.2155 2.7965 -2.737 2.7965c -1.649 0 -2.6095 -1.309 -2.6095 -2.958c 0 -1.6745 1.2155 -2.72 2.6605 -2.72c 0.9435 0 1.6915 0.408 2.159 1.071c 0.34 0.4845 0.527 1.0965 0.527 1.8105Z m -2.8475 2.4905c 1.122 0 2.0315 -0.935 2.0315 -2.652c 0 -1.5215 -0.731 -2.414 -1.7 -2.414c -1.037 0 -2.0145 0.9265 -2.0145 2.5585c 0 1.785 0.8415 2.5075 1.683 2.5075Z "/></symbol><symbol id="gA7C85E010252B65CB117C54CDD79F8AA" overflow="visible"><path d="M 0 0m 0.6205 0.9435c 0.085 0 0.204 0.0255 0.2295 0.1785c 0.0085 0.0255 0 0.0595 0 0.0935c 0 0.051 0 0.1105 0.017 0.153c 0.0425 0.102 0.1445 0.1785 0.408 0.1785c 0.153 0 0.425 -0.0595 0.425 -0.459c 0 -0.459 -0.204 -0.6545 -0.5865 -0.9605c -0.408 -0.3145 -0.731 -0.6715 -0.731 -1.0795h 1.751c 0.0765 0.2295 0.1275 0.493 0.1615 0.799c -0.0425 0.034 -0.1105 0.0425 -0.204 0.0425c -0.0935 -0.238 -0.2125 -0.5695 -0.476 -0.5695h -0.7055c 0.0765 0.2805 0.204 0.51 0.561 0.765c 0.476 0.34 0.7565 0.6205 0.7565 1.0115c 0 0.544 -0.493 0.7055 -0.918 0.7055c -0.6715 0 -0.9095 -0.4335 -0.9095 -0.6545c 0 -0.1105 0.119 -0.204 0.221 -0.204Z "/></symbol><symbol id="g89E7AED93332C4356E163D20D023452" overflow="visible"><path d="M 0 0m 1.632 -1.28c 0.128 0.224 0.232 0.448 0.328 0.688c 0.64 1.544 1 2.368 1.416 3.264c 0.16 0.336 0.272 0.464 0.648 0.512c 0.048 0.048 0.048 0.216 0 0.264c -0.16 -0.008 -0.344 -0.016 -0.568 -0.016c -0.24 0 -0.488 0.008 -0.728 0.016c -0.048 -0.048 -0.048 -0.216 0 -0.264c 0.256 -0.024 0.512 -0.072 0.384 -0.36l -0.792 -1.832c -0.056 -0.128 -0.128 -0.152 -0.192 0.008l -0.712 1.664c -0.144 0.336 -0.184 0.488 0.264 0.52c 0.048 0.048 0.048 0.216 0 0.264c -0.296 -0.008 -0.616 -0.016 -0.904 -0.016c -0.272 0 -0.488 0.008 -0.648 0.016c -0.048 -0.048 -0.048 -0.216 0 -0.264c 0.32 -0.04 0.424 -0.112 0.632 -0.6l 0.904 -2.104c 0.072 -0.16 0.192 -0.528 0.112 -0.752c -0.096 -0.264 -0.192 -0.488 -0.312 -0.736c -0.088 -0.16 -0.2 -0.232 -0.4 -0.232c -0.112 0 -0.144 0.024 -0.232 0.024c -0.232 0 -0.352 -0.24 -0.352 -0.344c 0 -0.168 0.16 -0.296 0.376 -0.296c 0.168 0 0.488 0.064 0.776 0.576Z "/></symbol><symbol id="g3478CFDC408E67C5C7551BD6A62D2425" overflow="visible"><path d="M 0 0m 1.488 2.456c 0 0.456 0.056 0.664 0.336 0.664h 0.176c 0.656 0 0.848 -0.456 0.96 -0.92c 0.088 -0.008 0.168 0 0.232 0.032c -0.032 0.424 -0.056 0.776 -0.104 1.2l -0.016 0.016c 0 0 -0.64 -0.016 -0.896 -0.016h -1.008c -0.344 0 -0.624 0.008 -0.888 0.016c -0.048 -0.048 -0.048 -0.216 0 -0.264c 0.488 -0.032 0.576 -0.064 0.576 -0.728v -1.48c 0 -0.664 -0.088 -0.688 -0.576 -0.728c -0.048 -0.048 -0.048 -0.216 0 -0.264c 0.264 0.008 0.544 0.016 0.896 0.016c 0.344 0 0.632 -0.008 0.888 -0.016c 0.048 0.048 0.048 0.216 0 0.264c -0.488 0.032 -0.576 0.064 -0.576 0.728Z "/></symbol><symbol id="gFF63DA2595F1651AF0C535BF803D9AEC" overflow="visible"><path d="M 0 0m 3.344 0.976v 1.48c 0 0.656 0.104 0.696 0.544 0.728c 0.048 0.048 0.048 0.216 0 0.264c -0.24 -0.008 -0.544 -0.016 -0.864 -0.016h -1.512c -0.264 0 -0.576 0.008 -0.816 0.016c -0.048 -0.048 -0.048 -0.216 0 -0.264c 0.568 -0.04 0.648 -0.088 0.648 -0.952c 0 -0.84 -0.064 -1.28 -0.176 -1.608c -0.104 -0.288 -0.24 -0.392 -0.376 -0.392c -0.104 0 -0.136 0.064 -0.152 0.168c -0.024 0.152 -0.072 0.304 -0.296 0.304c -0.2 0 -0.312 -0.16 -0.312 -0.336c 0 -0.248 0.224 -0.464 0.592 -0.464c 0.408 0 0.632 0.208 0.816 0.64c 0.16 0.384 0.208 1.2 0.208 1.744c 0 0.624 0.024 0.832 0.344 0.832h 0.36c 0.304 0 0.36 -0.192 0.36 -0.464v -1.68c 0 -0.656 -0.08 -0.696 -0.496 -0.728c -0.04 -0.048 -0.04 -0.216 0 -0.264c 0.2 0.008 0.496 0.016 0.816 0.016c 0.32 0 0.68 -0.008 0.904 -0.016c 0.04 0.048 0.04 0.216 0 0.264c -0.52 0.032 -0.592 0.072 -0.592 0.728Z "/></symbol><symbol id="g465CA45D0696F5BBCE5E7A11B5E63D98" overflow="visible"><path d="M 0 0m 3.088 0.744c -0.296 -0.304 -0.528 -0.432 -0.992 -0.432c -0.288 0 -0.624 0.168 -0.872 0.576c -0.16 0.264 -0.256 0.632 -0.256 1.096l 2.128 -0.016c 0.096 0 0.152 0.048 0.152 0.136c 0 0.672 -0.24 1.392 -1.352 1.392c -0.696 0 -1.6 -0.664 -1.6 -1.88c 0 -0.448 0.112 -0.88 0.376 -1.184c 0.272 -0.32 0.648 -0.512 1.224 -0.512c 0.608 0 1.04 0.28 1.36 0.696c -0.024 0.08 -0.072 0.12 -0.168 0.128Z m -2.096 1.512c 0.152 0.904 0.712 0.976 0.904 0.976c 0.304 0 0.664 -0.168 0.664 -0.84c 0 -0.072 -0.032 -0.112 -0.12 -0.112Z "/></symbol><symbol id="g46DFAA35BC521B4F2378CE697B4B163E" overflow="visible"><path d="M 0 0m 1.248 2.944c -0.008 0.24 -0.024 0.448 -0.064 0.528c -0.016 0.04 -0.032 0.064 -0.096 0.064c -0.224 -0.088 -0.432 -0.16 -0.984 -0.232c -0.016 -0.048 0 -0.176 0.016 -0.224c 0.432 -0.04 0.52 -0.08 0.52 -0.544v -3.416c 0 -0.664 -0.088 -0.704 -0.576 -0.728c -0.048 -0.048 -0.048 -0.216 0 -0.264c 0.28 0.008 0.576 0.016 0.896 0.016c 0.32 0 0.704 -0.008 0.968 -0.016c 0.048 0.048 0.048 0.216 0 0.264c -0.568 0.032 -0.656 0.064 -0.656 0.728v 0.864c 0 0.104 0.032 0.096 0.112 0.064c 0.2 -0.08 0.44 -0.128 0.696 -0.128c 0.448 0 0.848 0.136 1.176 0.448c 0.376 0.368 0.592 0.864 0.592 1.512c 0 0.848 -0.6 1.632 -1.416 1.632c -0.368 0 -0.776 -0.24 -1.096 -0.6c -0.048 -0.048 -0.08 -0.048 -0.088 0.032Z m 0.152 -0.296c 0.208 0.256 0.576 0.496 0.808 0.496c 0.512 0 0.952 -0.576 0.952 -1.48c 0 -0.656 -0.232 -1.472 -1.128 -1.472c -0.144 0 -0.424 0.04 -0.568 0.168c -0.16 0.144 -0.192 0.192 -0.192 0.48v 1.456c 0 0.168 0.032 0.24 0.128 0.352Z "/></symbol><symbol id="g5D01DA3AB390CB78D7E54204B7DC3F87" overflow="visible"><path d="M 0 0m 0.328 1.64c 0 -0.816 0.544 -1.72 1.68 -1.72c 0.512 0 0.904 0.184 1.176 0.448c 0.36 0.352 0.52 0.856 0.52 1.344c 0 0.832 -0.456 1.8 -1.68 1.8c -0.528 0 -0.96 -0.216 -1.256 -0.56c -0.288 -0.344 -0.44 -0.808 -0.44 -1.312Z m 1.576 1.592c 0.688 0 1.112 -0.624 1.112 -1.776c 0 -1.008 -0.52 -1.256 -0.896 -1.256c -0.832 0 -1.104 1.008 -1.104 1.624c 0 0.696 0.168 1.408 0.888 1.408Z "/></symbol><symbol id="gAC00C34078948F83CC62D60B02C8E81A" overflow="visible"><path d="M 0 0m 1.512 3.432c -0.264 0 -0.576 0.008 -0.816 0.016c -0.048 -0.048 -0.048 -0.216 0 -0.264c 0.488 -0.04 0.632 -0.072 0.6 -0.736c -0.032 -0.736 -0.16 -1.328 -0.296 -1.888c -0.048 -0.216 -0.28 -0.288 -0.504 -0.312c -0.12 -0.016 -0.232 -0.064 -0.24 -0.208l -0.048 -1.064c 0.056 -0.024 0.12 -0.032 0.216 -0.008c 0.072 0.296 0.288 1.032 1.008 1.032h 1.384c 0.712 0 0.944 -0.72 1.016 -1.04c 0.072 -0.016 0.144 -0.016 0.224 0.016l -0.048 1.072c 0 0.112 -0.064 0.176 -0.216 0.2c -0.144 0.024 -0.344 0.08 -0.344 0.376v 1.832c 0 0.656 0.104 0.696 0.544 0.728c 0.048 0.048 0.048 0.216 0 0.264c -0.24 -0.008 -0.544 -0.016 -0.864 -0.016Z m -0.224 -3.024c 0 0.136 0.216 0.664 0.336 2.496c 0.008 0.12 0.064 0.224 0.28 0.224h 0.552c 0.32 0 0.36 -0.224 0.36 -0.496v -1.928c 0 -0.264 -0.016 -0.392 -0.336 -0.392h -1.032c -0.088 0 -0.16 0.008 -0.16 0.096Z "/></symbol><symbol id="gE9BB349F7E32C39203BC6B218DF12838" overflow="visible"><path d="M 0 0m 1.168 3.432c -0.344 0 -0.624 0.008 -0.888 0.016c -0.048 -0.048 -0.048 -0.216 0 -0.264c 0.488 -0.032 0.576 -0.064 0.576 -0.728v -1.48c 0 -0.664 -0.088 -0.688 -0.576 -0.728c -0.048 -0.048 -0.048 -0.216 0 -0.264c 0.264 0.008 0.544 0.016 0.896 0.016c 0.296 0 0.56 -0.016 1.096 -0.016c 0.688 0 1.208 0.192 1.208 0.984c 0 0.448 -0.28 0.76 -0.768 0.848v 0.024c 0.368 0.072 0.648 0.328 0.648 0.808c 0 0.56 -0.344 0.8 -1.312 0.8c -0.328 0 -0.536 -0.016 -0.88 -0.016Z m 0.32 -1.696h 0.608c 0.488 0 0.696 -0.32 0.696 -0.8c 0 -0.536 -0.304 -0.688 -0.736 -0.688c -0.416 0 -0.568 0.072 -0.568 0.44Z m 0 0.232v 0.928c 0 0.24 0.184 0.288 0.568 0.288c 0.416 0 0.664 -0.112 0.664 -0.592c 0 -0.32 -0.208 -0.624 -0.704 -0.624Z "/></symbol><symbol id="g9F99202881449AD6C0CCCD21824C9AF1" overflow="visible"><path d="M 0 0m 3.184 0.728c -0.032 0.072 -0.096 0.104 -0.168 0.112c -0.272 -0.352 -0.616 -0.528 -0.96 -0.528c -0.584 0 -1.072 0.592 -1.072 1.528c 0 0.88 0.384 1.408 0.912 1.408c 0.472 0 0.536 -0.28 0.568 -0.56c 0.024 -0.216 0.136 -0.288 0.304 -0.288c 0.168 0 0.392 0.104 0.392 0.352c 0 0.44 -0.456 0.76 -1.224 0.76c -0.792 0 -1.64 -0.712 -1.64 -1.848c 0 -1.032 0.576 -1.744 1.584 -1.744c 0.48 0 0.904 0.152 1.304 0.808Z "/></symbol><symbol id="gDF0740817C60D01D4C0A2F901DD857A7" overflow="visible"><path d="M 0 0m 1.584 0.504c -0.024 0 -0.056 0.016 -0.056 0.096v 1.824c 0 0.664 0.168 0.736 0.576 0.76c 0.048 0.048 0.048 0.216 0 0.264c -0.184 -0.008 -0.64 -0.016 -0.936 -0.016c -0.264 0 -0.584 0.008 -0.888 0.016c -0.048 -0.048 -0.048 -0.216 0 -0.264c 0.488 -0.024 0.616 -0.096 0.616 -0.76v -1.416c 0 -0.664 -0.128 -0.736 -0.616 -0.76c -0.048 -0.048 -0.048 -0.216 0 -0.264c 0.312 0.008 0.632 0.016 0.888 0.016c 0.184 0 0.4 -0.008 0.488 -0.016c 0.04 0.112 0.112 0.272 0.2 0.432l 1.248 2.504c 0.024 0 0.056 -0.016 0.056 -0.096v -1.816c 0 -0.664 -0.168 -0.736 -0.576 -0.76c -0.048 -0.048 -0.048 -0.216 0 -0.264c 0.184 0.008 0.616 0.016 0.936 0.016c 0.248 0 0.576 -0.008 0.888 -0.016c 0.048 0.048 0.048 0.216 0 0.264c -0.488 0.024 -0.616 0.096 -0.616 0.76v 1.416c 0 0.664 0.128 0.736 0.616 0.76c 0.048 0.048 0.048 0.216 0 0.264c -0.32 -0.008 -0.64 -0.016 -0.888 -0.016c -0.176 0 -0.4 0.008 -0.48 0.016c -0.064 -0.144 -0.136 -0.312 -0.208 -0.448Z "/></symbol><symbol id="g937124D7F3D66536776BB8DA5DFD7893" overflow="visible"><path d="M 0 0m 3.832 2.456c 0 0.664 0.088 0.688 0.576 0.728c 0.048 0.048 0.048 0.216 0 0.264c -0.28 -0.016 -0.632 -0.016 -0.896 -0.016c -0.224 0 -0.544 0.008 -0.856 0.016c -0.048 -0.048 -0.048 -0.216 0 -0.264c 0.488 -0.032 0.544 -0.064 0.544 -0.728v -0.52h -1.712v 0.52c 0 0.664 0.056 0.688 0.544 0.728c 0.048 0.048 0.048 0.216 0 0.264c -0.304 -0.008 -0.608 -0.016 -0.864 -0.016c -0.24 0 -0.568 0.008 -0.888 0.016c -0.048 -0.048 -0.048 -0.216 0 -0.264c 0.488 -0.032 0.576 -0.064 0.576 -0.728v -1.48c 0 -0.664 -0.088 -0.688 -0.576 -0.728c -0.048 -0.048 -0.048 -0.216 0 -0.264c 0.32 0.008 0.64 0.016 0.896 0.016c 0.256 0 0.568 -0.008 0.856 -0.016c 0.048 0.048 0.048 0.216 0 0.264c -0.488 0.032 -0.544 0.064 -0.544 0.728v 0.696h 1.712v -0.696c 0 -0.664 -0.056 -0.688 -0.544 -0.728c -0.048 -0.048 -0.048 -0.216 0 -0.264c 0.288 0.008 0.584 0.016 0.864 0.016c 0.24 0 0.576 -0.008 0.888 -0.016c 0.048 0.048 0.048 0.216 0 0.264c -0.488 0.032 -0.576 0.064 -0.576 0.728Z "/></symbol><symbol id="g362A412C7577377BE4D103B9E5EDCC22" overflow="visible"><path d="M 0 0m 3.088 0c 0 0 0.624 -0.008 0.784 -0.016c 0.048 0.048 0.048 0.216 0 0.264c -0.312 0.016 -0.376 0.08 -0.512 0.336l -0.36 0.68c -0.2 0.376 -0.48 0.568 -0.936 0.568v 0.024c 0.312 0.088 0.448 0.368 0.568 0.688c 0.096 0.248 0.192 0.4 0.36 0.4c 0.072 0 0.136 -0.024 0.184 -0.056c 0.048 -0.032 0.136 -0.056 0.24 -0.056c 0.176 0 0.32 0.152 0.32 0.312c 0 0.176 -0.192 0.36 -0.456 0.36c -0.464 0 -0.68 -0.432 -0.832 -0.808c -0.176 -0.44 -0.392 -0.744 -0.96 -0.744v 0.504c 0 0.664 0.088 0.688 0.496 0.728c 0.048 0.048 0.048 0.216 0 0.264c -0.192 -0.008 -0.496 -0.016 -0.816 -0.016c -0.344 0 -0.624 0.008 -0.888 0.016c -0.048 -0.048 -0.048 -0.216 0 -0.264c 0.488 -0.032 0.576 -0.064 0.576 -0.728v -1.48c 0 -0.664 -0.088 -0.688 -0.576 -0.728c -0.048 -0.048 -0.048 -0.216 0 -0.264c 0.264 0.008 0.544 0.016 0.896 0.016c 0.312 0 0.632 -0.008 0.808 -0.016c 0.048 0.048 0.048 0.216 0 0.264c -0.408 0.032 -0.496 0.064 -0.496 0.728v 0.696c 0.544 -0.032 0.688 -0.248 0.832 -0.544l 0.344 -0.72c 0.104 -0.216 0.264 -0.4 0.424 -0.408Z "/></symbol><symbol id="gBEE50160BCD570B38DEF46393A725EED" overflow="visible"><path d="M 0 0m 3.7145 3.6465h -2.414c -0.34 0 -0.663 0.0085 -0.918 0.017c -0.051 -0.051 -0.051 -0.2295 0 -0.2805c 0.4675 -0.034 0.578 -0.0765 0.578 -0.7735v -1.5725c 0 -0.697 -0.1105 -0.7395 -0.663 -0.7735c -0.051 -0.051 -0.051 -0.2295 0 -0.2805c 0.255 0.0085 0.663 0.017 1.003 0.017c 0.34 0 0.595 -0.0085 0.85 -0.017c 0.051 0.051 0.051 0.2295 0 0.2805c -0.4335 0.0425 -0.5185 0.0765 -0.5185 0.7735v 1.8445c 0 0.2635 0.0255 0.4335 0.357 0.4335h 1.0285c 0.3145 0 0.3655 -0.0935 0.3655 -0.4335v -1.8445c 0 -0.697 -0.085 -0.7395 -0.527 -0.7735c -0.0425 -0.051 -0.0425 -0.2295 0 -0.2805c 0.2125 0.0085 0.527 0.017 0.867 0.017c 0.34 0 0.7225 -0.0085 0.9605 -0.017c 0.0425 0.051 0.0425 0.2295 0 0.2805c -0.5525 0.034 -0.629 0.0765 -0.629 0.7735v 1.5725c 0 0.697 0.1105 0.7395 0.578 0.7735c 0.051 0.051 0.051 0.2295 0 0.2805c -0.255 -0.0085 -0.578 -0.017 -0.918 -0.017Z "/></symbol><symbol id="gE34E15A46C94CBC2E6ABE8844A1DDB21" overflow="visible"><path d="M 0 0m 0.3485 1.7425c 0 -0.867 0.578 -1.8275 1.785 -1.8275c 0.544 0 0.9605 0.1955 1.2495 0.476c 0.3825 0.374 0.5525 0.9095 0.5525 1.428c 0 0.884 -0.4845 1.9125 -1.785 1.9125c -0.561 0 -1.02 -0.2295 -1.3345 -0.595c -0.306 -0.3655 -0.4675 -0.8585 -0.4675 -1.394Z m 1.6745 1.6915c 0.731 0 1.1815 -0.663 1.1815 -1.887c 0 -1.071 -0.5525 -1.3345 -0.952 -1.3345c -0.884 0 -1.173 1.071 -1.173 1.7255c 0 0.7395 0.1785 1.496 0.9435 1.496Z "/></symbol><symbol id="gE827826F9D19F2B711A1B9BF40B9D8A0" overflow="visible"><path d="M 0 0m 1.377 2.6095c 0 0.7055 0.0935 0.731 0.527 0.7735c 0.051 0.051 0.051 0.2295 0 0.2805c -0.204 -0.0085 -0.527 -0.017 -0.867 -0.017c -0.3655 0 -0.6545 0.0085 -0.935 0.017c -0.051 -0.051 -0.051 -0.2295 0 -0.2805c 0.5185 -0.034 0.612 -0.068 0.612 -0.7735v -0.3655c 0 -0.799 0.1785 -1.1135 0.969 -1.1135c 0.5355 0 0.9605 0.306 1.309 0.561v -0.6545c 0 -0.7055 -0.0935 -0.731 -0.612 -0.7735c -0.051 -0.051 -0.051 -0.2295 0 -0.2805c 0.2805 0.0085 0.578 0.017 0.952 0.017c 0.3655 0 0.68 -0.0085 0.952 -0.017c 0.051 0.051 0.051 0.2295 0 0.2805c -0.5185 0.034 -0.612 0.068 -0.612 0.7735v 1.5725c 0 0.7055 0.0935 0.731 0.612 0.7735c 0.051 0.051 0.051 0.2295 0 0.2805c -0.289 -0.0085 -0.578 -0.017 -0.952 -0.017c -0.3315 0 -0.6715 0.0085 -0.867 0.017c -0.051 -0.051 -0.051 -0.2295 0 -0.2805c 0.4335 -0.034 0.527 -0.068 0.527 -0.7735v -0.612c -0.289 -0.255 -0.595 -0.4845 -1.037 -0.4845c -0.5525 0 -0.578 0.289 -0.578 0.952Z "/></symbol><symbol id="g3D9A67B9902CBFFCF1182D85B33DBA41" overflow="visible"><path d="M 0 0m 1.241 3.6465c -0.3655 0 -0.663 0.0085 -0.9435 0.017c -0.051 -0.051 -0.051 -0.2295 0 -0.2805c 0.5185 -0.034 0.612 -0.068 0.612 -0.7735v -1.5725c 0 -0.7055 -0.0935 -0.731 -0.612 -0.7735c -0.051 -0.051 -0.051 -0.2295 0 -0.2805c 0.2805 0.0085 0.578 0.017 0.952 0.017c 0.3145 0 0.595 -0.017 1.1645 -0.017c 0.731 0 1.2835 0.204 1.2835 1.0455c 0 0.476 -0.2975 0.8075 -0.816 0.901v 0.0255c 0.391 0.0765 0.6885 0.3485 0.6885 0.8585c 0 0.595 -0.3655 0.85 -1.394 0.85c -0.3485 0 -0.5695 -0.017 -0.935 -0.017Z m 0.34 -1.802h 0.646c 0.5185 0 0.7395 -0.34 0.7395 -0.85c 0 -0.5695 -0.323 -0.731 -0.782 -0.731c -0.442 0 -0.6035 0.0765 -0.6035 0.4675Z m 0 0.2465v 0.986c 0 0.255 0.1955 0.306 0.6035 0.306c 0.442 0 0.7055 -0.119 0.7055 -0.629c 0 -0.34 -0.221 -0.663 -0.748 -0.663Z "/></symbol><symbol id="gF931FC691828778A920607CF18B9C32A" overflow="visible"><path d="M 0 0m 2.4905 0.408c 0.051 -0.2635 0.1445 -0.493 0.5695 -0.493c 0.323 0 0.629 0.1445 0.8075 0.3145c -0.017 0.102 -0.051 0.1785 -0.1445 0.2295c -0.0595 -0.051 -0.204 -0.136 -0.3145 -0.136c -0.2465 0 -0.255 0.3315 -0.255 0.7225v 1.2495c 0 1.207 -0.663 1.4365 -1.2835 1.4365c -0.697 0 -1.4025 -0.459 -1.4025 -0.9435c 0 -0.204 0.102 -0.306 0.2975 -0.306c 0.2465 0 0.3995 0.1785 0.3995 0.289c 0 0.0595 -0.0085 0.119 -0.0255 0.153c -0.0085 0.0255 -0.017 0.0765 -0.017 0.17c 0 0.2635 0.357 0.357 0.68 0.357c 0.289 0 0.6885 -0.1445 0.6885 -1.105c 0 -0.0595 -0.0255 -0.0935 -0.051 -0.102l -0.731 -0.1785c -0.816 -0.204 -1.4025 -0.6545 -1.4025 -1.2325c 0 -0.697 0.476 -0.918 1.071 -0.918c 0.2975 0 0.5525 0.068 0.9265 0.357l 0.17 0.136Z m 0 1.5725v -1.122c 0 -0.1105 -0.051 -0.17 -0.119 -0.221c -0.221 -0.1785 -0.51 -0.374 -0.748 -0.374c -0.425 0 -0.612 0.34 -0.612 0.6035c 0 0.3825 0.1785 0.7735 0.8075 0.935Z "/></symbol><symbol id="gE7AE90A8EDDEF3DDB67EE78D36D80337" overflow="visible"><path d="M 0 0m 1.683 0.5355c -0.0255 0 -0.0595 0.017 -0.0595 0.102v 1.938c 0 0.7055 0.1785 0.782 0.612 0.8075c 0.051 0.051 0.051 0.2295 0 0.2805c -0.1955 -0.0085 -0.68 -0.017 -0.9945 -0.017c -0.2805 0 -0.6205 0.0085 -0.9435 0.017c -0.051 -0.051 -0.051 -0.2295 0 -0.2805c 0.5185 -0.0255 0.6545 -0.102 0.6545 -0.8075v -1.5045c 0 -0.7055 -0.136 -0.782 -0.6545 -0.8075c -0.051 -0.051 -0.051 -0.2295 0 -0.2805c 0.3315 0.0085 0.6715 0.017 0.9435 0.017c 0.1955 0 0.425 -0.0085 0.5185 -0.017c 0.0425 0.119 0.119 0.289 0.2125 0.459l 1.326 2.6605c 0.0255 0 0.0595 -0.017 0.0595 -0.102v -1.9295c 0 -0.7055 -0.1785 -0.782 -0.612 -0.8075c -0.051 -0.051 -0.051 -0.2295 0 -0.2805c 0.1955 0.0085 0.6545 0.017 0.9945 0.017c 0.2635 0 0.612 -0.0085 0.9435 -0.017c 0.051 0.051 0.051 0.2295 0 0.2805c -0.5185 0.0255 -0.6545 0.102 -0.6545 0.8075v 1.5045c 0 0.7055 0.136 0.782 0.6545 0.8075c 0.051 0.051 0.051 0.2295 0 0.2805c -0.34 -0.0085 -0.68 -0.017 -0.9435 -0.017c -0.187 0 -0.425 0.0085 -0.51 0.017c -0.068 -0.153 -0.1445 -0.3315 -0.221 -0.476Z "/></symbol><symbol id="gBAF1B227155053221F22F6E06EEFED60" overflow="visible"><path d="M 0 0m 1.6065 3.6465c -0.2805 0 -0.612 0.0085 -0.867 0.017c -0.051 -0.051 -0.051 -0.2295 0 -0.2805c 0.5185 -0.0425 0.6715 -0.0765 0.6375 -0.782c -0.034 -0.782 -0.17 -1.411 -0.3145 -2.006c -0.051 -0.2295 -0.2975 -0.306 -0.5355 -0.3315c -0.1275 -0.017 -0.2465 -0.068 -0.255 -0.221l -0.051 -1.1305c 0.0595 -0.0255 0.1275 -0.034 0.2295 -0.0085c 0.0765 0.3145 0.306 1.0965 1.071 1.0965h 1.4705c 0.7565 0 1.003 -0.765 1.0795 -1.105c 0.0765 -0.017 0.153 -0.017 0.238 0.017l -0.051 1.139c 0 0.119 -0.068 0.187 -0.2295 0.2125c -0.153 0.0255 -0.3655 0.085 -0.3655 0.3995v 1.9465c 0 0.697 0.1105 0.7395 0.578 0.7735c 0.051 0.051 0.051 0.2295 0 0.2805c -0.255 -0.0085 -0.578 -0.017 -0.918 -0.017Z m -0.238 -3.213c 0 0.1445 0.2295 0.7055 0.357 2.652c 0.0085 0.1275 0.068 0.238 0.2975 0.238h 0.5865c 0.34 0 0.3825 -0.238 0.3825 -0.527v -2.0485c 0 -0.2805 -0.017 -0.4165 -0.357 -0.4165h -1.0965c -0.0935 0 -0.17 0.0085 -0.17 0.102Z "/></symbol><symbol id="g1EEFC323E4FEBE7654D5CC1583F61AF4" overflow="visible"><path d="M 0 0m 3.383 0.7735c -0.034 0.0765 -0.102 0.1105 -0.1785 0.119c -0.289 -0.374 -0.6545 -0.561 -1.02 -0.561c -0.6205 0 -1.139 0.629 -1.139 1.6235c 0 0.935 0.408 1.496 0.969 1.496c 0.5015 0 0.5695 -0.2975 0.6035 -0.595c 0.0255 -0.2295 0.1445 -0.306 0.323 -0.306c 0.1785 0 0.4165 0.1105 0.4165 0.374c 0 0.4675 -0.4845 0.8075 -1.3005 0.8075c -0.8415 0 -1.7425 -0.7565 -1.7425 -1.9635c 0 -1.0965 0.612 -1.853 1.683 -1.853c 0.51 0 0.9605 0.1615 1.3855 0.8585Z "/></symbol><symbol id="g3EDD64AE7B5A40E8FE9DD75D51E8EE8A" overflow="visible"><path d="M 0 0m 1.547 1.037c 0 -0.7055 -0.0935 -0.748 -0.612 -0.7735c -0.051 -0.051 -0.051 -0.2295 0 -0.2805c 0.3315 0.0085 0.6715 0.017 0.952 0.017c 0.289 0 0.6205 -0.0085 0.9435 -0.017c 0.051 0.051 0.051 0.2295 0 0.2805c -0.5185 0.0255 -0.612 0.068 -0.612 0.7735v 2.295h 0.1445c 0.6885 0 0.8245 -0.238 0.969 -0.9265c 0.1105 0 0.221 0.034 0.221 0.034c -0.051 0.391 -0.085 0.765 -0.0935 1.258c -0.1955 -0.017 -0.833 -0.051 -1.258 -0.051h -0.6375c -0.425 0 -0.901 0.0255 -1.241 0.051c -0.0085 -0.493 -0.0425 -0.867 -0.102 -1.258c 0 0 0.119 -0.034 0.2295 -0.034c 0.1445 0.6885 0.272 0.9265 0.969 0.9265h 0.1275Z "/></symbol><symbol id="gB3F6F741CFF64E2F87AE274E4C795DAE" overflow="visible"><path d="M 0 0m 3.553 1.037v 1.5725c 0 0.697 0.1105 0.7395 0.578 0.7735c 0.051 0.051 0.051 0.2295 0 0.2805c -0.255 -0.0085 -0.578 -0.017 -0.918 -0.017h -1.6065c -0.2805 0 -0.612 0.0085 -0.867 0.017c -0.051 -0.051 -0.051 -0.2295 0 -0.2805c 0.6035 -0.0425 0.6885 -0.0935 0.6885 -1.0115c 0 -0.8925 -0.068 -1.36 -0.187 -1.7085c -0.1105 -0.306 -0.255 -0.4165 -0.3995 -0.4165c -0.1105 0 -0.1445 0.068 -0.1615 0.1785c -0.0255 0.1615 -0.0765 0.323 -0.3145 0.323c -0.2125 0 -0.3315 -0.17 -0.3315 -0.357c 0 -0.2635 0.238 -0.493 0.629 -0.493c 0.4335 0 0.6715 0.221 0.867 0.68c 0.17 0.408 0.221 1.275 0.221 1.853c 0 0.663 0.0255 0.884 0.3655 0.884h 0.3825c 0.323 0 0.3825 -0.204 0.3825 -0.493v -1.785c 0 -0.697 -0.085 -0.7395 -0.527 -0.7735c -0.0425 -0.051 -0.0425 -0.2295 0 -0.2805c 0.2125 0.0085 0.527 0.017 0.867 0.017c 0.34 0 0.7225 -0.0085 0.9605 -0.017c 0.0425 0.051 0.0425 0.2295 0 0.2805c -0.5525 0.034 -0.629 0.0765 -0.629 0.7735Z "/></symbol><symbol id="gA501B866130BB2CA150759E9628F05FB" overflow="visible"><path d="M 0 0m 3.281 0c 0 0 0.663 -0.0085 0.833 -0.017c 0.051 0.051 0.051 0.2295 0 0.2805c -0.3315 0.017 -0.3995 0.085 -0.544 0.357l -0.3825 0.7225c -0.2125 0.3995 -0.51 0.6035 -0.9945 0.6035v 0.0255c 0.3315 0.0935 0.476 0.391 0.6035 0.731c 0.102 0.2635 0.204 0.425 0.3825 0.425c 0.0765 0 0.1445 -0.0255 0.1955 -0.0595c 0.051 -0.034 0.1445 -0.0595 0.255 -0.0595c 0.187 0 0.34 0.1615 0.34 0.3315c 0 0.187 -0.204 0.3825 -0.4845 0.3825c -0.493 0 -0.7225 -0.459 -0.884 -0.8585c -0.187 -0.4675 -0.4165 -0.7905 -1.02 -0.7905v 0.5355c 0 0.7055 0.0935 0.731 0.527 0.7735c 0.051 0.051 0.051 0.2295 0 0.2805c -0.204 -0.0085 -0.527 -0.017 -0.867 -0.017c -0.3655 0 -0.663 0.0085 -0.9435 0.017c -0.051 -0.051 -0.051 -0.2295 0 -0.2805c 0.5185 -0.034 0.612 -0.068 0.612 -0.7735v -1.5725c 0 -0.7055 -0.0935 -0.731 -0.612 -0.7735c -0.051 -0.051 -0.051 -0.2295 0 -0.2805c 0.2805 0.0085 0.578 0.017 0.952 0.017c 0.3315 0 0.6715 -0.0085 0.8585 -0.017c 0.051 0.051 0.051 0.2295 0 0.2805c -0.4335 0.034 -0.527 0.068 -0.527 0.7735v 0.7395c 0.578 -0.034 0.731 -0.2635 0.884 -0.578l 0.3655 -0.765c 0.1105 -0.2295 0.2805 -0.425 0.4505 -0.4335Z "/></symbol><symbol id="gBA3E9C2E61A84E296B252679103E17C4" overflow="visible"><path d="M 0 0m 1.701 3.861c -0.297 0 -0.648 0.009 -0.918 0.018c -0.054 -0.054 -0.054 -0.243 0 -0.297c 0.549 -0.045 0.711 -0.081 0.675 -0.828c -0.036 -0.828 -0.18 -1.494 -0.333 -2.124c -0.054 -0.243 -0.315 -0.324 -0.567 -0.351c -0.135 -0.018 -0.261 -0.072 -0.27 -0.234l -0.054 -1.197c 0.063 -0.027 0.135 -0.036 0.243 -0.009c 0.081 0.333 0.324 1.161 1.134 1.161h 1.557c 0.801 0 1.062 -0.81 1.143 -1.17c 0.081 -0.018 0.162 -0.018 0.252 0.018l -0.054 1.206c 0 0.126 -0.072 0.198 -0.243 0.225c -0.162 0.027 -0.387 0.09 -0.387 0.423v 2.061c 0 0.738 0.117 0.783 0.612 0.819c 0.054 0.054 0.054 0.243 0 0.297c -0.27 -0.009 -0.612 -0.018 -0.972 -0.018Z m -0.252 -3.402c 0 0.153 0.243 0.747 0.378 2.808c 0.009 0.135 0.072 0.252 0.315 0.252h 0.621c 0.36 0 0.405 -0.252 0.405 -0.558v -2.169c 0 -0.297 -0.018 -0.441 -0.378 -0.441h -1.161c -0.099 0 -0.18 0.009 -0.18 0.108Z "/></symbol><symbol id="g7253BD4F4A12C91ABC7B03558525FA66" overflow="visible"><path d="M 0 0m 0.369 1.845c 0 -0.918 0.612 -1.935 1.89 -1.935c 0.576 0 1.017 0.207 1.323 0.504c 0.405 0.396 0.585 0.963 0.585 1.512c 0 0.936 -0.513 2.025 -1.89 2.025c -0.594 0 -1.08 -0.243 -1.413 -0.63c -0.324 -0.387 -0.495 -0.909 -0.495 -1.476Z m 1.773 1.791c 0.774 0 1.251 -0.702 1.251 -1.998c 0 -1.134 -0.585 -1.413 -1.008 -1.413c -0.936 0 -1.242 1.134 -1.242 1.827c 0 0.783 0.189 1.584 0.999 1.584Z "/></symbol><symbol id="gA5834380700F55B3689219A2CC4667E3" overflow="visible"><path d="M 0 0m 3.933 3.861h -2.556c -0.36 0 -0.702 0.009 -0.972 0.018c -0.054 -0.054 -0.054 -0.243 0 -0.297c 0.495 -0.036 0.612 -0.081 0.612 -0.819v -1.665c 0 -0.738 -0.117 -0.783 -0.702 -0.819c -0.054 -0.054 -0.054 -0.243 0 -0.297c 0.27 0.009 0.702 0.018 1.062 0.018c 0.36 0 0.63 -0.009 0.9 -0.018c 0.054 0.054 0.054 0.243 0 0.297c -0.459 0.045 -0.549 0.081 -0.549 0.819v 1.953c 0 0.279 0.027 0.459 0.378 0.459h 1.089c 0.333 0 0.387 -0.099 0.387 -0.459v -1.953c 0 -0.738 -0.09 -0.783 -0.558 -0.819c -0.045 -0.054 -0.045 -0.243 0 -0.297c 0.225 0.009 0.558 0.018 0.918 0.018c 0.36 0 0.765 -0.009 1.017 -0.018c 0.045 0.054 0.045 0.243 0 0.297c -0.585 0.036 -0.666 0.081 -0.666 0.819v 1.665c 0 0.738 0.117 0.783 0.612 0.819c 0.054 0.054 0.054 0.243 0 0.297c -0.27 -0.009 -0.612 -0.018 -0.972 -0.018Z "/></symbol><symbol id="gB118266EF18AECCCCEF724ECE6F3D1D3" overflow="visible"><path d="M 0 0m 3.762 1.098v 1.665c 0 0.738 0.117 0.783 0.612 0.819c 0.054 0.054 0.054 0.243 0 0.297c -0.27 -0.009 -0.612 -0.018 -0.972 -0.018h -1.701c -0.297 0 -0.648 0.009 -0.918 0.018c -0.054 -0.054 -0.054 -0.243 0 -0.297c 0.639 -0.045 0.729 -0.099 0.729 -1.071c 0 -0.945 -0.072 -1.44 -0.198 -1.809c -0.117 -0.324 -0.27 -0.441 -0.423 -0.441c -0.117 0 -0.153 0.072 -0.171 0.189c -0.027 0.171 -0.081 0.342 -0.333 0.342c -0.225 0 -0.351 -0.18 -0.351 -0.378c 0 -0.279 0.252 -0.522 0.666 -0.522c 0.459 0 0.711 0.234 0.918 0.72c 0.18 0.432 0.234 1.35 0.234 1.962c 0 0.702 0.027 0.936 0.387 0.936h 0.405c 0.342 0 0.405 -0.216 0.405 -0.522v -1.89c 0 -0.738 -0.09 -0.783 -0.558 -0.819c -0.045 -0.054 -0.045 -0.243 0 -0.297c 0.225 0.009 0.558 0.018 0.918 0.018c 0.36 0 0.765 -0.009 1.017 -0.018c 0.045 0.054 0.045 0.243 0 0.297c -0.585 0.036 -0.666 0.081 -0.666 0.819Z "/></symbol><symbol id="g6F3F83F8220F4B0FE27ED35A349BC8A6" overflow="visible"><path d="M 0 0m 1.314 3.861c -0.387 0 -0.702 0.009 -0.999 0.018c -0.054 -0.054 -0.054 -0.243 0 -0.297c 0.549 -0.036 0.648 -0.072 0.648 -0.819v -1.665c 0 -0.747 -0.099 -0.774 -0.648 -0.819c -0.054 -0.054 -0.054 -0.243 0 -0.297c 0.297 0.009 0.612 0.018 1.008 0.018c 0.333 0 0.63 -0.018 1.233 -0.018c 0.774 0 1.359 0.216 1.359 1.107c 0 0.504 -0.315 0.855 -0.864 0.954v 0.027c 0.414 0.081 0.729 0.369 0.729 0.909c 0 0.63 -0.387 0.9 -1.476 0.9c -0.369 0 -0.603 -0.018 -0.99 -0.018Z m 0.36 -1.908h 0.684c 0.549 0 0.783 -0.36 0.783 -0.9c 0 -0.603 -0.342 -0.774 -0.828 -0.774c -0.468 0 -0.639 0.081 -0.639 0.495Z m 0 0.261v 1.044c 0 0.27 0.207 0.324 0.639 0.324c 0.468 0 0.747 -0.126 0.747 -0.666c 0 -0.36 -0.234 -0.702 -0.792 -0.702Z "/></symbol><symbol id="g6EA5A1981697E2B5E95285C58F7F7AD0" overflow="visible"><path d="M 0 0m 1.782 0.567c -0.027 0 -0.063 0.018 -0.063 0.108v 2.052c 0 0.747 0.189 0.828 0.648 0.855c 0.054 0.054 0.054 0.243 0 0.297c -0.207 -0.009 -0.72 -0.018 -1.053 -0.018c -0.297 0 -0.657 0.009 -0.999 0.018c -0.054 -0.054 -0.054 -0.243 0 -0.297c 0.549 -0.027 0.693 -0.108 0.693 -0.855v -1.593c 0 -0.747 -0.144 -0.828 -0.693 -0.855c -0.054 -0.054 -0.054 -0.243 0 -0.297c 0.351 0.009 0.711 0.018 0.999 0.018c 0.207 0 0.45 -0.009 0.549 -0.018c 0.045 0.126 0.126 0.306 0.225 0.486l 1.404 2.817c 0.027 0 0.063 -0.018 0.063 -0.108v -2.043c 0 -0.747 -0.189 -0.828 -0.648 -0.855c -0.054 -0.054 -0.054 -0.243 0 -0.297c 0.207 0.009 0.693 0.018 1.053 0.018c 0.279 0 0.648 -0.009 0.999 -0.018c 0.054 0.054 0.054 0.243 0 0.297c -0.549 0.027 -0.693 0.108 -0.693 0.855v 1.593c 0 0.747 0.144 0.828 0.693 0.855c 0.054 0.054 0.054 0.243 0 0.297c -0.36 -0.009 -0.72 -0.018 -0.999 -0.018c -0.198 0 -0.45 0.009 -0.54 0.018c -0.072 -0.162 -0.153 -0.351 -0.234 -0.504Z "/></symbol><symbol id="g5F2B105DCE44482CD07DFE0B4651B637" overflow="visible"><path d="M 0 0m 4.311 2.763c 0 0.747 0.099 0.774 0.648 0.819c 0.054 0.054 0.054 0.243 0 0.297c -0.315 -0.018 -0.711 -0.018 -1.008 -0.018c -0.252 0 -0.612 0.009 -0.963 0.018c -0.054 -0.054 -0.054 -0.243 0 -0.297c 0.549 -0.036 0.612 -0.072 0.612 -0.819v -0.585h -1.926v 0.585c 0 0.747 0.063 0.774 0.612 0.819c 0.054 0.054 0.054 0.243 0 0.297c -0.342 -0.009 -0.684 -0.018 -0.972 -0.018c -0.27 0 -0.639 0.009 -0.999 0.018c -0.054 -0.054 -0.054 -0.243 0 -0.297c 0.549 -0.036 0.648 -0.072 0.648 -0.819v -1.665c 0 -0.747 -0.099 -0.774 -0.648 -0.819c -0.054 -0.054 -0.054 -0.243 0 -0.297c 0.36 0.009 0.72 0.018 1.008 0.018c 0.288 0 0.639 -0.009 0.963 -0.018c 0.054 0.054 0.054 0.243 0 0.297c -0.549 0.036 -0.612 0.072 -0.612 0.819v 0.783h 1.926v -0.783c 0 -0.747 -0.063 -0.774 -0.612 -0.819c -0.054 -0.054 -0.054 -0.243 0 -0.297c 0.324 0.009 0.657 0.018 0.972 0.018c 0.27 0 0.648 -0.009 0.999 -0.018c 0.054 0.054 0.054 0.243 0 0.297c -0.549 0.036 -0.648 0.072 -0.648 0.819Z "/></symbol><symbol id="g5CCD3C35BE7C263075DDDC3F0C06DEE6" overflow="visible"><path d="M 0 0m 1.674 2.754c 0 0.756 0.099 0.783 0.648 0.828c 0.054 0.054 0.054 0.243 0 0.297c -0.306 -0.009 -0.612 -0.018 -1.008 -0.018c -0.387 0 -0.702 0.009 -0.999 0.018c -0.054 -0.054 -0.054 -0.243 0 -0.297c 0.549 -0.036 0.648 -0.072 0.648 -0.819v -1.665c 0 -0.747 -0.099 -0.774 -0.648 -0.819c -0.054 -0.054 -0.054 -0.243 0 -0.297c 0.297 0.009 0.612 0.018 1.008 0.018c 0.369 0 0.567 -0.018 0.936 -0.018c 1.107 0 1.71 0.279 1.71 1.242c 0 0.846 -0.738 1.089 -1.647 1.089h -0.648Z m 3.879 0.009c 0 0.747 0.099 0.774 0.648 0.819c 0.054 0.054 0.054 0.243 0 0.297c -0.306 -0.009 -0.612 -0.018 -1.008 -0.018c -0.387 0 -0.702 0.009 -0.999 0.018c -0.054 -0.054 -0.054 -0.243 0 -0.297c 0.549 -0.036 0.648 -0.072 0.648 -0.819v -1.665c 0 -0.747 -0.099 -0.774 -0.648 -0.819c -0.054 -0.054 -0.054 -0.243 0 -0.297c 0.297 0.009 0.612 0.018 1.008 0.018c 0.387 0 0.711 -0.009 0.999 -0.018c 0.054 0.054 0.054 0.243 0 0.297c -0.549 0.036 -0.648 0.072 -0.648 0.819Z m -2.358 -1.629c 0 -0.738 -0.45 -0.855 -0.927 -0.855c -0.441 0 -0.594 0.09 -0.594 0.405v 1.332h 0.639c 0.675 0 0.882 -0.405 0.882 -0.882Z "/></symbol><symbol id="gFFF6E9B9A983FEBF7FB8DCFB305974E9" overflow="visible"><path d="M 0 0m 1.836 -1.44c 0.144 0.252 0.261 0.504 0.369 0.774c 0.72 1.737 1.125 2.664 1.593 3.672c 0.18 0.378 0.306 0.522 0.729 0.576c 0.054 0.054 0.054 0.243 0 0.297c -0.18 -0.009 -0.387 -0.018 -0.639 -0.018c -0.27 0 -0.549 0.009 -0.819 0.018c -0.054 -0.054 -0.054 -0.243 0 -0.297c 0.288 -0.027 0.576 -0.081 0.432 -0.405l -0.891 -2.061c -0.063 -0.144 -0.144 -0.171 -0.216 0.009l -0.801 1.872c -0.162 0.378 -0.207 0.549 0.297 0.585c 0.054 0.054 0.054 0.243 0 0.297c -0.333 -0.009 -0.693 -0.018 -1.017 -0.018c -0.306 0 -0.549 0.009 -0.729 0.018c -0.054 -0.054 -0.054 -0.243 0 -0.297c 0.36 -0.045 0.477 -0.126 0.711 -0.675l 1.017 -2.367c 0.081 -0.18 0.216 -0.594 0.126 -0.846c -0.108 -0.297 -0.216 -0.549 -0.351 -0.828c -0.099 -0.18 -0.225 -0.261 -0.45 -0.261c -0.126 0 -0.162 0.027 -0.261 0.027c -0.261 0 -0.396 -0.27 -0.396 -0.387c 0 -0.189 0.18 -0.333 0.423 -0.333c 0.189 0 0.549 0.072 0.873 0.648Z "/></symbol><symbol id="g4AE5337A4A3FF09E9A9AF89B4B83FC9D" overflow="visible"><path d="M 0 0m 1.674 2.763c 0 0.513 0.063 0.747 0.378 0.747h 0.198c 0.738 0 0.954 -0.513 1.08 -1.035c 0.099 -0.009 0.189 0 0.261 0.036c -0.036 0.477 -0.063 0.873 -0.117 1.35l -0.018 0.018c 0 0 -0.72 -0.018 -1.008 -0.018h -1.134c -0.387 0 -0.702 0.009 -0.999 0.018c -0.054 -0.054 -0.054 -0.243 0 -0.297c 0.549 -0.036 0.648 -0.072 0.648 -0.819v -1.665c 0 -0.747 -0.099 -0.774 -0.648 -0.819c -0.054 -0.054 -0.054 -0.243 0 -0.297c 0.297 0.009 0.612 0.018 1.008 0.018c 0.387 0 0.711 -0.009 0.999 -0.018c 0.054 0.054 0.054 0.243 0 0.297c -0.549 0.036 -0.648 0.072 -0.648 0.819Z "/></symbol><symbol id="gD351E21AD091924D522A6D2D6355C932" overflow="visible"><path d="M 0 0m 3.474 0.837c -0.333 -0.342 -0.594 -0.486 -1.116 -0.486c -0.324 0 -0.702 0.189 -0.981 0.648c -0.18 0.297 -0.288 0.711 -0.288 1.233l 2.394 -0.018c 0.108 0 0.171 0.054 0.171 0.153c 0 0.756 -0.27 1.566 -1.521 1.566c -0.783 0 -1.8 -0.747 -1.8 -2.115c 0 -0.504 0.126 -0.99 0.423 -1.332c 0.306 -0.36 0.729 -0.576 1.377 -0.576c 0.684 0 1.17 0.315 1.53 0.783c -0.027 0.09 -0.081 0.135 -0.189 0.144Z m -2.358 1.701c 0.171 1.017 0.801 1.098 1.017 1.098c 0.342 0 0.747 -0.189 0.747 -0.945c 0 -0.081 -0.036 -0.126 -0.135 -0.126Z "/></symbol><symbol id="g4AD90A9068D018AD3CEC8FD5EA9519DC" overflow="visible"><path d="M 0 0m 1.404 3.312c -0.009 0.27 -0.027 0.504 -0.072 0.594c -0.018 0.045 -0.036 0.072 -0.108 0.072c -0.252 -0.099 -0.486 -0.18 -1.107 -0.261c -0.018 -0.054 0 -0.198 0.018 -0.252c 0.486 -0.045 0.585 -0.09 0.585 -0.612v -3.843c 0 -0.747 -0.099 -0.792 -0.648 -0.819c -0.054 -0.054 -0.054 -0.243 0 -0.297c 0.315 0.009 0.648 0.018 1.008 0.018c 0.36 0 0.792 -0.009 1.089 -0.018c 0.054 0.054 0.054 0.243 0 0.297c -0.639 0.036 -0.738 0.072 -0.738 0.819v 0.972c 0 0.117 0.036 0.108 0.126 0.072c 0.225 -0.09 0.495 -0.144 0.783 -0.144c 0.504 0 0.954 0.153 1.323 0.504c 0.423 0.414 0.666 0.972 0.666 1.701c 0 0.954 -0.675 1.836 -1.593 1.836c -0.414 0 -0.873 -0.27 -1.233 -0.675c -0.054 -0.054 -0.09 -0.054 -0.099 0.036Z m 0.171 -0.333c 0.234 0.288 0.648 0.558 0.909 0.558c 0.576 0 1.071 -0.648 1.071 -1.665c 0 -0.738 -0.261 -1.656 -1.269 -1.656c -0.162 0 -0.477 0.045 -0.639 0.189c -0.18 0.162 -0.216 0.216 -0.216 0.54v 1.638c 0 0.189 0.036 0.27 0.144 0.396Z "/></symbol><symbol id="gF7AD5B3248F8366898BA115B8D318C4E" overflow="visible"><path d="M 0 0m 2.637 0.432c 0.054 -0.279 0.153 -0.522 0.603 -0.522c 0.342 0 0.666 0.153 0.855 0.333c -0.018 0.108 -0.054 0.189 -0.153 0.243c -0.063 -0.054 -0.216 -0.144 -0.333 -0.144c -0.261 0 -0.27 0.351 -0.27 0.765v 1.323c 0 1.278 -0.702 1.521 -1.359 1.521c -0.738 0 -1.485 -0.486 -1.485 -0.999c 0 -0.216 0.108 -0.324 0.315 -0.324c 0.261 0 0.423 0.189 0.423 0.306c 0 0.063 -0.009 0.126 -0.027 0.162c -0.009 0.027 -0.018 0.081 -0.018 0.18c 0 0.279 0.378 0.378 0.72 0.378c 0.306 0 0.729 -0.153 0.729 -1.17c 0 -0.063 -0.027 -0.099 -0.054 -0.108l -0.774 -0.189c -0.864 -0.216 -1.485 -0.693 -1.485 -1.305c 0 -0.738 0.504 -0.972 1.134 -0.972c 0.315 0 0.585 0.072 0.981 0.378l 0.18 0.144Z m 0 1.665v -1.188c 0 -0.117 -0.054 -0.18 -0.126 -0.234c -0.234 -0.189 -0.54 -0.396 -0.792 -0.396c -0.45 0 -0.648 0.36 -0.648 0.639c 0 0.405 0.189 0.819 0.855 0.99Z "/></symbol><symbol id="g56F819E8120FD9FB9B80ECED2D9111AC" overflow="visible"><path d="M 0 0m 0.441 2.142h 5.616c 0.117 0 0.234 0.18 0.234 0.288c 0 0.081 -0.027 0.153 -0.126 0.153h -5.616c -0.108 0 -0.234 -0.18 -0.234 -0.288c 0 -0.072 0.027 -0.153 0.126 -0.153Z "/></symbol><symbol id="g3515EF5FD07324BC31659A9072C9EEF0" overflow="visible"><path d="M 0 0m 1.458 2.763c 0 0.747 0.099 0.774 0.558 0.819c 0.054 0.054 0.054 0.243 0 0.297c -0.216 -0.009 -0.558 -0.018 -0.918 -0.018c -0.387 0 -0.693 0.009 -0.99 0.018c -0.054 -0.054 -0.054 -0.243 0 -0.297c 0.549 -0.036 0.648 -0.072 0.648 -0.819v -0.387c 0 -0.846 0.189 -1.179 1.026 -1.179c 0.567 0 1.017 0.324 1.386 0.594v -0.693c 0 -0.747 -0.099 -0.774 -0.648 -0.819c -0.054 -0.054 -0.054 -0.243 0 -0.297c 0.297 0.009 0.612 0.018 1.008 0.018c 0.387 0 0.72 -0.009 1.008 -0.018c 0.054 0.054 0.054 0.243 0 0.297c -0.549 0.036 -0.648 0.072 -0.648 0.819v 1.665c 0 0.747 0.099 0.774 0.648 0.819c 0.054 0.054 0.054 0.243 0 0.297c -0.306 -0.009 -0.612 -0.018 -1.008 -0.018c -0.351 0 -0.711 0.009 -0.918 0.018c -0.054 -0.054 -0.054 -0.243 0 -0.297c 0.459 -0.036 0.558 -0.072 0.558 -0.819v -0.648c -0.306 -0.27 -0.63 -0.513 -1.098 -0.513c -0.585 0 -0.612 0.306 -0.612 1.008Z "/></symbol><symbol id="gCCF28E29FF8CFE46410F5A526209CFA4" overflow="visible"><path d="M 0 0m 0.936 0.855c -0.279 0 -0.477 -0.189 -0.477 -0.441c 0 -0.279 0.234 -0.369 0.396 -0.396c 0.171 -0.018 0.324 -0.072 0.324 -0.279c 0 -0.189 -0.324 -0.603 -0.792 -0.72c 0 -0.09 0.018 -0.153 0.081 -0.216c 0.54 0.099 1.062 0.531 1.062 1.161c 0 0.54 -0.234 0.891 -0.594 0.891Z "/></symbol><symbol id="g7815E2C79248546AAEE49EC7F57ADD4E" overflow="visible"><path d="M 0 0m 3.582 0.819c -0.036 0.081 -0.108 0.117 -0.189 0.126c -0.306 -0.396 -0.693 -0.594 -1.08 -0.594c -0.657 0 -1.206 0.666 -1.206 1.719c 0 0.99 0.432 1.584 1.026 1.584c 0.531 0 0.603 -0.315 0.639 -0.63c 0.027 -0.243 0.153 -0.324 0.342 -0.324c 0.189 0 0.441 0.117 0.441 0.396c 0 0.495 -0.513 0.855 -1.377 0.855c -0.891 0 -1.845 -0.801 -1.845 -2.079c 0 -1.161 0.648 -1.962 1.782 -1.962c 0.54 0 1.017 0.171 1.467 0.909Z "/></symbol><symbol id="g611C332DF318E3AAFADBD04F1094DD79" overflow="visible"><path d="M 0 0m 1.638 1.098c 0 -0.747 -0.099 -0.792 -0.648 -0.819c -0.054 -0.054 -0.054 -0.243 0 -0.297c 0.351 0.009 0.711 0.018 1.008 0.018c 0.306 0 0.657 -0.009 0.999 -0.018c 0.054 0.054 0.054 0.243 0 0.297c -0.549 0.027 -0.648 0.072 -0.648 0.819v 2.43h 0.153c 0.729 0 0.873 -0.252 1.026 -0.981c 0.117 0 0.234 0.036 0.234 0.036c -0.054 0.414 -0.09 0.81 -0.099 1.332c -0.207 -0.018 -0.882 -0.054 -1.332 -0.054h -0.675c -0.45 0 -0.954 0.027 -1.314 0.054c -0.009 -0.522 -0.045 -0.918 -0.108 -1.332c 0 0 0.126 -0.036 0.243 -0.036c 0.153 0.729 0.288 0.981 1.026 0.981h 0.135Z "/></symbol><symbol id="g92B0517FEDA546B52C117B2B2515B55D" overflow="visible"><path d="M 0 0m 1.638 3.222c -0.207 0.306 -0.144 0.315 0.261 0.36c 0.054 0.054 0.054 0.243 0 0.297c -0.243 -0.009 -0.639 -0.018 -0.909 -0.018c -0.27 0 -0.54 0.009 -0.774 0.018c -0.054 -0.054 -0.054 -0.243 0 -0.297c 0.306 -0.027 0.558 -0.18 0.81 -0.549l 0.783 -1.143c 0.045 -0.063 0.045 -0.09 0.009 -0.135l -0.756 -0.972c -0.36 -0.459 -0.558 -0.486 -0.873 -0.504c -0.054 -0.054 -0.054 -0.243 0 -0.297c 0.18 0.009 0.378 0.018 0.648 0.018c 0.27 0 0.522 -0.009 0.756 -0.018c 0.054 0.054 0.054 0.243 0 0.297c -0.324 0.036 -0.396 0.072 -0.198 0.36l 0.567 0.819c 0.072 0.108 0.108 0.099 0.162 0.018l 0.522 -0.72c 0.315 -0.432 0.171 -0.45 -0.117 -0.477c -0.054 -0.054 -0.054 -0.243 0 -0.297c 0.27 0.009 0.567 0.018 0.891 0.018c 0.342 0 0.585 -0.009 0.801 -0.018c 0.054 0.054 0.054 0.243 0 0.297c -0.405 0.027 -0.54 0.054 -0.9 0.567l -0.81 1.143c -0.036 0.054 -0.045 0.081 0 0.135l 0.756 0.963c 0.333 0.423 0.549 0.468 0.873 0.495c 0.054 0.054 0.054 0.243 0 0.297c -0.18 -0.009 -0.387 -0.018 -0.657 -0.018c -0.27 0 -0.522 0.009 -0.756 0.018c -0.054 -0.054 -0.054 -0.243 0 -0.297c 0.333 -0.036 0.432 -0.063 0.216 -0.369l -0.585 -0.819c -0.063 -0.09 -0.099 -0.081 -0.171 0.018Z "/></symbol></defs></svg>