<svg class="typst-doc" viewBox="0 0 170.38409842519687 142.41411811023622" width="170.38409842519687pt" height="142.41411811023622pt" xmlns="http://www.w3.org/2000/svg" xmlns:xlink="http://www.w3.org/1999/xlink" xmlns:h5="http://www.w3.org/1999/xhtml">
    <path class="typst-shape" fill="#ffffff" fill-rule="nonzero" d="M 0 0 L 0 142.41412 L 170.3841 142.41412 L 170.3841 0 Z "/>
    <g>
        <g transform="translate(8 8)">
            <g class="typst-group">
                <g>
                    <g transform="translate(16.6515 26.2451653543307)">
                        <path class="typst-shape" fill="none" stroke="#1a1a18" stroke-width="1.4" stroke-linecap="butt" stroke-linejoin="miter" stroke-miterlimit="4" d="M 0 85.03937 L 0 0 "/>
                    </g>
                    <g transform="translate(16.6515 19.450029095520193)">
                        <path class="typst-shape" fill="none" stroke="#7c7f6a" stroke-width="1.2" stroke-linecap="butt" stroke-linejoin="miter" stroke-miterlimit="4" d="M 0 6.7951365 L 0 0 "/>
                    </g>
                    <g transform="translate(14.525515748031495 13.780737669291337)">
                        <path class="typst-shape" fill="#7c7f6a" fill-rule="nonzero" stroke="#7c7f6a" stroke-width="1.2" stroke-linecap="butt" stroke-linejoin="miter" stroke-miterlimit="4" d="M 2.1259842 0 L 4.2519684 5.6692915 L 0 5.6692915 L 2.1259842 0 Z "/>
                    </g>
                    <g transform="translate(6.183499999999999 0)">
                        <path class="typst-shape" fill="none" d="M 0 0 L 20.936 0 L 20.936 7.136 L 0 7.136 L 0 0 Z "/>
                    </g>
                    <g transform="translate(6.1834999370078725 -0.00000011023622287963709)">
                        <g class="typst-group">
                            <g>
                                <g transform="translate(0 0)">
                                    <g class="typst-group">
                                        <g>
                                            <g transform="translate(0 5.264)">
                                                <g class="typst-text" transform="scale(1, -1)">
                                                    <use xlink:href="#g8409406560E654831539A74ECB32BA27" x="0" fill="#7c7f6a" fill-rule="nonzero"/>
                                                    <use xlink:href="#g578B33A296E9B9AB3ACAB742780745DD" x="4.216" fill="#7c7f6a" fill-rule="nonzero"/>
                                                    <use xlink:href="#g798F91F6371A97DF6CF163FA511661B1" x="8.904" fill="#7c7f6a" fill-rule="nonzero"/>
                                                    <use xlink:href="#gB0BEE5DF3CE1D392DA80AA08C490E4E5" x="13.208" fill="#7c7f6a" fill-rule="nonzero"/>
                                                    <use xlink:href="#gD700849F026C9C7CFC274A634114D6A6" x="16.784" fill="#7c7f6a" fill-rule="nonzero"/>
                                                </g>
                                            </g>
                                        </g>
                                    </g>
                                </g>
                            </g>
                        </g>
                    </g>
                    <g transform="translate(3.895594488188976 82.93807874015747)">
                        <path class="typst-shape" fill="none" stroke="#1a1a18" stroke-width="0.6" stroke-linecap="butt" stroke-linejoin="miter" stroke-miterlimit="4" d="M 12.755905 0 L 0 9.92126 "/>
                    </g>
                    <g transform="translate(16.6515 82.93807874015747)">
                        <path class="typst-shape" fill="none" stroke="#1a1a18" stroke-width="0.6" stroke-linecap="butt" stroke-linejoin="miter" stroke-miterlimit="4" d="M 0 0 L 12.755905 9.92126 "/>
                    </g>
                    <g transform="translate(3.895594488188976 63.095559055118116)">
                        <path class="typst-shape" fill="none" stroke="#1a1a18" stroke-width="0.6" stroke-linecap="butt" stroke-linejoin="miter" stroke-miterlimit="4" d="M 12.755905 0 L 0 9.92126 "/>
                    </g>
                    <g transform="translate(16.6515 63.095559055118116)">
                        <path class="typst-shape" fill="none" stroke="#1a1a18" stroke-width="0.6" stroke-linecap="butt" stroke-linejoin="miter" stroke-miterlimit="4" d="M 0 0 L 12.755905 9.92126 "/>
                    </g>
                    <g transform="translate(3.895594488188976 43.25303937007874)">
                        <path class="typst-shape" fill="none" stroke="#1a1a18" stroke-width="0.6" stroke-linecap="butt" stroke-linejoin="miter" stroke-miterlimit="4" d="M 12.755905 0 L 0 9.92126 "/>
                    </g>
                    <g transform="translate(16.6515 43.25303937007874)">
                        <path class="typst-shape" fill="none" stroke="#1a1a18" stroke-width="0.6" stroke-linecap="butt" stroke-linejoin="miter" stroke-miterlimit="4" d="M 0 0 L 12.755905 9.92126 "/>
                    </g>
                    <g transform="translate(0 118.83211811023621)">
                        <path class="typst-shape" fill="none" d="M 0 0 L 33.303 0 L 33.303 7.582 L 0 7.582 L 0 0 Z "/>
                    </g>
                    <g transform="translate(-0.00000009448818873781821 118.83211798425195)">
                        <g class="typst-group">
                            <g>
                                <g transform="translate(0 0)">
                                    <g class="typst-group">
                                        <g>
                                            <g transform="translate(0 5.593)">
                                                <g class="typst-text" transform="scale(1, -1)">
                                                    <use xlink:href="#gE50E6CBBC94D63334EF2D059CF34EDC0" x="0" fill="#1a1a18" fill-rule="nonzero"/>
                                                    <use xlink:href="#g82274318E6240C5E0BF2A21EFBC2EB2E" x="3.706" fill="#1a1a18" fill-rule="nonzero"/>
                                                    <use xlink:href="#g7B65F5ADA22BABA3490471E647BCA46D" x="8.279" fill="#1a1a18" fill-rule="nonzero"/>
                                                    <use xlink:href="#g7838C22865692FD652C179671D7E75AB" x="12.562999999999999" fill="#1a1a18" fill-rule="nonzero"/>
                                                    <use xlink:href="#g7B65F5ADA22BABA3490471E647BCA46D" x="16.9745" fill="#1a1a18" fill-rule="nonzero"/>
                                                    <use xlink:href="#g24DF3F2EE2E624CD3C3E0D8734401C2F" x="21.258499999999998" fill="#1a1a18" fill-rule="nonzero"/>
                                                    <use xlink:href="#gC09E154E3AD89CB877ED92062553FBF1" x="25.33" fill="#1a1a18" fill-rule="nonzero"/>
                                                    <use xlink:href="#g4424532619D9A8CD78D2BA6EBA078873" x="29.214499999999997" fill="#1a1a18" fill-rule="nonzero"/>
                                                </g>
                                            </g>
                                        </g>
                                    </g>
                                </g>
                            </g>
                        </g>
                    </g>
                    <g transform="translate(87.51764173228347 23.410519685039358)">
                        <path class="typst-shape" fill="none" stroke="#1a1a18" stroke-width="1.4" stroke-linecap="butt" stroke-linejoin="miter" stroke-miterlimit="4" d="M 14.173228 87.874016 L 14.173228 53.85827 L 0 34.015747 L 22.677166 17.007874 L 8.503937 0 "/>
                    </g>
                    <g transform="translate(97.43890157480315 73.01681889763779)">
                        <path class="typst-shape" fill="none" stroke="#7c7f6a" stroke-width="1" stroke-linecap="butt" stroke-linejoin="miter" stroke-miterlimit="4" d="M 0 8.503937 L 8.503937 0 "/>
                    </g>
                    <g transform="translate(97.43890157480315 73.01681889763779)">
                        <path class="typst-shape" fill="none" stroke="#7c7f6a" stroke-width="1" stroke-linecap="butt" stroke-linejoin="miter" stroke-miterlimit="4" d="M 8.503937 8.503937 L 0 0 "/>
                    </g>
                    <g transform="translate(115.86409842519686 73.70078740157479)">
                        <path class="typst-shape" fill="none" d="M 0 0 L 38.52 0 L 38.52 7.136 L 0 7.136 L 0 0 Z "/>
                    </g>
                    <g transform="translate(115.86409842519684 73.70078729133859)">
                        <g class="typst-group">
                            <g>
                                <g transform="translate(0 0)">
                                    <g class="typst-group">
                                        <g>
                                            <g transform="translate(0 5.264)">
                                                <g class="typst-text" transform="scale(1, -1)">
                                                    <use xlink:href="#g8409406560E654831539A74ECB32BA27" x="0" fill="#7c7f6a" fill-rule="nonzero"/>
                                                    <use xlink:href="#g578B33A296E9B9AB3ACAB742780745DD" x="4.216" fill="#7c7f6a" fill-rule="nonzero"/>
                                                    <use xlink:href="#g798F91F6371A97DF6CF163FA511661B1" x="8.904" fill="#7c7f6a" fill-rule="nonzero"/>
                                                    <use xlink:href="#gB0BEE5DF3CE1D392DA80AA08C490E4E5" x="13.208" fill="#7c7f6a" fill-rule="nonzero"/>
                                                    <use xlink:href="#gD700849F026C9C7CFC274A634114D6A6" x="16.784" fill="#7c7f6a" fill-rule="nonzero"/>
                                                    <use xlink:href="#gC2757AD84AA3B456CE602219CBE61C6D" x="22.936" fill="#7c7f6a" fill-rule="nonzero"/>
                                                    <use xlink:href="#g3CEE0A1C17588DE25D62BD3AF4A3C9AF" x="26.36" fill="#7c7f6a" fill-rule="nonzero"/>
                                                    <use xlink:href="#g578B33A296E9B9AB3ACAB742780745DD" x="30.272" fill="#7c7f6a" fill-rule="nonzero"/>
                                                    <use xlink:href="#g194F33E9E8E32DA60F5731356CEE9B01" x="34.96" fill="#7c7f6a" fill-rule="nonzero"/>
                                                </g>
                                            </g>
                                        </g>
                                    </g>
                                </g>
                            </g>
                        </g>
                    </g>
                    <g transform="translate(62.68437007874015 118.83211811023621)">
                        <path class="typst-shape" fill="none" d="M 0 0 L 78.013 0 L 78.013 7.582 L 0 7.582 L 0 0 Z "/>
                    </g>
                    <g transform="translate(62.68437004724409 118.83211798425195)">
                        <g class="typst-group">
                            <g>
                                <g transform="translate(0 0)">
                                    <g class="typst-group">
                                        <g>
                                            <g transform="translate(0 5.593)">
                                                <g class="typst-text" transform="scale(1, -1)">
                                                    <use xlink:href="#g178BFCCBA40A1D1ECF064B49E891B73E" x="0" fill="#1a1a18" fill-rule="nonzero"/>
                                                    <use xlink:href="#g2B3CB50F3608D55CE6E2F9D5E890FC9" x="4.479500000000001" fill="#1a1a18" fill-rule="nonzero"/>
                                                    <use xlink:href="#g82274318E6240C5E0BF2A21EFBC2EB2E" x="9.4605" fill="#1a1a18" fill-rule="nonzero"/>
                                                    <use xlink:href="#g912E70B32C675C293CF499EA32633B2E" x="14.0335" fill="#1a1a18" fill-rule="nonzero"/>
                                                    <use xlink:href="#g7838C22865692FD652C179671D7E75AB" x="17.833" fill="#1a1a18" fill-rule="nonzero"/>
                                                    <use xlink:href="#g41DE436B6223F507FEFC15D7A7F2FA8C" x="24.3695" fill="#1a1a18" fill-rule="nonzero"/>
                                                    <use xlink:href="#gB1A99BB3F970C7F120550659853D5EF8" x="28.0075" fill="#1a1a18" fill-rule="nonzero"/>
                                                    <use xlink:href="#g2B3CB50F3608D55CE6E2F9D5E890FC9" x="32.164" fill="#1a1a18" fill-rule="nonzero"/>
                                                    <use xlink:href="#g390697BCD366D8FDF721159B1F9B0D38" x="37.145" fill="#1a1a18" fill-rule="nonzero"/>
                                                    <use xlink:href="#gBA2D51AFBCC5AA104BEABD6845634AB7" x="43.0525" fill="#1a1a18" fill-rule="nonzero"/>
                                                    <use xlink:href="#g2B3CB50F3608D55CE6E2F9D5E890FC9" x="54.7825" fill="#1a1a18" fill-rule="nonzero"/>
                                                    <use xlink:href="#gE50E6CBBC94D63334EF2D059CF34EDC0" x="59.7635" fill="#1a1a18" fill-rule="nonzero"/>
                                                    <use xlink:href="#g178BFCCBA40A1D1ECF064B49E891B73E" x="63.469500000000004" fill="#1a1a18" fill-rule="nonzero"/>
                                                    <use xlink:href="#g7B65F5ADA22BABA3490471E647BCA46D" x="67.949" fill="#1a1a18" fill-rule="nonzero"/>
                                                    <use xlink:href="#g1444DD536B4C574D8A5A2B3F5E464609" x="72.233" fill="#1a1a18" fill-rule="nonzero"/>
                                                </g>
                                            </g>
                                        </g>
                                    </g>
                                </g>
                            </g>
                        </g>
                    </g>
                </g>
            </g>
        </g>
    </g>
    <defs id="glyph">
        <symbol id="g8409406560E654831539A74ECB32BA27" overflow="visible">
            <path d="M 3.344 0.9760001 L 3.344 2.456 C 3.344 3.1120002 3.4480002 3.1520002 3.8880002 3.1840003 C 3.936 3.232 3.936 3.4 3.8880002 3.4480002 C 3.6480002 3.44 3.344 3.4320002 3.0240002 3.4320002 L 1.5120001 3.4320002 C 1.248 3.4320002 0.93600005 3.44 0.69600004 3.4480002 C 0.648 3.4 0.648 3.232 0.69600004 3.1840003 C 1.264 3.144 1.3440001 3.0960002 1.3440001 2.232 C 1.3440001 1.3920001 1.2800001 0.952 1.1680001 0.624 C 1.064 0.33600003 0.92800003 0.23200001 0.79200006 0.23200001 C 0.688 0.23200001 0.656 0.296 0.64000005 0.4 C 0.61600006 0.55200005 0.568 0.70400006 0.344 0.70400006 C 0.14400001 0.70400006 0.032 0.544 0.032 0.36800003 C 0.032 0.120000005 0.256 -0.096 0.624 -0.096 C 1.0320001 -0.096 1.256 0.112 1.44 0.544 C 1.6 0.92800003 1.6480001 1.7440001 1.6480001 2.288 C 1.6480001 2.9120002 1.672 3.1200001 1.9920001 3.1200001 L 2.352 3.1200001 C 2.6560001 3.1200001 2.7120001 2.9280002 2.7120001 2.6560001 L 2.7120001 0.9760001 C 2.7120001 0.32000002 2.6320002 0.28 2.216 0.24800001 C 2.176 0.2 2.176 0.032 2.216 -0.016 C 2.4160001 -0.008 2.7120001 0 3.032 0 C 3.3520002 0 3.7120001 -0.008 3.936 -0.016 C 3.976 0.032 3.976 0.2 3.936 0.24800001 C 3.4160001 0.28 3.344 0.32000002 3.344 0.9760001 Z "/>
        </symbol>
        <symbol id="g578B33A296E9B9AB3ACAB742780745DD" overflow="visible">
            <path d="M 1.5840001 0.504 C 1.5600001 0.504 1.5280001 0.52000004 1.5280001 0.6 L 1.5280001 2.424 C 1.5280001 3.088 1.6960001 3.16 2.104 3.1840003 C 2.1520002 3.232 2.1520002 3.4 2.104 3.4480002 C 1.9200001 3.44 1.4640001 3.4320002 1.1680001 3.4320002 C 0.90400004 3.4320002 0.58400005 3.44 0.28 3.4480002 C 0.23200001 3.4 0.23200001 3.232 0.28 3.1840003 C 0.768 3.16 0.896 3.088 0.896 2.424 L 0.896 1.008 C 0.896 0.344 0.768 0.272 0.28 0.24800001 C 0.23200001 0.2 0.23200001 0.032 0.28 -0.016 C 0.592 -0.008 0.91200006 0 1.1680001 0 C 1.3520001 0 1.5680001 -0.008 1.6560001 -0.016 C 1.6960001 0.096 1.7680001 0.256 1.8560001 0.416 L 3.104 2.92 C 3.1280003 2.92 3.16 2.904 3.16 2.8240001 L 3.16 1.008 C 3.16 0.344 2.992 0.272 2.584 0.24800001 C 2.536 0.2 2.536 0.032 2.584 -0.016 C 2.7680001 -0.008 3.2 0 3.5200002 0 C 3.7680001 0 4.096 -0.008 4.408 -0.016 C 4.4560003 0.032 4.4560003 0.2 4.408 0.24800001 C 3.92 0.272 3.7920003 0.344 3.7920003 1.008 L 3.7920003 2.424 C 3.7920003 3.088 3.92 3.16 4.408 3.1840003 C 4.4560003 3.232 4.4560003 3.4 4.408 3.4480002 C 4.0880003 3.44 3.7680001 3.4320002 3.5200002 3.4320002 C 3.344 3.4320002 3.1200001 3.44 3.0400002 3.4480002 C 2.976 3.3040001 2.904 3.1360002 2.832 3.0000002 Z "/>
        </symbol>
        <symbol id="g798F91F6371A97DF6CF163FA511661B1" overflow="visible">
            <path d="M 1.5120001 3.4320002 C 1.248 3.4320002 0.93600005 3.44 0.69600004 3.4480002 C 0.648 3.4 0.648 3.232 0.69600004 3.1840003 C 1.184 3.144 1.3280001 3.1120002 1.296 2.4480002 C 1.264 1.7120001 1.136 1.12 1 0.56 C 0.952 0.344 0.72 0.272 0.49600002 0.24800001 C 0.37600002 0.23200001 0.264 0.18400002 0.256 0.040000003 L 0.208 -1.024 C 0.264 -1.0480001 0.328 -1.056 0.42400002 -1.0320001 C 0.49600002 -0.73600006 0.712 0 1.432 0 L 2.8160002 0 C 3.528 0 3.7600002 -0.72 3.8320003 -1.0400001 C 3.9040003 -1.056 3.976 -1.056 4.056 -1.024 L 4.0080004 0.048 C 4.0080004 0.16000001 3.9440002 0.224 3.7920003 0.24800001 C 3.6480002 0.272 3.4480002 0.328 3.4480002 0.624 L 3.4480002 2.456 C 3.4480002 3.1120002 3.5520003 3.1520002 3.992 3.1840003 C 4.04 3.232 4.04 3.4 3.992 3.4480002 C 3.752 3.44 3.4480002 3.4320002 3.1280003 3.4320002 Z M 1.2880001 0.40800002 C 1.2880001 0.544 1.5040001 1.072 1.6240001 2.904 C 1.6320001 3.0240002 1.6880001 3.1280003 1.904 3.1280003 L 2.456 3.1280003 C 2.776 3.1280003 2.8160002 2.904 2.8160002 2.6320002 L 2.8160002 0.70400006 C 2.8160002 0.44000003 2.8000002 0.312 2.48 0.312 L 1.4480001 0.312 C 1.36 0.312 1.2880001 0.32000002 1.2880001 0.40800002 Z "/>
        </symbol>
        <symbol id="gB0BEE5DF3CE1D392DA80AA08C490E4E5" overflow="visible">
            <path d="M 3.088 0.744 C 2.792 0.44000003 2.5600002 0.312 2.0960002 0.312 C 1.8080001 0.312 1.4720001 0.48000002 1.2240001 0.8880001 C 1.064 1.1520001 0.96800005 1.5200001 0.96800005 1.9840001 L 3.0960002 1.968 C 3.1920002 1.968 3.2480001 2.016 3.2480001 2.104 C 3.2480001 2.776 3.0080001 3.496 1.8960001 3.496 C 1.2 3.496 0.296 2.832 0.296 1.616 C 0.296 1.1680001 0.40800002 0.73600006 0.67200005 0.432 C 0.94400007 0.112 1.32 -0.080000006 1.8960001 -0.080000006 C 2.5040002 -0.080000006 2.936 0.2 3.256 0.61600006 C 3.232 0.69600004 3.1840003 0.73600006 3.088 0.744 Z M 0.99200004 2.256 C 1.144 3.16 1.7040001 3.232 1.8960001 3.232 C 2.2 3.232 2.5600002 3.0640001 2.5600002 2.3920002 C 2.5600002 2.3200002 2.528 2.2800002 2.44 2.2800002 Z "/>
        </symbol>
        <symbol id="gD700849F026C9C7CFC274A634114D6A6" overflow="visible">
            <path d="M 1.248 2.9440002 C 1.24 3.1840003 1.2240001 3.3920002 1.184 3.4720001 C 1.1680001 3.512 1.1520001 3.5360003 1.088 3.5360003 C 0.864 3.4480002 0.656 3.3760002 0.104 3.3040001 C 0.08800001 3.256 0.104 3.1280003 0.120000005 3.0800002 C 0.55200005 3.0400002 0.64000005 3.0000002 0.64000005 2.536 L 0.64000005 -0.88000005 C 0.64000005 -1.544 0.55200005 -1.5840001 0.064 -1.608 C 0.016 -1.6560001 0.016 -1.8240001 0.064 -1.8720001 C 0.344 -1.8640001 0.64000005 -1.8560001 0.96000004 -1.8560001 C 1.2800001 -1.8560001 1.664 -1.8640001 1.9280001 -1.8720001 C 1.9760001 -1.8240001 1.9760001 -1.6560001 1.9280001 -1.608 C 1.36 -1.5760001 1.2720001 -1.544 1.2720001 -0.88000005 L 1.2720001 -0.016 C 1.2720001 0.08800001 1.304 0.080000006 1.3840001 0.048 C 1.5840001 -0.032 1.8240001 -0.080000006 2.0800002 -0.080000006 C 2.528 -0.080000006 2.9280002 0.056 3.256 0.36800003 C 3.6320002 0.73600006 3.8480003 1.2320001 3.8480003 1.8800001 C 3.8480003 2.7280002 3.2480001 3.512 2.4320002 3.512 C 2.0640001 3.512 1.6560001 3.272 1.3360001 2.9120002 C 1.2880001 2.864 1.256 2.864 1.248 2.9440002 Z M 1.4000001 2.6480002 C 1.608 2.904 1.9760001 3.144 2.2080002 3.144 C 2.72 3.144 3.16 2.568 3.16 1.664 C 3.16 1.008 2.9280002 0.192 2.032 0.192 C 1.8880001 0.192 1.608 0.23200001 1.4640001 0.36 C 1.304 0.504 1.2720001 0.55200005 1.2720001 0.84000003 L 1.2720001 2.296 C 1.2720001 2.4640002 1.304 2.536 1.4000001 2.6480002 Z "/>
        </symbol>
        <symbol id="gE50E6CBBC94D63334EF2D059CF34EDC0" overflow="visible">
            <path d="M 0.36550003 0.70550007 C 0.36550003 0.51850003 0.476 0.38250002 0.6545 0.24650002 C 0.86700004 0.0935 1.1475 -0.08500001 1.8190001 -0.08500001 C 2.6690001 -0.08500001 3.3320003 0.17000002 3.3320003 1.0115 C 3.3320003 1.5215001 3.0770001 1.8615001 2.4735003 1.9635001 L 2.4735003 1.9890001 C 2.992 2.1845002 3.1280003 2.4225001 3.1280003 2.8645 C 3.1280003 3.3575 2.788 3.7315001 1.9295001 3.7315001 C 1.4790001 3.7315001 1.0795001 3.5700002 0.6205 3.4935002 L 0.51000005 2.482 C 0.578 2.4480002 0.66300005 2.4395 0.73950005 2.4480002 C 0.901 2.9410002 1.1135001 3.4340003 1.8275001 3.4340003 C 2.295 3.4340003 2.4480002 3.1535 2.4480002 2.8135002 C 2.4480002 2.4650002 2.3885002 2.0570002 1.8445001 2.0570002 C 1.6830001 2.0570002 1.5385001 2.108 1.3770001 2.108 C 1.3005 2.108 1.2155001 2.0570002 1.2155001 1.9210001 C 1.2155001 1.7850001 1.309 1.7425001 1.3855001 1.7425001 C 1.547 1.7425001 1.6405001 1.7935001 1.853 1.7935001 C 2.482 1.7935001 2.601 1.3600001 2.601 0.98600006 C 2.601 0.48450002 2.414 0.2125 1.8105001 0.2125 C 1.3260001 0.2125 1.241 0.39100003 1.0965 0.697 C 1.0285001 0.85 0.93500006 0.96900004 0.71400005 0.96900004 C 0.56100005 0.96900004 0.36550003 0.84150004 0.36550003 0.70550007 Z "/>
        </symbol>
        <symbol id="g82274318E6240C5E0BF2A21EFBC2EB2E" overflow="visible">
            <path d="M 1.6065 3.6465 C 1.3260001 3.6465 0.99450004 3.6550002 0.73950005 3.6635003 C 0.68850005 3.6125002 0.68850005 3.4340003 0.73950005 3.3830001 C 1.258 3.3405 1.4110001 3.3065002 1.3770001 2.601 C 1.343 1.8190001 1.207 1.19 1.0625 0.595 C 1.0115 0.36550003 0.76500005 0.289 0.527 0.2635 C 0.3995 0.24650002 0.28050002 0.19550002 0.272 0.042500004 L 0.22100002 -1.088 C 0.28050002 -1.1135001 0.3485 -1.1220001 0.4505 -1.0965 C 0.527 -0.78200006 0.75650007 0 1.5215001 0 L 2.992 0 C 3.7485 0 3.9950001 -0.76500005 4.0715003 -1.105 C 4.1480002 -1.1220001 4.2245 -1.1220001 4.3095 -1.088 L 4.2585 0.051000003 C 4.2585 0.17000002 4.1905003 0.238 4.0290003 0.2635 C 3.8760002 0.289 3.6635003 0.3485 3.6635003 0.66300005 L 3.6635003 2.6095002 C 3.6635003 3.3065002 3.7740002 3.3490002 4.2415004 3.3830001 C 4.2925 3.4340003 4.2925 3.6125002 4.2415004 3.6635003 C 3.9865003 3.6550002 3.6635003 3.6465 3.3235002 3.6465 Z M 1.3685001 0.43350002 C 1.3685001 0.578 1.598 1.139 1.7255001 3.0855002 C 1.7340001 3.213 1.7935001 3.3235002 2.023 3.3235002 L 2.6095002 3.3235002 C 2.9495 3.3235002 2.992 3.0855002 2.992 2.7965002 L 2.992 0.748 C 2.992 0.46750003 2.9750001 0.33150002 2.6350002 0.33150002 L 1.5385001 0.33150002 C 1.445 0.33150002 1.3685001 0.34000003 1.3685001 0.43350002 Z "/>
        </symbol>
        <symbol id="g7B65F5ADA22BABA3490471E647BCA46D" overflow="visible">
            <path d="M 0.3485 1.7425001 C 0.3485 0.8755 0.9265 -0.08500001 2.1335 -0.08500001 C 2.6775002 -0.08500001 3.094 0.11050001 3.3830001 0.39100003 C 3.7655003 0.76500005 3.9355001 1.3005 3.9355001 1.8190001 C 3.9355001 2.703 3.4510002 3.7315001 2.1505 3.7315001 C 1.5895001 3.7315001 1.1305001 3.502 0.81600004 3.1365001 C 0.51000005 2.7710001 0.3485 2.278 0.3485 1.7425001 Z M 2.023 3.4340003 C 2.7540002 3.4340003 3.2045002 2.7710001 3.2045002 1.547 C 3.2045002 0.476 2.6520002 0.2125 2.2525 0.2125 C 1.3685001 0.2125 1.0795001 1.2835001 1.0795001 1.9380001 C 1.0795001 2.6775002 1.258 3.4340003 2.023 3.4340003 Z "/>
        </symbol>
        <symbol id="g7838C22865692FD652C179671D7E75AB" overflow="visible">
            <path d="M 1.3260001 3.1280003 C 1.3175001 3.3830001 1.3005 3.604 1.258 3.6890001 C 1.241 3.7315001 1.2240001 3.7570002 1.156 3.7570002 C 0.91800004 3.6635003 0.697 3.5870001 0.11050001 3.5105002 C 0.0935 3.4595 0.11050001 3.3235002 0.12750001 3.2725003 C 0.58650005 3.2300003 0.68000007 3.1875002 0.68000007 2.6945002 L 0.68000007 -0.93500006 C 0.68000007 -1.6405001 0.58650005 -1.6830001 0.068 -1.7085001 C 0.017 -1.7595001 0.017 -1.9380001 0.068 -1.9890001 C 0.36550003 -1.9805001 0.68000007 -1.9720001 1.0200001 -1.9720001 C 1.3600001 -1.9720001 1.7680001 -1.9805001 2.0485 -1.9890001 C 2.0995002 -1.9380001 2.0995002 -1.7595001 2.0485 -1.7085001 C 1.445 -1.6745001 1.3515 -1.6405001 1.3515 -0.93500006 L 1.3515 -0.017 C 1.3515 0.0935 1.3855001 0.08500001 1.4705001 0.051000003 C 1.6830001 -0.034 1.9380001 -0.08500001 2.21 -0.08500001 C 2.686 -0.08500001 3.111 0.0595 3.4595 0.39100003 C 3.8590002 0.78200006 4.0885 1.309 4.0885 1.9975001 C 4.0885 2.8985002 3.4510002 3.7315001 2.584 3.7315001 C 2.193 3.7315001 1.7595001 3.4765003 1.4195001 3.094 C 1.3685001 3.0430002 1.3345001 3.0430002 1.3260001 3.1280003 Z M 1.4875001 2.8135002 C 1.7085001 3.0855002 2.0995002 3.3405 2.3460002 3.3405 C 2.89 3.3405 3.3575 2.7285001 3.3575 1.7680001 C 3.3575 1.0710001 3.111 0.20400001 2.1590002 0.20400001 C 2.006 0.20400001 1.7085001 0.24650002 1.5555 0.38250002 C 1.3855001 0.53550005 1.3515 0.58650005 1.3515 0.89250004 L 1.3515 2.4395 C 1.3515 2.618 1.3855001 2.6945002 1.4875001 2.8135002 Z "/>
        </symbol>
        <symbol id="g24DF3F2EE2E624CD3C3E0D8734401C2F" overflow="visible">
            <path d="M 1.241 3.6465 C 0.8755 3.6465 0.578 3.6550002 0.2975 3.6635003 C 0.24650002 3.6125002 0.24650002 3.4340003 0.2975 3.3830001 C 0.81600004 3.3490002 0.90950006 3.3150003 0.90950006 2.6095002 L 0.90950006 1.0370001 C 0.90950006 0.33150002 0.81600004 0.30600002 0.2975 0.2635 C 0.24650002 0.2125 0.24650002 0.034 0.2975 -0.017 C 0.578 -0.0085 0.8755 0 1.2495 0 C 1.5640001 0 1.8445001 -0.017 2.414 -0.017 C 3.1450002 -0.017 3.6975002 0.187 3.6975002 1.0285001 C 3.6975002 1.5045 3.4 1.8360001 2.8815002 1.9295001 L 2.8815002 1.9550002 C 3.2725003 2.0315 3.5700002 2.3035002 3.5700002 2.8135002 C 3.5700002 3.4085002 3.2045002 3.6635003 2.176 3.6635003 C 1.8275001 3.6635003 1.6065 3.6465 1.241 3.6465 Z M 1.5810001 1.8445001 L 2.2270002 1.8445001 C 2.7455 1.8445001 2.9665 1.5045 2.9665 0.99450004 C 2.9665 0.425 2.6435 0.2635 2.1845002 0.2635 C 1.7425001 0.2635 1.5810001 0.34000003 1.5810001 0.73100007 Z M 1.5810001 2.091 L 1.5810001 3.0770001 C 1.5810001 3.3320003 1.7765001 3.3830001 2.1845002 3.3830001 C 2.6265001 3.3830001 2.89 3.2640002 2.89 2.7540002 C 2.89 2.414 2.6690001 2.091 2.1420002 2.091 Z "/>
        </symbol>
        <symbol id="gC09E154E3AD89CB877ED92062553FBF1" overflow="visible">
            <path d="M 2.4905002 0.40800002 C 2.5415 0.1445 2.6350002 -0.08500001 3.0600002 -0.08500001 C 3.3830001 -0.08500001 3.6890001 0.0595 3.8675003 0.22950001 C 3.8505 0.33150002 3.8165002 0.40800002 3.7230003 0.45900002 C 3.6635003 0.40800002 3.5190003 0.323 3.4085002 0.323 C 3.1620002 0.323 3.1535 0.6545 3.1535 1.0455 L 3.1535 2.295 C 3.1535 3.502 2.4905002 3.7315001 1.8700001 3.7315001 C 1.1730001 3.7315001 0.46750003 3.2725003 0.46750003 2.788 C 0.46750003 2.584 0.5695 2.482 0.76500005 2.482 C 1.0115 2.482 1.1645001 2.6605 1.1645001 2.7710001 C 1.1645001 2.8305001 1.156 2.89 1.139 2.9240003 C 1.1305001 2.9495 1.1220001 3.0005002 1.1220001 3.094 C 1.1220001 3.3575 1.4790001 3.4510002 1.802 3.4510002 C 2.091 3.4510002 2.4905002 3.3065002 2.4905002 2.3460002 C 2.4905002 2.2865002 2.4650002 2.2525 2.4395 2.2440002 L 1.7085001 2.0655 C 0.89250004 1.8615001 0.30600002 1.4110001 0.30600002 0.83300006 C 0.30600002 0.136 0.78200006 -0.08500001 1.3770001 -0.08500001 C 1.6745001 -0.08500001 1.9295001 -0.017 2.3035002 0.272 L 2.4735003 0.40800002 Z M 2.4905002 1.9805001 L 2.4905002 0.85850006 C 2.4905002 0.748 2.4395 0.68850005 2.3715 0.63750005 C 2.1505 0.45900002 1.8615001 0.2635 1.6235001 0.2635 C 1.1985 0.2635 1.0115 0.6035 1.0115 0.86700004 C 1.0115 1.2495 1.19 1.6405001 1.8190001 1.802 Z "/>
        </symbol>
        <symbol id="g4424532619D9A8CD78D2BA6EBA078873" overflow="visible">
            <path d="M 0.96900004 0 C 1.207 0.0085 1.292 0.22950001 1.394 0.53550005 C 1.6150001 1.207 1.8615001 1.6235001 2.2865002 1.6235001 L 2.5075002 1.6235001 L 2.5075002 1.0370001 C 2.5075002 0.33150002 2.414 0.30600002 1.8955001 0.2635 C 1.8445001 0.2125 1.8445001 0.034 1.8955001 -0.017 C 2.176 -0.0085 2.4735003 0 2.8475 0 C 3.213 0 3.5190003 -0.0085 3.7910001 -0.017 C 3.8420002 0.034 3.8420002 0.2125 3.7910001 0.2635 C 3.2725003 0.2975 3.1790001 0.33150002 3.1790001 1.0370001 L 3.1790001 2.6095002 C 3.1790001 3.3150003 3.2725003 3.3405 3.7910001 3.3830001 C 3.8420002 3.4340003 3.8420002 3.6125002 3.7910001 3.6635003 C 3.502 3.6550002 3.213 3.6465 2.8390002 3.6465 C 2.5500002 3.6465 2.3035002 3.6635003 2.091 3.6635003 C 0.6035 3.6635003 0.476 3.0515 0.476 2.5925002 C 0.476 2.0400002 0.901 1.7595001 1.5300001 1.7340001 C 1.5555 1.7340001 1.5555 1.7085001 1.547 1.7 C 1.2240001 1.6065 1.0795001 1.4280001 0.93500006 1.1135001 C 0.84150004 0.91800004 0.76500005 0.73100007 0.7225 0.6205 C 0.61200005 0.33150002 0.46750003 0.28050002 0.136 0.2635 C 0.08500001 0.2125 0.08500001 0.034 0.136 -0.017 C 0.30600002 -0.0085 0.96900004 0 0.96900004 0 Z M 1.207 2.7285001 C 1.207 3.1280003 1.3345001 3.3830001 2.023 3.3830001 C 2.3715 3.3830001 2.5075002 3.2300003 2.5075002 2.907 L 2.5075002 1.9125001 L 1.9125001 1.9125001 C 1.4025 1.9125001 1.207 2.3035002 1.207 2.7285001 Z "/>
        </symbol>
        <symbol id="gC2757AD84AA3B456CE602219CBE61C6D" overflow="visible">
            <path d="M 3.1840003 0.72800004 C 3.1520002 0.8 3.088 0.832 3.016 0.84000003 C 2.7440002 0.48800004 2.4 0.312 2.056 0.312 C 1.4720001 0.312 0.984 0.90400004 0.984 1.84 C 0.984 2.72 1.368 3.2480001 1.8960001 3.2480001 C 2.368 3.2480001 2.4320002 2.9680002 2.4640002 2.6880002 C 2.4880002 2.4720001 2.6000001 2.4 2.7680001 2.4 C 2.936 2.4 3.16 2.5040002 3.16 2.752 C 3.16 3.1920002 2.7040002 3.512 1.9360001 3.512 C 1.144 3.512 0.296 2.8000002 0.296 1.664 C 0.296 0.632 0.87200004 -0.080000006 1.8800001 -0.080000006 C 2.3600001 -0.080000006 2.7840002 0.072000004 3.1840003 0.72800004 Z "/>
        </symbol>
        <symbol id="g3CEE0A1C17588DE25D62BD3AF4A3C9AF" overflow="visible">
            <path d="M 0.272 2.056 C 0.272 0.544 1.144 -0.080000006 1.9200001 -0.080000006 C 3.016 -0.080000006 3.6480002 0.73600006 3.6480002 1.7440001 C 3.6480002 2.608 3.1680002 3.512 2.0400002 3.512 C 1.2800001 3.512 0.81600004 3.0640001 0.64000005 2.68 L 0.624 2.696 C 0.656 3.1120002 0.78400004 3.624 0.90400004 3.8320003 C 1.1600001 4.2720003 1.4640001 4.296 2.2 4.3760004 C 2.92 4.4560003 3.4320002 4.688 3.5040002 5.584 C 3.4480002 5.6080003 3.3920002 5.616 3.328 5.584 C 3.2640002 5.2000003 2.8400002 5.096 2.1680002 4.992 C 1.5200001 4.888 0.9760001 4.664 0.64000005 4.032 C 0.35200003 3.4880002 0.272 2.8160002 0.272 2.056 Z M 0.96000004 1.848 C 0.96000004 2.296 1.12 3.232 1.9520001 3.232 C 2.5760002 3.232 2.96 2.512 2.96 1.552 C 2.96 0.544 2.496 0.2 2.0640001 0.2 C 1.48 0.2 0.96000004 0.96000004 0.96000004 1.848 Z "/>
        </symbol>
        <symbol id="g194F33E9E8E32DA60F5731356CEE9B01" overflow="visible">
            <path d="M 1.4560001 0.9760001 C 1.4560001 0.312 1.368 0.272 0.88000005 0.24800001 C 0.832 0.2 0.832 0.032 0.88000005 -0.016 C 1.192 -0.008 1.5120001 0 1.7760001 0 C 2.048 0 2.3600001 -0.008 2.664 -0.016 C 2.7120001 0.032 2.7120001 0.2 2.664 0.24800001 C 2.176 0.272 2.088 0.312 2.088 0.9760001 L 2.088 3.1360002 L 2.2240002 3.1360002 C 2.8720002 3.1360002 3.0000002 2.9120002 3.1360002 2.2640002 C 3.2400002 2.2640002 3.344 2.296 3.344 2.296 C 3.2960002 2.664 3.2640002 3.016 3.256 3.4800003 C 3.072 3.4640002 2.4720001 3.4320002 2.072 3.4320002 L 1.4720001 3.4320002 C 1.072 3.4320002 0.624 3.456 0.30400002 3.4800003 C 0.296 3.016 0.264 2.664 0.208 2.296 C 0.208 2.296 0.32000002 2.2640002 0.42400002 2.2640002 C 0.56 2.9120002 0.68 3.1360002 1.3360001 3.1360002 L 1.4560001 3.1360002 Z "/>
        </symbol>
        <symbol id="g178BFCCBA40A1D1ECF064B49E891B73E" overflow="visible">
            <path d="M 3.5530002 1.0370001 L 3.5530002 2.6095002 C 3.5530002 3.3065002 3.6635003 3.3490002 4.131 3.3830001 C 4.182 3.4340003 4.182 3.6125002 4.131 3.6635003 C 3.8760002 3.6550002 3.5530002 3.6465 3.213 3.6465 L 1.6065 3.6465 C 1.3260001 3.6465 0.99450004 3.6550002 0.73950005 3.6635003 C 0.68850005 3.6125002 0.68850005 3.4340003 0.73950005 3.3830001 C 1.343 3.3405 1.4280001 3.2895002 1.4280001 2.3715 C 1.4280001 1.4790001 1.3600001 1.0115 1.241 0.66300005 C 1.1305001 0.35700002 0.98600006 0.24650002 0.84150004 0.24650002 C 0.73100007 0.24650002 0.697 0.3145 0.68000007 0.425 C 0.6545 0.58650005 0.6035 0.748 0.36550003 0.748 C 0.15300001 0.748 0.034 0.578 0.034 0.39100003 C 0.034 0.12750001 0.272 -0.102000006 0.66300005 -0.102000006 C 1.0965 -0.102000006 1.3345001 0.119 1.5300001 0.578 C 1.7 0.98600006 1.751 1.853 1.751 2.4310002 C 1.751 3.094 1.7765001 3.3150003 2.1165001 3.3150003 L 2.499 3.3150003 C 2.8220003 3.3150003 2.8815002 3.111 2.8815002 2.8220003 L 2.8815002 1.0370001 C 2.8815002 0.34000003 2.7965002 0.2975 2.3545 0.2635 C 2.312 0.2125 2.312 0.034 2.3545 -0.017 C 2.5670002 -0.0085 2.8815002 0 3.2215002 0 C 3.5615003 0 3.9440002 -0.0085 4.182 -0.017 C 4.2245 0.034 4.2245 0.2125 4.182 0.2635 C 3.6295002 0.2975 3.5530002 0.34000003 3.5530002 1.0370001 Z "/>
        </symbol>
        <symbol id="g2B3CB50F3608D55CE6E2F9D5E890FC9" overflow="visible">
            <path d="M 1.6830001 0.53550005 C 1.6575001 0.53550005 1.6235001 0.5525 1.6235001 0.63750005 L 1.6235001 2.5755002 C 1.6235001 3.2810001 1.802 3.3575 2.2355 3.3830001 C 2.2865002 3.4340003 2.2865002 3.6125002 2.2355 3.6635003 C 2.0400002 3.6550002 1.5555 3.6465 1.241 3.6465 C 0.96050006 3.6465 0.6205 3.6550002 0.2975 3.6635003 C 0.24650002 3.6125002 0.24650002 3.4340003 0.2975 3.3830001 C 0.81600004 3.3575 0.952 3.2810001 0.952 2.5755002 L 0.952 1.0710001 C 0.952 0.36550003 0.81600004 0.289 0.2975 0.2635 C 0.24650002 0.2125 0.24650002 0.034 0.2975 -0.017 C 0.629 -0.0085 0.96900004 0 1.241 0 C 1.4365001 0 1.6660001 -0.0085 1.7595001 -0.017 C 1.802 0.102000006 1.8785001 0.272 1.9720001 0.44200003 L 3.298 3.1025002 C 3.3235002 3.1025002 3.3575 3.0855002 3.3575 3.0005002 L 3.3575 1.0710001 C 3.3575 0.36550003 3.1790001 0.289 2.7455 0.2635 C 2.6945002 0.2125 2.6945002 0.034 2.7455 -0.017 C 2.9410002 -0.0085 3.4 0 3.7400002 0 C 4.0035 0 4.352 -0.0085 4.6835003 -0.017 C 4.7345004 0.034 4.7345004 0.2125 4.6835003 0.2635 C 4.1650004 0.289 4.0290003 0.36550003 4.0290003 1.0710001 L 4.0290003 2.5755002 C 4.0290003 3.2810001 4.1650004 3.3575 4.6835003 3.3830001 C 4.7345004 3.4340003 4.7345004 3.6125002 4.6835003 3.6635003 C 4.3435 3.6550002 4.0035 3.6465 3.7400002 3.6465 C 3.5530002 3.6465 3.3150003 3.6550002 3.2300003 3.6635003 C 3.1620002 3.5105002 3.0855002 3.3320003 3.009 3.1875002 Z "/>
        </symbol>
        <symbol id="g912E70B32C675C293CF499EA32633B2E" overflow="visible">
            <path d="M 3.2810001 0.79050004 C 2.9665 0.46750003 2.7200003 0.33150002 2.2270002 0.33150002 C 1.9210001 0.33150002 1.5640001 0.51000005 1.3005 0.94350004 C 1.1305001 1.2240001 1.0285001 1.6150001 1.0285001 2.108 L 3.2895002 2.091 C 3.3915002 2.091 3.4510002 2.1420002 3.4510002 2.2355 C 3.4510002 2.9495 3.196 3.7145002 2.0145001 3.7145002 C 1.2750001 3.7145002 0.3145 3.009 0.3145 1.7170001 C 0.3145 1.241 0.43350002 0.78200006 0.71400005 0.45900002 C 1.003 0.119 1.4025 -0.08500001 2.0145001 -0.08500001 C 2.6605 -0.08500001 3.1195002 0.2125 3.4595 0.6545 C 3.4340003 0.73950005 3.3830001 0.78200006 3.2810001 0.79050004 Z M 1.054 2.397 C 1.2155001 3.3575 1.8105001 3.4340003 2.0145001 3.4340003 C 2.3375 3.4340003 2.7200003 3.2555 2.7200003 2.5415 C 2.7200003 2.4650002 2.686 2.4225001 2.5925002 2.4225001 Z "/>
        </symbol>
        <symbol id="g41DE436B6223F507FEFC15D7A7F2FA8C" overflow="visible">
            <path d="M 3.3830001 0.7735 C 3.3490002 0.85 3.2810001 0.88400006 3.2045002 0.89250004 C 2.9155002 0.51850003 2.5500002 0.33150002 2.1845002 0.33150002 C 1.5640001 0.33150002 1.0455 0.96050006 1.0455 1.9550002 C 1.0455 2.89 1.4535 3.4510002 2.0145001 3.4510002 C 2.516 3.4510002 2.584 3.1535 2.618 2.8560002 C 2.6435 2.6265001 2.7625 2.5500002 2.9410002 2.5500002 C 3.1195002 2.5500002 3.3575 2.6605 3.3575 2.9240003 C 3.3575 3.3915002 2.8730001 3.7315001 2.0570002 3.7315001 C 1.2155001 3.7315001 0.3145 2.9750001 0.3145 1.7680001 C 0.3145 0.6715 0.9265 -0.08500001 1.9975001 -0.08500001 C 2.5075002 -0.08500001 2.9580002 0.076500006 3.3830001 0.7735 Z "/>
        </symbol>
        <symbol id="gB1A99BB3F970C7F120550659853D5EF8" overflow="visible">
            <path d="M 0.289 2.1845002 C 0.289 0.578 1.2155001 -0.08500001 2.0400002 -0.08500001 C 3.2045002 -0.08500001 3.8760002 0.78200006 3.8760002 1.853 C 3.8760002 2.7710001 3.3660002 3.7315001 2.1675 3.7315001 C 1.3600001 3.7315001 0.86700004 3.2555 0.68000007 2.8475 L 0.66300005 2.8645 C 0.697 3.3065002 0.83300006 3.8505 0.96050006 4.0715003 C 1.2325001 4.539 1.5555 4.5645003 2.3375 4.6495004 C 3.1025002 4.7345004 3.6465 4.9810004 3.7230003 5.933 C 3.6635003 5.9585004 3.604 5.9670005 3.5360003 5.933 C 3.4680002 5.525 3.0175002 5.4145 2.3035002 5.3040004 C 1.6150001 5.1935005 1.0370001 4.9555 0.68000007 4.2840004 C 0.374 3.706 0.289 2.992 0.289 2.1845002 Z M 1.0200001 1.9635001 C 1.0200001 2.4395 1.19 3.4340003 2.0740001 3.4340003 C 2.7370002 3.4340003 3.1450002 2.6690001 3.1450002 1.649 C 3.1450002 0.578 2.6520002 0.2125 2.193 0.2125 C 1.5725001 0.2125 1.0200001 1.0200001 1.0200001 1.9635001 Z "/>
        </symbol>
        <symbol id="g390697BCD366D8FDF721159B1F9B0D38" overflow="visible">
            <path d="M 1.547 1.0370001 C 1.547 0.33150002 1.4535 0.289 0.93500006 0.2635 C 0.88400006 0.2125 0.88400006 0.034 0.93500006 -0.017 C 1.2665001 -0.0085 1.6065 0 1.8870001 0 C 2.176 0 2.5075002 -0.0085 2.8305001 -0.017 C 2.8815002 0.034 2.8815002 0.2125 2.8305001 0.2635 C 2.312 0.289 2.2185001 0.33150002 2.2185001 1.0370001 L 2.2185001 3.3320003 L 2.3630002 3.3320003 C 3.0515 3.3320003 3.1875002 3.094 3.3320003 2.4055002 C 3.4425 2.4055002 3.5530002 2.4395 3.5530002 2.4395 C 3.502 2.8305001 3.4680002 3.2045002 3.4595 3.6975002 C 3.2640002 3.6805003 2.6265001 3.6465 2.2015002 3.6465 L 1.5640001 3.6465 C 1.139 3.6465 0.66300005 3.6720002 0.323 3.6975002 C 0.3145 3.2045002 0.28050002 2.8305001 0.22100002 2.4395 C 0.22100002 2.4395 0.34000003 2.4055002 0.4505 2.4055002 C 0.595 3.094 0.7225 3.3320003 1.4195001 3.3320003 L 1.547 3.3320003 Z "/>
        </symbol>
        <symbol id="gBA2D51AFBCC5AA104BEABD6845634AB7" overflow="visible">
            <path d="M 7.2760005 0.697 C 8.007 1.5215001 8.6955 1.9975001 9.112 2.1420002 L 9.112 2.3375 C 8.194 2.7115002 7.2760005 3.7995002 7.2760005 3.808 L 6.9360003 3.808 C 7.2675004 3.094 7.616 2.703 7.8965006 2.4735003 L 0.5015 2.4735003 L 0.5015 2.0315 L 7.8965006 2.0315 C 7.6245003 1.7680001 7.208 1.309 6.9530005 0.697 Z "/>
        </symbol>
        <symbol id="g1444DD536B4C574D8A5A2B3F5E464609" overflow="visible">
            <path d="M 0.99450004 2.601 L 0.94350004 1.0200001 C 0.91800004 0.30600002 0.79050004 0.289 0.2975 0.2635 C 0.24650002 0.2125 0.24650002 0.034 0.2975 -0.017 C 0.46750003 -0.0085 0.89250004 0 1.0285001 0 C 1.1985 0 1.598 -0.0085 1.7680001 -0.017 C 1.8190001 0.034 1.8190001 0.2125 1.7680001 0.2635 C 1.2835001 0.2975 1.2495 0.38250002 1.2665001 1.0200001 L 1.3260001 3.1025002 C 1.3260001 3.1790001 1.3600001 3.1790001 1.394 3.1025002 L 2.6265001 0.0935 C 2.6605 0.068 2.6945002 0.068 2.7200003 0.0935 L 4.1140003 3.094 C 4.1565003 3.1875002 4.1990004 3.196 4.1990004 3.094 L 4.1905003 1.0370001 C 4.1905003 0.33150002 4.131 0.30600002 3.6125002 0.2635 C 3.5615003 0.2125 3.5615003 0.034 3.6125002 -0.017 C 3.9185002 -0.0085 4.2330003 0 4.5305004 0 C 4.7855 0 5.1510005 -0.0085 5.4825 -0.017 C 5.5335 0.034 5.5335 0.2125 5.4825 0.2635 C 4.964 0.2975 4.8705 0.33150002 4.8705 1.0370001 L 4.8535004 2.6095002 C 4.8450003 3.3150003 4.9470005 3.3405 5.4655004 3.3830001 C 5.5165005 3.4340003 5.5165005 3.6125002 5.4655004 3.6635003 C 5.168 3.6465 4.3435 3.6465 4.063 3.6465 L 2.9325001 1.2155001 L 2.89 1.1305001 L 2.8560002 1.2155001 L 1.8615001 3.6465 C 1.5810001 3.6465 0.68000007 3.6465 0.38250002 3.6635003 C 0.33150002 3.6125002 0.33150002 3.4340003 0.38250002 3.3830001 C 0.901 3.3405 1.0200001 3.3065002 0.99450004 2.601 Z "/>
        </symbol>
    </defs>
</svg>
