<svg viewBox="0 0 246.561574803 156.267023622" width="246.561574803pt" height="156.267023622pt" xmlns="http://www.w3.org/2000/svg" xmlns:xlink="http://www.w3.org/1999/xlink" xmlns:h5="http://www.w3.org/1999/xhtml"><path fill="#ffffff" fill-rule="nonzero" d="M 0 0v 156.267023622h 246.561574803v -156.267023622Z "/><g transform="translate(8 8)"><path fill="none" stroke="#1a1a18" stroke-width="0.6" stroke-linecap="butt" stroke-linejoin="miter" stroke-miterlimit="4" transform="translate(0 10.877614173)" d="M 0 0h 30.326701988"/><path fill="#1a1a18" fill-rule="nonzero" stroke="#1a1a18" stroke-width="0.6" stroke-linecap="butt" stroke-linejoin="miter" stroke-miterlimit="4" transform="translate(30.32670189 8.751629921)" d="M 0 0m 5.669291339 2.125984252l -5.669291339 2.125984252v -4.251968504l 5.669291339 2.125984252Z "/><path fill="none" transform="translate(8.49294685)" d="M 0 0h 19.8645v 7.582h -19.8645v -7.582Z "/><g transform="translate(8.492946803 -1.26e-7)"><g transform="matrix(1 0 0 -1 0 5.593)"><use xlink:href="#g3D9A67B9902CBFFCF1182D85B33DBA41" x="0" y="0" fill="#7c7f6a" fill-rule="nonzero"/><use xlink:href="#g5D2E58E4CDB4D7E6C81847885E22D756" x="4.0715" y="0" fill="#7c7f6a" fill-rule="nonzero"/><use xlink:href="#g3EDD64AE7B5A40E8FE9DD75D51E8EE8A" x="7.871" y="0" fill="#7c7f6a" fill-rule="nonzero"/><use xlink:href="#g5D2E58E4CDB4D7E6C81847885E22D756" x="11.6535" y="0" fill="#7c7f6a" fill-rule="nonzero"/><use xlink:href="#g430571653545A60A3EF6386D136EADA3" x="15.453" y="0" fill="#7c7f6a" fill-rule="nonzero"/></g></g><path fill="none" stroke="#1a1a18" stroke-width="1.2" stroke-linecap="butt" stroke-linejoin="miter" stroke-miterlimit="4" transform="translate(22.677165354 25.05084252)" d="M 0 0m 0 79.37007874c 0 -30.236220472 13.228346457 -56.692913386 39.68503937 -79.37007874"/><path fill="none" stroke="#1a1a18" stroke-width="0.6" stroke-linecap="butt" stroke-linejoin="miter" stroke-miterlimit="4" transform="translate(18.42519685 104.42092126)" d="M 0 0h 8.503937008"/><path fill="none" transform="translate(5.664415354 112.810003937)" d="M 0 0h 34.0255v 5.899h -34.0255v -5.899Z "/><g transform="translate(5.664415323 112.810003811)"><g transform="matrix(1 0 0 -1 0 5.8055)"><use xlink:href="#g3EDD64AE7B5A40E8FE9DD75D51E8EE8A" x="0" y="0" fill="#1a1a18" fill-rule="nonzero"/><use xlink:href="#gE34E15A46C94CBC2E6ABE8844A1DDB21" x="3.7825" y="0" fill="#1a1a18" fill-rule="nonzero"/><use xlink:href="#gC8932C6BA7F518DC74E87E2F4A0224EB" x="8.0665" y="0" fill="#1a1a18" fill-rule="nonzero"/><use xlink:href="#gA501B866130BB2CA150759E9628F05FB" x="13.0475" y="0" fill="#1a1a18" fill-rule="nonzero"/><use xlink:href="#gE7AE90A8EDDEF3DDB67EE78D36D80337" x="17.3145" y="0" fill="#1a1a18" fill-rule="nonzero"/><use xlink:href="#gB4154B742B01C4CB9DD5E5AAD4490D84" x="22.2955" y="0" fill="#1a1a18" fill-rule="nonzero"/></g><g transform="matrix(1 0 0 -1 29.4015 5.8055)"><use xlink:href="#g556FAAD5131979FA8BD459FE142B06EF" x="0" y="0" fill="#1a1a18" fill-rule="nonzero"/></g></g><path fill="none" transform="translate(65.196850394 27.052133858)" d="M 0 0h 64.032v 7.336h -64.032v -7.336Z "/><g transform="translate(65.196850346 27.052133827)"><g transform="matrix(1 0 0 -1 0 5.464)"><use xlink:href="#gDFD38EC9906BA626C5B7E69A103C103" x="0" y="0" fill="#7c7f6a" fill-rule="nonzero"/><use xlink:href="#g5D01DA3AB390CB78D7E54204B7DC3F87" x="3.912" y="0" fill="#7c7f6a" fill-rule="nonzero"/><use xlink:href="#gFF63DA2595F1651AF0C535BF803D9AEC" x="7.944" y="0" fill="#7c7f6a" fill-rule="nonzero"/><use xlink:href="#gC175399424EF2D6961EAC52DB2845054" x="12.16" y="0" fill="#7c7f6a" fill-rule="nonzero"/><use xlink:href="#g7FEC4917393F0C2A72D87F7F150D50F" x="15.88" y="0" fill="#7c7f6a" fill-rule="nonzero"/><use xlink:href="#g5D01DA3AB390CB78D7E54204B7DC3F87" x="22.672" y="0" fill="#7c7f6a" fill-rule="nonzero"/><use xlink:href="#g9E0D72929382BA054F8819A862FD1C38" x="26.704" y="0" fill="#7c7f6a" fill-rule="nonzero"/><use xlink:href="#gF859B786D36C3A3EB6E93A57BC4F802" x="33.392" y="0" fill="#7c7f6a" fill-rule="nonzero"/><use xlink:href="#g46DFAA35BC521B4F2378CE697B4B163E" x="38.08" y="0" fill="#7c7f6a" fill-rule="nonzero"/><use xlink:href="#g5D01DA3AB390CB78D7E54204B7DC3F87" x="42.232" y="0" fill="#7c7f6a" fill-rule="nonzero"/><use xlink:href="#g3478CFDC408E67C5C7551BD6A62D2425" x="46.264" y="0" fill="#7c7f6a" fill-rule="nonzero"/><use xlink:href="#gDF0740817C60D01D4C0A2F901DD857A7" x="49.592" y="0" fill="#7c7f6a" fill-rule="nonzero"/><use xlink:href="#gDFD38EC9906BA626C5B7E69A103C103" x="54.28" y="0" fill="#7c7f6a" fill-rule="nonzero"/></g><g transform="matrix(1 0 0 -1 60.192 5.464)"><use xlink:href="#g2B80858EC6253423DD91E95803C749B9" x="0" y="0" fill="#7c7f6a" fill-rule="nonzero"/></g></g><path fill="none" stroke="#1a1a18" stroke-width="3" stroke-linecap="butt" stroke-linejoin="miter" stroke-miterlimit="4" transform="translate(136.062992126 25.05084252)" d="M 0 0m 0 79.37007874l 5.669291339 -79.37007874"/><path fill="none" transform="translate(117.847387795 112.805753937)" d="M 0 0h 42.1005v 5.9075h -42.1005v -5.9075Z "/><g transform="translate(117.847387701 112.805753827)"><g transform="matrix(1 0 0 -1 0 5.8055)"><use xlink:href="#g3EDD64AE7B5A40E8FE9DD75D51E8EE8A" x="0" y="0" fill="#1a1a18" fill-rule="nonzero"/><use xlink:href="#gE34E15A46C94CBC2E6ABE8844A1DDB21" x="3.7825" y="0" fill="#1a1a18" fill-rule="nonzero"/><use xlink:href="#gB3F6F741CFF64E2F87AE274E4C795DAE" x="8.0665" y="0" fill="#1a1a18" fill-rule="nonzero"/><use xlink:href="#g1EEFC323E4FEBE7654D5CC1583F61AF4" x="12.546" y="0" fill="#1a1a18" fill-rule="nonzero"/><use xlink:href="#g3EDD64AE7B5A40E8FE9DD75D51E8EE8A" x="16.184" y="0" fill="#1a1a18" fill-rule="nonzero"/><use xlink:href="#g263F4FD32CCD3C47111457350A4C543D" x="19.9665" y="0" fill="#1a1a18" fill-rule="nonzero"/><use xlink:href="#gB4154B742B01C4CB9DD5E5AAD4490D84" x="26.1205" y="0" fill="#1a1a18" fill-rule="nonzero"/></g><g transform="matrix(1 0 0 -1 33.2265 5.8055)"><use xlink:href="#g93CDC01680B3E2FB50DA8122ECFF4EE7" x="0" y="0" fill="#1a1a18" fill-rule="nonzero"/></g><g transform="matrix(1 0 0 -1 37.4765 5.8055)"><use xlink:href="#g556FAAD5131979FA8BD459FE142B06EF" x="0" y="0" fill="#1a1a18" fill-rule="nonzero"/></g></g><path fill="none" transform="translate(147.401574803 32.821425197)" d="M 0 0h 83.16v 7.136h -83.16v -7.136Z "/><g transform="translate(147.401574803 32.821425087)"><g transform="matrix(1 0 0 -1 0 5.264)"><use xlink:href="#gF859B786D36C3A3EB6E93A57BC4F802" x="0" y="0" fill="#7c7f6a" fill-rule="nonzero"/><use xlink:href="#g46DFAA35BC521B4F2378CE697B4B163E" x="4.688" y="0" fill="#7c7f6a" fill-rule="nonzero"/><use xlink:href="#g5D01DA3AB390CB78D7E54204B7DC3F87" x="8.84" y="0" fill="#7c7f6a" fill-rule="nonzero"/><use xlink:href="#g3478CFDC408E67C5C7551BD6A62D2425" x="12.872" y="0" fill="#7c7f6a" fill-rule="nonzero"/><use xlink:href="#gDF0740817C60D01D4C0A2F901DD857A7" x="16.2" y="0" fill="#7c7f6a" fill-rule="nonzero"/><use xlink:href="#gDFD38EC9906BA626C5B7E69A103C103" x="20.888" y="0" fill="#7c7f6a" fill-rule="nonzero"/><use xlink:href="#gE9BB349F7E32C39203BC6B218DF12838" x="26.8" y="0" fill="#7c7f6a" fill-rule="nonzero"/><use xlink:href="#g8C50DFC0B8272CD73341C65811BD0E92" x="32.632" y="0" fill="#7c7f6a" fill-rule="nonzero"/><use xlink:href="#gAFC6ADE0F4BA5C584B85DD0E8532505B" x="36.352" y="0" fill="#7c7f6a" fill-rule="nonzero"/><use xlink:href="#g46DFAA35BC521B4F2378CE697B4B163E" x="42.072" y="0" fill="#7c7f6a" fill-rule="nonzero"/><use xlink:href="#gF79D9CC171E1ACC5162F855F1894F43E" x="46.224" y="0" fill="#7c7f6a" fill-rule="nonzero"/><use xlink:href="#gF09D88C2290872E835CD22D560D52A5C" x="49.88" y="0" fill="#7c7f6a" fill-rule="nonzero"/><use xlink:href="#gE4F86D8BE8C69EC1EB36B973594724AB" x="55.368" y="0" fill="#7c7f6a" fill-rule="nonzero"/><use xlink:href="#g465CA45D0696F5BBCE5E7A11B5E63D98" x="60.808" y="0" fill="#7c7f6a" fill-rule="nonzero"/><use xlink:href="#g937124D7F3D66536776BB8DA5DFD7893" x="64.384" y="0" fill="#7c7f6a" fill-rule="nonzero"/><use xlink:href="#gC175399424EF2D6961EAC52DB2845054" x="69.072" y="0" fill="#7c7f6a" fill-rule="nonzero"/><use xlink:href="#g7FEC4917393F0C2A72D87F7F150D50F" x="72.792" y="0" fill="#7c7f6a" fill-rule="nonzero"/><use xlink:href="#g465CA45D0696F5BBCE5E7A11B5E63D98" x="79.584" y="0" fill="#7c7f6a" fill-rule="nonzero"/></g></g><path fill="none" transform="translate(0.18857874 130.937023622)" d="M 0 0h 164.032291339v 9.33h -164.032291339v -9.33Z "/><g transform="translate(0.18857863 130.937023575)"><g transform="matrix(1 0 0 -1 0 6.83)"><use xlink:href="#g1854A57E3895078905A396CA1061C2C" x="0" y="0" fill="#1a1a18" fill-rule="nonzero"/></g><g transform="matrix(1 0 0 -1 8.027777778 6.83)"><use xlink:href="#g7679559C61795D4B2FBCEF1D6942AEE" x="0" y="0" fill="#1a1a18" fill-rule="nonzero"/></g><g transform="matrix(1 0 0 -1 18.585555556 6.83)"><use xlink:href="#g5CF1D204351052BE9DFCEAA5213E13C0" x="0" y="0" fill="#1a1a18" fill-rule="nonzero"/></g><g transform="matrix(1 0 0 -1 24.535555556 6.83)"><use xlink:href="#g39009AFBE697861A3898B956D60124D1" x="0" y="0" fill="#1a1a18" fill-rule="nonzero"/></g><g transform="matrix(1 0 0 -1 29.975555556 3.2)"><use xlink:href="#gA34FDBAFC63168279C8D1CAFE4C55D67" x="0" y="0" fill="#1a1a18" fill-rule="nonzero"/></g><g transform="matrix(1 0 0 -1 34.518555556 6.83)"><use xlink:href="#gFE9C95FEAF1BF90E9FD23335C9A50CC7" x="0" y="0" fill="#1a1a18" fill-rule="nonzero"/></g><g transform="matrix(1 0 0 -1 39.518555556 6.83)"><use xlink:href="#gBA8E9B5B9CFB1B01CAA665CFE5F7BE8E" x="0" y="0" fill="#1a1a18" fill-rule="nonzero"/></g><g transform="matrix(1 0 0 -1 44.518555556 6.83)"><use xlink:href="#g25AA077DE012500399ECCD32292552DD" x="0" y="0" fill="#1a1a18" fill-rule="nonzero"/></g><g transform="matrix(1 0 0 -1 49.518555556 6.83)"><use xlink:href="#g9C25E780E6AD3E011190AC1851E58112" x="0" y="0" fill="#1a1a18" fill-rule="nonzero"/></g><g transform="matrix(1 0 0 -1 59.887846894 6.83)"><use xlink:href="#g39009AFBE697861A3898B956D60124D1" x="0" y="0" fill="#1a1a18" fill-rule="nonzero"/></g><g transform="matrix(1 0 0 -1 67.550069116 6.83)"><use xlink:href="#gCFBB303EE9A4664734E04AA0DDE5EE93" x="0" y="0" fill="#1a1a18" fill-rule="nonzero"/></g><g transform="matrix(1 0 0 -1 77.552291339 6.83)"><use xlink:href="#g187F960CD8D343F130EAFAB63E4BE0DE" x="0" y="0" fill="#1a1a18" fill-rule="nonzero"/></g><g transform="matrix(1 0 0 -1 85.330069116 6.83)"><use xlink:href="#gABDDB2F13393EFB0B3C2622E4B2BF69D" x="0" y="0" fill="#1a1a18" fill-rule="nonzero"/></g><g transform="matrix(1 0 0 -1 95.330069116 6.83)"><use xlink:href="#g729161D2B0E3A3BFDA42C859CCA10BD0" x="2.5" y="0" fill="#1a1a18" fill-rule="nonzero"/><use xlink:href="#g9E0EED1382D7915B68E40A5B177AB6F0" x="9.56" y="0" fill="#1a1a18" fill-rule="nonzero"/><use xlink:href="#g3034C02F099195832EC02A04CF67550" x="14.03" y="0" fill="#1a1a18" fill-rule="nonzero"/><use xlink:href="#gF7E2F11D9500E34CEB199CAED225F368" x="18.31" y="0" fill="#1a1a18" fill-rule="nonzero"/><use xlink:href="#g1E1CCF3C3F9C9FC6D96E38E66EA39633" x="22.76" y="0" fill="#1a1a18" fill-rule="nonzero"/><use xlink:href="#gF91E605A926A6829D0875F26DD95556B" x="27.78" y="0" fill="#1a1a18" fill-rule="nonzero"/><use xlink:href="#g3034C02F099195832EC02A04CF67550" x="32.82" y="0" fill="#1a1a18" fill-rule="nonzero"/><use xlink:href="#gF7E2F11D9500E34CEB199CAED225F368" x="37.1" y="0" fill="#1a1a18" fill-rule="nonzero"/><use xlink:href="#g7A87A3C544B096F08C4452AB1CFF4728" x="41.55" y="0" fill="#1a1a18" fill-rule="nonzero"/></g><g transform="matrix(1 0 0 -1 144.030069116 6.83)"><use xlink:href="#gCFBB303EE9A4664734E04AA0DDE5EE93" x="0" y="0" fill="#1a1a18" fill-rule="nonzero"/></g><g transform="matrix(1 0 0 -1 154.032291339 6.83)"><use xlink:href="#gDCB33243FA7B758E3BCD0C7DC09CD368" x="0" y="0" fill="#1a1a18" fill-rule="nonzero"/></g><g transform="matrix(1 0 0 -1 159.032291339 6.83)"><use xlink:href="#gBA8E9B5B9CFB1B01CAA665CFE5F7BE8E" x="0" y="0" fill="#1a1a18" fill-rule="nonzero"/></g></g></g><defs><symbol id="g3D9A67B9902CBFFCF1182D85B33DBA41" overflow="visible"><path d="M 0 0m 1.241 3.6465c -0.3655 0 -0.663 0.0085 -0.9435 0.017c -0.051 -0.051 -0.051 -0.2295 0 -0.2805c 0.5185 -0.034 0.612 -0.068 0.612 -0.7735v -1.5725c 0 -0.7055 -0.0935 -0.731 -0.612 -0.7735c -0.051 -0.051 -0.051 -0.2295 0 -0.2805c 0.2805 0.0085 0.578 0.017 0.952 0.017c 0.3145 0 0.595 -0.017 1.1645 -0.017c 0.731 0 1.2835 0.204 1.2835 1.0455c 0 0.476 -0.2975 0.8075 -0.816 0.901v 0.0255c 0.391 0.0765 0.6885 0.3485 0.6885 0.8585c 0 0.595 -0.3655 0.85 -1.394 0.85c -0.3485 0 -0.5695 -0.017 -0.935 -0.017Z m 0.34 -1.802h 0.646c 0.5185 0 0.7395 -0.34 0.7395 -0.85c 0 -0.5695 -0.323 -0.731 -0.782 -0.731c -0.442 0 -0.6035 0.0765 -0.6035 0.4675Z m 0 0.2465v 0.986c 0 0.255 0.1955 0.306 0.6035 0.306c 0.442 0 0.7055 -0.119 0.7055 -0.629c 0 -0.34 -0.221 -0.663 -0.748 -0.663Z "/></symbol><symbol id="g5D2E58E4CDB4D7E6C81847885E22D756" overflow="visible"><path d="M 0 0m 3.281 0.7905c -0.3145 -0.323 -0.561 -0.459 -1.054 -0.459c -0.306 0 -0.663 0.1785 -0.9265 0.612c -0.17 0.2805 -0.272 0.6715 -0.272 1.1645l 2.261 -0.017c 0.102 0 0.1615 0.051 0.1615 0.1445c 0 0.714 -0.255 1.479 -1.4365 1.479c -0.7395 0 -1.7 -0.7055 -1.7 -1.9975c 0 -0.476 0.119 -0.935 0.3995 -1.258c 0.289 -0.34 0.6885 -0.544 1.3005 -0.544c 0.646 0 1.105 0.2975 1.445 0.7395c -0.0255 0.085 -0.0765 0.1275 -0.1785 0.136Z m -2.227 1.6065c 0.1615 0.9605 0.7565 1.037 0.9605 1.037c 0.323 0 0.7055 -0.1785 0.7055 -0.8925c 0 -0.0765 -0.034 -0.119 -0.1275 -0.119Z "/></symbol><symbol id="g3EDD64AE7B5A40E8FE9DD75D51E8EE8A" overflow="visible"><path d="M 0 0m 1.547 1.037c 0 -0.7055 -0.0935 -0.748 -0.612 -0.7735c -0.051 -0.051 -0.051 -0.2295 0 -0.2805c 0.3315 0.0085 0.6715 0.017 0.952 0.017c 0.289 0 0.6205 -0.0085 0.9435 -0.017c 0.051 0.051 0.051 0.2295 0 0.2805c -0.5185 0.0255 -0.612 0.068 -0.612 0.7735v 2.295h 0.1445c 0.6885 0 0.8245 -0.238 0.969 -0.9265c 0.1105 0 0.221 0.034 0.221 0.034c -0.051 0.391 -0.085 0.765 -0.0935 1.258c -0.1955 -0.017 -0.833 -0.051 -1.258 -0.051h -0.6375c -0.425 0 -0.901 0.0255 -1.241 0.051c -0.0085 -0.493 -0.0425 -0.867 -0.102 -1.258c 0 0 0.119 -0.034 0.2295 -0.034c 0.1445 0.6885 0.272 0.9265 0.969 0.9265h 0.1275Z "/></symbol><symbol id="g430571653545A60A3EF6386D136EADA3" overflow="visible"><path d="M 0 0m 1.326 3.128c -0.0085 0.255 -0.0255 0.476 -0.068 0.561c -0.017 0.0425 -0.034 0.068 -0.102 0.068c -0.238 -0.0935 -0.459 -0.17 -1.0455 -0.2465c -0.017 -0.051 0 -0.187 0.017 -0.238c 0.459 -0.0425 0.5525 -0.085 0.5525 -0.578v -3.6295c 0 -0.7055 -0.0935 -0.748 -0.612 -0.7735c -0.051 -0.051 -0.051 -0.2295 0 -0.2805c 0.2975 0.0085 0.612 0.017 0.952 0.017c 0.34 0 0.748 -0.0085 1.0285 -0.017c 0.051 0.051 0.051 0.2295 0 0.2805c -0.6035 0.034 -0.697 0.068 -0.697 0.7735v 0.918c 0 0.1105 0.034 0.102 0.119 0.068c 0.2125 -0.085 0.4675 -0.136 0.7395 -0.136c 0.476 0 0.901 0.1445 1.2495 0.476c 0.3995 0.391 0.629 0.918 0.629 1.6065c 0 0.901 -0.6375 1.734 -1.5045 1.734c -0.391 0 -0.8245 -0.255 -1.1645 -0.6375c -0.051 -0.051 -0.085 -0.051 -0.0935 0.034Z m 0.1615 -0.3145c 0.221 0.272 0.612 0.527 0.8585 0.527c 0.544 0 1.0115 -0.612 1.0115 -1.5725c 0 -0.697 -0.2465 -1.564 -1.1985 -1.564c -0.153 0 -0.4505 0.0425 -0.6035 0.1785c -0.17 0.153 -0.204 0.204 -0.204 0.51v 1.547c 0 0.1785 0.034 0.255 0.136 0.374Z "/></symbol><symbol id="gE34E15A46C94CBC2E6ABE8844A1DDB21" overflow="visible"><path d="M 0 0m 0.3485 1.7425c 0 -0.867 0.578 -1.8275 1.785 -1.8275c 0.544 0 0.9605 0.1955 1.2495 0.476c 0.3825 0.374 0.5525 0.9095 0.5525 1.428c 0 0.884 -0.4845 1.9125 -1.785 1.9125c -0.561 0 -1.02 -0.2295 -1.3345 -0.595c -0.306 -0.3655 -0.4675 -0.8585 -0.4675 -1.394Z m 1.6745 1.6915c 0.731 0 1.1815 -0.663 1.1815 -1.887c 0 -1.071 -0.5525 -1.3345 -0.952 -1.3345c -0.884 0 -1.173 1.071 -1.173 1.7255c 0 0.7395 0.1785 1.496 0.9435 1.496Z "/></symbol><symbol id="gC8932C6BA7F518DC74E87E2F4A0224EB" overflow="visible"><path d="M 0 0m 4.0715 2.6095c 0 0.7055 0.0935 0.731 0.612 0.7735c 0.051 0.051 0.051 0.2295 0 0.2805c -0.2975 -0.017 -0.6715 -0.017 -0.952 -0.017c -0.238 0 -0.578 0.0085 -0.9095 0.017c -0.051 -0.051 -0.051 -0.2295 0 -0.2805c 0.5185 -0.034 0.578 -0.068 0.578 -0.7735v -0.5525h -1.819v 0.5525c 0 0.7055 0.0595 0.731 0.578 0.7735c 0.051 0.051 0.051 0.2295 0 0.2805c -0.323 -0.0085 -0.646 -0.017 -0.918 -0.017c -0.255 0 -0.6035 0.0085 -0.9435 0.017c -0.051 -0.051 -0.051 -0.2295 0 -0.2805c 0.5185 -0.034 0.612 -0.068 0.612 -0.7735v -1.5725c 0 -0.7055 -0.0935 -0.731 -0.612 -0.7735c -0.051 -0.051 -0.051 -0.2295 0 -0.2805c 0.34 0.0085 0.68 0.017 0.952 0.017c 0.272 0 0.6035 -0.0085 0.9095 -0.017c 0.051 0.051 0.051 0.2295 0 0.2805c -0.5185 0.034 -0.578 0.068 -0.578 0.7735v 0.7395h 1.819v -0.7395c 0 -0.7055 -0.0595 -0.731 -0.578 -0.7735c -0.051 -0.051 -0.051 -0.2295 0 -0.2805c 0.306 0.0085 0.6205 0.017 0.918 0.017c 0.255 0 0.612 -0.0085 0.9435 -0.017c 0.051 0.051 0.051 0.2295 0 0.2805c -0.5185 0.034 -0.612 0.068 -0.612 0.7735Z "/></symbol><symbol id="gA501B866130BB2CA150759E9628F05FB" overflow="visible"><path d="M 0 0m 3.281 0c 0 0 0.663 -0.0085 0.833 -0.017c 0.051 0.051 0.051 0.2295 0 0.2805c -0.3315 0.017 -0.3995 0.085 -0.544 0.357l -0.3825 0.7225c -0.2125 0.3995 -0.51 0.6035 -0.9945 0.6035v 0.0255c 0.3315 0.0935 0.476 0.391 0.6035 0.731c 0.102 0.2635 0.204 0.425 0.3825 0.425c 0.0765 0 0.1445 -0.0255 0.1955 -0.0595c 0.051 -0.034 0.1445 -0.0595 0.255 -0.0595c 0.187 0 0.34 0.1615 0.34 0.3315c 0 0.187 -0.204 0.3825 -0.4845 0.3825c -0.493 0 -0.7225 -0.459 -0.884 -0.8585c -0.187 -0.4675 -0.4165 -0.7905 -1.02 -0.7905v 0.5355c 0 0.7055 0.0935 0.731 0.527 0.7735c 0.051 0.051 0.051 0.2295 0 0.2805c -0.204 -0.0085 -0.527 -0.017 -0.867 -0.017c -0.3655 0 -0.663 0.0085 -0.9435 0.017c -0.051 -0.051 -0.051 -0.2295 0 -0.2805c 0.5185 -0.034 0.612 -0.068 0.612 -0.7735v -1.5725c 0 -0.7055 -0.0935 -0.731 -0.612 -0.7735c -0.051 -0.051 -0.051 -0.2295 0 -0.2805c 0.2805 0.0085 0.578 0.017 0.952 0.017c 0.3315 0 0.6715 -0.0085 0.8585 -0.017c 0.051 0.051 0.051 0.2295 0 0.2805c -0.4335 0.034 -0.527 0.068 -0.527 0.7735v 0.7395c 0.578 -0.034 0.731 -0.2635 0.884 -0.578l 0.3655 -0.765c 0.1105 -0.2295 0.2805 -0.425 0.4505 -0.4335Z "/></symbol><symbol id="gE7AE90A8EDDEF3DDB67EE78D36D80337" overflow="visible"><path d="M 0 0m 1.683 0.5355c -0.0255 0 -0.0595 0.017 -0.0595 0.102v 1.938c 0 0.7055 0.1785 0.782 0.612 0.8075c 0.051 0.051 0.051 0.2295 0 0.2805c -0.1955 -0.0085 -0.68 -0.017 -0.9945 -0.017c -0.2805 0 -0.6205 0.0085 -0.9435 0.017c -0.051 -0.051 -0.051 -0.2295 0 -0.2805c 0.5185 -0.0255 0.6545 -0.102 0.6545 -0.8075v -1.5045c 0 -0.7055 -0.136 -0.782 -0.6545 -0.8075c -0.051 -0.051 -0.051 -0.2295 0 -0.2805c 0.3315 0.0085 0.6715 0.017 0.9435 0.017c 0.1955 0 0.425 -0.0085 0.5185 -0.017c 0.0425 0.119 0.119 0.289 0.2125 0.459l 1.326 2.6605c 0.0255 0 0.0595 -0.017 0.0595 -0.102v -1.9295c 0 -0.7055 -0.1785 -0.782 -0.612 -0.8075c -0.051 -0.051 -0.051 -0.2295 0 -0.2805c 0.1955 0.0085 0.6545 0.017 0.9945 0.017c 0.2635 0 0.612 -0.0085 0.9435 -0.017c 0.051 0.051 0.051 0.2295 0 0.2805c -0.5185 0.0255 -0.6545 0.102 -0.6545 0.8075v 1.5045c 0 0.7055 0.136 0.782 0.6545 0.8075c 0.051 0.051 0.051 0.2295 0 0.2805c -0.34 -0.0085 -0.68 -0.017 -0.9435 -0.017c -0.187 0 -0.425 0.0085 -0.51 0.017c -0.068 -0.153 -0.1445 -0.3315 -0.221 -0.476Z "/></symbol><symbol id="gB4154B742B01C4CB9DD5E5AAD4490D84" overflow="visible"><path d="M 0 0m 1.683 0.5355c -0.0255 0 -0.0595 0.017 -0.0595 0.102v 1.938c 0 0.7055 0.1785 0.782 0.612 0.8075c 0.051 0.051 0.051 0.2295 0 0.2805c -0.1955 -0.0085 -0.68 -0.017 -0.9945 -0.017c -0.2805 0 -0.6205 0.0085 -0.9435 0.017c -0.051 -0.051 -0.051 -0.2295 0 -0.2805c 0.5185 -0.0255 0.6545 -0.102 0.6545 -0.8075v -1.5045c 0 -0.7055 -0.136 -0.782 -0.6545 -0.8075c -0.051 -0.051 -0.051 -0.2295 0 -0.2805c 0.3315 0.0085 0.6715 0.017 0.9435 0.017c 0.1955 0 0.425 -0.0085 0.5185 -0.017c 0.0425 0.119 0.119 0.289 0.2125 0.459l 1.326 2.6605c 0.0255 0 0.0595 -0.017 0.0595 -0.102v -1.9295c 0 -0.7055 -0.1785 -0.782 -0.612 -0.8075c -0.051 -0.051 -0.051 -0.2295 0 -0.2805c 0.1955 0.0085 0.6545 0.017 0.9945 0.017c 0.2635 0 0.612 -0.0085 0.9435 -0.017c 0.051 0.051 0.051 0.2295 0 0.2805c -0.5185 0.0255 -0.6545 0.102 -0.6545 0.8075v 1.5045c 0 0.7055 0.136 0.782 0.6545 0.8075c 0.051 0.051 0.051 0.2295 0 0.2805c -0.34 -0.0085 -0.68 -0.017 -0.9435 -0.017c -0.187 0 -0.425 0.0085 -0.51 0.017c -0.068 -0.153 -0.1445 -0.3315 -0.221 -0.476Z m 1.8275 4.4795c 0 0.1615 -0.119 0.2805 -0.323 0.2805c -0.153 0 -0.2975 -0.119 -0.2975 -0.2635c 0 -0.0255 0 -0.0425 0.0085 -0.0595c 0.0085 -0.0255 0.0085 -0.051 0.0085 -0.0765c 0 -0.187 -0.1785 -0.357 -0.425 -0.357c -0.255 0 -0.425 0.1785 -0.425 0.3655c 0 0.017 0 0.0425 0.0085 0.068c 0.0085 0.0255 0.0085 0.0425 0.0085 0.068c 0 0.136 -0.102 0.255 -0.289 0.255c -0.1955 0 -0.3315 -0.1275 -0.3315 -0.2805c 0 -0.459 0.4675 -0.7395 1.02 -0.7395c 0.544 0 1.037 0.272 1.037 0.7395Z "/></symbol><symbol id="g556FAAD5131979FA8BD459FE142B06EF" overflow="visible"><path d="M 0 0m 3.6465 5.372l -0.5015 -2.0655c -0.1785 0.3145 -0.425 0.476 -0.7565 0.476c -0.5525 0 -1.037 -0.2805 -1.462 -0.85c -0.391 -0.527 -0.5865 -1.0795 -0.5865 -1.649c 0 -0.748 0.4335 -1.377 1.1475 -1.377c 0.3655 0 0.7225 0.1955 1.0625 0.595c 0.0935 -0.323 0.3825 -0.595 0.782 -0.595c 0.5865 0 0.7735 0.697 0.901 1.326c 0 0.0765 -0.0425 0.119 -0.1275 0.119c -0.0765 0 -0.1275 -0.0595 -0.153 -0.1785c -0.17 -0.6715 -0.374 -1.0115 -0.6035 -1.0115c -0.1445 0 -0.221 0.119 -0.221 0.3485c 0 0.1275 0.017 0.2635 0.051 0.3995l 1.207 4.862v 0.034c -0.0255 0.0595 -0.0765 0.0935 -0.1445 0.0935c -0.1955 0 -0.5525 -0.034 -1.0625 -0.0935c -0.0935 -0.0085 -0.1445 -0.0765 -0.1445 -0.1955c 0 -0.085 0.0765 -0.1275 0.2295 -0.1275c 0.1615 0 0.3825 0.0085 0.3825 -0.1105Z m -0.748 -2.176c 0.085 -0.1785 0.1275 -0.2975 0.1275 -0.374c -0.0085 -0.034 -0.017 -0.0765 -0.0255 -0.136l -0.4165 -1.649c -0.0255 -0.0935 -0.085 -0.1955 -0.1615 -0.2975c -0.3145 -0.3825 -0.6205 -0.578 -0.918 -0.578c -0.3315 0 -0.5015 0.255 -0.5015 0.7565c 0 0.204 0.051 0.51 0.153 0.918c 0.1785 0.7225 0.4335 1.2155 0.748 1.479c 0.17 0.1445 0.3315 0.2125 0.493 0.2125c 0.2295 0 0.3995 -0.1105 0.5015 -0.3315Z "/></symbol><symbol id="gDFD38EC9906BA626C5B7E69A103C103" overflow="visible"><path d="M 0 0m 0.272 2.056c 0 -1.512 0.872 -2.136 1.648 -2.136c 1.096 0 1.728 0.816 1.728 1.824c 0 0.864 -0.48 1.768 -1.608 1.768c -0.76 0 -1.224 -0.448 -1.4 -0.832l -0.016 0.016c 0.032 0.416 0.16 0.928 0.28 1.136c 0.256 0.44 0.56 0.464 1.296 0.544c 0.72 0.08 1.232 0.312 1.304 1.208c -0.056 0.024 -0.112 0.032 -0.176 0c -0.064 -0.384 -0.488 -0.488 -1.16 -0.592c -0.648 -0.104 -1.192 -0.328 -1.528 -0.96c -0.288 -0.544 -0.368 -1.216 -0.368 -1.976Z m 0.688 -0.208c 0 0.448 0.16 1.384 0.992 1.384c 0.624 0 1.008 -0.72 1.008 -1.68c 0 -1.008 -0.464 -1.352 -0.896 -1.352c -0.584 0 -1.104 0.76 -1.104 1.648Z "/></symbol><symbol id="g5D01DA3AB390CB78D7E54204B7DC3F87" overflow="visible"><path d="M 0 0m 0.328 1.64c 0 -0.816 0.544 -1.72 1.68 -1.72c 0.512 0 0.904 0.184 1.176 0.448c 0.36 0.352 0.52 0.856 0.52 1.344c 0 0.832 -0.456 1.8 -1.68 1.8c -0.528 0 -0.96 -0.216 -1.256 -0.56c -0.288 -0.344 -0.44 -0.808 -0.44 -1.312Z m 1.576 1.592c 0.688 0 1.112 -0.624 1.112 -1.776c 0 -1.008 -0.52 -1.256 -0.896 -1.256c -0.832 0 -1.104 1.008 -1.104 1.624c 0 0.696 0.168 1.408 0.888 1.408Z "/></symbol><symbol id="gFF63DA2595F1651AF0C535BF803D9AEC" overflow="visible"><path d="M 0 0m 3.344 0.976v 1.48c 0 0.656 0.104 0.696 0.544 0.728c 0.048 0.048 0.048 0.216 0 0.264c -0.24 -0.008 -0.544 -0.016 -0.864 -0.016h -1.512c -0.264 0 -0.576 0.008 -0.816 0.016c -0.048 -0.048 -0.048 -0.216 0 -0.264c 0.568 -0.04 0.648 -0.088 0.648 -0.952c 0 -0.84 -0.064 -1.28 -0.176 -1.608c -0.104 -0.288 -0.24 -0.392 -0.376 -0.392c -0.104 0 -0.136 0.064 -0.152 0.168c -0.024 0.152 -0.072 0.304 -0.296 0.304c -0.2 0 -0.312 -0.16 -0.312 -0.336c 0 -0.248 0.224 -0.464 0.592 -0.464c 0.408 0 0.632 0.208 0.816 0.64c 0.16 0.384 0.208 1.2 0.208 1.744c 0 0.624 0.024 0.832 0.344 0.832h 0.36c 0.304 0 0.36 -0.192 0.36 -0.464v -1.68c 0 -0.656 -0.08 -0.696 -0.496 -0.728c -0.04 -0.048 -0.04 -0.216 0 -0.264c 0.2 0.008 0.496 0.016 0.816 0.016c 0.32 0 0.68 -0.008 0.904 -0.016c 0.04 0.048 0.04 0.216 0 0.264c -0.52 0.032 -0.592 0.072 -0.592 0.728Z "/></symbol><symbol id="gC175399424EF2D6961EAC52DB2845054" overflow="visible"><path d="M 0 0m 1.488 2.448c 0 0.672 0.088 0.696 0.576 0.736c 0.048 0.048 0.048 0.216 0 0.264c -0.272 -0.008 -0.544 -0.016 -0.896 -0.016c -0.344 0 -0.624 0.008 -0.888 0.016c -0.048 -0.048 -0.048 -0.216 0 -0.264c 0.488 -0.032 0.576 -0.064 0.576 -0.728v -1.48c 0 -0.664 -0.088 -0.688 -0.576 -0.728c -0.048 -0.048 -0.048 -0.216 0 -0.264c 0.264 0.008 0.544 0.016 0.896 0.016c 0.328 0 0.504 -0.016 0.832 -0.016c 0.984 0 1.52 0.248 1.52 1.104c 0 0.752 -0.656 0.968 -1.464 0.968h -0.576Z m 1.352 -1.44c 0 -0.656 -0.4 -0.76 -0.824 -0.76c -0.392 0 -0.528 0.08 -0.528 0.36v 1.184h 0.568c 0.6 0 0.784 -0.36 0.784 -0.784Z "/></symbol><symbol id="g7FEC4917393F0C2A72D87F7F150D50F" overflow="visible"><path d="M 0 0m 5.968 0.976v 1.48c 0 0.656 0.104 0.696 0.544 0.728c 0.048 0.048 0.048 0.216 0 0.264c -0.24 -0.008 -0.544 -0.016 -0.864 -0.016c -0.32 0 -0.56 0.008 -0.8 0.016c -0.048 -0.048 -0.048 -0.216 0 -0.264c 0.408 -0.04 0.488 -0.072 0.488 -0.728v -1.736c 0 -0.248 -0.024 -0.408 -0.336 -0.408h -0.944c -0.24 0 -0.344 0.072 -0.344 0.408v 1.736c 0.008 0.656 0.064 0.696 0.496 0.728c 0.04 0.048 0.04 0.216 0 0.264c -0.2 -0.008 -0.496 -0.016 -0.816 -0.016c -0.32 0 -0.584 0.008 -0.784 0.016c -0.04 -0.048 -0.04 -0.216 0 -0.264c 0.4 -0.032 0.48 -0.072 0.472 -0.728v -1.744c 0 -0.296 -0.04 -0.4 -0.336 -0.4h -0.912c -0.296 0 -0.344 0.088 -0.344 0.408v 1.736c 0 0.656 0.08 0.696 0.496 0.728c 0.04 0.048 0.04 0.216 0 0.264c -0.2 -0.008 -0.496 -0.016 -0.816 -0.016c -0.32 0 -0.6 0.008 -0.824 0.016c -0.04 -0.048 -0.04 -0.216 0 -0.264c 0.44 -0.032 0.512 -0.072 0.512 -0.728v -1.48c 0 -0.656 -0.104 -0.696 -0.544 -0.728c -0.048 -0.048 -0.048 -0.216 0 -0.264c 0.24 0.008 0.544 0.016 0.864 0.016h 4.472c 0.32 0 0.624 -0.008 0.864 -0.016c 0.048 0.048 0.048 0.216 0 0.264c -0.44 0.032 -0.544 0.072 -0.544 0.728Z "/></symbol><symbol id="g9E0D72929382BA054F8819A862FD1C38" overflow="visible"><path d="M 0 0m 1.584 0.504c -0.024 0 -0.056 0.016 -0.056 0.096v 1.824c 0 0.664 0.168 0.736 0.576 0.76c 0.048 0.048 0.048 0.216 0 0.264c -0.184 -0.008 -0.64 -0.016 -0.936 -0.016c -0.264 0 -0.584 0.008 -0.888 0.016c -0.048 -0.048 -0.048 -0.216 0 -0.264c 0.488 -0.024 0.616 -0.096 0.616 -0.76v -1.416c 0 -0.664 -0.128 -0.736 -0.616 -0.76c -0.048 -0.048 -0.048 -0.216 0 -0.264c 0.312 0.008 0.632 0.016 0.888 0.016c 0.184 0 0.4 -0.008 0.488 -0.016c 0.04 0.112 0.112 0.272 0.2 0.432l 1.248 2.504c 0.024 0 0.056 -0.016 0.056 -0.096v -1.816c 0 -0.664 -0.168 -0.736 -0.576 -0.76c -0.048 -0.048 -0.048 -0.216 0 -0.264c 0.184 0.008 0.616 0.016 0.936 0.016c 0.248 0 0.576 -0.008 0.888 -0.016c 0.048 0.048 0.048 0.216 0 0.264c -0.488 0.024 -0.616 0.096 -0.616 0.76v 1.416c 0 0.664 0.128 0.736 0.616 0.76c 0.048 0.048 0.048 0.216 0 0.264c -0.32 -0.008 -0.64 -0.016 -0.888 -0.016c -0.176 0 -0.4 0.008 -0.48 0.016c -0.064 -0.144 -0.136 -0.312 -0.208 -0.448Z m 1.72 4.216c 0 0.152 -0.112 0.264 -0.304 0.264c -0.144 0 -0.28 -0.112 -0.28 -0.248c 0 -0.024 0 -0.04 0.008 -0.056c 0.008 -0.024 0.008 -0.048 0.008 -0.072c 0 -0.176 -0.168 -0.336 -0.4 -0.336c -0.24 0 -0.4 0.168 -0.4 0.344c 0 0.016 0 0.04 0.008 0.064c 0.008 0.024 0.008 0.04 0.008 0.064c 0 0.128 -0.096 0.24 -0.272 0.24c -0.184 0 -0.312 -0.12 -0.312 -0.264c 0 -0.432 0.44 -0.696 0.96 -0.696c 0.512 0 0.976 0.256 0.976 0.696Z "/></symbol><symbol id="gF859B786D36C3A3EB6E93A57BC4F802" overflow="visible"><path d="M 0 0m 3.496 3.432h -2.272c -0.32 0 -0.624 0.008 -0.864 0.016c -0.048 -0.048 -0.048 -0.216 0 -0.264c 0.44 -0.032 0.544 -0.072 0.544 -0.728v -1.48c 0 -0.656 -0.104 -0.696 -0.624 -0.728c -0.048 -0.048 -0.048 -0.216 0 -0.264c 0.24 0.008 0.624 0.016 0.944 0.016c 0.32 0 0.56 -0.008 0.8 -0.016c 0.048 0.048 0.048 0.216 0 0.264c -0.408 0.04 -0.488 0.072 -0.488 0.728v 1.736c 0 0.248 0.024 0.408 0.336 0.408h 0.968c 0.296 0 0.344 -0.088 0.344 -0.408v -1.736c 0 -0.656 -0.08 -0.696 -0.496 -0.728c -0.04 -0.048 -0.04 -0.216 0 -0.264c 0.2 0.008 0.496 0.016 0.816 0.016c 0.32 0 0.68 -0.008 0.904 -0.016c 0.04 0.048 0.04 0.216 0 0.264c -0.52 0.032 -0.592 0.072 -0.592 0.728v 1.48c 0 0.656 0.104 0.696 0.544 0.728c 0.048 0.048 0.048 0.216 0 0.264c -0.24 -0.008 -0.544 -0.016 -0.864 -0.016Z "/></symbol><symbol id="g46DFAA35BC521B4F2378CE697B4B163E" overflow="visible"><path d="M 0 0m 1.248 2.944c -0.008 0.24 -0.024 0.448 -0.064 0.528c -0.016 0.04 -0.032 0.064 -0.096 0.064c -0.224 -0.088 -0.432 -0.16 -0.984 -0.232c -0.016 -0.048 0 -0.176 0.016 -0.224c 0.432 -0.04 0.52 -0.08 0.52 -0.544v -3.416c 0 -0.664 -0.088 -0.704 -0.576 -0.728c -0.048 -0.048 -0.048 -0.216 0 -0.264c 0.28 0.008 0.576 0.016 0.896 0.016c 0.32 0 0.704 -0.008 0.968 -0.016c 0.048 0.048 0.048 0.216 0 0.264c -0.568 0.032 -0.656 0.064 -0.656 0.728v 0.864c 0 0.104 0.032 0.096 0.112 0.064c 0.2 -0.08 0.44 -0.128 0.696 -0.128c 0.448 0 0.848 0.136 1.176 0.448c 0.376 0.368 0.592 0.864 0.592 1.512c 0 0.848 -0.6 1.632 -1.416 1.632c -0.368 0 -0.776 -0.24 -1.096 -0.6c -0.048 -0.048 -0.08 -0.048 -0.088 0.032Z m 0.152 -0.296c 0.208 0.256 0.576 0.496 0.808 0.496c 0.512 0 0.952 -0.576 0.952 -1.48c 0 -0.656 -0.232 -1.472 -1.128 -1.472c -0.144 0 -0.424 0.04 -0.568 0.168c -0.16 0.144 -0.192 0.192 -0.192 0.48v 1.456c 0 0.168 0.032 0.24 0.128 0.352Z "/></symbol><symbol id="g3478CFDC408E67C5C7551BD6A62D2425" overflow="visible"><path d="M 0 0m 1.488 2.456c 0 0.456 0.056 0.664 0.336 0.664h 0.176c 0.656 0 0.848 -0.456 0.96 -0.92c 0.088 -0.008 0.168 0 0.232 0.032c -0.032 0.424 -0.056 0.776 -0.104 1.2l -0.016 0.016c 0 0 -0.64 -0.016 -0.896 -0.016h -1.008c -0.344 0 -0.624 0.008 -0.888 0.016c -0.048 -0.048 -0.048 -0.216 0 -0.264c 0.488 -0.032 0.576 -0.064 0.576 -0.728v -1.48c 0 -0.664 -0.088 -0.688 -0.576 -0.728c -0.048 -0.048 -0.048 -0.216 0 -0.264c 0.264 0.008 0.544 0.016 0.896 0.016c 0.344 0 0.632 -0.008 0.888 -0.016c 0.048 0.048 0.048 0.216 0 0.264c -0.488 0.032 -0.576 0.064 -0.576 0.728Z "/></symbol><symbol id="gDF0740817C60D01D4C0A2F901DD857A7" overflow="visible"><path d="M 0 0m 1.584 0.504c -0.024 0 -0.056 0.016 -0.056 0.096v 1.824c 0 0.664 0.168 0.736 0.576 0.76c 0.048 0.048 0.048 0.216 0 0.264c -0.184 -0.008 -0.64 -0.016 -0.936 -0.016c -0.264 0 -0.584 0.008 -0.888 0.016c -0.048 -0.048 -0.048 -0.216 0 -0.264c 0.488 -0.024 0.616 -0.096 0.616 -0.76v -1.416c 0 -0.664 -0.128 -0.736 -0.616 -0.76c -0.048 -0.048 -0.048 -0.216 0 -0.264c 0.312 0.008 0.632 0.016 0.888 0.016c 0.184 0 0.4 -0.008 0.488 -0.016c 0.04 0.112 0.112 0.272 0.2 0.432l 1.248 2.504c 0.024 0 0.056 -0.016 0.056 -0.096v -1.816c 0 -0.664 -0.168 -0.736 -0.576 -0.76c -0.048 -0.048 -0.048 -0.216 0 -0.264c 0.184 0.008 0.616 0.016 0.936 0.016c 0.248 0 0.576 -0.008 0.888 -0.016c 0.048 0.048 0.048 0.216 0 0.264c -0.488 0.024 -0.616 0.096 -0.616 0.76v 1.416c 0 0.664 0.128 0.736 0.616 0.76c 0.048 0.048 0.048 0.216 0 0.264c -0.32 -0.008 -0.64 -0.016 -0.888 -0.016c -0.176 0 -0.4 0.008 -0.48 0.016c -0.064 -0.144 -0.136 -0.312 -0.208 -0.448Z "/></symbol><symbol id="g2B80858EC6253423DD91E95803C749B9" overflow="visible"><path d="M 0 0m 3.616 5.312c 0 0.12 -0.064 0.2 -0.192 0.232c -0.408 0.104 -0.712 0.152 -0.904 0.152c -0.568 0 -0.912 -0.32 -0.912 -0.848c 0 -0.312 0.152 -0.76 0.464 -1.344c -0.824 -0.208 -1.464 -0.936 -1.664 -1.744c -0.04 -0.168 -0.064 -0.336 -0.064 -0.488c 0 -0.304 0.072 -0.576 0.224 -0.808c 0.24 -0.368 0.592 -0.552 1.048 -0.552c 0.336 0 0.64 0.152 0.92 0.464c 0.44 0.504 0.664 1.144 0.664 1.904c 0 0.488 -0.16 0.936 -0.488 1.344l -0.056 0.072c -0.52 0.672 -0.776 1.12 -0.776 1.344c 0 0.048 0.008 0.088 0.032 0.12c 0.08 0.144 0.208 0.216 0.392 0.208c 0.136 0 0.304 -0.064 0.504 -0.184c 0.248 -0.152 0.4 -0.224 0.456 -0.224c 0.176 0 0.352 0.144 0.352 0.352Z m -2.728 -4.264c 0 0.456 0.112 0.896 0.344 1.328c 0.248 0.48 0.568 0.784 0.96 0.904c 0.176 -0.304 0.296 -0.616 0.368 -0.928c 0.024 -0.12 0.032 -0.256 0.032 -0.392c 0 -0.224 -0.024 -0.432 -0.072 -0.632c -0.2 -0.784 -0.504 -1.176 -0.896 -1.176c -0.456 0 -0.736 0.376 -0.736 0.896Z "/></symbol><symbol id="gB3F6F741CFF64E2F87AE274E4C795DAE" overflow="visible"><path d="M 0 0m 3.553 1.037v 1.5725c 0 0.697 0.1105 0.7395 0.578 0.7735c 0.051 0.051 0.051 0.2295 0 0.2805c -0.255 -0.0085 -0.578 -0.017 -0.918 -0.017h -1.6065c -0.2805 0 -0.612 0.0085 -0.867 0.017c -0.051 -0.051 -0.051 -0.2295 0 -0.2805c 0.6035 -0.0425 0.6885 -0.0935 0.6885 -1.0115c 0 -0.8925 -0.068 -1.36 -0.187 -1.7085c -0.1105 -0.306 -0.255 -0.4165 -0.3995 -0.4165c -0.1105 0 -0.1445 0.068 -0.1615 0.1785c -0.0255 0.1615 -0.0765 0.323 -0.3145 0.323c -0.2125 0 -0.3315 -0.17 -0.3315 -0.357c 0 -0.2635 0.238 -0.493 0.629 -0.493c 0.4335 0 0.6715 0.221 0.867 0.68c 0.17 0.408 0.221 1.275 0.221 1.853c 0 0.663 0.0255 0.884 0.3655 0.884h 0.3825c 0.323 0 0.3825 -0.204 0.3825 -0.493v -1.785c 0 -0.697 -0.085 -0.7395 -0.527 -0.7735c -0.0425 -0.051 -0.0425 -0.2295 0 -0.2805c 0.2125 0.0085 0.527 0.017 0.867 0.017c 0.34 0 0.7225 -0.0085 0.9605 -0.017c 0.0425 0.051 0.0425 0.2295 0 0.2805c -0.5525 0.034 -0.629 0.0765 -0.629 0.7735Z "/></symbol><symbol id="g1EEFC323E4FEBE7654D5CC1583F61AF4" overflow="visible"><path d="M 0 0m 3.383 0.7735c -0.034 0.0765 -0.102 0.1105 -0.1785 0.119c -0.289 -0.374 -0.6545 -0.561 -1.02 -0.561c -0.6205 0 -1.139 0.629 -1.139 1.6235c 0 0.935 0.408 1.496 0.969 1.496c 0.5015 0 0.5695 -0.2975 0.6035 -0.595c 0.0255 -0.2295 0.1445 -0.306 0.323 -0.306c 0.1785 0 0.4165 0.1105 0.4165 0.374c 0 0.4675 -0.4845 0.8075 -1.3005 0.8075c -0.8415 0 -1.7425 -0.7565 -1.7425 -1.9635c 0 -1.0965 0.612 -1.853 1.683 -1.853c 0.51 0 0.9605 0.1615 1.3855 0.8585Z "/></symbol><symbol id="g263F4FD32CCD3C47111457350A4C543D" overflow="visible"><path d="M 0 0m 1.581 2.601c 0 0.714 0.0935 0.7395 0.612 0.782c 0.051 0.051 0.051 0.2295 0 0.2805c -0.289 -0.0085 -0.578 -0.017 -0.952 -0.017c -0.3655 0 -0.663 0.0085 -0.9435 0.017c -0.051 -0.051 -0.051 -0.2295 0 -0.2805c 0.5185 -0.034 0.612 -0.068 0.612 -0.7735v -1.5725c 0 -0.7055 -0.0935 -0.731 -0.612 -0.7735c -0.051 -0.051 -0.051 -0.2295 0 -0.2805c 0.2805 0.0085 0.578 0.017 0.952 0.017c 0.3485 0 0.5355 -0.017 0.884 -0.017c 1.0455 0 1.615 0.2635 1.615 1.173c 0 0.799 -0.697 1.0285 -1.5555 1.0285h -0.612Z m 3.6635 0.0085c 0 0.7055 0.0935 0.731 0.612 0.7735c 0.051 0.051 0.051 0.2295 0 0.2805c -0.289 -0.0085 -0.578 -0.017 -0.952 -0.017c -0.3655 0 -0.663 0.0085 -0.9435 0.017c -0.051 -0.051 -0.051 -0.2295 0 -0.2805c 0.5185 -0.034 0.612 -0.068 0.612 -0.7735v -1.5725c 0 -0.7055 -0.0935 -0.731 -0.612 -0.7735c -0.051 -0.051 -0.051 -0.2295 0 -0.2805c 0.2805 0.0085 0.578 0.017 0.952 0.017c 0.3655 0 0.6715 -0.0085 0.9435 -0.017c 0.051 0.051 0.051 0.2295 0 0.2805c -0.5185 0.034 -0.612 0.068 -0.612 0.7735Z m -2.227 -1.5385c 0 -0.697 -0.425 -0.8075 -0.8755 -0.8075c -0.4165 0 -0.561 0.085 -0.561 0.3825v 1.258h 0.6035c 0.6375 0 0.833 -0.3825 0.833 -0.833Z "/></symbol><symbol id="g93CDC01680B3E2FB50DA8122ECFF4EE7" overflow="visible"><path d="M 0 0m 2.0145 5.661c -0.4335 0 -0.799 -0.153 -1.1135 -0.459c -0.3145 -0.306 -0.476 -0.663 -0.476 -1.0965c 0 -0.289 0.2125 -0.5015 0.476 -0.5015c 0.255 0 0.4675 0.221 0.4675 0.476c 0 0.2805 -0.204 0.476 -0.476 0.476c -0.0255 0 -0.0425 0 -0.0595 -0.0085c 0.1615 0.4165 0.5355 0.782 1.071 0.782c 0.697 0 1.088 -0.6035 1.088 -1.3345c 0 -0.5695 -0.289 -1.1815 -0.867 -1.8275l -1.598 -1.802c -0.1105 -0.1275 -0.102 -0.119 -0.102 -0.3655h 3.1535l 0.2465 1.53h -0.2805c -0.068 -0.4335 -0.1275 -0.68 -0.1785 -0.7565c -0.0425 -0.0425 -0.2975 -0.0595 -0.765 -0.0595h -1.4195l 0.8245 0.8075c 0.578 0.544 1.309 1.1305 1.5555 1.581c 0.17 0.2975 0.255 0.595 0.255 0.8925c 0 1.003 -0.782 1.666 -1.802 1.666Z "/></symbol><symbol id="gE9BB349F7E32C39203BC6B218DF12838" overflow="visible"><path d="M 0 0m 1.168 3.432c -0.344 0 -0.624 0.008 -0.888 0.016c -0.048 -0.048 -0.048 -0.216 0 -0.264c 0.488 -0.032 0.576 -0.064 0.576 -0.728v -1.48c 0 -0.664 -0.088 -0.688 -0.576 -0.728c -0.048 -0.048 -0.048 -0.216 0 -0.264c 0.264 0.008 0.544 0.016 0.896 0.016c 0.296 0 0.56 -0.016 1.096 -0.016c 0.688 0 1.208 0.192 1.208 0.984c 0 0.448 -0.28 0.76 -0.768 0.848v 0.024c 0.368 0.072 0.648 0.328 0.648 0.808c 0 0.56 -0.344 0.8 -1.312 0.8c -0.328 0 -0.536 -0.016 -0.88 -0.016Z m 0.32 -1.696h 0.608c 0.488 0 0.696 -0.32 0.696 -0.8c 0 -0.536 -0.304 -0.688 -0.736 -0.688c -0.416 0 -0.568 0.072 -0.568 0.44Z m 0 0.232v 0.928c 0 0.24 0.184 0.288 0.568 0.288c 0.416 0 0.664 -0.112 0.664 -0.592c 0 -0.32 -0.208 -0.624 -0.704 -0.624Z "/></symbol><symbol id="g8C50DFC0B8272CD73341C65811BD0E92" overflow="visible"><path d="M 0 0m 2.304 0.976v 2.776c 0 0.48 0.008 0.968 0.024 1.072c 0 0.04 -0.016 0.04 -0.048 0.04c -0.44 -0.272 -0.864 -0.472 -1.568 -0.8c 0.016 -0.088 0.048 -0.168 0.12 -0.216c 0.368 0.152 0.544 0.2 0.696 0.2c 0.136 0 0.16 -0.192 0.16 -0.464v -2.608c 0 -0.664 -0.216 -0.704 -0.776 -0.728c -0.048 -0.048 -0.048 -0.216 0 -0.264c 0.392 0.008 0.68 0.016 1.112 0.016c 0.384 0 0.576 -0.008 0.976 -0.016c 0.048 0.048 0.048 0.216 0 0.264c -0.56 0.024 -0.696 0.064 -0.696 0.728Z "/></symbol><symbol id="gAFC6ADE0F4BA5C584B85DD0E8532505B" overflow="visible"><path d="M 0 0m 1.152 2.744c 0.216 0.728 0.728 1.536 1.792 1.936c 0 0.096 -0.032 0.168 -0.096 0.208c -0.808 -0.24 -1.304 -0.576 -1.752 -1.096c -0.496 -0.576 -0.744 -1.304 -0.744 -1.936c 0 -1.624 0.92 -1.944 1.536 -1.944c 1.048 0 1.48 1.016 1.48 1.704c 0 0.688 -0.368 1.304 -1.456 1.304c -0.208 0 -0.52 -0.064 -0.76 -0.176Z m -0.072 -0.288c 0.264 0.176 0.528 0.184 0.664 0.184c 0.784 0 0.96 -0.768 0.96 -1.168c 0 -0.88 -0.336 -1.28 -0.728 -1.28c -0.504 0 -0.96 0.272 -0.96 1.64c 0 0.184 0.016 0.392 0.064 0.624Z "/></symbol><symbol id="gF79D9CC171E1ACC5162F855F1894F43E" overflow="visible"><path d="M 0 0m 2.344 0.384c 0.048 -0.248 0.136 -0.464 0.536 -0.464c 0.304 0 0.592 0.136 0.76 0.296c -0.016 0.096 -0.048 0.168 -0.136 0.216c -0.056 -0.048 -0.192 -0.128 -0.296 -0.128c -0.232 0 -0.24 0.312 -0.24 0.68v 1.176c 0 1.136 -0.624 1.352 -1.208 1.352c -0.656 0 -1.32 -0.432 -1.32 -0.888c 0 -0.192 0.096 -0.288 0.28 -0.288c 0.232 0 0.376 0.168 0.376 0.272c 0 0.056 -0.008 0.112 -0.024 0.144c -0.008 0.024 -0.016 0.072 -0.016 0.16c 0 0.248 0.336 0.336 0.64 0.336c 0.272 0 0.648 -0.136 0.648 -1.04c 0 -0.056 -0.024 -0.088 -0.048 -0.096l -0.688 -0.168c -0.768 -0.192 -1.32 -0.616 -1.32 -1.16c 0 -0.656 0.448 -0.864 1.008 -0.864c 0.28 0 0.52 0.064 0.872 0.336l 0.16 0.128Z m 0 1.48v -1.056c 0 -0.104 -0.048 -0.16 -0.112 -0.208c -0.208 -0.168 -0.48 -0.352 -0.704 -0.352c -0.4 0 -0.576 0.32 -0.576 0.568c 0 0.36 0.168 0.728 0.76 0.88Z "/></symbol><symbol id="gF09D88C2290872E835CD22D560D52A5C" overflow="visible"><path d="M 0 0m 0.344 0.664c 0 -0.176 0.104 -0.304 0.272 -0.432c 0.2 -0.144 0.464 -0.312 1.096 -0.312c 0.8 0 1.424 0.24 1.424 1.032c 0 0.48 -0.24 0.8 -0.808 0.896v 0.024c 0.488 0.184 0.616 0.408 0.616 0.824c 0 0.464 -0.32 0.816 -1.128 0.816c -0.424 0 -0.8 -0.152 -1.232 -0.224l -0.104 -0.952c 0.064 -0.032 0.144 -0.04 0.216 -0.032c 0.152 0.464 0.352 0.928 1.024 0.928c 0.44 0 0.584 -0.264 0.584 -0.584c 0 -0.328 -0.056 -0.712 -0.568 -0.712c -0.152 0 -0.288 0.048 -0.44 0.048c -0.072 0 -0.152 -0.048 -0.152 -0.176c 0 -0.128 0.088 -0.168 0.16 -0.168c 0.152 0 0.24 0.048 0.44 0.048c 0.592 0 0.704 -0.408 0.704 -0.76c 0 -0.472 -0.176 -0.728 -0.744 -0.728c -0.456 0 -0.536 0.168 -0.672 0.456c -0.064 0.144 -0.152 0.256 -0.36 0.256c -0.144 0 -0.328 -0.12 -0.328 -0.248Z "/></symbol><symbol id="gE4F86D8BE8C69EC1EB36B973594724AB" overflow="visible"><path d="M 0 0m 0.936 2.448l -0.048 -1.488c -0.024 -0.672 -0.144 -0.688 -0.608 -0.712c -0.048 -0.048 -0.048 -0.216 0 -0.264c 0.16 0.008 0.56 0.016 0.688 0.016c 0.16 0 0.536 -0.008 0.696 -0.016c 0.048 0.048 0.048 0.216 0 0.264c -0.456 0.032 -0.488 0.112 -0.472 0.712l 0.056 1.96c 0 0.072 0.032 0.072 0.064 0l 1.16 -2.832c 0.032 -0.024 0.064 -0.024 0.088 0l 1.312 2.824c 0.04 0.088 0.08 0.096 0.08 0l -0.008 -1.936c 0 -0.664 -0.056 -0.688 -0.544 -0.728c -0.048 -0.048 -0.048 -0.216 0 -0.264c 0.288 0.008 0.584 0.016 0.864 0.016c 0.24 0 0.584 -0.008 0.896 -0.016c 0.048 0.048 0.048 0.216 0 0.264c -0.488 0.032 -0.576 0.064 -0.576 0.728l -0.016 1.48c -0.008 0.664 0.088 0.688 0.576 0.728c 0.048 0.048 0.048 0.216 0 0.264c -0.28 -0.016 -1.056 -0.016 -1.32 -0.016l -1.064 -2.288l -0.04 -0.08l -0.032 0.08l -0.936 2.288c -0.264 0 -1.112 0 -1.392 0.016c -0.048 -0.048 -0.048 -0.216 0 -0.264c 0.488 -0.04 0.6 -0.072 0.576 -0.736Z "/></symbol><symbol id="g465CA45D0696F5BBCE5E7A11B5E63D98" overflow="visible"><path d="M 0 0m 3.088 0.744c -0.296 -0.304 -0.528 -0.432 -0.992 -0.432c -0.288 0 -0.624 0.168 -0.872 0.576c -0.16 0.264 -0.256 0.632 -0.256 1.096l 2.128 -0.016c 0.096 0 0.152 0.048 0.152 0.136c 0 0.672 -0.24 1.392 -1.352 1.392c -0.696 0 -1.6 -0.664 -1.6 -1.88c 0 -0.448 0.112 -0.88 0.376 -1.184c 0.272 -0.32 0.648 -0.512 1.224 -0.512c 0.608 0 1.04 0.28 1.36 0.696c -0.024 0.08 -0.072 0.12 -0.168 0.128Z m -2.096 1.512c 0.152 0.904 0.712 0.976 0.904 0.976c 0.304 0 0.664 -0.168 0.664 -0.84c 0 -0.072 -0.032 -0.112 -0.12 -0.112Z "/></symbol><symbol id="g937124D7F3D66536776BB8DA5DFD7893" overflow="visible"><path d="M 0 0m 3.832 2.456c 0 0.664 0.088 0.688 0.576 0.728c 0.048 0.048 0.048 0.216 0 0.264c -0.28 -0.016 -0.632 -0.016 -0.896 -0.016c -0.224 0 -0.544 0.008 -0.856 0.016c -0.048 -0.048 -0.048 -0.216 0 -0.264c 0.488 -0.032 0.544 -0.064 0.544 -0.728v -0.52h -1.712v 0.52c 0 0.664 0.056 0.688 0.544 0.728c 0.048 0.048 0.048 0.216 0 0.264c -0.304 -0.008 -0.608 -0.016 -0.864 -0.016c -0.24 0 -0.568 0.008 -0.888 0.016c -0.048 -0.048 -0.048 -0.216 0 -0.264c 0.488 -0.032 0.576 -0.064 0.576 -0.728v -1.48c 0 -0.664 -0.088 -0.688 -0.576 -0.728c -0.048 -0.048 -0.048 -0.216 0 -0.264c 0.32 0.008 0.64 0.016 0.896 0.016c 0.256 0 0.568 -0.008 0.856 -0.016c 0.048 0.048 0.048 0.216 0 0.264c -0.488 0.032 -0.544 0.064 -0.544 0.728v 0.696h 1.712v -0.696c 0 -0.664 -0.056 -0.688 -0.544 -0.728c -0.048 -0.048 -0.048 -0.216 0 -0.264c 0.288 0.008 0.584 0.016 0.864 0.016c 0.24 0 0.576 -0.008 0.888 -0.016c 0.048 0.048 0.048 0.216 0 0.264c -0.488 0.032 -0.576 0.064 -0.576 0.728Z "/></symbol><symbol id="g1854A57E3895078905A396CA1061C2C" overflow="visible"><path d="M 0 0m 4.97 6.67c 0 0.11 -0.06 0.16 -0.19 0.16l -1.29 -0.03l -1.31 0.03c -0.16 0.01 -0.24 -0.07 -0.24 -0.24c 0 -0.1 0.11 -0.15 0.32 -0.15c 0.43 0 0.64 -0.05 0.64 -0.14c 0 -0.05 -0.01 -0.1 -0.02 -0.15l -1.33 -5.33c -0.05 -0.22 -0.15 -0.35 -0.3 -0.4c -0.07 -0.02 -0.25 -0.03 -0.56 -0.03c -0.25 0 -0.35 -0.01 -0.35 -0.24c 0 -0.1 0.06 -0.15 0.19 -0.15l 1.28 0.03l 1.32 -0.03c 0.16 -0.01 0.24 0.07 0.24 0.23c 0 0.16 -0.12 0.16 -0.34 0.16c -0.39 0 -0.63 -0.02 -0.63 0.14c 0 0.05 0.01 0.12 0.04 0.22l 1.32 5.27c 0.05 0.21 0.15 0.34 0.3 0.39c 0.07 0.02 0.25 0.03 0.56 0.03c 0.24 0 0.35 0.01 0.35 0.23Z "/></symbol><symbol id="g7679559C61795D4B2FBCEF1D6942AEE" overflow="visible"><path d="M 0 0m 6.98 3.67h -6.18c -0.16 0 -0.24 -0.08 -0.24 -0.23c 0 -0.15 0.08 -0.23 0.24 -0.23h 6.18c 0.16 0 0.24 0.08 0.24 0.23c 0 0.12 -0.11 0.23 -0.24 0.23Z m 0 -1.88h -6.18c -0.16 0 -0.24 -0.08 -0.24 -0.23c 0 -0.15 0.08 -0.23 0.24 -0.23h 6.18c 0.16 0 0.24 0.08 0.24 0.23c 0 0.13 -0.11 0.23 -0.24 0.23Z "/></symbol><symbol id="g5CF1D204351052BE9DFCEAA5213E13C0" overflow="visible"><path d="M 0 0m 5.24 4.31h -3.3c -0.41 0 -0.77 -0.16 -1.06 -0.47c -0.14 -0.15 -0.61 -0.79 -0.61 -0.92c 0.04 -0.07 0.04 -0.13 0.16 -0.13c 0.07 0 0.13 0.04 0.19 0.13c 0.32 0.49 0.73 0.74 1.22 0.74h 0.51c -0.23 -0.87 -0.65 -1.94 -1.25 -3.21c -0.05 -0.12 -0.08 -0.21 -0.08 -0.26c 0 -0.2 0.11 -0.3 0.32 -0.3c 0.19 0 0.33 0.11 0.42 0.32c 0.18 0.57 0.31 1.01 0.38 1.31l 0.55 2.14h 1.03c -0.27 -1.19 -0.41 -2.02 -0.41 -2.49c 0 -0.49 0.11 -1.28 0.48 -1.28c 0.21 0 0.44 0.2 0.44 0.41c 0 0.05 -0.02 0.13 -0.06 0.23c -0.19 0.47 -0.28 1 -0.28 1.61c 0 0.47 0.06 0.98 0.17 1.52h 1.09c 0.35 0 0.52 0.12 0.52 0.37c 0 0.23 -0.18 0.28 -0.43 0.28Z "/></symbol><symbol id="g39009AFBE697861A3898B956D60124D1" overflow="visible"><path d="M 0 0m 4.29 6.32l -0.59 -2.43c -0.21 0.37 -0.5 0.56 -0.89 0.56c -0.65 0 -1.22 -0.33 -1.72 -1c -0.46 -0.62 -0.69 -1.27 -0.69 -1.94c 0 -0.88 0.51 -1.62 1.35 -1.62c 0.43 0 0.85 0.23 1.25 0.7c 0.11 -0.38 0.45 -0.7 0.92 -0.7c 0.69 0 0.91 0.82 1.06 1.56c 0 0.09 -0.05 0.14 -0.15 0.14c -0.09 0 -0.15 -0.07 -0.18 -0.21c -0.2 -0.79 -0.44 -1.19 -0.71 -1.19c -0.17 0 -0.26 0.14 -0.26 0.41c 0 0.15 0.02 0.31 0.06 0.47l 1.42 5.72v 0.04c -0.03 0.07 -0.09 0.11 -0.17 0.11c -0.23 0 -0.65 -0.04 -1.25 -0.11c -0.11 -0.01 -0.17 -0.09 -0.17 -0.23c 0 -0.1 0.09 -0.15 0.27 -0.15c 0.19 0 0.45 0.01 0.45 -0.13Z m -0.88 -2.56c 0.1 -0.21 0.15 -0.35 0.15 -0.44c -0.01 -0.04 -0.02 -0.09 -0.03 -0.16l -0.49 -1.94c -0.03 -0.11 -0.1 -0.23 -0.19 -0.35c -0.37 -0.45 -0.73 -0.68 -1.08 -0.68c -0.39 0 -0.59 0.3 -0.59 0.89c 0 0.24 0.06 0.6 0.18 1.08c 0.21 0.85 0.51 1.43 0.88 1.74c 0.2 0.17 0.39 0.25 0.58 0.25c 0.27 0 0.47 -0.13 0.59 -0.39Z "/></symbol><symbol id="gA34FDBAFC63168279C8D1CAFE4C55D67" overflow="visible"><path d="M 0 0m 2.758 4.718c -0.077 0 -0.147 -0.035 -0.203 -0.105l -2.282 -3.192v -0.287h 2.023v -0.539c 0 -0.119 -0.021 -0.203 -0.07 -0.238c -0.049 -0.035 -0.203 -0.056 -0.455 -0.056h -0.217v -0.301l 1.057 0.028l 1.071 -0.028v 0.301h -0.21c -0.259 0 -0.413 0.021 -0.462 0.056c -0.049 0.035 -0.07 0.119 -0.07 0.238v 0.539h 0.763v 0.308h -0.763v 3.052c 0 0.168 -0.021 0.224 -0.182 0.224Z m -0.413 -0.861v -2.415h -1.736Z "/></symbol><symbol id="gFE9C95FEAF1BF90E9FD23335C9A50CC7" overflow="visible"><path d="M 0 0m 4.44 7.18c 0.01 0.02 0.01 0.05 0.01 0.08c 0 0.16 -0.08 0.24 -0.24 0.24c -0.11 0 -0.18 -0.05 -0.22 -0.16l -3.42 -9.52c -0.01 -0.02 -0.01 -0.05 -0.01 -0.08c 0 -0.16 0.08 -0.24 0.24 -0.24c 0.11 0 0.18 0.05 0.22 0.16Z "/></symbol><symbol id="gBA8E9B5B9CFB1B01CAA665CFE5F7BE8E" overflow="visible"><path d="M 0 0m 3.83 5.04c 0.33 0 0.49 0.17 0.49 0.51c 0 0.72 -0.54 1.11 -1.28 1.11c -0.83 0 -1.49 -0.39 -1.98 -1.18c -0.43 -0.68 -0.64 -1.45 -0.64 -2.32c 0 -1.27 0.23 -2.16 0.7 -2.69c 0.4 -0.46 0.86 -0.69 1.39 -0.69c 0.61 0 1.11 0.23 1.5 0.69c 0.37 0.44 0.56 0.97 0.56 1.58c 0 0.61 -0.18 1.13 -0.54 1.56c -0.38 0.46 -0.87 0.7 -1.46 0.7c -0.52 0 -0.92 -0.29 -1.19 -0.85v 0.06c 0 1.13 0.28 2.09 0.88 2.53c 0.26 0.19 0.53 0.28 0.8 0.28c 0.36 0 0.62 -0.1 0.79 -0.31c -0.34 0 -0.51 -0.19 -0.51 -0.49c 0 -0.28 0.21 -0.49 0.49 -0.49Z m -0.39 -1.64c 0.11 -0.23 0.17 -0.68 0.17 -1.34c 0 -0.65 -0.05 -1.08 -0.16 -1.3c -0.2 -0.41 -0.51 -0.62 -0.94 -0.62c -0.29 0 -0.51 0.1 -0.67 0.3c -0.13 0.16 -0.22 0.3 -0.26 0.41c -0.12 0.31 -0.18 0.78 -0.18 1.42c 0 0.28 0.04 0.55 0.11 0.81c 0.13 0.47 0.5 0.91 1.05 0.91c 0.39 0 0.69 -0.2 0.88 -0.59Z "/></symbol><symbol id="g25AA077DE012500399ECCD32292552DD" overflow="visible"><path d="M 0 0m 3.53 6.77c -0.09 0 -0.17 -0.05 -0.23 -0.14l -3.02 -4.64v -0.36h 2.61v -0.82c 0 -0.18 -0.04 -0.3 -0.11 -0.35c -0.07 -0.05 -0.26 -0.07 -0.59 -0.07h -0.25v -0.39c 0.29 0.02 0.75 0.03 1.37 0.03c 0.62 0 1.08 -0.01 1.37 -0.03v 0.39h -0.25c -0.33 0 -0.52 0.02 -0.59 0.07c -0.07 0.05 -0.11 0.17 -0.11 0.35v 0.82h 0.98v 0.39h -0.98v 4.58c 0 0.1 -0.07 0.17 -0.2 0.17Z m -0.58 -1.24v -3.51h -2.28Z "/></symbol><symbol id="g9C25E780E6AD3E011190AC1851E58112" overflow="visible"><path d="M 0 0m 1.04 0.95c -0.31 0 -0.53 -0.21 -0.53 -0.49c 0 -0.31 0.26 -0.41 0.44 -0.44c 0.19 -0.02 0.36 -0.08 0.36 -0.31c 0 -0.21 -0.36 -0.67 -0.88 -0.8c 0 -0.1 0.02 -0.17 0.09 -0.24c 0.6 0.11 1.18 0.59 1.18 1.29c 0 0.6 -0.26 0.99 -0.66 0.99Z "/></symbol><symbol id="gCFBB303EE9A4664734E04AA0DDE5EE93" overflow="visible"><path d="M 0 0m 6.3 0.32c 0 0.07 -0.02 0.12 -0.07 0.17l -2.01 2.01l 2.01 2.01c 0.05 0.05 0.07 0.1 0.07 0.17c 0 0.13 -0.1 0.23 -0.23 0.23c -0.07 0 -0.12 -0.02 -0.17 -0.07l -2.01 -2.01l -2.01 2.01c -0.05 0.05 -0.1 0.07 -0.17 0.07c -0.13 0 -0.23 -0.1 -0.23 -0.23c 0 -0.07 0.02 -0.12 0.07 -0.17l 2.01 -2.01l -2.01 -2.01c -0.05 -0.05 -0.07 -0.1 -0.07 -0.17c 0 -0.13 0.1 -0.23 0.23 -0.23c 0.07 0 0.12 0.02 0.17 0.07l 2.01 2.01l 2.01 -2.01c 0.05 -0.05 0.1 -0.07 0.17 -0.07c 0.13 0 0.23 0.1 0.23 0.23Z "/></symbol><symbol id="g187F960CD8D343F130EAFAB63E4BE0DE" overflow="visible"><path d="M 0 0m 2.37 6.66c -0.51 0 -0.94 -0.18 -1.31 -0.54c -0.37 -0.36 -0.56 -0.78 -0.56 -1.29c 0 -0.34 0.25 -0.59 0.56 -0.59c 0.3 0 0.55 0.26 0.55 0.56c 0 0.33 -0.24 0.56 -0.56 0.56c -0.03 0 -0.05 0 -0.07 -0.01c 0.19 0.49 0.63 0.92 1.26 0.92c 0.82 0 1.28 -0.71 1.28 -1.57c 0 -0.67 -0.34 -1.39 -1.02 -2.15l -1.88 -2.12c -0.13 -0.15 -0.12 -0.14 -0.12 -0.43h 3.71l 0.29 1.8h -0.33c -0.08 -0.51 -0.15 -0.8 -0.21 -0.89c -0.05 -0.05 -0.35 -0.07 -0.9 -0.07h -1.67l 0.97 0.95c 0.68 0.64 1.54 1.33 1.83 1.86c 0.2 0.35 0.3 0.7 0.3 1.05c 0 1.18 -0.92 1.96 -2.12 1.96Z "/></symbol><symbol id="gABDDB2F13393EFB0B3C2622E4B2BF69D" overflow="visible"><path d="M 0 0m 9.32 2.34c 0.07 0.03 0.11 0.09 0.11 0.16c 0 0.07 -0.04 0.13 -0.11 0.16c -0.48 0.16 -0.93 0.5 -1.35 1.02c -0.28 0.35 -0.47 0.76 -0.56 1.23c -0.03 0.13 -0.11 0.19 -0.24 0.19c -0.16 0 -0.24 -0.08 -0.24 -0.25l 0.01 -0.02v -0.01c 0.17 -0.87 0.61 -1.56 1.34 -2.08h -7.46c -0.16 0 -0.24 -0.08 -0.24 -0.24c 0 -0.16 0.08 -0.24 0.24 -0.24h 7.46c -0.73 -0.52 -1.17 -1.21 -1.34 -2.08v -0.01l -0.01 -0.02c 0 -0.17 0.08 -0.25 0.24 -0.25c 0.13 0 0.21 0.06 0.24 0.19c 0.09 0.47 0.28 0.88 0.56 1.23c 0.42 0.52 0.87 0.86 1.35 1.02Z "/></symbol><symbol id="g729161D2B0E3A3BFDA42C859CCA10BD0" overflow="visible"><path d="M 0 0m 1.09 0c 0.2 0.01 0.37 0.24 0.5 0.51l 0.43 0.9c 0.18 0.37 0.46 0.64 1.14 0.68v -0.87c 0 -0.83 -0.12 -0.86 -0.63 -0.91c -0.06 -0.06 -0.06 -0.27 0 -0.33c 0.23 0.01 0.6 0.02 1 0.02c 0.39 0 0.77 -0.01 0.99 -0.02c 0.06 0.06 0.06 0.27 0 0.33c -0.51 0.04 -0.63 0.08 -0.63 0.91v 0.87c 0.68 -0.04 0.96 -0.31 1.14 -0.68l 0.43 -0.9c 0.13 -0.27 0.3 -0.5 0.5 -0.51c 0 0 0.74 -0.01 0.94 -0.02c 0.06 0.06 0.06 0.27 0 0.33c -0.39 0.02 -0.49 0.1 -0.66 0.42l -0.45 0.85c -0.25 0.47 -0.58 0.71 -1.15 0.71v 0.03c 0.39 0.11 0.56 0.46 0.71 0.86c 0.12 0.31 0.24 0.5 0.45 0.5c 0.09 0 0.17 -0.03 0.23 -0.07c 0.06 -0.04 0.17 -0.07 0.3 -0.07c 0.22 0 0.4 0.19 0.4 0.39c 0 0.22 -0.24 0.45 -0.57 0.45c -0.58 0 -0.85 -0.54 -1.04 -1.01c -0.22 -0.55 -0.52 -0.93 -1.23 -0.93v 0.63c 0 0.83 0.12 0.86 0.63 0.91c 0.06 0.06 0.06 0.27 0 0.33c -0.24 -0.01 -0.6 -0.02 -1 -0.02c -0.39 0 -0.76 0.01 -0.99 0.02c -0.06 -0.06 -0.06 -0.27 0 -0.33c 0.51 -0.04 0.63 -0.08 0.63 -0.91v -0.63c -0.71 0 -1.01 0.38 -1.23 0.93c -0.19 0.47 -0.46 1.01 -1.04 1.01c -0.33 0 -0.57 -0.23 -0.57 -0.45c 0 -0.2 0.18 -0.39 0.4 -0.39c 0.13 0 0.24 0.03 0.3 0.07c 0.06 0.04 0.14 0.07 0.23 0.07c 0.21 0 0.33 -0.19 0.45 -0.5c 0.15 -0.4 0.32 -0.75 0.71 -0.86v -0.03c -0.57 0 -0.9 -0.24 -1.15 -0.71l -0.45 -0.85c -0.17 -0.32 -0.27 -0.4 -0.66 -0.42c -0.06 -0.06 -0.06 -0.27 0 -0.33c 0.2 0.01 0.94 0.02 0.94 0.02Z "/></symbol><symbol id="g9E0EED1382D7915B68E40A5B177AB6F0" overflow="visible"><path d="M 0 0m 3.86 0.93c -0.37 -0.38 -0.66 -0.54 -1.24 -0.54c -0.36 0 -0.78 0.21 -1.09 0.72c -0.2 0.33 -0.32 0.79 -0.32 1.37l 2.66 -0.02c 0.12 0 0.19 0.06 0.19 0.17c 0 0.84 -0.3 1.74 -1.69 1.74c -0.87 0 -2 -0.83 -2 -2.35c 0 -0.56 0.14 -1.1 0.47 -1.48c 0.34 -0.4 0.81 -0.64 1.53 -0.64c 0.76 0 1.3 0.35 1.7 0.87c -0.03 0.1 -0.09 0.15 -0.21 0.16Z m -2.62 1.89c 0.19 1.13 0.89 1.22 1.13 1.22c 0.38 0 0.83 -0.21 0.83 -1.05c 0 -0.09 -0.04 -0.14 -0.15 -0.14Z m -0.25 2.93c 0 -0.26 0.21 -0.47 0.47 -0.47c 0.26 0 0.47 0.21 0.47 0.47c 0 0.26 -0.21 0.48 -0.47 0.48c -0.26 0 -0.47 -0.22 -0.47 -0.48Z m 1.69 0c 0 -0.26 0.21 -0.47 0.47 -0.47c 0.26 0 0.47 0.21 0.47 0.47c 0 0.26 -0.21 0.48 -0.47 0.48c -0.26 0 -0.47 -0.22 -0.47 -0.48Z "/></symbol><symbol id="g3034C02F099195832EC02A04CF67550" overflow="visible"><path d="M 0 0m 3.98 0.91c -0.04 0.09 -0.12 0.13 -0.21 0.14c -0.34 -0.44 -0.77 -0.66 -1.2 -0.66c -0.73 0 -1.34 0.74 -1.34 1.91c 0 1.1 0.48 1.76 1.14 1.76c 0.59 0 0.67 -0.35 0.71 -0.7c 0.03 -0.27 0.17 -0.36 0.38 -0.36c 0.21 0 0.49 0.13 0.49 0.44c 0 0.55 -0.57 0.95 -1.53 0.95c -0.99 0 -2.05 -0.89 -2.05 -2.31c 0 -1.29 0.72 -2.18 1.98 -2.18c 0.6 0 1.13 0.19 1.63 1.01Z "/></symbol><symbol id="gF7E2F11D9500E34CEB199CAED225F368" overflow="visible"><path d="M 0 0m 1.82 1.22c 0 -0.83 -0.11 -0.88 -0.72 -0.91c -0.06 -0.06 -0.06 -0.27 0 -0.33c 0.39 0.01 0.79 0.02 1.12 0.02c 0.34 0 0.73 -0.01 1.11 -0.02c 0.06 0.06 0.06 0.27 0 0.33c -0.61 0.03 -0.72 0.08 -0.72 0.91v 2.7h 0.17c 0.81 0 0.97 -0.28 1.14 -1.09c 0.13 0 0.26 0.04 0.26 0.04c -0.06 0.46 -0.1 0.9 -0.11 1.48c -0.23 -0.02 -0.98 -0.06 -1.48 -0.06h -0.75c -0.5 0 -1.06 0.03 -1.46 0.06c -0.01 -0.58 -0.05 -1.02 -0.12 -1.48c 0 0 0.14 -0.04 0.27 -0.04c 0.17 0.81 0.32 1.09 1.14 1.09h 0.15Z "/></symbol><symbol id="g1E1CCF3C3F9C9FC6D96E38E66EA39633" overflow="visible"><path d="M 0 0m 3.86 0c 0 0 0.78 -0.01 0.98 -0.02c 0.06 0.06 0.06 0.27 0 0.33c -0.39 0.02 -0.47 0.1 -0.64 0.42l -0.45 0.85c -0.25 0.47 -0.6 0.71 -1.17 0.71v 0.03c 0.39 0.11 0.56 0.46 0.71 0.86c 0.12 0.31 0.24 0.5 0.45 0.5c 0.09 0 0.17 -0.03 0.23 -0.07c 0.06 -0.04 0.17 -0.07 0.3 -0.07c 0.22 0 0.4 0.19 0.4 0.39c 0 0.22 -0.24 0.45 -0.57 0.45c -0.58 0 -0.85 -0.54 -1.04 -1.01c -0.22 -0.55 -0.49 -0.93 -1.2 -0.93v 0.63c 0 0.83 0.11 0.86 0.62 0.91c 0.06 0.06 0.06 0.27 0 0.33c -0.24 -0.01 -0.62 -0.02 -1.02 -0.02c -0.43 0 -0.78 0.01 -1.11 0.02c -0.06 -0.06 -0.06 -0.27 0 -0.33c 0.61 -0.04 0.72 -0.08 0.72 -0.91v -1.85c 0 -0.83 -0.11 -0.86 -0.72 -0.91c -0.06 -0.06 -0.06 -0.27 0 -0.33c 0.33 0.01 0.68 0.02 1.12 0.02c 0.39 0 0.79 -0.01 1.01 -0.02c 0.06 0.06 0.06 0.27 0 0.33c -0.51 0.04 -0.62 0.08 -0.62 0.91v 0.87c 0.68 -0.04 0.86 -0.31 1.04 -0.68l 0.43 -0.9c 0.13 -0.27 0.33 -0.5 0.53 -0.51Z "/></symbol><symbol id="gF91E605A926A6829D0875F26DD95556B" overflow="visible"><path d="M 0 0m 0.41 2.05c 0 -1.02 0.68 -2.15 2.1 -2.15c 0.64 0 1.13 0.23 1.47 0.56c 0.45 0.44 0.65 1.07 0.65 1.68c 0 1.04 -0.57 2.25 -2.1 2.25c -0.66 0 -1.2 -0.27 -1.57 -0.7c -0.36 -0.43 -0.55 -1.01 -0.55 -1.64Z m 1.97 1.99c 0.86 0 1.39 -0.78 1.39 -2.22c 0 -1.26 -0.65 -1.57 -1.12 -1.57c -1.04 0 -1.38 1.26 -1.38 2.03c 0 0.87 0.21 1.76 1.11 1.76Z "/></symbol><symbol id="g7A87A3C544B096F08C4452AB1CFF4728" overflow="visible"><path d="M 0 0m 1.86 3.06c 0 0.84 0.11 0.87 0.72 0.92c 0.06 0.06 0.06 0.27 0 0.33c -0.34 -0.01 -0.68 -0.02 -1.12 -0.02c -0.43 0 -0.78 0.01 -1.11 0.02c -0.06 -0.06 -0.06 -0.27 0 -0.33c 0.61 -0.04 0.72 -0.08 0.72 -0.91v -1.85c 0 -0.83 -0.11 -0.86 -0.72 -0.91c -0.06 -0.06 -0.06 -0.27 0 -0.33c 0.33 0.01 0.68 0.02 1.12 0.02c 0.41 0 0.63 -0.02 1.04 -0.02c 1.23 0 1.9 0.31 1.9 1.38c 0 0.94 -0.82 1.21 -1.83 1.21h -0.72Z m 1.69 -1.8c 0 -0.82 -0.5 -0.95 -1.03 -0.95c -0.49 0 -0.66 0.1 -0.66 0.45v 1.48h 0.71c 0.75 0 0.98 -0.45 0.98 -0.98Z "/></symbol><symbol id="gDCB33243FA7B758E3BCD0C7DC09CD368" overflow="visible"><path d="M 0 0m 2.69 6.66c -0.41 -0.42 -1.01 -0.63 -1.8 -0.63v -0.39c 0.52 0 0.95 0.08 1.28 0.24v -5.06c 0 -0.18 -0.04 -0.3 -0.13 -0.35c -0.09 -0.05 -0.34 -0.08 -0.74 -0.08h -0.35v -0.39c 0.25 0.02 0.79 0.03 1.62 0.03c 0.83 0 1.37 -0.01 1.62 -0.03v 0.39h -0.35c -0.41 0 -0.66 0.03 -0.74 0.08c -0.08 0.05 -0.13 0.17 -0.13 0.35v 5.54c 0 0.24 -0.02 0.3 -0.28 0.3Z "/></symbol></defs></svg>