<svg viewBox="0 0 304.928133858 121.86488189" width="304.928133858pt" height="121.86488189pt" xmlns="http://www.w3.org/2000/svg" xmlns:xlink="http://www.w3.org/1999/xlink" xmlns:h5="http://www.w3.org/1999/xhtml"><path fill="#ffffff" fill-rule="nonzero" d="M 0 0v 121.86488189h 304.928133858v -121.86488189Z "/><g transform="translate(8 8)"><path fill="none" stroke="#1a1a18" stroke-width="1.6" stroke-linecap="butt" stroke-linejoin="miter" stroke-miterlimit="4" transform="translate(35.227346457 13.247401575)" d="M 0 0m 0 59.527559055l 15.590551181 15.590551181l 15.590551181 -15.590551181h 69.448818898l 15.590551181 -28.346456693h 60.94488189l 15.590551181 -31.181102362h 60.94488189"/><path fill="none" stroke="#a29b8c" stroke-width="0.5" stroke-linecap="butt" stroke-linejoin="miter" stroke-miterlimit="4" transform="translate(37.211598425 72.77496063)" d="M 0 0m 5.102362205 0l -5.102362205 6.803149606"/><path fill="none" stroke="#a29b8c" stroke-width="0.5" stroke-linecap="butt" stroke-linejoin="miter" stroke-miterlimit="4" transform="translate(46.849393701 72.77496063)" d="M 0 0m 5.102362205 0l -5.102362205 6.803149606"/><path fill="none" stroke="#a29b8c" stroke-width="0.5" stroke-linecap="butt" stroke-linejoin="miter" stroke-miterlimit="4" transform="translate(56.487188976 72.77496063)" d="M 0 0m 5.102362205 0l -5.102362205 6.803149606"/><path fill="none" stroke="#a29b8c" stroke-width="0.5" stroke-linecap="butt" stroke-linejoin="miter" stroke-miterlimit="4" transform="translate(66.124984252 72.77496063)" d="M 0 0m 5.102362205 0l -5.102362205 6.803149606"/><path fill="none" stroke="#a29b8c" stroke-width="0.5" stroke-linecap="butt" stroke-linejoin="miter" stroke-miterlimit="4" transform="translate(75.762779528 72.77496063)" d="M 0 0m 5.102362205 0l -5.102362205 6.803149606"/><path fill="none" stroke="#a29b8c" stroke-width="0.5" stroke-linecap="butt" stroke-linejoin="miter" stroke-miterlimit="4" transform="translate(85.400574803 72.77496063)" d="M 0 0m 5.102362205 0l -5.102362205 6.803149606"/><path fill="none" stroke="#a29b8c" stroke-width="0.5" stroke-linecap="butt" stroke-linejoin="miter" stroke-miterlimit="4" transform="translate(95.038370079 72.77496063)" d="M 0 0m 5.102362205 0l -5.102362205 6.803149606"/><path fill="none" stroke="#a29b8c" stroke-width="0.5" stroke-linecap="butt" stroke-linejoin="miter" stroke-miterlimit="4" transform="translate(104.676165354 72.77496063)" d="M 0 0m 5.102362205 0l -5.102362205 6.803149606"/><path fill="none" stroke="#a29b8c" stroke-width="0.5" stroke-linecap="butt" stroke-linejoin="miter" stroke-miterlimit="4" transform="translate(114.31396063 72.77496063)" d="M 0 0m 5.102362205 0l -5.102362205 6.803149606"/><path fill="none" stroke="#a29b8c" stroke-width="0.5" stroke-linecap="butt" stroke-linejoin="miter" stroke-miterlimit="4" transform="translate(123.951755906 72.77496063)" d="M 0 0m 5.102362205 0l -5.102362205 6.803149606"/><path fill="none" stroke="#a29b8c" stroke-width="0.5" stroke-linecap="butt" stroke-linejoin="miter" stroke-miterlimit="4" transform="translate(146.345456693 44.428503937)" d="M 0 0m 5.102362205 0l -5.102362205 6.803149606"/><path fill="none" stroke="#a29b8c" stroke-width="0.5" stroke-linecap="butt" stroke-linejoin="miter" stroke-miterlimit="4" transform="translate(155.983251969 44.428503937)" d="M 0 0m 5.102362205 0l -5.102362205 6.803149606"/><path fill="none" stroke="#a29b8c" stroke-width="0.5" stroke-linecap="butt" stroke-linejoin="miter" stroke-miterlimit="4" transform="translate(165.621047244 44.428503937)" d="M 0 0m 5.102362205 0l -5.102362205 6.803149606"/><path fill="none" stroke="#a29b8c" stroke-width="0.5" stroke-linecap="butt" stroke-linejoin="miter" stroke-miterlimit="4" transform="translate(175.25884252 44.428503937)" d="M 0 0m 5.102362205 0l -5.102362205 6.803149606"/><path fill="none" stroke="#a29b8c" stroke-width="0.5" stroke-linecap="butt" stroke-linejoin="miter" stroke-miterlimit="4" transform="translate(184.896637795 44.428503937)" d="M 0 0m 5.102362205 0l -5.102362205 6.803149606"/><path fill="none" stroke="#a29b8c" stroke-width="0.5" stroke-linecap="butt" stroke-linejoin="miter" stroke-miterlimit="4" transform="translate(194.534433071 44.428503937)" d="M 0 0m 5.102362205 0l -5.102362205 6.803149606"/><path fill="none" stroke="#a29b8c" stroke-width="0.5" stroke-linecap="butt" stroke-linejoin="miter" stroke-miterlimit="4" transform="translate(204.172228346 44.428503937)" d="M 0 0m 5.102362205 0l -5.102362205 6.803149606"/><path fill="none" stroke="#a29b8c" stroke-width="0.5" stroke-linecap="butt" stroke-linejoin="miter" stroke-miterlimit="4" transform="translate(222.880889764 13.247401575)" d="M 0 0m 5.102362205 0l -5.102362205 6.803149606"/><path fill="none" stroke="#a29b8c" stroke-width="0.5" stroke-linecap="butt" stroke-linejoin="miter" stroke-miterlimit="4" transform="translate(232.518685039 13.247401575)" d="M 0 0m 5.102362205 0l -5.102362205 6.803149606"/><path fill="none" stroke="#a29b8c" stroke-width="0.5" stroke-linecap="butt" stroke-linejoin="miter" stroke-miterlimit="4" transform="translate(242.156480315 13.247401575)" d="M 0 0m 5.102362205 0l -5.102362205 6.803149606"/><path fill="none" stroke="#a29b8c" stroke-width="0.5" stroke-linecap="butt" stroke-linejoin="miter" stroke-miterlimit="4" transform="translate(251.794275591 13.247401575)" d="M 0 0m 5.102362205 0l -5.102362205 6.803149606"/><path fill="none" stroke="#a29b8c" stroke-width="0.5" stroke-linecap="butt" stroke-linejoin="miter" stroke-miterlimit="4" transform="translate(261.432070866 13.247401575)" d="M 0 0m 5.102362205 0l -5.102362205 6.803149606"/><path fill="none" stroke="#a29b8c" stroke-width="0.5" stroke-linecap="butt" stroke-linejoin="miter" stroke-miterlimit="4" transform="translate(271.069866142 13.247401575)" d="M 0 0m 5.102362205 0l -5.102362205 6.803149606"/><path fill="none" stroke="#a29b8c" stroke-width="0.5" stroke-linecap="butt" stroke-linejoin="miter" stroke-miterlimit="4" transform="translate(280.707661417 13.247401575)" d="M 0 0m 5.102362205 0l -5.102362205 6.803149606"/><path fill="none" stroke="#7c7f6a" stroke-width="0.7" stroke-linecap="butt" stroke-linejoin="miter" stroke-miterlimit="4" stroke-dashoffset="0" stroke-dasharray="2 2" transform="translate(29.558055118 44.428503937)" d="M 0 0h 121.88976378"/><path fill="none" stroke="#7c7f6a" stroke-width="0.7" stroke-linecap="butt" stroke-linejoin="miter" stroke-miterlimit="4" stroke-dashoffset="0" stroke-dasharray="2 2" transform="translate(29.558055118 13.247401575)" d="M 0 0h 198.42519685"/><path fill="none" stroke="#1a1a18" stroke-width="0.9" stroke-linecap="butt" stroke-linejoin="miter" stroke-miterlimit="4" transform="translate(19.636795276 17.93057694)" d="M 0 0m 0 65.751759506v -65.751759506"/><path fill="#1a1a18" fill-rule="nonzero" stroke="#1a1a18" stroke-width="0.9" stroke-linecap="butt" stroke-linejoin="miter" stroke-miterlimit="4" transform="translate(18.361204724 83.682336441)" d="M 0 0m 1.275590551 3.401574803l -1.275590551 -3.401574803h 2.551181102l -1.275590551 3.401574803Z "/><path fill="#1a1a18" fill-rule="nonzero" stroke="#1a1a18" stroke-width="0.9" stroke-linecap="butt" stroke-linejoin="miter" stroke-miterlimit="4" transform="translate(18.361204724 14.529002142)" d="M 0 0m 1.275590551 0l 1.275590551 3.401574803h -2.551181102l 1.275590551 -3.401574803Z "/><path fill="none" stroke="#1a1a18" stroke-width="0.45" stroke-linecap="butt" stroke-linejoin="miter" stroke-miterlimit="4" transform="translate(19.636795276 88.365511811)" d="M 0 0h 28.346456693"/><path fill="none" stroke="#1a1a18" stroke-width="0.45" stroke-linecap="butt" stroke-linejoin="miter" stroke-miterlimit="4" transform="translate(19.636795276 13.247401575)" d="M 0 0h 9.921259843"/><path fill="none" transform="translate(0 47.191688976)" d="M 0 0h 9.999v 7.513h -9.999v -7.513Z "/><g transform="translate(0 47.191688898)"><g transform="matrix(1 0 0 -1 0 7.513)"><use xlink:href="#g8828EC56C5BFADD5CCBF5CDD609457B8" x="0" y="0" fill="#1a1a18" fill-rule="nonzero"/></g></g><path fill="none" transform="translate(38.352897638 96.94488189)" d="M 0 0h 24.93v 8.92h -24.93v -8.92Z "/><g transform="translate(38.352897638 96.944881858)"><g transform="matrix(1 0 0 -1 0 6.58)"><use xlink:href="#g8F03A4AE8D3B195D4882A1755C55580A" x="0" y="0" fill="#1a1a18" fill-rule="nonzero"/><use xlink:href="#gAE0CEE16EDC8917D22527502B2399974" x="5.19" y="0" fill="#1a1a18" fill-rule="nonzero"/><use xlink:href="#g3034C02F099195832EC02A04CF67550" x="10.34" y="0" fill="#1a1a18" fill-rule="nonzero"/><use xlink:href="#g58FE41588FF370B2D963AE7490CB53AD" x="14.62" y="0" fill="#1a1a18" fill-rule="nonzero"/><use xlink:href="#gF91E605A926A6829D0875F26DD95556B" x="19.89" y="0" fill="#1a1a18" fill-rule="nonzero"/></g></g><path fill="none" transform="translate(84.06419685 59.527559055)" d="M 0 0h 32.72v 8.92h -32.72v -8.92Z "/><g transform="translate(84.064196835 59.527559024)"><g transform="matrix(1 0 0 -1 0 6.58)"><use xlink:href="#gF7E2F11D9500E34CEB199CAED225F368" x="0" y="0" fill="#7c7f6a" fill-rule="nonzero"/><use xlink:href="#g8C4BCE4FF39E54C5E232A1A0A3B7612A" x="4.45" y="0" fill="#7c7f6a" fill-rule="nonzero"/><use xlink:href="#g8F03A4AE8D3B195D4882A1755C55580A" x="8.92" y="0" fill="#7c7f6a" fill-rule="nonzero"/><use xlink:href="#g8F03A4AE8D3B195D4882A1755C55580A" x="14.11" y="0" fill="#7c7f6a" fill-rule="nonzero"/><use xlink:href="#g7D7A5D08C55ACC07707850317A5B7900" x="19.3" y="0" fill="#7c7f6a" fill-rule="nonzero"/><use xlink:href="#g3034C02F099195832EC02A04CF67550" x="23.87" y="0" fill="#7c7f6a" fill-rule="nonzero"/><use xlink:href="#g7D7A5D08C55ACC07707850317A5B7900" x="28.15" y="0" fill="#7c7f6a" fill-rule="nonzero"/></g></g><path fill="none" transform="translate(165.418527559 31.181102362)" d="M 0 0h 32.72v 8.92h -32.72v -8.92Z "/><g transform="translate(165.418527543 31.181102331)"><g transform="matrix(1 0 0 -1 0 6.58)"><use xlink:href="#gF7E2F11D9500E34CEB199CAED225F368" x="0" y="0" fill="#7c7f6a" fill-rule="nonzero"/><use xlink:href="#g8C4BCE4FF39E54C5E232A1A0A3B7612A" x="4.45" y="0" fill="#7c7f6a" fill-rule="nonzero"/><use xlink:href="#g8F03A4AE8D3B195D4882A1755C55580A" x="8.92" y="0" fill="#7c7f6a" fill-rule="nonzero"/><use xlink:href="#g8F03A4AE8D3B195D4882A1755C55580A" x="14.11" y="0" fill="#7c7f6a" fill-rule="nonzero"/><use xlink:href="#g7D7A5D08C55ACC07707850317A5B7900" x="19.3" y="0" fill="#7c7f6a" fill-rule="nonzero"/><use xlink:href="#g3034C02F099195832EC02A04CF67550" x="23.87" y="0" fill="#7c7f6a" fill-rule="nonzero"/><use xlink:href="#g7D7A5D08C55ACC07707850317A5B7900" x="28.15" y="0" fill="#7c7f6a" fill-rule="nonzero"/></g></g><path fill="none" transform="translate(239.969708661)" d="M 0 0h 32.72v 8.92h -32.72v -8.92Z "/><g transform="translate(239.969708646 -3.1e-8)"><g transform="matrix(1 0 0 -1 0 6.58)"><use xlink:href="#gF7E2F11D9500E34CEB199CAED225F368" x="0" y="0" fill="#7c7f6a" fill-rule="nonzero"/><use xlink:href="#g8C4BCE4FF39E54C5E232A1A0A3B7612A" x="4.45" y="0" fill="#7c7f6a" fill-rule="nonzero"/><use xlink:href="#g8F03A4AE8D3B195D4882A1755C55580A" x="8.92" y="0" fill="#7c7f6a" fill-rule="nonzero"/><use xlink:href="#g8F03A4AE8D3B195D4882A1755C55580A" x="14.11" y="0" fill="#7c7f6a" fill-rule="nonzero"/><use xlink:href="#g7D7A5D08C55ACC07707850317A5B7900" x="19.3" y="0" fill="#7c7f6a" fill-rule="nonzero"/><use xlink:href="#g3034C02F099195832EC02A04CF67550" x="23.87" y="0" fill="#7c7f6a" fill-rule="nonzero"/><use xlink:href="#g7D7A5D08C55ACC07707850317A5B7900" x="28.15" y="0" fill="#7c7f6a" fill-rule="nonzero"/></g></g><path fill="none" stroke="#1a1a18" stroke-width="0.45" stroke-linecap="butt" stroke-linejoin="miter" stroke-miterlimit="4" transform="translate(143.652543307 58.601732283)" d="M 0 0l 29.05511811 7.653543307"/><path fill="none" transform="translate(175.542307087 62.027775591)" d="M 0 0h 23.6455v 8.455h -23.6455v -8.455Z "/><g transform="translate(175.542307008 62.027775465)"><g transform="matrix(1 0 0 -1 0 6.251)"><use xlink:href="#gE3D46A95002377B54E13EEB95624C7DA" x="0" y="0" fill="#1a1a18" fill-rule="nonzero"/><use xlink:href="#g966D14D99AB05D933C4957B2E7FE95D9" x="4.8925" y="0" fill="#1a1a18" fill-rule="nonzero"/><use xlink:href="#gF1C320A4506B818F6BCB8CDA11A2DE6" x="8.9585" y="0" fill="#1a1a18" fill-rule="nonzero"/><use xlink:href="#gE3D46A95002377B54E13EEB95624C7DA" x="13.186" y="0" fill="#1a1a18" fill-rule="nonzero"/><use xlink:href="#g75E31E9387E94E3A457DA9304838F591" x="18.0785" y="0" fill="#1a1a18" fill-rule="nonzero"/></g></g></g><defs><symbol id="g8828EC56C5BFADD5CCBF5CDD609457B8" overflow="visible"><path d="M 0 0m 9.691 7.348c 0 0.11 -0.066 0.165 -0.198 0.165l -1.397 -0.033l -1.397 0.033c -0.176 0 -0.253 -0.099 -0.253 -0.264c 0 -0.077 0.033 -0.132 0.088 -0.143c 0.11 -0.011 0.198 -0.022 0.253 -0.022c 0.341 -0.011 0.528 -0.033 0.583 -0.044c 0.055 -0.011 0.088 -0.044 0.088 -0.099c -0.011 -0.033 -0.022 -0.099 -0.044 -0.198l -0.649 -2.618h -3.234l 0.638 2.497c 0.055 0.231 0.154 0.374 0.297 0.429c 0.077 0.022 0.264 0.033 0.572 0.033c 0.297 0 0.418 0 0.418 0.264c 0 0.11 -0.066 0.165 -0.198 0.165l -1.397 -0.033l -1.408 0.033c -0.176 0 -0.253 -0.099 -0.253 -0.264c 0 -0.077 0.033 -0.132 0.099 -0.143c 0.11 -0.011 0.198 -0.022 0.253 -0.022c 0.341 -0.011 0.539 -0.033 0.594 -0.044c 0.055 -0.011 0.077 -0.044 0.077 -0.099c 0 -0.022 -0.011 -0.088 -0.044 -0.198l -1.463 -5.841c -0.055 -0.242 -0.165 -0.385 -0.33 -0.44c -0.077 -0.022 -0.275 -0.033 -0.616 -0.033c -0.242 0 -0.341 -0.022 -0.341 -0.264c 0 -0.11 0.066 -0.165 0.198 -0.165l 1.386 0.033l 0.693 -0.011c 0.121 0 0.583 -0.022 0.704 -0.022c 0.176 0 0.264 0.088 0.264 0.264c 0 0.11 -0.121 0.165 -0.352 0.165c -0.44 0 -0.66 0.044 -0.66 0.143c 0 0 0.011 0.033 0.033 0.176l 0.737 2.948h 3.223l -0.737 -2.948c -0.033 -0.165 -0.165 -0.275 -0.385 -0.308c -0.055 -0.011 -0.242 -0.011 -0.561 -0.011c -0.209 0 -0.308 -0.088 -0.308 -0.264c 0 -0.11 0.066 -0.165 0.198 -0.165l 1.386 0.033l 0.693 -0.011c 0.121 0 0.572 -0.022 0.715 -0.022c 0.176 0 0.264 0.088 0.264 0.264c 0 0.11 -0.121 0.165 -0.352 0.165c -0.451 0 -0.671 0.044 -0.671 0.143c 0 0 0.011 0.033 0.033 0.176l 1.474 5.874c 0.055 0.231 0.154 0.374 0.297 0.429c 0.066 0.022 0.253 0.033 0.572 0.033c 0.286 0 0.418 0 0.418 0.264Z "/></symbol><symbol id="g8F03A4AE8D3B195D4882A1755C55580A" overflow="visible"><path d="M 0 0m 1.56 3.68c -0.01 0.3 -0.03 0.56 -0.08 0.66c -0.02 0.05 -0.04 0.08 -0.12 0.08c -0.28 -0.11 -0.54 -0.2 -1.23 -0.29c -0.02 -0.06 0 -0.22 0.02 -0.28c 0.54 -0.05 0.65 -0.1 0.65 -0.68v -4.27c 0 -0.83 -0.11 -0.88 -0.72 -0.91c -0.06 -0.06 -0.06 -0.27 0 -0.33c 0.35 0.01 0.72 0.02 1.12 0.02c 0.4 0 0.88 -0.01 1.21 -0.02c 0.06 0.06 0.06 0.27 0 0.33c -0.71 0.04 -0.82 0.08 -0.82 0.91v 1.08c 0 0.13 0.04 0.12 0.14 0.08c 0.25 -0.1 0.55 -0.16 0.87 -0.16c 0.56 0 1.06 0.17 1.47 0.56c 0.47 0.46 0.74 1.08 0.74 1.89c 0 1.06 -0.75 2.04 -1.77 2.04c -0.46 0 -0.97 -0.3 -1.37 -0.75c -0.06 -0.06 -0.1 -0.06 -0.11 0.04Z m 0.19 -0.37c 0.26 0.32 0.72 0.62 1.01 0.62c 0.64 0 1.19 -0.72 1.19 -1.85c 0 -0.82 -0.29 -1.84 -1.41 -1.84c -0.18 0 -0.53 0.05 -0.71 0.21c -0.2 0.18 -0.24 0.24 -0.24 0.6v 1.82c 0 0.21 0.04 0.3 0.16 0.44Z "/></symbol><symbol id="gAE0CEE16EDC8917D22527502B2399974" overflow="visible"><path d="M 0 0m 2.04 -1.6c 0.16 0.28 0.29 0.56 0.41 0.86c 0.8 1.93 1.25 2.96 1.77 4.08c 0.2 0.42 0.34 0.58 0.81 0.64c 0.06 0.06 0.06 0.27 0 0.33c -0.2 -0.01 -0.43 -0.02 -0.71 -0.02c -0.3 0 -0.61 0.01 -0.91 0.02c -0.06 -0.06 -0.06 -0.27 0 -0.33c 0.32 -0.03 0.64 -0.09 0.48 -0.45l -0.99 -2.29c -0.07 -0.16 -0.16 -0.19 -0.24 0.01l -0.89 2.08c -0.18 0.42 -0.23 0.61 0.33 0.65c 0.06 0.06 0.06 0.27 0 0.33c -0.37 -0.01 -0.77 -0.02 -1.13 -0.02c -0.34 0 -0.61 0.01 -0.81 0.02c -0.06 -0.06 -0.06 -0.27 0 -0.33c 0.4 -0.05 0.53 -0.14 0.79 -0.75l 1.13 -2.63c 0.09 -0.2 0.24 -0.66 0.14 -0.94c -0.12 -0.33 -0.24 -0.61 -0.39 -0.92c -0.11 -0.2 -0.25 -0.29 -0.5 -0.29c -0.14 0 -0.18 0.03 -0.29 0.03c -0.29 0 -0.44 -0.3 -0.44 -0.43c 0 -0.21 0.2 -0.37 0.47 -0.37c 0.21 0 0.61 0.08 0.97 0.72Z "/></symbol><symbol id="g3034C02F099195832EC02A04CF67550" overflow="visible"><path d="M 0 0m 3.98 0.91c -0.04 0.09 -0.12 0.13 -0.21 0.14c -0.34 -0.44 -0.77 -0.66 -1.2 -0.66c -0.73 0 -1.34 0.74 -1.34 1.91c 0 1.1 0.48 1.76 1.14 1.76c 0.59 0 0.67 -0.35 0.71 -0.7c 0.03 -0.27 0.17 -0.36 0.38 -0.36c 0.21 0 0.49 0.13 0.49 0.44c 0 0.55 -0.57 0.95 -1.53 0.95c -0.99 0 -2.05 -0.89 -2.05 -2.31c 0 -1.29 0.72 -2.18 1.98 -2.18c 0.6 0 1.13 0.19 1.63 1.01Z "/></symbol><symbol id="g58FE41588FF370B2D963AE7490CB53AD" overflow="visible"><path d="M 0 0m 4.18 1.22v 1.85c 0 0.82 0.13 0.87 0.68 0.91c 0.06 0.06 0.06 0.27 0 0.33c -0.3 -0.01 -0.68 -0.02 -1.08 -0.02h -1.89c -0.33 0 -0.72 0.01 -1.02 0.02c -0.06 -0.06 -0.06 -0.27 0 -0.33c 0.71 -0.05 0.81 -0.11 0.81 -1.19c 0 -1.05 -0.08 -1.6 -0.22 -2.01c -0.13 -0.36 -0.3 -0.49 -0.47 -0.49c -0.13 0 -0.17 0.08 -0.19 0.21c -0.03 0.19 -0.09 0.38 -0.37 0.38c -0.25 0 -0.39 -0.2 -0.39 -0.42c 0 -0.31 0.28 -0.58 0.74 -0.58c 0.51 0 0.79 0.26 1.02 0.8c 0.2 0.48 0.26 1.5 0.26 2.18c 0 0.78 0.03 1.04 0.43 1.04h 0.45c 0.38 0 0.45 -0.24 0.45 -0.58v -2.1c 0 -0.82 -0.1 -0.87 -0.62 -0.91c -0.05 -0.06 -0.05 -0.27 0 -0.33c 0.25 0.01 0.62 0.02 1.02 0.02c 0.4 0 0.85 -0.01 1.13 -0.02c 0.05 0.06 0.05 0.27 0 0.33c -0.65 0.04 -0.74 0.09 -0.74 0.91Z "/></symbol><symbol id="gF91E605A926A6829D0875F26DD95556B" overflow="visible"><path d="M 0 0m 0.41 2.05c 0 -1.02 0.68 -2.15 2.1 -2.15c 0.64 0 1.13 0.23 1.47 0.56c 0.45 0.44 0.65 1.07 0.65 1.68c 0 1.04 -0.57 2.25 -2.1 2.25c -0.66 0 -1.2 -0.27 -1.57 -0.7c -0.36 -0.43 -0.55 -1.01 -0.55 -1.64Z m 1.97 1.99c 0.86 0 1.39 -0.78 1.39 -2.22c 0 -1.26 -0.65 -1.57 -1.12 -1.57c -1.04 0 -1.38 1.26 -1.38 2.03c 0 0.87 0.21 1.76 1.11 1.76Z "/></symbol><symbol id="gF7E2F11D9500E34CEB199CAED225F368" overflow="visible"><path d="M 0 0m 1.82 1.22c 0 -0.83 -0.11 -0.88 -0.72 -0.91c -0.06 -0.06 -0.06 -0.27 0 -0.33c 0.39 0.01 0.79 0.02 1.12 0.02c 0.34 0 0.73 -0.01 1.11 -0.02c 0.06 0.06 0.06 0.27 0 0.33c -0.61 0.03 -0.72 0.08 -0.72 0.91v 2.7h 0.17c 0.81 0 0.97 -0.28 1.14 -1.09c 0.13 0 0.26 0.04 0.26 0.04c -0.06 0.46 -0.1 0.9 -0.11 1.48c -0.23 -0.02 -0.98 -0.06 -1.48 -0.06h -0.75c -0.5 0 -1.06 0.03 -1.46 0.06c -0.01 -0.58 -0.05 -1.02 -0.12 -1.48c 0 0 0.14 -0.04 0.27 -0.04c 0.17 0.81 0.32 1.09 1.14 1.09h 0.15Z "/></symbol><symbol id="g8C4BCE4FF39E54C5E232A1A0A3B7612A" overflow="visible"><path d="M 0 0m 3.86 0.93c -0.37 -0.38 -0.66 -0.54 -1.24 -0.54c -0.36 0 -0.78 0.21 -1.09 0.72c -0.2 0.33 -0.32 0.79 -0.32 1.37l 2.66 -0.02c 0.12 0 0.19 0.06 0.19 0.17c 0 0.84 -0.3 1.74 -1.69 1.74c -0.87 0 -2 -0.83 -2 -2.35c 0 -0.56 0.14 -1.1 0.47 -1.48c 0.34 -0.4 0.81 -0.64 1.53 -0.64c 0.76 0 1.3 0.35 1.7 0.87c -0.03 0.1 -0.09 0.15 -0.21 0.16Z m -2.62 1.89c 0.19 1.13 0.89 1.22 1.13 1.22c 0.38 0 0.83 -0.21 0.83 -1.05c 0 -0.09 -0.04 -0.14 -0.15 -0.14Z "/></symbol><symbol id="g7D7A5D08C55ACC07707850317A5B7900" overflow="visible"><path d="M 0 0m 2.93 0.48c 0.06 -0.31 0.17 -0.58 0.67 -0.58c 0.38 0 0.74 0.17 0.95 0.37c -0.02 0.12 -0.06 0.21 -0.17 0.27c -0.07 -0.06 -0.24 -0.16 -0.37 -0.16c -0.29 0 -0.3 0.39 -0.3 0.85v 1.47c 0 1.42 -0.78 1.69 -1.51 1.69c -0.82 0 -1.65 -0.54 -1.65 -1.11c 0 -0.24 0.12 -0.36 0.35 -0.36c 0.29 0 0.47 0.21 0.47 0.34c 0 0.07 -0.01 0.14 -0.03 0.18c -0.01 0.03 -0.02 0.09 -0.02 0.2c 0 0.31 0.42 0.42 0.8 0.42c 0.34 0 0.81 -0.17 0.81 -1.3c 0 -0.07 -0.03 -0.11 -0.06 -0.12l -0.86 -0.21c -0.96 -0.24 -1.65 -0.77 -1.65 -1.45c 0 -0.82 0.56 -1.08 1.26 -1.08c 0.35 0 0.65 0.08 1.09 0.42l 0.2 0.16Z m 0 1.85v -1.32c 0 -0.13 -0.06 -0.2 -0.14 -0.26c -0.26 -0.21 -0.6 -0.44 -0.88 -0.44c -0.5 0 -0.72 0.4 -0.72 0.71c 0 0.45 0.21 0.91 0.95 1.1Z "/></symbol><symbol id="gE3D46A95002377B54E13EEB95624C7DA" overflow="visible"><path d="M 0 0m 1.938 -1.52c 0.152 0.266 0.2755 0.532 0.3895 0.817c 0.76 1.8335 1.1875 2.812 1.6815 3.876c 0.19 0.399 0.323 0.551 0.7695 0.608c 0.057 0.057 0.057 0.2565 0 0.3135c -0.19 -0.0095 -0.4085 -0.019 -0.6745 -0.019c -0.285 0 -0.5795 0.0095 -0.8645 0.019c -0.057 -0.057 -0.057 -0.2565 0 -0.3135c 0.304 -0.0285 0.608 -0.0855 0.456 -0.4275l -0.9405 -2.1755c -0.0665 -0.152 -0.152 -0.1805 -0.228 0.0095l -0.8455 1.976c -0.171 0.399 -0.2185 0.5795 0.3135 0.6175c 0.057 0.057 0.057 0.2565 0 0.3135c -0.3515 -0.0095 -0.7315 -0.019 -1.0735 -0.019c -0.323 0 -0.5795 0.0095 -0.7695 0.019c -0.057 -0.057 -0.057 -0.2565 0 -0.3135c 0.38 -0.0475 0.5035 -0.133 0.7505 -0.7125l 1.0735 -2.4985c 0.0855 -0.19 0.228 -0.627 0.133 -0.893c -0.114 -0.3135 -0.228 -0.5795 -0.3705 -0.874c -0.1045 -0.19 -0.2375 -0.2755 -0.475 -0.2755c -0.133 0 -0.171 0.0285 -0.2755 0.0285c -0.2755 0 -0.418 -0.285 -0.418 -0.4085c 0 -0.1995 0.19 -0.3515 0.4465 -0.3515c 0.1995 0 0.5795 0.076 0.9215 0.684Z "/></symbol><symbol id="g966D14D99AB05D933C4957B2E7FE95D9" overflow="visible"><path d="M 0 0m 3.781 0.8645c -0.038 0.0855 -0.114 0.1235 -0.1995 0.133c -0.323 -0.418 -0.7315 -0.627 -1.14 -0.627c -0.6935 0 -1.273 0.703 -1.273 1.8145c 0 1.045 0.456 1.672 1.083 1.672c 0.5605 0 0.6365 -0.3325 0.6745 -0.665c 0.0285 -0.2565 0.1615 -0.342 0.361 -0.342c 0.1995 0 0.4655 0.1235 0.4655 0.418c 0 0.5225 -0.5415 0.9025 -1.4535 0.9025c -0.9405 0 -1.9475 -0.8455 -1.9475 -2.1945c 0 -1.2255 0.684 -2.071 1.881 -2.071c 0.57 0 1.0735 0.1805 1.5485 0.9595Z "/></symbol><symbol id="gF1C320A4506B818F6BCB8CDA11A2DE6" overflow="visible"><path d="M 0 0m 1.729 1.159c 0 -0.7885 -0.1045 -0.836 -0.684 -0.8645c -0.057 -0.057 -0.057 -0.2565 0 -0.3135c 0.3705 0.0095 0.7505 0.019 1.064 0.019c 0.323 0 0.6935 -0.0095 1.0545 -0.019c 0.057 0.057 0.057 0.2565 0 0.3135c -0.5795 0.0285 -0.684 0.076 -0.684 0.8645v 2.565h 0.1615c 0.7695 0 0.9215 -0.266 1.083 -1.0355c 0.1235 0 0.247 0.038 0.247 0.038c -0.057 0.437 -0.095 0.855 -0.1045 1.406c -0.2185 -0.019 -0.931 -0.057 -1.406 -0.057h -0.7125c -0.475 0 -1.007 0.0285 -1.387 0.057c -0.0095 -0.551 -0.0475 -0.969 -0.114 -1.406c 0 0 0.133 -0.038 0.2565 -0.038c 0.1615 0.7695 0.304 1.0355 1.083 1.0355h 0.1425Z "/></symbol><symbol id="g75E31E9387E94E3A457DA9304838F591" overflow="visible"><path d="M 0 0m 4.1515 4.0755h -2.698c -0.38 0 -0.741 0.0095 -1.026 0.019c -0.057 -0.057 -0.057 -0.2565 0 -0.3135c 0.5225 -0.038 0.646 -0.0855 0.646 -0.8645v -1.7575c 0 -0.779 -0.1235 -0.8265 -0.741 -0.8645c -0.057 -0.057 -0.057 -0.2565 0 -0.3135c 0.285 0.0095 0.741 0.019 1.121 0.019c 0.38 0 0.665 -0.0095 0.95 -0.019c 0.057 0.057 0.057 0.2565 0 0.3135c -0.4845 0.0475 -0.5795 0.0855 -0.5795 0.8645v 2.0615c 0 0.2945 0.0285 0.4845 0.399 0.4845h 1.1495c 0.3515 0 0.4085 -0.1045 0.4085 -0.4845v -2.0615c 0 -0.779 -0.095 -0.8265 -0.589 -0.8645c -0.0475 -0.057 -0.0475 -0.2565 0 -0.3135c 0.2375 0.0095 0.589 0.019 0.969 0.019c 0.38 0 0.8075 -0.0095 1.0735 -0.019c 0.0475 0.057 0.0475 0.2565 0 0.3135c -0.6175 0.038 -0.703 0.0855 -0.703 0.8645v 1.7575c 0 0.779 0.1235 0.8265 0.646 0.8645c 0.057 0.057 0.057 0.2565 0 0.3135c -0.285 -0.0095 -0.646 -0.019 -1.026 -0.019Z "/></symbol></defs></svg>