<svg viewBox="0 0 297.209602362 238.085675197" width="297.209602362pt" height="238.085675197pt" xmlns="http://www.w3.org/2000/svg" xmlns:xlink="http://www.w3.org/1999/xlink" xmlns:h5="http://www.w3.org/1999/xhtml"><path fill="#ffffff" fill-rule="nonzero" d="M 0 0v 238.085675197h 297.209602362v -238.085675197Z "/><g transform="translate(8 8)"><path fill="none" stroke="#1a1a18" stroke-width="1.7" stroke-linecap="butt" stroke-linejoin="miter" stroke-miterlimit="4" transform="translate(248.081877953 41.981893701)" d="M 0 0m 0 119.05511811v -119.05511811"/><path fill="none" stroke="#a29b8c" stroke-width="0.6" stroke-linecap="butt" stroke-linejoin="miter" stroke-miterlimit="4" transform="translate(248.081877953 153.666933071)" d="M 0 0m 0 7.37007874l 7.937007874 -7.37007874"/><path fill="none" stroke="#a29b8c" stroke-width="0.6" stroke-linecap="butt" stroke-linejoin="miter" stroke-miterlimit="4" transform="translate(248.081877953 139.493704724)" d="M 0 0m 0 7.37007874l 7.937007874 -7.37007874"/><path fill="none" stroke="#a29b8c" stroke-width="0.6" stroke-linecap="butt" stroke-linejoin="miter" stroke-miterlimit="4" transform="translate(248.081877953 125.320476378)" d="M 0 0m 0 7.37007874l 7.937007874 -7.37007874"/><path fill="none" stroke="#a29b8c" stroke-width="0.6" stroke-linecap="butt" stroke-linejoin="miter" stroke-miterlimit="4" transform="translate(248.081877953 111.147248031)" d="M 0 0m 0 7.37007874l 7.937007874 -7.37007874"/><path fill="none" stroke="#a29b8c" stroke-width="0.6" stroke-linecap="butt" stroke-linejoin="miter" stroke-miterlimit="4" transform="translate(248.081877953 96.974019685)" d="M 0 0m 0 7.37007874l 7.937007874 -7.37007874"/><path fill="none" stroke="#a29b8c" stroke-width="0.6" stroke-linecap="butt" stroke-linejoin="miter" stroke-miterlimit="4" transform="translate(248.081877953 82.800791339)" d="M 0 0m 0 7.37007874l 7.937007874 -7.37007874"/><path fill="none" stroke="#a29b8c" stroke-width="0.6" stroke-linecap="butt" stroke-linejoin="miter" stroke-miterlimit="4" transform="translate(248.081877953 68.627562992)" d="M 0 0m 0 7.37007874l 7.937007874 -7.37007874"/><path fill="none" stroke="#a29b8c" stroke-width="0.6" stroke-linecap="butt" stroke-linejoin="miter" stroke-miterlimit="4" transform="translate(248.081877953 54.454334646)" d="M 0 0m 0 7.37007874l 7.937007874 -7.37007874"/><path fill="none" stroke="#a29b8c" stroke-width="0.6" stroke-linecap="butt" stroke-linejoin="miter" stroke-miterlimit="4" transform="translate(248.081877953 40.281106299)" d="M 0 0m 0 7.37007874l 7.937007874 -7.37007874"/><path fill="none" transform="translate(258.286602362 38.399964567)" d="M 0 0h 22.923v 6.03h -22.923v -6.03Z "/><g transform="translate(258.28660222 38.399964425)"><g transform="matrix(1 0 0 -1 0 5.922)"><use xlink:href="#g7815E2C79248546AAEE49EC7F57ADD4E" x="0" y="0" fill="#7c7f6a" fill-rule="nonzero"/><use xlink:href="#gAE9E23F53692F92B7B295E455DF99330" x="3.852" y="0" fill="#7c7f6a" fill-rule="nonzero"/><use xlink:href="#gB118266EF18AECCCCEF724ECE6F3D1D3" x="8.37" y="0" fill="#7c7f6a" fill-rule="nonzero"/><use xlink:href="#g7253BD4F4A12C91ABC7B03558525FA66" x="13.113" y="0" fill="#7c7f6a" fill-rule="nonzero"/><use xlink:href="#g5F2B105DCE44482CD07DFE0B4651B637" x="17.649" y="0" fill="#7c7f6a" fill-rule="nonzero"/></g></g><path fill="none" stroke="#a29b8c" stroke-width="0.5" stroke-linecap="butt" stroke-linejoin="miter" stroke-miterlimit="4" stroke-dashoffset="0" stroke-dasharray="0.5 2" transform="translate(12.806287402 101.509452756)" d="M 0 0h 235.275590551"/><path fill="#1a1a18" fill-rule="nonzero" transform="translate(8.270854331 96.974019685)" d="M 0 0m 4.535433071 0c -2.502579402 0 -4.535433071 2.032853669 -4.535433071 4.535433071c 0 2.502579402 2.032853669 4.535433071 4.535433071 4.535433071c 2.502579402 0 4.535433071 -2.032853669 4.535433071 -4.535433071c 0 -2.502579402 -2.032853669 -4.535433071 -4.535433071 -4.535433071Z "/><path fill="none" transform="translate(0 112.547681102)" d="M 0 0h 11.1055v 6.27h -11.1055v -6.27Z "/><g transform="translate(-1.26e-7 112.547681055)"><g transform="matrix(1 0 0 -1 0 6.251)"><use xlink:href="#gF1C320A4506B818F6BCB8CDA11A2DE6" x="0" y="0" fill="#1a1a18" fill-rule="nonzero"/><use xlink:href="#g15DE86D891118100C568580819B789B3" x="4.2275" y="0" fill="#1a1a18" fill-rule="nonzero"/></g></g><path fill="none" stroke="#1a1a18" stroke-width="0.8" stroke-linecap="butt" stroke-linejoin="miter" stroke-miterlimit="4" transform="translate(47.549720441 72.356251058)" d="M 0 0m 0 58.30640365c 14.147863597 -16.86076727 14.147863597 -41.445636381 0 -58.30640365"/><path fill="none" stroke="#1a1a18" stroke-width="0.8" stroke-linecap="butt" stroke-linejoin="miter" stroke-miterlimit="4" transform="translate(64.921436819 57.779649926)" d="M 0 0m 0 87.459605475c 21.221795396 -25.291150904 21.221795396 -62.168454571 0 -87.459605475"/><path fill="none" stroke="#1a1a18" stroke-width="0.8" stroke-linecap="butt" stroke-linejoin="miter" stroke-miterlimit="4" transform="translate(82.29315348 43.203049077)" d="M 0 0m 0 116.612807301c 28.295727194 -33.721534539 28.295727194 -82.891272762 0 -116.612807301"/><path fill="none" transform="translate(18.47557874 41.658862205)" d="M 0 0h 31.82v 9.15h -31.82v -9.15Z "/><g transform="translate(18.475578724 41.658862157)"><g transform="matrix(1 0 0 -1 0 6.83)"><use xlink:href="#gE2723647FFCFE887839C6909BF8FF8CF" x="0" y="0" fill="#1a1a18" fill-rule="nonzero"/><use xlink:href="#g43B4DCD2F8848462ADFC1E372BCC35" x="4.36" y="0" fill="#1a1a18" fill-rule="nonzero"/><use xlink:href="#gAE0CEE16EDC8917D22527502B2399974" x="9.15" y="0" fill="#1a1a18" fill-rule="nonzero"/><use xlink:href="#g1E1CCF3C3F9C9FC6D96E38E66EA39633" x="14.3" y="0" fill="#1a1a18" fill-rule="nonzero"/></g><g transform="matrix(1 0 0 -1 21.82 6.83)"><use xlink:href="#gABDDB2F13393EFB0B3C2622E4B2BF69D" x="0" y="0" fill="#1a1a18" fill-rule="nonzero"/></g></g><path fill="none" stroke="#7c7f6a" stroke-width="0.8" stroke-linecap="butt" stroke-linejoin="miter" stroke-miterlimit="4" transform="translate(202.727547215 72.356250803)" d="M 0 0m 10.610897698 0c -14.147863597 16.86076727 -14.147863597 41.445636381 0 58.30640365"/><path fill="none" stroke="#7c7f6a" stroke-width="0.8" stroke-linecap="butt" stroke-linejoin="miter" stroke-miterlimit="4" transform="translate(180.050381989 57.77965011)" d="M 0 0m 15.916346547 0c -21.221795396 25.291150904 -21.221795396 62.168454571 0 87.459605475"/><path fill="none" transform="translate(151.653059055 147.650751969)" d="M 0 0h 26.98v 6.93h -26.98v -6.93Z "/><g transform="translate(151.653058976 147.650751827)"><g transform="matrix(1 0 0 -1 0 6.83)"><use xlink:href="#gFE4669780CEC7F261CF12870A3DD5FF7" x="0" y="0" fill="#7c7f6a" fill-rule="nonzero"/></g><g transform="matrix(1 0 0 -1 10 6.83)"><use xlink:href="#gB68FB21DD18C0A50BE8F6610A425E13F" x="2.5" y="0" fill="#7c7f6a" fill-rule="nonzero"/><use xlink:href="#g61DDF77DF0A8DDB188082107E5AAA9C1" x="7.04" y="0" fill="#7c7f6a" fill-rule="nonzero"/><use xlink:href="#gF91E605A926A6829D0875F26DD95556B" x="11.94" y="0" fill="#7c7f6a" fill-rule="nonzero"/></g></g><path fill="none" stroke="#a29b8c" stroke-width="0.7" stroke-linecap="butt" stroke-linejoin="miter" stroke-miterlimit="4" transform="translate(13.506287402 204.974019685)" d="M 0 0h 233.875590551"/><path fill="#a29b8c" fill-rule="nonzero" stroke="#a29b8c" stroke-width="0.7" stroke-linecap="butt" stroke-linejoin="miter" stroke-miterlimit="4" transform="translate(13.156287339 203.911027559)" d="M 0 0m 0 2.125984252v -2.125984252"/><path fill="#a29b8c" fill-rule="nonzero" stroke="#a29b8c" stroke-width="0.7" stroke-linecap="butt" stroke-linejoin="miter" stroke-miterlimit="4" transform="translate(247.731878016 203.911027559)" d="M 0 0v 2.125984252"/><path fill="none" transform="translate(103.844082677 213.374175197)" d="M 0 0h 53.2v 8.7115h -53.2v -8.7115Z "/><g transform="translate(103.844082646 213.374175071)"><g transform="matrix(1 0 0 -1 0 6.4885)"><use xlink:href="#g5B0FB9F727640150CA57389F67238C5A" x="0" y="0" fill="#1a1a18" fill-rule="nonzero"/><use xlink:href="#g30F02AEBABA7D40FC17FCA43D8EB3DAA" x="4.9305" y="0" fill="#1a1a18" fill-rule="nonzero"/><use xlink:href="#g966D14D99AB05D933C4957B2E7FE95D9" x="9.272" y="0" fill="#1a1a18" fill-rule="nonzero"/><use xlink:href="#g966D14D99AB05D933C4957B2E7FE95D9" x="13.338" y="0" fill="#1a1a18" fill-rule="nonzero"/><use xlink:href="#gF1C320A4506B818F6BCB8CDA11A2DE6" x="17.404" y="0" fill="#1a1a18" fill-rule="nonzero"/><use xlink:href="#gC110FFC20529D78AB6B9724BF2D3193A" x="21.6315" y="0" fill="#1a1a18" fill-rule="nonzero"/><use xlink:href="#g5AAEF493CBDA45024F82AC9E8378049F" x="26.4195" y="0" fill="#1a1a18" fill-rule="nonzero"/><use xlink:href="#g111F480562FE960BC5F50C637F145B12" x="30.989" y="0" fill="#1a1a18" fill-rule="nonzero"/><use xlink:href="#g30870B079B88F136C2A9AD2E2890E4EB" x="36.556" y="0" fill="#1a1a18" fill-rule="nonzero"/><use xlink:href="#gA3A5C9019285A4C81365474C03E3CF4E" x="42.123" y="0" fill="#1a1a18" fill-rule="nonzero"/></g><g transform="matrix(1 0 0 -1 48.7445 6.4885)"><use xlink:href="#g5CB7032DC72D9353A416002EDBBDF022" x="0" y="0" fill="#1a1a18" fill-rule="nonzero"/></g></g><path fill="none" transform="translate(86.345193788 17.554374016)" d="M 0 0h 88.197777778v 9.17h -88.197777778v -9.17Z "/><g transform="translate(86.345193717 17.554373906)"><g transform="matrix(1 0 0 -1 0 6.83)"><use xlink:href="#gF7E2F11D9500E34CEB199CAED225F368" x="0" y="0" fill="#1a1a18" fill-rule="nonzero"/><use xlink:href="#gAE0CEE16EDC8917D22527502B2399974" x="4.45" y="0" fill="#1a1a18" fill-rule="nonzero"/><use xlink:href="#g829D75AC8F1C9E46EE8828572BC54649" x="9.6" y="0" fill="#1a1a18" fill-rule="nonzero"/><use xlink:href="#g7D7A5D08C55ACC07707850317A5B7900" x="14.98" y="0" fill="#1a1a18" fill-rule="nonzero"/><use xlink:href="#g3730A52707D5D005176FA819A7950DF6" x="22.05" y="0" fill="#1a1a18" fill-rule="nonzero"/><use xlink:href="#gF91E605A926A6829D0875F26DD95556B" x="30.41" y="0" fill="#1a1a18" fill-rule="nonzero"/><use xlink:href="#gEE6BFED97EAD66B608F348D718695C96" x="35.45" y="0" fill="#1a1a18" fill-rule="nonzero"/><use xlink:href="#g8F03A4AE8D3B195D4882A1755C55580A" x="40.34" y="0" fill="#1a1a18" fill-rule="nonzero"/><use xlink:href="#g7D7A5D08C55ACC07707850317A5B7900" x="45.53" y="0" fill="#1a1a18" fill-rule="nonzero"/><use xlink:href="#gF7E2F11D9500E34CEB199CAED225F368" x="50.1" y="0" fill="#1a1a18" fill-rule="nonzero"/><use xlink:href="#gD51468542432F864548926048E523B26" x="54.55" y="0" fill="#1a1a18" fill-rule="nonzero"/><use xlink:href="#gF91E605A926A6829D0875F26DD95556B" x="60.41" y="0" fill="#1a1a18" fill-rule="nonzero"/></g><g transform="matrix(1 0 0 -1 67.95 6.83)"><use xlink:href="#g7679559C61795D4B2FBCEF1D6942AEE" x="0" y="0" fill="#1a1a18" fill-rule="nonzero"/></g><g transform="matrix(1 0 0 -1 78.507777778 6.83)"><use xlink:href="#g187F960CD8D343F130EAFAB63E4BE0DE" x="0" y="0" fill="#1a1a18" fill-rule="nonzero"/></g><g transform="matrix(1 0 0 -1 83.507777778 6.83)"><use xlink:href="#gF4CD91EA33E4EF5FC705244CCDD5E1CB" x="0" y="0" fill="#1a1a18" fill-rule="nonzero"/></g></g><path fill="none" transform="translate(73.862527122)" d="M 0 0h 113.163111111v 10.263h -113.163111111v -10.263Z "/><g transform="translate(73.862527071 -9.4e-8)"><g transform="matrix(1 0 0 -1 0 7.513)"><use xlink:href="#gCB4E91739EACE7368E3223F2D0EF6CCC" x="0" y="0" fill="#1a1a18" fill-rule="nonzero"/></g><g transform="matrix(1 0 0 -1 8.214555556 7.513)"><use xlink:href="#g2389F7618E8CE27CC7151A1D8E5DEAD4" x="0" y="0" fill="#1a1a18" fill-rule="nonzero"/></g><g transform="matrix(1 0 0 -1 19.828111111 7.513)"><use xlink:href="#g46F76533A45DB4C11A9843577693DDC7" x="0" y="0" fill="#1a1a18" fill-rule="nonzero"/></g><g transform="matrix(1 0 0 -1 27.728555556 7.513)"><use xlink:href="#g72FDBB830EBBF5B5860CF87A1202F235" x="0" y="0" fill="#1a1a18" fill-rule="nonzero"/></g><g transform="matrix(1 0 0 -1 33.231 7.513)"><use xlink:href="#g293C48F3C6D5CEB2943C0E5CE10C76D3" x="0" y="0" fill="#1a1a18" fill-rule="nonzero"/></g><g transform="matrix(1 0 0 -1 37.202 7.513)"><use xlink:href="#gC8E5BAA56C45C80D9D0C0359A164D41D" x="0" y="0" fill="#1a1a18" fill-rule="nonzero"/></g><g transform="matrix(1 0 0 -1 42.702 7.513)"><use xlink:href="#g847DCE2A3EE7D23E3D551BDE0EE8A683" x="0" y="0" fill="#1a1a18" fill-rule="nonzero"/></g><g transform="matrix(1 0 0 -1 58.102 7.513)"><use xlink:href="#g46F76533A45DB4C11A9843577693DDC7" x="0" y="0" fill="#1a1a18" fill-rule="nonzero"/></g><g transform="matrix(1 0 0 -1 66.613555556 7.513)"><use xlink:href="#gC5C01FB63F6F7D49E573045327DC96B7" x="0" y="0" fill="#1a1a18" fill-rule="nonzero"/></g><g transform="matrix(1 0 0 -1 78.172111111 7.513)"><use xlink:href="#g93E2B88EAD8DFDF0BE4D6467DB923DB5" x="0" y="0" fill="#1a1a18" fill-rule="nonzero"/></g><g transform="matrix(1 0 0 -1 83.672111111 7.513)"><use xlink:href="#gAE482DA578200FA3765B7A490E273D69" x="0" y="0" fill="#1a1a18" fill-rule="nonzero"/></g><g transform="matrix(1 0 0 -1 89.172111111 7.513)"><use xlink:href="#g5DF7FDD026DB928A9BECE5CB45FEF99F" x="0" y="0" fill="#1a1a18" fill-rule="nonzero"/></g><g transform="matrix(1 0 0 -1 94.672111111 7.513)"><use xlink:href="#gC41E68D13CD2D89F8393103AB3EAC5B6" x="2.75" y="0" fill="#1a1a18" fill-rule="nonzero"/><use xlink:href="#g3677516F5FB0F47B6A7F45B7C48864AF" x="10.23" y="0" fill="#1a1a18" fill-rule="nonzero"/><use xlink:href="#g22944FDC578D55E265077E284016F45D" x="13.783" y="0" fill="#1a1a18" fill-rule="nonzero"/></g></g></g><defs><symbol id="g7815E2C79248546AAEE49EC7F57ADD4E" overflow="visible"><path d="M 0 0m 3.582 0.819c -0.036 0.081 -0.108 0.117 -0.189 0.126c -0.306 -0.396 -0.693 -0.594 -1.08 -0.594c -0.657 0 -1.206 0.666 -1.206 1.719c 0 0.99 0.432 1.584 1.026 1.584c 0.531 0 0.603 -0.315 0.639 -0.63c 0.027 -0.243 0.153 -0.324 0.342 -0.324c 0.189 0 0.441 0.117 0.441 0.396c 0 0.495 -0.513 0.855 -1.377 0.855c -0.891 0 -1.845 -0.801 -1.845 -2.079c 0 -1.161 0.648 -1.962 1.782 -1.962c 0.54 0 1.017 0.171 1.467 0.909Z "/></symbol><symbol id="gAE9E23F53692F92B7B295E455DF99330" overflow="visible"><path d="M 0 0m 3.474 0c 0 0 0.702 -0.009 0.882 -0.018c 0.054 0.054 0.054 0.243 0 0.297c -0.351 0.018 -0.423 0.09 -0.576 0.378l -0.405 0.765c -0.225 0.423 -0.54 0.639 -1.053 0.639v 0.027c 0.351 0.099 0.504 0.414 0.639 0.774c 0.108 0.279 0.216 0.45 0.405 0.45c 0.081 0 0.153 -0.027 0.207 -0.063c 0.054 -0.036 0.153 -0.063 0.27 -0.063c 0.198 0 0.36 0.171 0.36 0.351c 0 0.198 -0.216 0.405 -0.513 0.405c -0.522 0 -0.765 -0.486 -0.936 -0.909c -0.198 -0.495 -0.441 -0.837 -1.08 -0.837v 0.567c 0 0.747 0.099 0.774 0.558 0.819c 0.054 0.054 0.054 0.243 0 0.297c -0.216 -0.009 -0.558 -0.018 -0.918 -0.018c -0.387 0 -0.702 0.009 -0.999 0.018c -0.054 -0.054 -0.054 -0.243 0 -0.297c 0.549 -0.036 0.648 -0.072 0.648 -0.819v -1.665c 0 -0.747 -0.099 -0.774 -0.648 -0.819c -0.054 -0.054 -0.054 -0.243 0 -0.297c 0.297 0.009 0.612 0.018 1.008 0.018c 0.351 0 0.711 -0.009 0.909 -0.018c 0.054 0.054 0.054 0.243 0 0.297c -0.459 0.036 -0.558 0.072 -0.558 0.819v 0.783c 0.612 -0.036 0.774 -0.279 0.936 -0.612l 0.387 -0.81c 0.117 -0.243 0.297 -0.45 0.477 -0.459Z "/></symbol><symbol id="gB118266EF18AECCCCEF724ECE6F3D1D3" overflow="visible"><path d="M 0 0m 3.762 1.098v 1.665c 0 0.738 0.117 0.783 0.612 0.819c 0.054 0.054 0.054 0.243 0 0.297c -0.27 -0.009 -0.612 -0.018 -0.972 -0.018h -1.701c -0.297 0 -0.648 0.009 -0.918 0.018c -0.054 -0.054 -0.054 -0.243 0 -0.297c 0.639 -0.045 0.729 -0.099 0.729 -1.071c 0 -0.945 -0.072 -1.44 -0.198 -1.809c -0.117 -0.324 -0.27 -0.441 -0.423 -0.441c -0.117 0 -0.153 0.072 -0.171 0.189c -0.027 0.171 -0.081 0.342 -0.333 0.342c -0.225 0 -0.351 -0.18 -0.351 -0.378c 0 -0.279 0.252 -0.522 0.666 -0.522c 0.459 0 0.711 0.234 0.918 0.72c 0.18 0.432 0.234 1.35 0.234 1.962c 0 0.702 0.027 0.936 0.387 0.936h 0.405c 0.342 0 0.405 -0.216 0.405 -0.522v -1.89c 0 -0.738 -0.09 -0.783 -0.558 -0.819c -0.045 -0.054 -0.045 -0.243 0 -0.297c 0.225 0.009 0.558 0.018 0.918 0.018c 0.36 0 0.765 -0.009 1.017 -0.018c 0.045 0.054 0.045 0.243 0 0.297c -0.585 0.036 -0.666 0.081 -0.666 0.819Z "/></symbol><symbol id="g7253BD4F4A12C91ABC7B03558525FA66" overflow="visible"><path d="M 0 0m 0.369 1.845c 0 -0.918 0.612 -1.935 1.89 -1.935c 0.576 0 1.017 0.207 1.323 0.504c 0.405 0.396 0.585 0.963 0.585 1.512c 0 0.936 -0.513 2.025 -1.89 2.025c -0.594 0 -1.08 -0.243 -1.413 -0.63c -0.324 -0.387 -0.495 -0.909 -0.495 -1.476Z m 1.773 1.791c 0.774 0 1.251 -0.702 1.251 -1.998c 0 -1.134 -0.585 -1.413 -1.008 -1.413c -0.936 0 -1.242 1.134 -1.242 1.827c 0 0.783 0.189 1.584 0.999 1.584Z "/></symbol><symbol id="g5F2B105DCE44482CD07DFE0B4651B637" overflow="visible"><path d="M 0 0m 4.311 2.763c 0 0.747 0.099 0.774 0.648 0.819c 0.054 0.054 0.054 0.243 0 0.297c -0.315 -0.018 -0.711 -0.018 -1.008 -0.018c -0.252 0 -0.612 0.009 -0.963 0.018c -0.054 -0.054 -0.054 -0.243 0 -0.297c 0.549 -0.036 0.612 -0.072 0.612 -0.819v -0.585h -1.926v 0.585c 0 0.747 0.063 0.774 0.612 0.819c 0.054 0.054 0.054 0.243 0 0.297c -0.342 -0.009 -0.684 -0.018 -0.972 -0.018c -0.27 0 -0.639 0.009 -0.999 0.018c -0.054 -0.054 -0.054 -0.243 0 -0.297c 0.549 -0.036 0.648 -0.072 0.648 -0.819v -1.665c 0 -0.747 -0.099 -0.774 -0.648 -0.819c -0.054 -0.054 -0.054 -0.243 0 -0.297c 0.36 0.009 0.72 0.018 1.008 0.018c 0.288 0 0.639 -0.009 0.963 -0.018c 0.054 0.054 0.054 0.243 0 0.297c -0.549 0.036 -0.612 0.072 -0.612 0.819v 0.783h 1.926v -0.783c 0 -0.747 -0.063 -0.774 -0.612 -0.819c -0.054 -0.054 -0.054 -0.243 0 -0.297c 0.324 0.009 0.657 0.018 0.972 0.018c 0.27 0 0.648 -0.009 0.999 -0.018c 0.054 0.054 0.054 0.243 0 0.297c -0.549 0.036 -0.648 0.072 -0.648 0.819Z "/></symbol><symbol id="gF1C320A4506B818F6BCB8CDA11A2DE6" overflow="visible"><path d="M 0 0m 1.729 1.159c 0 -0.7885 -0.1045 -0.836 -0.684 -0.8645c -0.057 -0.057 -0.057 -0.2565 0 -0.3135c 0.3705 0.0095 0.7505 0.019 1.064 0.019c 0.323 0 0.6935 -0.0095 1.0545 -0.019c 0.057 0.057 0.057 0.2565 0 0.3135c -0.5795 0.0285 -0.684 0.076 -0.684 0.8645v 2.565h 0.1615c 0.7695 0 0.9215 -0.266 1.083 -1.0355c 0.1235 0 0.247 0.038 0.247 0.038c -0.057 0.437 -0.095 0.855 -0.1045 1.406c -0.2185 -0.019 -0.931 -0.057 -1.406 -0.057h -0.7125c -0.475 0 -1.007 0.0285 -1.387 0.057c -0.0095 -0.551 -0.0475 -0.969 -0.114 -1.406c 0 0 0.133 -0.038 0.2565 -0.038c 0.1615 0.7695 0.304 1.0355 1.083 1.0355h 0.1425Z "/></symbol><symbol id="g15DE86D891118100C568580819B789B3" overflow="visible"><path d="M 0 0m 1.767 2.907c 0 0.798 0.1045 0.8265 0.684 0.874c 0.057 0.057 0.057 0.2565 0 0.3135c -0.323 -0.0095 -0.646 -0.019 -1.064 -0.019c -0.4085 0 -0.741 0.0095 -1.0545 0.019c -0.057 -0.057 -0.057 -0.2565 0 -0.3135c 0.5795 -0.038 0.684 -0.076 0.684 -0.8645v -1.7575c 0 -0.7885 -0.1045 -0.817 -0.684 -0.8645c -0.057 -0.057 -0.057 -0.2565 0 -0.3135c 0.3135 0.0095 0.646 0.019 1.064 0.019c 0.3895 0 0.5985 -0.019 0.988 -0.019c 1.1685 0 1.805 0.2945 1.805 1.311c 0 0.893 -0.779 1.1495 -1.7385 1.1495h -0.684Z m 4.0945 0.0095c 0 0.7885 0.1045 0.817 0.684 0.8645c 0.057 0.057 0.057 0.2565 0 0.3135c -0.323 -0.0095 -0.646 -0.019 -1.064 -0.019c -0.4085 0 -0.741 0.0095 -1.0545 0.019c -0.057 -0.057 -0.057 -0.2565 0 -0.3135c 0.5795 -0.038 0.684 -0.076 0.684 -0.8645v -1.7575c 0 -0.7885 -0.1045 -0.817 -0.684 -0.8645c -0.057 -0.057 -0.057 -0.2565 0 -0.3135c 0.3135 0.0095 0.646 0.019 1.064 0.019c 0.4085 0 0.7505 -0.0095 1.0545 -0.019c 0.057 0.057 0.057 0.2565 0 0.3135c -0.5795 0.038 -0.684 0.076 -0.684 0.8645Z m -2.489 -1.7195c 0 -0.779 -0.475 -0.9025 -0.9785 -0.9025c -0.4655 0 -0.627 0.095 -0.627 0.4275v 1.406h 0.6745c 0.7125 0 0.931 -0.4275 0.931 -0.931Z "/></symbol><symbol id="gE2723647FFCFE887839C6909BF8FF8CF" overflow="visible"><path d="M 0 0m 0.43 0.83c 0 -0.22 0.13 -0.38 0.34 -0.54c 0.25 -0.18 0.58 -0.39 1.37 -0.39c 1 0 1.78 0.3 1.78 1.29c 0 0.6 -0.3 1 -1.01 1.12v 0.03c 0.61 0.23 0.77 0.51 0.77 1.03c 0 0.58 -0.4 1.02 -1.41 1.02c -0.53 0 -1 -0.19 -1.54 -0.28l -0.13 -1.19c 0.08 -0.04 0.18 -0.05 0.27 -0.04c 0.19 0.58 0.44 1.16 1.28 1.16c 0.55 0 0.73 -0.33 0.73 -0.73c 0 -0.41 -0.07 -0.89 -0.71 -0.89c -0.19 0 -0.36 0.06 -0.55 0.06c -0.09 0 -0.19 -0.06 -0.19 -0.22c 0 -0.16 0.11 -0.21 0.2 -0.21c 0.19 0 0.3 0.06 0.55 0.06c 0.74 0 0.88 -0.51 0.88 -0.95c 0 -0.59 -0.22 -0.91 -0.93 -0.91c -0.57 0 -0.67 0.21 -0.84 0.57c -0.08 0.18 -0.19 0.32 -0.45 0.32c -0.18 0 -0.41 -0.15 -0.41 -0.31Z "/></symbol><symbol id="g43B4DCD2F8848462ADFC1E372BCC35" overflow="visible"><path d="M 0 0m 1.46 4.29c -0.43 0 -0.78 0.01 -1.11 0.02c -0.06 -0.06 -0.06 -0.27 0 -0.33c 0.61 -0.04 0.72 -0.08 0.72 -0.91v -1.85c 0 -0.83 -0.11 -0.86 -0.72 -0.91c -0.06 -0.06 -0.06 -0.27 0 -0.33c 0.33 0.01 0.68 0.02 1.12 0.02c 0.37 0 0.7 -0.02 1.37 -0.02c 0.86 0 1.51 0.24 1.51 1.23c 0 0.56 -0.35 0.95 -0.96 1.06v 0.03c 0.46 0.09 0.81 0.41 0.81 1.01c 0 0.7 -0.43 1 -1.64 1c -0.41 0 -0.67 -0.02 -1.1 -0.02Z m 0.4 -2.12h 0.76c 0.61 0 0.87 -0.4 0.87 -1c 0 -0.67 -0.38 -0.86 -0.92 -0.86c -0.52 0 -0.71 0.09 -0.71 0.55Z m 0 0.29v 1.16c 0 0.3 0.23 0.36 0.71 0.36c 0.52 0 0.83 -0.14 0.83 -0.74c 0 -0.4 -0.26 -0.78 -0.88 -0.78Z "/></symbol><symbol id="gAE0CEE16EDC8917D22527502B2399974" overflow="visible"><path d="M 0 0m 2.04 -1.6c 0.16 0.28 0.29 0.56 0.41 0.86c 0.8 1.93 1.25 2.96 1.77 4.08c 0.2 0.42 0.34 0.58 0.81 0.64c 0.06 0.06 0.06 0.27 0 0.33c -0.2 -0.01 -0.43 -0.02 -0.71 -0.02c -0.3 0 -0.61 0.01 -0.91 0.02c -0.06 -0.06 -0.06 -0.27 0 -0.33c 0.32 -0.03 0.64 -0.09 0.48 -0.45l -0.99 -2.29c -0.07 -0.16 -0.16 -0.19 -0.24 0.01l -0.89 2.08c -0.18 0.42 -0.23 0.61 0.33 0.65c 0.06 0.06 0.06 0.27 0 0.33c -0.37 -0.01 -0.77 -0.02 -1.13 -0.02c -0.34 0 -0.61 0.01 -0.81 0.02c -0.06 -0.06 -0.06 -0.27 0 -0.33c 0.4 -0.05 0.53 -0.14 0.79 -0.75l 1.13 -2.63c 0.09 -0.2 0.24 -0.66 0.14 -0.94c -0.12 -0.33 -0.24 -0.61 -0.39 -0.92c -0.11 -0.2 -0.25 -0.29 -0.5 -0.29c -0.14 0 -0.18 0.03 -0.29 0.03c -0.29 0 -0.44 -0.3 -0.44 -0.43c 0 -0.21 0.2 -0.37 0.47 -0.37c 0.21 0 0.61 0.08 0.97 0.72Z "/></symbol><symbol id="g1E1CCF3C3F9C9FC6D96E38E66EA39633" overflow="visible"><path d="M 0 0m 3.86 0c 0 0 0.78 -0.01 0.98 -0.02c 0.06 0.06 0.06 0.27 0 0.33c -0.39 0.02 -0.47 0.1 -0.64 0.42l -0.45 0.85c -0.25 0.47 -0.6 0.71 -1.17 0.71v 0.03c 0.39 0.11 0.56 0.46 0.71 0.86c 0.12 0.31 0.24 0.5 0.45 0.5c 0.09 0 0.17 -0.03 0.23 -0.07c 0.06 -0.04 0.17 -0.07 0.3 -0.07c 0.22 0 0.4 0.19 0.4 0.39c 0 0.22 -0.24 0.45 -0.57 0.45c -0.58 0 -0.85 -0.54 -1.04 -1.01c -0.22 -0.55 -0.49 -0.93 -1.2 -0.93v 0.63c 0 0.83 0.11 0.86 0.62 0.91c 0.06 0.06 0.06 0.27 0 0.33c -0.24 -0.01 -0.62 -0.02 -1.02 -0.02c -0.43 0 -0.78 0.01 -1.11 0.02c -0.06 -0.06 -0.06 -0.27 0 -0.33c 0.61 -0.04 0.72 -0.08 0.72 -0.91v -1.85c 0 -0.83 -0.11 -0.86 -0.72 -0.91c -0.06 -0.06 -0.06 -0.27 0 -0.33c 0.33 0.01 0.68 0.02 1.12 0.02c 0.39 0 0.79 -0.01 1.01 -0.02c 0.06 0.06 0.06 0.27 0 0.33c -0.51 0.04 -0.62 0.08 -0.62 0.91v 0.87c 0.68 -0.04 0.86 -0.31 1.04 -0.68l 0.43 -0.9c 0.13 -0.27 0.33 -0.5 0.53 -0.51Z "/></symbol><symbol id="gABDDB2F13393EFB0B3C2622E4B2BF69D" overflow="visible"><path d="M 0 0m 9.32 2.34c 0.07 0.03 0.11 0.09 0.11 0.16c 0 0.07 -0.04 0.13 -0.11 0.16c -0.48 0.16 -0.93 0.5 -1.35 1.02c -0.28 0.35 -0.47 0.76 -0.56 1.23c -0.03 0.13 -0.11 0.19 -0.24 0.19c -0.16 0 -0.24 -0.08 -0.24 -0.25l 0.01 -0.02v -0.01c 0.17 -0.87 0.61 -1.56 1.34 -2.08h -7.46c -0.16 0 -0.24 -0.08 -0.24 -0.24c 0 -0.16 0.08 -0.24 0.24 -0.24h 7.46c -0.73 -0.52 -1.17 -1.21 -1.34 -2.08v -0.01l -0.01 -0.02c 0 -0.17 0.08 -0.25 0.24 -0.25c 0.13 0 0.21 0.06 0.24 0.19c 0.09 0.47 0.28 0.88 0.56 1.23c 0.42 0.52 0.87 0.86 1.35 1.02Z "/></symbol><symbol id="gFE4669780CEC7F261CF12870A3DD5FF7" overflow="visible"><path d="M 0 0m 9.18 2.74h -7.46c 0.73 0.52 1.17 1.21 1.34 2.08v 0.01l 0.01 0.02c 0 0.17 -0.08 0.25 -0.24 0.25c -0.13 0 -0.21 -0.06 -0.24 -0.19c -0.09 -0.47 -0.28 -0.88 -0.56 -1.23c -0.42 -0.52 -0.87 -0.86 -1.35 -1.02c -0.07 -0.03 -0.11 -0.09 -0.11 -0.16c 0 -0.07 0.04 -0.13 0.11 -0.16c 0.48 -0.16 0.93 -0.5 1.35 -1.02c 0.28 -0.35 0.47 -0.76 0.56 -1.23c 0.03 -0.13 0.11 -0.19 0.24 -0.19c 0.16 0 0.24 0.08 0.24 0.25l -0.01 0.02v 0.01c -0.17 0.87 -0.61 1.56 -1.34 2.08h 7.46c 0.16 0 0.24 0.08 0.24 0.24c 0 0.13 -0.11 0.24 -0.24 0.24Z "/></symbol><symbol id="gB68FB21DD18C0A50BE8F6610A425E13F" overflow="visible"><path d="M 0 0m 0.47 0.82c 0 -0.53 0.75 -0.92 1.71 -0.92c 1.04 0 2 0.7 2 2.31c 0 1.21 -0.55 2.18 -2.01 2.18c -0.5 0 -1.02 -0.15 -1.54 -0.19c -0.05 -0.38 -0.07 -0.79 -0.09 -1.2c 0.08 -0.05 0.16 -0.06 0.26 -0.04c 0.18 0.64 0.51 1.08 1.29 1.08c 0.84 0 1.25 -0.82 1.25 -1.74l -0.03 -0.02c -0.27 0.16 -0.55 0.28 -0.86 0.28c -0.23 0 -0.43 -0.07 -0.61 -0.15c -0.16 -0.07 -0.32 -0.13 -0.5 -0.13c -0.14 0 -0.27 0.06 -0.34 0.06c -0.06 0 -0.08 -0.1 -0.08 -0.14c 0 -0.14 0.49 -0.32 0.94 -0.32c 0.24 0 0.42 0.05 0.58 0.12c 0.14 0.06 0.29 0.1 0.48 0.1c 0.14 0 0.27 -0.04 0.4 -0.09c 0 -1.19 -0.37 -1.76 -1.26 -1.76c -0.42 0 -0.66 0.22 -0.79 0.49c -0.15 0.32 -0.29 0.37 -0.47 0.37c -0.19 0 -0.33 -0.13 -0.33 -0.29Z "/></symbol><symbol id="g61DDF77DF0A8DDB188082107E5AAA9C1" overflow="visible"><path d="M 0 0m 1.82 3.58c -0.23 0.34 -0.16 0.35 0.29 0.4c 0.06 0.06 0.06 0.27 0 0.33c -0.27 -0.01 -0.71 -0.02 -1.01 -0.02c -0.3 0 -0.6 0.01 -0.86 0.02c -0.06 -0.06 -0.06 -0.27 0 -0.33c 0.34 -0.03 0.62 -0.2 0.9 -0.61l 0.87 -1.27c 0.05 -0.07 0.05 -0.1 0.01 -0.15l -0.84 -1.08c -0.4 -0.51 -0.62 -0.54 -0.97 -0.56c -0.06 -0.06 -0.06 -0.27 0 -0.33c 0.2 0.01 0.42 0.02 0.72 0.02c 0.3 0 0.58 -0.01 0.84 -0.02c 0.06 0.06 0.06 0.27 0 0.33c -0.36 0.04 -0.44 0.08 -0.22 0.4l 0.63 0.91c 0.08 0.12 0.12 0.11 0.18 0.02l 0.58 -0.8c 0.35 -0.48 0.19 -0.5 -0.13 -0.53c -0.06 -0.06 -0.06 -0.27 0 -0.33c 0.3 0.01 0.63 0.02 0.99 0.02c 0.38 0 0.65 -0.01 0.89 -0.02c 0.06 0.06 0.06 0.27 0 0.33c -0.45 0.03 -0.6 0.06 -1 0.63l -0.9 1.27c -0.04 0.06 -0.05 0.09 0 0.15l 0.84 1.07c 0.37 0.47 0.61 0.52 0.97 0.55c 0.06 0.06 0.06 0.27 0 0.33c -0.2 -0.01 -0.43 -0.02 -0.73 -0.02c -0.3 0 -0.58 0.01 -0.84 0.02c -0.06 -0.06 -0.06 -0.27 0 -0.33c 0.37 -0.04 0.48 -0.07 0.24 -0.41l -0.65 -0.91c -0.07 -0.1 -0.11 -0.09 -0.19 0.02Z "/></symbol><symbol id="gF91E605A926A6829D0875F26DD95556B" overflow="visible"><path d="M 0 0m 0.41 2.05c 0 -1.02 0.68 -2.15 2.1 -2.15c 0.64 0 1.13 0.23 1.47 0.56c 0.45 0.44 0.65 1.07 0.65 1.68c 0 1.04 -0.57 2.25 -2.1 2.25c -0.66 0 -1.2 -0.27 -1.57 -0.7c -0.36 -0.43 -0.55 -1.01 -0.55 -1.64Z m 1.97 1.99c 0.86 0 1.39 -0.78 1.39 -2.22c 0 -1.26 -0.65 -1.57 -1.12 -1.57c -1.04 0 -1.38 1.26 -1.38 2.03c 0 0.87 0.21 1.76 1.11 1.76Z "/></symbol><symbol id="g5B0FB9F727640150CA57389F67238C5A" overflow="visible"><path d="M 0 0m 1.482 3.496c -0.0095 0.285 -0.0285 0.532 -0.076 0.627c -0.019 0.0475 -0.038 0.076 -0.114 0.076c -0.266 -0.1045 -0.513 -0.19 -1.1685 -0.2755c -0.019 -0.057 0 -0.209 0.019 -0.266c 0.513 -0.0475 0.6175 -0.095 0.6175 -0.646v -4.0565c 0 -0.7885 -0.1045 -0.836 -0.684 -0.8645c -0.057 -0.057 -0.057 -0.2565 0 -0.3135c 0.3325 0.0095 0.684 0.019 1.064 0.019c 0.38 0 0.836 -0.0095 1.1495 -0.019c 0.057 0.057 0.057 0.2565 0 0.3135c -0.6745 0.038 -0.779 0.076 -0.779 0.8645v 1.026c 0 0.1235 0.038 0.114 0.133 0.076c 0.2375 -0.095 0.5225 -0.152 0.8265 -0.152c 0.532 0 1.007 0.1615 1.3965 0.532c 0.4465 0.437 0.703 1.026 0.703 1.7955c 0 1.007 -0.7125 1.938 -1.6815 1.938c -0.437 0 -0.9215 -0.285 -1.3015 -0.7125c -0.057 -0.057 -0.095 -0.057 -0.1045 0.038Z m 0.1805 -0.3515c 0.247 0.304 0.684 0.589 0.9595 0.589c 0.608 0 1.1305 -0.684 1.1305 -1.7575c 0 -0.779 -0.2755 -1.748 -1.3395 -1.748c -0.171 0 -0.5035 0.0475 -0.6745 0.1995c -0.19 0.171 -0.228 0.228 -0.228 0.57v 1.729c 0 0.1995 0.038 0.285 0.152 0.418Z "/></symbol><symbol id="g30F02AEBABA7D40FC17FCA43D8EB3DAA" overflow="visible"><path d="M 0 0m 2.7835 0.456c 0.057 -0.2945 0.1615 -0.551 0.6365 -0.551c 0.361 0 0.703 0.1615 0.9025 0.3515c -0.019 0.114 -0.057 0.1995 -0.1615 0.2565c -0.0665 -0.057 -0.228 -0.152 -0.3515 -0.152c -0.2755 0 -0.285 0.3705 -0.285 0.8075v 1.3965c 0 1.349 -0.741 1.6055 -1.4345 1.6055c -0.779 0 -1.5675 -0.513 -1.5675 -1.0545c 0 -0.228 0.114 -0.342 0.3325 -0.342c 0.2755 0 0.4465 0.1995 0.4465 0.323c 0 0.0665 -0.0095 0.133 -0.0285 0.171c -0.0095 0.0285 -0.019 0.0855 -0.019 0.19c 0 0.2945 0.399 0.399 0.76 0.399c 0.323 0 0.7695 -0.1615 0.7695 -1.235c 0 -0.0665 -0.0285 -0.1045 -0.057 -0.114l -0.817 -0.1995c -0.912 -0.228 -1.5675 -0.7315 -1.5675 -1.3775c 0 -0.779 0.532 -1.026 1.197 -1.026c 0.3325 0 0.6175 0.076 1.0355 0.399l 0.19 0.152Z m 0 1.7575v -1.254c 0 -0.1235 -0.057 -0.19 -0.133 -0.247c -0.247 -0.1995 -0.57 -0.418 -0.836 -0.418c -0.475 0 -0.684 0.38 -0.684 0.6745c 0 0.4275 0.1995 0.8645 0.9025 1.045Z "/></symbol><symbol id="g966D14D99AB05D933C4957B2E7FE95D9" overflow="visible"><path d="M 0 0m 3.781 0.8645c -0.038 0.0855 -0.114 0.1235 -0.1995 0.133c -0.323 -0.418 -0.7315 -0.627 -1.14 -0.627c -0.6935 0 -1.273 0.703 -1.273 1.8145c 0 1.045 0.456 1.672 1.083 1.672c 0.5605 0 0.6365 -0.3325 0.6745 -0.665c 0.0285 -0.2565 0.1615 -0.342 0.361 -0.342c 0.1995 0 0.4655 0.1235 0.4655 0.418c 0 0.5225 -0.5415 0.9025 -1.4535 0.9025c -0.9405 0 -1.9475 -0.8455 -1.9475 -2.1945c 0 -1.2255 0.684 -2.071 1.881 -2.071c 0.57 0 1.0735 0.1805 1.5485 0.9595Z "/></symbol><symbol id="gC110FFC20529D78AB6B9724BF2D3193A" overflow="visible"><path d="M 0 0m 0.3895 1.9475c 0 -0.969 0.646 -2.0425 1.995 -2.0425c 0.608 0 1.0735 0.2185 1.3965 0.532c 0.4275 0.418 0.6175 1.0165 0.6175 1.596c 0 0.988 -0.5415 2.1375 -1.995 2.1375c -0.627 0 -1.14 -0.2565 -1.4915 -0.665c -0.342 -0.4085 -0.5225 -0.9595 -0.5225 -1.558Z m 1.8715 1.8905c 0.817 0 1.3205 -0.741 1.3205 -2.109c 0 -1.197 -0.6175 -1.4915 -1.064 -1.4915c -0.988 0 -1.311 1.197 -1.311 1.9285c 0 0.8265 0.1995 1.672 1.0545 1.672Z "/></symbol><symbol id="g5AAEF493CBDA45024F82AC9E8378049F" overflow="visible"><path d="M 0 0m 1.083 0c 0.266 0.0095 0.361 0.2565 0.475 0.5985c 0.247 0.7505 0.5225 1.216 0.9975 1.216h 0.247v -0.6555c 0 -0.7885 -0.1045 -0.817 -0.684 -0.8645c -0.057 -0.057 -0.057 -0.2565 0 -0.3135c 0.3135 0.0095 0.646 0.019 1.064 0.019c 0.4085 0 0.7505 -0.0095 1.0545 -0.019c 0.057 0.057 0.057 0.2565 0 0.3135c -0.5795 0.038 -0.684 0.076 -0.684 0.8645v 1.7575c 0 0.7885 0.1045 0.817 0.684 0.8645c 0.057 0.057 0.057 0.2565 0 0.3135c -0.323 -0.0095 -0.646 -0.019 -1.064 -0.019c -0.323 0 -0.5985 0.019 -0.836 0.019c -1.6625 0 -1.805 -0.684 -1.805 -1.197c 0 -0.6175 0.475 -0.931 1.178 -0.9595c 0.0285 0 0.0285 -0.0285 0.019 -0.038c -0.361 -0.1045 -0.5225 -0.304 -0.684 -0.6555c -0.1045 -0.2185 -0.19 -0.4275 -0.2375 -0.551c -0.1235 -0.323 -0.285 -0.38 -0.6555 -0.399c -0.057 -0.057 -0.057 -0.2565 0 -0.3135c 0.19 0.0095 0.931 0.019 0.931 0.019Z m 0.266 3.0495c 0 0.4465 0.1425 0.7315 0.912 0.7315c 0.3895 0 0.5415 -0.171 0.5415 -0.532v -1.1115h -0.665c -0.57 0 -0.7885 0.437 -0.7885 0.912Z "/></symbol><symbol id="g111F480562FE960BC5F50C637F145B12" overflow="visible"><path d="M 0 0m 4.5505 2.9165c 0 0.7885 0.1045 0.817 0.684 0.8645c 0.057 0.057 0.057 0.2565 0 0.3135c -0.3325 -0.019 -0.7505 -0.019 -1.064 -0.019c -0.266 0 -0.646 0.0095 -1.0165 0.019c -0.057 -0.057 -0.057 -0.2565 0 -0.3135c 0.5795 -0.038 0.646 -0.076 0.646 -0.8645v -0.6175h -2.033v 0.6175c 0 0.7885 0.0665 0.817 0.646 0.8645c 0.057 0.057 0.057 0.2565 0 0.3135c -0.361 -0.0095 -0.722 -0.019 -1.026 -0.019c -0.285 0 -0.6745 0.0095 -1.0545 0.019c -0.057 -0.057 -0.057 -0.2565 0 -0.3135c 0.5795 -0.038 0.684 -0.076 0.684 -0.8645v -1.7575c 0 -0.7885 -0.1045 -0.817 -0.684 -0.8645c -0.057 -0.057 -0.057 -0.2565 0 -0.3135c 0.38 0.0095 0.76 0.019 1.064 0.019c 0.304 0 0.6745 -0.0095 1.0165 -0.019c 0.057 0.057 0.057 0.2565 0 0.3135c -0.5795 0.038 -0.646 0.076 -0.646 0.8645v 0.8265h 2.033v -0.8265c 0 -0.7885 -0.0665 -0.817 -0.646 -0.8645c -0.057 -0.057 -0.057 -0.2565 0 -0.3135c 0.342 0.0095 0.6935 0.019 1.026 0.019c 0.285 0 0.684 -0.0095 1.0545 -0.019c 0.057 0.057 0.057 0.2565 0 0.3135c -0.5795 0.038 -0.684 0.076 -0.684 0.8645Z "/></symbol><symbol id="g30870B079B88F136C2A9AD2E2890E4EB" overflow="visible"><path d="M 0 0m 1.881 0.5985c -0.0285 0 -0.0665 0.019 -0.0665 0.114v 2.166c 0 0.7885 0.1995 0.874 0.684 0.9025c 0.057 0.057 0.057 0.2565 0 0.3135c -0.2185 -0.0095 -0.76 -0.019 -1.1115 -0.019c -0.3135 0 -0.6935 0.0095 -1.0545 0.019c -0.057 -0.057 -0.057 -0.2565 0 -0.3135c 0.5795 -0.0285 0.7315 -0.114 0.7315 -0.9025v -1.6815c 0 -0.7885 -0.152 -0.874 -0.7315 -0.9025c -0.057 -0.057 -0.057 -0.2565 0 -0.3135c 0.3705 0.0095 0.7505 0.019 1.0545 0.019c 0.2185 0 0.475 -0.0095 0.5795 -0.019c 0.0475 0.133 0.133 0.323 0.2375 0.513l 1.482 2.9735c 0.0285 0 0.0665 -0.019 0.0665 -0.114v -2.1565c 0 -0.7885 -0.1995 -0.874 -0.684 -0.9025c -0.057 -0.057 -0.057 -0.2565 0 -0.3135c 0.2185 0.0095 0.7315 0.019 1.1115 0.019c 0.2945 0 0.684 -0.0095 1.0545 -0.019c 0.057 0.057 0.057 0.2565 0 0.3135c -0.5795 0.0285 -0.7315 0.114 -0.7315 0.9025v 1.6815c 0 0.7885 0.152 0.874 0.7315 0.9025c 0.057 0.057 0.057 0.2565 0 0.3135c -0.38 -0.0095 -0.76 -0.019 -1.0545 -0.019c -0.209 0 -0.475 0.0095 -0.57 0.019c -0.076 -0.171 -0.1615 -0.3705 -0.247 -0.532Z "/></symbol><symbol id="gA3A5C9019285A4C81365474C03E3CF4E" overflow="visible"><path d="M 0 0m 3.667 0.8835c -0.3515 -0.361 -0.627 -0.513 -1.178 -0.513c -0.342 0 -0.741 0.1995 -1.0355 0.684c -0.19 0.3135 -0.304 0.7505 -0.304 1.3015l 2.527 -0.019c 0.114 0 0.1805 0.057 0.1805 0.1615c 0 0.798 -0.285 1.653 -1.6055 1.653c -0.8265 0 -1.9 -0.7885 -1.9 -2.2325c 0 -0.532 0.133 -1.045 0.4465 -1.406c 0.323 -0.38 0.7695 -0.608 1.4535 -0.608c 0.722 0 1.235 0.3325 1.615 0.8265c -0.0285 0.095 -0.0855 0.1425 -0.1995 0.152Z m -2.489 1.7955c 0.1805 1.0735 0.8455 1.159 1.0735 1.159c 0.361 0 0.7885 -0.1995 0.7885 -0.9975c 0 -0.0855 -0.038 -0.133 -0.1425 -0.133Z "/></symbol><symbol id="g5CB7032DC72D9353A416002EDBBDF022" overflow="visible"><path d="M 0 0m 3.99 3.363c 0 0.5415 -0.551 0.836 -1.14 0.836c -0.5985 0 -1.026 -0.1805 -1.2825 -0.5415c -0.2185 -0.3135 -0.3325 -0.5985 -0.3325 -0.855c 0 -0.5035 0.3325 -0.8265 0.988 -0.969c 0.2755 -0.0475 0.4845 -0.114 0.646 -0.19c 0.1995 -0.0855 0.2945 -0.247 0.2945 -0.475c 0 -0.171 -0.076 -0.361 -0.2375 -0.5795c -0.1995 -0.2755 -0.551 -0.418 -1.0545 -0.418c -0.513 0 -0.8455 0.1425 -0.9975 0.418c 0.304 -0.0095 0.5605 0.2375 0.5605 0.5415c 0 0.2375 -0.1235 0.361 -0.38 0.361c -0.342 0 -0.5605 -0.3135 -0.5605 -0.6555c 0 -0.627 0.684 -0.9405 1.368 -0.9405c 0.7125 0 1.2255 0.209 1.5295 0.6365c 0.2565 0.3515 0.38 0.665 0.38 0.95c 0 0.4085 -0.1995 0.7125 -0.589 0.912c -0.2945 0.1045 -0.5225 0.171 -0.665 0.1995c -0.3325 0.0855 -0.6745 0.114 -0.6745 0.5225c 0 0.5035 0.475 0.8075 1.007 0.8075c 0.399 0 0.6555 -0.1235 0.779 -0.361c -0.209 -0.038 -0.4275 -0.2185 -0.4275 -0.456c 0 -0.1995 0.1045 -0.304 0.323 -0.304c 0.2945 0 0.4655 0.266 0.4655 0.5605Z "/></symbol><symbol id="gF7E2F11D9500E34CEB199CAED225F368" overflow="visible"><path d="M 0 0m 1.82 1.22c 0 -0.83 -0.11 -0.88 -0.72 -0.91c -0.06 -0.06 -0.06 -0.27 0 -0.33c 0.39 0.01 0.79 0.02 1.12 0.02c 0.34 0 0.73 -0.01 1.11 -0.02c 0.06 0.06 0.06 0.27 0 0.33c -0.61 0.03 -0.72 0.08 -0.72 0.91v 2.7h 0.17c 0.81 0 0.97 -0.28 1.14 -1.09c 0.13 0 0.26 0.04 0.26 0.04c -0.06 0.46 -0.1 0.9 -0.11 1.48c -0.23 -0.02 -0.98 -0.06 -1.48 -0.06h -0.75c -0.5 0 -1.06 0.03 -1.46 0.06c -0.01 -0.58 -0.05 -1.02 -0.12 -1.48c 0 0 0.14 -0.04 0.27 -0.04c 0.17 0.81 0.32 1.09 1.14 1.09h 0.15Z "/></symbol><symbol id="g829D75AC8F1C9E46EE8828572BC54649" overflow="visible"><path d="M 0 0m 1.89 4.29c -0.33 0 -0.72 0.01 -1.02 0.02c -0.06 -0.06 -0.06 -0.27 0 -0.33c 0.61 -0.05 0.79 -0.09 0.75 -0.92c -0.04 -0.92 -0.2 -1.66 -0.37 -2.36c -0.06 -0.27 -0.35 -0.36 -0.63 -0.39c -0.15 -0.02 -0.29 -0.08 -0.3 -0.26l -0.06 -1.33c 0.07 -0.03 0.15 -0.04 0.27 -0.01c 0.09 0.37 0.36 1.29 1.26 1.29h 1.73c 0.89 0 1.18 -0.9 1.27 -1.3c 0.09 -0.02 0.18 -0.02 0.28 0.02l -0.06 1.34c 0 0.14 -0.08 0.22 -0.27 0.25c -0.18 0.03 -0.43 0.1 -0.43 0.47v 2.29c 0 0.82 0.13 0.87 0.68 0.91c 0.06 0.06 0.06 0.27 0 0.33c -0.3 -0.01 -0.68 -0.02 -1.08 -0.02Z m -0.28 -3.78c 0 0.17 0.27 0.83 0.42 3.12c 0.01 0.15 0.08 0.28 0.35 0.28h 0.69c 0.4 0 0.45 -0.28 0.45 -0.62v -2.41c 0 -0.33 -0.02 -0.49 -0.42 -0.49h -1.29c -0.11 0 -0.2 0.01 -0.2 0.12Z "/></symbol><symbol id="g7D7A5D08C55ACC07707850317A5B7900" overflow="visible"><path d="M 0 0m 2.93 0.48c 0.06 -0.31 0.17 -0.58 0.67 -0.58c 0.38 0 0.74 0.17 0.95 0.37c -0.02 0.12 -0.06 0.21 -0.17 0.27c -0.07 -0.06 -0.24 -0.16 -0.37 -0.16c -0.29 0 -0.3 0.39 -0.3 0.85v 1.47c 0 1.42 -0.78 1.69 -1.51 1.69c -0.82 0 -1.65 -0.54 -1.65 -1.11c 0 -0.24 0.12 -0.36 0.35 -0.36c 0.29 0 0.47 0.21 0.47 0.34c 0 0.07 -0.01 0.14 -0.03 0.18c -0.01 0.03 -0.02 0.09 -0.02 0.2c 0 0.31 0.42 0.42 0.8 0.42c 0.34 0 0.81 -0.17 0.81 -1.3c 0 -0.07 -0.03 -0.11 -0.06 -0.12l -0.86 -0.21c -0.96 -0.24 -1.65 -0.77 -1.65 -1.45c 0 -0.82 0.56 -1.08 1.26 -1.08c 0.35 0 0.65 0.08 1.09 0.42l 0.2 0.16Z m 0 1.85v -1.32c 0 -0.13 -0.06 -0.2 -0.14 -0.26c -0.26 -0.21 -0.6 -0.44 -0.88 -0.44c -0.5 0 -0.72 0.4 -0.72 0.71c 0 0.45 0.21 0.91 0.95 1.1Z "/></symbol><symbol id="g3730A52707D5D005176FA819A7950DF6" overflow="visible"><path d="M 0 0m 1.98 0.63c -0.03 0 -0.07 0.02 -0.07 0.12v 2.28c 0 0.83 0.21 0.92 0.72 0.95c 0.06 0.06 0.06 0.27 0 0.33c -0.23 -0.01 -0.8 -0.02 -1.17 -0.02c -0.33 0 -0.73 0.01 -1.11 0.02c -0.06 -0.06 -0.06 -0.27 0 -0.33c 0.61 -0.03 0.77 -0.12 0.77 -0.95v -1.77c 0 -0.83 -0.16 -0.92 -0.77 -0.95c -0.06 -0.06 -0.06 -0.27 0 -0.33c 0.39 0.01 0.79 0.02 1.11 0.02c 0.23 0 0.5 -0.01 0.61 -0.02c 0.05 0.14 0.14 0.34 0.25 0.54l 1.56 3.13c 0.03 0 0.07 -0.02 0.07 -0.12v -2.27c 0 -0.83 -0.21 -0.92 -0.72 -0.95c -0.06 -0.06 -0.06 -0.27 0 -0.33c 0.23 0.01 0.77 0.02 1.17 0.02c 0.31 0 0.72 -0.01 1.11 -0.02c 0.06 0.06 0.06 0.27 0 0.33c -0.61 0.03 -0.77 0.12 -0.77 0.95v 1.77c 0 0.83 0.16 0.92 0.77 0.95c 0.06 0.06 0.06 0.27 0 0.33c -0.4 -0.01 -0.8 -0.02 -1.11 -0.02c -0.22 0 -0.5 0.01 -0.6 0.02c -0.08 -0.18 -0.17 -0.39 -0.26 -0.56Z "/></symbol><symbol id="gEE6BFED97EAD66B608F348D718695C96" overflow="visible"><path d="M 0 0m 0.34 2.57c 0 -1.89 1.09 -2.67 2.06 -2.67c 1.37 0 2.16 1.02 2.16 2.28c 0 1.08 -0.6 2.21 -2.01 2.21c -0.95 0 -1.53 -0.56 -1.75 -1.04l -0.02 0.02c 0.04 0.52 0.2 1.16 0.35 1.42c 0.32 0.55 0.7 0.58 1.62 0.68c 0.9 0.1 1.54 0.39 1.63 1.51c -0.07 0.03 -0.14 0.04 -0.22 0c -0.08 -0.48 -0.61 -0.61 -1.45 -0.74c -0.81 -0.13 -1.49 -0.41 -1.91 -1.2c -0.36 -0.68 -0.46 -1.52 -0.46 -2.47Z m 0.86 -0.26c 0 0.56 0.2 1.73 1.24 1.73c 0.78 0 1.26 -0.9 1.26 -2.1c 0 -1.26 -0.58 -1.69 -1.12 -1.69c -0.73 0 -1.38 0.95 -1.38 2.06Z "/></symbol><symbol id="g8F03A4AE8D3B195D4882A1755C55580A" overflow="visible"><path d="M 0 0m 1.56 3.68c -0.01 0.3 -0.03 0.56 -0.08 0.66c -0.02 0.05 -0.04 0.08 -0.12 0.08c -0.28 -0.11 -0.54 -0.2 -1.23 -0.29c -0.02 -0.06 0 -0.22 0.02 -0.28c 0.54 -0.05 0.65 -0.1 0.65 -0.68v -4.27c 0 -0.83 -0.11 -0.88 -0.72 -0.91c -0.06 -0.06 -0.06 -0.27 0 -0.33c 0.35 0.01 0.72 0.02 1.12 0.02c 0.4 0 0.88 -0.01 1.21 -0.02c 0.06 0.06 0.06 0.27 0 0.33c -0.71 0.04 -0.82 0.08 -0.82 0.91v 1.08c 0 0.13 0.04 0.12 0.14 0.08c 0.25 -0.1 0.55 -0.16 0.87 -0.16c 0.56 0 1.06 0.17 1.47 0.56c 0.47 0.46 0.74 1.08 0.74 1.89c 0 1.06 -0.75 2.04 -1.77 2.04c -0.46 0 -0.97 -0.3 -1.37 -0.75c -0.06 -0.06 -0.1 -0.06 -0.11 0.04Z m 0.19 -0.37c 0.26 0.32 0.72 0.62 1.01 0.62c 0.64 0 1.19 -0.72 1.19 -1.85c 0 -0.82 -0.29 -1.84 -1.41 -1.84c -0.18 0 -0.53 0.05 -0.71 0.21c -0.2 0.18 -0.24 0.24 -0.24 0.6v 1.82c 0 0.21 0.04 0.3 0.16 0.44Z "/></symbol><symbol id="gD51468542432F864548926048E523B26" overflow="visible"><path d="M 0 0m 4.79 3.07c 0 0.83 0.11 0.86 0.72 0.91c 0.06 0.06 0.06 0.27 0 0.33c -0.35 -0.02 -0.79 -0.02 -1.12 -0.02c -0.28 0 -0.68 0.01 -1.07 0.02c -0.06 -0.06 -0.06 -0.27 0 -0.33c 0.61 -0.04 0.68 -0.08 0.68 -0.91v -0.65h -2.14v 0.65c 0 0.83 0.07 0.86 0.68 0.91c 0.06 0.06 0.06 0.27 0 0.33c -0.38 -0.01 -0.76 -0.02 -1.08 -0.02c -0.3 0 -0.71 0.01 -1.11 0.02c -0.06 -0.06 -0.06 -0.27 0 -0.33c 0.61 -0.04 0.72 -0.08 0.72 -0.91v -1.85c 0 -0.83 -0.11 -0.86 -0.72 -0.91c -0.06 -0.06 -0.06 -0.27 0 -0.33c 0.4 0.01 0.8 0.02 1.12 0.02c 0.32 0 0.71 -0.01 1.07 -0.02c 0.06 0.06 0.06 0.27 0 0.33c -0.61 0.04 -0.68 0.08 -0.68 0.91v 0.87h 2.14v -0.87c 0 -0.83 -0.07 -0.86 -0.68 -0.91c -0.06 -0.06 -0.06 -0.27 0 -0.33c 0.36 0.01 0.73 0.02 1.08 0.02c 0.3 0 0.72 -0.01 1.11 -0.02c 0.06 0.06 0.06 0.27 0 0.33c -0.61 0.04 -0.72 0.08 -0.72 0.91Z "/></symbol><symbol id="g7679559C61795D4B2FBCEF1D6942AEE" overflow="visible"><path d="M 0 0m 6.98 3.67h -6.18c -0.16 0 -0.24 -0.08 -0.24 -0.23c 0 -0.15 0.08 -0.23 0.24 -0.23h 6.18c 0.16 0 0.24 0.08 0.24 0.23c 0 0.12 -0.11 0.23 -0.24 0.23Z m 0 -1.88h -6.18c -0.16 0 -0.24 -0.08 -0.24 -0.23c 0 -0.15 0.08 -0.23 0.24 -0.23h 6.18c 0.16 0 0.24 0.08 0.24 0.23c 0 0.13 -0.11 0.23 -0.24 0.23Z "/></symbol><symbol id="g187F960CD8D343F130EAFAB63E4BE0DE" overflow="visible"><path d="M 0 0m 2.37 6.66c -0.51 0 -0.94 -0.18 -1.31 -0.54c -0.37 -0.36 -0.56 -0.78 -0.56 -1.29c 0 -0.34 0.25 -0.59 0.56 -0.59c 0.3 0 0.55 0.26 0.55 0.56c 0 0.33 -0.24 0.56 -0.56 0.56c -0.03 0 -0.05 0 -0.07 -0.01c 0.19 0.49 0.63 0.92 1.26 0.92c 0.82 0 1.28 -0.71 1.28 -1.57c 0 -0.67 -0.34 -1.39 -1.02 -2.15l -1.88 -2.12c -0.13 -0.15 -0.12 -0.14 -0.12 -0.43h 3.71l 0.29 1.8h -0.33c -0.08 -0.51 -0.15 -0.8 -0.21 -0.89c -0.05 -0.05 -0.35 -0.07 -0.9 -0.07h -1.67l 0.97 0.95c 0.68 0.64 1.54 1.33 1.83 1.86c 0.2 0.35 0.3 0.7 0.3 1.05c 0 1.18 -0.92 1.96 -2.12 1.96Z "/></symbol><symbol id="gF4CD91EA33E4EF5FC705244CCDD5E1CB" overflow="visible"><path d="M 0 0m 4.2 3.54c 0 0.57 -0.58 0.88 -1.2 0.88c -0.63 0 -1.08 -0.19 -1.35 -0.57c -0.23 -0.33 -0.35 -0.63 -0.35 -0.9c 0 -0.53 0.35 -0.87 1.04 -1.02c 0.29 -0.05 0.51 -0.12 0.68 -0.2c 0.21 -0.09 0.31 -0.26 0.31 -0.5c 0 -0.18 -0.08 -0.38 -0.25 -0.61c -0.21 -0.29 -0.58 -0.44 -1.11 -0.44c -0.54 0 -0.89 0.15 -1.05 0.44c 0.32 -0.01 0.59 0.25 0.59 0.57c 0 0.25 -0.13 0.38 -0.4 0.38c -0.36 0 -0.59 -0.33 -0.59 -0.69c 0 -0.66 0.72 -0.99 1.44 -0.99c 0.75 0 1.29 0.22 1.61 0.67c 0.27 0.37 0.4 0.7 0.4 1c 0 0.43 -0.21 0.75 -0.62 0.96c -0.31 0.11 -0.55 0.18 -0.7 0.21c -0.35 0.09 -0.71 0.12 -0.71 0.55c 0 0.53 0.5 0.85 1.06 0.85c 0.42 0 0.69 -0.13 0.82 -0.38c -0.22 -0.04 -0.45 -0.23 -0.45 -0.48c 0 -0.21 0.11 -0.32 0.34 -0.32c 0.31 0 0.49 0.28 0.49 0.59Z "/></symbol><symbol id="gCB4E91739EACE7368E3223F2D0EF6CCC" overflow="visible"><path d="M 0 0m 4.62 3.894c 0 0.627 -0.638 0.968 -1.32 0.968c -0.693 0 -1.188 -0.209 -1.485 -0.627c -0.253 -0.363 -0.385 -0.693 -0.385 -0.99c 0 -0.583 0.385 -0.957 1.144 -1.122c 0.319 -0.055 0.561 -0.132 0.748 -0.22c 0.231 -0.099 0.341 -0.286 0.341 -0.55c 0 -0.198 -0.088 -0.418 -0.275 -0.671c -0.231 -0.319 -0.638 -0.484 -1.221 -0.484c -0.594 0 -0.979 0.165 -1.155 0.484c 0.352 -0.011 0.649 0.275 0.649 0.627c 0 0.275 -0.143 0.418 -0.44 0.418c -0.396 0 -0.649 -0.363 -0.649 -0.759c 0 -0.726 0.792 -1.089 1.584 -1.089c 0.825 0 1.419 0.242 1.771 0.737c 0.297 0.407 0.44 0.77 0.44 1.1c 0 0.473 -0.231 0.825 -0.682 1.056c -0.341 0.121 -0.605 0.198 -0.77 0.231c -0.385 0.099 -0.781 0.132 -0.781 0.605c 0 0.583 0.55 0.935 1.166 0.935c 0.462 0 0.759 -0.143 0.902 -0.418c -0.242 -0.044 -0.495 -0.253 -0.495 -0.528c 0 -0.231 0.121 -0.352 0.374 -0.352c 0.341 0 0.539 0.308 0.539 0.649Z "/></symbol><symbol id="g2389F7618E8CE27CC7151A1D8E5DEAD4" overflow="visible"><path d="M 0 0m 7.678 4.037h -6.798c -0.176 0 -0.264 -0.088 -0.264 -0.253c 0 -0.165 0.088 -0.253 0.264 -0.253h 6.798c 0.176 0 0.264 0.088 0.264 0.253c 0 0.132 -0.121 0.253 -0.264 0.253Z m 0 -2.068h -6.798c -0.176 0 -0.264 -0.088 -0.264 -0.253c 0 -0.165 0.088 -0.253 0.264 -0.253h 6.798c 0.176 0 0.264 0.088 0.264 0.253c 0 0.143 -0.121 0.253 -0.264 0.253Z "/></symbol><symbol id="g46F76533A45DB4C11A9843577693DDC7" overflow="visible"><path d="M 0 0m 4.059 4.301c 0 -0.088 0.099 -0.231 0.275 -0.451c 0.176 -0.22 0.264 -0.473 0.264 -0.759c 0 -0.319 -0.154 -0.858 -0.473 -1.617c -0.231 -0.528 -0.759 -1.276 -1.408 -1.276c -0.506 0 -0.759 0.297 -0.759 0.902c 0 0.429 0.209 1.188 0.627 2.277c 0.088 0.231 0.132 0.418 0.132 0.55c 0 0.55 -0.374 0.935 -0.924 0.935c -0.484 0 -0.869 -0.275 -1.144 -0.825c -0.22 -0.451 -0.33 -0.737 -0.33 -0.88c 0 -0.099 0.055 -0.154 0.176 -0.154c 0.143 0 0.165 0.066 0.209 0.22c 0.253 0.88 0.605 1.32 1.056 1.32c 0.143 0 0.22 -0.099 0.22 -0.308c 0 -0.176 -0.055 -0.418 -0.176 -0.737c -0.407 -1.089 -0.616 -1.826 -0.616 -2.233c 0 -0.561 0.187 -0.946 0.561 -1.155c 0.297 -0.154 0.605 -0.231 0.924 -0.231c 0.979 0 1.661 1.056 1.947 1.903c 0.352 1.034 0.528 1.793 0.528 2.277c 0 0.539 -0.176 0.803 -0.517 0.803c -0.275 0 -0.572 -0.286 -0.572 -0.561Z "/></symbol><symbol id="g72FDBB830EBBF5B5860CF87A1202F235" overflow="visible"><path d="M 0 0m 2.112 2.75c 0 0.319 -0.264 0.583 -0.583 0.583c -0.319 0 -0.583 -0.264 -0.583 -0.583c 0 -0.319 0.264 -0.583 0.583 -0.583c 0.319 0 0.583 0.264 0.583 0.583Z "/></symbol><symbol id="g293C48F3C6D5CEB2943C0E5CE10C76D3" overflow="visible"><path d="M 0 0m 3.63 4.609c 0 0.099 -0.11 0.154 -0.341 0.154h -0.891c 0.286 1.144 0.429 1.738 0.429 1.782c 0 0.231 -0.121 0.341 -0.352 0.341c -0.253 0 -0.407 -0.143 -0.473 -0.429l -0.407 -1.694h -0.979c -0.242 0 -0.363 -0.011 -0.363 -0.242c 0 -0.121 0.11 -0.176 0.341 -0.176h 0.891c -0.539 -2.145 -0.803 -3.278 -0.803 -3.421c 0 -0.616 0.418 -1.045 1.034 -1.045c 0.418 0 0.781 0.187 1.1 0.572c 0.264 0.319 0.451 0.627 0.572 0.924c 0.044 0.121 0.066 0.187 0.066 0.22c 0 0.099 -0.055 0.154 -0.165 0.154c -0.088 0 -0.154 -0.055 -0.198 -0.176c -0.374 -0.913 -0.825 -1.364 -1.364 -1.364c -0.187 0 -0.286 0.154 -0.286 0.451c 0 0.165 0.022 0.341 0.066 0.517l 0.781 3.168h 0.979c 0.286 0 0.363 0.022 0.363 0.264Z "/></symbol><symbol id="gC8E5BAA56C45C80D9D0C0359A164D41D" overflow="visible"><path d="M 0 0m 4.884 7.898c 0.011 0.022 0.011 0.055 0.011 0.088c 0 0.176 -0.088 0.264 -0.264 0.264c -0.121 0 -0.198 -0.055 -0.242 -0.176l -3.762 -10.472c -0.011 -0.022 -0.011 -0.055 -0.011 -0.088c 0 -0.176 0.088 -0.264 0.264 -0.264c 0.121 0 0.198 0.055 0.242 0.176Z "/></symbol><symbol id="g847DCE2A3EE7D23E3D551BDE0EE8A683" overflow="visible"><path d="M 0 0m 2.607 7.326c -0.561 0 -1.034 -0.198 -1.441 -0.594c -0.407 -0.396 -0.616 -0.858 -0.616 -1.419c 0 -0.374 0.275 -0.649 0.616 -0.649c 0.33 0 0.605 0.286 0.605 0.616c 0 0.363 -0.264 0.616 -0.616 0.616c -0.033 0 -0.055 0 -0.077 -0.011c 0.209 0.539 0.693 1.012 1.386 1.012c 0.902 0 1.408 -0.781 1.408 -1.727c 0 -0.737 -0.374 -1.529 -1.122 -2.365l -2.068 -2.332c -0.143 -0.165 -0.132 -0.154 -0.132 -0.473h 4.081l 0.319 1.98h -0.363c -0.088 -0.561 -0.165 -0.88 -0.231 -0.979c -0.055 -0.055 -0.385 -0.077 -0.99 -0.077h -1.837l 1.067 1.045c 0.748 0.704 1.694 1.463 2.013 2.046c 0.22 0.385 0.33 0.77 0.33 1.155c 0 1.298 -1.012 2.156 -2.332 2.156Z "/></symbol><symbol id="gC5C01FB63F6F7D49E573045327DC96B7" overflow="visible"><path d="M 0 0m 7.887 4.752v 0.022c 0 0.121 -0.055 0.176 -0.176 0.176c -0.077 0 -0.132 -0.044 -0.165 -0.121c -0.077 -0.385 -0.231 -0.682 -0.451 -0.869c -0.363 -0.319 -0.748 -0.473 -1.166 -0.473c -0.319 0 -0.649 0.121 -0.99 0.352c -0.627 0.451 -1.001 0.704 -1.122 0.781c -0.473 0.275 -0.891 0.407 -1.265 0.407c -1.177 0 -1.705 -0.825 -1.936 -1.903v -0.033c 0 -0.11 0.055 -0.165 0.176 -0.165c 0.099 0 0.154 0.044 0.176 0.132c 0.077 0.385 0.22 0.671 0.44 0.858c 0.363 0.319 0.748 0.473 1.177 0.473c 0.319 0 0.638 -0.121 0.979 -0.363c 0.627 -0.44 1.001 -0.693 1.122 -0.77c 0.473 -0.275 0.891 -0.407 1.265 -0.407c 1.177 0 1.705 0.825 1.936 1.903Z m 0 -2.376v 0.033c 0 0.11 -0.055 0.165 -0.176 0.165c -0.077 0 -0.132 -0.044 -0.165 -0.121c -0.077 -0.385 -0.231 -0.671 -0.451 -0.869c -0.363 -0.319 -0.748 -0.473 -1.166 -0.473c -0.319 0 -0.649 0.121 -0.99 0.363c -0.627 0.44 -1.001 0.693 -1.122 0.77c -0.473 0.275 -0.891 0.407 -1.265 0.407c -1.177 0 -1.705 -0.825 -1.936 -1.903v -0.022c 0 -0.121 0.055 -0.176 0.176 -0.176c 0.099 0 0.154 0.044 0.176 0.132c 0.077 0.385 0.22 0.671 0.44 0.858c 0.363 0.319 0.748 0.473 1.177 0.473c 0.319 0 0.638 -0.121 0.979 -0.352c 0.627 -0.451 1.001 -0.704 1.122 -0.781c 0.473 -0.275 0.891 -0.407 1.265 -0.407c 1.177 0 1.705 0.825 1.936 1.903Z "/></symbol><symbol id="g93E2B88EAD8DFDF0BE4D6467DB923DB5" overflow="visible"><path d="M 0 0m 3.333 3.883c 0.726 0.275 1.408 0.968 1.408 1.903c 0 0.473 -0.231 0.858 -0.682 1.155c -0.396 0.253 -0.847 0.385 -1.353 0.385c -0.495 0 -0.924 -0.132 -1.309 -0.385c -0.429 -0.286 -0.649 -0.66 -0.649 -1.133c 0 -0.363 0.242 -0.616 0.594 -0.616c 0.352 0 0.594 0.253 0.594 0.605c 0 0.363 -0.209 0.561 -0.627 0.583c 0.286 0.385 0.737 0.583 1.353 0.583c 0.66 0 0.99 -0.385 0.99 -1.166c 0 -0.462 -0.088 -0.847 -0.253 -1.166c -0.297 -0.528 -0.704 -0.627 -1.386 -0.627c -0.132 -0.022 -0.198 -0.077 -0.198 -0.176c 0 -0.165 0.077 -0.165 0.297 -0.165h 0.473c 0.825 0 1.243 -0.583 1.243 -1.76c 0 -0.935 -0.341 -1.749 -1.177 -1.749c -0.715 0 -1.243 0.242 -1.562 0.726c 0.385 -0.011 0.671 0.275 0.671 0.649c 0 0.374 -0.275 0.649 -0.649 0.649c -0.429 0 -0.649 -0.22 -0.649 -0.671c 0 -0.539 0.242 -0.968 0.726 -1.309c 0.429 -0.297 0.935 -0.44 1.496 -0.44c 0.627 0 1.166 0.209 1.639 0.616c 0.473 0.407 0.704 0.913 0.704 1.529c 0 1.034 -0.814 1.749 -1.694 1.98Z "/></symbol><symbol id="gAE482DA578200FA3765B7A490E273D69" overflow="visible"><path d="M 0 0m 3.883 7.447c -0.099 0 -0.187 -0.055 -0.253 -0.154l -3.322 -5.104v -0.396h 2.871v -0.902c 0 -0.198 -0.044 -0.33 -0.121 -0.385c -0.077 -0.055 -0.286 -0.077 -0.649 -0.077h -0.275v -0.429c 0.319 0.022 0.825 0.033 1.507 0.033c 0.682 0 1.188 -0.011 1.507 -0.033v 0.429h -0.275c -0.363 0 -0.572 0.022 -0.649 0.077c -0.077 0.055 -0.121 0.187 -0.121 0.385v 0.902h 1.078v 0.429h -1.078v 5.038c 0 0.11 -0.077 0.187 -0.22 0.187Z m -0.638 -1.364v -3.861h -2.508Z "/></symbol><symbol id="g5DF7FDD026DB928A9BECE5CB45FEF99F" overflow="visible"><path d="M 0 0m 2.739 -0.242c 1.551 0 2.321 1.254 2.321 3.762c 0 1.683 -0.352 2.805 -1.045 3.355c -0.385 0.297 -0.814 0.451 -1.265 0.451c -1.551 0 -2.321 -1.265 -2.321 -3.806c 0 -2.024 0.539 -3.762 2.31 -3.762Z m 1.232 6.006c 0.077 -0.385 0.11 -1.089 0.11 -2.112c 0 -1.012 -0.044 -1.76 -0.121 -2.244c -0.143 -0.88 -0.55 -1.32 -1.221 -1.32c -0.253 0 -0.506 0.099 -0.737 0.286c -0.297 0.253 -0.473 0.77 -0.55 1.562c -0.033 0.275 -0.044 0.847 -0.044 1.716c 0 0.957 0.033 1.628 0.088 1.991c 0.099 0.605 0.297 0.99 0.605 1.155c 0.242 0.132 0.451 0.198 0.638 0.198c 0.715 0 1.111 -0.583 1.232 -1.232Z "/></symbol><symbol id="gC41E68D13CD2D89F8393103AB3EAC5B6" overflow="visible"><path d="M 0 0m 1.287 3.366l -0.066 -2.046c -0.033 -0.924 -0.198 -0.946 -0.836 -0.979c -0.066 -0.066 -0.066 -0.297 0 -0.363c 0.22 0.011 0.77 0.022 0.946 0.022c 0.22 0 0.737 -0.011 0.957 -0.022c 0.066 0.066 0.066 0.297 0 0.363c -0.627 0.044 -0.671 0.154 -0.649 0.979l 0.077 2.695c 0 0.099 0.044 0.099 0.088 0l 1.595 -3.894c 0.044 -0.033 0.088 -0.033 0.121 0l 1.804 3.883c 0.055 0.121 0.11 0.132 0.11 0l -0.011 -2.662c 0 -0.913 -0.077 -0.946 -0.748 -1.001c -0.066 -0.066 -0.066 -0.297 0 -0.363c 0.396 0.011 0.803 0.022 1.188 0.022c 0.33 0 0.803 -0.011 1.232 -0.022c 0.066 0.066 0.066 0.297 0 0.363c -0.671 0.044 -0.792 0.088 -0.792 1.001l -0.022 2.035c -0.011 0.913 0.121 0.946 0.792 1.001c 0.066 0.066 0.066 0.297 0 0.363c -0.385 -0.022 -1.452 -0.022 -1.815 -0.022l -1.463 -3.146l -0.055 -0.11l -0.044 0.11l -1.287 3.146c -0.363 0 -1.529 0 -1.914 0.022c -0.066 -0.066 -0.066 -0.297 0 -0.363c 0.671 -0.055 0.825 -0.099 0.792 -1.012Z "/></symbol><symbol id="g3677516F5FB0F47B6A7F45B7C48864AF" overflow="visible"><path d="M 0 0m 3.223 7.106h -0.451l -2.607 -7.755h 0.451Z "/></symbol><symbol id="g22944FDC578D55E265077E284016F45D" overflow="visible"><path d="M 0 0m 4.378 1.001c -0.044 0.099 -0.132 0.143 -0.231 0.154c -0.374 -0.484 -0.847 -0.726 -1.32 -0.726c -0.803 0 -1.474 0.814 -1.474 2.101c 0 1.21 0.528 1.936 1.254 1.936c 0.649 0 0.737 -0.385 0.781 -0.77c 0.033 -0.297 0.187 -0.396 0.418 -0.396c 0.231 0 0.539 0.143 0.539 0.484c 0 0.605 -0.627 1.045 -1.683 1.045c -1.089 0 -2.255 -0.979 -2.255 -2.541c 0 -1.419 0.792 -2.398 2.178 -2.398c 0.66 0 1.243 0.209 1.793 1.111Z "/></symbol></defs></svg>