<svg class="typst-doc" viewBox="0 0 356.11930750086896 172.44792480314962" width="356.11930750086896pt" height="172.44792480314962pt" xmlns="http://www.w3.org/2000/svg" xmlns:xlink="http://www.w3.org/1999/xlink" xmlns:h5="http://www.w3.org/1999/xhtml">
    <path class="typst-shape" fill="#ffffff" fill-rule="nonzero" d="M 0 0 L 0 172.44792 L 356.1193 172.44792 L 356.1193 0 Z "/>
    <g>
        <g transform="translate(8 8)">
            <g class="typst-group">
                <g>
                    <g transform="translate(1.7007874015748048 79.88543307086614)">
                        <path class="typst-shape" fill="none" stroke="#1a1a18" stroke-width="1" stroke-linecap="butt" stroke-linejoin="miter" stroke-miterlimit="4" d="M 0 0 L 104.314964 0 "/>
                    </g>
                    <g transform="translate(0 79.88543307086614)">
                        <path class="typst-shape" fill="none" stroke="#a29b8c" stroke-width="0.55" stroke-linecap="butt" stroke-linejoin="miter" stroke-miterlimit="4" d="M 4.5354333 0 L 0 6.2362204 "/>
                    </g>
                    <g transform="translate(8.22047244094488 79.88543307086614)">
                        <path class="typst-shape" fill="none" stroke="#a29b8c" stroke-width="0.55" stroke-linecap="butt" stroke-linejoin="miter" stroke-miterlimit="4" d="M 4.5354333 0 L 0 6.2362204 "/>
                    </g>
                    <g transform="translate(16.440944881889767 79.88543307086614)">
                        <path class="typst-shape" fill="none" stroke="#a29b8c" stroke-width="0.55" stroke-linecap="butt" stroke-linejoin="miter" stroke-miterlimit="4" d="M 4.5354333 0 L 0 6.2362204 "/>
                    </g>
                    <g transform="translate(24.661417322834648 79.88543307086614)">
                        <path class="typst-shape" fill="none" stroke="#a29b8c" stroke-width="0.55" stroke-linecap="butt" stroke-linejoin="miter" stroke-miterlimit="4" d="M 4.5354333 0 L 0 6.2362204 "/>
                    </g>
                    <g transform="translate(32.881889763779526 79.88543307086614)">
                        <path class="typst-shape" fill="none" stroke="#a29b8c" stroke-width="0.55" stroke-linecap="butt" stroke-linejoin="miter" stroke-miterlimit="4" d="M 4.5354333 0 L 0 6.2362204 "/>
                    </g>
                    <g transform="translate(41.1023622047244 79.88543307086614)">
                        <path class="typst-shape" fill="none" stroke="#a29b8c" stroke-width="0.55" stroke-linecap="butt" stroke-linejoin="miter" stroke-miterlimit="4" d="M 4.5354333 0 L 0 6.2362204 "/>
                    </g>
                    <g transform="translate(49.32283464566928 79.88543307086614)">
                        <path class="typst-shape" fill="none" stroke="#a29b8c" stroke-width="0.55" stroke-linecap="butt" stroke-linejoin="miter" stroke-miterlimit="4" d="M 4.5354333 0 L 0 6.2362204 "/>
                    </g>
                    <g transform="translate(57.54330708661416 79.88543307086614)">
                        <path class="typst-shape" fill="none" stroke="#a29b8c" stroke-width="0.55" stroke-linecap="butt" stroke-linejoin="miter" stroke-miterlimit="4" d="M 4.5354333 0 L 0 6.2362204 "/>
                    </g>
                    <g transform="translate(65.76377952755905 79.88543307086614)">
                        <path class="typst-shape" fill="none" stroke="#a29b8c" stroke-width="0.55" stroke-linecap="butt" stroke-linejoin="miter" stroke-miterlimit="4" d="M 4.5354333 0 L 0 6.2362204 "/>
                    </g>
                    <g transform="translate(73.98425196850394 79.88543307086614)">
                        <path class="typst-shape" fill="none" stroke="#a29b8c" stroke-width="0.55" stroke-linecap="butt" stroke-linejoin="miter" stroke-miterlimit="4" d="M 4.5354333 0 L 0 6.2362204 "/>
                    </g>
                    <g transform="translate(82.20472440944881 79.88543307086614)">
                        <path class="typst-shape" fill="none" stroke="#a29b8c" stroke-width="0.55" stroke-linecap="butt" stroke-linejoin="miter" stroke-miterlimit="4" d="M 4.5354333 0 L 0 6.2362204 "/>
                    </g>
                    <g transform="translate(90.42519685039369 79.88543307086614)">
                        <path class="typst-shape" fill="none" stroke="#a29b8c" stroke-width="0.55" stroke-linecap="butt" stroke-linejoin="miter" stroke-miterlimit="4" d="M 4.5354333 0 L 0 6.2362204 "/>
                    </g>
                    <g transform="translate(98.64566929133856 79.88543307086614)">
                        <path class="typst-shape" fill="none" stroke="#a29b8c" stroke-width="0.55" stroke-linecap="butt" stroke-linejoin="miter" stroke-miterlimit="4" d="M 4.5354333 0 L 0 6.2362204 "/>
                    </g>
                    <g transform="translate(30.04724409448819 20.357874015748035)">
                        <path class="typst-shape" fill="none" stroke="#1a1a18" stroke-width="0.6" stroke-linecap="butt" stroke-linejoin="miter" stroke-miterlimit="4" d="M 0.0000000000000062941777 0 L 0 55.838512 "/>
                    </g>
                    <g transform="translate(28.98425196850393 76.19638692913387)">
                        <path class="typst-shape" fill="#1a1a18" fill-rule="nonzero" stroke="#1a1a18" stroke-width="0.6" stroke-linecap="butt" stroke-linejoin="miter" stroke-miterlimit="4" d="M 1.0629921 2.8346457 L 0 0 L 2.1259842 0 L 1.0629921 2.8346457 Z "/>
                    </g>
                    <g transform="translate(41.95275590551181 20.357874015748035)">
                        <path class="typst-shape" fill="none" stroke="#1a1a18" stroke-width="0.6" stroke-linecap="butt" stroke-linejoin="miter" stroke-miterlimit="4" d="M 0 0 L 0 55.838512 "/>
                    </g>
                    <g transform="translate(40.889763779527556 76.19638692913387)">
                        <path class="typst-shape" fill="#1a1a18" fill-rule="nonzero" stroke="#1a1a18" stroke-width="0.6" stroke-linecap="butt" stroke-linejoin="miter" stroke-miterlimit="4" d="M 1.0629921 2.8346457 L 0 0 L 2.1259842 0 L 1.0629921 2.8346457 Z "/>
                    </g>
                    <g transform="translate(53.85826771653543 20.357874015748035)">
                        <path class="typst-shape" fill="none" stroke="#1a1a18" stroke-width="0.6" stroke-linecap="butt" stroke-linejoin="miter" stroke-miterlimit="4" d="M 0 0 L 0 55.838512 "/>
                    </g>
                    <g transform="translate(52.79527559055117 76.19638692913387)">
                        <path class="typst-shape" fill="#1a1a18" fill-rule="nonzero" stroke="#1a1a18" stroke-width="0.6" stroke-linecap="butt" stroke-linejoin="miter" stroke-miterlimit="4" d="M 1.0629921 2.8346457 L 0 0 L 2.1259842 0 L 1.0629921 2.8346457 Z "/>
                    </g>
                    <g transform="translate(65.76377952755907 20.357874015748035)">
                        <path class="typst-shape" fill="none" stroke="#1a1a18" stroke-width="0.6" stroke-linecap="butt" stroke-linejoin="miter" stroke-miterlimit="4" d="M 0 0 L 0 55.838512 "/>
                    </g>
                    <g transform="translate(64.7007874015748 76.19638692913387)">
                        <path class="typst-shape" fill="#1a1a18" fill-rule="nonzero" stroke="#1a1a18" stroke-width="0.6" stroke-linecap="butt" stroke-linejoin="miter" stroke-miterlimit="4" d="M 1.0629921 2.8346457 L 0 0 L 2.1259842 0 L 1.0629921 2.8346457 Z "/>
                    </g>
                    <g transform="translate(77.66929133858268 20.357874015748035)">
                        <path class="typst-shape" fill="none" stroke="#1a1a18" stroke-width="0.6" stroke-linecap="butt" stroke-linejoin="miter" stroke-miterlimit="4" d="M 0 0 L 0 55.838512 "/>
                    </g>
                    <g transform="translate(76.60629921259842 76.19638692913387)">
                        <path class="typst-shape" fill="#1a1a18" fill-rule="nonzero" stroke="#1a1a18" stroke-width="0.6" stroke-linecap="butt" stroke-linejoin="miter" stroke-miterlimit="4" d="M 1.0629921 2.8346457 L 0 0 L 2.1259842 0 L 1.0629921 2.8346457 Z "/>
                    </g>
                    <g transform="translate(30.04724409448819 79.88543307086614)">
                        <path class="typst-shape" fill="none" stroke="#7c7f6a" stroke-width="2.8" stroke-linecap="butt" stroke-linejoin="miter" stroke-miterlimit="4" d="M 0 0 L 47.622047 0 "/>
                    </g>
                    <g transform="translate(30.04724409448819 76.2003937007874)">
                        <path class="typst-shape" fill="none" stroke="#7c7f6a" stroke-width="1.6" stroke-linecap="butt" stroke-linejoin="miter" stroke-miterlimit="4" d="M 0 7.3700786 L 0 0 "/>
                    </g>
                    <g transform="translate(77.66929133858268 76.2003937007874)">
                        <path class="typst-shape" fill="none" stroke="#7c7f6a" stroke-width="1.6" stroke-linecap="butt" stroke-linejoin="miter" stroke-miterlimit="4" d="M 0 7.3700786 L 0 0 "/>
                    </g>
                    <g transform="translate(77.66929133858268 72.51535433070865)">
                        <path class="typst-shape" fill="none" stroke="#1a1a18" stroke-width="0.7" stroke-linecap="butt" stroke-linejoin="miter" stroke-miterlimit="4" d="M 0 0 L 7.3700786 0 "/>
                    </g>
                    <g transform="translate(85.03937007874016 72.51535433070865)">
                        <path class="typst-shape" fill="none" stroke="#1a1a18" stroke-width="0.7" stroke-linecap="butt" stroke-linejoin="miter" stroke-miterlimit="4" d="M 0 0 L 0 7.3700786 "/>
                    </g>
                    <g transform="translate(88.36909448818896 64.45492125984252)">
                        <path class="typst-shape" fill="none" d="M 0 0 L 13.75 0 L 13.75 7.05 L 0 7.05 L 0 0 Z "/>
                    </g>
                    <g transform="translate(88.3690944094488 64.45492116535434)">
                        <g class="typst-group">
                            <g>
                                <g transform="translate(0 0)">
                                    <g class="typst-group">
                                        <g>
                                            <g transform="translate(0 6.830000000000001)">
                                                <g class="typst-text" transform="scale(1, -1)">
                                                    <use xlink:href="#gBB1D79C8D06A993FCDF2F7A9648C1A44" x="0" fill="#1a1a18" fill-rule="nonzero"/>
                                                </g>
                                            </g>
                                            <g transform="translate(5 6.830000000000001)">
                                                <g class="typst-text" transform="scale(1, -1)">
                                                    <use xlink:href="#gFCFAC728928128BA35DB81F917311AB8" x="0" fill="#1a1a18" fill-rule="nonzero"/>
                                                </g>
                                            </g>
                                            <g transform="translate(10 6.830000000000001)">
                                                <g class="typst-text" transform="scale(1, -1)">
                                                    <use xlink:href="#gB609927B8C1852AB27B5560AC91BDF60" x="0" fill="#1a1a18" fill-rule="nonzero"/>
                                                </g>
                                            </g>
                                        </g>
                                    </g>
                                </g>
                            </g>
                        </g>
                    </g>
                    <g transform="translate(45.6070454943132 102.20767322834645)">
                        <path class="typst-shape" fill="none" d="M 0 0 L 16.502445 0 L 16.502445 7.513 L 0 7.513 L 0 0 Z "/>
                    </g>
                    <g transform="translate(45.60704546456693 102.2076731496063)">
                        <g class="typst-group">
                            <g>
                                <g transform="translate(0 0)">
                                    <g class="typst-group">
                                        <g>
                                            <g transform="translate(0 7.513000000000001)">
                                                <g class="typst-text" transform="scale(1, -1)">
                                                    <use xlink:href="#g63BAD7710A7F2DDA37E8BAEEAF3868AF" x="0" fill="#7c7f6a" fill-rule="nonzero"/>
                                                </g>
                                            </g>
                                            <g transform="translate(7.944444444444444 7.513000000000001)">
                                                <g class="typst-text" transform="scale(1, -1)">
                                                    <use xlink:href="#g991BD2E8A847EE9BF158E5BCA4C3363C" x="0" fill="#7c7f6a" fill-rule="nonzero"/>
                                                </g>
                                            </g>
                                        </g>
                                    </g>
                                </g>
                            </g>
                        </g>
                    </g>
                    <g transform="translate(36.89326771653543 0.009999999999996276)">
                        <path class="typst-shape" fill="none" d="M 0 0 L 33.93 0 L 33.93 6.68 L 0 6.68 L 0 0 Z "/>
                    </g>
                    <g transform="translate(36.89326771653543 0.009999937007872689)">
                        <g class="typst-group">
                            <g>
                                <g transform="translate(0 0)">
                                    <g class="typst-group">
                                        <g>
                                            <g transform="translate(0 6.580000000000001)">
                                                <g class="typst-text" transform="scale(1, -1)">
                                                    <use xlink:href="#g8D8BB4470C6A2FDBD7C784190749AA5E" x="0" fill="#1a1a18" fill-rule="nonzero"/>
                                                    <use xlink:href="#g9427B3A754AA6B640067166CF882AD4E" x="5.04" fill="#1a1a18" fill-rule="nonzero"/>
                                                    <use xlink:href="#g707E49AD3C8483741A27D5DED4FAF1B4" x="9.49" fill="#1a1a18" fill-rule="nonzero"/>
                                                    <use xlink:href="#g79F7D3A1865A7F42A1E00DA1DF9A8C78" x="14.28" fill="#1a1a18" fill-rule="nonzero"/>
                                                    <use xlink:href="#gBDA95CFC7D94396B71DE99C253C0F84A" x="18.75" fill="#1a1a18" fill-rule="nonzero"/>
                                                    <use xlink:href="#g42DA015C72B1949B87FACDD264BD7B08" x="23.03" fill="#1a1a18" fill-rule="nonzero"/>
                                                    <use xlink:href="#g8D8BB4470C6A2FDBD7C784190749AA5E" x="28.89" fill="#1a1a18" fill-rule="nonzero"/>
                                                </g>
                                            </g>
                                        </g>
                                    </g>
                                </g>
                            </g>
                        </g>
                    </g>
                    <g transform="translate(164.97637795275588 79.88543307086614)">
                        <path class="typst-shape" fill="none" stroke="#1a1a18" stroke-width="1" stroke-linecap="butt" stroke-linejoin="miter" stroke-miterlimit="4" d="M 0 0 L 151.93701 0 "/>
                    </g>
                    <g transform="translate(163.27559055118107 79.88543307086614)">
                        <path class="typst-shape" fill="none" stroke="#a29b8c" stroke-width="0.55" stroke-linecap="butt" stroke-linejoin="miter" stroke-miterlimit="4" d="M 4.5354333 0 L 0 6.2362204 "/>
                    </g>
                    <g transform="translate(175.46456692913384 79.88543307086614)">
                        <path class="typst-shape" fill="none" stroke="#a29b8c" stroke-width="0.55" stroke-linecap="butt" stroke-linejoin="miter" stroke-miterlimit="4" d="M 4.5354333 0 L 0 6.2362204 "/>
                    </g>
                    <g transform="translate(187.65354330708658 79.88543307086614)">
                        <path class="typst-shape" fill="none" stroke="#a29b8c" stroke-width="0.55" stroke-linecap="butt" stroke-linejoin="miter" stroke-miterlimit="4" d="M 4.5354333 0 L 0 6.2362204 "/>
                    </g>
                    <g transform="translate(199.84251968503935 79.88543307086614)">
                        <path class="typst-shape" fill="none" stroke="#a29b8c" stroke-width="0.55" stroke-linecap="butt" stroke-linejoin="miter" stroke-miterlimit="4" d="M 4.5354333 0 L 0 6.2362204 "/>
                    </g>
                    <g transform="translate(212.03149606299212 79.88543307086614)">
                        <path class="typst-shape" fill="none" stroke="#a29b8c" stroke-width="0.55" stroke-linecap="butt" stroke-linejoin="miter" stroke-miterlimit="4" d="M 4.5354333 0 L 0 6.2362204 "/>
                    </g>
                    <g transform="translate(224.22047244094486 79.88543307086614)">
                        <path class="typst-shape" fill="none" stroke="#a29b8c" stroke-width="0.55" stroke-linecap="butt" stroke-linejoin="miter" stroke-miterlimit="4" d="M 4.5354333 0 L 0 6.2362204 "/>
                    </g>
                    <g transform="translate(236.40944881889763 79.88543307086614)">
                        <path class="typst-shape" fill="none" stroke="#a29b8c" stroke-width="0.55" stroke-linecap="butt" stroke-linejoin="miter" stroke-miterlimit="4" d="M 4.5354333 0 L 0 6.2362204 "/>
                    </g>
                    <g transform="translate(248.5984251968504 79.88543307086614)">
                        <path class="typst-shape" fill="none" stroke="#a29b8c" stroke-width="0.55" stroke-linecap="butt" stroke-linejoin="miter" stroke-miterlimit="4" d="M 4.5354333 0 L 0 6.2362204 "/>
                    </g>
                    <g transform="translate(260.78740157480314 79.88543307086614)">
                        <path class="typst-shape" fill="none" stroke="#a29b8c" stroke-width="0.55" stroke-linecap="butt" stroke-linejoin="miter" stroke-miterlimit="4" d="M 4.5354333 0 L 0 6.2362204 "/>
                    </g>
                    <g transform="translate(272.9763779527559 79.88543307086614)">
                        <path class="typst-shape" fill="none" stroke="#a29b8c" stroke-width="0.55" stroke-linecap="butt" stroke-linejoin="miter" stroke-miterlimit="4" d="M 4.5354333 0 L 0 6.2362204 "/>
                    </g>
                    <g transform="translate(285.1653543307086 79.88543307086614)">
                        <path class="typst-shape" fill="none" stroke="#a29b8c" stroke-width="0.55" stroke-linecap="butt" stroke-linejoin="miter" stroke-miterlimit="4" d="M 4.5354333 0 L 0 6.2362204 "/>
                    </g>
                    <g transform="translate(297.35433070866134 79.88543307086614)">
                        <path class="typst-shape" fill="none" stroke="#a29b8c" stroke-width="0.55" stroke-linecap="butt" stroke-linejoin="miter" stroke-miterlimit="4" d="M 4.5354333 0 L 0 6.2362204 "/>
                    </g>
                    <g transform="translate(309.5433070866141 79.88543307086614)">
                        <path class="typst-shape" fill="none" stroke="#a29b8c" stroke-width="0.55" stroke-linecap="butt" stroke-linejoin="miter" stroke-miterlimit="4" d="M 4.5354333 0 L 0 6.2362204 "/>
                    </g>
                    <g transform="translate(196.51764223535056 50.12165354330709)">
                        <path class="typst-shape" fill="none" stroke="#1a1a18" stroke-width="0.6" stroke-linecap="butt" stroke-linejoin="miter" stroke-miterlimit="4" d="M 48.35757 0 L 0 27.919256 "/>
                    </g>
                    <g transform="translate(194.06276702362203 77.12033196062993)">
                        <path class="typst-shape" fill="#1a1a18" fill-rule="nonzero" stroke="#1a1a18" stroke-width="0.6" stroke-linecap="butt" stroke-linejoin="miter" stroke-miterlimit="4" d="M 0 2.337901 L 1.9233791 0 L 2.9863713 1.8411564 L 0 2.337901 Z "/>
                    </g>
                    <g transform="translate(220.3286658573978 50.12165354330709)">
                        <path class="typst-shape" fill="none" stroke="#1a1a18" stroke-width="0.6" stroke-linecap="butt" stroke-linejoin="miter" stroke-miterlimit="4" d="M 48.35757 0 L 0 27.919256 "/>
                    </g>
                    <g transform="translate(217.8737906456693 77.12033196062993)">
                        <path class="typst-shape" fill="#1a1a18" fill-rule="nonzero" stroke="#1a1a18" stroke-width="0.6" stroke-linecap="butt" stroke-linejoin="miter" stroke-miterlimit="4" d="M 0 2.337901 L 1.9233791 0 L 2.9863713 1.8411564 L 0 2.337901 Z "/>
                    </g>
                    <g transform="translate(244.13968947944505 50.12165354330709)">
                        <path class="typst-shape" fill="none" stroke="#1a1a18" stroke-width="0.6" stroke-linecap="butt" stroke-linejoin="miter" stroke-miterlimit="4" d="M 48.35757 0 L 0 27.919256 "/>
                    </g>
                    <g transform="translate(241.6848142677165 77.12033196062993)">
                        <path class="typst-shape" fill="#1a1a18" fill-rule="nonzero" stroke="#1a1a18" stroke-width="0.6" stroke-linecap="butt" stroke-linejoin="miter" stroke-miterlimit="4" d="M 0 2.337901 L 1.9233791 0 L 2.9863713 1.8411564 L 0 2.337901 Z "/>
                    </g>
                    <g transform="translate(267.9507131014923 50.12165354330709)">
                        <path class="typst-shape" fill="none" stroke="#1a1a18" stroke-width="0.6" stroke-linecap="butt" stroke-linejoin="miter" stroke-miterlimit="4" d="M 48.35757 0 L 0 27.919256 "/>
                    </g>
                    <g transform="translate(265.4958378897638 77.12033196062993)">
                        <path class="typst-shape" fill="#1a1a18" fill-rule="nonzero" stroke="#1a1a18" stroke-width="0.6" stroke-linecap="butt" stroke-linejoin="miter" stroke-miterlimit="4" d="M 0 2.337901 L 1.9233791 0 L 2.9863713 1.8411564 L 0 2.337901 Z "/>
                    </g>
                    <g transform="translate(291.7617367235395 50.12165354330709)">
                        <path class="typst-shape" fill="none" stroke="#1a1a18" stroke-width="0.6" stroke-linecap="butt" stroke-linejoin="miter" stroke-miterlimit="4" d="M 48.35757 0 L 0 27.919256 "/>
                    </g>
                    <g transform="translate(289.30686151181095 77.12033196062993)">
                        <path class="typst-shape" fill="#1a1a18" fill-rule="nonzero" stroke="#1a1a18" stroke-width="0.6" stroke-linecap="butt" stroke-linejoin="miter" stroke-miterlimit="4" d="M 0 2.337901 L 1.9233791 0 L 2.9863713 1.8411564 L 0 2.337901 Z "/>
                    </g>
                    <g transform="translate(193.32283464566927 79.88543307086614)">
                        <path class="typst-shape" fill="none" stroke="#7c7f6a" stroke-width="2.8" stroke-linecap="butt" stroke-linejoin="miter" stroke-miterlimit="4" d="M 0 0 L 95.244095 0 "/>
                    </g>
                    <g transform="translate(193.32283464566927 76.2003937007874)">
                        <path class="typst-shape" fill="none" stroke="#7c7f6a" stroke-width="1.6" stroke-linecap="butt" stroke-linejoin="miter" stroke-miterlimit="4" d="M 0 7.3700786 L 0 0 "/>
                    </g>
                    <g transform="translate(288.56692913385825 76.2003937007874)">
                        <path class="typst-shape" fill="none" stroke="#7c7f6a" stroke-width="1.6" stroke-linecap="butt" stroke-linejoin="miter" stroke-miterlimit="4" d="M 0 7.3700786 L 0 0 "/>
                    </g>
                    <g transform="translate(284.95910929876203 66.42086614173229)">
                        <path class="typst-shape" fill="none" stroke="#1a1a18" stroke-width="0.7" stroke-linecap="butt" stroke-linejoin="miter" stroke-miterlimit="4" d="M 3.6078198 13.464567 C 3.6078198 8.737516 2.3635252 4.0937457 0 0 "/>
                    </g>
                    <g transform="translate(316.2746062992126 67.85649606299212)">
                        <path class="typst-shape" fill="none" d="M 0 0 L 13.75 0 L 13.75 7.05 L 0 7.05 L 0 0 Z "/>
                    </g>
                    <g transform="translate(316.2746062204724 67.85649596850395)">
                        <g class="typst-group">
                            <g>
                                <g transform="translate(0 0)">
                                    <g class="typst-group">
                                        <g>
                                            <g transform="translate(0 6.830000000000001)">
                                                <g class="typst-text" transform="scale(1, -1)">
                                                    <use xlink:href="#g5AA8D3B102655BA4F080481C431026B" x="0" fill="#1a1a18" fill-rule="nonzero"/>
                                                </g>
                                            </g>
                                            <g transform="translate(5 6.830000000000001)">
                                                <g class="typst-text" transform="scale(1, -1)">
                                                    <use xlink:href="#gFCFAC728928128BA35DB81F917311AB8" x="0" fill="#1a1a18" fill-rule="nonzero"/>
                                                </g>
                                            </g>
                                            <g transform="translate(10 6.830000000000001)">
                                                <g class="typst-text" transform="scale(1, -1)">
                                                    <use xlink:href="#gB609927B8C1852AB27B5560AC91BDF60" x="0" fill="#1a1a18" fill-rule="nonzero"/>
                                                </g>
                                            </g>
                                        </g>
                                    </g>
                                </g>
                            </g>
                        </g>
                    </g>
                    <g transform="translate(232.69365966754148 102.20767322834645)">
                        <path class="typst-shape" fill="none" d="M 0 0 L 16.502445 0 L 16.502445 7.513 L 0 7.513 L 0 0 Z "/>
                    </g>
                    <g transform="translate(232.6936596377953 102.2076731496063)">
                        <g class="typst-group">
                            <g>
                                <g transform="translate(0 0)">
                                    <g class="typst-group">
                                        <g>
                                            <g transform="translate(0 7.513000000000001)">
                                                <g class="typst-text" transform="scale(1, -1)">
                                                    <use xlink:href="#g476FC266DDC398B5BA7E2B4E824B6EAA" x="0" fill="#7c7f6a" fill-rule="nonzero"/>
                                                </g>
                                            </g>
                                            <g transform="translate(7.944444444444444 7.513000000000001)">
                                                <g class="typst-text" transform="scale(1, -1)">
                                                    <use xlink:href="#g991BD2E8A847EE9BF158E5BCA4C3363C" x="0" fill="#7c7f6a" fill-rule="nonzero"/>
                                                </g>
                                            </g>
                                        </g>
                                    </g>
                                </g>
                            </g>
                        </g>
                    </g>
                    <g transform="translate(225.73988188976378 0)">
                        <path class="typst-shape" fill="none" d="M 0 0 L 30.41 0 L 30.41 6.7 L 0 6.7 L 0 0 Z "/>
                    </g>
                    <g transform="translate(225.73988177952756 -0.00000012598425344076817)">
                        <g class="typst-group">
                            <g>
                                <g transform="translate(0 0)">
                                    <g class="typst-group">
                                        <g>
                                            <g transform="translate(0 6.580000000000001)">
                                                <g class="typst-text" transform="scale(1, -1)">
                                                    <use xlink:href="#g3506835FDF07C285C6CD704284E770B" x="0" fill="#1a1a18" fill-rule="nonzero"/>
                                                    <use xlink:href="#g8D8BB4470C6A2FDBD7C784190749AA5E" x="5.859999999999999" fill="#1a1a18" fill-rule="nonzero"/>
                                                    <use xlink:href="#g3A838D9FFA338060FE66CC9BA0F32B06" x="10.899999999999999" fill="#1a1a18" fill-rule="nonzero"/>
                                                    <use xlink:href="#g8D8BB4470C6A2FDBD7C784190749AA5E" x="16.169999999999998" fill="#1a1a18" fill-rule="nonzero"/>
                                                    <use xlink:href="#gF98CCD8D81A9CEDB306580B2EF4597C5" x="21.209999999999997" fill="#1a1a18" fill-rule="nonzero"/>
                                                    <use xlink:href="#g8D8BB4470C6A2FDBD7C784190749AA5E" x="25.369999999999997" fill="#1a1a18" fill-rule="nonzero"/>
                                                </g>
                                            </g>
                                        </g>
                                    </g>
                                </g>
                            </g>
                        </g>
                    </g>
                    <g transform="translate(0.46457480314962546 126.06337598425196)">
                        <path class="typst-shape" fill="none" d="M 0 0 L 293.874 0 L 293.874 8.5575 L 0 8.5575 L 0 0 Z "/>
                    </g>
                    <g transform="translate(0.4645747559054974 126.06337588976379)">
                        <g class="typst-group">
                            <g>
                                <g transform="translate(0 0)">
                                    <g class="typst-group">
                                        <g>
                                            <g transform="translate(0 7.171500000000001)">
                                                <g class="typst-text" transform="scale(1, -1)">
                                                    <use xlink:href="#gBE546809C477B5A4FD7CAEE4056BBA35" x="0" fill="#1a1a18" fill-rule="nonzero"/>
                                                    <use xlink:href="#gE6900DB10BE22F2544686FB68761EBE3" x="4.6725" fill="#1a1a18" fill-rule="nonzero"/>
                                                    <use xlink:href="#gBE546809C477B5A4FD7CAEE4056BBA35" x="9.964500000000001" fill="#1a1a18" fill-rule="nonzero"/>
                                                    <use xlink:href="#g2A9DB357A2E813E517BBE3FDF9C6DBBE" x="17.262" fill="#1a1a18" fill-rule="nonzero"/>
                                                    <use xlink:href="#gF69D3BA76C6BA3F3ADA4A5AB4428AC72" x="24.675" fill="#1a1a18" fill-rule="nonzero"/>
                                                    <use xlink:href="#g3222F2D064B187722EE8C55F07AB4571" x="31.9935" fill="#1a1a18" fill-rule="nonzero"/>
                                                    <use xlink:href="#gE6900DB10BE22F2544686FB68761EBE3" x="38.1465" fill="#1a1a18" fill-rule="nonzero"/>
                                                    <use xlink:href="#gBE546809C477B5A4FD7CAEE4056BBA35" x="43.438500000000005" fill="#1a1a18" fill-rule="nonzero"/>
                                                    <use xlink:href="#gE6900DB10BE22F2544686FB68761EBE3" x="48.111000000000004" fill="#1a1a18" fill-rule="nonzero"/>
                                                    <use xlink:href="#gF1C94E81D1BFABD6675937EE7E004DCC" x="53.403000000000006" fill="#1a1a18" fill-rule="nonzero"/>
                                                    <use xlink:href="#g9DFBDEC38AE2B4612B22FD0D4389141C" x="61.29900000000001" fill="#1a1a18" fill-rule="nonzero"/>
                                                    <use xlink:href="#gAE1913F3656876D8D5CDCC9EE8DB160A" x="71.715" fill="#1a1a18" fill-rule="nonzero"/>
                                                    <use xlink:href="#g572980C35C39CA33EA800E56BBB375F9" x="76.7445" fill="#1a1a18" fill-rule="nonzero"/>
                                                    <use xlink:href="#gAE1913F3656876D8D5CDCC9EE8DB160A" x="82.3935" fill="#1a1a18" fill-rule="nonzero"/>
                                                    <use xlink:href="#gE6900DB10BE22F2544686FB68761EBE3" x="87.423" fill="#1a1a18" fill-rule="nonzero"/>
                                                    <use xlink:href="#gF69D3BA76C6BA3F3ADA4A5AB4428AC72" x="92.715" fill="#1a1a18" fill-rule="nonzero"/>
                                                    <use xlink:href="#gA4E6F472A752EB0CDCDB517B61E9D59E" x="100.0335" fill="#1a1a18" fill-rule="nonzero"/>
                                                    <use xlink:href="#gE6900DB10BE22F2544686FB68761EBE3" x="105.168" fill="#1a1a18" fill-rule="nonzero"/>
                                                    <use xlink:href="#g5CD7B456B83AF7EFB3CC456D69899D9F" x="110.46000000000001" fill="#1a1a18" fill-rule="nonzero"/>
                                                    <use xlink:href="#g6F0B9B7BFD190AE3920EF7E0D7436883" x="115.99350000000001" fill="#1a1a18" fill-rule="nonzero"/>
                                                    <use xlink:href="#g166AB1DF755488394F414D458674457C" x="120.876" fill="#1a1a18" fill-rule="nonzero"/>
                                                    <use xlink:href="#gF69D3BA76C6BA3F3ADA4A5AB4428AC72" x="129.7905" fill="#1a1a18" fill-rule="nonzero"/>
                                                    <use xlink:href="#g3222F2D064B187722EE8C55F07AB4571" x="137.109" fill="#1a1a18" fill-rule="nonzero"/>
                                                    <use xlink:href="#g5CD7B456B83AF7EFB3CC456D69899D9F" x="143.262" fill="#1a1a18" fill-rule="nonzero"/>
                                                    <use xlink:href="#gE6900DB10BE22F2544686FB68761EBE3" x="148.7955" fill="#1a1a18" fill-rule="nonzero"/>
                                                    <use xlink:href="#gE78367AC65A5F623F062A957D826E7C2" x="154.0875" fill="#1a1a18" fill-rule="nonzero"/>
                                                    <use xlink:href="#g2AA78E5A2F80F4286A619159B6B30441" x="163.002" fill="#1a1a18" fill-rule="nonzero"/>
                                                    <use xlink:href="#g572980C35C39CA33EA800E56BBB375F9" x="167.8005" fill="#1a1a18" fill-rule="nonzero"/>
                                                    <use xlink:href="#gD8535000EEEFC71204EEA82FEA1B08AA" x="173.4495" fill="#1a1a18" fill-rule="nonzero"/>
                                                </g>
                                            </g>
                                            <g transform="translate(184.85249999999996 7.171500000000001)">
                                                <g class="typst-text" transform="scale(1, -1)">
                                                    <use xlink:href="#g638B7DFC370BB40F41723AD3BE55BFBE" x="0" fill="#1a1a18" fill-rule="nonzero"/>
                                                </g>
                                            </g>
                                            <g transform="translate(195.35249999999996 7.171500000000001)">
                                                <g class="typst-text" transform="scale(1, -1)"/>
                                            </g>
                                            <g transform="translate(200.60249999999996 7.171500000000001)">
                                                <g class="typst-text" transform="scale(1, -1)">
                                                    <use xlink:href="#gAE1913F3656876D8D5CDCC9EE8DB160A" x="0" fill="#1a1a18" fill-rule="nonzero"/>
                                                    <use xlink:href="#g572980C35C39CA33EA800E56BBB375F9" x="5.0295" fill="#1a1a18" fill-rule="nonzero"/>
                                                    <use xlink:href="#gAE1913F3656876D8D5CDCC9EE8DB160A" x="10.6785" fill="#1a1a18" fill-rule="nonzero"/>
                                                    <use xlink:href="#gE6900DB10BE22F2544686FB68761EBE3" x="15.707999999999998" fill="#1a1a18" fill-rule="nonzero"/>
                                                    <use xlink:href="#gF69D3BA76C6BA3F3ADA4A5AB4428AC72" x="21" fill="#1a1a18" fill-rule="nonzero"/>
                                                    <use xlink:href="#g382667ED9C8705643693B52DEEC2F5BA" x="28.3185" fill="#1a1a18" fill-rule="nonzero"/>
                                                    <use xlink:href="#gF69D3BA76C6BA3F3ADA4A5AB4428AC72" x="35.4585" fill="#1a1a18" fill-rule="nonzero"/>
                                                    <use xlink:href="#gC348104D211F40483AF50223730694D0" x="40.152" fill="#1a1a18" fill-rule="nonzero"/>
                                                    <use xlink:href="#g6F0B9B7BFD190AE3920EF7E0D7436883" x="46.305" fill="#1a1a18" fill-rule="nonzero"/>
                                                    <use xlink:href="#g166AB1DF755488394F414D458674457C" x="51.1875" fill="#1a1a18" fill-rule="nonzero"/>
                                                    <use xlink:href="#gF69D3BA76C6BA3F3ADA4A5AB4428AC72" x="60.102000000000004" fill="#1a1a18" fill-rule="nonzero"/>
                                                    <use xlink:href="#gBE546809C477B5A4FD7CAEE4056BBA35" x="67.4205" fill="#1a1a18" fill-rule="nonzero"/>
                                                    <use xlink:href="#gF69D3BA76C6BA3F3ADA4A5AB4428AC72" x="72.093" fill="#1a1a18" fill-rule="nonzero"/>
                                                    <use xlink:href="#g3222F2D064B187722EE8C55F07AB4571" x="76.7865" fill="#1a1a18" fill-rule="nonzero"/>
                                                    <use xlink:href="#g5CD7B456B83AF7EFB3CC456D69899D9F" x="82.93950000000001" fill="#1a1a18" fill-rule="nonzero"/>
                                                    <use xlink:href="#g2AA78E5A2F80F4286A619159B6B30441" x="88.47300000000001" fill="#1a1a18" fill-rule="nonzero"/>
                                                </g>
                                            </g>
                                        </g>
                                    </g>
                                </g>
                            </g>
                        </g>
                    </g>
                    <g transform="translate(127.03550258092737 145.0552248031496)">
                        <path class="typst-shape" fill="none" d="M 0 0 L 40.732143 0 L 40.732143 11.3927 L 0 11.3927 L 0 0 Z "/>
                    </g>
                    <g transform="translate(127.03550244094485 145.05522478740153)">
                        <g class="typst-group">
                            <g>
                                <g transform="translate(0 0)">
                                    <g class="typst-group">
                                        <g>
                                            <g transform="translate(0 0)">
                                                <g class="typst-group">
                                                    <g>
                                                        <g transform="translate(0 7.513000000000001)">
                                                            <g class="typst-text" transform="scale(1, -1)">
                                                                <use xlink:href="#g9421F11CE886FCFE573B01FC1BFAD9C8" x="0" fill="#7c7f6a" fill-rule="nonzero"/>
                                                            </g>
                                                        </g>
                                                        <g transform="translate(10.458555555555556 7.513000000000001)">
                                                            <g class="typst-text" transform="scale(1, -1)">
                                                                <use xlink:href="#g40116ABA353B46442A6895AE452CE8A6" x="0" fill="#7c7f6a" fill-rule="nonzero"/>
                                                            </g>
                                                        </g>
                                                        <g transform="translate(29.21147777777778 3.1790000000000003)">
                                                            <g class="typst-text" transform="scale(1, -1)">
                                                                <use xlink:href="#gA0E7426B9B542702E02769A3658A6D26" x="0" fill="#7c7f6a" fill-rule="nonzero"/>
                                                            </g>
                                                        </g>
                                                        <g transform="translate(23.172111111111114 11.308)">
                                                            <g class="typst-text" transform="scale(1, -1)">
                                                                <use xlink:href="#gE5C46C9CBD89948A8BE0A2E0956CDE5B" x="0" fill="#7c7f6a" fill-rule="nonzero"/>
                                                                <use xlink:href="#gBDAA81CC3413C4F16859DD3E0CBA8F38" x="3.0338" fill="#7c7f6a" fill-rule="nonzero"/>
                                                                <use xlink:href="#gC9669A5292D1745586F1F838BBBDD8B1" x="5.1744" fill="#7c7f6a" fill-rule="nonzero"/>
                                                            </g>
                                                        </g>
                                                        <g transform="translate(33.91104444444445 11.308)">
                                                            <g class="typst-text" transform="scale(1, -1)">
                                                                <use xlink:href="#g71E7F7ACB9560EFA9E00B6FBA0C6DA3E" x="0" fill="#7c7f6a" fill-rule="nonzero"/>
                                                            </g>
                                                        </g>
                                                        <g transform="translate(23.172111111111114 4.763000000000001)">
                                                            <path class="typst-shape" fill="none" stroke="#7c7f6a" stroke-width="0.528" stroke-linecap="butt" stroke-linejoin="miter" stroke-miterlimit="4" d="M 0 0 L 16.460033 0 "/>
                                                        </g>
                                                    </g>
                                                </g>
                                            </g>
                                        </g>
                                    </g>
                                </g>
                            </g>
                        </g>
                    </g>
                </g>
            </g>
        </g>
    </g>
    <defs id="glyph">
        <symbol id="gBB1D79C8D06A993FCDF2F7A9648C1A44" overflow="visible">
            <path d="M 1.16 1.4 C 0.83 1.4 0.66999996 1.23 0.66999996 0.89 C 0.66999996 0.14 1.28 -0.22 2.07 -0.22 C 2.87 -0.22 3.51 0.17999999 3.98 0.98999995 C 4.37 1.66 4.5699997 2.4299998 4.5699997 3.29 C 4.5699997 4.56 4.3399997 5.46 3.8799999 5.99 C 3.49 6.44 3.04 6.66 2.53 6.66 C 1.9399999 6.66 1.4499999 6.45 1.06 6.02 C 0.63 5.5699997 0.42 5.0299997 0.42 4.4 C 0.42 3.79 0.59999996 3.27 0.96 2.84 C 1.3399999 2.3799999 1.8299999 2.1499999 2.4199998 2.1499999 C 2.9399998 2.1499999 3.34 2.4299998 3.61 2.99 L 3.61 2.86 C 3.61 1.77 3.4199998 1.03 3.03 0.63 C 2.72 0.29999998 2.3899999 0.14 2.06 0.14 C 1.66 0.14 1.37 0.22999999 1.18 0.42 C 1.49 0.42 1.65 0.59999996 1.65 0.90999997 C 1.65 1.1899999 1.4399999 1.4 1.16 1.4 Z M 2.4299998 2.46 C 2.04 2.46 1.75 2.6599998 1.55 3.06 C 1.4399999 3.29 1.38 3.74 1.38 4.39 C 1.38 5.04 1.4499999 5.48 1.5799999 5.73 C 1.8 6.1299996 2.12 6.33 2.53 6.33 C 2.9399998 6.33 3.24 6.08 3.4299998 5.58 C 3.54 5.31 3.61 4.85 3.61 4.2 C 3.61 3.33 3.22 2.46 2.4299998 2.46 Z "/>
        </symbol>
        <symbol id="gFCFAC728928128BA35DB81F917311AB8" overflow="visible">
            <path d="M 2.49 -0.22 C 3.8999999 -0.22 4.6 0.91999996 4.6 3.1999998 C 4.6 4.73 4.2799997 5.75 3.6499999 6.25 C 3.3 6.52 2.9099998 6.66 2.5 6.66 C 1.09 6.66 0.39 5.5099998 0.39 3.1999998 C 0.39 1.36 0.88 -0.22 2.49 -0.22 Z M 3.61 5.24 C 3.6799998 4.89 3.7099998 4.25 3.7099998 3.32 C 3.7099998 2.3999999 3.6699998 1.7199999 3.6 1.28 C 3.47 0.48 3.1 0.08 2.49 0.08 C 2.26 0.08 2.03 0.17 1.8199999 0.34 C 1.55 0.57 1.39 1.04 1.3199999 1.76 C 1.29 2.01 1.28 2.53 1.28 3.32 C 1.28 4.19 1.31 4.7999997 1.36 5.13 C 1.4499999 5.68 1.63 6.0299997 1.91 6.18 C 2.1299999 6.2999997 2.32 6.3599997 2.49 6.3599997 C 3.1399999 6.3599997 3.5 5.83 3.61 5.24 Z "/>
        </symbol>
        <symbol id="gB609927B8C1852AB27B5560AC91BDF60" overflow="visible">
            <path d="M 3.26 5.44 C 3.26 6.21 2.6499999 6.83 1.88 6.83 C 1.11 6.83 0.48999998 6.21 0.48999998 5.44 C 0.48999998 4.67 1.11 4.06 1.88 4.06 C 2.6299999 4.06 3.26 4.69 3.26 5.44 Z M 2.79 5.44 C 2.79 4.94 2.3799999 4.5299997 1.88 4.5299997 C 1.37 4.5299997 0.96 4.93 0.96 5.44 C 0.96 5.96 1.36 6.3599997 1.88 6.3599997 C 2.3899999 6.3599997 2.79 5.95 2.79 5.44 Z "/>
        </symbol>
        <symbol id="g63BAD7710A7F2DDA37E8BAEEAF3868AF" overflow="visible">
            <path d="M 2.9589999 7.3259997 C 2.508 6.864 1.848 6.633 0.979 6.633 L 0.979 6.204 C 1.551 6.204 2.024 6.292 2.387 6.468 L 2.387 0.902 C 2.387 0.704 2.343 0.572 2.244 0.517 C 2.145 0.462 1.87 0.429 1.43 0.429 L 1.045 0.429 L 1.045 0 C 1.3199999 0.022 1.914 0.033 2.827 0.033 C 3.74 0.033 4.334 0.022 4.609 0 L 4.609 0.429 L 4.224 0.429 C 3.773 0.429 3.498 0.462 3.41 0.517 C 3.322 0.572 3.267 0.704 3.267 0.902 L 3.267 6.996 C 3.267 7.2599998 3.245 7.3259997 2.9589999 7.3259997 Z "/>
        </symbol>
        <symbol id="g991BD2E8A847EE9BF158E5BCA4C3363C" overflow="visible">
            <path d="M 6.93 0.352 C 6.93 0.429 6.908 0.484 6.853 0.539 L 4.642 2.75 L 6.853 4.961 C 6.908 5.016 6.93 5.071 6.93 5.148 C 6.93 5.291 6.82 5.401 6.677 5.401 C 6.6 5.401 6.545 5.379 6.49 5.324 L 4.279 3.113 L 2.068 5.324 C 2.013 5.379 1.958 5.401 1.881 5.401 C 1.738 5.401 1.628 5.291 1.628 5.148 C 1.628 5.071 1.65 5.016 1.705 4.961 L 3.916 2.75 L 1.705 0.539 C 1.65 0.484 1.628 0.429 1.628 0.352 C 1.628 0.20899999 1.738 0.099 1.881 0.099 C 1.958 0.099 2.013 0.121 2.068 0.176 L 4.279 2.387 L 6.49 0.176 C 6.545 0.121 6.6 0.099 6.677 0.099 C 6.82 0.099 6.93 0.20899999 6.93 0.352 Z "/>
        </symbol>
        <symbol id="g8D8BB4470C6A2FDBD7C784190749AA5E" overflow="visible">
            <path d="M 0.41 2.05 C 0.41 1.03 1.09 -0.099999994 2.51 -0.099999994 C 3.1499999 -0.099999994 3.6399999 0.13 3.98 0.45999998 C 4.43 0.9 4.63 1.53 4.63 2.1399999 C 4.63 3.1799998 4.06 4.39 2.53 4.39 C 1.87 4.39 1.3299999 4.12 0.96 3.6899998 C 0.59999996 3.26 0.41 2.6799998 0.41 2.05 Z M 2.3799999 4.04 C 3.24 4.04 3.77 3.26 3.77 1.8199999 C 3.77 0.56 3.12 0.25 2.6499999 0.25 C 1.61 0.25 1.27 1.51 1.27 2.28 C 1.27 3.1499999 1.48 4.04 2.3799999 4.04 Z "/>
        </symbol>
        <symbol id="g9427B3A754AA6B640067166CF882AD4E" overflow="visible">
            <path d="M 1.8199999 1.22 C 1.8199999 0.39 1.7099999 0.34 1.1 0.31 C 1.04 0.25 1.04 0.04 1.1 -0.02 C 1.49 -0.01 1.89 0 2.22 0 C 2.56 0 2.95 -0.01 3.33 -0.02 C 3.3899999 0.04 3.3899999 0.25 3.33 0.31 C 2.72 0.34 2.61 0.39 2.61 1.22 L 2.61 3.9199998 L 2.78 3.9199998 C 3.59 3.9199998 3.75 3.6399999 3.9199998 2.83 C 4.0499997 2.83 4.18 2.87 4.18 2.87 C 4.12 3.33 4.08 3.77 4.0699997 4.35 C 3.84 4.33 3.09 4.29 2.59 4.29 L 1.8399999 4.29 C 1.3399999 4.29 0.78 4.3199997 0.38 4.35 C 0.37 3.77 0.32999998 3.33 0.26 2.87 C 0.26 2.87 0.39999998 2.83 0.53 2.83 C 0.7 3.6399999 0.84999996 3.9199998 1.67 3.9199998 L 1.8199999 3.9199998 Z "/>
        </symbol>
        <symbol id="g707E49AD3C8483741A27D5DED4FAF1B4" overflow="visible">
            <path d="M 1.4599999 4.29 C 1.03 4.29 0.68 4.2999997 0.35 4.31 C 0.29 4.25 0.29 4.04 0.35 3.98 C 0.96 3.9399998 1.0699999 3.8999999 1.0699999 3.07 L 1.0699999 1.22 C 1.0699999 0.39 0.96 0.35999998 0.35 0.31 C 0.29 0.25 0.29 0.04 0.35 -0.02 C 0.68 -0.01 1.03 0 1.4699999 0 C 1.8399999 0 2.1699998 -0.02 2.84 -0.02 C 3.6999998 -0.02 4.35 0.22 4.35 1.2099999 C 4.35 1.77 4 2.1599998 3.3899999 2.27 L 3.3899999 2.3 C 3.85 2.3899999 4.2 2.71 4.2 3.31 C 4.2 4.0099998 3.77 4.31 2.56 4.31 C 2.1499999 4.31 1.89 4.29 1.4599999 4.29 Z M 1.86 2.1699998 L 2.62 2.1699998 C 3.23 2.1699998 3.49 1.77 3.49 1.17 C 3.49 0.5 3.11 0.31 2.57 0.31 C 2.05 0.31 1.86 0.39999998 1.86 0.85999995 Z M 1.86 2.46 L 1.86 3.62 C 1.86 3.9199998 2.09 3.98 2.57 3.98 C 3.09 3.98 3.3999999 3.84 3.3999999 3.24 C 3.3999999 2.84 3.1399999 2.46 2.52 2.46 Z "/>
        </symbol>
        <symbol id="g79F7D3A1865A7F42A1E00DA1DF9A8C78" overflow="visible">
            <path d="M 3.86 0.93 C 3.49 0.55 3.1999998 0.39 2.62 0.39 C 2.26 0.39 1.8399999 0.59999996 1.53 1.11 C 1.3299999 1.4399999 1.2099999 1.9 1.2099999 2.48 L 3.87 2.46 C 3.99 2.46 4.06 2.52 4.06 2.6299999 C 4.06 3.47 3.76 4.37 2.37 4.37 C 1.5 4.37 0.37 3.54 0.37 2.02 C 0.37 1.4599999 0.51 0.91999996 0.84 0.53999996 C 1.18 0.14 1.65 -0.099999994 2.37 -0.099999994 C 3.1299999 -0.099999994 3.6699998 0.25 4.0699997 0.77 C 4.04 0.87 3.98 0.91999996 3.86 0.93 Z M 1.24 2.82 C 1.43 3.9499998 2.1299999 4.04 2.37 4.04 C 2.75 4.04 3.1999998 3.83 3.1999998 2.99 C 3.1999998 2.8999999 3.1599998 2.85 3.05 2.85 Z "/>
        </symbol>
        <symbol id="gBDA95CFC7D94396B71DE99C253C0F84A" overflow="visible">
            <path d="M 3.98 0.90999997 C 3.9399998 1 3.86 1.04 3.77 1.05 C 3.4299998 0.61 3 0.39 2.57 0.39 C 1.8399999 0.39 1.23 1.13 1.23 2.3 C 1.23 3.3999999 1.7099999 4.06 2.37 4.06 C 2.96 4.06 3.04 3.7099998 3.08 3.36 C 3.11 3.09 3.25 3 3.46 3 C 3.6699998 3 3.9499998 3.1299999 3.9499998 3.4399998 C 3.9499998 3.99 3.3799999 4.39 2.4199998 4.39 C 1.43 4.39 0.37 3.5 0.37 2.08 C 0.37 0.78999996 1.09 -0.099999994 2.35 -0.099999994 C 2.95 -0.099999994 3.48 0.089999996 3.98 0.90999997 Z "/>
        </symbol>
        <symbol id="g42DA015C72B1949B87FACDD264BD7B08" overflow="visible">
            <path d="M 4.79 3.07 C 4.79 3.8999999 4.9 3.9299998 5.5099998 3.98 C 5.5699997 4.04 5.5699997 4.25 5.5099998 4.31 C 5.16 4.29 4.72 4.29 4.39 4.29 C 4.11 4.29 3.7099998 4.2999997 3.32 4.31 C 3.26 4.25 3.26 4.04 3.32 3.98 C 3.9299998 3.9399998 4 3.8999999 4 3.07 L 4 2.4199998 L 1.86 2.4199998 L 1.86 3.07 C 1.86 3.8999999 1.93 3.9299998 2.54 3.98 C 2.6 4.04 2.6 4.25 2.54 4.31 C 2.1599998 4.2999997 1.78 4.29 1.4599999 4.29 C 1.16 4.29 0.75 4.2999997 0.35 4.31 C 0.29 4.25 0.29 4.04 0.35 3.98 C 0.96 3.9399998 1.0699999 3.8999999 1.0699999 3.07 L 1.0699999 1.22 C 1.0699999 0.39 0.96 0.35999998 0.35 0.31 C 0.29 0.25 0.29 0.04 0.35 -0.02 C 0.75 -0.01 1.15 0 1.4699999 0 C 1.79 0 2.18 -0.01 2.54 -0.02 C 2.6 0.04 2.6 0.25 2.54 0.31 C 1.93 0.35 1.86 0.39 1.86 1.22 L 1.86 2.09 L 4 2.09 L 4 1.22 C 4 0.39 3.9299998 0.35999998 3.32 0.31 C 3.26 0.25 3.26 0.04 3.32 -0.02 C 3.6799998 -0.01 4.0499997 0 4.4 0 C 4.7 0 5.12 -0.01 5.5099998 -0.02 C 5.5699997 0.04 5.5699997 0.25 5.5099998 0.31 C 4.9 0.35 4.79 0.39 4.79 1.22 Z "/>
        </symbol>
        <symbol id="g5AA8D3B102655BA4F080481C431026B" overflow="visible">
            <path d="M 3.03 3.53 C 3.6899998 3.78 4.31 4.41 4.31 5.2599998 C 4.31 5.69 4.1 6.04 3.6899998 6.31 C 3.33 6.54 2.9199998 6.66 2.46 6.66 C 2.01 6.66 1.62 6.54 1.27 6.31 C 0.88 6.0499997 0.68 5.71 0.68 5.2799997 C 0.68 4.95 0.9 4.72 1.22 4.72 C 1.54 4.72 1.76 4.95 1.76 5.27 C 1.76 5.6 1.5699999 5.7799997 1.1899999 5.7999997 C 1.4499999 6.15 1.86 6.33 2.4199998 6.33 C 3.02 6.33 3.32 5.98 3.32 5.27 C 3.32 4.85 3.24 4.5 3.09 4.21 C 2.82 3.73 2.45 3.6399999 1.8299999 3.6399999 C 1.7099999 3.62 1.65 3.57 1.65 3.48 C 1.65 3.33 1.7199999 3.33 1.92 3.33 L 2.35 3.33 C 3.1 3.33 3.48 2.8 3.48 1.73 C 3.48 0.88 3.1699998 0.14 2.4099998 0.14 C 1.76 0.14 1.28 0.35999998 0.98999995 0.79999995 C 1.3399999 0.78999996 1.5999999 1.05 1.5999999 1.39 C 1.5999999 1.73 1.35 1.9799999 1.01 1.9799999 C 0.62 1.9799999 0.42 1.78 0.42 1.37 C 0.42 0.88 0.64 0.48999998 1.0799999 0.17999999 C 1.4699999 -0.089999996 1.93 -0.22 2.44 -0.22 C 3.01 -0.22 3.5 -0.03 3.9299998 0.34 C 4.36 0.71 4.5699997 1.17 4.5699997 1.73 C 4.5699997 2.6699998 3.83 3.32 3.03 3.53 Z "/>
        </symbol>
        <symbol id="g476FC266DDC398B5BA7E2B4E824B6EAA" overflow="visible">
            <path d="M 2.6069999 7.3259997 C 2.046 7.3259997 1.573 7.128 1.166 6.732 C 0.759 6.336 0.55 5.874 0.55 5.313 C 0.55 4.939 0.825 4.664 1.166 4.664 C 1.496 4.664 1.771 4.95 1.771 5.2799997 C 1.771 5.643 1.507 5.896 1.155 5.896 C 1.122 5.896 1.1 5.896 1.078 5.8849998 C 1.287 6.424 1.771 6.897 2.464 6.897 C 3.366 6.897 3.872 6.116 3.872 5.17 C 3.872 4.433 3.498 3.641 2.75 2.805 L 0.682 0.473 C 0.539 0.308 0.55 0.319 0.55 0 L 4.631 0 L 4.95 1.98 L 4.587 1.98 C 4.499 1.419 4.422 1.1 4.356 1.001 C 4.301 0.946 3.971 0.924 3.366 0.924 L 1.529 0.924 L 2.596 1.969 C 3.3439999 2.673 4.29 3.432 4.609 4.015 C 4.829 4.4 4.939 4.785 4.939 5.17 C 4.939 6.468 3.927 7.3259997 2.6069999 7.3259997 Z "/>
        </symbol>
        <symbol id="g3506835FDF07C285C6CD704284E770B" overflow="visible">
            <path d="M 4.37 4.29 L 1.53 4.29 C 1.13 4.29 0.75 4.2999997 0.45 4.31 C 0.39 4.25 0.39 4.04 0.45 3.98 C 1 3.9399998 1.13 3.8899999 1.13 3.07 L 1.13 1.22 C 1.13 0.39999998 1 0.35 0.35 0.31 C 0.29 0.25 0.29 0.04 0.35 -0.02 C 0.65 -0.01 1.13 0 1.53 0 C 1.93 0 2.23 -0.01 2.53 -0.02 C 2.59 0.04 2.59 0.25 2.53 0.31 C 2.02 0.35999998 1.92 0.39999998 1.92 1.22 L 1.92 3.3899999 C 1.92 3.6999998 1.9499999 3.8999999 2.34 3.8999999 L 3.55 3.8999999 C 3.9199998 3.8999999 3.98 3.79 3.98 3.3899999 L 3.98 1.22 C 3.98 0.39999998 3.8799999 0.35 3.36 0.31 C 3.31 0.25 3.31 0.04 3.36 -0.02 C 3.61 -0.01 3.98 0 4.38 0 C 4.7799997 0 5.23 -0.01 5.5099998 -0.02 C 5.56 0.04 5.56 0.25 5.5099998 0.31 C 4.8599997 0.35 4.77 0.39999998 4.77 1.22 L 4.77 3.07 C 4.77 3.8899999 4.9 3.9399998 5.45 3.98 C 5.5099998 4.04 5.5099998 4.25 5.45 4.31 C 5.15 4.2999997 4.77 4.29 4.37 4.29 Z "/>
        </symbol>
        <symbol id="g3A838D9FFA338060FE66CC9BA0F32B06" overflow="visible">
            <path d="M 4.18 1.22 L 4.18 3.07 C 4.18 3.8899999 4.31 3.9399998 4.8599997 3.98 C 4.92 4.04 4.92 4.25 4.8599997 4.31 C 4.56 4.2999997 4.18 4.29 3.78 4.29 L 1.89 4.29 C 1.56 4.29 1.17 4.2999997 0.87 4.31 C 0.81 4.25 0.81 4.04 0.87 3.98 C 1.5799999 3.9299998 1.68 3.87 1.68 2.79 C 1.68 1.74 1.5999999 1.1899999 1.4599999 0.78 C 1.3299999 0.42 1.16 0.29 0.98999995 0.29 C 0.85999995 0.29 0.82 0.37 0.79999995 0.5 C 0.77 0.69 0.71 0.88 0.42999998 0.88 C 0.17999999 0.88 0.04 0.68 0.04 0.45999998 C 0.04 0.14999999 0.32 -0.12 0.78 -0.12 C 1.29 -0.12 1.5699999 0.14 1.8 0.68 C 2 1.16 2.06 2.18 2.06 2.86 C 2.06 3.6399999 2.09 3.8999999 2.49 3.8999999 L 2.9399998 3.8999999 C 3.32 3.8999999 3.3899999 3.6599998 3.3899999 3.32 L 3.3899999 1.22 C 3.3899999 0.39999998 3.29 0.35 2.77 0.31 C 2.72 0.25 2.72 0.04 2.77 -0.02 C 3.02 -0.01 3.3899999 0 3.79 0 C 4.19 0 4.64 -0.01 4.92 -0.02 C 4.97 0.04 4.97 0.25 4.92 0.31 C 4.27 0.35 4.18 0.39999998 4.18 1.22 Z "/>
        </symbol>
        <symbol id="gF98CCD8D81A9CEDB306580B2EF4597C5" overflow="visible">
            <path d="M 1.86 3.07 C 1.86 3.6399999 1.93 3.8999999 2.28 3.8999999 L 2.5 3.8999999 C 3.32 3.8999999 3.56 3.33 3.6999998 2.75 C 3.81 2.74 3.9099998 2.75 3.99 2.79 C 3.9499998 3.32 3.9199998 3.76 3.86 4.29 L 3.84 4.31 C 3.84 4.31 3.04 4.29 2.72 4.29 L 1.4599999 4.29 C 1.03 4.29 0.68 4.2999997 0.35 4.31 C 0.29 4.25 0.29 4.04 0.35 3.98 C 0.96 3.9399998 1.0699999 3.8999999 1.0699999 3.07 L 1.0699999 1.22 C 1.0699999 0.39 0.96 0.35999998 0.35 0.31 C 0.29 0.25 0.29 0.04 0.35 -0.02 C 0.68 -0.01 1.03 0 1.4699999 0 C 1.9 0 2.26 -0.01 2.58 -0.02 C 2.6399999 0.04 2.6399999 0.25 2.58 0.31 C 1.9699999 0.35 1.86 0.39 1.86 1.22 Z "/>
        </symbol>
        <symbol id="gBE546809C477B5A4FD7CAEE4056BBA35" overflow="visible">
            <path d="M 1.911 1.281 C 1.911 0.4095 1.7954999 0.357 1.155 0.32549998 C 1.092 0.2625 1.092 0.042 1.155 -0.021 C 1.5645 -0.0105 1.9844999 0 2.3309999 0 C 2.688 0 3.0974998 -0.0105 3.4965 -0.021 C 3.5595 0.042 3.5595 0.2625 3.4965 0.32549998 C 2.856 0.357 2.7405 0.4095 2.7405 1.281 L 2.7405 4.116 L 2.919 4.116 C 3.7695 4.116 3.9375 3.822 4.116 2.9715 C 4.2525 2.9715 4.389 3.0135 4.389 3.0135 C 4.3259997 3.4965 4.284 3.9585 4.2735 4.5675 C 4.032 4.5464997 3.2445 4.5045 2.7195 4.5045 L 1.9319999 4.5045 C 1.407 4.5045 0.819 4.536 0.399 4.5675 C 0.3885 3.9585 0.3465 3.4965 0.273 3.0135 C 0.273 3.0135 0.42 2.9715 0.5565 2.9715 C 0.735 3.822 0.8925 4.116 1.7535 4.116 L 1.911 4.116 Z "/>
        </symbol>
        <symbol id="gE6900DB10BE22F2544686FB68761EBE3" overflow="visible">
            <path d="M 0.4305 2.1525 C 0.4305 1.0814999 1.1445 -0.105 2.6355 -0.105 C 3.3075 -0.105 3.822 0.1365 4.179 0.48299998 C 4.6514997 0.945 4.8615 1.6065 4.8615 2.247 C 4.8615 3.339 4.263 4.6095 2.6564999 4.6095 C 1.9635 4.6095 1.3965 4.3259997 1.008 3.8745 C 0.63 3.4229999 0.4305 2.814 0.4305 2.1525 Z M 2.499 4.242 C 3.402 4.242 3.9585 3.4229999 3.9585 1.911 C 3.9585 0.588 3.276 0.2625 2.7825 0.2625 C 1.6905 0.2625 1.3335 1.5855 1.3335 2.394 C 1.3335 3.3075 1.554 4.242 2.499 4.242 Z "/>
        </symbol>
        <symbol id="g2A9DB357A2E813E517BBE3FDF9C6DBBE" overflow="visible">
            <path d="M 1.1445 0 C 1.3544999 0.0105 1.533 0.252 1.6695 0.5355 L 2.121 1.4805 C 2.31 1.869 2.6039999 2.1525 3.3179998 2.1945 L 3.3179998 1.281 C 3.3179998 0.4095 3.192 0.378 2.6564999 0.32549998 C 2.5935 0.2625 2.5935 0.042 2.6564999 -0.021 C 2.898 -0.0105 3.2865 0 3.7065 0 C 4.116 0 4.515 -0.0105 4.746 -0.021 C 4.809 0.042 4.809 0.2625 4.746 0.32549998 C 4.2105 0.3675 4.0845 0.4095 4.0845 1.281 L 4.0845 2.1945 C 4.7985 2.1525 5.0924997 1.869 5.2815 1.4805 L 5.733 0.5355 C 5.8694997 0.252 6.048 0.0105 6.258 0 C 6.258 0 7.035 -0.0105 7.245 -0.021 C 7.308 0.042 7.308 0.2625 7.245 0.32549998 C 6.8355 0.3465 6.7304997 0.4305 6.552 0.7665 L 6.0794997 1.6589999 C 5.817 2.1525 5.4705 2.4045 4.8719997 2.4045 L 4.8719997 2.4359999 C 5.2815 2.5515 5.46 2.919 5.6175 3.339 C 5.7434998 3.6645 5.8694997 3.8639998 6.09 3.8639998 C 6.1844997 3.8639998 6.2685 3.8325 6.3315 3.7905 C 6.3945 3.7484999 6.5099998 3.717 6.6465 3.717 C 6.8775 3.717 7.0664997 3.9164999 7.0664997 4.1265 C 7.0664997 4.3575 6.8145 4.599 6.468 4.599 C 5.8589997 4.599 5.5755 4.032 5.376 3.5385 C 5.145 2.961 4.83 2.562 4.0845 2.562 L 4.0845 3.2235 C 4.0845 4.095 4.2105 4.1265 4.746 4.179 C 4.809 4.242 4.809 4.4625 4.746 4.5255 C 4.494 4.515 4.116 4.5045 3.6959999 4.5045 C 3.2865 4.5045 2.898 4.515 2.6564999 4.5255 C 2.5935 4.4625 2.5935 4.242 2.6564999 4.179 C 3.192 4.137 3.3179998 4.095 3.3179998 3.2235 L 3.3179998 2.562 C 2.5725 2.562 2.2575 2.961 2.0265 3.5385 C 1.827 4.032 1.5435 4.599 0.9345 4.599 C 0.588 4.599 0.336 4.3575 0.336 4.1265 C 0.336 3.9164999 0.525 3.717 0.756 3.717 C 0.8925 3.717 1.008 3.7484999 1.071 3.7905 C 1.134 3.8325 1.2179999 3.8639998 1.3125 3.8639998 C 1.533 3.8639998 1.6589999 3.6645 1.785 3.339 C 1.9425 2.919 2.121 2.5515 2.5305 2.4359999 L 2.5305 2.4045 C 1.9319999 2.4045 1.5855 2.1525 1.323 1.6589999 L 0.8505 0.7665 C 0.672 0.4305 0.567 0.3465 0.1575 0.32549998 C 0.0945 0.2625 0.0945 0.042 0.1575 -0.021 C 0.3675 -0.0105 1.1445 0 1.1445 0 Z "/>
        </symbol>
        <symbol id="gF69D3BA76C6BA3F3ADA4A5AB4428AC72" overflow="visible">
            <path d="M 4.053 0.9765 C 3.6645 0.5775 3.36 0.4095 2.751 0.4095 C 2.373 0.4095 1.9319999 0.63 1.6065 1.1654999 C 1.3965 1.512 1.2705 1.995 1.2705 2.6039999 L 4.0635 2.583 C 4.1895 2.583 4.263 2.646 4.263 2.7615 C 4.263 3.6434999 3.948 4.5885 2.4884999 4.5885 C 1.5749999 4.5885 0.3885 3.717 0.3885 2.121 C 0.3885 1.533 0.5355 0.96599996 0.88199997 0.567 C 1.239 0.147 1.7325 -0.105 2.4884999 -0.105 C 3.2865 -0.105 3.8535 0.2625 4.2735 0.8085 C 4.242 0.9135 4.179 0.96599996 4.053 0.9765 Z M 1.3019999 2.961 C 1.5015 4.1475 2.2365 4.242 2.4884999 4.242 C 2.8875 4.242 3.36 4.0215 3.36 3.1395 C 3.36 3.045 3.3179998 2.9925 3.2024999 2.9925 Z "/>
        </symbol>
        <symbol id="g3222F2D064B187722EE8C55F07AB4571" overflow="visible">
            <path d="M 4.5885 4.5045 L 1.6065 4.5045 C 1.1865 4.5045 0.78749996 4.515 0.4725 4.5255 C 0.4095 4.4625 0.4095 4.242 0.4725 4.179 C 1.05 4.137 1.1865 4.0845 1.1865 3.2235 L 1.1865 1.281 C 1.1865 0.42 1.05 0.3675 0.3675 0.32549998 C 0.30449998 0.2625 0.30449998 0.042 0.3675 -0.021 C 0.6825 -0.0105 1.1865 0 1.6065 0 C 2.0265 0 2.3415 -0.0105 2.6564999 -0.021 C 2.7195 0.042 2.7195 0.2625 2.6564999 0.32549998 C 2.121 0.378 2.016 0.42 2.016 1.281 L 2.016 3.5595 C 2.016 3.885 2.0475 4.095 2.457 4.095 L 3.7275 4.095 C 4.116 4.095 4.179 3.9795 4.179 3.5595 L 4.179 1.281 C 4.179 0.42 4.074 0.3675 3.5279999 0.32549998 C 3.4754999 0.2625 3.4754999 0.042 3.5279999 -0.021 C 3.7905 -0.0105 4.179 0 4.599 0 C 5.019 0 5.4915 -0.0105 5.7855 -0.021 C 5.838 0.042 5.838 0.2625 5.7855 0.32549998 C 5.103 0.3675 5.0085 0.42 5.0085 1.281 L 5.0085 3.2235 C 5.0085 4.0845 5.145 4.137 5.7225 4.179 C 5.7855 4.242 5.7855 4.4625 5.7225 4.5255 C 5.4075 4.515 5.0085 4.5045 4.5885 4.5045 Z "/>
        </symbol>
        <symbol id="gF1C94E81D1BFABD6675937EE7E004DCC" overflow="visible">
            <path d="M 4.053 0 C 4.053 0 4.8719997 -0.0105 5.082 -0.021 C 5.145 0.042 5.145 0.2625 5.082 0.32549998 C 4.6725 0.3465 4.5885 0.4305 4.41 0.7665 L 3.9375 1.6589999 C 3.675 2.1525 3.3075 2.4045 2.7089999 2.4045 L 2.7089999 2.4359999 C 3.1185 2.5515 3.297 2.919 3.4545 3.339 C 3.5805 3.6645 3.7065 3.8639998 3.927 3.8639998 C 4.0215 3.8639998 4.1054997 3.8325 4.1685 3.7905 C 4.2315 3.7484999 4.347 3.717 4.4835 3.717 C 4.7145 3.717 4.9035 3.9164999 4.9035 4.1265 C 4.9035 4.3575 4.6514997 4.599 4.305 4.599 C 3.6959999 4.599 3.4125 4.032 3.213 3.5385 C 2.9819999 2.961 2.6985 2.562 1.953 2.562 L 1.953 3.2235 C 1.953 4.095 2.0685 4.1265 2.6039999 4.179 C 2.667 4.242 2.667 4.4625 2.6039999 4.5255 C 2.352 4.515 1.953 4.5045 1.533 4.5045 C 1.0814999 4.5045 0.714 4.515 0.3675 4.5255 C 0.30449998 4.4625 0.30449998 4.242 0.3675 4.179 C 1.008 4.137 1.1235 4.095 1.1235 3.2235 L 1.1235 1.281 C 1.1235 0.4095 1.008 0.378 0.3675 0.32549998 C 0.30449998 0.2625 0.30449998 0.042 0.3675 -0.021 C 0.714 -0.0105 1.0814999 0 1.5435 0 C 1.953 0 2.373 -0.0105 2.6039999 -0.021 C 2.667 0.042 2.667 0.2625 2.6039999 0.32549998 C 2.0685 0.3675 1.953 0.4095 1.953 1.281 L 1.953 2.1945 C 2.667 2.1525 2.856 1.869 3.045 1.4805 L 3.4965 0.5355 C 3.633 0.252 3.843 0.0105 4.053 0 Z "/>
        </symbol>
        <symbol id="g9DFBDEC38AE2B4612B22FD0D4389141C" overflow="visible">
            <path d="M 0.5145 2.499 L 7.0664997 2.499 C 7.203 2.499 7.3395 2.7089999 7.3395 2.835 C 7.3395 2.9294999 7.308 3.0135 7.1925 3.0135 L 0.6405 3.0135 C 0.5145 3.0135 0.3675 2.8035 0.3675 2.6775 C 0.3675 2.5935 0.399 2.499 0.5145 2.499 Z "/>
        </symbol>
        <symbol id="gAE1913F3656876D8D5CDCC9EE8DB160A" overflow="visible">
            <path d="M 1.533 4.5045 C 1.0814999 4.5045 0.714 4.515 0.3675 4.5255 C 0.30449998 4.4625 0.30449998 4.242 0.3675 4.179 C 1.008 4.137 1.1235 4.095 1.1235 3.2235 L 1.1235 1.281 C 1.1235 0.4095 1.008 0.378 0.3675 0.32549998 C 0.30449998 0.2625 0.30449998 0.042 0.3675 -0.021 C 0.714 -0.0105 1.0814999 0 1.5435 0 C 1.9319999 0 2.2785 -0.021 2.9819999 -0.021 C 3.885 -0.021 4.5675 0.23099999 4.5675 1.2705 C 4.5675 1.8585 4.2 2.268 3.5595 2.3834999 L 3.5595 2.415 C 4.0425 2.5095 4.41 2.8455 4.41 3.4754999 C 4.41 4.2105 3.9585 4.5255 2.688 4.5255 C 2.2575 4.5255 1.9844999 4.5045 1.533 4.5045 Z M 1.953 2.2785 L 2.751 2.2785 C 3.3915 2.2785 3.6645 1.8585 3.6645 1.2285 C 3.6645 0.525 3.2655 0.32549998 2.6985 0.32549998 C 2.1525 0.32549998 1.953 0.42 1.953 0.903 Z M 1.953 2.583 L 1.953 3.8009999 C 1.953 4.116 2.1945 4.179 2.6985 4.179 C 3.2445 4.179 3.57 4.032 3.57 3.402 C 3.57 2.9819999 3.297 2.583 2.646 2.583 Z "/>
        </symbol>
        <symbol id="g572980C35C39CA33EA800E56BBB375F9" overflow="visible">
            <path d="M 1.9844999 4.5045 C 1.638 4.5045 1.2285 4.515 0.9135 4.5255 C 0.8505 4.4625 0.8505 4.242 0.9135 4.179 C 1.554 4.1265 1.743 4.0845 1.701 3.213 C 1.6589999 2.247 1.4909999 1.47 1.3125 0.735 C 1.2495 0.4515 0.945 0.357 0.65099996 0.32549998 C 0.4935 0.30449998 0.3465 0.24149999 0.336 0.0525 L 0.273 -1.344 C 0.3465 -1.3755 0.4305 -1.386 0.5565 -1.3544999 C 0.65099996 -0.96599996 0.9345 0 1.8795 0 L 3.6959999 0 C 4.6305 0 4.935 -0.945 5.0295 -1.365 C 5.124 -1.386 5.2185 -1.386 5.3235 -1.344 L 5.2605 0.063 C 5.2605 0.21 5.1765 0.294 4.9769998 0.32549998 C 4.788 0.357 4.5255 0.4305 4.5255 0.819 L 4.5255 3.2235 C 4.5255 4.0845 4.6619997 4.137 5.2395 4.179 C 5.3025 4.242 5.3025 4.4625 5.2395 4.5255 C 4.9245 4.515 4.5255 4.5045 4.1054997 4.5045 Z M 1.6905 0.5355 C 1.6905 0.714 1.974 1.407 2.1315 3.8114998 C 2.142 3.9689999 2.2154999 4.1054997 2.499 4.1054997 L 3.2235 4.1054997 C 3.6434999 4.1054997 3.6959999 3.8114998 3.6959999 3.4545 L 3.6959999 0.92399997 C 3.6959999 0.5775 3.675 0.4095 3.2549999 0.4095 L 1.9004999 0.4095 C 1.785 0.4095 1.6905 0.42 1.6905 0.5355 Z "/>
        </symbol>
        <symbol id="gA4E6F472A752EB0CDCDB517B61E9D59E" overflow="visible">
            <path d="M 0.357 2.6985 C 0.357 0.714 1.5015 -0.105 2.52 -0.105 C 3.9585 -0.105 4.788 0.96599996 4.788 2.289 C 4.788 3.4229999 4.158 4.6095 2.6775 4.6095 C 1.68 4.6095 1.071 4.0215 0.84 3.5175 L 0.819 3.5385 C 0.861 4.0845 1.029 4.7565 1.1865 5.0295 C 1.5225 5.607 1.9215 5.6384997 2.8875 5.7434998 C 3.8325 5.8485 4.5045 6.153 4.599 7.329 C 4.5255 7.3605 4.452 7.371 4.368 7.329 C 4.284 6.825 3.7275 6.6885 2.8455 6.552 C 1.995 6.4154997 1.281 6.1215 0.84 5.292 C 0.46199998 4.578 0.357 3.6959999 0.357 2.6985 Z M 1.26 2.4255 C 1.26 3.0135 1.47 4.242 2.562 4.242 C 3.381 4.242 3.885 3.297 3.885 2.037 C 3.885 0.714 3.276 0.2625 2.7089999 0.2625 C 1.9425 0.2625 1.26 1.26 1.26 2.4255 Z "/>
        </symbol>
        <symbol id="g5CD7B456B83AF7EFB3CC456D69899D9F" overflow="visible">
            <path d="M 4.389 1.281 L 4.389 3.2235 C 4.389 4.0845 4.5255 4.137 5.103 4.179 C 5.166 4.242 5.166 4.4625 5.103 4.5255 C 4.788 4.515 4.389 4.5045 3.9689999 4.5045 L 1.9844999 4.5045 C 1.638 4.5045 1.2285 4.515 0.9135 4.5255 C 0.8505 4.4625 0.8505 4.242 0.9135 4.179 C 1.6589999 4.1265 1.7639999 4.0635 1.7639999 2.9294999 C 1.7639999 1.827 1.68 1.2495 1.533 0.819 C 1.3965 0.44099998 1.2179999 0.30449998 1.0395 0.30449998 C 0.903 0.30449998 0.861 0.3885 0.84 0.525 C 0.8085 0.7245 0.74549997 0.92399997 0.4515 0.92399997 C 0.189 0.92399997 0.042 0.714 0.042 0.48299998 C 0.042 0.1575 0.336 -0.126 0.819 -0.126 C 1.3544999 -0.126 1.6485 0.147 1.89 0.714 C 2.1 1.2179999 2.1629999 2.289 2.1629999 3.003 C 2.1629999 3.822 2.1945 4.095 2.6145 4.095 L 3.087 4.095 C 3.486 4.095 3.5595 3.843 3.5595 3.486 L 3.5595 1.281 C 3.5595 0.42 3.4545 0.3675 2.9085 0.32549998 C 2.856 0.2625 2.856 0.042 2.9085 -0.021 C 3.171 -0.0105 3.5595 0 3.9795 0 C 4.3995 0 4.8719997 -0.0105 5.166 -0.021 C 5.2185 0.042 5.2185 0.2625 5.166 0.32549998 C 4.4835 0.3675 4.389 0.42 4.389 1.281 Z "/>
        </symbol>
        <symbol id="g6F0B9B7BFD190AE3920EF7E0D7436883" overflow="visible">
            <path d="M 1.953 3.213 C 1.953 4.095 2.0685 4.1265 2.7089999 4.179 C 2.772 4.242 2.772 4.4625 2.7089999 4.5255 C 2.352 4.515 1.995 4.5045 1.533 4.5045 C 1.0814999 4.5045 0.714 4.515 0.3675 4.5255 C 0.30449998 4.4625 0.30449998 4.242 0.3675 4.179 C 1.008 4.137 1.1235 4.095 1.1235 3.2235 L 1.1235 1.281 C 1.1235 0.4095 1.008 0.378 0.3675 0.32549998 C 0.30449998 0.2625 0.30449998 0.042 0.3675 -0.021 C 0.714 -0.0105 1.0814999 0 1.5435 0 C 1.974 0 2.205 -0.021 2.6355 -0.021 C 3.927 -0.021 4.6305 0.30449998 4.6305 1.428 C 4.6305 2.415 3.7695 2.6985 2.7089999 2.6985 L 1.953 2.6985 Z M 3.7275 1.323 C 3.7275 0.46199998 3.2024999 0.32549998 2.646 0.32549998 C 2.1315 0.32549998 1.953 0.4305 1.953 0.798 L 1.953 2.352 L 2.6985 2.352 C 3.486 2.352 3.7275 1.8795 3.7275 1.323 Z "/>
        </symbol>
        <symbol id="g166AB1DF755488394F414D458674457C" overflow="visible">
            <path d="M 7.8329997 1.281 L 7.8329997 3.2235 C 7.8329997 4.0845 7.9695 4.137 8.547 4.179 C 8.61 4.242 8.61 4.4625 8.547 4.5255 C 8.232 4.515 7.8329997 4.5045 7.413 4.5045 C 6.993 4.5045 6.678 4.515 6.363 4.5255 C 6.2999997 4.4625 6.2999997 4.242 6.363 4.179 C 6.8985 4.1265 7.0035 4.0845 7.0035 3.2235 L 7.0035 0.945 C 7.0035 0.6195 6.972 0.4095 6.5625 0.4095 L 5.3235 0.4095 C 5.0085 0.4095 4.8719997 0.504 4.8719997 0.945 L 4.8719997 3.2235 C 4.8825 4.0845 4.956 4.137 5.523 4.179 C 5.5755 4.242 5.5755 4.4625 5.523 4.5255 C 5.2605 4.515 4.8719997 4.5045 4.452 4.5045 C 4.032 4.5045 3.6855 4.515 3.4229999 4.5255 C 3.3704998 4.4625 3.3704998 4.242 3.4229999 4.179 C 3.948 4.137 4.053 4.0845 4.0425 3.2235 L 4.0425 0.9345 C 4.0425 0.546 3.99 0.4095 3.6015 0.4095 L 2.4045 0.4095 C 2.016 0.4095 1.953 0.525 1.953 0.945 L 1.953 3.2235 C 1.953 4.0845 2.058 4.137 2.6039999 4.179 C 2.6564999 4.242 2.6564999 4.4625 2.6039999 4.5255 C 2.3415 4.515 1.953 4.5045 1.533 4.5045 C 1.113 4.5045 0.74549997 4.515 0.4515 4.5255 C 0.399 4.4625 0.399 4.242 0.4515 4.179 C 1.029 4.137 1.1235 4.0845 1.1235 3.2235 L 1.1235 1.281 C 1.1235 0.42 0.987 0.3675 0.4095 0.32549998 C 0.3465 0.2625 0.3465 0.042 0.4095 -0.021 C 0.7245 -0.0105 1.1235 0 1.5435 0 L 7.413 0 C 7.8329997 0 8.232 -0.0105 8.547 -0.021 C 8.61 0.042 8.61 0.2625 8.547 0.32549998 C 7.9695 0.3675 7.8329997 0.42 7.8329997 1.281 Z "/>
        </symbol>
        <symbol id="gE78367AC65A5F623F062A957D826E7C2" overflow="visible">
            <path d="M 7.0245 0 C 7.9065 0 8.2109995 -0.84 8.3475 -1.3544999 C 8.441999 -1.3755 8.5365 -1.3755 8.6205 -1.344 L 8.5575 0.0525 C 8.547 0.24149999 8.3895 0.294 8.2425 0.32549998 C 8.000999 0.378 7.8329997 0.44099998 7.8329997 1.281 L 7.8329997 3.2235 C 7.8329997 4.0845 7.9695 4.137 8.547 4.179 C 8.61 4.242 8.61 4.4625 8.547 4.5255 C 8.232 4.515 7.8329997 4.5045 7.413 4.5045 C 6.993 4.5045 6.678 4.515 6.363 4.5255 C 6.2999997 4.4625 6.2999997 4.242 6.363 4.179 C 6.8985 4.1265 7.0035 4.0845 7.0035 3.2235 L 7.0035 0.945 C 7.0035 0.6195 6.972 0.4095 6.5625 0.4095 L 5.3235 0.4095 C 5.0085 0.4095 4.8719997 0.504 4.8719997 0.945 L 4.8719997 3.2235 C 4.8825 4.0845 4.956 4.137 5.523 4.179 C 5.5755 4.242 5.5755 4.4625 5.523 4.5255 C 5.2605 4.515 4.8719997 4.5045 4.452 4.5045 C 4.032 4.5045 3.6855 4.515 3.4229999 4.5255 C 3.3704998 4.4625 3.3704998 4.242 3.4229999 4.179 C 3.948 4.137 4.053 4.0845 4.0425 3.2235 L 4.0425 0.9345 C 4.0425 0.546 3.99 0.4095 3.6015 0.4095 L 2.4045 0.4095 C 2.016 0.4095 1.953 0.525 1.953 0.945 L 1.953 3.2235 C 1.953 4.0845 2.058 4.137 2.6039999 4.179 C 2.6564999 4.242 2.6564999 4.4625 2.6039999 4.5255 C 2.3415 4.515 1.953 4.5045 1.533 4.5045 C 1.113 4.5045 0.74549997 4.515 0.4515 4.5255 C 0.399 4.4625 0.399 4.242 0.4515 4.179 C 1.029 4.137 1.1235 4.0845 1.1235 3.2235 L 1.1235 1.281 C 1.1235 0.42 0.987 0.3675 0.4095 0.32549998 C 0.3465 0.2625 0.3465 0.042 0.4095 -0.021 C 0.7245 -0.0105 1.1235 0 1.5435 0 Z "/>
        </symbol>
        <symbol id="g2AA78E5A2F80F4286A619159B6B30441" overflow="visible">
            <path d="M 3.0765 0.504 C 3.1395 0.1785 3.2549999 -0.105 3.78 -0.105 C 4.179 -0.105 4.557 0.0735 4.7775 0.2835 C 4.7565 0.4095 4.7145 0.504 4.599 0.567 C 4.5255 0.504 4.347 0.399 4.2105 0.399 C 3.906 0.399 3.8955 0.8085 3.8955 1.2915 L 3.8955 2.835 C 3.8955 4.3259997 3.0765 4.6095 2.31 4.6095 C 1.449 4.6095 0.5775 4.0425 0.5775 3.444 C 0.5775 3.192 0.7035 3.066 0.945 3.066 C 1.2495 3.066 1.4384999 3.2865 1.4384999 3.4229999 C 1.4384999 3.4965 1.428 3.57 1.407 3.612 C 1.3965 3.6434999 1.386 3.7065 1.386 3.822 C 1.386 4.1475 1.827 4.263 2.226 4.263 C 2.583 4.263 3.0765 4.0845 3.0765 2.898 C 3.0765 2.8244998 3.045 2.7825 3.0135 2.772 L 2.1104999 2.5515 C 1.1025 2.2995 0.378 1.743 0.378 1.029 C 0.378 0.168 0.96599996 -0.105 1.701 -0.105 C 2.0685 -0.105 2.3834999 -0.021 2.8455 0.336 L 3.0555 0.504 Z M 3.0765 2.4465 L 3.0765 1.0605 C 3.0765 0.92399997 3.0135 0.8505 2.9294999 0.78749996 C 2.6564999 0.567 2.2995 0.32549998 2.0055 0.32549998 C 1.4805 0.32549998 1.2495 0.74549997 1.2495 1.071 C 1.2495 1.5435 1.47 2.0265 2.247 2.226 Z "/>
        </symbol>
        <symbol id="gD8535000EEEFC71204EEA82FEA1B08AA" overflow="visible">
            <path d="M 2.079 0.6615 C 2.0475 0.6615 2.0055 0.6825 2.0055 0.78749996 L 2.0055 3.1815 C 2.0055 4.053 2.226 4.1475 2.7615 4.179 C 2.8244998 4.242 2.8244998 4.4625 2.7615 4.5255 C 2.52 4.515 1.9215 4.5045 1.533 4.5045 C 1.1865 4.5045 0.7665 4.515 0.3675 4.5255 C 0.30449998 4.4625 0.30449998 4.242 0.3675 4.179 C 1.008 4.1475 1.176 4.053 1.176 3.1815 L 1.176 1.323 C 1.176 0.4515 1.008 0.357 0.3675 0.32549998 C 0.30449998 0.2625 0.30449998 0.042 0.3675 -0.021 C 0.777 -0.0105 1.197 0 1.533 0 C 1.7745 0 2.058 -0.0105 2.1735 -0.021 C 2.226 0.126 2.3205 0.336 2.4359999 0.546 L 4.074 3.8325 C 4.1054997 3.8325 4.1475 3.8114998 4.1475 3.7065 L 4.1475 1.323 C 4.1475 0.4515 3.927 0.357 3.3915 0.32549998 C 3.3285 0.2625 3.3285 0.042 3.3915 -0.021 C 3.633 -0.0105 4.2 0 4.62 0 C 4.9455 0 5.376 -0.0105 5.7855 -0.021 C 5.8485 0.042 5.8485 0.2625 5.7855 0.32549998 C 5.145 0.357 4.9769998 0.4515 4.9769998 1.323 L 4.9769998 3.1815 C 4.9769998 4.053 5.145 4.1475 5.7855 4.179 C 5.8485 4.242 5.8485 4.4625 5.7855 4.5255 C 5.3655 4.515 4.9455 4.5045 4.62 4.5045 C 4.389 4.5045 4.095 4.515 3.99 4.5255 C 3.906 4.3365 3.8114998 4.116 3.717 3.9375 Z "/>
        </symbol>
        <symbol id="g638B7DFC370BB40F41723AD3BE55BFBE" overflow="visible">
            <path d="M 9.786 2.457 C 9.8595 2.4884999 9.9015 2.5515 9.9015 2.625 C 9.9015 2.6985 9.8595 2.7615 9.786 2.793 C 9.282 2.961 8.8095 3.3179998 8.3685 3.8639998 C 8.0745 4.2315 7.875 4.6619997 7.7805 5.1555 C 7.749 5.292 7.665 5.355 7.5285 5.355 C 7.3605 5.355 7.2764997 5.271 7.2764997 5.0924997 L 7.2869997 5.0715 L 7.2869997 5.061 C 7.4655 4.1475 7.9275 3.4229999 8.694 2.8769999 L 0.861 2.8769999 C 0.693 2.8769999 0.60899997 2.793 0.60899997 2.625 C 0.60899997 2.457 0.693 2.373 0.861 2.373 L 8.694 2.373 C 7.9275 1.827 7.4655 1.1025 7.2869997 0.189 L 7.2869997 0.1785 L 7.2764997 0.1575 C 7.2764997 -0.021 7.3605 -0.105 7.5285 -0.105 C 7.665 -0.105 7.749 -0.042 7.7805 0.0945 C 7.875 0.588 8.0745 1.0185 8.3685 1.386 C 8.8095 1.9319999 9.282 2.289 9.786 2.457 Z "/>
        </symbol>
        <symbol id="g382667ED9C8705643693B52DEEC2F5BA" overflow="visible">
            <path d="M 1.2285 3.213 L 1.1654999 1.26 C 1.134 0.378 0.9765 0.357 0.3675 0.32549998 C 0.30449998 0.2625 0.30449998 0.042 0.3675 -0.021 C 0.5775 -0.0105 1.1025 0 1.2705 0 C 1.4805 0 1.974 -0.0105 2.184 -0.021 C 2.247 0.042 2.247 0.2625 2.184 0.32549998 C 1.5855 0.3675 1.5435 0.4725 1.5645 1.26 L 1.638 3.8325 C 1.638 3.927 1.68 3.927 1.722 3.8325 L 3.2445 0.115499996 C 3.2865 0.084 3.3285 0.084 3.36 0.115499996 L 5.082 3.822 C 5.1345 3.9375 5.187 3.948 5.187 3.822 L 5.1765 1.281 C 5.1765 0.4095 5.103 0.378 4.4625 0.32549998 C 4.3995 0.2625 4.3995 0.042 4.4625 -0.021 C 4.8405 -0.0105 5.229 0 5.5965 0 C 5.9115 0 6.363 -0.0105 6.7725 -0.021 C 6.8355 0.042 6.8355 0.2625 6.7725 0.32549998 C 6.132 0.3675 6.0165 0.4095 6.0165 1.281 L 5.9955 3.2235 C 5.985 4.095 6.111 4.1265 6.7515 4.179 C 6.8145 4.242 6.8145 4.4625 6.7515 4.5255 C 6.384 4.5045 5.3655 4.5045 5.019 4.5045 L 3.6225 1.5015 L 3.57 1.3965 L 3.5279999 1.5015 L 2.2995 4.5045 C 1.953 4.5045 0.84 4.5045 0.4725 4.5255 C 0.4095 4.4625 0.4095 4.242 0.4725 4.179 C 1.113 4.1265 1.26 4.0845 1.2285 3.213 Z "/>
        </symbol>
        <symbol id="gC348104D211F40483AF50223730694D0" overflow="visible">
            <path d="M 5.0295 3.2235 C 5.0295 4.095 5.145 4.1265 5.7855 4.179 C 5.8485 4.242 5.8485 4.4625 5.7855 4.5255 C 5.4179997 4.5045 4.956 4.5045 4.6095 4.5045 C 4.3155 4.5045 3.8955 4.515 3.486 4.5255 C 3.4229999 4.4625 3.4229999 4.242 3.486 4.179 C 4.1265 4.137 4.2 4.095 4.2 3.2235 L 4.2 2.541 L 1.953 2.541 L 1.953 3.2235 C 1.953 4.095 2.0265 4.1265 2.667 4.179 C 2.73 4.242 2.73 4.4625 2.667 4.5255 C 2.268 4.515 1.869 4.5045 1.533 4.5045 C 1.2179999 4.5045 0.78749996 4.515 0.3675 4.5255 C 0.30449998 4.4625 0.30449998 4.242 0.3675 4.179 C 1.008 4.137 1.1235 4.095 1.1235 3.2235 L 1.1235 1.281 C 1.1235 0.4095 1.008 0.378 0.3675 0.32549998 C 0.30449998 0.2625 0.30449998 0.042 0.3675 -0.021 C 0.78749996 -0.0105 1.2075 0 1.5435 0 C 1.8795 0 2.289 -0.0105 2.667 -0.021 C 2.73 0.042 2.73 0.2625 2.667 0.32549998 C 2.0265 0.3675 1.953 0.4095 1.953 1.281 L 1.953 2.1945 L 4.2 2.1945 L 4.2 1.281 C 4.2 0.4095 4.1265 0.378 3.486 0.32549998 C 3.4229999 0.2625 3.4229999 0.042 3.486 -0.021 C 3.8639998 -0.0105 4.2525 0 4.62 0 C 4.935 0 5.376 -0.0105 5.7855 -0.021 C 5.8485 0.042 5.8485 0.2625 5.7855 0.32549998 C 5.145 0.3675 5.0295 0.4095 5.0295 1.281 Z "/>
        </symbol>
        <symbol id="g9421F11CE886FCFE573B01FC1BFAD9C8" overflow="visible">
            <path d="M 1.4629999 1.727 C 1.4629999 1.9909999 1.496 2.211 1.551 2.387 C 1.551 2.497 1.496 2.552 1.375 2.552 C 1.3199999 2.552 1.276 2.53 1.254 2.508 C 1.199 2.453 0.572 0.088 0.572 -0.088 C 0.572 -0.187 0.627 -0.242 0.737 -0.242 C 0.792 -0.242 0.869 -0.187 0.968 -0.066 L 1.4629999 0.517 C 1.848 0.011 2.464 -0.242 3.3 -0.242 C 4.026 -0.242 4.664 0.055 5.236 0.638 C 5.808 1.221 6.094 1.87 6.094 2.596 C 6.094 3.113 5.9179997 3.553 5.555 3.905 C 5.39 4.048 5.17 4.169 4.895 4.268 C 4.642 4.323 4.4 4.389 4.158 4.455 L 3.432 4.653 C 3.069 4.752 2.794 5.159 2.794 5.599 C 2.794 6.072 2.981 6.479 3.366 6.831 C 3.751 7.183 4.18 7.3589997 4.653 7.3589997 C 5.665 7.3589997 6.171 6.809 6.171 5.72 C 6.171 5.522 6.127 5.302 6.127 5.115 L 6.127 5.082 C 6.16 5.005 6.215 4.961 6.303 4.961 C 6.402 4.961 6.468 5.049 6.512 5.2139997 L 7.095 7.601 C 7.095 7.7 7.04 7.755 6.93 7.755 C 6.875 7.755 6.798 7.7 6.699 7.579 L 6.226 7.007 C 5.9179997 7.502 5.401 7.755 4.664 7.755 C 3.971 7.755 3.3439999 7.491 2.794 6.974 C 2.222 6.446 1.936 5.841 1.936 5.148 C 1.936 4.356 2.453 3.729 3.102 3.553 L 4.257 3.256 C 4.851 3.091 5.225 2.882 5.225 2.145 C 5.225 1.6389999 5.027 1.188 4.642 0.792 C 4.257 0.396 3.817 0.187 3.322 0.187 C 2.244 0.187 1.4629999 0.65999997 1.4629999 1.727 Z "/>
        </symbol>
        <symbol id="g40116ABA353B46442A6895AE452CE8A6" overflow="visible">
            <path d="M 5.082 3.047 C 4.785 3.487 4.4769998 3.861 4.18 4.169 C 3.74 4.631 3.201 4.862 2.552 4.862 C 1.947 4.862 1.452 4.587 1.089 4.037 C 0.77 3.564 0.616 3.003 0.616 2.365 C 0.616 1.727 0.77 1.166 1.078 0.693 C 1.441 0.154 1.925 -0.121 2.53 -0.121 C 3.718 -0.121 4.532 0.792 4.983 1.694 C 5.2799997 1.254 5.577 0.88 5.874 0.572 C 6.325 0.11 6.864 -0.121 7.502 -0.121 C 7.645 -0.121 7.799 -0.099 7.942 -0.066 L 7.942 0.451 C 7.777 0.41799998 7.678 0.407 7.645 0.407 C 7.249 0.407 6.886 0.583 6.5559998 0.935 C 6.347 1.166 6.105 1.496 5.83 1.903 L 5.368 2.585 C 5.544 2.981 5.808 3.377 6.149 3.784 C 6.545 4.235 7.029 4.466 7.601 4.466 C 7.711 4.466 7.821 4.444 7.942 4.411 C 7.942 4.653 7.92 4.796 7.887 4.829 C 7.81 4.851 7.689 4.862 7.524 4.862 C 6.347 4.862 5.522 3.949 5.082 3.047 Z M 4.235 2.838 L 4.686 2.156 C 4.5099998 1.76 4.246 1.364 3.905 0.957 C 3.509 0.506 3.025 0.275 2.453 0.275 C 1.958 0.275 1.573 0.506 1.298 0.979 C 1.067 1.375 0.946 1.837 0.946 2.365 C 0.946 2.86 1.067 3.289 1.298 3.674 C 1.573 4.114 1.947 4.334 2.409 4.334 C 2.816 4.334 3.179 4.158 3.498 3.806 C 3.707 3.575 3.96 3.245 4.235 2.838 Z "/>
        </symbol>
        <symbol id="gA0E7426B9B542702E02769A3658A6D26" overflow="visible">
            <path d="M 2.3331 5.1128 C 2.002 4.7894 1.5092 4.6277 0.8393 4.6277 L 0.8393 4.2889 C 1.2936 4.2889 1.6554999 4.3582 1.9327 4.4891 L 1.9327 0.6545 C 1.9327 0.55439997 1.925 0.4928 1.9018999 0.462 C 1.8634 0.3773 1.6324 0.3311 1.2089 0.3311 L 0.8932 0.3311 L 0.8932 0 L 2.2638 0.0308 L 3.6421 0 L 3.6421 0.3311 L 3.3264 0.3311 C 2.9029 0.3311 2.6719 0.3773 2.6257 0.462 C 2.6103 0.4928 2.6026 0.55439997 2.6026 0.6545 L 2.6026 4.8664 C 2.6026 5.0743 2.5718 5.1128 2.3331 5.1128 Z "/>
        </symbol>
        <symbol id="gE5C46C9CBD89948A8BE0A2E0956CDE5B" overflow="visible">
            <path d="M 2.772 1.001 C 2.772 1.5862 2.3716 1.9557999 1.5785 2.1098 C 1.2166 2.1791 0.9856 2.2638 0.8624 2.3485 C 0.7392 2.4332 0.6776 2.5564 0.6776 2.7027 C 0.6776 3.0646 0.9471 3.2417 1.4861 3.2417 C 2.0097 3.2417 2.2946 2.9491 2.3331 2.3562 C 2.3408 2.2946 2.3792999 2.2638 2.4563 2.2638 C 2.541 2.2638 2.5872 2.3331 2.5872 2.4717 L 2.5872 3.234 C 2.5872 3.3803 2.5487 3.4496 2.4717 3.4496 C 2.387 3.4496 2.2714999 3.3109999 2.1945 3.2494 C 2.002 3.3803 1.7633 3.4496 1.4861 3.4496 C 0.80079997 3.4496 0.2541 3.1416 0.2541 2.4871 C 0.2541 2.2253 0.3619 2.002 0.5852 1.8249 C 0.85469997 1.6015999 1.1087999 1.5554 1.5939 1.4707 C 2.0944 1.3706 2.3485 1.1473 2.3485 0.80079997 C 2.3485 0.3619 2.079 0.13859999 1.5323 0.13859999 C 1.001 0.13859999 0.6622 0.4928 0.5159 1.1935 C 0.4928 1.2936 0.4543 1.3475 0.385 1.3475 C 0.3003 1.3475 0.2541 1.2705 0.2541 1.1242 L 0.2541 0.1309 C 0.2541 -0.0154 0.2926 -0.0847 0.3696 -0.0847 C 0.3927 -0.0847 0.4312 -0.0616 0.4928 -0.0077 C 0.6314 0.1155 0.5698 0.0924 0.7084 0.231 C 0.9317 0.0231 1.2089 -0.0847 1.5323 -0.0847 C 2.2638 -0.0847 2.772 0.2926 2.772 1.001 Z "/>
        </symbol>
        <symbol id="gBDAA81CC3413C4F16859DD3E0CBA8F38" overflow="visible">
            <path d="M 1.4938 4.6277 C 1.4938 4.8587 1.3013 5.0589 1.0703 5.0589 C 0.8393 5.0589 0.6391 4.8587 0.6391 4.6277 C 0.6391 4.3967 0.8316 4.1888 1.0626 4.1888 C 1.3013 4.1888 1.4938 4.389 1.4938 4.6277 Z M 1.1011 0.0231 L 1.9018999 0 L 1.9018999 0.3003 C 1.6478 0.3003 1.4938 0.3157 1.4476 0.3465 C 1.4014 0.3773 1.386 0.462 1.386 0.6006 L 1.386 3.4265 L 0.2849 3.3341 L 0.2849 3.0415 C 0.539 3.0415 0.7007 3.0184 0.7546 2.9799 C 0.8085 2.9414 0.8316 2.8336 0.8316 2.6565 L 0.8316 0.6083 C 0.8316 0.462 0.8085 0.3696 0.7546 0.3388 C 0.7007 0.308 0.5313 0.3003 0.2541 0.3003 L 0.2541 0 Z "/>
        </symbol>
        <symbol id="gC9669A5292D1745586F1F838BBBDD8B1" overflow="visible">
            <path d="M 2.4178 3.1801 C 2.7642999 3.1801 2.9414 2.9106 2.9414 2.3639 L 2.9414 0.6083 C 2.9414 0.462 2.9183 0.3696 2.8644 0.3388 C 2.8105 0.308 2.6411 0.2926 2.3562 0.2926 L 2.3562 0 L 3.2417 0.0231 L 4.1195 0 L 4.1195 0.2926 C 3.8731 0.2926 3.7114 0.3003 3.6344 0.3234 C 3.5574 0.3465 3.5266 0.40039998 3.5266 0.4928 L 3.5266 1.9327 C 3.5266 2.2946 3.5189 2.5487 3.4958 2.695 C 3.4187999 3.1647 3.0723 3.4034 2.464 3.4034 C 1.9789 3.4034 1.617 3.1724 1.3783 2.7104 L 1.3783 3.4034 L 0.2464 3.3187 L 0.2464 3.0261 C 0.5236 3.0261 0.693 3.003 0.7546 2.9568 C 0.8162 2.9106 0.8393 2.8105 0.8393 2.6334 L 0.8393 0.6083 C 0.8393 0.462 0.8085 0.3696 0.7546 0.3388 C 0.7007 0.308 0.5313 0.2926 0.2464 0.2926 L 0.2464 0 L 1.1319 0.0231 L 2.0097 0 L 2.0097 0.2926 C 1.7248 0.2926 1.5631 0.308 1.5092 0.3388 C 1.4553 0.3696 1.4245 0.462 1.4245 0.6083 L 1.4245 1.9943 C 1.4245 2.618 1.8172 3.1801 2.4178 3.1801 Z "/>
        </symbol>
        <symbol id="g71E7F7ACB9560EFA9E00B6FBA0C6DA3E" overflow="visible">
            <path d="M 1.9018999 -0.077 C 2.5025 -0.077 3.08 0.1309 3.6421 0.5467 C 3.7884 0.1309 4.0502 -0.077 4.4429 -0.077 C 4.7509 -0.077 5.1898 0.1925 5.1898 0.4851 C 5.1898 0.5621 5.1359 0.6006 5.0281 0.6006 C 4.9434 0.6006 4.8972 0.5698 4.8741 0.5082 C 4.7971 0.3003 4.6585 0.1925 4.466 0.1925 C 4.4275 0.1925 4.3967 0.20019999 4.3736 0.2156 C 4.2889 0.2849 4.2427 0.5698 4.2273 1.0857 C 4.4351997 1.3013 4.6123 1.5554 4.774 1.848 C 5.0589 2.3639 5.2052 2.7104 5.2052 2.9029 C 5.2052 2.9876 5.1513 3.0338 5.0435 3.0338 C 4.928 3.0184 4.8818 2.9876 4.8587 2.8181999 C 4.7355 2.3639 4.5199 1.9404 4.2042 1.5323 L 4.2042 1.6478 C 4.1888 1.9173 4.1811 2.079 4.1734 2.1406 C 4.0579 2.8567 3.5112 3.3957 2.695 3.3957 C 2.1329 3.3957 1.6324 3.1801 1.1704 2.7489 C 0.7084 2.3177 0.4774 1.8249 0.4774 1.2705 C 0.4774 0.4774 1.0934 -0.077 1.9018999 -0.077 Z M 1.1704 1.0087 C 1.1704 1.54 1.4245 2.2407 1.6632 2.5564 C 1.9557999 2.9337 2.2946 3.1262 2.6873 3.1262 C 3.1416 3.1262 3.4187999 2.7797 3.5035 2.0944 C 3.542 1.5477 3.5651 1.1319 3.5728 0.85469997 C 3.0261 0.4158 2.4794 0.1925 1.925 0.1925 C 1.4322 0.1925 1.1704 0.5159 1.1704 1.0087 Z "/>
        </symbol>
    </defs>
</svg>
