<svg viewBox="0 0 356.119307501 172.447924803" width="356.119307501pt" height="172.447924803pt" xmlns="http://www.w3.org/2000/svg" xmlns:xlink="http://www.w3.org/1999/xlink" xmlns:h5="http://www.w3.org/1999/xhtml"><path fill="#ffffff" fill-rule="nonzero" d="M 0 0v 172.447924803h 356.119307501v -172.447924803Z "/><g transform="translate(8 8)"><path fill="none" stroke="#1a1a18" stroke-width="1" stroke-linecap="butt" stroke-linejoin="miter" stroke-miterlimit="4" transform="translate(1.700787402 79.885433071)" d="M 0 0h 104.31496063"/><path fill="none" stroke="#a29b8c" stroke-width="0.55" stroke-linecap="butt" stroke-linejoin="miter" stroke-miterlimit="4" transform="translate(0 79.885433071)" d="M 0 0m 4.535433071 0l -4.535433071 6.236220472"/><path fill="none" stroke="#a29b8c" stroke-width="0.55" stroke-linecap="butt" stroke-linejoin="miter" stroke-miterlimit="4" transform="translate(8.220472441 79.885433071)" d="M 0 0m 4.535433071 0l -4.535433071 6.236220472"/><path fill="none" stroke="#a29b8c" stroke-width="0.55" stroke-linecap="butt" stroke-linejoin="miter" stroke-miterlimit="4" transform="translate(16.440944882 79.885433071)" d="M 0 0m 4.535433071 0l -4.535433071 6.236220472"/><path fill="none" stroke="#a29b8c" stroke-width="0.55" stroke-linecap="butt" stroke-linejoin="miter" stroke-miterlimit="4" transform="translate(24.661417323 79.885433071)" d="M 0 0m 4.535433071 0l -4.535433071 6.236220472"/><path fill="none" stroke="#a29b8c" stroke-width="0.55" stroke-linecap="butt" stroke-linejoin="miter" stroke-miterlimit="4" transform="translate(32.881889764 79.885433071)" d="M 0 0m 4.535433071 0l -4.535433071 6.236220472"/><path fill="none" stroke="#a29b8c" stroke-width="0.55" stroke-linecap="butt" stroke-linejoin="miter" stroke-miterlimit="4" transform="translate(41.102362205 79.885433071)" d="M 0 0m 4.535433071 0l -4.535433071 6.236220472"/><path fill="none" stroke="#a29b8c" stroke-width="0.55" stroke-linecap="butt" stroke-linejoin="miter" stroke-miterlimit="4" transform="translate(49.322834646 79.885433071)" d="M 0 0m 4.535433071 0l -4.535433071 6.236220472"/><path fill="none" stroke="#a29b8c" stroke-width="0.55" stroke-linecap="butt" stroke-linejoin="miter" stroke-miterlimit="4" transform="translate(57.543307087 79.885433071)" d="M 0 0m 4.535433071 0l -4.535433071 6.236220472"/><path fill="none" stroke="#a29b8c" stroke-width="0.55" stroke-linecap="butt" stroke-linejoin="miter" stroke-miterlimit="4" transform="translate(65.763779528 79.885433071)" d="M 0 0m 4.535433071 0l -4.535433071 6.236220472"/><path fill="none" stroke="#a29b8c" stroke-width="0.55" stroke-linecap="butt" stroke-linejoin="miter" stroke-miterlimit="4" transform="translate(73.984251969 79.885433071)" d="M 0 0m 4.535433071 0l -4.535433071 6.236220472"/><path fill="none" stroke="#a29b8c" stroke-width="0.55" stroke-linecap="butt" stroke-linejoin="miter" stroke-miterlimit="4" transform="translate(82.204724409 79.885433071)" d="M 0 0m 4.535433071 0l -4.535433071 6.236220472"/><path fill="none" stroke="#a29b8c" stroke-width="0.55" stroke-linecap="butt" stroke-linejoin="miter" stroke-miterlimit="4" transform="translate(90.42519685 79.885433071)" d="M 0 0m 4.535433071 0l -4.535433071 6.236220472"/><path fill="none" stroke="#a29b8c" stroke-width="0.55" stroke-linecap="butt" stroke-linejoin="miter" stroke-miterlimit="4" transform="translate(98.645669291 79.885433071)" d="M 0 0m 4.535433071 0l -4.535433071 6.236220472"/><path fill="none" stroke="#1a1a18" stroke-width="0.6" stroke-linecap="butt" stroke-linejoin="miter" stroke-miterlimit="4" transform="translate(30.047244094 20.357874016)" d="M 0 0m 0 0l 0 55.838513011"/><path fill="#1a1a18" fill-rule="nonzero" stroke="#1a1a18" stroke-width="0.6" stroke-linecap="butt" stroke-linejoin="miter" stroke-miterlimit="4" transform="translate(28.984251969 76.196386929)" d="M 0 0m 1.062992126 2.834645669l -1.062992126 -2.834645669h 2.125984252l -1.062992126 2.834645669Z "/><path fill="none" stroke="#1a1a18" stroke-width="0.6" stroke-linecap="butt" stroke-linejoin="miter" stroke-miterlimit="4" transform="translate(41.952755906 20.357874016)" d="M 0 0v 55.838513011"/><path fill="#1a1a18" fill-rule="nonzero" stroke="#1a1a18" stroke-width="0.6" stroke-linecap="butt" stroke-linejoin="miter" stroke-miterlimit="4" transform="translate(40.88976378 76.196386929)" d="M 0 0m 1.062992126 2.834645669l -1.062992126 -2.834645669h 2.125984252l -1.062992126 2.834645669Z "/><path fill="none" stroke="#1a1a18" stroke-width="0.6" stroke-linecap="butt" stroke-linejoin="miter" stroke-miterlimit="4" transform="translate(53.858267717 20.357874016)" d="M 0 0v 55.838513011"/><path fill="#1a1a18" fill-rule="nonzero" stroke="#1a1a18" stroke-width="0.6" stroke-linecap="butt" stroke-linejoin="miter" stroke-miterlimit="4" transform="translate(52.795275591 76.196386929)" d="M 0 0m 1.062992126 2.834645669l -1.062992126 -2.834645669h 2.125984252l -1.062992126 2.834645669Z "/><path fill="none" stroke="#1a1a18" stroke-width="0.6" stroke-linecap="butt" stroke-linejoin="miter" stroke-miterlimit="4" transform="translate(65.763779528 20.357874016)" d="M 0 0v 55.838513011"/><path fill="#1a1a18" fill-rule="nonzero" stroke="#1a1a18" stroke-width="0.6" stroke-linecap="butt" stroke-linejoin="miter" stroke-miterlimit="4" transform="translate(64.700787402 76.196386929)" d="M 0 0m 1.062992126 2.834645669l -1.062992126 -2.834645669h 2.125984252l -1.062992126 2.834645669Z "/><path fill="none" stroke="#1a1a18" stroke-width="0.6" stroke-linecap="butt" stroke-linejoin="miter" stroke-miterlimit="4" transform="translate(77.669291339 20.357874016)" d="M 0 0v 55.838513011"/><path fill="#1a1a18" fill-rule="nonzero" stroke="#1a1a18" stroke-width="0.6" stroke-linecap="butt" stroke-linejoin="miter" stroke-miterlimit="4" transform="translate(76.606299213 76.196386929)" d="M 0 0m 1.062992126 2.834645669l -1.062992126 -2.834645669h 2.125984252l -1.062992126 2.834645669Z "/><path fill="none" stroke="#7c7f6a" stroke-width="2.8" stroke-linecap="butt" stroke-linejoin="miter" stroke-miterlimit="4" transform="translate(30.047244094 79.885433071)" d="M 0 0h 47.622047244"/><path fill="none" stroke="#7c7f6a" stroke-width="1.6" stroke-linecap="butt" stroke-linejoin="miter" stroke-miterlimit="4" transform="translate(30.047244094 76.200393701)" d="M 0 0m 0 7.37007874v -7.37007874"/><path fill="none" stroke="#7c7f6a" stroke-width="1.6" stroke-linecap="butt" stroke-linejoin="miter" stroke-miterlimit="4" transform="translate(77.669291339 76.200393701)" d="M 0 0m 0 7.37007874v -7.37007874"/><path fill="none" stroke="#1a1a18" stroke-width="0.7" stroke-linecap="butt" stroke-linejoin="miter" stroke-miterlimit="4" transform="translate(77.669291339 72.515354331)" d="M 0 0h 7.37007874"/><path fill="none" stroke="#1a1a18" stroke-width="0.7" stroke-linecap="butt" stroke-linejoin="miter" stroke-miterlimit="4" transform="translate(85.039370079 72.515354331)" d="M 0 0v 7.37007874"/><path fill="none" transform="translate(88.369094488 64.45492126)" d="M 0 0h 13.75v 7.05h -13.75v -7.05Z "/><g transform="translate(88.369094409 64.454921165)"><g transform="matrix(1 0 0 -1 0 6.83)"><use xlink:href="#gF99C0212A28E75750A48E6E827328F99" x="0" y="0" fill="#1a1a18" fill-rule="nonzero"/></g><g transform="matrix(1 0 0 -1 5 6.83)"><use xlink:href="#gAA84A9423BA34B701FF3D1FC1A0341B9" x="0" y="0" fill="#1a1a18" fill-rule="nonzero"/></g><g transform="matrix(1 0 0 -1 10 6.83)"><use xlink:href="#g9260F1513A660D7C61BD1276714DE26C" x="0" y="0" fill="#1a1a18" fill-rule="nonzero"/></g></g><path fill="none" transform="translate(45.607045494 102.207673228)" d="M 0 0h 16.502444444v 7.513h -16.502444444v -7.513Z "/><g transform="translate(45.607045465 102.20767315)"><g transform="matrix(1 0 0 -1 0 7.513)"><use xlink:href="#g23FF2CB0A5B3999574DE734D483151BD" x="0" y="0" fill="#7c7f6a" fill-rule="nonzero"/></g><g transform="matrix(1 0 0 -1 7.944444444 7.513)"><use xlink:href="#g2F39271B45DAA385DCDAA0BAA9F6EC02" x="0" y="0" fill="#7c7f6a" fill-rule="nonzero"/></g></g><path fill="none" transform="translate(36.893267717 0.01)" d="M 0 0h 33.93v 6.68h -33.93v -6.68Z "/><g transform="translate(36.893267717 0.009999937)"><g transform="matrix(1 0 0 -1 0 6.58)"><use xlink:href="#gF91E605A926A6829D0875F26DD95556B" x="0" y="0" fill="#1a1a18" fill-rule="nonzero"/><use xlink:href="#gF7E2F11D9500E34CEB199CAED225F368" x="5.04" y="0" fill="#1a1a18" fill-rule="nonzero"/><use xlink:href="#g43B4DCD2F8848462ADFC1E372BCC35" x="9.49" y="0" fill="#1a1a18" fill-rule="nonzero"/><use xlink:href="#g8C4BCE4FF39E54C5E232A1A0A3B7612A" x="14.28" y="0" fill="#1a1a18" fill-rule="nonzero"/><use xlink:href="#g3034C02F099195832EC02A04CF67550" x="18.75" y="0" fill="#1a1a18" fill-rule="nonzero"/><use xlink:href="#gD51468542432F864548926048E523B26" x="23.03" y="0" fill="#1a1a18" fill-rule="nonzero"/><use xlink:href="#gF91E605A926A6829D0875F26DD95556B" x="28.89" y="0" fill="#1a1a18" fill-rule="nonzero"/></g></g><path fill="none" stroke="#1a1a18" stroke-width="1" stroke-linecap="butt" stroke-linejoin="miter" stroke-miterlimit="4" transform="translate(164.976377953 79.885433071)" d="M 0 0h 151.937007874"/><path fill="none" stroke="#a29b8c" stroke-width="0.55" stroke-linecap="butt" stroke-linejoin="miter" stroke-miterlimit="4" transform="translate(163.275590551 79.885433071)" d="M 0 0m 4.535433071 0l -4.535433071 6.236220472"/><path fill="none" stroke="#a29b8c" stroke-width="0.55" stroke-linecap="butt" stroke-linejoin="miter" stroke-miterlimit="4" transform="translate(175.464566929 79.885433071)" d="M 0 0m 4.535433071 0l -4.535433071 6.236220472"/><path fill="none" stroke="#a29b8c" stroke-width="0.55" stroke-linecap="butt" stroke-linejoin="miter" stroke-miterlimit="4" transform="translate(187.653543307 79.885433071)" d="M 0 0m 4.535433071 0l -4.535433071 6.236220472"/><path fill="none" stroke="#a29b8c" stroke-width="0.55" stroke-linecap="butt" stroke-linejoin="miter" stroke-miterlimit="4" transform="translate(199.842519685 79.885433071)" d="M 0 0m 4.535433071 0l -4.535433071 6.236220472"/><path fill="none" stroke="#a29b8c" stroke-width="0.55" stroke-linecap="butt" stroke-linejoin="miter" stroke-miterlimit="4" transform="translate(212.031496063 79.885433071)" d="M 0 0m 4.535433071 0l -4.535433071 6.236220472"/><path fill="none" stroke="#a29b8c" stroke-width="0.55" stroke-linecap="butt" stroke-linejoin="miter" stroke-miterlimit="4" transform="translate(224.220472441 79.885433071)" d="M 0 0m 4.535433071 0l -4.535433071 6.236220472"/><path fill="none" stroke="#a29b8c" stroke-width="0.55" stroke-linecap="butt" stroke-linejoin="miter" stroke-miterlimit="4" transform="translate(236.409448819 79.885433071)" d="M 0 0m 4.535433071 0l -4.535433071 6.236220472"/><path fill="none" stroke="#a29b8c" stroke-width="0.55" stroke-linecap="butt" stroke-linejoin="miter" stroke-miterlimit="4" transform="translate(248.598425197 79.885433071)" d="M 0 0m 4.535433071 0l -4.535433071 6.236220472"/><path fill="none" stroke="#a29b8c" stroke-width="0.55" stroke-linecap="butt" stroke-linejoin="miter" stroke-miterlimit="4" transform="translate(260.787401575 79.885433071)" d="M 0 0m 4.535433071 0l -4.535433071 6.236220472"/><path fill="none" stroke="#a29b8c" stroke-width="0.55" stroke-linecap="butt" stroke-linejoin="miter" stroke-miterlimit="4" transform="translate(272.976377953 79.885433071)" d="M 0 0m 4.535433071 0l -4.535433071 6.236220472"/><path fill="none" stroke="#a29b8c" stroke-width="0.55" stroke-linecap="butt" stroke-linejoin="miter" stroke-miterlimit="4" transform="translate(285.165354331 79.885433071)" d="M 0 0m 4.535433071 0l -4.535433071 6.236220472"/><path fill="none" stroke="#a29b8c" stroke-width="0.55" stroke-linecap="butt" stroke-linejoin="miter" stroke-miterlimit="4" transform="translate(297.354330709 79.885433071)" d="M 0 0m 4.535433071 0l -4.535433071 6.236220472"/><path fill="none" stroke="#a29b8c" stroke-width="0.55" stroke-linecap="butt" stroke-linejoin="miter" stroke-miterlimit="4" transform="translate(309.543307087 79.885433071)" d="M 0 0m 4.535433071 0l -4.535433071 6.236220472"/><path fill="none" stroke="#1a1a18" stroke-width="0.6" stroke-linecap="butt" stroke-linejoin="miter" stroke-miterlimit="4" transform="translate(196.517642235 50.121653543)" d="M 0 0m 48.357570777 0l -48.357570777 27.919256506"/><path fill="#1a1a18" fill-rule="nonzero" stroke="#1a1a18" stroke-width="0.6" stroke-linecap="butt" stroke-linejoin="miter" stroke-miterlimit="4" transform="translate(194.062767024 77.120331961)" d="M 0 0m 0 2.337901016l 1.923379087 -2.337901016l 1.062992126 1.841156362l -2.986371213 0.496744654Z "/><path fill="none" stroke="#1a1a18" stroke-width="0.6" stroke-linecap="butt" stroke-linejoin="miter" stroke-miterlimit="4" transform="translate(220.328665857 50.121653543)" d="M 0 0m 48.357570777 0l -48.357570777 27.919256506"/><path fill="#1a1a18" fill-rule="nonzero" stroke="#1a1a18" stroke-width="0.6" stroke-linecap="butt" stroke-linejoin="miter" stroke-miterlimit="4" transform="translate(217.873790646 77.120331961)" d="M 0 0m 0 2.337901016l 1.923379087 -2.337901016l 1.062992126 1.841156362l -2.986371213 0.496744654Z "/><path fill="none" stroke="#1a1a18" stroke-width="0.6" stroke-linecap="butt" stroke-linejoin="miter" stroke-miterlimit="4" transform="translate(244.139689479 50.121653543)" d="M 0 0m 48.357570777 0l -48.357570777 27.919256506"/><path fill="#1a1a18" fill-rule="nonzero" stroke="#1a1a18" stroke-width="0.6" stroke-linecap="butt" stroke-linejoin="miter" stroke-miterlimit="4" transform="translate(241.684814268 77.120331961)" d="M 0 0m 0 2.337901016l 1.923379087 -2.337901016l 1.062992126 1.841156362l -2.986371213 0.496744654Z "/><path fill="none" stroke="#1a1a18" stroke-width="0.6" stroke-linecap="butt" stroke-linejoin="miter" stroke-miterlimit="4" transform="translate(267.950713101 50.121653543)" d="M 0 0m 48.357570777 0l -48.357570777 27.919256506"/><path fill="#1a1a18" fill-rule="nonzero" stroke="#1a1a18" stroke-width="0.6" stroke-linecap="butt" stroke-linejoin="miter" stroke-miterlimit="4" transform="translate(265.49583789 77.120331961)" d="M 0 0m 0 2.337901016l 1.923379087 -2.337901016l 1.062992126 1.841156362l -2.986371213 0.496744654Z "/><path fill="none" stroke="#1a1a18" stroke-width="0.6" stroke-linecap="butt" stroke-linejoin="miter" stroke-miterlimit="4" transform="translate(291.761736724 50.121653543)" d="M 0 0m 48.357570777 0l -48.357570777 27.919256506"/><path fill="#1a1a18" fill-rule="nonzero" stroke="#1a1a18" stroke-width="0.6" stroke-linecap="butt" stroke-linejoin="miter" stroke-miterlimit="4" transform="translate(289.306861512 77.120331961)" d="M 0 0m 0 2.337901016l 1.923379087 -2.337901016l 1.062992126 1.841156362l -2.986371213 0.496744654Z "/><path fill="none" stroke="#7c7f6a" stroke-width="2.8" stroke-linecap="butt" stroke-linejoin="miter" stroke-miterlimit="4" transform="translate(193.322834646 79.885433071)" d="M 0 0h 95.244094488"/><path fill="none" stroke="#7c7f6a" stroke-width="1.6" stroke-linecap="butt" stroke-linejoin="miter" stroke-miterlimit="4" transform="translate(193.322834646 76.200393701)" d="M 0 0m 0 7.37007874v -7.37007874"/><path fill="none" stroke="#7c7f6a" stroke-width="1.6" stroke-linecap="butt" stroke-linejoin="miter" stroke-miterlimit="4" transform="translate(288.566929134 76.200393701)" d="M 0 0m 0 7.37007874v -7.37007874"/><path fill="none" stroke="#1a1a18" stroke-width="0.7" stroke-linecap="butt" stroke-linejoin="miter" stroke-miterlimit="4" transform="translate(284.959109299 66.420866142)" d="M 0 0m 3.607819835 13.464566929c 0 -4.727050307 -1.244294682 -9.370821278 -3.607819835 -13.464566929"/><path fill="none" transform="translate(316.274606299 67.856496063)" d="M 0 0h 13.75v 7.05h -13.75v -7.05Z "/><g transform="translate(316.27460622 67.856495969)"><g transform="matrix(1 0 0 -1 0 6.83)"><use xlink:href="#g2944E08BBD755E2996904E6E0A970414" x="0" y="0" fill="#1a1a18" fill-rule="nonzero"/></g><g transform="matrix(1 0 0 -1 5 6.83)"><use xlink:href="#gAA84A9423BA34B701FF3D1FC1A0341B9" x="0" y="0" fill="#1a1a18" fill-rule="nonzero"/></g><g transform="matrix(1 0 0 -1 10 6.83)"><use xlink:href="#g9260F1513A660D7C61BD1276714DE26C" x="0" y="0" fill="#1a1a18" fill-rule="nonzero"/></g></g><path fill="none" transform="translate(232.693659668 102.207673228)" d="M 0 0h 16.502444444v 7.513h -16.502444444v -7.513Z "/><g transform="translate(232.693659638 102.20767315)"><g transform="matrix(1 0 0 -1 0 7.513)"><use xlink:href="#g847DCE2A3EE7D23E3D551BDE0EE8A683" x="0" y="0" fill="#7c7f6a" fill-rule="nonzero"/></g><g transform="matrix(1 0 0 -1 7.944444444 7.513)"><use xlink:href="#g2F39271B45DAA385DCDAA0BAA9F6EC02" x="0" y="0" fill="#7c7f6a" fill-rule="nonzero"/></g></g><path fill="none" transform="translate(225.73988189)" d="M 0 0h 30.41v 6.7h -30.41v -6.7Z "/><g transform="translate(225.73988178 -1.26e-7)"><g transform="matrix(1 0 0 -1 0 6.58)"><use xlink:href="#gAB8B9E265B3CCA4072A334611102AFDC" x="0" y="0" fill="#1a1a18" fill-rule="nonzero"/><use xlink:href="#gF91E605A926A6829D0875F26DD95556B" x="5.86" y="0" fill="#1a1a18" fill-rule="nonzero"/><use xlink:href="#g58FE41588FF370B2D963AE7490CB53AD" x="10.9" y="0" fill="#1a1a18" fill-rule="nonzero"/><use xlink:href="#gF91E605A926A6829D0875F26DD95556B" x="16.17" y="0" fill="#1a1a18" fill-rule="nonzero"/><use xlink:href="#gA00006717397A74F11CDD511C8F2ED3A" x="21.21" y="0" fill="#1a1a18" fill-rule="nonzero"/><use xlink:href="#gF91E605A926A6829D0875F26DD95556B" x="25.37" y="0" fill="#1a1a18" fill-rule="nonzero"/></g></g><path fill="none" transform="translate(0.464574803 126.063375984)" d="M 0 0h 293.874v 8.5575h -293.874v -8.5575Z "/><g transform="translate(0.464574756 126.06337589)"><g transform="matrix(1 0 0 -1 0 7.1715)"><use xlink:href="#gEFE4B6AA52BBE68EAC50879BB9FC5B99" x="0" y="0" fill="#1a1a18" fill-rule="nonzero"/><use xlink:href="#g2CCA8BF5638277170DC3145805989D03" x="4.6725" y="0" fill="#1a1a18" fill-rule="nonzero"/><use xlink:href="#gEFE4B6AA52BBE68EAC50879BB9FC5B99" x="9.9645" y="0" fill="#1a1a18" fill-rule="nonzero"/><use xlink:href="#g63CAA9DA1449BB21401EBA22A3288F1B" x="17.262" y="0" fill="#1a1a18" fill-rule="nonzero"/><use xlink:href="#g6BE6E829C497D42358C95A1CE01E9C8D" x="24.675" y="0" fill="#1a1a18" fill-rule="nonzero"/><use xlink:href="#g3CD763AC845B0CB818F9BD746791AD3E" x="31.9935" y="0" fill="#1a1a18" fill-rule="nonzero"/><use xlink:href="#g2CCA8BF5638277170DC3145805989D03" x="38.1465" y="0" fill="#1a1a18" fill-rule="nonzero"/><use xlink:href="#gEFE4B6AA52BBE68EAC50879BB9FC5B99" x="43.4385" y="0" fill="#1a1a18" fill-rule="nonzero"/><use xlink:href="#g2CCA8BF5638277170DC3145805989D03" x="48.111" y="0" fill="#1a1a18" fill-rule="nonzero"/><use xlink:href="#g78600E8C98627C719956C28D931C0FCD" x="53.403" y="0" fill="#1a1a18" fill-rule="nonzero"/><use xlink:href="#g82CEFBD7794B65843D53AD20E5467AC8" x="61.299" y="0" fill="#1a1a18" fill-rule="nonzero"/><use xlink:href="#g9FC2A71BDDDA2D0D564137C940E24D2D" x="71.715" y="0" fill="#1a1a18" fill-rule="nonzero"/><use xlink:href="#g1B043F976F91609DD7E96A6B26794D5" x="76.7445" y="0" fill="#1a1a18" fill-rule="nonzero"/><use xlink:href="#g9FC2A71BDDDA2D0D564137C940E24D2D" x="82.3935" y="0" fill="#1a1a18" fill-rule="nonzero"/><use xlink:href="#g2CCA8BF5638277170DC3145805989D03" x="87.423" y="0" fill="#1a1a18" fill-rule="nonzero"/><use xlink:href="#g6BE6E829C497D42358C95A1CE01E9C8D" x="92.715" y="0" fill="#1a1a18" fill-rule="nonzero"/><use xlink:href="#gACC72C516F07527D57123401F2817E7F" x="100.0335" y="0" fill="#1a1a18" fill-rule="nonzero"/><use xlink:href="#g2CCA8BF5638277170DC3145805989D03" x="105.168" y="0" fill="#1a1a18" fill-rule="nonzero"/><use xlink:href="#gC1379707D8F32FABA5511CD9F7E78B4B" x="110.46" y="0" fill="#1a1a18" fill-rule="nonzero"/><use xlink:href="#g27DEC58C12F66BC18579BCAFE69C73E3" x="115.9935" y="0" fill="#1a1a18" fill-rule="nonzero"/><use xlink:href="#g998C4308CCF2FB22F56686A9BD462939" x="120.876" y="0" fill="#1a1a18" fill-rule="nonzero"/><use xlink:href="#g6BE6E829C497D42358C95A1CE01E9C8D" x="129.7905" y="0" fill="#1a1a18" fill-rule="nonzero"/><use xlink:href="#g3CD763AC845B0CB818F9BD746791AD3E" x="137.109" y="0" fill="#1a1a18" fill-rule="nonzero"/><use xlink:href="#gC1379707D8F32FABA5511CD9F7E78B4B" x="143.262" y="0" fill="#1a1a18" fill-rule="nonzero"/><use xlink:href="#g2CCA8BF5638277170DC3145805989D03" x="148.7955" y="0" fill="#1a1a18" fill-rule="nonzero"/><use xlink:href="#g6819E97633622D0CAB4957D7F0878631" x="154.0875" y="0" fill="#1a1a18" fill-rule="nonzero"/><use xlink:href="#gB9CB8C21641BB9D6945EBC7ED76275C1" x="163.002" y="0" fill="#1a1a18" fill-rule="nonzero"/><use xlink:href="#g1B043F976F91609DD7E96A6B26794D5" x="167.8005" y="0" fill="#1a1a18" fill-rule="nonzero"/><use xlink:href="#g568D5D3ED6A40ED2A5E686080CDC7CBF" x="173.4495" y="0" fill="#1a1a18" fill-rule="nonzero"/></g><g transform="matrix(1 0 0 -1 184.8525 7.1715)"><use xlink:href="#gFAE613216E3C0135039ECF2D4F80DC78" x="0" y="0" fill="#1a1a18" fill-rule="nonzero"/></g><g transform="matrix(1 0 0 -1 195.3525 7.1715)"/><g transform="matrix(1 0 0 -1 200.6025 7.1715)"><use xlink:href="#g9FC2A71BDDDA2D0D564137C940E24D2D" x="0" y="0" fill="#1a1a18" fill-rule="nonzero"/><use xlink:href="#g1B043F976F91609DD7E96A6B26794D5" x="5.0295" y="0" fill="#1a1a18" fill-rule="nonzero"/><use xlink:href="#g9FC2A71BDDDA2D0D564137C940E24D2D" x="10.6785" y="0" fill="#1a1a18" fill-rule="nonzero"/><use xlink:href="#g2CCA8BF5638277170DC3145805989D03" x="15.708" y="0" fill="#1a1a18" fill-rule="nonzero"/><use xlink:href="#g6BE6E829C497D42358C95A1CE01E9C8D" x="21" y="0" fill="#1a1a18" fill-rule="nonzero"/><use xlink:href="#g7DB29D3496F71FB271523E017004D04" x="28.3185" y="0" fill="#1a1a18" fill-rule="nonzero"/><use xlink:href="#g6BE6E829C497D42358C95A1CE01E9C8D" x="35.4585" y="0" fill="#1a1a18" fill-rule="nonzero"/><use xlink:href="#g71D81E84C847076CE887D3A5D7C0718B" x="40.152" y="0" fill="#1a1a18" fill-rule="nonzero"/><use xlink:href="#g27DEC58C12F66BC18579BCAFE69C73E3" x="46.305" y="0" fill="#1a1a18" fill-rule="nonzero"/><use xlink:href="#g998C4308CCF2FB22F56686A9BD462939" x="51.1875" y="0" fill="#1a1a18" fill-rule="nonzero"/><use xlink:href="#g6BE6E829C497D42358C95A1CE01E9C8D" x="60.102" y="0" fill="#1a1a18" fill-rule="nonzero"/><use xlink:href="#gEFE4B6AA52BBE68EAC50879BB9FC5B99" x="67.4205" y="0" fill="#1a1a18" fill-rule="nonzero"/><use xlink:href="#g6BE6E829C497D42358C95A1CE01E9C8D" x="72.093" y="0" fill="#1a1a18" fill-rule="nonzero"/><use xlink:href="#g3CD763AC845B0CB818F9BD746791AD3E" x="76.7865" y="0" fill="#1a1a18" fill-rule="nonzero"/><use xlink:href="#gC1379707D8F32FABA5511CD9F7E78B4B" x="82.9395" y="0" fill="#1a1a18" fill-rule="nonzero"/><use xlink:href="#gB9CB8C21641BB9D6945EBC7ED76275C1" x="88.473" y="0" fill="#1a1a18" fill-rule="nonzero"/></g></g><path fill="none" transform="translate(127.035502581 145.055224803)" d="M 0 0h 40.732144444v 11.3927h -40.732144444v -11.3927Z "/><g transform="translate(127.035502441 145.055224787)"><g transform="matrix(1 0 0 -1 0 7.513)"><use xlink:href="#gEEE1F44BC4E494A64DA9023FB4CE224F" x="0" y="0" fill="#7c7f6a" fill-rule="nonzero"/></g><g transform="matrix(1 0 0 -1 10.458555556 7.513)"><use xlink:href="#g91B0E4A0B25AC868E1DDA25ACEDA479B" x="0" y="0" fill="#7c7f6a" fill-rule="nonzero"/></g><g transform="matrix(1 0 0 -1 29.211477778 3.179)"><use xlink:href="#gBFCC2410A697C41E2DD3187C83DA8F3" x="0" y="0" fill="#7c7f6a" fill-rule="nonzero"/></g><g transform="matrix(1 0 0 -1 23.172111111 11.308)"><use xlink:href="#gB63947F6D897BD1EA09CE63D8362E591" x="0" y="0" fill="#7c7f6a" fill-rule="nonzero"/><use xlink:href="#g84D70C32A1AE23E79C707F10A0238EE8" x="3.0338" y="0" fill="#7c7f6a" fill-rule="nonzero"/><use xlink:href="#g64A450817DED720072FB6354A904F737" x="5.1744" y="0" fill="#7c7f6a" fill-rule="nonzero"/></g><g transform="matrix(1 0 0 -1 33.911044444 11.308)"><use xlink:href="#gF6EF1496444800FD33FBAD9763F76913" x="0" y="0" fill="#7c7f6a" fill-rule="nonzero"/></g><path fill="none" stroke="#7c7f6a" stroke-width="0.528" stroke-linecap="butt" stroke-linejoin="miter" stroke-miterlimit="4" transform="translate(23.172111111 4.763)" d="M 0 0h 16.460033333"/></g></g><defs><symbol id="gF99C0212A28E75750A48E6E827328F99" overflow="visible"><path d="M 0 0m 1.16 1.4c -0.33 0 -0.49 -0.17 -0.49 -0.51c 0 -0.75 0.61 -1.11 1.4 -1.11c 0.8 0 1.44 0.4 1.91 1.21c 0.39 0.67 0.59 1.44 0.59 2.3c 0 1.27 -0.23 2.17 -0.69 2.7c -0.39 0.45 -0.84 0.67 -1.35 0.67c -0.59 0 -1.08 -0.21 -1.47 -0.64c -0.43 -0.45 -0.64 -0.99 -0.64 -1.62c 0 -0.61 0.18 -1.13 0.54 -1.56c 0.38 -0.46 0.87 -0.69 1.46 -0.69c 0.52 0 0.92 0.28 1.19 0.84v -0.13c 0 -1.09 -0.19 -1.83 -0.58 -2.23c -0.31 -0.33 -0.64 -0.49 -0.97 -0.49c -0.4 0 -0.69 0.09 -0.88 0.28c 0.31 0 0.47 0.18 0.47 0.49c 0 0.28 -0.21 0.49 -0.49 0.49Z m 1.27 1.06c -0.39 0 -0.68 0.2 -0.88 0.6c -0.11 0.23 -0.17 0.68 -0.17 1.33c 0 0.65 0.07 1.09 0.2 1.34c 0.22 0.4 0.54 0.6 0.95 0.6c 0.41 0 0.71 -0.25 0.9 -0.75c 0.11 -0.27 0.18 -0.73 0.18 -1.38c 0 -0.87 -0.39 -1.74 -1.18 -1.74Z "/></symbol><symbol id="gAA84A9423BA34B701FF3D1FC1A0341B9" overflow="visible"><path d="M 0 0m 2.49 -0.22c 1.41 0 2.11 1.14 2.11 3.42c 0 1.53 -0.32 2.55 -0.95 3.05c -0.35 0.27 -0.74 0.41 -1.15 0.41c -1.41 0 -2.11 -1.15 -2.11 -3.46c 0 -1.84 0.49 -3.42 2.1 -3.42Z m 1.12 5.46c 0.07 -0.35 0.1 -0.99 0.1 -1.92c 0 -0.92 -0.04 -1.6 -0.11 -2.04c -0.13 -0.8 -0.5 -1.2 -1.11 -1.2c -0.23 0 -0.46 0.09 -0.67 0.26c -0.27 0.23 -0.43 0.7 -0.5 1.42c -0.03 0.25 -0.04 0.77 -0.04 1.56c 0 0.87 0.03 1.48 0.08 1.81c 0.09 0.55 0.27 0.9 0.55 1.05c 0.22 0.12 0.41 0.18 0.58 0.18c 0.65 0 1.01 -0.53 1.12 -1.12Z "/></symbol><symbol id="g9260F1513A660D7C61BD1276714DE26C" overflow="visible"><path d="M 0 0m 3.26 5.44c 0 0.77 -0.61 1.39 -1.38 1.39c -0.77 0 -1.39 -0.62 -1.39 -1.39c 0 -0.77 0.62 -1.38 1.39 -1.38c 0.75 0 1.38 0.63 1.38 1.38Z m -0.47 0c 0 -0.5 -0.41 -0.91 -0.91 -0.91c -0.51 0 -0.92 0.4 -0.92 0.91c 0 0.52 0.4 0.92 0.92 0.92c 0.51 0 0.91 -0.41 0.91 -0.92Z "/></symbol><symbol id="g23FF2CB0A5B3999574DE734D483151BD" overflow="visible"><path d="M 0 0m 2.959 7.326c -0.451 -0.462 -1.111 -0.693 -1.98 -0.693v -0.429c 0.572 0 1.045 0.088 1.408 0.264v -5.566c 0 -0.198 -0.044 -0.33 -0.143 -0.385c -0.099 -0.055 -0.374 -0.088 -0.814 -0.088h -0.385v -0.429c 0.275 0.022 0.869 0.033 1.782 0.033c 0.913 0 1.507 -0.011 1.782 -0.033v 0.429h -0.385c -0.451 0 -0.726 0.033 -0.814 0.088c -0.088 0.055 -0.143 0.187 -0.143 0.385v 6.094c 0 0.264 -0.022 0.33 -0.308 0.33Z "/></symbol><symbol id="g2F39271B45DAA385DCDAA0BAA9F6EC02" overflow="visible"><path d="M 0 0m 6.93 0.352c 0 0.077 -0.022 0.132 -0.077 0.187l -2.211 2.211l 2.211 2.211c 0.055 0.055 0.077 0.11 0.077 0.187c 0 0.143 -0.11 0.253 -0.253 0.253c -0.077 0 -0.132 -0.022 -0.187 -0.077l -2.211 -2.211l -2.211 2.211c -0.055 0.055 -0.11 0.077 -0.187 0.077c -0.143 0 -0.253 -0.11 -0.253 -0.253c 0 -0.077 0.022 -0.132 0.077 -0.187l 2.211 -2.211l -2.211 -2.211c -0.055 -0.055 -0.077 -0.11 -0.077 -0.187c 0 -0.143 0.11 -0.253 0.253 -0.253c 0.077 0 0.132 0.022 0.187 0.077l 2.211 2.211l 2.211 -2.211c 0.055 -0.055 0.11 -0.077 0.187 -0.077c 0.143 0 0.253 0.11 0.253 0.253Z "/></symbol><symbol id="gF91E605A926A6829D0875F26DD95556B" overflow="visible"><path d="M 0 0m 0.41 2.05c 0 -1.02 0.68 -2.15 2.1 -2.15c 0.64 0 1.13 0.23 1.47 0.56c 0.45 0.44 0.65 1.07 0.65 1.68c 0 1.04 -0.57 2.25 -2.1 2.25c -0.66 0 -1.2 -0.27 -1.57 -0.7c -0.36 -0.43 -0.55 -1.01 -0.55 -1.64Z m 1.97 1.99c 0.86 0 1.39 -0.78 1.39 -2.22c 0 -1.26 -0.65 -1.57 -1.12 -1.57c -1.04 0 -1.38 1.26 -1.38 2.03c 0 0.87 0.21 1.76 1.11 1.76Z "/></symbol><symbol id="gF7E2F11D9500E34CEB199CAED225F368" overflow="visible"><path d="M 0 0m 1.82 1.22c 0 -0.83 -0.11 -0.88 -0.72 -0.91c -0.06 -0.06 -0.06 -0.27 0 -0.33c 0.39 0.01 0.79 0.02 1.12 0.02c 0.34 0 0.73 -0.01 1.11 -0.02c 0.06 0.06 0.06 0.27 0 0.33c -0.61 0.03 -0.72 0.08 -0.72 0.91v 2.7h 0.17c 0.81 0 0.97 -0.28 1.14 -1.09c 0.13 0 0.26 0.04 0.26 0.04c -0.06 0.46 -0.1 0.9 -0.11 1.48c -0.23 -0.02 -0.98 -0.06 -1.48 -0.06h -0.75c -0.5 0 -1.06 0.03 -1.46 0.06c -0.01 -0.58 -0.05 -1.02 -0.12 -1.48c 0 0 0.14 -0.04 0.27 -0.04c 0.17 0.81 0.32 1.09 1.14 1.09h 0.15Z "/></symbol><symbol id="g43B4DCD2F8848462ADFC1E372BCC35" overflow="visible"><path d="M 0 0m 1.46 4.29c -0.43 0 -0.78 0.01 -1.11 0.02c -0.06 -0.06 -0.06 -0.27 0 -0.33c 0.61 -0.04 0.72 -0.08 0.72 -0.91v -1.85c 0 -0.83 -0.11 -0.86 -0.72 -0.91c -0.06 -0.06 -0.06 -0.27 0 -0.33c 0.33 0.01 0.68 0.02 1.12 0.02c 0.37 0 0.7 -0.02 1.37 -0.02c 0.86 0 1.51 0.24 1.51 1.23c 0 0.56 -0.35 0.95 -0.96 1.06v 0.03c 0.46 0.09 0.81 0.41 0.81 1.01c 0 0.7 -0.43 1 -1.64 1c -0.41 0 -0.67 -0.02 -1.1 -0.02Z m 0.4 -2.12h 0.76c 0.61 0 0.87 -0.4 0.87 -1c 0 -0.67 -0.38 -0.86 -0.92 -0.86c -0.52 0 -0.71 0.09 -0.71 0.55Z m 0 0.29v 1.16c 0 0.3 0.23 0.36 0.71 0.36c 0.52 0 0.83 -0.14 0.83 -0.74c 0 -0.4 -0.26 -0.78 -0.88 -0.78Z "/></symbol><symbol id="g8C4BCE4FF39E54C5E232A1A0A3B7612A" overflow="visible"><path d="M 0 0m 3.86 0.93c -0.37 -0.38 -0.66 -0.54 -1.24 -0.54c -0.36 0 -0.78 0.21 -1.09 0.72c -0.2 0.33 -0.32 0.79 -0.32 1.37l 2.66 -0.02c 0.12 0 0.19 0.06 0.19 0.17c 0 0.84 -0.3 1.74 -1.69 1.74c -0.87 0 -2 -0.83 -2 -2.35c 0 -0.56 0.14 -1.1 0.47 -1.48c 0.34 -0.4 0.81 -0.64 1.53 -0.64c 0.76 0 1.3 0.35 1.7 0.87c -0.03 0.1 -0.09 0.15 -0.21 0.16Z m -2.62 1.89c 0.19 1.13 0.89 1.22 1.13 1.22c 0.38 0 0.83 -0.21 0.83 -1.05c 0 -0.09 -0.04 -0.14 -0.15 -0.14Z "/></symbol><symbol id="g3034C02F099195832EC02A04CF67550" overflow="visible"><path d="M 0 0m 3.98 0.91c -0.04 0.09 -0.12 0.13 -0.21 0.14c -0.34 -0.44 -0.77 -0.66 -1.2 -0.66c -0.73 0 -1.34 0.74 -1.34 1.91c 0 1.1 0.48 1.76 1.14 1.76c 0.59 0 0.67 -0.35 0.71 -0.7c 0.03 -0.27 0.17 -0.36 0.38 -0.36c 0.21 0 0.49 0.13 0.49 0.44c 0 0.55 -0.57 0.95 -1.53 0.95c -0.99 0 -2.05 -0.89 -2.05 -2.31c 0 -1.29 0.72 -2.18 1.98 -2.18c 0.6 0 1.13 0.19 1.63 1.01Z "/></symbol><symbol id="gD51468542432F864548926048E523B26" overflow="visible"><path d="M 0 0m 4.79 3.07c 0 0.83 0.11 0.86 0.72 0.91c 0.06 0.06 0.06 0.27 0 0.33c -0.35 -0.02 -0.79 -0.02 -1.12 -0.02c -0.28 0 -0.68 0.01 -1.07 0.02c -0.06 -0.06 -0.06 -0.27 0 -0.33c 0.61 -0.04 0.68 -0.08 0.68 -0.91v -0.65h -2.14v 0.65c 0 0.83 0.07 0.86 0.68 0.91c 0.06 0.06 0.06 0.27 0 0.33c -0.38 -0.01 -0.76 -0.02 -1.08 -0.02c -0.3 0 -0.71 0.01 -1.11 0.02c -0.06 -0.06 -0.06 -0.27 0 -0.33c 0.61 -0.04 0.72 -0.08 0.72 -0.91v -1.85c 0 -0.83 -0.11 -0.86 -0.72 -0.91c -0.06 -0.06 -0.06 -0.27 0 -0.33c 0.4 0.01 0.8 0.02 1.12 0.02c 0.32 0 0.71 -0.01 1.07 -0.02c 0.06 0.06 0.06 0.27 0 0.33c -0.61 0.04 -0.68 0.08 -0.68 0.91v 0.87h 2.14v -0.87c 0 -0.83 -0.07 -0.86 -0.68 -0.91c -0.06 -0.06 -0.06 -0.27 0 -0.33c 0.36 0.01 0.73 0.02 1.08 0.02c 0.3 0 0.72 -0.01 1.11 -0.02c 0.06 0.06 0.06 0.27 0 0.33c -0.61 0.04 -0.72 0.08 -0.72 0.91Z "/></symbol><symbol id="g2944E08BBD755E2996904E6E0A970414" overflow="visible"><path d="M 0 0m 3.03 3.53c 0.66 0.25 1.28 0.88 1.28 1.73c 0 0.43 -0.21 0.78 -0.62 1.05c -0.36 0.23 -0.77 0.35 -1.23 0.35c -0.45 0 -0.84 -0.12 -1.19 -0.35c -0.39 -0.26 -0.59 -0.6 -0.59 -1.03c 0 -0.33 0.22 -0.56 0.54 -0.56c 0.32 0 0.54 0.23 0.54 0.55c 0 0.33 -0.19 0.51 -0.57 0.53c 0.26 0.35 0.67 0.53 1.23 0.53c 0.6 0 0.9 -0.35 0.9 -1.06c 0 -0.42 -0.08 -0.77 -0.23 -1.06c -0.27 -0.48 -0.64 -0.57 -1.26 -0.57c -0.12 -0.02 -0.18 -0.07 -0.18 -0.16c 0 -0.15 0.07 -0.15 0.27 -0.15h 0.43c 0.75 0 1.13 -0.53 1.13 -1.6c 0 -0.85 -0.31 -1.59 -1.07 -1.59c -0.65 0 -1.13 0.22 -1.42 0.66c 0.35 -0.01 0.61 0.25 0.61 0.59c 0 0.34 -0.25 0.59 -0.59 0.59c -0.39 0 -0.59 -0.2 -0.59 -0.61c 0 -0.49 0.22 -0.88 0.66 -1.19c 0.39 -0.27 0.85 -0.4 1.36 -0.4c 0.57 0 1.06 0.19 1.49 0.56c 0.43 0.37 0.64 0.83 0.64 1.39c 0 0.94 -0.74 1.59 -1.54 1.8Z "/></symbol><symbol id="g847DCE2A3EE7D23E3D551BDE0EE8A683" overflow="visible"><path d="M 0 0m 2.607 7.326c -0.561 0 -1.034 -0.198 -1.441 -0.594c -0.407 -0.396 -0.616 -0.858 -0.616 -1.419c 0 -0.374 0.275 -0.649 0.616 -0.649c 0.33 0 0.605 0.286 0.605 0.616c 0 0.363 -0.264 0.616 -0.616 0.616c -0.033 0 -0.055 0 -0.077 -0.011c 0.209 0.539 0.693 1.012 1.386 1.012c 0.902 0 1.408 -0.781 1.408 -1.727c 0 -0.737 -0.374 -1.529 -1.122 -2.365l -2.068 -2.332c -0.143 -0.165 -0.132 -0.154 -0.132 -0.473h 4.081l 0.319 1.98h -0.363c -0.088 -0.561 -0.165 -0.88 -0.231 -0.979c -0.055 -0.055 -0.385 -0.077 -0.99 -0.077h -1.837l 1.067 1.045c 0.748 0.704 1.694 1.463 2.013 2.046c 0.22 0.385 0.33 0.77 0.33 1.155c 0 1.298 -1.012 2.156 -2.332 2.156Z "/></symbol><symbol id="gAB8B9E265B3CCA4072A334611102AFDC" overflow="visible"><path d="M 0 0m 4.37 4.29h -2.84c -0.4 0 -0.78 0.01 -1.08 0.02c -0.06 -0.06 -0.06 -0.27 0 -0.33c 0.55 -0.04 0.68 -0.09 0.68 -0.91v -1.85c 0 -0.82 -0.13 -0.87 -0.78 -0.91c -0.06 -0.06 -0.06 -0.27 0 -0.33c 0.3 0.01 0.78 0.02 1.18 0.02c 0.4 0 0.7 -0.01 1 -0.02c 0.06 0.06 0.06 0.27 0 0.33c -0.51 0.05 -0.61 0.09 -0.61 0.91v 2.17c 0 0.31 0.03 0.51 0.42 0.51h 1.21c 0.37 0 0.43 -0.11 0.43 -0.51v -2.17c 0 -0.82 -0.1 -0.87 -0.62 -0.91c -0.05 -0.06 -0.05 -0.27 0 -0.33c 0.25 0.01 0.62 0.02 1.02 0.02c 0.4 0 0.85 -0.01 1.13 -0.02c 0.05 0.06 0.05 0.27 0 0.33c -0.65 0.04 -0.74 0.09 -0.74 0.91v 1.85c 0 0.82 0.13 0.87 0.68 0.91c 0.06 0.06 0.06 0.27 0 0.33c -0.3 -0.01 -0.68 -0.02 -1.08 -0.02Z "/></symbol><symbol id="g58FE41588FF370B2D963AE7490CB53AD" overflow="visible"><path d="M 0 0m 4.18 1.22v 1.85c 0 0.82 0.13 0.87 0.68 0.91c 0.06 0.06 0.06 0.27 0 0.33c -0.3 -0.01 -0.68 -0.02 -1.08 -0.02h -1.89c -0.33 0 -0.72 0.01 -1.02 0.02c -0.06 -0.06 -0.06 -0.27 0 -0.33c 0.71 -0.05 0.81 -0.11 0.81 -1.19c 0 -1.05 -0.08 -1.6 -0.22 -2.01c -0.13 -0.36 -0.3 -0.49 -0.47 -0.49c -0.13 0 -0.17 0.08 -0.19 0.21c -0.03 0.19 -0.09 0.38 -0.37 0.38c -0.25 0 -0.39 -0.2 -0.39 -0.42c 0 -0.31 0.28 -0.58 0.74 -0.58c 0.51 0 0.79 0.26 1.02 0.8c 0.2 0.48 0.26 1.5 0.26 2.18c 0 0.78 0.03 1.04 0.43 1.04h 0.45c 0.38 0 0.45 -0.24 0.45 -0.58v -2.1c 0 -0.82 -0.1 -0.87 -0.62 -0.91c -0.05 -0.06 -0.05 -0.27 0 -0.33c 0.25 0.01 0.62 0.02 1.02 0.02c 0.4 0 0.85 -0.01 1.13 -0.02c 0.05 0.06 0.05 0.27 0 0.33c -0.65 0.04 -0.74 0.09 -0.74 0.91Z "/></symbol><symbol id="gA00006717397A74F11CDD511C8F2ED3A" overflow="visible"><path d="M 0 0m 1.86 3.07c 0 0.57 0.07 0.83 0.42 0.83h 0.22c 0.82 0 1.06 -0.57 1.2 -1.15c 0.11 -0.01 0.21 0 0.29 0.04c -0.04 0.53 -0.07 0.97 -0.13 1.5l -0.02 0.02c 0 0 -0.8 -0.02 -1.12 -0.02h -1.26c -0.43 0 -0.78 0.01 -1.11 0.02c -0.06 -0.06 -0.06 -0.27 0 -0.33c 0.61 -0.04 0.72 -0.08 0.72 -0.91v -1.85c 0 -0.83 -0.11 -0.86 -0.72 -0.91c -0.06 -0.06 -0.06 -0.27 0 -0.33c 0.33 0.01 0.68 0.02 1.12 0.02c 0.43 0 0.79 -0.01 1.11 -0.02c 0.06 0.06 0.06 0.27 0 0.33c -0.61 0.04 -0.72 0.08 -0.72 0.91Z "/></symbol><symbol id="gEFE4B6AA52BBE68EAC50879BB9FC5B99" overflow="visible"><path d="M 0 0m 1.911 1.281c 0 -0.8715 -0.1155 -0.924 -0.756 -0.9555c -0.063 -0.063 -0.063 -0.2835 0 -0.3465c 0.4095 0.0105 0.8295 0.021 1.176 0.021c 0.357 0 0.7665 -0.0105 1.1655 -0.021c 0.063 0.063 0.063 0.2835 0 0.3465c -0.6405 0.0315 -0.756 0.084 -0.756 0.9555v 2.835h 0.1785c 0.8505 0 1.0185 -0.294 1.197 -1.1445c 0.1365 0 0.273 0.042 0.273 0.042c -0.063 0.483 -0.105 0.945 -0.1155 1.554c -0.2415 -0.021 -1.029 -0.063 -1.554 -0.063h -0.7875c -0.525 0 -1.113 0.0315 -1.533 0.063c -0.0105 -0.609 -0.0525 -1.071 -0.126 -1.554c 0 0 0.147 -0.042 0.2835 -0.042c 0.1785 0.8505 0.336 1.1445 1.197 1.1445h 0.1575Z "/></symbol><symbol id="g2CCA8BF5638277170DC3145805989D03" overflow="visible"><path d="M 0 0m 0.4305 2.1525c 0 -1.071 0.714 -2.2575 2.205 -2.2575c 0.672 0 1.1865 0.2415 1.5435 0.588c 0.4725 0.462 0.6825 1.1235 0.6825 1.764c 0 1.092 -0.5985 2.3625 -2.205 2.3625c -0.693 0 -1.26 -0.2835 -1.6485 -0.735c -0.378 -0.4515 -0.5775 -1.0605 -0.5775 -1.722Z m 2.0685 2.0895c 0.903 0 1.4595 -0.819 1.4595 -2.331c 0 -1.323 -0.6825 -1.6485 -1.176 -1.6485c -1.092 0 -1.449 1.323 -1.449 2.1315c 0 0.9135 0.2205 1.848 1.1655 1.848Z "/></symbol><symbol id="g63CAA9DA1449BB21401EBA22A3288F1B" overflow="visible"><path d="M 0 0m 1.1445 0c 0.21 0.0105 0.3885 0.252 0.525 0.5355l 0.4515 0.945c 0.189 0.3885 0.483 0.672 1.197 0.714v -0.9135c 0 -0.8715 -0.126 -0.903 -0.6615 -0.9555c -0.063 -0.063 -0.063 -0.2835 0 -0.3465c 0.2415 0.0105 0.63 0.021 1.05 0.021c 0.4095 0 0.8085 -0.0105 1.0395 -0.021c 0.063 0.063 0.063 0.2835 0 0.3465c -0.5355 0.042 -0.6615 0.084 -0.6615 0.9555v 0.9135c 0.714 -0.042 1.008 -0.3255 1.197 -0.714l 0.4515 -0.945c 0.1365 -0.2835 0.315 -0.525 0.525 -0.5355c 0 0 0.777 -0.0105 0.987 -0.021c 0.063 0.063 0.063 0.2835 0 0.3465c -0.4095 0.021 -0.5145 0.105 -0.693 0.441l -0.4725 0.8925c -0.2625 0.4935 -0.609 0.7455 -1.2075 0.7455v 0.0315c 0.4095 0.1155 0.588 0.483 0.7455 0.903c 0.126 0.3255 0.252 0.525 0.4725 0.525c 0.0945 0 0.1785 -0.0315 0.2415 -0.0735c 0.063 -0.042 0.1785 -0.0735 0.315 -0.0735c 0.231 0 0.42 0.1995 0.42 0.4095c 0 0.231 -0.252 0.4725 -0.5985 0.4725c -0.609 0 -0.8925 -0.567 -1.092 -1.0605c -0.231 -0.5775 -0.546 -0.9765 -1.2915 -0.9765v 0.6615c 0 0.8715 0.126 0.903 0.6615 0.9555c 0.063 0.063 0.063 0.2835 0 0.3465c -0.252 -0.0105 -0.63 -0.021 -1.05 -0.021c -0.4095 0 -0.798 0.0105 -1.0395 0.021c -0.063 -0.063 -0.063 -0.2835 0 -0.3465c 0.5355 -0.042 0.6615 -0.084 0.6615 -0.9555v -0.6615c -0.7455 0 -1.0605 0.399 -1.2915 0.9765c -0.1995 0.4935 -0.483 1.0605 -1.092 1.0605c -0.3465 0 -0.5985 -0.2415 -0.5985 -0.4725c 0 -0.21 0.189 -0.4095 0.42 -0.4095c 0.1365 0 0.252 0.0315 0.315 0.0735c 0.063 0.042 0.147 0.0735 0.2415 0.0735c 0.2205 0 0.3465 -0.1995 0.4725 -0.525c 0.1575 -0.42 0.336 -0.7875 0.7455 -0.903v -0.0315c -0.5985 0 -0.945 -0.252 -1.2075 -0.7455l -0.4725 -0.8925c -0.1785 -0.336 -0.2835 -0.42 -0.693 -0.441c -0.063 -0.063 -0.063 -0.2835 0 -0.3465c 0.21 0.0105 0.987 0.021 0.987 0.021Z "/></symbol><symbol id="g6BE6E829C497D42358C95A1CE01E9C8D" overflow="visible"><path d="M 0 0m 4.053 0.9765c -0.3885 -0.399 -0.693 -0.567 -1.302 -0.567c -0.378 0 -0.819 0.2205 -1.1445 0.756c -0.21 0.3465 -0.336 0.8295 -0.336 1.4385l 2.793 -0.021c 0.126 0 0.1995 0.063 0.1995 0.1785c 0 0.882 -0.315 1.827 -1.7745 1.827c -0.9135 0 -2.1 -0.8715 -2.1 -2.4675c 0 -0.588 0.147 -1.155 0.4935 -1.554c 0.357 -0.42 0.8505 -0.672 1.6065 -0.672c 0.798 0 1.365 0.3675 1.785 0.9135c -0.0315 0.105 -0.0945 0.1575 -0.2205 0.168Z m -2.751 1.9845c 0.1995 1.1865 0.9345 1.281 1.1865 1.281c 0.399 0 0.8715 -0.2205 0.8715 -1.1025c 0 -0.0945 -0.042 -0.147 -0.1575 -0.147Z "/></symbol><symbol id="g3CD763AC845B0CB818F9BD746791AD3E" overflow="visible"><path d="M 0 0m 4.5885 4.5045h -2.982c -0.42 0 -0.819 0.0105 -1.134 0.021c -0.063 -0.063 -0.063 -0.2835 0 -0.3465c 0.5775 -0.042 0.714 -0.0945 0.714 -0.9555v -1.9425c 0 -0.861 -0.1365 -0.9135 -0.819 -0.9555c -0.063 -0.063 -0.063 -0.2835 0 -0.3465c 0.315 0.0105 0.819 0.021 1.239 0.021c 0.42 0 0.735 -0.0105 1.05 -0.021c 0.063 0.063 0.063 0.2835 0 0.3465c -0.5355 0.0525 -0.6405 0.0945 -0.6405 0.9555v 2.2785c 0 0.3255 0.0315 0.5355 0.441 0.5355h 1.2705c 0.3885 0 0.4515 -0.1155 0.4515 -0.5355v -2.2785c 0 -0.861 -0.105 -0.9135 -0.651 -0.9555c -0.0525 -0.063 -0.0525 -0.2835 0 -0.3465c 0.2625 0.0105 0.651 0.021 1.071 0.021c 0.42 0 0.8925 -0.0105 1.1865 -0.021c 0.0525 0.063 0.0525 0.2835 0 0.3465c -0.6825 0.042 -0.777 0.0945 -0.777 0.9555v 1.9425c 0 0.861 0.1365 0.9135 0.714 0.9555c 0.063 0.063 0.063 0.2835 0 0.3465c -0.315 -0.0105 -0.714 -0.021 -1.134 -0.021Z "/></symbol><symbol id="g78600E8C98627C719956C28D931C0FCD" overflow="visible"><path d="M 0 0m 4.053 0c 0 0 0.819 -0.0105 1.029 -0.021c 0.063 0.063 0.063 0.2835 0 0.3465c -0.4095 0.021 -0.4935 0.105 -0.672 0.441l -0.4725 0.8925c -0.2625 0.4935 -0.63 0.7455 -1.2285 0.7455v 0.0315c 0.4095 0.1155 0.588 0.483 0.7455 0.903c 0.126 0.3255 0.252 0.525 0.4725 0.525c 0.0945 0 0.1785 -0.0315 0.2415 -0.0735c 0.063 -0.042 0.1785 -0.0735 0.315 -0.0735c 0.231 0 0.42 0.1995 0.42 0.4095c 0 0.231 -0.252 0.4725 -0.5985 0.4725c -0.609 0 -0.8925 -0.567 -1.092 -1.0605c -0.231 -0.5775 -0.5145 -0.9765 -1.26 -0.9765v 0.6615c 0 0.8715 0.1155 0.903 0.651 0.9555c 0.063 0.063 0.063 0.2835 0 0.3465c -0.252 -0.0105 -0.651 -0.021 -1.071 -0.021c -0.4515 0 -0.819 0.0105 -1.1655 0.021c -0.063 -0.063 -0.063 -0.2835 0 -0.3465c 0.6405 -0.042 0.756 -0.084 0.756 -0.9555v -1.9425c 0 -0.8715 -0.1155 -0.903 -0.756 -0.9555c -0.063 -0.063 -0.063 -0.2835 0 -0.3465c 0.3465 0.0105 0.714 0.021 1.176 0.021c 0.4095 0 0.8295 -0.0105 1.0605 -0.021c 0.063 0.063 0.063 0.2835 0 0.3465c -0.5355 0.042 -0.651 0.084 -0.651 0.9555v 0.9135c 0.714 -0.042 0.903 -0.3255 1.092 -0.714l 0.4515 -0.945c 0.1365 -0.2835 0.3465 -0.525 0.5565 -0.5355Z "/></symbol><symbol id="g82CEFBD7794B65843D53AD20E5467AC8" overflow="visible"><path d="M 0 0m 0.5145 2.499h 6.552c 0.1365 0 0.273 0.21 0.273 0.336c 0 0.0945 -0.0315 0.1785 -0.147 0.1785h -6.552c -0.126 0 -0.273 -0.21 -0.273 -0.336c 0 -0.084 0.0315 -0.1785 0.147 -0.1785Z "/></symbol><symbol id="g9FC2A71BDDDA2D0D564137C940E24D2D" overflow="visible"><path d="M 0 0m 1.533 4.5045c -0.4515 0 -0.819 0.0105 -1.1655 0.021c -0.063 -0.063 -0.063 -0.2835 0 -0.3465c 0.6405 -0.042 0.756 -0.084 0.756 -0.9555v -1.9425c 0 -0.8715 -0.1155 -0.903 -0.756 -0.9555c -0.063 -0.063 -0.063 -0.2835 0 -0.3465c 0.3465 0.0105 0.714 0.021 1.176 0.021c 0.3885 0 0.735 -0.021 1.4385 -0.021c 0.903 0 1.5855 0.252 1.5855 1.2915c 0 0.588 -0.3675 0.9975 -1.008 1.113v 0.0315c 0.483 0.0945 0.8505 0.4305 0.8505 1.0605c 0 0.735 -0.4515 1.05 -1.722 1.05c -0.4305 0 -0.7035 -0.021 -1.155 -0.021Z m 0.42 -2.226h 0.798c 0.6405 0 0.9135 -0.42 0.9135 -1.05c 0 -0.7035 -0.399 -0.903 -0.966 -0.903c -0.546 0 -0.7455 0.0945 -0.7455 0.5775Z m 0 0.3045v 1.218c 0 0.315 0.2415 0.378 0.7455 0.378c 0.546 0 0.8715 -0.147 0.8715 -0.777c 0 -0.42 -0.273 -0.819 -0.924 -0.819Z "/></symbol><symbol id="g1B043F976F91609DD7E96A6B26794D5" overflow="visible"><path d="M 0 0m 1.9845 4.5045c -0.3465 0 -0.756 0.0105 -1.071 0.021c -0.063 -0.063 -0.063 -0.2835 0 -0.3465c 0.6405 -0.0525 0.8295 -0.0945 0.7875 -0.966c -0.042 -0.966 -0.21 -1.743 -0.3885 -2.478c -0.063 -0.2835 -0.3675 -0.378 -0.6615 -0.4095c -0.1575 -0.021 -0.3045 -0.084 -0.315 -0.273l -0.063 -1.3965c 0.0735 -0.0315 0.1575 -0.042 0.2835 -0.0105c 0.0945 0.3885 0.378 1.3545 1.323 1.3545h 1.8165c 0.9345 0 1.239 -0.945 1.3335 -1.365c 0.0945 -0.021 0.189 -0.021 0.294 0.021l -0.063 1.407c 0 0.147 -0.084 0.231 -0.2835 0.2625c -0.189 0.0315 -0.4515 0.105 -0.4515 0.4935v 2.4045c 0 0.861 0.1365 0.9135 0.714 0.9555c 0.063 0.063 0.063 0.2835 0 0.3465c -0.315 -0.0105 -0.714 -0.021 -1.134 -0.021Z m -0.294 -3.969c 0 0.1785 0.2835 0.8715 0.441 3.276c 0.0105 0.1575 0.084 0.294 0.3675 0.294h 0.7245c 0.42 0 0.4725 -0.294 0.4725 -0.651v -2.5305c 0 -0.3465 -0.021 -0.5145 -0.441 -0.5145h -1.3545c -0.1155 0 -0.21 0.0105 -0.21 0.126Z "/></symbol><symbol id="gACC72C516F07527D57123401F2817E7F" overflow="visible"><path d="M 0 0m 0.357 2.6985c 0 -1.9845 1.1445 -2.8035 2.163 -2.8035c 1.4385 0 2.268 1.071 2.268 2.394c 0 1.134 -0.63 2.3205 -2.1105 2.3205c -0.9975 0 -1.6065 -0.588 -1.8375 -1.092l -0.021 0.021c 0.042 0.546 0.21 1.218 0.3675 1.491c 0.336 0.5775 0.735 0.609 1.701 0.714c 0.945 0.105 1.617 0.4095 1.7115 1.5855c -0.0735 0.0315 -0.147 0.042 -0.231 0c -0.084 -0.504 -0.6405 -0.6405 -1.5225 -0.777c -0.8505 -0.1365 -1.5645 -0.4305 -2.0055 -1.26c -0.378 -0.714 -0.483 -1.596 -0.483 -2.5935Z m 0.903 -0.273c 0 0.588 0.21 1.8165 1.302 1.8165c 0.819 0 1.323 -0.945 1.323 -2.205c 0 -1.323 -0.609 -1.7745 -1.176 -1.7745c -0.7665 0 -1.449 0.9975 -1.449 2.163Z "/></symbol><symbol id="gC1379707D8F32FABA5511CD9F7E78B4B" overflow="visible"><path d="M 0 0m 4.389 1.281v 1.9425c 0 0.861 0.1365 0.9135 0.714 0.9555c 0.063 0.063 0.063 0.2835 0 0.3465c -0.315 -0.0105 -0.714 -0.021 -1.134 -0.021h -1.9845c -0.3465 0 -0.756 0.0105 -1.071 0.021c -0.063 -0.063 -0.063 -0.2835 0 -0.3465c 0.7455 -0.0525 0.8505 -0.1155 0.8505 -1.2495c 0 -1.1025 -0.084 -1.68 -0.231 -2.1105c -0.1365 -0.378 -0.315 -0.5145 -0.4935 -0.5145c -0.1365 0 -0.1785 0.084 -0.1995 0.2205c -0.0315 0.1995 -0.0945 0.399 -0.3885 0.399c -0.2625 0 -0.4095 -0.21 -0.4095 -0.441c 0 -0.3255 0.294 -0.609 0.777 -0.609c 0.5355 0 0.8295 0.273 1.071 0.84c 0.21 0.504 0.273 1.575 0.273 2.289c 0 0.819 0.0315 1.092 0.4515 1.092h 0.4725c 0.399 0 0.4725 -0.252 0.4725 -0.609v -2.205c 0 -0.861 -0.105 -0.9135 -0.651 -0.9555c -0.0525 -0.063 -0.0525 -0.2835 0 -0.3465c 0.2625 0.0105 0.651 0.021 1.071 0.021c 0.42 0 0.8925 -0.0105 1.1865 -0.021c 0.0525 0.063 0.0525 0.2835 0 0.3465c -0.6825 0.042 -0.777 0.0945 -0.777 0.9555Z "/></symbol><symbol id="g27DEC58C12F66BC18579BCAFE69C73E3" overflow="visible"><path d="M 0 0m 1.953 3.213c 0 0.882 0.1155 0.9135 0.756 0.966c 0.063 0.063 0.063 0.2835 0 0.3465c -0.357 -0.0105 -0.714 -0.021 -1.176 -0.021c -0.4515 0 -0.819 0.0105 -1.1655 0.021c -0.063 -0.063 -0.063 -0.2835 0 -0.3465c 0.6405 -0.042 0.756 -0.084 0.756 -0.9555v -1.9425c 0 -0.8715 -0.1155 -0.903 -0.756 -0.9555c -0.063 -0.063 -0.063 -0.2835 0 -0.3465c 0.3465 0.0105 0.714 0.021 1.176 0.021c 0.4305 0 0.6615 -0.021 1.092 -0.021c 1.2915 0 1.995 0.3255 1.995 1.449c 0 0.987 -0.861 1.2705 -1.9215 1.2705h -0.756Z m 1.7745 -1.89c 0 -0.861 -0.525 -0.9975 -1.0815 -0.9975c -0.5145 0 -0.693 0.105 -0.693 0.4725v 1.554h 0.7455c 0.7875 0 1.029 -0.4725 1.029 -1.029Z "/></symbol><symbol id="g998C4308CCF2FB22F56686A9BD462939" overflow="visible"><path d="M 0 0m 7.833 1.281v 1.9425c 0 0.861 0.1365 0.9135 0.714 0.9555c 0.063 0.063 0.063 0.2835 0 0.3465c -0.315 -0.0105 -0.714 -0.021 -1.134 -0.021c -0.42 0 -0.735 0.0105 -1.05 0.021c -0.063 -0.063 -0.063 -0.2835 0 -0.3465c 0.5355 -0.0525 0.6405 -0.0945 0.6405 -0.9555v -2.2785c 0 -0.3255 -0.0315 -0.5355 -0.441 -0.5355h -1.239c -0.315 0 -0.4515 0.0945 -0.4515 0.5355v 2.2785c 0.0105 0.861 0.084 0.9135 0.651 0.9555c 0.0525 0.063 0.0525 0.2835 0 0.3465c -0.2625 -0.0105 -0.651 -0.021 -1.071 -0.021c -0.42 0 -0.7665 0.0105 -1.029 0.021c -0.0525 -0.063 -0.0525 -0.2835 0 -0.3465c 0.525 -0.042 0.63 -0.0945 0.6195 -0.9555v -2.289c 0 -0.3885 -0.0525 -0.525 -0.441 -0.525h -1.197c -0.3885 0 -0.4515 0.1155 -0.4515 0.5355v 2.2785c 0 0.861 0.105 0.9135 0.651 0.9555c 0.0525 0.063 0.0525 0.2835 0 0.3465c -0.2625 -0.0105 -0.651 -0.021 -1.071 -0.021c -0.42 0 -0.7875 0.0105 -1.0815 0.021c -0.0525 -0.063 -0.0525 -0.2835 0 -0.3465c 0.5775 -0.042 0.672 -0.0945 0.672 -0.9555v -1.9425c 0 -0.861 -0.1365 -0.9135 -0.714 -0.9555c -0.063 -0.063 -0.063 -0.2835 0 -0.3465c 0.315 0.0105 0.714 0.021 1.134 0.021h 5.8695c 0.42 0 0.819 -0.0105 1.134 -0.021c 0.063 0.063 0.063 0.2835 0 0.3465c -0.5775 0.042 -0.714 0.0945 -0.714 0.9555Z "/></symbol><symbol id="g6819E97633622D0CAB4957D7F0878631" overflow="visible"><path d="M 0 0m 7.0245 0c 0.882 0 1.1865 -0.84 1.323 -1.3545c 0.0945 -0.021 0.189 -0.021 0.273 0.0105l -0.063 1.3965c -0.0105 0.189 -0.168 0.2415 -0.315 0.273c -0.2415 0.0525 -0.4095 0.1155 -0.4095 0.9555v 1.9425c 0 0.861 0.1365 0.9135 0.714 0.9555c 0.063 0.063 0.063 0.2835 0 0.3465c -0.315 -0.0105 -0.714 -0.021 -1.134 -0.021c -0.42 0 -0.735 0.0105 -1.05 0.021c -0.063 -0.063 -0.063 -0.2835 0 -0.3465c 0.5355 -0.0525 0.6405 -0.0945 0.6405 -0.9555v -2.2785c 0 -0.3255 -0.0315 -0.5355 -0.441 -0.5355h -1.239c -0.315 0 -0.4515 0.0945 -0.4515 0.5355v 2.2785c 0.0105 0.861 0.084 0.9135 0.651 0.9555c 0.0525 0.063 0.0525 0.2835 0 0.3465c -0.2625 -0.0105 -0.651 -0.021 -1.071 -0.021c -0.42 0 -0.7665 0.0105 -1.029 0.021c -0.0525 -0.063 -0.0525 -0.2835 0 -0.3465c 0.525 -0.042 0.63 -0.0945 0.6195 -0.9555v -2.289c 0 -0.3885 -0.0525 -0.525 -0.441 -0.525h -1.197c -0.3885 0 -0.4515 0.1155 -0.4515 0.5355v 2.2785c 0 0.861 0.105 0.9135 0.651 0.9555c 0.0525 0.063 0.0525 0.2835 0 0.3465c -0.2625 -0.0105 -0.651 -0.021 -1.071 -0.021c -0.42 0 -0.7875 0.0105 -1.0815 0.021c -0.0525 -0.063 -0.0525 -0.2835 0 -0.3465c 0.5775 -0.042 0.672 -0.0945 0.672 -0.9555v -1.9425c 0 -0.861 -0.1365 -0.9135 -0.714 -0.9555c -0.063 -0.063 -0.063 -0.2835 0 -0.3465c 0.315 0.0105 0.714 0.021 1.134 0.021Z "/></symbol><symbol id="gB9CB8C21641BB9D6945EBC7ED76275C1" overflow="visible"><path d="M 0 0m 3.0765 0.504c 0.063 -0.3255 0.1785 -0.609 0.7035 -0.609c 0.399 0 0.777 0.1785 0.9975 0.3885c -0.021 0.126 -0.063 0.2205 -0.1785 0.2835c -0.0735 -0.063 -0.252 -0.168 -0.3885 -0.168c -0.3045 0 -0.315 0.4095 -0.315 0.8925v 1.5435c 0 1.491 -0.819 1.7745 -1.5855 1.7745c -0.861 0 -1.7325 -0.567 -1.7325 -1.1655c 0 -0.252 0.126 -0.378 0.3675 -0.378c 0.3045 0 0.4935 0.2205 0.4935 0.357c 0 0.0735 -0.0105 0.147 -0.0315 0.189c -0.0105 0.0315 -0.021 0.0945 -0.021 0.21c 0 0.3255 0.441 0.441 0.84 0.441c 0.357 0 0.8505 -0.1785 0.8505 -1.365c 0 -0.0735 -0.0315 -0.1155 -0.063 -0.126l -0.903 -0.2205c -1.008 -0.252 -1.7325 -0.8085 -1.7325 -1.5225c 0 -0.861 0.588 -1.134 1.323 -1.134c 0.3675 0 0.6825 0.084 1.1445 0.441l 0.21 0.168Z m 0 1.9425v -1.386c 0 -0.1365 -0.063 -0.21 -0.147 -0.273c -0.273 -0.2205 -0.63 -0.462 -0.924 -0.462c -0.525 0 -0.756 0.42 -0.756 0.7455c 0 0.4725 0.2205 0.9555 0.9975 1.155Z "/></symbol><symbol id="g568D5D3ED6A40ED2A5E686080CDC7CBF" overflow="visible"><path d="M 0 0m 2.079 0.6615c -0.0315 0 -0.0735 0.021 -0.0735 0.126v 2.394c 0 0.8715 0.2205 0.966 0.756 0.9975c 0.063 0.063 0.063 0.2835 0 0.3465c -0.2415 -0.0105 -0.84 -0.021 -1.2285 -0.021c -0.3465 0 -0.7665 0.0105 -1.1655 0.021c -0.063 -0.063 -0.063 -0.2835 0 -0.3465c 0.6405 -0.0315 0.8085 -0.126 0.8085 -0.9975v -1.8585c 0 -0.8715 -0.168 -0.966 -0.8085 -0.9975c -0.063 -0.063 -0.063 -0.2835 0 -0.3465c 0.4095 0.0105 0.8295 0.021 1.1655 0.021c 0.2415 0 0.525 -0.0105 0.6405 -0.021c 0.0525 0.147 0.147 0.357 0.2625 0.567l 1.638 3.2865c 0.0315 0 0.0735 -0.021 0.0735 -0.126v -2.3835c 0 -0.8715 -0.2205 -0.966 -0.756 -0.9975c -0.063 -0.063 -0.063 -0.2835 0 -0.3465c 0.2415 0.0105 0.8085 0.021 1.2285 0.021c 0.3255 0 0.756 -0.0105 1.1655 -0.021c 0.063 0.063 0.063 0.2835 0 0.3465c -0.6405 0.0315 -0.8085 0.126 -0.8085 0.9975v 1.8585c 0 0.8715 0.168 0.966 0.8085 0.9975c 0.063 0.063 0.063 0.2835 0 0.3465c -0.42 -0.0105 -0.84 -0.021 -1.1655 -0.021c -0.231 0 -0.525 0.0105 -0.63 0.021c -0.084 -0.189 -0.1785 -0.4095 -0.273 -0.588Z "/></symbol><symbol id="gFAE613216E3C0135039ECF2D4F80DC78" overflow="visible"><path d="M 0 0m 9.786 2.457c 0.0735 0.0315 0.1155 0.0945 0.1155 0.168c 0 0.0735 -0.042 0.1365 -0.1155 0.168c -0.504 0.168 -0.9765 0.525 -1.4175 1.071c -0.294 0.3675 -0.4935 0.798 -0.588 1.2915c -0.0315 0.1365 -0.1155 0.1995 -0.252 0.1995c -0.168 0 -0.252 -0.084 -0.252 -0.2625l 0.0105 -0.021v -0.0105c 0.1785 -0.9135 0.6405 -1.638 1.407 -2.184h -7.833c -0.168 0 -0.252 -0.084 -0.252 -0.252c 0 -0.168 0.084 -0.252 0.252 -0.252h 7.833c -0.7665 -0.546 -1.2285 -1.2705 -1.407 -2.184v -0.0105l -0.0105 -0.021c 0 -0.1785 0.084 -0.2625 0.252 -0.2625c 0.1365 0 0.2205 0.063 0.252 0.1995c 0.0945 0.4935 0.294 0.924 0.588 1.2915c 0.441 0.546 0.9135 0.903 1.4175 1.071Z "/></symbol><symbol id="g7DB29D3496F71FB271523E017004D04" overflow="visible"><path d="M 0 0m 1.2285 3.213l -0.063 -1.953c -0.0315 -0.882 -0.189 -0.903 -0.798 -0.9345c -0.063 -0.063 -0.063 -0.2835 0 -0.3465c 0.21 0.0105 0.735 0.021 0.903 0.021c 0.21 0 0.7035 -0.0105 0.9135 -0.021c 0.063 0.063 0.063 0.2835 0 0.3465c -0.5985 0.042 -0.6405 0.147 -0.6195 0.9345l 0.0735 2.5725c 0 0.0945 0.042 0.0945 0.084 0l 1.5225 -3.717c 0.042 -0.0315 0.084 -0.0315 0.1155 0l 1.722 3.7065c 0.0525 0.1155 0.105 0.126 0.105 0l -0.0105 -2.541c 0 -0.8715 -0.0735 -0.903 -0.714 -0.9555c -0.063 -0.063 -0.063 -0.2835 0 -0.3465c 0.378 0.0105 0.7665 0.021 1.134 0.021c 0.315 0 0.7665 -0.0105 1.176 -0.021c 0.063 0.063 0.063 0.2835 0 0.3465c -0.6405 0.042 -0.756 0.084 -0.756 0.9555l -0.021 1.9425c -0.0105 0.8715 0.1155 0.903 0.756 0.9555c 0.063 0.063 0.063 0.2835 0 0.3465c -0.3675 -0.021 -1.386 -0.021 -1.7325 -0.021l -1.3965 -3.003l -0.0525 -0.105l -0.042 0.105l -1.2285 3.003c -0.3465 0 -1.4595 0 -1.827 0.021c -0.063 -0.063 -0.063 -0.2835 0 -0.3465c 0.6405 -0.0525 0.7875 -0.0945 0.756 -0.966Z "/></symbol><symbol id="g71D81E84C847076CE887D3A5D7C0718B" overflow="visible"><path d="M 0 0m 5.0295 3.2235c 0 0.8715 0.1155 0.903 0.756 0.9555c 0.063 0.063 0.063 0.2835 0 0.3465c -0.3675 -0.021 -0.8295 -0.021 -1.176 -0.021c -0.294 0 -0.714 0.0105 -1.1235 0.021c -0.063 -0.063 -0.063 -0.2835 0 -0.3465c 0.6405 -0.042 0.714 -0.084 0.714 -0.9555v -0.6825h -2.247v 0.6825c 0 0.8715 0.0735 0.903 0.714 0.9555c 0.063 0.063 0.063 0.2835 0 0.3465c -0.399 -0.0105 -0.798 -0.021 -1.134 -0.021c -0.315 0 -0.7455 0.0105 -1.1655 0.021c -0.063 -0.063 -0.063 -0.2835 0 -0.3465c 0.6405 -0.042 0.756 -0.084 0.756 -0.9555v -1.9425c 0 -0.8715 -0.1155 -0.903 -0.756 -0.9555c -0.063 -0.063 -0.063 -0.2835 0 -0.3465c 0.42 0.0105 0.84 0.021 1.176 0.021c 0.336 0 0.7455 -0.0105 1.1235 -0.021c 0.063 0.063 0.063 0.2835 0 0.3465c -0.6405 0.042 -0.714 0.084 -0.714 0.9555v 0.9135h 2.247v -0.9135c 0 -0.8715 -0.0735 -0.903 -0.714 -0.9555c -0.063 -0.063 -0.063 -0.2835 0 -0.3465c 0.378 0.0105 0.7665 0.021 1.134 0.021c 0.315 0 0.756 -0.0105 1.1655 -0.021c 0.063 0.063 0.063 0.2835 0 0.3465c -0.6405 0.042 -0.756 0.084 -0.756 0.9555Z "/></symbol><symbol id="gEEE1F44BC4E494A64DA9023FB4CE224F" overflow="visible"><path d="M 0 0m 1.463 1.727c 0 0.264 0.033 0.484 0.088 0.66c 0 0.11 -0.055 0.165 -0.176 0.165c -0.055 0 -0.099 -0.022 -0.121 -0.044c -0.055 -0.055 -0.682 -2.42 -0.682 -2.596c 0 -0.099 0.055 -0.154 0.165 -0.154c 0.055 0 0.132 0.055 0.231 0.176l 0.495 0.583c 0.385 -0.506 1.001 -0.759 1.837 -0.759c 0.726 0 1.364 0.297 1.936 0.88c 0.572 0.583 0.858 1.232 0.858 1.958c 0 0.517 -0.176 0.957 -0.539 1.309c -0.165 0.143 -0.385 0.264 -0.66 0.363c -0.253 0.055 -0.495 0.121 -0.737 0.187l -0.726 0.198c -0.363 0.099 -0.638 0.506 -0.638 0.946c 0 0.473 0.187 0.88 0.572 1.232c 0.385 0.352 0.814 0.528 1.287 0.528c 1.012 0 1.518 -0.55 1.518 -1.639c 0 -0.198 -0.044 -0.418 -0.044 -0.605v -0.033c 0.033 -0.077 0.088 -0.121 0.176 -0.121c 0.099 0 0.165 0.088 0.209 0.253l 0.583 2.387c 0 0.099 -0.055 0.154 -0.165 0.154c -0.055 0 -0.132 -0.055 -0.231 -0.176l -0.473 -0.572c -0.308 0.495 -0.825 0.748 -1.562 0.748c -0.693 0 -1.32 -0.264 -1.87 -0.781c -0.572 -0.528 -0.858 -1.133 -0.858 -1.826c 0 -0.792 0.517 -1.419 1.166 -1.595l 1.155 -0.297c 0.594 -0.165 0.968 -0.374 0.968 -1.111c 0 -0.506 -0.198 -0.957 -0.583 -1.353c -0.385 -0.396 -0.825 -0.605 -1.32 -0.605c -1.078 0 -1.859 0.473 -1.859 1.54Z "/></symbol><symbol id="g91B0E4A0B25AC868E1DDA25ACEDA479B" overflow="visible"><path d="M 0 0m 5.082 3.047c -0.297 0.44 -0.605 0.814 -0.902 1.122c -0.44 0.462 -0.979 0.693 -1.628 0.693c -0.605 0 -1.1 -0.275 -1.463 -0.825c -0.319 -0.473 -0.473 -1.034 -0.473 -1.672c 0 -0.638 0.154 -1.199 0.462 -1.672c 0.363 -0.539 0.847 -0.814 1.452 -0.814c 1.188 0 2.002 0.913 2.453 1.815c 0.297 -0.44 0.594 -0.814 0.891 -1.122c 0.451 -0.462 0.99 -0.693 1.628 -0.693c 0.143 0 0.297 0.022 0.44 0.055v 0.517c -0.165 -0.033 -0.264 -0.044 -0.297 -0.044c -0.396 0 -0.759 0.176 -1.089 0.528c -0.209 0.231 -0.451 0.561 -0.726 0.968l -0.462 0.682c 0.176 0.396 0.44 0.792 0.781 1.199c 0.396 0.451 0.88 0.682 1.452 0.682c 0.11 0 0.22 -0.022 0.341 -0.055c 0 0.242 -0.022 0.385 -0.055 0.418c -0.077 0.022 -0.198 0.033 -0.363 0.033c -1.177 0 -2.002 -0.913 -2.442 -1.815Z m -0.847 -0.209l 0.451 -0.682c -0.176 -0.396 -0.44 -0.792 -0.781 -1.199c -0.396 -0.451 -0.88 -0.682 -1.452 -0.682c -0.495 0 -0.88 0.231 -1.155 0.704c -0.231 0.396 -0.352 0.858 -0.352 1.386c 0 0.495 0.121 0.924 0.352 1.309c 0.275 0.44 0.649 0.66 1.111 0.66c 0.407 0 0.77 -0.176 1.089 -0.528c 0.209 -0.231 0.462 -0.561 0.737 -0.968Z "/></symbol><symbol id="gBFCC2410A697C41E2DD3187C83DA8F3" overflow="visible"><path d="M 0 0m 2.3331 5.1128c -0.3311 -0.3234 -0.8239 -0.4851 -1.4938 -0.4851v -0.3388c 0.4543 0 0.8162 0.0693 1.0934 0.2002v -3.8346c 0 -0.1001 -0.0077 -0.1617 -0.0308 -0.1925c -0.0385 -0.0847 -0.2695 -0.1309 -0.693 -0.1309h -0.3157v -0.3311l 1.3706 0.0308l 1.3783 -0.0308v 0.3311h -0.3157c -0.4235 0 -0.6545 0.0462 -0.7007 0.1309c -0.0154 0.0308 -0.0231 0.0924 -0.0231 0.1925v 4.2119c 0 0.2079 -0.0308 0.2464 -0.2695 0.2464Z "/></symbol><symbol id="gB63947F6D897BD1EA09CE63D8362E591" overflow="visible"><path d="M 0 0m 2.772 1.001c 0 0.5852 -0.4004 0.9548 -1.1935 1.1088c -0.3619 0.0693 -0.5929 0.154 -0.7161 0.2387c -0.1232 0.0847 -0.1848 0.2079 -0.1848 0.3542c 0 0.3619 0.2695 0.539 0.8085 0.539c 0.5236 0 0.8085 -0.2926 0.847 -0.8855c 0.0077 -0.0616 0.0462 -0.0924 0.1232 -0.0924c 0.0847 0 0.1309 0.0693 0.1309 0.2079v 0.7623c 0 0.1463 -0.0385 0.2156 -0.1155 0.2156c -0.0847 0 -0.2002 -0.1386 -0.2772 -0.2002c -0.1925 0.1309 -0.4312 0.2002 -0.7084 0.2002c -0.6853 0 -1.232 -0.308 -1.232 -0.9625c 0 -0.2618 0.1078 -0.4851 0.3311 -0.6622c 0.2695 -0.2233 0.5236 -0.2695 1.0087 -0.3542c 0.5005 -0.1001 0.7546 -0.3234 0.7546 -0.6699c 0 -0.4389 -0.2695 -0.6622 -0.8162 -0.6622c -0.5313 0 -0.8701 0.3542 -1.0164 1.0549c -0.0231 0.1001 -0.0616 0.154 -0.1309 0.154c -0.0847 0 -0.1309 -0.077 -0.1309 -0.2233v -0.9933c 0 -0.1463 0.0385 -0.2156 0.1155 -0.2156c 0.0231 0 0.0616 0.0231 0.1232 0.077c 0.1386 0.1232 0.077 0.1001 0.2156 0.2387c 0.2233 -0.2079 0.5005 -0.3157 0.8239 -0.3157c 0.7315 0 1.2397 0.3773 1.2397 1.0857Z "/></symbol><symbol id="g84D70C32A1AE23E79C707F10A0238EE8" overflow="visible"><path d="M 0 0m 1.4938 4.6277c 0 0.231 -0.1925 0.4312 -0.4235 0.4312c -0.231 0 -0.4312 -0.2002 -0.4312 -0.4312c 0 -0.231 0.1925 -0.4389 0.4235 -0.4389c 0.2387 0 0.4312 0.2002 0.4312 0.4389Z m -0.3927 -4.6046l 0.8008 -0.0231v 0.3003c -0.2541 0 -0.4081 0.0154 -0.4543 0.0462c -0.0462 0.0308 -0.0616 0.1155 -0.0616 0.2541v 2.8259l -1.1011 -0.0924v -0.2926c 0.2541 0 0.4158 -0.0231 0.4697 -0.0616c 0.0539 -0.0385 0.077 -0.1463 0.077 -0.3234v -2.0482c 0 -0.1463 -0.0231 -0.2387 -0.077 -0.2695c -0.0539 -0.0308 -0.2233 -0.0385 -0.5005 -0.0385v -0.3003Z "/></symbol><symbol id="g64A450817DED720072FB6354A904F737" overflow="visible"><path d="M 0 0m 2.4178 3.1801c 0.3465 0 0.5236 -0.2695 0.5236 -0.8162v -1.7556c 0 -0.1463 -0.0231 -0.2387 -0.077 -0.2695c -0.0539 -0.0308 -0.2233 -0.0462 -0.5082 -0.0462v -0.2926l 0.8855 0.0231l 0.8778 -0.0231v 0.2926c -0.2464 0 -0.4081 0.0077 -0.4851 0.0308c -0.077 0.0231 -0.1078 0.077 -0.1078 0.1694v 1.4399c 0 0.3619 -0.0077 0.616 -0.0308 0.7623c -0.077 0.4697 -0.4235 0.7084 -1.0318 0.7084c -0.4851 0 -0.847 -0.231 -1.0857 -0.693v 0.693l -1.1319 -0.0847v -0.2926c 0.2772 0 0.4466 -0.0231 0.5082 -0.0693c 0.0616 -0.0462 0.0847 -0.1463 0.0847 -0.3234v -2.0251c 0 -0.1463 -0.0308 -0.2387 -0.0847 -0.2695c -0.0539 -0.0308 -0.2233 -0.0462 -0.5082 -0.0462v -0.2926l 0.8855 0.0231l 0.8778 -0.0231v 0.2926c -0.2849 0 -0.4466 0.0154 -0.5005 0.0462c -0.0539 0.0308 -0.0847 0.1232 -0.0847 0.2695v 1.386c 0 0.6237 0.3927 1.1858 0.9933 1.1858Z "/></symbol><symbol id="gF6EF1496444800FD33FBAD9763F76913" overflow="visible"><path d="M 0 0m 1.9019 -0.077c 0.6006 0 1.1781 0.2079 1.7402 0.6237c 0.1463 -0.4158 0.4081 -0.6237 0.8008 -0.6237c 0.308 0 0.7469 0.2695 0.7469 0.5621c 0 0.077 -0.0539 0.1155 -0.1617 0.1155c -0.0847 0 -0.1309 -0.0308 -0.154 -0.0924c -0.077 -0.2079 -0.2156 -0.3157 -0.4081 -0.3157c -0.0385 0 -0.0693 0.0077 -0.0924 0.0231c -0.0847 0.0693 -0.1309 0.3542 -0.1463 0.8701c 0.2079 0.2156 0.385 0.4697 0.5467 0.7623c 0.2849 0.5159 0.4312 0.8624 0.4312 1.0549c 0 0.0847 -0.0539 0.1309 -0.1617 0.1309c -0.1155 -0.0154 -0.1617 -0.0462 -0.1848 -0.2156c -0.1232 -0.4543 -0.3388 -0.8778 -0.6545 -1.2859v 0.1155c -0.0154 0.2695 -0.0231 0.4312 -0.0308 0.4928c -0.1155 0.7161 -0.6622 1.2551 -1.4784 1.2551c -0.5621 0 -1.0626 -0.2156 -1.5246 -0.6468c -0.462 -0.4312 -0.693 -0.924 -0.693 -1.4784c 0 -0.7931 0.616 -1.3475 1.4245 -1.3475Z m -0.7315 1.0857c 0 0.5313 0.2541 1.232 0.4928 1.5477c 0.2926 0.3773 0.6314 0.5698 1.0241 0.5698c 0.4543 0 0.7315 -0.3465 0.8162 -1.0318c 0.0385 -0.5467 0.0616 -0.9625 0.0693 -1.2397c -0.5467 -0.4389 -1.0934 -0.6622 -1.6478 -0.6622c -0.4928 0 -0.7546 0.3234 -0.7546 0.8162Z "/></symbol></defs></svg>