<svg viewBox="0 0 289.419167026 289.283464773" width="289.419167026pt" height="289.283464773pt" xmlns="http://www.w3.org/2000/svg" xmlns:xlink="http://www.w3.org/1999/xlink" xmlns:h5="http://www.w3.org/1999/xhtml"><path fill="#ffffff" fill-rule="nonzero" d="M 0 0v 289.283464773h 289.419167026v -289.283464773Z "/><g transform="translate(8 8)"><path fill="none" stroke="#7c7f6a" stroke-width="1.1" stroke-linecap="butt" stroke-linejoin="miter" stroke-miterlimit="4" transform="translate(181.444150978 44.854425733)" d="M 0 0c 19.058490791 9.295447048 34.712031446 24.278102538 44.835193155 42.822537662"/><path fill="#7c7f6a" fill-rule="nonzero" stroke="#7c7f6a" stroke-width="1.1" stroke-linecap="butt" stroke-linejoin="miter" stroke-miterlimit="4" transform="translate(225.25437597 87.136359318)" d="M 0 0m 2.461196929 3.308473501l -2.461196929 -2.243292963l 2.081912424 -1.065180538l 0.379284505 3.308473501Z "/><path fill="none" stroke="#7c7f6a" stroke-width="1.1" stroke-linecap="butt" stroke-linejoin="miter" stroke-miterlimit="4" transform="translate(185.606501379 181.308448725)" d="M 0 0m 42.822537662 0c -9.295447048 19.058490791 -24.278102538 34.712031446 -42.822537662 44.835193155"/><path fill="#7c7f6a" fill-rule="nonzero" stroke="#7c7f6a" stroke-width="1.1" stroke-linecap="butt" stroke-linejoin="miter" stroke-miterlimit="4" transform="translate(182.838631954 225.118673717)" d="M 0 0m 0 2.461196929l 2.243292963 -2.461196929l 1.065180538 2.081912424l -3.308473501 0.379284505Z "/><path fill="none" stroke="#7c7f6a" stroke-width="1.1" stroke-linecap="butt" stroke-linejoin="miter" stroke-miterlimit="4" transform="translate(47.139822893 185.470799126)" d="M 0 0m 44.835193155 42.822537662c -19.058490791 -9.295447048 -34.712031446 -24.278102538 -44.835193155 -42.822537662"/><path fill="#7c7f6a" fill-rule="nonzero" stroke="#7c7f6a" stroke-width="1.1" stroke-linecap="butt" stroke-linejoin="miter" stroke-miterlimit="4" transform="translate(45.703594127 182.702929701)" d="M 0 0l 2.461196929 2.243292963l -2.081912424 1.065180538l -0.379284505 -3.308473501Z "/><path fill="none" stroke="#7c7f6a" stroke-width="1.1" stroke-linecap="butt" stroke-linejoin="miter" stroke-miterlimit="4" transform="translate(44.990127986 47.00412064)" d="M 0 0m 0 44.835193155c 9.295447048 -19.058490791 24.278102538 -34.712031446 42.822537662 -44.835193155"/><path fill="#7c7f6a" fill-rule="nonzero" stroke="#7c7f6a" stroke-width="1.1" stroke-linecap="butt" stroke-linejoin="miter" stroke-miterlimit="4" transform="translate(87.272061571 45.567891874)" d="M 0 0m 3.308473501 0l -2.243292963 2.461196929l -1.065180538 -2.081912424l 3.308473501 -0.379284505Z "/><path fill="#dcd9d3" fill-rule="nonzero" stroke="#1a1a18" stroke-width="0.6" stroke-linecap="butt" stroke-linejoin="miter" stroke-miterlimit="4" transform="translate(102.182946347)" d="M 0 0m 34.526637166 69.053274331c -19.051245962 0 -34.526637166 -15.475391204 -34.526637166 -34.526637166c 0 -19.051245962 15.475391204 -34.526637166 34.526637166 -34.526637166c 19.051245962 0 34.526637166 15.475391204 34.526637166 34.526637166c 0 19.051245962 -15.475391204 34.526637166 -34.526637166 34.526637166Z "/><g transform="translate(103.363126789 25.576637055)"><g transform="translate(5 5)"><g transform="matrix(1 0 0 -1 1.376456693 6.58)"><use xlink:href="#gD51468542432F864548926048E523B26" x="0" y="0" fill="#1a1a18" fill-rule="nonzero"/><use xlink:href="#g7D7A5D08C55ACC07707850317A5B7900" x="5.86" y="0" fill="#1a1a18" fill-rule="nonzero"/><use xlink:href="#gEE6BFED97EAD66B608F348D718695C96" x="10.43" y="0" fill="#1a1a18" fill-rule="nonzero"/><use xlink:href="#g58FE41588FF370B2D963AE7490CB53AD" x="15.32" y="0" fill="#1a1a18" fill-rule="nonzero"/><use xlink:href="#g7FD0FA641668F7DFCB9D7AAA2026531B" x="20.59" y="0" fill="#1a1a18" fill-rule="nonzero"/><use xlink:href="#g829D75AC8F1C9E46EE8828572BC54649" x="27.9" y="0" fill="#1a1a18" fill-rule="nonzero"/><use xlink:href="#g8C4BCE4FF39E54C5E232A1A0A3B7612A" x="33.28" y="0" fill="#1a1a18" fill-rule="nonzero"/><use xlink:href="#gD51468542432F864548926048E523B26" x="37.75" y="0" fill="#1a1a18" fill-rule="nonzero"/><use xlink:href="#g3730A52707D5D005176FA819A7950DF6" x="43.61" y="0" fill="#1a1a18" fill-rule="nonzero"/><use xlink:href="#g8C4BCE4FF39E54C5E232A1A0A3B7612A" x="49.47" y="0" fill="#1a1a18" fill-rule="nonzero"/></g></g></g><path fill="#dcd9d3" fill-rule="nonzero" stroke="#1a1a18" stroke-width="0.6" stroke-linecap="butt" stroke-linejoin="miter" stroke-miterlimit="4" transform="translate(204.094488189 101.911541842)" d="M 0 0m 34.662339419 69.324678837c -19.126124294 0 -34.662339419 -15.536215125 -34.662339419 -34.662339419c 0 -19.126124294 15.536215125 -34.662339419 34.662339419 -34.662339419c 19.126124294 0 34.662339419 15.536215125 34.662339419 34.662339419c 0 19.126124294 -15.536215125 34.662339419 -34.662339419 34.662339419Z "/><g transform="translate(205.410370883 127.113881197)"><g transform="translate(5 5)"><g transform="matrix(1 0 0 -1 9.051456693 6.58)"><use xlink:href="#gAB8B9E265B3CCA4072A334611102AFDC" x="0" y="0" fill="#1a1a18" fill-rule="nonzero"/><use xlink:href="#g8F03A4AE8D3B195D4882A1755C55580A" x="5.86" y="0" fill="#1a1a18" fill-rule="nonzero"/><use xlink:href="#g3730A52707D5D005176FA819A7950DF6" x="11.05" y="0" fill="#1a1a18" fill-rule="nonzero"/><use xlink:href="#gB6AEBBB4DAC5700D1CDF7DC4FBA7EDB2" x="16.91" y="0" fill="#1a1a18" fill-rule="nonzero"/><use xlink:href="#g3730A52707D5D005176FA819A7950DF6" x="22.3" y="0" fill="#1a1a18" fill-rule="nonzero"/><use xlink:href="#gD51468542432F864548926048E523B26" x="28.16" y="0" fill="#1a1a18" fill-rule="nonzero"/><use xlink:href="#g7D7A5D08C55ACC07707850317A5B7900" x="34.02" y="0" fill="#1a1a18" fill-rule="nonzero"/></g></g></g><path fill="#dcd9d3" fill-rule="nonzero" stroke="#1a1a18" stroke-width="0.6" stroke-linecap="butt" stroke-linejoin="miter" stroke-miterlimit="4" transform="translate(102.047244094 203.958785936)" d="M 0 0m 34.662339419 69.324678837c -19.126124294 0 -34.662339419 -15.536215125 -34.662339419 -34.662339419c 0 -19.126124294 15.536215125 -34.662339419 34.662339419 -34.662339419c 19.126124294 0 34.662339419 15.536215125 34.662339419 34.662339419c 0 19.126124294 -15.536215125 34.662339419 -34.662339419 34.662339419Z "/><g transform="translate(103.363126789 229.161125292)"><g transform="translate(5 5)"><g transform="matrix(1 0 0 -1 8.281456693 6.58)"><use xlink:href="#gAB8B9E265B3CCA4072A334611102AFDC" x="0" y="0" fill="#1a1a18" fill-rule="nonzero"/><use xlink:href="#g8F03A4AE8D3B195D4882A1755C55580A" x="5.86" y="0" fill="#1a1a18" fill-rule="nonzero"/><use xlink:href="#gF91E605A926A6829D0875F26DD95556B" x="11.05" y="0" fill="#1a1a18" fill-rule="nonzero"/><use xlink:href="#g43B4DCD2F8848462ADFC1E372BCC35" x="16.09" y="0" fill="#1a1a18" fill-rule="nonzero"/><use xlink:href="#g8C4BCE4FF39E54C5E232A1A0A3B7612A" x="20.88" y="0" fill="#1a1a18" fill-rule="nonzero"/><use xlink:href="#g8F03A4AE8D3B195D4882A1755C55580A" x="25.35" y="0" fill="#1a1a18" fill-rule="nonzero"/><use xlink:href="#g1E1CCF3C3F9C9FC6D96E38E66EA39633" x="30.54" y="0" fill="#1a1a18" fill-rule="nonzero"/><use xlink:href="#g7D7A5D08C55ACC07707850317A5B7900" x="35.56" y="0" fill="#1a1a18" fill-rule="nonzero"/></g></g></g><path fill="#dcd9d3" fill-rule="nonzero" stroke="#1a1a18" stroke-width="0.6" stroke-linecap="butt" stroke-linejoin="miter" stroke-miterlimit="4" transform="translate(0 101.911541842)" d="M 0 0m 34.662339419 69.324678837c -19.126124294 0 -34.662339419 -15.536215125 -34.662339419 -34.662339419c 0 -19.126124294 15.536215125 -34.662339419 34.662339419 -34.662339419c 19.126124294 0 34.662339419 15.536215125 34.662339419 34.662339419c 0 19.126124294 -15.536215125 34.662339419 -34.662339419 34.662339419Z "/><g transform="translate(1.315882694 127.113881197)"><g transform="translate(5 5)"><g transform="matrix(1 0 0 -1 0.996456693 6.58)"><use xlink:href="#gAB8B9E265B3CCA4072A334611102AFDC" x="0" y="0" fill="#1a1a18" fill-rule="nonzero"/><use xlink:href="#g8F03A4AE8D3B195D4882A1755C55580A" x="5.86" y="0" fill="#1a1a18" fill-rule="nonzero"/><use xlink:href="#g3730A52707D5D005176FA819A7950DF6" x="11.05" y="0" fill="#1a1a18" fill-rule="nonzero"/><use xlink:href="#g4C5600170187B2FBAE4AB64C2B9CBFAF" x="16.91" y="0" fill="#1a1a18" fill-rule="nonzero"/><use xlink:href="#g8C4BCE4FF39E54C5E232A1A0A3B7612A" x="23.71" y="0" fill="#1a1a18" fill-rule="nonzero"/><use xlink:href="#gD51468542432F864548926048E523B26" x="28.18" y="0" fill="#1a1a18" fill-rule="nonzero"/><use xlink:href="#g8C4BCE4FF39E54C5E232A1A0A3B7612A" x="34.04" y="0" fill="#1a1a18" fill-rule="nonzero"/><use xlink:href="#gD51468542432F864548926048E523B26" x="38.51" y="0" fill="#1a1a18" fill-rule="nonzero"/><use xlink:href="#g3730A52707D5D005176FA819A7950DF6" x="44.37" y="0" fill="#1a1a18" fill-rule="nonzero"/><use xlink:href="#g8C4BCE4FF39E54C5E232A1A0A3B7612A" x="50.23" y="0" fill="#1a1a18" fill-rule="nonzero"/></g></g></g><path fill="none" transform="translate(112.373583513 121.221298583)" d="M 0 0h 48.672v 8.028h -48.672v -8.028Z "/><g transform="translate(112.373583513 121.221298583)"><g transform="matrix(1 0 0 -1 0 5.922)"><use xlink:href="#g7253BD4F4A12C91ABC7B03558525FA66" x="0" y="0" fill="#827c70" fill-rule="nonzero"/><use xlink:href="#gBA3E9C2E61A84E296B252679103E17C4" x="4.536" y="0" fill="#827c70" fill-rule="nonzero"/><use xlink:href="#g6EA5A1981697E2B5E95285C58F7F7AD0" x="9.378" y="0" fill="#827c70" fill-rule="nonzero"/><use xlink:href="#g5F2B105DCE44482CD07DFE0B4651B637" x="14.652" y="0" fill="#827c70" fill-rule="nonzero"/><use xlink:href="#gAE9E23F53692F92B7B295E455DF99330" x="22.176" y="0" fill="#827c70" fill-rule="nonzero"/><use xlink:href="#g4AD90A9068D018AD3CEC8FD5EA9519DC" x="26.694" y="0" fill="#827c70" fill-rule="nonzero"/><use xlink:href="#gFFF6E9B9A983FEBF7FB8DCFB305974E9" x="31.365" y="0" fill="#827c70" fill-rule="nonzero"/><use xlink:href="#g4AE5337A4A3FF09E9A9AF89B4B83FC9D" x="36" y="0" fill="#827c70" fill-rule="nonzero"/><use xlink:href="#g56F819E8120FD9FB9B80ECED2D9111AC" x="41.994" y="0" fill="#827c70" fill-rule="nonzero"/></g></g><path fill="none" transform="translate(115.649583513 134.152739528)" d="M 0 0h 42.12v 7.11h -42.12v -7.11Z "/><g transform="translate(115.649583513 134.152739386)"><g transform="matrix(1 0 0 -1 0 5.922)"><use xlink:href="#g5F2B105DCE44482CD07DFE0B4651B637" x="0" y="0" fill="#827c70" fill-rule="nonzero"/><use xlink:href="#gF7AD5B3248F8366898BA115B8D318C4E" x="5.274" y="0" fill="#827c70" fill-rule="nonzero"/><use xlink:href="#gAE9E23F53692F92B7B295E455DF99330" x="11.637" y="0" fill="#827c70" fill-rule="nonzero"/><use xlink:href="#gF7AD5B3248F8366898BA115B8D318C4E" x="16.155" y="0" fill="#827c70" fill-rule="nonzero"/><use xlink:href="#gF4C3A83C3E99EE3A06E5D4EEABB5C2D5" x="20.268" y="0" fill="#827c70" fill-rule="nonzero"/><use xlink:href="#gBA3E9C2E61A84E296B252679103E17C4" x="26.622" y="0" fill="#827c70" fill-rule="nonzero"/><use xlink:href="#g7253BD4F4A12C91ABC7B03558525FA66" x="31.464" y="0" fill="#827c70" fill-rule="nonzero"/><use xlink:href="#g82C799C01D06EF19E125C6F4348D75CA" x="36" y="0" fill="#827c70" fill-rule="nonzero"/></g></g><path fill="none" transform="translate(123.700083513 146.625180473)" d="M 0 0h 26.019v 7.11h -26.019v -7.11Z "/><g transform="translate(123.700083513 146.625180331)"><g transform="matrix(1 0 0 -1 0 5.922)"><use xlink:href="#g7815E2C79248546AAEE49EC7F57ADD4E" x="0" y="0" fill="#827c70" fill-rule="nonzero"/><use xlink:href="#g611C332DF318E3AAFADBD04F1094DD79" x="3.852" y="0" fill="#827c70" fill-rule="nonzero"/><use xlink:href="#gD351E21AD091924D522A6D2D6355C932" x="7.857" y="0" fill="#827c70" fill-rule="nonzero"/><use xlink:href="#g5F2B105DCE44482CD07DFE0B4651B637" x="11.88" y="0" fill="#827c70" fill-rule="nonzero"/><use xlink:href="#gBA3E9C2E61A84E296B252679103E17C4" x="17.154" y="0" fill="#827c70" fill-rule="nonzero"/><use xlink:href="#gD351E21AD091924D522A6D2D6355C932" x="21.996" y="0" fill="#827c70" fill-rule="nonzero"/></g></g></g><defs><symbol id="gD51468542432F864548926048E523B26" overflow="visible"><path d="M 0 0m 4.79 3.07c 0 0.83 0.11 0.86 0.72 0.91c 0.06 0.06 0.06 0.27 0 0.33c -0.35 -0.02 -0.79 -0.02 -1.12 -0.02c -0.28 0 -0.68 0.01 -1.07 0.02c -0.06 -0.06 -0.06 -0.27 0 -0.33c 0.61 -0.04 0.68 -0.08 0.68 -0.91v -0.65h -2.14v 0.65c 0 0.83 0.07 0.86 0.68 0.91c 0.06 0.06 0.06 0.27 0 0.33c -0.38 -0.01 -0.76 -0.02 -1.08 -0.02c -0.3 0 -0.71 0.01 -1.11 0.02c -0.06 -0.06 -0.06 -0.27 0 -0.33c 0.61 -0.04 0.72 -0.08 0.72 -0.91v -1.85c 0 -0.83 -0.11 -0.86 -0.72 -0.91c -0.06 -0.06 -0.06 -0.27 0 -0.33c 0.4 0.01 0.8 0.02 1.12 0.02c 0.32 0 0.71 -0.01 1.07 -0.02c 0.06 0.06 0.06 0.27 0 0.33c -0.61 0.04 -0.68 0.08 -0.68 0.91v 0.87h 2.14v -0.87c 0 -0.83 -0.07 -0.86 -0.68 -0.91c -0.06 -0.06 -0.06 -0.27 0 -0.33c 0.36 0.01 0.73 0.02 1.08 0.02c 0.3 0 0.72 -0.01 1.11 -0.02c 0.06 0.06 0.06 0.27 0 0.33c -0.61 0.04 -0.72 0.08 -0.72 0.91Z "/></symbol><symbol id="g7D7A5D08C55ACC07707850317A5B7900" overflow="visible"><path d="M 0 0m 2.93 0.48c 0.06 -0.31 0.17 -0.58 0.67 -0.58c 0.38 0 0.74 0.17 0.95 0.37c -0.02 0.12 -0.06 0.21 -0.17 0.27c -0.07 -0.06 -0.24 -0.16 -0.37 -0.16c -0.29 0 -0.3 0.39 -0.3 0.85v 1.47c 0 1.42 -0.78 1.69 -1.51 1.69c -0.82 0 -1.65 -0.54 -1.65 -1.11c 0 -0.24 0.12 -0.36 0.35 -0.36c 0.29 0 0.47 0.21 0.47 0.34c 0 0.07 -0.01 0.14 -0.03 0.18c -0.01 0.03 -0.02 0.09 -0.02 0.2c 0 0.31 0.42 0.42 0.8 0.42c 0.34 0 0.81 -0.17 0.81 -1.3c 0 -0.07 -0.03 -0.11 -0.06 -0.12l -0.86 -0.21c -0.96 -0.24 -1.65 -0.77 -1.65 -1.45c 0 -0.82 0.56 -1.08 1.26 -1.08c 0.35 0 0.65 0.08 1.09 0.42l 0.2 0.16Z m 0 1.85v -1.32c 0 -0.13 -0.06 -0.2 -0.14 -0.26c -0.26 -0.21 -0.6 -0.44 -0.88 -0.44c -0.5 0 -0.72 0.4 -0.72 0.71c 0 0.45 0.21 0.91 0.95 1.1Z "/></symbol><symbol id="gEE6BFED97EAD66B608F348D718695C96" overflow="visible"><path d="M 0 0m 0.34 2.57c 0 -1.89 1.09 -2.67 2.06 -2.67c 1.37 0 2.16 1.02 2.16 2.28c 0 1.08 -0.6 2.21 -2.01 2.21c -0.95 0 -1.53 -0.56 -1.75 -1.04l -0.02 0.02c 0.04 0.52 0.2 1.16 0.35 1.42c 0.32 0.55 0.7 0.58 1.62 0.68c 0.9 0.1 1.54 0.39 1.63 1.51c -0.07 0.03 -0.14 0.04 -0.22 0c -0.08 -0.48 -0.61 -0.61 -1.45 -0.74c -0.81 -0.13 -1.49 -0.41 -1.91 -1.2c -0.36 -0.68 -0.46 -1.52 -0.46 -2.47Z m 0.86 -0.26c 0 0.56 0.2 1.73 1.24 1.73c 0.78 0 1.26 -0.9 1.26 -2.1c 0 -1.26 -0.58 -1.69 -1.12 -1.69c -0.73 0 -1.38 0.95 -1.38 2.06Z "/></symbol><symbol id="g58FE41588FF370B2D963AE7490CB53AD" overflow="visible"><path d="M 0 0m 4.18 1.22v 1.85c 0 0.82 0.13 0.87 0.68 0.91c 0.06 0.06 0.06 0.27 0 0.33c -0.3 -0.01 -0.68 -0.02 -1.08 -0.02h -1.89c -0.33 0 -0.72 0.01 -1.02 0.02c -0.06 -0.06 -0.06 -0.27 0 -0.33c 0.71 -0.05 0.81 -0.11 0.81 -1.19c 0 -1.05 -0.08 -1.6 -0.22 -2.01c -0.13 -0.36 -0.3 -0.49 -0.47 -0.49c -0.13 0 -0.17 0.08 -0.19 0.21c -0.03 0.19 -0.09 0.38 -0.37 0.38c -0.25 0 -0.39 -0.2 -0.39 -0.42c 0 -0.31 0.28 -0.58 0.74 -0.58c 0.51 0 0.79 0.26 1.02 0.8c 0.2 0.48 0.26 1.5 0.26 2.18c 0 0.78 0.03 1.04 0.43 1.04h 0.45c 0.38 0 0.45 -0.24 0.45 -0.58v -2.1c 0 -0.82 -0.1 -0.87 -0.62 -0.91c -0.05 -0.06 -0.05 -0.27 0 -0.33c 0.25 0.01 0.62 0.02 1.02 0.02c 0.4 0 0.85 -0.01 1.13 -0.02c 0.05 0.06 0.05 0.27 0 0.33c -0.65 0.04 -0.74 0.09 -0.74 0.91Z "/></symbol><symbol id="g7FD0FA641668F7DFCB9D7AAA2026531B" overflow="visible"><path d="M 0 0m 1.86 2.37v 0.7c 0 0.83 0.11 0.86 0.72 0.91c 0.06 0.06 0.06 0.27 0 0.33c -0.34 -0.01 -0.68 -0.02 -1.12 -0.02c -0.43 0 -0.78 0.01 -1.11 0.02c -0.06 -0.06 -0.06 -0.27 0 -0.33c 0.61 -0.04 0.72 -0.08 0.72 -0.91v -1.85c 0 -0.83 -0.11 -0.86 -0.72 -0.91c -0.06 -0.06 -0.06 -0.27 0 -0.33c 0.33 0.01 0.68 0.02 1.12 0.02c 0.43 0 0.79 -0.01 1.11 -0.02c 0.06 0.06 0.06 0.27 0 0.33c -0.61 0.04 -0.72 0.08 -0.72 0.91v 0.76h 1.03c 0.02 -1.01 0.65 -2.08 2 -2.08c 1.47 0 2.02 1.27 2.02 2.27c 0 1.04 -0.49 2.22 -2.01 2.22c -1.21 0 -1.89 -0.83 -2 -2.02Z m 2.94 1.67c 0.82 0 1.25 -0.73 1.25 -2.19c 0 -1.32 -0.55 -1.6 -0.98 -1.6c -0.99 0 -1.32 1.24 -1.32 2.01c 0 0.87 0.27 1.78 1.05 1.78Z "/></symbol><symbol id="g829D75AC8F1C9E46EE8828572BC54649" overflow="visible"><path d="M 0 0m 1.89 4.29c -0.33 0 -0.72 0.01 -1.02 0.02c -0.06 -0.06 -0.06 -0.27 0 -0.33c 0.61 -0.05 0.79 -0.09 0.75 -0.92c -0.04 -0.92 -0.2 -1.66 -0.37 -2.36c -0.06 -0.27 -0.35 -0.36 -0.63 -0.39c -0.15 -0.02 -0.29 -0.08 -0.3 -0.26l -0.06 -1.33c 0.07 -0.03 0.15 -0.04 0.27 -0.01c 0.09 0.37 0.36 1.29 1.26 1.29h 1.73c 0.89 0 1.18 -0.9 1.27 -1.3c 0.09 -0.02 0.18 -0.02 0.28 0.02l -0.06 1.34c 0 0.14 -0.08 0.22 -0.27 0.25c -0.18 0.03 -0.43 0.1 -0.43 0.47v 2.29c 0 0.82 0.13 0.87 0.68 0.91c 0.06 0.06 0.06 0.27 0 0.33c -0.3 -0.01 -0.68 -0.02 -1.08 -0.02Z m -0.28 -3.78c 0 0.17 0.27 0.83 0.42 3.12c 0.01 0.15 0.08 0.28 0.35 0.28h 0.69c 0.4 0 0.45 -0.28 0.45 -0.62v -2.41c 0 -0.33 -0.02 -0.49 -0.42 -0.49h -1.29c -0.11 0 -0.2 0.01 -0.2 0.12Z "/></symbol><symbol id="g8C4BCE4FF39E54C5E232A1A0A3B7612A" overflow="visible"><path d="M 0 0m 3.86 0.93c -0.37 -0.38 -0.66 -0.54 -1.24 -0.54c -0.36 0 -0.78 0.21 -1.09 0.72c -0.2 0.33 -0.32 0.79 -0.32 1.37l 2.66 -0.02c 0.12 0 0.19 0.06 0.19 0.17c 0 0.84 -0.3 1.74 -1.69 1.74c -0.87 0 -2 -0.83 -2 -2.35c 0 -0.56 0.14 -1.1 0.47 -1.48c 0.34 -0.4 0.81 -0.64 1.53 -0.64c 0.76 0 1.3 0.35 1.7 0.87c -0.03 0.1 -0.09 0.15 -0.21 0.16Z m -2.62 1.89c 0.19 1.13 0.89 1.22 1.13 1.22c 0.38 0 0.83 -0.21 0.83 -1.05c 0 -0.09 -0.04 -0.14 -0.15 -0.14Z "/></symbol><symbol id="g3730A52707D5D005176FA819A7950DF6" overflow="visible"><path d="M 0 0m 1.98 0.63c -0.03 0 -0.07 0.02 -0.07 0.12v 2.28c 0 0.83 0.21 0.92 0.72 0.95c 0.06 0.06 0.06 0.27 0 0.33c -0.23 -0.01 -0.8 -0.02 -1.17 -0.02c -0.33 0 -0.73 0.01 -1.11 0.02c -0.06 -0.06 -0.06 -0.27 0 -0.33c 0.61 -0.03 0.77 -0.12 0.77 -0.95v -1.77c 0 -0.83 -0.16 -0.92 -0.77 -0.95c -0.06 -0.06 -0.06 -0.27 0 -0.33c 0.39 0.01 0.79 0.02 1.11 0.02c 0.23 0 0.5 -0.01 0.61 -0.02c 0.05 0.14 0.14 0.34 0.25 0.54l 1.56 3.13c 0.03 0 0.07 -0.02 0.07 -0.12v -2.27c 0 -0.83 -0.21 -0.92 -0.72 -0.95c -0.06 -0.06 -0.06 -0.27 0 -0.33c 0.23 0.01 0.77 0.02 1.17 0.02c 0.31 0 0.72 -0.01 1.11 -0.02c 0.06 0.06 0.06 0.27 0 0.33c -0.61 0.03 -0.77 0.12 -0.77 0.95v 1.77c 0 0.83 0.16 0.92 0.77 0.95c 0.06 0.06 0.06 0.27 0 0.33c -0.4 -0.01 -0.8 -0.02 -1.11 -0.02c -0.22 0 -0.5 0.01 -0.6 0.02c -0.08 -0.18 -0.17 -0.39 -0.26 -0.56Z "/></symbol><symbol id="gAB8B9E265B3CCA4072A334611102AFDC" overflow="visible"><path d="M 0 0m 4.37 4.29h -2.84c -0.4 0 -0.78 0.01 -1.08 0.02c -0.06 -0.06 -0.06 -0.27 0 -0.33c 0.55 -0.04 0.68 -0.09 0.68 -0.91v -1.85c 0 -0.82 -0.13 -0.87 -0.78 -0.91c -0.06 -0.06 -0.06 -0.27 0 -0.33c 0.3 0.01 0.78 0.02 1.18 0.02c 0.4 0 0.7 -0.01 1 -0.02c 0.06 0.06 0.06 0.27 0 0.33c -0.51 0.05 -0.61 0.09 -0.61 0.91v 2.17c 0 0.31 0.03 0.51 0.42 0.51h 1.21c 0.37 0 0.43 -0.11 0.43 -0.51v -2.17c 0 -0.82 -0.1 -0.87 -0.62 -0.91c -0.05 -0.06 -0.05 -0.27 0 -0.33c 0.25 0.01 0.62 0.02 1.02 0.02c 0.4 0 0.85 -0.01 1.13 -0.02c 0.05 0.06 0.05 0.27 0 0.33c -0.65 0.04 -0.74 0.09 -0.74 0.91v 1.85c 0 0.82 0.13 0.87 0.68 0.91c 0.06 0.06 0.06 0.27 0 0.33c -0.3 -0.01 -0.68 -0.02 -1.08 -0.02Z "/></symbol><symbol id="g8F03A4AE8D3B195D4882A1755C55580A" overflow="visible"><path d="M 0 0m 1.56 3.68c -0.01 0.3 -0.03 0.56 -0.08 0.66c -0.02 0.05 -0.04 0.08 -0.12 0.08c -0.28 -0.11 -0.54 -0.2 -1.23 -0.29c -0.02 -0.06 0 -0.22 0.02 -0.28c 0.54 -0.05 0.65 -0.1 0.65 -0.68v -4.27c 0 -0.83 -0.11 -0.88 -0.72 -0.91c -0.06 -0.06 -0.06 -0.27 0 -0.33c 0.35 0.01 0.72 0.02 1.12 0.02c 0.4 0 0.88 -0.01 1.21 -0.02c 0.06 0.06 0.06 0.27 0 0.33c -0.71 0.04 -0.82 0.08 -0.82 0.91v 1.08c 0 0.13 0.04 0.12 0.14 0.08c 0.25 -0.1 0.55 -0.16 0.87 -0.16c 0.56 0 1.06 0.17 1.47 0.56c 0.47 0.46 0.74 1.08 0.74 1.89c 0 1.06 -0.75 2.04 -1.77 2.04c -0.46 0 -0.97 -0.3 -1.37 -0.75c -0.06 -0.06 -0.1 -0.06 -0.11 0.04Z m 0.19 -0.37c 0.26 0.32 0.72 0.62 1.01 0.62c 0.64 0 1.19 -0.72 1.19 -1.85c 0 -0.82 -0.29 -1.84 -1.41 -1.84c -0.18 0 -0.53 0.05 -0.71 0.21c -0.2 0.18 -0.24 0.24 -0.24 0.6v 1.82c 0 0.21 0.04 0.3 0.16 0.44Z "/></symbol><symbol id="gB6AEBBB4DAC5700D1CDF7DC4FBA7EDB2" overflow="visible"><path d="M 0 0m 1.62 3.07c 0 0.83 0.11 0.86 0.62 0.91c 0.06 0.06 0.06 0.27 0 0.33c -0.24 -0.01 -0.62 -0.02 -1.02 -0.02c -0.43 0 -0.77 0.01 -1.1 0.02c -0.06 -0.06 -0.06 -0.27 0 -0.33c 0.61 -0.04 0.72 -0.08 0.72 -0.91v -0.43c 0 -0.94 0.21 -1.31 1.14 -1.31c 0.63 0 1.13 0.36 1.54 0.66v -0.77c 0 -0.83 -0.11 -0.86 -0.72 -0.91c -0.06 -0.06 -0.06 -0.27 0 -0.33c 0.33 0.01 0.68 0.02 1.12 0.02c 0.43 0 0.8 -0.01 1.12 -0.02c 0.06 0.06 0.06 0.27 0 0.33c -0.61 0.04 -0.72 0.08 -0.72 0.91v 1.85c 0 0.83 0.11 0.86 0.72 0.91c 0.06 0.06 0.06 0.27 0 0.33c -0.34 -0.01 -0.68 -0.02 -1.12 -0.02c -0.39 0 -0.79 0.01 -1.02 0.02c -0.06 -0.06 -0.06 -0.27 0 -0.33c 0.51 -0.04 0.62 -0.08 0.62 -0.91v -0.72c -0.34 -0.3 -0.7 -0.57 -1.22 -0.57c -0.65 0 -0.68 0.34 -0.68 1.12Z "/></symbol><symbol id="gF91E605A926A6829D0875F26DD95556B" overflow="visible"><path d="M 0 0m 0.41 2.05c 0 -1.02 0.68 -2.15 2.1 -2.15c 0.64 0 1.13 0.23 1.47 0.56c 0.45 0.44 0.65 1.07 0.65 1.68c 0 1.04 -0.57 2.25 -2.1 2.25c -0.66 0 -1.2 -0.27 -1.57 -0.7c -0.36 -0.43 -0.55 -1.01 -0.55 -1.64Z m 1.97 1.99c 0.86 0 1.39 -0.78 1.39 -2.22c 0 -1.26 -0.65 -1.57 -1.12 -1.57c -1.04 0 -1.38 1.26 -1.38 2.03c 0 0.87 0.21 1.76 1.11 1.76Z "/></symbol><symbol id="g43B4DCD2F8848462ADFC1E372BCC35" overflow="visible"><path d="M 0 0m 1.46 4.29c -0.43 0 -0.78 0.01 -1.11 0.02c -0.06 -0.06 -0.06 -0.27 0 -0.33c 0.61 -0.04 0.72 -0.08 0.72 -0.91v -1.85c 0 -0.83 -0.11 -0.86 -0.72 -0.91c -0.06 -0.06 -0.06 -0.27 0 -0.33c 0.33 0.01 0.68 0.02 1.12 0.02c 0.37 0 0.7 -0.02 1.37 -0.02c 0.86 0 1.51 0.24 1.51 1.23c 0 0.56 -0.35 0.95 -0.96 1.06v 0.03c 0.46 0.09 0.81 0.41 0.81 1.01c 0 0.7 -0.43 1 -1.64 1c -0.41 0 -0.67 -0.02 -1.1 -0.02Z m 0.4 -2.12h 0.76c 0.61 0 0.87 -0.4 0.87 -1c 0 -0.67 -0.38 -0.86 -0.92 -0.86c -0.52 0 -0.71 0.09 -0.71 0.55Z m 0 0.29v 1.16c 0 0.3 0.23 0.36 0.71 0.36c 0.52 0 0.83 -0.14 0.83 -0.74c 0 -0.4 -0.26 -0.78 -0.88 -0.78Z "/></symbol><symbol id="g1E1CCF3C3F9C9FC6D96E38E66EA39633" overflow="visible"><path d="M 0 0m 3.86 0c 0 0 0.78 -0.01 0.98 -0.02c 0.06 0.06 0.06 0.27 0 0.33c -0.39 0.02 -0.47 0.1 -0.64 0.42l -0.45 0.85c -0.25 0.47 -0.6 0.71 -1.17 0.71v 0.03c 0.39 0.11 0.56 0.46 0.71 0.86c 0.12 0.31 0.24 0.5 0.45 0.5c 0.09 0 0.17 -0.03 0.23 -0.07c 0.06 -0.04 0.17 -0.07 0.3 -0.07c 0.22 0 0.4 0.19 0.4 0.39c 0 0.22 -0.24 0.45 -0.57 0.45c -0.58 0 -0.85 -0.54 -1.04 -1.01c -0.22 -0.55 -0.49 -0.93 -1.2 -0.93v 0.63c 0 0.83 0.11 0.86 0.62 0.91c 0.06 0.06 0.06 0.27 0 0.33c -0.24 -0.01 -0.62 -0.02 -1.02 -0.02c -0.43 0 -0.78 0.01 -1.11 0.02c -0.06 -0.06 -0.06 -0.27 0 -0.33c 0.61 -0.04 0.72 -0.08 0.72 -0.91v -1.85c 0 -0.83 -0.11 -0.86 -0.72 -0.91c -0.06 -0.06 -0.06 -0.27 0 -0.33c 0.33 0.01 0.68 0.02 1.12 0.02c 0.39 0 0.79 -0.01 1.01 -0.02c 0.06 0.06 0.06 0.27 0 0.33c -0.51 0.04 -0.62 0.08 -0.62 0.91v 0.87c 0.68 -0.04 0.86 -0.31 1.04 -0.68l 0.43 -0.9c 0.13 -0.27 0.33 -0.5 0.53 -0.51Z "/></symbol><symbol id="g4C5600170187B2FBAE4AB64C2B9CBFAF" overflow="visible"><path d="M 0 0m 1.17 3.06l -0.06 -1.86c -0.03 -0.84 -0.18 -0.86 -0.76 -0.89c -0.06 -0.06 -0.06 -0.27 0 -0.33c 0.2 0.01 0.7 0.02 0.86 0.02c 0.2 0 0.67 -0.01 0.87 -0.02c 0.06 0.06 0.06 0.27 0 0.33c -0.57 0.04 -0.61 0.14 -0.59 0.89l 0.07 2.45c 0 0.09 0.04 0.09 0.08 0l 1.45 -3.54c 0.04 -0.03 0.08 -0.03 0.11 0l 1.64 3.53c 0.05 0.11 0.1 0.12 0.1 0l -0.01 -2.42c 0 -0.83 -0.07 -0.86 -0.68 -0.91c -0.06 -0.06 -0.06 -0.27 0 -0.33c 0.36 0.01 0.73 0.02 1.08 0.02c 0.3 0 0.73 -0.01 1.12 -0.02c 0.06 0.06 0.06 0.27 0 0.33c -0.61 0.04 -0.72 0.08 -0.72 0.91l -0.02 1.85c -0.01 0.83 0.11 0.86 0.72 0.91c 0.06 0.06 0.06 0.27 0 0.33c -0.35 -0.02 -1.32 -0.02 -1.65 -0.02l -1.33 -2.86l -0.05 -0.1l -0.04 0.1l -1.17 2.86c -0.33 0 -1.39 0 -1.74 0.02c -0.06 -0.06 -0.06 -0.27 0 -0.33c 0.61 -0.05 0.75 -0.09 0.72 -0.92Z "/></symbol><symbol id="g7253BD4F4A12C91ABC7B03558525FA66" overflow="visible"><path d="M 0 0m 0.369 1.845c 0 -0.918 0.612 -1.935 1.89 -1.935c 0.576 0 1.017 0.207 1.323 0.504c 0.405 0.396 0.585 0.963 0.585 1.512c 0 0.936 -0.513 2.025 -1.89 2.025c -0.594 0 -1.08 -0.243 -1.413 -0.63c -0.324 -0.387 -0.495 -0.909 -0.495 -1.476Z m 1.773 1.791c 0.774 0 1.251 -0.702 1.251 -1.998c 0 -1.134 -0.585 -1.413 -1.008 -1.413c -0.936 0 -1.242 1.134 -1.242 1.827c 0 0.783 0.189 1.584 0.999 1.584Z "/></symbol><symbol id="gBA3E9C2E61A84E296B252679103E17C4" overflow="visible"><path d="M 0 0m 1.701 3.861c -0.297 0 -0.648 0.009 -0.918 0.018c -0.054 -0.054 -0.054 -0.243 0 -0.297c 0.549 -0.045 0.711 -0.081 0.675 -0.828c -0.036 -0.828 -0.18 -1.494 -0.333 -2.124c -0.054 -0.243 -0.315 -0.324 -0.567 -0.351c -0.135 -0.018 -0.261 -0.072 -0.27 -0.234l -0.054 -1.197c 0.063 -0.027 0.135 -0.036 0.243 -0.009c 0.081 0.333 0.324 1.161 1.134 1.161h 1.557c 0.801 0 1.062 -0.81 1.143 -1.17c 0.081 -0.018 0.162 -0.018 0.252 0.018l -0.054 1.206c 0 0.126 -0.072 0.198 -0.243 0.225c -0.162 0.027 -0.387 0.09 -0.387 0.423v 2.061c 0 0.738 0.117 0.783 0.612 0.819c 0.054 0.054 0.054 0.243 0 0.297c -0.27 -0.009 -0.612 -0.018 -0.972 -0.018Z m -0.252 -3.402c 0 0.153 0.243 0.747 0.378 2.808c 0.009 0.135 0.072 0.252 0.315 0.252h 0.621c 0.36 0 0.405 -0.252 0.405 -0.558v -2.169c 0 -0.297 -0.018 -0.441 -0.378 -0.441h -1.161c -0.099 0 -0.18 0.009 -0.18 0.108Z "/></symbol><symbol id="g6EA5A1981697E2B5E95285C58F7F7AD0" overflow="visible"><path d="M 0 0m 1.782 0.567c -0.027 0 -0.063 0.018 -0.063 0.108v 2.052c 0 0.747 0.189 0.828 0.648 0.855c 0.054 0.054 0.054 0.243 0 0.297c -0.207 -0.009 -0.72 -0.018 -1.053 -0.018c -0.297 0 -0.657 0.009 -0.999 0.018c -0.054 -0.054 -0.054 -0.243 0 -0.297c 0.549 -0.027 0.693 -0.108 0.693 -0.855v -1.593c 0 -0.747 -0.144 -0.828 -0.693 -0.855c -0.054 -0.054 -0.054 -0.243 0 -0.297c 0.351 0.009 0.711 0.018 0.999 0.018c 0.207 0 0.45 -0.009 0.549 -0.018c 0.045 0.126 0.126 0.306 0.225 0.486l 1.404 2.817c 0.027 0 0.063 -0.018 0.063 -0.108v -2.043c 0 -0.747 -0.189 -0.828 -0.648 -0.855c -0.054 -0.054 -0.054 -0.243 0 -0.297c 0.207 0.009 0.693 0.018 1.053 0.018c 0.279 0 0.648 -0.009 0.999 -0.018c 0.054 0.054 0.054 0.243 0 0.297c -0.549 0.027 -0.693 0.108 -0.693 0.855v 1.593c 0 0.747 0.144 0.828 0.693 0.855c 0.054 0.054 0.054 0.243 0 0.297c -0.36 -0.009 -0.72 -0.018 -0.999 -0.018c -0.198 0 -0.45 0.009 -0.54 0.018c -0.072 -0.162 -0.153 -0.351 -0.234 -0.504Z "/></symbol><symbol id="g5F2B105DCE44482CD07DFE0B4651B637" overflow="visible"><path d="M 0 0m 4.311 2.763c 0 0.747 0.099 0.774 0.648 0.819c 0.054 0.054 0.054 0.243 0 0.297c -0.315 -0.018 -0.711 -0.018 -1.008 -0.018c -0.252 0 -0.612 0.009 -0.963 0.018c -0.054 -0.054 -0.054 -0.243 0 -0.297c 0.549 -0.036 0.612 -0.072 0.612 -0.819v -0.585h -1.926v 0.585c 0 0.747 0.063 0.774 0.612 0.819c 0.054 0.054 0.054 0.243 0 0.297c -0.342 -0.009 -0.684 -0.018 -0.972 -0.018c -0.27 0 -0.639 0.009 -0.999 0.018c -0.054 -0.054 -0.054 -0.243 0 -0.297c 0.549 -0.036 0.648 -0.072 0.648 -0.819v -1.665c 0 -0.747 -0.099 -0.774 -0.648 -0.819c -0.054 -0.054 -0.054 -0.243 0 -0.297c 0.36 0.009 0.72 0.018 1.008 0.018c 0.288 0 0.639 -0.009 0.963 -0.018c 0.054 0.054 0.054 0.243 0 0.297c -0.549 0.036 -0.612 0.072 -0.612 0.819v 0.783h 1.926v -0.783c 0 -0.747 -0.063 -0.774 -0.612 -0.819c -0.054 -0.054 -0.054 -0.243 0 -0.297c 0.324 0.009 0.657 0.018 0.972 0.018c 0.27 0 0.648 -0.009 0.999 -0.018c 0.054 0.054 0.054 0.243 0 0.297c -0.549 0.036 -0.648 0.072 -0.648 0.819Z "/></symbol><symbol id="gAE9E23F53692F92B7B295E455DF99330" overflow="visible"><path d="M 0 0m 3.474 0c 0 0 0.702 -0.009 0.882 -0.018c 0.054 0.054 0.054 0.243 0 0.297c -0.351 0.018 -0.423 0.09 -0.576 0.378l -0.405 0.765c -0.225 0.423 -0.54 0.639 -1.053 0.639v 0.027c 0.351 0.099 0.504 0.414 0.639 0.774c 0.108 0.279 0.216 0.45 0.405 0.45c 0.081 0 0.153 -0.027 0.207 -0.063c 0.054 -0.036 0.153 -0.063 0.27 -0.063c 0.198 0 0.36 0.171 0.36 0.351c 0 0.198 -0.216 0.405 -0.513 0.405c -0.522 0 -0.765 -0.486 -0.936 -0.909c -0.198 -0.495 -0.441 -0.837 -1.08 -0.837v 0.567c 0 0.747 0.099 0.774 0.558 0.819c 0.054 0.054 0.054 0.243 0 0.297c -0.216 -0.009 -0.558 -0.018 -0.918 -0.018c -0.387 0 -0.702 0.009 -0.999 0.018c -0.054 -0.054 -0.054 -0.243 0 -0.297c 0.549 -0.036 0.648 -0.072 0.648 -0.819v -1.665c 0 -0.747 -0.099 -0.774 -0.648 -0.819c -0.054 -0.054 -0.054 -0.243 0 -0.297c 0.297 0.009 0.612 0.018 1.008 0.018c 0.351 0 0.711 -0.009 0.909 -0.018c 0.054 0.054 0.054 0.243 0 0.297c -0.459 0.036 -0.558 0.072 -0.558 0.819v 0.783c 0.612 -0.036 0.774 -0.279 0.936 -0.612l 0.387 -0.81c 0.117 -0.243 0.297 -0.45 0.477 -0.459Z "/></symbol><symbol id="g4AD90A9068D018AD3CEC8FD5EA9519DC" overflow="visible"><path d="M 0 0m 1.404 3.312c -0.009 0.27 -0.027 0.504 -0.072 0.594c -0.018 0.045 -0.036 0.072 -0.108 0.072c -0.252 -0.099 -0.486 -0.18 -1.107 -0.261c -0.018 -0.054 0 -0.198 0.018 -0.252c 0.486 -0.045 0.585 -0.09 0.585 -0.612v -3.843c 0 -0.747 -0.099 -0.792 -0.648 -0.819c -0.054 -0.054 -0.054 -0.243 0 -0.297c 0.315 0.009 0.648 0.018 1.008 0.018c 0.36 0 0.792 -0.009 1.089 -0.018c 0.054 0.054 0.054 0.243 0 0.297c -0.639 0.036 -0.738 0.072 -0.738 0.819v 0.972c 0 0.117 0.036 0.108 0.126 0.072c 0.225 -0.09 0.495 -0.144 0.783 -0.144c 0.504 0 0.954 0.153 1.323 0.504c 0.423 0.414 0.666 0.972 0.666 1.701c 0 0.954 -0.675 1.836 -1.593 1.836c -0.414 0 -0.873 -0.27 -1.233 -0.675c -0.054 -0.054 -0.09 -0.054 -0.099 0.036Z m 0.171 -0.333c 0.234 0.288 0.648 0.558 0.909 0.558c 0.576 0 1.071 -0.648 1.071 -1.665c 0 -0.738 -0.261 -1.656 -1.269 -1.656c -0.162 0 -0.477 0.045 -0.639 0.189c -0.18 0.162 -0.216 0.216 -0.216 0.54v 1.638c 0 0.189 0.036 0.27 0.144 0.396Z "/></symbol><symbol id="gFFF6E9B9A983FEBF7FB8DCFB305974E9" overflow="visible"><path d="M 0 0m 1.836 -1.44c 0.144 0.252 0.261 0.504 0.369 0.774c 0.72 1.737 1.125 2.664 1.593 3.672c 0.18 0.378 0.306 0.522 0.729 0.576c 0.054 0.054 0.054 0.243 0 0.297c -0.18 -0.009 -0.387 -0.018 -0.639 -0.018c -0.27 0 -0.549 0.009 -0.819 0.018c -0.054 -0.054 -0.054 -0.243 0 -0.297c 0.288 -0.027 0.576 -0.081 0.432 -0.405l -0.891 -2.061c -0.063 -0.144 -0.144 -0.171 -0.216 0.009l -0.801 1.872c -0.162 0.378 -0.207 0.549 0.297 0.585c 0.054 0.054 0.054 0.243 0 0.297c -0.333 -0.009 -0.693 -0.018 -1.017 -0.018c -0.306 0 -0.549 0.009 -0.729 0.018c -0.054 -0.054 -0.054 -0.243 0 -0.297c 0.36 -0.045 0.477 -0.126 0.711 -0.675l 1.017 -2.367c 0.081 -0.18 0.216 -0.594 0.126 -0.846c -0.108 -0.297 -0.216 -0.549 -0.351 -0.828c -0.099 -0.18 -0.225 -0.261 -0.45 -0.261c -0.126 0 -0.162 0.027 -0.261 0.027c -0.261 0 -0.396 -0.27 -0.396 -0.387c 0 -0.189 0.18 -0.333 0.423 -0.333c 0.189 0 0.549 0.072 0.873 0.648Z "/></symbol><symbol id="g4AE5337A4A3FF09E9A9AF89B4B83FC9D" overflow="visible"><path d="M 0 0m 1.674 2.763c 0 0.513 0.063 0.747 0.378 0.747h 0.198c 0.738 0 0.954 -0.513 1.08 -1.035c 0.099 -0.009 0.189 0 0.261 0.036c -0.036 0.477 -0.063 0.873 -0.117 1.35l -0.018 0.018c 0 0 -0.72 -0.018 -1.008 -0.018h -1.134c -0.387 0 -0.702 0.009 -0.999 0.018c -0.054 -0.054 -0.054 -0.243 0 -0.297c 0.549 -0.036 0.648 -0.072 0.648 -0.819v -1.665c 0 -0.747 -0.099 -0.774 -0.648 -0.819c -0.054 -0.054 -0.054 -0.243 0 -0.297c 0.297 0.009 0.612 0.018 1.008 0.018c 0.387 0 0.711 -0.009 0.999 -0.018c 0.054 0.054 0.054 0.243 0 0.297c -0.549 0.036 -0.648 0.072 -0.648 0.819Z "/></symbol><symbol id="g56F819E8120FD9FB9B80ECED2D9111AC" overflow="visible"><path d="M 0 0m 0.441 2.142h 5.616c 0.117 0 0.234 0.18 0.234 0.288c 0 0.081 -0.027 0.153 -0.126 0.153h -5.616c -0.108 0 -0.234 -0.18 -0.234 -0.288c 0 -0.072 0.027 -0.153 0.126 -0.153Z "/></symbol><symbol id="gF7AD5B3248F8366898BA115B8D318C4E" overflow="visible"><path d="M 0 0m 2.637 0.432c 0.054 -0.279 0.153 -0.522 0.603 -0.522c 0.342 0 0.666 0.153 0.855 0.333c -0.018 0.108 -0.054 0.189 -0.153 0.243c -0.063 -0.054 -0.216 -0.144 -0.333 -0.144c -0.261 0 -0.27 0.351 -0.27 0.765v 1.323c 0 1.278 -0.702 1.521 -1.359 1.521c -0.738 0 -1.485 -0.486 -1.485 -0.999c 0 -0.216 0.108 -0.324 0.315 -0.324c 0.261 0 0.423 0.189 0.423 0.306c 0 0.063 -0.009 0.126 -0.027 0.162c -0.009 0.027 -0.018 0.081 -0.018 0.18c 0 0.279 0.378 0.378 0.72 0.378c 0.306 0 0.729 -0.153 0.729 -1.17c 0 -0.063 -0.027 -0.099 -0.054 -0.108l -0.774 -0.189c -0.864 -0.216 -1.485 -0.693 -1.485 -1.305c 0 -0.738 0.504 -0.972 1.134 -0.972c 0.315 0 0.585 0.072 0.981 0.378l 0.18 0.144Z m 0 1.665v -1.188c 0 -0.117 -0.054 -0.18 -0.126 -0.234c -0.234 -0.189 -0.54 -0.396 -0.792 -0.396c -0.45 0 -0.648 0.36 -0.648 0.639c 0 0.405 0.189 0.819 0.855 0.99Z "/></symbol><symbol id="gF4C3A83C3E99EE3A06E5D4EEABB5C2D5" overflow="visible"><path d="M 0 0m 0.981 0c 0.18 0.009 0.333 0.216 0.45 0.459l 0.387 0.81c 0.162 0.333 0.414 0.576 1.026 0.612v -0.783c 0 -0.747 -0.108 -0.774 -0.567 -0.819c -0.054 -0.054 -0.054 -0.243 0 -0.297c 0.207 0.009 0.54 0.018 0.9 0.018c 0.351 0 0.693 -0.009 0.891 -0.018c 0.054 0.054 0.054 0.243 0 0.297c -0.459 0.036 -0.567 0.072 -0.567 0.819v 0.783c 0.612 -0.036 0.864 -0.279 1.026 -0.612l 0.387 -0.81c 0.117 -0.243 0.27 -0.45 0.45 -0.459c 0 0 0.666 -0.009 0.846 -0.018c 0.054 0.054 0.054 0.243 0 0.297c -0.351 0.018 -0.441 0.09 -0.594 0.378l -0.405 0.765c -0.225 0.423 -0.522 0.639 -1.035 0.639v 0.027c 0.351 0.099 0.504 0.414 0.639 0.774c 0.108 0.279 0.216 0.45 0.405 0.45c 0.081 0 0.153 -0.027 0.207 -0.063c 0.054 -0.036 0.153 -0.063 0.27 -0.063c 0.198 0 0.36 0.171 0.36 0.351c 0 0.198 -0.216 0.405 -0.513 0.405c -0.522 0 -0.765 -0.486 -0.936 -0.909c -0.198 -0.495 -0.468 -0.837 -1.107 -0.837v 0.567c 0 0.747 0.108 0.774 0.567 0.819c 0.054 0.054 0.054 0.243 0 0.297c -0.216 -0.009 -0.54 -0.018 -0.9 -0.018c -0.351 0 -0.684 0.009 -0.891 0.018c -0.054 -0.054 -0.054 -0.243 0 -0.297c 0.459 -0.036 0.567 -0.072 0.567 -0.819v -0.567c -0.639 0 -0.909 0.342 -1.107 0.837c -0.171 0.423 -0.414 0.909 -0.936 0.909c -0.297 0 -0.513 -0.207 -0.513 -0.405c 0 -0.18 0.162 -0.351 0.36 -0.351c 0.117 0 0.216 0.027 0.27 0.063c 0.054 0.036 0.126 0.063 0.207 0.063c 0.189 0 0.297 -0.171 0.405 -0.45c 0.135 -0.36 0.288 -0.675 0.639 -0.774v -0.027c -0.513 0 -0.81 -0.216 -1.035 -0.639l -0.405 -0.765c -0.153 -0.288 -0.243 -0.36 -0.594 -0.378c -0.054 -0.054 -0.054 -0.243 0 -0.297c 0.18 0.009 0.846 0.018 0.846 0.018Z "/></symbol><symbol id="g82C799C01D06EF19E125C6F4348D75CA" overflow="visible"><path d="M 0 0m 1.053 2.754l -0.054 -1.674c -0.027 -0.756 -0.162 -0.774 -0.684 -0.801c -0.054 -0.054 -0.054 -0.243 0 -0.297c 0.18 0.009 0.63 0.018 0.774 0.018c 0.18 0 0.603 -0.009 0.783 -0.018c 0.054 0.054 0.054 0.243 0 0.297c -0.513 0.036 -0.549 0.126 -0.531 0.801l 0.063 2.205c 0 0.081 0.036 0.081 0.072 0l 1.305 -3.186c 0.036 -0.027 0.072 -0.027 0.099 0l 1.476 3.177c 0.045 0.099 0.09 0.108 0.09 0l -0.009 -2.178c 0 -0.747 -0.063 -0.774 -0.612 -0.819c -0.054 -0.054 -0.054 -0.243 0 -0.297c 0.324 0.009 0.657 0.018 0.972 0.018c 0.27 0 0.657 -0.009 1.008 -0.018c 0.054 0.054 0.054 0.243 0 0.297c -0.549 0.036 -0.648 0.072 -0.648 0.819l -0.018 1.665c -0.009 0.747 0.099 0.774 0.648 0.819c 0.054 0.054 0.054 0.243 0 0.297c -0.315 -0.018 -1.188 -0.018 -1.485 -0.018l -1.197 -2.574l -0.045 -0.09l -0.036 0.09l -1.053 2.574c -0.297 0 -1.251 0 -1.566 0.018c -0.054 -0.054 -0.054 -0.243 0 -0.297c 0.549 -0.045 0.675 -0.081 0.648 -0.828Z "/></symbol><symbol id="g7815E2C79248546AAEE49EC7F57ADD4E" overflow="visible"><path d="M 0 0m 3.582 0.819c -0.036 0.081 -0.108 0.117 -0.189 0.126c -0.306 -0.396 -0.693 -0.594 -1.08 -0.594c -0.657 0 -1.206 0.666 -1.206 1.719c 0 0.99 0.432 1.584 1.026 1.584c 0.531 0 0.603 -0.315 0.639 -0.63c 0.027 -0.243 0.153 -0.324 0.342 -0.324c 0.189 0 0.441 0.117 0.441 0.396c 0 0.495 -0.513 0.855 -1.377 0.855c -0.891 0 -1.845 -0.801 -1.845 -2.079c 0 -1.161 0.648 -1.962 1.782 -1.962c 0.54 0 1.017 0.171 1.467 0.909Z "/></symbol><symbol id="g611C332DF318E3AAFADBD04F1094DD79" overflow="visible"><path d="M 0 0m 1.638 1.098c 0 -0.747 -0.099 -0.792 -0.648 -0.819c -0.054 -0.054 -0.054 -0.243 0 -0.297c 0.351 0.009 0.711 0.018 1.008 0.018c 0.306 0 0.657 -0.009 0.999 -0.018c 0.054 0.054 0.054 0.243 0 0.297c -0.549 0.027 -0.648 0.072 -0.648 0.819v 2.43h 0.153c 0.729 0 0.873 -0.252 1.026 -0.981c 0.117 0 0.234 0.036 0.234 0.036c -0.054 0.414 -0.09 0.81 -0.099 1.332c -0.207 -0.018 -0.882 -0.054 -1.332 -0.054h -0.675c -0.45 0 -0.954 0.027 -1.314 0.054c -0.009 -0.522 -0.045 -0.918 -0.108 -1.332c 0 0 0.126 -0.036 0.243 -0.036c 0.153 0.729 0.288 0.981 1.026 0.981h 0.135Z "/></symbol><symbol id="gD351E21AD091924D522A6D2D6355C932" overflow="visible"><path d="M 0 0m 3.474 0.837c -0.333 -0.342 -0.594 -0.486 -1.116 -0.486c -0.324 0 -0.702 0.189 -0.981 0.648c -0.18 0.297 -0.288 0.711 -0.288 1.233l 2.394 -0.018c 0.108 0 0.171 0.054 0.171 0.153c 0 0.756 -0.27 1.566 -1.521 1.566c -0.783 0 -1.8 -0.747 -1.8 -2.115c 0 -0.504 0.126 -0.99 0.423 -1.332c 0.306 -0.36 0.729 -0.576 1.377 -0.576c 0.684 0 1.17 0.315 1.53 0.783c -0.027 0.09 -0.081 0.135 -0.189 0.144Z m -2.358 1.701c 0.171 1.017 0.801 1.098 1.017 1.098c 0.342 0 0.747 -0.189 0.747 -0.945c 0 -0.081 -0.036 -0.126 -0.135 -0.126Z "/></symbol></defs></svg>