<svg viewBox="0 0 256.254220472 130.803149606" width="256.254220472pt" height="130.803149606pt" xmlns="http://www.w3.org/2000/svg" xmlns:xlink="http://www.w3.org/1999/xlink" xmlns:h5="http://www.w3.org/1999/xhtml"><path fill="#ffffff" fill-rule="nonzero" d="M 0 0v 130.803149606h 256.254220472v -130.803149606Z "/><g transform="translate(8 8)"><path fill="#c9a24b" fill-rule="nonzero" transform="translate(7.937007874 6.519685039)" d="M 0 0m 6.236220472 0c -3.441046677 0 -6.236220472 2.795173795 -6.236220472 6.236220472c 0 3.441046677 2.795173795 6.236220472 6.236220472 6.236220472c 3.441046677 0 6.236220472 -2.795173795 6.236220472 -6.236220472c 0 -3.441046677 -2.795173795 -6.236220472 -6.236220472 -6.236220472Z "/><path fill="none" stroke="#c9a24b" stroke-width="0.8" stroke-linecap="butt" stroke-linejoin="miter" stroke-miterlimit="4" transform="translate(22.677165354 12.755905512)" d="M 0 0h 4.251968504"/><path fill="none" stroke="#c9a24b" stroke-width="0.8" stroke-linecap="butt" stroke-linejoin="miter" stroke-miterlimit="4" transform="translate(20.186423861 3.736124208)" d="M 0 0m 0 3.006593768l 3.006597757 -3.006593768"/><path fill="none" stroke="#c9a24b" stroke-width="0.8" stroke-linecap="butt" stroke-linejoin="miter" stroke-miterlimit="4" transform="translate(14.173239629)" d="M 0 0m 0 4.251968504l 5.641e-6 -4.251968504"/><path fill="none" stroke="#c9a24b" stroke-width="0.8" stroke-linecap="butt" stroke-linejoin="miter" stroke-miterlimit="4" transform="translate(5.15345901 3.736100273)" d="M 0 0m 3.006589779 3.006601746l -3.006589779 -3.006601746"/><path fill="none" stroke="#c9a24b" stroke-width="0.8" stroke-linecap="butt" stroke-linejoin="miter" stroke-miterlimit="4" transform="translate(1.417322835 12.755871663)" d="M 0 0m 4.251968504 0.000011283l -4.251968504 -0.000011283"/><path fill="none" stroke="#c9a24b" stroke-width="0.8" stroke-linecap="butt" stroke-linejoin="miter" stroke-miterlimit="4" transform="translate(5.15341114 18.769077091)" d="M 0 0m 3.006605735 0l -3.006605735 3.00658579"/><path fill="none" stroke="#c9a24b" stroke-width="0.8" stroke-linecap="butt" stroke-linejoin="miter" stroke-miterlimit="4" transform="translate(14.173177573 21.25984252)" d="M 0 0m 0.000016924 0l -0.000016924 4.251968504"/><path fill="none" stroke="#c9a24b" stroke-width="0.8" stroke-linecap="butt" stroke-linejoin="miter" stroke-miterlimit="4" transform="translate(20.186391947 18.769124961)" d="M 0 0l 3.006581801 3.006609724"/><path fill="none" stroke="#1a1a18" stroke-width="0.8" stroke-linecap="butt" stroke-linejoin="miter" stroke-miterlimit="4" transform="translate(39.68503937 15.590551181)" d="M 0 0h 27.207256194"/><path fill="#1a1a18" fill-rule="nonzero" stroke="#1a1a18" stroke-width="0.8" stroke-linecap="butt" stroke-linejoin="miter" stroke-miterlimit="4" transform="translate(66.892295622 13.464566929)" d="M 0 0m 5.669291339 2.125984252l -5.669291339 2.125984252v -4.251968504l 5.669291339 2.125984252Z "/><path fill="none" transform="translate(47.929163386 6.009330709)" d="M 0 0h 17.5275v 6.69h -17.5275v -6.69Z "/><g transform="translate(47.929163386 6.009330614)"><g transform="matrix(1 0 0 -1 0 4.935)"><use xlink:href="#g16EB0E76256A1564D6F72B0EC768AD0D" x="0" y="0" fill="#7c7f6a" fill-rule="nonzero"/><use xlink:href="#g3036A15D0A2AECE5F3220ADA73EBBEB6" x="3.5925" y="0" fill="#7c7f6a" fill-rule="nonzero"/><use xlink:href="#gEEA2F4BC857577D5A54B2015EAE5E394" x="6.945" y="0" fill="#7c7f6a" fill-rule="nonzero"/><use xlink:href="#g3036A15D0A2AECE5F3220ADA73EBBEB6" x="10.2825" y="0" fill="#7c7f6a" fill-rule="nonzero"/><use xlink:href="#gC597D586C3D65B86B3D3351D5EC36C5C" x="13.635" y="0" fill="#7c7f6a" fill-rule="nonzero"/></g></g><path fill="#ccc8c0" fill-rule="nonzero" stroke="#1a1a18" stroke-width="0.6" stroke-linecap="butt" stroke-linejoin="miter" stroke-miterlimit="4" transform="translate(0 21.25984252)" d="M 0 0v 31.181102362h 141.732283465v -31.181102362h -141.732283465Z "/><path fill="#aaac9e" fill-rule="nonzero" stroke="#1a1a18" stroke-width="0.6" stroke-linecap="butt" stroke-linejoin="miter" stroke-miterlimit="4" transform="translate(0 52.440944882)" d="M 0 0v 11.338582677h 141.732283465v -11.338582677h -141.732283465Z "/><path fill="#868976" fill-rule="nonzero" stroke="#1a1a18" stroke-width="0.6" stroke-linecap="butt" stroke-linejoin="miter" stroke-miterlimit="4" transform="translate(0 63.779527559)" d="M 0 0v 51.023622047h 141.732283465v -51.023622047h -141.732283465Z "/><path fill="none" stroke="#1a1a18" stroke-width="0.6" stroke-linecap="butt" stroke-linejoin="miter" stroke-miterlimit="4" transform="translate(0 21.25984252)" d="M 0 0v 93.543307087h 141.732283465v -93.543307087h -141.732283465Z "/><path fill="none" transform="translate(150.236220472 33.835393701)" d="M 0 0h 90.018v 6.03h -90.018v -6.03Z "/><g transform="translate(150.236220331 33.835393559)"><g transform="matrix(1 0 0 -1 0 5.922)"><use xlink:href="#g1F9714CC671652C524E18E6C36ACD39E" x="0" y="0" fill="#1a1a18" fill-rule="nonzero"/><use xlink:href="#gA5834380700F55B3689219A2CC4667E3" x="4.086" y="0" fill="#1a1a18" fill-rule="nonzero"/><use xlink:href="#g6EA5A1981697E2B5E95285C58F7F7AD0" x="9.36" y="0" fill="#1a1a18" fill-rule="nonzero"/><use xlink:href="#gB118266EF18AECCCCEF724ECE6F3D1D3" x="14.634" y="0" fill="#1a1a18" fill-rule="nonzero"/><use xlink:href="#g6EA5A1981697E2B5E95285C58F7F7AD0" x="19.377" y="0" fill="#1a1a18" fill-rule="nonzero"/><use xlink:href="#g82C799C01D06EF19E125C6F4348D75CA" x="24.651" y="0" fill="#1a1a18" fill-rule="nonzero"/><use xlink:href="#g5F2B105DCE44482CD07DFE0B4651B637" x="30.771" y="0" fill="#1a1a18" fill-rule="nonzero"/><use xlink:href="#g6EA5A1981697E2B5E95285C58F7F7AD0" x="36.045" y="0" fill="#1a1a18" fill-rule="nonzero"/><use xlink:href="#g7253BD4F4A12C91ABC7B03558525FA66" x="41.319" y="0" fill="#1a1a18" fill-rule="nonzero"/><use xlink:href="#g5F2B105DCE44482CD07DFE0B4651B637" x="45.855" y="0" fill="#1a1a18" fill-rule="nonzero"/><use xlink:href="#gC2C076AB3ECA9A03424C2ACD72A67952" x="53.379" y="0" fill="#1a1a18" fill-rule="nonzero"/><use xlink:href="#g1C0AA09C88C242CF299E410BACB4170A" x="57.879" y="0" fill="#1a1a18" fill-rule="nonzero"/><use xlink:href="#g75AAF25DAC5F6DB189268F229776135" x="62.064" y="0" fill="#1a1a18" fill-rule="nonzero"/><use xlink:href="#g1201FDEDE6B3E76CC48B79F788E1B641" x="66.249" y="0" fill="#1a1a18" fill-rule="nonzero"/><use xlink:href="#g847357BB8876AF51969CA80692415844" x="71.181" y="0" fill="#1a1a18" fill-rule="nonzero"/><use xlink:href="#g847357BB8876AF51969CA80692415844" x="75.366" y="0" fill="#1a1a18" fill-rule="nonzero"/><use xlink:href="#gE9041395563AE9EADFBC2CE0C4683FD7" x="81.801" y="0" fill="#1a1a18" fill-rule="nonzero"/></g><g transform="matrix(1 0 0 -1 84.204 5.922)"><use xlink:href="#gC375F277B20C2526627B56EF0039913" x="0" y="0" fill="#1a1a18" fill-rule="nonzero"/></g></g><path fill="none" transform="translate(150.236220472 54.09623622)" d="M 0 0h 78.543v 8.028h -78.543v -8.028Z "/><g transform="translate(150.236220472 54.09623622)"><g transform="matrix(1 0 0 -1 0 5.922)"><use xlink:href="#g611C332DF318E3AAFADBD04F1094DD79" x="0" y="0" fill="#7c7f6a" fill-rule="nonzero"/><use xlink:href="#gD351E21AD091924D522A6D2D6355C932" x="4.005" y="0" fill="#7c7f6a" fill-rule="nonzero"/><use xlink:href="#g4AD90A9068D018AD3CEC8FD5EA9519DC" x="8.028" y="0" fill="#7c7f6a" fill-rule="nonzero"/><use xlink:href="#g82C799C01D06EF19E125C6F4348D75CA" x="12.699" y="0" fill="#7c7f6a" fill-rule="nonzero"/><use xlink:href="#g7253BD4F4A12C91ABC7B03558525FA66" x="18.819" y="0" fill="#7c7f6a" fill-rule="nonzero"/><use xlink:href="#gAE9E23F53692F92B7B295E455DF99330" x="23.355" y="0" fill="#7c7f6a" fill-rule="nonzero"/><use xlink:href="#gB118266EF18AECCCCEF724ECE6F3D1D3" x="27.873" y="0" fill="#7c7f6a" fill-rule="nonzero"/><use xlink:href="#g6EA5A1981697E2B5E95285C58F7F7AD0" x="32.616" y="0" fill="#7c7f6a" fill-rule="nonzero"/><use xlink:href="#g5F2B105DCE44482CD07DFE0B4651B637" x="37.89" y="0" fill="#7c7f6a" fill-rule="nonzero"/><use xlink:href="#gC2C076AB3ECA9A03424C2ACD72A67952" x="45.414" y="0" fill="#7c7f6a" fill-rule="nonzero"/><use xlink:href="#gC4FFD6D898D35AD5608C7546EA3EA454" x="49.914" y="0" fill="#7c7f6a" fill-rule="nonzero"/><use xlink:href="#g1C0AA09C88C242CF299E410BACB4170A" x="54.864" y="0" fill="#7c7f6a" fill-rule="nonzero"/><use xlink:href="#gE9041395563AE9EADFBC2CE0C4683FD7" x="61.299" y="0" fill="#7c7f6a" fill-rule="nonzero"/></g><g transform="matrix(1 0 0 -1 63.702 5.922)"><use xlink:href="#gC375F277B20C2526627B56EF0039913" x="0" y="0" fill="#7c7f6a" fill-rule="nonzero"/><use xlink:href="#g24B182CA880AE0D931C8BD78C19DF3C1" x="5.814" y="0" fill="#7c7f6a" fill-rule="nonzero"/></g><g transform="matrix(1 0 0 -1 72.423 5.922)"><use xlink:href="#g82C799C01D06EF19E125C6F4348D75CA" x="0" y="0" fill="#7c7f6a" fill-rule="nonzero"/></g></g><path fill="none" transform="translate(150.236220472 86.276338583)" d="M 0 0h 85.842v 6.03h -85.842v -6.03Z "/><g transform="translate(150.236220472 86.276338441)"><g transform="matrix(1 0 0 -1 0 5.922)"><use xlink:href="#g4AE5337A4A3FF09E9A9AF89B4B83FC9D" x="0" y="0" fill="#1a1a18" fill-rule="nonzero"/><use xlink:href="#g6EA5A1981697E2B5E95285C58F7F7AD0" x="3.744" y="0" fill="#1a1a18" fill-rule="nonzero"/><use xlink:href="#gA5834380700F55B3689219A2CC4667E3" x="9.018" y="0" fill="#1a1a18" fill-rule="nonzero"/><use xlink:href="#g7253BD4F4A12C91ABC7B03558525FA66" x="14.292" y="0" fill="#1a1a18" fill-rule="nonzero"/><use xlink:href="#gB118266EF18AECCCCEF724ECE6F3D1D3" x="18.828" y="0" fill="#1a1a18" fill-rule="nonzero"/><use xlink:href="#g6EA5A1981697E2B5E95285C58F7F7AD0" x="23.571" y="0" fill="#1a1a18" fill-rule="nonzero"/><use xlink:href="#g82C799C01D06EF19E125C6F4348D75CA" x="28.845" y="0" fill="#1a1a18" fill-rule="nonzero"/><use xlink:href="#g5F2B105DCE44482CD07DFE0B4651B637" x="34.965" y="0" fill="#1a1a18" fill-rule="nonzero"/><use xlink:href="#g6EA5A1981697E2B5E95285C58F7F7AD0" x="40.239" y="0" fill="#1a1a18" fill-rule="nonzero"/><use xlink:href="#g7253BD4F4A12C91ABC7B03558525FA66" x="45.513" y="0" fill="#1a1a18" fill-rule="nonzero"/><use xlink:href="#g5F2B105DCE44482CD07DFE0B4651B637" x="50.049" y="0" fill="#1a1a18" fill-rule="nonzero"/><use xlink:href="#gC2C076AB3ECA9A03424C2ACD72A67952" x="57.573" y="0" fill="#1a1a18" fill-rule="nonzero"/><use xlink:href="#gD11A58C3A3B421C2056FF05E75045811" x="62.073" y="0" fill="#1a1a18" fill-rule="nonzero"/><use xlink:href="#g1201FDEDE6B3E76CC48B79F788E1B641" x="66.258" y="0" fill="#1a1a18" fill-rule="nonzero"/><use xlink:href="#g7427B35904D8106763807ACF831A9726" x="71.19" y="0" fill="#1a1a18" fill-rule="nonzero"/><use xlink:href="#gE9041395563AE9EADFBC2CE0C4683FD7" x="77.625" y="0" fill="#1a1a18" fill-rule="nonzero"/></g><g transform="matrix(1 0 0 -1 80.028 5.922)"><use xlink:href="#gC375F277B20C2526627B56EF0039913" x="0" y="0" fill="#1a1a18" fill-rule="nonzero"/></g></g></g><defs><symbol id="g16EB0E76256A1564D6F72B0EC768AD0D" overflow="visible"><path d="M 0 0m 1.095 3.2175c -0.3225 0 -0.585 0.0075 -0.8325 0.015c -0.045 -0.045 -0.045 -0.2025 0 -0.2475c 0.4575 -0.03 0.54 -0.06 0.54 -0.6825v -1.3875c 0 -0.6225 -0.0825 -0.645 -0.54 -0.6825c -0.045 -0.045 -0.045 -0.2025 0 -0.2475c 0.2475 0.0075 0.51 0.015 0.84 0.015c 0.2775 0 0.525 -0.015 1.0275 -0.015c 0.645 0 1.1325 0.18 1.1325 0.9225c 0 0.42 -0.2625 0.7125 -0.72 0.795v 0.0225c 0.345 0.0675 0.6075 0.3075 0.6075 0.7575c 0 0.525 -0.3225 0.75 -1.23 0.75c -0.3075 0 -0.5025 -0.015 -0.825 -0.015Z m 0.3 -1.59h 0.57c 0.4575 0 0.6525 -0.3 0.6525 -0.75c 0 -0.5025 -0.285 -0.645 -0.69 -0.645c -0.39 0 -0.5325 0.0675 -0.5325 0.4125Z m 0 0.2175v 0.87c 0 0.225 0.1725 0.27 0.5325 0.27c 0.39 0 0.6225 -0.105 0.6225 -0.555c 0 -0.3 -0.195 -0.585 -0.66 -0.585Z "/></symbol><symbol id="g3036A15D0A2AECE5F3220ADA73EBBEB6" overflow="visible"><path d="M 0 0m 2.895 0.6975c -0.2775 -0.285 -0.495 -0.405 -0.93 -0.405c -0.27 0 -0.585 0.1575 -0.8175 0.54c -0.15 0.2475 -0.24 0.5925 -0.24 1.0275l 1.995 -0.015c 0.09 0 0.1425 0.045 0.1425 0.1275c 0 0.63 -0.225 1.305 -1.2675 1.305c -0.6525 0 -1.5 -0.6225 -1.5 -1.7625c 0 -0.42 0.105 -0.825 0.3525 -1.11c 0.255 -0.3 0.6075 -0.48 1.1475 -0.48c 0.57 0 0.975 0.2625 1.275 0.6525c -0.0225 0.075 -0.0675 0.1125 -0.1575 0.12Z m -1.965 1.4175c 0.1425 0.8475 0.6675 0.915 0.8475 0.915c 0.285 0 0.6225 -0.1575 0.6225 -0.7875c 0 -0.0675 -0.03 -0.105 -0.1125 -0.105Z "/></symbol><symbol id="gEEA2F4BC857577D5A54B2015EAE5E394" overflow="visible"><path d="M 0 0m 1.365 0.915c 0 -0.6225 -0.0825 -0.66 -0.54 -0.6825c -0.045 -0.045 -0.045 -0.2025 0 -0.2475c 0.2925 0.0075 0.5925 0.015 0.84 0.015c 0.255 0 0.5475 -0.0075 0.8325 -0.015c 0.045 0.045 0.045 0.2025 0 0.2475c -0.4575 0.0225 -0.54 0.06 -0.54 0.6825v 2.025h 0.1275c 0.6075 0 0.7275 -0.21 0.855 -0.8175c 0.0975 0 0.195 0.03 0.195 0.03c -0.045 0.345 -0.075 0.675 -0.0825 1.11c -0.1725 -0.015 -0.735 -0.045 -1.11 -0.045h -0.5625c -0.375 0 -0.795 0.0225 -1.095 0.045c -0.0075 -0.435 -0.0375 -0.765 -0.09 -1.11c 0 0 0.105 -0.03 0.2025 -0.03c 0.1275 0.6075 0.24 0.8175 0.855 0.8175h 0.1125Z "/></symbol><symbol id="gC597D586C3D65B86B3D3351D5EC36C5C" overflow="visible"><path d="M 0 0m 1.17 2.76c -0.0075 0.225 -0.0225 0.42 -0.06 0.495c -0.015 0.0375 -0.03 0.06 -0.09 0.06c -0.21 -0.0825 -0.405 -0.15 -0.9225 -0.2175c -0.015 -0.045 0 -0.165 0.015 -0.21c 0.405 -0.0375 0.4875 -0.075 0.4875 -0.51v -3.2025c 0 -0.6225 -0.0825 -0.66 -0.54 -0.6825c -0.045 -0.045 -0.045 -0.2025 0 -0.2475c 0.2625 0.0075 0.54 0.015 0.84 0.015c 0.3 0 0.66 -0.0075 0.9075 -0.015c 0.045 0.045 0.045 0.2025 0 0.2475c -0.5325 0.03 -0.615 0.06 -0.615 0.6825v 0.81c 0 0.0975 0.03 0.09 0.105 0.06c 0.1875 -0.075 0.4125 -0.12 0.6525 -0.12c 0.42 0 0.795 0.1275 1.1025 0.42c 0.3525 0.345 0.555 0.81 0.555 1.4175c 0 0.795 -0.5625 1.53 -1.3275 1.53c -0.345 0 -0.7275 -0.225 -1.0275 -0.5625c -0.045 -0.045 -0.075 -0.045 -0.0825 0.03Z m 0.1425 -0.2775c 0.195 0.24 0.54 0.465 0.7575 0.465c 0.48 0 0.8925 -0.54 0.8925 -1.3875c 0 -0.615 -0.2175 -1.38 -1.0575 -1.38c -0.135 0 -0.3975 0.0375 -0.5325 0.1575c -0.15 0.135 -0.18 0.18 -0.18 0.45v 1.365c 0 0.1575 0.03 0.225 0.12 0.33Z "/></symbol><symbol id="g1F9714CC671652C524E18E6C36ACD39E" overflow="visible"><path d="M 0 0m 0.423 0.738c 0 -0.477 0.675 -0.828 1.539 -0.828c 0.936 0 1.8 0.63 1.8 2.079c 0 1.089 -0.495 1.962 -1.809 1.962c -0.45 0 -0.918 -0.135 -1.386 -0.171c -0.045 -0.342 -0.063 -0.711 -0.081 -1.08c 0.072 -0.045 0.144 -0.054 0.234 -0.036c 0.162 0.576 0.459 0.972 1.161 0.972c 0.756 0 1.125 -0.738 1.125 -1.566l -0.027 -0.018c -0.243 0.144 -0.495 0.252 -0.774 0.252c -0.207 0 -0.387 -0.063 -0.549 -0.135c -0.144 -0.063 -0.288 -0.117 -0.45 -0.117c -0.126 0 -0.243 0.054 -0.306 0.054c -0.054 0 -0.072 -0.09 -0.072 -0.126c 0 -0.126 0.441 -0.288 0.846 -0.288c 0.216 0 0.378 0.045 0.522 0.108c 0.126 0.054 0.261 0.09 0.432 0.09c 0.126 0 0.243 -0.036 0.36 -0.081c 0 -1.071 -0.333 -1.584 -1.134 -1.584c -0.378 0 -0.594 0.198 -0.711 0.441c -0.135 0.288 -0.261 0.333 -0.423 0.333c -0.171 0 -0.297 -0.117 -0.297 -0.261Z "/></symbol><symbol id="gA5834380700F55B3689219A2CC4667E3" overflow="visible"><path d="M 0 0m 3.933 3.861h -2.556c -0.36 0 -0.702 0.009 -0.972 0.018c -0.054 -0.054 -0.054 -0.243 0 -0.297c 0.495 -0.036 0.612 -0.081 0.612 -0.819v -1.665c 0 -0.738 -0.117 -0.783 -0.702 -0.819c -0.054 -0.054 -0.054 -0.243 0 -0.297c 0.27 0.009 0.702 0.018 1.062 0.018c 0.36 0 0.63 -0.009 0.9 -0.018c 0.054 0.054 0.054 0.243 0 0.297c -0.459 0.045 -0.549 0.081 -0.549 0.819v 1.953c 0 0.279 0.027 0.459 0.378 0.459h 1.089c 0.333 0 0.387 -0.099 0.387 -0.459v -1.953c 0 -0.738 -0.09 -0.783 -0.558 -0.819c -0.045 -0.054 -0.045 -0.243 0 -0.297c 0.225 0.009 0.558 0.018 0.918 0.018c 0.36 0 0.765 -0.009 1.017 -0.018c 0.045 0.054 0.045 0.243 0 0.297c -0.585 0.036 -0.666 0.081 -0.666 0.819v 1.665c 0 0.738 0.117 0.783 0.612 0.819c 0.054 0.054 0.054 0.243 0 0.297c -0.27 -0.009 -0.612 -0.018 -0.972 -0.018Z "/></symbol><symbol id="g6EA5A1981697E2B5E95285C58F7F7AD0" overflow="visible"><path d="M 0 0m 1.782 0.567c -0.027 0 -0.063 0.018 -0.063 0.108v 2.052c 0 0.747 0.189 0.828 0.648 0.855c 0.054 0.054 0.054 0.243 0 0.297c -0.207 -0.009 -0.72 -0.018 -1.053 -0.018c -0.297 0 -0.657 0.009 -0.999 0.018c -0.054 -0.054 -0.054 -0.243 0 -0.297c 0.549 -0.027 0.693 -0.108 0.693 -0.855v -1.593c 0 -0.747 -0.144 -0.828 -0.693 -0.855c -0.054 -0.054 -0.054 -0.243 0 -0.297c 0.351 0.009 0.711 0.018 0.999 0.018c 0.207 0 0.45 -0.009 0.549 -0.018c 0.045 0.126 0.126 0.306 0.225 0.486l 1.404 2.817c 0.027 0 0.063 -0.018 0.063 -0.108v -2.043c 0 -0.747 -0.189 -0.828 -0.648 -0.855c -0.054 -0.054 -0.054 -0.243 0 -0.297c 0.207 0.009 0.693 0.018 1.053 0.018c 0.279 0 0.648 -0.009 0.999 -0.018c 0.054 0.054 0.054 0.243 0 0.297c -0.549 0.027 -0.693 0.108 -0.693 0.855v 1.593c 0 0.747 0.144 0.828 0.693 0.855c 0.054 0.054 0.054 0.243 0 0.297c -0.36 -0.009 -0.72 -0.018 -0.999 -0.018c -0.198 0 -0.45 0.009 -0.54 0.018c -0.072 -0.162 -0.153 -0.351 -0.234 -0.504Z "/></symbol><symbol id="gB118266EF18AECCCCEF724ECE6F3D1D3" overflow="visible"><path d="M 0 0m 3.762 1.098v 1.665c 0 0.738 0.117 0.783 0.612 0.819c 0.054 0.054 0.054 0.243 0 0.297c -0.27 -0.009 -0.612 -0.018 -0.972 -0.018h -1.701c -0.297 0 -0.648 0.009 -0.918 0.018c -0.054 -0.054 -0.054 -0.243 0 -0.297c 0.639 -0.045 0.729 -0.099 0.729 -1.071c 0 -0.945 -0.072 -1.44 -0.198 -1.809c -0.117 -0.324 -0.27 -0.441 -0.423 -0.441c -0.117 0 -0.153 0.072 -0.171 0.189c -0.027 0.171 -0.081 0.342 -0.333 0.342c -0.225 0 -0.351 -0.18 -0.351 -0.378c 0 -0.279 0.252 -0.522 0.666 -0.522c 0.459 0 0.711 0.234 0.918 0.72c 0.18 0.432 0.234 1.35 0.234 1.962c 0 0.702 0.027 0.936 0.387 0.936h 0.405c 0.342 0 0.405 -0.216 0.405 -0.522v -1.89c 0 -0.738 -0.09 -0.783 -0.558 -0.819c -0.045 -0.054 -0.045 -0.243 0 -0.297c 0.225 0.009 0.558 0.018 0.918 0.018c 0.36 0 0.765 -0.009 1.017 -0.018c 0.045 0.054 0.045 0.243 0 0.297c -0.585 0.036 -0.666 0.081 -0.666 0.819Z "/></symbol><symbol id="g82C799C01D06EF19E125C6F4348D75CA" overflow="visible"><path d="M 0 0m 1.053 2.754l -0.054 -1.674c -0.027 -0.756 -0.162 -0.774 -0.684 -0.801c -0.054 -0.054 -0.054 -0.243 0 -0.297c 0.18 0.009 0.63 0.018 0.774 0.018c 0.18 0 0.603 -0.009 0.783 -0.018c 0.054 0.054 0.054 0.243 0 0.297c -0.513 0.036 -0.549 0.126 -0.531 0.801l 0.063 2.205c 0 0.081 0.036 0.081 0.072 0l 1.305 -3.186c 0.036 -0.027 0.072 -0.027 0.099 0l 1.476 3.177c 0.045 0.099 0.09 0.108 0.09 0l -0.009 -2.178c 0 -0.747 -0.063 -0.774 -0.612 -0.819c -0.054 -0.054 -0.054 -0.243 0 -0.297c 0.324 0.009 0.657 0.018 0.972 0.018c 0.27 0 0.657 -0.009 1.008 -0.018c 0.054 0.054 0.054 0.243 0 0.297c -0.549 0.036 -0.648 0.072 -0.648 0.819l -0.018 1.665c -0.009 0.747 0.099 0.774 0.648 0.819c 0.054 0.054 0.054 0.243 0 0.297c -0.315 -0.018 -1.188 -0.018 -1.485 -0.018l -1.197 -2.574l -0.045 -0.09l -0.036 0.09l -1.053 2.574c -0.297 0 -1.251 0 -1.566 0.018c -0.054 -0.054 -0.054 -0.243 0 -0.297c 0.549 -0.045 0.675 -0.081 0.648 -0.828Z "/></symbol><symbol id="g5F2B105DCE44482CD07DFE0B4651B637" overflow="visible"><path d="M 0 0m 4.311 2.763c 0 0.747 0.099 0.774 0.648 0.819c 0.054 0.054 0.054 0.243 0 0.297c -0.315 -0.018 -0.711 -0.018 -1.008 -0.018c -0.252 0 -0.612 0.009 -0.963 0.018c -0.054 -0.054 -0.054 -0.243 0 -0.297c 0.549 -0.036 0.612 -0.072 0.612 -0.819v -0.585h -1.926v 0.585c 0 0.747 0.063 0.774 0.612 0.819c 0.054 0.054 0.054 0.243 0 0.297c -0.342 -0.009 -0.684 -0.018 -0.972 -0.018c -0.27 0 -0.639 0.009 -0.999 0.018c -0.054 -0.054 -0.054 -0.243 0 -0.297c 0.549 -0.036 0.648 -0.072 0.648 -0.819v -1.665c 0 -0.747 -0.099 -0.774 -0.648 -0.819c -0.054 -0.054 -0.054 -0.243 0 -0.297c 0.36 0.009 0.72 0.018 1.008 0.018c 0.288 0 0.639 -0.009 0.963 -0.018c 0.054 0.054 0.054 0.243 0 0.297c -0.549 0.036 -0.612 0.072 -0.612 0.819v 0.783h 1.926v -0.783c 0 -0.747 -0.063 -0.774 -0.612 -0.819c -0.054 -0.054 -0.054 -0.243 0 -0.297c 0.324 0.009 0.657 0.018 0.972 0.018c 0.27 0 0.648 -0.009 0.999 -0.018c 0.054 0.054 0.054 0.243 0 0.297c -0.549 0.036 -0.648 0.072 -0.648 0.819Z "/></symbol><symbol id="g7253BD4F4A12C91ABC7B03558525FA66" overflow="visible"><path d="M 0 0m 0.369 1.845c 0 -0.918 0.612 -1.935 1.89 -1.935c 0.576 0 1.017 0.207 1.323 0.504c 0.405 0.396 0.585 0.963 0.585 1.512c 0 0.936 -0.513 2.025 -1.89 2.025c -0.594 0 -1.08 -0.243 -1.413 -0.63c -0.324 -0.387 -0.495 -0.909 -0.495 -1.476Z m 1.773 1.791c 0.774 0 1.251 -0.702 1.251 -1.998c 0 -1.134 -0.585 -1.413 -1.008 -1.413c -0.936 0 -1.242 1.134 -1.242 1.827c 0 0.783 0.189 1.584 0.999 1.584Z "/></symbol><symbol id="gC2C076AB3ECA9A03424C2ACD72A67952" overflow="visible"><path d="M 0 0m 1.125 1.791c 0.252 0 0.486 0.234 0.486 0.486c 0 0.252 -0.234 0.486 -0.486 0.486c -0.252 0 -0.486 -0.234 -0.486 -0.486c 0 -0.252 0.234 -0.486 0.486 -0.486Z "/></symbol><symbol id="g1C0AA09C88C242CF299E410BACB4170A" overflow="visible"><path d="M 0 0m 2.592 1.098v 3.123c 0 0.54 0.009 1.089 0.027 1.206c 0 0.045 -0.018 0.045 -0.054 0.045c -0.495 -0.306 -0.972 -0.531 -1.764 -0.9c 0.018 -0.099 0.054 -0.189 0.135 -0.243c 0.414 0.171 0.612 0.225 0.783 0.225c 0.153 0 0.18 -0.216 0.18 -0.522v -2.934c 0 -0.747 -0.243 -0.792 -0.873 -0.819c -0.054 -0.054 -0.054 -0.243 0 -0.297c 0.441 0.009 0.765 0.018 1.251 0.018c 0.432 0 0.648 -0.009 1.098 -0.018c 0.054 0.054 0.054 0.243 0 0.297c -0.63 0.027 -0.783 0.072 -0.783 0.819Z "/></symbol><symbol id="g75AAF25DAC5F6DB189268F229776135" overflow="visible"><path d="M 0 0m 3.537 4.365c 0 0.648 -0.504 1.125 -1.386 1.125c -0.918 0 -1.512 -0.549 -1.512 -1.242c 0 -0.504 0.243 -0.873 0.792 -1.215l 0.234 -0.144c -0.261 -0.135 -0.504 -0.297 -0.729 -0.495c -0.369 -0.324 -0.522 -0.729 -0.522 -1.08c 0 -0.918 0.648 -1.404 1.602 -1.404c 1.179 0 1.755 0.864 1.755 1.548c 0 0.522 -0.225 0.981 -0.702 1.269l -0.639 0.387c 0.423 0.207 1.107 0.675 1.107 1.251Z m -1.503 -4.14c -0.405 0 -1.017 0.279 -1.017 1.089c 0 0.27 0.117 0.9 0.891 1.413l 0.423 -0.252c 0.558 -0.342 0.783 -0.765 0.783 -1.197c 0 -0.9 -0.675 -1.053 -1.08 -1.053Z m 0.072 4.95c 0.585 0 0.801 -0.387 0.801 -0.801c 0 -0.486 -0.477 -0.891 -0.72 -1.071l -0.279 0.171c -0.567 0.369 -0.63 0.666 -0.63 0.945c 0 0.414 0.288 0.756 0.828 0.756Z "/></symbol><symbol id="g1201FDEDE6B3E76CC48B79F788E1B641" overflow="visible"><path d="M 0 0m 0.594 2.142h 3.636c 0.117 0 0.234 0.18 0.234 0.288c 0 0.081 -0.027 0.153 -0.126 0.153h -3.636c -0.108 0 -0.234 -0.18 -0.234 -0.288c 0 -0.072 0.027 -0.153 0.126 -0.153Z "/></symbol><symbol id="g847357BB8876AF51969CA80692415844" overflow="visible"><path d="M 0 0m 0.549 4.212c 0 -0.189 0.171 -0.351 0.36 -0.351c 0.153 0 0.423 0.162 0.423 0.36c 0 0.072 -0.018 0.126 -0.036 0.189c -0.018 0.063 -0.072 0.144 -0.072 0.216c 0 0.225 0.234 0.549 0.891 0.549c 0.324 0 0.783 -0.225 0.783 -1.089c 0 -0.576 -0.207 -1.044 -0.738 -1.584l -0.666 -0.657c -0.882 -0.9 -1.026 -1.332 -1.026 -1.863c 0 0 0.459 0.018 0.747 0.018h 1.575c 0.288 0 0.702 -0.018 0.702 -0.018c 0.117 0.477 0.207 1.152 0.216 1.422c -0.054 0.045 -0.171 0.063 -0.261 0.045c -0.153 -0.639 -0.306 -0.864 -0.63 -0.864h -1.602c 0 0.432 0.621 1.044 0.666 1.089l 0.909 0.873c 0.513 0.495 0.9 0.891 0.9 1.575c 0 0.972 -0.792 1.368 -1.521 1.368c -0.999 0 -1.62 -0.738 -1.62 -1.278Z "/></symbol><symbol id="gE9041395563AE9EADFBC2CE0C4683FD7" overflow="visible"><path d="M 0 0m 0.306 4.581c 0 -0.495 0.405 -0.9 0.9 -0.9c 0.495 0 0.891 0.405 0.891 0.9c 0 0.504 -0.396 0.909 -0.891 0.909c -0.495 0 -0.9 -0.405 -0.9 -0.909Z m 1.485 -0.009c 0 -0.306 -0.216 -0.621 -0.585 -0.621c -0.378 0 -0.594 0.306 -0.594 0.621c 0 0.324 0.207 0.648 0.594 0.648c 0.405 0 0.585 -0.351 0.585 -0.648Z "/></symbol><symbol id="gC375F277B20C2526627B56EF0039913" overflow="visible"><path d="M 0 0m 3.213 -0.09c 0.873 0 1.674 0.414 2.286 1.215c -0.045 0.081 -0.108 0.135 -0.207 0.135c -0.639 -0.702 -1.251 -0.981 -2.088 -0.981c -1.215 0 -2.052 1.368 -2.052 2.682c 0 0.774 0.207 1.422 0.531 1.827c 0.45 0.549 0.972 0.801 1.44 0.801c 1.242 0 1.737 -0.738 1.971 -1.512c 0.108 -0.036 0.198 -0.009 0.297 0.045c -0.045 0.468 -0.108 0.9 -0.198 1.395c -0.459 0.045 -0.864 0.405 -1.971 0.405c -0.765 0 -1.404 -0.279 -1.935 -0.765c -0.594 -0.549 -0.954 -1.431 -0.954 -2.367c 0 -1.566 0.945 -2.88 2.88 -2.88Z "/></symbol><symbol id="g611C332DF318E3AAFADBD04F1094DD79" overflow="visible"><path d="M 0 0m 1.638 1.098c 0 -0.747 -0.099 -0.792 -0.648 -0.819c -0.054 -0.054 -0.054 -0.243 0 -0.297c 0.351 0.009 0.711 0.018 1.008 0.018c 0.306 0 0.657 -0.009 0.999 -0.018c 0.054 0.054 0.054 0.243 0 0.297c -0.549 0.027 -0.648 0.072 -0.648 0.819v 2.43h 0.153c 0.729 0 0.873 -0.252 1.026 -0.981c 0.117 0 0.234 0.036 0.234 0.036c -0.054 0.414 -0.09 0.81 -0.099 1.332c -0.207 -0.018 -0.882 -0.054 -1.332 -0.054h -0.675c -0.45 0 -0.954 0.027 -1.314 0.054c -0.009 -0.522 -0.045 -0.918 -0.108 -1.332c 0 0 0.126 -0.036 0.243 -0.036c 0.153 0.729 0.288 0.981 1.026 0.981h 0.135Z "/></symbol><symbol id="gD351E21AD091924D522A6D2D6355C932" overflow="visible"><path d="M 0 0m 3.474 0.837c -0.333 -0.342 -0.594 -0.486 -1.116 -0.486c -0.324 0 -0.702 0.189 -0.981 0.648c -0.18 0.297 -0.288 0.711 -0.288 1.233l 2.394 -0.018c 0.108 0 0.171 0.054 0.171 0.153c 0 0.756 -0.27 1.566 -1.521 1.566c -0.783 0 -1.8 -0.747 -1.8 -2.115c 0 -0.504 0.126 -0.99 0.423 -1.332c 0.306 -0.36 0.729 -0.576 1.377 -0.576c 0.684 0 1.17 0.315 1.53 0.783c -0.027 0.09 -0.081 0.135 -0.189 0.144Z m -2.358 1.701c 0.171 1.017 0.801 1.098 1.017 1.098c 0.342 0 0.747 -0.189 0.747 -0.945c 0 -0.081 -0.036 -0.126 -0.135 -0.126Z "/></symbol><symbol id="g4AD90A9068D018AD3CEC8FD5EA9519DC" overflow="visible"><path d="M 0 0m 1.404 3.312c -0.009 0.27 -0.027 0.504 -0.072 0.594c -0.018 0.045 -0.036 0.072 -0.108 0.072c -0.252 -0.099 -0.486 -0.18 -1.107 -0.261c -0.018 -0.054 0 -0.198 0.018 -0.252c 0.486 -0.045 0.585 -0.09 0.585 -0.612v -3.843c 0 -0.747 -0.099 -0.792 -0.648 -0.819c -0.054 -0.054 -0.054 -0.243 0 -0.297c 0.315 0.009 0.648 0.018 1.008 0.018c 0.36 0 0.792 -0.009 1.089 -0.018c 0.054 0.054 0.054 0.243 0 0.297c -0.639 0.036 -0.738 0.072 -0.738 0.819v 0.972c 0 0.117 0.036 0.108 0.126 0.072c 0.225 -0.09 0.495 -0.144 0.783 -0.144c 0.504 0 0.954 0.153 1.323 0.504c 0.423 0.414 0.666 0.972 0.666 1.701c 0 0.954 -0.675 1.836 -1.593 1.836c -0.414 0 -0.873 -0.27 -1.233 -0.675c -0.054 -0.054 -0.09 -0.054 -0.099 0.036Z m 0.171 -0.333c 0.234 0.288 0.648 0.558 0.909 0.558c 0.576 0 1.071 -0.648 1.071 -1.665c 0 -0.738 -0.261 -1.656 -1.269 -1.656c -0.162 0 -0.477 0.045 -0.639 0.189c -0.18 0.162 -0.216 0.216 -0.216 0.54v 1.638c 0 0.189 0.036 0.27 0.144 0.396Z "/></symbol><symbol id="gAE9E23F53692F92B7B295E455DF99330" overflow="visible"><path d="M 0 0m 3.474 0c 0 0 0.702 -0.009 0.882 -0.018c 0.054 0.054 0.054 0.243 0 0.297c -0.351 0.018 -0.423 0.09 -0.576 0.378l -0.405 0.765c -0.225 0.423 -0.54 0.639 -1.053 0.639v 0.027c 0.351 0.099 0.504 0.414 0.639 0.774c 0.108 0.279 0.216 0.45 0.405 0.45c 0.081 0 0.153 -0.027 0.207 -0.063c 0.054 -0.036 0.153 -0.063 0.27 -0.063c 0.198 0 0.36 0.171 0.36 0.351c 0 0.198 -0.216 0.405 -0.513 0.405c -0.522 0 -0.765 -0.486 -0.936 -0.909c -0.198 -0.495 -0.441 -0.837 -1.08 -0.837v 0.567c 0 0.747 0.099 0.774 0.558 0.819c 0.054 0.054 0.054 0.243 0 0.297c -0.216 -0.009 -0.558 -0.018 -0.918 -0.018c -0.387 0 -0.702 0.009 -0.999 0.018c -0.054 -0.054 -0.054 -0.243 0 -0.297c 0.549 -0.036 0.648 -0.072 0.648 -0.819v -1.665c 0 -0.747 -0.099 -0.774 -0.648 -0.819c -0.054 -0.054 -0.054 -0.243 0 -0.297c 0.297 0.009 0.612 0.018 1.008 0.018c 0.351 0 0.711 -0.009 0.909 -0.018c 0.054 0.054 0.054 0.243 0 0.297c -0.459 0.036 -0.558 0.072 -0.558 0.819v 0.783c 0.612 -0.036 0.774 -0.279 0.936 -0.612l 0.387 -0.81c 0.117 -0.243 0.297 -0.45 0.477 -0.459Z "/></symbol><symbol id="gC4FFD6D898D35AD5608C7546EA3EA454" overflow="visible"><path d="M 0 0m 4.167 2.034c 0.117 0 0.243 0.207 0.243 0.297c 0 0.072 -0.036 0.153 -0.126 0.153h -3.519c -0.108 0 -0.225 -0.171 -0.225 -0.306c 0 -0.072 0.054 -0.144 0.135 -0.144Z "/></symbol><symbol id="g24B182CA880AE0D931C8BD78C19DF3C1" overflow="visible"><path d="M 0 0m 2.637 5.814h -0.369l -2.133 -6.345h 0.369Z "/></symbol><symbol id="g4AE5337A4A3FF09E9A9AF89B4B83FC9D" overflow="visible"><path d="M 0 0m 1.674 2.763c 0 0.513 0.063 0.747 0.378 0.747h 0.198c 0.738 0 0.954 -0.513 1.08 -1.035c 0.099 -0.009 0.189 0 0.261 0.036c -0.036 0.477 -0.063 0.873 -0.117 1.35l -0.018 0.018c 0 0 -0.72 -0.018 -1.008 -0.018h -1.134c -0.387 0 -0.702 0.009 -0.999 0.018c -0.054 -0.054 -0.054 -0.243 0 -0.297c 0.549 -0.036 0.648 -0.072 0.648 -0.819v -1.665c 0 -0.747 -0.099 -0.774 -0.648 -0.819c -0.054 -0.054 -0.054 -0.243 0 -0.297c 0.297 0.009 0.612 0.018 1.008 0.018c 0.387 0 0.711 -0.009 0.999 -0.018c 0.054 0.054 0.054 0.243 0 0.297c -0.549 0.036 -0.648 0.072 -0.648 0.819Z "/></symbol><symbol id="gD11A58C3A3B421C2056FF05E75045811" overflow="visible"><path d="M 0 0m 3.87 1.971h -0.747v 2.628c 0 0.45 0 0.801 0.018 0.873l -0.018 0.018h -0.288c -0.063 0 -0.108 -0.054 -0.144 -0.099c -0.567 -0.693 -1.611 -2.178 -2.439 -3.465c 0.027 -0.135 0.081 -0.378 0.351 -0.378h 1.836v -0.828c 0 -0.414 -0.342 -0.414 -0.729 -0.441c -0.054 -0.054 -0.054 -0.243 0 -0.297c 0.288 0.009 0.648 0.018 1.062 0.018c 0.351 0 0.693 -0.009 0.981 -0.018c 0.054 0.054 0.054 0.243 0 0.297c -0.441 0.036 -0.63 0.018 -0.63 0.441v 0.828h 0.621c 0.126 0 0.261 0.171 0.261 0.279c 0 0.09 -0.036 0.144 -0.135 0.144Z m -1.431 2.592v -2.592h -1.719c 0.459 0.738 1.098 1.746 1.719 2.592Z "/></symbol><symbol id="g7427B35904D8106763807ACF831A9726" overflow="visible"><path d="M 0 0m 1.296 3.087c 0.243 0.819 0.819 1.728 2.016 2.178c 0 0.108 -0.036 0.189 -0.108 0.234c -0.909 -0.27 -1.467 -0.648 -1.971 -1.233c -0.558 -0.648 -0.837 -1.467 -0.837 -2.178c 0 -1.827 1.035 -2.187 1.728 -2.187c 1.179 0 1.665 1.143 1.665 1.917c 0 0.774 -0.414 1.467 -1.638 1.467c -0.234 0 -0.585 -0.072 -0.855 -0.198Z m -0.081 -0.324c 0.297 0.198 0.594 0.207 0.747 0.207c 0.882 0 1.08 -0.864 1.08 -1.314c 0 -0.99 -0.378 -1.44 -0.819 -1.44c -0.567 0 -1.08 0.306 -1.08 1.845c 0 0.207 0.018 0.441 0.072 0.702Z "/></symbol></defs></svg>