<svg viewBox="0 0 228.140637008 129.823318898" width="228.140637008pt" height="129.823318898pt" xmlns="http://www.w3.org/2000/svg" xmlns:xlink="http://www.w3.org/1999/xlink" xmlns:h5="http://www.w3.org/1999/xhtml"><path fill="#ffffff" fill-rule="nonzero" d="M 0 0v 129.823318898h 228.140637008v -129.823318898Z "/><g transform="translate(8 8)"><path fill="none" stroke="#1a1a18" stroke-width="0.6" stroke-linecap="butt" stroke-linejoin="miter" stroke-miterlimit="4" transform="translate(27.888668504 100.625952756)" d="M 0 0h 177.728276791"/><path fill="#1a1a18" fill-rule="nonzero" stroke="#1a1a18" stroke-width="0.6" stroke-linecap="butt" stroke-linejoin="miter" stroke-miterlimit="4" transform="translate(205.616945197 98.499968504)" d="M 0 0m 5.669291339 2.125984252l -5.669291339 2.125984252v -4.251968504l 5.669291339 2.125984252Z "/><path fill="none" stroke="#1a1a18" stroke-width="0.6" stroke-linecap="butt" stroke-linejoin="miter" stroke-miterlimit="4" transform="translate(27.888668504 10.771691713)" d="M 0 0m 0 89.854261043v -89.854261043"/><path fill="#1a1a18" fill-rule="nonzero" stroke="#1a1a18" stroke-width="0.6" stroke-linecap="butt" stroke-linejoin="miter" stroke-miterlimit="4" transform="translate(25.762684252 5.102400472)" d="M 0 0m 2.125984252 0l 2.125984252 5.669291339h -4.251968504l 2.125984252 -5.669291339Z "/><path fill="none" transform="translate(183.187637008 105.570318898)" d="M 0 0h 28.953v 8.253h -28.953v -8.253Z "/><g transform="translate(183.187637008 105.570318898)"><g transform="matrix(1 0 0 -1 0 6.147)"><use xlink:href="#g6F3F83F8220F4B0FE27ED35A349BC8A6" x="0" y="0" fill="#7c7f6a" fill-rule="nonzero"/><use xlink:href="#g4AD90A9068D018AD3CEC8FD5EA9519DC" x="4.311" y="0" fill="#7c7f6a" fill-rule="nonzero"/><use xlink:href="#gD351E21AD091924D522A6D2D6355C932" x="8.982" y="0" fill="#7c7f6a" fill-rule="nonzero"/><use xlink:href="#g82C799C01D06EF19E125C6F4348D75CA" x="13.005" y="0" fill="#7c7f6a" fill-rule="nonzero"/><use xlink:href="#gCC8431763A18574B9D70D89AC0A75466" x="19.125" y="0" fill="#7c7f6a" fill-rule="nonzero"/></g><g transform="matrix(1 0 0 -1 25.704 6.147)"><use xlink:href="#g53639B783CA4D00E92983ABDA5BB68C" x="0" y="0" fill="#7c7f6a" fill-rule="nonzero"/></g></g><path fill="none" d="M 0 0h 23.6367v 8.496h -23.6367v -8.496Z "/><g transform="translate(0 0)"><g transform="matrix(1 0 0 -1 0 6.147)"><use xlink:href="#gFD6C9F1B4E100D36BB956B654D63BE12" x="0" y="0" fill="#7c7f6a" fill-rule="nonzero"/></g><g transform="matrix(1 0 0 -1 8.181 6.147)"><use xlink:href="#g5CE5025DAA7A0DE954BA34493822E481" x="0" y="0" fill="#7c7f6a" fill-rule="nonzero"/></g><g transform="matrix(1 0 0 -1 12.681 6.147)"><use xlink:href="#gFD6C9F1B4E100D36BB956B654D63BE12" x="0" y="0" fill="#7c7f6a" fill-rule="nonzero"/></g><g transform="matrix(1 0 0 -1 19.548 8.37)"><use xlink:href="#g5A9122681DA20D1BDEB55AC3585113B9" x="0" y="0" fill="#7c7f6a" fill-rule="nonzero"/></g></g><path fill="none" stroke="#1a1a18" stroke-width="0.6" stroke-linecap="butt" stroke-linejoin="miter" stroke-miterlimit="4" transform="translate(25.054022835 15.586582677)" d="M 0 0h 5.669291339"/><path fill="none" transform="translate(16.552054331 12.683832677)" d="M 0 0h 4.25v 5.8055h -4.25v -5.8055Z "/><g transform="translate(16.552054268 12.683832661)"><g transform="matrix(1 0 0 -1 0 5.8055)"><use xlink:href="#gF8E1CB6BA40572D31FCF6A5EFCFBAE7D" x="0" y="0" fill="#1a1a18" fill-rule="nonzero"/></g></g><path fill="none" stroke="#1a1a18" stroke-width="1.4" stroke-linecap="butt" stroke-linejoin="miter" stroke-miterlimit="4" transform="translate(27.888668504 15.586582677)" d="M 0 0l 7.086614173 17.977587224l 7.086614173 14.177069392l 7.086614173 11.179992846l 7.086614173 8.816507599l 7.086614173 6.952670482l 7.086614173 5.482854326l 7.086614173 4.323761875l 7.086614173 3.409705172l 7.086614173 2.688882898l 7.086614173 2.120444694l 7.086614173 1.672176093l 7.086614173 1.318672868l 7.086614173 1.039901324l 7.086614173 0.820062951l 7.086614173 0.646699094l 7.086614173 0.509984895l 7.086614173 0.402172502l 7.086614173 0.317151985l 7.086614173 0.250105069l 7.086614173 0.19723208l 7.086614173 0.155536605l 7.086614173 0.122655683l 7.086614173 0.09672589l 7.086614173 0.076277737l 7.086614173 0.060152386"/><path fill="none" stroke="#7c7f6a" stroke-width="1.4" stroke-linecap="butt" stroke-linejoin="miter" stroke-miterlimit="4" transform="translate(27.888668504 15.586582677)" d="M 0 0l 7.086614173 1.056376021l 7.086614173 1.043253507l 7.086614173 1.030294004l 7.086614173 1.017495486l 7.086614173 1.004855955l 7.086614173 0.992373433l 7.086614173 0.980045973l 7.086614173 0.967871646l 7.086614173 0.955848551l 7.086614173 0.94397481l 7.086614173 0.932248566l 7.086614173 0.920667989l 7.086614173 0.909231267l 7.086614173 0.897936615l 7.086614173 0.886782267l 7.086614173 0.875766481l 7.086614173 0.864887535l 7.086614173 0.85414373l 7.086614173 0.843533386l 7.086614173 0.833054846l 7.086614173 0.822706472l 7.086614173 0.812486648l 7.086614173 0.802393777l 7.086614173 0.792426282l 7.086614173 0.782582604"/><path fill="none" transform="translate(90.250873228 84.864047244)" d="M 0 0h 58.365v 6.012h -58.365v -6.012Z "/><g transform="translate(90.250873228 84.864047244)"><g transform="matrix(1 0 0 -1 0 5.922)"><use xlink:href="#g7253BD4F4A12C91ABC7B03558525FA66" x="0" y="0" fill="#1a1a18" fill-rule="nonzero"/><use xlink:href="#g9C9C9262F30302871979B086E3504457" x="4.536" y="0" fill="#1a1a18" fill-rule="nonzero"/><use xlink:href="#g5CCD3C35BE7C263075DDDC3F0C06DEE6" x="8.937" y="0" fill="#1a1a18" fill-rule="nonzero"/><use xlink:href="#g3515EF5FD07324BC31659A9072C9EEF0" x="15.453" y="0" fill="#1a1a18" fill-rule="nonzero"/><use xlink:href="#g5F2B105DCE44482CD07DFE0B4651B637" x="20.304" y="0" fill="#1a1a18" fill-rule="nonzero"/><use xlink:href="#gF7AD5B3248F8366898BA115B8D318C4E" x="25.578" y="0" fill="#1a1a18" fill-rule="nonzero"/><use xlink:href="#gCC8431763A18574B9D70D89AC0A75466" x="29.691" y="0" fill="#1a1a18" fill-rule="nonzero"/><use xlink:href="#g611C332DF318E3AAFADBD04F1094DD79" x="36.27" y="0" fill="#1a1a18" fill-rule="nonzero"/><use xlink:href="#gAE9E23F53692F92B7B295E455DF99330" x="40.275" y="0" fill="#1a1a18" fill-rule="nonzero"/><use xlink:href="#gF7AD5B3248F8366898BA115B8D318C4E" x="44.793" y="0" fill="#1a1a18" fill-rule="nonzero"/><use xlink:href="#g5F2B105DCE44482CD07DFE0B4651B637" x="48.906" y="0" fill="#1a1a18" fill-rule="nonzero"/><use xlink:href="#g1F6C67A5839963BD6478B8393FDBF84B" x="54.18" y="0" fill="#1a1a18" fill-rule="nonzero"/></g></g><path fill="none" transform="translate(124.26662126 24.328488189)" d="M 0 0h 32.976v 8.028h -32.976v -8.028Z "/><g transform="translate(124.266621118 24.328488189)"><g transform="matrix(1 0 0 -1 0 5.922)"><use xlink:href="#g6F3F83F8220F4B0FE27ED35A349BC8A6" x="0" y="0" fill="#7c7f6a" fill-rule="nonzero"/><use xlink:href="#gCC8431763A18574B9D70D89AC0A75466" x="6.561" y="0" fill="#7c7f6a" fill-rule="nonzero"/><use xlink:href="#g5F2B105DCE44482CD07DFE0B4651B637" x="10.89" y="0" fill="#7c7f6a" fill-rule="nonzero"/><use xlink:href="#g611C332DF318E3AAFADBD04F1094DD79" x="16.164" y="0" fill="#7c7f6a" fill-rule="nonzero"/><use xlink:href="#gF7AD5B3248F8366898BA115B8D318C4E" x="20.169" y="0" fill="#7c7f6a" fill-rule="nonzero"/><use xlink:href="#g4AD90A9068D018AD3CEC8FD5EA9519DC" x="24.282" y="0" fill="#7c7f6a" fill-rule="nonzero"/><use xlink:href="#gD351E21AD091924D522A6D2D6355C932" x="28.953" y="0" fill="#7c7f6a" fill-rule="nonzero"/></g></g></g><defs><symbol id="g6F3F83F8220F4B0FE27ED35A349BC8A6" overflow="visible"><path d="M 0 0m 1.314 3.861c -0.387 0 -0.702 0.009 -0.999 0.018c -0.054 -0.054 -0.054 -0.243 0 -0.297c 0.549 -0.036 0.648 -0.072 0.648 -0.819v -1.665c 0 -0.747 -0.099 -0.774 -0.648 -0.819c -0.054 -0.054 -0.054 -0.243 0 -0.297c 0.297 0.009 0.612 0.018 1.008 0.018c 0.333 0 0.63 -0.018 1.233 -0.018c 0.774 0 1.359 0.216 1.359 1.107c 0 0.504 -0.315 0.855 -0.864 0.954v 0.027c 0.414 0.081 0.729 0.369 0.729 0.909c 0 0.63 -0.387 0.9 -1.476 0.9c -0.369 0 -0.603 -0.018 -0.99 -0.018Z m 0.36 -1.908h 0.684c 0.549 0 0.783 -0.36 0.783 -0.9c 0 -0.603 -0.342 -0.774 -0.828 -0.774c -0.468 0 -0.639 0.081 -0.639 0.495Z m 0 0.261v 1.044c 0 0.27 0.207 0.324 0.639 0.324c 0.468 0 0.747 -0.126 0.747 -0.666c 0 -0.36 -0.234 -0.702 -0.792 -0.702Z "/></symbol><symbol id="g4AD90A9068D018AD3CEC8FD5EA9519DC" overflow="visible"><path d="M 0 0m 1.404 3.312c -0.009 0.27 -0.027 0.504 -0.072 0.594c -0.018 0.045 -0.036 0.072 -0.108 0.072c -0.252 -0.099 -0.486 -0.18 -1.107 -0.261c -0.018 -0.054 0 -0.198 0.018 -0.252c 0.486 -0.045 0.585 -0.09 0.585 -0.612v -3.843c 0 -0.747 -0.099 -0.792 -0.648 -0.819c -0.054 -0.054 -0.054 -0.243 0 -0.297c 0.315 0.009 0.648 0.018 1.008 0.018c 0.36 0 0.792 -0.009 1.089 -0.018c 0.054 0.054 0.054 0.243 0 0.297c -0.639 0.036 -0.738 0.072 -0.738 0.819v 0.972c 0 0.117 0.036 0.108 0.126 0.072c 0.225 -0.09 0.495 -0.144 0.783 -0.144c 0.504 0 0.954 0.153 1.323 0.504c 0.423 0.414 0.666 0.972 0.666 1.701c 0 0.954 -0.675 1.836 -1.593 1.836c -0.414 0 -0.873 -0.27 -1.233 -0.675c -0.054 -0.054 -0.09 -0.054 -0.099 0.036Z m 0.171 -0.333c 0.234 0.288 0.648 0.558 0.909 0.558c 0.576 0 1.071 -0.648 1.071 -1.665c 0 -0.738 -0.261 -1.656 -1.269 -1.656c -0.162 0 -0.477 0.045 -0.639 0.189c -0.18 0.162 -0.216 0.216 -0.216 0.54v 1.638c 0 0.189 0.036 0.27 0.144 0.396Z "/></symbol><symbol id="gD351E21AD091924D522A6D2D6355C932" overflow="visible"><path d="M 0 0m 3.474 0.837c -0.333 -0.342 -0.594 -0.486 -1.116 -0.486c -0.324 0 -0.702 0.189 -0.981 0.648c -0.18 0.297 -0.288 0.711 -0.288 1.233l 2.394 -0.018c 0.108 0 0.171 0.054 0.171 0.153c 0 0.756 -0.27 1.566 -1.521 1.566c -0.783 0 -1.8 -0.747 -1.8 -2.115c 0 -0.504 0.126 -0.99 0.423 -1.332c 0.306 -0.36 0.729 -0.576 1.377 -0.576c 0.684 0 1.17 0.315 1.53 0.783c -0.027 0.09 -0.081 0.135 -0.189 0.144Z m -2.358 1.701c 0.171 1.017 0.801 1.098 1.017 1.098c 0.342 0 0.747 -0.189 0.747 -0.945c 0 -0.081 -0.036 -0.126 -0.135 -0.126Z "/></symbol><symbol id="g82C799C01D06EF19E125C6F4348D75CA" overflow="visible"><path d="M 0 0m 1.053 2.754l -0.054 -1.674c -0.027 -0.756 -0.162 -0.774 -0.684 -0.801c -0.054 -0.054 -0.054 -0.243 0 -0.297c 0.18 0.009 0.63 0.018 0.774 0.018c 0.18 0 0.603 -0.009 0.783 -0.018c 0.054 0.054 0.054 0.243 0 0.297c -0.513 0.036 -0.549 0.126 -0.531 0.801l 0.063 2.205c 0 0.081 0.036 0.081 0.072 0l 1.305 -3.186c 0.036 -0.027 0.072 -0.027 0.099 0l 1.476 3.177c 0.045 0.099 0.09 0.108 0.09 0l -0.009 -2.178c 0 -0.747 -0.063 -0.774 -0.612 -0.819c -0.054 -0.054 -0.054 -0.243 0 -0.297c 0.324 0.009 0.657 0.018 0.972 0.018c 0.27 0 0.657 -0.009 1.008 -0.018c 0.054 0.054 0.054 0.243 0 0.297c -0.549 0.036 -0.648 0.072 -0.648 0.819l -0.018 1.665c -0.009 0.747 0.099 0.774 0.648 0.819c 0.054 0.054 0.054 0.243 0 0.297c -0.315 -0.018 -1.188 -0.018 -1.485 -0.018l -1.197 -2.574l -0.045 -0.09l -0.036 0.09l -1.053 2.574c -0.297 0 -1.251 0 -1.566 0.018c -0.054 -0.054 -0.054 -0.243 0 -0.297c 0.549 -0.045 0.675 -0.081 0.648 -0.828Z "/></symbol><symbol id="gCC8431763A18574B9D70D89AC0A75466" overflow="visible"><path d="M 0 0m 1.026 0c 0.252 0.009 0.342 0.243 0.45 0.567c 0.234 0.711 0.495 1.152 0.945 1.152h 0.234v -0.621c 0 -0.747 -0.099 -0.774 -0.648 -0.819c -0.054 -0.054 -0.054 -0.243 0 -0.297c 0.297 0.009 0.612 0.018 1.008 0.018c 0.387 0 0.711 -0.009 0.999 -0.018c 0.054 0.054 0.054 0.243 0 0.297c -0.549 0.036 -0.648 0.072 -0.648 0.819v 1.665c 0 0.747 0.099 0.774 0.648 0.819c 0.054 0.054 0.054 0.243 0 0.297c -0.306 -0.009 -0.612 -0.018 -1.008 -0.018c -0.306 0 -0.567 0.018 -0.792 0.018c -1.575 0 -1.71 -0.648 -1.71 -1.134c 0 -0.585 0.45 -0.882 1.116 -0.909c 0.027 0 0.027 -0.027 0.018 -0.036c -0.342 -0.099 -0.495 -0.288 -0.648 -0.621c -0.099 -0.207 -0.18 -0.405 -0.225 -0.522c -0.117 -0.306 -0.27 -0.36 -0.621 -0.378c -0.054 -0.054 -0.054 -0.243 0 -0.297c 0.18 0.009 0.882 0.018 0.882 0.018Z m 0.252 2.889c 0 0.423 0.135 0.693 0.864 0.693c 0.369 0 0.513 -0.162 0.513 -0.504v -1.053h -0.63c -0.54 0 -0.747 0.414 -0.747 0.864Z "/></symbol><symbol id="g53639B783CA4D00E92983ABDA5BB68C" overflow="visible"><path d="M 0 0m 2.97 3.771c 0 0.081 -0.09 0.126 -0.279 0.126h -0.729c 0.234 0.936 0.351 1.422 0.351 1.458c 0 0.189 -0.099 0.279 -0.288 0.279c -0.207 0 -0.333 -0.117 -0.387 -0.351l -0.333 -1.386h -0.801c -0.198 0 -0.297 -0.009 -0.297 -0.198c 0 -0.099 0.09 -0.144 0.279 -0.144h 0.729c -0.441 -1.755 -0.657 -2.682 -0.657 -2.799c 0 -0.504 0.342 -0.855 0.846 -0.855c 0.342 0 0.639 0.153 0.9 0.468c 0.216 0.261 0.369 0.513 0.468 0.756c 0.036 0.099 0.054 0.153 0.054 0.18c 0 0.081 -0.045 0.126 -0.135 0.126c -0.072 0 -0.126 -0.045 -0.162 -0.144c -0.306 -0.747 -0.675 -1.116 -1.116 -1.116c -0.153 0 -0.234 0.126 -0.234 0.369c 0 0.135 0.018 0.279 0.054 0.423l 0.639 2.592h 0.801c 0.234 0 0.297 0.018 0.297 0.216Z "/></symbol><symbol id="gFD6C9F1B4E100D36BB956B654D63BE12" overflow="visible"><path d="M 0 0m 7.776 6.147c -0.171 0 -0.729 -0.027 -0.9 -0.027c -0.171 0 -0.738 0.027 -0.909 0.027c -0.135 0 -0.198 -0.072 -0.198 -0.216c 0 -0.081 0.063 -0.126 0.198 -0.135c 0.378 0 0.567 -0.117 0.567 -0.351c 0 -0.054 -0.009 -0.117 -0.018 -0.18l -0.972 -3.852l -1.935 4.545c -0.072 0.171 -0.09 0.189 -0.315 0.189h -1.197c -0.216 0 -0.297 -0.018 -0.297 -0.216c 0 -0.09 0.099 -0.135 0.288 -0.135c 0.378 0 0.567 -0.009 0.576 -0.036l -1.197 -4.77c -0.081 -0.351 -0.288 -0.549 -0.612 -0.612c -0.234 -0.027 -0.504 0.009 -0.504 -0.243c 0 -0.09 0.054 -0.135 0.153 -0.135c 0.162 0 0.72 0.027 0.891 0.027c 0.171 0 0.747 -0.027 0.918 -0.027c 0.135 0 0.198 0.072 0.198 0.216c 0 0.081 -0.072 0.126 -0.216 0.135c -0.369 0.009 -0.549 0.126 -0.549 0.351c 0 0.045 0.009 0.108 0.027 0.198l 1.161 4.599l 2.25 -5.31c 0.054 -0.126 0.126 -0.189 0.207 -0.189c 0.081 0 0.135 0.072 0.171 0.216l 1.251 4.95c 0.117 0.459 0.369 0.621 0.927 0.63c 0.126 0.009 0.189 0.081 0.189 0.225c -0.027 0.081 -0.036 0.126 -0.153 0.126Z "/></symbol><symbol id="g5CE5025DAA7A0DE954BA34493822E481" overflow="visible"><path d="M 0 0m 3.996 6.462c 0.009 0.018 0.009 0.045 0.009 0.072c 0 0.144 -0.072 0.216 -0.216 0.216c -0.099 0 -0.162 -0.045 -0.198 -0.144l -3.078 -8.568c -0.009 -0.018 -0.009 -0.045 -0.009 -0.072c 0 -0.144 0.072 -0.216 0.216 -0.216c 0.099 0 0.162 0.045 0.198 0.144Z "/></symbol><symbol id="g5A9122681DA20D1BDEB55AC3585113B9" overflow="visible"><path d="M 0 0m 3.2508 2.0097c 0 0.7119 -0.126 1.2537 -0.3717 1.6254c -0.2016 0.315 -0.6048 0.5481 -1.0899 0.5481c -0.2016 0 -0.3843 -0.0315 -0.5418 -0.1008c -0.693 -0.2898 -0.9198 -1.0962 -0.9198 -2.0727c 0 -0.2142 0.0126 -0.4158 0.0315 -0.6111c 0.1071 -0.8253 0.4914 -1.5246 1.4301 -1.5246c 0.2016 0 0.3843 0.0315 0.5418 0.1008c 0.693 0.2835 0.9198 1.071 0.9198 2.0349Z m -0.7182 1.3986c 0.0693 -0.2331 0.1071 -0.6678 0.1071 -1.3167c 0 -0.6174 -0.0252 -1.0521 -0.0819 -1.3104c -0.0756 -0.3717 -0.3402 -0.6804 -0.7686 -0.6804c -0.1575 0 -0.315 0.0504 -0.4599 0.1575c -0.1953 0.1449 -0.315 0.4284 -0.3654 0.8631c -0.0189 0.1449 -0.0252 0.4662 -0.0252 0.9702c 0 0.6111 0.0315 1.0332 0.0945 1.26c 0.1071 0.4032 0.3591 0.6048 0.756 0.6048c 0.378 0 0.6552 -0.2457 0.7434 -0.5481Z "/></symbol><symbol id="gF8E1CB6BA40572D31FCF6A5EFCFBAE7D" overflow="visible"><path d="M 0 0m 2.2865 5.661c -0.3485 -0.357 -0.8585 -0.5355 -1.53 -0.5355v -0.3315c 0.442 0 0.8075 0.068 1.088 0.204v -4.301c 0 -0.153 -0.034 -0.255 -0.1105 -0.2975c -0.0765 -0.0425 -0.289 -0.068 -0.629 -0.068h -0.2975v -0.3315c 0.2125 0.017 0.6715 0.0255 1.377 0.0255c 0.7055 0 1.1645 -0.0085 1.377 -0.0255v 0.3315h -0.2975c -0.3485 0 -0.561 0.0255 -0.629 0.068c -0.068 0.0425 -0.1105 0.1445 -0.1105 0.2975v 4.709c 0 0.204 -0.017 0.255 -0.238 0.255Z "/></symbol><symbol id="g7253BD4F4A12C91ABC7B03558525FA66" overflow="visible"><path d="M 0 0m 0.369 1.845c 0 -0.918 0.612 -1.935 1.89 -1.935c 0.576 0 1.017 0.207 1.323 0.504c 0.405 0.396 0.585 0.963 0.585 1.512c 0 0.936 -0.513 2.025 -1.89 2.025c -0.594 0 -1.08 -0.243 -1.413 -0.63c -0.324 -0.387 -0.495 -0.909 -0.495 -1.476Z m 1.773 1.791c 0.774 0 1.251 -0.702 1.251 -1.998c 0 -1.134 -0.585 -1.413 -1.008 -1.413c -0.936 0 -1.242 1.134 -1.242 1.827c 0 0.783 0.189 1.584 0.999 1.584Z "/></symbol><symbol id="g9C9C9262F30302871979B086E3504457" overflow="visible"><path d="M 0 0m 0.306 2.313c 0 -1.701 0.981 -2.403 1.854 -2.403c 1.233 0 1.944 0.918 1.944 2.052c 0 0.972 -0.54 1.989 -1.809 1.989c -0.855 0 -1.377 -0.504 -1.575 -0.936l -0.018 0.018c 0.036 0.468 0.18 1.044 0.315 1.278c 0.288 0.495 0.63 0.522 1.458 0.612c 0.81 0.09 1.386 0.351 1.467 1.359c -0.063 0.027 -0.126 0.036 -0.198 0c -0.072 -0.432 -0.549 -0.549 -1.305 -0.666c -0.729 -0.117 -1.341 -0.369 -1.719 -1.08c -0.324 -0.612 -0.414 -1.368 -0.414 -2.223Z m 0.774 -0.234c 0 0.504 0.18 1.557 1.116 1.557c 0.702 0 1.134 -0.81 1.134 -1.89c 0 -1.134 -0.522 -1.521 -1.008 -1.521c -0.657 0 -1.242 0.855 -1.242 1.854Z "/></symbol><symbol id="g5CCD3C35BE7C263075DDDC3F0C06DEE6" overflow="visible"><path d="M 0 0m 1.674 2.754c 0 0.756 0.099 0.783 0.648 0.828c 0.054 0.054 0.054 0.243 0 0.297c -0.306 -0.009 -0.612 -0.018 -1.008 -0.018c -0.387 0 -0.702 0.009 -0.999 0.018c -0.054 -0.054 -0.054 -0.243 0 -0.297c 0.549 -0.036 0.648 -0.072 0.648 -0.819v -1.665c 0 -0.747 -0.099 -0.774 -0.648 -0.819c -0.054 -0.054 -0.054 -0.243 0 -0.297c 0.297 0.009 0.612 0.018 1.008 0.018c 0.369 0 0.567 -0.018 0.936 -0.018c 1.107 0 1.71 0.279 1.71 1.242c 0 0.846 -0.738 1.089 -1.647 1.089h -0.648Z m 3.879 0.009c 0 0.747 0.099 0.774 0.648 0.819c 0.054 0.054 0.054 0.243 0 0.297c -0.306 -0.009 -0.612 -0.018 -1.008 -0.018c -0.387 0 -0.702 0.009 -0.999 0.018c -0.054 -0.054 -0.054 -0.243 0 -0.297c 0.549 -0.036 0.648 -0.072 0.648 -0.819v -1.665c 0 -0.747 -0.099 -0.774 -0.648 -0.819c -0.054 -0.054 -0.054 -0.243 0 -0.297c 0.297 0.009 0.612 0.018 1.008 0.018c 0.387 0 0.711 -0.009 0.999 -0.018c 0.054 0.054 0.054 0.243 0 0.297c -0.549 0.036 -0.648 0.072 -0.648 0.819Z m -2.358 -1.629c 0 -0.738 -0.45 -0.855 -0.927 -0.855c -0.441 0 -0.594 0.09 -0.594 0.405v 1.332h 0.639c 0.675 0 0.882 -0.405 0.882 -0.882Z "/></symbol><symbol id="g3515EF5FD07324BC31659A9072C9EEF0" overflow="visible"><path d="M 0 0m 1.458 2.763c 0 0.747 0.099 0.774 0.558 0.819c 0.054 0.054 0.054 0.243 0 0.297c -0.216 -0.009 -0.558 -0.018 -0.918 -0.018c -0.387 0 -0.693 0.009 -0.99 0.018c -0.054 -0.054 -0.054 -0.243 0 -0.297c 0.549 -0.036 0.648 -0.072 0.648 -0.819v -0.387c 0 -0.846 0.189 -1.179 1.026 -1.179c 0.567 0 1.017 0.324 1.386 0.594v -0.693c 0 -0.747 -0.099 -0.774 -0.648 -0.819c -0.054 -0.054 -0.054 -0.243 0 -0.297c 0.297 0.009 0.612 0.018 1.008 0.018c 0.387 0 0.72 -0.009 1.008 -0.018c 0.054 0.054 0.054 0.243 0 0.297c -0.549 0.036 -0.648 0.072 -0.648 0.819v 1.665c 0 0.747 0.099 0.774 0.648 0.819c 0.054 0.054 0.054 0.243 0 0.297c -0.306 -0.009 -0.612 -0.018 -1.008 -0.018c -0.351 0 -0.711 0.009 -0.918 0.018c -0.054 -0.054 -0.054 -0.243 0 -0.297c 0.459 -0.036 0.558 -0.072 0.558 -0.819v -0.648c -0.306 -0.27 -0.63 -0.513 -1.098 -0.513c -0.585 0 -0.612 0.306 -0.612 1.008Z "/></symbol><symbol id="g5F2B105DCE44482CD07DFE0B4651B637" overflow="visible"><path d="M 0 0m 4.311 2.763c 0 0.747 0.099 0.774 0.648 0.819c 0.054 0.054 0.054 0.243 0 0.297c -0.315 -0.018 -0.711 -0.018 -1.008 -0.018c -0.252 0 -0.612 0.009 -0.963 0.018c -0.054 -0.054 -0.054 -0.243 0 -0.297c 0.549 -0.036 0.612 -0.072 0.612 -0.819v -0.585h -1.926v 0.585c 0 0.747 0.063 0.774 0.612 0.819c 0.054 0.054 0.054 0.243 0 0.297c -0.342 -0.009 -0.684 -0.018 -0.972 -0.018c -0.27 0 -0.639 0.009 -0.999 0.018c -0.054 -0.054 -0.054 -0.243 0 -0.297c 0.549 -0.036 0.648 -0.072 0.648 -0.819v -1.665c 0 -0.747 -0.099 -0.774 -0.648 -0.819c -0.054 -0.054 -0.054 -0.243 0 -0.297c 0.36 0.009 0.72 0.018 1.008 0.018c 0.288 0 0.639 -0.009 0.963 -0.018c 0.054 0.054 0.054 0.243 0 0.297c -0.549 0.036 -0.612 0.072 -0.612 0.819v 0.783h 1.926v -0.783c 0 -0.747 -0.063 -0.774 -0.612 -0.819c -0.054 -0.054 -0.054 -0.243 0 -0.297c 0.324 0.009 0.657 0.018 0.972 0.018c 0.27 0 0.648 -0.009 0.999 -0.018c 0.054 0.054 0.054 0.243 0 0.297c -0.549 0.036 -0.648 0.072 -0.648 0.819Z "/></symbol><symbol id="gF7AD5B3248F8366898BA115B8D318C4E" overflow="visible"><path d="M 0 0m 2.637 0.432c 0.054 -0.279 0.153 -0.522 0.603 -0.522c 0.342 0 0.666 0.153 0.855 0.333c -0.018 0.108 -0.054 0.189 -0.153 0.243c -0.063 -0.054 -0.216 -0.144 -0.333 -0.144c -0.261 0 -0.27 0.351 -0.27 0.765v 1.323c 0 1.278 -0.702 1.521 -1.359 1.521c -0.738 0 -1.485 -0.486 -1.485 -0.999c 0 -0.216 0.108 -0.324 0.315 -0.324c 0.261 0 0.423 0.189 0.423 0.306c 0 0.063 -0.009 0.126 -0.027 0.162c -0.009 0.027 -0.018 0.081 -0.018 0.18c 0 0.279 0.378 0.378 0.72 0.378c 0.306 0 0.729 -0.153 0.729 -1.17c 0 -0.063 -0.027 -0.099 -0.054 -0.108l -0.774 -0.189c -0.864 -0.216 -1.485 -0.693 -1.485 -1.305c 0 -0.738 0.504 -0.972 1.134 -0.972c 0.315 0 0.585 0.072 0.981 0.378l 0.18 0.144Z m 0 1.665v -1.188c 0 -0.117 -0.054 -0.18 -0.126 -0.234c -0.234 -0.189 -0.54 -0.396 -0.792 -0.396c -0.45 0 -0.648 0.36 -0.648 0.639c 0 0.405 0.189 0.819 0.855 0.99Z "/></symbol><symbol id="g611C332DF318E3AAFADBD04F1094DD79" overflow="visible"><path d="M 0 0m 1.638 1.098c 0 -0.747 -0.099 -0.792 -0.648 -0.819c -0.054 -0.054 -0.054 -0.243 0 -0.297c 0.351 0.009 0.711 0.018 1.008 0.018c 0.306 0 0.657 -0.009 0.999 -0.018c 0.054 0.054 0.054 0.243 0 0.297c -0.549 0.027 -0.648 0.072 -0.648 0.819v 2.43h 0.153c 0.729 0 0.873 -0.252 1.026 -0.981c 0.117 0 0.234 0.036 0.234 0.036c -0.054 0.414 -0.09 0.81 -0.099 1.332c -0.207 -0.018 -0.882 -0.054 -1.332 -0.054h -0.675c -0.45 0 -0.954 0.027 -1.314 0.054c -0.009 -0.522 -0.045 -0.918 -0.108 -1.332c 0 0 0.126 -0.036 0.243 -0.036c 0.153 0.729 0.288 0.981 1.026 0.981h 0.135Z "/></symbol><symbol id="gAE9E23F53692F92B7B295E455DF99330" overflow="visible"><path d="M 0 0m 3.474 0c 0 0 0.702 -0.009 0.882 -0.018c 0.054 0.054 0.054 0.243 0 0.297c -0.351 0.018 -0.423 0.09 -0.576 0.378l -0.405 0.765c -0.225 0.423 -0.54 0.639 -1.053 0.639v 0.027c 0.351 0.099 0.504 0.414 0.639 0.774c 0.108 0.279 0.216 0.45 0.405 0.45c 0.081 0 0.153 -0.027 0.207 -0.063c 0.054 -0.036 0.153 -0.063 0.27 -0.063c 0.198 0 0.36 0.171 0.36 0.351c 0 0.198 -0.216 0.405 -0.513 0.405c -0.522 0 -0.765 -0.486 -0.936 -0.909c -0.198 -0.495 -0.441 -0.837 -1.08 -0.837v 0.567c 0 0.747 0.099 0.774 0.558 0.819c 0.054 0.054 0.054 0.243 0 0.297c -0.216 -0.009 -0.558 -0.018 -0.918 -0.018c -0.387 0 -0.702 0.009 -0.999 0.018c -0.054 -0.054 -0.054 -0.243 0 -0.297c 0.549 -0.036 0.648 -0.072 0.648 -0.819v -1.665c 0 -0.747 -0.099 -0.774 -0.648 -0.819c -0.054 -0.054 -0.054 -0.243 0 -0.297c 0.297 0.009 0.612 0.018 1.008 0.018c 0.351 0 0.711 -0.009 0.909 -0.018c 0.054 0.054 0.054 0.243 0 0.297c -0.459 0.036 -0.558 0.072 -0.558 0.819v 0.783c 0.612 -0.036 0.774 -0.279 0.936 -0.612l 0.387 -0.81c 0.117 -0.243 0.297 -0.45 0.477 -0.459Z "/></symbol><symbol id="g1F6C67A5839963BD6478B8393FDBF84B" overflow="visible"><path d="M 0 0m 1.674 2.754c 0 0.756 0.099 0.783 0.648 0.828c 0.054 0.054 0.054 0.243 0 0.297c -0.306 -0.009 -0.612 -0.018 -1.008 -0.018c -0.387 0 -0.702 0.009 -0.999 0.018c -0.054 -0.054 -0.054 -0.243 0 -0.297c 0.549 -0.036 0.648 -0.072 0.648 -0.819v -1.665c 0 -0.747 -0.099 -0.774 -0.648 -0.819c -0.054 -0.054 -0.054 -0.243 0 -0.297c 0.297 0.009 0.612 0.018 1.008 0.018c 0.369 0 0.567 -0.018 0.936 -0.018c 1.107 0 1.71 0.279 1.71 1.242c 0 0.846 -0.738 1.089 -1.647 1.089h -0.648Z m 1.521 -1.62c 0 -0.738 -0.45 -0.855 -0.927 -0.855c -0.441 0 -0.594 0.09 -0.594 0.405v 1.332h 0.639c 0.675 0 0.882 -0.405 0.882 -0.882Z "/></symbol></defs></svg>