<svg xmlns="http://www.w3.org/2000/svg" viewBox="0 0 1000 560" font-family="Georgia,serif">
  <rect width="1000" height="560" fill="#DBD4C7"/>
  <!-- море сверху -->
  <rect width="1000" height="64" fill="#B8B5A6" opacity="0.55"/>
  <text x="982" y="40" font-size="22" fill="#3E4038" text-anchor="end" font-style="italic" opacity="0.8">Балтийское море</text>
  <!-- дорога-серпантин -->
  <polyline points="80.0,481.6 280.0,481.6 480.0,481.6 680.0,481.6 880.0,481.6 880.0,358.4 680.0,358.4 480.0,358.4 280.0,358.4 80.0,358.4 80.0,235.2 280.0,235.2 480.0,235.2 680.0,235.2 880.0,235.2 880.0,112.0 680.0,112.0 480.0,112.0 280.0,112.0 80.0,112.0" fill="none" stroke="#7C7F6A" stroke-width="4"
            stroke-linejoin="round" stroke-linecap="round" stroke-dasharray="2 9" opacity="0.9"/>
  <circle cx="80.0" cy="481.6" r="11" fill="#fff" stroke="#7C7F6A" stroke-width="2"/><text x="80.0" y="485.6" font-family="Georgia,serif" font-size="12" font-weight="700" fill="#7C7F6A" text-anchor="middle">1</text><circle cx="280.0" cy="481.6" r="11" fill="#fff" stroke="#7C7F6A" stroke-width="2"/><text x="280.0" y="485.6" font-family="Georgia,serif" font-size="12" font-weight="700" fill="#7C7F6A" text-anchor="middle">2</text><circle cx="480.0" cy="481.6" r="11" fill="#fff" stroke="#7C7F6A" stroke-width="2"/><text x="480.0" y="485.6" font-family="Georgia,serif" font-size="12" font-weight="700" fill="#7C7F6A" text-anchor="middle">3</text><circle cx="680.0" cy="481.6" r="11" fill="#fff" stroke="#7C7F6A" stroke-width="2"/><text x="680.0" y="485.6" font-family="Georgia,serif" font-size="12" font-weight="700" fill="#7C7F6A" text-anchor="middle">4</text><circle cx="880.0" cy="481.6" r="11" fill="#fff" stroke="#7C7F6A" stroke-width="2"/><text x="880.0" y="485.6" font-family="Georgia,serif" font-size="12" font-weight="700" fill="#7C7F6A" text-anchor="middle">5</text><circle cx="880.0" cy="358.4" r="11" fill="#fff" stroke="#7C7F6A" stroke-width="2"/><text x="880.0" y="362.4" font-family="Georgia,serif" font-size="12" font-weight="700" fill="#7C7F6A" text-anchor="middle">6</text><circle cx="680.0" cy="358.4" r="11" fill="#fff" stroke="#7C7F6A" stroke-width="2"/><text x="680.0" y="362.4" font-family="Georgia,serif" font-size="12" font-weight="700" fill="#7C7F6A" text-anchor="middle">7</text><circle cx="480.0" cy="358.4" r="11" fill="#fff" stroke="#7C7F6A" stroke-width="2"/><text x="480.0" y="362.4" font-family="Georgia,serif" font-size="12" font-weight="700" fill="#7C7F6A" text-anchor="middle">8</text><circle cx="280.0" cy="358.4" r="11" fill="#fff" stroke="#7C7F6A" stroke-width="2"/><text x="280.0" y="362.4" font-family="Georgia,serif" font-size="12" font-weight="700" fill="#7C7F6A" text-anchor="middle">9</text><circle cx="80.0" cy="358.4" r="11" fill="#fff" stroke="#7C7F6A" stroke-width="2"/><text x="80.0" y="362.4" font-family="Georgia,serif" font-size="12" font-weight="700" fill="#7C7F6A" text-anchor="middle">10</text><circle cx="80.0" cy="235.2" r="11" fill="#fff" stroke="#7C7F6A" stroke-width="2"/><text x="80.0" y="239.2" font-family="Georgia,serif" font-size="12" font-weight="700" fill="#7C7F6A" text-anchor="middle">11</text><circle cx="280.0" cy="235.2" r="11" fill="#fff" stroke="#7C7F6A" stroke-width="2"/><text x="280.0" y="239.2" font-family="Georgia,serif" font-size="12" font-weight="700" fill="#7C7F6A" text-anchor="middle">12</text><circle cx="480.0" cy="235.2" r="11" fill="#fff" stroke="#7C7F6A" stroke-width="2"/><text x="480.0" y="239.2" font-family="Georgia,serif" font-size="12" font-weight="700" fill="#7C7F6A" text-anchor="middle">13</text><circle cx="680.0" cy="235.2" r="11" fill="#fff" stroke="#7C7F6A" stroke-width="2"/><text x="680.0" y="239.2" font-family="Georgia,serif" font-size="12" font-weight="700" fill="#7C7F6A" text-anchor="middle">14</text><circle cx="880.0" cy="235.2" r="11" fill="#fff" stroke="#7C7F6A" stroke-width="2"/><text x="880.0" y="239.2" font-family="Georgia,serif" font-size="12" font-weight="700" fill="#7C7F6A" text-anchor="middle">15</text><circle cx="880.0" cy="112.0" r="11" fill="#fff" stroke="#7C7F6A" stroke-width="2"/><text x="880.0" y="116.0" font-family="Georgia,serif" font-size="12" font-weight="700" fill="#7C7F6A" text-anchor="middle">16</text><circle cx="680.0" cy="112.0" r="11" fill="#fff" stroke="#7C7F6A" stroke-width="2"/><text x="680.0" y="116.0" font-family="Georgia,serif" font-size="12" font-weight="700" fill="#7C7F6A" text-anchor="middle">17</text><circle cx="480.0" cy="112.0" r="11" fill="#fff" stroke="#7C7F6A" stroke-width="2"/><text x="480.0" y="116.0" font-family="Georgia,serif" font-size="12" font-weight="700" fill="#7C7F6A" text-anchor="middle">18</text><circle cx="280.0" cy="112.0" r="11" fill="#fff" stroke="#7C7F6A" stroke-width="2"/><text x="280.0" y="116.0" font-family="Georgia,serif" font-size="12" font-weight="700" fill="#7C7F6A" text-anchor="middle">19</text><circle cx="80.0" cy="112.0" r="11" fill="#fff" stroke="#7C7F6A" stroke-width="2"/><text x="80.0" y="116.0" font-family="Georgia,serif" font-size="12" font-weight="700" fill="#7C7F6A" text-anchor="middle">20</text>
  <text x="80" y="516" font-size="15" fill="#3E4038" text-anchor="middle">старт · вокзал</text>
  <text x="80" y="90" font-size="15" fill="#3E4038" text-anchor="middle">клифы</text>
</svg>